<?xml version="1.0" encoding="UTF-8"?>
<svg id="ammar_conventional_therapy_follow-up_mobile" data-name="ammar_conventional_therapy_follow-up_mobile" xmlns="http://www.w3.org/2000/svg" xmlns:xlink="http://www.w3.org/1999/xlink" viewBox="0 0 334.6 352.35">
  <defs>
    <style>
      .mobile-cls-1 {
        fill: #e0e1e0;
      }

      .mobile-cls-1, .mobile-cls-2, .mobile-cls-3, .mobile-cls-4, .mobile-cls-5, .mobile-cls-6, .mobile-cls-7, .mobile-cls-8 {
        stroke-width: 0px;
      }

      .mobile-cls-2 {
        fill: url(#mobile-linear-gradient);
      }

      .mobile-cls-9, .mobile-cls-10 {
        stroke: #9d5b8f;
        stroke-linecap: round;
        stroke-linejoin: round;
        stroke-width: 4px;
      }

      .mobile-cls-9, .mobile-cls-10, .mobile-cls-11 {
        fill: none;
      }

      .mobile-cls-3 {
        fill: #d24230;
      }

      .mobile-cls-4 {
        fill: #fff;
      }

      .mobile-cls-5 {
        fill: url(#mobile-linear-gradient-2);
      }

      .mobile-cls-6 {
        fill: #231f20;
      }

      .mobile-cls-10 {
        stroke-dasharray: 0 0 0 4.67;
      }

      .mobile-cls-7 {
        fill: #84277f;
      }

      .mobile-cls-8 {
        fill: #872780;
      }

      .mobile-cls-11 {
        stroke: #808b86;
        stroke-miterlimit: 10;
        stroke-width: 2px;
      }
    </style>
    <linearGradient id="mobile-linear-gradient" x1="150.44" y1="319.55" x2="150.44" y2="351.72" gradientUnits="userSpaceOnUse">
      <stop offset="0" stop-color="#bebdbd"/>
      <stop offset="1" stop-color="#fff"/>
    </linearGradient>
    <linearGradient id="mobile-linear-gradient-2" x1="150.44" y1="321.04" x2="150.44" y2="350.28" gradientUnits="userSpaceOnUse">
      <stop offset="0" stop-color="#872780"/>
      <stop offset=".2" stop-color="#9b2e69"/>
      <stop offset=".53" stop-color="#b9394a"/>
      <stop offset=".81" stop-color="#cb3f36"/>
      <stop offset="1" stop-color="#d24230"/>
    </linearGradient>
  </defs>
  <g id="ammar_conventional_therapy_follow-up_mobile_svg">
    <g>
      <line id="timeline" class="mobile-cls-11" x1="150.44" y1="344.62" x2="150.44" y2="37.93"/>
      <g id="azathioprine_banner">
        <polygon class="mobile-cls-3" points="52.38 331.69 52.38 111.74 67.86 120.07 83.34 111.74 83.34 331.69 67.86 340.02 52.38 331.69"/>
        <g>
          <path class="mobile-cls-4" d="m62.71,259.92v-.89l8.46-3.83v1.02l-2.22.98v4.57l2.22,1v.97l-8.46-3.83Zm5.38-2.34l-4.28,1.91,4.28,1.92v-3.83Z"/>
          <path class="mobile-cls-4" d="m70.58,254.06l-4.83-4.11v3.97h-.78v-5.23h.59l4.83,4.13v-4.13h.78v5.37h-.59Z"/>
          <path class="mobile-cls-4" d="m69.37,247.5h-.02c-1.31,0-2-1.08-2-2.65,0-.79.11-1.35.26-1.91h-.22c-1.12,0-1.69.68-1.69,1.85,0,.73.19,1.31.46,1.88l-.75.28c-.31-.68-.52-1.36-.52-2.25s.23-1.55.68-2c.42-.42,1.02-.64,1.81-.64h3.79v.89h-.94c.56.43,1.07,1.15,1.07,2.24,0,1.15-.66,2.31-1.93,2.31Zm-.48-4.57h-.6c-.13.46-.26,1.07-.26,1.82,0,1.16.5,1.81,1.28,1.81h.02c.78,0,1.24-.72,1.24-1.56,0-1.14-.7-2.08-1.68-2.08Z"/>
          <path class="mobile-cls-4" d="m69.53,239.82h-3.74v.86h-.82v-.86h-1.87v-.92h1.87v-1.97h.82v1.97h3.62c.75,0,1.03-.42,1.03-1.04,0-.31-.06-.58-.22-.9h.79c.17.32.26.67.26,1.12,0,1-.49,1.75-1.75,1.75Z"/>
          <path class="mobile-cls-4" d="m62.41,235.29v-.92h3.63c-.67-.41-1.21-1.06-1.21-2.12,0-1.5,1.01-2.38,2.48-2.38h3.85v.92h-3.62c-1.15,0-1.87.62-1.87,1.71s.78,1.86,1.94,1.86h3.55v.92h-8.75Z"/>
          <path class="mobile-cls-4" d="m62.59,227.88v-1.06h1.02v1.06h-1.02Zm2.38-.06v-.92h6.2v.92h-6.2Z"/>
          <path class="mobile-cls-4" d="m68.1,225.13h-.02c-1.75,0-3.24-1.37-3.24-3.24s1.46-3.23,3.21-3.23h.02c1.75,0,3.24,1.38,3.24,3.25s-1.46,3.21-3.21,3.21Zm0-5.52h-.02c-1.33,0-2.42,1-2.42,2.3s1.09,2.27,2.4,2.27h.02c1.33,0,2.41-.98,2.41-2.29s-1.08-2.28-2.39-2.28Z"/>
          <path class="mobile-cls-4" d="m64.97,217v-.92h1.25c-.74-.5-1.38-1.24-1.38-2.37,0-1.49,1.17-2.96,3.21-2.96h.02c2.03,0,3.23,1.46,3.23,2.96,0,1.15-.62,1.9-1.32,2.37h3.11v.92h-8.12Zm3.12-5.31h-.02c-1.46,0-2.4,1.01-2.4,2.18s.97,2.24,2.39,2.24h.02c1.44,0,2.4-1.09,2.4-2.24s-.89-2.18-2.39-2.18Z"/>
          <path class="mobile-cls-4" d="m64.97,209.03v-.92h1.62c-1.03-.46-1.78-1.35-1.73-2.53h1v.07c0,1.36.97,2.46,2.84,2.46h2.47v.92h-6.2Z"/>
          <path class="mobile-cls-4" d="m62.59,204.14v-1.06h1.02v1.06h-1.02Zm2.38-.06v-.92h6.2v.92h-6.2Z"/>
          <path class="mobile-cls-4" d="m64.97,201.01v-.92h1.08c-.67-.41-1.21-1.06-1.21-2.12,0-1.5,1.01-2.38,2.48-2.38h3.85v.92h-3.62c-1.15,0-1.87.62-1.87,1.71s.78,1.86,1.94,1.86h3.55v.92h-6.2Z"/>
          <path class="mobile-cls-4" d="m68.09,194h-.02c-1.79,0-3.23-1.26-3.23-2.97,0-1.83,1.46-2.89,3.27-2.89.12,0,.19,0,.3.01v4.92c1.34-.13,2.1-1.08,2.1-2.18,0-.85-.35-1.45-.88-1.95l.52-.58c.7.62,1.16,1.38,1.16,2.55,0,1.7-1.31,3.09-3.23,3.09Zm-.36-4.93c-1.13.1-2.11.74-2.11,1.98,0,1.08.9,1.9,2.11,2.02v-3.99Z"/>
        </g>
      </g>
      <g id="budesonide_banner">
        <polygon class="mobile-cls-3" points="0 330.77 0 198.07 18.89 208.24 37.78 198.07 37.78 330.77 18.89 340.94 0 330.77"/>
        <g>
          <path class="mobile-cls-4" d="m7.13,296.12v-3.57c0-.96.28-1.72.74-2.19.36-.35.8-.54,1.34-.54h.02c1.09,0,1.65.67,1.94,1.33.3-1,.88-1.8,2.03-1.8h.02c1.44,0,2.29,1.21,2.29,3.05v3.73H7.13Zm2.22-5.35c-.83,0-1.37.66-1.37,1.86v2.55h2.89v-2.48c0-1.14-.52-1.93-1.5-1.93h-.02Zm2.36,1.76v2.65h2.96v-2.82c0-1.27-.56-2.06-1.5-2.06h-.02c-.91,0-1.44.77-1.44,2.23Z"/>
          <path class="mobile-cls-4" d="m13.17,287.7h-3.85v-.92h3.62c1.15,0,1.87-.62,1.87-1.72s-.78-1.86-1.94-1.86h-3.55v-.91h6.2v.91h-1.08c.67.42,1.21,1.06,1.21,2.12,0,1.5-1.01,2.37-2.48,2.37Z"/>
          <path class="mobile-cls-4" d="m12.44,280.58h-.02c-2.03,0-3.23-1.48-3.23-2.96,0-1.15.62-1.9,1.32-2.38h-3.74v-.92h8.75v.92h-1.25c.74.5,1.38,1.24,1.38,2.38,0,1.49-1.17,2.96-3.21,2.96Zm-.01-5.37h-.02c-1.43,0-2.39,1.09-2.39,2.24s.89,2.18,2.39,2.18h.02c1.46,0,2.4-1.01,2.4-2.18s-.97-2.24-2.4-2.24Z"/>
          <path class="mobile-cls-4" d="m12.44,272.63h-.02c-1.79,0-3.23-1.26-3.23-2.97,0-1.83,1.46-2.89,3.27-2.89.12,0,.19,0,.3.01v4.92c1.34-.13,2.1-1.08,2.1-2.18,0-.85-.35-1.45-.88-1.95l.52-.58c.7.62,1.16,1.38,1.16,2.55,0,1.7-1.31,3.09-3.23,3.09Zm-.36-4.93c-1.13.1-2.11.74-2.11,1.98,0,1.08.9,1.9,2.11,2.02v-3.99Z"/>
          <path class="mobile-cls-4" d="m14.73,265.66l-.66-.47c.5-.67.79-1.42.79-2.15s-.38-1.28-.98-1.28h-.02c-.62,0-.86.73-1.09,1.55-.28.97-.61,2.05-1.75,2.05h-.02c-1.07,0-1.78-.89-1.78-2.11,0-.76.26-1.6.68-2.23l.7.42c-.37.58-.6,1.24-.6,1.83,0,.73.38,1.2.9,1.2h.02c.59,0,.82-.77,1.07-1.6.29-.96.66-1.99,1.78-1.99h.02c1.18,0,1.86.97,1.86,2.21,0,.89-.35,1.87-.91,2.57Z"/>
          <path class="mobile-cls-4" d="m12.45,259.55h-.02c-1.75,0-3.24-1.37-3.24-3.24s1.46-3.23,3.21-3.23h.02c1.75,0,3.24,1.38,3.24,3.25s-1.46,3.21-3.21,3.21Zm0-5.52h-.02c-1.33,0-2.42,1-2.42,2.3s1.09,2.27,2.4,2.27h.02c1.33,0,2.41-.98,2.41-2.29s-1.08-2.28-2.39-2.28Z"/>
          <path class="mobile-cls-4" d="m9.32,251.42v-.92h1.08c-.67-.41-1.21-1.06-1.21-2.12,0-1.5,1.01-2.38,2.48-2.38h3.85v.92h-3.62c-1.15,0-1.87.62-1.87,1.71s.78,1.86,1.94,1.86h3.55v.92h-6.2Z"/>
          <path class="mobile-cls-4" d="m6.95,244v-1.06h1.02v1.06h-1.02Zm2.38-.06v-.92h6.2v.92h-6.2Z"/>
          <path class="mobile-cls-4" d="m12.44,241.23h-.02c-2.03,0-3.23-1.48-3.23-2.96,0-1.15.62-1.9,1.32-2.38h-3.74v-.92h8.75v.92h-1.25c.74.5,1.38,1.24,1.38,2.38,0,1.49-1.17,2.96-3.21,2.96Zm-.01-5.37h-.02c-1.43,0-2.39,1.09-2.39,2.24s.89,2.18,2.39,2.18h.02c1.46,0,2.4-1.01,2.4-2.18s-.97-2.24-2.4-2.24Z"/>
          <path class="mobile-cls-4" d="m12.44,233.28h-.02c-1.79,0-3.23-1.26-3.23-2.97,0-1.83,1.46-2.89,3.27-2.89.12,0,.19,0,.3.01v4.92c1.34-.13,2.1-1.08,2.1-2.18,0-.85-.35-1.45-.88-1.95l.52-.58c.7.62,1.16,1.38,1.16,2.55,0,1.7-1.31,3.09-3.23,3.09Zm-.36-4.93c-1.13.1-2.11.74-2.11,1.98,0,1.08.9,1.9,2.11,2.02v-3.99Z"/>
          <path class="mobile-cls-4" d="m25.88,295.51v.85h-.8v-.85h-.54c-.71,0-1.25-.19-1.59-.54-.31-.31-.48-.77-.48-1.33,0-.43.05-.72.16-1.02h.8c-.1.34-.16.59-.16.9,0,.72.43,1.08,1.32,1.08h.5v-1.97h.79v1.96h5.38v.92h-5.38Z"/>
          <path class="mobile-cls-4" d="m28.19,291.96h-.02c-1.75,0-3.24-1.37-3.24-3.24s1.46-3.23,3.21-3.23h.02c1.75,0,3.24,1.38,3.24,3.25s-1.46,3.21-3.21,3.21Zm0-5.52h-.02c-1.33,0-2.42,1-2.42,2.3s1.09,2.27,2.4,2.27h.02c1.33,0,2.41-.98,2.41-2.29s-1.08-2.28-2.39-2.28Z"/>
          <path class="mobile-cls-4" d="m25.06,283.82v-.92h1.62c-1.03-.46-1.78-1.35-1.73-2.53h1v.07c0,1.36.97,2.46,2.84,2.46h2.47v.92h-6.2Z"/>
          <path class="mobile-cls-4" d="m23.79,274.25l.49,1.58-.77.23-.71-2.05v-.7h8.46v.94h-7.47Z"/>
          <path class="mobile-cls-4" d="m23.79,269.95l.49,1.58-.77.23-.71-2.05v-.7h8.46v.94h-7.47Z"/>
          <path class="mobile-cls-4" d="m25.06,263.7v-.98l4.98-1.63-5-1.67v-.77l5-1.68-4.98-1.63v-.96l6.25,2.18v.8l-4.89,1.67,4.89,1.68v.82l-6.25,2.17Z"/>
          <path class="mobile-cls-4" d="m28.18,253.52h-.02c-1.79,0-3.23-1.26-3.23-2.97,0-1.83,1.46-2.89,3.27-2.89.12,0,.19,0,.3.01v4.92c1.34-.13,2.1-1.08,2.1-2.18,0-.85-.35-1.45-.88-1.95l.52-.58c.7.62,1.16,1.38,1.16,2.55,0,1.7-1.31,3.09-3.23,3.09Zm-.36-4.93c-1.13.1-2.11.74-2.11,1.98,0,1.08.9,1.9,2.11,2.02v-3.99Z"/>
          <path class="mobile-cls-4" d="m28.18,246.42h-.02c-1.79,0-3.23-1.26-3.23-2.97,0-1.83,1.46-2.89,3.27-2.89.12,0,.19,0,.3.01v4.92c1.34-.13,2.1-1.08,2.1-2.18,0-.85-.35-1.45-.88-1.95l.52-.58c.7.62,1.16,1.38,1.16,2.55,0,1.7-1.31,3.09-3.23,3.09Zm-.36-4.93c-1.13.1-2.11.74-2.11,1.98,0,1.08.9,1.9,2.11,2.02v-3.99Z"/>
          <path class="mobile-cls-4" d="m22.51,238.93v-.92h6.04l-3.49-3.35v-1.15l2.66,2.6,3.54-2.69v1.1l-2.89,2.22,1.27,1.26h1.62v.92h-8.75Z"/>
          <path class="mobile-cls-4" d="m30.47,232.7l-.66-.47c.5-.67.79-1.42.79-2.15s-.38-1.28-.98-1.28h-.02c-.62,0-.86.73-1.09,1.55-.28.97-.61,2.05-1.75,2.05h-.02c-1.07,0-1.78-.89-1.78-2.11,0-.76.26-1.6.68-2.23l.7.42c-.37.58-.6,1.24-.6,1.83,0,.73.38,1.2.9,1.2h.02c.59,0,.82-.77,1.07-1.6.29-.96.66-1.99,1.78-1.99h.02c1.18,0,1.86.97,1.86,2.21,0,.89-.35,1.87-.91,2.57Z"/>
        </g>
      </g>
      <g id="january_2022_text">
        <g>
          <line class="mobile-cls-9" x1="210.77" y1="22.93" x2="210.77" y2="22.93"/>
          <line class="mobile-cls-10" x1="206.1" y1="22.93" x2="203.77" y2="22.93"/>
          <line class="mobile-cls-9" x1="201.44" y1="22.93" x2="201.44" y2="22.93"/>
        </g>
        <g>
          <path class="mobile-cls-7" d="m220.48.5h3.69c2.97,0,5.02,2.04,5.02,4.7v.03c0,2.66-2.05,4.73-5.02,4.73h-3.69V.5Zm2.08,1.88v5.7h1.61c1.7,0,2.85-1.15,2.85-2.82v-.03c0-1.67-1.15-2.85-2.85-2.85h-1.61Z"/>
          <path class="mobile-cls-7" d="m230.86.09h2.16v1.82h-2.16V.09Zm.05,2.62h2.05v7.24h-2.05V2.71Z"/>
          <path class="mobile-cls-7" d="m234.46,7.87v-.03c0-1.58,1.2-2.31,2.92-2.31.73,0,1.26.12,1.77.3v-.12c0-.85-.53-1.32-1.55-1.32-.78,0-1.34.15-2,.39l-.51-1.57c.8-.35,1.58-.58,2.81-.58,1.12,0,1.93.3,2.44.81.54.54.78,1.34.78,2.31v4.2h-1.99v-.78c-.5.55-1.19.92-2.19.92-1.36,0-2.48-.78-2.48-2.21Zm4.71-.47v-.36c-.35-.16-.81-.27-1.31-.27-.88,0-1.42.35-1.42,1v.03c0,.55.46.88,1.12.88.96,0,1.61-.53,1.61-1.27Z"/>
          <path class="mobile-cls-7" d="m242.93,11.38l.7-1.54c.74.42,1.49.66,2.44.66,1.4,0,2.07-.68,2.07-1.97v-.35c-.61.73-1.27,1.17-2.36,1.17-1.69,0-3.21-1.23-3.21-3.38v-.03c0-2.16,1.55-3.38,3.21-3.38,1.12,0,1.78.47,2.34,1.08v-.95h2.05v5.6c0,1.3-.31,2.24-.92,2.85-.67.68-1.71.97-3.12.97-1.17,0-2.28-.27-3.2-.76Zm5.21-5.4v-.03c0-.99-.77-1.67-1.77-1.67s-1.76.69-1.76,1.67v.03c0,1,.76,1.67,1.76,1.67s1.77-.69,1.77-1.67Z"/>
          <path class="mobile-cls-7" d="m252,2.71h2.05v1.03c.47-.61,1.08-1.16,2.12-1.16,1.55,0,2.46,1.03,2.46,2.69v4.69h-2.05v-4.04c0-.97-.46-1.47-1.24-1.47s-1.28.5-1.28,1.47v4.04h-2.05V2.71Z"/>
          <path class="mobile-cls-7" d="m260.06,6.37v-.03c0-2.08,1.67-3.77,3.93-3.77s3.9,1.66,3.9,3.74v.03c0,2.08-1.67,3.77-3.93,3.77s-3.9-1.66-3.9-3.74Zm5.81,0v-.03c0-1.07-.77-2-1.9-2s-1.88.9-1.88,1.97v.03c0,1.07.77,2,1.9,2s1.88-.9,1.88-1.97Z"/>
          <path class="mobile-cls-7" d="m268.81,8.99l.88-1.35c.78.57,1.61.86,2.28.86.59,0,.86-.22.86-.54v-.03c0-.45-.7-.59-1.5-.84-1.01-.3-2.16-.77-2.16-2.17v-.03c0-1.47,1.19-2.3,2.65-2.3.92,0,1.92.31,2.7.84l-.78,1.42c-.72-.42-1.43-.68-1.96-.68s-.76.22-.76.5v.03c0,.41.69.59,1.47.86,1.01.34,2.19.82,2.19,2.15v.03c0,1.61-1.2,2.34-2.77,2.34-1.01,0-2.15-.34-3.11-1.09Z"/>
          <path class="mobile-cls-7" d="m276.19.09h2.16v1.82h-2.16V.09Zm.05,2.62h2.05v7.24h-2.05V2.71Z"/>
          <path class="mobile-cls-7" d="m279.66,8.99l.88-1.35c.78.57,1.61.86,2.28.86.59,0,.86-.22.86-.54v-.03c0-.45-.7-.59-1.5-.84-1.01-.3-2.16-.77-2.16-2.17v-.03c0-1.47,1.19-2.3,2.65-2.3.92,0,1.92.31,2.7.84l-.78,1.42c-.72-.42-1.43-.68-1.96-.68s-.76.22-.76.5v.03c0,.41.69.59,1.47.86,1.01.34,2.19.82,2.19,2.15v.03c0,1.61-1.2,2.34-2.77,2.34-1.01,0-2.15-.34-3.11-1.09Z"/>
          <path class="mobile-cls-7" d="m290.71,6.37v-.03c0-2.08,1.67-3.77,3.93-3.77s3.9,1.66,3.9,3.74v.03c0,2.08-1.67,3.77-3.93,3.77s-3.9-1.66-3.9-3.74Zm5.81,0v-.03c0-1.07-.77-2-1.9-2s-1.88.9-1.88,1.97v.03c0,1.07.77,2,1.9,2s1.88-.9,1.88-1.97Z"/>
          <path class="mobile-cls-7" d="m300.37,4.47h-.85v-1.69h.85v-.46c0-.8.2-1.38.58-1.76.38-.38.93-.57,1.66-.57.65,0,1.08.08,1.46.2v1.7c-.3-.11-.58-.18-.93-.18-.47,0-.74.24-.74.78v.28h1.66v1.67h-1.63v5.48h-2.05v-5.48Z"/>
          <path class="mobile-cls-7" d="m220.3,16.29h2.16v1.82h-2.16v-1.82Zm.05,2.62h2.05v7.24h-2.05v-7.24Z"/>
          <path class="mobile-cls-7" d="m224.43,16.29h2.05v9.86h-2.05v-9.86Z"/>
          <path class="mobile-cls-7" d="m228.07,22.57v-.03c0-2.07,1.47-3.77,3.58-3.77,2.42,0,3.52,1.88,3.52,3.93,0,.16-.01.35-.03.54h-5.04c.2.93.85,1.42,1.77,1.42.69,0,1.19-.22,1.76-.74l1.17,1.04c-.67.84-1.65,1.35-2.96,1.35-2.17,0-3.78-1.53-3.78-3.74Zm5.1-.61c-.12-.92-.66-1.54-1.53-1.54s-1.4.61-1.57,1.54h3.09Z"/>
          <path class="mobile-cls-7" d="m236.34,22.57v-.03c0-2.08,1.67-3.77,3.93-3.77s3.9,1.66,3.9,3.74v.03c0,2.08-1.67,3.77-3.93,3.77s-3.9-1.66-3.9-3.74Zm5.81,0v-.03c0-1.07-.77-2-1.9-2s-1.88.9-1.88,1.97v.03c0,1.07.77,2,1.9,2s1.88-.9,1.88-1.97Z"/>
          <path class="mobile-cls-7" d="m245.31,22.57v-.03c0-2.07,1.58-3.77,3.79-3.77,1.36,0,2.21.46,2.89,1.22l-1.26,1.35c-.46-.49-.92-.8-1.65-.8-1.03,0-1.76.9-1.76,1.97v.03c0,1.11.72,2,1.84,2,.69,0,1.16-.3,1.66-.77l1.2,1.22c-.7.77-1.51,1.32-2.96,1.32-2.17,0-3.77-1.67-3.77-3.74Z"/>
          <path class="mobile-cls-7" d="m252.81,22.57v-.03c0-2.08,1.67-3.77,3.93-3.77s3.9,1.66,3.9,3.74v.03c0,2.08-1.67,3.77-3.93,3.77s-3.9-1.66-3.9-3.74Zm5.81,0v-.03c0-1.07-.77-2-1.9-2s-1.88.9-1.88,1.97v.03c0,1.07.77,2,1.9,2s1.88-.9,1.88-1.97Z"/>
          <path class="mobile-cls-7" d="m262.22,16.29h2.05v9.86h-2.05v-9.86Z"/>
          <path class="mobile-cls-7" d="m265.85,22.57v-.03c0-2.08,1.67-3.77,3.93-3.77s3.9,1.66,3.9,3.74v.03c0,2.08-1.67,3.77-3.93,3.77s-3.9-1.66-3.9-3.74Zm5.81,0v-.03c0-1.07-.77-2-1.9-2s-1.88.9-1.88,1.97v.03c0,1.07.77,2,1.9,2s1.88-.9,1.88-1.97Z"/>
          <path class="mobile-cls-7" d="m275.17,18.91h2.05v1.03c.47-.61,1.08-1.16,2.12-1.16,1.55,0,2.46,1.03,2.46,2.69v4.69h-2.05v-4.04c0-.97-.46-1.47-1.24-1.47s-1.28.5-1.28,1.47v4.04h-2.05v-7.24Z"/>
          <path class="mobile-cls-7" d="m283.62,16.29h2.16v1.82h-2.16v-1.82Zm.05,2.62h2.05v7.24h-2.05v-7.24Z"/>
          <path class="mobile-cls-7" d="m287.3,22.57v-.03c0-2.07,1.58-3.77,3.79-3.77,1.36,0,2.21.46,2.89,1.22l-1.26,1.35c-.46-.49-.92-.8-1.65-.8-1.03,0-1.76.9-1.76,1.97v.03c0,1.11.72,2,1.84,2,.69,0,1.16-.3,1.66-.77l1.2,1.22c-.7.77-1.51,1.32-2.96,1.32-2.17,0-3.77-1.67-3.77-3.74Z"/>
          <path class="mobile-cls-7" d="m298.98,24.07v-.03c0-1.58,1.2-2.31,2.92-2.31.73,0,1.26.12,1.77.3v-.12c0-.85-.53-1.32-1.55-1.32-.78,0-1.34.15-2,.39l-.51-1.57c.8-.35,1.58-.58,2.81-.58,1.12,0,1.93.3,2.44.81.54.54.78,1.34.78,2.31v4.2h-1.99v-.78c-.5.55-1.19.92-2.19.92-1.36,0-2.48-.78-2.48-2.21Zm4.71-.47v-.36c-.35-.16-.81-.27-1.31-.27-.88,0-1.42.35-1.42,1v.03c0,.55.46.88,1.12.88.96,0,1.61-.53,1.61-1.27Z"/>
          <path class="mobile-cls-7" d="m307.4,18.91h2.05v1.03c.47-.61,1.08-1.16,2.12-1.16,1.55,0,2.46,1.03,2.46,2.69v4.69h-2.05v-4.04c0-.97-.46-1.47-1.24-1.47s-1.28.5-1.28,1.47v4.04h-2.05v-7.24Z"/>
          <path class="mobile-cls-7" d="m315.49,22.55v-.03c0-2.42,1.58-3.74,3.29-3.74,1.09,0,1.77.5,2.26,1.08v-3.56h2.05v9.86h-2.05v-1.04c-.5.68-1.19,1.18-2.26,1.18-1.69,0-3.29-1.32-3.29-3.74Zm5.58,0v-.03c0-1.2-.8-2-1.75-2s-1.77.78-1.77,2v.03c0,1.2.81,2,1.77,2s1.75-.8,1.75-2Z"/>
          <path class="mobile-cls-7" d="m220.3,32.49h2.16v1.82h-2.16v-1.82Zm.05,2.62h2.05v7.24h-2.05v-7.24Z"/>
          <path class="mobile-cls-7" d="m224.34,35.11h2.05v1.03c.47-.61,1.08-1.16,2.12-1.16,1.55,0,2.46,1.03,2.46,2.69v4.69h-2.05v-4.04c0-.97-.46-1.47-1.24-1.47s-1.28.5-1.28,1.47v4.04h-2.05v-7.24Z"/>
          <path class="mobile-cls-7" d="m233.1,36.87h-.85v-1.69h.85v-.46c0-.8.2-1.38.58-1.76.38-.38.93-.57,1.66-.57.65,0,1.08.08,1.46.2v1.7c-.3-.11-.58-.18-.93-.18-.47,0-.74.24-.74.78v.28h1.66v1.67h-1.63v5.48h-2.05v-5.48Zm4.9-4.38h2.05v9.86h-2.05v-9.86Z"/>
          <path class="mobile-cls-7" d="m241.55,40.27v-.03c0-1.58,1.2-2.31,2.92-2.31.73,0,1.26.12,1.77.3v-.12c0-.85-.53-1.32-1.55-1.32-.78,0-1.34.15-2,.39l-.51-1.57c.8-.35,1.58-.58,2.81-.58,1.12,0,1.93.3,2.44.81.54.54.78,1.34.78,2.31v4.2h-1.99v-.78c-.5.55-1.19.92-2.19.92-1.36,0-2.48-.78-2.48-2.21Zm4.71-.47v-.36c-.35-.16-.81-.27-1.31-.27-.88,0-1.42.35-1.42,1v.03c0,.55.46.88,1.12.88.96,0,1.61-.53,1.61-1.27Z"/>
          <path class="mobile-cls-7" d="m249.98,35.11h2.05v1.03c.47-.61,1.09-1.16,2.13-1.16.95,0,1.66.42,2.04,1.15.63-.74,1.39-1.15,2.38-1.15,1.53,0,2.44.92,2.44,2.66v4.71h-2.05v-4.04c0-.97-.43-1.47-1.2-1.47s-1.24.5-1.24,1.47v4.04h-2.05v-4.04c0-.97-.43-1.47-1.2-1.47s-1.24.5-1.24,1.47v4.04h-2.05v-7.24Z"/>
          <path class="mobile-cls-7" d="m262.8,35.11h2.05v1.03c.47-.61,1.09-1.16,2.13-1.16.95,0,1.66.42,2.04,1.15.63-.74,1.39-1.15,2.38-1.15,1.53,0,2.44.92,2.44,2.66v4.71h-2.05v-4.04c0-.97-.43-1.47-1.2-1.47s-1.24.5-1.24,1.47v4.04h-2.05v-4.04c0-.97-.43-1.47-1.2-1.47s-1.24.5-1.24,1.47v4.04h-2.05v-7.24Z"/>
          <path class="mobile-cls-7" d="m275.19,40.27v-.03c0-1.58,1.2-2.31,2.92-2.31.73,0,1.26.12,1.77.3v-.12c0-.85-.53-1.32-1.55-1.32-.78,0-1.34.15-2,.39l-.51-1.57c.8-.35,1.58-.58,2.81-.58,1.12,0,1.93.3,2.44.81.54.54.78,1.34.78,2.31v4.2h-1.99v-.78c-.5.55-1.19.92-2.19.92-1.36,0-2.48-.78-2.48-2.21Zm4.71-.47v-.36c-.35-.16-.81-.27-1.31-.27-.88,0-1.42.35-1.42,1v.03c0,.55.46.88,1.12.88.96,0,1.61-.53,1.61-1.27Z"/>
          <path class="mobile-cls-7" d="m283.89,40.3v-3.43h-.86v-1.76h.86v-1.85h2.05v1.85h1.7v1.76h-1.7v3.09c0,.47.2.7.66.7.38,0,.72-.09,1.01-.26v1.65c-.43.26-.93.42-1.62.42-1.26,0-2.11-.5-2.11-2.17Z"/>
          <path class="mobile-cls-7" d="m288.6,38.77v-.03c0-2.08,1.67-3.77,3.93-3.77s3.9,1.66,3.9,3.74v.03c0,2.08-1.67,3.77-3.93,3.77s-3.9-1.66-3.9-3.74Zm5.81,0v-.03c0-1.07-.77-2-1.9-2s-1.88.9-1.88,1.97v.03c0,1.07.77,2,1.9,2s1.88-.9,1.88-1.97Z"/>
          <path class="mobile-cls-7" d="m297.91,35.11h2.05v1.46c.42-1,1.09-1.65,2.31-1.59v2.15h-.11c-1.36,0-2.2.82-2.2,2.55v2.67h-2.05v-7.24Z"/>
          <path class="mobile-cls-7" d="m308.31,35.11h2.13l-2.78,7.41c-.55,1.47-1.15,2.03-2.38,2.03-.74,0-1.3-.19-1.82-.5l.69-1.49c.27.16.61.28.88.28.35,0,.54-.11.71-.47l-2.83-7.27h2.17l1.65,4.93,1.58-4.93Z"/>
          <path class="mobile-cls-7" d="m315.5,37.65v-.03c0-2.69,2.03-4.89,4.93-4.89,1.78,0,2.85.59,3.73,1.46l-1.32,1.53c-.73-.66-1.47-1.07-2.42-1.07-1.59,0-2.74,1.32-2.74,2.94v.03c0,1.62,1.12,2.97,2.74,2.97,1.08,0,1.74-.43,2.49-1.11l1.32,1.34c-.97,1.04-2.05,1.69-3.88,1.69-2.78,0-4.85-2.15-4.85-4.86Z"/>
          <path class="mobile-cls-7" d="m325.89,32.9h3.69c2.97,0,5.02,2.04,5.02,4.7v.03c0,2.66-2.05,4.73-5.02,4.73h-3.69v-9.45Zm2.08,1.88v5.7h1.61c1.7,0,2.85-1.15,2.85-2.82v-.03c0-1.67-1.15-2.85-2.85-2.85h-1.61Z"/>
        </g>
      </g>
      <g id="january_2022_capsule">
        <rect class="mobile-cls-1" x="99.44" y="7.93" width="102" height="30" rx="15" ry="15"/>
        <g>
          <path class="mobile-cls-8" d="m109.2,26.25l1.16-1.3c.48.53.95.84,1.54.84.7,0,1.13-.42,1.13-1.39v-5.41h1.89v5.49c0,1-.29,1.74-.79,2.24-.52.52-1.27.78-2.18.78-1.31,0-2.17-.58-2.75-1.26Z"/>
          <path class="mobile-cls-8" d="m116.23,25.54v-.02c0-1.4,1.07-2.05,2.59-2.05.65,0,1.12.11,1.57.26v-.11c0-.76-.47-1.18-1.38-1.18-.7,0-1.19.13-1.77.35l-.46-1.39c.71-.31,1.4-.52,2.5-.52,1,0,1.71.26,2.17.72.48.48.7,1.19.7,2.05v3.73h-1.76v-.7c-.44.49-1.05.82-1.94.82-1.21,0-2.21-.7-2.21-1.97Zm4.19-.42v-.32c-.31-.14-.72-.24-1.16-.24-.78,0-1.26.31-1.26.89v.02c0,.49.41.78,1,.78.85,0,1.43-.47,1.43-1.13Z"/>
          <path class="mobile-cls-8" d="m123.72,20.96h1.82v.91c.42-.54.96-1.03,1.88-1.03,1.38,0,2.18.91,2.18,2.39v4.16h-1.82v-3.59c0-.86-.41-1.31-1.1-1.31s-1.14.44-1.14,1.31v3.59h-1.82v-6.43Z"/>
          <path class="mobile-cls-8" d="m131.15,25.12v-4.16h1.82v3.59c0,.86.41,1.31,1.1,1.31s1.14-.44,1.14-1.31v-3.59h1.82v6.43h-1.82v-.91c-.42.54-.96,1.03-1.88,1.03-1.38,0-2.18-.91-2.18-2.39Z"/>
          <path class="mobile-cls-8" d="m138.28,25.54v-.02c0-1.4,1.07-2.05,2.59-2.05.65,0,1.12.11,1.57.26v-.11c0-.76-.47-1.18-1.38-1.18-.7,0-1.19.13-1.77.35l-.46-1.39c.71-.31,1.4-.52,2.5-.52,1,0,1.71.26,2.17.72.48.48.7,1.19.7,2.05v3.73h-1.76v-.7c-.44.49-1.05.82-1.94.82-1.21,0-2.21-.7-2.21-1.97Zm4.19-.42v-.32c-.31-.14-.72-.24-1.16-.24-.78,0-1.26.31-1.26.89v.02c0,.49.41.78,1,.78.85,0,1.43-.47,1.43-1.13Z"/>
          <path class="mobile-cls-8" d="m145.77,20.96h1.82v1.3c.37-.89.97-1.46,2.05-1.42v1.91h-.1c-1.21,0-1.96.73-1.96,2.27v2.37h-1.82v-6.43Z"/>
          <path class="mobile-cls-8" d="m155.01,20.96h1.9l-2.47,6.58c-.49,1.31-1.02,1.8-2.11,1.8-.66,0-1.15-.17-1.62-.44l.61-1.32c.24.14.54.25.78.25.31,0,.48-.1.64-.42l-2.52-6.45h1.93l1.46,4.38,1.4-4.38Z"/>
          <path class="mobile-cls-8" d="m161.36,25.93l2.79-2.29c1.04-.86,1.45-1.32,1.45-2.02s-.47-1.09-1.13-1.09-1.09.36-1.71,1.13l-1.3-1.04c.83-1.13,1.63-1.74,3.13-1.74,1.74,0,2.89,1.02,2.89,2.59v.02c0,1.4-.72,2.1-2.21,3.25l-1.37,1.06h3.66v1.6h-6.21v-1.46Z"/>
          <path class="mobile-cls-8" d="m168.9,23.22v-.02c0-2.43,1.51-4.34,3.74-4.34s3.72,1.88,3.72,4.32v.02c0,2.43-1.5,4.34-3.74,4.34s-3.72-1.88-3.72-4.32Zm5.57,0v-.02c0-1.52-.74-2.67-1.85-2.67s-1.82,1.12-1.82,2.65v.02c0,1.54.73,2.67,1.85,2.67s1.82-1.13,1.82-2.65Z"/>
          <path class="mobile-cls-8" d="m177.48,25.93l2.79-2.29c1.04-.86,1.45-1.32,1.45-2.02s-.47-1.09-1.13-1.09-1.09.36-1.71,1.13l-1.3-1.04c.83-1.13,1.63-1.74,3.13-1.74,1.74,0,2.89,1.02,2.89,2.59v.02c0,1.4-.72,2.1-2.21,3.25l-1.37,1.06h3.66v1.6h-6.21v-1.46Z"/>
          <path class="mobile-cls-8" d="m184.95,25.93l2.79-2.29c1.04-.86,1.45-1.32,1.45-2.02s-.47-1.09-1.13-1.09-1.09.36-1.71,1.13l-1.3-1.04c.83-1.13,1.63-1.74,3.13-1.74,1.74,0,2.89,1.02,2.89,2.59v.02c0,1.4-.72,2.1-2.21,3.25l-1.37,1.06h3.66v1.6h-6.21v-1.46Z"/>
        </g>
      </g>
      <g id="march_2022_text">
        <g>
          <line class="mobile-cls-9" x1="210.77" y1="126.74" x2="210.77" y2="126.74"/>
          <line class="mobile-cls-10" x1="206.1" y1="126.74" x2="203.77" y2="126.74"/>
          <line class="mobile-cls-9" x1="201.44" y1="126.74" x2="201.44" y2="126.74"/>
        </g>
        <g>
          <path class="mobile-cls-6" d="m220.06,101.83v-.03c0-2.69,2.03-4.89,4.93-4.89,1.78,0,2.85.59,3.73,1.46l-1.32,1.53c-.73-.66-1.47-1.07-2.42-1.07-1.59,0-2.74,1.32-2.74,2.94v.03c0,1.62,1.12,2.97,2.74,2.97,1.08,0,1.74-.43,2.49-1.11l1.32,1.34c-.97,1.04-2.05,1.69-3.88,1.69-2.78,0-4.85-2.15-4.85-4.86Z"/>
          <path class="mobile-cls-6" d="m230.44,97.08h3.69c2.97,0,5.02,2.04,5.02,4.7v.03c0,2.66-2.05,4.73-5.02,4.73h-3.69v-9.45Zm2.08,1.88v5.7h1.61c1.7,0,2.85-1.15,2.85-2.82v-.03c0-1.67-1.15-2.85-2.85-2.85h-1.61Z"/>
          <path class="mobile-cls-6" d="m243.57,97.01h1.92l4.05,9.52h-2.17l-.86-2.12h-4l-.86,2.12h-2.12l4.05-9.52Zm2.19,5.56l-1.26-3.07-1.26,3.07h2.51Z"/>
          <path class="mobile-cls-6" d="m251.08,97.08h2.08v9.45h-2.08v-9.45Z"/>
          <path class="mobile-cls-6" d="m255.3,99.3h2.19v2.16h-2.19v-2.16Zm0,5.08h2.19v2.16h-2.19v-2.16Z"/>
          <path class="mobile-cls-6" d="m263.1,104.89l3.15-2.58c1.17-.97,1.63-1.49,1.63-2.27s-.53-1.23-1.27-1.23-1.23.41-1.93,1.27l-1.46-1.17c.93-1.27,1.84-1.96,3.52-1.96,1.96,0,3.25,1.15,3.25,2.92v.03c0,1.58-.81,2.36-2.49,3.66l-1.54,1.19h4.12v1.8h-7v-1.65Z"/>
          <path class="mobile-cls-6" d="m276.02,104.49h-4.62l-.34-1.47,5.19-6.01h1.75v5.79h1.27v1.69h-1.27v2.04h-1.98v-2.04Zm0-1.69v-2.94l-2.51,2.94h2.51Z"/>
          <path class="mobile-cls-6" d="m280.68,101.83v-.03c0-2.74,1.7-4.89,4.21-4.89s4.19,2.12,4.19,4.86v.03c0,2.74-1.69,4.89-4.21,4.89s-4.19-2.12-4.19-4.86Zm6.27,0v-.03c0-1.71-.84-3.01-2.08-3.01s-2.05,1.26-2.05,2.98v.03c0,1.73.82,3.01,2.08,3.01s2.05-1.27,2.05-2.98Z"/>
          <path class="mobile-cls-6" d="m224.18,113.21h1l4.31,9.52h-1.15l-1.11-2.5h-5.15l-1.12,2.5h-1.09l4.31-9.52Zm2.63,6.06l-2.15-4.82-2.16,4.82h4.31Z"/>
          <path class="mobile-cls-6" d="m231.17,115.75h1.04v1.17c.46-.69,1.08-1.32,2.25-1.32s1.86.61,2.24,1.39c.5-.77,1.24-1.39,2.46-1.39,1.61,0,2.59,1.08,2.59,2.81v4.32h-1.04v-4.08c0-1.35-.68-2.11-1.81-2.11-1.05,0-1.93.78-1.93,2.16v4.02h-1.03v-4.11c0-1.31-.69-2.08-1.8-2.08s-1.94.92-1.94,2.2v3.98h-1.04v-6.98Z"/>
          <path class="mobile-cls-6" d="m243.97,115.75h1.04v1.17c.46-.69,1.08-1.32,2.25-1.32s1.86.61,2.24,1.39c.5-.77,1.24-1.39,2.46-1.39,1.61,0,2.59,1.08,2.59,2.81v4.32h-1.04v-4.08c0-1.35-.68-2.11-1.81-2.11-1.05,0-1.93.78-1.93,2.16v4.02h-1.03v-4.11c0-1.31-.69-2.08-1.8-2.08s-1.94.92-1.94,2.2v3.98h-1.04v-6.98Z"/>
          <path class="mobile-cls-6" d="m256.24,120.71v-.03c0-1.47,1.21-2.25,2.98-2.25.89,0,1.53.12,2.15.3v-.24c0-1.26-.77-1.9-2.08-1.9-.82,0-1.47.22-2.12.51l-.31-.85c.77-.35,1.53-.58,2.54-.58s1.74.26,2.25.77c.47.47.72,1.15.72,2.04v4.27h-1v-1.05c-.49.63-1.3,1.2-2.53,1.2-1.3,0-2.61-.74-2.61-2.17Zm5.14-.54v-.67c-.51-.15-1.2-.3-2.05-.3-1.31,0-2.04.57-2.04,1.44v.03c0,.88.81,1.39,1.75,1.39,1.28,0,2.34-.78,2.34-1.89Z"/>
          <path class="mobile-cls-6" d="m264.58,115.75h1.04v1.82c.51-1.16,1.53-2,2.85-1.94v1.12h-.08c-1.53,0-2.77,1.09-2.77,3.2v2.78h-1.04v-6.98Z"/>
          <path class="mobile-cls-6" d="m273.52,121.84l.53-.74c.76.57,1.59.89,2.42.89s1.45-.43,1.45-1.11v-.03c0-.7-.82-.97-1.74-1.23-1.09-.31-2.31-.69-2.31-1.97v-.03c0-1.2,1-2,2.38-2,.85,0,1.8.3,2.51.77l-.47.78c-.65-.42-1.39-.67-2.07-.67-.82,0-1.35.43-1.35,1.01v.03c0,.66.86.92,1.8,1.2,1.08.32,2.24.74,2.24,2v.03c0,1.32-1.09,2.09-2.48,2.09-1,0-2.11-.39-2.89-1.03Z"/>
          <path class="mobile-cls-6" d="m281.05,120.88v-4.21h-.97v-.92h.97v-2.11h1.04v2.11h2.21v.92h-2.21v4.08c0,.85.47,1.16,1.17,1.16.35,0,.65-.07,1.01-.24v.89c-.36.19-.76.3-1.26.3-1.12,0-1.97-.55-1.97-1.97Z"/>
          <path class="mobile-cls-6" d="m285.62,120.71v-.03c0-1.47,1.21-2.25,2.98-2.25.89,0,1.53.12,2.15.3v-.24c0-1.26-.77-1.9-2.08-1.9-.82,0-1.47.22-2.12.51l-.31-.85c.77-.35,1.53-.58,2.54-.58s1.74.26,2.25.77c.47.47.72,1.15.72,2.04v4.27h-1v-1.05c-.49.63-1.3,1.2-2.53,1.2-1.3,0-2.61-.74-2.61-2.17Zm5.14-.54v-.67c-.51-.15-1.2-.3-2.05-.3-1.31,0-2.04.57-2.04,1.44v.03c0,.88.81,1.39,1.75,1.39,1.28,0,2.34-.78,2.34-1.89Z"/>
          <path class="mobile-cls-6" d="m293.96,115.75h1.04v1.82c.51-1.16,1.53-2,2.85-1.94v1.12h-.08c-1.53,0-2.77,1.09-2.77,3.2v2.78h-1.04v-6.98Z"/>
          <path class="mobile-cls-6" d="m299.79,120.88v-4.21h-.97v-.92h.97v-2.11h1.04v2.11h2.21v.92h-2.21v4.08c0,.85.47,1.16,1.17,1.16.35,0,.65-.07,1.01-.24v.89c-.36.19-.76.3-1.26.3-1.12,0-1.97-.55-1.97-1.97Z"/>
          <path class="mobile-cls-6" d="m304.25,119.26v-.03c0-2.01,1.42-3.63,3.35-3.63,2.07,0,3.25,1.65,3.25,3.69,0,.13,0,.22-.01.34h-5.54c.15,1.51,1.22,2.36,2.46,2.36.96,0,1.63-.39,2.2-.99l.65.58c-.7.78-1.55,1.31-2.88,1.31-1.92,0-3.48-1.47-3.48-3.63Zm5.55-.41c-.11-1.27-.84-2.38-2.23-2.38-1.21,0-2.13,1.01-2.27,2.38h4.5Z"/>
          <path class="mobile-cls-6" d="m312.27,119.26v-.03c0-2.28,1.66-3.63,3.34-3.63,1.3,0,2.13.7,2.67,1.49v-4.21h1.04v9.86h-1.04v-1.4c-.57.84-1.39,1.55-2.67,1.55-1.67,0-3.34-1.32-3.34-3.62Zm6.05-.01v-.03c0-1.61-1.23-2.69-2.52-2.69s-2.46,1-2.46,2.69v.03c0,1.65,1.13,2.7,2.46,2.7s2.52-1.09,2.52-2.7Z"/>
          <path class="mobile-cls-7" d="m219.83,136.85v-.03c0-1.58,1.2-2.31,2.92-2.31.73,0,1.26.12,1.77.3v-.12c0-.85-.53-1.32-1.55-1.32-.78,0-1.34.15-2,.39l-.51-1.57c.8-.35,1.58-.58,2.81-.58,1.12,0,1.93.3,2.44.81.54.54.78,1.34.78,2.31v4.2h-1.99v-.78c-.5.55-1.19.92-2.19.92-1.36,0-2.48-.78-2.48-2.21Zm4.71-.47v-.37c-.35-.16-.81-.27-1.31-.27-.88,0-1.42.35-1.42,1v.03c0,.55.46.88,1.12.88.96,0,1.61-.53,1.61-1.27Z"/>
          <path class="mobile-cls-7" d="m228.01,137.49l3.74-4.13h-3.62v-1.66h6.17v1.45l-3.75,4.13h3.75v1.66h-6.29v-1.44Z"/>
          <path class="mobile-cls-7" d="m235.42,136.85v-.03c0-1.58,1.2-2.31,2.92-2.31.73,0,1.26.12,1.77.3v-.12c0-.85-.53-1.32-1.55-1.32-.78,0-1.34.15-2,.39l-.51-1.57c.8-.35,1.58-.58,2.81-.58,1.12,0,1.93.3,2.44.81.54.54.78,1.34.78,2.31v4.2h-1.99v-.78c-.5.55-1.19.92-2.19.92-1.36,0-2.48-.78-2.48-2.21Zm4.71-.47v-.37c-.35-.16-.81-.27-1.31-.27-.88,0-1.42.35-1.42,1v.03c0,.55.46.88,1.12.88.96,0,1.61-.53,1.61-1.27Z"/>
          <path class="mobile-cls-7" d="m244.12,136.88v-3.43h-.86v-1.76h.86v-1.85h2.05v1.85h1.7v1.76h-1.7v3.09c0,.47.2.7.66.7.38,0,.72-.09,1.01-.26v1.65c-.43.26-.93.42-1.62.42-1.26,0-2.11-.5-2.11-2.17Z"/>
          <path class="mobile-cls-7" d="m249.38,129.08h2.05v3.65c.47-.61,1.08-1.16,2.12-1.16,1.55,0,2.46,1.03,2.46,2.69v4.69h-2.05v-4.04c0-.97-.46-1.47-1.24-1.47s-1.28.5-1.28,1.47v4.04h-2.05v-9.86Z"/>
          <path class="mobile-cls-7" d="m257.83,129.08h2.16v1.82h-2.16v-1.82Zm.05,2.62h2.05v7.24h-2.05v-7.24Z"/>
          <path class="mobile-cls-7" d="m261.52,135.35v-.03c0-2.08,1.67-3.77,3.93-3.77s3.9,1.66,3.9,3.74v.03c0,2.08-1.67,3.77-3.93,3.77s-3.9-1.66-3.9-3.74Zm5.81,0v-.03c0-1.07-.77-2-1.9-2s-1.88.9-1.88,1.97v.03c0,1.07.77,2,1.9,2s1.88-.91,1.88-1.97Z"/>
          <path class="mobile-cls-7" d="m270.83,131.69h2.05v1.04c.5-.67,1.19-1.17,2.25-1.17,1.69,0,3.3,1.32,3.3,3.74v.03c0,2.42-1.58,3.74-3.3,3.74-1.09,0-1.77-.5-2.25-1.08v3.11h-2.05v-9.4Zm5.55,3.63v-.03c0-1.2-.81-2-1.77-2s-1.75.8-1.75,2v.03c0,1.2.8,2,1.75,2s1.77-.78,1.77-2Z"/>
          <path class="mobile-cls-7" d="m279.95,131.69h2.05v1.46c.42-1,1.09-1.65,2.31-1.59v2.15h-.11c-1.36,0-2.2.82-2.2,2.55v2.67h-2.05v-7.24Z"/>
          <path class="mobile-cls-7" d="m285.63,129.08h2.16v1.82h-2.16v-1.82Zm.05,2.62h2.05v7.24h-2.05v-7.24Z"/>
          <path class="mobile-cls-7" d="m289.67,131.69h2.05v1.03c.47-.61,1.08-1.16,2.12-1.16,1.55,0,2.46,1.03,2.46,2.69v4.69h-2.05v-4.04c0-.97-.46-1.47-1.24-1.47s-1.28.5-1.28,1.47v4.04h-2.05v-7.24Z"/>
          <path class="mobile-cls-7" d="m297.73,135.35v-.03c0-2.07,1.47-3.77,3.58-3.77,2.42,0,3.52,1.88,3.52,3.93,0,.16-.01.35-.03.54h-5.04c.2.93.85,1.42,1.77,1.42.69,0,1.19-.22,1.76-.74l1.17,1.04c-.67.84-1.65,1.35-2.96,1.35-2.17,0-3.78-1.53-3.78-3.74Zm5.1-.61c-.12-.92-.66-1.54-1.53-1.54s-1.4.61-1.57,1.54h3.09Z"/>
          <path class="mobile-cls-7" d="m221.75,147.72l-1.65.4-.43-1.7,2.71-.81h1.42v9.52h-2.05v-7.41Z"/>
          <path class="mobile-cls-7" d="m225.77,150.43v-.03c0-2.74,1.7-4.89,4.21-4.89s4.19,2.12,4.19,4.86v.03c0,2.74-1.69,4.89-4.21,4.89s-4.19-2.12-4.19-4.86Zm6.27,0v-.03c0-1.71-.84-3.01-2.08-3.01s-2.05,1.26-2.05,2.98v.03c0,1.73.82,3.01,2.08,3.01s2.05-1.27,2.05-2.98Z"/>
          <path class="mobile-cls-7" d="m235.63,150.43v-.03c0-2.74,1.7-4.89,4.21-4.89s4.19,2.12,4.19,4.86v.03c0,2.74-1.69,4.89-4.21,4.89s-4.19-2.12-4.19-4.86Zm6.27,0v-.03c0-1.71-.84-3.01-2.08-3.01s-2.05,1.26-2.05,2.98v.03c0,1.73.82,3.01,2.08,3.01s2.05-1.27,2.05-2.98Z"/>
          <path class="mobile-cls-7" d="m249.72,147.9h2.05v1.03c.47-.61,1.09-1.16,2.13-1.16.95,0,1.66.42,2.04,1.15.63-.74,1.39-1.15,2.38-1.15,1.53,0,2.44.92,2.44,2.66v4.71h-2.05v-4.04c0-.97-.43-1.47-1.2-1.47s-1.24.5-1.24,1.47v4.04h-2.05v-4.04c0-.97-.43-1.47-1.2-1.47s-1.24.5-1.24,1.47v4.04h-2.05v-7.24Z"/>
          <path class="mobile-cls-7" d="m262.59,156.56l.7-1.54c.74.42,1.49.66,2.44.66,1.4,0,2.07-.67,2.07-1.97v-.35c-.61.73-1.27,1.17-2.36,1.17-1.69,0-3.21-1.23-3.21-3.38v-.03c0-2.16,1.55-3.38,3.21-3.38,1.12,0,1.78.47,2.34,1.08v-.95h2.05v5.6c0,1.3-.31,2.24-.92,2.85-.67.67-1.71.97-3.12.97-1.17,0-2.28-.27-3.2-.76Zm5.21-5.4v-.03c0-.99-.77-1.67-1.77-1.67s-1.76.69-1.76,1.67v.03c0,1,.76,1.67,1.76,1.67s1.77-.69,1.77-1.67Z"/>
          <path class="mobile-cls-7" d="m275.92,145.68h3.86c2.26,0,3.62,1.34,3.62,3.27v.03c0,2.19-1.7,3.32-3.82,3.32h-1.58v2.84h-2.08v-9.45Zm3.73,4.77c1.04,0,1.65-.62,1.65-1.43v-.03c0-.93-.65-1.43-1.69-1.43h-1.61v2.89h1.65Z"/>
          <path class="mobile-cls-7" d="m284.52,150.43v-.03c0-2.69,2.12-4.89,5.04-4.89s5.01,2.17,5.01,4.86v.03c0,2.69-2.12,4.89-5.04,4.89s-5.01-2.17-5.01-4.86Zm7.87,0v-.03c0-1.62-1.19-2.97-2.86-2.97s-2.84,1.32-2.84,2.94v.03c0,1.62,1.19,2.97,2.86,2.97s2.84-1.32,2.84-2.94Z"/>
          <path class="mobile-cls-7" d="m299.92,151.53v-.03c0-2.42,1.58-3.74,3.3-3.74,1.09,0,1.77.5,2.25,1.08v-3.56h2.05v9.86h-2.05v-1.04c-.5.68-1.19,1.18-2.25,1.18-1.69,0-3.3-1.32-3.3-3.74Zm5.58,0v-.03c0-1.2-.8-2-1.75-2s-1.77.78-1.77,2v.03c0,1.2.81,2,1.77,2s1.75-.8,1.75-2Z"/>
          <path class="mobile-cls-7" d="m308.93,153.05v-.03c0-1.58,1.2-2.31,2.92-2.31.73,0,1.26.12,1.77.3v-.12c0-.85-.53-1.32-1.55-1.32-.78,0-1.34.15-2,.39l-.51-1.57c.8-.35,1.58-.58,2.81-.58,1.12,0,1.93.3,2.44.81.54.54.78,1.34.78,2.31v4.2h-1.99v-.78c-.5.55-1.19.92-2.19.92-1.36,0-2.48-.78-2.48-2.21Zm4.71-.47v-.37c-.35-.16-.81-.27-1.31-.27-.88,0-1.42.35-1.42,1v.03c0,.55.46.88,1.12.88.96,0,1.61-.53,1.61-1.27Z"/>
          <path class="mobile-cls-7" d="m317.39,145.28h2.16v1.82h-2.16v-1.82Zm.05,2.62h2.05v7.24h-2.05v-7.24Z"/>
          <path class="mobile-cls-7" d="m321.53,145.28h2.05v9.86h-2.05v-9.86Z"/>
          <path class="mobile-cls-7" d="m330.26,147.9h2.13l-2.78,7.41c-.55,1.47-1.15,2.03-2.38,2.03-.74,0-1.3-.19-1.82-.5l.69-1.49c.27.16.61.28.88.28.35,0,.54-.11.71-.47l-2.83-7.27h2.17l1.65,4.93,1.58-4.93Z"/>
        </g>
      </g>
      <g id="march_2022_capsule">
        <rect class="mobile-cls-1" x="99.44" y="111.74" width="102" height="30" rx="15" ry="15"/>
        <g>
          <path class="mobile-cls-8" d="m115.77,122.8h1.99l2.21,3.55,2.21-3.55h1.99v8.4h-1.83v-5.48l-2.36,3.59h-.05l-2.34-3.55v5.44h-1.81v-8.4Z"/>
          <path class="mobile-cls-8" d="m125.61,129.35v-.02c0-1.4,1.07-2.05,2.59-2.05.65,0,1.12.11,1.57.26v-.11c0-.76-.47-1.18-1.38-1.18-.7,0-1.19.13-1.77.35l-.46-1.39c.71-.31,1.4-.52,2.5-.52,1,0,1.71.26,2.17.72.48.48.7,1.19.7,2.05v3.73h-1.76v-.7c-.44.49-1.05.82-1.94.82-1.21,0-2.21-.7-2.21-1.97Zm4.19-.42v-.32c-.31-.14-.72-.24-1.16-.24-.78,0-1.26.31-1.26.89v.02c0,.49.41.78,1,.78.85,0,1.43-.47,1.43-1.13Z"/>
          <path class="mobile-cls-8" d="m133.09,124.77h1.82v1.3c.37-.89.97-1.46,2.05-1.42v1.91h-.1c-1.21,0-1.96.73-1.96,2.27v2.37h-1.82v-6.43Z"/>
          <path class="mobile-cls-8" d="m137.62,128.02v-.02c0-1.83,1.4-3.35,3.37-3.35,1.21,0,1.97.41,2.57,1.08l-1.12,1.2c-.41-.43-.82-.71-1.46-.71-.91,0-1.56.8-1.56,1.75v.02c0,.98.64,1.77,1.63,1.77.61,0,1.03-.26,1.48-.68l1.07,1.08c-.62.68-1.34,1.18-2.63,1.18-1.93,0-3.35-1.49-3.35-3.32Z"/>
          <path class="mobile-cls-8" d="m144.78,122.44h1.82v3.24c.42-.54.96-1.03,1.88-1.03,1.38,0,2.18.91,2.18,2.39v4.16h-1.82v-3.59c0-.86-.41-1.31-1.1-1.31s-1.14.44-1.14,1.31v3.59h-1.82v-8.76Z"/>
          <path class="mobile-cls-8" d="m155.63,129.74l2.79-2.29c1.04-.86,1.45-1.32,1.45-2.02s-.47-1.09-1.13-1.09-1.09.36-1.71,1.13l-1.3-1.04c.83-1.13,1.63-1.74,3.13-1.74,1.74,0,2.89,1.02,2.89,2.59v.02c0,1.4-.72,2.1-2.21,3.25l-1.37,1.06h3.66v1.6h-6.21v-1.46Z"/>
          <path class="mobile-cls-8" d="m163.17,127.02v-.02c0-2.43,1.51-4.34,3.74-4.34s3.72,1.88,3.72,4.32v.02c0,2.43-1.5,4.34-3.74,4.34s-3.72-1.88-3.72-4.32Zm5.57,0v-.02c0-1.52-.74-2.67-1.85-2.67s-1.82,1.12-1.82,2.65v.02c0,1.54.73,2.67,1.85,2.67s1.82-1.13,1.82-2.65Z"/>
          <path class="mobile-cls-8" d="m171.75,129.74l2.79-2.29c1.04-.86,1.45-1.32,1.45-2.02s-.47-1.09-1.13-1.09-1.09.36-1.71,1.13l-1.3-1.04c.83-1.13,1.63-1.74,3.13-1.74,1.74,0,2.89,1.02,2.89,2.59v.02c0,1.4-.72,2.1-2.21,3.25l-1.37,1.06h3.66v1.6h-6.21v-1.46Z"/>
          <path class="mobile-cls-8" d="m179.22,129.74l2.79-2.29c1.04-.86,1.45-1.32,1.45-2.02s-.47-1.09-1.13-1.09-1.09.36-1.71,1.13l-1.3-1.04c.83-1.13,1.63-1.74,3.13-1.74,1.74,0,2.89,1.02,2.89,2.59v.02c0,1.4-.72,2.1-2.21,3.25l-1.37,1.06h3.66v1.6h-6.21v-1.46Z"/>
        </g>
      </g>
      <g id="june_2022_text">
        <g>
          <line class="mobile-cls-9" x1="210.77" y1="231.3" x2="210.77" y2="231.3"/>
          <line class="mobile-cls-10" x1="206.1" y1="231.3" x2="203.77" y2="231.3"/>
          <line class="mobile-cls-9" x1="201.44" y1="231.3" x2="201.44" y2="231.3"/>
        </g>
        <g>
          <path class="mobile-cls-6" d="m224.18,185.35h1l4.31,9.52h-1.15l-1.11-2.5h-5.15l-1.12,2.5h-1.09l4.31-9.52Zm2.63,6.06l-2.15-4.82-2.16,4.82h4.31Z"/>
          <path class="mobile-cls-6" d="m231.17,187.89h1.04v1.17c.46-.69,1.08-1.32,2.25-1.32s1.86.61,2.24,1.39c.5-.77,1.24-1.39,2.46-1.39,1.61,0,2.59,1.08,2.59,2.81v4.32h-1.04v-4.08c0-1.35-.68-2.11-1.81-2.11-1.05,0-1.93.78-1.93,2.16v4.02h-1.03v-4.1c0-1.31-.69-2.08-1.8-2.08s-1.94.92-1.94,2.2v3.98h-1.04v-6.98Z"/>
          <path class="mobile-cls-6" d="m243.97,187.89h1.04v1.17c.46-.69,1.08-1.32,2.25-1.32s1.86.61,2.24,1.39c.5-.77,1.24-1.39,2.46-1.39,1.61,0,2.59,1.08,2.59,2.81v4.32h-1.04v-4.08c0-1.35-.68-2.11-1.81-2.11-1.05,0-1.93.78-1.93,2.16v4.02h-1.03v-4.1c0-1.31-.69-2.08-1.8-2.08s-1.94.92-1.94,2.2v3.98h-1.04v-6.98Z"/>
          <path class="mobile-cls-6" d="m256.24,192.85v-.03c0-1.47,1.21-2.25,2.98-2.25.89,0,1.53.12,2.15.3v-.24c0-1.26-.77-1.9-2.08-1.9-.82,0-1.47.22-2.12.51l-.31-.85c.77-.35,1.53-.58,2.54-.58s1.74.26,2.25.77c.47.47.72,1.15.72,2.04v4.27h-1v-1.05c-.49.63-1.3,1.2-2.53,1.2-1.3,0-2.61-.74-2.61-2.17Zm5.14-.54v-.67c-.51-.15-1.2-.3-2.05-.3-1.31,0-2.04.57-2.04,1.44v.03c0,.88.81,1.39,1.75,1.39,1.28,0,2.34-.78,2.34-1.89Z"/>
          <path class="mobile-cls-6" d="m264.58,187.89h1.04v1.82c.51-1.16,1.53-2,2.85-1.94v1.12h-.08c-1.53,0-2.77,1.09-2.77,3.2v2.78h-1.04v-6.98Z"/>
          <path class="mobile-cls-6" d="m274.1,187.89h1.04v1.82c.51-1.16,1.53-2,2.85-1.94v1.12h-.08c-1.53,0-2.77,1.09-2.77,3.2v2.78h-1.04v-6.98Z"/>
          <path class="mobile-cls-6" d="m278.84,191.4v-.03c0-2.01,1.42-3.63,3.35-3.63,2.07,0,3.25,1.65,3.25,3.69,0,.13,0,.22-.01.34h-5.54c.15,1.51,1.22,2.36,2.46,2.36.96,0,1.63-.39,2.2-.99l.65.58c-.7.78-1.55,1.31-2.88,1.31-1.92,0-3.48-1.47-3.48-3.63Zm5.55-.4c-.11-1.27-.84-2.38-2.23-2.38-1.21,0-2.13,1.01-2.27,2.38h4.5Z"/>
          <path class="mobile-cls-6" d="m286.83,191.42v-.03c0-1.97,1.54-3.65,3.58-3.65,1.32,0,2.15.55,2.8,1.24l-.69.73c-.55-.58-1.17-1.05-2.12-1.05-1.42,0-2.5,1.2-2.5,2.7v.03c0,1.51,1.11,2.71,2.57,2.71.89,0,1.58-.45,2.13-1.04l.66.62c-.7.78-1.54,1.35-2.85,1.35-2.04,0-3.58-1.66-3.58-3.62Z"/>
          <path class="mobile-cls-6" d="m294.34,191.4v-.03c0-2.01,1.42-3.63,3.35-3.63,2.07,0,3.25,1.65,3.25,3.69,0,.13,0,.22-.01.34h-5.54c.15,1.51,1.22,2.36,2.46,2.36.96,0,1.63-.39,2.2-.99l.65.58c-.7.78-1.55,1.31-2.88,1.31-1.92,0-3.48-1.47-3.48-3.63Zm5.55-.4c-.11-1.27-.84-2.38-2.23-2.38-1.21,0-2.13,1.01-2.27,2.38h4.5Z"/>
          <path class="mobile-cls-6" d="m302.79,185.22h1.19v1.15h-1.19v-1.15Zm.07,2.67h1.04v6.98h-1.04v-6.98Z"/>
          <path class="mobile-cls-6" d="m305.62,187.89h1.15l2.35,5.79,2.36-5.79h1.12l-3.04,7.04h-.92l-3.02-7.04Z"/>
          <path class="mobile-cls-6" d="m313.4,191.4v-.03c0-2.01,1.42-3.63,3.35-3.63,2.07,0,3.25,1.65,3.25,3.69,0,.13,0,.22-.01.34h-5.54c.15,1.51,1.22,2.36,2.46,2.36.96,0,1.63-.39,2.2-.99l.65.58c-.7.78-1.55,1.31-2.88,1.31-1.92,0-3.48-1.47-3.48-3.63Zm5.55-.4c-.11-1.27-.84-2.38-2.23-2.38-1.21,0-2.13,1.01-2.27,2.38h4.5Z"/>
          <path class="mobile-cls-6" d="m321.42,191.4v-.03c0-2.28,1.66-3.63,3.34-3.63,1.3,0,2.13.7,2.67,1.49v-4.21h1.04v9.86h-1.04v-1.4c-.57.84-1.39,1.55-2.67,1.55-1.67,0-3.34-1.32-3.34-3.62Zm6.05-.01v-.03c0-1.61-1.23-2.69-2.52-2.69s-2.46,1-2.46,2.69v.03c0,1.65,1.13,2.7,2.46,2.7s2.52-1.09,2.52-2.7Z"/>
          <path class="mobile-cls-7" d="m222.32,210.13v.95h-2.05v-9.86h2.05v3.66c.5-.68,1.19-1.17,2.25-1.17,1.69,0,3.3,1.32,3.3,3.74v.03c0,2.42-1.58,3.74-3.3,3.74-1.09,0-1.77-.5-2.25-1.08Zm3.5-2.66v-.03c0-1.2-.81-2-1.77-2s-1.75.8-1.75,2v.03c0,1.2.8,2,1.75,2s1.77-.78,1.77-2Z"/>
          <path class="mobile-cls-7" d="m229.32,208.52v-4.69h2.05v4.04c0,.97.46,1.47,1.24,1.47s1.28-.5,1.28-1.47v-4.04h2.05v7.24h-2.05v-1.03c-.47.61-1.08,1.16-2.12,1.16-1.55,0-2.46-1.03-2.46-2.69Z"/>
          <path class="mobile-cls-7" d="m237.46,207.47v-.03c0-2.42,1.58-3.74,3.3-3.74,1.09,0,1.77.5,2.25,1.08v-3.56h2.05v9.86h-2.05v-1.04c-.5.68-1.19,1.18-2.25,1.18-1.69,0-3.3-1.32-3.3-3.74Zm5.58,0v-.03c0-1.2-.8-2-1.75-2s-1.77.78-1.77,2v.03c0,1.2.81,2,1.77,2s1.75-.8,1.75-2Z"/>
          <path class="mobile-cls-7" d="m246.55,207.5v-.03c0-2.07,1.47-3.77,3.58-3.77,2.42,0,3.52,1.88,3.52,3.93,0,.16-.01.35-.03.54h-5.04c.2.93.85,1.42,1.77,1.42.69,0,1.19-.22,1.76-.74l1.17,1.04c-.67.84-1.65,1.35-2.96,1.35-2.17,0-3.78-1.53-3.78-3.74Zm5.1-.61c-.12-.92-.66-1.54-1.53-1.54s-1.4.61-1.57,1.54h3.09Z"/>
          <path class="mobile-cls-7" d="m254.61,210.11l.88-1.35c.78.57,1.61.86,2.28.86.59,0,.86-.22.86-.54v-.03c0-.45-.7-.59-1.5-.84-1.01-.3-2.16-.77-2.16-2.17v-.03c0-1.47,1.19-2.3,2.65-2.3.92,0,1.92.31,2.7.84l-.78,1.42c-.72-.42-1.43-.68-1.96-.68s-.76.22-.76.5v.03c0,.41.69.59,1.47.86,1.01.34,2.19.82,2.19,2.15v.03c0,1.61-1.2,2.34-2.77,2.34-1.01,0-2.15-.34-3.11-1.09Z"/>
          <path class="mobile-cls-7" d="m261.6,207.5v-.03c0-2.08,1.67-3.77,3.93-3.77s3.9,1.66,3.9,3.74v.03c0,2.08-1.67,3.77-3.93,3.77s-3.9-1.66-3.9-3.74Zm5.81,0v-.03c0-1.07-.77-2-1.9-2s-1.88.9-1.88,1.97v.03c0,1.07.77,2,1.9,2s1.88-.9,1.88-1.97Z"/>
          <path class="mobile-cls-7" d="m270.91,203.84h2.05v1.03c.47-.61,1.08-1.16,2.12-1.16,1.55,0,2.46,1.03,2.46,2.69v4.69h-2.05v-4.04c0-.97-.46-1.47-1.24-1.47s-1.28.5-1.28,1.47v4.04h-2.05v-7.24Z"/>
          <path class="mobile-cls-7" d="m279.37,201.22h2.16v1.82h-2.16v-1.82Zm.05,2.62h2.05v7.24h-2.05v-7.24Z"/>
          <path class="mobile-cls-7" d="m283.08,207.47v-.03c0-2.42,1.58-3.74,3.29-3.74,1.09,0,1.77.5,2.26,1.08v-3.56h2.05v9.86h-2.05v-1.04c-.5.68-1.19,1.18-2.26,1.18-1.69,0-3.29-1.32-3.29-3.74Zm5.58,0v-.03c0-1.2-.8-2-1.75-2s-1.77.78-1.77,2v.03c0,1.2.81,2,1.77,2s1.75-.8,1.75-2Z"/>
          <path class="mobile-cls-7" d="m292.16,207.5v-.03c0-2.07,1.47-3.77,3.58-3.77,2.42,0,3.52,1.88,3.52,3.93,0,.16-.01.35-.03.54h-5.04c.2.93.85,1.42,1.77,1.42.69,0,1.19-.22,1.76-.74l1.17,1.04c-.67.84-1.65,1.35-2.96,1.35-2.17,0-3.78-1.53-3.78-3.74Zm5.1-.61c-.12-.92-.66-1.54-1.53-1.54s-1.4.61-1.57,1.54h3.09Z"/>
          <path class="mobile-cls-7" d="m225.4,223.4c-.49.4-1.11.65-1.92.65-2.05,0-3.38-1.13-3.38-3.05v-.03c0-1.9,1.47-3.31,3.61-3.31,1.27,0,2.01.31,2.73,1.03.67.67,1.12,1.7,1.12,3.56v.03c0,3.07-1.45,5.16-4.13,5.16-1.38,0-2.31-.46-3.11-1.12l1.09-1.58c.69.55,1.27.81,2.07.81,1.43,0,1.84-1.34,1.92-2.15Zm.04-2.48v-.03c0-.84-.62-1.45-1.66-1.45s-1.61.59-1.61,1.43v.03c0,.84.62,1.42,1.65,1.42s1.62-.59,1.62-1.4Z"/>
          <path class="mobile-cls-7" d="m233.25,220.04h2.05v1.03c.47-.61,1.09-1.16,2.13-1.16.95,0,1.66.42,2.04,1.15.63-.74,1.39-1.15,2.38-1.15,1.53,0,2.44.92,2.44,2.66v4.71h-2.05v-4.04c0-.97-.43-1.47-1.2-1.47s-1.24.5-1.24,1.47v4.04h-2.05v-4.04c0-.97-.43-1.47-1.2-1.47s-1.24.5-1.24,1.47v4.04h-2.05v-7.24Z"/>
          <path class="mobile-cls-7" d="m246.12,228.71l.7-1.54c.74.42,1.49.66,2.44.66,1.4,0,2.07-.68,2.07-1.97v-.35c-.61.73-1.27,1.17-2.36,1.17-1.69,0-3.21-1.23-3.21-3.38v-.03c0-2.16,1.55-3.38,3.21-3.38,1.12,0,1.78.47,2.34,1.08v-.95h2.05v5.6c0,1.3-.31,2.24-.92,2.85-.67.68-1.71.97-3.12.97-1.17,0-2.28-.27-3.2-.76Zm5.21-5.4v-.03c0-.99-.77-1.67-1.77-1.67s-1.76.69-1.76,1.67v.03c0,1,.76,1.67,1.76,1.67s1.77-.69,1.77-1.67Z"/>
          <path class="mobile-cls-7" d="m259.45,217.82h3.86c2.26,0,3.62,1.34,3.62,3.27v.03c0,2.19-1.7,3.32-3.82,3.32h-1.58v2.84h-2.08v-9.45Zm3.73,4.77c1.04,0,1.65-.62,1.65-1.43v-.03c0-.93-.65-1.43-1.69-1.43h-1.61v2.89h1.65Z"/>
          <path class="mobile-cls-7" d="m268.05,222.57v-.03c0-2.69,2.12-4.89,5.04-4.89s5.01,2.17,5.01,4.86v.03c0,2.69-2.12,4.89-5.04,4.89s-5.01-2.17-5.01-4.86Zm7.87,0v-.03c0-1.62-1.19-2.97-2.86-2.97s-2.84,1.32-2.84,2.94v.03c0,1.62,1.19,2.97,2.86,2.97s2.84-1.32,2.84-2.94Z"/>
          <path class="mobile-cls-7" d="m283.45,223.67v-.03c0-2.42,1.58-3.74,3.29-3.74,1.09,0,1.77.5,2.26,1.08v-3.56h2.05v9.86h-2.05v-1.04c-.5.68-1.19,1.18-2.26,1.18-1.69,0-3.29-1.32-3.29-3.74Zm5.58,0v-.03c0-1.2-.8-2-1.75-2s-1.77.78-1.77,2v.03c0,1.2.81,2,1.77,2s1.75-.8,1.75-2Z"/>
          <path class="mobile-cls-7" d="m292.46,225.19v-.03c0-1.58,1.2-2.31,2.92-2.31.73,0,1.26.12,1.77.3v-.12c0-.85-.53-1.32-1.55-1.32-.78,0-1.34.15-2,.39l-.51-1.57c.8-.35,1.58-.58,2.81-.58,1.12,0,1.93.3,2.44.81.54.54.78,1.34.78,2.31v4.2h-1.99v-.78c-.5.55-1.19.92-2.19.92-1.36,0-2.48-.78-2.48-2.21Zm4.71-.47v-.36c-.35-.16-.81-.27-1.31-.27-.88,0-1.42.35-1.42,1v.03c0,.55.46.88,1.12.88.96,0,1.61-.53,1.61-1.27Z"/>
          <path class="mobile-cls-7" d="m300.92,217.42h2.16v1.82h-2.16v-1.82Zm.05,2.62h2.05v7.24h-2.05v-7.24Z"/>
          <path class="mobile-cls-7" d="m305.06,217.42h2.05v9.86h-2.05v-9.86Z"/>
          <path class="mobile-cls-7" d="m313.79,220.04h2.13l-2.78,7.41c-.55,1.47-1.15,2.03-2.38,2.03-.74,0-1.3-.19-1.82-.5l.69-1.49c.27.16.61.28.88.28.35,0,.54-.11.71-.47l-2.83-7.27h2.17l1.65,4.93,1.58-4.93Z"/>
          <path class="mobile-cls-6" d="m220.9,237.41h-.96v-.9h.96v-.61c0-.8.22-1.4.61-1.8.35-.35.87-.54,1.5-.54.49,0,.81.05,1.15.18v.9c-.38-.11-.66-.18-1.01-.18-.81,0-1.22.49-1.22,1.49v.57h2.21v.89h-2.2v6.06h-1.04v-6.06Z"/>
          <path class="mobile-cls-6" d="m224.89,240.02v-.03c0-1.97,1.54-3.65,3.65-3.65s3.63,1.65,3.63,3.62v.03c0,1.97-1.55,3.65-3.66,3.65s-3.62-1.65-3.62-3.62Zm6.21,0v-.03c0-1.5-1.12-2.73-2.59-2.73s-2.55,1.23-2.55,2.7v.03c0,1.5,1.11,2.71,2.58,2.71s2.57-1.22,2.57-2.69Z"/>
          <path class="mobile-cls-6" d="m234.05,236.49h1.04v1.82c.51-1.16,1.53-2,2.85-1.94v1.12h-.08c-1.53,0-2.77,1.09-2.77,3.2v2.78h-1.04v-6.98Z"/>
          <path class="mobile-cls-6" d="m243.11,240.94v-.03c0-1.12.81-1.92,1.94-2.32-.88-.4-1.62-1.08-1.62-2.17v-.03c0-1.46,1.5-2.5,3.23-2.5s3.23,1.04,3.23,2.5v.03c0,1.09-.74,1.77-1.62,2.17,1.12.42,1.95,1.19,1.95,2.31v.03c0,1.61-1.54,2.69-3.55,2.69s-3.55-1.09-3.55-2.67Zm6.02-.03v-.03c0-1.05-1.09-1.8-2.47-1.8s-2.47.74-2.47,1.8v.03c0,.96.92,1.77,2.47,1.77s2.47-.81,2.47-1.77Zm-.31-4.43v-.03c0-.93-.93-1.63-2.16-1.63s-2.16.69-2.16,1.63v.03c0,1.03.96,1.73,2.16,1.73s2.16-.7,2.16-1.73Z"/>
          <path class="mobile-cls-6" d="m255.53,236.49h1.11l1.84,5.6,1.88-5.63h.86l1.89,5.63,1.84-5.6h1.08l-2.46,7.04h-.91l-1.88-5.51-1.89,5.51h-.92l-2.44-7.04Z"/>
          <path class="mobile-cls-6" d="m266.97,240v-.03c0-2.01,1.42-3.63,3.35-3.63,2.07,0,3.25,1.65,3.25,3.69,0,.13,0,.22-.01.34h-5.54c.15,1.51,1.22,2.36,2.46,2.36.96,0,1.63-.39,2.2-.99l.65.58c-.7.78-1.55,1.31-2.88,1.31-1.92,0-3.48-1.47-3.48-3.63Zm5.55-.4c-.11-1.27-.84-2.38-2.23-2.38-1.21,0-2.13,1.01-2.27,2.38h4.5Z"/>
          <path class="mobile-cls-6" d="m274.96,240v-.03c0-2.01,1.42-3.63,3.35-3.63,2.07,0,3.25,1.65,3.25,3.69,0,.13,0,.22-.01.34h-5.54c.15,1.51,1.22,2.36,2.46,2.36.96,0,1.63-.39,2.2-.99l.65.58c-.7.78-1.55,1.31-2.88,1.31-1.92,0-3.48-1.47-3.48-3.63Zm5.55-.4c-.11-1.27-.84-2.38-2.23-2.38-1.21,0-2.13,1.01-2.27,2.38h4.5Z"/>
          <path class="mobile-cls-6" d="m283.39,233.62h1.04v6.81l3.77-3.93h1.3l-2.93,3,3.02,3.98h-1.24l-2.5-3.25-1.42,1.43v1.82h-1.04v-9.86Z"/>
          <path class="mobile-cls-6" d="m290.4,242.58l.53-.74c.76.57,1.59.89,2.42.89s1.45-.43,1.45-1.11v-.03c0-.7-.82-.97-1.74-1.23-1.09-.31-2.31-.69-2.31-1.97v-.03c0-1.2,1-2,2.38-2,.85,0,1.8.3,2.51.77l-.47.78c-.65-.42-1.39-.68-2.07-.68-.82,0-1.35.43-1.35,1.01v.03c0,.66.86.92,1.8,1.2,1.08.32,2.24.74,2.24,2v.03c0,1.32-1.09,2.09-2.48,2.09-1,0-2.11-.39-2.89-1.03Z"/>
          <path class="mobile-cls-6" d="m297.16,244.65c.67-.24.96-.59.91-1.17h-.49v-1.42h1.24v1.22c0,1.09-.47,1.62-1.5,1.85l-.16-.47Z"/>
          <path class="mobile-cls-6" d="m220.9,253.61h-.96v-.9h.96v-.61c0-.8.22-1.4.61-1.8.35-.35.87-.54,1.5-.54.49,0,.81.05,1.15.18v.9c-.38-.11-.66-.18-1.01-.18-.81,0-1.22.49-1.22,1.49v.57h2.21v.89h-2.2v6.06h-1.04v-6.06Z"/>
          <path class="mobile-cls-6" d="m224.89,256.22v-.03c0-1.97,1.54-3.65,3.65-3.65s3.63,1.65,3.63,3.62v.03c0,1.97-1.55,3.65-3.66,3.65s-3.62-1.65-3.62-3.62Zm6.21,0v-.03c0-1.5-1.12-2.73-2.59-2.73s-2.55,1.23-2.55,2.7v.03c0,1.5,1.11,2.71,2.58,2.71s2.57-1.22,2.57-2.69Z"/>
          <path class="mobile-cls-6" d="m234.14,249.82h1.04v9.86h-1.04v-9.86Z"/>
          <path class="mobile-cls-6" d="m237.69,249.82h1.04v9.86h-1.04v-9.86Z"/>
          <path class="mobile-cls-6" d="m240.72,256.22v-.03c0-1.97,1.54-3.65,3.65-3.65s3.63,1.65,3.63,3.62v.03c0,1.97-1.55,3.65-3.66,3.65s-3.62-1.65-3.62-3.62Zm6.21,0v-.03c0-1.5-1.12-2.73-2.59-2.73s-2.55,1.23-2.55,2.7v.03c0,1.5,1.11,2.71,2.58,2.71s2.57-1.22,2.57-2.69Z"/>
          <path class="mobile-cls-6" d="m248.94,252.69h1.11l1.84,5.6,1.88-5.63h.86l1.89,5.63,1.84-5.6h1.08l-2.46,7.04h-.91l-1.88-5.51-1.89,5.51h-.92l-2.44-7.04Z"/>
          <path class="mobile-cls-6" d="m260.38,256.2v-.03c0-2.01,1.42-3.63,3.35-3.63,2.07,0,3.25,1.65,3.25,3.69,0,.13,0,.22-.01.34h-5.54c.15,1.51,1.22,2.36,2.46,2.36.96,0,1.63-.39,2.2-.99l.65.58c-.7.78-1.55,1.31-2.88,1.31-1.92,0-3.48-1.47-3.48-3.63Zm5.55-.4c-.11-1.27-.84-2.38-2.23-2.38-1.21,0-2.13,1.01-2.27,2.38h4.5Z"/>
          <path class="mobile-cls-6" d="m268.4,256.2v-.03c0-2.28,1.66-3.63,3.34-3.63,1.3,0,2.13.7,2.67,1.49v-4.21h1.04v9.86h-1.04v-1.4c-.57.84-1.39,1.55-2.67,1.55-1.67,0-3.34-1.32-3.34-3.62Zm6.05-.01v-.03c0-1.61-1.23-2.69-2.52-2.69s-2.46,1-2.46,2.69v.03c0,1.65,1.13,2.7,2.46,2.7s2.52-1.09,2.52-2.7Z"/>
          <path class="mobile-cls-6" d="m282.86,258.34v1.34h-1.04v-9.86h1.04v4.28c.57-.84,1.39-1.55,2.67-1.55,1.67,0,3.33,1.32,3.33,3.62v.03c0,2.28-1.65,3.63-3.33,3.63-1.3,0-2.13-.7-2.67-1.49Zm4.94-2.13v-.03c0-1.65-1.13-2.7-2.46-2.7s-2.52,1.09-2.52,2.69v.03c0,1.62,1.23,2.7,2.52,2.7s2.46-1,2.46-2.69Z"/>
          <path class="mobile-cls-6" d="m295.67,252.69h1.11l-2.93,7.21c-.59,1.44-1.27,1.97-2.32,1.97-.58,0-1.01-.12-1.49-.35l.35-.82c.34.18.65.26,1.09.26.62,0,1.01-.32,1.43-1.31l-3.17-6.95h1.15l2.54,5.82,2.24-5.82Z"/>
          <path class="mobile-cls-6" d="m220.87,274.02v-4.21h-.97v-.92h.97v-2.11h1.04v2.11h2.21v.92h-2.21v4.08c0,.85.47,1.16,1.17,1.16.35,0,.65-.07,1.01-.24v.89c-.37.19-.76.3-1.26.3-1.12,0-1.97-.55-1.97-1.97Z"/>
          <path class="mobile-cls-6" d="m225.43,273.85v-.03c0-1.47,1.21-2.25,2.98-2.25.89,0,1.53.12,2.15.3v-.24c0-1.26-.77-1.9-2.08-1.9-.82,0-1.47.22-2.12.51l-.31-.85c.77-.35,1.53-.58,2.54-.58s1.74.26,2.25.77c.47.47.72,1.15.72,2.04v4.27h-1v-1.05c-.49.63-1.3,1.2-2.53,1.2-1.3,0-2.61-.74-2.61-2.17Zm5.14-.54v-.67c-.51-.15-1.2-.3-2.05-.3-1.31,0-2.04.57-2.04,1.44v.03c0,.88.81,1.39,1.75,1.39,1.28,0,2.34-.78,2.34-1.89Z"/>
          <path class="mobile-cls-6" d="m233.78,268.89h1.04v1.4c.57-.84,1.39-1.55,2.67-1.55,1.67,0,3.33,1.32,3.33,3.62v.03c0,2.28-1.65,3.63-3.33,3.63-1.3,0-2.13-.7-2.67-1.49v3.5h-1.04v-9.14Zm5.98,3.51v-.03c0-1.65-1.13-2.7-2.46-2.7s-2.52,1.09-2.52,2.69v.03c0,1.62,1.23,2.7,2.52,2.7s2.46-1,2.46-2.69Z"/>
          <path class="mobile-cls-6" d="m242.31,272.4v-.03c0-2.01,1.42-3.63,3.35-3.63,2.07,0,3.25,1.65,3.25,3.69,0,.13,0,.22-.01.34h-5.54c.15,1.51,1.22,2.36,2.46,2.36.96,0,1.63-.39,2.2-.99l.65.58c-.7.78-1.55,1.31-2.88,1.31-1.92,0-3.48-1.47-3.48-3.63Zm5.55-.4c-.11-1.27-.84-2.38-2.23-2.38-1.21,0-2.13,1.01-2.27,2.38h4.5Z"/>
          <path class="mobile-cls-6" d="m250.73,268.89h1.04v1.82c.51-1.16,1.53-2,2.85-1.94v1.12h-.08c-1.53,0-2.77,1.09-2.77,3.2v2.78h-1.04v-6.98Z"/>
          <path class="mobile-cls-6" d="m256.23,266.22h1.19v1.15h-1.19v-1.15Zm.07,2.67h1.04v6.98h-1.04v-6.98Z"/>
          <path class="mobile-cls-6" d="m259.75,268.89h1.04v1.22c.46-.76,1.19-1.36,2.39-1.36,1.69,0,2.67,1.13,2.67,2.8v4.33h-1.04v-4.08c0-1.3-.7-2.11-1.93-2.11s-2.09.88-2.09,2.19v4h-1.04v-6.98Z"/>
          <path class="mobile-cls-6" d="m267.99,277.09l.47-.81c.8.58,1.69.89,2.69.89,1.54,0,2.54-.85,2.54-2.48v-.82c-.61.81-1.46,1.47-2.74,1.47-1.67,0-3.28-1.26-3.28-3.27v-.03c0-2.04,1.62-3.3,3.28-3.3,1.31,0,2.16.65,2.73,1.4v-1.26h1.04v5.77c0,1.08-.32,1.9-.89,2.47-.62.62-1.55.93-2.66.93s-2.24-.32-3.17-.97Zm5.73-5.04v-.03c0-1.43-1.24-2.36-2.57-2.36s-2.42.92-2.42,2.35v.03c0,1.4,1.12,2.38,2.42,2.38s2.57-.96,2.57-2.36Z"/>
          <path class="mobile-cls-6" d="m281.45,274.02v-4.21h-.97v-.92h.97v-2.11h1.04v2.11h2.21v.92h-2.21v4.08c0,.85.47,1.16,1.17,1.16.35,0,.65-.07,1.01-.24v.89c-.37.19-.76.3-1.26.3-1.12,0-1.97-.55-1.97-1.97Z"/>
          <path class="mobile-cls-6" d="m285.9,272.42v-.03c0-1.97,1.54-3.65,3.65-3.65s3.63,1.65,3.63,3.62v.03c0,1.97-1.55,3.65-3.66,3.65s-3.62-1.65-3.62-3.62Zm6.21,0v-.03c0-1.5-1.12-2.73-2.59-2.73s-2.55,1.23-2.55,2.7v.03c0,1.5,1.11,2.71,2.58,2.71s2.57-1.22,2.57-2.69Z"/>
          <path class="mobile-cls-7" d="m298.45,274.4l1.43-1.36c.65.73,1.32,1.13,2.28,1.13.78,0,1.34-.45,1.34-1.15v-.03c0-.77-.69-1.2-1.85-1.2h-.86l-.32-1.32,2.25-2.27h-3.71v-1.78h6.39v1.57l-2.39,2.28c1.28.22,2.54.89,2.54,2.65v.03c0,1.78-1.3,3.09-3.4,3.09-1.7,0-2.88-.68-3.69-1.63Z"/>
          <path class="mobile-cls-7" d="m311.29,268.64h2.05v1.03c.47-.61,1.09-1.16,2.13-1.16.95,0,1.66.42,2.04,1.15.63-.74,1.39-1.15,2.38-1.15,1.53,0,2.44.92,2.44,2.66v4.71h-2.05v-4.04c0-.97-.43-1.47-1.2-1.47s-1.24.5-1.24,1.47v4.04h-2.05v-4.04c0-.97-.43-1.47-1.2-1.47s-1.24.5-1.24,1.47v4.04h-2.05v-7.24Z"/>
          <path class="mobile-cls-7" d="m324.16,277.31l.7-1.54c.74.42,1.49.66,2.44.66,1.4,0,2.07-.68,2.07-1.97v-.35c-.61.73-1.27,1.17-2.36,1.17-1.69,0-3.21-1.23-3.21-3.38v-.03c0-2.16,1.55-3.38,3.21-3.38,1.12,0,1.78.47,2.34,1.08v-.95h2.05v5.6c0,1.3-.31,2.24-.92,2.85-.67.68-1.71.97-3.12.97-1.17,0-2.28-.27-3.2-.76Zm5.21-5.4v-.03c0-.99-.77-1.67-1.77-1.67s-1.76.69-1.76,1.67v.03c0,1,.76,1.67,1.76,1.67s1.77-.69,1.77-1.67Z"/>
        </g>
      </g>
      <g id="june_2022_capsule">
        <rect class="mobile-cls-1" x="99.44" y="215.55" width="102" height="30" rx="15" ry="15"/>
        <g>
          <path class="mobile-cls-8" d="m118.73,233.87l1.16-1.3c.48.53.95.84,1.54.84.7,0,1.13-.42,1.13-1.39v-5.41h1.89v5.49c0,1-.29,1.74-.79,2.24-.52.52-1.27.78-2.18.78-1.31,0-2.17-.58-2.75-1.26Z"/>
          <path class="mobile-cls-8" d="m126.1,232.74v-4.16h1.82v3.59c0,.86.41,1.31,1.1,1.31s1.14-.44,1.14-1.31v-3.59h1.82v6.43h-1.82v-.91c-.42.54-.96,1.03-1.88,1.03-1.38,0-2.18-.91-2.18-2.39Z"/>
          <path class="mobile-cls-8" d="m133.62,228.58h1.82v.91c.42-.54.96-1.03,1.88-1.03,1.38,0,2.18.91,2.18,2.39v4.16h-1.82v-3.59c0-.86-.41-1.31-1.1-1.31s-1.14.44-1.14,1.31v3.59h-1.82v-6.43Z"/>
          <path class="mobile-cls-8" d="m140.79,231.83v-.02c0-1.83,1.31-3.35,3.18-3.35,2.15,0,3.13,1.67,3.13,3.49,0,.14-.01.31-.02.48h-4.47c.18.83.76,1.26,1.57,1.26.61,0,1.06-.19,1.56-.66l1.04.92c-.6.74-1.46,1.2-2.63,1.2-1.93,0-3.36-1.36-3.36-3.32Zm4.53-.54c-.11-.82-.59-1.37-1.36-1.37s-1.25.54-1.39,1.37h2.75Z"/>
          <path class="mobile-cls-8" d="m151.83,233.54l2.79-2.29c1.04-.86,1.45-1.32,1.45-2.02s-.47-1.09-1.13-1.09-1.09.36-1.71,1.13l-1.3-1.04c.83-1.13,1.63-1.74,3.13-1.74,1.74,0,2.89,1.02,2.89,2.59v.02c0,1.4-.72,2.1-2.21,3.25l-1.37,1.06h3.66v1.6h-6.21v-1.46Z"/>
          <path class="mobile-cls-8" d="m159.36,230.83v-.02c0-2.43,1.51-4.34,3.74-4.34s3.72,1.88,3.72,4.32v.02c0,2.43-1.5,4.34-3.74,4.34s-3.72-1.88-3.72-4.32Zm5.57,0v-.02c0-1.52-.74-2.67-1.85-2.67s-1.82,1.12-1.82,2.65v.02c0,1.54.73,2.67,1.85,2.67s1.82-1.13,1.82-2.65Z"/>
          <path class="mobile-cls-8" d="m167.94,233.54l2.79-2.29c1.04-.86,1.45-1.32,1.45-2.02s-.47-1.09-1.13-1.09-1.09.36-1.71,1.13l-1.3-1.04c.83-1.13,1.63-1.74,3.13-1.74,1.74,0,2.89,1.02,2.89,2.59v.02c0,1.4-.72,2.1-2.21,3.25l-1.37,1.06h3.66v1.6h-6.21v-1.46Z"/>
          <path class="mobile-cls-8" d="m175.42,233.54l2.79-2.29c1.04-.86,1.45-1.32,1.45-2.02s-.47-1.09-1.13-1.09-1.09.36-1.71,1.13l-1.3-1.04c.83-1.13,1.63-1.74,3.13-1.74,1.74,0,2.89,1.02,2.89,2.59v.02c0,1.4-.72,2.1-2.21,3.25l-1.37,1.06h3.66v1.6h-6.21v-1.46Z"/>
        </g>
      </g>
      <g id="october_2022_text">
        <g>
          <line class="mobile-cls-9" x1="210.77" y1="335.85" x2="210.77" y2="335.85"/>
          <line class="mobile-cls-10" x1="206.1" y1="335.85" x2="203.77" y2="335.85"/>
          <line class="mobile-cls-9" x1="201.44" y1="335.85" x2="201.44" y2="335.85"/>
        </g>
        <g>
          <path class="mobile-cls-6" d="m220.68,322.61h6.79v.99h-5.73v3.38h5.12v.97h-5.12v4.12h-1.07v-9.45Z"/>
          <path class="mobile-cls-6" d="m228.73,328.61v-.03c0-1.97,1.54-3.65,3.65-3.65s3.63,1.65,3.63,3.62v.03c0,1.97-1.55,3.65-3.66,3.65s-3.62-1.65-3.62-3.62Zm6.21,0v-.03c0-1.5-1.12-2.73-2.59-2.73s-2.55,1.23-2.55,2.7v.03c0,1.5,1.11,2.71,2.58,2.71s2.57-1.22,2.57-2.69Z"/>
          <path class="mobile-cls-6" d="m237.98,322.21h1.04v9.86h-1.04v-9.86Z"/>
          <path class="mobile-cls-6" d="m241.53,322.21h1.04v9.86h-1.04v-9.86Z"/>
          <path class="mobile-cls-6" d="m244.55,328.61v-.03c0-1.97,1.54-3.65,3.65-3.65s3.63,1.65,3.63,3.62v.03c0,1.97-1.55,3.65-3.66,3.65s-3.62-1.65-3.62-3.62Zm6.21,0v-.03c0-1.5-1.12-2.73-2.59-2.73s-2.55,1.23-2.55,2.7v.03c0,1.5,1.11,2.71,2.58,2.71s2.57-1.22,2.57-2.69Z"/>
          <path class="mobile-cls-6" d="m252.77,325.08h1.11l1.84,5.6,1.88-5.63h.86l1.89,5.63,1.84-5.6h1.08l-2.46,7.04h-.91l-1.88-5.51-1.89,5.51h-.92l-2.44-7.04Z"/>
          <path class="mobile-cls-6" d="m264.57,327.46h3.75v1.09h-3.75v-1.09Z"/>
          <path class="mobile-cls-6" d="m270.25,329.42v-4.33h1.04v4.08c0,1.3.7,2.11,1.93,2.11s2.09-.88,2.09-2.19v-4h1.03v6.98h-1.03v-1.22c-.47.76-1.19,1.36-2.39,1.36-1.69,0-2.67-1.13-2.67-2.8Z"/>
          <path class="mobile-cls-6" d="m278.68,325.08h1.04v1.4c.57-.84,1.39-1.55,2.67-1.55,1.67,0,3.33,1.32,3.33,3.62v.03c0,2.28-1.65,3.63-3.33,3.63-1.3,0-2.13-.7-2.67-1.49v3.5h-1.04v-9.14Zm5.98,3.51v-.03c0-1.65-1.13-2.7-2.46-2.7s-2.52,1.09-2.52,2.69v.03c0,1.62,1.23,2.7,2.52,2.7s2.46-1,2.46-2.69Z"/>
          <path class="mobile-cls-6" d="m219.98,346.24v-.03c0-1.47,1.21-2.25,2.98-2.25.89,0,1.53.12,2.15.3v-.24c0-1.26-.77-1.9-2.08-1.9-.82,0-1.47.22-2.12.51l-.31-.85c.77-.35,1.53-.58,2.54-.58s1.74.26,2.25.77c.47.47.72,1.15.72,2.04v4.27h-1v-1.05c-.49.63-1.3,1.2-2.53,1.2-1.3,0-2.61-.74-2.61-2.17Zm5.14-.54v-.67c-.51-.15-1.2-.3-2.05-.3-1.31,0-2.04.57-2.04,1.44v.03c0,.88.81,1.39,1.75,1.39,1.28,0,2.34-.78,2.34-1.89Z"/>
          <path class="mobile-cls-6" d="m228.32,341.28h1.04v1.4c.57-.84,1.39-1.55,2.67-1.55,1.67,0,3.34,1.32,3.34,3.62v.03c0,2.28-1.65,3.63-3.34,3.63-1.3,0-2.13-.7-2.67-1.49v3.5h-1.04v-9.14Zm5.98,3.51v-.03c0-1.65-1.13-2.7-2.46-2.7s-2.53,1.09-2.53,2.69v.03c0,1.62,1.23,2.7,2.53,2.7s2.46-1,2.46-2.69Z"/>
          <path class="mobile-cls-6" d="m237.29,341.28h1.04v1.4c.57-.84,1.39-1.55,2.67-1.55,1.67,0,3.33,1.32,3.33,3.62v.03c0,2.28-1.65,3.63-3.33,3.63-1.3,0-2.13-.7-2.67-1.49v3.5h-1.04v-9.14Zm5.98,3.51v-.03c0-1.65-1.13-2.7-2.46-2.7s-2.52,1.09-2.52,2.69v.03c0,1.62,1.23,2.7,2.52,2.7s2.46-1,2.46-2.69Z"/>
          <path class="mobile-cls-6" d="m245.82,344.81v-.03c0-1.97,1.54-3.65,3.65-3.65s3.63,1.65,3.63,3.62v.03c0,1.97-1.55,3.65-3.66,3.65s-3.62-1.65-3.62-3.62Zm6.21,0v-.03c0-1.5-1.12-2.73-2.59-2.73s-2.55,1.23-2.55,2.7v.03c0,1.5,1.11,2.71,2.58,2.71s2.57-1.22,2.57-2.69Z"/>
          <path class="mobile-cls-6" d="m255,338.61h1.19v1.15h-1.19v-1.15Zm.07,2.67h1.04v6.98h-1.04v-6.98Z"/>
          <path class="mobile-cls-6" d="m258.52,341.28h1.04v1.22c.46-.76,1.19-1.36,2.39-1.36,1.69,0,2.67,1.13,2.67,2.8v4.33h-1.04v-4.08c0-1.3-.7-2.11-1.93-2.11s-2.09.88-2.09,2.19v4h-1.04v-6.98Z"/>
          <path class="mobile-cls-6" d="m267.2,346.41v-4.21h-.97v-.92h.97v-2.11h1.04v2.11h2.21v.92h-2.21v4.08c0,.85.47,1.16,1.17,1.16.35,0,.65-.07,1.01-.24v.89c-.37.19-.76.3-1.26.3-1.12,0-1.97-.55-1.97-1.97Z"/>
          <path class="mobile-cls-6" d="m272.29,341.28h1.04v1.17c.46-.69,1.08-1.32,2.25-1.32s1.86.61,2.24,1.39c.5-.77,1.24-1.39,2.46-1.39,1.61,0,2.59,1.08,2.59,2.81v4.32h-1.04v-4.08c0-1.35-.68-2.11-1.81-2.11-1.05,0-1.93.78-1.93,2.16v4.02h-1.03v-4.1c0-1.31-.69-2.08-1.8-2.08s-1.94.92-1.94,2.2v3.98h-1.04v-6.98Z"/>
          <path class="mobile-cls-6" d="m284.66,344.79v-.03c0-2.01,1.42-3.63,3.35-3.63,2.07,0,3.25,1.65,3.25,3.69,0,.13,0,.22-.01.34h-5.54c.15,1.51,1.22,2.36,2.46,2.36.96,0,1.63-.39,2.2-.99l.65.58c-.7.78-1.55,1.31-2.88,1.31-1.92,0-3.48-1.47-3.48-3.63Zm5.55-.4c-.11-1.27-.84-2.38-2.23-2.38-1.21,0-2.13,1.01-2.27,2.38h4.5Z"/>
          <path class="mobile-cls-6" d="m293.08,341.28h1.04v1.22c.46-.76,1.19-1.36,2.39-1.36,1.69,0,2.67,1.13,2.67,2.8v4.33h-1.04v-4.08c0-1.3-.7-2.11-1.93-2.11s-2.09.88-2.09,2.19v4h-1.04v-6.98Z"/>
          <path class="mobile-cls-6" d="m301.76,346.41v-4.21h-.97v-.92h.97v-2.11h1.04v2.11h2.21v.92h-2.21v4.08c0,.85.47,1.16,1.17,1.16.35,0,.65-.07,1.01-.24v.89c-.37.19-.76.3-1.26.3-1.12,0-1.97-.55-1.97-1.97Z"/>
        </g>
      </g>
      <g id="october_2022_capsule" data-name="october_2022" class="timeline--btn">
        <rect class="mobile-cls-2" x="97.94" y="319.35" width="105" height="33" rx="16.5" ry="16.5"/>
        <rect class="mobile-cls-5 tooltip-mobile" title="Click here" x="99.44" y="320.85" width="102" height="30" rx="15" ry="15"/>
        <g>
          <path class="mobile-cls-4" d="m108.59,336.14v-.02c0-2.39,1.88-4.34,4.47-4.34s4.45,1.93,4.45,4.32v.02c0,2.39-1.88,4.34-4.47,4.34s-4.45-1.93-4.45-4.32Zm6.99,0v-.02c0-1.44-1.06-2.64-2.54-2.64s-2.52,1.18-2.52,2.61v.02c0,1.44,1.06,2.64,2.54,2.64s2.52-1.18,2.52-2.61Z"/>
          <path class="mobile-cls-4" d="m118.66,337.14v-.02c0-1.83,1.4-3.35,3.37-3.35,1.21,0,1.97.41,2.57,1.08l-1.12,1.2c-.41-.43-.82-.71-1.46-.71-.91,0-1.56.8-1.56,1.75v.02c0,.98.64,1.77,1.63,1.77.61,0,1.03-.26,1.48-.68l1.07,1.08c-.62.68-1.34,1.18-2.63,1.18-1.93,0-3.35-1.49-3.35-3.32Z"/>
          <path class="mobile-cls-4" d="m126.12,338.49v-3.05h-.77v-1.56h.77v-1.64h1.82v1.64h1.51v1.56h-1.51v2.75c0,.42.18.62.59.62.34,0,.64-.08.9-.23v1.46c-.38.23-.83.37-1.44.37-1.12,0-1.87-.44-1.87-1.93Z"/>
          <path class="mobile-cls-4" d="m130.31,337.14v-.02c0-1.85,1.49-3.35,3.49-3.35s3.47,1.48,3.47,3.32v.02c0,1.85-1.49,3.35-3.49,3.35s-3.47-1.48-3.47-3.32Zm5.16,0v-.02c0-.95-.68-1.77-1.69-1.77s-1.67.8-1.67,1.75v.02c0,.95.68,1.77,1.69,1.77s1.67-.8,1.67-1.75Z"/>
          <path class="mobile-cls-4" d="m140.41,339.48v.84h-1.82v-8.76h1.82v3.25c.44-.6,1.06-1.04,2-1.04,1.5,0,2.93,1.18,2.93,3.32v.02c0,2.15-1.4,3.32-2.93,3.32-.97,0-1.57-.44-2-.96Zm3.11-2.36v-.02c0-1.07-.72-1.78-1.57-1.78s-1.56.71-1.56,1.78v.02c0,1.07.71,1.77,1.56,1.77s1.57-.7,1.57-1.77Z"/>
          <path class="mobile-cls-4" d="m146.38,337.14v-.02c0-1.83,1.31-3.35,3.18-3.35,2.15,0,3.13,1.67,3.13,3.49,0,.14-.01.31-.02.48h-4.47c.18.83.76,1.26,1.57,1.26.61,0,1.06-.19,1.56-.66l1.04.92c-.6.74-1.46,1.2-2.63,1.2-1.93,0-3.36-1.36-3.36-3.32Zm4.53-.54c-.11-.82-.59-1.37-1.36-1.37s-1.25.54-1.39,1.37h2.75Z"/>
          <path class="mobile-cls-4" d="m154.05,333.89h1.82v1.3c.37-.89.97-1.46,2.05-1.42v1.91h-.1c-1.21,0-1.96.73-1.96,2.27v2.37h-1.82v-6.43Z"/>
          <path class="mobile-cls-4" d="m162.44,338.85l2.79-2.29c1.04-.86,1.45-1.32,1.45-2.02s-.47-1.09-1.13-1.09-1.09.36-1.71,1.13l-1.3-1.04c.83-1.13,1.63-1.74,3.13-1.74,1.74,0,2.89,1.02,2.89,2.59v.02c0,1.4-.72,2.1-2.21,3.25l-1.37,1.06h3.66v1.6h-6.21v-1.46Z"/>
          <path class="mobile-cls-4" d="m169.97,336.14v-.02c0-2.43,1.51-4.34,3.74-4.34s3.72,1.88,3.72,4.32v.02c0,2.43-1.5,4.34-3.74,4.34s-3.72-1.88-3.72-4.32Zm5.57,0v-.02c0-1.52-.74-2.67-1.85-2.67s-1.82,1.12-1.82,2.65v.02c0,1.54.73,2.67,1.85,2.67s1.82-1.13,1.82-2.65Z"/>
          <path class="mobile-cls-4" d="m178.55,338.85l2.79-2.29c1.04-.86,1.45-1.32,1.45-2.02s-.47-1.09-1.13-1.09-1.09.36-1.71,1.13l-1.3-1.04c.83-1.13,1.63-1.74,3.13-1.74,1.74,0,2.89,1.02,2.89,2.59v.02c0,1.4-.72,2.1-2.21,3.25l-1.37,1.06h3.66v1.6h-6.21v-1.46Z"/>
          <path class="mobile-cls-4" d="m186.03,338.85l2.79-2.29c1.04-.86,1.45-1.32,1.45-2.02s-.47-1.09-1.13-1.09-1.09.36-1.71,1.13l-1.3-1.04c.83-1.13,1.63-1.74,3.13-1.74,1.74,0,2.89,1.02,2.89,2.59v.02c0,1.4-.72,2.1-2.21,3.25l-1.37,1.06h3.66v1.6h-6.21v-1.46Z"/>
        </g>
      </g>
    </g>
  </g>
</svg>