<?xml version="1.0" encoding="UTF-8"?>
<svg id="Layer_2" data-name="Layer 2" xmlns="http://www.w3.org/2000/svg" viewBox="0 0 302.2 119.08">
  <defs>
    <style>
      .cls-1 {
        fill: #dbdcdc;
      }

      .cls-1, .cls-2, .cls-3, .cls-4 {
        stroke-width: 0px;
      }

      .cls-5 {
        fill: none;
        stroke: #832580;
        stroke-miterlimit: 10;
        stroke-width: 2px;
      }

      .cls-2 {
        fill: #fff;
      }

      .cls-3 {
        fill: #231f20;
      }

      .cls-4 {
        fill: #832580;
      }
    </style>
  </defs>
  <g id="Layer_1-2" data-name="Layer 1">
    <g>
      <rect class="cls-1" x="28.4" y="36.05" width="272.8" height="50.7"/>
      <g>
        <path class="cls-3" d="m45.62,14.59h2.77v4.99h5.11v-4.99h2.77v12.6h-2.77v-5.06h-5.11v5.06h-2.77v-12.6Z"/>
        <path class="cls-3" d="m58.44,24.42v-.04c0-2.11,1.6-3.08,3.89-3.08.97,0,1.67.16,2.36.4v-.16c0-1.13-.7-1.76-2.07-1.76-1.04,0-1.78.2-2.67.52l-.68-2.09c1.06-.47,2.11-.77,3.75-.77,1.49,0,2.58.4,3.26,1.08.72.72,1.04,1.78,1.04,3.08v5.6h-2.65v-1.04c-.67.74-1.58,1.22-2.92,1.22-1.82,0-3.31-1.04-3.31-2.95Zm6.28-.63v-.49c-.47-.22-1.08-.36-1.75-.36-1.17,0-1.89.47-1.89,1.33v.04c0,.74.61,1.17,1.49,1.17,1.28,0,2.14-.7,2.14-1.69Z"/>
        <path class="cls-3" d="m69.2,22.42v-.04c0-2.75,1.96-5.02,4.77-5.02,3.22,0,4.7,2.5,4.7,5.24,0,.22-.02.47-.04.72h-6.72c.27,1.24,1.13,1.89,2.36,1.89.92,0,1.58-.29,2.34-.99l1.57,1.39c-.9,1.12-2.2,1.8-3.94,1.8-2.9,0-5.04-2.03-5.04-4.99Zm6.81-.81c-.16-1.22-.88-2.05-2.03-2.05s-1.87.81-2.09,2.05h4.12Z"/>
        <path class="cls-3" d="m80.7,17.54h2.74v1.37c.63-.81,1.46-1.55,2.85-1.55,1.26,0,2.21.56,2.72,1.53.85-.99,1.85-1.53,3.17-1.53,2.04,0,3.26,1.22,3.26,3.55v6.28h-2.74v-5.38c0-1.3-.58-1.96-1.6-1.96s-1.66.67-1.66,1.96v5.38h-2.74v-5.38c0-1.3-.58-1.96-1.6-1.96s-1.66.67-1.66,1.96v5.38h-2.74v-9.65Z"/>
        <path class="cls-3" d="m97.33,22.42v-.04c0-2.77,2.23-5.02,5.24-5.02s5.2,2.21,5.2,4.99v.04c0,2.77-2.23,5.02-5.24,5.02s-5.2-2.21-5.2-4.99Zm7.74,0v-.04c0-1.42-1.03-2.67-2.54-2.67s-2.5,1.21-2.5,2.63v.04c0,1.42,1.03,2.67,2.54,2.67s2.5-1.21,2.5-2.63Z"/>
        <path class="cls-3" d="m109.81,29.1l.94-2.05c.99.56,1.98.88,3.26.88,1.87,0,2.75-.9,2.75-2.63v-.47c-.81.97-1.69,1.57-3.15,1.57-2.25,0-4.29-1.64-4.29-4.5v-.04c0-2.88,2.07-4.5,4.29-4.5,1.49,0,2.38.63,3.12,1.44v-1.26h2.74v7.47c0,1.73-.41,2.99-1.22,3.8-.9.9-2.29,1.3-4.16,1.3-1.57,0-3.04-.36-4.27-1.01Zm6.95-7.2v-.04c0-1.31-1.03-2.23-2.36-2.23s-2.34.92-2.34,2.23v.04c0,1.33,1.01,2.23,2.34,2.23s2.36-.92,2.36-2.23Z"/>
        <path class="cls-3" d="m122.03,14.05h2.74v13.14h-2.74v-13.14Z"/>
        <path class="cls-3" d="m126.87,22.42v-.04c0-2.77,2.23-5.02,5.24-5.02s5.2,2.21,5.2,4.99v.04c0,2.77-2.23,5.02-5.24,5.02s-5.2-2.21-5.2-4.99Zm7.74,0v-.04c0-1.42-1.03-2.67-2.54-2.67s-2.5,1.21-2.5,2.63v.04c0,1.42,1.03,2.67,2.54,2.67s2.5-1.21,2.5-2.63Z"/>
        <path class="cls-3" d="m142.03,25.93v1.26h-2.74v-13.14h2.74v4.88c.67-.9,1.58-1.57,3.01-1.57,2.25,0,4.39,1.76,4.39,4.99v.04c0,3.22-2.11,4.99-4.39,4.99-1.46,0-2.36-.67-3.01-1.44Zm4.66-3.55v-.04c0-1.6-1.08-2.66-2.36-2.66s-2.34,1.06-2.34,2.66v.04c0,1.6,1.06,2.67,2.34,2.67s2.36-1.04,2.36-2.67Z"/>
        <path class="cls-3" d="m151.49,14.05h2.88v2.43h-2.88v-2.43Zm.07,3.49h2.74v9.65h-2.74v-9.65Z"/>
        <path class="cls-3" d="m156.88,17.54h2.74v1.37c.63-.81,1.44-1.55,2.83-1.55,2.07,0,3.28,1.37,3.28,3.58v6.25h-2.74v-5.38c0-1.3-.61-1.96-1.66-1.96s-1.71.67-1.71,1.96v5.38h-2.74v-9.65Z"/>
      </g>
      <g>
        <path class="cls-3" d="m82.79,44.88h2.97l2.61,8.53,2.83-8.57h2.38l2.83,8.57,2.61-8.53h2.9l-4.3,12.69h-2.41l-2.84-8.25-2.84,8.25h-2.41l-4.3-12.69Z"/>
        <path class="cls-3" d="m103.96,44.88h5.85c1.44,0,2.57.4,3.29,1.12.58.58.86,1.28.86,2.14v.04c0,1.42-.76,2.21-1.66,2.72,1.46.56,2.36,1.4,2.36,3.1v.04c0,2.3-1.87,3.46-4.72,3.46h-6v-12.6Zm7.26,3.73c0-.83-.65-1.3-1.82-1.3h-2.74v2.67h2.56c1.22,0,2-.4,2-1.33v-.04Zm-1.35,3.67h-3.2v2.77h3.29c1.22,0,1.96-.43,1.96-1.37v-.04c0-.85-.63-1.37-2.05-1.37Z"/>
        <path class="cls-3" d="m116.4,51.22v-.04c0-3.58,2.7-6.52,6.57-6.52,2.38,0,3.8.79,4.97,1.95l-1.76,2.03c-.97-.88-1.96-1.42-3.22-1.42-2.12,0-3.66,1.76-3.66,3.92v.04c0,2.16,1.49,3.96,3.66,3.96,1.44,0,2.32-.58,3.31-1.48l1.76,1.78c-1.3,1.39-2.74,2.25-5.17,2.25-3.71,0-6.46-2.86-6.46-6.48Z"/>
        <path class="cls-3" d="m80.32,74.31v-.04c0-2.75,2.11-5.02,5.06-5.02,1.82,0,2.95.61,3.85,1.62l-1.67,1.8c-.61-.65-1.22-1.06-2.2-1.06-1.37,0-2.34,1.21-2.34,2.63v.04c0,1.48.95,2.67,2.45,2.67.92,0,1.55-.4,2.21-1.03l1.6,1.62c-.94,1.03-2.02,1.76-3.94,1.76-2.9,0-5.02-2.23-5.02-4.99Z"/>
        <path class="cls-3" d="m90.32,74.31v-.04c0-2.77,2.23-5.02,5.24-5.02s5.2,2.21,5.2,4.99v.04c0,2.77-2.23,5.02-5.24,5.02s-5.2-2.21-5.2-4.99Zm7.74,0v-.04c0-1.42-1.03-2.67-2.54-2.67s-2.5,1.21-2.5,2.63v.04c0,1.42,1.03,2.67,2.54,2.67s2.5-1.21,2.5-2.63Z"/>
        <path class="cls-3" d="m102.67,75.68v-6.25h2.74v5.38c0,1.3.61,1.96,1.66,1.96s1.71-.67,1.71-1.96v-5.38h2.74v9.65h-2.74v-1.37c-.63.81-1.44,1.55-2.83,1.55-2.07,0-3.28-1.37-3.28-3.58Z"/>
        <path class="cls-3" d="m113.96,69.43h2.74v1.37c.63-.81,1.44-1.55,2.83-1.55,2.07,0,3.28,1.37,3.28,3.58v6.25h-2.74v-5.38c0-1.3-.61-1.96-1.66-1.96s-1.71.67-1.71,1.96v5.38h-2.74v-9.65Z"/>
        <path class="cls-3" d="m125.62,76.35v-4.57h-1.15v-2.34h1.15v-2.47h2.74v2.47h2.27v2.34h-2.27v4.12c0,.63.27.94.88.94.5,0,.96-.13,1.35-.34v2.2c-.58.34-1.24.56-2.16.56-1.67,0-2.81-.67-2.81-2.9Z"/>
      </g>
      <g>
        <path class="cls-3" d="m72.94,95.44h2.56l5.4,12.69h-2.9l-1.15-2.83h-5.33l-1.15,2.83h-2.83l5.4-12.69Zm2.92,7.42l-1.67-4.09-1.67,4.09h3.35Z"/>
        <path class="cls-3" d="m82.67,94.99h2.74v13.14h-2.74v-13.14Z"/>
        <path class="cls-3" d="m90.72,106.87v1.26h-2.74v-13.14h2.74v4.88c.67-.9,1.58-1.57,3.01-1.57,2.25,0,4.39,1.76,4.39,4.99v.04c0,3.22-2.11,4.99-4.39,4.99-1.46,0-2.36-.67-3.01-1.44Zm4.66-3.55v-.04c0-1.6-1.08-2.66-2.36-2.66s-2.34,1.06-2.34,2.66v.04c0,1.6,1.06,2.67,2.34,2.67s2.36-1.04,2.36-2.67Z"/>
        <path class="cls-3" d="m100.06,104.73v-6.25h2.74v5.38c0,1.3.61,1.96,1.66,1.96s1.71-.67,1.71-1.96v-5.38h2.74v9.65h-2.74v-1.37c-.63.81-1.44,1.55-2.83,1.55-2.07,0-3.28-1.37-3.28-3.58Z"/>
        <path class="cls-3" d="m111.35,98.48h2.74v1.37c.63-.81,1.46-1.55,2.85-1.55,1.26,0,2.21.56,2.72,1.53.85-.99,1.85-1.53,3.17-1.53,2.04,0,3.26,1.22,3.26,3.55v6.28h-2.74v-5.38c0-1.3-.58-1.96-1.6-1.96s-1.66.67-1.66,1.96v5.38h-2.74v-5.38c0-1.3-.58-1.96-1.6-1.96s-1.66.67-1.66,1.96v5.38h-2.74v-9.65Z"/>
        <path class="cls-3" d="m128.5,94.99h2.88v2.43h-2.88v-2.43Zm.07,3.49h2.74v9.65h-2.74v-9.65Z"/>
        <path class="cls-3" d="m133.88,98.48h2.74v1.37c.63-.81,1.44-1.55,2.83-1.55,2.07,0,3.28,1.37,3.28,3.58v6.25h-2.74v-5.38c0-1.3-.61-1.96-1.66-1.96s-1.71.67-1.71,1.96v5.38h-2.74v-9.65Z"/>
      </g>
      <g>
        <path class="cls-3" d="m179.74,15.98l-2.38.74-.34-1.15,3.08-1.06h1.04v12.69h-1.4v-11.22Z"/>
        <path class="cls-3" d="m183.83,26.09l4.57-4.03c1.93-1.73,2.63-2.7,2.63-3.96,0-1.48-1.17-2.41-2.54-2.41-1.44,0-2.38.76-3.39,2.16l-1.04-.76c1.13-1.69,2.32-2.68,4.54-2.68s3.91,1.51,3.91,3.57v.04c0,1.84-.97,2.97-3.19,4.9l-3.37,2.99h6.68v1.3h-8.8v-1.1Z"/>
        <path class="cls-3" d="m195.11,25.3h1.66v1.89h-1.66v-1.89Z"/>
        <path class="cls-3" d="m205.93,15.89h-6.93v-1.3h8.55v1.06l-5.73,11.54h-1.58l5.69-11.31Z"/>
        <path class="cls-3" d="m215.35,28.81l.63-1.08c1.06.77,2.25,1.19,3.58,1.19,2.05,0,3.38-1.13,3.38-3.31v-1.1c-.81,1.08-1.94,1.96-3.65,1.96-2.23,0-4.38-1.67-4.38-4.36v-.04c0-2.72,2.16-4.39,4.38-4.39,1.75,0,2.88.86,3.64,1.87v-1.67h1.39v7.69c0,1.44-.43,2.54-1.19,3.29-.83.83-2.07,1.24-3.55,1.24-1.55,0-2.99-.43-4.23-1.3Zm7.63-6.72v-.04c0-1.91-1.66-3.15-3.42-3.15s-3.22,1.22-3.22,3.13v.04c0,1.87,1.49,3.17,3.22,3.17s3.42-1.28,3.42-3.15Z"/>
        <path class="cls-3" d="m233.83,12.83h1.28l-8.35,16.67h-1.28l8.35-16.67Z"/>
        <path class="cls-3" d="m234.75,22.57v-.04c0-3.04,2.21-4.84,4.45-4.84,1.73,0,2.84.94,3.57,1.98v-5.62h1.39v13.14h-1.39v-1.87c-.76,1.12-1.85,2.07-3.57,2.07-2.23,0-4.45-1.76-4.45-4.83Zm8.07-.02v-.04c0-2.14-1.64-3.58-3.37-3.58s-3.28,1.33-3.28,3.58v.04c0,2.2,1.51,3.6,3.28,3.6s3.37-1.46,3.37-3.6Z"/>
        <path class="cls-3" d="m247.48,14.59h1.42v11.29h7.09v1.31h-8.52v-12.6Z"/>
      </g>
      <g>
        <path class="cls-3" d="m171.6,58.03l-2.38.74-.34-1.15,3.08-1.06h1.04v12.69h-1.4v-11.22Z"/>
        <path class="cls-3" d="m175.72,67.22l1.03-.92c.97,1.19,2.14,1.87,3.69,1.87s2.75-.97,2.75-2.45v-.04c0-1.57-1.46-2.43-3.53-2.43h-.81l-.29-.85,3.98-4.48h-6.16v-1.28h8.05v1.04l-3.96,4.39c2.2.18,4.16,1.24,4.16,3.55v.04c0,2.25-1.87,3.8-4.21,3.8-2.11,0-3.67-.92-4.7-2.25Z"/>
        <path class="cls-3" d="m196.42,63.58l2.77-3.64h1.55l-3.53,4.56,3.67,4.75h-1.6l-2.88-3.83-2.9,3.83h-1.55l3.64-4.74-3.49-4.57h1.58l2.74,3.64Z"/>
        <path class="cls-3" d="m210.2,58.03l-2.38.74-.34-1.15,3.08-1.06h1.04v12.69h-1.4v-11.22Z"/>
        <path class="cls-3" d="m214.54,62.99v-.04c0-3.53,2.11-6.52,5.35-6.52s5.29,2.95,5.29,6.48v.04c0,3.53-2.09,6.52-5.33,6.52s-5.31-2.95-5.31-6.48Zm9.17,0v-.04c0-2.75-1.51-5.22-3.85-5.22s-3.83,2.41-3.83,5.19v.04c0,2.75,1.51,5.22,3.87,5.22s3.82-2.43,3.82-5.19Z"/>
        <path class="cls-3" d="m226.82,62.07l.6-.54c.57.69,1.25,1.09,2.15,1.09s1.61-.57,1.61-1.43v-.02c0-.91-.85-1.42-2.06-1.42h-.47l-.17-.49,2.32-2.61h-3.59v-.75h4.69v.61l-2.31,2.56c1.28.11,2.42.72,2.42,2.07v.02c0,1.31-1.09,2.21-2.46,2.21-1.23,0-2.14-.54-2.74-1.31Z"/>
        <path class="cls-3" d="m240.7,54.88h1.28l-8.35,16.67h-1.28l8.35-16.67Z"/>
        <path class="cls-3" d="m253.49,69.27c-.27.07-.54.11-.97.11-1.22,0-1.96-.52-2.2-1.62-.63,1.04-1.62,1.67-2.79,1.67-1.24,0-2.29-.61-2.88-1.82h-.02c.13.97.16,1.5.16,2.29v2.23h-1.37v-12.19h1.39v5.35c0,1.67,1.13,2.93,2.7,2.93s2.72-1.26,2.72-2.93v-5.35h1.37v6.9c0,.92.4,1.35,1.22,1.35.27,0,.49-.04.67-.09v1.17Z"/>
        <path class="cls-3" d="m255.62,56.65h1.42v11.29h7.09v1.31h-8.52v-12.6Z"/>
      </g>
      <g>
        <path class="cls-3" d="m187.78,106.1l1.03-.92c.97,1.19,2.14,1.87,3.69,1.87s2.75-.97,2.75-2.45v-.04c0-1.57-1.46-2.43-3.53-2.43h-.81l-.29-.85,3.98-4.48h-6.16v-1.28h8.05v1.04l-3.96,4.39c2.2.18,4.16,1.24,4.16,3.55v.04c0,2.25-1.87,3.8-4.21,3.8-2.11,0-3.67-.92-4.7-2.25Z"/>
        <path class="cls-3" d="m198.78,106.35l.94-1.03c1.1,1.06,2.3,1.73,3.58,1.73,1.8,0,3.04-1.19,3.04-2.79v-.04c0-1.57-1.3-2.65-3.13-2.65-1.06,0-1.91.32-2.65.72l-.95-.63.36-6.14h7.26v1.31h-6.01l-.27,4.03c.74-.32,1.44-.56,2.49-.56,2.45,0,4.36,1.46,4.36,3.85v.04c0,2.47-1.87,4.14-4.5,4.14-1.8,0-3.37-.86-4.5-2Z"/>
        <path class="cls-3" d="m215.68,109.75l.63-1.08c1.06.77,2.25,1.19,3.58,1.19,2.05,0,3.38-1.13,3.38-3.31v-1.1c-.81,1.08-1.94,1.96-3.65,1.96-2.23,0-4.38-1.67-4.38-4.36v-.04c0-2.72,2.16-4.39,4.38-4.39,1.75,0,2.88.86,3.64,1.87v-1.67h1.39v7.69c0,1.44-.43,2.54-1.19,3.29-.83.83-2.07,1.24-3.55,1.24-1.55,0-2.99-.43-4.23-1.3Zm7.63-6.72v-.04c0-1.91-1.66-3.15-3.42-3.15s-3.22,1.22-3.22,3.13v.04c0,1.87,1.49,3.17,3.22,3.17s3.42-1.28,3.42-3.15Z"/>
        <path class="cls-3" d="m234.17,93.76h1.28l-8.35,16.67h-1.28l8.35-16.67Z"/>
        <path class="cls-3" d="m237.12,95.53h1.42v11.29h7.09v1.31h-8.52v-12.6Z"/>
      </g>
      <rect class="cls-5" x="28.4" y="1" width="272.8" height="117.08" rx="12.33" ry="12.33"/>
      <g>
        <path class="cls-2" d="m56.8,61.4c0-15.69-12.72-28.4-28.4-28.4S0,45.72,0,61.4s12.72,28.4,28.4,28.4,28.4-12.72,28.4-28.4Z"/>
        <g>
          <path class="cls-4" d="m38.32,53.02c-1.66,0-3.2.49-4.5,1.32v-7.18h1.18c.44,0,.8-.36.8-.8v-4.3c0-.44-.36-.8-.8-.8h-15.27c-.44,0-.8.36-.8.8v4.3c0,.44.36.8.8.8h1.18v28.88c0,3.52,2.89,6.38,6.45,6.38s6.45-2.86,6.45-6.38v-7.66c1.3.84,2.84,1.32,4.5,1.32,4.6,0,8.34-3.74,8.34-8.34s-3.74-8.34-8.34-8.34h0Zm-15.79.33h9.68v1.84h-9.68v-1.84Zm-1.99-10.49h13.66v2.69h-13.66v-2.69Zm11.67,4.3v4.58h-9.68v-4.58h9.68Zm0,28.88c0,2.63-2.17,4.77-4.84,4.77s-4.84-2.14-4.84-4.77v-2.45h4.37c.44,0,.8-.36.8-.8v-2.08c0-.44-.36-.8-.8-.8s-.8.36-.8.8v1.28h-3.57v-11.2h3.57v2.65c0,.44.36.8.8.8s.8-.36.8-.8v-3.45c0-.44-.36-.8-.8-.8h-4.37v-2.39h8.81c-.86,1.31-1.37,2.88-1.37,4.57,0,2.19.85,4.18,2.23,5.67v9h0Zm6.11-7.95c-3.71,0-6.73-3.02-6.73-6.73s3.02-6.73,6.73-6.73,6.73,3.02,6.73,6.73-3.02,6.73-6.73,6.73h0Z"/>
          <path class="cls-4" d="m38.89,56.43c-.31-.29-.8-.29-1.11,0-.34.33-3.36,3.26-3.36,5.91,0,2.16,1.75,3.91,3.91,3.91s3.91-1.76,3.91-3.91c0-2.65-3.01-5.59-3.36-5.91h0Zm-.55,8.22c-1.27,0-2.3-1.03-2.3-2.3,0-1.36,1.37-3.15,2.3-4.18.94,1.03,2.3,2.82,2.3,4.18,0,1.27-1.03,2.3-2.3,2.3h0Z"/>
          <path class="cls-4" d="m27.65,66.75c-.13-.32-.46-.52-.8-.49-.33.02-.62.26-.72.58-.09.32.03.68.3.87.27.19.64.2.91.01.32-.21.44-.63.3-.98h0Z"/>
        </g>
      </g>
    </g>
  </g>
</svg>