<?xml version="1.0" encoding="UTF-8"?>
<svg id="ammar_follow-up_entyvio_svg_mobile" data-name="ammar_follow-up_entyvio_svg_mobile" xmlns="http://www.w3.org/2000/svg" xmlns:xlink="http://www.w3.org/1999/xlink" viewBox="0 0 343.02 459.41">
  <defs>
    <style>
      .mobile-cls-1 {
        fill: #e0e1e0;
      }

      .mobile-cls-1, .mobile-cls-2, .mobile-cls-3, .mobile-cls-4, .mobile-cls-5, .mobile-cls-6, .mobile-cls-7, .mobile-cls-8, .mobile-cls-9 {
        stroke-width: 0px;
      }

      .mobile-cls-2 {
        fill: url(#mobile-linear-gradient);
      }

      .mobile-cls-10, .mobile-cls-11 {
        stroke: #9d5b8f;
        stroke-linecap: round;
        stroke-linejoin: round;
        stroke-width: 4px;
      }

      .mobile-cls-10, .mobile-cls-11, .mobile-cls-12 {
        fill: none;
      }

      .mobile-cls-3 {
        fill: #d24230;
      }

      .mobile-cls-4 {
        fill: #fff;
      }

      .mobile-cls-5 {
        fill: url(#mobile-linear-gradient-2);
      }

      .mobile-cls-6 {
        fill: url(#mobile-linear-gradient-3);
      }

      .mobile-cls-7 {
        fill: #231f20;
      }

      .mobile-cls-11 {
        stroke-dasharray: 0 0 0 4.67;
      }

      .mobile-cls-8 {
        fill: #872780;
      }

      .mobile-cls-9 {
        fill: url(#mobile-linear-gradient-4);
      }

      .mobile-cls-12 {
        stroke: #808b86;
        stroke-miterlimit: 10;
        stroke-width: 2px;
      }
    </style>
    <linearGradient id="mobile-linear-gradient" x1="158.86" y1="426.6" x2="158.86" y2="458.77" gradientUnits="userSpaceOnUse">
      <stop offset="0" stop-color="#bebdbd"/>
      <stop offset="1" stop-color="#fff"/>
    </linearGradient>
    <linearGradient id="mobile-linear-gradient-2" x1="158.86" y1="428.09" x2="158.86" y2="457.33" gradientUnits="userSpaceOnUse">
      <stop offset="0" stop-color="#872780"/>
      <stop offset=".2" stop-color="#9b2e69"/>
      <stop offset=".53" stop-color="#b9394a"/>
      <stop offset=".81" stop-color="#cb3f36"/>
      <stop offset="1" stop-color="#d24230"/>
    </linearGradient>
    <linearGradient id="mobile-linear-gradient-3" y1="319.55" y2="351.72" xlink:href="#mobile-linear-gradient"/>
    <linearGradient id="mobile-linear-gradient-4" y1="110.44" y2="142.61" xlink:href="#mobile-linear-gradient"/>
  </defs>
  <g id="ammar_follow-up_entyvio_mobile">
    <g>
      <line id="timeline" class="mobile-cls-12" x1="158.86" y1="429.65" x2="158.86" y2="37.93"/>
      <g id="azathioprine_banner">
        <polygon class="mobile-cls-3" points="47.53 328.87 47.53 121.02 66.42 131.2 85.31 121.02 85.31 328.87 66.42 339.04 47.53 328.87"/>
        <g>
          <path class="mobile-cls-4" d="m61.53,265.05v-.89l8.46-3.83v1.02l-2.22.98v4.57l2.22,1v.97l-8.46-3.83Zm5.38-2.34l-4.28,1.91,4.28,1.92v-3.83Z"/>
          <path class="mobile-cls-4" d="m69.39,259.19l-4.83-4.11v3.97h-.78v-5.23h.59l4.83,4.13v-4.13h.78v5.37h-.59Z"/>
          <path class="mobile-cls-4" d="m68.18,252.63h-.02c-1.31,0-2-1.08-2-2.65,0-.79.11-1.35.26-1.91h-.22c-1.12,0-1.69.68-1.69,1.85,0,.73.19,1.31.46,1.88l-.75.28c-.31-.68-.52-1.36-.52-2.25s.23-1.55.68-2c.42-.42,1.02-.64,1.81-.64h3.79v.89h-.94c.56.43,1.07,1.15,1.07,2.24,0,1.15-.66,2.31-1.93,2.31Zm-.48-4.57h-.6c-.13.46-.26,1.07-.26,1.82,0,1.16.5,1.81,1.28,1.81h.02c.78,0,1.24-.72,1.24-1.56,0-1.14-.7-2.08-1.68-2.08Z"/>
          <path class="mobile-cls-4" d="m68.34,244.95h-3.74v.86h-.82v-.86h-1.87v-.92h1.87v-1.97h.82v1.97h3.62c.75,0,1.03-.42,1.03-1.04,0-.31-.06-.58-.22-.9h.79c.17.32.26.67.26,1.12,0,1-.49,1.75-1.75,1.75Z"/>
          <path class="mobile-cls-4" d="m61.23,240.43v-.92h3.63c-.67-.41-1.21-1.06-1.21-2.12,0-1.5,1.01-2.38,2.48-2.38h3.85v.92h-3.62c-1.15,0-1.87.62-1.87,1.71s.78,1.86,1.94,1.86h3.55v.92h-8.75Z"/>
          <path class="mobile-cls-4" d="m61.41,233.01v-1.06h1.02v1.06h-1.02Zm2.38-.06v-.92h6.2v.92h-6.2Z"/>
          <path class="mobile-cls-4" d="m66.91,230.26h-.02c-1.75,0-3.24-1.37-3.24-3.24s1.46-3.23,3.21-3.23h.02c1.75,0,3.24,1.38,3.24,3.25s-1.46,3.21-3.21,3.21Zm0-5.52h-.02c-1.33,0-2.42,1-2.42,2.3s1.09,2.27,2.4,2.27h.02c1.33,0,2.41-.98,2.41-2.29s-1.08-2.28-2.39-2.28Z"/>
          <path class="mobile-cls-4" d="m63.78,222.13v-.92h1.25c-.74-.5-1.38-1.24-1.38-2.37,0-1.49,1.17-2.96,3.21-2.96h.02c2.03,0,3.23,1.46,3.23,2.96,0,1.15-.62,1.9-1.32,2.37h3.11v.92h-8.12Zm3.12-5.31h-.02c-1.46,0-2.4,1.01-2.4,2.18s.97,2.24,2.39,2.24h.02c1.44,0,2.4-1.09,2.4-2.24s-.89-2.18-2.39-2.18Z"/>
          <path class="mobile-cls-4" d="m63.78,214.16v-.92h1.62c-1.03-.46-1.78-1.35-1.73-2.53h1v.07c0,1.36.97,2.46,2.84,2.46h2.47v.92h-6.2Z"/>
          <path class="mobile-cls-4" d="m61.41,209.28v-1.06h1.02v1.06h-1.02Zm2.38-.06v-.92h6.2v.92h-6.2Z"/>
          <path class="mobile-cls-4" d="m63.78,206.14v-.92h1.08c-.67-.41-1.21-1.06-1.21-2.12,0-1.5,1.01-2.38,2.48-2.38h3.85v.92h-3.62c-1.15,0-1.87.62-1.87,1.71s.78,1.86,1.94,1.86h3.55v.92h-6.2Z"/>
          <path class="mobile-cls-4" d="m66.9,199.14h-.02c-1.79,0-3.23-1.26-3.23-2.97,0-1.83,1.46-2.89,3.27-2.89.12,0,.19,0,.3.01v4.92c1.34-.13,2.1-1.08,2.1-2.18,0-.85-.35-1.45-.88-1.95l.52-.58c.7.62,1.16,1.38,1.16,2.55,0,1.7-1.31,3.09-3.23,3.09Zm-.36-4.93c-1.13.1-2.11.74-2.11,1.98,0,1.08.9,1.9,2.11,2.02v-3.99Z"/>
        </g>
      </g>
      <g id="budesonide_banner">
        <polygon class="mobile-cls-3" points="0 326.89 0 235 18.89 245.18 37.78 235 37.78 326.89 18.89 337.06 0 326.89"/>
        <g>
          <path class="mobile-cls-4" d="m7.13,322.22v-3.57c0-.96.28-1.72.74-2.19.36-.35.8-.54,1.34-.54h.02c1.09,0,1.65.67,1.94,1.33.3-1,.88-1.8,2.03-1.8h.02c1.44,0,2.29,1.21,2.29,3.05v3.73H7.13Zm2.22-5.35c-.83,0-1.37.66-1.37,1.86v2.55h2.89v-2.48c0-1.14-.52-1.93-1.5-1.93h-.02Zm2.36,1.76v2.65h2.96v-2.82c0-1.27-.56-2.06-1.5-2.06h-.02c-.91,0-1.44.77-1.44,2.23Z"/>
          <path class="mobile-cls-4" d="m13.17,313.81h-3.85v-.92h3.62c1.15,0,1.87-.62,1.87-1.72s-.78-1.86-1.94-1.86h-3.55v-.91h6.2v.91h-1.08c.67.42,1.21,1.06,1.21,2.12,0,1.5-1.01,2.37-2.48,2.37Z"/>
          <path class="mobile-cls-4" d="m12.44,306.68h-.02c-2.03,0-3.23-1.48-3.23-2.96,0-1.15.62-1.9,1.32-2.38h-3.74v-.92h8.75v.92h-1.25c.74.5,1.38,1.24,1.38,2.38,0,1.49-1.17,2.96-3.21,2.96Zm-.01-5.37h-.02c-1.43,0-2.39,1.09-2.39,2.24s.89,2.18,2.39,2.18h.02c1.46,0,2.4-1.01,2.4-2.18s-.97-2.24-2.4-2.24Z"/>
          <path class="mobile-cls-4" d="m12.44,298.74h-.02c-1.79,0-3.23-1.26-3.23-2.97,0-1.83,1.46-2.89,3.27-2.89.12,0,.19,0,.3.01v4.92c1.34-.13,2.1-1.08,2.1-2.18,0-.85-.35-1.45-.88-1.95l.52-.58c.7.62,1.16,1.38,1.16,2.55,0,1.7-1.31,3.09-3.23,3.09Zm-.36-4.93c-1.13.1-2.11.74-2.11,1.98,0,1.08.9,1.9,2.11,2.02v-3.99Z"/>
          <path class="mobile-cls-4" d="m14.73,291.77l-.66-.47c.5-.67.79-1.42.79-2.15s-.38-1.28-.98-1.28h-.02c-.62,0-.86.73-1.09,1.55-.28.97-.61,2.05-1.75,2.05h-.02c-1.07,0-1.78-.89-1.78-2.11,0-.76.26-1.6.68-2.23l.7.42c-.37.58-.6,1.24-.6,1.83,0,.73.38,1.2.9,1.2h.02c.59,0,.82-.77,1.07-1.6.29-.96.66-1.99,1.78-1.99h.02c1.18,0,1.86.97,1.86,2.21,0,.89-.35,1.87-.91,2.57Z"/>
          <path class="mobile-cls-4" d="m12.45,285.66h-.02c-1.75,0-3.24-1.37-3.24-3.24s1.46-3.23,3.21-3.23h.02c1.75,0,3.24,1.38,3.24,3.25s-1.46,3.21-3.21,3.21Zm0-5.52h-.02c-1.33,0-2.42,1-2.42,2.3s1.09,2.27,2.4,2.27h.02c1.33,0,2.41-.98,2.41-2.29s-1.08-2.28-2.39-2.28Z"/>
          <path class="mobile-cls-4" d="m9.32,277.52v-.92h1.08c-.67-.41-1.21-1.06-1.21-2.12,0-1.5,1.01-2.38,2.48-2.38h3.85v.92h-3.62c-1.15,0-1.87.62-1.87,1.71s.78,1.86,1.94,1.86h3.55v.92h-6.2Z"/>
          <path class="mobile-cls-4" d="m6.95,270.11v-1.06h1.02v1.06h-1.02Zm2.38-.06v-.92h6.2v.92h-6.2Z"/>
          <path class="mobile-cls-4" d="m12.44,267.33h-.02c-2.03,0-3.23-1.48-3.23-2.96,0-1.15.62-1.9,1.32-2.38h-3.74v-.92h8.75v.92h-1.25c.74.5,1.38,1.24,1.38,2.38,0,1.49-1.17,2.96-3.21,2.96Zm-.01-5.37h-.02c-1.43,0-2.39,1.09-2.39,2.24s.89,2.18,2.39,2.18h.02c1.46,0,2.4-1.01,2.4-2.18s-.97-2.24-2.4-2.24Z"/>
          <path class="mobile-cls-4" d="m12.44,259.39h-.02c-1.79,0-3.23-1.26-3.23-2.97,0-1.83,1.46-2.89,3.27-2.89.12,0,.19,0,.3.01v4.92c1.34-.13,2.1-1.08,2.1-2.18,0-.85-.35-1.45-.88-1.95l.52-.58c.7.62,1.16,1.38,1.16,2.55,0,1.7-1.31,3.09-3.23,3.09Zm-.36-4.93c-1.13.1-2.11.74-2.11,1.98,0,1.08.9,1.9,2.11,2.02v-3.99Z"/>
          <path class="mobile-cls-4" d="m25.88,321.62v.85h-.8v-.85h-.54c-.71,0-1.25-.19-1.59-.54-.31-.31-.48-.77-.48-1.33,0-.43.05-.72.16-1.02h.8c-.1.34-.16.59-.16.9,0,.72.43,1.08,1.32,1.08h.5v-1.97h.79v1.96h5.38v.92h-5.38Z"/>
          <path class="mobile-cls-4" d="m28.19,318.06h-.02c-1.75,0-3.24-1.37-3.24-3.24s1.46-3.23,3.21-3.23h.02c1.75,0,3.24,1.38,3.24,3.25s-1.46,3.21-3.21,3.21Zm0-5.52h-.02c-1.33,0-2.42,1-2.42,2.3s1.09,2.27,2.4,2.27h.02c1.33,0,2.41-.98,2.41-2.29s-1.08-2.28-2.39-2.28Z"/>
          <path class="mobile-cls-4" d="m25.06,309.93v-.92h1.62c-1.03-.46-1.78-1.35-1.73-2.53h1v.07c0,1.36.97,2.46,2.84,2.46h2.47v.92h-6.2Z"/>
          <path class="mobile-cls-4" d="m23.79,300.35l.49,1.58-.77.23-.71-2.05v-.7h8.46v.94h-7.47Z"/>
          <path class="mobile-cls-4" d="m23.79,296.06l.49,1.58-.77.23-.71-2.05v-.7h8.46v.94h-7.47Z"/>
          <path class="mobile-cls-4" d="m25.06,289.8v-.98l4.98-1.63-5-1.67v-.77l5-1.68-4.98-1.63v-.96l6.25,2.18v.8l-4.89,1.67,4.89,1.68v.82l-6.25,2.17Z"/>
          <path class="mobile-cls-4" d="m28.18,279.63h-.02c-1.79,0-3.23-1.26-3.23-2.97,0-1.83,1.46-2.89,3.27-2.89.12,0,.19,0,.3.01v4.92c1.34-.13,2.1-1.08,2.1-2.18,0-.85-.35-1.45-.88-1.95l.52-.58c.7.62,1.16,1.38,1.16,2.55,0,1.7-1.31,3.09-3.23,3.09Zm-.36-4.93c-1.13.1-2.11.74-2.11,1.98,0,1.08.9,1.9,2.11,2.02v-3.99Z"/>
          <path class="mobile-cls-4" d="m28.18,272.52h-.02c-1.79,0-3.23-1.26-3.23-2.97,0-1.83,1.46-2.89,3.27-2.89.12,0,.19,0,.3.01v4.92c1.34-.13,2.1-1.08,2.1-2.18,0-.85-.35-1.45-.88-1.95l.52-.58c.7.62,1.16,1.38,1.16,2.55,0,1.7-1.31,3.09-3.23,3.09Zm-.36-4.93c-1.13.1-2.11.74-2.11,1.98,0,1.08.9,1.9,2.11,2.02v-3.99Z"/>
          <path class="mobile-cls-4" d="m22.51,265.04v-.92h6.04l-3.49-3.35v-1.15l2.66,2.6,3.54-2.69v1.1l-2.89,2.22,1.27,1.26h1.62v.92h-8.75Z"/>
          <path class="mobile-cls-4" d="m30.47,258.81l-.66-.47c.5-.67.79-1.42.79-2.15s-.38-1.28-.98-1.28h-.02c-.62,0-.86.73-1.09,1.55-.28.97-.61,2.05-1.75,2.05h-.02c-1.07,0-1.78-.89-1.78-2.11,0-.76.26-1.6.68-2.23l.7.42c-.37.58-.6,1.24-.6,1.83,0,.73.38,1.2.9,1.2h.02c.59,0,.82-.77,1.07-1.6.29-.96.66-1.99,1.78-1.99h.02c1.18,0,1.86.97,1.86,2.21,0,.89-.35,1.87-.91,2.57Z"/>
        </g>
      </g>
      <g id="entyvio_banner">
        <polygon class="mobile-cls-8" points="0 435.48 0 338.51 18.89 348.68 37.78 338.51 37.78 435.48 18.89 445.65 0 435.48"/>
        <g>
          <path class="mobile-cls-4" d="m4.13,415.15v-6.07h.86v5.12h2.87v-4.58h.86v4.58h2.94v-5.18h.86v6.13H4.13Z"/>
          <path class="mobile-cls-4" d="m6.32,407.26v-.92h1.08c-.67-.41-1.21-1.06-1.21-2.12,0-1.5,1.01-2.38,2.48-2.38h3.85v.92h-3.62c-1.15,0-1.87.62-1.87,1.71s.78,1.86,1.94,1.86h3.55v.92h-6.2Z"/>
          <path class="mobile-cls-4" d="m10.88,399.55h-3.74v.86h-.82v-.86h-1.87v-.92h1.87v-1.97h.82v1.97h3.62c.75,0,1.03-.42,1.03-1.04,0-.31-.06-.58-.22-.9h.79c.17.32.26.67.26,1.12,0,1-.49,1.75-1.75,1.75Z"/>
          <path class="mobile-cls-4" d="m6.32,390.38v-.98l6.4,2.6c1.28.53,1.75,1.13,1.75,2.06,0,.52-.11.9-.31,1.32l-.73-.31c.16-.3.23-.58.23-.97,0-.55-.29-.9-1.16-1.27l-6.18,2.82v-1.02l5.17-2.25-5.17-1.99Z"/>
          <path class="mobile-cls-4" d="m6.32,388.72v-1.02l5.14-2.09-5.14-2.1v-1l6.25,2.7v.82l-6.25,2.69Z"/>
          <path class="mobile-cls-4" d="m3.95,381.04v-1.06h1.02v1.06h-1.02Zm2.38-.06v-.92h6.2v.92h-6.2Z"/>
          <path class="mobile-cls-4" d="m9.45,378.3h-.02c-1.75,0-3.24-1.37-3.24-3.24s1.46-3.23,3.21-3.23h.02c1.75,0,3.24,1.38,3.24,3.25s-1.46,3.21-3.21,3.21Zm0-5.52h-.02c-1.33,0-2.42,1-2.42,2.3s1.09,2.27,2.4,2.27h.02c1.33,0,2.41-.98,2.41-2.29s-1.08-2.28-2.39-2.28Z"/>
          <path class="mobile-cls-4" d="m20.08,436.06c-2.21,0-3.93-1.19-5.13-3.32l.61-.4c1.16,1.82,2.6,2.78,4.52,2.78s3.36-.96,4.52-2.78l.61.4c-1.2,2.13-2.93,3.32-5.13,3.32Z"/>
          <path class="mobile-cls-4" d="m17.32,431.25v-1.02l5.14-2.09-5.14-2.1v-1l6.25,2.7v.82l-6.25,2.69Z"/>
          <path class="mobile-cls-4" d="m20.44,424.34h-.02c-1.79,0-3.23-1.26-3.23-2.97,0-1.83,1.46-2.89,3.27-2.89.12,0,.19,0,.3.01v4.92c1.34-.13,2.1-1.08,2.1-2.18,0-.85-.35-1.45-.88-1.95l.52-.58c.7.62,1.16,1.38,1.16,2.55,0,1.7-1.31,3.09-3.23,3.09Zm-.36-4.93c-1.13.1-2.11.74-2.11,1.98,0,1.08.9,1.9,2.11,2.02v-3.99Z"/>
          <path class="mobile-cls-4" d="m20.44,417.21h-.02c-2.03,0-3.23-1.48-3.23-2.96,0-1.15.62-1.9,1.32-2.38h-3.74v-.92h8.75v.92h-1.25c.74.5,1.38,1.24,1.38,2.38,0,1.49-1.17,2.96-3.21,2.96Zm-.01-5.37h-.02c-1.43,0-2.39,1.09-2.39,2.24s.89,2.18,2.39,2.18h.02c1.46,0,2.4-1.01,2.4-2.18s-.97-2.24-2.4-2.24Z"/>
          <path class="mobile-cls-4" d="m20.45,409.27h-.02c-1.75,0-3.24-1.37-3.24-3.24s1.46-3.23,3.21-3.23h.02c1.75,0,3.24,1.38,3.24,3.25s-1.46,3.21-3.21,3.21Zm0-5.52h-.02c-1.33,0-2.42,1-2.42,2.3s1.09,2.27,2.4,2.27h.02c1.33,0,2.41-.98,2.41-2.29s-1.08-2.28-2.39-2.28Z"/>
          <path class="mobile-cls-4" d="m14.77,401.05v-.92h8.75v.92h-8.75Z"/>
          <path class="mobile-cls-4" d="m14.95,397.95v-1.06h1.02v1.06h-1.02Zm2.38-.06v-.92h6.2v.92h-6.2Z"/>
          <path class="mobile-cls-4" d="m22.94,395.18l-4.83-4.11v3.97h-.78v-5.23h.59l4.83,4.13v-4.13h.78v5.37h-.59Z"/>
          <path class="mobile-cls-4" d="m21.17,388.24h-3.85v-.92h3.62c1.15,0,1.87-.62,1.87-1.72s-.78-1.86-1.94-1.86h-3.55v-.91h6.2v.91h-1.08c.67.42,1.21,1.06,1.21,2.12,0,1.5-1.01,2.37-2.48,2.37Z"/>
          <path class="mobile-cls-4" d="m17.32,380.76v-.92h1.04c-.61-.41-1.17-.96-1.17-2s.54-1.65,1.23-1.99c-.68-.44-1.23-1.1-1.23-2.18,0-1.43.96-2.3,2.49-2.3h3.84v.92h-3.62c-1.2,0-1.87.6-1.87,1.61,0,.94.7,1.72,1.92,1.72h3.57v.91h-3.65c-1.16,0-1.85.61-1.85,1.59s.82,1.73,1.96,1.73h3.54v.92h-6.2Z"/>
          <path class="mobile-cls-4" d="m21.73,369.85h-.02c-1.31,0-2-1.08-2-2.65,0-.79.11-1.35.26-1.91h-.22c-1.12,0-1.69.68-1.69,1.85,0,.73.19,1.31.46,1.88l-.75.28c-.31-.68-.52-1.36-.52-2.25s.23-1.55.68-2c.42-.42,1.02-.64,1.81-.64h3.79v.89h-.94c.56.43,1.07,1.15,1.07,2.24,0,1.15-.66,2.31-1.93,2.31Zm-.48-4.57h-.6c-.13.46-.26,1.07-.26,1.82,0,1.16.5,1.81,1.28,1.81h.02c.78,0,1.24-.72,1.24-1.56,0-1.14-.7-2.08-1.68-2.08Z"/>
          <path class="mobile-cls-4" d="m22.34,361.51h1.19v.92h-8.75v-.92h3.8c-.74-.5-1.38-1.24-1.38-2.37,0-1.49,1.17-2.96,3.21-2.96h.02c2.03,0,3.23,1.46,3.23,2.96,0,1.15-.62,1.9-1.32,2.37Zm-1.89-4.39h-.02c-1.46,0-2.4,1.01-2.4,2.18s.97,2.24,2.39,2.24h.02c1.44,0,2.4-1.09,2.4-2.24s-.89-2.18-2.39-2.18Z"/>
          <path class="mobile-cls-4" d="m24.6,355.18c-1.16-1.82-2.6-2.78-4.52-2.78s-3.36.96-4.52,2.78l-.61-.4c1.2-2.13,2.93-3.32,5.13-3.32s3.93,1.19,5.13,3.32l-.61.4Z"/>
          <path class="mobile-cls-4" d="m32.88,421.91h-3.74v.86h-.82v-.86h-1.87v-.92h1.87v-1.97h.82v1.97h3.62c.75,0,1.03-.42,1.03-1.04,0-.31-.06-.58-.22-.9h.79c.17.32.26.67.26,1.12,0,1-.49,1.75-1.75,1.75Z"/>
          <path class="mobile-cls-4" d="m28.32,417.39v-.92h1.62c-1.03-.46-1.78-1.35-1.73-2.53h1v.07c0,1.36.97,2.46,2.84,2.46h2.47v.92h-6.2Z"/>
          <path class="mobile-cls-4" d="m31.44,413.17h-.02c-1.79,0-3.23-1.26-3.23-2.97,0-1.83,1.46-2.89,3.27-2.89.12,0,.19,0,.3.01v4.92c1.34-.13,2.1-1.08,2.1-2.18,0-.85-.35-1.45-.88-1.95l.52-.58c.7.62,1.16,1.38,1.16,2.55,0,1.7-1.31,3.09-3.23,3.09Zm-.36-4.93c-1.13.1-2.11.74-2.11,1.98,0,1.08.9,1.9,2.11,2.02v-3.99Z"/>
          <path class="mobile-cls-4" d="m32.73,406.15h-.02c-1.31,0-2-1.08-2-2.65,0-.79.11-1.35.26-1.91h-.22c-1.12,0-1.69.68-1.69,1.85,0,.73.19,1.31.46,1.88l-.75.28c-.31-.68-.52-1.36-.52-2.25s.23-1.55.68-2c.42-.42,1.02-.64,1.81-.64h3.79v.89h-.94c.56.43,1.07,1.15,1.07,2.24,0,1.15-.66,2.31-1.93,2.31Zm-.48-4.57h-.6c-.13.46-.26,1.07-.26,1.82,0,1.16.5,1.81,1.28,1.81h.02c.78,0,1.24-.72,1.24-1.56,0-1.14-.7-2.08-1.68-2.08Z"/>
          <path class="mobile-cls-4" d="m32.88,398.47h-3.74v.86h-.82v-.86h-1.87v-.92h1.87v-1.97h.82v1.97h3.62c.75,0,1.03-.42,1.03-1.04,0-.31-.06-.58-.22-.9h.79c.17.32.26.67.26,1.12,0,1-.49,1.75-1.75,1.75Z"/>
          <path class="mobile-cls-4" d="m28.32,393.95v-.92h1.04c-.61-.41-1.17-.96-1.17-2s.54-1.65,1.23-1.99c-.68-.44-1.23-1.1-1.23-2.18,0-1.43.96-2.3,2.49-2.3h3.84v.92h-3.62c-1.2,0-1.87.6-1.87,1.61,0,.94.7,1.72,1.92,1.72h3.57v.91h-3.65c-1.16,0-1.85.61-1.85,1.6s.82,1.73,1.96,1.73h3.54v.92h-6.2Z"/>
          <path class="mobile-cls-4" d="m31.44,382.96h-.02c-1.79,0-3.23-1.26-3.23-2.97,0-1.83,1.46-2.89,3.27-2.89.12,0,.19,0,.3.01v4.92c1.34-.13,2.1-1.08,2.1-2.18,0-.85-.35-1.45-.88-1.95l.52-.58c.7.62,1.16,1.38,1.16,2.55,0,1.7-1.31,3.09-3.23,3.09Zm-.36-4.93c-1.13.1-2.11.74-2.11,1.98,0,1.08.9,1.9,2.11,2.02v-3.99Z"/>
          <path class="mobile-cls-4" d="m28.32,375.47v-.92h1.08c-.67-.41-1.21-1.06-1.21-2.12,0-1.5,1.01-2.38,2.48-2.38h3.85v.92h-3.62c-1.15,0-1.87.62-1.87,1.71s.78,1.86,1.94,1.86h3.55v.92h-6.2Z"/>
          <path class="mobile-cls-4" d="m32.88,367.75h-3.74v.86h-.82v-.86h-1.87v-.92h1.87v-1.97h.82v1.97h3.62c.75,0,1.03-.42,1.03-1.04,0-.31-.06-.58-.22-.9h.79c.17.32.26.67.26,1.12,0,1-.49,1.75-1.75,1.75Z"/>
        </g>
      </g>
      <g id="july_2023_capsule" class="timeline--btn" data-name="july_2023">
        <rect class="mobile-cls-2" x="106.36" y="426.41" width="105" height="33" rx="16.5" ry="16.5"/>
        <rect class="mobile-cls-5 tooltip-mobile" title="Click here" x="107.86" y="427.91" width="102" height="30" rx="15" ry="15"/>
        <g>
          <path class="mobile-cls-4" d="m129.17,446.23l1.16-1.3c.48.53.95.84,1.54.84.7,0,1.13-.42,1.13-1.39v-5.41h1.89v5.49c0,1-.29,1.74-.79,2.24-.52.52-1.27.78-2.18.78-1.31,0-2.17-.58-2.75-1.26Z"/>
          <path class="mobile-cls-4" d="m136.54,445.1v-4.16h1.82v3.59c0,.86.41,1.31,1.1,1.31s1.14-.44,1.14-1.31v-3.59h1.82v6.43h-1.82v-.91c-.42.54-.96,1.03-1.88,1.03-1.38,0-2.18-.91-2.18-2.39Z"/>
          <path class="mobile-cls-4" d="m144.15,438.61h1.82v8.76h-1.82v-8.76Z"/>
          <path class="mobile-cls-4" d="m151.91,440.94h1.9l-2.47,6.58c-.49,1.31-1.02,1.8-2.11,1.8-.66,0-1.15-.17-1.62-.44l.61-1.32c.24.14.54.25.78.25.31,0,.48-.1.64-.42l-2.52-6.45h1.93l1.46,4.38,1.4-4.38Z"/>
          <path class="mobile-cls-4" d="m158.26,445.9l2.79-2.29c1.04-.86,1.45-1.32,1.45-2.02s-.47-1.09-1.13-1.09-1.09.36-1.71,1.13l-1.3-1.04c.83-1.13,1.63-1.74,3.13-1.74,1.74,0,2.89,1.02,2.89,2.59v.02c0,1.4-.72,2.1-2.21,3.25l-1.37,1.06h3.66v1.6h-6.21v-1.46Z"/>
          <path class="mobile-cls-4" d="m165.8,443.19v-.02c0-2.43,1.51-4.34,3.74-4.34s3.72,1.88,3.72,4.32v.02c0,2.43-1.5,4.34-3.74,4.34s-3.72-1.88-3.72-4.32Zm5.57,0v-.02c0-1.52-.74-2.67-1.85-2.67s-1.82,1.12-1.82,2.65v.02c0,1.54.73,2.67,1.85,2.67s1.82-1.13,1.82-2.65Z"/>
          <path class="mobile-cls-4" d="m174.38,445.9l2.79-2.29c1.04-.86,1.45-1.32,1.45-2.02s-.47-1.09-1.13-1.09-1.09.36-1.71,1.13l-1.3-1.04c.83-1.13,1.63-1.74,3.13-1.74,1.74,0,2.89,1.02,2.89,2.59v.02c0,1.4-.72,2.1-2.21,3.25l-1.37,1.06h3.66v1.6h-6.21v-1.46Z"/>
          <path class="mobile-cls-4" d="m181.72,446.06l1.27-1.21c.58.65,1.17,1.01,2.03,1.01.7,0,1.19-.4,1.19-1.02v-.02c0-.68-.61-1.07-1.64-1.07h-.77l-.29-1.18,2-2.02h-3.3v-1.58h5.67v1.39l-2.12,2.03c1.14.19,2.25.79,2.25,2.35v.02c0,1.58-1.15,2.75-3.02,2.75-1.51,0-2.55-.6-3.27-1.45Z"/>
        </g>
      </g>
      <g id="october_2022_capsule">
        <rect class="mobile-cls-6" x="106.36" y="319.35" width="105" height="33" rx="16.5" ry="16.5"/>
        <rect class="mobile-cls-1" x="107.86" y="320.85" width="102" height="30" rx="15" ry="15"/>
        <g>
          <path class="mobile-cls-8" d="m117.02,336.14v-.02c0-2.39,1.88-4.34,4.47-4.34s4.45,1.93,4.45,4.32v.02c0,2.39-1.88,4.34-4.47,4.34s-4.45-1.93-4.45-4.32Zm6.99,0v-.02c0-1.44-1.06-2.64-2.54-2.64s-2.52,1.18-2.52,2.61v.02c0,1.44,1.06,2.64,2.54,2.64s2.52-1.18,2.52-2.61Z"/>
          <path class="mobile-cls-8" d="m127.09,337.14v-.02c0-1.83,1.4-3.35,3.37-3.35,1.21,0,1.97.41,2.57,1.08l-1.12,1.2c-.41-.43-.82-.71-1.46-.71-.91,0-1.56.8-1.56,1.75v.02c0,.98.64,1.77,1.63,1.77.61,0,1.03-.26,1.48-.68l1.07,1.08c-.62.68-1.34,1.18-2.63,1.18-1.93,0-3.35-1.49-3.35-3.32Z"/>
          <path class="mobile-cls-8" d="m134.55,338.49v-3.05h-.77v-1.56h.77v-1.64h1.82v1.64h1.51v1.56h-1.51v2.75c0,.42.18.62.59.62.34,0,.64-.08.9-.23v1.46c-.38.23-.83.37-1.44.37-1.12,0-1.87-.44-1.87-1.93Z"/>
          <path class="mobile-cls-8" d="m138.74,337.14v-.02c0-1.85,1.49-3.35,3.49-3.35s3.47,1.48,3.47,3.32v.02c0,1.85-1.49,3.35-3.49,3.35s-3.47-1.48-3.47-3.32Zm5.16,0v-.02c0-.95-.68-1.77-1.69-1.77s-1.67.8-1.67,1.75v.02c0,.95.68,1.77,1.69,1.77s1.67-.8,1.67-1.75Z"/>
          <path class="mobile-cls-8" d="m148.84,339.48v.84h-1.82v-8.76h1.82v3.25c.44-.6,1.06-1.04,2-1.04,1.5,0,2.93,1.18,2.93,3.32v.02c0,2.15-1.4,3.32-2.93,3.32-.97,0-1.57-.44-2-.96Zm3.11-2.36v-.02c0-1.07-.72-1.78-1.57-1.78s-1.56.71-1.56,1.78v.02c0,1.07.71,1.77,1.56,1.77s1.57-.7,1.57-1.77Z"/>
          <path class="mobile-cls-8" d="m154.81,337.14v-.02c0-1.83,1.31-3.35,3.18-3.35,2.15,0,3.13,1.67,3.13,3.49,0,.14-.01.31-.02.48h-4.47c.18.83.76,1.26,1.57,1.26.61,0,1.06-.19,1.56-.66l1.04.92c-.6.74-1.46,1.2-2.63,1.2-1.93,0-3.36-1.36-3.36-3.32Zm4.53-.54c-.11-.82-.59-1.37-1.36-1.37s-1.25.54-1.39,1.37h2.75Z"/>
          <path class="mobile-cls-8" d="m162.47,333.89h1.82v1.3c.37-.89.97-1.46,2.05-1.42v1.91h-.1c-1.21,0-1.96.73-1.96,2.27v2.37h-1.82v-6.43Z"/>
          <path class="mobile-cls-8" d="m170.86,338.85l2.79-2.29c1.04-.86,1.45-1.32,1.45-2.02s-.47-1.09-1.13-1.09-1.09.36-1.71,1.13l-1.3-1.04c.83-1.13,1.63-1.74,3.13-1.74,1.74,0,2.89,1.02,2.89,2.59v.02c0,1.4-.72,2.1-2.21,3.25l-1.37,1.06h3.66v1.6h-6.21v-1.46Z"/>
          <path class="mobile-cls-8" d="m178.4,336.14v-.02c0-2.43,1.51-4.34,3.74-4.34s3.72,1.88,3.72,4.32v.02c0,2.43-1.5,4.34-3.74,4.34s-3.72-1.88-3.72-4.32Zm5.57,0v-.02c0-1.52-.74-2.67-1.85-2.67s-1.82,1.12-1.82,2.65v.02c0,1.54.73,2.67,1.85,2.67s1.82-1.13,1.82-2.65Z"/>
          <path class="mobile-cls-8" d="m186.98,338.85l2.79-2.29c1.04-.86,1.45-1.32,1.45-2.02s-.47-1.09-1.13-1.09-1.09.36-1.71,1.13l-1.3-1.04c.83-1.13,1.63-1.74,3.13-1.74,1.74,0,2.89,1.02,2.89,2.59v.02c0,1.4-.72,2.1-2.21,3.25l-1.37,1.06h3.66v1.6h-6.21v-1.46Z"/>
          <path class="mobile-cls-8" d="m194.45,338.85l2.79-2.29c1.04-.86,1.45-1.32,1.45-2.02s-.47-1.09-1.13-1.09-1.09.36-1.71,1.13l-1.3-1.04c.83-1.13,1.63-1.74,3.13-1.74,1.74,0,2.89,1.02,2.89,2.59v.02c0,1.4-.72,2.1-2.21,3.25l-1.37,1.06h3.66v1.6h-6.21v-1.46Z"/>
        </g>
      </g>
      <g id="march_2022_capsule">
        <rect class="mobile-cls-9" x="106.36" y="110.24" width="105" height="33" rx="16.5" ry="16.5"/>
        <rect class="mobile-cls-1" x="107.86" y="111.74" width="102" height="30" rx="15" ry="15"/>
        <g>
          <path class="mobile-cls-8" d="m124.19,122.8h1.99l2.21,3.55,2.21-3.55h1.99v8.4h-1.83v-5.48l-2.36,3.59h-.05l-2.34-3.55v5.44h-1.81v-8.4Z"/>
          <path class="mobile-cls-8" d="m134.03,129.35v-.02c0-1.4,1.07-2.05,2.59-2.05.65,0,1.12.11,1.57.26v-.11c0-.76-.47-1.18-1.38-1.18-.7,0-1.19.13-1.77.35l-.46-1.39c.71-.31,1.4-.52,2.5-.52,1,0,1.71.26,2.17.72.48.48.7,1.19.7,2.05v3.73h-1.76v-.7c-.44.49-1.05.82-1.94.82-1.21,0-2.21-.7-2.21-1.97Zm4.19-.42v-.32c-.31-.14-.72-.24-1.16-.24-.78,0-1.26.31-1.26.89v.02c0,.49.41.78,1,.78.85,0,1.43-.47,1.43-1.13Z"/>
          <path class="mobile-cls-8" d="m141.52,124.77h1.82v1.3c.37-.89.97-1.46,2.05-1.42v1.91h-.1c-1.21,0-1.96.73-1.96,2.27v2.37h-1.82v-6.43Z"/>
          <path class="mobile-cls-8" d="m146.05,128.02v-.02c0-1.83,1.4-3.35,3.37-3.35,1.21,0,1.97.41,2.57,1.08l-1.12,1.2c-.41-.43-.82-.71-1.46-.71-.91,0-1.56.8-1.56,1.75v.02c0,.98.64,1.77,1.63,1.77.61,0,1.03-.26,1.48-.68l1.07,1.08c-.62.68-1.34,1.18-2.63,1.18-1.93,0-3.35-1.49-3.35-3.32Z"/>
          <path class="mobile-cls-8" d="m153.21,122.44h1.82v3.24c.42-.54.96-1.03,1.88-1.03,1.38,0,2.18.91,2.18,2.39v4.16h-1.82v-3.59c0-.86-.41-1.31-1.1-1.31s-1.14.44-1.14,1.31v3.59h-1.82v-8.76Z"/>
          <path class="mobile-cls-8" d="m164.06,129.73l2.79-2.29c1.04-.86,1.45-1.32,1.45-2.02s-.47-1.09-1.13-1.09-1.09.36-1.71,1.13l-1.3-1.04c.83-1.13,1.63-1.74,3.13-1.74,1.74,0,2.89,1.02,2.89,2.59v.02c0,1.4-.72,2.1-2.21,3.25l-1.37,1.06h3.66v1.6h-6.21v-1.46Z"/>
          <path class="mobile-cls-8" d="m171.59,127.02v-.02c0-2.43,1.51-4.34,3.74-4.34s3.72,1.88,3.72,4.32v.02c0,2.43-1.5,4.34-3.74,4.34s-3.72-1.88-3.72-4.32Zm5.57,0v-.02c0-1.52-.74-2.67-1.85-2.67s-1.82,1.12-1.82,2.65v.02c0,1.54.73,2.67,1.85,2.67s1.82-1.13,1.82-2.65Z"/>
          <path class="mobile-cls-8" d="m180.17,129.73l2.79-2.29c1.04-.86,1.45-1.32,1.45-2.02s-.47-1.09-1.13-1.09-1.09.36-1.71,1.13l-1.3-1.04c.83-1.13,1.63-1.74,3.13-1.74,1.74,0,2.89,1.02,2.89,2.59v.02c0,1.4-.72,2.1-2.21,3.25l-1.37,1.06h3.66v1.6h-6.21v-1.46Z"/>
          <path class="mobile-cls-8" d="m187.65,129.73l2.79-2.29c1.04-.86,1.45-1.32,1.45-2.02s-.47-1.09-1.13-1.09-1.09.36-1.71,1.13l-1.3-1.04c.83-1.13,1.63-1.74,3.13-1.74,1.74,0,2.89,1.02,2.89,2.59v.02c0,1.4-.72,2.1-2.21,3.25l-1.37,1.06h3.66v1.6h-6.21v-1.46Z"/>
        </g>
      </g>
      <g id="january_2022_text">
        <g>
          <line class="mobile-cls-10" x1="219.2" y1="22.93" x2="219.2" y2="22.93"/>
          <line class="mobile-cls-11" x1="214.53" y1="22.93" x2="212.2" y2="22.93"/>
          <line class="mobile-cls-10" x1="209.86" y1="22.93" x2="209.86" y2="22.93"/>
        </g>
        <g>
          <path class="mobile-cls-7" d="m228.91.5h3.69c2.97,0,5.02,2.04,5.02,4.7v.03c0,2.66-2.05,4.73-5.02,4.73h-3.69V.5Zm2.08,1.88v5.7h1.61c1.7,0,2.85-1.15,2.85-2.82v-.03c0-1.67-1.15-2.85-2.85-2.85h-1.61Z"/>
          <path class="mobile-cls-7" d="m239.29.09h2.16v1.82h-2.16V.09Zm.05,2.62h2.05v7.24h-2.05V2.71Z"/>
          <path class="mobile-cls-7" d="m242.89,7.87v-.03c0-1.58,1.2-2.31,2.92-2.31.73,0,1.26.12,1.77.3v-.12c0-.85-.53-1.32-1.55-1.32-.78,0-1.34.15-2,.39l-.51-1.57c.8-.35,1.58-.58,2.81-.58,1.12,0,1.93.3,2.44.81.54.54.78,1.34.78,2.31v4.2h-1.99v-.78c-.5.55-1.19.92-2.19.92-1.36,0-2.48-.78-2.48-2.21Zm4.71-.47v-.36c-.35-.16-.81-.27-1.31-.27-.88,0-1.42.35-1.42,1v.03c0,.55.46.88,1.12.88.96,0,1.61-.53,1.61-1.27Z"/>
          <path class="mobile-cls-7" d="m251.36,11.38l.7-1.54c.74.42,1.49.66,2.44.66,1.4,0,2.07-.68,2.07-1.97v-.35c-.61.73-1.27,1.17-2.36,1.17-1.69,0-3.21-1.23-3.21-3.38v-.03c0-2.16,1.55-3.38,3.21-3.38,1.12,0,1.78.47,2.34,1.08v-.95h2.05v5.6c0,1.3-.31,2.24-.92,2.85-.67.68-1.71.97-3.12.97-1.17,0-2.28-.27-3.2-.76Zm5.21-5.4v-.03c0-.99-.77-1.67-1.77-1.67s-1.76.69-1.76,1.67v.03c0,1,.76,1.67,1.76,1.67s1.77-.69,1.77-1.67Z"/>
          <path class="mobile-cls-7" d="m260.43,2.71h2.05v1.03c.47-.61,1.08-1.16,2.12-1.16,1.55,0,2.46,1.03,2.46,2.69v4.69h-2.05v-4.04c0-.97-.46-1.47-1.24-1.47s-1.28.5-1.28,1.47v4.04h-2.05V2.71Z"/>
          <path class="mobile-cls-7" d="m268.49,6.37v-.03c0-2.08,1.67-3.77,3.93-3.77s3.9,1.66,3.9,3.74v.03c0,2.08-1.67,3.77-3.93,3.77s-3.9-1.66-3.9-3.74Zm5.81,0v-.03c0-1.07-.77-2-1.9-2s-1.88.9-1.88,1.97v.03c0,1.07.77,2,1.9,2s1.88-.9,1.88-1.97Z"/>
          <path class="mobile-cls-7" d="m277.24,8.99l.88-1.35c.78.57,1.61.86,2.28.86.59,0,.86-.22.86-.54v-.03c0-.45-.7-.59-1.5-.84-1.01-.3-2.16-.77-2.16-2.17v-.03c0-1.47,1.19-2.3,2.65-2.3.92,0,1.92.31,2.7.84l-.78,1.42c-.72-.42-1.43-.68-1.96-.68s-.76.22-.76.5v.03c0,.41.69.59,1.47.86,1.01.34,2.19.82,2.19,2.15v.03c0,1.61-1.2,2.34-2.77,2.34-1.01,0-2.15-.34-3.11-1.09Z"/>
          <path class="mobile-cls-7" d="m284.62.09h2.16v1.82h-2.16V.09Zm.05,2.62h2.05v7.24h-2.05V2.71Z"/>
          <path class="mobile-cls-7" d="m288.09,8.99l.88-1.35c.78.57,1.61.86,2.28.86.59,0,.86-.22.86-.54v-.03c0-.45-.7-.59-1.5-.84-1.01-.3-2.16-.77-2.16-2.17v-.03c0-1.47,1.19-2.3,2.65-2.3.92,0,1.92.31,2.7.84l-.78,1.42c-.72-.42-1.43-.68-1.96-.68s-.76.22-.76.5v.03c0,.41.69.59,1.47.86,1.01.34,2.19.82,2.19,2.15v.03c0,1.61-1.2,2.34-2.77,2.34-1.01,0-2.15-.34-3.11-1.09Z"/>
          <path class="mobile-cls-7" d="m299.13,6.37v-.03c0-2.08,1.67-3.77,3.93-3.77s3.9,1.66,3.9,3.74v.03c0,2.08-1.67,3.77-3.93,3.77s-3.9-1.66-3.9-3.74Zm5.81,0v-.03c0-1.07-.77-2-1.9-2s-1.88.9-1.88,1.97v.03c0,1.07.77,2,1.9,2s1.88-.9,1.88-1.97Z"/>
          <path class="mobile-cls-7" d="m308.8,4.47h-.85v-1.69h.85v-.46c0-.8.2-1.38.58-1.76.38-.38.93-.57,1.66-.57.65,0,1.08.08,1.46.2v1.7c-.3-.11-.58-.18-.93-.18-.47,0-.74.24-.74.78v.28h1.66v1.67h-1.63v5.48h-2.05v-5.48Z"/>
          <path class="mobile-cls-7" d="m228.73,16.29h2.16v1.82h-2.16v-1.82Zm.05,2.62h2.05v7.24h-2.05v-7.24Z"/>
          <path class="mobile-cls-7" d="m232.86,16.29h2.05v9.86h-2.05v-9.86Z"/>
          <path class="mobile-cls-7" d="m236.49,22.57v-.03c0-2.07,1.47-3.77,3.58-3.77,2.42,0,3.52,1.88,3.52,3.93,0,.16-.01.35-.03.54h-5.04c.2.93.85,1.42,1.77,1.42.69,0,1.19-.22,1.76-.74l1.17,1.04c-.67.84-1.65,1.35-2.96,1.35-2.17,0-3.78-1.53-3.78-3.74Zm5.1-.61c-.12-.92-.66-1.54-1.53-1.54s-1.4.61-1.57,1.54h3.09Z"/>
          <path class="mobile-cls-7" d="m244.77,22.57v-.03c0-2.08,1.67-3.77,3.93-3.77s3.9,1.66,3.9,3.74v.03c0,2.08-1.67,3.77-3.93,3.77s-3.9-1.66-3.9-3.74Zm5.81,0v-.03c0-1.07-.77-2-1.9-2s-1.88.9-1.88,1.97v.03c0,1.07.77,2,1.9,2s1.88-.9,1.88-1.97Z"/>
          <path class="mobile-cls-7" d="m253.73,22.57v-.03c0-2.07,1.58-3.77,3.79-3.77,1.36,0,2.21.46,2.89,1.22l-1.26,1.35c-.46-.49-.92-.8-1.65-.8-1.03,0-1.76.9-1.76,1.97v.03c0,1.11.72,2,1.84,2,.69,0,1.16-.3,1.66-.77l1.2,1.22c-.7.77-1.51,1.32-2.96,1.32-2.17,0-3.77-1.67-3.77-3.74Z"/>
          <path class="mobile-cls-7" d="m261.24,22.57v-.03c0-2.08,1.67-3.77,3.93-3.77s3.9,1.66,3.9,3.74v.03c0,2.08-1.67,3.77-3.93,3.77s-3.9-1.66-3.9-3.74Zm5.81,0v-.03c0-1.07-.77-2-1.9-2s-1.88.9-1.88,1.97v.03c0,1.07.77,2,1.9,2s1.88-.9,1.88-1.97Z"/>
          <path class="mobile-cls-7" d="m270.65,16.29h2.05v9.86h-2.05v-9.86Z"/>
          <path class="mobile-cls-7" d="m274.28,22.57v-.03c0-2.08,1.67-3.77,3.93-3.77s3.9,1.66,3.9,3.74v.03c0,2.08-1.67,3.77-3.93,3.77s-3.9-1.66-3.9-3.74Zm5.81,0v-.03c0-1.07-.77-2-1.9-2s-1.88.9-1.88,1.97v.03c0,1.07.77,2,1.9,2s1.88-.9,1.88-1.97Z"/>
          <path class="mobile-cls-7" d="m283.59,18.91h2.05v1.03c.47-.61,1.08-1.16,2.12-1.16,1.55,0,2.46,1.03,2.46,2.69v4.69h-2.05v-4.04c0-.97-.46-1.47-1.24-1.47s-1.28.5-1.28,1.47v4.04h-2.05v-7.24Z"/>
          <path class="mobile-cls-7" d="m292.05,16.29h2.16v1.82h-2.16v-1.82Zm.05,2.62h2.05v7.24h-2.05v-7.24Z"/>
          <path class="mobile-cls-7" d="m295.73,22.57v-.03c0-2.07,1.58-3.77,3.79-3.77,1.36,0,2.21.46,2.89,1.22l-1.26,1.35c-.46-.49-.92-.8-1.65-.8-1.03,0-1.76.9-1.76,1.97v.03c0,1.11.72,2,1.84,2,.69,0,1.16-.3,1.66-.77l1.2,1.22c-.7.77-1.51,1.32-2.96,1.32-2.17,0-3.77-1.67-3.77-3.74Z"/>
          <path class="mobile-cls-7" d="m307.41,24.07v-.03c0-1.58,1.2-2.31,2.92-2.31.73,0,1.26.12,1.77.3v-.12c0-.85-.53-1.32-1.55-1.32-.78,0-1.34.15-2,.39l-.51-1.57c.8-.35,1.58-.58,2.81-.58,1.12,0,1.93.3,2.44.81.54.54.78,1.34.78,2.31v4.2h-1.99v-.78c-.5.55-1.19.92-2.19.92-1.36,0-2.48-.78-2.48-2.21Zm4.71-.47v-.36c-.35-.16-.81-.27-1.31-.27-.88,0-1.42.35-1.42,1v.03c0,.55.46.88,1.12.88.96,0,1.61-.53,1.61-1.27Z"/>
          <path class="mobile-cls-7" d="m315.83,18.91h2.05v1.03c.47-.61,1.08-1.16,2.12-1.16,1.55,0,2.46,1.03,2.46,2.69v4.69h-2.05v-4.04c0-.97-.46-1.47-1.24-1.47s-1.28.5-1.28,1.47v4.04h-2.05v-7.24Z"/>
          <path class="mobile-cls-7" d="m323.92,22.55v-.03c0-2.42,1.58-3.74,3.29-3.74,1.09,0,1.77.5,2.26,1.08v-3.56h2.05v9.86h-2.05v-1.04c-.5.68-1.19,1.18-2.26,1.18-1.69,0-3.29-1.32-3.29-3.74Zm5.58,0v-.03c0-1.2-.8-2-1.75-2s-1.77.78-1.77,2v.03c0,1.2.81,2,1.77,2s1.75-.8,1.75-2Z"/>
          <path class="mobile-cls-7" d="m228.73,32.49h2.16v1.82h-2.16v-1.82Zm.05,2.62h2.05v7.24h-2.05v-7.24Z"/>
          <path class="mobile-cls-7" d="m232.77,35.11h2.05v1.03c.47-.61,1.08-1.16,2.12-1.16,1.55,0,2.46,1.03,2.46,2.69v4.69h-2.05v-4.04c0-.97-.46-1.47-1.24-1.47s-1.28.5-1.28,1.47v4.04h-2.05v-7.24Z"/>
          <path class="mobile-cls-7" d="m241.53,36.87h-.85v-1.69h.85v-.46c0-.8.2-1.38.58-1.76.38-.38.93-.57,1.66-.57.65,0,1.08.08,1.46.2v1.7c-.3-.11-.58-.18-.93-.18-.47,0-.74.24-.74.78v.28h1.66v1.67h-1.63v5.48h-2.05v-5.48Zm4.9-4.38h2.05v9.86h-2.05v-9.86Z"/>
          <path class="mobile-cls-7" d="m249.98,40.27v-.03c0-1.58,1.2-2.31,2.92-2.31.73,0,1.26.12,1.77.3v-.12c0-.85-.53-1.32-1.55-1.32-.78,0-1.34.15-2,.39l-.51-1.57c.8-.35,1.58-.58,2.81-.58,1.12,0,1.93.3,2.44.81.54.54.78,1.34.78,2.31v4.2h-1.99v-.78c-.5.55-1.19.92-2.19.92-1.36,0-2.48-.78-2.48-2.21Zm4.71-.47v-.36c-.35-.16-.81-.27-1.31-.27-.88,0-1.42.35-1.42,1v.03c0,.55.46.88,1.12.88.96,0,1.61-.53,1.61-1.27Z"/>
          <path class="mobile-cls-7" d="m258.4,35.11h2.05v1.03c.47-.61,1.09-1.16,2.13-1.16.95,0,1.66.42,2.04,1.15.63-.74,1.39-1.15,2.38-1.15,1.53,0,2.44.92,2.44,2.66v4.71h-2.05v-4.04c0-.97-.43-1.47-1.2-1.47s-1.24.5-1.24,1.47v4.04h-2.05v-4.04c0-.97-.43-1.47-1.2-1.47s-1.24.5-1.24,1.47v4.04h-2.05v-7.24Z"/>
          <path class="mobile-cls-7" d="m271.23,35.11h2.05v1.03c.47-.61,1.09-1.16,2.13-1.16.95,0,1.66.42,2.04,1.15.63-.74,1.39-1.15,2.38-1.15,1.53,0,2.44.92,2.44,2.66v4.71h-2.05v-4.04c0-.97-.43-1.47-1.2-1.47s-1.24.5-1.24,1.47v4.04h-2.05v-4.04c0-.97-.43-1.47-1.2-1.47s-1.24.5-1.24,1.47v4.04h-2.05v-7.24Z"/>
          <path class="mobile-cls-7" d="m283.62,40.27v-.03c0-1.58,1.2-2.31,2.92-2.31.73,0,1.26.12,1.77.3v-.12c0-.85-.53-1.32-1.55-1.32-.78,0-1.34.15-2,.39l-.51-1.57c.8-.35,1.58-.58,2.81-.58,1.12,0,1.93.3,2.44.81.54.54.78,1.34.78,2.31v4.2h-1.99v-.78c-.5.55-1.19.92-2.19.92-1.36,0-2.48-.78-2.48-2.21Zm4.71-.47v-.36c-.35-.16-.81-.27-1.31-.27-.88,0-1.42.35-1.42,1v.03c0,.55.46.88,1.12.88.96,0,1.61-.53,1.61-1.27Z"/>
          <path class="mobile-cls-7" d="m292.32,40.3v-3.43h-.86v-1.76h.86v-1.85h2.05v1.85h1.7v1.76h-1.7v3.09c0,.47.2.7.66.7.38,0,.72-.09,1.01-.26v1.65c-.43.26-.93.42-1.62.42-1.26,0-2.11-.5-2.11-2.17Z"/>
          <path class="mobile-cls-7" d="m297.03,38.77v-.03c0-2.08,1.67-3.77,3.93-3.77s3.9,1.66,3.9,3.74v.03c0,2.08-1.67,3.77-3.93,3.77s-3.9-1.66-3.9-3.74Zm5.81,0v-.03c0-1.07-.77-2-1.9-2s-1.88.9-1.88,1.97v.03c0,1.07.77,2,1.9,2s1.88-.9,1.88-1.97Z"/>
          <path class="mobile-cls-7" d="m306.34,35.11h2.05v1.46c.42-1,1.09-1.65,2.31-1.59v2.15h-.11c-1.36,0-2.2.82-2.2,2.55v2.67h-2.05v-7.24Z"/>
          <path class="mobile-cls-7" d="m316.74,35.11h2.13l-2.78,7.41c-.55,1.47-1.15,2.03-2.38,2.03-.74,0-1.3-.19-1.82-.5l.69-1.49c.27.16.61.28.88.28.35,0,.54-.11.71-.47l-2.83-7.27h2.17l1.65,4.93,1.58-4.93Z"/>
          <path class="mobile-cls-7" d="m323.93,37.65v-.03c0-2.69,2.03-4.89,4.93-4.89,1.78,0,2.85.59,3.73,1.46l-1.32,1.53c-.73-.66-1.47-1.07-2.42-1.07-1.59,0-2.74,1.32-2.74,2.94v.03c0,1.62,1.12,2.97,2.74,2.97,1.08,0,1.74-.43,2.49-1.11l1.32,1.34c-.97,1.04-2.05,1.69-3.88,1.69-2.78,0-4.85-2.15-4.85-4.86Z"/>
          <path class="mobile-cls-7" d="m334.31,32.9h3.69c2.97,0,5.02,2.04,5.02,4.7v.03c0,2.66-2.05,4.73-5.02,4.73h-3.69v-9.45Zm2.08,1.88v5.7h1.61c1.7,0,2.85-1.15,2.85-2.82v-.03c0-1.67-1.15-2.85-2.85-2.85h-1.61Z"/>
        </g>
      </g>
      <g id="january_2022_capsule">
        <rect class="mobile-cls-1" x="107.86" y="7.93" width="102" height="30" rx="15" ry="15"/>
        <g>
          <path class="mobile-cls-8" d="m117.63,26.25l1.16-1.3c.48.53.95.84,1.54.84.7,0,1.13-.42,1.13-1.39v-5.41h1.89v5.49c0,1-.29,1.74-.79,2.24-.52.52-1.27.78-2.18.78-1.31,0-2.17-.58-2.75-1.26Z"/>
          <path class="mobile-cls-8" d="m124.66,25.54v-.02c0-1.4,1.07-2.05,2.59-2.05.65,0,1.12.11,1.57.26v-.11c0-.76-.47-1.18-1.38-1.18-.7,0-1.19.13-1.77.35l-.46-1.39c.71-.31,1.4-.52,2.5-.52,1,0,1.71.26,2.17.72.48.48.7,1.19.7,2.05v3.73h-1.76v-.7c-.44.49-1.05.82-1.94.82-1.21,0-2.21-.7-2.21-1.97Zm4.19-.42v-.32c-.31-.14-.72-.24-1.16-.24-.78,0-1.26.31-1.26.89v.02c0,.49.41.78,1,.78.85,0,1.43-.47,1.43-1.13Z"/>
          <path class="mobile-cls-8" d="m132.15,20.96h1.82v.91c.42-.54.96-1.03,1.88-1.03,1.38,0,2.18.91,2.18,2.39v4.16h-1.82v-3.59c0-.86-.41-1.31-1.1-1.31s-1.14.44-1.14,1.31v3.59h-1.82v-6.43Z"/>
          <path class="mobile-cls-8" d="m139.57,25.12v-4.16h1.82v3.59c0,.86.41,1.31,1.1,1.31s1.14-.44,1.14-1.31v-3.59h1.82v6.43h-1.82v-.91c-.42.54-.96,1.03-1.88,1.03-1.38,0-2.18-.91-2.18-2.39Z"/>
          <path class="mobile-cls-8" d="m146.71,25.54v-.02c0-1.4,1.07-2.05,2.59-2.05.65,0,1.12.11,1.57.26v-.11c0-.76-.47-1.18-1.38-1.18-.7,0-1.19.13-1.77.35l-.46-1.39c.71-.31,1.4-.52,2.5-.52,1,0,1.71.26,2.17.72.48.48.7,1.19.7,2.05v3.73h-1.76v-.7c-.44.49-1.05.82-1.94.82-1.21,0-2.21-.7-2.21-1.97Zm4.19-.42v-.32c-.31-.14-.72-.24-1.16-.24-.78,0-1.26.31-1.26.89v.02c0,.49.41.78,1,.78.85,0,1.43-.47,1.43-1.13Z"/>
          <path class="mobile-cls-8" d="m154.2,20.96h1.82v1.3c.37-.89.97-1.46,2.05-1.42v1.91h-.1c-1.21,0-1.96.73-1.96,2.27v2.37h-1.82v-6.43Z"/>
          <path class="mobile-cls-8" d="m163.44,20.96h1.9l-2.47,6.58c-.49,1.31-1.02,1.8-2.11,1.8-.66,0-1.15-.17-1.62-.44l.61-1.32c.24.14.54.25.78.25.31,0,.48-.1.64-.42l-2.52-6.45h1.93l1.46,4.38,1.4-4.38Z"/>
          <path class="mobile-cls-8" d="m169.79,25.93l2.79-2.29c1.04-.86,1.45-1.32,1.45-2.02s-.47-1.09-1.13-1.09-1.09.36-1.71,1.13l-1.3-1.04c.83-1.13,1.63-1.74,3.13-1.74,1.74,0,2.89,1.02,2.89,2.59v.02c0,1.4-.72,2.1-2.21,3.25l-1.37,1.06h3.66v1.6h-6.21v-1.46Z"/>
          <path class="mobile-cls-8" d="m177.32,23.22v-.02c0-2.43,1.51-4.34,3.74-4.34s3.72,1.88,3.72,4.32v.02c0,2.43-1.5,4.34-3.74,4.34s-3.72-1.88-3.72-4.32Zm5.57,0v-.02c0-1.52-.74-2.67-1.85-2.67s-1.82,1.12-1.82,2.65v.02c0,1.54.73,2.67,1.85,2.67s1.82-1.13,1.82-2.65Z"/>
          <path class="mobile-cls-8" d="m185.9,25.93l2.79-2.29c1.04-.86,1.45-1.32,1.45-2.02s-.47-1.09-1.13-1.09-1.09.36-1.71,1.13l-1.3-1.04c.83-1.13,1.63-1.74,3.13-1.74,1.74,0,2.89,1.02,2.89,2.59v.02c0,1.4-.72,2.1-2.21,3.25l-1.37,1.06h3.66v1.6h-6.21v-1.46Z"/>
          <path class="mobile-cls-8" d="m193.38,25.93l2.79-2.29c1.04-.86,1.45-1.32,1.45-2.02s-.47-1.09-1.13-1.09-1.09.36-1.71,1.13l-1.3-1.04c.83-1.13,1.63-1.74,3.13-1.74,1.74,0,2.89,1.02,2.89,2.59v.02c0,1.4-.72,2.1-2.21,3.25l-1.37,1.06h3.66v1.6h-6.21v-1.46Z"/>
        </g>
      </g>
    </g>
  </g>
</svg>