<?xml version="1.0" encoding="UTF-8"?>
<svg id="Layer_2" data-name="Layer 2" xmlns="http://www.w3.org/2000/svg" viewBox="0 0 302.2 67.69">
  <defs>
    <style>
      .cls-1 {
        fill: #dbdcdc;
      }

      .cls-1, .cls-2, .cls-3, .cls-4 {
        stroke-width: 0px;
      }

      .cls-5 {
        fill: none;
        stroke: #832580;
        stroke-miterlimit: 10;
        stroke-width: 2px;
      }

      .cls-2 {
        fill: #fff;
      }

      .cls-3 {
        fill: #231f20;
      }

      .cls-4 {
        fill: #832580;
      }
    </style>
  </defs>
  <g id="Layer_1-2" data-name="Layer 1">
    <g>
      <path class="cls-1" d="m28.4,33.75h272.8v21.75c0,6.15-5,11.15-11.15,11.15H39.99c-6.39,0-11.58-5.19-11.58-11.58v-21.32h0Z"/>
      <g>
        <path class="cls-3" d="m87.28,20.93v-.04c0-3.58,2.7-6.52,6.57-6.52,2.38,0,3.8.79,4.97,1.94l-1.76,2.03c-.97-.88-1.96-1.42-3.22-1.42-2.12,0-3.66,1.76-3.66,3.92v.04c0,2.16,1.49,3.96,3.66,3.96,1.44,0,2.32-.58,3.31-1.48l1.76,1.78c-1.3,1.39-2.74,2.25-5.17,2.25-3.71,0-6.46-2.86-6.46-6.48Z"/>
        <path class="cls-3" d="m101.12,14.59h5.76c1.6,0,2.84.45,3.67,1.28.7.7,1.08,1.69,1.08,2.88v.04c0,2.03-1.1,3.31-2.7,3.91l3.08,4.5h-3.24l-2.7-4.03h-2.18v4.03h-2.77v-12.6Zm5.58,6.12c1.35,0,2.12-.72,2.12-1.78v-.04c0-1.19-.83-1.8-2.18-1.8h-2.75v3.62h2.81Z"/>
        <path class="cls-3" d="m114.14,14.59h5.15c3.01,0,4.83,1.78,4.83,4.36v.04c0,2.92-2.27,4.43-5.1,4.43h-2.11v3.78h-2.77v-12.6Zm4.97,6.36c1.39,0,2.2-.83,2.2-1.91v-.04c0-1.24-.86-1.91-2.25-1.91h-2.14v3.85h2.2Z"/>
      </g>
      <g>
        <path class="cls-3" d="m72.94,44.79h2.56l5.4,12.69h-2.9l-1.15-2.83h-5.33l-1.15,2.83h-2.83l5.4-12.69Zm2.92,7.42l-1.67-4.09-1.67,4.09h3.35Z"/>
        <path class="cls-3" d="m82.67,44.34h2.74v13.14h-2.74v-13.14Z"/>
        <path class="cls-3" d="m90.72,56.22v1.26h-2.74v-13.14h2.74v4.88c.67-.9,1.58-1.57,3.01-1.57,2.25,0,4.39,1.76,4.39,4.99v.04c0,3.22-2.11,4.99-4.39,4.99-1.46,0-2.36-.67-3.01-1.44Zm4.66-3.55v-.04c0-1.6-1.08-2.66-2.36-2.66s-2.34,1.06-2.34,2.66v.04c0,1.6,1.06,2.67,2.34,2.67s2.36-1.04,2.36-2.67Z"/>
        <path class="cls-3" d="m100.06,54.08v-6.25h2.74v5.38c0,1.3.61,1.96,1.66,1.96s1.71-.67,1.71-1.96v-5.38h2.74v9.65h-2.74v-1.37c-.63.81-1.44,1.55-2.83,1.55-2.07,0-3.28-1.37-3.28-3.58Z"/>
        <path class="cls-3" d="m111.35,47.83h2.74v1.37c.63-.81,1.46-1.55,2.84-1.55,1.26,0,2.21.56,2.72,1.53.85-.99,1.86-1.53,3.17-1.53,2.03,0,3.26,1.22,3.26,3.55v6.28h-2.74v-5.38c0-1.3-.58-1.96-1.6-1.96s-1.66.67-1.66,1.96v5.38h-2.74v-5.38c0-1.3-.58-1.96-1.6-1.96s-1.66.67-1.66,1.96v5.38h-2.74v-9.65Z"/>
        <path class="cls-3" d="m128.5,44.34h2.88v2.43h-2.88v-2.43Zm.07,3.49h2.74v9.65h-2.74v-9.65Z"/>
        <path class="cls-3" d="m133.88,47.83h2.74v1.37c.63-.81,1.44-1.55,2.83-1.55,2.07,0,3.28,1.37,3.28,3.58v6.25h-2.74v-5.38c0-1.3-.61-1.96-1.66-1.96s-1.71.67-1.71,1.96v5.38h-2.74v-9.65Z"/>
      </g>
      <g>
        <path class="cls-3" d="m183.94,15.98l-2.38.74-.34-1.15,3.08-1.06h1.04v12.69h-1.4v-11.22Z"/>
        <path class="cls-3" d="m188.02,26.09l4.57-4.03c1.93-1.73,2.63-2.7,2.63-3.96,0-1.48-1.17-2.41-2.54-2.41-1.44,0-2.38.76-3.38,2.16l-1.04-.76c1.13-1.69,2.32-2.68,4.54-2.68s3.91,1.51,3.91,3.57v.04c0,1.84-.97,2.97-3.19,4.9l-3.37,2.99h6.68v1.3h-8.8v-1.1Z"/>
        <path class="cls-3" d="m204.89,17.88h1.39v1.57c.61-.92,1.44-1.76,3.01-1.76s2.48.81,2.99,1.85c.67-1.03,1.66-1.85,3.28-1.85,2.14,0,3.46,1.44,3.46,3.75v5.76h-1.39v-5.44c0-1.8-.9-2.81-2.41-2.81-1.4,0-2.57,1.04-2.57,2.88v5.37h-1.37v-5.47c0-1.75-.92-2.77-2.39-2.77s-2.59,1.22-2.59,2.93v5.31h-1.39v-9.31Z"/>
        <path class="cls-3" d="m221.84,28.81l.63-1.08c1.06.77,2.25,1.19,3.58,1.19,2.05,0,3.38-1.13,3.38-3.31v-1.1c-.81,1.08-1.94,1.96-3.66,1.96-2.23,0-4.38-1.67-4.38-4.36v-.04c0-2.72,2.16-4.39,4.38-4.39,1.75,0,2.88.86,3.64,1.87v-1.67h1.39v7.69c0,1.44-.43,2.54-1.19,3.29-.83.83-2.07,1.24-3.55,1.24-1.55,0-2.99-.43-4.23-1.3Zm7.63-6.72v-.04c0-1.91-1.66-3.15-3.42-3.15s-3.22,1.22-3.22,3.13v.04c0,1.87,1.5,3.17,3.22,3.17s3.42-1.28,3.42-3.15Z"/>
        <path class="cls-3" d="m240.33,12.83h1.28l-8.35,16.67h-1.28l8.35-16.67Z"/>
        <path class="cls-3" d="m243.28,14.59h1.42v11.29h7.09v1.31h-8.52v-12.6Z"/>
      </g>
      <g>
        <path class="cls-3" d="m187.78,55.45l1.03-.92c.97,1.19,2.14,1.87,3.69,1.87s2.75-.97,2.75-2.45v-.04c0-1.57-1.46-2.43-3.53-2.43h-.81l-.29-.85,3.98-4.48h-6.16v-1.28h8.05v1.04l-3.96,4.39c2.2.18,4.16,1.24,4.16,3.55v.04c0,2.25-1.87,3.8-4.21,3.8-2.11,0-3.67-.92-4.7-2.25Z"/>
        <path class="cls-3" d="m198.78,55.7l.94-1.03c1.1,1.06,2.3,1.73,3.58,1.73,1.8,0,3.04-1.19,3.04-2.79v-.04c0-1.57-1.3-2.65-3.13-2.65-1.06,0-1.91.32-2.65.72l-.95-.63.36-6.14h7.26v1.31h-6.01l-.27,4.03c.74-.32,1.44-.56,2.48-.56,2.45,0,4.36,1.46,4.36,3.85v.04c0,2.47-1.87,4.14-4.5,4.14-1.8,0-3.37-.86-4.5-2Z"/>
        <path class="cls-3" d="m215.68,59.1l.63-1.08c1.06.77,2.25,1.19,3.58,1.19,2.05,0,3.38-1.13,3.38-3.31v-1.1c-.81,1.08-1.95,1.96-3.66,1.96-2.23,0-4.38-1.67-4.38-4.36v-.04c0-2.72,2.16-4.39,4.38-4.39,1.75,0,2.88.86,3.64,1.87v-1.67h1.39v7.69c0,1.44-.43,2.54-1.19,3.29-.83.83-2.07,1.24-3.55,1.24-1.55,0-2.99-.43-4.23-1.3Zm7.63-6.72v-.04c0-1.91-1.66-3.15-3.42-3.15s-3.22,1.22-3.22,3.13v.04c0,1.87,1.5,3.17,3.22,3.17s3.42-1.28,3.42-3.15Z"/>
        <path class="cls-3" d="m234.17,43.12h1.28l-8.36,16.67h-1.28l8.35-16.67Z"/>
        <path class="cls-3" d="m237.12,44.88h1.42v11.29h7.09v1.31h-8.52v-12.6Z"/>
      </g>
      <rect class="cls-5" x="28.4" y="1" width="272.8" height="65.69" rx="12.33" ry="12.33"/>
      <path class="cls-2" d="m56.8,33.92c0-15.69-12.72-28.4-28.4-28.4S0,18.23,0,33.92s12.72,28.4,28.4,28.4,28.4-12.72,28.4-28.4Z"/>
      <g>
        <path class="cls-4" d="m38.32,25.54c-1.66,0-3.2.49-4.5,1.32v-7.18h1.18c.44,0,.8-.36.8-.8v-4.3c0-.44-.36-.8-.8-.8h-15.27c-.44,0-.8.36-.8.8v4.3c0,.44.36.8.8.8h1.18v28.88c0,3.52,2.89,6.38,6.45,6.38s6.45-2.86,6.45-6.38v-7.66c1.3.84,2.84,1.32,4.5,1.32,4.6,0,8.34-3.74,8.34-8.34s-3.74-8.34-8.34-8.34h0Zm-15.79.33h9.68v1.84h-9.68v-1.84Zm-1.99-10.49h13.66v2.69h-13.66v-2.69Zm11.67,4.3v4.58h-9.68v-4.58h9.68Zm0,28.88c0,2.63-2.17,4.77-4.84,4.77s-4.84-2.14-4.84-4.77v-2.45h4.37c.44,0,.8-.36.8-.8v-2.08c0-.44-.36-.8-.8-.8s-.8.36-.8.8v1.28h-3.57v-11.2h3.57v2.65c0,.44.36.8.8.8s.8-.36.8-.8v-3.45c0-.44-.36-.8-.8-.8h-4.37v-2.39h8.81c-.86,1.31-1.37,2.88-1.37,4.57,0,2.19.85,4.18,2.23,5.67v9h0Zm6.11-7.95c-3.71,0-6.73-3.02-6.73-6.73s3.02-6.73,6.73-6.73,6.73,3.02,6.73,6.73-3.02,6.73-6.73,6.73h0Z"/>
        <path class="cls-4" d="m38.89,28.94c-.31-.29-.8-.29-1.11,0-.34.33-3.36,3.26-3.36,5.91,0,2.16,1.75,3.91,3.91,3.91s3.91-1.76,3.91-3.91c0-2.65-3.01-5.59-3.36-5.91h0Zm-.55,8.22c-1.27,0-2.3-1.03-2.3-2.3,0-1.36,1.37-3.15,2.3-4.18.94,1.03,2.3,2.82,2.3,4.18,0,1.27-1.03,2.3-2.3,2.3h0Z"/>
        <path class="cls-4" d="m27.65,39.27c-.13-.32-.46-.52-.8-.49-.33.02-.62.26-.72.58-.09.32.03.68.3.87.27.19.64.2.91.01.32-.21.44-.63.3-.98h0Z"/>
      </g>
    </g>
  </g>
</svg>