<?xml version="1.0" encoding="UTF-8"?>
<svg id="ammar_story_svg_mobile" data-name="ammar_story_svg_mobile" xmlns="http://www.w3.org/2000/svg" xmlns:xlink="http://www.w3.org/1999/xlink" viewBox="0 0 262.23 313.12">
  <defs>
    <style>
      .mobile-cls-1 {
        fill: #e0e1e0;
      }

      .mobile-cls-1, .mobile-cls-2, .mobile-cls-3, .mobile-cls-4, .mobile-cls-5, .mobile-cls-6 {
        stroke-width: 0px;
      }

      .mobile-cls-2 {
        fill: url(#mobile-linear-gradient);
      }

      .mobile-cls-7, .mobile-cls-8, .mobile-cls-9 {
        stroke: #9d5b8f;
        stroke-linecap: round;
        stroke-linejoin: round;
        stroke-width: 4px;
      }

      .mobile-cls-7, .mobile-cls-8, .mobile-cls-9, .mobile-cls-10 {
        fill: none;
      }

      .mobile-cls-3 {
        fill: #fff;
      }

      .mobile-cls-4 {
        fill: url(#mobile-linear-gradient-2);
      }

      .mobile-cls-8 {
        stroke-dasharray: 0 0 0 5.97;
      }

      .mobile-cls-9 {
        stroke-dasharray: 0 0 0 4.67;
      }

      .mobile-cls-5 {
        fill: #84277f;
      }

      .mobile-cls-6 {
        fill: #872780;
      }

      .mobile-cls-10 {
        stroke: #808b86;
        stroke-miterlimit: 10;
        stroke-width: 2px;
      }
    </style>
    <linearGradient id="mobile-linear-gradient" x1="52.5" y1="276.41" x2="52.5" y2="308.58" gradientUnits="userSpaceOnUse">
      <stop offset="0" stop-color="#bebdbd"/>
      <stop offset="1" stop-color="#fff"/>
    </linearGradient>
    <linearGradient id="mobile-linear-gradient-2" x1="52.5" y1="277.9" x2="52.5" y2="307.14" gradientUnits="userSpaceOnUse">
      <stop offset="0" stop-color="#872780"/>
      <stop offset=".2" stop-color="#9b2e69"/>
      <stop offset=".53" stop-color="#b9394a"/>
      <stop offset=".81" stop-color="#cb3f36"/>
      <stop offset="1" stop-color="#d24230"/>
    </linearGradient>
  </defs>
  <g id="ammar_story_mobile_svg">
    <g>
      <line id="timeline" class="mobile-cls-10" x1="53.14" y1="294.5" x2="53.14" y2="12.13"/>
      <g id="january_2022_capsule" data-name="january_2022" class="timeline--btn">
        <rect class="mobile-cls-2" x="0" y="276.21" width="105" height="33" rx="16.5" ry="16.5"/>
        <rect class="mobile-cls-4 tooltip-mobile" title="Click here" x="1.5" y="277.71" width="102" height="30" rx="15" ry="15"/>
        <g>
          <path class="mobile-cls-3" d="m11.26,296.04l1.16-1.3c.48.53.95.84,1.54.84.7,0,1.13-.42,1.13-1.39v-5.41h1.89v5.49c0,1-.29,1.74-.79,2.24-.52.52-1.27.78-2.18.78-1.31,0-2.17-.58-2.75-1.26Z"/>
          <path class="mobile-cls-3" d="m18.29,295.33v-.02c0-1.4,1.07-2.05,2.59-2.05.65,0,1.12.11,1.57.26v-.11c0-.76-.47-1.18-1.38-1.18-.7,0-1.19.13-1.77.35l-.46-1.39c.71-.31,1.4-.52,2.5-.52,1,0,1.71.26,2.17.72.48.48.7,1.19.7,2.05v3.73h-1.76v-.7c-.44.49-1.05.82-1.94.82-1.21,0-2.21-.7-2.21-1.97Zm4.19-.42v-.32c-.31-.14-.72-.24-1.16-.24-.78,0-1.26.31-1.26.89v.02c0,.49.41.78,1,.78.85,0,1.43-.47,1.43-1.13Z"/>
          <path class="mobile-cls-3" d="m25.78,290.75h1.82v.91c.42-.54.96-1.03,1.88-1.03,1.38,0,2.18.91,2.18,2.39v4.16h-1.82v-3.59c0-.86-.41-1.31-1.1-1.31s-1.14.44-1.14,1.31v3.59h-1.82v-6.43Z"/>
          <path class="mobile-cls-3" d="m33.21,294.91v-4.16h1.82v3.59c0,.86.41,1.31,1.1,1.31s1.14-.44,1.14-1.31v-3.59h1.82v6.43h-1.82v-.91c-.42.54-.96,1.03-1.88,1.03-1.38,0-2.18-.91-2.18-2.39Z"/>
          <path class="mobile-cls-3" d="m40.35,295.33v-.02c0-1.4,1.07-2.05,2.59-2.05.65,0,1.12.11,1.57.26v-.11c0-.76-.47-1.18-1.38-1.18-.7,0-1.19.13-1.77.35l-.46-1.39c.71-.31,1.4-.52,2.5-.52,1,0,1.71.26,2.17.72.48.48.7,1.19.7,2.05v3.73h-1.76v-.7c-.44.49-1.05.82-1.94.82-1.21,0-2.21-.7-2.21-1.97Zm4.19-.42v-.32c-.31-.14-.72-.24-1.16-.24-.78,0-1.26.31-1.26.89v.02c0,.49.41.78,1,.78.85,0,1.43-.47,1.43-1.13Z"/>
          <path class="mobile-cls-3" d="m47.84,290.75h1.82v1.3c.37-.89.97-1.46,2.05-1.42v1.91h-.1c-1.21,0-1.96.73-1.96,2.27v2.37h-1.82v-6.43Z"/>
          <path class="mobile-cls-3" d="m57.07,290.75h1.9l-2.47,6.58c-.49,1.31-1.02,1.8-2.11,1.8-.66,0-1.15-.17-1.62-.44l.61-1.32c.24.14.54.25.78.25.31,0,.48-.1.64-.42l-2.52-6.45h1.93l1.46,4.38,1.4-4.38Z"/>
          <path class="mobile-cls-3" d="m63.42,295.71l2.79-2.29c1.04-.86,1.45-1.32,1.45-2.01s-.47-1.09-1.13-1.09-1.09.36-1.71,1.13l-1.3-1.04c.83-1.13,1.63-1.74,3.13-1.74,1.74,0,2.89,1.02,2.89,2.59v.02c0,1.4-.72,2.1-2.21,3.25l-1.37,1.06h3.66v1.59h-6.21v-1.46Z"/>
          <path class="mobile-cls-3" d="m70.96,293v-.02c0-2.43,1.51-4.34,3.74-4.34s3.72,1.88,3.72,4.32v.02c0,2.43-1.5,4.34-3.74,4.34s-3.72-1.88-3.72-4.32Zm5.57,0v-.02c0-1.52-.74-2.67-1.85-2.67s-1.82,1.12-1.82,2.65v.02c0,1.54.73,2.67,1.85,2.67s1.82-1.13,1.82-2.65Z"/>
          <path class="mobile-cls-3" d="m79.54,295.71l2.79-2.29c1.04-.86,1.45-1.32,1.45-2.01s-.47-1.09-1.13-1.09-1.09.36-1.71,1.13l-1.3-1.04c.83-1.13,1.63-1.74,3.13-1.74,1.74,0,2.89,1.02,2.89,2.59v.02c0,1.4-.72,2.1-2.21,3.25l-1.37,1.06h3.66v1.59h-6.21v-1.46Z"/>
          <path class="mobile-cls-3" d="m87.02,295.71l2.79-2.29c1.04-.86,1.45-1.32,1.45-2.01s-.47-1.09-1.13-1.09-1.09.36-1.71,1.13l-1.3-1.04c.83-1.13,1.63-1.74,3.13-1.74,1.74,0,2.89,1.02,2.89,2.59v.02c0,1.4-.72,2.1-2.21,3.25l-1.37,1.06h3.66v1.59h-6.21v-1.46Z"/>
        </g>
      </g>
      <g id="january_text">
        <g>
          <path class="mobile-cls-5" d="m120.73,271.11h3.69c2.97,0,5.02,2.04,5.02,4.7v.03c0,2.66-2.05,4.73-5.02,4.73h-3.69v-9.45Zm2.08,1.88v5.7h1.61c1.7,0,2.85-1.15,2.85-2.82v-.03c0-1.67-1.15-2.85-2.85-2.85h-1.61Z"/>
          <path class="mobile-cls-5" d="m131.12,270.7h2.16v1.82h-2.16v-1.82Zm.05,2.62h2.05v7.24h-2.05v-7.24Z"/>
          <path class="mobile-cls-5" d="m134.72,278.48v-.03c0-1.58,1.2-2.31,2.92-2.31.73,0,1.26.12,1.77.3v-.12c0-.85-.53-1.32-1.55-1.32-.78,0-1.34.15-2,.39l-.51-1.57c.8-.35,1.58-.58,2.81-.58,1.12,0,1.93.3,2.44.81.54.54.78,1.34.78,2.31v4.2h-1.99v-.78c-.5.55-1.19.92-2.19.92-1.36,0-2.48-.78-2.48-2.21Zm4.71-.47v-.36c-.35-.16-.81-.27-1.31-.27-.88,0-1.42.35-1.42,1v.03c0,.55.46.88,1.12.88.96,0,1.61-.53,1.61-1.27Z"/>
          <path class="mobile-cls-5" d="m143.18,281.99l.7-1.54c.74.42,1.49.66,2.44.66,1.4,0,2.07-.68,2.07-1.97v-.35c-.61.73-1.27,1.17-2.36,1.17-1.69,0-3.21-1.23-3.21-3.38v-.03c0-2.16,1.55-3.38,3.21-3.38,1.12,0,1.78.47,2.34,1.08v-.95h2.05v5.6c0,1.3-.31,2.24-.92,2.85-.67.68-1.71.97-3.12.97-1.17,0-2.28-.27-3.2-.76Zm5.21-5.4v-.03c0-.99-.77-1.67-1.77-1.67s-1.76.69-1.76,1.67v.03c0,1,.76,1.67,1.76,1.67s1.77-.69,1.77-1.67Z"/>
          <path class="mobile-cls-5" d="m152.26,273.32h2.05v1.03c.47-.61,1.08-1.16,2.12-1.16,1.55,0,2.46,1.03,2.46,2.69v4.69h-2.05v-4.04c0-.97-.46-1.47-1.24-1.47s-1.28.5-1.28,1.47v4.04h-2.05v-7.24Z"/>
          <path class="mobile-cls-5" d="m160.32,276.98v-.03c0-2.08,1.67-3.77,3.93-3.77s3.9,1.66,3.9,3.74v.03c0,2.08-1.67,3.77-3.93,3.77s-3.9-1.66-3.9-3.74Zm5.81,0v-.03c0-1.07-.77-2-1.9-2s-1.88.9-1.88,1.97v.03c0,1.07.77,2,1.9,2s1.88-.9,1.88-1.97Z"/>
          <path class="mobile-cls-5" d="m169.06,279.6l.88-1.35c.78.57,1.61.86,2.28.86.59,0,.86-.22.86-.54v-.03c0-.45-.7-.59-1.5-.84-1.01-.3-2.16-.77-2.16-2.17v-.03c0-1.47,1.19-2.3,2.65-2.3.92,0,1.92.31,2.7.84l-.78,1.42c-.72-.42-1.43-.68-1.96-.68s-.76.22-.76.5v.03c0,.41.69.59,1.47.86,1.01.34,2.19.82,2.19,2.15v.03c0,1.61-1.2,2.34-2.77,2.34-1.01,0-2.15-.34-3.11-1.09Z"/>
          <path class="mobile-cls-5" d="m176.45,270.7h2.16v1.82h-2.16v-1.82Zm.05,2.62h2.05v7.24h-2.05v-7.24Z"/>
          <path class="mobile-cls-5" d="m179.92,279.6l.88-1.35c.78.57,1.61.86,2.28.86.59,0,.86-.22.86-.54v-.03c0-.45-.7-.59-1.5-.84-1.01-.3-2.16-.77-2.16-2.17v-.03c0-1.47,1.19-2.3,2.65-2.3.92,0,1.92.31,2.7.84l-.78,1.42c-.72-.42-1.43-.68-1.96-.68s-.76.22-.76.5v.03c0,.41.69.59,1.47.86,1.01.34,2.19.82,2.19,2.15v.03c0,1.61-1.2,2.34-2.77,2.34-1.01,0-2.15-.34-3.11-1.09Z"/>
          <path class="mobile-cls-5" d="m190.96,276.98v-.03c0-2.08,1.67-3.77,3.93-3.77s3.9,1.66,3.9,3.74v.03c0,2.08-1.67,3.77-3.93,3.77s-3.9-1.66-3.9-3.74Zm5.81,0v-.03c0-1.07-.77-2-1.9-2s-1.88.9-1.88,1.97v.03c0,1.07.77,2,1.9,2s1.88-.9,1.88-1.97Z"/>
          <path class="mobile-cls-5" d="m200.63,275.08h-.85v-1.69h.85v-.46c0-.8.2-1.38.58-1.76.38-.38.93-.57,1.66-.57.65,0,1.08.08,1.46.2v1.7c-.3-.11-.58-.18-.93-.18-.47,0-.74.24-.74.78v.28h1.66v1.67h-1.63v5.48h-2.05v-5.48Z"/>
          <path class="mobile-cls-5" d="m120.56,286.9h2.16v1.82h-2.16v-1.82Zm.05,2.62h2.05v7.24h-2.05v-7.24Z"/>
          <path class="mobile-cls-5" d="m124.59,289.52h2.05v1.03c.47-.61,1.08-1.16,2.12-1.16,1.55,0,2.46,1.03,2.46,2.69v4.69h-2.05v-4.04c0-.97-.46-1.47-1.24-1.47s-1.28.5-1.28,1.47v4.04h-2.05v-7.24Z"/>
          <path class="mobile-cls-5" d="m133.36,291.28h-.85v-1.69h.85v-.46c0-.8.2-1.38.58-1.76.38-.38.93-.57,1.66-.57.65,0,1.08.08,1.46.2v1.7c-.3-.11-.58-.18-.93-.18-.47,0-.74.24-.74.78v.28h1.66v1.67h-1.63v5.48h-2.05v-5.48Zm4.9-4.38h2.05v9.86h-2.05v-9.86Z"/>
          <path class="mobile-cls-5" d="m141.81,294.68v-.03c0-1.58,1.2-2.31,2.92-2.31.73,0,1.26.12,1.77.3v-.12c0-.85-.53-1.32-1.55-1.32-.78,0-1.34.15-2,.39l-.51-1.57c.8-.35,1.58-.58,2.81-.58,1.12,0,1.93.3,2.44.81.54.54.78,1.34.78,2.31v4.2h-1.99v-.78c-.5.55-1.19.92-2.19.92-1.36,0-2.48-.78-2.48-2.21Zm4.71-.47v-.36c-.35-.16-.81-.27-1.31-.27-.88,0-1.42.35-1.42,1v.03c0,.55.46.88,1.12.88.96,0,1.61-.53,1.61-1.27Z"/>
          <path class="mobile-cls-5" d="m150.23,289.52h2.05v1.03c.47-.61,1.09-1.16,2.13-1.16.95,0,1.66.42,2.04,1.15.63-.74,1.39-1.15,2.38-1.15,1.53,0,2.44.92,2.44,2.66v4.71h-2.05v-4.04c0-.97-.43-1.47-1.2-1.47s-1.24.5-1.24,1.47v4.04h-2.05v-4.04c0-.97-.43-1.47-1.2-1.47s-1.24.5-1.24,1.47v4.04h-2.05v-7.24Z"/>
          <path class="mobile-cls-5" d="m163.06,289.52h2.05v1.03c.47-.61,1.09-1.16,2.13-1.16.95,0,1.66.42,2.04,1.15.63-.74,1.39-1.15,2.38-1.15,1.53,0,2.44.92,2.44,2.66v4.71h-2.05v-4.04c0-.97-.43-1.47-1.2-1.47s-1.24.5-1.24,1.47v4.04h-2.05v-4.04c0-.97-.43-1.47-1.2-1.47s-1.24.5-1.24,1.47v4.04h-2.05v-7.24Z"/>
          <path class="mobile-cls-5" d="m175.45,294.68v-.03c0-1.58,1.2-2.31,2.92-2.31.73,0,1.26.12,1.77.3v-.12c0-.85-.53-1.32-1.55-1.32-.78,0-1.34.15-2,.39l-.51-1.57c.8-.35,1.58-.58,2.81-.58,1.12,0,1.93.3,2.44.81.54.54.78,1.34.78,2.31v4.2h-1.99v-.78c-.5.55-1.19.92-2.19.92-1.36,0-2.48-.78-2.48-2.21Zm4.71-.47v-.36c-.35-.16-.81-.27-1.31-.27-.88,0-1.42.35-1.42,1v.03c0,.55.46.88,1.12.88.96,0,1.61-.53,1.61-1.27Z"/>
          <path class="mobile-cls-5" d="m184.14,294.71v-3.43h-.86v-1.76h.86v-1.85h2.05v1.85h1.7v1.76h-1.7v3.09c0,.47.2.7.66.7.38,0,.72-.09,1.01-.26v1.65c-.43.26-.93.42-1.62.42-1.26,0-2.11-.5-2.11-2.17Z"/>
          <path class="mobile-cls-5" d="m188.86,293.18v-.03c0-2.08,1.67-3.77,3.93-3.77s3.9,1.66,3.9,3.74v.03c0,2.08-1.67,3.77-3.93,3.77s-3.9-1.66-3.9-3.74Zm5.81,0v-.03c0-1.07-.77-2-1.9-2s-1.88.9-1.88,1.97v.03c0,1.07.77,2,1.9,2s1.88-.9,1.88-1.97Z"/>
          <path class="mobile-cls-5" d="m198.17,289.52h2.05v1.46c.42-1,1.09-1.65,2.31-1.59v2.15h-.11c-1.36,0-2.2.82-2.2,2.55v2.67h-2.05v-7.24Z"/>
          <path class="mobile-cls-5" d="m208.57,289.52h2.13l-2.78,7.41c-.55,1.47-1.15,2.03-2.38,2.03-.74,0-1.3-.19-1.82-.5l.69-1.49c.27.16.61.28.88.28.35,0,.54-.11.71-.47l-2.83-7.27h2.17l1.65,4.93,1.58-4.93Z"/>
          <path class="mobile-cls-5" d="m120.56,303.1h2.16v1.82h-2.16v-1.82Zm.05,2.62h2.05v7.24h-2.05v-7.24Z"/>
          <path class="mobile-cls-5" d="m124.69,303.1h2.05v9.86h-2.05v-9.86Z"/>
          <path class="mobile-cls-5" d="m128.32,309.38v-.03c0-2.07,1.47-3.77,3.58-3.77,2.42,0,3.52,1.88,3.52,3.93,0,.16-.01.35-.03.54h-5.04c.2.93.85,1.42,1.77,1.42.69,0,1.19-.22,1.76-.74l1.17,1.04c-.67.84-1.65,1.35-2.96,1.35-2.17,0-3.78-1.53-3.78-3.74Zm5.1-.61c-.12-.92-.66-1.54-1.53-1.54s-1.4.61-1.57,1.54h3.09Z"/>
          <path class="mobile-cls-5" d="m136.6,309.38v-.03c0-2.08,1.67-3.77,3.93-3.77s3.9,1.66,3.9,3.74v.03c0,2.08-1.67,3.77-3.93,3.77s-3.9-1.66-3.9-3.74Zm5.81,0v-.03c0-1.07-.77-2-1.9-2s-1.88.9-1.88,1.97v.03c0,1.07.77,2,1.9,2s1.88-.9,1.88-1.97Z"/>
          <path class="mobile-cls-5" d="m145.56,309.38v-.03c0-2.07,1.58-3.77,3.79-3.77,1.36,0,2.21.46,2.89,1.22l-1.26,1.35c-.46-.49-.92-.8-1.65-.8-1.03,0-1.76.9-1.76,1.97v.03c0,1.11.72,2,1.84,2,.69,0,1.16-.3,1.66-.77l1.2,1.22c-.7.77-1.51,1.32-2.96,1.32-2.17,0-3.77-1.67-3.77-3.74Z"/>
          <path class="mobile-cls-5" d="m153.07,309.38v-.03c0-2.08,1.67-3.77,3.93-3.77s3.9,1.66,3.9,3.74v.03c0,2.08-1.67,3.77-3.93,3.77s-3.9-1.66-3.9-3.74Zm5.81,0v-.03c0-1.07-.77-2-1.9-2s-1.88.9-1.88,1.97v.03c0,1.07.77,2,1.9,2s1.88-.9,1.88-1.97Z"/>
          <path class="mobile-cls-5" d="m162.48,303.1h2.05v9.86h-2.05v-9.86Z"/>
          <path class="mobile-cls-5" d="m166.11,309.38v-.03c0-2.08,1.67-3.77,3.93-3.77s3.9,1.66,3.9,3.74v.03c0,2.08-1.67,3.77-3.93,3.77s-3.9-1.66-3.9-3.74Zm5.81,0v-.03c0-1.07-.77-2-1.9-2s-1.88.9-1.88,1.97v.03c0,1.07.77,2,1.9,2s1.88-.9,1.88-1.97Z"/>
          <path class="mobile-cls-5" d="m175.42,305.72h2.05v1.03c.47-.61,1.08-1.16,2.12-1.16,1.55,0,2.46,1.03,2.46,2.69v4.69h-2.05v-4.04c0-.97-.46-1.47-1.24-1.47s-1.28.5-1.28,1.47v4.04h-2.05v-7.24Z"/>
          <path class="mobile-cls-5" d="m183.87,303.1h2.16v1.82h-2.16v-1.82Zm.05,2.62h2.05v7.24h-2.05v-7.24Z"/>
          <path class="mobile-cls-5" d="m187.56,309.38v-.03c0-2.07,1.58-3.77,3.79-3.77,1.36,0,2.21.46,2.89,1.22l-1.26,1.35c-.46-.49-.92-.8-1.65-.8-1.03,0-1.76.9-1.76,1.97v.03c0,1.11.72,2,1.84,2,.69,0,1.16-.3,1.66-.77l1.2,1.22c-.7.77-1.51,1.32-2.96,1.32-2.17,0-3.77-1.67-3.77-3.74Z"/>
          <path class="mobile-cls-5" d="m199.46,308.26v-.03c0-2.69,2.03-4.89,4.93-4.89,1.78,0,2.85.59,3.73,1.46l-1.32,1.53c-.73-.66-1.47-1.07-2.42-1.07-1.59,0-2.74,1.32-2.74,2.94v.03c0,1.62,1.12,2.97,2.74,2.97,1.08,0,1.74-.43,2.49-1.11l1.32,1.34c-.97,1.04-2.05,1.69-3.88,1.69-2.78,0-4.85-2.15-4.85-4.86Z"/>
          <path class="mobile-cls-5" d="m209.85,303.51h3.69c2.97,0,5.02,2.04,5.02,4.7v.03c0,2.66-2.05,4.73-5.02,4.73h-3.69v-9.45Zm2.08,1.88v5.7h1.61c1.7,0,2.85-1.15,2.85-2.82v-.03c0-1.67-1.15-2.85-2.85-2.85h-1.61Z"/>
        </g>
        <g>
          <line class="mobile-cls-7" x1="112.83" y1="293.49" x2="112.83" y2="293.49"/>
          <line class="mobile-cls-9" x1="108.17" y1="293.49" x2="105.83" y2="293.49"/>
          <line class="mobile-cls-7" x1="103.5" y1="293.49" x2="103.5" y2="293.49"/>
        </g>
      </g>
      <g id="_2021_capsule" data-name="2021_capsule">
        <rect class="mobile-cls-1" x="1.5" y="184.14" width="102" height="30" rx="15" ry="15"/>
        <g>
          <path class="mobile-cls-6" d="m38.76,202.14l2.79-2.29c1.04-.86,1.45-1.32,1.45-2.02s-.47-1.09-1.13-1.09-1.09.36-1.71,1.13l-1.3-1.04c.83-1.13,1.63-1.74,3.13-1.74,1.74,0,2.89,1.02,2.89,2.59v.02c0,1.4-.72,2.1-2.21,3.25l-1.37,1.06h3.66v1.6h-6.21v-1.46Z"/>
          <path class="mobile-cls-6" d="m46.29,199.43v-.02c0-2.43,1.51-4.34,3.74-4.34s3.72,1.88,3.72,4.32v.02c0,2.43-1.5,4.34-3.74,4.34s-3.72-1.88-3.72-4.32Zm5.57,0v-.02c0-1.52-.74-2.67-1.85-2.67s-1.82,1.12-1.82,2.65v.02c0,1.54.73,2.67,1.85,2.67s1.82-1.13,1.82-2.65Z"/>
          <path class="mobile-cls-6" d="m54.88,202.14l2.79-2.29c1.04-.86,1.45-1.32,1.45-2.02s-.47-1.09-1.13-1.09-1.09.36-1.71,1.13l-1.3-1.04c.83-1.13,1.63-1.74,3.13-1.74,1.74,0,2.89,1.02,2.89,2.59v.02c0,1.4-.72,2.1-2.21,3.25l-1.37,1.06h3.66v1.6h-6.21v-1.46Z"/>
          <path class="mobile-cls-6" d="m63.9,197.02l-1.46.36-.38-1.51,2.41-.72h1.26v8.46h-1.82v-6.58Z"/>
        </g>
      </g>
      <g id="_2020_capsule" data-name="2020_capsule">
        <rect class="mobile-cls-1" x="1.5" y="92.07" width="102" height="30" rx="15" ry="15"/>
        <g>
          <path class="mobile-cls-6" d="m36.91,110.07l2.79-2.29c1.04-.86,1.45-1.32,1.45-2.02s-.47-1.09-1.13-1.09-1.09.36-1.71,1.13l-1.3-1.04c.83-1.13,1.63-1.74,3.13-1.74,1.74,0,2.89,1.02,2.89,2.59v.02c0,1.4-.72,2.1-2.21,3.25l-1.37,1.06h3.66v1.6h-6.21v-1.46Z"/>
          <path class="mobile-cls-6" d="m44.45,107.36v-.02c0-2.43,1.51-4.34,3.74-4.34s3.72,1.88,3.72,4.32v.02c0,2.43-1.5,4.34-3.74,4.34s-3.72-1.88-3.72-4.32Zm5.57,0v-.02c0-1.52-.74-2.67-1.85-2.67s-1.82,1.12-1.82,2.65v.02c0,1.54.73,2.67,1.85,2.67s1.82-1.13,1.82-2.65Z"/>
          <path class="mobile-cls-6" d="m53.03,110.07l2.79-2.29c1.04-.86,1.45-1.32,1.45-2.02s-.47-1.09-1.13-1.09-1.09.36-1.71,1.13l-1.3-1.04c.83-1.13,1.63-1.74,3.13-1.74,1.74,0,2.89,1.02,2.89,2.59v.02c0,1.4-.72,2.1-2.21,3.25l-1.37,1.06h3.66v1.6h-6.21v-1.46Z"/>
          <path class="mobile-cls-6" d="m60.56,107.36v-.02c0-2.43,1.51-4.34,3.74-4.34s3.72,1.88,3.72,4.32v.02c0,2.43-1.5,4.34-3.74,4.34s-3.72-1.88-3.72-4.32Zm5.57,0v-.02c0-1.52-.74-2.67-1.85-2.67s-1.82,1.12-1.82,2.65v.02c0,1.54.73,2.67,1.85,2.67s1.82-1.13,1.82-2.65Z"/>
        </g>
      </g>
      <g id="_2020_text" data-name="2020_text">
        <g>
          <path class="mobile-cls-5" d="m120.74,48.22h7.2v1.89h-5.12v2.01h4.51v1.89h-4.51v3.66h-2.08v-9.45Z"/>
          <path class="mobile-cls-5" d="m129.42,47.82h2.16v1.82h-2.16v-1.82Zm.05,2.62h2.05v7.24h-2.05v-7.24Z"/>
          <path class="mobile-cls-5" d="m133.45,50.44h2.05v1.46c.42-1,1.09-1.65,2.31-1.59v2.15h-.11c-1.36,0-2.2.82-2.2,2.55v2.67h-2.05v-7.24Z"/>
          <path class="mobile-cls-5" d="m138.53,56.72l.88-1.35c.78.57,1.61.86,2.28.86.59,0,.86-.22.86-.54v-.03c0-.45-.7-.59-1.5-.84-1.01-.3-2.16-.77-2.16-2.17v-.03c0-1.47,1.19-2.3,2.65-2.3.92,0,1.92.31,2.7.84l-.78,1.42c-.72-.42-1.43-.68-1.96-.68s-.76.22-.76.5v.03c0,.41.69.59,1.47.86,1.01.34,2.19.82,2.19,2.15v.03c0,1.61-1.2,2.34-2.77,2.34-1.01,0-2.15-.34-3.11-1.09Z"/>
          <path class="mobile-cls-5" d="m146.07,55.62v-3.43h-.86v-1.76h.86v-1.85h2.05v1.85h1.7v1.76h-1.7v3.09c0,.47.2.7.66.7.38,0,.72-.09,1.01-.26v1.65c-.43.26-.93.42-1.62.42-1.26,0-2.11-.5-2.11-2.17Z"/>
          <path class="mobile-cls-5" d="m155.7,48.22h2.08v9.45h-2.08v-9.45Z"/>
          <path class="mobile-cls-5" d="m160.14,48.22h4.39c1.08,0,1.93.3,2.47.84.43.43.65.96.65,1.61v.03c0,1.07-.57,1.66-1.24,2.04,1.09.42,1.77,1.05,1.77,2.32v.03c0,1.73-1.4,2.59-3.54,2.59h-4.5v-9.45Zm5.44,2.79c0-.62-.49-.97-1.36-.97h-2.05v2h1.92c.92,0,1.5-.3,1.5-1v-.03Zm-1.01,2.75h-2.4v2.08h2.47c.92,0,1.47-.32,1.47-1.03v-.03c0-.63-.47-1.03-1.54-1.03Z"/>
          <path class="mobile-cls-5" d="m169.24,56.3l1.23-1.47c.85.7,1.74,1.15,2.82,1.15.85,0,1.36-.34,1.36-.89v-.03c0-.53-.32-.8-1.9-1.2-1.9-.49-3.13-1.01-3.13-2.89v-.03c0-1.72,1.38-2.85,3.31-2.85,1.38,0,2.55.43,3.51,1.2l-1.08,1.57c-.84-.58-1.66-.93-2.46-.93s-1.21.36-1.21.82v.03c0,.62.41.82,2.04,1.24,1.92.5,3,1.19,3,2.84v.03c0,1.88-1.43,2.93-3.47,2.93-1.43,0-2.88-.5-4.01-1.51Z"/>
          <path class="mobile-cls-5" d="m178.07,52.51h4.16v1.97h-4.16v-1.97Z"/>
          <path class="mobile-cls-5" d="m183.91,47.82h2.05v9.86h-2.05v-9.86Z"/>
          <path class="mobile-cls-5" d="m187.94,47.82h2.16v1.82h-2.16v-1.82Zm.05,2.62h2.05v7.24h-2.05v-7.24Z"/>
          <path class="mobile-cls-5" d="m191.97,47.82h2.05v5.25l2.4-2.63h2.46l-2.75,2.85,2.85,4.39h-2.38l-1.85-2.97-.73.77v2.2h-2.05v-9.86Z"/>
          <path class="mobile-cls-5" d="m199.28,54.1v-.03c0-2.07,1.47-3.77,3.58-3.77,2.42,0,3.52,1.88,3.52,3.93,0,.16-.01.35-.03.54h-5.04c.2.93.85,1.42,1.77,1.42.69,0,1.19-.22,1.76-.74l1.17,1.04c-.67.84-1.65,1.35-2.96,1.35-2.17,0-3.78-1.53-3.78-3.74Zm5.1-.61c-.12-.92-.66-1.54-1.53-1.54s-1.4.61-1.57,1.54h3.09Z"/>
          <path class="mobile-cls-5" d="m119.95,72.92l.88-1.35c.78.57,1.61.86,2.28.86.59,0,.86-.22.86-.54v-.03c0-.45-.7-.59-1.5-.84-1.01-.3-2.16-.77-2.16-2.17v-.03c0-1.47,1.19-2.3,2.65-2.3.92,0,1.92.31,2.7.84l-.78,1.42c-.72-.42-1.43-.68-1.96-.68s-.76.22-.76.5v.03c0,.41.69.59,1.47.86,1.01.34,2.19.82,2.19,2.15v.03c0,1.61-1.2,2.34-2.77,2.34-1.01,0-2.15-.34-3.11-1.09Z"/>
          <path class="mobile-cls-5" d="m131.85,66.64h2.13l-2.78,7.41c-.55,1.47-1.15,2.03-2.38,2.03-.74,0-1.3-.19-1.82-.5l.69-1.49c.27.16.61.28.88.28.35,0,.54-.11.71-.47l-2.83-7.27h2.17l1.65,4.93,1.58-4.93Z"/>
          <path class="mobile-cls-5" d="m135.19,66.64h2.05v1.03c.47-.61,1.09-1.16,2.13-1.16.95,0,1.66.42,2.04,1.15.63-.74,1.39-1.15,2.38-1.15,1.53,0,2.44.92,2.44,2.66v4.71h-2.05v-4.04c0-.97-.43-1.47-1.2-1.47s-1.24.5-1.24,1.47v4.04h-2.05v-4.04c0-.97-.43-1.47-1.2-1.47s-1.24.5-1.24,1.47v4.04h-2.05v-7.24Z"/>
          <path class="mobile-cls-5" d="m148.02,66.64h2.05v1.04c.5-.68,1.19-1.17,2.25-1.17,1.69,0,3.3,1.32,3.3,3.74v.03c0,2.42-1.58,3.74-3.3,3.74-1.09,0-1.77-.5-2.25-1.08v3.11h-2.05v-9.4Zm5.55,3.63v-.03c0-1.2-.81-2-1.77-2s-1.75.8-1.75,2v.03c0,1.2.8,2,1.75,2s1.77-.78,1.77-2Z"/>
          <path class="mobile-cls-5" d="m157.47,71.82v-3.43h-.86v-1.76h.86v-1.85h2.05v1.85h1.7v1.76h-1.7v3.09c0,.47.2.7.66.7.38,0,.72-.09,1.01-.26v1.65c-.43.26-.93.42-1.62.42-1.26,0-2.11-.5-2.11-2.17Z"/>
          <path class="mobile-cls-5" d="m162.18,70.3v-.03c0-2.08,1.67-3.77,3.93-3.77s3.9,1.66,3.9,3.74v.03c0,2.08-1.67,3.77-3.93,3.77s-3.9-1.66-3.9-3.74Zm5.81,0v-.03c0-1.07-.77-2-1.9-2s-1.88.9-1.88,1.97v.03c0,1.07.77,2,1.9,2s1.88-.9,1.88-1.97Z"/>
          <path class="mobile-cls-5" d="m171.49,66.64h2.05v1.03c.47-.61,1.09-1.16,2.13-1.16.95,0,1.66.42,2.04,1.15.63-.74,1.39-1.15,2.38-1.15,1.53,0,2.44.92,2.44,2.66v4.71h-2.05v-4.04c0-.97-.43-1.47-1.2-1.47s-1.24.5-1.24,1.47v4.04h-2.05v-4.04c0-.97-.43-1.47-1.2-1.47s-1.24.5-1.24,1.47v4.04h-2.05v-7.24Z"/>
          <path class="mobile-cls-5" d="m183.75,72.92l.88-1.35c.78.57,1.61.86,2.28.86.59,0,.86-.22.86-.54v-.03c0-.45-.7-.59-1.5-.84-1.01-.3-2.16-.77-2.16-2.17v-.03c0-1.47,1.19-2.3,2.65-2.3.92,0,1.92.31,2.7.84l-.78,1.42c-.72-.42-1.43-.68-1.96-.68s-.76.22-.76.5v.03c0,.41.69.59,1.47.86,1.01.34,2.19.82,2.19,2.15v.03c0,1.61-1.2,2.34-2.77,2.34-1.01,0-2.15-.34-3.11-1.09Z"/>
        </g>
        <g>
          <line class="mobile-cls-7" x1="112.83" y1="61.04" x2="112.83" y2="61.04"/>
          <line class="mobile-cls-8" x1="106.86" y1="61.04" x2="56.12" y2="61.04"/>
          <line class="mobile-cls-7" x1="53.14" y1="61.04" x2="53.14" y2="61.04"/>
        </g>
        <g>
          <path class="mobile-cls-5" d="m121.06,97.42v-.03c0-.97.82-1.76,1.77-1.76s1.77.78,1.77,1.76v.03c0,.97-.8,1.76-1.77,1.76s-1.77-.78-1.77-1.76Z"/>
          <path class="mobile-cls-5" d="m142.44,92.64h1l4.31,9.52h-1.15l-1.11-2.5h-5.15l-1.12,2.5h-1.09l4.31-9.52Zm2.63,6.06l-2.15-4.82-2.16,4.82h4.31Z"/>
          <path class="mobile-cls-5" d="m150.47,100.82v1.34h-1.04v-9.86h1.04v4.28c.57-.84,1.39-1.55,2.67-1.55,1.67,0,3.34,1.32,3.34,3.62v.03c0,2.28-1.65,3.63-3.34,3.63-1.3,0-2.13-.7-2.67-1.49Zm4.94-2.13v-.03c0-1.65-1.13-2.7-2.46-2.7s-2.53,1.09-2.53,2.69v.03c0,1.62,1.23,2.7,2.53,2.7s2.46-1,2.46-2.69Z"/>
          <path class="mobile-cls-5" d="m157.99,98.68v-.03c0-2.28,1.66-3.63,3.34-3.63,1.3,0,2.13.7,2.67,1.49v-4.21h1.04v9.86h-1.04v-1.4c-.57.84-1.39,1.55-2.67,1.55-1.67,0-3.34-1.32-3.34-3.62Zm6.05-.01v-.03c0-1.61-1.23-2.69-2.53-2.69s-2.46,1-2.46,2.69v.03c0,1.65,1.13,2.7,2.46,2.7s2.53-1.09,2.53-2.7Z"/>
          <path class="mobile-cls-5" d="m166.92,98.7v-.03c0-1.97,1.54-3.65,3.65-3.65s3.63,1.65,3.63,3.62v.03c0,1.97-1.55,3.65-3.66,3.65s-3.62-1.65-3.62-3.62Zm6.21,0v-.03c0-1.5-1.12-2.73-2.59-2.73s-2.55,1.23-2.55,2.7v.03c0,1.5,1.11,2.71,2.58,2.71s2.57-1.22,2.57-2.69Z"/>
          <path class="mobile-cls-5" d="m176.08,95.17h1.04v1.17c.46-.69,1.08-1.32,2.26-1.32s1.86.61,2.24,1.39c.5-.77,1.24-1.39,2.46-1.39,1.61,0,2.59,1.08,2.59,2.81v4.32h-1.04v-4.08c0-1.35-.67-2.11-1.81-2.11-1.05,0-1.93.78-1.93,2.16v4.02h-1.03v-4.11c0-1.31-.69-2.08-1.8-2.08s-1.94.92-1.94,2.2v3.98h-1.04v-6.98Z"/>
          <path class="mobile-cls-5" d="m188.9,92.5h1.19v1.15h-1.19v-1.15Zm.07,2.67h1.04v6.98h-1.04v-6.98Z"/>
          <path class="mobile-cls-5" d="m192.42,95.17h1.04v1.21c.46-.76,1.19-1.36,2.39-1.36,1.69,0,2.67,1.13,2.67,2.79v4.33h-1.04v-4.08c0-1.3-.7-2.11-1.93-2.11s-2.09.88-2.09,2.19v4h-1.04v-6.98Z"/>
          <path class="mobile-cls-5" d="m200.21,100.13v-.03c0-1.47,1.22-2.25,2.98-2.25.89,0,1.53.12,2.15.3v-.24c0-1.26-.77-1.9-2.08-1.9-.82,0-1.47.22-2.12.51l-.31-.85c.77-.35,1.53-.58,2.54-.58s1.74.26,2.26.77c.47.47.72,1.15.72,2.04v4.27h-1v-1.05c-.49.63-1.3,1.2-2.52,1.2-1.3,0-2.61-.74-2.61-2.17Zm5.15-.54v-.68c-.51-.15-1.2-.3-2.05-.3-1.31,0-2.04.57-2.04,1.45v.03c0,.88.81,1.39,1.76,1.39,1.28,0,2.34-.78,2.34-1.89Z"/>
          <path class="mobile-cls-5" d="m208.65,92.3h1.04v9.86h-1.04v-9.86Z"/>
          <path class="mobile-cls-5" d="m138.33,114.9v-.03c0-1.97,1.54-3.65,3.58-3.65,1.32,0,2.15.55,2.8,1.24l-.69.73c-.55-.58-1.17-1.05-2.12-1.05-1.42,0-2.5,1.2-2.5,2.7v.03c0,1.51,1.11,2.71,2.57,2.71.89,0,1.58-.45,2.13-1.04l.66.62c-.7.78-1.54,1.35-2.85,1.35-2.04,0-3.58-1.66-3.58-3.62Z"/>
          <path class="mobile-cls-5" d="m146.47,111.37h1.04v1.82c.51-1.16,1.53-2,2.85-1.95v1.12h-.08c-1.53,0-2.77,1.09-2.77,3.2v2.78h-1.04v-6.98Z"/>
          <path class="mobile-cls-5" d="m151.07,116.33v-.03c0-1.47,1.22-2.25,2.98-2.25.89,0,1.53.12,2.15.3v-.24c0-1.26-.77-1.9-2.08-1.9-.82,0-1.47.22-2.12.51l-.31-.85c.77-.35,1.53-.58,2.54-.58s1.74.26,2.26.77c.47.47.72,1.15.72,2.04v4.27h-1v-1.05c-.49.63-1.3,1.2-2.52,1.2-1.3,0-2.61-.74-2.61-2.17Zm5.15-.54v-.68c-.51-.15-1.2-.3-2.05-.3-1.31,0-2.04.57-2.04,1.45v.03c0,.88.81,1.39,1.76,1.39,1.28,0,2.34-.78,2.34-1.89Z"/>
          <path class="mobile-cls-5" d="m159.42,111.37h1.04v1.17c.46-.69,1.08-1.32,2.26-1.32s1.86.61,2.24,1.39c.5-.77,1.24-1.39,2.46-1.39,1.61,0,2.59,1.08,2.59,2.81v4.32h-1.04v-4.08c0-1.35-.67-2.11-1.81-2.11-1.05,0-1.93.78-1.93,2.16v4.02h-1.03v-4.11c0-1.31-.69-2.08-1.8-2.08s-1.94.92-1.94,2.2v3.98h-1.04v-6.98Z"/>
          <path class="mobile-cls-5" d="m172.21,111.37h1.04v1.4c.57-.84,1.39-1.55,2.67-1.55,1.67,0,3.34,1.32,3.34,3.62v.03c0,2.28-1.65,3.63-3.34,3.63-1.3,0-2.13-.7-2.67-1.49v3.5h-1.04v-9.14Zm5.98,3.51v-.03c0-1.65-1.13-2.7-2.46-2.7s-2.53,1.09-2.53,2.69v.03c0,1.62,1.23,2.7,2.53,2.7s2.46-1,2.46-2.69Z"/>
          <path class="mobile-cls-5" d="m181.21,108.7h1.19v1.15h-1.19v-1.15Zm.07,2.67h1.04v6.98h-1.04v-6.98Z"/>
          <path class="mobile-cls-5" d="m184.73,111.37h1.04v1.21c.46-.76,1.19-1.36,2.39-1.36,1.69,0,2.67,1.13,2.67,2.79v4.33h-1.04v-4.08c0-1.3-.7-2.11-1.93-2.11s-2.09.88-2.09,2.19v4h-1.04v-6.98Z"/>
          <path class="mobile-cls-5" d="m192.96,119.57l.47-.81c.8.58,1.69.89,2.69.89,1.54,0,2.54-.85,2.54-2.49v-.82c-.61.81-1.46,1.47-2.74,1.47-1.67,0-3.28-1.26-3.28-3.27v-.03c0-2.04,1.62-3.29,3.28-3.29,1.31,0,2.16.65,2.73,1.4v-1.26h1.04v5.77c0,1.08-.32,1.9-.89,2.47-.62.62-1.55.93-2.66.93-1.16,0-2.24-.32-3.17-.97Zm5.73-5.04v-.03c0-1.43-1.24-2.36-2.57-2.36s-2.42.92-2.42,2.35v.03c0,1.4,1.12,2.38,2.42,2.38s2.57-.96,2.57-2.36Z"/>
          <path class="mobile-cls-5" d="m205.53,116.33v-.03c0-1.47,1.22-2.25,2.98-2.25.89,0,1.53.12,2.15.3v-.24c0-1.26-.77-1.9-2.08-1.9-.82,0-1.47.22-2.12.51l-.31-.85c.77-.35,1.53-.58,2.54-.58s1.74.26,2.26.77c.47.47.72,1.15.72,2.04v4.27h-1v-1.05c-.49.63-1.3,1.2-2.52,1.2-1.3,0-2.61-.74-2.61-2.17Zm5.15-.54v-.68c-.51-.15-1.2-.3-2.05-.3-1.31,0-2.04.57-2.04,1.45v.03c0,.88.81,1.39,1.76,1.39,1.28,0,2.34-.78,2.34-1.89Z"/>
          <path class="mobile-cls-5" d="m213.87,111.37h1.04v1.21c.46-.76,1.19-1.36,2.39-1.36,1.69,0,2.67,1.13,2.67,2.79v4.33h-1.04v-4.08c0-1.3-.7-2.11-1.93-2.11s-2.09.88-2.09,2.19v4h-1.04v-6.98Z"/>
          <path class="mobile-cls-5" d="m221.79,114.89v-.03c0-2.28,1.66-3.63,3.34-3.63,1.3,0,2.13.7,2.67,1.49v-4.21h1.04v9.86h-1.04v-1.4c-.57.84-1.39,1.55-2.67,1.55-1.67,0-3.34-1.32-3.34-3.62Zm6.05-.01v-.03c0-1.61-1.23-2.69-2.53-2.69s-2.46,1-2.46,2.69v.03c0,1.65,1.13,2.7,2.46,2.7s2.53-1.09,2.53-2.7Z"/>
          <path class="mobile-cls-5" d="m138.36,131.09v-.03c0-2.28,1.66-3.63,3.34-3.63,1.3,0,2.13.7,2.67,1.49v-4.21h1.04v9.86h-1.04v-1.4c-.57.84-1.39,1.55-2.67,1.55-1.67,0-3.34-1.32-3.34-3.62Zm6.05-.01v-.03c0-1.61-1.23-2.69-2.53-2.69s-2.46,1-2.46,2.69v.03c0,1.65,1.13,2.7,2.46,2.7s2.53-1.09,2.53-2.7Z"/>
          <path class="mobile-cls-5" d="m147.75,124.9h1.19v1.15h-1.19v-1.15Zm.07,2.67h1.04v6.98h-1.04v-6.98Z"/>
          <path class="mobile-cls-5" d="m150.7,133.66l.53-.74c.76.57,1.59.89,2.42.89s1.45-.43,1.45-1.11v-.03c0-.7-.82-.97-1.74-1.23-1.09-.31-2.31-.69-2.31-1.97v-.03c0-1.2,1-2,2.38-2,.85,0,1.8.3,2.51.77l-.47.78c-.65-.42-1.39-.68-2.07-.68-.82,0-1.35.43-1.35,1.01v.03c0,.66.86.92,1.8,1.2,1.08.32,2.24.74,2.24,2v.03c0,1.32-1.09,2.09-2.48,2.09-1,0-2.11-.39-2.89-1.03Z"/>
          <path class="mobile-cls-5" d="m158.23,132.71v-4.21h-.97v-.92h.97v-2.11h1.04v2.11h2.21v.92h-2.21v4.08c0,.85.47,1.16,1.17,1.16.35,0,.65-.07,1.01-.24v.89c-.36.19-.76.3-1.26.3-1.12,0-1.97-.55-1.97-1.97Z"/>
          <path class="mobile-cls-5" d="m162.68,131.09v-.03c0-2.01,1.42-3.63,3.35-3.63,2.07,0,3.25,1.65,3.25,3.69,0,.13,0,.22-.01.34h-5.54c.15,1.51,1.22,2.36,2.46,2.36.96,0,1.63-.39,2.2-.99l.65.58c-.7.78-1.55,1.31-2.88,1.31-1.92,0-3.48-1.47-3.48-3.63Zm5.55-.41c-.11-1.27-.84-2.38-2.23-2.38-1.22,0-2.13,1.01-2.27,2.38h4.5Z"/>
          <path class="mobile-cls-5" d="m171.11,127.57h1.04v1.21c.46-.76,1.19-1.36,2.39-1.36,1.69,0,2.67,1.13,2.67,2.79v4.33h-1.04v-4.08c0-1.3-.7-2.11-1.93-2.11s-2.09.88-2.09,2.19v4h-1.04v-6.98Z"/>
          <path class="mobile-cls-5" d="m179.79,132.71v-4.21h-.97v-.92h.97v-2.11h1.04v2.11h2.21v.92h-2.21v4.08c0,.85.47,1.16,1.17,1.16.35,0,.65-.07,1.01-.24v.89c-.36.19-.76.3-1.26.3-1.12,0-1.97-.55-1.97-1.97Z"/>
          <path class="mobile-cls-5" d="m184.9,124.9h1.19v1.15h-1.19v-1.15Zm.07,2.67h1.04v6.98h-1.04v-6.98Z"/>
          <path class="mobile-cls-5" d="m188,131.1v-.03c0-1.97,1.54-3.65,3.65-3.65s3.63,1.65,3.63,3.62v.03c0,1.97-1.55,3.65-3.66,3.65s-3.62-1.65-3.62-3.62Zm6.21,0v-.03c0-1.5-1.12-2.73-2.59-2.73s-2.55,1.23-2.55,2.7v.03c0,1.5,1.11,2.71,2.58,2.71s2.57-1.22,2.57-2.69Z"/>
          <path class="mobile-cls-5" d="m197.15,127.57h1.04v1.21c.46-.76,1.19-1.36,2.39-1.36,1.69,0,2.67,1.13,2.67,2.79v4.33h-1.04v-4.08c0-1.3-.7-2.11-1.93-2.11s-2.09.88-2.09,2.19v4h-1.04v-6.98Z"/>
          <path class="mobile-cls-5" d="m121.06,146.02v-.03c0-.97.82-1.76,1.77-1.76s1.77.78,1.77,1.76v.03c0,.97-.8,1.76-1.77,1.76s-1.77-.78-1.77-1.76Z"/>
          <path class="mobile-cls-5" d="m142.44,141.24h1l4.31,9.52h-1.15l-1.11-2.5h-5.15l-1.12,2.5h-1.09l4.31-9.52Zm2.63,6.06l-2.15-4.82-2.16,4.82h4.31Z"/>
          <path class="mobile-cls-5" d="m149.52,140.9h1.04v9.86h-1.04v-9.86Z"/>
          <path class="mobile-cls-5" d="m153.34,148.91v-4.21h-.97v-.92h.97v-2.11h1.04v2.11h2.21v.92h-2.21v4.08c0,.85.47,1.16,1.17,1.16.35,0,.65-.07,1.01-.24v.89c-.36.19-.76.3-1.26.3-1.12,0-1.97-.55-1.97-1.97Z"/>
          <path class="mobile-cls-5" d="m157.8,147.29v-.03c0-2.01,1.42-3.63,3.35-3.63,2.07,0,3.25,1.65,3.25,3.69,0,.13,0,.22-.01.34h-5.54c.15,1.51,1.22,2.36,2.46,2.36.96,0,1.63-.39,2.2-.99l.65.58c-.7.78-1.55,1.31-2.88,1.31-1.92,0-3.48-1.47-3.48-3.63Zm5.55-.41c-.11-1.27-.84-2.38-2.23-2.38-1.22,0-2.13,1.01-2.27,2.38h4.5Z"/>
          <path class="mobile-cls-5" d="m166.22,143.77h1.04v1.82c.51-1.16,1.53-2,2.85-1.95v1.12h-.08c-1.53,0-2.77,1.09-2.77,3.2v2.78h-1.04v-6.98Z"/>
          <path class="mobile-cls-5" d="m171.69,143.77h1.04v1.21c.46-.76,1.19-1.36,2.39-1.36,1.69,0,2.67,1.13,2.67,2.79v4.33h-1.04v-4.08c0-1.3-.7-2.11-1.93-2.11s-2.09.88-2.09,2.19v4h-1.04v-6.98Z"/>
          <path class="mobile-cls-5" d="m179.48,148.73v-.03c0-1.47,1.22-2.25,2.98-2.25.89,0,1.53.12,2.15.3v-.24c0-1.26-.77-1.9-2.08-1.9-.82,0-1.47.22-2.12.51l-.31-.85c.77-.35,1.53-.58,2.54-.58s1.74.26,2.26.77c.47.47.72,1.15.72,2.04v4.27h-1v-1.05c-.49.63-1.3,1.2-2.52,1.2-1.3,0-2.61-.74-2.61-2.17Zm5.15-.54v-.68c-.51-.15-1.2-.3-2.05-.3-1.31,0-2.04.57-2.04,1.45v.03c0,.88.81,1.39,1.76,1.39,1.28,0,2.34-.78,2.34-1.89Z"/>
          <path class="mobile-cls-5" d="m188.12,148.91v-4.21h-.97v-.92h.97v-2.11h1.04v2.11h2.21v.92h-2.21v4.08c0,.85.47,1.16,1.17,1.16.35,0,.65-.07,1.01-.24v.89c-.36.19-.76.3-1.26.3-1.12,0-1.97-.55-1.97-1.97Z"/>
          <path class="mobile-cls-5" d="m193.23,141.1h1.19v1.15h-1.19v-1.15Zm.07,2.67h1.04v6.98h-1.04v-6.98Z"/>
          <path class="mobile-cls-5" d="m196.76,143.77h1.04v1.21c.46-.76,1.19-1.36,2.39-1.36,1.69,0,2.67,1.13,2.67,2.79v4.33h-1.04v-4.08c0-1.3-.7-2.11-1.93-2.11s-2.09.88-2.09,2.19v4h-1.04v-6.98Z"/>
          <path class="mobile-cls-5" d="m204.99,151.97l.47-.81c.8.58,1.69.89,2.69.89,1.54,0,2.54-.85,2.54-2.49v-.82c-.61.81-1.46,1.47-2.74,1.47-1.67,0-3.28-1.26-3.28-3.27v-.03c0-2.04,1.62-3.29,3.28-3.29,1.31,0,2.16.65,2.73,1.4v-1.26h1.04v5.77c0,1.08-.32,1.9-.89,2.47-.62.62-1.55.93-2.66.93-1.16,0-2.24-.32-3.17-.97Zm5.73-5.04v-.03c0-1.43-1.24-2.36-2.57-2.36s-2.42.92-2.42,2.35v.03c0,1.4,1.12,2.38,2.42,2.38s2.57-.96,2.57-2.36Z"/>
          <path class="mobile-cls-5" d="m217.49,143.77h1.11l1.84,5.6,1.88-5.63h.86l1.89,5.63,1.84-5.6h1.08l-2.46,7.04h-.9l-1.88-5.51-1.89,5.51h-.92l-2.44-7.04Z"/>
          <path class="mobile-cls-5" d="m228.91,148.73v-.03c0-1.47,1.22-2.25,2.98-2.25.89,0,1.53.12,2.15.3v-.24c0-1.26-.77-1.9-2.08-1.9-.82,0-1.47.22-2.12.51l-.31-.85c.77-.35,1.53-.58,2.54-.58s1.74.26,2.26.77c.47.47.72,1.15.72,2.04v4.27h-1v-1.05c-.49.63-1.3,1.2-2.53,1.2-1.3,0-2.61-.74-2.61-2.17Zm5.15-.54v-.68c-.51-.15-1.2-.3-2.05-.3-1.31,0-2.04.57-2.04,1.45v.03c0,.88.81,1.39,1.76,1.39,1.28,0,2.34-.78,2.34-1.89Z"/>
          <path class="mobile-cls-5" d="m237.55,148.91v-4.21h-.97v-.92h.97v-2.11h1.04v2.11h2.21v.92h-2.21v4.08c0,.85.47,1.16,1.17,1.16.35,0,.65-.07,1.01-.24v.89c-.36.19-.76.3-1.26.3-1.12,0-1.97-.55-1.97-1.97Z"/>
          <path class="mobile-cls-5" d="m242.01,147.29v-.03c0-2.01,1.42-3.63,3.35-3.63,2.07,0,3.25,1.65,3.25,3.69,0,.13,0,.22-.01.34h-5.54c.15,1.51,1.21,2.36,2.46,2.36.96,0,1.63-.39,2.2-.99l.65.58c-.7.78-1.55,1.31-2.88,1.31-1.92,0-3.48-1.47-3.48-3.63Zm5.55-.41c-.11-1.27-.84-2.38-2.23-2.38-1.22,0-2.13,1.01-2.27,2.38h4.5Z"/>
          <path class="mobile-cls-5" d="m250.43,143.77h1.04v1.82c.51-1.16,1.53-2,2.85-1.95v1.12h-.08c-1.53,0-2.77,1.09-2.77,3.2v2.78h-1.04v-6.98Z"/>
          <path class="mobile-cls-5" d="m261.13,143.77h1.11l-2.93,7.21c-.59,1.45-1.27,1.97-2.32,1.97-.58,0-1.01-.12-1.49-.35l.35-.82c.34.18.65.26,1.09.26.62,0,1.01-.32,1.43-1.31l-3.17-6.95h1.15l2.54,5.82,2.24-5.82Z"/>
          <path class="mobile-cls-5" d="m138.36,163.49v-.03c0-2.28,1.66-3.63,3.34-3.63,1.3,0,2.13.7,2.67,1.49v-4.21h1.04v9.86h-1.04v-1.4c-.57.84-1.39,1.55-2.67,1.55-1.67,0-3.34-1.32-3.34-3.62Zm6.05-.01v-.03c0-1.61-1.23-2.69-2.53-2.69s-2.46,1-2.46,2.69v.03c0,1.65,1.13,2.7,2.46,2.7s2.53-1.09,2.53-2.7Z"/>
          <path class="mobile-cls-5" d="m147.75,157.3h1.19v1.15h-1.19v-1.15Zm.07,2.67h1.04v6.98h-1.04v-6.98Z"/>
          <path class="mobile-cls-5" d="m150.75,164.93v-.03c0-1.47,1.22-2.25,2.98-2.25.89,0,1.53.12,2.15.3v-.24c0-1.26-.77-1.9-2.08-1.9-.82,0-1.47.22-2.12.51l-.31-.85c.77-.35,1.53-.58,2.54-.58s1.74.26,2.26.77c.47.47.72,1.15.72,2.04v4.27h-1v-1.05c-.49.63-1.3,1.2-2.52,1.2-1.3,0-2.61-.74-2.61-2.17Zm5.15-.54v-.68c-.51-.15-1.2-.3-2.05-.3-1.31,0-2.04.57-2.04,1.45v.03c0,.88.81,1.39,1.76,1.39,1.28,0,2.34-.78,2.34-1.89Z"/>
          <path class="mobile-cls-5" d="m159.09,159.97h1.04v1.82c.51-1.16,1.53-2,2.85-1.95v1.12h-.08c-1.53,0-2.77,1.09-2.77,3.2v2.78h-1.04v-6.98Z"/>
          <path class="mobile-cls-5" d="m164.56,159.97h1.04v1.82c.51-1.16,1.53-2,2.85-1.95v1.12h-.08c-1.53,0-2.77,1.09-2.77,3.2v2.78h-1.04v-6.98Z"/>
          <path class="mobile-cls-5" d="m170.03,157.1h1.04v4.09c.46-.76,1.19-1.36,2.39-1.36,1.69,0,2.67,1.13,2.67,2.79v4.33h-1.04v-4.08c0-1.3-.7-2.11-1.93-2.11s-2.09.88-2.09,2.19v4h-1.04v-9.86Z"/>
          <path class="mobile-cls-5" d="m177.91,163.5v-.03c0-1.97,1.54-3.65,3.65-3.65s3.63,1.65,3.63,3.62v.03c0,1.97-1.55,3.65-3.66,3.65s-3.62-1.65-3.62-3.62Zm6.21,0v-.03c0-1.5-1.12-2.73-2.59-2.73s-2.55,1.23-2.55,2.7v.03c0,1.5,1.11,2.71,2.58,2.71s2.57-1.22,2.57-2.69Z"/>
          <path class="mobile-cls-5" d="m186.63,163.49v-.03c0-2.01,1.42-3.63,3.35-3.63,2.07,0,3.25,1.65,3.25,3.69,0,.13,0,.22-.01.34h-5.54c.15,1.51,1.22,2.36,2.46,2.36.96,0,1.63-.39,2.2-.99l.65.58c-.7.78-1.55,1.31-2.88,1.31-1.92,0-3.48-1.47-3.48-3.63Zm5.55-.41c-.11-1.27-.84-2.38-2.23-2.38-1.22,0-2.13,1.01-2.27,2.38h4.5Z"/>
          <path class="mobile-cls-5" d="m194.53,164.93v-.03c0-1.47,1.22-2.25,2.98-2.25.89,0,1.53.12,2.15.3v-.24c0-1.26-.77-1.9-2.08-1.9-.82,0-1.47.22-2.12.51l-.31-.85c.77-.35,1.53-.58,2.54-.58s1.74.26,2.26.77c.47.47.72,1.15.72,2.04v4.27h-1v-1.05c-.49.63-1.3,1.2-2.53,1.2-1.3,0-2.61-.74-2.61-2.17Zm5.15-.54v-.68c-.51-.15-1.2-.3-2.05-.3-1.31,0-2.04.57-2.04,1.45v.03c0,.88.81,1.39,1.76,1.39,1.28,0,2.34-.78,2.34-1.89Z"/>
          <path class="mobile-cls-5" d="m138.52,179.28c0-2.48,1.34-4.43,3.74-5.78l.45.69c-2.05,1.31-3.13,2.93-3.13,5.09s1.08,3.78,3.13,5.09l-.45.69c-2.4-1.35-3.74-3.29-3.74-5.78Z"/>
          <path class="mobile-cls-5" d="m146.62,179.55c-.31-.13-.62-.27-.84-.27-.35,0-.5.18-.7.68l-.63-.18c.27-1.03.63-1.43,1.28-1.43.31,0,.63.13.97.28.3.13.61.27.84.27.35,0,.5-.18.7-.67l.62.18c-.27,1.03-.62,1.43-1.27,1.43-.31,0-.63-.13-.97-.28Z"/>
          <path class="mobile-cls-5" d="m151.86,182.36c-.76-.76-1.19-1.73-1.19-3.66v-.03c0-2.88,1.46-5.13,3.93-5.13,1.13,0,1.97.41,2.8,1.08l-.62.82c-.7-.59-1.36-.93-2.23-.93-1.82,0-2.78,1.92-2.78,4.05v.14c.62-.91,1.47-1.46,2.7-1.46,1.76,0,3.27,1.13,3.27,2.9v.03c0,1.82-1.47,3.15-3.39,3.15-1.04,0-1.89-.36-2.48-.96Zm4.78-2.15v-.03c0-1.16-.95-2.03-2.31-2.03s-2.36,1.01-2.36,2.07v.03c0,1.2,1,2.12,2.39,2.12s2.28-.96,2.28-2.16Z"/>
          <path class="mobile-cls-5" d="m164.16,181.31v-4.21h-.97v-.92h.97v-2.11h1.04v2.11h2.21v.92h-2.21v4.08c0,.85.47,1.16,1.17,1.16.35,0,.65-.07,1.01-.24v.89c-.36.19-.76.3-1.26.3-1.12,0-1.97-.55-1.97-1.97Z"/>
          <path class="mobile-cls-5" d="m169.27,173.5h1.19v1.15h-1.19v-1.15Zm.07,2.67h1.04v6.98h-1.04v-6.98Z"/>
          <path class="mobile-cls-5" d="m172.79,176.17h1.04v1.17c.46-.69,1.08-1.32,2.26-1.32s1.86.61,2.24,1.39c.5-.77,1.24-1.39,2.46-1.39,1.61,0,2.59,1.08,2.59,2.81v4.32h-1.04v-4.08c0-1.35-.67-2.11-1.81-2.11-1.05,0-1.93.78-1.93,2.16v4.02h-1.03v-4.11c0-1.31-.69-2.08-1.8-2.08s-1.94.92-1.94,2.2v3.98h-1.04v-6.98Z"/>
          <path class="mobile-cls-5" d="m185.16,179.68v-.03c0-2.01,1.42-3.63,3.35-3.63,2.07,0,3.25,1.65,3.25,3.69,0,.13,0,.22-.01.34h-5.54c.15,1.51,1.22,2.36,2.46,2.36.96,0,1.63-.39,2.2-.99l.65.58c-.7.78-1.55,1.31-2.88,1.31-1.92,0-3.48-1.47-3.48-3.63Zm5.55-.41c-.11-1.27-.84-2.38-2.23-2.38-1.22,0-2.13,1.01-2.27,2.38h4.5Z"/>
          <path class="mobile-cls-5" d="m193,182.26l.53-.74c.76.57,1.59.89,2.42.89s1.44-.43,1.44-1.11v-.03c0-.7-.82-.97-1.74-1.23-1.09-.31-2.31-.69-2.31-1.97v-.03c0-1.2,1-2,2.38-2,.85,0,1.8.3,2.51.77l-.47.78c-.65-.42-1.39-.68-2.07-.68-.82,0-1.35.43-1.35,1.01v.03c0,.66.86.92,1.8,1.2,1.08.32,2.24.74,2.24,2v.03c0,1.32-1.09,2.09-2.48,2.09-1,0-2.11-.39-2.89-1.03Z"/>
          <path class="mobile-cls-5" d="m205.13,172.38h.96l-6.27,12.5h-.96l6.27-12.5Z"/>
          <path class="mobile-cls-5" d="m205.82,179.68v-.03c0-2.28,1.66-3.63,3.34-3.63,1.3,0,2.13.7,2.67,1.49v-4.21h1.04v9.86h-1.04v-1.4c-.57.84-1.39,1.55-2.67,1.55-1.67,0-3.34-1.32-3.34-3.62Zm6.05-.01v-.03c0-1.61-1.23-2.69-2.53-2.69s-2.46,1-2.46,2.69v.03c0,1.65,1.13,2.7,2.46,2.7s2.53-1.09,2.53-2.7Z"/>
          <path class="mobile-cls-5" d="m214.66,181.13v-.03c0-1.47,1.22-2.25,2.98-2.25.89,0,1.53.12,2.15.3v-.24c0-1.26-.77-1.9-2.08-1.9-.82,0-1.47.22-2.12.51l-.31-.85c.77-.35,1.53-.58,2.54-.58s1.74.26,2.26.77c.47.47.72,1.15.72,2.04v4.27h-1v-1.05c-.49.63-1.3,1.2-2.53,1.2-1.3,0-2.61-.74-2.61-2.17Zm5.15-.54v-.68c-.51-.15-1.2-.3-2.05-.3-1.31,0-2.04.57-2.04,1.45v.03c0,.88.81,1.39,1.76,1.39,1.28,0,2.34-.78,2.34-1.89Z"/>
          <path class="mobile-cls-5" d="m227.96,176.17h1.11l-2.93,7.21c-.59,1.45-1.27,1.97-2.32,1.97-.58,0-1.01-.12-1.49-.35l.35-.82c.34.18.65.26,1.09.26.62,0,1.01-.32,1.43-1.31l-3.17-6.95h1.15l2.54,5.82,2.24-5.82Z"/>
          <path class="mobile-cls-5" d="m230.3,184.37c2.05-1.31,3.13-2.93,3.13-5.09s-1.08-3.78-3.13-5.09l.45-.69c2.4,1.35,3.74,3.29,3.74,5.78s-1.34,4.43-3.74,5.78l-.45-.69Z"/>
          <path class="mobile-cls-5" d="m138.24,197.33v-.03c0-1.47,1.22-2.25,2.98-2.25.89,0,1.53.12,2.15.3v-.24c0-1.26-.77-1.9-2.08-1.9-.82,0-1.47.22-2.12.51l-.31-.85c.77-.35,1.53-.58,2.54-.58s1.74.26,2.26.77c.47.47.72,1.15.72,2.04v4.27h-1v-1.05c-.49.63-1.3,1.2-2.53,1.2-1.3,0-2.61-.74-2.61-2.17Zm5.15-.54v-.68c-.51-.15-1.2-.3-2.05-.3-1.31,0-2.04.57-2.04,1.45v.03c0,.88.81,1.39,1.76,1.39,1.28,0,2.34-.78,2.34-1.89Z"/>
          <path class="mobile-cls-5" d="m146.58,192.37h1.04v1.21c.46-.76,1.19-1.36,2.39-1.36,1.69,0,2.67,1.13,2.67,2.79v4.33h-1.04v-4.08c0-1.3-.7-2.11-1.93-2.11s-2.09.88-2.09,2.19v4h-1.04v-6.98Z"/>
          <path class="mobile-cls-5" d="m154.49,195.89v-.03c0-2.28,1.66-3.63,3.34-3.63,1.3,0,2.13.7,2.67,1.49v-4.21h1.04v9.86h-1.04v-1.4c-.57.84-1.39,1.55-2.67,1.55-1.67,0-3.34-1.32-3.34-3.62Zm6.05-.01v-.03c0-1.61-1.23-2.69-2.53-2.69s-2.46,1-2.46,2.69v.03c0,1.65,1.13,2.7,2.46,2.7s2.53-1.09,2.53-2.7Z"/>
          <path class="mobile-cls-5" d="m167.48,195.9v-.03c0-1.97,1.54-3.65,3.58-3.65,1.32,0,2.15.55,2.8,1.24l-.69.73c-.55-.58-1.17-1.05-2.12-1.05-1.42,0-2.5,1.2-2.5,2.7v.03c0,1.51,1.11,2.71,2.57,2.71.89,0,1.58-.45,2.13-1.04l.66.62c-.7.78-1.54,1.35-2.85,1.35-2.04,0-3.58-1.66-3.58-3.62Z"/>
          <path class="mobile-cls-5" d="m174.98,195.9v-.03c0-1.97,1.54-3.65,3.65-3.65s3.63,1.65,3.63,3.62v.03c0,1.97-1.55,3.65-3.66,3.65s-3.62-1.65-3.62-3.62Zm6.21,0v-.03c0-1.5-1.12-2.73-2.59-2.73s-2.55,1.23-2.55,2.7v.03c0,1.5,1.11,2.71,2.58,2.71s2.57-1.22,2.57-2.69Z"/>
          <path class="mobile-cls-5" d="m184.14,192.37h1.04v1.21c.46-.76,1.19-1.36,2.39-1.36,1.69,0,2.67,1.13,2.67,2.79v4.33h-1.04v-4.08c0-1.3-.7-2.11-1.93-2.11s-2.09.88-2.09,2.19v4h-1.04v-6.98Z"/>
          <path class="mobile-cls-5" d="m191.87,198.46l.53-.74c.76.57,1.59.89,2.42.89s1.45-.43,1.45-1.11v-.03c0-.7-.82-.97-1.74-1.23-1.09-.31-2.31-.69-2.31-1.97v-.03c0-1.2,1-2,2.38-2,.85,0,1.8.3,2.51.77l-.47.78c-.65-.42-1.39-.68-2.07-.68-.82,0-1.35.43-1.35,1.01v.03c0,.66.86.92,1.8,1.2,1.08.32,2.24.74,2.24,2v.03c0,1.32-1.09,2.09-2.48,2.09-1,0-2.11-.39-2.89-1.03Z"/>
          <path class="mobile-cls-5" d="m199.4,197.51v-4.21h-.97v-.92h.97v-2.11h1.04v2.11h2.21v.92h-2.21v4.08c0,.85.47,1.16,1.17,1.16.35,0,.65-.07,1.01-.24v.89c-.36.19-.76.3-1.26.3-1.12,0-1.97-.55-1.97-1.97Z"/>
          <path class="mobile-cls-5" d="m204.52,189.7h1.19v1.15h-1.19v-1.15Zm.07,2.67h1.04v6.98h-1.04v-6.98Z"/>
          <path class="mobile-cls-5" d="m208.04,192.37h1.04v1.4c.57-.84,1.39-1.55,2.67-1.55,1.67,0,3.34,1.32,3.34,3.62v.03c0,2.28-1.65,3.63-3.34,3.63-1.3,0-2.13-.7-2.67-1.49v3.5h-1.04v-9.14Zm5.98,3.51v-.03c0-1.65-1.13-2.7-2.46-2.7s-2.53,1.09-2.53,2.69v.03c0,1.62,1.23,2.7,2.53,2.7s2.46-1,2.46-2.69Z"/>
          <path class="mobile-cls-5" d="m216.48,197.33v-.03c0-1.47,1.22-2.25,2.98-2.25.89,0,1.53.12,2.15.3v-.24c0-1.26-.77-1.9-2.08-1.9-.82,0-1.47.22-2.12.51l-.31-.85c.77-.35,1.53-.58,2.54-.58s1.74.26,2.26.77c.47.47.72,1.15.72,2.04v4.27h-1v-1.05c-.49.63-1.3,1.2-2.53,1.2-1.3,0-2.61-.74-2.61-2.17Zm5.15-.54v-.68c-.51-.15-1.2-.3-2.05-.3-1.31,0-2.04.57-2.04,1.45v.03c0,.88.81,1.39,1.76,1.39,1.28,0,2.34-.78,2.34-1.89Z"/>
          <path class="mobile-cls-5" d="m225.12,197.51v-4.21h-.97v-.92h.97v-2.11h1.04v2.11h2.21v.92h-2.21v4.08c0,.85.47,1.16,1.17,1.16.35,0,.65-.07,1.01-.24v.89c-.36.19-.76.3-1.26.3-1.12,0-1.97-.55-1.97-1.97Z"/>
          <path class="mobile-cls-5" d="m230.24,189.7h1.19v1.15h-1.19v-1.15Zm.07,2.67h1.04v6.98h-1.04v-6.98Z"/>
          <path class="mobile-cls-5" d="m233.33,195.9v-.03c0-1.97,1.54-3.65,3.65-3.65s3.63,1.65,3.63,3.62v.03c0,1.97-1.55,3.65-3.66,3.65s-3.62-1.65-3.62-3.62Zm6.21,0v-.03c0-1.5-1.12-2.73-2.59-2.73s-2.55,1.23-2.55,2.7v.03c0,1.5,1.11,2.71,2.58,2.71s2.57-1.22,2.57-2.69Z"/>
          <path class="mobile-cls-5" d="m242.48,192.37h1.04v1.21c.46-.76,1.19-1.36,2.39-1.36,1.69,0,2.67,1.13,2.67,2.79v4.33h-1.04v-4.08c0-1.3-.7-2.11-1.93-2.11s-2.09.88-2.09,2.19v4h-1.04v-6.98Z"/>
          <path class="mobile-cls-5" d="m121.06,210.82v-.03c0-.97.82-1.76,1.77-1.76s1.77.78,1.77,1.76v.03c0,.97-.8,1.76-1.77,1.76s-1.77-.78-1.77-1.76Z"/>
          <path class="mobile-cls-5" d="m138.94,206.1h6.79v.99h-5.73v3.38h5.12v.97h-5.12v4.12h-1.07v-9.45Z"/>
          <path class="mobile-cls-5" d="m146.75,213.53v-.03c0-1.47,1.22-2.25,2.98-2.25.89,0,1.53.12,2.15.3v-.24c0-1.26-.77-1.9-2.08-1.9-.82,0-1.47.22-2.12.51l-.31-.85c.77-.35,1.53-.58,2.54-.58s1.74.26,2.26.77c.47.47.72,1.15.72,2.04v4.27h-1v-1.05c-.49.63-1.3,1.2-2.53,1.2-1.3,0-2.61-.74-2.61-2.17Zm5.15-.54v-.68c-.51-.15-1.2-.3-2.05-.3-1.31,0-2.04.57-2.04,1.45v.03c0,.88.81,1.39,1.76,1.39,1.28,0,2.34-.78,2.34-1.89Z"/>
          <path class="mobile-cls-5" d="m155.39,213.71v-4.21h-.97v-.92h.97v-2.11h1.04v2.11h2.21v.92h-2.21v4.08c0,.85.47,1.16,1.17,1.16.35,0,.65-.07,1.01-.24v.89c-.36.19-.76.3-1.26.3-1.12,0-1.97-.55-1.97-1.97Z"/>
          <path class="mobile-cls-5" d="m160.51,205.9h1.19v1.15h-1.19v-1.15Zm.07,2.67h1.04v6.98h-1.04v-6.98Z"/>
          <path class="mobile-cls-5" d="m163.95,216.77l.47-.81c.8.58,1.69.89,2.69.89,1.54,0,2.54-.85,2.54-2.48v-.82c-.61.81-1.46,1.47-2.74,1.47-1.67,0-3.28-1.26-3.28-3.27v-.03c0-2.04,1.62-3.29,3.28-3.29,1.31,0,2.16.65,2.73,1.4v-1.26h1.04v5.77c0,1.08-.32,1.9-.89,2.47-.62.62-1.55.93-2.66.93-1.16,0-2.24-.32-3.17-.97Zm5.73-5.04v-.03c0-1.43-1.24-2.36-2.57-2.36s-2.42.92-2.42,2.35v.03c0,1.4,1.12,2.38,2.42,2.38s2.57-.96,2.57-2.36Z"/>
          <path class="mobile-cls-5" d="m172.89,212.91v-4.33h1.04v4.08c0,1.3.7,2.11,1.93,2.11s2.09-.88,2.09-2.19v-4h1.03v6.98h-1.03v-1.22c-.47.76-1.19,1.36-2.39,1.36-1.69,0-2.67-1.13-2.67-2.79Z"/>
          <path class="mobile-cls-5" d="m180.88,212.09v-.03c0-2.01,1.42-3.63,3.35-3.63,2.07,0,3.25,1.65,3.25,3.69,0,.13,0,.22-.01.34h-5.54c.15,1.51,1.22,2.36,2.46,2.36.96,0,1.63-.39,2.2-.99l.65.58c-.7.78-1.55,1.31-2.88,1.31-1.92,0-3.48-1.47-3.48-3.63Zm5.55-.41c-.11-1.27-.84-2.38-2.23-2.38-1.22,0-2.13,1.01-2.27,2.38h4.5Z"/>
        </g>
      </g>
      <g id="_2019" data-name="2019">
        <rect class="mobile-cls-1" x="1.5" y="0" width="102" height="30" rx="15" ry="15"/>
        <g>
          <path class="mobile-cls-6" d="m38.5,18l2.79-2.29c1.04-.86,1.45-1.32,1.45-2.02s-.47-1.09-1.13-1.09-1.09.36-1.71,1.13l-1.3-1.04c.83-1.13,1.63-1.74,3.13-1.74,1.74,0,2.89,1.02,2.89,2.59v.02c0,1.4-.72,2.1-2.21,3.25l-1.37,1.06h3.66v1.6h-6.21v-1.46Z"/>
          <path class="mobile-cls-6" d="m46.03,15.29v-.02c0-2.43,1.51-4.34,3.74-4.34s3.72,1.88,3.72,4.32v.02c0,2.43-1.5,4.34-3.74,4.34s-3.72-1.88-3.72-4.32Zm5.57,0v-.02c0-1.52-.74-2.67-1.85-2.67s-1.82,1.12-1.82,2.65v.02c0,1.54.73,2.67,1.85,2.67s1.82-1.13,1.82-2.65Z"/>
          <path class="mobile-cls-6" d="m56.22,12.88l-1.46.36-.38-1.51,2.41-.72h1.26v8.46h-1.82v-6.58Z"/>
          <path class="mobile-cls-6" d="m64.52,16.02c-.43.36-.98.58-1.7.58-1.82,0-3-1.01-3-2.71v-.02c0-1.69,1.31-2.94,3.2-2.94,1.13,0,1.79.28,2.42.91.6.6,1,1.51,1,3.17v.02c0,2.72-1.28,4.58-3.67,4.58-1.22,0-2.05-.41-2.76-1l.97-1.4c.61.49,1.13.72,1.83.72,1.27,0,1.63-1.19,1.7-1.91Zm.04-2.21v-.02c0-.74-.55-1.28-1.48-1.28s-1.43.53-1.43,1.27v.02c0,.74.55,1.26,1.46,1.26s1.44-.53,1.44-1.25Z"/>
        </g>
      </g>
    </g>
  </g>
</svg>