<?xml version="1.0" encoding="UTF-8"?>
<svg id="ammar_follow-up_entyvio_svg_desktop" data-name="ammar_follow-up_entyvio_svg_desktop" xmlns="http://www.w3.org/2000/svg" xmlns:xlink="http://www.w3.org/1999/xlink" viewBox="0 0 894.99 212.53">
  <defs>
    <style>
      .cls-1 {
        stroke-dasharray: 0 0 0 0 0 0 0 6.63;
      }

      .cls-1, .cls-2 {
        stroke: #9a5b8e;
        stroke-linecap: round;
        stroke-linejoin: round;
        stroke-width: 4px;
      }

      .cls-1, .cls-2, .cls-3, .cls-4 {
        fill: none;
      }

      .cls-5 {
        fill: url(#linear-gradient);
      }

      .cls-5, .cls-4, .cls-6, .cls-7, .cls-8, .cls-9, .cls-10, .cls-11 {
        stroke-width: 0px;
      }

      .cls-3 {
        stroke: #808a84;
        stroke-miterlimit: 10;
        stroke-width: 2px;
      }

      .cls-6 {
        fill: #dddede;
      }

      .cls-7 {
        fill: #fff;
      }

      .cls-8 {
        fill: url(#linear-gradient-2);
      }

      .cls-9 {
        fill: #231f20;
      }

      .cls-10 {
        fill: #852780;
      }

      .cls-11 {
        fill: #ce4230;
      }
    </style>
    <linearGradient id="linear-gradient" x1="814.26" y1="135.54" x2="814.26" y2="92.65" gradientTransform="translate(0 214) scale(1 -1)" gradientUnits="userSpaceOnUse">
      <stop offset="0" stop-color="#bebdbd"/>
      <stop offset="1" stop-color="#fff"/>
    </linearGradient>
    <linearGradient id="linear-gradient-2" x1="814.26" y1="133.56" x2="814.26" y2="94.57" gradientTransform="translate(0 214) scale(1 -1)" gradientUnits="userSpaceOnUse">
      <stop offset="0" stop-color="#852780"/>
      <stop offset=".2" stop-color="#992e69"/>
      <stop offset=".53" stop-color="#b7394a"/>
      <stop offset=".81" stop-color="#c93f36"/>
      <stop offset="1" stop-color="#d04230"/>
    </linearGradient>
  </defs>
  <g id="ammar_follow-up_entyvio_svg_desktop" data-name="ammar follow-up entyvio svg desktop">
    <g id="ammar_follow-up_entyvio_desktop" data-name="ammar follow-up entyvio desktop">
      <line id="timeline" class="cls-3" x1="744.26" y1="102.2" x2="30.37" y2="102.2"/>
      <g id="azathioprine_banner" data-name="azathioprine banner">
        <polygon class="cls-11" points="606.47 64.64 267.66 64.64 277.11 53.15 267.66 41.65 606.47 41.65 615.92 53.15 606.47 64.64"/>
        <g>
          <path class="cls-7" d="m393.31,48.8h1.06l4.57,10.09h-1.22l-1.17-2.65h-5.45l-1.19,2.65h-1.16l4.57-10.09h0Zm2.79,6.43l-2.28-5.11-2.29,5.11h4.57Z"/>
          <path class="cls-7" d="m400.28,58.19l4.91-5.77h-4.74v-.93h6.24v.7l-4.92,5.77h4.92v.93h-6.41v-.7Z"/>
          <path class="cls-7" d="m408.11,56.74v-.03c0-1.56,1.29-2.39,3.16-2.39.94,0,1.62.13,2.28.31v-.26c0-1.33-.82-2.02-2.21-2.02-.87,0-1.56.23-2.25.54l-.33-.9c.82-.37,1.62-.62,2.69-.62s1.85.27,2.39.82c.5.5.76,1.22.76,2.16v4.52h-1.06v-1.12c-.52.67-1.38,1.27-2.68,1.27-1.37,0-2.76-.79-2.76-2.3v.02Zm5.45-.57v-.72c-.54-.16-1.27-.31-2.18-.31-1.39,0-2.16.6-2.16,1.53v.03c0,.93.86,1.47,1.86,1.47,1.36,0,2.48-.83,2.48-2Z"/>
          <path class="cls-7" d="m417.27,56.93v-4.47h-1.03v-.97h1.03v-2.23h1.1v2.23h2.35v.97h-2.35v4.32c0,.9.5,1.23,1.25,1.23.37,0,.69-.07,1.07-.26v.94c-.39.2-.8.32-1.33.32-1.19,0-2.09-.59-2.09-2.09h0Z"/>
          <path class="cls-7" d="m422.66,48.44h1.1v4.34c.49-.8,1.26-1.45,2.53-1.45,1.79,0,2.83,1.2,2.83,2.96v4.59h-1.1v-4.32c0-1.37-.74-2.23-2.05-2.23s-2.22.93-2.22,2.32v4.24h-1.1v-10.45h.01Z"/>
          <path class="cls-7" d="m431.5,48.66h1.26v1.22h-1.26v-1.22Zm.07,2.83h1.1v7.4h-1.1v-7.4Z"/>
          <path class="cls-7" d="m434.78,55.22v-.03c0-2.09,1.63-3.86,3.86-3.86s3.85,1.75,3.85,3.83v.03c0,2.09-1.65,3.86-3.88,3.86s-3.84-1.75-3.84-3.84h.01Zm6.58,0v-.03c0-1.59-1.19-2.89-2.75-2.89s-2.71,1.3-2.71,2.86v.03c0,1.59,1.17,2.88,2.73,2.88s2.72-1.29,2.72-2.85h0Z"/>
          <path class="cls-7" d="m444.48,51.49h1.1v1.49c.6-.89,1.47-1.65,2.83-1.65,1.78,0,3.54,1.4,3.54,3.83v.03c0,2.42-1.75,3.85-3.54,3.85-1.37,0-2.26-.74-2.83-1.57v3.71h-1.1v-9.69Zm6.34,3.72v-.03c0-1.75-1.2-2.86-2.6-2.86s-2.68,1.16-2.68,2.85v.03c0,1.72,1.3,2.86,2.68,2.86s2.6-1.06,2.6-2.85Z"/>
          <path class="cls-7" d="m453.98,51.49h1.1v1.93c.54-1.23,1.62-2.12,3.02-2.06v1.19h-.09c-1.62,0-2.93,1.16-2.93,3.39v2.95h-1.1s0-7.4,0-7.4Z"/>
          <path class="cls-7" d="m459.8,48.66h1.26v1.22h-1.26v-1.22Zm.07,2.83h1.1v7.4h-1.1v-7.4Z"/>
          <path class="cls-7" d="m463.53,51.49h1.1v1.29c.49-.8,1.26-1.45,2.53-1.45,1.79,0,2.83,1.2,2.83,2.96v4.59h-1.1v-4.32c0-1.37-.74-2.23-2.05-2.23s-2.22.93-2.22,2.32v4.24h-1.1v-7.4h.01Z"/>
          <path class="cls-7" d="m471.89,55.21v-.03c0-2.13,1.5-3.85,3.55-3.85,2.19,0,3.45,1.75,3.45,3.91,0,.14,0,.23-.02.36h-5.87c.16,1.6,1.29,2.5,2.6,2.5,1.02,0,1.73-.42,2.33-1.04l.69.62c-.74.83-1.65,1.39-3.05,1.39-2.03,0-3.69-1.56-3.69-3.85h0Zm5.88-.43c-.11-1.35-.89-2.52-2.36-2.52-1.29,0-2.26,1.07-2.4,2.52h4.77-.01Z"/>
        </g>
      </g>
      <g id="budesonide_banner" data-name="budesonide banner">
        <polygon class="cls-11" points="606.47 22.99 401.74 22.99 411.19 11.49 401.74 0 606.47 0 615.92 11.49 606.47 22.99"/>
        <g>
          <path class="cls-7" d="m427.97,7.22h4.27c1.14,0,2.05.33,2.62.89.41.43.64.96.64,1.6v.03c0,1.3-.8,1.97-1.59,2.32,1.19.36,2.15,1.04,2.15,2.42v.03c0,1.72-1.45,2.73-3.63,2.73h-4.45V7.22h0Zm6.38,2.65c0-.99-.79-1.63-2.22-1.63h-3.05v3.45h2.96c1.36,0,2.3-.62,2.3-1.79v-.03h.01Zm-2.1,2.82h-3.16v3.54h3.36c1.52,0,2.46-.67,2.46-1.79v-.03c0-1.09-.92-1.72-2.66-1.72h0Z"/>
          <path class="cls-7" d="m438,14.43v-4.59h1.1v4.32c0,1.38.74,2.23,2.05,2.23s2.22-.93,2.22-2.32v-4.24h1.09v7.4h-1.09v-1.29c-.5.8-1.26,1.45-2.53,1.45-1.79,0-2.83-1.2-2.83-2.96h-.01Z"/>
          <path class="cls-7" d="m446.5,13.56v-.03c0-2.42,1.76-3.85,3.54-3.85,1.37,0,2.26.74,2.83,1.57v-4.47h1.1v10.45h-1.1v-1.49c-.6.89-1.47,1.64-2.83,1.64-1.77,0-3.54-1.4-3.54-3.84v.02Zm6.41-.01v-.03c0-1.7-1.3-2.85-2.68-2.85s-2.61,1.06-2.61,2.85v.03c0,1.75,1.2,2.86,2.61,2.86s2.68-1.16,2.68-2.86Z"/>
          <path class="cls-7" d="m455.97,13.56v-.03c0-2.13,1.5-3.85,3.55-3.85,2.19,0,3.45,1.75,3.45,3.91,0,.14,0,.23-.01.36h-5.87c.16,1.6,1.29,2.51,2.61,2.51,1.02,0,1.73-.42,2.33-1.04l.69.62c-.74.83-1.65,1.39-3.05,1.39-2.03,0-3.69-1.56-3.69-3.85v-.02Zm5.88-.43c-.11-1.35-.89-2.52-2.36-2.52-1.29,0-2.26,1.07-2.4,2.52h4.77-.01Z"/>
          <path class="cls-7" d="m464.28,16.29l.56-.79c.8.6,1.69.95,2.56.95s1.53-.46,1.53-1.17v-.03c0-.74-.87-1.03-1.85-1.3-1.16-.33-2.45-.73-2.45-2.09v-.03c0-1.27,1.06-2.12,2.52-2.12.9,0,1.9.31,2.66.82l-.5.83c-.69-.44-1.47-.72-2.19-.72-.87,0-1.43.46-1.43,1.07v.03c0,.7.92.97,1.9,1.27,1.15.34,2.38.79,2.38,2.12v.03c0,1.4-1.16,2.22-2.63,2.22-1.06,0-2.23-.41-3.06-1.09h0Z"/>
          <path class="cls-7" d="m471.56,13.57v-.03c0-2.09,1.63-3.86,3.86-3.86s3.85,1.75,3.85,3.83v.03c0,2.09-1.65,3.87-3.88,3.87s-3.84-1.75-3.84-3.84h.01Zm6.58,0v-.03c0-1.59-1.19-2.89-2.75-2.89s-2.71,1.3-2.71,2.86v.03c0,1.59,1.17,2.88,2.73,2.88s2.72-1.29,2.72-2.85h0Z"/>
          <path class="cls-7" d="m481.26,9.84h1.1v1.29c.49-.8,1.26-1.45,2.53-1.45,1.79,0,2.83,1.2,2.83,2.96v4.6h-1.1v-4.32c0-1.38-.74-2.23-2.05-2.23s-2.22.93-2.22,2.32v4.24h-1.1v-7.4h.01Z"/>
          <path class="cls-7" d="m490.11,7h1.26v1.22h-1.26v-1.22Zm.07,2.83h1.1v7.4h-1.1v-7.4Z"/>
          <path class="cls-7" d="m493.41,13.56v-.03c0-2.42,1.76-3.85,3.54-3.85,1.37,0,2.26.74,2.83,1.57v-4.47h1.1v10.45h-1.1v-1.49c-.6.89-1.47,1.64-2.83,1.64-1.77,0-3.54-1.4-3.54-3.84v.02Zm6.41-.01v-.03c0-1.7-1.3-2.85-2.68-2.85s-2.61,1.06-2.61,2.85v.03c0,1.75,1.2,2.86,2.61,2.86s2.68-1.16,2.68-2.86Z"/>
          <path class="cls-7" d="m502.88,13.56v-.03c0-2.13,1.5-3.85,3.55-3.85,2.19,0,3.45,1.75,3.45,3.91,0,.14,0,.23-.02.36h-5.87c.16,1.6,1.29,2.51,2.6,2.51,1.02,0,1.73-.42,2.33-1.04l.69.62c-.74.83-1.65,1.39-3.05,1.39-2.03,0-3.69-1.56-3.69-3.85v-.02Zm5.88-.43c-.11-1.35-.89-2.52-2.36-2.52-1.29,0-2.26,1.07-2.4,2.52h4.77-.01Z"/>
          <path class="cls-7" d="m516.51,10.81h-1.02v-.96h1.02v-.64c0-.85.23-1.49.64-1.9.37-.37.92-.57,1.59-.57.52,0,.86.06,1.22.19v.96c-.4-.11-.7-.19-1.07-.19-.86,0-1.29.52-1.29,1.57v.6h2.35v.94h-2.33v6.43h-1.1v-6.43h-.01Z"/>
          <path class="cls-7" d="m520.75,13.57v-.03c0-2.09,1.63-3.86,3.86-3.86s3.85,1.75,3.85,3.83v.03c0,2.09-1.65,3.87-3.88,3.87s-3.84-1.75-3.84-3.84h.01Zm6.58,0v-.03c0-1.59-1.19-2.89-2.75-2.89s-2.71,1.3-2.71,2.86v.03c0,1.59,1.17,2.88,2.73,2.88s2.72-1.29,2.72-2.85h.01Z"/>
          <path class="cls-7" d="m530.45,9.84h1.1v1.93c.54-1.23,1.62-2.12,3.02-2.06v1.19h-.09c-1.62,0-2.93,1.16-2.93,3.39v2.95h-1.1v-7.4Z"/>
          <path class="cls-7" d="m541.87,8.32l-1.89.59-.27-.92,2.45-.85h.83v10.09h-1.12v-8.92h0Z"/>
          <path class="cls-7" d="m546.99,8.32l-1.89.59-.27-.92,2.45-.85h.83v10.09h-1.12v-8.92h0Z"/>
          <path class="cls-7" d="m554.44,9.84h1.17l1.95,5.94,1.99-5.97h.92l2,5.97,1.95-5.94h1.15l-2.6,7.46h-.96l-1.99-5.84-2,5.84h-.97l-2.59-7.46h-.02Z"/>
          <path class="cls-7" d="m566.57,13.56v-.03c0-2.13,1.5-3.85,3.55-3.85,2.19,0,3.45,1.75,3.45,3.91,0,.14,0,.23-.02.36h-5.87c.16,1.6,1.29,2.51,2.6,2.51,1.02,0,1.73-.42,2.33-1.04l.69.62c-.74.83-1.65,1.39-3.05,1.39-2.03,0-3.69-1.56-3.69-3.85v-.02Zm5.88-.43c-.11-1.35-.89-2.52-2.36-2.52-1.29,0-2.26,1.07-2.4,2.52h4.77-.01Z"/>
          <path class="cls-7" d="m575.04,13.56v-.03c0-2.13,1.5-3.85,3.55-3.85,2.19,0,3.45,1.75,3.45,3.91,0,.14,0,.23-.01.36h-5.87c.16,1.6,1.29,2.51,2.61,2.51,1.02,0,1.73-.42,2.33-1.04l.69.62c-.74.83-1.65,1.39-3.05,1.39-2.03,0-3.69-1.56-3.69-3.85v-.02Zm5.88-.43c-.11-1.35-.89-2.52-2.36-2.52-1.29,0-2.26,1.07-2.4,2.52h4.77-.01Z"/>
          <path class="cls-7" d="m583.97,6.79h1.1v7.21l3.99-4.17h1.37l-3.11,3.18,3.21,4.22h-1.32l-2.65-3.45-1.5,1.52v1.93h-1.1V6.79h.01Z"/>
          <path class="cls-7" d="m591.39,16.29l.56-.79c.8.6,1.69.95,2.56.95s1.53-.46,1.53-1.17v-.03c0-.74-.87-1.03-1.85-1.3-1.16-.33-2.45-.73-2.45-2.09v-.03c0-1.27,1.06-2.12,2.52-2.12.9,0,1.9.31,2.66.82l-.5.83c-.69-.44-1.47-.72-2.19-.72-.87,0-1.43.46-1.43,1.07v.03c0,.7.92.97,1.9,1.27,1.14.34,2.38.79,2.38,2.12v.03c0,1.4-1.16,2.22-2.63,2.22-1.06,0-2.23-.41-3.06-1.09h0Z"/>
        </g>
      </g>
      <g id="entyvio_banner" data-name="entyvio banner">
        <polygon class="cls-10" points="871.62 22.99 615.92 22.99 625.37 11.49 615.92 0 871.62 0 881.07 11.49 871.62 22.99"/>
        <g>
          <path class="cls-7" d="m631.9,7.22h7.24v1.03h-6.11v3.42h5.47v1.03h-5.47v3.51h6.18v1.03h-7.31V7.22Z"/>
          <path class="cls-7" d="m641.3,9.84h1.1v1.29c.49-.8,1.26-1.45,2.53-1.45,1.79,0,2.83,1.2,2.83,2.96v4.59h-1.1v-4.32c0-1.37-.74-2.23-2.05-2.23s-2.22.93-2.22,2.32v4.24h-1.1v-7.4Z"/>
          <path class="cls-7" d="m650.5,15.28v-4.47h-1.03v-.97h1.03v-2.23h1.1v2.23h2.35v.97h-2.35v4.32c0,.9.5,1.23,1.25,1.23.37,0,.69-.07,1.07-.26v.94c-.39.2-.8.32-1.33.32-1.19,0-2.09-.59-2.09-2.09Z"/>
          <path class="cls-7" d="m661.44,9.84h1.17l-3.11,7.64c-.63,1.53-1.35,2.09-2.46,2.09-.62,0-1.07-.13-1.57-.37l.37-.87c.36.19.69.27,1.16.27.66,0,1.07-.34,1.52-1.39l-3.36-7.37h1.22l2.69,6.17,2.38-6.17Z"/>
          <path class="cls-7" d="m663.41,9.84h1.22l2.49,6.14,2.5-6.14h1.19l-3.22,7.46h-.97l-3.21-7.46Z"/>
          <path class="cls-7" d="m672.56,7h1.26v1.22h-1.26v-1.22Zm.07,2.83h1.1v7.4h-1.1v-7.4Z"/>
          <path class="cls-7" d="m675.84,13.57v-.03c0-2.09,1.63-3.86,3.87-3.86s3.85,1.75,3.85,3.83v.03c0,2.09-1.65,3.86-3.88,3.86s-3.84-1.75-3.84-3.84Zm6.58,0v-.03c0-1.59-1.19-2.89-2.75-2.89s-2.71,1.3-2.71,2.86v.03c0,1.59,1.17,2.88,2.73,2.88s2.72-1.29,2.72-2.85Z"/>
          <path class="cls-7" d="m689.57,13.13c0-2.63,1.42-4.7,3.96-6.13l.47.73c-2.18,1.39-3.32,3.11-3.32,5.4s1.14,4.01,3.32,5.4l-.47.73c-2.55-1.43-3.96-3.49-3.96-6.13Z"/>
          <path class="cls-7" d="m695.31,9.84h1.22l2.49,6.14,2.51-6.14h1.19l-3.22,7.46h-.97l-3.21-7.46Z"/>
          <path class="cls-7" d="m703.55,13.56v-.03c0-2.13,1.5-3.85,3.55-3.85,2.19,0,3.45,1.75,3.45,3.91,0,.14,0,.23-.02.36h-5.87c.16,1.6,1.29,2.5,2.6,2.5,1.02,0,1.73-.42,2.33-1.04l.69.62c-.74.83-1.65,1.39-3.05,1.39-2.03,0-3.69-1.56-3.69-3.85Zm5.88-.43c-.11-1.35-.89-2.52-2.36-2.52-1.29,0-2.26,1.07-2.4,2.52h4.77Z"/>
          <path class="cls-7" d="m712.05,13.56v-.03c0-2.42,1.76-3.85,3.54-3.85,1.38,0,2.26.74,2.83,1.57v-4.47h1.1v10.45h-1.1v-1.49c-.6.89-1.47,1.65-2.83,1.65-1.77,0-3.54-1.4-3.54-3.84Zm6.41-.01v-.03c0-1.7-1.3-2.85-2.68-2.85s-2.61,1.06-2.61,2.85v.03c0,1.75,1.2,2.86,2.61,2.86s2.68-1.16,2.68-2.86Z"/>
          <path class="cls-7" d="m721.52,13.57v-.03c0-2.09,1.63-3.86,3.87-3.86s3.85,1.75,3.85,3.83v.03c0,2.09-1.65,3.86-3.88,3.86s-3.84-1.75-3.84-3.84Zm6.58,0v-.03c0-1.59-1.19-2.89-2.75-2.89s-2.71,1.3-2.71,2.86v.03c0,1.59,1.17,2.88,2.73,2.88s2.72-1.29,2.72-2.85Z"/>
          <path class="cls-7" d="m731.32,6.79h1.1v10.45h-1.1V6.79Z"/>
          <path class="cls-7" d="m735.01,7h1.26v1.22h-1.26v-1.22Zm.07,2.83h1.1v7.4h-1.1v-7.4Z"/>
          <path class="cls-7" d="m738.31,16.54l4.91-5.77h-4.74v-.93h6.24v.7l-4.92,5.77h4.92v.93h-6.41v-.7Z"/>
          <path class="cls-7" d="m746.58,14.43v-4.59h1.1v4.32c0,1.37.75,2.23,2.05,2.23s2.22-.93,2.22-2.32v-4.24h1.09v7.4h-1.09v-1.29c-.5.8-1.26,1.45-2.53,1.45-1.79,0-2.83-1.2-2.83-2.96Z"/>
          <path class="cls-7" d="m755.51,9.84h1.1v1.25c.49-.73,1.15-1.4,2.39-1.4s1.97.64,2.38,1.47c.53-.82,1.32-1.47,2.6-1.47,1.7,0,2.75,1.14,2.75,2.98v4.58h-1.1v-4.32c0-1.43-.72-2.23-1.92-2.23-1.12,0-2.05.83-2.05,2.29v4.27h-1.09v-4.35c0-1.39-.73-2.2-1.9-2.2s-2.06.97-2.06,2.33v4.22h-1.1v-7.4Z"/>
          <path class="cls-7" d="m768.51,15.09v-.03c0-1.56,1.29-2.39,3.16-2.39.94,0,1.62.13,2.28.31v-.26c0-1.33-.82-2.02-2.21-2.02-.87,0-1.56.23-2.25.54l-.33-.9c.82-.37,1.62-.62,2.69-.62s1.85.27,2.39.82c.5.5.76,1.22.76,2.16v4.52h-1.06v-1.12c-.52.67-1.38,1.27-2.68,1.27-1.37,0-2.76-.79-2.76-2.3Zm5.45-.57v-.72c-.54-.16-1.27-.31-2.18-.31-1.39,0-2.16.6-2.16,1.53v.03c0,.93.86,1.47,1.86,1.47,1.36,0,2.48-.83,2.48-2Z"/>
          <path class="cls-7" d="m778.46,15.82v1.42h-1.1V6.79h1.1v4.54c.6-.89,1.47-1.65,2.83-1.65,1.78,0,3.54,1.4,3.54,3.83v.03c0,2.42-1.75,3.85-3.54,3.85-1.37,0-2.26-.74-2.83-1.57Zm5.24-2.26v-.03c0-1.75-1.2-2.86-2.6-2.86s-2.68,1.16-2.68,2.85v.03c0,1.72,1.3,2.86,2.68,2.86s2.6-1.06,2.6-2.85Z"/>
          <path class="cls-7" d="m786,18.53c2.18-1.39,3.32-3.11,3.32-5.4s-1.14-4.01-3.32-5.4l.47-.73c2.55,1.43,3.96,3.49,3.96,6.13s-1.42,4.69-3.96,6.13l-.47-.73Z"/>
          <path class="cls-7" d="m797.31,15.28v-4.47h-1.03v-.97h1.03v-2.23h1.1v2.23h2.35v.97h-2.35v4.32c0,.9.5,1.23,1.25,1.23.37,0,.69-.07,1.07-.26v.94c-.39.2-.8.32-1.33.32-1.19,0-2.09-.59-2.09-2.09Z"/>
          <path class="cls-7" d="m802.71,9.84h1.1v1.93c.54-1.23,1.62-2.12,3.02-2.06v1.19h-.09c-1.62,0-2.93,1.16-2.93,3.39v2.95h-1.1v-7.4Z"/>
          <path class="cls-7" d="m807.73,13.56v-.03c0-2.13,1.5-3.85,3.55-3.85,2.19,0,3.45,1.75,3.45,3.91,0,.14,0,.23-.01.36h-5.87c.16,1.6,1.29,2.5,2.61,2.5,1.02,0,1.73-.42,2.33-1.04l.69.62c-.74.83-1.65,1.39-3.05,1.39-2.03,0-3.69-1.56-3.69-3.85Zm5.88-.43c-.11-1.35-.89-2.52-2.36-2.52-1.29,0-2.26,1.07-2.4,2.52h4.77Z"/>
          <path class="cls-7" d="m816.1,15.09v-.03c0-1.56,1.29-2.39,3.16-2.39.94,0,1.62.13,2.28.31v-.26c0-1.33-.82-2.02-2.2-2.02-.87,0-1.56.23-2.25.54l-.33-.9c.82-.37,1.62-.62,2.69-.62s1.85.27,2.39.82c.5.5.76,1.22.76,2.16v4.52h-1.06v-1.12c-.52.67-1.37,1.27-2.68,1.27-1.38,0-2.76-.79-2.76-2.3Zm5.45-.57v-.72c-.54-.16-1.27-.31-2.18-.31-1.39,0-2.16.6-2.16,1.53v.03c0,.93.86,1.47,1.86,1.47,1.36,0,2.48-.83,2.48-2Z"/>
          <path class="cls-7" d="m825.25,15.28v-4.47h-1.03v-.97h1.03v-2.23h1.1v2.23h2.35v.97h-2.35v4.32c0,.9.5,1.23,1.25,1.23.37,0,.69-.07,1.07-.26v.94c-.39.2-.8.32-1.33.32-1.19,0-2.09-.59-2.09-2.09Z"/>
          <path class="cls-7" d="m830.65,9.84h1.1v1.25c.49-.73,1.15-1.4,2.39-1.4s1.97.64,2.38,1.47c.53-.82,1.32-1.47,2.6-1.47,1.7,0,2.75,1.14,2.75,2.98v4.58h-1.1v-4.32c0-1.43-.72-2.23-1.92-2.23-1.12,0-2.05.83-2.05,2.29v4.27h-1.09v-4.35c0-1.39-.73-2.2-1.9-2.2s-2.06.97-2.06,2.33v4.22h-1.1v-7.4Z"/>
          <path class="cls-7" d="m843.75,13.56v-.03c0-2.13,1.5-3.85,3.55-3.85,2.19,0,3.45,1.75,3.45,3.91,0,.14,0,.23-.01.36h-5.87c.16,1.6,1.29,2.5,2.61,2.5,1.02,0,1.73-.42,2.33-1.04l.69.62c-.74.83-1.65,1.39-3.05,1.39-2.03,0-3.69-1.56-3.69-3.85Zm5.88-.43c-.11-1.35-.89-2.52-2.36-2.52-1.29,0-2.26,1.07-2.4,2.52h4.77Z"/>
          <path class="cls-7" d="m852.68,9.84h1.1v1.29c.49-.8,1.26-1.45,2.53-1.45,1.79,0,2.83,1.2,2.83,2.96v4.59h-1.1v-4.32c0-1.37-.74-2.23-2.05-2.23s-2.22.93-2.22,2.32v4.24h-1.1v-7.4Z"/>
          <path class="cls-7" d="m861.88,15.28v-4.47h-1.03v-.97h1.03v-2.23h1.1v2.23h2.35v.97h-2.35v4.32c0,.9.5,1.23,1.25,1.23.37,0,.69-.07,1.07-.26v.94c-.39.2-.8.32-1.33.32-1.19,0-2.09-.59-2.09-2.09Z"/>
        </g>
      </g>
      <g id="july_2023_capsule" class="timeline--btn" data-name="july_2023">
        <g>
          <path class="cls-5" d="m766.26,78.2h96c12.15,0,22,9.85,22,22h0c0,12.15-9.85,22-22,22h-96c-12.15,0-22-9.85-22-22h0c0-12.15,9.85-22,22-22Z"/>
          <path class="cls-8 tooltip" title="Click here" d="m766.26,80.2h96c11.05,0,20,8.95,20,20h0c0,11.05-8.95,20-20,20h-96c-11.05,0-20-8.95-20-20h0c0-11.05,8.95-20,20-20Z"/>
          <g>
            <path class="cls-7" d="m774.68,104.62l1.55-1.73c.64.71,1.26,1.12,2.05,1.12.93,0,1.5-.56,1.5-1.86v-7.22h2.53v7.33c0,1.33-.38,2.32-1.06,2.99-.69.69-1.7,1.04-2.91,1.04-1.74,0-2.9-.77-3.67-1.68h0Z"/>
            <path class="cls-7" d="m784.5,103.12v-5.55h2.43v4.79c0,1.15.54,1.75,1.47,1.75s1.52-.59,1.52-1.75v-4.79h2.43v8.58h-2.43v-1.22c-.56.72-1.28,1.38-2.51,1.38-1.84,0-2.91-1.22-2.91-3.19Z"/>
            <path class="cls-7" d="m794.65,94.46h2.43v11.68h-2.43v-11.68Z"/>
            <path class="cls-7" d="m805,97.57h2.53l-3.3,8.79c-.66,1.74-1.36,2.4-2.82,2.4-.88,0-1.54-.22-2.16-.59l.82-1.76c.32.19.72.34,1.04.34.42,0,.64-.13.85-.56l-3.36-8.61h2.58l1.95,5.84,1.87-5.84h0Z"/>
            <path class="cls-7" d="m813.46,104.19l3.73-3.06c1.39-1.15,1.94-1.76,1.94-2.69s-.62-1.46-1.5-1.46-1.46.48-2.29,1.5l-1.73-1.39c1.1-1.5,2.18-2.32,4.18-2.32,2.32,0,3.86,1.36,3.86,3.46v.03c0,1.87-.96,2.8-2.95,4.34l-1.83,1.41h4.88v2.13h-8.29v-1.95Z"/>
            <path class="cls-7" d="m823.51,100.58v-.03c0-3.25,2.02-5.79,4.99-5.79s4.96,2.51,4.96,5.76v.03c0,3.25-2,5.79-4.99,5.79s-4.96-2.51-4.96-5.76Zm7.43,0v-.03c0-2.03-.99-3.57-2.46-3.57s-2.43,1.49-2.43,3.54v.03c0,2.05.98,3.57,2.46,3.57s2.43-1.5,2.43-3.54Z"/>
            <path class="cls-7" d="m834.95,104.19l3.73-3.06c1.39-1.15,1.94-1.76,1.94-2.69s-.62-1.46-1.5-1.46-1.46.48-2.29,1.5l-1.73-1.39c1.1-1.5,2.18-2.32,4.18-2.32,2.32,0,3.86,1.36,3.86,3.46v.03c0,1.87-.96,2.8-2.95,4.34l-1.82,1.41h4.88v2.13h-8.29v-1.95h-.01Z"/>
            <path class="cls-7" d="m844.74,104.4l1.7-1.62c.77.86,1.57,1.34,2.71,1.34.93,0,1.58-.53,1.58-1.36v-.03c0-.91-.82-1.42-2.19-1.42h-1.02l-.38-1.57,2.67-2.69h-4.4v-2.11h7.57v1.86l-2.83,2.71c1.52.26,3.01,1.06,3.01,3.14v.03c0,2.11-1.54,3.67-4.03,3.67-2.02,0-3.41-.8-4.37-1.94h-.02Z"/>
          </g>
        </g>
        <rect class="cls-4" x="735.53" y="72.98" width="159.46" height="58.43"/>
      </g>
      <g id="october_2022_capsule" data-name="october 2022 capsule">
        <path class="cls-6" d="m504.25,80.2h96c11.05,0,20,8.95,20,20h0c0,11.05-8.95,20-20,20h-96c-11.05,0-20-8.95-20-20h0c0-11.05,8.95-20,20-20Z"/>
        <g>
          <path class="cls-10" d="m496.46,100.58v-.03c0-3.19,2.51-5.79,5.97-5.79s5.94,2.58,5.94,5.76v.03c0,3.19-2.51,5.79-5.97,5.79s-5.94-2.58-5.94-5.76Zm9.33,0v-.03c0-1.92-1.41-3.52-3.39-3.52s-3.36,1.57-3.36,3.49v.03c0,1.92,1.41,3.52,3.39,3.52s3.36-1.57,3.36-3.49Z"/>
          <path class="cls-10" d="m509.89,101.9v-.03c0-2.45,1.87-4.47,4.5-4.47,1.62,0,2.62.54,3.43,1.44l-1.49,1.6c-.54-.58-1.09-.94-1.95-.94-1.22,0-2.08,1.07-2.08,2.34v.03c0,1.31.85,2.37,2.18,2.37.82,0,1.38-.35,1.97-.91l1.42,1.44c-.83.91-1.79,1.57-3.5,1.57-2.58,0-4.47-1.98-4.47-4.43h0Z"/>
          <path class="cls-10" d="m519.84,103.71v-4.07h-1.02v-2.08h1.02v-2.19h2.43v2.19h2.02v2.08h-2.02v3.67c0,.56.24.83.78.83.45,0,.85-.11,1.2-.3v1.95c-.51.3-1.1.5-1.92.5-1.49,0-2.5-.59-2.5-2.58h0Z"/>
          <path class="cls-10" d="m525.42,101.9v-.03c0-2.46,1.99-4.47,4.66-4.47s4.63,1.97,4.63,4.43v.03c0,2.47-1.99,4.47-4.66,4.47s-4.63-1.97-4.63-4.43Zm6.88,0v-.03c0-1.26-.91-2.37-2.26-2.37s-2.22,1.07-2.22,2.34v.03c0,1.26.91,2.37,2.26,2.37s2.22-1.07,2.22-2.34Z"/>
          <path class="cls-10" d="m538.9,105.02v1.12h-2.43v-11.68h2.43v4.34c.59-.8,1.41-1.39,2.67-1.39,2,0,3.91,1.57,3.91,4.43v.03c0,2.87-1.87,4.43-3.91,4.43-1.3,0-2.1-.59-2.67-1.28Zm4.15-3.15v-.03c0-1.42-.96-2.37-2.1-2.37s-2.08.94-2.08,2.37v.03c0,1.42.94,2.37,2.08,2.37s2.1-.93,2.1-2.37Z"/>
          <path class="cls-10" d="m546.85,101.9v-.03c0-2.45,1.74-4.47,4.24-4.47,2.87,0,4.18,2.23,4.18,4.66,0,.19-.02.42-.03.64h-5.97c.24,1.1,1.01,1.68,2.1,1.68.82,0,1.41-.26,2.08-.88l1.39,1.23c-.8.99-1.95,1.6-3.51,1.6-2.58,0-4.48-1.81-4.48-4.43Zm6.05-.72c-.14-1.09-.78-1.83-1.81-1.83s-1.66.72-1.86,1.83h3.67Z"/>
          <path class="cls-10" d="m557.07,97.57h2.43v1.73c.5-1.18,1.3-1.95,2.74-1.89v2.55h-.13c-1.62,0-2.61.98-2.61,3.02v3.17h-2.43v-8.58Z"/>
          <path class="cls-10" d="m568.25,104.19l3.73-3.06c1.39-1.15,1.94-1.76,1.94-2.69s-.62-1.46-1.5-1.46-1.46.48-2.29,1.5l-1.73-1.39c1.1-1.5,2.18-2.32,4.18-2.32,2.32,0,3.86,1.36,3.86,3.46v.03c0,1.87-.96,2.8-2.95,4.34l-1.82,1.41h4.88v2.13h-8.29v-1.95h-.01Z"/>
          <path class="cls-10" d="m578.3,100.58v-.03c0-3.25,2.02-5.79,4.99-5.79s4.96,2.51,4.96,5.76v.03c0,3.25-2,5.79-4.99,5.79s-4.96-2.51-4.96-5.76Zm7.43,0v-.03c0-2.03-.99-3.57-2.47-3.57s-2.43,1.49-2.43,3.54v.03c0,2.05.98,3.57,2.46,3.57s2.43-1.5,2.43-3.54h0Z"/>
          <path class="cls-10" d="m589.74,104.19l3.73-3.06c1.39-1.15,1.94-1.76,1.94-2.69s-.62-1.46-1.5-1.46-1.46.48-2.29,1.5l-1.73-1.39c1.1-1.5,2.18-2.32,4.18-2.32,2.32,0,3.86,1.36,3.86,3.46v.03c0,1.87-.96,2.8-2.94,4.34l-1.83,1.41h4.88v2.13h-8.29v-1.95h-.01Z"/>
          <path class="cls-10" d="m599.71,104.19l3.73-3.06c1.39-1.15,1.94-1.76,1.94-2.69s-.62-1.46-1.5-1.46-1.46.48-2.29,1.5l-1.73-1.39c1.1-1.5,2.18-2.32,4.18-2.32,2.32,0,3.86,1.36,3.86,3.46v.03c0,1.87-.96,2.8-2.94,4.34l-1.83,1.41h4.88v2.13h-8.29v-1.95h-.01Z"/>
        </g>
      </g>
      <g id="march_2022_capsule" data-name="march 2022 capsule">
        <path class="cls-6" d="m224.39,82.2h96c11.05,0,20,8.95,20,20h0c0,11.05-8.95,20-20,20h-96c-11.05,0-20-8.95-20-20h0c0-11.05,8.95-20,20-20Z"/>
        <g>
          <path class="cls-10" d="m226.17,96.94h2.66l2.95,4.74,2.95-4.74h2.66v11.21h-2.45v-7.32l-3.15,4.79h-.06l-3.12-4.74v7.27h-2.42v-11.21h-.02Z"/>
          <path class="cls-10" d="m239.28,105.68v-.03c0-1.87,1.42-2.74,3.46-2.74.86,0,1.49.14,2.1.35v-.14c0-1.01-.62-1.57-1.84-1.57-.93,0-1.58.18-2.37.46l-.61-1.86c.94-.42,1.87-.69,3.33-.69,1.33,0,2.29.35,2.9.96.64.64.93,1.58.93,2.74v4.98h-2.35v-.93c-.59.66-1.41,1.09-2.59,1.09-1.62,0-2.95-.93-2.95-2.62h-.01Zm5.59-.56v-.43c-.42-.19-.96-.32-1.55-.32-1.04,0-1.68.42-1.68,1.18v.03c0,.66.54,1.04,1.33,1.04,1.14,0,1.9-.62,1.9-1.5Z"/>
          <path class="cls-10" d="m249.27,99.57h2.43v1.73c.5-1.18,1.3-1.95,2.74-1.89v2.55h-.13c-1.62,0-2.61.98-2.61,3.02v3.17h-2.43v-8.58Z"/>
          <path class="cls-10" d="m255.3,103.9v-.03c0-2.45,1.87-4.47,4.5-4.47,1.62,0,2.62.54,3.43,1.44l-1.49,1.6c-.54-.58-1.09-.94-1.95-.94-1.22,0-2.08,1.07-2.08,2.34v.03c0,1.31.85,2.37,2.18,2.37.82,0,1.38-.35,1.97-.91l1.42,1.44c-.83.91-1.79,1.57-3.51,1.57-2.58,0-4.47-1.98-4.47-4.43h0Z"/>
          <path class="cls-10" d="m264.85,96.46h2.43v4.32c.56-.72,1.28-1.38,2.51-1.38,1.84,0,2.91,1.22,2.91,3.19v5.55h-2.43v-4.79c0-1.15-.54-1.75-1.47-1.75s-1.52.59-1.52,1.75v4.79h-2.43v-11.68h0Z"/>
          <path class="cls-10" d="m279.32,106.19l3.73-3.06c1.39-1.15,1.94-1.76,1.94-2.69s-.62-1.46-1.5-1.46-1.46.48-2.29,1.5l-1.73-1.39c1.1-1.5,2.18-2.32,4.18-2.32,2.32,0,3.86,1.36,3.86,3.46v.03c0,1.87-.96,2.8-2.95,4.34l-1.82,1.41h4.88v2.13h-8.29v-1.95h0Z"/>
          <path class="cls-10" d="m289.36,102.58v-.03c0-3.25,2.02-5.79,4.99-5.79s4.96,2.51,4.96,5.76v.03c0,3.25-2,5.79-4.99,5.79s-4.96-2.51-4.96-5.76Zm7.43,0v-.03c0-2.03-.99-3.57-2.47-3.57s-2.43,1.49-2.43,3.54v.03c0,2.05.98,3.57,2.46,3.57s2.43-1.5,2.43-3.54h.01Z"/>
          <path class="cls-10" d="m300.8,106.19l3.73-3.06c1.39-1.15,1.94-1.76,1.94-2.69s-.62-1.46-1.5-1.46-1.46.48-2.29,1.5l-1.73-1.39c1.1-1.5,2.18-2.32,4.18-2.32,2.32,0,3.86,1.36,3.86,3.46v.03c0,1.87-.96,2.8-2.95,4.34l-1.83,1.41h4.88v2.13h-8.29v-1.95h0Z"/>
          <path class="cls-10" d="m310.77,106.19l3.73-3.06c1.39-1.15,1.94-1.76,1.94-2.69s-.62-1.46-1.5-1.46-1.46.48-2.29,1.5l-1.73-1.39c1.1-1.5,2.18-2.32,4.18-2.32,2.32,0,3.86,1.36,3.86,3.46v.03c0,1.87-.96,2.8-2.95,4.34l-1.83,1.41h4.88v2.13h-8.29v-1.95h0Z"/>
        </g>
      </g>
      <g id="january_2022_text" data-name="january 2022 text">
        <g>
          <path class="cls-9" d="m13.05,156.51h4.92c3.96,0,6.7,2.72,6.7,6.27v.04c0,3.55-2.74,6.3-6.7,6.3h-4.92v-12.6h0Zm2.77,2.5v7.6h2.14c2.27,0,3.8-1.53,3.8-3.76v-.04c0-2.23-1.53-3.8-3.8-3.8h-2.14,0Z"/>
          <path class="cls-9" d="m26.89,155.97h2.88v2.43h-2.88v-2.43Zm.07,3.49h2.74v9.65h-2.74v-9.65Z"/>
          <path class="cls-9" d="m31.7,166.34v-.04c0-2.11,1.6-3.08,3.89-3.08.97,0,1.67.16,2.36.4v-.16c0-1.13-.7-1.76-2.07-1.76-1.04,0-1.78.2-2.67.52l-.68-2.09c1.06-.47,2.11-.77,3.75-.77,1.49,0,2.57.4,3.26,1.08.72.72,1.04,1.78,1.04,3.08v5.6h-2.65v-1.04c-.67.74-1.58,1.22-2.92,1.22-1.82,0-3.31-1.04-3.31-2.95h0Zm6.28-.63v-.49c-.47-.22-1.08-.36-1.75-.36-1.17,0-1.89.47-1.89,1.33v.04c0,.74.61,1.17,1.49,1.17,1.28,0,2.14-.7,2.14-1.69h0Z"/>
          <path class="cls-9" d="m42.98,171.02l.94-2.05c.99.56,1.98.88,3.26.88,1.87,0,2.75-.9,2.75-2.63v-.47c-.81.97-1.69,1.57-3.15,1.57-2.25,0-4.29-1.64-4.29-4.5v-.04c0-2.88,2.07-4.5,4.29-4.5,1.49,0,2.38.63,3.11,1.44v-1.26h2.74v7.47c0,1.73-.41,2.99-1.22,3.8-.9.9-2.29,1.3-4.16,1.3-1.57,0-3.04-.36-4.27-1.01h0Zm6.95-7.2v-.04c0-1.31-1.03-2.23-2.36-2.23s-2.34.92-2.34,2.23v.04c0,1.33,1.01,2.23,2.34,2.23s2.36-.92,2.36-2.23Z"/>
          <path class="cls-9" d="m55.08,159.46h2.74v1.37c.63-.81,1.44-1.55,2.83-1.55,2.07,0,3.28,1.37,3.28,3.58v6.25h-2.74v-5.38c0-1.3-.61-1.96-1.66-1.96s-1.71.67-1.71,1.96v5.38h-2.74s0-9.65,0-9.65Z"/>
          <path class="cls-9" d="m65.82,164.34v-.04c0-2.77,2.23-5.02,5.24-5.02s5.2,2.21,5.2,4.99v.04c0,2.77-2.23,5.02-5.24,5.02s-5.2-2.21-5.2-4.99Zm7.74,0v-.04c0-1.42-1.03-2.67-2.54-2.67s-2.5,1.21-2.5,2.63v.04c0,1.42,1.03,2.67,2.54,2.67s2.5-1.21,2.5-2.63Z"/>
          <path class="cls-9" d="m77.49,167.84l1.17-1.8c1.04.76,2.14,1.15,3.04,1.15.79,0,1.15-.29,1.15-.72v-.04c0-.59-.94-.79-2-1.12-1.35-.4-2.88-1.03-2.88-2.9v-.04c0-1.96,1.58-3.06,3.53-3.06,1.22,0,2.56.41,3.6,1.12l-1.04,1.89c-.95-.56-1.91-.9-2.61-.9s-1.01.29-1.01.67v.04c0,.54.92.79,1.96,1.15,1.35.45,2.92,1.1,2.92,2.86v.04c0,2.14-1.6,3.11-3.69,3.11-1.35,0-2.86-.45-4.14-1.46h0Z"/>
          <path class="cls-9" d="m87.33,155.97h2.88v2.43h-2.88v-2.43Zm.07,3.49h2.74v9.65h-2.74v-9.65Z"/>
          <path class="cls-9" d="m91.96,167.84l1.17-1.8c1.04.76,2.14,1.15,3.04,1.15.79,0,1.15-.29,1.15-.72v-.04c0-.59-.94-.79-2-1.12-1.35-.4-2.88-1.03-2.88-2.9v-.04c0-1.96,1.58-3.06,3.53-3.06,1.22,0,2.56.41,3.6,1.12l-1.04,1.89c-.95-.56-1.91-.9-2.61-.9s-1.01.29-1.01.67v.04c0,.54.92.79,1.96,1.15,1.35.45,2.92,1.1,2.92,2.86v.04c0,2.14-1.6,3.11-3.69,3.11-1.35,0-2.86-.45-4.14-1.46h0Z"/>
          <path class="cls-9" d="m106.68,164.34v-.04c0-2.77,2.23-5.02,5.24-5.02s5.2,2.21,5.2,4.99v.04c0,2.77-2.23,5.02-5.24,5.02s-5.2-2.21-5.2-4.99Zm7.74,0v-.04c0-1.42-1.03-2.67-2.54-2.67s-2.5,1.21-2.5,2.63v.04c0,1.42,1.03,2.67,2.54,2.67s2.5-1.21,2.5-2.63Z"/>
          <path class="cls-9" d="m119.57,161.81h-1.13v-2.25h1.13v-.61c0-1.06.27-1.84.77-2.34s1.24-.76,2.21-.76c.86,0,1.44.11,1.94.27v2.27c-.4-.14-.77-.23-1.24-.23-.63,0-.99.32-.99,1.04v.38h2.21v2.23h-2.18v7.31h-2.74v-7.31h.02Z"/>
          <path class="cls-9" d="m8.49,177.57h2.88v2.43h-2.88v-2.43Zm.07,3.49h2.74v9.65h-2.74v-9.65Z"/>
          <path class="cls-9" d="m13.88,181.07h2.74v1.37c.63-.81,1.44-1.55,2.83-1.55,2.07,0,3.28,1.37,3.28,3.58v6.25h-2.74v-5.38c0-1.3-.61-1.96-1.66-1.96s-1.71.67-1.71,1.96v5.38h-2.74s0-9.65,0-9.65Z"/>
          <path class="cls-9" d="m25.56,183.41h-1.13v-2.25h1.13v-.61c0-1.06.27-1.84.77-2.34s1.24-.76,2.21-.76c.86,0,1.44.11,1.94.27v2.27c-.4-.14-.77-.23-1.24-.23-.63,0-.99.32-.99,1.04v.38h2.21v2.23h-2.18v7.31h-2.74v-7.31h.02Zm6.54-5.83h2.74v13.14h-2.74v-13.14Z"/>
          <path class="cls-9" d="m36.82,187.94v-.04c0-2.11,1.6-3.08,3.89-3.08.97,0,1.67.16,2.36.4v-.16c0-1.13-.7-1.76-2.07-1.76-1.04,0-1.78.2-2.67.52l-.68-2.09c1.06-.47,2.11-.77,3.75-.77,1.49,0,2.58.4,3.26,1.08.72.72,1.04,1.78,1.04,3.08v5.6h-2.65v-1.04c-.67.74-1.58,1.22-2.92,1.22-1.82,0-3.31-1.04-3.31-2.95h0Zm6.28-.63v-.49c-.47-.22-1.08-.36-1.75-.36-1.17,0-1.89.47-1.89,1.33v.04c0,.74.61,1.17,1.5,1.17,1.28,0,2.14-.7,2.14-1.69h0Z"/>
          <path class="cls-9" d="m48.06,181.07h2.74v1.37c.63-.81,1.46-1.55,2.84-1.55,1.26,0,2.21.56,2.72,1.53.85-.99,1.85-1.53,3.17-1.53,2.04,0,3.26,1.22,3.26,3.55v6.28h-2.74v-5.38c0-1.3-.58-1.96-1.6-1.96s-1.66.67-1.66,1.96v5.38h-2.74v-5.38c0-1.3-.58-1.96-1.6-1.96s-1.66.67-1.66,1.96v5.38h-2.74v-9.65h0Z"/>
          <path class="cls-9" d="m65.16,181.07h2.74v1.37c.63-.81,1.46-1.55,2.84-1.55,1.26,0,2.21.56,2.72,1.53.85-.99,1.85-1.53,3.17-1.53,2.03,0,3.26,1.22,3.26,3.55v6.28h-2.74v-5.38c0-1.3-.58-1.96-1.6-1.96s-1.66.67-1.66,1.96v5.38h-2.74v-5.38c0-1.3-.58-1.96-1.6-1.96s-1.66.67-1.66,1.96v5.38h-2.74v-9.65h.01Z"/>
          <path class="cls-9" d="m81.68,187.94v-.04c0-2.11,1.6-3.08,3.89-3.08.97,0,1.67.16,2.36.4v-.16c0-1.13-.7-1.76-2.07-1.76-1.04,0-1.78.2-2.67.52l-.68-2.09c1.06-.47,2.11-.77,3.75-.77,1.49,0,2.57.4,3.26,1.08.72.72,1.04,1.78,1.04,3.08v5.6h-2.65v-1.04c-.67.74-1.58,1.22-2.92,1.22-1.82,0-3.31-1.04-3.31-2.95h0Zm6.28-.63v-.49c-.47-.22-1.08-.36-1.75-.36-1.17,0-1.89.47-1.89,1.33v.04c0,.74.61,1.17,1.49,1.17,1.28,0,2.14-.7,2.14-1.69h.01Z"/>
          <path class="cls-9" d="m93.27,187.98v-4.57h-1.15v-2.34h1.15v-2.47h2.74v2.47h2.27v2.34h-2.27v4.12c0,.63.27.94.88.94.5,0,.95-.13,1.35-.34v2.2c-.58.34-1.24.56-2.16.56-1.67,0-2.81-.67-2.81-2.9h0Z"/>
          <path class="cls-9" d="m99.55,185.95v-.04c0-2.77,2.23-5.02,5.24-5.02s5.2,2.21,5.2,4.99v.04c0,2.77-2.23,5.02-5.24,5.02s-5.2-2.21-5.2-4.99Zm7.74,0v-.04c0-1.42-1.03-2.67-2.54-2.67s-2.5,1.21-2.5,2.63v.04c0,1.42,1.03,2.67,2.54,2.67s2.5-1.21,2.5-2.63Z"/>
          <path class="cls-9" d="m111.97,181.07h2.74v1.94c.56-1.33,1.46-2.2,3.08-2.12v2.86h-.14c-1.82,0-2.93,1.1-2.93,3.4v3.57h-2.74v-9.65h-.01Z"/>
          <path class="cls-9" d="m125.84,181.07h2.84l-3.71,9.88c-.74,1.96-1.53,2.7-3.17,2.7-.99,0-1.73-.25-2.43-.67l.92-1.98c.36.22.81.38,1.17.38.47,0,.72-.14.95-.63l-3.78-9.69h2.9l2.2,6.57,2.11-6.57h0Z"/>
          <path class="cls-9" d="m2.98,199.17h2.88v2.43h-2.88v-2.43Zm.07,3.49h2.74v9.65h-2.74v-9.65Z"/>
          <path class="cls-9" d="m8.49,199.17h2.74v13.14h-2.74v-13.14Z"/>
          <path class="cls-9" d="m13.33,207.54v-.04c0-2.75,1.96-5.02,4.77-5.02,3.22,0,4.7,2.5,4.7,5.24,0,.22-.02.47-.04.72h-6.72c.27,1.24,1.13,1.89,2.36,1.89.92,0,1.58-.29,2.34-.99l1.57,1.39c-.9,1.12-2.2,1.8-3.94,1.8-2.9,0-5.04-2.03-5.04-4.99Zm6.81-.81c-.16-1.22-.88-2.05-2.03-2.05s-1.87.81-2.09,2.05h4.12Z"/>
          <path class="cls-9" d="m24.36,207.54v-.04c0-2.77,2.23-5.02,5.24-5.02s5.2,2.21,5.2,4.99v.04c0,2.77-2.23,5.02-5.24,5.02s-5.2-2.21-5.2-4.99Zm7.74,0v-.04c0-1.42-1.03-2.67-2.54-2.67s-2.5,1.21-2.5,2.63v.04c0,1.42,1.03,2.67,2.54,2.67s2.5-1.21,2.5-2.63Z"/>
          <path class="cls-9" d="m36.31,207.54v-.04c0-2.75,2.11-5.02,5.06-5.02,1.82,0,2.95.61,3.85,1.62l-1.67,1.8c-.61-.65-1.22-1.06-2.2-1.06-1.37,0-2.34,1.21-2.34,2.63v.04c0,1.48.95,2.67,2.45,2.67.92,0,1.55-.4,2.21-1.03l1.6,1.62c-.94,1.03-2.02,1.76-3.94,1.76-2.9,0-5.02-2.23-5.02-4.99h0Z"/>
          <path class="cls-9" d="m46.32,207.54v-.04c0-2.77,2.23-5.02,5.24-5.02s5.2,2.21,5.2,4.99v.04c0,2.77-2.23,5.02-5.24,5.02s-5.2-2.21-5.2-4.99Zm7.74,0v-.04c0-1.42-1.03-2.67-2.54-2.67s-2.5,1.21-2.5,2.63v.04c0,1.42,1.03,2.67,2.54,2.67s2.5-1.21,2.5-2.63Z"/>
          <path class="cls-9" d="m58.87,199.17h2.74v13.14h-2.74v-13.14Z"/>
          <path class="cls-9" d="m63.71,207.54v-.04c0-2.77,2.23-5.02,5.24-5.02s5.2,2.21,5.2,4.99v.04c0,2.77-2.23,5.02-5.24,5.02s-5.2-2.21-5.2-4.99Zm7.74,0v-.04c0-1.42-1.03-2.67-2.54-2.67s-2.5,1.21-2.5,2.63v.04c0,1.42,1.03,2.67,2.54,2.67s2.5-1.21,2.5-2.63Z"/>
          <path class="cls-9" d="m76.13,202.67h2.74v1.37c.63-.81,1.44-1.55,2.83-1.55,2.07,0,3.28,1.37,3.28,3.58v6.25h-2.74v-5.38c0-1.3-.61-1.96-1.66-1.96s-1.71.67-1.71,1.96v5.38h-2.74v-9.65Z"/>
          <path class="cls-9" d="m87.39,199.17h2.88v2.43h-2.88v-2.43Zm.07,3.49h2.74v9.65h-2.74v-9.65Z"/>
          <path class="cls-9" d="m92.31,207.54v-.04c0-2.75,2.11-5.02,5.06-5.02,1.82,0,2.95.61,3.85,1.62l-1.67,1.8c-.61-.65-1.22-1.06-2.2-1.06-1.37,0-2.34,1.21-2.34,2.63v.04c0,1.48.95,2.67,2.45,2.67.92,0,1.55-.4,2.21-1.03l1.6,1.62c-.94,1.03-2.02,1.76-3.94,1.76-2.9,0-5.02-2.23-5.02-4.99h0Z"/>
          <path class="cls-9" d="m108.18,206.05v-.04c0-3.58,2.7-6.52,6.57-6.52,2.38,0,3.8.79,4.97,1.95l-1.76,2.03c-.97-.88-1.96-1.42-3.22-1.42-2.12,0-3.66,1.76-3.66,3.92v.04c0,2.16,1.49,3.96,3.66,3.96,1.44,0,2.32-.58,3.31-1.48l1.76,1.78c-1.3,1.39-2.74,2.25-5.17,2.25-3.71,0-6.46-2.86-6.46-6.48h0Z"/>
          <path class="cls-9" d="m122.03,199.71h4.92c3.96,0,6.7,2.72,6.7,6.27v.04c0,3.55-2.74,6.3-6.7,6.3h-4.92v-12.6h0Zm2.77,2.5v7.6h2.14c2.27,0,3.8-1.53,3.8-3.76v-.04c0-2.23-1.53-3.8-3.8-3.8h-2.14,0Z"/>
        </g>
        <g>
          <line class="cls-2" x1="68.14" y1="114.28" x2="68.14" y2="114.28"/>
          <line class="cls-1" x1="68.14" y1="120.9" x2="68.14" y2="137.47"/>
          <line class="cls-2" x1="68.14" y1="140.78" x2="68.14" y2="140.78"/>
        </g>
      </g>
      <g id="january_2022_capsule" data-name="january 2022 capsule">
        <path class="cls-6" d="m20,82.2h96c11.05,0,20,8.95,20,20h0c0,11.05-8.95,20-20,20H20c-11.05,0-20-8.95-20-20h0c0-11.05,8.95-20,20-20Z"/>
        <g>
          <path class="cls-10" d="m13.02,106.62l1.55-1.73c.64.71,1.26,1.12,2.05,1.12.93,0,1.5-.56,1.5-1.86v-7.22h2.53v7.33c0,1.33-.38,2.32-1.06,2.99s-1.7,1.04-2.91,1.04c-1.75,0-2.9-.77-3.67-1.68h0Z"/>
          <path class="cls-10" d="m22.39,105.68v-.03c0-1.87,1.42-2.74,3.46-2.74.86,0,1.49.14,2.1.35v-.14c0-1.01-.62-1.57-1.84-1.57-.93,0-1.58.18-2.37.46l-.61-1.86c.94-.42,1.87-.69,3.33-.69,1.33,0,2.29.35,2.9.96.64.64.93,1.58.93,2.74v4.98h-2.35v-.93c-.59.66-1.41,1.09-2.59,1.09-1.62,0-2.95-.93-2.95-2.62h0Zm5.59-.56v-.43c-.42-.19-.96-.32-1.55-.32-1.04,0-1.68.42-1.68,1.18v.03c0,.66.54,1.04,1.33,1.04,1.14,0,1.91-.62,1.91-1.5h-.01Z"/>
          <path class="cls-10" d="m32.38,99.57h2.43v1.22c.56-.72,1.28-1.38,2.51-1.38,1.84,0,2.91,1.22,2.91,3.19v5.55h-2.43v-4.79c0-1.15-.54-1.75-1.47-1.75s-1.52.59-1.52,1.75v4.79h-2.43s0-8.58,0-8.58Z"/>
          <path class="cls-10" d="m42.28,105.12v-5.55h2.43v4.79c0,1.15.54,1.75,1.47,1.75s1.52-.59,1.52-1.75v-4.79h2.43v8.58h-2.43v-1.22c-.56.72-1.28,1.38-2.51,1.38-1.84,0-2.91-1.22-2.91-3.19Z"/>
          <path class="cls-10" d="m51.8,105.68v-.03c0-1.87,1.42-2.74,3.46-2.74.86,0,1.49.14,2.1.35v-.14c0-1.01-.62-1.57-1.84-1.57-.93,0-1.58.18-2.37.46l-.61-1.86c.94-.42,1.87-.69,3.33-.69,1.33,0,2.29.35,2.9.96.64.64.93,1.58.93,2.74v4.98h-2.35v-.93c-.59.66-1.41,1.09-2.59,1.09-1.62,0-2.95-.93-2.95-2.62h0Zm5.59-.56v-.43c-.42-.19-.96-.32-1.55-.32-1.04,0-1.68.42-1.68,1.18v.03c0,.66.54,1.04,1.33,1.04,1.14,0,1.9-.62,1.9-1.5Z"/>
          <path class="cls-10" d="m61.79,99.57h2.43v1.73c.5-1.18,1.3-1.95,2.74-1.89v2.55h-.13c-1.62,0-2.61.98-2.61,3.02v3.17h-2.43v-8.58Z"/>
          <path class="cls-10" d="m74.11,99.57h2.53l-3.3,8.79c-.66,1.74-1.36,2.4-2.82,2.4-.88,0-1.54-.22-2.16-.59l.82-1.76c.32.19.72.34,1.04.34.42,0,.64-.13.85-.56l-3.36-8.61h2.58l1.95,5.84,1.87-5.84h0Z"/>
          <path class="cls-10" d="m82.57,106.19l3.73-3.06c1.39-1.15,1.94-1.76,1.94-2.69s-.62-1.46-1.5-1.46-1.46.48-2.29,1.5l-1.73-1.39c1.1-1.5,2.18-2.32,4.18-2.32,2.32,0,3.86,1.36,3.86,3.46v.03c0,1.87-.96,2.8-2.95,4.34l-1.83,1.41h4.88v2.13h-8.29v-1.95Z"/>
          <path class="cls-10" d="m92.62,102.58v-.03c0-3.25,2.02-5.79,4.99-5.79s4.96,2.51,4.96,5.76v.03c0,3.25-2,5.79-4.99,5.79s-4.96-2.51-4.96-5.76Zm7.43,0v-.03c0-2.03-.99-3.57-2.46-3.57s-2.43,1.49-2.43,3.54v.03c0,2.05.98,3.57,2.46,3.57s2.43-1.5,2.43-3.54Z"/>
          <path class="cls-10" d="m104.06,106.19l3.73-3.06c1.39-1.15,1.94-1.76,1.94-2.69s-.62-1.46-1.5-1.46-1.46.48-2.29,1.5l-1.73-1.39c1.1-1.5,2.18-2.32,4.18-2.32,2.32,0,3.86,1.36,3.86,3.46v.03c0,1.87-.96,2.8-2.95,4.34l-1.83,1.41h4.88v2.13h-8.29v-1.95Z"/>
          <path class="cls-10" d="m114.03,106.19l3.73-3.06c1.39-1.15,1.94-1.76,1.94-2.69s-.62-1.46-1.5-1.46-1.46.48-2.29,1.5l-1.73-1.39c1.1-1.5,2.18-2.32,4.18-2.32,2.32,0,3.86,1.36,3.86,3.46v.03c0,1.87-.96,2.8-2.95,4.34l-1.83,1.41h4.88v2.13h-8.29v-1.95Z"/>
        </g>
      </g>
    </g>
  </g>
</svg>