<?xml version="1.0" encoding="UTF-8"?>
<svg id="ammar_conventional_therapy_follow-up_desktop" data-name="ammar_conventional_therapy_follow-up_desktop" xmlns="http://www.w3.org/2000/svg" xmlns:xlink="http://www.w3.org/1999/xlink" viewBox="0 0 667.46 272.68">
  <defs>
    <style>
      .cls-1 {
        fill: url(#linear-gradient);
      }

      .cls-1, .cls-2, .cls-3, .cls-4, .cls-5, .cls-6, .cls-7, .cls-8 {
        stroke-width: 0px;
      }

      .cls-2, .cls-9, .cls-10, .cls-11 {
        fill: none;
      }

      .cls-3 {
        fill: #82277f;
      }

      .cls-4 {
        fill: #fff;
      }

      .cls-5 {
        fill: #dbdddc;
      }

      .cls-6 {
        fill: url(#linear-gradient-2);
      }

      .cls-9 {
        stroke-dasharray: 0 0 0 5.69;
      }

      .cls-9, .cls-10 {
        stroke: #985b8b;
        stroke-linecap: round;
        stroke-linejoin: round;
        stroke-width: 4px;
      }

      .cls-7 {
        fill: #231f20;
      }

      .cls-8 {
        fill: #ce4230;
      }

      .cls-11 {
        stroke: #808882;
        stroke-miterlimit: 10;
        stroke-width: 2px;
      }
    </style>
    <linearGradient id="linear-gradient" x1="590.85" y1="81.32" x2="590.85" y2="124.21" gradientUnits="userSpaceOnUse">
      <stop offset="0" stop-color="#bebdbd"/>
      <stop offset="1" stop-color="#fff"/>
    </linearGradient>
    <linearGradient id="linear-gradient-2" x1="590.85" y1="83.29" x2="590.85" y2="122.29" gradientUnits="userSpaceOnUse">
      <stop offset="0" stop-color="#82277f"/>
      <stop offset=".19" stop-color="#962e69"/>
      <stop offset=".52" stop-color="#b4394a"/>
      <stop offset=".81" stop-color="#c73f36"/>
      <stop offset="1" stop-color="#ce4230"/>
    </linearGradient>
  </defs>
  <g id="ammar_conventional_therapy_follow-up_desktop_svg">
    <g>
      <line id="timeline" class="cls-11" x1="561.91" y1="104.7" x2="119.34" y2="104.7"/>
      <g id="azathioprine_banner">
        <polygon class="cls-8" points="586.13 64.64 186.95 64.64 196.4 53.15 186.95 41.65 586.13 41.65 595.58 53.15 586.13 64.64"/>
        <g>
          <path class="cls-4" d="m340.13,48.8h1.06l4.57,10.09h-1.22l-1.17-2.65h-5.45l-1.19,2.65h-1.16l4.57-10.09Zm2.79,6.43l-2.28-5.11-2.29,5.11h4.57Z"/>
          <path class="cls-4" d="m347.11,58.19l4.91-5.77h-4.74v-.93h6.24v.7l-4.92,5.77h4.92v.93h-6.41v-.7Z"/>
          <path class="cls-4" d="m354.94,56.74v-.03c0-1.56,1.29-2.39,3.16-2.39.94,0,1.62.13,2.28.31v-.26c0-1.33-.82-2.02-2.2-2.02-.87,0-1.56.23-2.25.54l-.33-.9c.82-.37,1.62-.62,2.69-.62s1.85.27,2.39.82c.5.5.76,1.22.76,2.16v4.52h-1.06v-1.12c-.52.67-1.37,1.27-2.68,1.27-1.37,0-2.76-.79-2.76-2.3Zm5.45-.57v-.72c-.54-.16-1.27-.31-2.18-.31-1.39,0-2.16.6-2.16,1.53v.03c0,.93.86,1.47,1.86,1.47,1.36,0,2.48-.83,2.48-2Z"/>
          <path class="cls-4" d="m364.09,56.93v-4.47h-1.03v-.97h1.03v-2.23h1.1v2.23h2.35v.97h-2.35v4.32c0,.9.5,1.23,1.25,1.23.37,0,.69-.07,1.07-.26v.94c-.39.2-.8.32-1.33.32-1.19,0-2.09-.59-2.09-2.09Z"/>
          <path class="cls-4" d="m369.49,48.44h1.1v4.34c.49-.8,1.26-1.45,2.53-1.45,1.79,0,2.83,1.2,2.83,2.96v4.59h-1.1v-4.32c0-1.37-.74-2.23-2.05-2.23s-2.22.93-2.22,2.32v4.24h-1.1v-10.45Z"/>
          <path class="cls-4" d="m378.33,48.65h1.26v1.22h-1.26v-1.22Zm.07,2.83h1.1v7.4h-1.1v-7.4Z"/>
          <path class="cls-4" d="m381.6,55.22v-.03c0-2.09,1.63-3.86,3.86-3.86s3.85,1.75,3.85,3.83v.03c0,2.09-1.65,3.86-3.88,3.86s-3.84-1.75-3.84-3.84Zm6.58,0v-.03c0-1.59-1.19-2.89-2.75-2.89s-2.71,1.3-2.71,2.86v.03c0,1.59,1.17,2.88,2.73,2.88s2.72-1.29,2.72-2.85Z"/>
          <path class="cls-4" d="m391.3,51.49h1.1v1.49c.6-.89,1.47-1.65,2.83-1.65,1.77,0,3.54,1.4,3.54,3.83v.03c0,2.42-1.75,3.85-3.54,3.85-1.37,0-2.26-.74-2.83-1.57v3.71h-1.1v-9.69Zm6.34,3.72v-.03c0-1.75-1.2-2.86-2.6-2.86s-2.68,1.16-2.68,2.85v.03c0,1.72,1.3,2.86,2.68,2.86s2.6-1.06,2.6-2.85Z"/>
          <path class="cls-4" d="m400.8,51.49h1.1v1.93c.54-1.23,1.62-2.12,3.02-2.06v1.19h-.09c-1.62,0-2.93,1.16-2.93,3.39v2.95h-1.1v-7.4Z"/>
          <path class="cls-4" d="m406.63,48.65h1.26v1.22h-1.26v-1.22Zm.07,2.83h1.1v7.4h-1.1v-7.4Z"/>
          <path class="cls-4" d="m410.36,51.49h1.1v1.29c.49-.8,1.26-1.45,2.53-1.45,1.79,0,2.83,1.2,2.83,2.96v4.59h-1.1v-4.32c0-1.37-.74-2.23-2.05-2.23s-2.22.93-2.22,2.32v4.24h-1.1v-7.4Z"/>
          <path class="cls-4" d="m418.72,55.21v-.03c0-2.13,1.5-3.85,3.55-3.85,2.19,0,3.45,1.75,3.45,3.91,0,.14,0,.23-.01.36h-5.87c.16,1.6,1.29,2.5,2.6,2.5,1.02,0,1.73-.42,2.33-1.04l.69.62c-.74.83-1.65,1.39-3.05,1.39-2.03,0-3.69-1.56-3.69-3.85Zm5.88-.43c-.11-1.35-.89-2.52-2.36-2.52-1.29,0-2.26,1.07-2.4,2.52h4.77Z"/>
        </g>
      </g>
      <g id="budesonide_banner">
        <polygon class="cls-8" points="586.33 22.99 348.57 22.99 358.02 11.49 348.57 0 586.33 0 595.78 11.49 586.33 22.99"/>
        <g>
          <path class="cls-4" d="m394.42,7.22h4.27c1.15,0,2.05.33,2.62.89.42.43.64.96.64,1.6v.03c0,1.3-.8,1.98-1.59,2.32,1.19.36,2.15,1.04,2.15,2.42v.03c0,1.72-1.45,2.73-3.64,2.73h-4.45V7.22Zm6.38,2.65c0-.99-.79-1.63-2.22-1.63h-3.05v3.45h2.96c1.36,0,2.3-.62,2.3-1.79v-.03Zm-2.1,2.82h-3.16v3.54h3.36c1.52,0,2.46-.67,2.46-1.79v-.03c0-1.09-.92-1.72-2.66-1.72Z"/>
          <path class="cls-4" d="m404.44,14.43v-4.59h1.1v4.32c0,1.37.74,2.23,2.05,2.23s2.22-.93,2.22-2.32v-4.24h1.09v7.4h-1.09v-1.29c-.5.8-1.26,1.45-2.53,1.45-1.79,0-2.83-1.2-2.83-2.96Z"/>
          <path class="cls-4" d="m412.94,13.56v-.03c0-2.42,1.76-3.85,3.54-3.85,1.37,0,2.26.74,2.83,1.57v-4.47h1.1v10.45h-1.1v-1.49c-.6.89-1.47,1.65-2.83,1.65-1.77,0-3.54-1.4-3.54-3.84Zm6.41-.01v-.03c0-1.7-1.3-2.85-2.68-2.85s-2.6,1.06-2.6,2.85v.03c0,1.75,1.2,2.86,2.6,2.86s2.68-1.16,2.68-2.86Z"/>
          <path class="cls-4" d="m422.41,13.56v-.03c0-2.13,1.5-3.85,3.55-3.85,2.19,0,3.45,1.75,3.45,3.91,0,.14,0,.23-.01.36h-5.87c.16,1.6,1.29,2.5,2.6,2.5,1.02,0,1.73-.42,2.33-1.04l.69.62c-.74.83-1.65,1.39-3.05,1.39-2.03,0-3.69-1.56-3.69-3.85Zm5.88-.43c-.11-1.35-.89-2.52-2.36-2.52-1.29,0-2.26,1.07-2.4,2.52h4.77Z"/>
          <path class="cls-4" d="m430.73,16.29l.56-.79c.8.6,1.69.94,2.56.94s1.53-.46,1.53-1.17v-.03c0-.74-.87-1.03-1.85-1.3-1.16-.33-2.45-.73-2.45-2.09v-.03c0-1.27,1.06-2.12,2.52-2.12.9,0,1.9.31,2.66.82l-.5.83c-.69-.44-1.47-.72-2.19-.72-.87,0-1.43.46-1.43,1.07v.03c0,.7.92.97,1.9,1.27,1.15.34,2.38.79,2.38,2.12v.03c0,1.4-1.16,2.22-2.63,2.22-1.06,0-2.23-.42-3.06-1.09Z"/>
          <path class="cls-4" d="m438.01,13.57v-.03c0-2.09,1.63-3.86,3.86-3.86s3.85,1.75,3.85,3.83v.03c0,2.09-1.65,3.86-3.88,3.86s-3.84-1.75-3.84-3.84Zm6.58,0v-.03c0-1.59-1.19-2.89-2.75-2.89s-2.71,1.3-2.71,2.86v.03c0,1.59,1.17,2.88,2.73,2.88s2.72-1.29,2.72-2.85Z"/>
          <path class="cls-4" d="m447.71,9.84h1.1v1.29c.49-.8,1.26-1.45,2.53-1.45,1.79,0,2.83,1.2,2.83,2.96v4.59h-1.1v-4.32c0-1.37-.74-2.23-2.05-2.23s-2.22.93-2.22,2.32v4.24h-1.1v-7.4Z"/>
          <path class="cls-4" d="m456.55,7h1.26v1.22h-1.26v-1.22Zm.07,2.83h1.1v7.4h-1.1v-7.4Z"/>
          <path class="cls-4" d="m459.85,13.56v-.03c0-2.42,1.76-3.85,3.54-3.85,1.37,0,2.26.74,2.83,1.57v-4.47h1.1v10.45h-1.1v-1.49c-.6.89-1.47,1.65-2.83,1.65-1.77,0-3.54-1.4-3.54-3.84Zm6.41-.01v-.03c0-1.7-1.3-2.85-2.68-2.85s-2.6,1.06-2.6,2.85v.03c0,1.75,1.2,2.86,2.6,2.86s2.68-1.16,2.68-2.86Z"/>
          <path class="cls-4" d="m469.32,13.56v-.03c0-2.13,1.5-3.85,3.55-3.85,2.19,0,3.45,1.75,3.45,3.91,0,.14,0,.23-.01.36h-5.87c.16,1.6,1.29,2.5,2.6,2.5,1.02,0,1.73-.42,2.33-1.04l.69.62c-.74.83-1.65,1.39-3.05,1.39-2.03,0-3.69-1.56-3.69-3.85Zm5.88-.43c-.11-1.35-.89-2.52-2.36-2.52-1.29,0-2.26,1.07-2.4,2.52h4.77Z"/>
          <path class="cls-4" d="m482.96,10.81h-1.02v-.96h1.02v-.64c0-.84.23-1.49.64-1.9.37-.37.92-.57,1.59-.57.52,0,.86.06,1.22.19v.96c-.4-.11-.7-.19-1.07-.19-.86,0-1.29.52-1.29,1.57v.6h2.35v.94h-2.33v6.43h-1.1v-6.43Z"/>
          <path class="cls-4" d="m487.19,13.57v-.03c0-2.09,1.63-3.86,3.86-3.86s3.85,1.75,3.85,3.83v.03c0,2.09-1.65,3.86-3.88,3.86s-3.84-1.75-3.84-3.84Zm6.58,0v-.03c0-1.59-1.19-2.89-2.75-2.89s-2.71,1.3-2.71,2.86v.03c0,1.59,1.17,2.88,2.73,2.88s2.72-1.29,2.72-2.85Z"/>
          <path class="cls-4" d="m496.89,9.84h1.1v1.93c.54-1.23,1.62-2.12,3.02-2.06v1.19h-.09c-1.62,0-2.93,1.16-2.93,3.39v2.95h-1.1v-7.4Z"/>
          <path class="cls-4" d="m508.31,8.32l-1.89.59-.27-.92,2.45-.84h.83v10.09h-1.12v-8.92Z"/>
          <path class="cls-4" d="m513.43,8.32l-1.89.59-.27-.92,2.45-.84h.83v10.09h-1.12v-8.92Z"/>
          <path class="cls-4" d="m520.88,9.84h1.17l1.95,5.94,1.99-5.97h.92l2,5.97,1.95-5.94h1.15l-2.6,7.46h-.96l-1.99-5.84-2,5.84h-.97l-2.59-7.46Z"/>
          <path class="cls-4" d="m533.01,13.56v-.03c0-2.13,1.5-3.85,3.55-3.85,2.19,0,3.45,1.75,3.45,3.91,0,.14,0,.23-.01.36h-5.87c.16,1.6,1.29,2.5,2.6,2.5,1.02,0,1.73-.42,2.33-1.04l.69.62c-.74.83-1.65,1.39-3.05,1.39-2.03,0-3.69-1.56-3.69-3.85Zm5.88-.43c-.11-1.35-.89-2.52-2.36-2.52-1.29,0-2.26,1.07-2.4,2.52h4.77Z"/>
          <path class="cls-4" d="m541.48,13.56v-.03c0-2.13,1.5-3.85,3.55-3.85,2.19,0,3.45,1.75,3.45,3.91,0,.14,0,.23-.01.36h-5.87c.16,1.6,1.29,2.5,2.6,2.5,1.02,0,1.73-.42,2.33-1.04l.69.62c-.74.83-1.65,1.39-3.05,1.39-2.03,0-3.69-1.56-3.69-3.85Zm5.88-.43c-.11-1.35-.89-2.52-2.36-2.52-1.29,0-2.26,1.07-2.4,2.52h4.77Z"/>
          <path class="cls-4" d="m550.41,6.79h1.1v7.21l3.99-4.17h1.37l-3.11,3.18,3.21,4.22h-1.32l-2.65-3.45-1.5,1.52v1.93h-1.1V6.79Z"/>
          <path class="cls-4" d="m557.84,16.29l.56-.79c.8.6,1.69.94,2.56.94s1.53-.46,1.53-1.17v-.03c0-.74-.87-1.03-1.85-1.3-1.16-.33-2.45-.73-2.45-2.09v-.03c0-1.27,1.06-2.12,2.52-2.12.9,0,1.9.31,2.66.82l-.5.83c-.69-.44-1.47-.72-2.19-.72-.87,0-1.43.46-1.43,1.07v.03c0,.7.92.97,1.9,1.27,1.15.34,2.38.79,2.38,2.12v.03c0,1.4-1.16,2.22-2.63,2.22-1.06,0-2.23-.42-3.06-1.09Z"/>
        </g>
      </g>
      <g id="january_2022_text">
        <g>
          <path class="cls-3" d="m12.9,170.74h4.92c3.96,0,6.7,2.72,6.7,6.27v.04c0,3.55-2.74,6.3-6.7,6.3h-4.92v-12.6Zm2.77,2.5v7.6h2.14c2.27,0,3.8-1.53,3.8-3.76v-.04c0-2.23-1.53-3.8-3.8-3.8h-2.14Z"/>
          <path class="cls-3" d="m26.75,170.2h2.88v2.43h-2.88v-2.43Zm.07,3.49h2.74v9.65h-2.74v-9.65Z"/>
          <path class="cls-3" d="m31.55,180.57v-.04c0-2.11,1.6-3.08,3.89-3.08.97,0,1.67.16,2.36.4v-.16c0-1.13-.7-1.76-2.07-1.76-1.04,0-1.78.2-2.67.52l-.68-2.09c1.06-.47,2.11-.77,3.75-.77,1.49,0,2.57.4,3.26,1.08.72.72,1.04,1.78,1.04,3.08v5.6h-2.65v-1.04c-.67.74-1.58,1.22-2.92,1.22-1.82,0-3.31-1.04-3.31-2.95Zm6.28-.63v-.49c-.47-.22-1.08-.36-1.75-.36-1.17,0-1.89.47-1.89,1.33v.04c0,.74.61,1.17,1.49,1.17,1.28,0,2.14-.7,2.14-1.69Z"/>
          <path class="cls-3" d="m42.84,185.25l.94-2.05c.99.56,1.98.88,3.26.88,1.87,0,2.75-.9,2.75-2.63v-.47c-.81.97-1.69,1.57-3.15,1.57-2.25,0-4.29-1.64-4.29-4.5v-.04c0-2.88,2.07-4.5,4.29-4.5,1.49,0,2.38.63,3.11,1.44v-1.26h2.74v7.47c0,1.73-.41,2.99-1.22,3.8-.9.9-2.29,1.3-4.16,1.3-1.57,0-3.04-.36-4.27-1.01Zm6.95-7.2v-.04c0-1.31-1.03-2.23-2.36-2.23s-2.34.92-2.34,2.23v.04c0,1.33,1.01,2.23,2.34,2.23s2.36-.92,2.36-2.23Z"/>
          <path class="cls-3" d="m54.93,173.69h2.74v1.37c.63-.81,1.44-1.55,2.83-1.55,2.07,0,3.28,1.37,3.28,3.58v6.25h-2.74v-5.38c0-1.3-.61-1.96-1.66-1.96s-1.71.67-1.71,1.96v5.38h-2.74v-9.65Z"/>
          <path class="cls-3" d="m65.68,178.57v-.04c0-2.77,2.23-5.02,5.24-5.02s5.2,2.21,5.2,4.99v.04c0,2.77-2.23,5.02-5.24,5.02s-5.2-2.21-5.2-4.99Zm7.74,0v-.04c0-1.42-1.03-2.67-2.54-2.67s-2.5,1.21-2.5,2.63v.04c0,1.42,1.03,2.67,2.54,2.67s2.5-1.21,2.5-2.63Z"/>
          <path class="cls-3" d="m77.34,182.07l1.17-1.8c1.04.76,2.14,1.15,3.04,1.15.79,0,1.15-.29,1.15-.72v-.04c0-.59-.94-.79-2-1.12-1.35-.4-2.88-1.03-2.88-2.9v-.04c0-1.96,1.58-3.06,3.53-3.06,1.22,0,2.56.41,3.6,1.12l-1.04,1.89c-.95-.56-1.91-.9-2.61-.9-.67,0-1.01.29-1.01.67v.04c0,.54.92.79,1.96,1.15,1.35.45,2.92,1.1,2.92,2.86v.04c0,2.14-1.6,3.11-3.69,3.11-1.35,0-2.86-.45-4.14-1.46Z"/>
          <path class="cls-3" d="m87.19,170.2h2.88v2.43h-2.88v-2.43Zm.07,3.49h2.74v9.65h-2.74v-9.65Z"/>
          <path class="cls-3" d="m91.81,182.07l1.17-1.8c1.04.76,2.14,1.15,3.04,1.15.79,0,1.15-.29,1.15-.72v-.04c0-.59-.94-.79-2-1.12-1.35-.4-2.88-1.03-2.88-2.9v-.04c0-1.96,1.58-3.06,3.53-3.06,1.22,0,2.56.41,3.6,1.12l-1.04,1.89c-.95-.56-1.91-.9-2.61-.9-.67,0-1.01.29-1.01.67v.04c0,.54.92.79,1.96,1.15,1.35.45,2.92,1.1,2.92,2.86v.04c0,2.14-1.6,3.11-3.69,3.11-1.35,0-2.86-.45-4.14-1.46Z"/>
          <path class="cls-3" d="m106.54,178.57v-.04c0-2.77,2.23-5.02,5.24-5.02s5.2,2.21,5.2,4.99v.04c0,2.77-2.23,5.02-5.24,5.02s-5.2-2.21-5.2-4.99Zm7.74,0v-.04c0-1.42-1.03-2.67-2.54-2.67s-2.5,1.21-2.5,2.63v.04c0,1.42,1.03,2.67,2.54,2.67s2.5-1.21,2.5-2.63Z"/>
          <path class="cls-3" d="m119.43,176.03h-1.13v-2.25h1.13v-.61c0-1.06.27-1.84.77-2.34.5-.5,1.24-.76,2.21-.76.86,0,1.44.11,1.94.27v2.27c-.4-.14-.77-.23-1.24-.23-.63,0-.99.32-.99,1.04v.38h2.21v2.23h-2.18v7.31h-2.74v-7.31Z"/>
          <path class="cls-3" d="m8.35,191.8h2.88v2.43h-2.88v-2.43Zm.07,3.49h2.74v9.65h-2.74v-9.65Z"/>
          <path class="cls-3" d="m13.73,195.29h2.74v1.37c.63-.81,1.44-1.55,2.83-1.55,2.07,0,3.28,1.37,3.28,3.58v6.25h-2.74v-5.38c0-1.3-.61-1.96-1.66-1.96s-1.71.67-1.71,1.96v5.38h-2.74v-9.65Z"/>
          <path class="cls-3" d="m25.41,197.63h-1.13v-2.25h1.13v-.61c0-1.06.27-1.84.77-2.34.5-.5,1.24-.76,2.21-.76.86,0,1.44.11,1.94.27v2.27c-.4-.14-.77-.23-1.24-.23-.63,0-.99.32-.99,1.04v.38h2.21v2.23h-2.18v7.31h-2.74v-7.31Zm6.54-5.83h2.74v13.14h-2.74v-13.14Z"/>
          <path class="cls-3" d="m36.68,202.17v-.04c0-2.11,1.6-3.08,3.89-3.08.97,0,1.67.16,2.36.4v-.16c0-1.13-.7-1.76-2.07-1.76-1.04,0-1.78.2-2.66.52l-.68-2.09c1.06-.47,2.11-.77,3.75-.77,1.49,0,2.57.4,3.26,1.08.72.72,1.04,1.78,1.04,3.08v5.6h-2.65v-1.04c-.67.74-1.58,1.22-2.92,1.22-1.82,0-3.31-1.04-3.31-2.95Zm6.28-.63v-.49c-.47-.22-1.08-.36-1.75-.36-1.17,0-1.89.47-1.89,1.33v.04c0,.74.61,1.17,1.49,1.17,1.28,0,2.14-.7,2.14-1.69Z"/>
          <path class="cls-3" d="m47.91,195.29h2.74v1.37c.63-.81,1.46-1.55,2.84-1.55,1.26,0,2.21.56,2.72,1.53.85-.99,1.85-1.53,3.17-1.53,2.03,0,3.26,1.22,3.26,3.55v6.28h-2.74v-5.38c0-1.3-.58-1.96-1.6-1.96s-1.66.67-1.66,1.96v5.38h-2.74v-5.38c0-1.3-.58-1.96-1.6-1.96s-1.66.67-1.66,1.96v5.38h-2.74v-9.65Z"/>
          <path class="cls-3" d="m65.01,195.29h2.74v1.37c.63-.81,1.46-1.55,2.85-1.55,1.26,0,2.21.56,2.72,1.53.85-.99,1.85-1.53,3.17-1.53,2.03,0,3.26,1.22,3.26,3.55v6.28h-2.74v-5.38c0-1.3-.58-1.96-1.6-1.96s-1.66.67-1.66,1.96v5.38h-2.74v-5.38c0-1.3-.58-1.96-1.6-1.96s-1.66.67-1.66,1.96v5.38h-2.74v-9.65Z"/>
          <path class="cls-3" d="m81.54,202.17v-.04c0-2.11,1.6-3.08,3.89-3.08.97,0,1.67.16,2.36.4v-.16c0-1.13-.7-1.76-2.07-1.76-1.04,0-1.78.2-2.67.52l-.68-2.09c1.06-.47,2.11-.77,3.75-.77,1.49,0,2.57.4,3.26,1.08.72.72,1.04,1.78,1.04,3.08v5.6h-2.65v-1.04c-.67.74-1.58,1.22-2.92,1.22-1.82,0-3.31-1.04-3.31-2.95Zm6.28-.63v-.49c-.47-.22-1.08-.36-1.75-.36-1.17,0-1.89.47-1.89,1.33v.04c0,.74.61,1.17,1.49,1.17,1.28,0,2.14-.7,2.14-1.69Z"/>
          <path class="cls-3" d="m93.13,202.21v-4.57h-1.15v-2.34h1.15v-2.47h2.74v2.47h2.27v2.34h-2.27v4.12c0,.63.27.94.88.94.5,0,.95-.13,1.35-.34v2.2c-.58.34-1.24.56-2.16.56-1.67,0-2.81-.67-2.81-2.9Z"/>
          <path class="cls-3" d="m99.41,200.17v-.04c0-2.77,2.23-5.02,5.24-5.02s5.2,2.21,5.2,4.99v.04c0,2.77-2.23,5.02-5.24,5.02s-5.2-2.21-5.2-4.99Zm7.74,0v-.04c0-1.42-1.03-2.67-2.54-2.67s-2.5,1.21-2.5,2.63v.04c0,1.42,1.03,2.67,2.54,2.67s2.5-1.21,2.5-2.63Z"/>
          <path class="cls-3" d="m111.83,195.29h2.74v1.95c.56-1.33,1.46-2.2,3.08-2.12v2.86h-.14c-1.82,0-2.94,1.1-2.94,3.4v3.57h-2.74v-9.65Z"/>
          <path class="cls-3" d="m125.69,195.29h2.85l-3.71,9.89c-.74,1.96-1.53,2.7-3.17,2.7-.99,0-1.73-.25-2.43-.67l.92-1.98c.36.22.81.38,1.17.38.47,0,.72-.14.95-.63l-3.78-9.69h2.9l2.2,6.57,2.11-6.57Z"/>
          <path class="cls-3" d="m2.83,213.4h2.88v2.43h-2.88v-2.43Zm.07,3.49h2.74v9.65h-2.74v-9.65Z"/>
          <path class="cls-3" d="m8.34,213.4h2.74v13.14h-2.74v-13.14Z"/>
          <path class="cls-3" d="m13.18,221.77v-.04c0-2.75,1.96-5.02,4.77-5.02,3.22,0,4.7,2.5,4.7,5.24,0,.22-.02.47-.04.72h-6.72c.27,1.24,1.13,1.89,2.36,1.89.92,0,1.58-.29,2.34-.99l1.57,1.39c-.9,1.12-2.2,1.8-3.94,1.8-2.9,0-5.04-2.03-5.04-4.99Zm6.81-.81c-.16-1.22-.88-2.05-2.03-2.05s-1.87.81-2.09,2.05h4.12Z"/>
          <path class="cls-3" d="m24.22,221.77v-.04c0-2.77,2.23-5.02,5.24-5.02s5.2,2.21,5.2,4.99v.04c0,2.77-2.23,5.02-5.24,5.02s-5.2-2.21-5.2-4.99Zm7.74,0v-.04c0-1.42-1.03-2.67-2.54-2.67s-2.5,1.21-2.5,2.63v.04c0,1.42,1.03,2.67,2.54,2.67s2.5-1.21,2.5-2.63Z"/>
          <path class="cls-3" d="m36.17,221.77v-.04c0-2.75,2.11-5.02,5.06-5.02,1.82,0,2.95.61,3.85,1.62l-1.67,1.8c-.61-.65-1.22-1.06-2.2-1.06-1.37,0-2.34,1.21-2.34,2.63v.04c0,1.48.95,2.67,2.45,2.67.92,0,1.55-.4,2.21-1.03l1.6,1.62c-.94,1.03-2.02,1.76-3.94,1.76-2.9,0-5.02-2.23-5.02-4.99Z"/>
          <path class="cls-3" d="m46.17,221.77v-.04c0-2.77,2.23-5.02,5.24-5.02s5.2,2.21,5.2,4.99v.04c0,2.77-2.23,5.02-5.24,5.02s-5.2-2.21-5.2-4.99Zm7.74,0v-.04c0-1.42-1.03-2.67-2.54-2.67s-2.5,1.21-2.5,2.63v.04c0,1.42,1.03,2.67,2.54,2.67s2.5-1.21,2.5-2.63Z"/>
          <path class="cls-3" d="m58.72,213.4h2.74v13.14h-2.74v-13.14Z"/>
          <path class="cls-3" d="m63.56,221.77v-.04c0-2.77,2.23-5.02,5.24-5.02s5.2,2.21,5.2,4.99v.04c0,2.77-2.23,5.02-5.24,5.02s-5.2-2.21-5.2-4.99Zm7.74,0v-.04c0-1.42-1.03-2.67-2.54-2.67s-2.5,1.21-2.5,2.63v.04c0,1.42,1.03,2.67,2.54,2.67s2.5-1.21,2.5-2.63Z"/>
          <path class="cls-3" d="m75.98,216.89h2.74v1.37c.63-.81,1.44-1.55,2.83-1.55,2.07,0,3.28,1.37,3.28,3.58v6.25h-2.74v-5.38c0-1.3-.61-1.96-1.66-1.96s-1.71.67-1.71,1.96v5.38h-2.74v-9.65Z"/>
          <path class="cls-3" d="m87.25,213.4h2.88v2.43h-2.88v-2.43Zm.07,3.49h2.74v9.65h-2.74v-9.65Z"/>
          <path class="cls-3" d="m92.16,221.77v-.04c0-2.75,2.11-5.02,5.06-5.02,1.82,0,2.95.61,3.85,1.62l-1.67,1.8c-.61-.65-1.22-1.06-2.2-1.06-1.37,0-2.34,1.21-2.34,2.63v.04c0,1.48.95,2.67,2.45,2.67.92,0,1.55-.4,2.21-1.03l1.6,1.62c-.94,1.03-2.02,1.76-3.94,1.76-2.9,0-5.02-2.23-5.02-4.99Z"/>
          <path class="cls-3" d="m108.04,220.28v-.04c0-3.58,2.7-6.52,6.57-6.52,2.38,0,3.8.79,4.97,1.94l-1.76,2.03c-.97-.88-1.96-1.42-3.22-1.42-2.12,0-3.66,1.76-3.66,3.92v.04c0,2.16,1.49,3.96,3.66,3.96,1.44,0,2.32-.58,3.31-1.48l1.76,1.78c-1.3,1.39-2.74,2.25-5.17,2.25-3.71,0-6.46-2.86-6.46-6.48Z"/>
          <path class="cls-3" d="m121.88,213.94h4.92c3.96,0,6.7,2.72,6.7,6.27v.04c0,3.55-2.74,6.3-6.7,6.3h-4.92v-12.6Zm2.77,2.5v7.6h2.14c2.27,0,3.8-1.53,3.8-3.76v-.04c0-2.23-1.53-3.8-3.8-3.8h-2.14Z"/>
        </g>
        <g>
          <line class="cls-10" x1="68" y1="127.16" x2="68" y2="127.16"/>
          <line class="cls-9" x1="68" y1="132.85" x2="68" y2="158.46"/>
          <line class="cls-10" x1="68" y1="161.31" x2="68" y2="161.31"/>
        </g>
      </g>
      <g id="january_2022_capsule">
        <rect class="cls-5" x="0" y="83.05" width="136" height="40" rx="20" ry="20"/>
        <g>
          <path class="cls-3" d="m13.02,107.48l1.55-1.73c.64.71,1.26,1.12,2.05,1.12.93,0,1.5-.56,1.5-1.86v-7.22h2.53v7.33c0,1.33-.38,2.32-1.06,2.99-.69.69-1.7,1.04-2.91,1.04-1.74,0-2.9-.77-3.67-1.68Z"/>
          <path class="cls-3" d="m22.39,106.54v-.03c0-1.87,1.42-2.74,3.46-2.74.86,0,1.49.14,2.1.35v-.14c0-1.01-.62-1.57-1.84-1.57-.93,0-1.58.18-2.37.46l-.61-1.86c.94-.42,1.87-.69,3.33-.69,1.33,0,2.29.35,2.9.96.64.64.93,1.58.93,2.74v4.98h-2.35v-.93c-.59.66-1.41,1.09-2.59,1.09-1.62,0-2.95-.93-2.95-2.62Zm5.59-.56v-.43c-.42-.19-.96-.32-1.55-.32-1.04,0-1.68.42-1.68,1.18v.03c0,.66.54,1.04,1.33,1.04,1.14,0,1.9-.62,1.9-1.5Z"/>
          <path class="cls-3" d="m32.38,100.42h2.43v1.22c.56-.72,1.28-1.38,2.51-1.38,1.84,0,2.91,1.22,2.91,3.19v5.55h-2.43v-4.79c0-1.15-.54-1.75-1.47-1.75s-1.52.59-1.52,1.75v4.79h-2.43v-8.58Z"/>
          <path class="cls-3" d="m42.28,105.98v-5.55h2.43v4.79c0,1.15.54,1.75,1.47,1.75s1.52-.59,1.52-1.75v-4.79h2.43v8.58h-2.43v-1.22c-.56.72-1.28,1.38-2.51,1.38-1.84,0-2.91-1.22-2.91-3.19Z"/>
          <path class="cls-3" d="m51.8,106.54v-.03c0-1.87,1.42-2.74,3.46-2.74.86,0,1.49.14,2.1.35v-.14c0-1.01-.62-1.57-1.84-1.57-.93,0-1.58.18-2.37.46l-.61-1.86c.94-.42,1.87-.69,3.33-.69,1.33,0,2.29.35,2.9.96.64.64.93,1.58.93,2.74v4.98h-2.35v-.93c-.59.66-1.41,1.09-2.59,1.09-1.62,0-2.95-.93-2.95-2.62Zm5.59-.56v-.43c-.42-.19-.96-.32-1.55-.32-1.04,0-1.68.42-1.68,1.18v.03c0,.66.54,1.04,1.33,1.04,1.14,0,1.9-.62,1.9-1.5Z"/>
          <path class="cls-3" d="m61.78,100.42h2.43v1.73c.5-1.18,1.3-1.95,2.74-1.89v2.55h-.13c-1.62,0-2.61.98-2.61,3.02v3.17h-2.43v-8.58Z"/>
          <path class="cls-3" d="m74.11,100.42h2.53l-3.3,8.79c-.66,1.74-1.36,2.4-2.82,2.4-.88,0-1.54-.22-2.16-.59l.82-1.76c.32.19.72.34,1.04.34.42,0,.64-.13.85-.56l-3.36-8.61h2.58l1.95,5.84,1.87-5.84Z"/>
          <path class="cls-3" d="m82.57,107.05l3.73-3.06c1.39-1.15,1.94-1.76,1.94-2.69s-.62-1.46-1.5-1.46-1.46.48-2.29,1.5l-1.73-1.39c1.1-1.5,2.18-2.32,4.18-2.32,2.32,0,3.86,1.36,3.86,3.46v.03c0,1.87-.96,2.8-2.95,4.34l-1.82,1.41h4.88v2.13h-8.29v-1.95Z"/>
          <path class="cls-3" d="m92.62,103.43v-.03c0-3.25,2.02-5.79,4.99-5.79s4.96,2.51,4.96,5.76v.03c0,3.25-2,5.79-4.99,5.79s-4.96-2.51-4.96-5.76Zm7.43,0v-.03c0-2.03-.99-3.57-2.47-3.57s-2.43,1.49-2.43,3.54v.03c0,2.05.98,3.57,2.46,3.57s2.43-1.5,2.43-3.54Z"/>
          <path class="cls-3" d="m104.06,107.05l3.73-3.06c1.39-1.15,1.94-1.76,1.94-2.69s-.62-1.46-1.5-1.46-1.46.48-2.29,1.5l-1.73-1.39c1.1-1.5,2.18-2.32,4.18-2.32,2.32,0,3.86,1.36,3.86,3.46v.03c0,1.87-.96,2.8-2.95,4.34l-1.82,1.41h4.88v2.13h-8.29v-1.95Z"/>
          <path class="cls-3" d="m114.02,107.05l3.73-3.06c1.39-1.15,1.94-1.76,1.94-2.69s-.62-1.46-1.5-1.46-1.46.48-2.29,1.5l-1.73-1.39c1.1-1.5,2.18-2.32,4.18-2.32,2.32,0,3.86,1.36,3.86,3.46v.03c0,1.87-.96,2.8-2.95,4.34l-1.82,1.41h4.88v2.13h-8.29v-1.95Z"/>
        </g>
      </g>
      <g id="march_2022_text">
        <g>
          <path class="cls-7" d="m196.27,177.08v-.04c0-3.58,2.7-6.52,6.57-6.52,2.38,0,3.8.79,4.97,1.95l-1.76,2.03c-.97-.88-1.96-1.42-3.22-1.42-2.12,0-3.66,1.76-3.66,3.92v.04c0,2.16,1.49,3.96,3.66,3.96,1.44,0,2.32-.58,3.31-1.48l1.76,1.78c-1.3,1.39-2.74,2.25-5.17,2.25-3.71,0-6.46-2.86-6.46-6.48Z"/>
          <path class="cls-7" d="m210.11,170.74h4.92c3.96,0,6.7,2.72,6.7,6.27v.04c0,3.55-2.74,6.3-6.7,6.3h-4.92v-12.6Zm2.77,2.5v7.6h2.14c2.27,0,3.8-1.53,3.8-3.76v-.04c0-2.23-1.53-3.8-3.8-3.8h-2.14Z"/>
          <path class="cls-7" d="m227.61,170.65h2.56l5.4,12.69h-2.9l-1.15-2.83h-5.33l-1.15,2.83h-2.83l5.4-12.69Zm2.92,7.42l-1.67-4.09-1.67,4.09h3.35Z"/>
          <path class="cls-7" d="m237.63,170.74h2.77v12.6h-2.77v-12.6Z"/>
          <path class="cls-7" d="m243.25,173.69h2.92v2.88h-2.92v-2.88Zm0,6.77h2.92v2.88h-2.92v-2.88Z"/>
          <path class="cls-7" d="m253.65,181.15l4.2-3.44c1.57-1.3,2.18-1.98,2.18-3.02s-.7-1.64-1.69-1.64-1.64.54-2.57,1.69l-1.94-1.57c1.24-1.69,2.45-2.61,4.7-2.61,2.61,0,4.34,1.53,4.34,3.89v.04c0,2.11-1.08,3.15-3.31,4.88l-2.05,1.58h5.49v2.39h-9.33v-2.2Z"/>
          <path class="cls-7" d="m270.88,180.63h-6.16l-.45-1.96,6.91-8.01h2.34v7.72h1.69v2.25h-1.69v2.72h-2.65v-2.72Zm0-2.25v-3.92l-3.35,3.92h3.35Z"/>
          <path class="cls-7" d="m277.09,177.08v-.04c0-3.66,2.27-6.52,5.62-6.52s5.58,2.83,5.58,6.48v.04c0,3.66-2.25,6.52-5.62,6.52s-5.58-2.83-5.58-6.48Zm8.35,0v-.04c0-2.29-1.12-4.02-2.77-4.02s-2.74,1.67-2.74,3.98v.04c0,2.3,1.1,4.01,2.77,4.01s2.74-1.69,2.74-3.98Z"/>
          <path class="cls-7" d="m181.31,192.25h1.33l5.74,12.69h-1.53l-1.48-3.33h-6.86l-1.49,3.33h-1.46l5.74-12.69Zm3.51,8.08l-2.86-6.43-2.88,6.43h5.74Z"/>
          <path class="cls-7" d="m190.63,195.64h1.39v1.57c.61-.92,1.44-1.76,3.01-1.76s2.48.81,2.99,1.85c.67-1.03,1.66-1.85,3.28-1.85,2.14,0,3.46,1.44,3.46,3.75v5.76h-1.39v-5.44c0-1.8-.9-2.81-2.41-2.81-1.4,0-2.57,1.04-2.57,2.88v5.37h-1.37v-5.47c0-1.75-.92-2.77-2.39-2.77s-2.59,1.22-2.59,2.93v5.31h-1.39v-9.31Z"/>
          <path class="cls-7" d="m207.7,195.64h1.39v1.57c.61-.92,1.44-1.76,3.01-1.76s2.48.81,2.99,1.85c.67-1.03,1.66-1.85,3.28-1.85,2.14,0,3.46,1.44,3.46,3.75v5.76h-1.39v-5.44c0-1.8-.9-2.81-2.41-2.81-1.4,0-2.58,1.04-2.58,2.88v5.37h-1.37v-5.47c0-1.75-.92-2.77-2.39-2.77s-2.59,1.22-2.59,2.93v5.31h-1.39v-9.31Z"/>
          <path class="cls-7" d="m224.06,202.24v-.04c0-1.96,1.62-3.01,3.98-3.01,1.19,0,2.03.16,2.86.4v-.32c0-1.67-1.03-2.54-2.77-2.54-1.1,0-1.96.29-2.83.68l-.41-1.13c1.03-.47,2.03-.77,3.39-.77s2.32.34,3.01,1.03c.63.63.95,1.53.95,2.72v5.69h-1.33v-1.4c-.65.85-1.73,1.6-3.37,1.6-1.73,0-3.48-.99-3.48-2.9Zm6.86-.72v-.9c-.68-.2-1.6-.4-2.74-.4-1.75,0-2.72.76-2.72,1.93v.04c0,1.17,1.08,1.85,2.34,1.85,1.71,0,3.11-1.04,3.11-2.52Z"/>
          <path class="cls-7" d="m235.18,195.64h1.39v2.43c.68-1.55,2.03-2.67,3.8-2.59v1.49h-.11c-2.03,0-3.69,1.46-3.69,4.27v3.71h-1.39v-9.31Z"/>
          <path class="cls-7" d="m247.1,203.76l.7-.99c1.01.76,2.12,1.19,3.22,1.19s1.93-.58,1.93-1.48v-.04c0-.94-1.1-1.3-2.32-1.64-1.46-.41-3.08-.92-3.08-2.63v-.04c0-1.6,1.33-2.67,3.17-2.67,1.13,0,2.4.4,3.35,1.03l-.63,1.04c-.86-.56-1.85-.9-2.75-.9-1.1,0-1.8.58-1.8,1.35v.04c0,.88,1.15,1.22,2.4,1.6,1.44.43,2.99.99,2.99,2.67v.04c0,1.76-1.46,2.79-3.31,2.79-1.33,0-2.81-.52-3.85-1.37Z"/>
          <path class="cls-7" d="m257.14,202.48v-5.62h-1.3v-1.22h1.3v-2.81h1.39v2.81h2.95v1.22h-2.95v5.44c0,1.13.63,1.55,1.57,1.55.47,0,.86-.09,1.35-.32v1.19c-.49.25-1.01.4-1.67.4-1.49,0-2.63-.74-2.63-2.63Z"/>
          <path class="cls-7" d="m263.23,202.24v-.04c0-1.96,1.62-3.01,3.98-3.01,1.19,0,2.03.16,2.86.4v-.32c0-1.67-1.03-2.54-2.77-2.54-1.1,0-1.96.29-2.83.68l-.41-1.13c1.03-.47,2.03-.77,3.39-.77s2.32.34,3.01,1.03c.63.63.95,1.53.95,2.72v5.69h-1.33v-1.4c-.65.85-1.73,1.6-3.37,1.6-1.73,0-3.48-.99-3.48-2.9Zm6.86-.72v-.9c-.68-.2-1.6-.4-2.74-.4-1.75,0-2.72.76-2.72,1.93v.04c0,1.17,1.08,1.85,2.34,1.85,1.71,0,3.11-1.04,3.11-2.52Z"/>
          <path class="cls-7" d="m274.35,195.64h1.39v2.43c.68-1.55,2.03-2.67,3.8-2.59v1.49h-.11c-2.03,0-3.69,1.46-3.69,4.27v3.71h-1.39v-9.31Z"/>
          <path class="cls-7" d="m282.13,202.48v-5.62h-1.3v-1.22h1.3v-2.81h1.39v2.81h2.95v1.22h-2.95v5.44c0,1.13.63,1.55,1.57,1.55.47,0,.86-.09,1.35-.32v1.19c-.49.25-1.01.4-1.67.4-1.49,0-2.63-.74-2.63-2.63Z"/>
          <path class="cls-7" d="m288.07,200.32v-.04c0-2.68,1.89-4.84,4.47-4.84,2.75,0,4.34,2.2,4.34,4.92,0,.18,0,.29-.02.45h-7.38c.2,2.02,1.62,3.15,3.28,3.15,1.28,0,2.18-.52,2.93-1.31l.86.77c-.94,1.04-2.07,1.75-3.83,1.75-2.56,0-4.65-1.96-4.65-4.84Zm7.4-.54c-.14-1.69-1.12-3.17-2.97-3.17-1.62,0-2.84,1.35-3.02,3.17h6Z"/>
          <path class="cls-7" d="m298.76,200.32v-.04c0-3.04,2.21-4.84,4.45-4.84,1.73,0,2.84.94,3.56,1.98v-5.62h1.39v13.14h-1.39v-1.87c-.76,1.12-1.85,2.07-3.56,2.07-2.23,0-4.45-1.76-4.45-4.83Zm8.07-.02v-.04c0-2.14-1.64-3.58-3.37-3.58s-3.28,1.33-3.28,3.58v.04c0,2.2,1.51,3.6,3.28,3.6s3.37-1.46,3.37-3.6Z"/>
          <path class="cls-3" d="m185.54,223.77v-.04c0-2.11,1.6-3.08,3.89-3.08.97,0,1.67.16,2.36.4v-.16c0-1.13-.7-1.76-2.07-1.76-1.04,0-1.78.2-2.66.52l-.68-2.09c1.06-.47,2.11-.77,3.75-.77,1.49,0,2.57.4,3.26,1.08.72.72,1.04,1.78,1.04,3.08v5.6h-2.65v-1.04c-.67.74-1.58,1.22-2.92,1.22-1.82,0-3.31-1.04-3.31-2.95Zm6.28-.63v-.49c-.47-.22-1.08-.36-1.75-.36-1.17,0-1.89.47-1.89,1.33v.04c0,.74.61,1.17,1.49,1.17,1.28,0,2.14-.7,2.14-1.69Z"/>
          <path class="cls-3" d="m196.45,224.62l4.99-5.51h-4.83v-2.21h8.23v1.93l-5.01,5.51h5.01v2.21h-8.39v-1.93Z"/>
          <path class="cls-3" d="m206.33,223.77v-.04c0-2.11,1.6-3.08,3.89-3.08.97,0,1.67.16,2.36.4v-.16c0-1.13-.7-1.76-2.07-1.76-1.04,0-1.78.2-2.67.52l-.68-2.09c1.06-.47,2.11-.77,3.75-.77,1.49,0,2.57.4,3.26,1.08.72.72,1.04,1.78,1.04,3.08v5.6h-2.65v-1.04c-.67.74-1.58,1.22-2.92,1.22-1.82,0-3.31-1.04-3.31-2.95Zm6.28-.63v-.49c-.47-.22-1.08-.36-1.75-.36-1.17,0-1.89.47-1.89,1.33v.04c0,.74.61,1.17,1.49,1.17,1.28,0,2.14-.7,2.14-1.69Z"/>
          <path class="cls-3" d="m217.92,223.81v-4.57h-1.15v-2.34h1.15v-2.47h2.74v2.47h2.27v2.34h-2.27v4.12c0,.63.27.94.88.94.5,0,.95-.13,1.35-.34v2.2c-.58.34-1.24.56-2.16.56-1.67,0-2.81-.67-2.81-2.9Z"/>
          <path class="cls-3" d="m224.94,213.4h2.74v4.86c.63-.81,1.44-1.55,2.83-1.55,2.07,0,3.28,1.37,3.28,3.58v6.25h-2.74v-5.38c0-1.3-.61-1.96-1.66-1.96s-1.71.67-1.71,1.96v5.38h-2.74v-13.14Z"/>
          <path class="cls-3" d="m236.21,213.4h2.88v2.43h-2.88v-2.43Zm.07,3.49h2.74v9.65h-2.74v-9.65Z"/>
          <path class="cls-3" d="m241.12,221.77v-.04c0-2.77,2.23-5.02,5.24-5.02s5.2,2.21,5.2,4.99v.04c0,2.77-2.23,5.02-5.24,5.02s-5.2-2.21-5.2-4.99Zm7.74,0v-.04c0-1.42-1.03-2.67-2.54-2.67s-2.5,1.21-2.5,2.63v.04c0,1.42,1.03,2.67,2.54,2.67s2.5-1.21,2.5-2.63Z"/>
          <path class="cls-3" d="m253.54,216.89h2.74v1.39c.67-.9,1.58-1.57,3.01-1.57,2.25,0,4.39,1.76,4.39,4.99v.04c0,3.22-2.11,4.99-4.39,4.99-1.46,0-2.36-.67-3.01-1.44v4.14h-2.74v-12.53Zm7.4,4.84v-.04c0-1.6-1.08-2.66-2.36-2.66s-2.34,1.06-2.34,2.66v.04c0,1.6,1.06,2.67,2.34,2.67s2.36-1.04,2.36-2.67Z"/>
          <path class="cls-3" d="m265.69,216.89h2.74v1.95c.56-1.33,1.46-2.2,3.08-2.12v2.86h-.14c-1.82,0-2.94,1.1-2.94,3.4v3.57h-2.74v-9.65Z"/>
          <path class="cls-3" d="m273.27,213.4h2.88v2.43h-2.88v-2.43Zm.07,3.49h2.74v9.65h-2.74v-9.65Z"/>
          <path class="cls-3" d="m278.65,216.89h2.74v1.37c.63-.81,1.44-1.55,2.83-1.55,2.07,0,3.28,1.37,3.28,3.58v6.25h-2.74v-5.38c0-1.3-.61-1.96-1.66-1.96s-1.71.67-1.71,1.96v5.38h-2.74v-9.65Z"/>
          <path class="cls-3" d="m289.4,221.77v-.04c0-2.75,1.96-5.02,4.77-5.02,3.22,0,4.7,2.5,4.7,5.24,0,.22-.02.47-.04.72h-6.72c.27,1.24,1.13,1.89,2.36,1.89.92,0,1.58-.29,2.34-.99l1.57,1.39c-.9,1.12-2.2,1.8-3.94,1.8-2.9,0-5.04-2.03-5.04-4.99Zm6.81-.81c-.16-1.22-.88-2.05-2.03-2.05s-1.87.81-2.09,2.05h4.12Z"/>
          <path class="cls-3" d="m169.93,238.26l-2.2.54-.58-2.27,3.62-1.08h1.89v12.69h-2.74v-9.88Z"/>
          <path class="cls-3" d="m175.29,241.88v-.04c0-3.66,2.27-6.52,5.62-6.52s5.58,2.83,5.58,6.48v.04c0,3.66-2.25,6.52-5.62,6.52s-5.58-2.83-5.58-6.48Zm8.35,0v-.04c0-2.29-1.12-4.02-2.77-4.02s-2.74,1.67-2.74,3.98v.04c0,2.3,1.1,4.01,2.77,4.01s2.74-1.69,2.74-3.98Z"/>
          <path class="cls-3" d="m188.43,241.88v-.04c0-3.66,2.27-6.52,5.62-6.52s5.58,2.83,5.58,6.48v.04c0,3.66-2.25,6.52-5.62,6.52s-5.58-2.83-5.58-6.48Zm8.35,0v-.04c0-2.29-1.12-4.02-2.77-4.02s-2.74,1.67-2.74,3.98v.04c0,2.3,1.1,4.01,2.77,4.01s2.74-1.69,2.74-3.98Z"/>
          <path class="cls-3" d="m207.22,238.49h2.74v1.37c.63-.81,1.46-1.55,2.84-1.55,1.26,0,2.21.56,2.72,1.53.85-.99,1.85-1.53,3.17-1.53,2.03,0,3.26,1.22,3.26,3.55v6.28h-2.74v-5.38c0-1.3-.58-1.96-1.6-1.96s-1.66.67-1.66,1.96v5.38h-2.74v-5.38c0-1.3-.58-1.96-1.6-1.96s-1.66.67-1.66,1.96v5.38h-2.74v-9.65Z"/>
          <path class="cls-3" d="m224.38,250.05l.94-2.05c.99.56,1.98.88,3.26.88,1.87,0,2.75-.9,2.75-2.63v-.47c-.81.97-1.69,1.57-3.15,1.57-2.25,0-4.29-1.64-4.29-4.5v-.04c0-2.88,2.07-4.5,4.29-4.5,1.49,0,2.38.63,3.11,1.44v-1.26h2.74v7.47c0,1.73-.41,2.99-1.22,3.8-.9.9-2.29,1.3-4.16,1.3-1.57,0-3.04-.36-4.27-1.01Zm6.95-7.2v-.04c0-1.31-1.03-2.23-2.36-2.23s-2.34.92-2.34,2.23v.04c0,1.33,1.01,2.23,2.34,2.23s2.36-.92,2.36-2.23Z"/>
          <path class="cls-3" d="m242.16,235.54h5.15c3.01,0,4.83,1.78,4.83,4.36v.04c0,2.92-2.27,4.43-5.1,4.43h-2.11v3.78h-2.77v-12.6Zm4.97,6.36c1.39,0,2.2-.83,2.2-1.91v-.04c0-1.24-.86-1.91-2.25-1.91h-2.14v3.85h2.2Z"/>
          <path class="cls-3" d="m253.62,241.88v-.04c0-3.58,2.83-6.52,6.72-6.52s6.68,2.9,6.68,6.48v.04c0,3.58-2.83,6.52-6.72,6.52s-6.68-2.9-6.68-6.48Zm10.5,0v-.04c0-2.16-1.58-3.96-3.82-3.96s-3.78,1.76-3.78,3.92v.04c0,2.16,1.58,3.96,3.82,3.96s3.78-1.76,3.78-3.92Z"/>
          <path class="cls-3" d="m274.16,243.34v-.04c0-3.22,2.11-4.99,4.39-4.99,1.46,0,2.36.67,3.01,1.44v-4.75h2.74v13.14h-2.74v-1.39c-.67.9-1.58,1.57-3.01,1.57-2.25,0-4.39-1.76-4.39-4.99Zm7.44,0v-.04c0-1.6-1.06-2.66-2.34-2.66s-2.36,1.04-2.36,2.66v.04c0,1.6,1.08,2.67,2.36,2.67s2.34-1.06,2.34-2.67Z"/>
          <path class="cls-3" d="m286.17,245.37v-.04c0-2.11,1.6-3.08,3.89-3.08.97,0,1.67.16,2.36.4v-.16c0-1.13-.7-1.76-2.07-1.76-1.04,0-1.78.2-2.67.52l-.68-2.09c1.06-.47,2.11-.77,3.75-.77,1.49,0,2.57.4,3.26,1.08.72.72,1.04,1.78,1.04,3.08v5.6h-2.65v-1.04c-.67.74-1.58,1.22-2.92,1.22-1.82,0-3.31-1.04-3.31-2.95Zm6.28-.63v-.49c-.47-.22-1.08-.36-1.75-.36-1.17,0-1.89.47-1.89,1.33v.04c0,.74.61,1.17,1.49,1.17,1.28,0,2.14-.7,2.14-1.69Z"/>
          <path class="cls-3" d="m297.45,235h2.88v2.43h-2.88v-2.43Zm.07,3.49h2.74v9.65h-2.74v-9.65Z"/>
          <path class="cls-3" d="m302.96,235h2.74v13.14h-2.74v-13.14Z"/>
          <path class="cls-3" d="m314.61,238.49h2.84l-3.71,9.89c-.74,1.96-1.53,2.7-3.17,2.7-.99,0-1.73-.25-2.43-.67l.92-1.98c.36.22.81.38,1.17.38.47,0,.72-.14.95-.63l-3.78-9.69h2.9l2.2,6.57,2.11-6.57Z"/>
        </g>
        <g>
          <line class="cls-10" x1="242.28" y1="127.16" x2="242.28" y2="127.16"/>
          <line class="cls-9" x1="242.28" y1="132.85" x2="242.28" y2="158.46"/>
          <line class="cls-10" x1="242.28" y1="161.31" x2="242.28" y2="161.31"/>
        </g>
      </g>
      <g id="march_2022_capsule">
        <rect class="cls-5" x="174.28" y="83.05" width="136" height="40" rx="20" ry="20"/>
        <g>
          <path class="cls-3" d="m196.06,97.8h2.66l2.95,4.74,2.95-4.74h2.66v11.21h-2.45v-7.32l-3.15,4.79h-.06l-3.12-4.74v7.27h-2.42v-11.21Z"/>
          <path class="cls-3" d="m209.18,106.54v-.03c0-1.87,1.42-2.74,3.46-2.74.86,0,1.49.14,2.1.35v-.14c0-1.01-.62-1.57-1.84-1.57-.93,0-1.58.18-2.37.46l-.61-1.86c.94-.42,1.87-.69,3.33-.69,1.33,0,2.29.35,2.9.96.64.64.93,1.58.93,2.74v4.98h-2.35v-.93c-.59.66-1.41,1.09-2.59,1.09-1.62,0-2.95-.93-2.95-2.62Zm5.59-.56v-.43c-.42-.19-.96-.32-1.55-.32-1.04,0-1.68.42-1.68,1.18v.03c0,.66.54,1.04,1.33,1.04,1.14,0,1.9-.62,1.9-1.5Z"/>
          <path class="cls-3" d="m219.16,100.42h2.43v1.73c.5-1.18,1.3-1.95,2.74-1.89v2.55h-.13c-1.62,0-2.61.98-2.61,3.02v3.17h-2.43v-8.58Z"/>
          <path class="cls-3" d="m225.2,104.76v-.03c0-2.45,1.87-4.47,4.5-4.47,1.62,0,2.62.54,3.43,1.44l-1.49,1.6c-.54-.58-1.09-.94-1.95-.94-1.22,0-2.08,1.07-2.08,2.34v.03c0,1.31.85,2.37,2.18,2.37.82,0,1.38-.35,1.97-.91l1.42,1.44c-.83.91-1.79,1.57-3.51,1.57-2.58,0-4.47-1.98-4.47-4.43Z"/>
          <path class="cls-3" d="m234.75,97.32h2.43v4.32c.56-.72,1.28-1.38,2.51-1.38,1.84,0,2.91,1.22,2.91,3.19v5.55h-2.43v-4.79c0-1.15-.54-1.75-1.47-1.75s-1.52.59-1.52,1.75v4.79h-2.43v-11.68Z"/>
          <path class="cls-3" d="m249.21,107.05l3.73-3.06c1.39-1.15,1.94-1.76,1.94-2.69s-.62-1.46-1.5-1.46-1.46.48-2.29,1.5l-1.73-1.39c1.1-1.5,2.18-2.32,4.18-2.32,2.32,0,3.86,1.36,3.86,3.46v.03c0,1.87-.96,2.8-2.95,4.34l-1.82,1.41h4.88v2.13h-8.29v-1.95Z"/>
          <path class="cls-3" d="m259.26,103.43v-.03c0-3.25,2.02-5.79,4.99-5.79s4.96,2.51,4.96,5.76v.03c0,3.25-2,5.79-4.99,5.79s-4.96-2.51-4.96-5.76Zm7.43,0v-.03c0-2.03-.99-3.57-2.47-3.57s-2.43,1.49-2.43,3.54v.03c0,2.05.98,3.57,2.46,3.57s2.43-1.5,2.43-3.54Z"/>
          <path class="cls-3" d="m270.7,107.05l3.73-3.06c1.39-1.15,1.94-1.76,1.94-2.69s-.62-1.46-1.5-1.46-1.46.48-2.29,1.5l-1.73-1.39c1.1-1.5,2.18-2.32,4.18-2.32,2.32,0,3.86,1.36,3.86,3.46v.03c0,1.87-.96,2.8-2.95,4.34l-1.83,1.41h4.88v2.13h-8.29v-1.95Z"/>
          <path class="cls-3" d="m280.67,107.05l3.73-3.06c1.39-1.15,1.94-1.76,1.94-2.69s-.62-1.46-1.5-1.46-1.46.48-2.29,1.5l-1.73-1.39c1.1-1.5,2.18-2.32,4.18-2.32,2.32,0,3.86,1.36,3.86,3.46v.03c0,1.87-.96,2.8-2.95,4.34l-1.83,1.41h4.88v2.13h-8.29v-1.95Z"/>
        </g>
      </g>
      <g id="june_2022_text">
        <g>
          <path class="cls-7" d="m349.49,170.65h1.33l5.74,12.69h-1.53l-1.48-3.33h-6.86l-1.49,3.33h-1.46l5.74-12.69Zm3.51,8.08l-2.86-6.43-2.88,6.43h5.74Z"/>
          <path class="cls-7" d="m358.82,174.04h1.39v1.57c.61-.92,1.44-1.76,3.01-1.76s2.48.81,2.99,1.85c.67-1.03,1.66-1.85,3.28-1.85,2.14,0,3.46,1.44,3.46,3.75v5.76h-1.39v-5.44c0-1.8-.9-2.81-2.41-2.81-1.4,0-2.58,1.04-2.58,2.88v5.37h-1.37v-5.47c0-1.75-.92-2.77-2.39-2.77s-2.59,1.22-2.59,2.93v5.31h-1.39v-9.31Z"/>
          <path class="cls-7" d="m375.88,174.04h1.39v1.57c.61-.92,1.44-1.76,3.01-1.76s2.48.81,2.99,1.85c.67-1.03,1.66-1.85,3.28-1.85,2.14,0,3.46,1.44,3.46,3.75v5.76h-1.39v-5.44c0-1.8-.9-2.81-2.41-2.81-1.4,0-2.57,1.04-2.57,2.88v5.37h-1.37v-5.47c0-1.75-.92-2.77-2.39-2.77s-2.59,1.22-2.59,2.93v5.31h-1.39v-9.31Z"/>
          <path class="cls-7" d="m392.24,180.64v-.04c0-1.96,1.62-3.01,3.98-3.01,1.19,0,2.03.16,2.86.4v-.32c0-1.67-1.03-2.54-2.77-2.54-1.1,0-1.96.29-2.83.68l-.41-1.13c1.03-.47,2.03-.77,3.39-.77s2.32.34,3.01,1.03c.63.63.95,1.53.95,2.72v5.69h-1.33v-1.4c-.65.85-1.73,1.6-3.37,1.6-1.73,0-3.48-.99-3.48-2.9Zm6.86-.72v-.9c-.68-.2-1.6-.4-2.74-.4-1.75,0-2.72.76-2.72,1.93v.04c0,1.17,1.08,1.85,2.34,1.85,1.71,0,3.12-1.04,3.12-2.52Z"/>
          <path class="cls-7" d="m403.37,174.04h1.39v2.43c.68-1.55,2.03-2.67,3.8-2.59v1.49h-.11c-2.03,0-3.69,1.46-3.69,4.27v3.71h-1.39v-9.31Z"/>
          <path class="cls-7" d="m416.06,174.04h1.39v2.43c.68-1.55,2.03-2.67,3.8-2.59v1.49h-.11c-2.03,0-3.69,1.46-3.69,4.27v3.71h-1.39v-9.31Z"/>
          <path class="cls-7" d="m422.37,178.72v-.04c0-2.68,1.89-4.84,4.47-4.84,2.75,0,4.34,2.2,4.34,4.92,0,.18,0,.29-.02.45h-7.38c.2,2.02,1.62,3.15,3.28,3.15,1.28,0,2.18-.52,2.93-1.31l.86.77c-.94,1.04-2.07,1.75-3.83,1.75-2.56,0-4.65-1.96-4.65-4.84Zm7.4-.54c-.14-1.69-1.12-3.17-2.97-3.17-1.62,0-2.85,1.35-3.03,3.17h6Z"/>
          <path class="cls-7" d="m433.03,178.73v-.04c0-2.63,2.05-4.86,4.77-4.86,1.76,0,2.86.74,3.73,1.66l-.92.97c-.74-.77-1.57-1.4-2.83-1.4-1.89,0-3.33,1.6-3.33,3.6v.04c0,2.02,1.48,3.62,3.42,3.62,1.19,0,2.11-.59,2.84-1.39l.88.83c-.94,1.04-2.05,1.8-3.8,1.8-2.72,0-4.77-2.21-4.77-4.83Z"/>
          <path class="cls-7" d="m443.04,178.72v-.04c0-2.68,1.89-4.84,4.47-4.84,2.75,0,4.34,2.2,4.34,4.92,0,.18,0,.29-.02.45h-7.38c.2,2.02,1.62,3.15,3.28,3.15,1.28,0,2.18-.52,2.93-1.31l.86.77c-.94,1.04-2.07,1.75-3.83,1.75-2.56,0-4.65-1.96-4.65-4.84Zm7.4-.54c-.14-1.69-1.12-3.17-2.97-3.17-1.62,0-2.84,1.35-3.02,3.17h6Z"/>
          <path class="cls-7" d="m454.31,170.47h1.58v1.53h-1.58v-1.53Zm.09,3.57h1.39v9.31h-1.39v-9.31Z"/>
          <path class="cls-7" d="m458.08,174.04h1.53l3.13,7.72,3.15-7.72h1.49l-4.05,9.38h-1.22l-4.03-9.38Z"/>
          <path class="cls-7" d="m468.45,178.72v-.04c0-2.68,1.89-4.84,4.47-4.84,2.75,0,4.34,2.2,4.34,4.92,0,.18,0,.29-.02.45h-7.38c.2,2.02,1.62,3.15,3.28,3.15,1.28,0,2.18-.52,2.93-1.31l.86.77c-.94,1.04-2.07,1.75-3.83,1.75-2.56,0-4.65-1.96-4.65-4.84Zm7.4-.54c-.14-1.69-1.12-3.17-2.97-3.17-1.62,0-2.84,1.35-3.02,3.17h6Z"/>
          <path class="cls-7" d="m479.14,178.72v-.04c0-3.04,2.21-4.84,4.45-4.84,1.73,0,2.84.94,3.56,1.98v-5.62h1.39v13.14h-1.39v-1.87c-.76,1.12-1.85,2.07-3.56,2.07-2.23,0-4.45-1.76-4.45-4.83Zm8.07-.02v-.04c0-2.14-1.64-3.58-3.37-3.58s-3.28,1.33-3.28,3.58v.04c0,2.2,1.51,3.6,3.28,3.6s3.37-1.46,3.37-3.6Z"/>
          <path class="cls-3" d="m340.86,203.68v1.26h-2.74v-13.14h2.74v4.88c.67-.9,1.58-1.57,3.01-1.57,2.25,0,4.39,1.76,4.39,4.99v.04c0,3.22-2.11,4.99-4.39,4.99-1.46,0-2.36-.67-3.01-1.44Zm4.66-3.55v-.04c0-1.6-1.08-2.66-2.36-2.66s-2.34,1.06-2.34,2.66v.04c0,1.6,1.06,2.67,2.34,2.67s2.36-1.04,2.36-2.67Z"/>
          <path class="cls-3" d="m350.2,201.54v-6.25h2.74v5.38c0,1.3.61,1.96,1.66,1.96s1.71-.67,1.71-1.96v-5.38h2.74v9.65h-2.74v-1.37c-.63.81-1.44,1.55-2.83,1.55-2.07,0-3.28-1.37-3.28-3.58Z"/>
          <path class="cls-3" d="m361.06,200.14v-.04c0-3.22,2.11-4.99,4.39-4.99,1.46,0,2.36.67,3.01,1.44v-4.75h2.74v13.14h-2.74v-1.39c-.67.9-1.58,1.57-3.01,1.57-2.25,0-4.39-1.76-4.39-4.99Zm7.44,0v-.04c0-1.6-1.06-2.66-2.34-2.66s-2.36,1.04-2.36,2.66v.04c0,1.6,1.08,2.67,2.36,2.67s2.34-1.06,2.34-2.67Z"/>
          <path class="cls-3" d="m373.17,200.17v-.04c0-2.75,1.96-5.02,4.77-5.02,3.22,0,4.7,2.5,4.7,5.24,0,.22-.02.47-.04.72h-6.72c.27,1.24,1.13,1.89,2.36,1.89.92,0,1.58-.29,2.34-.99l1.57,1.39c-.9,1.12-2.2,1.8-3.94,1.8-2.9,0-5.04-2.03-5.04-4.99Zm6.81-.81c-.16-1.22-.88-2.05-2.03-2.05s-1.87.81-2.09,2.05h4.12Z"/>
          <path class="cls-3" d="m383.92,203.67l1.17-1.8c1.04.76,2.14,1.15,3.04,1.15.79,0,1.15-.29,1.15-.72v-.04c0-.59-.94-.79-2-1.12-1.35-.4-2.88-1.03-2.88-2.9v-.04c0-1.96,1.58-3.06,3.53-3.06,1.22,0,2.56.41,3.6,1.12l-1.04,1.89c-.95-.56-1.91-.9-2.61-.9-.67,0-1.01.29-1.01.67v.04c0,.54.92.79,1.96,1.15,1.35.45,2.92,1.1,2.92,2.86v.04c0,2.14-1.6,3.11-3.69,3.11-1.35,0-2.86-.45-4.14-1.46Z"/>
          <path class="cls-3" d="m393.24,200.17v-.04c0-2.77,2.23-5.02,5.24-5.02s5.2,2.21,5.2,4.99v.04c0,2.77-2.23,5.02-5.24,5.02s-5.2-2.21-5.2-4.99Zm7.74,0v-.04c0-1.42-1.03-2.67-2.54-2.67s-2.5,1.21-2.5,2.63v.04c0,1.42,1.03,2.67,2.54,2.67s2.5-1.21,2.5-2.63Z"/>
          <path class="cls-3" d="m405.66,195.29h2.74v1.37c.63-.81,1.44-1.55,2.83-1.55,2.07,0,3.28,1.37,3.28,3.58v6.25h-2.74v-5.38c0-1.3-.61-1.96-1.66-1.96s-1.71.67-1.71,1.96v5.38h-2.74v-9.65Z"/>
          <path class="cls-3" d="m416.93,191.8h2.88v2.43h-2.88v-2.43Zm.07,3.49h2.74v9.65h-2.74v-9.65Z"/>
          <path class="cls-3" d="m421.88,200.14v-.04c0-3.22,2.11-4.99,4.39-4.99,1.46,0,2.36.67,3.01,1.44v-4.75h2.74v13.14h-2.74v-1.39c-.67.9-1.58,1.57-3.01,1.57-2.25,0-4.39-1.76-4.39-4.99Zm7.44,0v-.04c0-1.6-1.06-2.66-2.34-2.66s-2.36,1.04-2.36,2.66v.04c0,1.6,1.08,2.67,2.36,2.67s2.34-1.06,2.34-2.67Z"/>
          <path class="cls-3" d="m433.99,200.17v-.04c0-2.75,1.96-5.02,4.77-5.02,3.22,0,4.7,2.5,4.7,5.24,0,.22-.02.47-.04.72h-6.72c.27,1.24,1.13,1.89,2.36,1.89.92,0,1.58-.29,2.34-.99l1.57,1.39c-.9,1.12-2.2,1.8-3.94,1.8-2.9,0-5.04-2.03-5.04-4.99Zm6.81-.81c-.16-1.22-.88-2.05-2.03-2.05s-1.87.81-2.09,2.05h4.12Z"/>
          <path class="cls-3" d="m457.74,199.78c-.65.54-1.48.86-2.56.86-2.74,0-4.5-1.51-4.5-4.07v-.04c0-2.54,1.96-4.41,4.81-4.41,1.69,0,2.68.41,3.64,1.37.9.9,1.49,2.27,1.49,4.75v.04c0,4.09-1.93,6.88-5.51,6.88-1.84,0-3.08-.61-4.14-1.49l1.46-2.11c.92.74,1.69,1.08,2.75,1.08,1.91,0,2.45-1.78,2.56-2.86Zm.05-3.31v-.04c0-1.12-.83-1.93-2.21-1.93s-2.14.79-2.14,1.91v.04c0,1.12.83,1.89,2.2,1.89s2.16-.79,2.16-1.87Z"/>
          <path class="cls-3" d="m468.21,195.29h2.74v1.37c.63-.81,1.46-1.55,2.84-1.55,1.26,0,2.21.56,2.72,1.53.85-.99,1.85-1.53,3.17-1.53,2.03,0,3.26,1.22,3.26,3.55v6.28h-2.74v-5.38c0-1.3-.58-1.96-1.6-1.96s-1.66.67-1.66,1.96v5.38h-2.74v-5.38c0-1.3-.58-1.96-1.6-1.96s-1.66.67-1.66,1.96v5.38h-2.74v-9.65Z"/>
          <path class="cls-3" d="m485.36,206.85l.94-2.05c.99.56,1.98.88,3.26.88,1.87,0,2.75-.9,2.75-2.63v-.47c-.81.97-1.69,1.57-3.15,1.57-2.25,0-4.29-1.64-4.29-4.5v-.04c0-2.88,2.07-4.5,4.29-4.5,1.49,0,2.38.63,3.11,1.44v-1.26h2.74v7.47c0,1.73-.41,2.99-1.22,3.8-.9.9-2.29,1.3-4.16,1.3-1.57,0-3.04-.36-4.27-1.01Zm6.95-7.2v-.04c0-1.31-1.03-2.23-2.36-2.23s-2.34.92-2.34,2.23v.04c0,1.33,1.01,2.23,2.34,2.23s2.36-.92,2.36-2.23Z"/>
          <path class="cls-3" d="m364.11,213.94h5.15c3.01,0,4.83,1.78,4.83,4.36v.04c0,2.92-2.27,4.43-5.1,4.43h-2.11v3.78h-2.77v-12.6Zm4.97,6.36c1.39,0,2.2-.83,2.2-1.91v-.04c0-1.24-.86-1.91-2.25-1.91h-2.14v3.85h2.2Z"/>
          <path class="cls-3" d="m375.57,220.28v-.04c0-3.58,2.83-6.52,6.72-6.52s6.68,2.9,6.68,6.48v.04c0,3.58-2.83,6.52-6.72,6.52s-6.68-2.9-6.68-6.48Zm10.5,0v-.04c0-2.16-1.58-3.96-3.82-3.96s-3.78,1.76-3.78,3.92v.04c0,2.16,1.58,3.96,3.82,3.96s3.78-1.76,3.78-3.92Z"/>
          <path class="cls-3" d="m396.11,221.74v-.04c0-3.22,2.11-4.99,4.39-4.99,1.46,0,2.36.67,3.01,1.44v-4.75h2.74v13.14h-2.74v-1.39c-.67.9-1.58,1.57-3.01,1.57-2.25,0-4.39-1.76-4.39-4.99Zm7.44,0v-.04c0-1.6-1.06-2.66-2.34-2.66s-2.36,1.04-2.36,2.66v.04c0,1.6,1.08,2.67,2.36,2.67s2.34-1.06,2.34-2.67Z"/>
          <path class="cls-3" d="m408.12,223.77v-.04c0-2.11,1.6-3.08,3.89-3.08.97,0,1.67.16,2.36.4v-.16c0-1.13-.7-1.76-2.07-1.76-1.04,0-1.78.2-2.67.52l-.68-2.09c1.06-.47,2.11-.77,3.75-.77,1.49,0,2.57.4,3.26,1.08.72.72,1.04,1.78,1.04,3.08v5.6h-2.65v-1.04c-.67.74-1.58,1.22-2.92,1.22-1.82,0-3.31-1.04-3.31-2.95Zm6.28-.63v-.49c-.47-.22-1.08-.36-1.75-.36-1.17,0-1.89.47-1.89,1.33v.04c0,.74.61,1.17,1.49,1.17,1.28,0,2.14-.7,2.14-1.69Z"/>
          <path class="cls-3" d="m419.4,213.4h2.88v2.43h-2.88v-2.43Zm.07,3.49h2.74v9.65h-2.74v-9.65Z"/>
          <path class="cls-3" d="m424.91,213.4h2.74v13.14h-2.74v-13.14Z"/>
          <path class="cls-3" d="m436.56,216.89h2.84l-3.71,9.89c-.74,1.96-1.53,2.7-3.17,2.7-.99,0-1.73-.25-2.43-.67l.92-1.98c.36.22.81.38,1.17.38.47,0,.72-.14.95-.63l-3.78-9.69h2.9l2.2,6.57,2.11-6.57Z"/>
          <path class="cls-7" d="m447.27,218.46h-1.28v-1.21h1.28v-.81c0-1.06.29-1.87.81-2.4.47-.47,1.15-.72,2-.72.65,0,1.08.07,1.53.23v1.21c-.5-.14-.88-.23-1.35-.23-1.08,0-1.62.65-1.62,1.98v.76h2.95v1.19h-2.94v8.08h-1.39v-8.08Z"/>
          <path class="cls-7" d="m452.59,221.93v-.04c0-2.63,2.05-4.86,4.86-4.86s4.84,2.2,4.84,4.83v.04c0,2.63-2.07,4.86-4.88,4.86s-4.83-2.2-4.83-4.83Zm8.28,0v-.04c0-2-1.49-3.64-3.46-3.64s-3.4,1.64-3.4,3.6v.04c0,2,1.48,3.62,3.44,3.62s3.42-1.62,3.42-3.58Z"/>
          <path class="cls-7" d="m464.8,217.24h1.39v2.43c.68-1.55,2.03-2.67,3.8-2.59v1.49h-.11c-2.03,0-3.69,1.46-3.69,4.27v3.71h-1.39v-9.31Z"/>
          <path class="cls-7" d="m338.33,244.76v-.04c0-1.49,1.08-2.56,2.59-3.1-1.17-.54-2.16-1.44-2.16-2.9v-.04c0-1.94,2-3.33,4.3-3.33s4.3,1.39,4.3,3.33v.04c0,1.46-.99,2.36-2.16,2.9,1.49.56,2.59,1.58,2.59,3.08v.04c0,2.14-2.05,3.58-4.74,3.58s-4.74-1.46-4.74-3.56Zm8.03-.04v-.04c0-1.4-1.46-2.39-3.29-2.39s-3.29.99-3.29,2.39v.04c0,1.28,1.22,2.36,3.29,2.36s3.29-1.08,3.29-2.36Zm-.41-5.91v-.04c0-1.24-1.24-2.18-2.88-2.18s-2.88.92-2.88,2.18v.04c0,1.37,1.28,2.3,2.88,2.3s2.88-.94,2.88-2.3Z"/>
          <path class="cls-7" d="m354.89,238.84h1.48l2.45,7.47,2.5-7.51h1.15l2.52,7.51,2.45-7.47h1.44l-3.28,9.38h-1.21l-2.5-7.35-2.52,7.35h-1.22l-3.26-9.38Z"/>
          <path class="cls-7" d="m370.16,243.52v-.04c0-2.68,1.89-4.84,4.47-4.84,2.75,0,4.34,2.2,4.34,4.92,0,.18,0,.29-.02.45h-7.38c.2,2.02,1.62,3.15,3.28,3.15,1.28,0,2.18-.52,2.93-1.31l.86.77c-.94,1.04-2.07,1.75-3.83,1.75-2.56,0-4.65-1.96-4.65-4.84Zm7.4-.54c-.14-1.69-1.12-3.17-2.97-3.17-1.62,0-2.84,1.35-3.02,3.17h6Z"/>
          <path class="cls-7" d="m380.81,243.52v-.04c0-2.68,1.89-4.84,4.47-4.84,2.75,0,4.34,2.2,4.34,4.92,0,.18,0,.29-.02.45h-7.38c.2,2.02,1.62,3.15,3.28,3.15,1.28,0,2.18-.52,2.93-1.31l.86.77c-.94,1.04-2.07,1.75-3.83,1.75-2.56,0-4.65-1.96-4.65-4.84Zm7.4-.54c-.14-1.69-1.12-3.17-2.97-3.17-1.62,0-2.85,1.35-3.03,3.17h6Z"/>
          <path class="cls-7" d="m392.04,235h1.39v9.07l5.02-5.24h1.73l-3.91,4,4.03,5.31h-1.66l-3.33-4.34-1.89,1.91v2.43h-1.39v-13.14Z"/>
          <path class="cls-7" d="m401.39,246.96l.7-.99c1.01.76,2.12,1.19,3.22,1.19s1.93-.58,1.93-1.48v-.04c0-.94-1.1-1.3-2.32-1.64-1.46-.41-3.08-.92-3.08-2.63v-.04c0-1.6,1.33-2.67,3.17-2.67,1.13,0,2.4.4,3.35,1.03l-.63,1.04c-.86-.56-1.85-.9-2.75-.9-1.1,0-1.8.58-1.8,1.35v.04c0,.88,1.15,1.22,2.4,1.6,1.44.43,2.99.99,2.99,2.67v.04c0,1.76-1.46,2.79-3.31,2.79-1.33,0-2.81-.52-3.85-1.37Z"/>
          <path class="cls-7" d="m410.4,249.71c.9-.32,1.28-.79,1.21-1.57h-.65v-1.89h1.66v1.62c0,1.46-.63,2.16-2,2.47l-.22-.63Z"/>
          <path class="cls-7" d="m421.46,240.06h-1.28v-1.21h1.28v-.81c0-1.06.29-1.87.81-2.4.47-.47,1.15-.72,2-.72.65,0,1.08.07,1.53.23v1.21c-.5-.14-.88-.23-1.35-.23-1.08,0-1.62.65-1.62,1.98v.76h2.95v1.19h-2.94v8.08h-1.39v-8.08Z"/>
          <path class="cls-7" d="m426.78,243.53v-.04c0-2.63,2.05-4.86,4.86-4.86s4.84,2.2,4.84,4.83v.04c0,2.63-2.07,4.86-4.88,4.86s-4.83-2.2-4.83-4.83Zm8.28,0v-.04c0-2-1.49-3.64-3.46-3.64s-3.4,1.64-3.4,3.6v.04c0,2,1.48,3.62,3.44,3.62s3.42-1.62,3.42-3.58Z"/>
          <path class="cls-7" d="m439.11,235h1.39v13.14h-1.39v-13.14Z"/>
          <path class="cls-7" d="m443.85,235h1.39v13.14h-1.39v-13.14Z"/>
          <path class="cls-7" d="m447.88,243.53v-.04c0-2.63,2.05-4.86,4.86-4.86s4.84,2.2,4.84,4.83v.04c0,2.63-2.07,4.86-4.88,4.86s-4.83-2.2-4.83-4.83Zm8.28,0v-.04c0-2-1.49-3.64-3.46-3.64s-3.4,1.64-3.4,3.6v.04c0,2,1.48,3.62,3.44,3.62s3.42-1.62,3.42-3.58Z"/>
          <path class="cls-7" d="m458.84,238.84h1.48l2.45,7.47,2.5-7.51h1.15l2.52,7.51,2.45-7.47h1.44l-3.28,9.38h-1.21l-2.5-7.35-2.52,7.35h-1.22l-3.26-9.38Z"/>
          <path class="cls-7" d="m474.1,243.52v-.04c0-2.68,1.89-4.84,4.47-4.84,2.75,0,4.34,2.2,4.34,4.92,0,.18,0,.29-.02.45h-7.38c.2,2.02,1.62,3.15,3.28,3.15,1.28,0,2.18-.52,2.93-1.31l.86.77c-.94,1.04-2.07,1.75-3.83,1.75-2.56,0-4.65-1.96-4.65-4.84Zm7.4-.54c-.14-1.69-1.12-3.17-2.97-3.17-1.62,0-2.84,1.35-3.02,3.17h6Z"/>
          <path class="cls-7" d="m484.8,243.52v-.04c0-3.04,2.21-4.84,4.45-4.84,1.73,0,2.84.94,3.56,1.98v-5.62h1.39v13.14h-1.39v-1.87c-.76,1.12-1.85,2.07-3.56,2.07-2.23,0-4.45-1.76-4.45-4.83Zm8.07-.02v-.04c0-2.14-1.64-3.58-3.37-3.58s-3.28,1.33-3.28,3.58v.04c0,2.2,1.51,3.6,3.28,3.6s3.37-1.46,3.37-3.6Z"/>
          <path class="cls-7" d="m330.42,267.96v1.78h-1.39v-13.14h1.39v5.71c.76-1.12,1.85-2.07,3.56-2.07,2.23,0,4.45,1.76,4.45,4.83v.04c0,3.04-2.2,4.84-4.45,4.84-1.73,0-2.84-.94-3.56-1.98Zm6.59-2.84v-.04c0-2.2-1.51-3.6-3.28-3.6s-3.37,1.46-3.37,3.58v.04c0,2.16,1.64,3.6,3.37,3.6s3.28-1.33,3.28-3.58Z"/>
          <path class="cls-7" d="m347.51,260.44h1.48l-3.91,9.61c-.79,1.93-1.69,2.63-3.1,2.63-.77,0-1.35-.16-1.98-.47l.47-1.1c.45.23.86.34,1.46.34.83,0,1.35-.43,1.91-1.75l-4.23-9.27h1.53l3.39,7.76,2.99-7.76Z"/>
          <path class="cls-7" d="m357.06,267.28v-5.62h-1.3v-1.22h1.3v-2.81h1.39v2.81h2.95v1.22h-2.95v5.44c0,1.13.63,1.55,1.57,1.55.47,0,.86-.09,1.35-.32v1.19c-.49.25-1.01.4-1.67.4-1.49,0-2.63-.74-2.63-2.63Z"/>
          <path class="cls-7" d="m363.14,267.04v-.04c0-1.96,1.62-3.01,3.98-3.01,1.19,0,2.03.16,2.86.4v-.32c0-1.67-1.03-2.54-2.77-2.54-1.1,0-1.96.29-2.83.68l-.41-1.13c1.03-.47,2.03-.77,3.39-.77s2.32.34,3.01,1.03c.63.63.95,1.53.95,2.72v5.69h-1.33v-1.4c-.65.85-1.73,1.6-3.37,1.6-1.73,0-3.48-.99-3.48-2.9Zm6.86-.72v-.9c-.68-.2-1.6-.4-2.74-.4-1.75,0-2.72.76-2.72,1.93v.04c0,1.17,1.08,1.85,2.34,1.85,1.71,0,3.11-1.04,3.11-2.52Z"/>
          <path class="cls-7" d="m374.27,260.44h1.39v1.87c.76-1.12,1.85-2.07,3.56-2.07,2.23,0,4.45,1.76,4.45,4.83v.04c0,3.04-2.2,4.84-4.45,4.84-1.73,0-2.84-.94-3.56-1.98v4.66h-1.39v-12.19Zm7.98,4.68v-.04c0-2.2-1.51-3.6-3.28-3.6s-3.37,1.46-3.37,3.58v.04c0,2.16,1.64,3.6,3.37,3.6s3.28-1.33,3.28-3.58Z"/>
          <path class="cls-7" d="m385.64,265.12v-.04c0-2.68,1.89-4.84,4.47-4.84,2.75,0,4.34,2.2,4.34,4.92,0,.18,0,.29-.02.45h-7.38c.2,2.02,1.62,3.15,3.28,3.15,1.28,0,2.18-.52,2.93-1.31l.86.77c-.94,1.04-2.07,1.75-3.83,1.75-2.56,0-4.65-1.96-4.65-4.84Zm7.4-.54c-.14-1.69-1.12-3.17-2.97-3.17-1.62,0-2.85,1.35-3.03,3.17h6Z"/>
          <path class="cls-7" d="m396.88,260.44h1.39v2.43c.68-1.55,2.03-2.67,3.8-2.59v1.49h-.11c-2.03,0-3.69,1.46-3.69,4.27v3.71h-1.39v-9.31Z"/>
          <path class="cls-7" d="m404.2,256.87h1.58v1.53h-1.58v-1.53Zm.09,3.57h1.39v9.31h-1.39v-9.31Z"/>
          <path class="cls-7" d="m408.9,260.44h1.39v1.62c.61-1.01,1.58-1.82,3.19-1.82,2.25,0,3.57,1.51,3.57,3.73v5.78h-1.39v-5.44c0-1.73-.94-2.81-2.57-2.81s-2.79,1.17-2.79,2.92v5.33h-1.39v-9.31Z"/>
          <path class="cls-7" d="m419.88,271.36l.63-1.08c1.06.77,2.25,1.19,3.58,1.19,2.05,0,3.38-1.13,3.38-3.31v-1.1c-.81,1.08-1.94,1.96-3.65,1.96-2.23,0-4.38-1.67-4.38-4.36v-.04c0-2.72,2.16-4.39,4.38-4.39,1.75,0,2.88.86,3.64,1.87v-1.67h1.39v7.69c0,1.44-.43,2.54-1.19,3.29-.83.83-2.07,1.24-3.55,1.24-1.55,0-2.99-.43-4.23-1.3Zm7.63-6.72v-.04c0-1.91-1.66-3.15-3.42-3.15s-3.22,1.22-3.22,3.13v.04c0,1.87,1.49,3.17,3.22,3.17s3.42-1.28,3.42-3.15Z"/>
          <path class="cls-7" d="m437.83,267.28v-5.62h-1.3v-1.22h1.3v-2.81h1.39v2.81h2.95v1.22h-2.95v5.44c0,1.13.63,1.55,1.57,1.55.47,0,.86-.09,1.35-.32v1.19c-.49.25-1.01.4-1.67.4-1.49,0-2.63-.74-2.63-2.63Z"/>
          <path class="cls-7" d="m443.77,265.13v-.04c0-2.63,2.05-4.86,4.86-4.86s4.84,2.2,4.84,4.83v.04c0,2.63-2.07,4.86-4.88,4.86s-4.83-2.2-4.83-4.83Zm8.28,0v-.04c0-2-1.49-3.64-3.46-3.64s-3.4,1.64-3.4,3.6v.04c0,2,1.48,3.62,3.44,3.62s3.42-1.62,3.42-3.58Z"/>
          <path class="cls-3" d="m460.51,267.78l1.91-1.82c.86.97,1.76,1.51,3.04,1.51,1.04,0,1.78-.59,1.78-1.53v-.04c0-1.03-.92-1.6-2.47-1.6h-1.15l-.43-1.76,3.01-3.02h-4.95v-2.38h8.52v2.09l-3.19,3.04c1.71.29,3.39,1.19,3.39,3.53v.04c0,2.38-1.73,4.12-4.54,4.12-2.27,0-3.83-.9-4.92-2.18Z"/>
          <path class="cls-3" d="m477.62,260.09h2.74v1.37c.63-.81,1.46-1.55,2.84-1.55,1.26,0,2.21.56,2.72,1.53.85-.99,1.85-1.53,3.17-1.53,2.03,0,3.26,1.22,3.26,3.55v6.28h-2.74v-5.38c0-1.3-.58-1.96-1.6-1.96s-1.66.67-1.66,1.96v5.38h-2.74v-5.38c0-1.3-.58-1.96-1.6-1.96s-1.66.67-1.66,1.96v5.38h-2.74v-9.65Z"/>
          <path class="cls-3" d="m494.78,271.65l.94-2.05c.99.56,1.98.88,3.26.88,1.87,0,2.75-.9,2.75-2.63v-.47c-.81.97-1.69,1.57-3.15,1.57-2.25,0-4.29-1.64-4.29-4.5v-.04c0-2.88,2.07-4.5,4.29-4.5,1.49,0,2.38.63,3.11,1.44v-1.26h2.74v7.47c0,1.73-.41,2.99-1.22,3.8-.9.9-2.29,1.3-4.16,1.3-1.57,0-3.04-.36-4.27-1.01Zm6.95-7.2v-.04c0-1.31-1.03-2.23-2.36-2.23s-2.34.92-2.34,2.23v.04c0,1.33,1.01,2.23,2.34,2.23s2.36-.92,2.36-2.23Z"/>
        </g>
        <g>
          <line class="cls-10" x1="416.57" y1="127.16" x2="416.57" y2="127.16"/>
          <line class="cls-9" x1="416.57" y1="132.85" x2="416.57" y2="158.46"/>
          <line class="cls-10" x1="416.57" y1="161.31" x2="416.57" y2="161.31"/>
        </g>
      </g>
      <g id="june_2022_capsule">
        <rect class="cls-5" x="348.57" y="83.05" width="136" height="40" rx="20" ry="20"/>
        <g>
          <path class="cls-3" d="m374.3,107.48l1.55-1.73c.64.71,1.26,1.12,2.05,1.12.93,0,1.5-.56,1.5-1.86v-7.22h2.53v7.33c0,1.33-.38,2.32-1.06,2.99-.69.69-1.7,1.04-2.91,1.04-1.74,0-2.9-.77-3.67-1.68Z"/>
          <path class="cls-3" d="m384.12,105.98v-5.55h2.43v4.79c0,1.15.54,1.75,1.47,1.75s1.52-.59,1.52-1.75v-4.79h2.43v8.58h-2.43v-1.22c-.56.72-1.28,1.38-2.51,1.38-1.84,0-2.91-1.22-2.91-3.19Z"/>
          <path class="cls-3" d="m394.15,100.42h2.43v1.22c.56-.72,1.28-1.38,2.51-1.38,1.84,0,2.91,1.22,2.91,3.19v5.55h-2.43v-4.79c0-1.15-.54-1.75-1.47-1.75s-1.52.59-1.52,1.75v4.79h-2.43v-8.58Z"/>
          <path class="cls-3" d="m403.7,104.76v-.03c0-2.45,1.75-4.47,4.24-4.47,2.87,0,4.18,2.23,4.18,4.66,0,.19-.02.42-.03.64h-5.97c.24,1.1,1.01,1.68,2.1,1.68.82,0,1.41-.26,2.08-.88l1.39,1.23c-.8.99-1.95,1.6-3.5,1.6-2.58,0-4.48-1.81-4.48-4.43Zm6.05-.72c-.14-1.09-.78-1.83-1.81-1.83s-1.67.72-1.86,1.83h3.67Z"/>
          <path class="cls-3" d="m418.42,107.05l3.73-3.06c1.39-1.15,1.94-1.76,1.94-2.69s-.62-1.46-1.5-1.46-1.46.48-2.29,1.5l-1.73-1.39c1.1-1.5,2.18-2.32,4.18-2.32,2.32,0,3.86,1.36,3.86,3.46v.03c0,1.87-.96,2.8-2.95,4.34l-1.82,1.41h4.88v2.13h-8.29v-1.95Z"/>
          <path class="cls-3" d="m428.47,103.43v-.03c0-3.25,2.02-5.79,4.99-5.79s4.96,2.51,4.96,5.76v.03c0,3.25-2,5.79-4.99,5.79s-4.96-2.51-4.96-5.76Zm7.43,0v-.03c0-2.03-.99-3.57-2.47-3.57s-2.43,1.49-2.43,3.54v.03c0,2.05.98,3.57,2.46,3.57s2.43-1.5,2.43-3.54Z"/>
          <path class="cls-3" d="m439.91,107.05l3.73-3.06c1.39-1.15,1.94-1.76,1.94-2.69s-.62-1.46-1.5-1.46-1.46.48-2.29,1.5l-1.73-1.39c1.1-1.5,2.18-2.32,4.18-2.32,2.32,0,3.86,1.36,3.86,3.46v.03c0,1.87-.96,2.8-2.95,4.34l-1.82,1.41h4.88v2.13h-8.29v-1.95Z"/>
          <path class="cls-3" d="m449.88,107.05l3.73-3.06c1.39-1.15,1.94-1.76,1.94-2.69s-.62-1.46-1.5-1.46-1.46.48-2.29,1.5l-1.73-1.39c1.1-1.5,2.18-2.32,4.18-2.32,2.32,0,3.86,1.36,3.86,3.46v.03c0,1.87-.96,2.8-2.95,4.34l-1.82,1.41h4.88v2.13h-8.29v-1.95Z"/>
        </g>
      </g>
      <g id="october_2022_text">
        <g>
          <path class="cls-7" d="m548.08,170.74h9.06v1.31h-7.63v4.5h6.82v1.3h-6.82v5.49h-1.42v-12.6Z"/>
          <path class="cls-7" d="m558.81,178.73v-.04c0-2.63,2.05-4.86,4.86-4.86s4.84,2.2,4.84,4.83v.04c0,2.63-2.07,4.86-4.88,4.86s-4.83-2.2-4.83-4.83Zm8.28,0v-.04c0-2-1.49-3.64-3.46-3.64s-3.4,1.64-3.4,3.6v.04c0,2,1.48,3.62,3.44,3.62s3.42-1.62,3.42-3.58Z"/>
          <path class="cls-7" d="m571.14,170.2h1.39v13.14h-1.39v-13.14Z"/>
          <path class="cls-7" d="m575.88,170.2h1.39v13.14h-1.39v-13.14Z"/>
          <path class="cls-7" d="m579.91,178.73v-.04c0-2.63,2.05-4.86,4.86-4.86s4.84,2.2,4.84,4.83v.04c0,2.63-2.07,4.86-4.88,4.86s-4.83-2.2-4.83-4.83Zm8.28,0v-.04c0-2-1.49-3.64-3.46-3.64s-3.4,1.64-3.4,3.6v.04c0,2,1.48,3.62,3.44,3.62s3.42-1.62,3.42-3.58Z"/>
          <path class="cls-7" d="m590.87,174.04h1.48l2.45,7.47,2.5-7.51h1.15l2.52,7.51,2.45-7.47h1.44l-3.28,9.38h-1.21l-2.5-7.35-2.52,7.35h-1.22l-3.26-9.38Z"/>
          <path class="cls-7" d="m606.6,177.2h5.01v1.46h-5.01v-1.46Z"/>
          <path class="cls-7" d="m614.18,179.81v-5.78h1.39v5.44c0,1.73.94,2.81,2.57,2.81s2.79-1.17,2.79-2.92v-5.33h1.37v9.31h-1.37v-1.62c-.63,1.01-1.58,1.82-3.19,1.82-2.25,0-3.57-1.51-3.57-3.73Z"/>
          <path class="cls-7" d="m625.41,174.04h1.39v1.87c.76-1.12,1.85-2.07,3.56-2.07,2.23,0,4.45,1.76,4.45,4.83v.04c0,3.04-2.2,4.84-4.45,4.84-1.73,0-2.84-.94-3.56-1.98v4.66h-1.39v-12.19Zm7.98,4.68v-.04c0-2.2-1.51-3.6-3.28-3.6s-3.37,1.46-3.37,3.58v.04c0,2.16,1.64,3.6,3.37,3.6s3.28-1.33,3.28-3.58Z"/>
          <path class="cls-7" d="m534.34,202.24v-.04c0-1.96,1.62-3.01,3.98-3.01,1.19,0,2.03.16,2.86.4v-.32c0-1.67-1.03-2.54-2.77-2.54-1.1,0-1.96.29-2.83.68l-.41-1.13c1.03-.47,2.03-.77,3.39-.77s2.32.34,3.01,1.03c.63.63.95,1.53.95,2.72v5.69h-1.33v-1.4c-.65.85-1.73,1.6-3.37,1.6-1.73,0-3.48-.99-3.48-2.9Zm6.86-.72v-.9c-.68-.2-1.6-.4-2.74-.4-1.75,0-2.72.76-2.72,1.93v.04c0,1.17,1.08,1.85,2.34,1.85,1.71,0,3.12-1.04,3.12-2.52Z"/>
          <path class="cls-7" d="m545.47,195.64h1.39v1.87c.76-1.12,1.85-2.07,3.56-2.07,2.23,0,4.45,1.76,4.45,4.83v.04c0,3.04-2.2,4.84-4.45,4.84-1.73,0-2.84-.94-3.56-1.98v4.66h-1.39v-12.19Zm7.98,4.68v-.04c0-2.2-1.51-3.6-3.28-3.6s-3.37,1.46-3.37,3.58v.04c0,2.16,1.64,3.6,3.37,3.6s3.28-1.33,3.28-3.58Z"/>
          <path class="cls-7" d="m557.42,195.64h1.39v1.87c.76-1.12,1.85-2.07,3.56-2.07,2.23,0,4.45,1.76,4.45,4.83v.04c0,3.04-2.2,4.84-4.45,4.84-1.73,0-2.84-.94-3.56-1.98v4.66h-1.39v-12.19Zm7.98,4.68v-.04c0-2.2-1.51-3.6-3.28-3.6s-3.37,1.46-3.37,3.58v.04c0,2.16,1.64,3.6,3.37,3.6s3.28-1.33,3.28-3.58Z"/>
          <path class="cls-7" d="m568.79,200.34v-.04c0-2.63,2.05-4.86,4.86-4.86s4.84,2.2,4.84,4.83v.04c0,2.63-2.07,4.86-4.88,4.86s-4.83-2.2-4.83-4.83Zm8.28,0v-.04c0-2-1.49-3.64-3.46-3.64s-3.4,1.64-3.4,3.6v.04c0,2,1.48,3.62,3.44,3.62s3.42-1.62,3.42-3.58Z"/>
          <path class="cls-7" d="m581.03,192.07h1.58v1.53h-1.58v-1.53Zm.09,3.57h1.39v9.31h-1.39v-9.31Z"/>
          <path class="cls-7" d="m585.73,195.64h1.39v1.62c.61-1.01,1.58-1.82,3.19-1.82,2.25,0,3.56,1.51,3.56,3.73v5.78h-1.39v-5.44c0-1.73-.94-2.81-2.57-2.81s-2.79,1.17-2.79,2.92v5.33h-1.39v-9.31Z"/>
          <path class="cls-7" d="m597.31,202.48v-5.62h-1.3v-1.22h1.3v-2.81h1.39v2.81h2.95v1.22h-2.95v5.44c0,1.13.63,1.55,1.57,1.55.47,0,.86-.09,1.35-.32v1.19c-.49.25-1.01.4-1.67.4-1.49,0-2.63-.74-2.63-2.63Z"/>
          <path class="cls-7" d="m604.09,195.64h1.39v1.57c.61-.92,1.44-1.76,3.01-1.76s2.48.81,2.99,1.85c.67-1.03,1.66-1.85,3.28-1.85,2.14,0,3.46,1.44,3.46,3.75v5.76h-1.39v-5.44c0-1.8-.9-2.81-2.41-2.81-1.4,0-2.58,1.04-2.58,2.88v5.37h-1.37v-5.47c0-1.75-.92-2.77-2.39-2.77s-2.59,1.22-2.59,2.93v5.31h-1.39v-9.31Z"/>
          <path class="cls-7" d="m620.58,200.32v-.04c0-2.68,1.89-4.84,4.47-4.84,2.75,0,4.34,2.2,4.34,4.92,0,.18,0,.29-.02.45h-7.38c.2,2.02,1.62,3.15,3.28,3.15,1.28,0,2.18-.52,2.93-1.31l.86.77c-.94,1.04-2.07,1.75-3.83,1.75-2.56,0-4.65-1.96-4.65-4.84Zm7.4-.54c-.14-1.69-1.12-3.17-2.97-3.17-1.62,0-2.84,1.35-3.02,3.17h6Z"/>
          <path class="cls-7" d="m631.81,195.64h1.39v1.62c.61-1.01,1.58-1.82,3.19-1.82,2.25,0,3.57,1.51,3.57,3.73v5.78h-1.39v-5.44c0-1.73-.94-2.81-2.57-2.81s-2.79,1.17-2.79,2.92v5.33h-1.39v-9.31Z"/>
          <path class="cls-7" d="m643.38,202.48v-5.62h-1.3v-1.22h1.3v-2.81h1.39v2.81h2.95v1.22h-2.95v5.44c0,1.13.63,1.55,1.57,1.55.47,0,.86-.09,1.35-.32v1.19c-.49.25-1.01.4-1.67.4-1.49,0-2.63-.74-2.63-2.63Z"/>
        </g>
        <g>
          <line class="cls-10" x1="591.06" y1="127.16" x2="591.06" y2="127.16"/>
          <line class="cls-9" x1="591.06" y1="132.85" x2="591.06" y2="158.46"/>
          <line class="cls-10" x1="591.06" y1="161.31" x2="591.06" y2="161.31"/>
        </g>
      </g>
      <g id="october_2022_capsule" data-name="october_2022" class="timeline--btn">
        <rect class="cls-1" x="520.85" y="81.05" width="140" height="44" rx="22" ry="22"/>
        <rect class="cls-6 tooltip" title="Click here" x="522.85" y="83.05" width="136" height="40" rx="20" ry="20"/>
        <g>
          <path class="cls-4" d="m535.06,103.43v-.03c0-3.19,2.51-5.79,5.97-5.79s5.94,2.58,5.94,5.76v.03c0,3.19-2.51,5.79-5.97,5.79s-5.94-2.58-5.94-5.76Zm9.33,0v-.03c0-1.92-1.41-3.52-3.39-3.52s-3.36,1.57-3.36,3.49v.03c0,1.92,1.41,3.52,3.39,3.52s3.36-1.57,3.36-3.49Z"/>
          <path class="cls-4" d="m548.48,104.76v-.03c0-2.45,1.87-4.47,4.5-4.47,1.62,0,2.62.54,3.43,1.44l-1.49,1.6c-.54-.58-1.09-.94-1.95-.94-1.22,0-2.08,1.07-2.08,2.34v.03c0,1.31.85,2.37,2.18,2.37.82,0,1.38-.35,1.97-.91l1.42,1.44c-.83.91-1.79,1.57-3.51,1.57-2.58,0-4.47-1.98-4.47-4.43Z"/>
          <path class="cls-4" d="m558.44,106.57v-4.07h-1.02v-2.08h1.02v-2.19h2.43v2.19h2.02v2.08h-2.02v3.67c0,.56.24.83.78.83.45,0,.85-.11,1.2-.3v1.95c-.51.3-1.1.5-1.92.5-1.49,0-2.5-.59-2.5-2.58Z"/>
          <path class="cls-4" d="m564.02,104.76v-.03c0-2.46,1.98-4.47,4.66-4.47s4.63,1.97,4.63,4.43v.03c0,2.47-1.98,4.47-4.66,4.47s-4.63-1.97-4.63-4.43Zm6.88,0v-.03c0-1.26-.91-2.37-2.26-2.37s-2.23,1.07-2.23,2.34v.03c0,1.26.91,2.37,2.26,2.37s2.23-1.07,2.23-2.34Z"/>
          <path class="cls-4" d="m577.49,107.88v1.12h-2.43v-11.68h2.43v4.34c.59-.8,1.41-1.39,2.67-1.39,2,0,3.91,1.57,3.91,4.43v.03c0,2.87-1.87,4.43-3.91,4.43-1.3,0-2.1-.59-2.67-1.28Zm4.15-3.15v-.03c0-1.42-.96-2.37-2.1-2.37s-2.08.94-2.08,2.37v.03c0,1.42.94,2.37,2.08,2.37s2.1-.93,2.1-2.37Z"/>
          <path class="cls-4" d="m585.44,104.76v-.03c0-2.45,1.74-4.47,4.24-4.47,2.87,0,4.18,2.23,4.18,4.66,0,.19-.02.42-.03.64h-5.97c.24,1.1,1.01,1.68,2.1,1.68.82,0,1.41-.26,2.08-.88l1.39,1.23c-.8.99-1.95,1.6-3.51,1.6-2.58,0-4.48-1.81-4.48-4.43Zm6.05-.72c-.14-1.09-.78-1.83-1.81-1.83s-1.66.72-1.86,1.83h3.67Z"/>
          <path class="cls-4" d="m595.67,100.42h2.43v1.73c.5-1.18,1.3-1.95,2.74-1.89v2.55h-.13c-1.62,0-2.61.98-2.61,3.02v3.17h-2.43v-8.58Z"/>
          <path class="cls-4" d="m606.85,107.05l3.73-3.06c1.39-1.15,1.94-1.76,1.94-2.69s-.62-1.46-1.5-1.46-1.46.48-2.29,1.5l-1.73-1.39c1.1-1.5,2.18-2.32,4.18-2.32,2.32,0,3.86,1.36,3.86,3.46v.03c0,1.87-.96,2.8-2.95,4.34l-1.82,1.41h4.88v2.13h-8.29v-1.95Z"/>
          <path class="cls-4" d="m616.9,103.43v-.03c0-3.25,2.02-5.79,4.99-5.79s4.96,2.51,4.96,5.76v.03c0,3.25-2,5.79-4.99,5.79s-4.96-2.51-4.96-5.76Zm7.43,0v-.03c0-2.03-.99-3.57-2.47-3.57s-2.43,1.49-2.43,3.54v.03c0,2.05.98,3.57,2.46,3.57s2.43-1.5,2.43-3.54Z"/>
          <path class="cls-4" d="m628.34,107.05l3.73-3.06c1.39-1.15,1.94-1.76,1.94-2.69s-.62-1.46-1.5-1.46-1.46.48-2.29,1.5l-1.73-1.39c1.1-1.5,2.18-2.32,4.18-2.32,2.32,0,3.86,1.36,3.86,3.46v.03c0,1.87-.96,2.8-2.94,4.34l-1.82,1.41h4.88v2.13h-8.29v-1.95Z"/>
          <path class="cls-4" d="m638.31,107.05l3.73-3.06c1.39-1.15,1.94-1.76,1.94-2.69s-.62-1.46-1.5-1.46-1.46.48-2.29,1.5l-1.73-1.39c1.1-1.5,2.18-2.32,4.18-2.32,2.32,0,3.86,1.36,3.86,3.46v.03c0,1.87-.96,2.8-2.94,4.34l-1.82,1.41h4.88v2.13h-8.29v-1.95Z"/>
        </g>
        <rect class="cls-2" x="513.63" y="72.97" width="153.83" height="61.83"/>
      </g>
    </g>
  </g>
</svg>