<?xml version="1.0" encoding="utf-8"?>
<!-- Generator: Adobe Illustrator 27.9.0, SVG Export Plug-In . SVG Version: 6.00 Build 0)  -->
<svg version="1.1" id="ammar_follow-up_entyvio_svg_desktop"
	 xmlns="http://www.w3.org/2000/svg" xmlns:xlink="http://www.w3.org/1999/xlink" x="0px" y="0px" viewBox="0 0 895 212.5"
	 style="enable-background:new 0 0 895 212.5;" xml:space="preserve">
<style type="text/css">
	.st0{fill:none;stroke:#808A84;stroke-width:2;stroke-miterlimit:10;}
	.st1{fill:#CE4230;}
	.st2{fill:#FFFFFF;}
	.st3{fill:#852780;}
	.st4{fill:url(#SVGID_1_);}
	.st5{fill:url(#SVGID_00000066473274724517757930000016737740427469097098_);}
	.st6{fill:none;}
	.st7{fill:#DDDEDE;}
	.st8{fill:#231F20;}
	.st9{fill:none;stroke:#9A5B8E;stroke-width:4;stroke-linecap:round;stroke-linejoin:round;}
	.st10{fill:none;stroke:#9A5B8E;stroke-width:4;stroke-linecap:round;stroke-linejoin:round;stroke-dasharray:0,0,0,6.63;}
</style>
<g id="ammar_follow-up_entyvio_desktop">
	<line id="timeline" class="st0" x1="744.3" y1="102.2" x2="30.4" y2="102.2"/>
	<g id="azathioprine_banner">
		<polygon class="st1" points="606.5,64.6 267.7,64.6 277.1,53.2 267.7,41.7 606.5,41.7 615.9,53.2 		"/>
		<g>
			<path class="st2" d="M393.3,48.8h1.1l4.6,10.1h-1.2l-1.2-2.7h-5.5l-1.2,2.7h-1.2L393.3,48.8L393.3,48.8z M396.1,55.2l-2.3-5.1
				l-2.3,5.1H396.1z"/>
			<path class="st2" d="M400.3,58.2l4.9-5.8h-4.7v-0.9h6.2v0.7l-4.9,5.8h4.9v0.9h-6.4V58.2z"/>
			<path class="st2" d="M408.1,56.7L408.1,56.7c0-1.6,1.3-2.4,3.2-2.4c0.9,0,1.6,0.1,2.3,0.3v-0.3c0-1.3-0.8-2-2.2-2
				c-0.9,0-1.6,0.2-2.2,0.5l-0.3-0.9c0.8-0.4,1.6-0.6,2.7-0.6s1.9,0.3,2.4,0.8c0.5,0.5,0.8,1.2,0.8,2.2v4.5h-1.1v-1.1
				c-0.5,0.7-1.4,1.3-2.7,1.3C409.5,59,408.1,58.2,408.1,56.7L408.1,56.7z M413.6,56.2v-0.7c-0.5-0.2-1.3-0.3-2.2-0.3
				c-1.4,0-2.2,0.6-2.2,1.5v0c0,0.9,0.9,1.5,1.9,1.5C412.4,58.2,413.6,57.3,413.6,56.2z"/>
			<path class="st2" d="M417.3,56.9v-4.5h-1v-1h1v-2.2h1.1v2.2h2.4v1h-2.4v4.3c0,0.9,0.5,1.2,1.2,1.2c0.4,0,0.7-0.1,1.1-0.3v0.9
				c-0.4,0.2-0.8,0.3-1.3,0.3C418.2,59,417.3,58.4,417.3,56.9L417.3,56.9z"/>
			<path class="st2" d="M422.7,48.4h1.1v4.3c0.5-0.8,1.3-1.5,2.5-1.5c1.8,0,2.8,1.2,2.8,3v4.6H428v-4.3c0-1.4-0.7-2.2-2-2.2
				s-2.2,0.9-2.2,2.3v4.2h-1.1L422.7,48.4L422.7,48.4z"/>
			<path class="st2" d="M431.5,48.7h1.3v1.2h-1.3V48.7z M431.6,51.5h1.1v7.4h-1.1V51.5z"/>
			<path class="st2" d="M434.8,55.2L434.8,55.2c0-2.1,1.6-3.9,3.9-3.9s3.9,1.8,3.9,3.8v0c0,2.1-1.6,3.9-3.9,3.9
				S434.8,57.3,434.8,55.2L434.8,55.2z M441.4,55.2L441.4,55.2c0-1.6-1.2-2.9-2.8-2.9s-2.7,1.3-2.7,2.9v0c0,1.6,1.2,2.9,2.7,2.9
				S441.4,56.8,441.4,55.2L441.4,55.2z"/>
			<path class="st2" d="M444.5,51.5h1.1V53c0.6-0.9,1.5-1.7,2.8-1.7c1.8,0,3.5,1.4,3.5,3.8v0c0,2.4-1.8,3.8-3.5,3.8
				c-1.4,0-2.3-0.7-2.8-1.6v3.7h-1.1V51.5z M450.8,55.2L450.8,55.2c0-1.8-1.2-2.9-2.6-2.9s-2.7,1.2-2.7,2.8v0c0,1.7,1.3,2.9,2.7,2.9
				S450.8,57,450.8,55.2z"/>
			<path class="st2" d="M454,51.5h1.1v1.9c0.5-1.2,1.6-2.1,3-2.1v1.2H458c-1.6,0-2.9,1.2-2.9,3.4v3H454C454,58.9,454,51.5,454,51.5z
				"/>
			<path class="st2" d="M459.8,48.7h1.3v1.2h-1.3V48.7z M459.9,51.5h1.1v7.4h-1.1V51.5z"/>
			<path class="st2" d="M463.5,51.5h1.1v1.3c0.5-0.8,1.3-1.5,2.5-1.5c1.8,0,2.8,1.2,2.8,3v4.6h-1.1v-4.3c0-1.4-0.7-2.2-2-2.2
				s-2.2,0.9-2.2,2.3v4.2h-1.1L463.5,51.5L463.5,51.5z"/>
			<path class="st2" d="M471.9,55.2L471.9,55.2c0-2.2,1.5-3.9,3.5-3.9c2.2,0,3.5,1.8,3.5,3.9c0,0.1,0,0.2,0,0.4H473
				c0.2,1.6,1.3,2.5,2.6,2.5c1,0,1.7-0.4,2.3-1l0.7,0.6c-0.7,0.8-1.6,1.4-3,1.4C473.5,59.1,471.9,57.5,471.9,55.2L471.9,55.2z
				 M477.8,54.8c-0.1-1.3-0.9-2.5-2.4-2.5c-1.3,0-2.3,1.1-2.4,2.5H477.8L477.8,54.8z"/>
		</g>
	</g>
	<g id="budesonide_banner">
		<polygon class="st1" points="606.5,23 401.7,23 411.2,11.5 401.7,0 606.5,0 615.9,11.5 		"/>
		<g>
			<path class="st2" d="M428,7.2h4.3c1.1,0,2,0.3,2.6,0.9c0.4,0.4,0.6,1,0.6,1.6v0c0,1.3-0.8,2-1.6,2.3c1.2,0.4,2.1,1,2.1,2.4v0
				c0,1.7-1.5,2.7-3.6,2.7H428L428,7.2L428,7.2z M434.4,9.9c0-1-0.8-1.6-2.2-1.6h-3v3.4h3C433.4,11.7,434.3,11.1,434.4,9.9
				L434.4,9.9L434.4,9.9z M432.2,12.7h-3.2v3.5h3.4c1.5,0,2.5-0.7,2.5-1.8v0C434.9,13.3,434,12.7,432.2,12.7L432.2,12.7z"/>
			<path class="st2" d="M438,14.4V9.8h1.1v4.3c0,1.4,0.7,2.2,2,2.2s2.2-0.9,2.2-2.3V9.8h1.1v7.4h-1.1v-1.3c-0.5,0.8-1.3,1.4-2.5,1.4
				C439,17.4,438,16.2,438,14.4L438,14.4z"/>
			<path class="st2" d="M446.5,13.6L446.5,13.6c0-2.4,1.8-3.9,3.5-3.9c1.4,0,2.3,0.7,2.8,1.6V6.8h1.1v10.4h-1.1v-1.5
				c-0.6,0.9-1.5,1.6-2.8,1.6C448.3,17.4,446.5,16,446.5,13.6L446.5,13.6z M452.9,13.6L452.9,13.6c0-1.7-1.3-2.9-2.7-2.9
				s-2.6,1.1-2.6,2.9v0c0,1.8,1.2,2.9,2.6,2.9S452.9,15.2,452.9,13.6z"/>
			<path class="st2" d="M456,13.6L456,13.6c0-2.2,1.5-3.9,3.5-3.9c2.2,0,3.5,1.8,3.5,3.9c0,0.1,0,0.2,0,0.4h-5.9
				c0.2,1.6,1.3,2.5,2.6,2.5c1,0,1.7-0.4,2.3-1l0.7,0.6c-0.7,0.8-1.6,1.4-3,1.4C457.6,17.4,456,15.9,456,13.6L456,13.6z M461.9,13.1
				c-0.1-1.4-0.9-2.5-2.4-2.5c-1.3,0-2.3,1.1-2.4,2.5L461.9,13.1L461.9,13.1z"/>
			<path class="st2" d="M464.3,16.3l0.6-0.8c0.8,0.6,1.7,0.9,2.6,0.9s1.5-0.5,1.5-1.2v0c0-0.7-0.9-1-1.9-1.3
				c-1.2-0.3-2.5-0.7-2.5-2.1v0c0-1.3,1.1-2.1,2.5-2.1c0.9,0,1.9,0.3,2.7,0.8l-0.5,0.8c-0.7-0.4-1.5-0.7-2.2-0.7
				c-0.9,0-1.4,0.5-1.4,1.1v0c0,0.7,0.9,1,1.9,1.3c1.1,0.3,2.4,0.8,2.4,2.1v0c0,1.4-1.2,2.2-2.6,2.2C466.3,17.4,465.1,17,464.3,16.3
				L464.3,16.3z"/>
			<path class="st2" d="M471.6,13.6L471.6,13.6c0-2.1,1.6-3.9,3.9-3.9s3.9,1.8,3.9,3.8v0c0,2.1-1.6,3.9-3.9,3.9
				S471.5,15.7,471.6,13.6L471.6,13.6z M478.1,13.6L478.1,13.6c0-1.6-1.2-2.9-2.8-2.9s-2.7,1.3-2.7,2.9v0c0,1.6,1.2,2.9,2.7,2.9
				S478.1,15.1,478.1,13.6L478.1,13.6z"/>
			<path class="st2" d="M481.3,9.8h1.1v1.3c0.5-0.8,1.3-1.4,2.5-1.4c1.8,0,2.8,1.2,2.8,3v4.6h-1.1v-4.3c0-1.4-0.7-2.2-2-2.2
				s-2.2,0.9-2.2,2.3v4.2h-1.1L481.3,9.8L481.3,9.8z"/>
			<path class="st2" d="M490.1,7h1.3v1.2h-1.3V7z M490.2,9.8h1.1v7.4h-1.1V9.8z"/>
			<path class="st2" d="M493.4,13.6L493.4,13.6c0-2.4,1.8-3.9,3.5-3.9c1.4,0,2.3,0.7,2.8,1.6V6.8h1.1v10.4h-1.1v-1.5
				c-0.6,0.9-1.5,1.6-2.8,1.6C495.2,17.4,493.4,16,493.4,13.6L493.4,13.6z M499.8,13.6L499.8,13.6c0-1.7-1.3-2.9-2.7-2.9
				s-2.6,1.1-2.6,2.9v0c0,1.8,1.2,2.9,2.6,2.9S499.8,15.2,499.8,13.6z"/>
			<path class="st2" d="M502.9,13.6L502.9,13.6c0-2.2,1.5-3.9,3.5-3.9c2.2,0,3.5,1.8,3.5,3.9c0,0.1,0,0.2,0,0.4H504
				c0.2,1.6,1.3,2.5,2.6,2.5c1,0,1.7-0.4,2.3-1l0.7,0.6c-0.7,0.8-1.6,1.4-3,1.4C504.5,17.4,502.9,15.9,502.9,13.6L502.9,13.6z
				 M508.8,13.1c-0.1-1.4-0.9-2.5-2.4-2.5c-1.3,0-2.3,1.1-2.4,2.5L508.8,13.1L508.8,13.1z"/>
			<path class="st2" d="M516.5,10.8h-1v-1h1V9.2c0-0.9,0.2-1.5,0.6-1.9c0.4-0.4,0.9-0.6,1.6-0.6c0.5,0,0.9,0.1,1.2,0.2v1
				c-0.4-0.1-0.7-0.2-1.1-0.2c-0.9,0-1.3,0.5-1.3,1.6v0.6h2.3v0.9h-2.3v6.4h-1.1L516.5,10.8L516.5,10.8z"/>
			<path class="st2" d="M520.8,13.6L520.8,13.6c0-2.1,1.6-3.9,3.9-3.9s3.8,1.8,3.8,3.8v0c0,2.1-1.7,3.9-3.9,3.9
				S520.7,15.7,520.8,13.6L520.8,13.6z M527.3,13.6L527.3,13.6c0-1.6-1.2-2.9-2.8-2.9s-2.7,1.3-2.7,2.9v0c0,1.6,1.2,2.9,2.7,2.9
				S527.3,15.1,527.3,13.6L527.3,13.6z"/>
			<path class="st2" d="M530.5,9.8h1.1v1.9c0.5-1.2,1.6-2.1,3-2.1v1.2h-0.1c-1.6,0-2.9,1.2-2.9,3.4v2.9h-1.1
				C530.5,17.2,530.5,9.8,530.5,9.8z"/>
			<path class="st2" d="M541.9,8.3L540,8.9L539.7,8l2.5-0.8h0.8v10.1h-1.1V8.3L541.9,8.3z"/>
			<path class="st2" d="M547,8.3l-1.9,0.6L544.8,8l2.5-0.8h0.8v10.1H547V8.3L547,8.3z"/>
			<path class="st2" d="M554.4,9.8h1.2l2,5.9l2-6h0.9l2,6l2-5.9h1.2l-2.6,7.5h-1l-2-5.8l-2,5.8h-1L554.4,9.8L554.4,9.8z"/>
			<path class="st2" d="M566.6,13.6L566.6,13.6c0-2.2,1.5-3.9,3.5-3.9c2.2,0,3.5,1.8,3.5,3.9c0,0.1,0,0.2,0,0.4h-5.9
				c0.2,1.6,1.3,2.5,2.6,2.5c1,0,1.7-0.4,2.3-1l0.7,0.6c-0.7,0.8-1.7,1.4-3,1.4C568.2,17.4,566.6,15.9,566.6,13.6L566.6,13.6z
				 M572.5,13.1c-0.1-1.4-0.9-2.5-2.4-2.5c-1.3,0-2.3,1.1-2.4,2.5L572.5,13.1L572.5,13.1z"/>
			<path class="st2" d="M575,13.6L575,13.6c0-2.2,1.5-3.9,3.5-3.9c2.2,0,3.5,1.8,3.5,3.9c0,0.1,0,0.2,0,0.4h-5.9
				c0.2,1.6,1.3,2.5,2.6,2.5c1,0,1.7-0.4,2.3-1l0.7,0.6c-0.7,0.8-1.7,1.4-3,1.4C576.7,17.4,575,15.9,575,13.6L575,13.6z M580.9,13.1
				c-0.1-1.4-0.9-2.5-2.4-2.5c-1.3,0-2.3,1.1-2.4,2.5L580.9,13.1L580.9,13.1z"/>
			<path class="st2" d="M584,6.8h1.1V14l4-4.2h1.4l-3.1,3.2l3.2,4.2h-1.3l-2.7-3.4l-1.5,1.5v1.9H584L584,6.8L584,6.8z"/>
			<path class="st2" d="M591.4,16.3l0.6-0.8c0.8,0.6,1.7,0.9,2.6,0.9s1.5-0.5,1.5-1.2v0c0-0.7-0.9-1-1.8-1.3
				c-1.2-0.3-2.5-0.7-2.5-2.1v0c0-1.3,1.1-2.1,2.5-2.1c0.9,0,1.9,0.3,2.7,0.8l-0.5,0.8c-0.7-0.4-1.5-0.7-2.2-0.7
				c-0.9,0-1.4,0.5-1.4,1.1v0c0,0.7,0.9,1,1.9,1.3c1.1,0.3,2.4,0.8,2.4,2.1v0c0,1.4-1.2,2.2-2.6,2.2C593.4,17.4,592.2,17,591.4,16.3
				L591.4,16.3z"/>
		</g>
	</g>
	<g id="entyvio_banner_00000076583470091430219030000003699062549421036709_">
		<polygon class="st3" points="871.6,23 615.9,23 625.4,11.5 615.9,0 871.6,0 881.1,11.5 		"/>
		<g>
			<g>
				<path class="st2" d="M631.9,7.2h7.2v1H633v3.4h5.5v1H633v3.5h6.2v1h-7.3V7.2z"/>
				<path class="st2" d="M641.3,9.8h1.1v1.3c0.5-0.8,1.3-1.4,2.5-1.4c1.8,0,2.8,1.2,2.8,3v4.6h-1.1v-4.3c0-1.4-0.7-2.2-2-2.2
					c-1.3,0-2.2,0.9-2.2,2.3v4.2h-1.1V9.8z"/>
				<path class="st2" d="M650.5,15.3v-4.5h-1v-1h1V7.6h1.1v2.2h2.3v1h-2.3v4.3c0,0.9,0.5,1.2,1.2,1.2c0.4,0,0.7-0.1,1.1-0.3v0.9
					c-0.4,0.2-0.8,0.3-1.3,0.3C651.4,17.4,650.5,16.8,650.5,15.3z"/>
				<path class="st2" d="M661.4,9.8h1.2l-3.1,7.6c-0.6,1.5-1.3,2.1-2.5,2.1c-0.6,0-1.1-0.1-1.6-0.4l0.4-0.9c0.4,0.2,0.7,0.3,1.2,0.3
					c0.7,0,1.1-0.3,1.5-1.4l-3.4-7.4h1.2l2.7,6.2L661.4,9.8z"/>
				<path class="st2" d="M663.4,9.8h1.2l2.5,6.1l2.5-6.1h1.2l-3.2,7.5h-1L663.4,9.8z"/>
				<path class="st2" d="M672.6,7h1.3v1.2h-1.3V7z M672.6,9.8h1.1v7.4h-1.1V9.8z"/>
				<path class="st2" d="M675.8,13.6L675.8,13.6c0-2.1,1.6-3.9,3.9-3.9c2.2,0,3.8,1.7,3.8,3.8v0c0,2.1-1.6,3.9-3.9,3.9
					C677.5,17.4,675.8,15.7,675.8,13.6z M682.4,13.6L682.4,13.6c0-1.6-1.2-2.9-2.7-2.9c-1.6,0-2.7,1.3-2.7,2.9v0
					c0,1.6,1.2,2.9,2.7,2.9C681.3,16.4,682.4,15.1,682.4,13.6z"/>
				<path class="st2" d="M689.6,13.1c0-2.6,1.4-4.7,4-6.1l0.5,0.7c-2.2,1.4-3.3,3.1-3.3,5.4s1.1,4,3.3,5.4l-0.5,0.7
					C691,17.8,689.6,15.8,689.6,13.1z"/>
				<path class="st2" d="M695.3,9.8h1.2L699,16l2.5-6.1h1.2l-3.2,7.5h-1L695.3,9.8z"/>
				<path class="st2" d="M703.5,13.6L703.5,13.6c0-2.2,1.5-3.9,3.5-3.9c2.2,0,3.5,1.7,3.5,3.9c0,0.1,0,0.2,0,0.4h-5.9
					c0.2,1.6,1.3,2.5,2.6,2.5c1,0,1.7-0.4,2.3-1l0.7,0.6c-0.7,0.8-1.6,1.4-3,1.4C705.2,17.4,703.5,15.8,703.5,13.6z M709.4,13.1
					c-0.1-1.3-0.9-2.5-2.4-2.5c-1.3,0-2.3,1.1-2.4,2.5H709.4z"/>
				<path class="st2" d="M712,13.6L712,13.6c0-2.4,1.8-3.9,3.5-3.9c1.4,0,2.3,0.7,2.8,1.6V6.8h1.1v10.4h-1.1v-1.5
					c-0.6,0.9-1.5,1.6-2.8,1.6C713.8,17.4,712,16,712,13.6z M718.5,13.5L718.5,13.5c0-1.7-1.3-2.9-2.7-2.9c-1.4,0-2.6,1.1-2.6,2.8v0
					c0,1.7,1.2,2.9,2.6,2.9C717.2,16.4,718.5,15.2,718.5,13.5z"/>
				<path class="st2" d="M721.5,13.6L721.5,13.6c0-2.1,1.6-3.9,3.9-3.9c2.2,0,3.8,1.7,3.8,3.8v0c0,2.1-1.6,3.9-3.9,3.9
					C723.1,17.4,721.5,15.7,721.5,13.6z M728.1,13.6L728.1,13.6c0-1.6-1.2-2.9-2.7-2.9c-1.6,0-2.7,1.3-2.7,2.9v0
					c0,1.6,1.2,2.9,2.7,2.9C727,16.4,728.1,15.1,728.1,13.6z"/>
				<path class="st2" d="M731.3,6.8h1.1v10.4h-1.1V6.8z"/>
				<path class="st2" d="M735,7h1.3v1.2H735V7z M735.1,9.8h1.1v7.4h-1.1V9.8z"/>
				<path class="st2" d="M738.3,16.5l4.9-5.8h-4.7V9.8h6.2v0.7l-4.9,5.8h4.9v0.9h-6.4V16.5z"/>
				<path class="st2" d="M746.6,14.4V9.8h1.1v4.3c0,1.4,0.7,2.2,2,2.2c1.3,0,2.2-0.9,2.2-2.3V9.8h1.1v7.4h-1.1v-1.3
					c-0.5,0.8-1.3,1.4-2.5,1.4C747.6,17.4,746.6,16.2,746.6,14.4z"/>
				<path class="st2" d="M755.5,9.8h1.1v1.2c0.5-0.7,1.1-1.4,2.4-1.4c1.2,0,2,0.6,2.4,1.5c0.5-0.8,1.3-1.5,2.6-1.5
					c1.7,0,2.7,1.1,2.7,3v4.6h-1.1v-4.3c0-1.4-0.7-2.2-1.9-2.2c-1.1,0-2,0.8-2,2.3v4.3h-1.1v-4.4c0-1.4-0.7-2.2-1.9-2.2
					s-2.1,1-2.1,2.3v4.2h-1.1V9.8z"/>
				<path class="st2" d="M768.5,15.1L768.5,15.1c0-1.6,1.3-2.4,3.2-2.4c0.9,0,1.6,0.1,2.3,0.3v-0.3c0-1.3-0.8-2-2.2-2
					c-0.9,0-1.6,0.2-2.2,0.5l-0.3-0.9c0.8-0.4,1.6-0.6,2.7-0.6c1,0,1.8,0.3,2.4,0.8c0.5,0.5,0.8,1.2,0.8,2.2v4.5H774v-1.1
					c-0.5,0.7-1.4,1.3-2.7,1.3C769.9,17.4,768.5,16.6,768.5,15.1z M774,14.5v-0.7c-0.5-0.2-1.3-0.3-2.2-0.3c-1.4,0-2.2,0.6-2.2,1.5
					v0c0,0.9,0.9,1.5,1.9,1.5C772.9,16.5,774,15.7,774,14.5z"/>
				<path class="st2" d="M778.5,15.8v1.4h-1.1V6.8h1.1v4.5c0.6-0.9,1.5-1.6,2.8-1.6c1.8,0,3.5,1.4,3.5,3.8v0c0,2.4-1.7,3.8-3.5,3.8
					C779.9,17.4,779,16.7,778.5,15.8z M783.7,13.6L783.7,13.6c0-1.8-1.2-2.9-2.6-2.9c-1.4,0-2.7,1.2-2.7,2.8v0
					c0,1.7,1.3,2.9,2.7,2.9C782.5,16.4,783.7,15.3,783.7,13.6z"/>
				<path class="st2" d="M786,18.5c2.2-1.4,3.3-3.1,3.3-5.4s-1.1-4-3.3-5.4l0.5-0.7c2.5,1.4,4,3.5,4,6.1c0,2.6-1.4,4.7-4,6.1
					L786,18.5z"/>
				<path class="st2" d="M797.3,15.3v-4.5h-1v-1h1V7.6h1.1v2.2h2.3v1h-2.3v4.3c0,0.9,0.5,1.2,1.2,1.2c0.4,0,0.7-0.1,1.1-0.3v0.9
					c-0.4,0.2-0.8,0.3-1.3,0.3C798.2,17.4,797.3,16.8,797.3,15.3z"/>
				<path class="st2" d="M802.7,9.8h1.1v1.9c0.5-1.2,1.6-2.1,3-2.1v1.2h-0.1c-1.6,0-2.9,1.2-2.9,3.4v2.9h-1.1V9.8z"/>
				<path class="st2" d="M807.7,13.6L807.7,13.6c0-2.2,1.5-3.9,3.5-3.9c2.2,0,3.4,1.7,3.4,3.9c0,0.1,0,0.2,0,0.4h-5.9
					c0.2,1.6,1.3,2.5,2.6,2.5c1,0,1.7-0.4,2.3-1l0.7,0.6c-0.7,0.8-1.6,1.4-3,1.4C809.4,17.4,807.7,15.8,807.7,13.6z M813.6,13.1
					c-0.1-1.3-0.9-2.5-2.4-2.5c-1.3,0-2.3,1.1-2.4,2.5H813.6z"/>
				<path class="st2" d="M816.1,15.1L816.1,15.1c0-1.6,1.3-2.4,3.2-2.4c0.9,0,1.6,0.1,2.3,0.3v-0.3c0-1.3-0.8-2-2.2-2
					c-0.9,0-1.6,0.2-2.2,0.5l-0.3-0.9c0.8-0.4,1.6-0.6,2.7-0.6c1,0,1.8,0.3,2.4,0.8c0.5,0.5,0.8,1.2,0.8,2.2v4.5h-1.1v-1.1
					c-0.5,0.7-1.4,1.3-2.7,1.3C817.5,17.4,816.1,16.6,816.1,15.1z M821.5,14.5v-0.7c-0.5-0.2-1.3-0.3-2.2-0.3
					c-1.4,0-2.2,0.6-2.2,1.5v0c0,0.9,0.9,1.5,1.9,1.5C820.4,16.5,821.5,15.7,821.5,14.5z"/>
				<path class="st2" d="M825.3,15.3v-4.5h-1v-1h1V7.6h1.1v2.2h2.3v1h-2.3v4.3c0,0.9,0.5,1.2,1.2,1.2c0.4,0,0.7-0.1,1.1-0.3v0.9
					c-0.4,0.2-0.8,0.3-1.3,0.3C826.2,17.4,825.3,16.8,825.3,15.3z"/>
				<path class="st2" d="M830.6,9.8h1.1v1.2c0.5-0.7,1.1-1.4,2.4-1.4c1.2,0,2,0.6,2.4,1.5c0.5-0.8,1.3-1.5,2.6-1.5
					c1.7,0,2.7,1.1,2.7,3v4.6h-1.1v-4.3c0-1.4-0.7-2.2-1.9-2.2c-1.1,0-2,0.8-2,2.3v4.3h-1.1v-4.4c0-1.4-0.7-2.2-1.9-2.2
					s-2.1,1-2.1,2.3v4.2h-1.1V9.8z"/>
				<path class="st2" d="M843.8,13.6L843.8,13.6c0-2.2,1.5-3.9,3.5-3.9c2.2,0,3.4,1.7,3.4,3.9c0,0.1,0,0.2,0,0.4h-5.9
					c0.2,1.6,1.3,2.5,2.6,2.5c1,0,1.7-0.4,2.3-1l0.7,0.6c-0.7,0.8-1.6,1.4-3,1.4C845.4,17.4,843.8,15.8,843.8,13.6z M849.6,13.1
					c-0.1-1.3-0.9-2.5-2.4-2.5c-1.3,0-2.3,1.1-2.4,2.5H849.6z"/>
				<path class="st2" d="M852.7,9.8h1.1v1.3c0.5-0.8,1.3-1.4,2.5-1.4c1.8,0,2.8,1.2,2.8,3v4.6H858v-4.3c0-1.4-0.7-2.2-2-2.2
					c-1.3,0-2.2,0.9-2.2,2.3v4.2h-1.1V9.8z"/>
				<path class="st2" d="M861.9,15.3v-4.5h-1v-1h1V7.6h1.1v2.2h2.3v1H863v4.3c0,0.9,0.5,1.2,1.2,1.2c0.4,0,0.7-0.1,1.1-0.3v0.9
					c-0.4,0.2-0.8,0.3-1.3,0.3C862.8,17.4,861.9,16.8,861.9,15.3z"/>
			</g>
		</g>
	</g>
	<g id="july_2023_capsule">
		<g>
			
				<linearGradient id="SVGID_1_" gradientUnits="userSpaceOnUse" x1="814.26" y1="135.54" x2="814.26" y2="92.65" gradientTransform="matrix(1 0 0 -1 0 214)">
				<stop  offset="0" style="stop-color:#BEBDBD"/>
				<stop  offset="1" style="stop-color:#FFFFFF"/>
			</linearGradient>
			<path class="st4" d="M766.3,78.2h96c12.2,0,22,9.8,22,22l0,0c0,12.2-9.8,22-22,22h-96c-12.2,0-22-9.8-22-22l0,0
				C744.3,88,754.1,78.2,766.3,78.2z"/>
			
				<linearGradient id="SVGID_00000051349282388966315460000006070299937044446607_" gradientUnits="userSpaceOnUse" x1="814.26" y1="133.56" x2="814.26" y2="94.57" gradientTransform="matrix(1 0 0 -1 0 214)">
				<stop  offset="0" style="stop-color:#852780"/>
				<stop  offset="0.2" style="stop-color:#992E69"/>
				<stop  offset="0.53" style="stop-color:#B7394A"/>
				<stop  offset="0.81" style="stop-color:#C93F36"/>
				<stop  offset="1" style="stop-color:#D04230"/>
			</linearGradient>
			<path style="fill:url(#SVGID_00000051349282388966315460000006070299937044446607_);" d="M766.3,80.2h96c11,0,20,9,20,20l0,0
				c0,11-9,20-20,20h-96c-11,0-20-9-20-20l0,0C746.3,89.2,755.2,80.2,766.3,80.2z"/>
			<g>
				<path class="st2" d="M774.7,104.6l1.5-1.7c0.6,0.7,1.3,1.1,2,1.1c0.9,0,1.5-0.6,1.5-1.9v-7.2h2.5v7.3c0,1.3-0.4,2.3-1.1,3
					c-0.7,0.7-1.7,1-2.9,1C776.6,106.3,775.4,105.5,774.7,104.6L774.7,104.6z"/>
				<path class="st2" d="M784.5,103.1v-5.6h2.4v4.8c0,1.2,0.5,1.8,1.5,1.8s1.5-0.6,1.5-1.8v-4.8h2.4v8.6h-2.4v-1.2
					c-0.6,0.7-1.3,1.4-2.5,1.4C785.6,106.3,784.5,105.1,784.5,103.1z"/>
				<path class="st2" d="M794.7,94.5h2.4v11.7h-2.4V94.5z"/>
				<path class="st2" d="M805,97.6h2.5l-3.3,8.8c-0.7,1.7-1.4,2.4-2.8,2.4c-0.9,0-1.5-0.2-2.2-0.6l0.8-1.8c0.3,0.2,0.7,0.3,1,0.3
					c0.4,0,0.6-0.1,0.8-0.6l-3.4-8.6h2.6l2,5.8L805,97.6L805,97.6z"/>
				<path class="st2" d="M813.5,104.2l3.7-3.1c1.4-1.2,1.9-1.8,1.9-2.7s-0.6-1.5-1.5-1.5s-1.5,0.5-2.3,1.5l-1.7-1.4
					c1.1-1.5,2.2-2.3,4.2-2.3c2.3,0,3.9,1.4,3.9,3.5v0c0,1.9-1,2.8-3,4.3l-1.8,1.4h4.9v2.1h-8.3
					C813.5,106.1,813.5,104.2,813.5,104.2z"/>
				<path class="st2" d="M823.5,100.6L823.5,100.6c0-3.3,2-5.8,5-5.8s5,2.5,5,5.8v0c0,3.2-2,5.8-5,5.8S823.5,103.8,823.5,100.6z
					 M830.9,100.6L830.9,100.6c0-2.1-1-3.6-2.5-3.6s-2.4,1.5-2.4,3.5v0c0,2.1,1,3.6,2.5,3.6S830.9,102.6,830.9,100.6z"/>
				<path class="st2" d="M835,104.2l3.7-3.1c1.4-1.2,1.9-1.8,1.9-2.7S840,97,839.1,97s-1.5,0.5-2.3,1.5l-1.7-1.4
					c1.1-1.5,2.2-2.3,4.2-2.3c2.3,0,3.9,1.4,3.9,3.5v0c0,1.9-1,2.8-3,4.3l-1.8,1.4h4.9v2.1H835L835,104.2L835,104.2z"/>
				<path class="st2" d="M844.7,104.4l1.7-1.6c0.8,0.9,1.6,1.3,2.7,1.3c0.9,0,1.6-0.5,1.6-1.4v0c0-0.9-0.8-1.4-2.2-1.4h-1l-0.4-1.6
					l2.7-2.7h-4.4v-2.1h7.6v1.9l-2.8,2.7c1.5,0.3,3,1.1,3,3.1v0c0,2.1-1.5,3.7-4,3.7C847.1,106.3,845.7,105.5,844.7,104.4
					L844.7,104.4z"/>
			</g>
		</g>
		<rect x="735.5" y="73" class="st6" width="159.5" height="58.4"/>
	</g>
	<g id="october_2022_capsule">
		<path class="st7" d="M504.2,80.2h96c11,0,20,9,20,20l0,0c0,11-9,20-20,20h-96c-11,0-20-9-20-20l0,0
			C484.2,89.2,493.2,80.2,504.2,80.2z"/>
		<g>
			<path class="st3" d="M496.5,100.6L496.5,100.6c0-3.2,2.5-5.8,6-5.8s5.9,2.6,5.9,5.8v0c0,3.2-2.5,5.8-6,5.8
				S496.5,103.8,496.5,100.6z M505.8,100.6L505.8,100.6c0-1.9-1.4-3.5-3.4-3.5s-3.4,1.6-3.4,3.5v0c0,1.9,1.4,3.5,3.4,3.5
				S505.8,102.5,505.8,100.6z"/>
			<path class="st3" d="M509.9,101.9L509.9,101.9c0-2.5,1.9-4.5,4.5-4.5c1.6,0,2.6,0.5,3.4,1.4l-1.5,1.6c-0.5-0.6-1.1-0.9-2-0.9
				c-1.2,0-2.1,1.1-2.1,2.3v0c0,1.3,0.8,2.4,2.2,2.4c0.8,0,1.4-0.3,2-0.9l1.4,1.4c-0.8,0.9-1.8,1.6-3.5,1.6
				C511.8,106.3,509.9,104.4,509.9,101.9L509.9,101.9z"/>
			<path class="st3" d="M519.8,103.7v-4.1h-1v-2.1h1v-2.2h2.4v2.2h2v2.1h-2v3.7c0,0.6,0.2,0.8,0.8,0.8c0.5,0,0.8-0.1,1.2-0.3v1.9
				c-0.5,0.3-1.1,0.5-1.9,0.5C520.8,106.3,519.8,105.7,519.8,103.7L519.8,103.7z"/>
			<path class="st3" d="M525.4,101.9L525.4,101.9c0-2.5,2-4.5,4.7-4.5s4.6,2,4.6,4.4v0c0,2.5-2,4.5-4.7,4.5S525.4,104.4,525.4,101.9
				z M532.3,101.9L532.3,101.9c0-1.3-0.9-2.4-2.3-2.4s-2.2,1.1-2.2,2.3v0c0,1.3,0.9,2.4,2.3,2.4S532.3,103.2,532.3,101.9z"/>
			<path class="st3" d="M538.9,105v1.1h-2.4V94.5h2.4v4.3c0.6-0.8,1.4-1.4,2.7-1.4c2,0,3.9,1.6,3.9,4.4v0c0,2.9-1.9,4.4-3.9,4.4
				C540.3,106.3,539.5,105.7,538.9,105z M543.1,101.9L543.1,101.9c0-1.4-1-2.4-2.1-2.4s-2.1,0.9-2.1,2.4v0c0,1.4,0.9,2.4,2.1,2.4
				S543.1,103.3,543.1,101.9z"/>
			<path class="st3" d="M546.8,101.9L546.8,101.9c0-2.5,1.7-4.5,4.2-4.5c2.9,0,4.2,2.2,4.2,4.7c0,0.2,0,0.4,0,0.6h-6
				c0.2,1.1,1,1.7,2.1,1.7c0.8,0,1.4-0.3,2.1-0.9l1.4,1.2c-0.8,1-2,1.6-3.5,1.6C548.7,106.3,546.8,104.5,546.8,101.9z M552.9,101.2
				c-0.1-1.1-0.8-1.8-1.8-1.8s-1.7,0.7-1.9,1.8H552.9z"/>
			<path class="st3" d="M557.1,97.6h2.4v1.7c0.5-1.2,1.3-1.9,2.7-1.9v2.6h-0.1c-1.6,0-2.6,1-2.6,3v3.2h-2.4V97.6z"/>
			<path class="st3" d="M568.2,104.2l3.7-3.1c1.4-1.2,1.9-1.8,1.9-2.7s-0.6-1.5-1.5-1.5s-1.5,0.5-2.3,1.5l-1.7-1.4
				c1.1-1.5,2.2-2.3,4.2-2.3c2.3,0,3.9,1.4,3.9,3.5v0c0,1.9-1,2.8-3,4.3l-1.8,1.4h4.9v2.1h-8.3L568.2,104.2L568.2,104.2z"/>
			<path class="st3" d="M578.3,100.6L578.3,100.6c0-3.3,2-5.8,5-5.8s5,2.5,5,5.8v0c0,3.2-2,5.8-5,5.8S578.3,103.8,578.3,100.6z
				 M585.7,100.6L585.7,100.6c0-2.1-1-3.6-2.5-3.6s-2.4,1.5-2.4,3.5v0c0,2.1,1,3.6,2.5,3.6S585.7,102.6,585.7,100.6L585.7,100.6z"/>
			<path class="st3" d="M589.7,104.2l3.7-3.1c1.4-1.2,1.9-1.8,1.9-2.7s-0.6-1.5-1.5-1.5s-1.5,0.5-2.3,1.5l-1.7-1.4
				c1.1-1.5,2.2-2.3,4.2-2.3c2.3,0,3.9,1.4,3.9,3.5v0c0,1.9-1,2.8-2.9,4.3l-1.8,1.4h4.9v2.1h-8.3L589.7,104.2L589.7,104.2z"/>
			<path class="st3" d="M599.7,104.2l3.7-3.1c1.4-1.2,1.9-1.8,1.9-2.7s-0.6-1.5-1.5-1.5s-1.5,0.5-2.3,1.5l-1.7-1.4
				c1.1-1.5,2.2-2.3,4.2-2.3c2.3,0,3.9,1.4,3.9,3.5v0c0,1.9-1,2.8-2.9,4.3l-1.8,1.4h4.9v2.1h-8.3L599.7,104.2L599.7,104.2z"/>
		</g>
	</g>
	<g id="march_2022_capsule">
		<path class="st7" d="M224.4,82.2h96c11,0,20,9,20,20l0,0c0,11-9,20-20,20h-96c-11,0-20-9-20-20l0,0
			C204.4,91.2,213.3,82.2,224.4,82.2z"/>
		<g>
			<path class="st3" d="M226.2,96.9h2.7l2.9,4.7l2.9-4.7h2.7v11.2h-2.4v-7.3l-3.1,4.8h-0.1l-3.1-4.7v7.3h-2.4L226.2,96.9L226.2,96.9
				z"/>
			<path class="st3" d="M239.3,105.7L239.3,105.7c0-1.9,1.4-2.8,3.5-2.8c0.9,0,1.5,0.1,2.1,0.3v-0.1c0-1-0.6-1.6-1.8-1.6
				c-0.9,0-1.6,0.2-2.4,0.5l-0.6-1.9c0.9-0.4,1.9-0.7,3.3-0.7c1.3,0,2.3,0.3,2.9,1c0.6,0.6,0.9,1.6,0.9,2.7v5h-2.4v-0.9
				c-0.6,0.7-1.4,1.1-2.6,1.1C240.6,108.3,239.3,107.4,239.3,105.7L239.3,105.7z M244.9,105.1v-0.4c-0.4-0.2-1-0.3-1.6-0.3
				c-1,0-1.7,0.4-1.7,1.2v0c0,0.7,0.5,1,1.3,1C244.1,106.6,244.9,106,244.9,105.1z"/>
			<path class="st3" d="M249.3,99.6h2.4v1.7c0.5-1.2,1.3-1.9,2.7-1.9v2.6h-0.1c-1.6,0-2.6,1-2.6,3v3.2h-2.4V99.6z"/>
			<path class="st3" d="M255.3,103.9L255.3,103.9c0-2.5,1.9-4.5,4.5-4.5c1.6,0,2.6,0.5,3.4,1.4l-1.5,1.6c-0.5-0.6-1.1-0.9-2-0.9
				c-1.2,0-2.1,1.1-2.1,2.3v0c0,1.3,0.9,2.4,2.2,2.4c0.8,0,1.4-0.3,2-0.9l1.4,1.4c-0.8,0.9-1.8,1.6-3.5,1.6
				C257.2,108.3,255.3,106.4,255.3,103.9L255.3,103.9z"/>
			<path class="st3" d="M264.9,96.5h2.4v4.3c0.6-0.7,1.3-1.4,2.5-1.4c1.8,0,2.9,1.2,2.9,3.2v5.6h-2.4v-4.8c0-1.2-0.5-1.8-1.5-1.8
				s-1.5,0.6-1.5,1.8v4.8h-2.4L264.9,96.5L264.9,96.5z"/>
			<path class="st3" d="M279.3,106.2l3.7-3.1c1.4-1.2,1.9-1.8,1.9-2.7s-0.6-1.5-1.5-1.5s-1.5,0.5-2.3,1.5l-1.7-1.4
				c1.1-1.5,2.2-2.3,4.2-2.3c2.3,0,3.9,1.4,3.9,3.5v0c0,1.9-1,2.8-3,4.3l-1.8,1.4h4.9v2.1h-8.3L279.3,106.2L279.3,106.2z"/>
			<path class="st3" d="M289.4,102.6L289.4,102.6c0-3.3,2-5.8,5-5.8s5,2.5,5,5.8v0c0,3.2-2,5.8-5,5.8S289.4,105.8,289.4,102.6z
				 M296.8,102.6L296.8,102.6c0-2.1-1-3.6-2.5-3.6s-2.4,1.5-2.4,3.5v0c0,2.1,1,3.6,2.5,3.6S296.8,104.6,296.8,102.6L296.8,102.6z"/>
			<path class="st3" d="M300.8,106.2l3.7-3.1c1.4-1.2,1.9-1.8,1.9-2.7S305.9,99,305,99s-1.5,0.5-2.3,1.5l-1.7-1.4
				c1.1-1.5,2.2-2.3,4.2-2.3c2.3,0,3.9,1.4,3.9,3.5v0c0,1.9-1,2.8-3,4.3l-1.8,1.4h4.9v2.1h-8.3L300.8,106.2L300.8,106.2z"/>
			<path class="st3" d="M310.8,106.2l3.7-3.1c1.4-1.2,1.9-1.8,1.9-2.7s-0.6-1.5-1.5-1.5s-1.5,0.5-2.3,1.5l-1.7-1.4
				c1.1-1.5,2.2-2.3,4.2-2.3c2.3,0,3.9,1.4,3.9,3.5v0c0,1.9-1,2.8-3,4.3l-1.8,1.4h4.9v2.1h-8.3L310.8,106.2L310.8,106.2z"/>
		</g>
	</g>
	<g id="january_2022_text">
		<g>
			<path class="st8" d="M13.1,156.5H18c4,0,6.7,2.7,6.7,6.3v0c0,3.6-2.7,6.3-6.7,6.3h-4.9L13.1,156.5L13.1,156.5z M15.8,159v7.6H18
				c2.3,0,3.8-1.5,3.8-3.8v0c0-2.2-1.5-3.8-3.8-3.8L15.8,159L15.8,159z"/>
			<path class="st8" d="M26.9,156h2.9v2.4h-2.9V156z M27,159.5h2.7v9.6H27V159.5z"/>
			<path class="st8" d="M31.7,166.3L31.7,166.3c0-2.1,1.6-3.1,3.9-3.1c1,0,1.7,0.2,2.4,0.4v-0.2c0-1.1-0.7-1.8-2.1-1.8
				c-1,0-1.8,0.2-2.7,0.5l-0.7-2.1c1.1-0.5,2.1-0.8,3.8-0.8c1.5,0,2.6,0.4,3.3,1.1c0.7,0.7,1,1.8,1,3.1v5.6h-2.7v-1
				c-0.7,0.7-1.6,1.2-2.9,1.2C33.2,169.3,31.7,168.3,31.7,166.3L31.7,166.3z M38,165.7v-0.5c-0.5-0.2-1.1-0.4-1.8-0.4
				c-1.2,0-1.9,0.5-1.9,1.3v0c0,0.7,0.6,1.2,1.5,1.2C37.1,167.4,38,166.7,38,165.7L38,165.7z"/>
			<path class="st8" d="M43,171l0.9-2.1c1,0.6,2,0.9,3.3,0.9c1.9,0,2.8-0.9,2.8-2.6v-0.5c-0.8,1-1.7,1.6-3.2,1.6
				c-2.2,0-4.3-1.6-4.3-4.5v0c0-2.9,2.1-4.5,4.3-4.5c1.5,0,2.4,0.6,3.1,1.4v-1.3h2.7v7.5c0,1.7-0.4,3-1.2,3.8
				c-0.9,0.9-2.3,1.3-4.2,1.3C45.7,172,44.2,171.7,43,171L43,171z M49.9,163.8L49.9,163.8c0-1.3-1-2.3-2.4-2.3s-2.3,0.9-2.3,2.2v0
				c0,1.3,1,2.2,2.3,2.2S49.9,165.1,49.9,163.8z"/>
			<path class="st8" d="M55.1,159.5h2.7v1.4c0.6-0.8,1.4-1.6,2.8-1.6c2.1,0,3.3,1.4,3.3,3.6v6.2h-2.7v-5.4c0-1.3-0.6-2-1.7-2
				s-1.7,0.7-1.7,2v5.4h-2.7C55.1,169.1,55.1,159.5,55.1,159.5z"/>
			<path class="st8" d="M65.8,164.3L65.8,164.3c0-2.8,2.2-5.1,5.2-5.1s5.2,2.2,5.2,5v0c0,2.8-2.2,5-5.2,5S65.8,167.1,65.8,164.3z
				 M73.6,164.3L73.6,164.3c0-1.5-1-2.7-2.5-2.7s-2.5,1.2-2.5,2.6v0c0,1.4,1,2.7,2.5,2.7S73.6,165.8,73.6,164.3z"/>
			<path class="st8" d="M77.5,167.8l1.2-1.8c1,0.8,2.1,1.1,3,1.1c0.8,0,1.2-0.3,1.2-0.7v0c0-0.6-0.9-0.8-2-1.1
				c-1.3-0.4-2.9-1-2.9-2.9v0c0-2,1.6-3.1,3.5-3.1c1.2,0,2.6,0.4,3.6,1.1l-1,1.9c-0.9-0.6-1.9-0.9-2.6-0.9c-0.7,0-1,0.3-1,0.7v0
				c0,0.5,0.9,0.8,2,1.1c1.3,0.4,2.9,1.1,2.9,2.9v0c0,2.1-1.6,3.1-3.7,3.1C80.3,169.3,78.8,168.8,77.5,167.8L77.5,167.8z"/>
			<path class="st8" d="M87.3,156h2.9v2.4h-2.9V156z M87.4,159.5h2.7v9.6h-2.7V159.5z"/>
			<path class="st8" d="M92,167.8l1.2-1.8c1,0.8,2.1,1.1,3,1.1c0.8,0,1.2-0.3,1.2-0.7v0c0-0.6-0.9-0.8-2-1.1c-1.3-0.4-2.9-1-2.9-2.9
				v0c0-2,1.6-3.1,3.5-3.1c1.2,0,2.6,0.4,3.6,1.1l-1,1.9c-0.9-0.6-1.9-0.9-2.6-0.9c-0.7,0-1,0.3-1,0.7v0c0,0.5,0.9,0.8,2,1.1
				c1.3,0.4,2.9,1.1,2.9,2.9v0c0,2.1-1.6,3.1-3.7,3.1C94.7,169.3,93.2,168.8,92,167.8L92,167.8z"/>
			<path class="st8" d="M106.7,164.3L106.7,164.3c0-2.8,2.2-5.1,5.2-5.1s5.2,2.2,5.2,5v0c0,2.8-2.2,5-5.2,5S106.7,167.1,106.7,164.3
				z M114.4,164.3L114.4,164.3c0-1.5-1-2.7-2.5-2.7s-2.5,1.2-2.5,2.6v0c0,1.4,1,2.7,2.5,2.7S114.4,165.8,114.4,164.3z"/>
			<path class="st8" d="M119.6,161.8h-1.1v-2.2h1.1v-0.6c0-1.1,0.3-1.8,0.8-2.3s1.2-0.8,2.2-0.8c0.9,0,1.4,0.1,1.9,0.3v2.3
				c-0.4-0.1-0.8-0.2-1.2-0.2c-0.6,0-1,0.3-1,1v0.4h2.2v2.2h-2.2v7.3h-2.7L119.6,161.8L119.6,161.8z"/>
			<path class="st8" d="M8.5,177.6h2.9v2.4H8.5V177.6z M8.6,181.1h2.7v9.6H8.6V181.1z"/>
			<path class="st8" d="M13.9,181.1h2.7v1.4c0.6-0.8,1.4-1.6,2.8-1.6c2.1,0,3.3,1.4,3.3,3.6v6.2H20v-5.4c0-1.3-0.6-2-1.7-2
				s-1.7,0.7-1.7,2v5.4h-2.7C13.9,190.7,13.9,181.1,13.9,181.1z"/>
			<path class="st8" d="M25.6,183.4h-1.1v-2.2h1.1v-0.6c0-1.1,0.3-1.8,0.8-2.3s1.2-0.8,2.2-0.8c0.9,0,1.4,0.1,1.9,0.3v2.3
				c-0.4-0.1-0.8-0.2-1.2-0.2c-0.6,0-1,0.3-1,1v0.4h2.2v2.2h-2.2v7.3h-2.7L25.6,183.4L25.6,183.4z M32.1,177.6h2.7v13.1h-2.7V177.6z
				"/>
			<path class="st8" d="M36.8,187.9L36.8,187.9c0-2.1,1.6-3.1,3.9-3.1c1,0,1.7,0.2,2.4,0.4v-0.2c0-1.1-0.7-1.8-2.1-1.8
				c-1,0-1.8,0.2-2.7,0.5l-0.7-2.1c1.1-0.5,2.1-0.8,3.8-0.8c1.5,0,2.6,0.4,3.3,1.1c0.7,0.7,1,1.8,1,3.1v5.6H43v-1
				c-0.7,0.7-1.6,1.2-2.9,1.2C38.3,190.9,36.8,189.9,36.8,187.9L36.8,187.9z M43.1,187.3v-0.5c-0.5-0.2-1.1-0.4-1.8-0.4
				c-1.2,0-1.9,0.5-1.9,1.3v0c0,0.7,0.6,1.2,1.5,1.2C42.2,189,43.1,188.3,43.1,187.3L43.1,187.3z"/>
			<path class="st8" d="M48.1,181.1h2.7v1.4c0.6-0.8,1.5-1.6,2.8-1.6c1.3,0,2.2,0.6,2.7,1.5c0.8-1,1.8-1.5,3.2-1.5
				c2,0,3.3,1.2,3.3,3.6v6.3h-2.7v-5.4c0-1.3-0.6-2-1.6-2s-1.7,0.7-1.7,2v5.4h-2.7v-5.4c0-1.3-0.6-2-1.6-2s-1.7,0.7-1.7,2v5.4h-2.7
				L48.1,181.1L48.1,181.1z"/>
			<path class="st8" d="M65.2,181.1h2.7v1.4c0.6-0.8,1.5-1.6,2.8-1.6c1.3,0,2.2,0.6,2.7,1.5c0.8-1,1.8-1.5,3.2-1.5
				c2,0,3.3,1.2,3.3,3.6v6.3h-2.7v-5.4c0-1.3-0.6-2-1.6-2s-1.7,0.7-1.7,2v5.4h-2.7v-5.4c0-1.3-0.6-2-1.6-2s-1.7,0.7-1.7,2v5.4h-2.7
				L65.2,181.1L65.2,181.1z"/>
			<path class="st8" d="M81.7,187.9L81.7,187.9c0-2.1,1.6-3.1,3.9-3.1c1,0,1.7,0.2,2.4,0.4v-0.2c0-1.1-0.7-1.8-2.1-1.8
				c-1,0-1.8,0.2-2.7,0.5l-0.7-2.1c1.1-0.5,2.1-0.8,3.8-0.8c1.5,0,2.6,0.4,3.3,1.1c0.7,0.7,1,1.8,1,3.1v5.6h-2.7v-1
				c-0.7,0.7-1.6,1.2-2.9,1.2C83.2,190.9,81.7,189.9,81.7,187.9L81.7,187.9z M88,187.3v-0.5c-0.5-0.2-1.1-0.4-1.8-0.4
				c-1.2,0-1.9,0.5-1.9,1.3v0c0,0.7,0.6,1.2,1.5,1.2C87.1,189,87.9,188.3,88,187.3L88,187.3z"/>
			<path class="st8" d="M93.3,188v-4.6h-1.2v-2.3h1.2v-2.5H96v2.5h2.3v2.3H96v4.1c0,0.6,0.3,0.9,0.9,0.9c0.5,0,0.9-0.1,1.3-0.3v2.2
				c-0.6,0.3-1.2,0.6-2.2,0.6C94.4,190.9,93.3,190.2,93.3,188L93.3,188z"/>
			<path class="st8" d="M99.6,185.9L99.6,185.9c0-2.8,2.2-5.1,5.2-5.1s5.2,2.2,5.2,5v0c0,2.8-2.2,5-5.2,5S99.6,188.7,99.6,185.9z
				 M107.3,185.9L107.3,185.9c0-1.5-1-2.7-2.5-2.7s-2.5,1.2-2.5,2.6v0c0,1.4,1,2.7,2.5,2.7S107.3,187.4,107.3,185.9z"/>
			<path class="st8" d="M112,181.1h2.7v1.9c0.6-1.3,1.5-2.2,3.1-2.1v2.9h-0.1c-1.8,0-2.9,1.1-2.9,3.4v3.6H112L112,181.1L112,181.1z"
				/>
			<path class="st8" d="M125.8,181.1h2.8L125,191c-0.7,2-1.5,2.7-3.2,2.7c-1,0-1.7-0.2-2.4-0.7l0.9-2c0.4,0.2,0.8,0.4,1.2,0.4
				c0.5,0,0.7-0.1,0.9-0.6l-3.8-9.7h2.9l2.2,6.6L125.8,181.1L125.8,181.1z"/>
			<path class="st8" d="M3,199.2h2.9v2.4H3V199.2z M3,202.7h2.7v9.6H3V202.7z"/>
			<path class="st8" d="M8.5,199.2h2.7v13.1H8.5V199.2z"/>
			<path class="st8" d="M13.3,207.5L13.3,207.5c0-2.8,2-5.1,4.8-5.1c3.2,0,4.7,2.5,4.7,5.2c0,0.2,0,0.5,0,0.7H16
				c0.3,1.2,1.1,1.9,2.4,1.9c0.9,0,1.6-0.3,2.3-1l1.6,1.4c-0.9,1.1-2.2,1.8-3.9,1.8C15.5,212.5,13.3,210.5,13.3,207.5z M20.1,206.7
				c-0.2-1.2-0.9-2.1-2-2.1s-1.9,0.8-2.1,2.1H20.1z"/>
			<path class="st8" d="M24.4,207.5L24.4,207.5c0-2.8,2.2-5.1,5.2-5.1s5.2,2.2,5.2,5v0c0,2.8-2.2,5-5.2,5S24.4,210.3,24.4,207.5z
				 M32.1,207.5L32.1,207.5c0-1.5-1-2.7-2.5-2.7s-2.5,1.2-2.5,2.6v0c0,1.4,1,2.7,2.5,2.7S32.1,209,32.1,207.5z"/>
			<path class="st8" d="M36.3,207.5L36.3,207.5c0-2.8,2.1-5.1,5.1-5.1c1.8,0,3,0.6,3.8,1.6l-1.7,1.8c-0.6-0.6-1.2-1.1-2.2-1.1
				c-1.4,0-2.3,1.2-2.3,2.6v0c0,1.5,1,2.7,2.5,2.7c0.9,0,1.5-0.4,2.2-1l1.6,1.6c-0.9,1-2,1.8-3.9,1.8
				C38.4,212.5,36.3,210.3,36.3,207.5L36.3,207.5z"/>
			<path class="st8" d="M46.3,207.5L46.3,207.5c0-2.8,2.2-5.1,5.2-5.1s5.2,2.2,5.2,5v0c0,2.8-2.2,5-5.2,5S46.3,210.3,46.3,207.5z
				 M54.1,207.5L54.1,207.5c0-1.5-1-2.7-2.5-2.7S49,206,49,207.5v0c0,1.4,1,2.7,2.5,2.7S54.1,209,54.1,207.5z"/>
			<path class="st8" d="M58.9,199.2h2.7v13.1h-2.7V199.2z"/>
			<path class="st8" d="M63.7,207.5L63.7,207.5c0-2.8,2.2-5.1,5.2-5.1s5.2,2.2,5.2,5v0c0,2.8-2.2,5-5.2,5S63.7,210.3,63.7,207.5z
				 M71.4,207.5L71.4,207.5c0-1.5-1-2.7-2.5-2.7s-2.5,1.2-2.5,2.6v0c0,1.4,1,2.7,2.5,2.7S71.4,209,71.4,207.5z"/>
			<path class="st8" d="M76.1,202.7h2.7v1.4c0.6-0.8,1.4-1.6,2.8-1.6c2.1,0,3.3,1.4,3.3,3.6v6.2h-2.7v-5.4c0-1.3-0.6-2-1.7-2
				s-1.7,0.7-1.7,2v5.4h-2.7V202.7z"/>
			<path class="st8" d="M87.4,199.2h2.9v2.4h-2.9V199.2z M87.5,202.7h2.7v9.6h-2.7V202.7z"/>
			<path class="st8" d="M92.3,207.5L92.3,207.5c0-2.8,2.1-5.1,5.1-5.1c1.8,0,2.9,0.6,3.8,1.6l-1.7,1.8c-0.6-0.6-1.2-1.1-2.2-1.1
				c-1.4,0-2.3,1.2-2.3,2.6v0c0,1.5,0.9,2.7,2.4,2.7c0.9,0,1.6-0.4,2.2-1l1.6,1.6c-0.9,1-2,1.8-3.9,1.8
				C94.4,212.5,92.3,210.3,92.3,207.5L92.3,207.5z"/>
			<path class="st8" d="M108.2,206.1L108.2,206.1c0-3.6,2.7-6.6,6.6-6.6c2.4,0,3.8,0.8,5,1.9l-1.8,2c-1-0.9-2-1.4-3.2-1.4
				c-2.1,0-3.7,1.8-3.7,3.9v0c0,2.2,1.5,4,3.7,4c1.4,0,2.3-0.6,3.3-1.5l1.8,1.8c-1.3,1.4-2.7,2.2-5.2,2.2
				C110.9,212.5,108.2,209.7,108.2,206.1L108.2,206.1z"/>
			<path class="st8" d="M122,199.7h4.9c4,0,6.7,2.7,6.7,6.3v0c0,3.6-2.7,6.3-6.7,6.3H122V199.7L122,199.7z M124.8,202.2v7.6h2.1
				c2.3,0,3.8-1.5,3.8-3.8v0c0-2.2-1.5-3.8-3.8-3.8L124.8,202.2L124.8,202.2z"/>
		</g>
		<g>
			<line class="st9" x1="68.1" y1="114.3" x2="68.1" y2="114.3"/>
			<line class="st10" x1="68.1" y1="120.9" x2="68.1" y2="137.5"/>
			<line class="st9" x1="68.1" y1="140.8" x2="68.1" y2="140.8"/>
		</g>
	</g>
	<g id="january_2022_capsule">
		<path class="st7" d="M20,82.2h96c11,0,20,9,20,20l0,0c0,11-9,20-20,20H20c-11,0-20-9-20-20l0,0C0,91.2,9,82.2,20,82.2z"/>
		<g>
			<path class="st3" d="M13,106.6l1.6-1.7c0.6,0.7,1.3,1.1,2.1,1.1c0.9,0,1.5-0.6,1.5-1.9v-7.2h2.5v7.3c0,1.3-0.4,2.3-1.1,3
				s-1.7,1-2.9,1C14.9,108.3,13.8,107.5,13,106.6L13,106.6z"/>
			<path class="st3" d="M22.4,105.7L22.4,105.7c0-1.9,1.4-2.8,3.5-2.8c0.9,0,1.5,0.1,2.1,0.3v-0.1c0-1-0.6-1.6-1.8-1.6
				c-0.9,0-1.6,0.2-2.4,0.5l-0.6-1.9c0.9-0.4,1.9-0.7,3.3-0.7c1.3,0,2.3,0.3,2.9,1c0.6,0.6,0.9,1.6,0.9,2.7v5h-2.4v-0.9
				c-0.6,0.7-1.4,1.1-2.6,1.1C23.7,108.3,22.4,107.4,22.4,105.7L22.4,105.7z M28,105.1v-0.4c-0.4-0.2-1-0.3-1.5-0.3
				c-1,0-1.7,0.4-1.7,1.2v0c0,0.7,0.5,1,1.3,1C27.2,106.6,28,106,28,105.1L28,105.1z"/>
			<path class="st3" d="M32.4,99.6h2.4v1.2c0.6-0.7,1.3-1.4,2.5-1.4c1.8,0,2.9,1.2,2.9,3.2v5.6h-2.4v-4.8c0-1.2-0.5-1.8-1.5-1.8
				s-1.5,0.6-1.5,1.8v4.8h-2.4C32.4,108.2,32.4,99.6,32.4,99.6z"/>
			<path class="st3" d="M42.3,105.1v-5.6h2.4v4.8c0,1.2,0.5,1.8,1.5,1.8s1.5-0.6,1.5-1.8v-4.8h2.4v8.6h-2.4v-1.2
				c-0.6,0.7-1.3,1.4-2.5,1.4C43.4,108.3,42.3,107.1,42.3,105.1z"/>
			<path class="st3" d="M51.8,105.7L51.8,105.7c0-1.9,1.4-2.8,3.5-2.8c0.9,0,1.5,0.1,2.1,0.3v-0.1c0-1-0.6-1.6-1.8-1.6
				c-0.9,0-1.6,0.2-2.4,0.5l-0.6-1.9c0.9-0.4,1.9-0.7,3.3-0.7c1.3,0,2.3,0.3,2.9,1c0.6,0.6,0.9,1.6,0.9,2.7v5h-2.3v-0.9
				c-0.6,0.7-1.4,1.1-2.6,1.1C53.1,108.3,51.8,107.4,51.8,105.7L51.8,105.7z M57.4,105.1v-0.4c-0.4-0.2-1-0.3-1.5-0.3
				c-1,0-1.7,0.4-1.7,1.2v0c0,0.7,0.5,1,1.3,1C56.6,106.6,57.4,106,57.4,105.1z"/>
			<path class="st3" d="M61.8,99.6h2.4v1.7c0.5-1.2,1.3-1.9,2.7-1.9v2.6h-0.1c-1.6,0-2.6,1-2.6,3v3.2h-2.4V99.6z"/>
			<path class="st3" d="M74.1,99.6h2.5l-3.3,8.8c-0.7,1.7-1.4,2.4-2.8,2.4c-0.9,0-1.5-0.2-2.2-0.6l0.8-1.8c0.3,0.2,0.7,0.3,1,0.3
				c0.4,0,0.6-0.1,0.8-0.6l-3.4-8.6h2.6l1.9,5.8L74.1,99.6L74.1,99.6z"/>
			<path class="st3" d="M82.6,106.2l3.7-3.1c1.4-1.2,1.9-1.8,1.9-2.7S87.6,99,86.7,99s-1.5,0.5-2.3,1.5l-1.7-1.4
				c1.1-1.5,2.2-2.3,4.2-2.3c2.3,0,3.9,1.4,3.9,3.5v0c0,1.9-1,2.8-2.9,4.3L86,106h4.9v2.1h-8.3C82.6,108.1,82.6,106.2,82.6,106.2z"
				/>
			<path class="st3" d="M92.6,102.6L92.6,102.6c0-3.3,2-5.8,5-5.8s5,2.5,5,5.8v0c0,3.2-2,5.8-5,5.8S92.6,105.8,92.6,102.6z
				 M100.1,102.6L100.1,102.6c0-2.1-1-3.6-2.5-3.6s-2.4,1.5-2.4,3.5v0c0,2.1,1,3.6,2.5,3.6S100.1,104.6,100.1,102.6z"/>
			<path class="st3" d="M104.1,106.2l3.7-3.1c1.4-1.2,1.9-1.8,1.9-2.7s-0.6-1.5-1.5-1.5s-1.5,0.5-2.3,1.5l-1.7-1.4
				c1.1-1.5,2.2-2.3,4.2-2.3c2.3,0,3.9,1.4,3.9,3.5v0c0,1.9-1,2.8-2.9,4.3l-1.8,1.4h4.9v2.1h-8.3
				C104.1,108.1,104.1,106.2,104.1,106.2z"/>
			<path class="st3" d="M114,106.2l3.7-3.1c1.4-1.2,1.9-1.8,1.9-2.7s-0.6-1.5-1.5-1.5s-1.5,0.5-2.3,1.5l-1.7-1.4
				c1.1-1.5,2.2-2.3,4.2-2.3c2.3,0,3.9,1.4,3.9,3.5v0c0,1.9-1,2.8-2.9,4.3l-1.8,1.4h4.9v2.1H114C114,108.1,114,106.2,114,106.2z"/>
		</g>
	</g>
</g>
</svg>
