<?xml version="1.0" encoding="UTF-8"?>
<svg id="ammar_story_svg_desktop" data-name="ammar_story_svg_desktop" xmlns="http://www.w3.org/2000/svg" xmlns:xlink="http://www.w3.org/1999/xlink" viewBox="0 0 838.65 166.7">
  <defs>
    <style>
      .cls-1 {
        fill: url(#linear-gradient);
      }

      .cls-1, .cls-2, .cls-3, .cls-4, .cls-5, .cls-6 {
        stroke-width: 0px;
      }

      .cls-7 {
        stroke-dasharray: 0 0 0 6.63;
      }

      .cls-7, .cls-8, .cls-2, .cls-9, .cls-10 {
        fill: none;
      }

      .cls-7, .cls-8, .cls-9 {
        stroke: #985b8b;
        stroke-linecap: round;
        stroke-linejoin: round;
        stroke-width: 4px;
      }

      .cls-8 {
        stroke-dasharray: 0 0 0 6.27;
      }

      .cls-3 {
        fill: #82277f;
      }

      .cls-4 {
        fill: #fff;
      }

      .cls-5 {
        fill: #dbdddc;
      }

      .cls-6 {
        fill: url(#linear-gradient-2);
      }

      .cls-10 {
        stroke: #808882;
        stroke-miterlimit: 10;
        stroke-width: 2px;
      }
    </style>
    <linearGradient id="linear-gradient" x1="760.55" y1="7.32" x2="760.55" y2="50.21" gradientUnits="userSpaceOnUse">
      <stop offset="0" stop-color="#bebdbd"/>
      <stop offset="1" stop-color="#fff"/>
    </linearGradient>
    <linearGradient id="linear-gradient-2" x1="760.55" y1="9.3" x2="760.55" y2="48.29" gradientUnits="userSpaceOnUse">
      <stop offset="0" stop-color="#82277f"/>
      <stop offset=".19" stop-color="#962e69"/>
      <stop offset=".52" stop-color="#b4394a"/>
      <stop offset=".81" stop-color="#c73f36"/>
      <stop offset="1" stop-color="#ce4230"/>
    </linearGradient>
  </defs>
  <g id="ammar_story_desktop_svg">
    <g>
      <line id="timeline" class="cls-10" x1="828.55" y1="29.06" y2="29.06"/>
      <g id="_2019_capsule" data-name="2019_capsule">
        <rect class="cls-5" x="0" y="9.06" width="136" height="40" rx="20" ry="20"/>
        <g>
          <path class="cls-3" d="m49.33,33.05l3.73-3.06c1.39-1.15,1.94-1.76,1.94-2.69s-.62-1.46-1.5-1.46-1.46.48-2.29,1.5l-1.73-1.39c1.1-1.5,2.18-2.32,4.18-2.32,2.32,0,3.86,1.36,3.86,3.46v.03c0,1.87-.96,2.8-2.95,4.34l-1.83,1.41h4.88v2.13h-8.29v-1.95Z"/>
          <path class="cls-3" d="m59.38,29.43v-.03c0-3.25,2.02-5.79,4.99-5.79s4.96,2.51,4.96,5.76v.03c0,3.25-2,5.79-4.99,5.79s-4.96-2.51-4.96-5.76Zm7.43,0v-.03c0-2.03-.99-3.57-2.46-3.57s-2.43,1.49-2.43,3.54v.03c0,2.05.98,3.57,2.46,3.57s2.43-1.5,2.43-3.54Z"/>
          <path class="cls-3" d="m72.96,26.22l-1.95.48-.51-2.02,3.22-.96h1.68v11.28h-2.43v-8.79Z"/>
          <path class="cls-3" d="m84.03,30.41c-.58.48-1.31.77-2.27.77-2.43,0-4-1.34-4-3.62v-.03c0-2.26,1.75-3.92,4.27-3.92,1.5,0,2.39.37,3.23,1.22.8.8,1.33,2.02,1.33,4.23v.03c0,3.63-1.71,6.11-4.9,6.11-1.63,0-2.74-.54-3.68-1.33l1.3-1.87c.82.66,1.5.96,2.45.96,1.7,0,2.18-1.58,2.27-2.54Zm.05-2.95v-.03c0-.99-.74-1.71-1.97-1.71s-1.9.7-1.9,1.7v.03c0,.99.74,1.68,1.95,1.68s1.92-.7,1.92-1.67Z"/>
        </g>
      </g>
      <g id="first_strike_text">
        <g>
          <path class="cls-3" d="m174.43,86.38h9.6v2.52h-6.82v2.68h6.01v2.52h-6.01v4.88h-2.77v-12.6Z"/>
          <path class="cls-3" d="m186.01,85.84h2.88v2.43h-2.88v-2.43Zm.07,3.49h2.74v9.65h-2.74v-9.65Z"/>
          <path class="cls-3" d="m191.39,89.33h2.74v1.94c.56-1.33,1.46-2.2,3.08-2.12v2.86h-.14c-1.82,0-2.94,1.1-2.94,3.4v3.57h-2.74v-9.65Z"/>
          <path class="cls-3" d="m198.15,97.7l1.17-1.8c1.04.76,2.14,1.15,3.04,1.15.79,0,1.15-.29,1.15-.72v-.04c0-.59-.94-.79-2-1.12-1.35-.4-2.88-1.03-2.88-2.9v-.04c0-1.96,1.58-3.06,3.53-3.06,1.22,0,2.56.41,3.6,1.12l-1.04,1.89c-.95-.56-1.91-.9-2.61-.9-.67,0-1.01.29-1.01.67v.04c0,.54.92.79,1.96,1.15,1.35.45,2.92,1.1,2.92,2.86v.04c0,2.14-1.6,3.11-3.69,3.11-1.35,0-2.86-.45-4.14-1.46Z"/>
          <path class="cls-3" d="m208.22,96.24v-4.57h-1.15v-2.34h1.15v-2.47h2.74v2.47h2.27v2.34h-2.27v4.12c0,.63.27.94.88.94.5,0,.96-.13,1.35-.34v2.2c-.58.34-1.24.56-2.16.56-1.67,0-2.81-.67-2.81-2.9Z"/>
          <path class="cls-3" d="m160.1,107.98h2.77v12.6h-2.77v-12.6Z"/>
          <path class="cls-3" d="m166.02,107.98h5.85c1.44,0,2.57.4,3.29,1.12.58.58.86,1.28.86,2.14v.04c0,1.42-.76,2.21-1.66,2.72,1.46.56,2.36,1.4,2.36,3.1v.04c0,2.3-1.87,3.46-4.72,3.46h-6v-12.6Zm7.26,3.73c0-.83-.65-1.3-1.82-1.3h-2.74v2.67h2.56c1.22,0,2-.4,2-1.33v-.04Zm-1.35,3.67h-3.21v2.77h3.29c1.22,0,1.96-.43,1.96-1.37v-.04c0-.85-.63-1.37-2.05-1.37Z"/>
          <path class="cls-3" d="m178.15,118.74l1.64-1.96c1.13.94,2.32,1.53,3.76,1.53,1.13,0,1.82-.45,1.82-1.19v-.04c0-.7-.43-1.06-2.54-1.6-2.54-.65-4.18-1.35-4.18-3.85v-.04c0-2.29,1.84-3.8,4.41-3.8,1.84,0,3.4.58,4.68,1.6l-1.44,2.09c-1.12-.77-2.21-1.24-3.28-1.24s-1.62.49-1.62,1.1v.04c0,.83.54,1.1,2.72,1.66,2.56.67,4,1.58,4,3.78v.04c0,2.5-1.91,3.91-4.63,3.91-1.91,0-3.83-.67-5.35-2.02Z"/>
          <path class="cls-3" d="m189.92,113.68h5.54v2.63h-5.54v-2.63Z"/>
          <path class="cls-3" d="m197.72,107.44h2.74v13.14h-2.74v-13.14Z"/>
          <path class="cls-3" d="m203.08,107.44h2.88v2.43h-2.88v-2.43Zm.07,3.49h2.74v9.65h-2.74v-9.65Z"/>
          <path class="cls-3" d="m208.46,107.44h2.74v7l3.21-3.51h3.28l-3.67,3.8,3.8,5.85h-3.17l-2.47-3.96-.97,1.03v2.93h-2.74v-13.14Z"/>
          <path class="cls-3" d="m218.2,115.81v-.04c0-2.75,1.96-5.02,4.77-5.02,3.22,0,4.7,2.5,4.7,5.24,0,.22-.02.47-.04.72h-6.72c.27,1.24,1.13,1.89,2.36,1.89.92,0,1.58-.29,2.34-.99l1.57,1.39c-.9,1.12-2.2,1.8-3.94,1.8-2.9,0-5.04-2.03-5.04-4.99Zm6.81-.81c-.16-1.22-.88-2.05-2.03-2.05s-1.87.81-2.09,2.05h4.12Z"/>
          <path class="cls-3" d="m146.88,140.9l1.17-1.8c1.04.76,2.14,1.15,3.04,1.15.79,0,1.15-.29,1.15-.72v-.04c0-.59-.94-.79-2-1.12-1.35-.4-2.88-1.03-2.88-2.9v-.04c0-1.96,1.58-3.06,3.53-3.06,1.22,0,2.56.41,3.6,1.12l-1.04,1.89c-.95-.56-1.91-.9-2.61-.9-.67,0-1.01.29-1.01.67v.04c0,.54.92.79,1.96,1.15,1.35.45,2.92,1.1,2.92,2.86v.04c0,2.14-1.6,3.11-3.69,3.11-1.35,0-2.86-.45-4.14-1.46Z"/>
          <path class="cls-3" d="m162.74,132.53h2.85l-3.71,9.89c-.74,1.96-1.53,2.7-3.17,2.7-.99,0-1.73-.25-2.43-.67l.92-1.98c.36.22.81.38,1.17.38.47,0,.72-.14.95-.63l-3.78-9.69h2.9l2.2,6.57,2.11-6.57Z"/>
          <path class="cls-3" d="m167.2,132.53h2.74v1.37c.63-.81,1.46-1.55,2.84-1.55,1.26,0,2.21.56,2.72,1.53.85-.99,1.85-1.53,3.17-1.53,2.04,0,3.26,1.22,3.26,3.55v6.28h-2.74v-5.38c0-1.3-.58-1.96-1.6-1.96s-1.66.67-1.66,1.96v5.38h-2.74v-5.38c0-1.3-.58-1.96-1.6-1.96s-1.66.67-1.66,1.96v5.38h-2.74v-9.65Z"/>
          <path class="cls-3" d="m184.31,132.53h2.74v1.39c.67-.9,1.58-1.57,3.01-1.57,2.25,0,4.39,1.76,4.39,4.99v.04c0,3.22-2.11,4.99-4.39,4.99-1.46,0-2.36-.67-3.01-1.44v4.14h-2.74v-12.53Zm7.4,4.84v-.04c0-1.6-1.08-2.66-2.36-2.66s-2.34,1.06-2.34,2.66v.04c0,1.6,1.06,2.67,2.34,2.67s2.36-1.04,2.36-2.67Z"/>
          <path class="cls-3" d="m196.9,139.44v-4.57h-1.15v-2.34h1.15v-2.47h2.74v2.47h2.27v2.34h-2.27v4.12c0,.63.27.94.88.94.5,0,.96-.13,1.35-.34v2.2c-.58.34-1.24.56-2.16.56-1.67,0-2.81-.67-2.81-2.9Z"/>
          <path class="cls-3" d="m203.19,137.41v-.04c0-2.77,2.23-5.02,5.24-5.02s5.2,2.21,5.2,4.99v.04c0,2.77-2.23,5.02-5.24,5.02s-5.2-2.21-5.2-4.99Zm7.74,0v-.04c0-1.42-1.03-2.67-2.54-2.67s-2.5,1.21-2.5,2.63v.04c0,1.42,1.03,2.67,2.54,2.67s2.5-1.21,2.5-2.63Z"/>
          <path class="cls-3" d="m215.61,132.53h2.74v1.37c.63-.81,1.46-1.55,2.84-1.55,1.26,0,2.21.56,2.72,1.53.85-.99,1.85-1.53,3.17-1.53,2.04,0,3.26,1.22,3.26,3.55v6.28h-2.74v-5.38c0-1.3-.58-1.96-1.6-1.96s-1.66.67-1.66,1.96v5.38h-2.74v-5.38c0-1.3-.58-1.96-1.6-1.96s-1.66.67-1.66,1.96v5.38h-2.74v-9.65Z"/>
          <path class="cls-3" d="m231.95,140.9l1.17-1.8c1.04.76,2.14,1.15,3.04,1.15.79,0,1.15-.29,1.15-.72v-.04c0-.59-.94-.79-2-1.12-1.35-.4-2.88-1.03-2.88-2.9v-.04c0-1.96,1.58-3.06,3.53-3.06,1.22,0,2.56.41,3.6,1.12l-1.04,1.89c-.95-.56-1.91-.9-2.61-.9-.67,0-1.01.29-1.01.67v.04c0,.54.92.79,1.96,1.15,1.35.45,2.92,1.1,2.92,2.86v.04c0,2.14-1.6,3.11-3.69,3.11-1.35,0-2.86-.45-4.14-1.46Z"/>
        </g>
        <g>
          <line class="cls-9" x1="193.47" y1="29.04" x2="193.47" y2="29.04"/>
          <line class="cls-8" x1="193.47" y1="35.31" x2="193.47" y2="76.09"/>
          <line class="cls-9" x1="193.47" y1="79.23" x2="193.47" y2="79.23"/>
        </g>
      </g>
      <g id="text_details">
        <path class="cls-3" d="m265.09,92.66v-.04c0-1.3,1.1-2.34,2.36-2.34s2.36,1.04,2.36,2.34v.04c0,1.3-1.06,2.34-2.36,2.34s-2.36-1.04-2.36-2.34Z"/>
        <path class="cls-3" d="m287.6,86.29h1.33l5.74,12.69h-1.53l-1.48-3.33h-6.86l-1.49,3.33h-1.46l5.74-12.69Zm3.51,8.08l-2.86-6.43-2.88,6.43h5.74Z"/>
        <path class="cls-3" d="m298.31,97.2v1.78h-1.39v-13.14h1.39v5.71c.76-1.12,1.85-2.07,3.56-2.07,2.23,0,4.45,1.76,4.45,4.83v.04c0,3.04-2.2,4.84-4.45,4.84-1.73,0-2.84-.94-3.56-1.98Zm6.59-2.84v-.04c0-2.2-1.51-3.6-3.28-3.6s-3.37,1.46-3.37,3.58v.04c0,2.16,1.64,3.6,3.37,3.6s3.28-1.33,3.28-3.58Z"/>
        <path class="cls-3" d="m308.33,94.35v-.04c0-3.04,2.21-4.84,4.45-4.84,1.73,0,2.84.94,3.57,1.98v-5.62h1.39v13.14h-1.39v-1.87c-.76,1.12-1.85,2.07-3.57,2.07-2.23,0-4.45-1.76-4.45-4.83Zm8.07-.02v-.04c0-2.14-1.64-3.58-3.37-3.58s-3.28,1.33-3.28,3.58v.04c0,2.2,1.51,3.6,3.28,3.6s3.37-1.46,3.37-3.6Z"/>
        <path class="cls-3" d="m320.25,94.37v-.04c0-2.63,2.05-4.86,4.86-4.86s4.84,2.2,4.84,4.83v.04c0,2.63-2.07,4.86-4.88,4.86s-4.83-2.2-4.83-4.83Zm8.28,0v-.04c0-2-1.49-3.64-3.46-3.64s-3.4,1.64-3.4,3.6v.04c0,2,1.48,3.62,3.44,3.62s3.42-1.62,3.42-3.58Z"/>
        <path class="cls-3" d="m332.45,89.67h1.39v1.57c.61-.92,1.44-1.76,3.01-1.76s2.48.81,2.99,1.85c.67-1.03,1.66-1.85,3.28-1.85,2.14,0,3.46,1.44,3.46,3.75v5.76h-1.39v-5.44c0-1.8-.9-2.81-2.41-2.81-1.41,0-2.58,1.04-2.58,2.88v5.37h-1.37v-5.47c0-1.75-.92-2.77-2.39-2.77s-2.59,1.22-2.59,2.93v5.31h-1.39v-9.31Z"/>
        <path class="cls-3" d="m349.55,86.11h1.58v1.53h-1.58v-1.53Zm.09,3.57h1.39v9.31h-1.39v-9.31Z"/>
        <path class="cls-3" d="m354.25,89.67h1.39v1.62c.61-1.01,1.58-1.82,3.19-1.82,2.25,0,3.57,1.51,3.57,3.73v5.78h-1.39v-5.44c0-1.73-.94-2.81-2.58-2.81s-2.79,1.17-2.79,2.92v5.33h-1.39v-9.31Z"/>
        <path class="cls-3" d="m364.63,96.28v-.04c0-1.96,1.62-3.01,3.98-3.01,1.19,0,2.04.16,2.86.4v-.32c0-1.67-1.03-2.54-2.77-2.54-1.1,0-1.96.29-2.83.68l-.41-1.13c1.03-.47,2.03-.77,3.38-.77s2.32.34,3.01,1.03c.63.63.95,1.53.95,2.72v5.69h-1.33v-1.4c-.65.85-1.73,1.6-3.37,1.6-1.73,0-3.47-.99-3.47-2.9Zm6.86-.72v-.9c-.68-.2-1.6-.4-2.74-.4-1.75,0-2.72.76-2.72,1.93v.04c0,1.17,1.08,1.85,2.34,1.85,1.71,0,3.11-1.04,3.11-2.52Z"/>
        <path class="cls-3" d="m375.88,85.84h1.39v13.14h-1.39v-13.14Z"/>
        <path class="cls-3" d="m385.32,94.37v-.04c0-2.63,2.05-4.86,4.77-4.86,1.76,0,2.86.74,3.73,1.66l-.92.97c-.74-.77-1.57-1.4-2.83-1.4-1.89,0-3.33,1.6-3.33,3.6v.04c0,2.02,1.48,3.62,3.42,3.62,1.19,0,2.11-.59,2.84-1.39l.88.83c-.94,1.04-2.05,1.8-3.8,1.8-2.72,0-4.77-2.21-4.77-4.83Z"/>
        <path class="cls-3" d="m396.17,89.67h1.39v2.43c.68-1.55,2.03-2.67,3.8-2.59v1.49h-.11c-2.04,0-3.69,1.46-3.69,4.27v3.71h-1.39v-9.31Z"/>
        <path class="cls-3" d="m402.31,96.28v-.04c0-1.96,1.62-3.01,3.98-3.01,1.19,0,2.04.16,2.86.4v-.32c0-1.67-1.03-2.54-2.77-2.54-1.1,0-1.96.29-2.83.68l-.41-1.13c1.03-.47,2.03-.77,3.38-.77s2.32.34,3.01,1.03c.63.63.95,1.53.95,2.72v5.69h-1.33v-1.4c-.65.85-1.73,1.6-3.37,1.6-1.73,0-3.47-.99-3.47-2.9Zm6.86-.72v-.9c-.68-.2-1.6-.4-2.74-.4-1.75,0-2.72.76-2.72,1.93v.04c0,1.17,1.08,1.85,2.34,1.85,1.71,0,3.11-1.04,3.11-2.52Z"/>
        <path class="cls-3" d="m413.43,89.67h1.39v1.57c.61-.92,1.44-1.76,3.01-1.76s2.48.81,2.99,1.85c.67-1.03,1.66-1.85,3.28-1.85,2.14,0,3.46,1.44,3.46,3.75v5.76h-1.39v-5.44c0-1.8-.9-2.81-2.41-2.81-1.41,0-2.58,1.04-2.58,2.88v5.37h-1.37v-5.47c0-1.75-.92-2.77-2.39-2.77s-2.59,1.22-2.59,2.93v5.31h-1.39v-9.31Z"/>
        <path class="cls-3" d="m430.49,89.67h1.39v1.87c.76-1.12,1.85-2.07,3.57-2.07,2.23,0,4.45,1.76,4.45,4.83v.04c0,3.04-2.2,4.84-4.45,4.84-1.73,0-2.84-.94-3.57-1.98v4.66h-1.39v-12.19Zm7.98,4.68v-.04c0-2.2-1.51-3.6-3.28-3.6s-3.37,1.46-3.37,3.58v.04c0,2.16,1.64,3.6,3.37,3.6s3.28-1.33,3.28-3.58Z"/>
        <path class="cls-3" d="m442.48,86.11h1.58v1.53h-1.58v-1.53Zm.09,3.57h1.39v9.31h-1.39v-9.31Z"/>
        <path class="cls-3" d="m447.18,89.67h1.39v1.62c.61-1.01,1.58-1.82,3.19-1.82,2.25,0,3.57,1.51,3.57,3.73v5.78h-1.39v-5.44c0-1.73-.94-2.81-2.57-2.81s-2.79,1.17-2.79,2.92v5.33h-1.39v-9.31Z"/>
        <path class="cls-3" d="m458.16,100.6l.63-1.08c1.06.77,2.25,1.19,3.58,1.19,2.05,0,3.38-1.13,3.38-3.31v-1.1c-.81,1.08-1.94,1.96-3.65,1.96-2.23,0-4.38-1.67-4.38-4.36v-.04c0-2.72,2.16-4.39,4.38-4.39,1.75,0,2.88.86,3.64,1.87v-1.67h1.39v7.69c0,1.44-.43,2.54-1.19,3.29-.83.83-2.07,1.24-3.55,1.24-1.55,0-2.99-.43-4.23-1.3Zm7.63-6.72v-.04c0-1.91-1.66-3.15-3.42-3.15s-3.22,1.22-3.22,3.13v.04c0,1.87,1.49,3.17,3.22,3.17s3.42-1.28,3.42-3.15Z"/>
        <path class="cls-3" d="m474.92,96.28v-.04c0-1.96,1.62-3.01,3.98-3.01,1.19,0,2.03.16,2.86.4v-.32c0-1.67-1.03-2.54-2.77-2.54-1.1,0-1.96.29-2.83.68l-.41-1.13c1.03-.47,2.04-.77,3.39-.77s2.32.34,3.01,1.03c.63.63.95,1.53.95,2.72v5.69h-1.33v-1.4c-.65.85-1.73,1.6-3.37,1.6-1.73,0-3.48-.99-3.48-2.9Zm6.86-.72v-.9c-.68-.2-1.6-.4-2.74-.4-1.75,0-2.72.76-2.72,1.93v.04c0,1.17,1.08,1.85,2.34,1.85,1.71,0,3.12-1.04,3.12-2.52Z"/>
        <path class="cls-3" d="m486.04,89.67h1.39v1.62c.61-1.01,1.58-1.82,3.19-1.82,2.25,0,3.57,1.51,3.57,3.73v5.78h-1.39v-5.44c0-1.73-.94-2.81-2.57-2.81s-2.79,1.17-2.79,2.92v5.33h-1.39v-9.31Z"/>
        <path class="cls-3" d="m496.59,94.35v-.04c0-3.04,2.21-4.84,4.45-4.84,1.73,0,2.84.94,3.57,1.98v-5.62h1.39v13.14h-1.39v-1.87c-.76,1.12-1.85,2.07-3.57,2.07-2.23,0-4.45-1.76-4.45-4.83Zm8.07-.02v-.04c0-2.14-1.64-3.58-3.37-3.58s-3.28,1.33-3.28,3.58v.04c0,2.2,1.51,3.6,3.28,3.6s3.37-1.46,3.37-3.6Z"/>
        <path class="cls-3" d="m513.94,94.35v-.04c0-3.04,2.21-4.84,4.45-4.84,1.73,0,2.84.94,3.57,1.98v-5.62h1.39v13.14h-1.39v-1.87c-.76,1.12-1.85,2.07-3.57,2.07-2.23,0-4.45-1.76-4.45-4.83Zm8.07-.02v-.04c0-2.14-1.64-3.58-3.37-3.58s-3.28,1.33-3.28,3.58v.04c0,2.2,1.51,3.6,3.28,3.6s3.37-1.46,3.37-3.6Z"/>
        <path class="cls-3" d="m526.47,86.11h1.58v1.53h-1.58v-1.53Zm.09,3.57h1.39v9.31h-1.39v-9.31Z"/>
        <path class="cls-3" d="m530.39,97.79l.7-.99c1.01.76,2.12,1.19,3.22,1.19s1.93-.58,1.93-1.48v-.04c0-.94-1.1-1.3-2.32-1.64-1.46-.41-3.08-.92-3.08-2.63v-.04c0-1.6,1.33-2.67,3.17-2.67,1.13,0,2.4.4,3.35,1.03l-.63,1.04c-.86-.56-1.86-.9-2.75-.9-1.1,0-1.8.58-1.8,1.35v.04c0,.88,1.15,1.22,2.39,1.6,1.44.43,2.99.99,2.99,2.67v.04c0,1.76-1.46,2.79-3.31,2.79-1.33,0-2.81-.52-3.85-1.37Z"/>
        <path class="cls-3" d="m540.44,96.51v-5.62h-1.3v-1.22h1.3v-2.81h1.39v2.81h2.95v1.22h-2.95v5.44c0,1.13.63,1.55,1.57,1.55.47,0,.86-.09,1.35-.32v1.19c-.49.25-1.01.4-1.67.4-1.5,0-2.63-.74-2.63-2.63Z"/>
        <path class="cls-3" d="m546.38,94.35v-.04c0-2.68,1.89-4.84,4.46-4.84,2.75,0,4.34,2.2,4.34,4.92,0,.18,0,.29-.02.45h-7.38c.2,2.02,1.62,3.15,3.28,3.15,1.28,0,2.18-.52,2.93-1.31l.86.77c-.94,1.04-2.07,1.75-3.83,1.75-2.56,0-4.65-1.96-4.65-4.84Zm7.4-.54c-.14-1.69-1.12-3.17-2.97-3.17-1.62,0-2.84,1.35-3.02,3.17h6Z"/>
        <path class="cls-3" d="m557.61,89.67h1.39v1.62c.61-1.01,1.58-1.82,3.19-1.82,2.25,0,3.57,1.51,3.57,3.73v5.78h-1.39v-5.44c0-1.73-.94-2.81-2.57-2.81s-2.79,1.17-2.79,2.92v5.33h-1.39v-9.31Z"/>
        <path class="cls-3" d="m569.18,96.51v-5.62h-1.3v-1.22h1.3v-2.81h1.39v2.81h2.95v1.22h-2.95v5.44c0,1.13.63,1.55,1.57,1.55.47,0,.86-.09,1.35-.32v1.19c-.49.25-1.01.4-1.67.4-1.49,0-2.63-.74-2.63-2.63Z"/>
        <path class="cls-3" d="m576,86.11h1.58v1.53h-1.58v-1.53Zm.09,3.57h1.39v9.31h-1.39v-9.31Z"/>
        <path class="cls-3" d="m580.13,94.37v-.04c0-2.63,2.05-4.86,4.86-4.86s4.84,2.2,4.84,4.83v.04c0,2.63-2.07,4.86-4.88,4.86s-4.83-2.2-4.83-4.83Zm8.28,0v-.04c0-2-1.5-3.64-3.46-3.64s-3.4,1.64-3.4,3.6v.04c0,2,1.48,3.62,3.44,3.62s3.42-1.62,3.42-3.58Z"/>
        <path class="cls-3" d="m592.33,89.67h1.39v1.62c.61-1.01,1.58-1.82,3.19-1.82,2.25,0,3.57,1.51,3.57,3.73v5.78h-1.39v-5.44c0-1.73-.94-2.81-2.57-2.81s-2.79,1.17-2.79,2.92v5.33h-1.39v-9.31Z"/>
        <path class="cls-3" d="m265.09,114.26v-.04c0-1.3,1.1-2.34,2.36-2.34s2.36,1.04,2.36,2.34v.04c0,1.3-1.06,2.34-2.36,2.34s-2.36-1.04-2.36-2.34Z"/>
        <path class="cls-3" d="m287.6,107.89h1.33l5.74,12.69h-1.53l-1.48-3.33h-6.86l-1.49,3.33h-1.46l5.74-12.69Zm3.51,8.08l-2.86-6.43-2.88,6.43h5.74Z"/>
        <path class="cls-3" d="m297.04,107.44h1.39v13.14h-1.39v-13.14Z"/>
        <path class="cls-3" d="m302.14,118.11v-5.62h-1.3v-1.22h1.3v-2.81h1.39v2.81h2.95v1.22h-2.95v5.44c0,1.13.63,1.55,1.57,1.55.47,0,.86-.09,1.35-.32v1.19c-.49.25-1.01.4-1.67.4-1.49,0-2.63-.74-2.63-2.63Z"/>
        <path class="cls-3" d="m308.08,115.95v-.04c0-2.68,1.89-4.84,4.47-4.84,2.75,0,4.34,2.2,4.34,4.92,0,.18,0,.29-.02.45h-7.38c.2,2.02,1.62,3.15,3.28,3.15,1.28,0,2.18-.52,2.93-1.31l.86.77c-.94,1.04-2.07,1.75-3.83,1.75-2.56,0-4.65-1.96-4.65-4.84Zm7.4-.54c-.14-1.69-1.12-3.17-2.97-3.17-1.62,0-2.84,1.35-3.03,3.17h6Z"/>
        <path class="cls-3" d="m319.31,111.27h1.39v2.43c.68-1.55,2.03-2.67,3.8-2.59v1.49h-.11c-2.03,0-3.69,1.46-3.69,4.27v3.71h-1.39v-9.31Z"/>
        <path class="cls-3" d="m326.6,111.27h1.39v1.62c.61-1.01,1.58-1.82,3.19-1.82,2.25,0,3.57,1.51,3.57,3.73v5.78h-1.39v-5.44c0-1.73-.94-2.81-2.58-2.81s-2.79,1.17-2.79,2.92v5.33h-1.39v-9.31Z"/>
        <path class="cls-3" d="m336.99,117.88v-.04c0-1.96,1.62-3.01,3.98-3.01,1.19,0,2.04.16,2.86.4v-.32c0-1.67-1.03-2.54-2.77-2.54-1.1,0-1.96.29-2.83.68l-.41-1.13c1.03-.47,2.03-.77,3.38-.77s2.32.34,3.01,1.03c.63.63.95,1.53.95,2.72v5.69h-1.33v-1.4c-.65.85-1.73,1.6-3.37,1.6-1.73,0-3.47-.99-3.47-2.9Zm6.86-.72v-.9c-.68-.2-1.6-.4-2.74-.4-1.75,0-2.72.76-2.72,1.93v.04c0,1.17,1.08,1.85,2.34,1.85,1.71,0,3.11-1.04,3.11-2.52Z"/>
        <path class="cls-3" d="m348.51,118.11v-5.62h-1.3v-1.22h1.3v-2.81h1.39v2.81h2.95v1.22h-2.95v5.44c0,1.13.63,1.55,1.57,1.55.47,0,.86-.09,1.35-.32v1.19c-.49.25-1.01.4-1.67.4-1.5,0-2.63-.74-2.63-2.63Z"/>
        <path class="cls-3" d="m355.33,107.71h1.58v1.53h-1.58v-1.53Zm.09,3.57h1.39v9.31h-1.39v-9.31Z"/>
        <path class="cls-3" d="m360.03,111.27h1.39v1.62c.61-1.01,1.58-1.82,3.19-1.82,2.25,0,3.57,1.51,3.57,3.73v5.78h-1.39v-5.44c0-1.73-.94-2.81-2.58-2.81s-2.79,1.17-2.79,2.92v5.33h-1.39v-9.31Z"/>
        <path class="cls-3" d="m371.01,122.2l.63-1.08c1.06.77,2.25,1.19,3.58,1.19,2.05,0,3.38-1.13,3.38-3.31v-1.1c-.81,1.08-1.94,1.96-3.66,1.96-2.23,0-4.38-1.67-4.38-4.36v-.04c0-2.72,2.16-4.39,4.38-4.39,1.75,0,2.88.86,3.64,1.87v-1.67h1.39v7.69c0,1.44-.43,2.54-1.19,3.29-.83.83-2.07,1.24-3.55,1.24-1.55,0-2.99-.43-4.23-1.3Zm7.63-6.72v-.04c0-1.91-1.66-3.15-3.42-3.15s-3.22,1.22-3.22,3.13v.04c0,1.87,1.5,3.17,3.22,3.17s3.42-1.28,3.42-3.15Z"/>
        <path class="cls-3" d="m387.67,111.27h1.48l2.45,7.47,2.5-7.51h1.15l2.52,7.51,2.45-7.47h1.44l-3.28,9.38h-1.21l-2.5-7.35-2.52,7.35h-1.22l-3.26-9.38Z"/>
        <path class="cls-3" d="m402.9,117.88v-.04c0-1.96,1.62-3.01,3.98-3.01,1.19,0,2.03.16,2.86.4v-.32c0-1.67-1.03-2.54-2.77-2.54-1.1,0-1.96.29-2.83.68l-.41-1.13c1.03-.47,2.04-.77,3.39-.77s2.32.34,3.01,1.03c.63.63.95,1.53.95,2.72v5.69h-1.33v-1.4c-.65.85-1.73,1.6-3.37,1.6-1.73,0-3.48-.99-3.48-2.9Zm6.86-.72v-.9c-.68-.2-1.6-.4-2.74-.4-1.75,0-2.72.76-2.72,1.93v.04c0,1.17,1.08,1.85,2.34,1.85,1.71,0,3.12-1.04,3.12-2.52Z"/>
        <path class="cls-3" d="m414.42,118.11v-5.62h-1.3v-1.22h1.3v-2.81h1.39v2.81h2.95v1.22h-2.95v5.44c0,1.13.63,1.55,1.57,1.55.47,0,.86-.09,1.35-.32v1.19c-.49.25-1.01.4-1.67.4-1.49,0-2.63-.74-2.63-2.63Z"/>
        <path class="cls-3" d="m420.36,115.95v-.04c0-2.68,1.89-4.84,4.47-4.84,2.75,0,4.34,2.2,4.34,4.92,0,.18,0,.29-.02.45h-7.38c.2,2.02,1.62,3.15,3.28,3.15,1.28,0,2.18-.52,2.93-1.31l.86.77c-.94,1.04-2.07,1.75-3.83,1.75-2.56,0-4.65-1.96-4.65-4.84Zm7.4-.54c-.14-1.69-1.12-3.17-2.97-3.17-1.62,0-2.84,1.35-3.03,3.17h6Z"/>
        <path class="cls-3" d="m431.59,111.27h1.39v2.43c.68-1.55,2.03-2.67,3.8-2.59v1.49h-.11c-2.03,0-3.69,1.46-3.69,4.27v3.71h-1.39v-9.31Z"/>
        <path class="cls-3" d="m445.85,111.27h1.48l-3.91,9.61c-.79,1.93-1.69,2.63-3.1,2.63-.77,0-1.35-.16-1.98-.47l.47-1.1c.45.23.86.34,1.46.34.83,0,1.35-.43,1.91-1.75l-4.23-9.27h1.53l3.39,7.76,2.99-7.76Z"/>
        <path class="cls-3" d="m454.38,115.95v-.04c0-3.04,2.21-4.84,4.45-4.84,1.73,0,2.84.94,3.57,1.98v-5.62h1.39v13.14h-1.39v-1.87c-.76,1.12-1.85,2.07-3.57,2.07-2.23,0-4.45-1.76-4.45-4.83Zm8.07-.02v-.04c0-2.14-1.64-3.58-3.37-3.58s-3.28,1.33-3.28,3.58v.04c0,2.2,1.51,3.6,3.28,3.6s3.37-1.46,3.37-3.6Z"/>
        <path class="cls-3" d="m466.91,107.71h1.58v1.53h-1.58v-1.53Zm.09,3.57h1.39v9.31h-1.39v-9.31Z"/>
        <path class="cls-3" d="m470.9,117.88v-.04c0-1.96,1.62-3.01,3.98-3.01,1.19,0,2.03.16,2.86.4v-.32c0-1.67-1.03-2.54-2.77-2.54-1.1,0-1.96.29-2.83.68l-.41-1.13c1.03-.47,2.04-.77,3.39-.77s2.32.34,3.01,1.03c.63.63.95,1.53.95,2.72v5.69h-1.33v-1.4c-.65.85-1.73,1.6-3.37,1.6-1.73,0-3.48-.99-3.48-2.9Zm6.86-.72v-.9c-.68-.2-1.6-.4-2.74-.4-1.75,0-2.72.76-2.72,1.93v.04c0,1.17,1.08,1.85,2.34,1.85,1.71,0,3.12-1.04,3.12-2.52Z"/>
        <path class="cls-3" d="m482.03,111.27h1.39v2.43c.68-1.55,2.03-2.67,3.8-2.59v1.49h-.11c-2.04,0-3.69,1.46-3.69,4.27v3.71h-1.39v-9.31Z"/>
        <path class="cls-3" d="m489.32,111.27h1.39v2.43c.68-1.55,2.03-2.67,3.8-2.59v1.49h-.11c-2.04,0-3.69,1.46-3.69,4.27v3.71h-1.39v-9.31Z"/>
        <path class="cls-3" d="m496.61,107.44h1.39v5.46c.61-1.01,1.58-1.82,3.19-1.82,2.25,0,3.57,1.51,3.57,3.73v5.78h-1.39v-5.44c0-1.73-.94-2.81-2.57-2.81s-2.79,1.17-2.79,2.92v5.33h-1.39v-13.14Z"/>
        <path class="cls-3" d="m507.12,115.97v-.04c0-2.63,2.05-4.86,4.86-4.86s4.84,2.2,4.84,4.83v.04c0,2.63-2.07,4.86-4.88,4.86s-4.83-2.2-4.83-4.83Zm8.28,0v-.04c0-2-1.5-3.64-3.46-3.64s-3.4,1.64-3.4,3.6v.04c0,2,1.48,3.62,3.44,3.62s3.42-1.62,3.42-3.58Z"/>
        <path class="cls-3" d="m518.75,115.95v-.04c0-2.68,1.89-4.84,4.47-4.84,2.75,0,4.34,2.2,4.34,4.92,0,.18,0,.29-.02.45h-7.38c.2,2.02,1.62,3.15,3.28,3.15,1.28,0,2.18-.52,2.93-1.31l.86.77c-.94,1.04-2.07,1.75-3.83,1.75-2.56,0-4.65-1.96-4.65-4.84Zm7.4-.54c-.14-1.69-1.12-3.17-2.97-3.17-1.62,0-2.84,1.35-3.03,3.17h6Z"/>
        <path class="cls-3" d="m529.28,117.88v-.04c0-1.96,1.62-3.01,3.98-3.01,1.19,0,2.04.16,2.86.4v-.32c0-1.67-1.03-2.54-2.77-2.54-1.1,0-1.96.29-2.83.68l-.41-1.13c1.03-.47,2.03-.77,3.38-.77s2.32.34,3.01,1.03c.63.63.95,1.53.95,2.72v5.69h-1.33v-1.4c-.65.85-1.73,1.6-3.37,1.6-1.73,0-3.47-.99-3.47-2.9Zm6.86-.72v-.9c-.68-.2-1.6-.4-2.74-.4-1.75,0-2.72.76-2.72,1.93v.04c0,1.17,1.08,1.85,2.34,1.85,1.71,0,3.11-1.04,3.11-2.52Z"/>
        <path class="cls-3" d="m282.37,137.01c0-3.31,1.78-5.91,4.99-7.71l.59.92c-2.74,1.75-4.18,3.91-4.18,6.79s1.44,5.04,4.18,6.79l-.59.92c-3.21-1.8-4.99-4.39-4.99-7.71Z"/>
        <path class="cls-3" d="m293.18,137.37c-.41-.18-.83-.36-1.12-.36-.47,0-.67.23-.94.9l-.85-.23c.36-1.37.85-1.91,1.71-1.91.41,0,.85.18,1.3.38.4.18.81.36,1.12.36.47,0,.67-.23.94-.9l.83.23c-.36,1.37-.83,1.91-1.69,1.91-.41,0-.85-.18-1.3-.38Z"/>
        <path class="cls-3" d="m300.16,141.12c-1.01-1.01-1.58-2.3-1.58-4.88v-.04c0-3.83,1.95-6.84,5.24-6.84,1.51,0,2.63.54,3.73,1.44l-.83,1.1c-.94-.79-1.82-1.24-2.97-1.24-2.43,0-3.71,2.56-3.71,5.4v.18c.83-1.21,1.96-1.95,3.6-1.95,2.34,0,4.36,1.51,4.36,3.87v.04c0,2.43-1.96,4.2-4.52,4.2-1.39,0-2.52-.49-3.31-1.28Zm6.37-2.86v-.04c0-1.55-1.26-2.7-3.08-2.7s-3.15,1.35-3.15,2.75v.04c0,1.6,1.33,2.83,3.19,2.83s3.04-1.28,3.04-2.88Z"/>
        <path class="cls-3" d="m316.56,139.71v-5.62h-1.3v-1.22h1.3v-2.81h1.39v2.81h2.95v1.22h-2.95v5.44c0,1.13.63,1.55,1.57,1.55.47,0,.86-.09,1.35-.32v1.19c-.49.25-1.01.4-1.67.4-1.49,0-2.63-.74-2.63-2.63Z"/>
        <path class="cls-3" d="m323.38,129.31h1.58v1.53h-1.58v-1.53Zm.09,3.57h1.39v9.31h-1.39v-9.31Z"/>
        <path class="cls-3" d="m328.08,132.87h1.39v1.57c.61-.92,1.44-1.76,3.01-1.76s2.48.81,2.99,1.85c.67-1.03,1.66-1.85,3.28-1.85,2.14,0,3.46,1.44,3.46,3.75v5.76h-1.39v-5.44c0-1.8-.9-2.81-2.41-2.81-1.4,0-2.58,1.04-2.58,2.88v5.37h-1.37v-5.47c0-1.75-.92-2.77-2.39-2.77s-2.59,1.22-2.59,2.93v5.31h-1.39v-9.31Z"/>
        <path class="cls-3" d="m344.56,137.55v-.04c0-2.68,1.89-4.84,4.46-4.84,2.75,0,4.34,2.2,4.34,4.92,0,.18,0,.29-.02.45h-7.38c.2,2.02,1.62,3.15,3.28,3.15,1.28,0,2.18-.52,2.93-1.31l.86.77c-.94,1.04-2.07,1.75-3.83,1.75-2.56,0-4.65-1.96-4.65-4.84Zm7.4-.54c-.14-1.69-1.12-3.17-2.97-3.17-1.62,0-2.84,1.35-3.02,3.17h6Z"/>
        <path class="cls-3" d="m355.02,140.99l.7-.99c1.01.76,2.12,1.19,3.22,1.19s1.93-.58,1.93-1.48v-.04c0-.94-1.1-1.3-2.32-1.64-1.46-.41-3.08-.92-3.08-2.63v-.04c0-1.6,1.33-2.67,3.17-2.67,1.13,0,2.4.4,3.35,1.03l-.63,1.04c-.86-.56-1.86-.9-2.75-.9-1.1,0-1.8.58-1.8,1.35v.04c0,.88,1.15,1.22,2.39,1.6,1.44.43,2.99.99,2.99,2.67v.04c0,1.76-1.46,2.79-3.31,2.79-1.33,0-2.81-.52-3.85-1.37Z"/>
        <path class="cls-3" d="m371.19,127.81h1.28l-8.35,16.67h-1.28l8.35-16.67Z"/>
        <path class="cls-3" d="m372.1,137.55v-.04c0-3.04,2.21-4.84,4.45-4.84,1.73,0,2.84.94,3.56,1.98v-5.62h1.39v13.14h-1.39v-1.87c-.76,1.12-1.85,2.07-3.56,2.07-2.23,0-4.45-1.76-4.45-4.83Zm8.07-.02v-.04c0-2.14-1.64-3.58-3.37-3.58s-3.28,1.33-3.28,3.58v.04c0,2.2,1.51,3.6,3.28,3.6s3.37-1.46,3.37-3.6Z"/>
        <path class="cls-3" d="m383.89,139.48v-.04c0-1.96,1.62-3.01,3.98-3.01,1.19,0,2.03.16,2.86.4v-.32c0-1.67-1.03-2.54-2.77-2.54-1.1,0-1.96.29-2.83.68l-.41-1.13c1.03-.47,2.04-.77,3.39-.77s2.32.34,3.01,1.03c.63.63.95,1.53.95,2.72v5.69h-1.33v-1.4c-.65.85-1.73,1.6-3.37,1.6-1.73,0-3.48-.99-3.48-2.9Zm6.86-.72v-.9c-.68-.2-1.6-.4-2.74-.4-1.75,0-2.72.76-2.72,1.93v.04c0,1.17,1.08,1.85,2.34,1.85,1.71,0,3.12-1.04,3.12-2.52Z"/>
        <path class="cls-3" d="m401.63,132.87h1.48l-3.91,9.61c-.79,1.93-1.69,2.63-3.1,2.63-.77,0-1.35-.16-1.98-.47l.47-1.1c.45.23.86.34,1.46.34.83,0,1.35-.43,1.91-1.75l-4.23-9.27h1.53l3.39,7.76,2.99-7.76Z"/>
        <path class="cls-3" d="m404.76,143.8c2.74-1.75,4.18-3.91,4.18-6.79s-1.44-5.04-4.18-6.79l.59-.92c3.21,1.8,4.99,4.39,4.99,7.71s-1.78,5.91-4.99,7.71l-.59-.92Z"/>
        <path class="cls-3" d="m417.81,139.48v-.04c0-1.96,1.62-3.01,3.98-3.01,1.19,0,2.04.16,2.86.4v-.32c0-1.67-1.03-2.54-2.77-2.54-1.1,0-1.96.29-2.83.68l-.41-1.13c1.03-.47,2.03-.77,3.38-.77s2.32.34,3.01,1.03c.63.63.95,1.53.95,2.72v5.69h-1.33v-1.4c-.65.85-1.73,1.6-3.37,1.6-1.73,0-3.47-.99-3.47-2.9Zm6.86-.72v-.9c-.68-.2-1.6-.4-2.74-.4-1.75,0-2.72.76-2.72,1.93v.04c0,1.17,1.08,1.85,2.34,1.85,1.71,0,3.11-1.04,3.11-2.52Z"/>
        <path class="cls-3" d="m428.93,132.87h1.39v1.62c.61-1.01,1.58-1.82,3.19-1.82,2.25,0,3.57,1.51,3.57,3.73v5.78h-1.39v-5.44c0-1.73-.94-2.81-2.58-2.81s-2.79,1.17-2.79,2.92v5.33h-1.39v-9.31Z"/>
        <path class="cls-3" d="m439.48,137.55v-.04c0-3.04,2.21-4.84,4.45-4.84,1.73,0,2.84.94,3.56,1.98v-5.62h1.39v13.14h-1.39v-1.87c-.76,1.12-1.85,2.07-3.56,2.07-2.23,0-4.45-1.76-4.45-4.83Zm8.07-.02v-.04c0-2.14-1.64-3.58-3.37-3.58s-3.28,1.33-3.28,3.58v.04c0,2.2,1.51,3.6,3.28,3.6s3.37-1.46,3.37-3.6Z"/>
        <path class="cls-3" d="m456.79,137.57v-.04c0-2.63,2.05-4.86,4.77-4.86,1.76,0,2.86.74,3.73,1.66l-.92.97c-.74-.77-1.57-1.4-2.83-1.4-1.89,0-3.33,1.6-3.33,3.6v.04c0,2.02,1.48,3.62,3.42,3.62,1.19,0,2.11-.59,2.84-1.39l.88.83c-.94,1.04-2.05,1.8-3.8,1.8-2.72,0-4.77-2.21-4.77-4.83Z"/>
        <path class="cls-3" d="m466.8,137.57v-.04c0-2.63,2.05-4.86,4.86-4.86s4.84,2.2,4.84,4.83v.04c0,2.63-2.07,4.86-4.88,4.86s-4.83-2.2-4.83-4.83Zm8.28,0v-.04c0-2-1.49-3.64-3.46-3.64s-3.4,1.64-3.4,3.6v.04c0,2,1.48,3.62,3.44,3.62s3.42-1.62,3.42-3.58Z"/>
        <path class="cls-3" d="m479,132.87h1.39v1.62c.61-1.01,1.58-1.82,3.19-1.82,2.25,0,3.57,1.51,3.57,3.73v5.78h-1.39v-5.44c0-1.73-.94-2.81-2.58-2.81s-2.79,1.17-2.79,2.92v5.33h-1.39v-9.31Z"/>
        <path class="cls-3" d="m489.32,140.99l.7-.99c1.01.76,2.12,1.19,3.22,1.19s1.93-.58,1.93-1.48v-.04c0-.94-1.1-1.3-2.32-1.64-1.46-.41-3.08-.92-3.08-2.63v-.04c0-1.6,1.33-2.67,3.17-2.67,1.13,0,2.39.4,3.35,1.03l-.63,1.04c-.86-.56-1.85-.9-2.75-.9-1.1,0-1.8.58-1.8,1.35v.04c0,.88,1.15,1.22,2.4,1.6,1.44.43,2.99.99,2.99,2.67v.04c0,1.76-1.46,2.79-3.31,2.79-1.33,0-2.81-.52-3.85-1.37Z"/>
        <path class="cls-3" d="m499.36,139.71v-5.62h-1.3v-1.22h1.3v-2.81h1.39v2.81h2.95v1.22h-2.95v5.44c0,1.13.63,1.55,1.57,1.55.47,0,.86-.09,1.35-.32v1.19c-.49.25-1.01.4-1.67.4-1.5,0-2.63-.74-2.63-2.63Z"/>
        <path class="cls-3" d="m506.18,129.31h1.58v1.53h-1.58v-1.53Zm.09,3.57h1.39v9.31h-1.39v-9.31Z"/>
        <path class="cls-3" d="m510.88,132.87h1.39v1.87c.76-1.12,1.85-2.07,3.56-2.07,2.23,0,4.45,1.76,4.45,4.83v.04c0,3.04-2.2,4.84-4.45,4.84-1.73,0-2.84-.94-3.56-1.98v4.66h-1.39v-12.19Zm7.98,4.68v-.04c0-2.2-1.51-3.6-3.28-3.6s-3.37,1.46-3.37,3.58v.04c0,2.16,1.64,3.6,3.37,3.6s3.28-1.33,3.28-3.58Z"/>
        <path class="cls-3" d="m522.13,139.48v-.04c0-1.96,1.62-3.01,3.98-3.01,1.19,0,2.03.16,2.86.4v-.32c0-1.67-1.03-2.54-2.77-2.54-1.1,0-1.96.29-2.83.68l-.41-1.13c1.03-.47,2.04-.77,3.39-.77s2.32.34,3.01,1.03c.63.63.95,1.53.95,2.72v5.69h-1.33v-1.4c-.65.85-1.73,1.6-3.37,1.6-1.73,0-3.48-.99-3.48-2.9Zm6.86-.72v-.9c-.68-.2-1.6-.4-2.74-.4-1.75,0-2.72.76-2.72,1.93v.04c0,1.17,1.08,1.85,2.34,1.85,1.71,0,3.12-1.04,3.12-2.52Z"/>
        <path class="cls-3" d="m533.65,139.71v-5.62h-1.3v-1.22h1.3v-2.81h1.39v2.81h2.95v1.22h-2.95v5.44c0,1.13.63,1.55,1.57,1.55.47,0,.86-.09,1.35-.32v1.19c-.49.25-1.01.4-1.67.4-1.49,0-2.63-.74-2.63-2.63Z"/>
        <path class="cls-3" d="m540.47,129.31h1.58v1.53h-1.58v-1.53Zm.09,3.57h1.39v9.31h-1.39v-9.31Z"/>
        <path class="cls-3" d="m544.6,137.57v-.04c0-2.63,2.05-4.86,4.86-4.86s4.84,2.2,4.84,4.83v.04c0,2.63-2.07,4.86-4.88,4.86s-4.83-2.2-4.83-4.83Zm8.28,0v-.04c0-2-1.5-3.64-3.46-3.64s-3.4,1.64-3.4,3.6v.04c0,2,1.48,3.62,3.44,3.62s3.42-1.62,3.42-3.58Z"/>
        <path class="cls-3" d="m556.8,132.87h1.39v1.62c.61-1.01,1.58-1.82,3.19-1.82,2.25,0,3.57,1.51,3.57,3.73v5.78h-1.39v-5.44c0-1.73-.94-2.81-2.57-2.81s-2.79,1.17-2.79,2.92v5.33h-1.39v-9.31Z"/>
        <path class="cls-3" d="m265.09,157.46v-.04c0-1.3,1.1-2.34,2.36-2.34s2.36,1.04,2.36,2.34v.04c0,1.3-1.06,2.34-2.36,2.34s-2.36-1.04-2.36-2.34Z"/>
        <path class="cls-3" d="m282.93,151.18h9.06v1.31h-7.63v4.5h6.82v1.3h-6.82v5.49h-1.42v-12.6Z"/>
        <path class="cls-3" d="m293.35,161.08v-.04c0-1.96,1.62-3.01,3.98-3.01,1.19,0,2.03.16,2.86.4v-.32c0-1.67-1.03-2.54-2.77-2.54-1.1,0-1.96.29-2.83.68l-.41-1.13c1.03-.47,2.04-.77,3.39-.77s2.32.34,3.01,1.03c.63.63.95,1.53.95,2.72v5.69h-1.33v-1.4c-.65.85-1.73,1.6-3.37,1.6-1.73,0-3.48-.99-3.48-2.9Zm6.86-.72v-.9c-.68-.2-1.6-.4-2.74-.4-1.75,0-2.72.76-2.72,1.93v.04c0,1.17,1.08,1.85,2.34,1.85,1.71,0,3.12-1.04,3.12-2.52Z"/>
        <path class="cls-3" d="m304.87,161.31v-5.62h-1.3v-1.22h1.3v-2.81h1.39v2.81h2.95v1.22h-2.95v5.44c0,1.13.63,1.55,1.57,1.55.47,0,.86-.09,1.35-.32v1.19c-.49.25-1.01.4-1.67.4-1.49,0-2.63-.74-2.63-2.63Z"/>
        <path class="cls-3" d="m311.7,150.91h1.58v1.53h-1.58v-1.53Zm.09,3.57h1.39v9.31h-1.39v-9.31Z"/>
        <path class="cls-3" d="m316.29,165.4l.63-1.08c1.06.77,2.25,1.19,3.58,1.19,2.05,0,3.38-1.13,3.38-3.31v-1.1c-.81,1.08-1.94,1.96-3.65,1.96-2.23,0-4.38-1.67-4.38-4.36v-.04c0-2.72,2.16-4.39,4.38-4.39,1.75,0,2.88.86,3.64,1.87v-1.67h1.39v7.69c0,1.44-.43,2.54-1.19,3.29-.83.83-2.07,1.24-3.55,1.24-1.55,0-2.99-.43-4.23-1.3Zm7.63-6.72v-.04c0-1.91-1.66-3.15-3.42-3.15s-3.22,1.22-3.22,3.13v.04c0,1.87,1.49,3.17,3.22,3.17s3.42-1.28,3.42-3.15Z"/>
        <path class="cls-3" d="m328.2,160.25v-5.78h1.39v5.44c0,1.73.94,2.81,2.58,2.81s2.79-1.17,2.79-2.92v-5.33h1.37v9.31h-1.37v-1.62c-.63,1.01-1.58,1.82-3.19,1.82-2.25,0-3.57-1.51-3.57-3.73Z"/>
        <path class="cls-3" d="m338.86,159.15v-.04c0-2.68,1.89-4.84,4.46-4.84,2.75,0,4.34,2.2,4.34,4.92,0,.18,0,.29-.02.45h-7.38c.2,2.02,1.62,3.15,3.28,3.15,1.28,0,2.18-.52,2.93-1.31l.86.77c-.94,1.04-2.07,1.75-3.83,1.75-2.56,0-4.65-1.96-4.65-4.84Zm7.4-.54c-.14-1.69-1.12-3.17-2.97-3.17-1.62,0-2.84,1.35-3.02,3.17h6Z"/>
      </g>
      <g id="_2020_capsule" data-name="2020_capsule">
        <rect class="cls-5" x="230.18" y="9.06" width="136" height="40" rx="20" ry="20"/>
        <g>
          <path class="cls-3" d="m277.4,33.05l3.73-3.06c1.39-1.15,1.94-1.76,1.94-2.69s-.62-1.46-1.5-1.46-1.46.48-2.29,1.5l-1.73-1.39c1.1-1.5,2.18-2.32,4.18-2.32,2.32,0,3.86,1.36,3.86,3.46v.03c0,1.87-.96,2.8-2.94,4.34l-1.83,1.41h4.88v2.13h-8.29v-1.95Z"/>
          <path class="cls-3" d="m287.45,29.43v-.03c0-3.25,2.02-5.79,4.99-5.79s4.96,2.51,4.96,5.76v.03c0,3.25-2,5.79-4.99,5.79s-4.96-2.51-4.96-5.76Zm7.43,0v-.03c0-2.03-.99-3.57-2.46-3.57s-2.43,1.49-2.43,3.54v.03c0,2.05.98,3.57,2.46,3.57s2.43-1.5,2.43-3.54Z"/>
          <path class="cls-3" d="m298.89,33.05l3.73-3.06c1.39-1.15,1.94-1.76,1.94-2.69s-.62-1.46-1.5-1.46-1.46.48-2.29,1.5l-1.73-1.39c1.1-1.5,2.18-2.32,4.18-2.32,2.32,0,3.86,1.36,3.86,3.46v.03c0,1.87-.96,2.8-2.95,4.34l-1.82,1.41h4.88v2.13h-8.29v-1.95Z"/>
          <path class="cls-3" d="m308.93,29.43v-.03c0-3.25,2.02-5.79,4.99-5.79s4.96,2.51,4.96,5.76v.03c0,3.25-2,5.79-4.99,5.79s-4.96-2.51-4.96-5.76Zm7.43,0v-.03c0-2.03-.99-3.57-2.47-3.57s-2.43,1.49-2.43,3.54v.03c0,2.05.98,3.57,2.46,3.57s2.43-1.5,2.43-3.54Z"/>
        </g>
      </g>
      <g id="_2021_capsule" data-name="2021_capsule">
        <rect class="cls-5" x="460.37" y="9.06" width="136" height="40" rx="20" ry="20"/>
        <g>
          <path class="cls-3" d="m510.05,33.05l3.73-3.06c1.39-1.15,1.94-1.76,1.94-2.69s-.62-1.46-1.5-1.46-1.46.48-2.29,1.51l-1.73-1.39c1.1-1.51,2.18-2.32,4.18-2.32,2.32,0,3.86,1.36,3.86,3.46v.03c0,1.87-.96,2.8-2.95,4.34l-1.82,1.41h4.88v2.13h-8.29v-1.95Z"/>
          <path class="cls-3" d="m520.09,29.43v-.03c0-3.25,2.02-5.79,4.99-5.79s4.96,2.51,4.96,5.76v.03c0,3.25-2,5.79-4.99,5.79s-4.96-2.51-4.96-5.76Zm7.43,0v-.03c0-2.03-.99-3.57-2.47-3.57s-2.43,1.49-2.43,3.54v.03c0,2.05.98,3.57,2.46,3.57s2.43-1.5,2.43-3.54Z"/>
          <path class="cls-3" d="m531.53,33.05l3.73-3.06c1.39-1.15,1.94-1.76,1.94-2.69s-.62-1.46-1.5-1.46-1.46.48-2.29,1.51l-1.73-1.39c1.1-1.51,2.18-2.32,4.18-2.32,2.32,0,3.86,1.36,3.86,3.46v.03c0,1.87-.96,2.8-2.94,4.34l-1.83,1.41h4.88v2.13h-8.29v-1.95Z"/>
          <path class="cls-3" d="m543.57,26.22l-1.95.48-.51-2.02,3.22-.96h1.68v11.29h-2.43v-8.79Z"/>
        </g>
      </g>
      <g id="january_text">
        <g>
          <line class="cls-9" x1="760.55" y1="52.86" x2="760.55" y2="52.86"/>
          <line class="cls-7" x1="760.55" y1="59.49" x2="760.55" y2="76.05"/>
          <line class="cls-9" x1="760.55" y1="79.37" x2="760.55" y2="79.37"/>
        </g>
        <g>
          <path class="cls-3" d="m705.45,86.38h4.92c3.96,0,6.7,2.72,6.7,6.27v.04c0,3.55-2.74,6.3-6.7,6.3h-4.92v-12.6Zm2.77,2.5v7.6h2.14c2.27,0,3.8-1.53,3.8-3.76v-.04c0-2.23-1.53-3.8-3.8-3.8h-2.14Z"/>
          <path class="cls-3" d="m719.29,85.84h2.88v2.43h-2.88v-2.43Zm.07,3.49h2.74v9.65h-2.74v-9.65Z"/>
          <path class="cls-3" d="m724.1,96.21v-.04c0-2.11,1.6-3.08,3.89-3.08.97,0,1.67.16,2.36.4v-.16c0-1.13-.7-1.76-2.07-1.76-1.04,0-1.78.2-2.67.52l-.68-2.09c1.06-.47,2.11-.77,3.75-.77,1.49,0,2.57.4,3.26,1.08.72.72,1.04,1.78,1.04,3.08v5.6h-2.65v-1.04c-.67.74-1.58,1.22-2.92,1.22-1.82,0-3.31-1.04-3.31-2.95Zm6.28-.63v-.49c-.47-.22-1.08-.36-1.75-.36-1.17,0-1.89.47-1.89,1.33v.04c0,.74.61,1.17,1.49,1.17,1.28,0,2.14-.7,2.14-1.69Z"/>
          <path class="cls-3" d="m735.39,100.89l.94-2.05c.99.56,1.98.88,3.26.88,1.87,0,2.75-.9,2.75-2.63v-.47c-.81.97-1.69,1.57-3.15,1.57-2.25,0-4.29-1.64-4.29-4.5v-.04c0-2.88,2.07-4.5,4.29-4.5,1.49,0,2.38.63,3.11,1.44v-1.26h2.74v7.47c0,1.73-.41,2.99-1.22,3.8-.9.9-2.29,1.3-4.16,1.3-1.57,0-3.04-.36-4.27-1.01Zm6.95-7.2v-.04c0-1.31-1.03-2.23-2.36-2.23s-2.34.92-2.34,2.23v.04c0,1.33,1.01,2.23,2.34,2.23s2.36-.92,2.36-2.23Z"/>
          <path class="cls-3" d="m747.48,89.33h2.74v1.37c.63-.81,1.44-1.55,2.83-1.55,2.07,0,3.28,1.37,3.28,3.58v6.25h-2.74v-5.38c0-1.3-.61-1.96-1.66-1.96s-1.71.67-1.71,1.96v5.38h-2.74v-9.65Z"/>
          <path class="cls-3" d="m758.23,94.21v-.04c0-2.77,2.23-5.02,5.24-5.02s5.2,2.21,5.2,4.99v.04c0,2.77-2.23,5.02-5.24,5.02s-5.2-2.21-5.2-4.99Zm7.74,0v-.04c0-1.42-1.03-2.67-2.54-2.67s-2.5,1.21-2.5,2.63v.04c0,1.42,1.03,2.67,2.54,2.67s2.5-1.21,2.5-2.63Z"/>
          <path class="cls-3" d="m769.89,97.7l1.17-1.8c1.04.76,2.14,1.15,3.04,1.15.79,0,1.15-.29,1.15-.72v-.04c0-.59-.94-.79-2-1.12-1.35-.4-2.88-1.03-2.88-2.9v-.04c0-1.96,1.58-3.06,3.53-3.06,1.22,0,2.56.41,3.6,1.12l-1.04,1.89c-.95-.56-1.91-.9-2.61-.9-.67,0-1.01.29-1.01.67v.04c0,.54.92.79,1.96,1.15,1.35.45,2.92,1.1,2.92,2.86v.04c0,2.14-1.6,3.11-3.69,3.11-1.35,0-2.86-.45-4.14-1.46Z"/>
          <path class="cls-3" d="m779.74,85.84h2.88v2.43h-2.88v-2.43Zm.07,3.49h2.74v9.65h-2.74v-9.65Z"/>
          <path class="cls-3" d="m784.36,97.7l1.17-1.8c1.04.76,2.14,1.15,3.04,1.15.79,0,1.15-.29,1.15-.72v-.04c0-.59-.94-.79-2-1.12-1.35-.4-2.88-1.03-2.88-2.9v-.04c0-1.96,1.58-3.06,3.53-3.06,1.22,0,2.56.41,3.6,1.12l-1.04,1.89c-.95-.56-1.91-.9-2.61-.9-.67,0-1.01.29-1.01.67v.04c0,.54.92.79,1.96,1.15,1.35.45,2.92,1.1,2.92,2.86v.04c0,2.14-1.6,3.11-3.69,3.11-1.35,0-2.86-.45-4.14-1.46Z"/>
          <path class="cls-3" d="m799.09,94.21v-.04c0-2.77,2.23-5.02,5.24-5.02s5.2,2.21,5.2,4.99v.04c0,2.77-2.23,5.02-5.24,5.02s-5.2-2.21-5.2-4.99Zm7.74,0v-.04c0-1.42-1.03-2.67-2.54-2.67s-2.5,1.21-2.5,2.63v.04c0,1.42,1.03,2.67,2.54,2.67s2.5-1.21,2.5-2.63Z"/>
          <path class="cls-3" d="m811.97,91.67h-1.13v-2.25h1.13v-.61c0-1.06.27-1.84.77-2.34s1.24-.76,2.21-.76c.86,0,1.44.11,1.94.27v2.27c-.4-.14-.77-.23-1.24-.23-.63,0-.99.32-.99,1.04v.38h2.21v2.23h-2.18v7.31h-2.74v-7.31Z"/>
          <path class="cls-3" d="m700.9,107.44h2.88v2.43h-2.88v-2.43Zm.07,3.49h2.74v9.65h-2.74v-9.65Z"/>
          <path class="cls-3" d="m706.28,110.93h2.74v1.37c.63-.81,1.44-1.55,2.83-1.55,2.07,0,3.28,1.37,3.28,3.58v6.25h-2.74v-5.38c0-1.3-.61-1.96-1.66-1.96s-1.71.67-1.71,1.96v5.38h-2.74v-9.65Z"/>
          <path class="cls-3" d="m717.96,113.27h-1.13v-2.25h1.13v-.61c0-1.06.27-1.84.77-2.34.5-.5,1.24-.76,2.21-.76.86,0,1.44.11,1.95.27v2.27c-.4-.14-.77-.23-1.24-.23-.63,0-.99.32-.99,1.04v.38h2.21v2.23h-2.18v7.31h-2.74v-7.31Zm6.54-5.83h2.74v13.14h-2.74v-13.14Z"/>
          <path class="cls-3" d="m729.23,117.81v-.04c0-2.11,1.6-3.08,3.89-3.08.97,0,1.67.16,2.36.4v-.16c0-1.13-.7-1.76-2.07-1.76-1.04,0-1.78.2-2.66.52l-.68-2.09c1.06-.47,2.11-.77,3.75-.77,1.49,0,2.58.4,3.26,1.08.72.72,1.04,1.78,1.04,3.08v5.6h-2.65v-1.04c-.67.74-1.58,1.22-2.92,1.22-1.82,0-3.31-1.04-3.31-2.95Zm6.28-.63v-.49c-.47-.22-1.08-.36-1.75-.36-1.17,0-1.89.47-1.89,1.33v.04c0,.74.61,1.17,1.5,1.17,1.28,0,2.14-.7,2.14-1.69Z"/>
          <path class="cls-3" d="m740.46,110.93h2.74v1.37c.63-.81,1.46-1.55,2.84-1.55,1.26,0,2.21.56,2.72,1.53.85-.99,1.85-1.53,3.17-1.53,2.04,0,3.26,1.22,3.26,3.55v6.28h-2.74v-5.38c0-1.3-.58-1.96-1.6-1.96s-1.66.67-1.66,1.96v5.38h-2.74v-5.38c0-1.3-.58-1.96-1.6-1.96s-1.66.67-1.66,1.96v5.38h-2.74v-9.65Z"/>
          <path class="cls-3" d="m757.56,110.93h2.74v1.37c.63-.81,1.46-1.55,2.85-1.55,1.26,0,2.21.56,2.72,1.53.85-.99,1.85-1.53,3.17-1.53,2.03,0,3.26,1.22,3.26,3.55v6.28h-2.74v-5.38c0-1.3-.58-1.96-1.6-1.96s-1.66.67-1.66,1.96v5.38h-2.74v-5.38c0-1.3-.58-1.96-1.6-1.96s-1.66.67-1.66,1.96v5.38h-2.74v-9.65Z"/>
          <path class="cls-3" d="m774.08,117.81v-.04c0-2.11,1.6-3.08,3.89-3.08.97,0,1.67.16,2.36.4v-.16c0-1.13-.7-1.76-2.07-1.76-1.04,0-1.78.2-2.67.52l-.68-2.09c1.06-.47,2.11-.77,3.75-.77,1.49,0,2.57.4,3.26,1.08.72.72,1.04,1.78,1.04,3.08v5.6h-2.65v-1.04c-.67.74-1.58,1.22-2.92,1.22-1.82,0-3.31-1.04-3.31-2.95Zm6.28-.63v-.49c-.47-.22-1.08-.36-1.75-.36-1.17,0-1.89.47-1.89,1.33v.04c0,.74.61,1.17,1.49,1.17,1.28,0,2.14-.7,2.14-1.69Z"/>
          <path class="cls-3" d="m785.68,117.84v-4.57h-1.15v-2.34h1.15v-2.47h2.74v2.47h2.27v2.34h-2.27v4.12c0,.63.27.94.88.94.5,0,.95-.13,1.35-.34v2.2c-.58.34-1.24.56-2.16.56-1.67,0-2.81-.67-2.81-2.9Z"/>
          <path class="cls-3" d="m791.96,115.81v-.04c0-2.77,2.23-5.02,5.24-5.02s5.2,2.21,5.2,4.99v.04c0,2.77-2.23,5.02-5.24,5.02s-5.2-2.21-5.2-4.99Zm7.74,0v-.04c0-1.42-1.03-2.67-2.54-2.67s-2.5,1.21-2.5,2.63v.04c0,1.42,1.03,2.67,2.54,2.67s2.5-1.21,2.5-2.63Z"/>
          <path class="cls-3" d="m804.38,110.93h2.74v1.95c.56-1.33,1.46-2.2,3.08-2.12v2.86h-.14c-1.82,0-2.94,1.1-2.94,3.4v3.57h-2.74v-9.65Z"/>
          <path class="cls-3" d="m818.24,110.93h2.85l-3.71,9.89c-.74,1.96-1.53,2.7-3.17,2.7-.99,0-1.73-.25-2.43-.67l.92-1.98c.36.22.81.38,1.17.38.47,0,.72-.14.95-.63l-3.78-9.69h2.9l2.2,6.57,2.11-6.57Z"/>
          <path class="cls-3" d="m695.38,129.04h2.88v2.43h-2.88v-2.43Zm.07,3.49h2.74v9.65h-2.74v-9.65Z"/>
          <path class="cls-3" d="m700.89,129.04h2.74v13.14h-2.74v-13.14Z"/>
          <path class="cls-3" d="m705.73,137.41v-.04c0-2.75,1.96-5.02,4.77-5.02,3.22,0,4.7,2.5,4.7,5.24,0,.22-.02.47-.04.72h-6.72c.27,1.24,1.13,1.89,2.36,1.89.92,0,1.58-.29,2.34-.99l1.57,1.39c-.9,1.12-2.2,1.8-3.94,1.8-2.9,0-5.04-2.03-5.04-4.99Zm6.81-.81c-.16-1.22-.88-2.05-2.03-2.05s-1.87.81-2.09,2.05h4.12Z"/>
          <path class="cls-3" d="m716.76,137.41v-.04c0-2.77,2.23-5.02,5.24-5.02s5.2,2.21,5.2,4.99v.04c0,2.77-2.23,5.02-5.24,5.02s-5.2-2.21-5.2-4.99Zm7.74,0v-.04c0-1.42-1.03-2.67-2.54-2.67s-2.5,1.21-2.5,2.63v.04c0,1.42,1.03,2.67,2.54,2.67s2.5-1.21,2.5-2.63Z"/>
          <path class="cls-3" d="m728.72,137.41v-.04c0-2.75,2.11-5.02,5.06-5.02,1.82,0,2.95.61,3.85,1.62l-1.67,1.8c-.61-.65-1.22-1.06-2.2-1.06-1.37,0-2.34,1.21-2.34,2.63v.04c0,1.48.95,2.67,2.45,2.67.92,0,1.55-.4,2.21-1.03l1.6,1.62c-.94,1.03-2.02,1.76-3.94,1.76-2.9,0-5.02-2.23-5.02-4.99Z"/>
          <path class="cls-3" d="m738.72,137.41v-.04c0-2.77,2.23-5.02,5.24-5.02s5.2,2.21,5.2,4.99v.04c0,2.77-2.23,5.02-5.24,5.02s-5.2-2.21-5.2-4.99Zm7.74,0v-.04c0-1.42-1.03-2.67-2.54-2.67s-2.5,1.21-2.5,2.63v.04c0,1.42,1.03,2.67,2.54,2.67s2.5-1.21,2.5-2.63Z"/>
          <path class="cls-3" d="m751.27,129.04h2.74v13.14h-2.74v-13.14Z"/>
          <path class="cls-3" d="m756.11,137.41v-.04c0-2.77,2.23-5.02,5.24-5.02s5.2,2.21,5.2,4.99v.04c0,2.77-2.23,5.02-5.24,5.02s-5.2-2.21-5.2-4.99Zm7.74,0v-.04c0-1.42-1.03-2.67-2.54-2.67s-2.5,1.21-2.5,2.63v.04c0,1.42,1.03,2.67,2.54,2.67s2.5-1.21,2.5-2.63Z"/>
          <path class="cls-3" d="m768.53,132.53h2.74v1.37c.63-.81,1.44-1.55,2.83-1.55,2.07,0,3.28,1.37,3.28,3.58v6.25h-2.74v-5.38c0-1.3-.61-1.96-1.66-1.96s-1.71.67-1.71,1.96v5.38h-2.74v-9.65Z"/>
          <path class="cls-3" d="m779.8,129.04h2.88v2.43h-2.88v-2.43Zm.07,3.49h2.74v9.65h-2.74v-9.65Z"/>
          <path class="cls-3" d="m784.71,137.41v-.04c0-2.75,2.11-5.02,5.06-5.02,1.82,0,2.95.61,3.85,1.62l-1.67,1.8c-.61-.65-1.22-1.06-2.2-1.06-1.37,0-2.34,1.21-2.34,2.63v.04c0,1.48.95,2.67,2.45,2.67.92,0,1.55-.4,2.21-1.03l1.6,1.62c-.94,1.03-2.02,1.76-3.94,1.76-2.9,0-5.02-2.23-5.02-4.99Z"/>
          <path class="cls-3" d="m800.59,135.91v-.04c0-3.58,2.7-6.52,6.57-6.52,2.38,0,3.8.79,4.97,1.94l-1.76,2.03c-.97-.88-1.96-1.42-3.22-1.42-2.12,0-3.66,1.76-3.66,3.92v.04c0,2.16,1.5,3.96,3.66,3.96,1.44,0,2.32-.58,3.31-1.48l1.76,1.78c-1.3,1.39-2.74,2.25-5.17,2.25-3.71,0-6.46-2.86-6.46-6.48Z"/>
          <path class="cls-3" d="m814.43,129.58h4.92c3.96,0,6.7,2.72,6.7,6.27v.04c0,3.55-2.74,6.3-6.7,6.3h-4.92v-12.6Zm2.77,2.5v7.6h2.14c2.27,0,3.8-1.53,3.8-3.76v-.04c0-2.23-1.53-3.8-3.8-3.8h-2.14Z"/>
        </g>
      </g>
      <g id="january_2022_capsule" data-name="january_2022" class="timeline--btn">
        <rect class="cls-1" x="690.55" y="7.06" width="140" height="44" rx="22" ry="22"/>
        <rect class="cls-6 tooltip" title="Click here" x="692.55" y="9.06" width="136" height="40" rx="20" ry="20"/>
        <g>
          <path class="cls-4" d="m705.57,33.48l1.55-1.73c.64.71,1.26,1.12,2.05,1.12.93,0,1.5-.56,1.5-1.86v-7.22h2.53v7.33c0,1.33-.38,2.32-1.06,2.99-.69.69-1.7,1.04-2.91,1.04-1.74,0-2.9-.77-3.67-1.68Z"/>
          <path class="cls-4" d="m714.94,32.54v-.03c0-1.87,1.42-2.74,3.46-2.74.86,0,1.49.14,2.1.35v-.14c0-1.01-.62-1.57-1.84-1.57-.93,0-1.58.18-2.37.46l-.61-1.86c.94-.42,1.87-.69,3.33-.69,1.33,0,2.29.35,2.9.96.64.64.93,1.58.93,2.74v4.98h-2.35v-.93c-.59.66-1.41,1.09-2.59,1.09-1.62,0-2.95-.93-2.95-2.62Zm5.59-.56v-.43c-.42-.19-.96-.32-1.55-.32-1.04,0-1.68.42-1.68,1.18v.03c0,.66.54,1.04,1.33,1.04,1.14,0,1.9-.62,1.9-1.5Z"/>
          <path class="cls-4" d="m724.93,26.42h2.43v1.22c.56-.72,1.28-1.38,2.51-1.38,1.84,0,2.91,1.22,2.91,3.19v5.55h-2.43v-4.79c0-1.15-.54-1.75-1.47-1.75s-1.52.59-1.52,1.75v4.79h-2.43v-8.58Z"/>
          <path class="cls-4" d="m734.83,31.98v-5.55h2.43v4.79c0,1.15.54,1.74,1.47,1.74s1.52-.59,1.52-1.74v-4.79h2.43v8.58h-2.43v-1.22c-.56.72-1.28,1.38-2.51,1.38-1.84,0-2.91-1.22-2.91-3.19Z"/>
          <path class="cls-4" d="m744.35,32.54v-.03c0-1.87,1.42-2.74,3.46-2.74.86,0,1.49.14,2.1.35v-.14c0-1.01-.62-1.57-1.84-1.57-.93,0-1.58.18-2.37.46l-.61-1.86c.94-.42,1.87-.69,3.33-.69,1.33,0,2.29.35,2.9.96.64.64.93,1.58.93,2.74v4.98h-2.35v-.93c-.59.66-1.41,1.09-2.59,1.09-1.62,0-2.95-.93-2.95-2.62Zm5.59-.56v-.43c-.42-.19-.96-.32-1.55-.32-1.04,0-1.68.42-1.68,1.18v.03c0,.66.54,1.04,1.33,1.04,1.14,0,1.91-.62,1.91-1.5Z"/>
          <path class="cls-4" d="m754.33,26.42h2.43v1.73c.5-1.18,1.3-1.95,2.74-1.89v2.55h-.13c-1.62,0-2.61.98-2.61,3.02v3.17h-2.43v-8.58Z"/>
          <path class="cls-4" d="m766.65,26.42h2.53l-3.3,8.79c-.66,1.75-1.36,2.4-2.82,2.4-.88,0-1.54-.22-2.16-.59l.82-1.76c.32.19.72.34,1.04.34.42,0,.64-.13.85-.56l-3.36-8.61h2.58l1.95,5.84,1.87-5.84Z"/>
          <path class="cls-4" d="m775.12,33.05l3.73-3.06c1.39-1.15,1.94-1.76,1.94-2.69s-.62-1.46-1.5-1.46-1.46.48-2.29,1.51l-1.73-1.39c1.1-1.51,2.18-2.32,4.18-2.32,2.32,0,3.86,1.36,3.86,3.46v.03c0,1.87-.96,2.8-2.95,4.34l-1.82,1.41h4.88v2.13h-8.29v-1.95Z"/>
          <path class="cls-4" d="m785.16,29.43v-.03c0-3.25,2.02-5.79,4.99-5.79s4.96,2.51,4.96,5.76v.03c0,3.25-2,5.79-4.99,5.79s-4.96-2.51-4.96-5.76Zm7.43,0v-.03c0-2.03-.99-3.57-2.47-3.57s-2.43,1.49-2.43,3.54v.03c0,2.05.98,3.57,2.46,3.57s2.43-1.5,2.43-3.54Z"/>
          <path class="cls-4" d="m796.6,33.05l3.73-3.06c1.39-1.15,1.94-1.76,1.94-2.69s-.62-1.46-1.5-1.46-1.46.48-2.29,1.51l-1.73-1.39c1.1-1.51,2.18-2.32,4.18-2.32,2.32,0,3.86,1.36,3.86,3.46v.03c0,1.87-.96,2.8-2.95,4.34l-1.82,1.41h4.88v2.13h-8.29v-1.95Z"/>
          <path class="cls-4" d="m806.57,33.05l3.73-3.06c1.39-1.15,1.94-1.76,1.94-2.69s-.62-1.46-1.5-1.46-1.46.48-2.29,1.51l-1.73-1.39c1.1-1.51,2.18-2.32,4.18-2.32,2.32,0,3.86,1.36,3.86,3.46v.03c0,1.87-.96,2.8-2.95,4.34l-1.82,1.41h4.88v2.13h-8.29v-1.95Z"/>
        </g>
        <rect class="cls-2" x="683.95" width="154.7" height="59.48"/>
      </g>
    </g>
  </g>
</svg>