<?xml version="1.0" encoding="UTF-8"?>
<svg id="Layer_2" data-name="Layer 2" xmlns="http://www.w3.org/2000/svg" viewBox="0 0 612.74 278.18">
  <defs>
    <style>
      .cls-1 {
        stroke: #231f20;
      }

      .cls-1, .cls-2 {
        fill: none;
        stroke-miterlimit: 10;
      }

      .cls-3, .cls-4, .cls-5, .cls-6 {
        stroke-width: 0px;
      }

      .cls-2 {
        stroke: #000;
        stroke-width: .75px;
      }

      .cls-4 {
        fill: #cfc0cb;
      }

      .cls-5 {
        fill: #842580;
      }

      .cls-6 {
        fill: #231f20;
      }
    </style>
  </defs>
  <g id="Layer_1-2" data-name="Layer 1">
    <g>
      <g>
        <path class="cls-6" d="m168.7.61h5.42c1.55,0,2.79.47,3.58,1.26.61.61.97,1.5.97,2.49v.04c0,2.09-1.44,3.31-3.42,3.67l3.87,5.15h-1.75l-3.66-4.9h-3.6v4.9h-1.42V.61Zm5.29,6.43c1.89,0,3.24-.97,3.24-2.59v-.04c0-1.55-1.19-2.48-3.22-2.48h-3.89v5.11h3.87Z"/>
        <path class="cls-6" d="m186.38.52h1.33l5.74,12.69h-1.53l-1.48-3.33h-6.86l-1.5,3.33h-1.46l5.74-12.69Zm3.51,8.08l-2.86-6.43-2.88,6.43h5.74Z"/>
        <path class="cls-6" d="m196.06.61h1.42v12.6h-1.42V.61Z"/>
        <path class="cls-6" d="m205.57,12.03l.7-.99c1.01.76,2.12,1.19,3.22,1.19s1.93-.58,1.93-1.48v-.04c0-.94-1.1-1.3-2.32-1.64-1.46-.41-3.08-.92-3.08-2.63v-.04c0-1.6,1.33-2.67,3.17-2.67,1.13,0,2.39.4,3.35,1.03l-.63,1.04c-.86-.56-1.85-.9-2.75-.9-1.1,0-1.8.58-1.8,1.35v.04c0,.88,1.15,1.22,2.39,1.6,1.44.43,2.99.99,2.99,2.67v.04c0,1.76-1.46,2.79-3.31,2.79-1.33,0-2.81-.52-3.85-1.37Z"/>
        <path class="cls-6" d="m214.73,8.61v-.04c0-2.63,2.05-4.86,4.77-4.86,1.76,0,2.86.74,3.73,1.66l-.92.97c-.74-.77-1.57-1.4-2.83-1.4-1.89,0-3.33,1.6-3.33,3.6v.04c0,2.02,1.48,3.62,3.42,3.62,1.19,0,2.11-.59,2.84-1.39l.88.83c-.94,1.04-2.05,1.8-3.8,1.8-2.72,0-4.77-2.21-4.77-4.83Z"/>
        <path class="cls-6" d="m224.74,8.61v-.04c0-2.63,2.05-4.86,4.86-4.86s4.84,2.2,4.84,4.83v.04c0,2.63-2.07,4.86-4.88,4.86s-4.83-2.2-4.83-4.83Zm8.28,0v-.04c0-2-1.5-3.64-3.46-3.64s-3.4,1.64-3.4,3.6v.04c0,2,1.48,3.62,3.44,3.62s3.42-1.62,3.42-3.58Z"/>
        <path class="cls-6" d="m236.94,3.91h1.39v2.43c.68-1.55,2.04-2.67,3.8-2.59v1.49h-.11c-2.04,0-3.69,1.46-3.69,4.27v3.71h-1.39V3.91Z"/>
        <path class="cls-6" d="m243.26,8.59v-.04c0-2.68,1.89-4.84,4.47-4.84,2.75,0,4.34,2.2,4.34,4.92,0,.18,0,.29-.02.45h-7.38c.2,2.02,1.62,3.15,3.28,3.15,1.28,0,2.18-.52,2.93-1.31l.86.77c-.94,1.04-2.07,1.75-3.83,1.75-2.56,0-4.65-1.96-4.65-4.84Zm7.4-.54c-.14-1.69-1.12-3.17-2.97-3.17-1.62,0-2.84,1.35-3.02,3.17h6Z"/>
        <path class="cls-6" d="m253.72,12.03l.7-.99c1.01.76,2.12,1.19,3.22,1.19s1.93-.58,1.93-1.48v-.04c0-.94-1.1-1.3-2.32-1.64-1.46-.41-3.08-.92-3.08-2.63v-.04c0-1.6,1.33-2.67,3.17-2.67,1.13,0,2.39.4,3.35,1.03l-.63,1.04c-.86-.56-1.85-.9-2.75-.9-1.1,0-1.8.58-1.8,1.35v.04c0,.88,1.15,1.22,2.39,1.6,1.44.43,2.99.99,2.99,2.67v.04c0,1.76-1.46,2.79-3.31,2.79-1.33,0-2.81-.52-3.85-1.37Z"/>
        <path class="cls-6" d="m269.38,5.13h-1.28v-1.21h1.28v-.81c0-1.06.29-1.87.81-2.4.47-.47,1.15-.72,2-.72.65,0,1.08.07,1.53.23v1.21c-.5-.14-.88-.23-1.35-.23-1.08,0-1.62.65-1.62,1.98v.76h2.95v1.19h-2.93v8.08h-1.39V5.13Z"/>
        <path class="cls-6" d="m274.7,8.61v-.04c0-2.63,2.05-4.86,4.86-4.86s4.84,2.2,4.84,4.83v.04c0,2.63-2.07,4.86-4.88,4.86s-4.83-2.2-4.83-4.83Zm8.28,0v-.04c0-2-1.5-3.64-3.46-3.64s-3.4,1.64-3.4,3.6v.04c0,2,1.48,3.62,3.44,3.62s3.42-1.62,3.42-3.58Z"/>
        <path class="cls-6" d="m286.91,3.91h1.39v2.43c.68-1.55,2.04-2.67,3.8-2.59v1.49h-.11c-2.04,0-3.69,1.46-3.69,4.27v3.71h-1.39V3.91Z"/>
        <path class="cls-6" d="m300.08,10.75v-5.62h-1.3v-1.22h1.3V1.1h1.39v2.81h2.95v1.22h-2.95v5.44c0,1.13.63,1.55,1.57,1.55.47,0,.86-.09,1.35-.32v1.19c-.49.25-1.01.4-1.67.4-1.5,0-2.63-.74-2.63-2.63Z"/>
        <path class="cls-6" d="m306.87.07h1.39v5.46c.61-1.01,1.58-1.82,3.19-1.82,2.25,0,3.56,1.51,3.56,3.73v5.78h-1.39v-5.44c0-1.73-.94-2.81-2.57-2.81s-2.79,1.17-2.79,2.92v5.33h-1.39V.07Z"/>
        <path class="cls-6" d="m317.38,8.59v-.04c0-2.68,1.89-4.84,4.47-4.84,2.75,0,4.34,2.2,4.34,4.92,0,.18,0,.29-.02.45h-7.38c.2,2.02,1.62,3.15,3.28,3.15,1.28,0,2.18-.52,2.93-1.31l.86.77c-.94,1.04-2.07,1.75-3.83,1.75-2.56,0-4.65-1.96-4.65-4.84Zm7.4-.54c-.14-1.69-1.12-3.17-2.97-3.17-1.62,0-2.84,1.35-3.02,3.17h6Z"/>
        <path class="cls-6" d="m333.69,6.95v-.04c0-3.57,2.66-6.52,6.37-6.52,2.29,0,3.66.81,4.92,2l-.97,1.04c-1.06-1.01-2.25-1.73-3.96-1.73-2.79,0-4.88,2.27-4.88,5.17v.04c0,2.92,2.11,5.2,4.88,5.2,1.73,0,2.86-.67,4.07-1.82l.94.92c-1.31,1.33-2.75,2.21-5.04,2.21-3.64,0-6.32-2.86-6.32-6.48Z"/>
        <path class="cls-6" d="m347.6.61h4.38c3.96,0,6.7,2.72,6.7,6.27v.04c0,3.55-2.74,6.3-6.7,6.3h-4.38V.61Zm1.42,1.31v9.97h2.95c3.19,0,5.22-2.16,5.22-4.95v-.04c0-2.79-2.04-4.99-5.22-4.99h-2.95Z"/>
        <path class="cls-6" d="m366.84,3.91h1.39v1.87c.76-1.12,1.85-2.07,3.57-2.07,2.23,0,4.45,1.76,4.45,4.83v.04c0,3.04-2.2,4.84-4.45,4.84-1.73,0-2.84-.94-3.57-1.98v4.66h-1.39V3.91Zm7.98,4.68v-.04c0-2.2-1.51-3.6-3.28-3.6s-3.37,1.46-3.37,3.58v.04c0,2.16,1.64,3.6,3.37,3.6s3.28-1.33,3.28-3.58Z"/>
        <path class="cls-6" d="m378.22,8.61v-.04c0-2.63,2.05-4.86,4.86-4.86s4.84,2.2,4.84,4.83v.04c0,2.63-2.07,4.86-4.88,4.86s-4.83-2.2-4.83-4.83Zm8.28,0v-.04c0-2-1.49-3.64-3.46-3.64s-3.4,1.64-3.4,3.6v.04c0,2,1.48,3.62,3.44,3.62s3.42-1.62,3.42-3.58Z"/>
        <path class="cls-6" d="m390.42,3.91h1.39v1.87c.76-1.12,1.85-2.07,3.56-2.07,2.23,0,4.45,1.76,4.45,4.83v.04c0,3.04-2.2,4.84-4.45,4.84-1.73,0-2.84-.94-3.56-1.98v4.66h-1.39V3.91Zm7.98,4.68v-.04c0-2.2-1.51-3.6-3.28-3.6s-3.37,1.46-3.37,3.58v.04c0,2.16,1.64,3.6,3.37,3.6s3.28-1.33,3.28-3.58Z"/>
        <path class="cls-6" d="m402.23,9.69V3.91h1.39v5.44c0,1.73.94,2.81,2.57,2.81s2.79-1.17,2.79-2.92V3.91h1.37v9.31h-1.37v-1.62c-.63,1.01-1.58,1.82-3.19,1.82-2.25,0-3.57-1.51-3.57-3.73Z"/>
        <path class="cls-6" d="m413.59.07h1.39v13.14h-1.39V.07Z"/>
        <path class="cls-6" d="m417.5,10.51v-.04c0-1.96,1.62-3.01,3.98-3.01,1.19,0,2.03.16,2.86.4v-.32c0-1.67-1.03-2.54-2.77-2.54-1.1,0-1.96.29-2.83.68l-.41-1.13c1.03-.47,2.03-.77,3.38-.77s2.32.34,3.01,1.03c.63.63.95,1.53.95,2.72v5.69h-1.33v-1.4c-.65.85-1.73,1.6-3.37,1.6-1.73,0-3.47-.99-3.47-2.9Zm6.86-.72v-.9c-.68-.2-1.6-.4-2.74-.4-1.75,0-2.72.76-2.72,1.93v.04c0,1.17,1.08,1.85,2.34,1.85,1.71,0,3.12-1.04,3.12-2.52Z"/>
        <path class="cls-6" d="m429.02,10.75v-5.62h-1.3v-1.22h1.3V1.1h1.39v2.81h2.95v1.22h-2.95v5.44c0,1.13.63,1.55,1.57,1.55.47,0,.86-.09,1.35-.32v1.19c-.49.25-1.01.4-1.67.4-1.5,0-2.63-.74-2.63-2.63Z"/>
        <path class="cls-6" d="m435.84.34h1.58v1.53h-1.58V.34Zm.09,3.57h1.39v9.31h-1.39V3.91Z"/>
        <path class="cls-6" d="m439.96,8.61v-.04c0-2.63,2.05-4.86,4.86-4.86s4.84,2.2,4.84,4.83v.04c0,2.63-2.07,4.86-4.88,4.86s-4.83-2.2-4.83-4.83Zm8.28,0v-.04c0-2-1.49-3.64-3.46-3.64s-3.4,1.64-3.4,3.6v.04c0,2,1.48,3.62,3.44,3.62s3.42-1.62,3.42-3.58Z"/>
        <path class="cls-6" d="m452.16,3.91h1.39v1.62c.61-1.01,1.58-1.82,3.19-1.82,2.25,0,3.57,1.51,3.57,3.73v5.78h-1.39v-5.44c0-1.73-.94-2.81-2.58-2.81s-2.79,1.17-2.79,2.92v5.33h-1.39V3.91Z"/>
        <path class="cls-6" d="m465.02,3.82l-1.85,1.31-.49-.85,2.09-.95-2.09-.97.49-.83,1.85,1.3-.18-2.25h.94l-.18,2.25,1.85-1.3.49.83-2.09.97,2.09.95-.49.85-1.85-1.31.18,2.25h-.94l.18-2.25Z"/>
      </g>
      <line class="cls-1" x1="34.44" y1="216.07" x2="27.09" y2="216.07"/>
      <line class="cls-1" x1="34.44" y1="175.2" x2="27.09" y2="175.2"/>
      <line class="cls-1" x1="34.44" y1="134.34" x2="27.09" y2="134.34"/>
      <line class="cls-1" x1="34.44" y1="93.47" x2="27.09" y2="93.47"/>
      <path class="cls-3" d="m18.11,216.22v-.02c0-1.96,1.17-3.62,2.97-3.62s2.94,1.64,2.94,3.6v.02c0,1.96-1.16,3.62-2.96,3.62s-2.95-1.64-2.95-3.6Zm5.09,0v-.02c0-1.53-.84-2.9-2.14-2.9s-2.13,1.34-2.13,2.88v.02c0,1.53.84,2.9,2.15,2.9s2.12-1.35,2.12-2.88Z"/>
      <g>
        <path class="cls-3" d="m15.7,172.61l-1.32.41-.19-.64,1.71-.59h.58v7.05h-.78v-6.23Z"/>
        <path class="cls-3" d="m18.11,175.36v-.02c0-1.96,1.17-3.62,2.97-3.62s2.94,1.64,2.94,3.6v.02c0,1.96-1.16,3.62-2.96,3.62s-2.95-1.64-2.95-3.6Zm5.09,0v-.02c0-1.53-.84-2.9-2.14-2.9s-2.13,1.34-2.13,2.88v.02c0,1.53.84,2.9,2.15,2.9s2.12-1.35,2.12-2.88Z"/>
      </g>
      <g>
        <path class="cls-3" d="m11.98,137.36l2.54-2.24c1.07-.96,1.46-1.5,1.46-2.2,0-.82-.65-1.34-1.41-1.34-.8,0-1.32.42-1.88,1.2l-.58-.42c.63-.94,1.29-1.49,2.52-1.49s2.17.84,2.17,1.98v.02c0,1.02-.54,1.65-1.77,2.72l-1.87,1.66h3.71v.72h-4.89v-.61Z"/>
        <path class="cls-3" d="m18.11,134.49v-.02c0-1.96,1.17-3.62,2.97-3.62s2.94,1.64,2.94,3.6v.02c0,1.96-1.16,3.62-2.96,3.62s-2.95-1.64-2.95-3.6Zm5.09,0v-.02c0-1.53-.84-2.9-2.14-2.9s-2.13,1.34-2.13,2.88v.02c0,1.53.84,2.9,2.15,2.9s2.12-1.35,2.12-2.88Z"/>
      </g>
      <g>
        <path class="cls-3" d="m11.86,95.97l.57-.51c.54.66,1.19,1.04,2.05,1.04s1.53-.54,1.53-1.36v-.02c0-.87-.81-1.35-1.96-1.35h-.45l-.16-.47,2.21-2.49h-3.42v-.71h4.47v.58l-2.2,2.44c1.22.1,2.31.69,2.31,1.97v.02c0,1.25-1.04,2.11-2.34,2.11-1.17,0-2.04-.51-2.61-1.25Z"/>
        <path class="cls-3" d="m18.11,93.62v-.02c0-1.96,1.17-3.62,2.97-3.62s2.94,1.64,2.94,3.6v.02c0,1.96-1.16,3.62-2.96,3.62s-2.95-1.64-2.95-3.6Zm5.09,0v-.02c0-1.53-.84-2.9-2.14-2.9s-2.13,1.34-2.13,2.88v.02c0,1.53.84,2.9,2.15,2.9s2.12-1.35,2.12-2.88Z"/>
      </g>
      <g>
        <path class="cls-3" d="m15.09,54.58h-3.69l-.2-.57,3.96-4.82h.69v4.73h1.09v.66h-1.09v1.66h-.76v-1.66Zm0-.66v-3.61l-2.94,3.61h2.94Z"/>
        <path class="cls-3" d="m18.11,52.76v-.02c0-1.96,1.17-3.62,2.97-3.62s2.94,1.64,2.94,3.6v.02c0,1.96-1.16,3.62-2.96,3.62s-2.95-1.64-2.95-3.6Zm5.09,0v-.02c0-1.53-.84-2.9-2.14-2.9s-2.13,1.34-2.13,2.88v.02c0,1.53.84,2.9,2.15,2.9s2.12-1.35,2.12-2.88Z"/>
      </g>
      <g>
        <path class="cls-3" d="m.15,165.31v-3.01c0-.86.26-1.55.7-1.99.34-.34.83-.54,1.38-.54h.02c1.16,0,1.84.8,2.04,1.9l2.86-2.15v.97l-2.72,2.03v2h2.72v.79H.15Zm3.57-2.94c0-1.05-.54-1.8-1.44-1.8h-.02c-.86,0-1.38.66-1.38,1.79v2.16h2.84v-2.15Z"/>
        <path class="cls-3" d="m.1,155.49v-.74l7.05-3.19v.85l-1.85.82v3.81l1.85.83v.81l-7.05-3.19Zm4.49-1.95l-3.57,1.59,3.57,1.6v-3.19Z"/>
        <path class="cls-3" d="m.15,150.11v-.79h7v.79H.15Z"/>
        <path class="cls-3" d="m4.28,144.58c-1.84,0-3.28-.99-4.28-2.77l.51-.33c.97,1.52,2.17,2.32,3.77,2.32s2.8-.8,3.77-2.32l.51.33c-1,1.78-2.44,2.77-4.28,2.77Z"/>
        <path class="cls-3" d="m3.63,135.87h-.14c.68.44,1.11,1.08,1.11,1.98,0,1.44-.91,2.44-2.17,2.44h-.02c-1.33,0-2.38-1.03-2.38-2.52,0-.8.27-1.39.72-1.84.53-.53,1.31-.87,2.71-.87h.02c2.22,0,3.79,1.18,3.79,2.91,0,.91-.37,1.57-.86,2.16l-.61-.46c.5-.57.75-1.1.75-1.72,0-1.35-1.41-2.08-2.92-2.08Zm-1.29.15h-.02c-.89,0-1.59.73-1.59,1.78s.77,1.68,1.64,1.68h.02c.89,0,1.53-.7,1.53-1.72,0-1.07-.78-1.74-1.58-1.74Z"/>
        <path class="cls-3" d="m6.16,133.97l-.57-.52c.59-.61.96-1.28.96-1.99,0-1-.66-1.69-1.55-1.69h-.02c-.87,0-1.47.72-1.47,1.74,0,.59.18,1.06.4,1.47l-.35.53-3.41-.2v-4.03h.73v3.34l2.24.15c-.18-.41-.31-.8-.31-1.38,0-1.36.81-2.42,2.14-2.42h.02c1.37,0,2.3,1.04,2.3,2.5,0,1-.48,1.87-1.11,2.5Z"/>
        <path class="cls-3" d="m1.88,127.86h-.02c-.95,0-1.79-.64-1.79-1.6s.83-1.57,1.77-1.57h.02c.95,0,1.79.64,1.79,1.59s-.83,1.58-1.77,1.58Zm-1.73-5.86v-.71l3.67,2.7,3.33,2.43v.72l-3.65-2.7-3.35-2.44Zm1.69,5.19h.02c.7,0,1.23-.41,1.23-.93s-.54-.91-1.21-.91h-.02c-.7,0-1.23.42-1.23.93,0,.55.55.91,1.21.91Zm3.62-3.46h-.02c-.95,0-1.79-.64-1.79-1.59s.83-1.57,1.77-1.57h.02c.95,0,1.79.63,1.79,1.59s-.83,1.57-1.77,1.57Zm0-2.5h-.02c-.7,0-1.23.41-1.23.93s.55.91,1.21.91h.02c.7,0,1.23-.41,1.23-.93,0-.55-.54-.91-1.21-.91Z"/>
        <path class="cls-3" d="m3.67,116.36h-.02c-1.98,0-3.62-1.48-3.62-3.54,0-1.27.45-2.03,1.11-2.73l.58.54c-.56.59-.96,1.25-.96,2.2,0,1.55,1.26,2.71,2.87,2.71h.02c1.62,0,2.89-1.17,2.89-2.71,0-.96-.37-1.59-1.01-2.26l.51-.52c.74.73,1.23,1.53,1.23,2.8,0,2.02-1.59,3.51-3.6,3.51Z"/>
        <path class="cls-3" d="m.15,108.56v-.79h7v.79H.15Z"/>
        <path class="cls-3" d="m8.05,106.15c-.97-1.52-2.17-2.32-3.77-2.32s-2.8.8-3.77,2.32l-.51-.33c1-1.78,2.44-2.77,4.28-2.77s3.28.99,4.28,2.77l-.51.33Z"/>
      </g>
      <g>
        <rect class="cls-5" x="58.61" y="182.1" width="41.94" height="33.96"/>
        <g>
          <line class="cls-1" x1="74.17" y1="168.12" x2="84.98" y2="168.12"/>
          <line class="cls-1" x1="74.17" y1="196.32" x2="84.98" y2="196.32"/>
          <line class="cls-1" x1="79.58" y1="167.89" x2="79.58" y2="196.32"/>
        </g>
      </g>
      <g>
        <rect class="cls-5" x="154.36" y="69.5" width="41.94" height="146.57"/>
        <g>
          <line class="cls-1" x1="169.93" y1="44.98" x2="180.73" y2="44.98"/>
          <line class="cls-1" x1="169.93" y1="91.02" x2="180.73" y2="91.02"/>
          <line class="cls-1" x1="175.33" y1="44.75" x2="175.33" y2="91.02"/>
        </g>
      </g>
      <g>
        <rect class="cls-5" x="250.11" y="201.63" width="41.94" height="14.44"/>
        <g>
          <line class="cls-1" x1="265.68" y1="188.69" x2="276.49" y2="188.69"/>
          <line class="cls-1" x1="265.68" y1="213.62" x2="276.49" y2="213.62"/>
          <line class="cls-1" x1="271.08" y1="188.46" x2="271.08" y2="213.62"/>
        </g>
      </g>
      <g>
        <rect class="cls-5" x="345.87" y="182.1" width="41.94" height="33.96"/>
        <g>
          <line class="cls-1" x1="361.43" y1="172.2" x2="372.24" y2="172.2"/>
          <line class="cls-1" x1="361.43" y1="194.27" x2="372.24" y2="194.27"/>
          <line class="cls-1" x1="366.84" y1="171.98" x2="366.84" y2="194.27"/>
        </g>
      </g>
      <g>
        <rect class="cls-5" x="441.62" y="108.18" width="41.94" height="107.89"/>
        <g>
          <line class="cls-1" x1="457.19" y1="87.11" x2="467.99" y2="87.11"/>
          <line class="cls-1" x1="457.19" y1="132.16" x2="467.99" y2="132.16"/>
          <line class="cls-1" x1="462.59" y1="86.89" x2="462.59" y2="132.16"/>
        </g>
      </g>
      <g>
        <rect class="cls-5" x="537.37" y="152.32" width="41.94" height="63.75"/>
        <g>
          <line class="cls-1" x1="552.94" y1="124.26" x2="563.75" y2="124.26"/>
          <line class="cls-1" x1="552.94" y1="177.93" x2="563.75" y2="177.93"/>
          <line class="cls-1" x1="558.34" y1="124.03" x2="558.34" y2="177.93"/>
        </g>
      </g>
      <polyline class="cls-1" points="27.09 52.6 34.44 52.6 34.44 216.07 612.74 216.07"/>
      <g>
        <path class="cls-3" d="m46.69,25.87h.74l3.19,7.05h-.85l-.82-1.85h-3.81l-.83,1.85h-.81l3.19-7.05Zm1.95,4.49l-1.59-3.57-1.6,3.57h3.19Z"/>
        <path class="cls-3" d="m51.32,30.35v-.02c0-1.69,1.23-2.69,2.47-2.69.96,0,1.58.52,1.98,1.1v-3.12h.77v7.3h-.77v-1.04c-.42.62-1.03,1.15-1.98,1.15-1.24,0-2.47-.98-2.47-2.68Zm4.48,0v-.02c0-1.19-.91-1.99-1.87-1.99s-1.82.74-1.82,1.99v.02c0,1.22.84,2,1.82,2s1.87-.81,1.87-2Z"/>
        <path class="cls-3" d="m58.26,27.75h.77v.87c.34-.51.8-.98,1.67-.98s1.38.45,1.66,1.03c.37-.57.92-1.03,1.82-1.03,1.19,0,1.92.8,1.92,2.08v3.2h-.77v-3.02c0-1-.5-1.56-1.34-1.56-.78,0-1.43.58-1.43,1.6v2.98h-.76v-3.04c0-.97-.51-1.54-1.33-1.54s-1.44.68-1.44,1.63v2.95h-.77v-5.17Z"/>
        <path class="cls-3" d="m67.76,25.77h.88v.85h-.88v-.85Zm.05,1.98h.77v5.17h-.77v-5.17Z"/>
        <path class="cls-3" d="m70.37,27.75h.77v.9c.34-.56.88-1.01,1.77-1.01,1.25,0,1.98.84,1.98,2.07v3.21h-.77v-3.02c0-.96-.52-1.56-1.43-1.56s-1.55.65-1.55,1.62v2.96h-.77v-5.17Z"/>
        <path class="cls-3" d="m76.55,25.77h.88v.85h-.88v-.85Zm.05,1.98h.77v5.17h-.77v-5.17Z"/>
        <path class="cls-3" d="m78.73,32.26l.39-.55c.56.42,1.18.66,1.79.66s1.07-.32,1.07-.82v-.02c0-.52-.61-.72-1.29-.91-.81-.23-1.71-.51-1.71-1.46v-.02c0-.89.74-1.48,1.76-1.48.63,0,1.33.22,1.86.57l-.35.58c-.48-.31-1.03-.5-1.53-.5-.61,0-1,.32-1,.75v.02c0,.49.64.68,1.33.89.8.24,1.66.55,1.66,1.48v.02c0,.98-.81,1.55-1.84,1.55-.74,0-1.56-.29-2.14-.76Z"/>
        <path class="cls-3" d="m84.31,31.55v-3.12h-.72v-.68h.72v-1.56h.77v1.56h1.64v.68h-1.64v3.02c0,.63.35.86.87.86.26,0,.48-.05.75-.18v.66c-.27.14-.56.22-.93.22-.83,0-1.46-.41-1.46-1.46Z"/>
        <path class="cls-3" d="m88.08,27.75h.77v1.35c.38-.86,1.13-1.48,2.11-1.44v.83h-.06c-1.13,0-2.05.81-2.05,2.37v2.06h-.77v-5.17Z"/>
        <path class="cls-3" d="m91.49,31.42v-.02c0-1.09.9-1.67,2.21-1.67.66,0,1.13.09,1.59.22v-.18c0-.93-.57-1.41-1.54-1.41-.61,0-1.09.16-1.57.38l-.23-.63c.57-.26,1.13-.43,1.88-.43s1.29.19,1.67.57c.35.35.53.85.53,1.51v3.16h-.74v-.78c-.36.47-.96.89-1.87.89-.96,0-1.93-.55-1.93-1.61Zm3.81-.4v-.5c-.38-.11-.89-.22-1.52-.22-.97,0-1.51.42-1.51,1.07v.02c0,.65.6,1.03,1.3,1.03.95,0,1.73-.58,1.73-1.4Z"/>
        <path class="cls-3" d="m97.89,31.55v-3.12h-.72v-.68h.72v-1.56h.77v1.56h1.64v.68h-1.64v3.02c0,.63.35.86.87.86.26,0,.48-.05.75-.18v.66c-.27.14-.56.22-.93.22-.83,0-1.46-.41-1.46-1.46Z"/>
        <path class="cls-3" d="m101.68,25.77h.88v.85h-.88v-.85Zm.05,1.98h.77v5.17h-.77v-5.17Z"/>
        <path class="cls-3" d="m103.97,30.36v-.02c0-1.46,1.14-2.7,2.7-2.7s2.69,1.22,2.69,2.68v.02c0,1.46-1.15,2.7-2.71,2.7s-2.68-1.22-2.68-2.68Zm4.6,0v-.02c0-1.11-.83-2.02-1.92-2.02s-1.89.91-1.89,2v.02c0,1.11.82,2.01,1.91,2.01s1.9-.9,1.9-1.99Z"/>
        <path class="cls-3" d="m110.75,27.75h.77v.9c.34-.56.88-1.01,1.77-1.01,1.25,0,1.98.84,1.98,2.07v3.21h-.77v-3.02c0-.96-.52-1.56-1.43-1.56s-1.55.65-1.55,1.62v2.96h-.77v-5.17Z"/>
      </g>
      <g>
        <path class="cls-3" d="m139.63,25.87h.74l3.19,7.05h-.85l-.82-1.85h-3.81l-.83,1.85h-.81l3.19-7.05Zm1.95,4.49l-1.59-3.57-1.6,3.57h3.19Z"/>
        <path class="cls-3" d="m145.58,31.93v.99h-.77v-7.3h.77v3.17c.42-.62,1.03-1.15,1.98-1.15,1.24,0,2.47.98,2.47,2.68v.02c0,1.69-1.22,2.69-2.47,2.69-.96,0-1.58-.52-1.98-1.1Zm3.66-1.58v-.02c0-1.22-.84-2-1.82-2s-1.87.81-1.87,1.99v.02c0,1.2.91,2,1.87,2s1.82-.74,1.82-1.99Z"/>
        <path class="cls-3" d="m151.16,30.35v-.02c0-1.69,1.23-2.69,2.47-2.69.96,0,1.58.52,1.98,1.1v-3.12h.77v7.3h-.77v-1.04c-.42.62-1.03,1.15-1.98,1.15-1.24,0-2.47-.98-2.47-2.68Zm4.48,0v-.02c0-1.19-.91-1.99-1.87-1.99s-1.82.74-1.82,1.99v.02c0,1.22.84,2,1.82,2s1.87-.81,1.87-2Z"/>
        <path class="cls-3" d="m157.77,30.36v-.02c0-1.46,1.14-2.7,2.7-2.7s2.69,1.22,2.69,2.68v.02c0,1.46-1.15,2.7-2.71,2.7s-2.68-1.22-2.68-2.68Zm4.6,0v-.02c0-1.11-.83-2.02-1.92-2.02s-1.89.91-1.89,2v.02c0,1.11.82,2.01,1.91,2.01s1.9-.9,1.9-1.99Z"/>
        <path class="cls-3" d="m164.55,27.75h.77v.87c.34-.51.8-.98,1.67-.98s1.38.45,1.66,1.03c.37-.57.92-1.03,1.82-1.03,1.19,0,1.92.8,1.92,2.08v3.2h-.77v-3.02c0-1-.5-1.56-1.34-1.56-.78,0-1.43.58-1.43,1.6v2.98h-.76v-3.04c0-.97-.51-1.54-1.33-1.54s-1.44.68-1.44,1.63v2.95h-.77v-5.17Z"/>
        <path class="cls-3" d="m174.05,25.77h.88v.85h-.88v-.85Zm.05,1.98h.77v5.17h-.77v-5.17Z"/>
        <path class="cls-3" d="m176.66,27.75h.77v.9c.34-.56.88-1.01,1.77-1.01,1.25,0,1.98.84,1.98,2.07v3.21h-.77v-3.02c0-.96-.52-1.56-1.43-1.56s-1.55.65-1.55,1.62v2.96h-.77v-5.17Z"/>
        <path class="cls-3" d="m182.43,31.42v-.02c0-1.09.9-1.67,2.21-1.67.66,0,1.13.09,1.59.22v-.18c0-.93-.57-1.41-1.54-1.41-.61,0-1.09.16-1.57.38l-.23-.63c.57-.26,1.13-.43,1.88-.43s1.29.19,1.67.57c.35.35.53.85.53,1.51v3.16h-.74v-.78c-.36.47-.96.89-1.87.89-.96,0-1.93-.55-1.93-1.61Zm3.81-.4v-.5c-.38-.11-.89-.22-1.52-.22-.97,0-1.51.42-1.51,1.07v.02c0,.65.6,1.03,1.3,1.03.95,0,1.73-.58,1.73-1.4Z"/>
        <path class="cls-3" d="m188.68,25.62h.77v7.3h-.77v-7.3Z"/>
        <path class="cls-3" d="m194.24,27.75h.77v1.04c.42-.62,1.03-1.15,1.98-1.15,1.24,0,2.47.98,2.47,2.68v.02c0,1.69-1.22,2.69-2.47,2.69-.96,0-1.58-.52-1.98-1.1v2.59h-.77v-6.77Zm4.43,2.6v-.02c0-1.22-.84-2-1.82-2s-1.87.81-1.87,1.99v.02c0,1.2.91,2,1.87,2s1.82-.74,1.82-1.99Z"/>
        <path class="cls-3" d="m200.49,31.42v-.02c0-1.09.9-1.67,2.21-1.67.66,0,1.13.09,1.59.22v-.18c0-.93-.57-1.41-1.54-1.41-.61,0-1.09.16-1.57.38l-.23-.63c.57-.26,1.13-.43,1.88-.43s1.29.19,1.67.57c.35.35.53.85.53,1.51v3.16h-.74v-.78c-.36.47-.96.89-1.87.89-.96,0-1.93-.55-1.93-1.61Zm3.81-.4v-.5c-.38-.11-.89-.22-1.52-.22-.97,0-1.51.42-1.51,1.07v.02c0,.65.6,1.03,1.3,1.03.95,0,1.73-.58,1.73-1.4Z"/>
        <path class="cls-3" d="m206.69,25.77h.88v.85h-.88v-.85Zm.05,1.98h.77v5.17h-.77v-5.17Z"/>
        <path class="cls-3" d="m209.3,27.75h.77v.9c.34-.56.88-1.01,1.77-1.01,1.25,0,1.98.84,1.98,2.07v3.21h-.77v-3.02c0-.96-.52-1.56-1.43-1.56s-1.55.65-1.55,1.62v2.96h-.77v-5.17Z"/>
      </g>
      <g>
        <path class="cls-3" d="m235.26,25.92h2.98c.8,0,1.43.23,1.83.62.29.3.45.67.45,1.12v.02c0,.91-.56,1.38-1.11,1.62.83.25,1.5.73,1.5,1.69v.02c0,1.2-1.01,1.91-2.54,1.91h-3.11v-7Zm4.46,1.85c0-.69-.55-1.14-1.55-1.14h-2.13v2.41h2.07c.95,0,1.61-.43,1.61-1.25v-.02Zm-1.47,1.97h-2.21v2.47h2.35c1.06,0,1.72-.47,1.72-1.25v-.02c0-.76-.64-1.2-1.86-1.2Z"/>
        <path class="cls-3" d="m242.03,30.36v-.02c0-1.46,1.14-2.7,2.7-2.7s2.69,1.22,2.69,2.68v.02c0,1.46-1.15,2.7-2.71,2.7s-2.68-1.22-2.68-2.68Zm4.6,0v-.02c0-1.11-.83-2.02-1.92-2.02s-1.89.91-1.89,2v.02c0,1.11.82,2.01,1.91,2.01s1.9-.9,1.9-1.99Z"/>
        <path class="cls-3" d="m248.12,27.75h.82l1.36,4.15,1.39-4.17h.64l1.4,4.17,1.36-4.15h.8l-1.82,5.21h-.67l-1.39-4.08-1.4,4.08h-.68l-1.81-5.21Z"/>
        <path class="cls-3" d="m256.6,30.35v-.02c0-1.49,1.05-2.69,2.48-2.69,1.53,0,2.41,1.22,2.41,2.73,0,.1,0,.16-.01.25h-4.1c.11,1.12.9,1.75,1.82,1.75.71,0,1.21-.29,1.63-.73l.48.43c-.52.58-1.15.97-2.13.97-1.42,0-2.58-1.09-2.58-2.69Zm4.11-.3c-.08-.94-.62-1.76-1.65-1.76-.9,0-1.58.75-1.68,1.76h3.33Z"/>
        <path class="cls-3" d="m262.91,25.62h.77v7.3h-.77v-7.3Z"/>
        <path class="cls-3" d="m268.39,30.96v-3.21h.77v3.02c0,.96.52,1.56,1.43,1.56s1.55-.65,1.55-1.62v-2.96h.76v5.17h-.76v-.9c-.35.56-.88,1.01-1.77,1.01-1.25,0-1.98-.84-1.98-2.07Z"/>
        <path class="cls-3" d="m274.63,27.75h.77v1.35c.38-.86,1.13-1.48,2.11-1.44v.83h-.06c-1.13,0-2.05.81-2.05,2.37v2.06h-.77v-5.17Z"/>
        <path class="cls-3" d="m278.41,33.82l.35-.6c.59.43,1.25.66,1.99.66,1.14,0,1.88-.63,1.88-1.84v-.61c-.45.6-1.08,1.09-2.03,1.09-1.24,0-2.43-.93-2.43-2.42v-.02c0-1.51,1.2-2.44,2.43-2.44.97,0,1.6.48,2.02,1.04v-.93h.77v4.27c0,.8-.24,1.41-.66,1.83-.46.46-1.15.69-1.97.69-.86,0-1.66-.24-2.35-.72Zm4.24-3.73v-.02c0-1.06-.92-1.75-1.9-1.75s-1.79.68-1.79,1.74v.02c0,1.04.83,1.76,1.79,1.76s1.9-.71,1.9-1.75Z"/>
        <path class="cls-3" d="m284.79,30.35v-.02c0-1.49,1.05-2.69,2.48-2.69,1.53,0,2.41,1.22,2.41,2.73,0,.1,0,.16,0,.25h-4.1c.11,1.12.9,1.75,1.82,1.75.71,0,1.21-.29,1.63-.73l.48.43c-.52.58-1.15.97-2.13.97-1.42,0-2.58-1.09-2.58-2.69Zm4.11-.3c-.08-.94-.62-1.76-1.65-1.76-.9,0-1.58.75-1.68,1.76h3.33Z"/>
        <path class="cls-3" d="m291.03,27.75h.77v.9c.34-.56.88-1.01,1.77-1.01,1.25,0,1.98.84,1.98,2.07v3.21h-.77v-3.02c0-.96-.52-1.56-1.43-1.56s-1.55.65-1.55,1.62v2.96h-.77v-5.17Z"/>
        <path class="cls-3" d="m296.87,30.36v-.02c0-1.46,1.14-2.7,2.65-2.7.98,0,1.59.41,2.07.92l-.51.54c-.41-.43-.87-.78-1.57-.78-1.05,0-1.85.89-1.85,2v.02c0,1.12.82,2.01,1.9,2.01.66,0,1.17-.33,1.58-.77l.49.46c-.52.58-1.14,1-2.11,1-1.51,0-2.65-1.23-2.65-2.68Z"/>
        <path class="cls-3" d="m306.72,27.75h.82l-2.17,5.34c-.44,1.07-.94,1.46-1.72,1.46-.43,0-.75-.09-1.1-.26l.26-.61c.25.13.48.19.81.19.46,0,.75-.24,1.06-.97l-2.35-5.15h.85l1.88,4.31,1.66-4.31Z"/>
      </g>
      <g>
        <path class="cls-3" d="m349.11,25.92h5.03v.73h-4.24v2.5h3.79v.72h-3.79v3.05h-.79v-7Z"/>
        <path class="cls-3" d="m354.9,31.42v-.02c0-1.09.9-1.67,2.21-1.67.66,0,1.13.09,1.59.22v-.18c0-.93-.57-1.41-1.54-1.41-.61,0-1.09.16-1.57.38l-.23-.63c.57-.26,1.13-.43,1.88-.43s1.29.19,1.67.57c.35.35.53.85.53,1.51v3.16h-.74v-.78c-.36.47-.96.89-1.87.89-.96,0-1.93-.55-1.93-1.61Zm3.81-.4v-.5c-.38-.11-.89-.22-1.52-.22-.97,0-1.51.42-1.51,1.07v.02c0,.65.6,1.03,1.3,1.03.95,0,1.73-.58,1.73-1.4Z"/>
        <path class="cls-3" d="m361.3,31.55v-3.12h-.72v-.68h.72v-1.56h.77v1.56h1.64v.68h-1.64v3.02c0,.63.35.86.87.86.26,0,.48-.05.75-.18v.66c-.27.14-.56.22-.93.22-.83,0-1.46-.41-1.46-1.46Z"/>
        <path class="cls-3" d="m365.09,25.77h.88v.85h-.88v-.85Zm.05,1.98h.77v5.17h-.77v-5.17Z"/>
        <path class="cls-3" d="m367.64,33.82l.35-.6c.59.43,1.25.66,1.99.66,1.14,0,1.88-.63,1.88-1.84v-.61c-.45.6-1.08,1.09-2.03,1.09-1.24,0-2.43-.93-2.43-2.42v-.02c0-1.51,1.2-2.44,2.43-2.44.97,0,1.6.48,2.02,1.04v-.93h.77v4.27c0,.8-.24,1.41-.66,1.83-.46.46-1.15.69-1.97.69-.86,0-1.66-.24-2.35-.72Zm4.24-3.73v-.02c0-1.06-.92-1.75-1.9-1.75s-1.79.68-1.79,1.74v.02c0,1.04.83,1.76,1.79,1.76s1.9-.71,1.9-1.75Z"/>
        <path class="cls-3" d="m374.25,30.96v-3.21h.77v3.02c0,.96.52,1.56,1.43,1.56s1.55-.65,1.55-1.62v-2.96h.76v5.17h-.76v-.9c-.35.56-.88,1.01-1.77,1.01-1.25,0-1.98-.84-1.98-2.07Z"/>
        <path class="cls-3" d="m380.18,30.35v-.02c0-1.49,1.05-2.69,2.48-2.69,1.53,0,2.41,1.22,2.41,2.73,0,.1,0,.16,0,.25h-4.1c.11,1.12.9,1.75,1.82,1.75.71,0,1.21-.29,1.63-.73l.48.43c-.52.58-1.15.97-2.13.97-1.42,0-2.58-1.09-2.58-2.69Zm4.11-.3c-.08-.94-.62-1.76-1.65-1.76-.9,0-1.58.75-1.68,1.76h3.33Z"/>
      </g>
      <g>
        <path class="cls-3" d="m427.8,25.92h3.01c.86,0,1.55.26,1.99.7.34.34.54.83.54,1.38v.02c0,1.16-.8,1.84-1.9,2.04l2.15,2.86h-.97l-2.03-2.72h-2v2.72h-.79v-7Zm2.94,3.57c1.05,0,1.8-.54,1.8-1.44v-.02c0-.86-.66-1.38-1.79-1.38h-2.16v2.84h2.15Z"/>
        <path class="cls-3" d="m434.92,25.77h.88v.85h-.88v-.85Zm.05,1.98h.77v5.17h-.77v-5.17Z"/>
        <path class="cls-3" d="m437.1,32.26l.39-.55c.56.42,1.18.66,1.79.66s1.07-.32,1.07-.82v-.02c0-.52-.61-.72-1.29-.91-.81-.23-1.71-.51-1.71-1.46v-.02c0-.89.74-1.48,1.76-1.48.63,0,1.33.22,1.86.57l-.35.58c-.48-.31-1.03-.5-1.53-.5-.61,0-1,.32-1,.75v.02c0,.49.64.68,1.33.89.8.24,1.66.55,1.66,1.48v.02c0,.98-.81,1.55-1.84,1.55-.74,0-1.56-.29-2.14-.76Z"/>
        <path class="cls-3" d="m442.51,25.62h.77v5.04l2.79-2.91h.96l-2.17,2.22,2.24,2.95h-.92l-1.85-2.41-1.05,1.06v1.35h-.77v-7.3Z"/>
        <path class="cls-3" d="m450.88,30.36v-.02c0-1.46,1.14-2.7,2.7-2.7s2.69,1.22,2.69,2.68v.02c0,1.46-1.15,2.7-2.71,2.7s-2.68-1.22-2.68-2.68Zm4.6,0v-.02c0-1.11-.83-2.02-1.92-2.02s-1.89.91-1.89,2v.02c0,1.11.82,2.01,1.91,2.01s1.9-.9,1.9-1.99Z"/>
        <path class="cls-3" d="m457.95,28.43h-.71v-.67h.71v-.45c0-.59.16-1.04.45-1.33.26-.26.64-.4,1.11-.4.36,0,.6.04.85.13v.67c-.28-.08-.49-.13-.75-.13-.6,0-.9.36-.9,1.1v.42h1.64v.66h-1.63v4.49h-.77v-4.49Z"/>
        <path class="cls-3" d="m464.33,27.75h.77v.87c.34-.51.8-.98,1.67-.98s1.38.45,1.66,1.03c.37-.57.92-1.03,1.82-1.03,1.19,0,1.92.8,1.92,2.08v3.2h-.77v-3.02c0-1-.5-1.56-1.34-1.56-.78,0-1.43.58-1.43,1.6v2.98h-.76v-3.04c0-.97-.51-1.54-1.33-1.54s-1.44.68-1.44,1.63v2.95h-.77v-5.17Z"/>
        <path class="cls-3" d="m473.83,25.77h.88v.85h-.88v-.85Zm.05,1.98h.77v5.17h-.77v-5.17Z"/>
        <path class="cls-3" d="m476.51,25.62h.77v7.3h-.77v-7.3Z"/>
        <path class="cls-3" d="m478.77,30.35v-.02c0-1.69,1.23-2.69,2.47-2.69.96,0,1.58.52,1.98,1.1v-3.12h.77v7.3h-.77v-1.04c-.42.62-1.03,1.15-1.98,1.15-1.24,0-2.47-.98-2.47-2.68Zm4.48,0v-.02c0-1.19-.91-1.99-1.87-1.99s-1.82.74-1.82,1.99v.02c0,1.22.84,2,1.82,2s1.87-.81,1.87-2Z"/>
        <path class="cls-3" d="m488.39,30.36v-.02c0-1.46,1.14-2.7,2.7-2.7s2.69,1.22,2.69,2.68v.02c0,1.46-1.15,2.7-2.71,2.7s-2.68-1.22-2.68-2.68Zm4.6,0v-.02c0-1.11-.83-2.02-1.92-2.02s-1.89.91-1.89,2v.02c0,1.11.82,2.01,1.91,2.01s1.9-.9,1.9-1.99Z"/>
        <path class="cls-3" d="m495.17,27.75h.77v1.35c.38-.86,1.13-1.48,2.11-1.44v.83h-.06c-1.13,0-2.05.81-2.05,2.37v2.06h-.77v-5.17Z"/>
        <path class="cls-3" d="m409.53,38.75h.77v.87c.34-.51.8-.98,1.67-.98s1.38.45,1.66,1.03c.37-.57.92-1.03,1.82-1.03,1.19,0,1.92.8,1.92,2.08v3.2h-.77v-3.02c0-1-.5-1.56-1.34-1.56-.78,0-1.43.58-1.43,1.6v2.98h-.76v-3.04c0-.97-.51-1.54-1.33-1.54s-1.44.68-1.44,1.63v2.95h-.77v-5.17Z"/>
        <path class="cls-3" d="m418.69,41.36v-.02c0-1.46,1.14-2.7,2.7-2.7s2.69,1.22,2.69,2.68v.02c0,1.46-1.15,2.7-2.71,2.7s-2.68-1.22-2.68-2.68Zm4.6,0v-.02c0-1.11-.83-2.02-1.92-2.02s-1.89.91-1.89,2v.02c0,1.11.82,2.01,1.91,2.01s1.9-.9,1.9-1.99Z"/>
        <path class="cls-3" d="m425.17,41.35v-.02c0-1.69,1.23-2.69,2.47-2.69.96,0,1.58.52,1.98,1.1v-3.12h.77v7.3h-.77v-1.04c-.42.62-1.03,1.15-1.98,1.15-1.24,0-2.47-.98-2.47-2.68Zm4.48,0v-.02c0-1.19-.91-1.99-1.87-1.99s-1.82.74-1.82,1.99v.02c0,1.22.84,2,1.82,2s1.87-.81,1.87-2Z"/>
        <path class="cls-3" d="m431.79,41.35v-.02c0-1.49,1.05-2.69,2.48-2.69,1.53,0,2.41,1.22,2.41,2.73,0,.1,0,.16-.01.25h-4.1c.11,1.12.9,1.75,1.82,1.75.71,0,1.21-.29,1.63-.73l.48.43c-.52.58-1.15.97-2.13.97-1.42,0-2.58-1.09-2.58-2.69Zm4.11-.3c-.08-.94-.62-1.76-1.65-1.76-.9,0-1.58.75-1.68,1.76h3.33Z"/>
        <path class="cls-3" d="m438.03,38.75h.77v1.35c.38-.86,1.13-1.48,2.11-1.44v.83h-.06c-1.13,0-2.05.81-2.05,2.37v2.06h-.77v-5.17Z"/>
        <path class="cls-3" d="m441.44,42.42v-.02c0-1.09.9-1.67,2.21-1.67.66,0,1.13.09,1.59.22v-.18c0-.93-.57-1.41-1.54-1.41-.61,0-1.09.16-1.57.38l-.23-.63c.57-.26,1.13-.43,1.88-.43s1.29.19,1.67.57c.35.35.53.85.53,1.51v3.16h-.74v-.78c-.36.47-.96.89-1.87.89-.96,0-1.93-.55-1.93-1.61Zm3.81-.4v-.5c-.38-.11-.89-.22-1.52-.22-.97,0-1.51.42-1.51,1.07v.02c0,.65.6,1.03,1.3,1.03.95,0,1.73-.58,1.73-1.4Z"/>
        <path class="cls-3" d="m447.84,42.55v-3.12h-.72v-.68h.72v-1.56h.77v1.56h1.64v.68h-1.64v3.02c0,.63.35.86.87.86.26,0,.48-.05.75-.18v.66c-.27.14-.56.22-.93.22-.83,0-1.46-.41-1.46-1.46Z"/>
        <path class="cls-3" d="m451.14,41.35v-.02c0-1.49,1.05-2.69,2.48-2.69,1.53,0,2.41,1.22,2.41,2.73,0,.1,0,.16-.01.25h-4.1c.11,1.12.9,1.75,1.82,1.75.71,0,1.21-.29,1.63-.73l.48.43c-.52.58-1.15.97-2.13.97-1.42,0-2.58-1.09-2.58-2.69Zm4.11-.3c-.08-.94-.62-1.76-1.65-1.76-.9,0-1.58.75-1.68,1.76h3.33Z"/>
        <path class="cls-3" d="m459.95,43.26l.39-.55c.56.42,1.18.66,1.79.66s1.07-.32,1.07-.82v-.02c0-.52-.61-.72-1.29-.91-.81-.23-1.71-.51-1.71-1.46v-.02c0-.89.74-1.48,1.76-1.48.63,0,1.33.22,1.86.57l-.35.58c-.48-.31-1.03-.5-1.53-.5-.61,0-1,.32-1,.75v.02c0,.49.64.68,1.33.89.8.24,1.66.55,1.66,1.48v.02c0,.98-.81,1.55-1.84,1.55-.74,0-1.56-.29-2.14-.76Z"/>
        <path class="cls-3" d="m465.38,36.77h.88v.85h-.88v-.85Zm.05,1.98h.77v5.17h-.77v-5.17Z"/>
        <path class="cls-3" d="m467.69,41.35v-.02c0-1.69,1.23-2.69,2.47-2.69.96,0,1.58.52,1.98,1.1v-3.12h.77v7.3h-.77v-1.04c-.42.62-1.03,1.15-1.98,1.15-1.24,0-2.47-.98-2.47-2.68Zm4.48,0v-.02c0-1.19-.91-1.99-1.87-1.99s-1.82.74-1.82,1.99v.02c0,1.22.84,2,1.82,2s1.87-.81,1.87-2Z"/>
        <path class="cls-3" d="m474.31,41.35v-.02c0-1.49,1.05-2.69,2.48-2.69,1.53,0,2.41,1.22,2.41,2.73,0,.1,0,.16,0,.25h-4.1c.11,1.12.9,1.75,1.82,1.75.71,0,1.21-.29,1.63-.73l.48.43c-.52.58-1.15.97-2.13.97-1.42,0-2.58-1.09-2.58-2.69Zm4.11-.3c-.08-.94-.62-1.76-1.65-1.76-.9,0-1.58.75-1.68,1.76h3.33Z"/>
        <path class="cls-3" d="m483.23,41.35v-.02c0-1.49,1.05-2.69,2.48-2.69,1.53,0,2.41,1.22,2.41,2.73,0,.1,0,.16,0,.25h-4.1c.11,1.12.9,1.75,1.82,1.75.71,0,1.21-.29,1.63-.73l.48.43c-.52.58-1.15.97-2.13.97-1.42,0-2.58-1.09-2.58-2.69Zm4.11-.3c-.08-.94-.62-1.76-1.65-1.76-.9,0-1.58.75-1.68,1.76h3.33Z"/>
        <path class="cls-3" d="m489.76,39.43h-.71v-.67h.71v-.45c0-.59.16-1.04.45-1.33.26-.26.64-.4,1.11-.4.36,0,.6.04.85.13v.67c-.28-.08-.49-.13-.75-.13-.6,0-.9.36-.9,1.1v.42h1.64v.66h-1.63v4.49h-.77v-4.49Zm3.68,0h-.71v-.67h.71v-.45c0-.59.15-1.04.44-1.33.27-.26.64-.4,1.11-.4.36,0,.61.04.85.13v.67c-.27-.08-.48-.13-.74-.13-.61,0-.9.36-.9,1.1v.42h1.63v.66h-1.63v4.49h-.76v-4.49Z"/>
        <path class="cls-3" d="m496.4,41.35v-.02c0-1.49,1.05-2.69,2.48-2.69,1.53,0,2.41,1.22,2.41,2.73,0,.1,0,.16,0,.25h-4.1c.11,1.12.9,1.75,1.82,1.75.71,0,1.21-.29,1.63-.73l.48.43c-.52.58-1.15.97-2.13.97-1.42,0-2.58-1.09-2.58-2.69Zm4.11-.3c-.08-.94-.62-1.76-1.65-1.76-.9,0-1.58.75-1.68,1.76h3.33Z"/>
        <path class="cls-3" d="m502.32,41.36v-.02c0-1.46,1.14-2.7,2.65-2.7.98,0,1.59.41,2.07.92l-.51.54c-.41-.43-.87-.78-1.57-.78-1.05,0-1.85.89-1.85,2v.02c0,1.12.82,2.01,1.9,2.01.66,0,1.17-.33,1.58-.77l.49.46c-.52.58-1.14,1-2.11,1-1.51,0-2.65-1.23-2.65-2.68Z"/>
        <path class="cls-3" d="m508.62,42.55v-3.12h-.72v-.68h.72v-1.56h.77v1.56h1.64v.68h-1.64v3.02c0,.63.35.86.87.86.26,0,.48-.05.75-.18v.66c-.27.14-.56.22-.93.22-.83,0-1.46-.41-1.46-1.46Z"/>
        <path class="cls-3" d="m511.96,43.26l.39-.55c.56.42,1.18.66,1.79.66s1.07-.32,1.07-.82v-.02c0-.52-.61-.72-1.29-.91-.81-.23-1.71-.51-1.71-1.46v-.02c0-.89.74-1.48,1.76-1.48.63,0,1.33.22,1.86.57l-.35.58c-.48-.31-1.03-.5-1.53-.5-.61,0-1,.32-1,.75v.02c0,.49.64.68,1.33.89.8.24,1.66.55,1.66,1.48v.02c0,.98-.81,1.55-1.84,1.55-.74,0-1.56-.29-2.14-.76Z"/>
      </g>
      <g>
        <path class="cls-3" d="m523.41,25.92h3.01c.86,0,1.55.26,1.99.7.34.34.54.83.54,1.38v.02c0,1.16-.8,1.84-1.9,2.04l2.15,2.86h-.97l-2.03-2.72h-2v2.72h-.79v-7Zm2.94,3.57c1.05,0,1.8-.54,1.8-1.44v-.02c0-.86-.66-1.38-1.79-1.38h-2.16v2.84h2.15Z"/>
        <path class="cls-3" d="m530.53,25.77h.88v.85h-.88v-.85Zm.05,1.98h.77v5.17h-.77v-5.17Z"/>
        <path class="cls-3" d="m532.71,32.26l.39-.55c.56.42,1.18.66,1.79.66s1.07-.32,1.07-.82v-.02c0-.52-.61-.72-1.29-.91-.81-.23-1.71-.51-1.71-1.46v-.02c0-.89.74-1.48,1.76-1.48.63,0,1.33.22,1.86.57l-.35.58c-.48-.31-1.03-.5-1.53-.5-.61,0-1,.32-1,.75v.02c0,.49.64.68,1.33.89.8.24,1.66.55,1.66,1.48v.02c0,.98-.81,1.55-1.84,1.55-.74,0-1.56-.29-2.14-.76Z"/>
        <path class="cls-3" d="m538.12,25.62h.77v5.04l2.79-2.91h.96l-2.17,2.22,2.24,2.95h-.92l-1.85-2.41-1.05,1.06v1.35h-.77v-7.3Z"/>
        <path class="cls-3" d="m546.49,30.36v-.02c0-1.46,1.14-2.7,2.7-2.7s2.69,1.22,2.69,2.68v.02c0,1.46-1.15,2.7-2.71,2.7s-2.68-1.22-2.68-2.68Zm4.6,0v-.02c0-1.11-.83-2.02-1.92-2.02s-1.89.91-1.89,2v.02c0,1.11.82,2.01,1.91,2.01s1.9-.9,1.9-1.99Z"/>
        <path class="cls-3" d="m553.56,28.43h-.71v-.67h.71v-.45c0-.59.16-1.04.45-1.33.26-.26.64-.4,1.11-.4.36,0,.6.04.85.13v.67c-.28-.08-.49-.13-.75-.13-.6,0-.9.36-.9,1.1v.42h1.64v.66h-1.63v4.49h-.77v-4.49Z"/>
        <path class="cls-3" d="m559.51,32.26l.39-.55c.56.42,1.18.66,1.79.66s1.07-.32,1.07-.82v-.02c0-.52-.61-.72-1.29-.91-.81-.23-1.71-.51-1.71-1.46v-.02c0-.89.74-1.48,1.76-1.48.63,0,1.33.22,1.86.57l-.35.58c-.48-.31-1.03-.5-1.53-.5-.61,0-1,.32-1,.75v.02c0,.49.64.68,1.33.89.8.24,1.66.55,1.66,1.48v.02c0,.98-.81,1.55-1.84,1.55-.74,0-1.56-.29-2.14-.76Z"/>
        <path class="cls-3" d="m564.6,30.35v-.02c0-1.49,1.05-2.69,2.48-2.69,1.53,0,2.41,1.22,2.41,2.73,0,.1,0,.16,0,.25h-4.1c.11,1.12.9,1.75,1.82,1.75.71,0,1.21-.29,1.63-.73l.48.43c-.52.58-1.15.97-2.13.97-1.42,0-2.58-1.09-2.58-2.69Zm4.11-.3c-.08-.94-.62-1.76-1.65-1.76-.9,0-1.58.75-1.68,1.76h3.33Z"/>
        <path class="cls-3" d="m570.84,27.75h.77v1.35c.38-.86,1.13-1.48,2.11-1.44v.83h-.06c-1.13,0-2.05.81-2.05,2.37v2.06h-.77v-5.17Z"/>
        <path class="cls-3" d="m574.91,25.77h.88v.85h-.88v-.85Zm.05,1.98h.77v5.17h-.77v-5.17Z"/>
        <path class="cls-3" d="m577.2,30.36v-.02c0-1.46,1.14-2.7,2.7-2.7s2.69,1.22,2.69,2.68v.02c0,1.46-1.15,2.7-2.71,2.7s-2.68-1.22-2.68-2.68Zm4.6,0v-.02c0-1.11-.83-2.02-1.92-2.02s-1.89.91-1.89,2v.02c0,1.11.82,2.01,1.91,2.01s1.9-.9,1.9-1.99Z"/>
        <path class="cls-3" d="m583.9,30.96v-3.21h.77v3.02c0,.96.52,1.56,1.43,1.56s1.55-.65,1.55-1.62v-2.96h.76v5.17h-.76v-.9c-.35.56-.88,1.01-1.77,1.01-1.25,0-1.98-.84-1.98-2.07Z"/>
        <path class="cls-3" d="m589.71,32.26l.39-.55c.56.42,1.18.66,1.79.66s1.07-.32,1.07-.82v-.02c0-.52-.61-.72-1.29-.91-.81-.23-1.71-.51-1.71-1.46v-.02c0-.89.74-1.48,1.76-1.48.63,0,1.33.22,1.86.57l-.35.58c-.48-.31-1.03-.5-1.53-.5-.61,0-1,.32-1,.75v.02c0,.49.64.68,1.33.89.8.24,1.66.55,1.66,1.48v.02c0,.98-.81,1.55-1.84,1.55-.74,0-1.56-.29-2.14-.76Z"/>
        <path class="cls-3" d="m535.09,36.77h.88v.85h-.88v-.85Zm.05,1.98h.77v5.17h-.77v-5.17Z"/>
        <path class="cls-3" d="m537.7,38.75h.77v.9c.34-.56.88-1.01,1.77-1.01,1.25,0,1.98.84,1.98,2.07v3.21h-.77v-3.02c0-.96-.52-1.56-1.43-1.56s-1.55.65-1.55,1.62v2.96h-.77v-5.17Z"/>
        <path class="cls-3" d="m544.15,39.43h-.71v-.67h.71v-.45c0-.59.16-1.04.45-1.33.26-.26.64-.4,1.11-.4.36,0,.6.04.85.13v.67c-.28-.08-.49-.13-.75-.13-.6,0-.9.36-.9,1.1v.42h1.64v.66h-1.63v4.49h-.77v-4.49Z"/>
        <path class="cls-3" d="m547.11,41.35v-.02c0-1.49,1.05-2.69,2.48-2.69,1.53,0,2.41,1.22,2.41,2.73,0,.1,0,.16,0,.25h-4.1c.11,1.12.9,1.75,1.82,1.75.71,0,1.21-.29,1.63-.73l.48.43c-.52.58-1.15.97-2.13.97-1.42,0-2.58-1.09-2.58-2.69Zm4.11-.3c-.08-.94-.62-1.76-1.65-1.76-.9,0-1.58.75-1.68,1.76h3.33Z"/>
        <path class="cls-3" d="m553.03,41.36v-.02c0-1.46,1.14-2.7,2.65-2.7.98,0,1.59.41,2.07.92l-.51.54c-.41-.43-.87-.78-1.57-.78-1.05,0-1.85.89-1.85,2v.02c0,1.12.82,2.01,1.9,2.01.66,0,1.17-.33,1.58-.77l.49.46c-.52.58-1.14,1-2.11,1-1.51,0-2.65-1.23-2.65-2.68Z"/>
        <path class="cls-3" d="m559.33,42.55v-3.12h-.72v-.68h.72v-1.56h.77v1.56h1.64v.68h-1.64v3.02c0,.63.35.86.87.86.26,0,.48-.05.75-.18v.66c-.27.14-.56.22-.93.22-.83,0-1.46-.41-1.46-1.46Z"/>
        <path class="cls-3" d="m563.12,36.77h.88v.85h-.88v-.85Zm.05,1.98h.77v5.17h-.77v-5.17Z"/>
        <path class="cls-3" d="m565.41,41.36v-.02c0-1.46,1.14-2.7,2.7-2.7s2.69,1.22,2.69,2.68v.02c0,1.46-1.15,2.7-2.71,2.7s-2.68-1.22-2.68-2.68Zm4.6,0v-.02c0-1.11-.83-2.02-1.92-2.02s-1.89.91-1.89,2v.02c0,1.11.82,2.01,1.91,2.01s1.9-.9,1.9-1.99Z"/>
        <path class="cls-3" d="m572.19,38.75h.77v.9c.34-.56.88-1.01,1.77-1.01,1.25,0,1.98.84,1.98,2.07v3.21h-.77v-3.02c0-.96-.52-1.56-1.43-1.56s-1.55.65-1.55,1.62v2.96h-.77v-5.17Z"/>
        <path class="cls-3" d="m577.92,43.26l.39-.55c.56.42,1.18.66,1.79.66s1.07-.32,1.07-.82v-.02c0-.52-.61-.72-1.29-.91-.81-.23-1.71-.51-1.71-1.46v-.02c0-.89.74-1.48,1.76-1.48.63,0,1.33.22,1.86.57l-.35.58c-.48-.31-1.03-.5-1.53-.5-.61,0-1,.32-1,.75v.02c0,.49.64.68,1.33.89.8.24,1.66.55,1.66,1.48v.02c0,.98-.81,1.55-1.84,1.55-.74,0-1.56-.29-2.14-.76Z"/>
      </g>
      <rect class="cls-4" x="90.37" y="244.36" width="169.93" height="33.82"/>
      <rect class="cls-4" x="377.62" y="244.36" width="169.93" height="33.82"/>
      <g>
        <line class="cls-2" x1="175.33" y1="216.07" x2="175.33" y2="238.98"/>
        <polygon class="cls-3" points="171.59 237.88 175.33 244.36 179.07 237.88 171.59 237.88"/>
      </g>
      <g>
        <line class="cls-2" x1="462.59" y1="216.07" x2="462.59" y2="238.98"/>
        <polygon class="cls-3" points="458.85 237.88 462.59 244.36 466.33 237.88 458.85 237.88"/>
      </g>
      <g>
        <path class="cls-3" d="m98.17,258.04h1.42l3,7.05h-1.61l-.64-1.57h-2.96l-.64,1.57h-1.57l3-7.05Zm1.62,4.12l-.93-2.27-.93,2.27h1.86Z"/>
        <path class="cls-3" d="m105.03,264.39v.7h-1.52v-7.3h1.52v2.71c.37-.5.88-.87,1.67-.87,1.25,0,2.44.98,2.44,2.77v.02c0,1.79-1.17,2.77-2.44,2.77-.81,0-1.31-.37-1.67-.8Zm2.59-1.97v-.02c0-.89-.6-1.48-1.31-1.48s-1.3.59-1.3,1.48v.02c0,.89.59,1.48,1.3,1.48s1.31-.58,1.31-1.48Z"/>
        <path class="cls-3" d="m110.02,262.42v-.02c0-1.79,1.17-2.77,2.44-2.77.81,0,1.31.37,1.67.8v-2.64h1.52v7.3h-1.52v-.77c-.37.5-.88.87-1.67.87-1.25,0-2.44-.98-2.44-2.77Zm4.13,0v-.02c0-.89-.59-1.48-1.3-1.48s-1.31.58-1.31,1.48v.02c0,.89.6,1.48,1.31,1.48s1.3-.59,1.3-1.48Z"/>
        <path class="cls-3" d="m116.75,262.44v-.02c0-1.54,1.24-2.79,2.91-2.79s2.89,1.23,2.89,2.77v.02c0,1.54-1.24,2.79-2.91,2.79s-2.89-1.23-2.89-2.77Zm4.3,0v-.02c0-.79-.57-1.48-1.41-1.48s-1.39.67-1.39,1.46v.02c0,.79.57,1.48,1.41,1.48s1.39-.67,1.39-1.46Z"/>
        <path class="cls-3" d="m123.65,259.73h1.52v.76c.35-.45.81-.86,1.58-.86.7,0,1.23.31,1.51.85.47-.55,1.03-.85,1.76-.85,1.13,0,1.81.68,1.81,1.97v3.49h-1.52v-2.99c0-.72-.32-1.09-.89-1.09s-.92.37-.92,1.09v2.99h-1.52v-2.99c0-.72-.32-1.09-.89-1.09s-.92.37-.92,1.09v2.99h-1.52v-5.36Z"/>
        <path class="cls-3" d="m133.18,257.79h1.6v1.35h-1.6v-1.35Zm.04,1.94h1.52v5.36h-1.52v-5.36Z"/>
        <path class="cls-3" d="m136.17,259.73h1.52v.76c.35-.45.8-.86,1.57-.86,1.15,0,1.82.76,1.82,1.99v3.47h-1.52v-2.99c0-.72-.34-1.09-.92-1.09s-.95.37-.95,1.09v2.99h-1.52v-5.36Z"/>
        <path class="cls-3" d="m142.08,263.55v-.02c0-1.17.89-1.71,2.16-1.71.54,0,.93.09,1.31.22v-.09c0-.63-.39-.98-1.15-.98-.58,0-.99.11-1.48.29l-.38-1.16c.59-.26,1.17-.43,2.08-.43.83,0,1.43.22,1.81.6.4.4.58.99.58,1.71v3.11h-1.47v-.58c-.37.41-.88.68-1.62.68-1.01,0-1.84-.58-1.84-1.64Zm3.49-.35v-.27c-.26-.12-.6-.2-.97-.2-.65,0-1.05.26-1.05.74v.02c0,.41.34.65.83.65.71,0,1.19-.39,1.19-.94Z"/>
        <path class="cls-3" d="m148.39,257.79h1.52v7.3h-1.52v-7.3Z"/>
        <path class="cls-3" d="m154.34,259.73h1.52v.77c.37-.5.88-.87,1.67-.87,1.25,0,2.44.98,2.44,2.77v.02c0,1.79-1.17,2.77-2.44,2.77-.81,0-1.31-.37-1.67-.8v2.3h-1.52v-6.96Zm4.11,2.69v-.02c0-.89-.6-1.48-1.31-1.48s-1.3.59-1.3,1.48v.02c0,.89.59,1.48,1.3,1.48s1.31-.58,1.31-1.48Z"/>
        <path class="cls-3" d="m160.77,263.55v-.02c0-1.17.89-1.71,2.16-1.71.54,0,.93.09,1.31.22v-.09c0-.63-.39-.98-1.15-.98-.58,0-.99.11-1.48.29l-.38-1.16c.59-.26,1.17-.43,2.08-.43.83,0,1.43.22,1.81.6.4.4.58.99.58,1.71v3.11h-1.47v-.58c-.37.41-.88.68-1.62.68-1.01,0-1.84-.58-1.84-1.64Zm3.49-.35v-.27c-.26-.12-.6-.2-.97-.2-.65,0-1.05.26-1.05.74v.02c0,.41.34.65.83.65.71,0,1.19-.39,1.19-.94Z"/>
        <path class="cls-3" d="m167.04,257.79h1.6v1.35h-1.6v-1.35Zm.04,1.94h1.52v5.36h-1.52v-5.36Z"/>
        <path class="cls-3" d="m170.03,259.73h1.52v.76c.35-.45.8-.86,1.57-.86,1.15,0,1.82.76,1.82,1.99v3.47h-1.52v-2.99c0-.72-.34-1.09-.92-1.09s-.95.37-.95,1.09v2.99h-1.52v-5.36Z"/>
        <path class="cls-3" d="m179.44,259.92h.77v.87c.34-.51.8-.98,1.67-.98s1.38.45,1.66,1.03c.37-.57.92-1.03,1.82-1.03,1.19,0,1.92.8,1.92,2.08v3.2h-.77v-3.02c0-1-.5-1.56-1.34-1.56-.78,0-1.43.58-1.43,1.6v2.98h-.76v-3.04c0-.97-.51-1.54-1.33-1.54s-1.44.68-1.44,1.63v2.95h-.77v-5.17Z"/>
        <path class="cls-3" d="m188.6,262.53v-.02c0-1.46,1.14-2.7,2.7-2.7s2.69,1.22,2.69,2.68v.02c0,1.46-1.15,2.7-2.71,2.7s-2.68-1.22-2.68-2.68Zm4.6,0v-.02c0-1.11-.83-2.02-1.92-2.02s-1.89.91-1.89,2v.02c0,1.11.82,2.01,1.91,2.01s1.9-.9,1.9-1.99Z"/>
        <path class="cls-3" d="m194.95,264.43l.39-.55c.56.42,1.18.66,1.79.66s1.07-.32,1.07-.82v-.02c0-.52-.61-.72-1.29-.91-.81-.23-1.71-.51-1.71-1.46v-.02c0-.89.74-1.48,1.76-1.48.63,0,1.33.22,1.86.57l-.35.58c-.48-.31-1.03-.5-1.53-.5-.61,0-1,.32-1,.75v.02c0,.49.64.68,1.33.89.8.24,1.66.55,1.66,1.48v.02c0,.98-.81,1.55-1.84,1.55-.74,0-1.56-.29-2.14-.76Z"/>
        <path class="cls-3" d="m200.53,263.72v-3.12h-.72v-.68h.72v-1.56h.77v1.56h1.64v.68h-1.64v3.02c0,.63.35.86.87.86.26,0,.48-.05.75-.18v.66c-.27.14-.56.22-.93.22-.83,0-1.46-.41-1.46-1.46Z"/>
        <path class="cls-3" d="m207.32,257.94h.88v.85h-.88v-.85Zm.05,1.98h.77v5.17h-.77v-5.17Z"/>
        <path class="cls-3" d="m209.93,259.92h.77v.87c.34-.51.8-.98,1.67-.98s1.38.45,1.66,1.03c.37-.57.92-1.03,1.82-1.03,1.19,0,1.92.8,1.92,2.08v3.2h-.77v-3.02c0-1-.5-1.56-1.34-1.56-.78,0-1.43.58-1.43,1.6v2.98h-.76v-3.04c0-.97-.51-1.54-1.33-1.54s-1.44.68-1.44,1.63v2.95h-.77v-5.17Z"/>
        <path class="cls-3" d="m219.41,259.92h.77v1.04c.42-.62,1.03-1.15,1.98-1.15,1.24,0,2.47.98,2.47,2.68v.02c0,1.69-1.22,2.69-2.47,2.69-.96,0-1.58-.52-1.98-1.1v2.59h-.77v-6.77Zm4.43,2.6v-.02c0-1.22-.84-2-1.82-2s-1.87.81-1.87,1.99v.02c0,1.2.91,2,1.87,2s1.82-.74,1.82-1.99Z"/>
        <path class="cls-3" d="m225.73,262.53v-.02c0-1.46,1.14-2.7,2.7-2.7s2.69,1.22,2.69,2.68v.02c0,1.46-1.15,2.7-2.71,2.7s-2.68-1.22-2.68-2.68Zm4.6,0v-.02c0-1.11-.83-2.02-1.92-2.02s-1.89.91-1.89,2v.02c0,1.11.82,2.01,1.91,2.01s1.9-.9,1.9-1.99Z"/>
        <path class="cls-3" d="m232.51,259.92h.77v1.35c.38-.86,1.13-1.48,2.11-1.44v.83h-.06c-1.13,0-2.05.81-2.05,2.37v2.06h-.77v-5.17Z"/>
        <path class="cls-3" d="m236.83,263.72v-3.12h-.72v-.68h.72v-1.56h.77v1.56h1.64v.68h-1.64v3.02c0,.63.35.86.87.86.26,0,.48-.05.75-.18v.66c-.27.14-.56.22-.93.22-.83,0-1.46-.41-1.46-1.46Z"/>
        <path class="cls-3" d="m240.21,263.59v-.02c0-1.09.9-1.67,2.21-1.67.66,0,1.13.09,1.59.22v-.18c0-.93-.57-1.41-1.54-1.41-.61,0-1.09.16-1.57.38l-.23-.63c.57-.26,1.13-.43,1.88-.43s1.29.19,1.67.57c.35.35.53.85.53,1.51v3.16h-.74v-.78c-.36.47-.96.89-1.87.89-.96,0-1.93-.55-1.93-1.61Zm3.81-.4v-.5c-.38-.11-.89-.22-1.52-.22-.97,0-1.51.42-1.51,1.07v.02c0,.65.6,1.03,1.3,1.03.95,0,1.73-.58,1.73-1.4Z"/>
        <path class="cls-3" d="m246.39,259.92h.77v.9c.34-.56.88-1.01,1.77-1.01,1.25,0,1.98.84,1.98,2.07v3.21h-.77v-3.02c0-.96-.52-1.56-1.43-1.56s-1.55.65-1.55,1.62v2.96h-.77v-5.17Z"/>
        <path class="cls-3" d="m252.82,263.72v-3.12h-.72v-.68h.72v-1.56h.77v1.56h1.64v.68h-1.64v3.02c0,.63.35.86.87.86.26,0,.48-.05.75-.18v.66c-.27.14-.56.22-.93.22-.83,0-1.46-.41-1.46-1.46Z"/>
      </g>
      <g>
        <path class="cls-3" d="m388.61,252.59h3.2c.89,0,1.58.25,2.04.71.39.39.6.94.6,1.6v.02c0,1.13-.61,1.84-1.5,2.17l1.71,2.5h-1.8l-1.5-2.24h-1.21v2.24h-1.54v-7Zm3.1,3.4c.75,0,1.18-.4,1.18-.99v-.02c0-.66-.46-1-1.21-1h-1.53v2.01h1.56Z"/>
        <path class="cls-3" d="m395.71,252.29h1.6v1.35h-1.6v-1.35Zm.04,1.94h1.52v5.36h-1.52v-5.36Z"/>
        <path class="cls-3" d="m398.29,258.88l.65-1c.58.42,1.19.64,1.69.64.44,0,.64-.16.64-.4v-.02c0-.33-.52-.44-1.11-.62-.75-.22-1.6-.57-1.6-1.61v-.02c0-1.09.88-1.7,1.96-1.7.68,0,1.42.23,2,.62l-.58,1.05c-.53-.31-1.06-.5-1.45-.5-.37,0-.56.16-.56.37v.02c0,.3.51.44,1.09.64.75.25,1.62.61,1.62,1.59v.02c0,1.19-.89,1.73-2.05,1.73-.75,0-1.59-.25-2.3-.81Z"/>
        <path class="cls-3" d="m403.72,252.29h1.52v3.89l1.78-1.95h1.82l-2.04,2.11,2.11,3.25h-1.76l-1.37-2.2-.54.57v1.63h-1.52v-7.3Z"/>
        <path class="cls-3" d="m412.38,256.94v-.02c0-1.54,1.24-2.79,2.91-2.79s2.89,1.23,2.89,2.77v.02c0,1.54-1.24,2.79-2.91,2.79s-2.89-1.23-2.89-2.77Zm4.3,0v-.02c0-.79-.57-1.48-1.41-1.48s-1.39.67-1.39,1.46v.02c0,.79.57,1.48,1.41,1.48s1.39-.67,1.39-1.46Z"/>
        <path class="cls-3" d="m419.54,255.53h-.63v-1.25h.63v-.34c0-.59.15-1.02.43-1.3.28-.28.69-.42,1.23-.42.48,0,.8.06,1.08.15v1.26c-.22-.08-.43-.13-.69-.13-.35,0-.55.18-.55.58v.21h1.23v1.24h-1.21v4.06h-1.52v-4.06Z"/>
        <path class="cls-3" d="m426.1,254.23h1.52v.76c.35-.45.81-.86,1.58-.86.7,0,1.23.31,1.51.85.47-.55,1.03-.85,1.76-.85,1.13,0,1.81.68,1.81,1.97v3.49h-1.52v-2.99c0-.72-.32-1.09-.89-1.09s-.92.37-.92,1.09v2.99h-1.52v-2.99c0-.72-.32-1.09-.89-1.09s-.92.37-.92,1.09v2.99h-1.52v-5.36Z"/>
        <path class="cls-3" d="m435.63,252.29h1.6v1.35h-1.6v-1.35Zm.04,1.94h1.52v5.36h-1.52v-5.36Z"/>
        <path class="cls-3" d="m438.69,252.29h1.52v7.3h-1.52v-7.3Z"/>
        <path class="cls-3" d="m441.4,256.92v-.02c0-1.79,1.17-2.77,2.44-2.77.81,0,1.31.37,1.67.8v-2.64h1.52v7.3h-1.52v-.77c-.37.5-.88.87-1.67.87-1.25,0-2.44-.98-2.44-2.77Zm4.13,0v-.02c0-.89-.59-1.48-1.3-1.48s-1.31.58-1.31,1.48v.02c0,.89.6,1.48,1.31,1.48s1.3-.59,1.3-1.48Z"/>
        <path class="cls-3" d="m451.13,256.94v-.02c0-1.54,1.24-2.79,2.91-2.79s2.89,1.23,2.89,2.77v.02c0,1.54-1.24,2.79-2.91,2.79s-2.89-1.23-2.89-2.77Zm4.3,0v-.02c0-.79-.57-1.48-1.41-1.48s-1.39.67-1.39,1.46v.02c0,.79.57,1.48,1.41,1.48s1.39-.67,1.39-1.46Z"/>
        <path class="cls-3" d="m458.03,254.23h1.52v1.08c.31-.74.81-1.22,1.71-1.18v1.59h-.08c-1.01,0-1.63.61-1.63,1.89v1.98h-1.52v-5.36Z"/>
        <path class="cls-3" d="m465.21,254.23h1.52v.76c.35-.45.81-.86,1.58-.86.7,0,1.23.31,1.51.85.47-.55,1.03-.85,1.76-.85,1.13,0,1.81.68,1.81,1.97v3.49h-1.52v-2.99c0-.72-.32-1.09-.89-1.09s-.92.37-.92,1.09v2.99h-1.52v-2.99c0-.72-.32-1.09-.89-1.09s-.92.37-.92,1.09v2.99h-1.52v-5.36Z"/>
        <path class="cls-3" d="m474.45,256.94v-.02c0-1.54,1.24-2.79,2.91-2.79s2.89,1.23,2.89,2.77v.02c0,1.54-1.24,2.79-2.91,2.79s-2.89-1.23-2.89-2.77Zm4.3,0v-.02c0-.79-.57-1.48-1.41-1.48s-1.39.67-1.39,1.46v.02c0,.79.57,1.48,1.41,1.48s1.39-.67,1.39-1.46Z"/>
        <path class="cls-3" d="m481.11,256.92v-.02c0-1.79,1.17-2.77,2.44-2.77.81,0,1.31.37,1.67.8v-2.64h1.52v7.3h-1.52v-.77c-.37.5-.88.87-1.67.87-1.25,0-2.44-.98-2.44-2.77Zm4.13,0v-.02c0-.89-.59-1.48-1.3-1.48s-1.31.58-1.31,1.48v.02c0,.89.6,1.48,1.31,1.48s1.3-.59,1.3-1.48Z"/>
        <path class="cls-3" d="m487.84,256.94v-.02c0-1.53,1.09-2.79,2.65-2.79,1.79,0,2.61,1.39,2.61,2.91,0,.12,0,.26-.02.4h-3.73c.15.69.63,1.05,1.31,1.05.51,0,.88-.16,1.3-.55l.87.77c-.5.62-1.22,1-2.19,1-1.61,0-2.8-1.13-2.8-2.77Zm3.78-.45c-.09-.68-.49-1.14-1.13-1.14s-1.04.45-1.16,1.14h2.29Z"/>
        <path class="cls-3" d="m494.23,254.23h1.52v1.08c.31-.74.81-1.22,1.71-1.18v1.59h-.08c-1.01,0-1.63.61-1.63,1.89v1.98h-1.52v-5.36Z"/>
        <path class="cls-3" d="m497.84,258.05v-.02c0-1.17.89-1.71,2.16-1.71.54,0,.93.09,1.31.22v-.09c0-.63-.39-.98-1.15-.98-.58,0-.99.11-1.48.29l-.38-1.16c.59-.26,1.17-.43,2.08-.43.83,0,1.43.22,1.81.6.4.4.58.99.58,1.71v3.11h-1.47v-.58c-.37.41-.88.68-1.62.68-1.01,0-1.84-.58-1.84-1.64Zm3.49-.35v-.27c-.26-.12-.6-.2-.97-.2-.65,0-1.05.26-1.05.74v.02c0,.41.34.65.83.65.71,0,1.19-.39,1.19-.94Z"/>
        <path class="cls-3" d="m504.28,258.07v-2.54h-.64v-1.3h.64v-1.37h1.52v1.37h1.26v1.3h-1.26v2.29c0,.35.15.52.49.52.28,0,.53-.07.75-.19v1.22c-.32.19-.69.31-1.2.31-.93,0-1.56-.37-1.56-1.61Z"/>
        <path class="cls-3" d="m507.77,256.94v-.02c0-1.53,1.09-2.79,2.65-2.79,1.79,0,2.61,1.39,2.61,2.91,0,.12,0,.26-.02.4h-3.73c.15.69.63,1.05,1.31,1.05.51,0,.88-.16,1.3-.55l.87.77c-.5.62-1.22,1-2.19,1-1.61,0-2.8-1.13-2.8-2.77Zm3.78-.45c-.09-.68-.49-1.14-1.13-1.14s-1.04.45-1.16,1.14h2.29Z"/>
        <path class="cls-3" d="m516.74,258.88l.65-1c.58.42,1.19.64,1.69.64.44,0,.64-.16.64-.4v-.02c0-.33-.52-.44-1.11-.62-.75-.22-1.6-.57-1.6-1.61v-.02c0-1.09.88-1.7,1.96-1.7.68,0,1.42.23,2,.62l-.58,1.05c-.53-.31-1.06-.5-1.45-.5s-.56.16-.56.37v.02c0,.3.51.44,1.09.64.75.25,1.62.61,1.62,1.59v.02c0,1.19-.89,1.73-2.05,1.73-.75,0-1.59-.25-2.3-.81Z"/>
        <path class="cls-3" d="m522.21,252.29h1.6v1.35h-1.6v-1.35Zm.04,1.94h1.52v5.36h-1.52v-5.36Z"/>
        <path class="cls-3" d="m524.96,256.92v-.02c0-1.79,1.17-2.77,2.44-2.77.81,0,1.31.37,1.67.8v-2.64h1.52v7.3h-1.52v-.77c-.37.5-.88.87-1.67.87-1.25,0-2.44-.98-2.44-2.77Zm4.13,0v-.02c0-.89-.59-1.48-1.3-1.48s-1.31.58-1.31,1.48v.02c0,.89.6,1.48,1.31,1.48s1.3-.59,1.3-1.48Z"/>
        <path class="cls-3" d="m531.69,256.94v-.02c0-1.53,1.09-2.79,2.65-2.79,1.79,0,2.61,1.39,2.61,2.91,0,.12,0,.26-.02.4h-3.73c.15.69.63,1.05,1.31,1.05.51,0,.88-.16,1.3-.55l.87.77c-.5.62-1.22,1-2.19,1-1.61,0-2.8-1.13-2.8-2.77Zm3.78-.45c-.09-.68-.49-1.14-1.13-1.14s-1.04.45-1.16,1.14h2.29Z"/>
        <path class="cls-3" d="m384.74,267.94v-.02c0-1.53,1.09-2.79,2.65-2.79,1.79,0,2.61,1.39,2.61,2.91,0,.12,0,.26-.02.4h-3.73c.15.69.63,1.05,1.31,1.05.51,0,.88-.16,1.3-.55l.87.77c-.5.62-1.22,1-2.19,1-1.61,0-2.8-1.13-2.8-2.77Zm3.78-.45c-.09-.68-.49-1.14-1.13-1.14s-1.04.45-1.16,1.14h2.29Z"/>
        <path class="cls-3" d="m391.38,266.53h-.63v-1.25h.63v-.34c0-.59.15-1.02.43-1.3s.69-.42,1.23-.42c.48,0,.8.06,1.08.15v1.26c-.22-.08-.43-.13-.69-.13-.35,0-.55.18-.55.58v.21h1.23v1.24h-1.21v4.06h-1.52v-4.06Zm3.82,0h-.63v-1.25h.63v-.34c0-.59.15-1.02.43-1.3.28-.28.69-.42,1.23-.42.48,0,.8.06,1.08.15v1.26c-.22-.08-.43-.13-.69-.13-.35,0-.55.18-.55.58v.21h1.23v1.24h-1.21v4.06h-1.52v-4.06Z"/>
        <path class="cls-3" d="m398.41,267.94v-.02c0-1.53,1.09-2.79,2.65-2.79,1.79,0,2.61,1.39,2.61,2.91,0,.12,0,.26-.02.4h-3.73c.15.69.63,1.05,1.31,1.05.51,0,.88-.16,1.3-.55l.87.77c-.5.62-1.22,1-2.19,1-1.61,0-2.8-1.13-2.8-2.77Zm3.78-.45c-.09-.68-.49-1.14-1.13-1.14s-1.04.45-1.16,1.14h2.29Z"/>
        <path class="cls-3" d="m404.54,267.94v-.02c0-1.53,1.17-2.79,2.81-2.79,1.01,0,1.64.34,2.14.9l-.93,1c-.34-.36-.68-.59-1.22-.59-.76,0-1.3.67-1.3,1.46v.02c0,.82.53,1.48,1.36,1.48.51,0,.86-.22,1.23-.57l.89.9c-.52.57-1.12.98-2.19.98-1.61,0-2.79-1.24-2.79-2.77Z"/>
        <path class="cls-3" d="m410.75,269.07v-2.54h-.64v-1.3h.64v-1.37h1.52v1.37h1.26v1.3h-1.26v2.29c0,.35.15.52.49.52.28,0,.53-.07.75-.19v1.22c-.32.19-.69.31-1.2.31-.93,0-1.56-.37-1.56-1.61Z"/>
        <path class="cls-3" d="m414.23,269.88l.65-1c.58.42,1.19.64,1.69.64.44,0,.64-.16.64-.4v-.02c0-.33-.52-.44-1.11-.62-.75-.22-1.6-.57-1.6-1.61v-.02c0-1.09.88-1.7,1.96-1.7.68,0,1.42.23,2,.62l-.58,1.05c-.53-.31-1.06-.5-1.45-.5s-.56.16-.56.37v.02c0,.3.51.44,1.09.64.75.25,1.62.61,1.62,1.59v.02c0,1.19-.89,1.73-2.05,1.73-.75,0-1.59-.25-2.3-.81Z"/>
        <path class="cls-3" d="m422.42,269.93l.39-.55c.56.42,1.18.66,1.79.66s1.07-.32,1.07-.82v-.02c0-.52-.61-.72-1.29-.91-.81-.23-1.71-.51-1.71-1.46v-.02c0-.89.74-1.48,1.76-1.48.63,0,1.33.22,1.86.57l-.35.58c-.48-.31-1.03-.5-1.53-.5-.61,0-1,.32-1,.75v.02c0,.49.64.68,1.33.89.8.24,1.66.55,1.66,1.48v.02c0,.98-.81,1.55-1.84,1.55-.74,0-1.56-.29-2.14-.76Z"/>
        <path class="cls-3" d="m427.51,268.02v-.02c0-1.49,1.05-2.69,2.48-2.69,1.53,0,2.41,1.22,2.41,2.73,0,.1,0,.16-.01.25h-4.1c.11,1.12.9,1.75,1.82,1.75.71,0,1.21-.29,1.63-.73l.48.43c-.52.58-1.15.97-2.13.97-1.42,0-2.58-1.09-2.58-2.69Zm4.11-.3c-.08-.94-.62-1.76-1.65-1.76-.9,0-1.58.75-1.68,1.76h3.33Z"/>
        <path class="cls-3" d="m433.43,268.03v-.02c0-1.46,1.14-2.7,2.65-2.7.98,0,1.59.41,2.07.92l-.51.54c-.41-.43-.87-.78-1.57-.78-1.05,0-1.85.89-1.85,2v.02c0,1.12.82,2.01,1.9,2.01.66,0,1.17-.33,1.58-.77l.49.46c-.52.58-1.14,1-2.11,1-1.51,0-2.65-1.23-2.65-2.68Z"/>
        <path class="cls-3" d="m438.99,268.03v-.02c0-1.46,1.14-2.7,2.7-2.7s2.69,1.22,2.69,2.68v.02c0,1.46-1.15,2.7-2.71,2.7s-2.68-1.22-2.68-2.68Zm4.6,0v-.02c0-1.11-.83-2.02-1.92-2.02s-1.89.91-1.89,2v.02c0,1.11.82,2.01,1.91,2.01s1.9-.9,1.9-1.99Z"/>
        <path class="cls-3" d="m445.77,265.42h.77v.9c.34-.56.88-1.01,1.77-1.01,1.25,0,1.98.84,1.98,2.07v3.21h-.77v-3.02c0-.96-.52-1.56-1.43-1.56s-1.55.65-1.55,1.62v2.96h-.77v-5.17Z"/>
        <path class="cls-3" d="m451.63,268.02v-.02c0-1.69,1.23-2.69,2.47-2.69.96,0,1.58.52,1.98,1.1v-3.12h.77v7.3h-.77v-1.04c-.42.62-1.03,1.15-1.98,1.15-1.24,0-2.47-.98-2.47-2.68Zm4.48,0v-.02c0-1.19-.91-1.99-1.87-1.99s-1.82.74-1.82,1.99v.02c0,1.22.84,2,1.82,2s1.87-.81,1.87-2Z"/>
        <path class="cls-3" d="m461.57,265.42h.77v.87c.34-.51.8-.98,1.67-.98s1.38.45,1.66,1.03c.37-.57.92-1.03,1.82-1.03,1.19,0,1.92.8,1.92,2.08v3.2h-.77v-3.02c0-1-.5-1.56-1.34-1.56-.78,0-1.43.58-1.43,1.6v2.98h-.76v-3.04c0-.97-.51-1.54-1.33-1.54s-1.44.68-1.44,1.63v2.95h-.77v-5.17Z"/>
        <path class="cls-3" d="m470.73,268.03v-.02c0-1.46,1.14-2.7,2.7-2.7s2.69,1.22,2.69,2.68v.02c0,1.46-1.15,2.7-2.71,2.7s-2.68-1.22-2.68-2.68Zm4.6,0v-.02c0-1.11-.83-2.02-1.92-2.02s-1.89.91-1.89,2v.02c0,1.11.82,2.01,1.91,2.01s1.9-.9,1.9-1.99Z"/>
        <path class="cls-3" d="m477.08,269.93l.39-.55c.56.42,1.18.66,1.79.66s1.07-.32,1.07-.82v-.02c0-.52-.61-.72-1.29-.91-.81-.23-1.71-.51-1.71-1.46v-.02c0-.89.74-1.48,1.76-1.48.63,0,1.33.22,1.86.57l-.35.58c-.48-.31-1.03-.5-1.53-.5-.61,0-1,.32-1,.75v.02c0,.49.64.68,1.33.89.8.24,1.66.55,1.66,1.48v.02c0,.98-.81,1.55-1.84,1.55-.74,0-1.56-.29-2.14-.76Z"/>
        <path class="cls-3" d="m482.66,269.22v-3.12h-.72v-.68h.72v-1.56h.77v1.56h1.64v.68h-1.64v3.02c0,.63.35.86.87.86.26,0,.48-.05.75-.18v.66c-.27.14-.56.22-.93.22-.83,0-1.46-.41-1.46-1.46Z"/>
        <path class="cls-3" d="m489.45,263.44h.88v.85h-.88v-.85Zm.05,1.98h.77v5.17h-.77v-5.17Z"/>
        <path class="cls-3" d="m492.06,265.42h.77v.87c.34-.51.8-.98,1.67-.98s1.38.45,1.66,1.03c.37-.57.92-1.03,1.82-1.03,1.19,0,1.92.8,1.92,2.08v3.2h-.77v-3.02c0-1-.5-1.56-1.34-1.56-.78,0-1.43.58-1.43,1.6v2.98h-.76v-3.04c0-.97-.51-1.54-1.33-1.54s-1.44.68-1.44,1.63v2.95h-.77v-5.17Z"/>
        <path class="cls-3" d="m501.54,265.42h.77v1.04c.42-.62,1.03-1.15,1.98-1.15,1.24,0,2.47.98,2.47,2.68v.02c0,1.69-1.22,2.69-2.47,2.69-.96,0-1.58-.52-1.98-1.1v2.59h-.77v-6.77Zm4.43,2.6v-.02c0-1.22-.84-2-1.82-2s-1.87.81-1.87,1.99v.02c0,1.2.91,2,1.87,2s1.82-.74,1.82-1.99Z"/>
        <path class="cls-3" d="m507.86,268.03v-.02c0-1.46,1.14-2.7,2.7-2.7s2.69,1.22,2.69,2.68v.02c0,1.46-1.15,2.7-2.71,2.7s-2.68-1.22-2.68-2.68Zm4.6,0v-.02c0-1.11-.83-2.02-1.92-2.02s-1.89.91-1.89,2v.02c0,1.11.82,2.01,1.91,2.01s1.9-.9,1.9-1.99Z"/>
        <path class="cls-3" d="m514.64,265.42h.77v1.35c.38-.86,1.13-1.48,2.11-1.44v.83h-.06c-1.13,0-2.05.81-2.05,2.37v2.06h-.77v-5.17Z"/>
        <path class="cls-3" d="m518.96,269.22v-3.12h-.72v-.68h.72v-1.56h.77v1.56h1.64v.68h-1.64v3.02c0,.63.35.86.87.86.26,0,.48-.05.75-.18v.66c-.27.14-.56.22-.93.22-.83,0-1.46-.41-1.46-1.46Z"/>
        <path class="cls-3" d="m522.34,269.09v-.02c0-1.09.9-1.67,2.21-1.67.66,0,1.13.09,1.59.22v-.18c0-.93-.57-1.41-1.54-1.41-.61,0-1.09.16-1.57.38l-.23-.63c.57-.26,1.13-.43,1.88-.43s1.29.19,1.67.57c.35.35.53.85.53,1.51v3.16h-.74v-.78c-.36.47-.96.89-1.87.89-.96,0-1.93-.55-1.93-1.61Zm3.81-.4v-.5c-.38-.11-.89-.22-1.52-.22-.97,0-1.51.42-1.51,1.07v.02c0,.65.6,1.03,1.3,1.03.95,0,1.73-.58,1.73-1.4Z"/>
        <path class="cls-3" d="m528.52,265.42h.77v.9c.34-.56.88-1.01,1.77-1.01,1.25,0,1.98.84,1.98,2.07v3.21h-.77v-3.02c0-.96-.52-1.56-1.43-1.56s-1.55.65-1.55,1.62v2.96h-.77v-5.17Z"/>
        <path class="cls-3" d="m534.95,269.22v-3.12h-.72v-.68h.72v-1.56h.77v1.56h1.64v.68h-1.64v3.02c0,.63.35.86.87.86.26,0,.48-.05.75-.18v.66c-.27.14-.56.22-.93.22-.83,0-1.46-.41-1.46-1.46Z"/>
      </g>
    </g>
  </g>
</svg>