<?xml version="1.0" encoding="UTF-8"?>
<svg id="Layer_2" data-name="Layer 2" xmlns="http://www.w3.org/2000/svg" xmlns:xlink="http://www.w3.org/1999/xlink" viewBox="0 0 682.76 362.44">
  <defs>
    <style>
      .cls-1 {
        fill: #d3d4d5;
      }

      .cls-1, .cls-2, .cls-3, .cls-4, .cls-5, .cls-6, .cls-7, .cls-8, .cls-9, .cls-10, .cls-11, .cls-12, .cls-13 {
        stroke-width: 0px;
      }

      .cls-2 {
        fill: #ce4131;
      }

      .cls-3 {
        fill: url(#linear-gradient);
      }

      .cls-4 {
        fill-rule: evenodd;
      }

      .cls-6 {
        fill: #d81c24;
      }

      .cls-14 {
        stroke-dasharray: 0 0 9.85 9.85;
      }

      .cls-14, .cls-15 {
        fill: none;
        stroke: #000;
        stroke-miterlimit: 10;
        stroke-width: 5px;
      }

      .cls-7 {
        fill: #fff;
      }

      .cls-8 {
        fill: url(#linear-gradient-2);
      }

      .cls-9 {
        fill: #a81e2d;
      }

      .cls-10 {
        fill: #808781;
      }

      .cls-11 {
        fill: url(#linear-gradient-3);
      }

      .cls-12 {
        fill: #414042;
      }

      .cls-13 {
        fill: #832580;
      }
    </style>
    <linearGradient id="linear-gradient" x1="610.5" y1="65.79" x2="655.3" y2="65.79" gradientUnits="userSpaceOnUse">
      <stop offset=".25" stop-color="#851e1f"/>
      <stop offset=".36" stop-color="#933a3a"/>
      <stop offset=".52" stop-color="#a45c5a"/>
      <stop offset=".65" stop-color="#af716e"/>
      <stop offset=".73" stop-color="#b37976"/>
    </linearGradient>
    <linearGradient id="linear-gradient-2" x1="137.41" y1="217.41" x2="182.21" y2="217.41" gradientUnits="userSpaceOnUse">
      <stop offset=".25" stop-color="#ed5d3d"/>
      <stop offset=".36" stop-color="#ed755a"/>
      <stop offset=".52" stop-color="#ee927c"/>
      <stop offset=".65" stop-color="#eea391"/>
      <stop offset=".73" stop-color="#efaa99"/>
    </linearGradient>
    <linearGradient id="linear-gradient-3" x1="117.41" y1="163.57" x2="162.21" y2="163.57" xlink:href="#linear-gradient-2"/>
  </defs>
  <g id="Layer_1-2" data-name="Layer 1">
    <g>
      <g>
        <path class="cls-15" d="m269.93,172.97s1.38-1.11,4.09-2.87"/>
        <path class="cls-14" d="m282.52,165.15c16.34-8.6,48.31-20.77,94.17-17.44,69.21,5.04,145.94-5.13,166.58-13.86,18.5-7.83,66.48-34.42,84.64-59.5"/>
        <path class="cls-15" d="m630.62,70.23c.88-1.49,1.65-2.97,2.28-4.44"/>
      </g>
      <path class="cls-15" d="m38.68,72.8c6.62-5.02,15.91-10.32,25.65-10.32,18.53,0,32.51,11.61,43.23,31.14,10.72,19.53,32.96,69.49,42.61,103.57,9.65,34.08,26.35,78.89,26.35,78.89,0,0,4.71,8.23,13.86,7.31,9.15-.92,15.63-31.36,19.99-43.58,4.36-12.23,30.74-47.38,43.72-56.47"/>
      <polygon class="cls-6" points="682.76 340.47 660.8 318.51 660.8 330.54 31.92 330.54 31.92 350.41 660.8 350.41 660.8 362.44 682.76 340.47"/>
      <polygon class="cls-5" points="21.96 34.56 0 56.52 12.03 56.52 12.03 330.69 31.9 330.69 31.9 56.52 43.93 56.52 21.96 34.56"/>
      <g>
        <path class="cls-5" d="m221.29,305.58h2.73c2.2,0,3.72,1.51,3.72,3.48v.02c0,1.97-1.52,3.5-3.72,3.5h-2.73v-7Zm1.54,1.39v4.22h1.19c1.26,0,2.11-.85,2.11-2.09v-.02c0-1.24-.85-2.11-2.11-2.11h-1.19Z"/>
        <path class="cls-5" d="m228.98,305.28h1.6v1.35h-1.6v-1.35Zm.04,1.94h1.52v5.36h-1.52v-5.36Z"/>
        <path class="cls-5" d="m231.65,311.04v-.02c0-1.17.89-1.71,2.16-1.71.54,0,.93.09,1.31.22v-.09c0-.63-.39-.98-1.15-.98-.58,0-.99.11-1.48.29l-.38-1.16c.59-.26,1.17-.43,2.08-.43.83,0,1.43.22,1.81.6.4.4.58.99.58,1.71v3.11h-1.47v-.58c-.37.41-.88.68-1.62.68-1.01,0-1.84-.58-1.84-1.64Zm3.49-.35v-.27c-.26-.12-.6-.2-.97-.2-.65,0-1.05.26-1.05.74v.02c0,.41.34.65.83.65.71,0,1.19-.39,1.19-.94Z"/>
        <path class="cls-5" d="m237.92,313.64l.52-1.14c.55.31,1.1.49,1.81.49,1.04,0,1.53-.5,1.53-1.46v-.26c-.45.54-.94.87-1.75.87-1.25,0-2.38-.91-2.38-2.5v-.02c0-1.6,1.15-2.5,2.38-2.5.83,0,1.32.35,1.73.8v-.7h1.52v4.15c0,.96-.23,1.66-.68,2.11-.5.5-1.27.72-2.31.72-.87,0-1.69-.2-2.37-.56Zm3.86-4v-.02c0-.73-.57-1.24-1.31-1.24s-1.3.51-1.3,1.24v.02c0,.74.56,1.24,1.3,1.24s1.31-.51,1.31-1.24Z"/>
        <path class="cls-5" d="m244.64,307.22h1.52v.76c.35-.45.8-.86,1.57-.86,1.15,0,1.82.76,1.82,1.99v3.47h-1.52v-2.99c0-.72-.34-1.09-.92-1.09s-.95.37-.95,1.09v2.99h-1.52v-5.36Z"/>
        <path class="cls-5" d="m250.61,309.93v-.02c0-1.54,1.24-2.79,2.91-2.79s2.89,1.23,2.89,2.77v.02c0,1.54-1.24,2.79-2.91,2.79s-2.89-1.23-2.89-2.77Zm4.3,0v-.02c0-.79-.57-1.48-1.41-1.48s-1.39.67-1.39,1.46v.02c0,.79.57,1.48,1.41,1.48s1.39-.67,1.39-1.46Z"/>
        <path class="cls-5" d="m257.09,311.87l.65-1c.58.42,1.19.64,1.69.64.44,0,.64-.16.64-.4v-.02c0-.33-.52-.44-1.11-.62-.75-.22-1.6-.57-1.6-1.61v-.02c0-1.09.88-1.7,1.96-1.7.68,0,1.42.23,2,.62l-.58,1.05c-.53-.31-1.06-.5-1.45-.5s-.56.16-.56.37v.02c0,.3.51.44,1.09.64.75.25,1.62.61,1.62,1.59v.02c0,1.19-.89,1.73-2.05,1.73-.75,0-1.59-.25-2.3-.81Z"/>
        <path class="cls-5" d="m262.56,305.28h1.6v1.35h-1.6v-1.35Zm.04,1.94h1.52v5.36h-1.52v-5.36Z"/>
        <path class="cls-5" d="m265.13,311.87l.65-1c.58.42,1.19.64,1.69.64.44,0,.64-.16.64-.4v-.02c0-.33-.52-.44-1.11-.62-.75-.22-1.6-.57-1.6-1.61v-.02c0-1.09.88-1.7,1.96-1.7.68,0,1.42.23,2,.62l-.58,1.05c-.53-.31-1.06-.5-1.45-.5-.37,0-.56.16-.56.37v.02c0,.3.51.44,1.09.64.75.25,1.62.61,1.62,1.59v.02c0,1.19-.89,1.73-2.05,1.73-.75,0-1.59-.25-2.3-.81Z"/>
        <path class="cls-5" d="m273.25,311.04v-.02c0-1.17.89-1.71,2.16-1.71.54,0,.93.09,1.31.22v-.09c0-.63-.39-.98-1.15-.98-.58,0-.99.11-1.48.29l-.38-1.16c.59-.26,1.17-.43,2.08-.43.83,0,1.43.22,1.81.6.4.4.58.99.58,1.71v3.11h-1.47v-.58c-.37.41-.88.68-1.62.68-1.01,0-1.84-.58-1.84-1.64Zm3.49-.35v-.27c-.26-.12-.6-.2-.97-.2-.65,0-1.05.26-1.05.74v.02c0,.41.34.65.83.65.71,0,1.19-.39,1.19-.94Z"/>
        <path class="cls-5" d="m279.49,307.22h1.52v.76c.35-.45.8-.86,1.57-.86,1.15,0,1.82.76,1.82,1.99v3.47h-1.52v-2.99c0-.72-.34-1.09-.92-1.09s-.95.37-.95,1.09v2.99h-1.52v-5.36Z"/>
        <path class="cls-5" d="m285.48,309.91v-.02c0-1.79,1.17-2.77,2.44-2.77.81,0,1.31.37,1.67.8v-2.64h1.52v7.3h-1.52v-.77c-.37.5-.88.87-1.67.87-1.25,0-2.44-.98-2.44-2.77Zm4.13,0v-.02c0-.89-.59-1.48-1.3-1.48s-1.31.58-1.31,1.48v.02c0,.89.6,1.48,1.31,1.48s1.3-.59,1.3-1.48Z"/>
        <path class="cls-5" d="m211.11,318.22h1.52v.76c.35-.45.81-.86,1.58-.86.7,0,1.23.31,1.51.85.47-.55,1.03-.85,1.76-.85,1.13,0,1.81.68,1.81,1.97v3.49h-1.52v-2.99c0-.72-.32-1.09-.89-1.09s-.92.37-.92,1.09v2.99h-1.52v-2.99c0-.72-.32-1.09-.89-1.09s-.92.37-.92,1.09v2.99h-1.52v-5.36Z"/>
        <path class="cls-5" d="m220.29,322.04v-.02c0-1.17.89-1.71,2.16-1.71.54,0,.93.09,1.31.22v-.09c0-.63-.39-.98-1.15-.98-.58,0-.99.11-1.48.29l-.38-1.16c.59-.26,1.17-.43,2.08-.43.83,0,1.43.22,1.81.6.4.4.58.99.58,1.71v3.11h-1.47v-.58c-.37.41-.88.68-1.62.68-1.01,0-1.84-.58-1.84-1.64Zm3.49-.35v-.27c-.26-.12-.6-.2-.97-.2-.65,0-1.05.26-1.05.74v.02c0,.41.34.65.83.65.71,0,1.19-.39,1.19-.94Z"/>
        <path class="cls-5" d="m226.53,318.22h1.52v.76c.35-.45.8-.86,1.57-.86,1.15,0,1.82.76,1.82,1.99v3.47h-1.52v-2.99c0-.72-.34-1.09-.92-1.09s-.95.37-.95,1.09v2.99h-1.52v-5.36Z"/>
        <path class="cls-5" d="m232.44,322.04v-.02c0-1.17.89-1.71,2.16-1.71.54,0,.93.09,1.31.22v-.09c0-.63-.39-.98-1.15-.98-.58,0-.99.11-1.48.29l-.38-1.16c.59-.26,1.17-.43,2.08-.43.83,0,1.43.22,1.81.6.4.4.58.99.58,1.71v3.11h-1.47v-.58c-.37.41-.88.68-1.62.68-1.01,0-1.84-.58-1.84-1.64Zm3.49-.35v-.27c-.26-.12-.6-.2-.97-.2-.65,0-1.05.26-1.05.74v.02c0,.41.34.65.83.65.71,0,1.19-.39,1.19-.94Z"/>
        <path class="cls-5" d="m238.71,324.64l.52-1.14c.55.31,1.1.49,1.81.49,1.04,0,1.53-.5,1.53-1.46v-.26c-.45.54-.94.87-1.75.87-1.25,0-2.38-.91-2.38-2.5v-.02c0-1.6,1.15-2.5,2.38-2.5.83,0,1.32.35,1.73.8v-.7h1.52v4.15c0,.96-.23,1.66-.68,2.11-.5.5-1.27.72-2.31.72-.87,0-1.69-.2-2.37-.56Zm3.86-4v-.02c0-.73-.57-1.24-1.31-1.24s-1.3.51-1.3,1.24v.02c0,.74.56,1.24,1.3,1.24s1.31-.51,1.31-1.24Z"/>
        <path class="cls-5" d="m245.17,320.93v-.02c0-1.53,1.09-2.79,2.65-2.79,1.79,0,2.61,1.39,2.61,2.91,0,.12,0,.26-.02.4h-3.73c.15.69.63,1.05,1.31,1.05.51,0,.88-.16,1.3-.55l.87.77c-.5.62-1.22,1-2.19,1-1.61,0-2.8-1.13-2.8-2.77Zm3.78-.45c-.09-.68-.49-1.14-1.13-1.14s-1.04.45-1.16,1.14h2.29Z"/>
        <path class="cls-5" d="m251.56,318.22h1.52v.76c.35-.45.81-.86,1.58-.86.7,0,1.23.31,1.51.85.47-.55,1.03-.85,1.76-.85,1.13,0,1.81.68,1.81,1.97v3.49h-1.52v-2.99c0-.72-.32-1.09-.89-1.09s-.92.37-.92,1.09v2.99h-1.52v-2.99c0-.72-.32-1.09-.89-1.09s-.92.37-.92,1.09v2.99h-1.52v-5.36Z"/>
        <path class="cls-5" d="m260.8,320.93v-.02c0-1.53,1.09-2.79,2.65-2.79,1.79,0,2.61,1.39,2.61,2.91,0,.12,0,.26-.02.4h-3.73c.15.69.63,1.05,1.31,1.05.51,0,.88-.16,1.3-.55l.87.77c-.5.62-1.22,1-2.19,1-1.61,0-2.8-1.13-2.8-2.77Zm3.78-.45c-.09-.68-.49-1.14-1.13-1.14s-1.04.45-1.16,1.14h2.29Z"/>
        <path class="cls-5" d="m267.19,318.22h1.52v.76c.35-.45.8-.86,1.57-.86,1.15,0,1.82.76,1.82,1.99v3.47h-1.52v-2.99c0-.72-.34-1.09-.92-1.09s-.95.37-.95,1.09v2.99h-1.52v-5.36Z"/>
        <path class="cls-5" d="m273.67,322.06v-2.54h-.64v-1.3h.64v-1.37h1.52v1.37h1.26v1.3h-1.26v2.29c0,.35.15.52.49.52.28,0,.53-.07.75-.19v1.22c-.32.19-.69.31-1.2.31-.93,0-1.56-.37-1.56-1.61Z"/>
        <path class="cls-5" d="m280.57,318.22h1.52v.77c.37-.5.88-.87,1.67-.87,1.25,0,2.44.98,2.44,2.77v.02c0,1.79-1.17,2.77-2.44,2.77-.81,0-1.31-.37-1.67-.8v2.3h-1.52v-6.96Zm4.11,2.69v-.02c0-.89-.6-1.48-1.31-1.48s-1.3.59-1.3,1.48v.02c0,.89.59,1.48,1.3,1.48s1.31-.58,1.31-1.48Z"/>
        <path class="cls-5" d="m287.39,316.28h1.52v7.3h-1.52v-7.3Z"/>
        <path class="cls-5" d="m290.02,322.04v-.02c0-1.17.89-1.71,2.16-1.71.54,0,.93.09,1.31.22v-.09c0-.63-.39-.98-1.15-.98-.58,0-.99.11-1.48.29l-.38-1.16c.59-.26,1.17-.43,2.08-.43.83,0,1.43.22,1.81.6.4.4.58.99.58,1.71v3.11h-1.47v-.58c-.37.41-.88.68-1.62.68-1.01,0-1.84-.58-1.84-1.64Zm3.49-.35v-.27c-.26-.12-.6-.2-.97-.2-.65,0-1.05.26-1.05.74v.02c0,.41.34.65.83.65.71,0,1.19-.39,1.19-.94Z"/>
        <path class="cls-5" d="m296.26,318.22h1.52v.76c.35-.45.8-.86,1.57-.86,1.15,0,1.82.76,1.82,1.99v3.47h-1.52v-2.99c0-.72-.34-1.09-.92-1.09s-.95.37-.95,1.09v2.99h-1.52v-5.36Z"/>
      </g>
      <g>
        <path class="cls-5" d="m145.14,107.49v-.02c0-1.99,1.57-3.62,3.73-3.62s3.71,1.61,3.71,3.6v.02c0,1.99-1.57,3.62-3.73,3.62s-3.71-1.61-3.71-3.6Zm5.83,0v-.02c0-1.2-.88-2.2-2.12-2.2s-2.1.98-2.1,2.18v.02c0,1.2.88,2.2,2.12,2.2s2.1-.98,2.1-2.18Z"/>
        <path class="cls-5" d="m153.79,105.62h1.52v.76c.35-.45.8-.86,1.57-.86,1.15,0,1.82.76,1.82,1.99v3.47h-1.52v-2.99c0-.72-.34-1.09-.92-1.09s-.95.37-.95,1.09v2.99h-1.52v-5.36Z"/>
        <path class="cls-5" d="m159.6,110.26l.65-1c.58.42,1.19.64,1.69.64.44,0,.64-.16.64-.4v-.02c0-.33-.52-.44-1.11-.62-.75-.22-1.6-.57-1.6-1.61v-.02c0-1.09.88-1.7,1.96-1.7.68,0,1.42.23,2,.62l-.58,1.05c-.53-.31-1.06-.5-1.45-.5-.37,0-.56.16-.56.37v.02c0,.3.51.44,1.09.64.75.25,1.62.61,1.62,1.59v.02c0,1.19-.89,1.73-2.05,1.73-.75,0-1.59-.25-2.3-.81Z"/>
        <path class="cls-5" d="m164.78,108.32v-.02c0-1.53,1.09-2.79,2.65-2.79,1.79,0,2.61,1.39,2.61,2.91,0,.12,0,.26-.02.4h-3.73c.15.69.63,1.05,1.31,1.05.51,0,.88-.16,1.3-.55l.87.77c-.5.62-1.22,1-2.19,1-1.61,0-2.8-1.13-2.8-2.77Zm3.78-.45c-.09-.68-.49-1.14-1.13-1.14s-1.04.45-1.16,1.14h2.29Z"/>
        <path class="cls-5" d="m171.42,109.45v-2.54h-.64v-1.3h.64v-1.37h1.52v1.37h1.26v1.3h-1.26v2.29c0,.35.15.52.49.52.28,0,.53-.07.75-.19v1.22c-.32.19-.69.31-1.2.31-.93,0-1.56-.37-1.56-1.61Z"/>
        <path class="cls-5" d="m178.06,108.32v-.02c0-1.54,1.24-2.79,2.91-2.79s2.89,1.23,2.89,2.77v.02c0,1.54-1.24,2.79-2.91,2.79s-2.89-1.23-2.89-2.77Zm4.3,0v-.02c0-.79-.57-1.48-1.41-1.48s-1.39.67-1.39,1.46v.02c0,.79.57,1.48,1.41,1.48s1.39-.67,1.39-1.46Z"/>
        <path class="cls-5" d="m185.22,106.92h-.63v-1.25h.63v-.34c0-.59.15-1.02.43-1.3.28-.28.69-.42,1.23-.42.48,0,.8.06,1.08.15v1.26c-.22-.08-.43-.13-.69-.13-.35,0-.55.18-.55.58v.21h1.23v1.24h-1.21v4.06h-1.52v-4.06Z"/>
        <path class="cls-5" d="m141.97,121.26l.65-1c.58.42,1.19.64,1.69.64.44,0,.64-.16.64-.4v-.02c0-.33-.52-.44-1.11-.62-.75-.22-1.6-.57-1.6-1.61v-.02c0-1.09.88-1.7,1.96-1.7.68,0,1.42.23,2,.62l-.58,1.05c-.53-.31-1.06-.5-1.45-.5-.37,0-.56.16-.56.37v.02c0,.3.51.44,1.09.64.75.25,1.62.61,1.62,1.59v.02c0,1.19-.89,1.73-2.05,1.73-.75,0-1.59-.25-2.3-.81Z"/>
        <path class="cls-5" d="m150.78,116.62h1.58l-2.06,5.49c-.41,1.09-.85,1.5-1.76,1.5-.55,0-.96-.14-1.35-.37l.51-1.1c.2.12.45.21.65.21.26,0,.4-.08.53-.35l-2.1-5.38h1.61l1.22,3.65,1.17-3.65Z"/>
        <path class="cls-5" d="m153.26,116.62h1.52v.76c.35-.45.81-.86,1.58-.86.7,0,1.23.31,1.51.85.47-.55,1.03-.85,1.76-.85,1.13,0,1.81.68,1.81,1.97v3.49h-1.52v-2.99c0-.72-.32-1.09-.89-1.09s-.92.37-.92,1.09v2.99h-1.52v-2.99c0-.72-.32-1.09-.89-1.09s-.92.37-.92,1.09v2.99h-1.52v-5.36Z"/>
        <path class="cls-5" d="m162.76,116.62h1.52v.77c.37-.5.88-.87,1.67-.87,1.25,0,2.44.98,2.44,2.77v.02c0,1.79-1.17,2.77-2.44,2.77-.81,0-1.31-.37-1.67-.8v2.3h-1.52v-6.96Zm4.11,2.69v-.02c0-.89-.6-1.48-1.31-1.48s-1.3.59-1.3,1.48v.02c0,.89.59,1.48,1.3,1.48s1.31-.58,1.31-1.48Z"/>
        <path class="cls-5" d="m169.76,120.45v-2.54h-.64v-1.3h.64v-1.37h1.52v1.37h1.26v1.3h-1.26v2.29c0,.35.15.52.49.52.28,0,.53-.07.75-.19v1.22c-.32.19-.69.31-1.2.31-.93,0-1.56-.37-1.56-1.61Z"/>
        <path class="cls-5" d="m173.25,119.32v-.02c0-1.54,1.24-2.79,2.91-2.79s2.89,1.23,2.89,2.77v.02c0,1.54-1.24,2.79-2.91,2.79s-2.89-1.23-2.89-2.77Zm4.3,0v-.02c0-.79-.57-1.48-1.41-1.48s-1.39.67-1.39,1.46v.02c0,.79.57,1.48,1.41,1.48s1.39-.67,1.39-1.46Z"/>
        <path class="cls-5" d="m180.15,116.62h1.52v.76c.35-.45.81-.86,1.58-.86.7,0,1.23.31,1.51.85.47-.55,1.03-.85,1.76-.85,1.13,0,1.81.68,1.81,1.97v3.49h-1.52v-2.99c0-.72-.32-1.09-.89-1.09s-.92.37-.92,1.09v2.99h-1.52v-2.99c0-.72-.32-1.09-.89-1.09s-.92.37-.92,1.09v2.99h-1.52v-5.36Z"/>
        <path class="cls-5" d="m189.23,121.26l.65-1c.58.42,1.19.64,1.69.64.44,0,.64-.16.64-.4v-.02c0-.33-.52-.44-1.11-.62-.75-.22-1.6-.57-1.6-1.61v-.02c0-1.09.88-1.7,1.96-1.7.68,0,1.42.23,2,.62l-.58,1.05c-.53-.31-1.06-.5-1.45-.5s-.56.16-.56.37v.02c0,.3.51.44,1.09.64.75.25,1.62.61,1.62,1.59v.02c0,1.19-.89,1.73-2.05,1.73-.75,0-1.59-.25-2.3-.81Z"/>
      </g>
      <g>
        <path class="cls-6" d="m39,171.21h-2.13v-1.42h5.8v1.42h-2.13v5.58h-1.54v-5.58Z"/>
        <path class="cls-6" d="m43.62,169.49h1.6v1.35h-1.6v-1.35Zm.04,1.94h1.52v5.36h-1.52v-5.36Z"/>
        <path class="cls-6" d="m46.61,171.43h1.52v.76c.35-.45.81-.86,1.58-.86.7,0,1.23.31,1.51.85.47-.55,1.03-.85,1.76-.85,1.13,0,1.81.68,1.81,1.97v3.49h-1.52v-2.99c0-.72-.32-1.09-.89-1.09s-.92.37-.92,1.09v2.99h-1.52v-2.99c0-.72-.32-1.09-.89-1.09s-.92.37-.92,1.09v2.99h-1.52v-5.36Z"/>
        <path class="cls-6" d="m55.85,174.14v-.02c0-1.53,1.09-2.79,2.65-2.79,1.79,0,2.61,1.39,2.61,2.91,0,.12,0,.26-.02.4h-3.73c.15.69.63,1.05,1.31,1.05.51,0,.88-.16,1.3-.55l.87.77c-.5.62-1.22,1-2.19,1-1.61,0-2.8-1.13-2.8-2.77Zm3.78-.45c-.09-.68-.49-1.14-1.13-1.14s-1.04.45-1.16,1.14h2.29Z"/>
        <path class="cls-6" d="m62.31,169.49h1.52v7.3h-1.52v-7.3Z"/>
        <path class="cls-6" d="m68.78,171.43h1.58l-2.06,5.49c-.41,1.09-.85,1.5-1.76,1.5-.55,0-.96-.14-1.35-.37l.51-1.1c.2.12.45.21.65.21.26,0,.4-.08.53-.35l-2.1-5.38h1.61l1.22,3.65,1.17-3.65Z"/>
        <path class="cls-6" d="m74.26,171.43h1.52v1.08c.31-.74.81-1.22,1.71-1.18v1.59h-.08c-1.01,0-1.63.61-1.63,1.89v1.98h-1.52v-5.36Z"/>
        <path class="cls-6" d="m78.03,174.14v-.02c0-1.53,1.09-2.79,2.65-2.79,1.79,0,2.61,1.39,2.61,2.91,0,.12,0,.26-.02.4h-3.73c.15.69.63,1.05,1.31,1.05.51,0,.88-.16,1.3-.55l.87.77c-.5.62-1.22,1-2.19,1-1.61,0-2.8-1.13-2.8-2.77Zm3.78-.45c-.09-.68-.49-1.14-1.13-1.14s-1.04.45-1.16,1.14h2.29Z"/>
        <path class="cls-6" d="m84.68,172.73h-.63v-1.25h.63v-.34c0-.59.15-1.02.43-1.3.28-.28.69-.42,1.23-.42.48,0,.8.06,1.08.15v1.26c-.22-.08-.43-.13-.69-.13-.35,0-.55.18-.55.58v.21h1.23v1.24h-1.21v4.06h-1.52v-4.06Z"/>
        <path class="cls-6" d="m87.88,174.14v-.02c0-1.53,1.09-2.79,2.65-2.79,1.79,0,2.61,1.39,2.61,2.91,0,.12,0,.26-.02.4h-3.73c.15.69.63,1.05,1.31,1.05.51,0,.88-.16,1.3-.55l.87.77c-.5.62-1.22,1-2.19,1-1.61,0-2.8-1.13-2.8-2.77Zm3.78-.45c-.09-.68-.49-1.14-1.13-1.14s-1.04.45-1.16,1.14h2.29Z"/>
        <path class="cls-6" d="m94.27,171.43h1.52v1.08c.31-.74.81-1.22,1.71-1.18v1.59h-.08c-1.01,0-1.63.61-1.63,1.89v1.98h-1.52v-5.36Z"/>
        <path class="cls-6" d="m98.45,171.43h1.52v1.08c.31-.74.81-1.22,1.71-1.18v1.59h-.08c-1.01,0-1.63.61-1.63,1.89v1.98h-1.52v-5.36Z"/>
        <path class="cls-6" d="m102.06,175.25v-.02c0-1.17.89-1.71,2.16-1.71.54,0,.93.09,1.31.22v-.09c0-.63-.39-.98-1.15-.98-.58,0-.99.11-1.48.29l-.38-1.16c.59-.26,1.17-.43,2.08-.43.83,0,1.43.22,1.81.6.4.4.58.99.58,1.71v3.11h-1.47v-.58c-.37.41-.88.68-1.62.68-1.01,0-1.84-.58-1.84-1.64Zm3.49-.35v-.27c-.26-.12-.6-.2-.97-.2-.65,0-1.05.26-1.05.74v.02c0,.41.34.65.83.65.71,0,1.19-.39,1.19-.94Z"/>
        <path class="cls-6" d="m108.37,169.49h1.52v7.3h-1.52v-7.3Z"/>
      </g>
      <g>
        <path class="cls-6" d="m39.52,211.65h-2.13v-1.42h5.8v1.42h-2.13v5.58h-1.54v-5.58Z"/>
        <path class="cls-6" d="m44.14,209.93h1.6v1.35h-1.6v-1.35Zm.04,1.94h1.52v5.36h-1.52v-5.36Z"/>
        <path class="cls-6" d="m47.13,211.87h1.52v.76c.35-.45.81-.86,1.58-.86.7,0,1.23.31,1.51.85.47-.55,1.03-.85,1.76-.85,1.13,0,1.81.68,1.81,1.97v3.49h-1.52v-2.99c0-.72-.32-1.09-.89-1.09s-.92.37-.92,1.09v2.99h-1.52v-2.99c0-.72-.32-1.09-.89-1.09s-.92.37-.92,1.09v2.99h-1.52v-5.36Z"/>
        <path class="cls-6" d="m56.37,214.58v-.02c0-1.53,1.09-2.79,2.65-2.79,1.79,0,2.61,1.39,2.61,2.91,0,.12,0,.26-.02.4h-3.73c.15.69.63,1.05,1.31,1.05.51,0,.88-.16,1.3-.55l.87.77c-.5.62-1.22,1-2.19,1-1.61,0-2.8-1.13-2.8-2.77Zm3.78-.45c-.09-.68-.49-1.14-1.13-1.14s-1.04.45-1.16,1.14h2.29Z"/>
        <path class="cls-6" d="m62.83,209.93h1.52v7.3h-1.52v-7.3Z"/>
        <path class="cls-6" d="m69.3,211.87h1.58l-2.06,5.49c-.41,1.09-.85,1.5-1.76,1.5-.55,0-.96-.14-1.35-.37l.51-1.1c.2.12.45.21.65.21.26,0,.4-.08.53-.35l-2.1-5.38h1.61l1.22,3.65,1.17-3.65Z"/>
        <path class="cls-6" d="m74.54,214.55v-.02c0-1.79,1.17-2.77,2.44-2.77.81,0,1.31.37,1.67.8v-2.64h1.52v7.3h-1.52v-.77c-.37.5-.88.87-1.67.87-1.25,0-2.44-.98-2.44-2.77Zm4.13,0v-.02c0-.89-.59-1.48-1.3-1.48s-1.31.58-1.31,1.48v.02c0,.89.6,1.48,1.31,1.48s1.3-.59,1.3-1.48Z"/>
        <path class="cls-6" d="m81.56,209.93h1.6v1.35h-1.6v-1.35Zm.04,1.94h1.52v5.36h-1.52v-5.36Z"/>
        <path class="cls-6" d="m84.23,215.68v-.02c0-1.17.89-1.71,2.16-1.71.54,0,.93.09,1.31.22v-.09c0-.63-.39-.98-1.15-.98-.58,0-.99.11-1.48.29l-.38-1.16c.59-.26,1.17-.43,2.08-.43.83,0,1.43.22,1.81.6.4.4.58.99.58,1.71v3.11h-1.47v-.58c-.37.41-.88.68-1.62.68-1.01,0-1.84-.58-1.84-1.64Zm3.49-.35v-.27c-.26-.12-.6-.2-.97-.2-.65,0-1.05.26-1.05.74v.02c0,.41.34.65.83.65.71,0,1.19-.39,1.19-.94Z"/>
        <path class="cls-6" d="m90.5,218.28l.52-1.14c.55.31,1.1.49,1.81.49,1.04,0,1.53-.5,1.53-1.46v-.26c-.45.54-.94.87-1.75.87-1.25,0-2.38-.91-2.38-2.5v-.02c0-1.6,1.15-2.5,2.38-2.5.83,0,1.32.35,1.73.8v-.7h1.52v4.15c0,.96-.23,1.66-.68,2.11-.5.5-1.27.72-2.31.72-.87,0-1.69-.2-2.37-.56Zm3.86-4v-.02c0-.73-.57-1.24-1.31-1.24s-1.3.51-1.3,1.24v.02c0,.74.56,1.24,1.3,1.24s1.31-.51,1.31-1.24Z"/>
        <path class="cls-6" d="m97.22,211.87h1.52v.76c.35-.45.8-.86,1.57-.86,1.15,0,1.82.76,1.82,1.99v3.47h-1.52v-2.99c0-.72-.34-1.09-.92-1.09s-.95.37-.95,1.09v2.99h-1.52v-5.36Z"/>
        <path class="cls-6" d="m103.19,214.58v-.02c0-1.54,1.24-2.79,2.91-2.79s2.89,1.23,2.89,2.77v.02c0,1.54-1.24,2.79-2.91,2.79s-2.89-1.23-2.89-2.77Zm4.3,0v-.02c0-.79-.57-1.48-1.41-1.48s-1.39.67-1.39,1.46v.02c0,.79.57,1.48,1.41,1.48s1.39-.67,1.39-1.46Z"/>
        <path class="cls-6" d="m109.67,216.51l.65-1c.58.42,1.19.64,1.69.64.44,0,.64-.16.64-.4v-.02c0-.33-.52-.44-1.11-.62-.75-.22-1.6-.57-1.6-1.61v-.02c0-1.09.88-1.7,1.96-1.7.68,0,1.42.23,2,.62l-.58,1.05c-.53-.31-1.06-.5-1.45-.5-.37,0-.56.16-.56.37v.02c0,.3.51.44,1.09.64.75.25,1.62.61,1.62,1.59v.02c0,1.19-.89,1.73-2.05,1.73-.75,0-1.59-.25-2.3-.81Z"/>
        <path class="cls-6" d="m115.14,209.93h1.6v1.35h-1.6v-1.35Zm.04,1.94h1.52v5.36h-1.52v-5.36Z"/>
        <path class="cls-6" d="m117.71,216.51l.65-1c.58.42,1.19.64,1.69.64.44,0,.64-.16.64-.4v-.02c0-.33-.52-.44-1.11-.62-.75-.22-1.6-.57-1.6-1.61v-.02c0-1.09.88-1.7,1.96-1.7.68,0,1.42.23,2,.62l-.58,1.05c-.53-.31-1.06-.5-1.45-.5s-.56.16-.56.37v.02c0,.3.51.44,1.09.64.75.25,1.62.61,1.62,1.59v.02c0,1.19-.89,1.73-2.05,1.73-.75,0-1.59-.25-2.3-.81Z"/>
      </g>
      <g>
        <path class="cls-10" d="m41.13,228.7h1.42l3,7.05h-1.61l-.64-1.57h-2.96l-.64,1.57h-1.57l3-7.05Zm1.62,4.12l-.93-2.27-.93,2.27h1.86Z"/>
        <path class="cls-10" d="m46.05,235.04l.65-1c.58.42,1.19.64,1.69.64.44,0,.64-.16.64-.4v-.02c0-.33-.52-.44-1.11-.62-.75-.22-1.6-.57-1.6-1.61v-.02c0-1.09.88-1.7,1.96-1.7.68,0,1.42.23,2,.62l-.58,1.05c-.53-.31-1.06-.5-1.45-.5s-.56.16-.56.37v.02c0,.3.51.44,1.09.64.75.25,1.62.61,1.62,1.59v.02c0,1.19-.89,1.73-2.05,1.73-.75,0-1.59-.25-2.3-.81Z"/>
        <path class="cls-10" d="m50.97,235.04l.65-1c.58.42,1.19.64,1.69.64.44,0,.64-.16.64-.4v-.02c0-.33-.52-.44-1.11-.62-.75-.22-1.6-.57-1.6-1.61v-.02c0-1.09.88-1.7,1.96-1.7.68,0,1.42.23,2,.62l-.58,1.05c-.53-.31-1.06-.5-1.45-.5s-.56.16-.56.37v.02c0,.3.51.44,1.09.64.75.25,1.62.61,1.62,1.59v.02c0,1.19-.89,1.73-2.05,1.73-.75,0-1.59-.25-2.3-.81Z"/>
        <path class="cls-10" d="m56.15,233.1v-.02c0-1.53,1.09-2.79,2.65-2.79,1.79,0,2.61,1.39,2.61,2.91,0,.12,0,.26-.02.4h-3.73c.15.69.63,1.05,1.31,1.05.51,0,.88-.16,1.3-.55l.87.77c-.5.62-1.22,1-2.19,1-1.61,0-2.8-1.13-2.8-2.77Zm3.78-.45c-.09-.68-.49-1.14-1.13-1.14s-1.04.45-1.16,1.14h2.29Z"/>
        <path class="cls-10" d="m62.12,235.04l.65-1c.58.42,1.19.64,1.69.64.44,0,.64-.16.64-.4v-.02c0-.33-.52-.44-1.11-.62-.75-.22-1.6-.57-1.6-1.61v-.02c0-1.09.88-1.7,1.96-1.7.68,0,1.42.23,2,.62l-.58,1.05c-.53-.31-1.06-.5-1.45-.5-.37,0-.56.16-.56.37v.02c0,.3.51.44,1.09.64.75.25,1.62.61,1.62,1.59v.02c0,1.19-.89,1.73-2.05,1.73-.75,0-1.59-.25-2.3-.81Z"/>
        <path class="cls-10" d="m67.04,235.04l.65-1c.58.42,1.19.64,1.69.64.44,0,.64-.16.64-.4v-.02c0-.33-.52-.44-1.11-.62-.75-.22-1.6-.57-1.6-1.61v-.02c0-1.09.88-1.7,1.96-1.7.68,0,1.42.23,2,.62l-.58,1.05c-.53-.31-1.06-.5-1.45-.5s-.56.16-.56.37v.02c0,.3.51.44,1.09.64.75.25,1.62.61,1.62,1.59v.02c0,1.19-.89,1.73-2.05,1.73-.75,0-1.59-.25-2.3-.81Z"/>
        <path class="cls-10" d="m75.48,230.39h1.52v1.08c.31-.74.81-1.22,1.71-1.18v1.59h-.08c-1.01,0-1.63.61-1.63,1.89v1.98h-1.52v-5.36Z"/>
        <path class="cls-10" d="m79.69,228.45h1.6v1.35h-1.6v-1.35Zm.04,1.94h1.52v5.36h-1.52v-5.36Z"/>
        <path class="cls-10" d="m82.26,235.04l.65-1c.58.42,1.19.64,1.69.64.44,0,.64-.16.64-.4v-.02c0-.33-.52-.44-1.11-.62-.75-.22-1.6-.57-1.6-1.61v-.02c0-1.09.88-1.7,1.96-1.7.68,0,1.42.23,2,.62l-.58,1.05c-.53-.31-1.06-.5-1.45-.5-.37,0-.56.16-.56.37v.02c0,.3.51.44,1.09.64.75.25,1.62.61,1.62,1.59v.02c0,1.19-.89,1.73-2.05,1.73-.75,0-1.59-.25-2.3-.81Z"/>
        <path class="cls-10" d="m87.7,228.45h1.52v3.89l1.78-1.95h1.82l-2.04,2.11,2.11,3.25h-1.76l-1.37-2.2-.54.57v1.63h-1.52v-7.3Z"/>
        <path class="cls-10" d="m96.88,231.69h-.63v-1.25h.63v-.34c0-.59.15-1.02.43-1.3.28-.28.69-.42,1.23-.42.48,0,.8.06,1.08.15v1.26c-.22-.08-.43-.13-.69-.13-.35,0-.55.18-.55.58v.21h1.23v1.24h-1.21v4.06h-1.52v-4.06Z"/>
        <path class="cls-10" d="m99.97,234.21v-.02c0-1.17.89-1.71,2.16-1.71.54,0,.93.09,1.31.22v-.09c0-.63-.39-.98-1.15-.98-.58,0-.99.11-1.48.29l-.38-1.16c.59-.26,1.17-.43,2.08-.43.83,0,1.43.22,1.81.6.4.4.58.99.58,1.71v3.11h-1.47v-.58c-.37.41-.88.68-1.62.68-1.01,0-1.84-.58-1.84-1.64Zm3.49-.35v-.27c-.26-.12-.6-.2-.97-.2-.65,0-1.05.26-1.05.74v.02c0,.41.34.65.83.65.71,0,1.19-.39,1.19-.94Z"/>
        <path class="cls-10" d="m105.95,233.1v-.02c0-1.53,1.17-2.79,2.81-2.79,1.01,0,1.64.34,2.14.9l-.93,1c-.34-.36-.68-.59-1.22-.59-.76,0-1.3.67-1.3,1.46v.02c0,.82.53,1.48,1.36,1.48.51,0,.86-.22,1.23-.57l.89.9c-.52.57-1.12.98-2.19.98-1.61,0-2.79-1.24-2.79-2.77Z"/>
        <path class="cls-10" d="m112.17,234.23v-2.54h-.64v-1.3h.64v-1.37h1.52v1.37h1.26v1.3h-1.26v2.29c0,.35.15.52.49.52.28,0,.53-.07.75-.19v1.22c-.32.19-.69.31-1.2.31-.93,0-1.56-.37-1.56-1.61Z"/>
        <path class="cls-10" d="m115.66,233.1v-.02c0-1.54,1.24-2.79,2.91-2.79s2.89,1.23,2.89,2.77v.02c0,1.54-1.24,2.79-2.91,2.79s-2.89-1.23-2.89-2.77Zm4.3,0v-.02c0-.79-.57-1.48-1.41-1.48s-1.39.67-1.39,1.46v.02c0,.79.57,1.48,1.41,1.48s1.39-.67,1.39-1.46Z"/>
        <path class="cls-10" d="m122.56,230.39h1.52v1.08c.31-.74.81-1.22,1.71-1.18v1.59h-.08c-1.01,0-1.63.61-1.63,1.89v1.98h-1.52v-5.36Z"/>
        <path class="cls-10" d="m126.32,235.04l.65-1c.58.42,1.19.64,1.69.64.44,0,.64-.16.64-.4v-.02c0-.33-.52-.44-1.11-.62-.75-.22-1.6-.57-1.6-1.61v-.02c0-1.09.88-1.7,1.96-1.7.68,0,1.42.23,2,.62l-.58,1.05c-.53-.31-1.06-.5-1.45-.5s-.56.16-.56.37v.02c0,.3.51.44,1.09.64.75.25,1.62.61,1.62,1.59v.02c0,1.19-.89,1.73-2.05,1.73-.75,0-1.59-.25-2.3-.81Z"/>
      </g>
      <g>
        <path class="cls-10" d="m38.79,274.61l.91-1.09c.63.52,1.29.85,2.09.85.63,0,1.01-.25,1.01-.66v-.02c0-.39-.24-.59-1.41-.89-1.41-.36-2.32-.75-2.32-2.14v-.02c0-1.27,1.02-2.11,2.45-2.11,1.02,0,1.89.32,2.6.89l-.8,1.16c-.62-.43-1.23-.69-1.82-.69s-.9.27-.9.61v.02c0,.46.3.61,1.51.92,1.42.37,2.22.88,2.22,2.1v.02c0,1.39-1.06,2.17-2.57,2.17-1.06,0-2.13-.37-2.97-1.12Z"/>
        <path class="cls-10" d="m45.25,272.98v-.02c0-1.53,1.09-2.79,2.65-2.79,1.79,0,2.61,1.39,2.61,2.91,0,.12,0,.26-.02.4h-3.73c.15.69.63,1.05,1.31,1.05.51,0,.88-.16,1.3-.55l.87.77c-.5.62-1.22,1-2.19,1-1.61,0-2.8-1.13-2.8-2.77Zm3.78-.45c-.09-.68-.49-1.14-1.13-1.14s-1.04.45-1.16,1.14h2.29Z"/>
        <path class="cls-10" d="m51.89,274.11v-2.54h-.64v-1.3h.64v-1.37h1.52v1.37h1.26v1.3h-1.26v2.29c0,.35.15.52.49.52.28,0,.53-.07.75-.19v1.22c-.32.19-.69.31-1.2.31-.93,0-1.56-.37-1.56-1.61Z"/>
        <path class="cls-10" d="m58.47,274.09v-.02c0-1.17.89-1.71,2.16-1.71.54,0,.93.09,1.31.22v-.09c0-.63-.39-.98-1.15-.98-.58,0-.99.11-1.48.29l-.38-1.16c.59-.26,1.17-.43,2.08-.43.83,0,1.43.22,1.81.6.4.4.58.99.58,1.71v3.11h-1.47v-.58c-.37.41-.88.68-1.62.68-1.01,0-1.84-.58-1.84-1.64Zm3.49-.35v-.27c-.26-.12-.6-.2-.97-.2-.65,0-1.05.26-1.05.74v.02c0,.41.34.65.83.65.71,0,1.19-.39,1.19-.94Z"/>
        <path class="cls-10" d="m64.71,270.27h1.52v.77c.37-.5.88-.87,1.67-.87,1.25,0,2.44.98,2.44,2.77v.02c0,1.79-1.17,2.77-2.44,2.77-.81,0-1.31-.37-1.67-.8v2.3h-1.52v-6.96Zm4.11,2.69v-.02c0-.89-.6-1.48-1.31-1.48s-1.3.59-1.3,1.48v.02c0,.89.59,1.48,1.3,1.48s1.31-.58,1.31-1.48Z"/>
        <path class="cls-10" d="m71.46,270.27h1.52v.77c.37-.5.88-.87,1.67-.87,1.25,0,2.44.98,2.44,2.77v.02c0,1.79-1.17,2.77-2.44,2.77-.81,0-1.31-.37-1.67-.8v2.3h-1.52v-6.96Zm4.11,2.69v-.02c0-.89-.6-1.48-1.31-1.48s-1.3.59-1.3,1.48v.02c0,.89.59,1.48,1.3,1.48s1.31-.58,1.31-1.48Z"/>
        <path class="cls-10" d="m78.21,270.27h1.52v1.08c.31-.74.81-1.22,1.71-1.18v1.59h-.08c-1.01,0-1.63.61-1.63,1.89v1.98h-1.52v-5.36Z"/>
        <path class="cls-10" d="m81.98,272.98v-.02c0-1.54,1.24-2.79,2.91-2.79s2.89,1.23,2.89,2.77v.02c0,1.54-1.24,2.79-2.91,2.79s-2.89-1.23-2.89-2.77Zm4.3,0v-.02c0-.79-.57-1.48-1.41-1.48s-1.39.67-1.39,1.46v.02c0,.79.57,1.48,1.41,1.48s1.39-.67,1.39-1.46Z"/>
        <path class="cls-10" d="m88.88,270.27h1.52v.77c.37-.5.88-.87,1.67-.87,1.25,0,2.44.98,2.44,2.77v.02c0,1.79-1.17,2.77-2.44,2.77-.81,0-1.31-.37-1.67-.8v2.3h-1.52v-6.96Zm4.11,2.69v-.02c0-.89-.6-1.48-1.31-1.48s-1.3.59-1.3,1.48v.02c0,.89.59,1.48,1.3,1.48s1.31-.58,1.31-1.48Z"/>
        <path class="cls-10" d="m95.63,270.27h1.52v1.08c.31-.74.81-1.22,1.71-1.18v1.59h-.08c-1.01,0-1.63.61-1.63,1.89v1.98h-1.52v-5.36Z"/>
        <path class="cls-10" d="m99.84,268.34h1.6v1.35h-1.6v-1.35Zm.04,1.94h1.52v5.36h-1.52v-5.36Z"/>
        <path class="cls-10" d="m102.51,274.09v-.02c0-1.17.89-1.71,2.16-1.71.54,0,.93.09,1.31.22v-.09c0-.63-.39-.98-1.15-.98-.58,0-.99.11-1.48.29l-.38-1.16c.59-.26,1.17-.43,2.08-.43.83,0,1.43.22,1.81.6.4.4.58.99.58,1.71v3.11h-1.47v-.58c-.37.41-.88.68-1.62.68-1.01,0-1.84-.58-1.84-1.64Zm3.49-.35v-.27c-.26-.12-.6-.2-.97-.2-.65,0-1.05.26-1.05.74v.02c0,.41.34.65.83.65.71,0,1.19-.39,1.19-.94Z"/>
        <path class="cls-10" d="m108.95,274.11v-2.54h-.64v-1.3h.64v-1.37h1.52v1.37h1.26v1.3h-1.26v2.29c0,.35.15.52.49.52.28,0,.53-.07.75-.19v1.22c-.32.19-.69.31-1.2.31-.93,0-1.56-.37-1.56-1.61Z"/>
        <path class="cls-10" d="m112.44,272.98v-.02c0-1.53,1.09-2.79,2.65-2.79,1.79,0,2.61,1.39,2.61,2.91,0,.12,0,.26-.02.4h-3.73c.15.69.63,1.05,1.31,1.05.51,0,.88-.16,1.3-.55l.87.77c-.5.62-1.22,1-2.19,1-1.61,0-2.8-1.13-2.8-2.77Zm3.78-.45c-.09-.68-.49-1.14-1.13-1.14s-1.04.45-1.16,1.14h2.29Z"/>
        <path class="cls-10" d="m122.08,274.11v-2.54h-.64v-1.3h.64v-1.37h1.52v1.37h1.26v1.3h-1.26v2.29c0,.35.15.52.49.52.28,0,.53-.07.75-.19v1.22c-.32.19-.69.31-1.2.31-.93,0-1.56-.37-1.56-1.61Z"/>
        <path class="cls-10" d="m125.66,274.09v-.02c0-1.17.89-1.71,2.16-1.71.54,0,.93.09,1.31.22v-.09c0-.63-.39-.98-1.15-.98-.58,0-.99.11-1.48.29l-.38-1.16c.59-.26,1.17-.43,2.08-.43.83,0,1.43.22,1.81.6.4.4.58.99.58,1.71v3.11h-1.47v-.58c-.37.41-.88.68-1.62.68-1.01,0-1.84-.58-1.84-1.64Zm3.49-.35v-.27c-.26-.12-.6-.2-.97-.2-.65,0-1.05.26-1.05.74v.02c0,.41.34.65.83.65.71,0,1.19-.39,1.19-.94Z"/>
        <path class="cls-10" d="m131.9,270.27h1.52v1.08c.31-.74.81-1.22,1.71-1.18v1.59h-.08c-1.01,0-1.63.61-1.63,1.89v1.98h-1.52v-5.36Z"/>
        <path class="cls-10" d="m136.01,276.69l.52-1.14c.55.31,1.1.49,1.81.49,1.04,0,1.53-.5,1.53-1.46v-.26c-.45.54-.94.87-1.75.87-1.25,0-2.38-.91-2.38-2.5v-.02c0-1.6,1.15-2.5,2.38-2.5.83,0,1.32.35,1.73.8v-.7h1.52v4.15c0,.96-.23,1.66-.68,2.11-.5.5-1.27.72-2.31.72-.87,0-1.69-.2-2.37-.56Zm3.86-4v-.02c0-.73-.57-1.24-1.31-1.24s-1.3.51-1.3,1.24v.02c0,.74.56,1.24,1.3,1.24s1.31-.51,1.31-1.24Z"/>
        <path class="cls-10" d="m142.47,272.98v-.02c0-1.53,1.09-2.79,2.65-2.79,1.79,0,2.61,1.39,2.61,2.91,0,.12,0,.26-.02.4h-3.73c.15.69.63,1.05,1.31,1.05.51,0,.88-.16,1.3-.55l.87.77c-.5.62-1.22,1-2.19,1-1.61,0-2.8-1.13-2.8-2.77Zm3.78-.45c-.09-.68-.49-1.14-1.13-1.14s-1.04.45-1.16,1.14h2.29Z"/>
        <path class="cls-10" d="m149.11,274.11v-2.54h-.64v-1.3h.64v-1.37h1.52v1.37h1.26v1.3h-1.26v2.29c0,.35.15.52.49.52.28,0,.53-.07.75-.19v1.22c-.32.19-.69.31-1.2.31-.93,0-1.56-.37-1.56-1.61Z"/>
      </g>
      <g>
        <path class="cls-10" d="m40.9,289.12h-2.13v-1.42h5.8v1.42h-2.13v5.58h-1.54v-5.58Z"/>
        <path class="cls-10" d="m44.99,289.34h1.52v1.08c.31-.74.81-1.22,1.71-1.18v1.59h-.08c-1.01,0-1.63.61-1.63,1.89v1.98h-1.52v-5.36Z"/>
        <path class="cls-10" d="m48.76,292.05v-.02c0-1.53,1.09-2.79,2.65-2.79,1.79,0,2.61,1.39,2.61,2.91,0,.12,0,.26-.02.4h-3.73c.15.69.63,1.05,1.31,1.05.51,0,.88-.16,1.3-.55l.87.77c-.5.62-1.22,1-2.19,1-1.61,0-2.8-1.13-2.8-2.77Zm3.78-.45c-.09-.68-.49-1.14-1.13-1.14s-1.04.45-1.16,1.14h2.29Z"/>
        <path class="cls-10" d="m54.83,293.16v-.02c0-1.17.89-1.71,2.16-1.71.54,0,.93.09,1.31.22v-.09c0-.63-.39-.98-1.15-.98-.58,0-.99.11-1.48.29l-.38-1.16c.59-.26,1.17-.43,2.08-.43.83,0,1.43.22,1.81.6.4.4.58.99.58,1.71v3.11h-1.47v-.58c-.37.41-.88.68-1.62.68-1.01,0-1.84-.58-1.84-1.64Zm3.49-.35v-.27c-.26-.12-.6-.2-.97-.2-.65,0-1.05.26-1.05.74v.02c0,.41.34.65.83.65.71,0,1.19-.39,1.19-.94Z"/>
        <path class="cls-10" d="m61.27,293.18v-2.54h-.64v-1.3h.64v-1.37h1.52v1.37h1.26v1.3h-1.26v2.29c0,.35.15.52.49.52.28,0,.53-.07.75-.19v1.22c-.32.19-.69.31-1.2.31-.93,0-1.56-.37-1.56-1.61Z"/>
        <path class="cls-10" d="m68.2,287.41h1.6v1.35h-1.6v-1.35Zm.04,1.94h1.52v5.36h-1.52v-5.36Z"/>
        <path class="cls-10" d="m71.19,289.34h1.52v.76c.35-.45.8-.86,1.57-.86,1.15,0,1.82.76,1.82,1.99v3.47h-1.52v-2.99c0-.72-.34-1.09-.92-1.09s-.95.37-.95,1.09v2.99h-1.52v-5.36Z"/>
        <path class="cls-10" d="m80.1,293.16v-.02c0-1.17.89-1.71,2.16-1.71.54,0,.93.09,1.31.22v-.09c0-.63-.39-.98-1.15-.98-.58,0-.99.11-1.48.29l-.38-1.16c.59-.26,1.17-.43,2.08-.43.83,0,1.43.22,1.81.6.4.4.58.99.58,1.71v3.11h-1.47v-.58c-.37.41-.88.68-1.62.68-1.01,0-1.84-.58-1.84-1.64Zm3.49-.35v-.27c-.26-.12-.6-.2-.97-.2-.65,0-1.05.26-1.05.74v.02c0,.41.34.65.83.65.71,0,1.19-.39,1.19-.94Z"/>
        <path class="cls-10" d="m89.59,293.18v-2.54h-.64v-1.3h.64v-1.37h1.52v1.37h1.26v1.3h-1.26v2.29c0,.35.15.52.49.52.28,0,.53-.07.75-.19v1.22c-.32.19-.69.31-1.2.31-.93,0-1.56-.37-1.56-1.61Z"/>
        <path class="cls-10" d="m93.52,287.41h1.6v1.35h-1.6v-1.35Zm.04,1.94h1.52v5.36h-1.52v-5.36Z"/>
        <path class="cls-10" d="m96.51,289.34h1.52v.76c.35-.45.81-.86,1.58-.86.7,0,1.23.31,1.51.85.47-.55,1.03-.85,1.76-.85,1.13,0,1.81.68,1.81,1.97v3.49h-1.52v-2.99c0-.72-.32-1.09-.89-1.09s-.92.37-.92,1.09v2.99h-1.52v-2.99c0-.72-.32-1.09-.89-1.09s-.92.37-.92,1.09v2.99h-1.52v-5.36Z"/>
        <path class="cls-10" d="m105.75,292.05v-.02c0-1.53,1.09-2.79,2.65-2.79,1.79,0,2.61,1.39,2.61,2.91,0,.12,0,.26-.02.4h-3.73c.15.69.63,1.05,1.31,1.05.51,0,.88-.16,1.3-.55l.87.77c-.5.62-1.22,1-2.19,1-1.61,0-2.8-1.13-2.8-2.77Zm3.78-.45c-.09-.68-.49-1.14-1.13-1.14s-1.04.45-1.16,1.14h2.29Z"/>
        <path class="cls-10" d="m112.21,287.41h1.52v7.3h-1.52v-7.3Z"/>
        <path class="cls-10" d="m118.68,289.34h1.58l-2.06,5.49c-.41,1.09-.85,1.5-1.76,1.5-.55,0-.96-.14-1.35-.37l.51-1.1c.2.12.45.21.65.21.26,0,.4-.08.53-.35l-2.1-5.38h1.61l1.22,3.65,1.17-3.65Z"/>
        <path class="cls-10" d="m124.16,289.34h1.52v.76c.35-.45.81-.86,1.58-.86.7,0,1.23.31,1.51.85.47-.55,1.03-.85,1.76-.85,1.13,0,1.81.68,1.81,1.97v3.49h-1.52v-2.99c0-.72-.32-1.09-.89-1.09s-.92.37-.92,1.09v2.99h-1.52v-2.99c0-.72-.32-1.09-.89-1.09s-.92.37-.92,1.09v2.99h-1.52v-5.36Z"/>
        <path class="cls-10" d="m133.34,293.16v-.02c0-1.17.89-1.71,2.16-1.71.54,0,.93.09,1.31.22v-.09c0-.63-.39-.98-1.15-.98-.58,0-.99.11-1.48.29l-.38-1.16c.59-.26,1.17-.43,2.08-.43.83,0,1.43.22,1.81.6.4.4.58.99.58,1.71v3.11h-1.47v-.58c-.37.41-.88.68-1.62.68-1.01,0-1.84-.58-1.84-1.64Zm3.49-.35v-.27c-.26-.12-.6-.2-.97-.2-.65,0-1.05.26-1.05.74v.02c0,.41.34.65.83.65.71,0,1.19-.39,1.19-.94Z"/>
        <path class="cls-10" d="m139.58,289.34h1.52v.76c.35-.45.8-.86,1.57-.86,1.15,0,1.82.76,1.82,1.99v3.47h-1.52v-2.99c0-.72-.34-1.09-.92-1.09s-.95.37-.95,1.09v2.99h-1.52v-5.36Z"/>
        <path class="cls-10" d="m145.81,289.34h1.52v.76c.35-.45.8-.86,1.57-.86,1.15,0,1.82.76,1.82,1.99v3.47h-1.52v-2.99c0-.72-.34-1.09-.92-1.09s-.95.37-.95,1.09v2.99h-1.52v-5.36Z"/>
        <path class="cls-10" d="m151.78,292.05v-.02c0-1.53,1.09-2.79,2.65-2.79,1.79,0,2.61,1.39,2.61,2.91,0,.12,0,.26-.02.4h-3.73c.15.69.63,1.05,1.31,1.05.51,0,.88-.16,1.3-.55l.87.77c-.5.62-1.22,1-2.19,1-1.61,0-2.8-1.13-2.8-2.77Zm3.78-.45c-.09-.68-.49-1.14-1.13-1.14s-1.04.45-1.16,1.14h2.29Z"/>
        <path class="cls-10" d="m158.17,289.34h1.52v1.08c.31-.74.81-1.22,1.71-1.18v1.59h-.08c-1.01,0-1.63.61-1.63,1.89v1.98h-1.52v-5.36Z"/>
      </g>
      <g>
        <path class="cls-10" d="m235.22,124.86h1.66l1.84,2.96,1.84-2.96h1.66v7h-1.53v-4.57l-1.97,2.99h-.04l-1.95-2.96v4.54h-1.51v-7Z"/>
        <path class="cls-10" d="m243.48,129.2v-.02c0-1.54,1.24-2.79,2.91-2.79s2.89,1.23,2.89,2.77v.02c0,1.54-1.24,2.79-2.91,2.79s-2.89-1.23-2.89-2.77Zm4.3,0v-.02c0-.79-.57-1.48-1.41-1.48s-1.39.67-1.39,1.46v.02c0,.79.57,1.48,1.41,1.48s1.39-.67,1.39-1.46Z"/>
        <path class="cls-10" d="m250.38,126.49h1.52v.76c.35-.45.8-.86,1.57-.86,1.15,0,1.82.76,1.82,1.99v3.47h-1.52v-2.99c0-.72-.34-1.09-.92-1.09s-.95.37-.95,1.09v2.99h-1.52v-5.36Z"/>
        <path class="cls-10" d="m256.64,124.56h1.6v1.35h-1.6v-1.35Zm.04,1.94h1.52v5.36h-1.52v-5.36Z"/>
        <path class="cls-10" d="m259.88,130.33v-2.54h-.64v-1.3h.64v-1.37h1.52v1.37h1.26v1.3h-1.26v2.29c0,.35.15.52.49.52.28,0,.53-.07.75-.19v1.22c-.32.19-.69.31-1.2.31-.93,0-1.56-.37-1.56-1.61Z"/>
        <path class="cls-10" d="m263.37,129.2v-.02c0-1.54,1.24-2.79,2.91-2.79s2.89,1.23,2.89,2.77v.02c0,1.54-1.24,2.79-2.91,2.79s-2.89-1.23-2.89-2.77Zm4.3,0v-.02c0-.79-.57-1.48-1.41-1.48s-1.39.67-1.39,1.46v.02c0,.79.57,1.48,1.41,1.48s1.39-.67,1.39-1.46Z"/>
        <path class="cls-10" d="m270.27,126.49h1.52v1.08c.31-.74.81-1.22,1.71-1.18v1.59h-.08c-1.01,0-1.63.61-1.63,1.89v1.98h-1.52v-5.36Z"/>
        <path class="cls-10" d="m232.12,137.49h1.52v1.08c.31-.74.81-1.22,1.71-1.18v1.59h-.08c-1.01,0-1.63.61-1.63,1.89v1.98h-1.52v-5.36Z"/>
        <path class="cls-10" d="m235.89,140.2v-.02c0-1.53,1.09-2.79,2.65-2.79,1.79,0,2.61,1.39,2.61,2.91,0,.12,0,.26-.02.4h-3.73c.15.69.63,1.05,1.31,1.05.51,0,.88-.16,1.3-.55l.87.77c-.5.62-1.22,1-2.19,1-1.61,0-2.8-1.13-2.8-2.77Zm3.78-.45c-.09-.68-.49-1.14-1.13-1.14s-1.04.45-1.16,1.14h2.29Z"/>
        <path class="cls-10" d="m242.31,143.91l.52-1.14c.55.31,1.1.49,1.81.49,1.04,0,1.53-.5,1.53-1.46v-.26c-.45.54-.94.87-1.75.87-1.25,0-2.38-.91-2.38-2.5v-.02c0-1.6,1.15-2.5,2.38-2.5.83,0,1.32.35,1.73.8v-.7h1.52v4.15c0,.96-.23,1.66-.68,2.11-.5.5-1.27.72-2.31.72-.87,0-1.69-.2-2.37-.56Zm3.86-4v-.02c0-.73-.57-1.24-1.31-1.24s-1.3.51-1.3,1.24v.02c0,.74.56,1.24,1.3,1.24s1.31-.51,1.31-1.24Z"/>
        <path class="cls-10" d="m248.99,140.96v-3.47h1.52v2.99c0,.72.34,1.09.92,1.09s.95-.37.95-1.09v-2.99h1.52v5.36h-1.52v-.76c-.35.45-.8.86-1.57.86-1.15,0-1.82-.76-1.82-1.99Z"/>
        <path class="cls-10" d="m255.33,135.56h1.52v7.3h-1.52v-7.3Z"/>
        <path class="cls-10" d="m257.96,141.31v-.02c0-1.17.89-1.71,2.16-1.71.54,0,.93.09,1.31.22v-.09c0-.63-.39-.98-1.15-.98-.58,0-.99.11-1.48.29l-.38-1.16c.59-.26,1.17-.43,2.08-.43.83,0,1.43.22,1.81.6.4.4.58.99.58,1.71v3.11h-1.47v-.58c-.37.41-.88.68-1.62.68-1.01,0-1.84-.58-1.84-1.64Zm3.49-.35v-.27c-.26-.12-.6-.2-.97-.2-.65,0-1.05.26-1.05.74v.02c0,.41.34.65.83.65.71,0,1.19-.39,1.19-.94Z"/>
        <path class="cls-10" d="m264.2,137.49h1.52v1.08c.31-.74.81-1.22,1.71-1.18v1.59h-.08c-1.01,0-1.63.61-1.63,1.89v1.98h-1.52v-5.36Z"/>
        <path class="cls-10" d="m268.45,135.56h1.52v7.3h-1.52v-7.3Z"/>
        <path class="cls-10" d="m274.91,137.49h1.58l-2.06,5.49c-.41,1.09-.85,1.5-1.76,1.5-.55,0-.96-.14-1.35-.37l.51-1.1c.2.12.45.21.65.21.26,0,.4-.08.53-.35l-2.1-5.38h1.61l1.22,3.65,1.17-3.65Z"/>
      </g>
      <g>
        <path class="cls-10" d="m357.84,88.72h1.66l1.84,2.96,1.84-2.96h1.66v7h-1.53v-4.57l-1.97,2.99h-.04l-1.95-2.96v4.54h-1.51v-7Z"/>
        <path class="cls-10" d="m366.1,93.07v-.02c0-1.54,1.24-2.79,2.91-2.79s2.89,1.23,2.89,2.77v.02c0,1.54-1.24,2.79-2.91,2.79s-2.89-1.23-2.89-2.77Zm4.3,0v-.02c0-.79-.57-1.48-1.41-1.48s-1.39.67-1.39,1.46v.02c0,.79.57,1.48,1.41,1.48s1.39-.67,1.39-1.46Z"/>
        <path class="cls-10" d="m373,90.36h1.52v.76c.35-.45.8-.86,1.57-.86,1.15,0,1.82.76,1.82,1.99v3.47h-1.52v-2.99c0-.72-.34-1.09-.92-1.09s-.95.37-.95,1.09v2.99h-1.52v-5.36Z"/>
        <path class="cls-10" d="m379.26,88.42h1.6v1.35h-1.6v-1.35Zm.04,1.94h1.52v5.36h-1.52v-5.36Z"/>
        <path class="cls-10" d="m382.5,94.2v-2.54h-.64v-1.3h.64v-1.37h1.52v1.37h1.26v1.3h-1.26v2.29c0,.35.15.52.49.52.28,0,.53-.07.75-.19v1.22c-.32.19-.69.31-1.2.31-.93,0-1.56-.37-1.56-1.61Z"/>
        <path class="cls-10" d="m385.99,93.07v-.02c0-1.54,1.24-2.79,2.91-2.79s2.89,1.23,2.89,2.77v.02c0,1.54-1.24,2.79-2.91,2.79s-2.89-1.23-2.89-2.77Zm4.3,0v-.02c0-.79-.57-1.48-1.41-1.48s-1.39.67-1.39,1.46v.02c0,.79.57,1.48,1.41,1.48s1.39-.67,1.39-1.46Z"/>
        <path class="cls-10" d="m392.89,90.36h1.52v1.08c.31-.74.81-1.22,1.71-1.18v1.59h-.08c-1.01,0-1.63.61-1.63,1.89v1.98h-1.52v-5.36Z"/>
        <path class="cls-10" d="m354.73,101.36h1.52v1.08c.31-.74.81-1.22,1.71-1.18v1.59h-.08c-1.01,0-1.63.61-1.63,1.89v1.98h-1.52v-5.36Z"/>
        <path class="cls-10" d="m358.5,104.07v-.02c0-1.53,1.09-2.79,2.65-2.79,1.79,0,2.61,1.39,2.61,2.91,0,.12,0,.26-.02.4h-3.73c.15.69.63,1.05,1.31,1.05.51,0,.88-.16,1.3-.55l.87.77c-.5.62-1.22,1-2.19,1-1.61,0-2.8-1.13-2.8-2.77Zm3.78-.45c-.09-.68-.49-1.14-1.13-1.14s-1.04.45-1.16,1.14h2.29Z"/>
        <path class="cls-10" d="m364.92,107.78l.52-1.14c.55.31,1.1.49,1.81.49,1.04,0,1.53-.5,1.53-1.46v-.26c-.45.54-.94.87-1.75.87-1.25,0-2.38-.91-2.38-2.5v-.02c0-1.6,1.15-2.5,2.38-2.5.83,0,1.32.35,1.73.8v-.7h1.52v4.15c0,.96-.23,1.66-.68,2.11-.5.5-1.27.72-2.31.72-.87,0-1.69-.2-2.37-.56Zm3.86-4v-.02c0-.73-.57-1.24-1.31-1.24s-1.3.51-1.3,1.24v.02c0,.74.56,1.24,1.3,1.24s1.31-.51,1.31-1.24Z"/>
        <path class="cls-10" d="m371.6,104.83v-3.47h1.52v2.99c0,.72.34,1.09.92,1.09s.95-.37.95-1.09v-2.99h1.52v5.36h-1.52v-.76c-.35.45-.8.86-1.57.86-1.15,0-1.82-.76-1.82-1.99Z"/>
        <path class="cls-10" d="m377.94,99.42h1.52v7.3h-1.52v-7.3Z"/>
        <path class="cls-10" d="m380.57,105.18v-.02c0-1.17.89-1.71,2.16-1.71.54,0,.93.09,1.31.22v-.09c0-.63-.39-.98-1.15-.98-.58,0-.99.11-1.48.29l-.38-1.16c.59-.26,1.17-.43,2.08-.43.83,0,1.43.22,1.81.6.4.4.58.99.58,1.71v3.11h-1.47v-.58c-.37.41-.88.68-1.62.68-1.01,0-1.84-.58-1.84-1.64Zm3.49-.35v-.27c-.26-.12-.6-.2-.97-.2-.65,0-1.05.26-1.05.74v.02c0,.41.34.65.83.65.71,0,1.19-.39,1.19-.94Z"/>
        <path class="cls-10" d="m386.81,101.36h1.52v1.08c.31-.74.81-1.22,1.71-1.18v1.59h-.08c-1.01,0-1.63.61-1.63,1.89v1.98h-1.52v-5.36Z"/>
        <path class="cls-10" d="m391.06,99.42h1.52v7.3h-1.52v-7.3Z"/>
        <path class="cls-10" d="m397.53,101.36h1.58l-2.06,5.49c-.41,1.09-.85,1.5-1.76,1.5-.55,0-.96-.14-1.35-.37l.51-1.1c.2.12.45.21.65.21.26,0,.4-.08.53-.35l-2.1-5.38h1.61l1.22,3.65,1.17-3.65Z"/>
      </g>
      <g>
        <path class="cls-10" d="m521.08,74.65h1.66l1.84,2.96,1.84-2.96h1.66v7h-1.53v-4.57l-1.97,2.99h-.04l-1.95-2.96v4.54h-1.51v-7Z"/>
        <path class="cls-10" d="m529.34,78.99v-.02c0-1.54,1.24-2.79,2.91-2.79s2.89,1.23,2.89,2.77v.02c0,1.54-1.24,2.79-2.91,2.79s-2.89-1.23-2.89-2.77Zm4.3,0v-.02c0-.79-.57-1.48-1.41-1.48s-1.39.67-1.39,1.46v.02c0,.79.57,1.48,1.41,1.48s1.39-.67,1.39-1.46Z"/>
        <path class="cls-10" d="m536.24,76.28h1.52v.76c.35-.45.8-.86,1.57-.86,1.15,0,1.82.76,1.82,1.99v3.47h-1.52v-2.99c0-.72-.34-1.09-.92-1.09s-.95.37-.95,1.09v2.99h-1.52v-5.36Z"/>
        <path class="cls-10" d="m542.5,74.35h1.6v1.35h-1.6v-1.35Zm.04,1.94h1.52v5.36h-1.52v-5.36Z"/>
        <path class="cls-10" d="m545.74,80.12v-2.54h-.64v-1.3h.64v-1.37h1.52v1.37h1.26v1.3h-1.26v2.29c0,.35.15.52.49.52.28,0,.53-.07.75-.19v1.22c-.32.19-.69.31-1.2.31-.93,0-1.56-.37-1.56-1.61Z"/>
        <path class="cls-10" d="m549.23,78.99v-.02c0-1.54,1.24-2.79,2.91-2.79s2.89,1.23,2.89,2.77v.02c0,1.54-1.24,2.79-2.91,2.79s-2.89-1.23-2.89-2.77Zm4.3,0v-.02c0-.79-.57-1.48-1.41-1.48s-1.39.67-1.39,1.46v.02c0,.79.57,1.48,1.41,1.48s1.39-.67,1.39-1.46Z"/>
        <path class="cls-10" d="m556.13,76.28h1.52v1.08c.31-.74.81-1.22,1.71-1.18v1.59h-.08c-1.01,0-1.63.61-1.63,1.89v1.98h-1.52v-5.36Z"/>
        <path class="cls-10" d="m517.97,87.28h1.52v1.08c.31-.74.81-1.22,1.71-1.18v1.59h-.08c-1.01,0-1.63.61-1.63,1.89v1.98h-1.52v-5.36Z"/>
        <path class="cls-10" d="m521.74,89.99v-.02c0-1.53,1.09-2.79,2.65-2.79,1.79,0,2.61,1.39,2.61,2.91,0,.12,0,.26-.02.4h-3.73c.15.69.63,1.05,1.31,1.05.51,0,.88-.16,1.3-.55l.87.77c-.5.62-1.22,1-2.19,1-1.61,0-2.8-1.13-2.8-2.77Zm3.78-.45c-.09-.68-.49-1.14-1.13-1.14s-1.04.45-1.16,1.14h2.29Z"/>
        <path class="cls-10" d="m528.16,93.7l.52-1.14c.55.31,1.1.49,1.81.49,1.04,0,1.53-.5,1.53-1.46v-.26c-.45.54-.94.87-1.75.87-1.25,0-2.38-.91-2.38-2.5v-.02c0-1.6,1.15-2.5,2.38-2.5.83,0,1.32.35,1.73.8v-.7h1.52v4.15c0,.96-.23,1.66-.68,2.11-.5.5-1.27.72-2.31.72-.87,0-1.69-.2-2.37-.56Zm3.86-4v-.02c0-.73-.57-1.24-1.31-1.24s-1.3.51-1.3,1.24v.02c0,.74.56,1.24,1.3,1.24s1.31-.51,1.31-1.24Z"/>
        <path class="cls-10" d="m534.84,90.75v-3.47h1.52v2.99c0,.72.34,1.09.92,1.09s.95-.37.95-1.09v-2.99h1.52v5.36h-1.52v-.76c-.35.45-.8.86-1.57.86-1.15,0-1.82-.76-1.82-1.99Z"/>
        <path class="cls-10" d="m541.18,85.35h1.52v7.3h-1.52v-7.3Z"/>
        <path class="cls-10" d="m543.81,91.1v-.02c0-1.17.89-1.71,2.16-1.71.54,0,.93.09,1.31.22v-.09c0-.63-.39-.98-1.15-.98-.58,0-.99.11-1.48.29l-.38-1.16c.59-.26,1.17-.43,2.08-.43.83,0,1.43.22,1.81.6.4.4.58.99.58,1.71v3.11h-1.47v-.58c-.37.41-.88.68-1.62.68-1.01,0-1.84-.58-1.84-1.64Zm3.49-.35v-.27c-.26-.12-.6-.2-.97-.2-.65,0-1.05.26-1.05.74v.02c0,.41.34.65.83.65.71,0,1.19-.39,1.19-.94Z"/>
        <path class="cls-10" d="m550.05,87.28h1.52v1.08c.31-.74.81-1.22,1.71-1.18v1.59h-.08c-1.01,0-1.63.61-1.63,1.89v1.98h-1.52v-5.36Z"/>
        <path class="cls-10" d="m554.3,85.35h1.52v7.3h-1.52v-7.3Z"/>
        <path class="cls-10" d="m560.77,87.28h1.58l-2.06,5.49c-.41,1.09-.85,1.5-1.76,1.5-.55,0-.96-.14-1.35-.37l.51-1.1c.2.12.45.21.65.21.26,0,.4-.08.53-.35l-2.1-5.38h1.61l1.22,3.65,1.17-3.65Z"/>
      </g>
      <g>
        <path class="cls-10" d="m436.07,90.14v-.02c0-1.99,1.57-3.62,3.73-3.62s3.71,1.61,3.71,3.6v.02c0,1.99-1.57,3.62-3.73,3.62s-3.71-1.61-3.71-3.6Zm5.83,0v-.02c0-1.2-.88-2.2-2.12-2.2s-2.1.98-2.1,2.18v.02c0,1.2.88,2.2,2.12,2.2s2.1-.98,2.1-2.18Z"/>
        <path class="cls-10" d="m444.72,88.26h1.52v.77c.37-.5.88-.87,1.67-.87,1.25,0,2.44.98,2.44,2.77v.02c0,1.79-1.17,2.77-2.44,2.77-.81,0-1.31-.37-1.67-.8v2.3h-1.52v-6.96Zm4.11,2.69v-.02c0-.89-.6-1.48-1.31-1.48s-1.3.59-1.3,1.48v.02c0,.89.59,1.48,1.3,1.48s1.31-.58,1.31-1.48Z"/>
        <path class="cls-10" d="m451.72,92.1v-2.54h-.64v-1.3h.64v-1.37h1.52v1.37h1.26v1.3h-1.26v2.29c0,.35.15.52.49.52.28,0,.53-.07.75-.19v1.22c-.32.19-.69.31-1.2.31-.93,0-1.56-.37-1.56-1.61Z"/>
        <path class="cls-10" d="m455.65,86.32h1.6v1.35h-1.6v-1.35Zm.04,1.94h1.52v5.36h-1.52v-5.36Z"/>
        <path class="cls-10" d="m458.64,88.26h1.52v.76c.35-.45.81-.86,1.58-.86.7,0,1.23.31,1.51.85.47-.55,1.03-.85,1.76-.85,1.13,0,1.81.68,1.81,1.97v3.49h-1.52v-2.99c0-.72-.32-1.09-.89-1.09s-.92.37-.92,1.09v2.99h-1.52v-2.99c0-.72-.32-1.09-.89-1.09s-.92.37-.92,1.09v2.99h-1.52v-5.36Z"/>
        <path class="cls-10" d="m468.17,86.32h1.6v1.35h-1.6v-1.35Zm.04,1.94h1.52v5.36h-1.52v-5.36Z"/>
        <path class="cls-10" d="m470.98,92.55l2.77-3.06h-2.68v-1.23h4.57v1.07l-2.78,3.06h2.78v1.23h-4.66v-1.07Z"/>
        <path class="cls-10" d="m476.38,90.97v-.02c0-1.53,1.09-2.79,2.65-2.79,1.79,0,2.61,1.39,2.61,2.91,0,.12,0,.26-.02.4h-3.73c.15.69.63,1.05,1.31,1.05.51,0,.88-.16,1.3-.55l.87.77c-.5.62-1.22,1-2.19,1-1.61,0-2.8-1.13-2.8-2.77Zm3.78-.45c-.09-.68-.49-1.14-1.13-1.14s-1.04.45-1.16,1.14h2.29Z"/>
        <path class="cls-10" d="m440.32,103.1v-2.54h-.64v-1.3h.64v-1.37h1.52v1.37h1.26v1.3h-1.26v2.29c0,.35.15.52.49.52.28,0,.53-.07.75-.19v1.22c-.32.19-.69.31-1.2.31-.93,0-1.56-.37-1.56-1.61Z"/>
        <path class="cls-10" d="m444.22,97.32h1.52v2.7c.35-.45.8-.86,1.57-.86,1.15,0,1.82.76,1.82,1.99v3.47h-1.52v-2.99c0-.72-.34-1.09-.92-1.09s-.95.37-.95,1.09v2.99h-1.52v-7.3Z"/>
        <path class="cls-10" d="m450.19,101.97v-.02c0-1.53,1.09-2.79,2.65-2.79,1.79,0,2.61,1.39,2.61,2.91,0,.12,0,.26-.02.4h-3.73c.15.69.63,1.05,1.31,1.05.51,0,.88-.16,1.3-.55l.87.77c-.5.62-1.22,1-2.19,1-1.61,0-2.8-1.13-2.8-2.77Zm3.78-.45c-.09-.68-.49-1.14-1.13-1.14s-1.04.45-1.16,1.14h2.29Z"/>
        <path class="cls-10" d="m456.58,99.26h1.52v1.08c.31-.74.81-1.22,1.71-1.18v1.59h-.08c-1.01,0-1.63.61-1.63,1.89v1.98h-1.52v-5.36Z"/>
        <path class="cls-10" d="m460.19,103.08v-.02c0-1.17.89-1.71,2.16-1.71.54,0,.93.09,1.31.22v-.09c0-.63-.39-.98-1.15-.98-.58,0-.99.11-1.48.29l-.38-1.16c.59-.26,1.17-.43,2.08-.43.83,0,1.43.22,1.81.6.4.4.58.99.58,1.71v3.11h-1.47v-.58c-.37.41-.88.68-1.62.68-1.01,0-1.84-.58-1.84-1.64Zm3.49-.35v-.27c-.26-.12-.6-.2-.97-.2-.65,0-1.05.26-1.05.74v.02c0,.41.34.65.83.65.71,0,1.19-.39,1.19-.94Z"/>
        <path class="cls-10" d="m466.43,99.26h1.52v.77c.37-.5.88-.87,1.67-.87,1.25,0,2.44.98,2.44,2.77v.02c0,1.79-1.17,2.77-2.44,2.77-.81,0-1.31-.37-1.67-.8v2.3h-1.52v-6.96Zm4.11,2.69v-.02c0-.89-.6-1.48-1.31-1.48s-1.3.59-1.3,1.48v.02c0,.89.59,1.48,1.3,1.48s1.31-.58,1.31-1.48Z"/>
        <path class="cls-10" d="m476.44,99.26h1.58l-2.06,5.49c-.41,1.09-.85,1.5-1.76,1.5-.55,0-.96-.14-1.35-.37l.51-1.1c.2.12.45.21.65.21.26,0,.4-.08.53-.35l-2.1-5.38h1.61l1.22,3.65,1.17-3.65Z"/>
      </g>
      <g>
        <path class="cls-9" d="m615.98,6.5h1.42l3,7.05h-1.61l-.64-1.57h-2.96l-.64,1.57h-1.57l3-7.05Zm1.62,4.12l-.93-2.27-.93,2.27h1.86Z"/>
        <path class="cls-9" d="m620.81,10.9v-.02c0-1.53,1.17-2.79,2.81-2.79,1.01,0,1.64.34,2.14.9l-.93,1c-.34-.36-.68-.59-1.22-.59-.76,0-1.3.67-1.3,1.46v.02c0,.82.53,1.48,1.36,1.48.51,0,.86-.22,1.23-.57l.89.9c-.52.57-1.12.98-2.19.98-1.61,0-2.79-1.24-2.79-2.77Z"/>
        <path class="cls-9" d="m626.78,6.25h1.52v2.7c.35-.45.8-.86,1.57-.86,1.15,0,1.82.76,1.82,1.99v3.47h-1.52v-2.99c0-.72-.34-1.09-.92-1.09s-.95.37-.95,1.09v2.99h-1.52v-7.3Z"/>
        <path class="cls-9" d="m633.04,6.25h1.6v1.35h-1.6v-1.35Zm.04,1.94h1.52v5.36h-1.52v-5.36Z"/>
        <path class="cls-9" d="m635.77,10.9v-.02c0-1.53,1.09-2.79,2.65-2.79,1.79,0,2.61,1.39,2.61,2.91,0,.12,0,.26-.02.4h-3.73c.15.69.63,1.05,1.31,1.05.51,0,.88-.16,1.3-.55l.87.77c-.5.62-1.22,1-2.19,1-1.61,0-2.8-1.13-2.8-2.77Zm3.78-.45c-.09-.68-.49-1.14-1.13-1.14s-1.04.45-1.16,1.14h2.29Z"/>
        <path class="cls-9" d="m641.43,8.19h1.61l1.2,3.59,1.21-3.59h1.58l-2.11,5.4h-1.38l-2.11-5.4Z"/>
        <path class="cls-9" d="m647.35,10.9v-.02c0-1.53,1.09-2.79,2.65-2.79,1.79,0,2.61,1.39,2.61,2.91,0,.12,0,.26-.02.4h-3.73c.15.69.63,1.05,1.31,1.05.51,0,.88-.16,1.3-.55l.87.77c-.5.62-1.22,1-2.19,1-1.61,0-2.8-1.13-2.8-2.77Zm3.78-.45c-.09-.68-.49-1.14-1.13-1.14s-1.04.45-1.16,1.14h2.29Z"/>
        <path class="cls-9" d="m618.24,23.02v-2.54h-.64v-1.3h.64v-1.37h1.52v1.37h1.26v1.3h-1.26v2.29c0,.35.15.52.49.52.28,0,.53-.07.75-.19v1.22c-.32.19-.69.31-1.2.31-.93,0-1.56-.37-1.56-1.61Z"/>
        <path class="cls-9" d="m621.82,23v-.02c0-1.17.89-1.71,2.16-1.71.54,0,.93.09,1.31.22v-.09c0-.63-.39-.98-1.15-.98-.58,0-.99.11-1.48.29l-.38-1.16c.59-.26,1.17-.43,2.08-.43.83,0,1.43.22,1.81.6.4.4.58.99.58,1.71v3.11h-1.47v-.58c-.37.41-.88.68-1.62.68-1.01,0-1.84-.58-1.84-1.64Zm3.49-.35v-.27c-.26-.12-.6-.2-.97-.2-.65,0-1.05.26-1.05.74v.02c0,.41.34.65.83.65.71,0,1.19-.39,1.19-.94Z"/>
        <path class="cls-9" d="m628.06,19.19h1.52v1.08c.31-.74.81-1.22,1.71-1.18v1.59h-.08c-1.01,0-1.63.61-1.63,1.89v1.98h-1.52v-5.36Z"/>
        <path class="cls-9" d="m632.17,25.6l.52-1.14c.55.31,1.1.49,1.81.49,1.04,0,1.53-.5,1.53-1.46v-.26c-.45.54-.94.87-1.75.87-1.25,0-2.38-.91-2.38-2.5v-.02c0-1.6,1.15-2.5,2.38-2.5.83,0,1.32.35,1.73.8v-.7h1.52v4.15c0,.96-.23,1.66-.68,2.11-.5.5-1.27.72-2.31.72-.87,0-1.69-.2-2.37-.56Zm3.86-4v-.02c0-.73-.57-1.24-1.31-1.24s-1.3.51-1.3,1.24v.02c0,.74.56,1.24,1.3,1.24s1.31-.51,1.31-1.24Z"/>
        <path class="cls-9" d="m638.63,21.9v-.02c0-1.53,1.09-2.79,2.65-2.79,1.79,0,2.61,1.39,2.61,2.91,0,.12,0,.26-.02.4h-3.73c.15.69.63,1.05,1.31,1.05.51,0,.88-.16,1.3-.55l.87.77c-.5.62-1.22,1-2.19,1-1.61,0-2.8-1.13-2.8-2.77Zm3.78-.45c-.09-.68-.49-1.14-1.13-1.14s-1.04.45-1.16,1.14h2.29Z"/>
        <path class="cls-9" d="m645.27,23.02v-2.54h-.64v-1.3h.64v-1.37h1.52v1.37h1.26v1.3h-1.26v2.29c0,.35.15.52.49.52.28,0,.53-.07.75-.19v1.22c-.32.19-.69.31-1.2.31-.93,0-1.56-.37-1.56-1.61Z"/>
      </g>
      <g>
        <path class="cls-5" d="m41.25,88.72h1.54v5.6h3.49v1.4h-5.03v-7Z"/>
        <path class="cls-5" d="m47.31,88.42h1.6v1.35h-1.6v-1.35Zm.04,1.94h1.52v5.36h-1.52v-5.36Z"/>
        <path class="cls-5" d="m50.56,91.66h-.63v-1.25h.63v-.34c0-.59.15-1.02.43-1.3.28-.28.69-.42,1.23-.42.48,0,.8.06,1.08.15v1.26c-.22-.08-.43-.13-.69-.13-.35,0-.55.18-.55.58v.21h1.23v1.24h-1.21v4.06h-1.52v-4.06Z"/>
        <path class="cls-5" d="m53.76,93.07v-.02c0-1.53,1.09-2.79,2.65-2.79,1.79,0,2.61,1.39,2.61,2.91,0,.12,0,.26-.02.4h-3.73c.15.69.63,1.05,1.31,1.05.51,0,.88-.16,1.3-.55l.87.77c-.5.62-1.22,1-2.19,1-1.61,0-2.8-1.13-2.8-2.77Zm3.78-.45c-.09-.68-.49-1.14-1.13-1.14s-1.04.45-1.16,1.14h2.29Z"/>
        <path class="cls-5" d="m64.67,95.02v.7h-1.52v-7.3h1.52v2.71c.37-.5.88-.87,1.67-.87,1.25,0,2.44.98,2.44,2.77v.02c0,1.79-1.17,2.77-2.44,2.77-.81,0-1.31-.37-1.67-.8Zm2.59-1.97v-.02c0-.89-.6-1.48-1.31-1.48s-1.3.59-1.3,1.48v.02c0,.89.59,1.48,1.3,1.48s1.31-.58,1.31-1.48Z"/>
        <path class="cls-5" d="m69.64,93.07v-.02c0-1.53,1.09-2.79,2.65-2.79,1.79,0,2.61,1.39,2.61,2.91,0,.12,0,.26-.02.4h-3.73c.15.69.63,1.05,1.31,1.05.51,0,.88-.16,1.3-.55l.87.77c-.5.62-1.22,1-2.19,1-1.61,0-2.8-1.13-2.8-2.77Zm3.78-.45c-.09-.68-.49-1.14-1.13-1.14s-1.04.45-1.16,1.14h2.29Z"/>
        <path class="cls-5" d="m76.29,91.66h-.63v-1.25h.63v-.34c0-.59.15-1.02.43-1.3.28-.28.69-.42,1.23-.42.48,0,.8.06,1.08.15v1.26c-.22-.08-.43-.13-.69-.13-.35,0-.55.18-.55.58v.21h1.23v1.24h-1.21v4.06h-1.52v-4.06Z"/>
        <path class="cls-5" d="m79.49,93.07v-.02c0-1.54,1.24-2.79,2.91-2.79s2.89,1.23,2.89,2.77v.02c0,1.54-1.24,2.79-2.91,2.79s-2.89-1.23-2.89-2.77Zm4.3,0v-.02c0-.79-.57-1.48-1.41-1.48s-1.39.67-1.39,1.46v.02c0,.79.57,1.48,1.41,1.48s1.39-.67,1.39-1.46Z"/>
        <path class="cls-5" d="m86.39,90.36h1.52v1.08c.31-.74.81-1.22,1.71-1.18v1.59h-.08c-1.01,0-1.63.61-1.63,1.89v1.98h-1.52v-5.36Z"/>
        <path class="cls-5" d="m90.16,93.07v-.02c0-1.53,1.09-2.79,2.65-2.79,1.79,0,2.61,1.39,2.61,2.91,0,.12,0,.26-.02.4h-3.73c.15.69.63,1.05,1.31,1.05.51,0,.88-.16,1.3-.55l.87.77c-.5.62-1.22,1-2.19,1-1.61,0-2.8-1.13-2.8-2.77Zm3.78-.45c-.09-.68-.49-1.14-1.13-1.14s-1.04.45-1.16,1.14h2.29Z"/>
        <path class="cls-5" d="m53.17,99.42h1.6v1.35h-1.6v-1.35Zm.04,1.94h1.52v5.36h-1.52v-5.36Z"/>
        <path class="cls-5" d="m56.23,99.42h1.52v7.3h-1.52v-7.3Z"/>
        <path class="cls-5" d="m59.25,99.42h1.52v7.3h-1.52v-7.3Z"/>
        <path class="cls-5" d="m62.2,101.36h1.52v.76c.35-.45.8-.86,1.57-.86,1.15,0,1.82.76,1.82,1.99v3.47h-1.52v-2.99c0-.72-.34-1.09-.92-1.09s-.95.37-.95,1.09v2.99h-1.52v-5.36Z"/>
        <path class="cls-5" d="m68.17,104.07v-.02c0-1.53,1.09-2.79,2.65-2.79,1.79,0,2.61,1.39,2.61,2.91,0,.12,0,.26-.02.4h-3.73c.15.69.63,1.05,1.31,1.05.51,0,.88-.16,1.3-.55l.87.77c-.5.62-1.22,1-2.19,1-1.61,0-2.8-1.13-2.8-2.77Zm3.78-.45c-.09-.68-.49-1.14-1.13-1.14s-1.04.45-1.16,1.14h2.29Z"/>
        <path class="cls-5" d="m74.14,106.01l.65-1c.58.42,1.19.64,1.69.64.44,0,.64-.16.64-.4v-.02c0-.33-.52-.44-1.11-.62-.75-.22-1.6-.57-1.6-1.61v-.02c0-1.09.88-1.7,1.96-1.7.68,0,1.42.23,2,.62l-.58,1.05c-.53-.31-1.06-.5-1.45-.5s-.56.16-.56.37v.02c0,.3.51.44,1.09.64.75.25,1.62.61,1.62,1.59v.02c0,1.19-.89,1.73-2.05,1.73-.75,0-1.59-.25-2.3-.81Z"/>
        <path class="cls-5" d="m79.06,106.01l.65-1c.58.42,1.19.64,1.69.64.44,0,.64-.16.64-.4v-.02c0-.33-.52-.44-1.11-.62-.75-.22-1.6-.57-1.6-1.61v-.02c0-1.09.88-1.7,1.96-1.7.68,0,1.42.23,2,.62l-.58,1.05c-.53-.31-1.06-.5-1.45-.5-.37,0-.56.16-.56.37v.02c0,.3.51.44,1.09.64.75.25,1.62.61,1.62,1.59v.02c0,1.19-.89,1.73-2.05,1.73-.75,0-1.59-.25-2.3-.81Z"/>
      </g>
      <circle class="cls-13" cx="86.67" cy="69.56" r="15.26"/>
      <path class="cls-7" d="m86.2,66.6l-1.71.42-.45-1.76,2.82-.84h1.47v9.88h-2.13v-7.69Z"/>
      <circle class="cls-13" cx="122.81" cy="122.23" r="15.26"/>
      <path class="cls-7" d="m119.13,125.25l3.26-2.68c1.22-1.01,1.7-1.54,1.7-2.35s-.55-1.27-1.32-1.27-1.27.42-2,1.32l-1.51-1.22c.97-1.32,1.91-2.03,3.66-2.03,2.03,0,3.38,1.19,3.38,3.03v.03c0,1.64-.84,2.45-2.58,3.8l-1.6,1.23h4.27v1.86h-7.26v-1.71Z"/>
      <g>
        <path class="cls-2" d="m279.05,187.02l7.29-3.68-7.29-3.68c-1.61-10.99-10.3-19.68-21.29-21.29l-3.69-7.31-3.69,7.31c-10.99,1.61-19.68,10.3-21.29,21.3l-7.28,3.68,7.28,3.68c1.6,11,10.29,19.69,21.29,21.3l3.69,7.31,3.69-7.31c10.99-1.61,19.68-10.3,21.29-21.29Z"/>
        <circle class="cls-1" cx="254.07" cy="183.33" r="22.4"/>
        <path class="cls-7" d="m254.07,169.47c-7.64,0-13.86,6.22-13.86,13.86s6.22,13.86,13.86,13.86,13.86-6.22,13.86-13.86-6.22-13.86-13.86-13.86Z"/>
        <path class="cls-12" d="m254.07,199.19c-8.74,0-15.86-7.11-15.86-15.86s7.11-15.86,15.86-15.86,15.86,7.11,15.86,15.86-7.11,15.86-15.86,15.86Zm0-29.71c-7.64,0-13.86,6.22-13.86,13.86s6.22,13.86,13.86,13.86,13.86-6.22,13.86-13.86-6.22-13.86-13.86-13.86Z"/>
        <circle class="cls-12" cx="254.07" cy="183.33" r="3.34"/>
        <path class="cls-1" d="m254.07,190.88c-4.16,0-7.54-3.38-7.54-7.55s3.38-7.55,7.54-7.55,7.54,3.38,7.54,7.55-3.38,7.55-7.54,7.55Zm0-14.09c-3.61,0-6.54,2.94-6.54,6.55s2.94,6.55,6.54,6.55,6.54-2.94,6.54-6.55-2.94-6.55-6.54-6.55Z"/>
      </g>
      <g>
        <path class="cls-2" d="m215.34,273.22l7.29-3.68-7.29-3.68c-1.61-10.99-10.3-19.68-21.29-21.29l-3.69-7.31-3.69,7.31c-10.99,1.61-19.68,10.3-21.29,21.3l-7.28,3.68,7.28,3.68c1.6,11,10.29,19.69,21.29,21.3l3.69,7.31,3.69-7.31c10.99-1.61,19.68-10.3,21.29-21.29Z"/>
        <circle class="cls-1" cx="190.37" cy="269.53" r="22.4"/>
        <path class="cls-7" d="m190.37,255.68c-7.64,0-13.86,6.22-13.86,13.86s6.22,13.86,13.86,13.86,13.86-6.22,13.86-13.86-6.22-13.86-13.86-13.86Z"/>
        <path class="cls-12" d="m190.37,285.39c-8.74,0-15.86-7.11-15.86-15.86s7.11-15.86,15.86-15.86,15.86,7.11,15.86,15.86-7.11,15.86-15.86,15.86Zm0-29.71c-7.64,0-13.86,6.22-13.86,13.86s6.22,13.86,13.86,13.86,13.86-6.22,13.86-13.86-6.22-13.86-13.86-13.86Z"/>
        <circle class="cls-12" cx="190.37" cy="269.53" r="3.34"/>
        <path class="cls-1" d="m190.37,277.08c-4.16,0-7.54-3.38-7.54-7.55s3.38-7.55,7.54-7.55,7.54,3.38,7.54,7.55-3.38,7.55-7.54,7.55Zm0-14.09c-3.61,0-6.54,2.94-6.54,6.55s2.94,6.55,6.54,6.55,6.54-2.94,6.54-6.55-2.94-6.55-6.54-6.55Z"/>
      </g>
      <g>
        <path class="cls-2" d="m401.67,151.39l7.29-3.68-7.29-3.68c-1.61-10.99-10.3-19.68-21.29-21.29l-3.69-7.31-3.69,7.31c-10.99,1.61-19.68,10.3-21.29,21.3l-7.28,3.68,7.28,3.68c1.6,11,10.29,19.69,21.29,21.3l3.69,7.31,3.69-7.31c10.99-1.61,19.68-10.3,21.29-21.29Z"/>
        <circle class="cls-1" cx="376.7" cy="147.71" r="22.4"/>
        <path class="cls-7" d="m376.7,133.85c-7.64,0-13.86,6.22-13.86,13.86s6.22,13.86,13.86,13.86,13.86-6.22,13.86-13.86-6.22-13.86-13.86-13.86Z"/>
        <path class="cls-12" d="m376.7,163.57c-8.74,0-15.86-7.11-15.86-15.86s7.11-15.86,15.86-15.86,15.86,7.11,15.86,15.86-7.11,15.86-15.86,15.86Zm0-29.71c-7.64,0-13.86,6.22-13.86,13.86s6.22,13.86,13.86,13.86,13.86-6.22,13.86-13.86-6.22-13.86-13.86-13.86Z"/>
        <circle class="cls-12" cx="376.7" cy="147.71" r="3.34"/>
        <path class="cls-1" d="m376.7,155.25c-4.16,0-7.54-3.38-7.54-7.55s3.38-7.55,7.54-7.55,7.54,3.38,7.54,7.55-3.38,7.55-7.54,7.55Zm0-14.09c-3.61,0-6.54,2.94-6.54,6.55s2.94,6.55,6.54,6.55,6.54-2.94,6.54-6.55-2.94-6.55-6.54-6.55Z"/>
      </g>
      <g>
        <path class="cls-2" d="m483.79,151.39l7.29-3.68-7.29-3.68c-1.61-10.99-10.3-19.68-21.29-21.29l-3.69-7.31-3.69,7.31c-10.99,1.61-19.68,10.3-21.29,21.3l-7.28,3.68,7.28,3.68c1.6,11,10.29,19.69,21.29,21.3l3.69,7.31,3.69-7.31c10.99-1.61,19.68-10.3,21.29-21.29Z"/>
        <circle class="cls-1" cx="458.82" cy="147.71" r="22.4"/>
        <path class="cls-7" d="m458.82,133.85c-7.64,0-13.86,6.22-13.86,13.86s6.22,13.86,13.86,13.86,13.86-6.22,13.86-13.86-6.22-13.86-13.86-13.86Z"/>
        <path class="cls-12" d="m458.82,163.57c-8.74,0-15.86-7.11-15.86-15.86s7.11-15.86,15.86-15.86,15.86,7.11,15.86,15.86-7.11,15.86-15.86,15.86Zm0-29.71c-7.64,0-13.86,6.22-13.86,13.86s6.22,13.86,13.86,13.86,13.86-6.22,13.86-13.86-6.22-13.86-13.86-13.86Z"/>
        <circle class="cls-12" cx="458.82" cy="147.71" r="3.34"/>
        <path class="cls-1" d="m458.82,155.25c-4.16,0-7.54-3.38-7.54-7.55s3.38-7.55,7.54-7.55,7.54,3.38,7.54,7.55-3.38,7.55-7.54,7.55Zm0-14.09c-3.61,0-6.54,2.94-6.54,6.55s2.94,6.55,6.54,6.55,6.54-2.94,6.54-6.55-2.94-6.55-6.54-6.55Z"/>
      </g>
      <g>
        <path class="cls-2" d="m568.25,137.54l7.29-3.68-7.29-3.68c-1.61-10.99-10.3-19.68-21.29-21.29l-3.69-7.31-3.69,7.31c-10.99,1.61-19.68,10.3-21.29,21.3l-7.28,3.68,7.28,3.68c1.6,11,10.29,19.69,21.29,21.3l3.69,7.31,3.69-7.31c10.99-1.61,19.68-10.3,21.29-21.29Z"/>
        <circle class="cls-1" cx="543.27" cy="133.85" r="22.4"/>
        <path class="cls-7" d="m543.27,120c-7.64,0-13.86,6.22-13.86,13.86s6.22,13.86,13.86,13.86,13.86-6.22,13.86-13.86-6.22-13.86-13.86-13.86Z"/>
        <path class="cls-12" d="m543.27,149.71c-8.74,0-15.86-7.11-15.86-15.86s7.11-15.86,15.86-15.86,15.86,7.11,15.86,15.86-7.11,15.86-15.86,15.86Zm0-29.71c-7.64,0-13.86,6.22-13.86,13.86s6.22,13.86,13.86,13.86,13.86-6.22,13.86-13.86-6.22-13.86-13.86-13.86Z"/>
        <circle class="cls-12" cx="543.27" cy="133.85" r="3.34"/>
        <path class="cls-1" d="m543.27,141.4c-4.16,0-7.54-3.38-7.54-7.55s3.38-7.55,7.54-7.55,7.54,3.38,7.54,7.55-3.38,7.55-7.54,7.55Zm0-14.09c-3.61,0-6.54,2.94-6.54,6.55s2.94,6.55,6.54,6.55,6.54-2.94,6.54-6.55-2.94-6.55-6.54-6.55Z"/>
      </g>
      <g>
        <path class="cls-2" d="m657.87,69.47l7.29-3.68-7.29-3.68c-1.61-10.99-10.3-19.68-21.29-21.29l-3.69-7.31-3.69,7.31c-10.99,1.61-19.68,10.3-21.29,21.3l-7.28,3.68,7.28,3.68c1.6,11,10.29,19.69,21.29,21.3l3.69,7.31,3.69-7.31c10.99-1.61,19.68-10.3,21.29-21.29Z"/>
        <circle class="cls-3" cx="632.9" cy="65.79" r="22.4"/>
        <path class="cls-7" d="m632.9,51.93c-7.64,0-13.86,6.22-13.86,13.86s6.22,13.86,13.86,13.86,13.86-6.22,13.86-13.86-6.22-13.86-13.86-13.86Z"/>
        <path class="cls-12" d="m632.9,81.64c-8.74,0-15.86-7.11-15.86-15.86s7.11-15.86,15.86-15.86,15.86,7.11,15.86,15.86-7.11,15.86-15.86,15.86Zm0-29.71c-7.64,0-13.86,6.22-13.86,13.86s6.22,13.86,13.86,13.86,13.86-6.22,13.86-13.86-6.22-13.86-13.86-13.86Z"/>
        <circle class="cls-12" cx="632.9" cy="65.79" r="3.34"/>
        <path class="cls-9" d="m632.9,73.33c-4.16,0-7.54-3.38-7.54-7.55s3.38-7.55,7.54-7.55,7.54,3.38,7.54,7.55-3.38,7.55-7.54,7.55Zm0-14.09c-3.61,0-6.54,2.94-6.54,6.55s2.94,6.55,6.54,6.55,6.54-2.94,6.54-6.55-2.94-6.55-6.54-6.55Z"/>
      </g>
      <g>
        <path class="cls-2" d="m184.79,221.09l7.29-3.68-7.29-3.68c-1.61-10.99-10.3-19.68-21.29-21.29l-3.69-7.31-3.69,7.31c-10.99,1.61-19.68,10.3-21.29,21.3l-7.28,3.68,7.28,3.68c1.6,11,10.29,19.69,21.29,21.3l3.69,7.31,3.69-7.31c10.99-1.61,19.68-10.3,21.29-21.29Z"/>
        <circle class="cls-8" cx="159.81" cy="217.41" r="22.4"/>
        <path class="cls-7" d="m159.81,203.55c-7.64,0-13.86,6.22-13.86,13.86s6.22,13.86,13.86,13.86,13.86-6.22,13.86-13.86-6.22-13.86-13.86-13.86Z"/>
        <path class="cls-12" d="m159.81,233.26c-8.74,0-15.86-7.11-15.86-15.86s7.11-15.86,15.86-15.86,15.86,7.11,15.86,15.86-7.11,15.86-15.86,15.86Zm0-29.71c-7.64,0-13.86,6.22-13.86,13.86s6.22,13.86,13.86,13.86,13.86-6.22,13.86-13.86-6.22-13.86-13.86-13.86Z"/>
        <circle class="cls-12" cx="159.81" cy="217.41" r="3.34"/>
        <path class="cls-2" d="m159.81,224.95c-4.16,0-7.54-3.38-7.54-7.55s3.38-7.55,7.54-7.55,7.54,3.38,7.54,7.55-3.38,7.55-7.54,7.55Zm0-14.09c-3.61,0-6.54,2.94-6.54,6.55s2.94,6.55,6.54,6.55,6.54-2.94,6.54-6.55-2.94-6.55-6.54-6.55Z"/>
      </g>
      <g>
        <path class="cls-2" d="m164.79,167.25l7.29-3.68-7.29-3.68c-1.61-10.99-10.3-19.68-21.29-21.29l-3.69-7.31-3.69,7.31c-10.99,1.61-19.68,10.3-21.29,21.3l-7.28,3.68,7.28,3.68c1.6,11,10.29,19.69,21.29,21.3l3.69,7.31,3.69-7.31c10.99-1.61,19.68-10.3,21.29-21.29Z"/>
        <circle class="cls-11" cx="139.81" cy="163.57" r="22.4"/>
        <path class="cls-7" d="m139.81,149.71c-7.64,0-13.86,6.22-13.86,13.86s6.22,13.86,13.86,13.86,13.86-6.22,13.86-13.86-6.22-13.86-13.86-13.86Z"/>
        <path class="cls-12" d="m139.81,179.42c-8.74,0-15.86-7.11-15.86-15.86s7.11-15.86,15.86-15.86,15.86,7.11,15.86,15.86-7.11,15.86-15.86,15.86Zm0-29.71c-7.64,0-13.86,6.22-13.86,13.86s6.22,13.86,13.86,13.86,13.86-6.22,13.86-13.86-6.22-13.86-13.86-13.86Z"/>
        <circle class="cls-12" cx="139.81" cy="163.57" r="3.34"/>
        <path class="cls-2" d="m139.81,171.11c-4.16,0-7.54-3.38-7.54-7.55s3.38-7.55,7.54-7.55,7.54,3.38,7.54,7.55-3.38,7.55-7.54,7.55Zm0-14.09c-3.61,0-6.54,2.94-6.54,6.55s2.94,6.55,6.54,6.55,6.54-2.94,6.54-6.55-2.94-6.55-6.54-6.55Z"/>
      </g>
      <circle class="cls-13" cx="190.37" cy="312.58" r="15.26"/>
      <path class="cls-7" d="m186.56,315.77l1.48-1.41c.67.76,1.37,1.18,2.37,1.18.81,0,1.39-.46,1.39-1.19v-.03c0-.8-.71-1.25-1.92-1.25h-.9l-.34-1.37,2.34-2.35h-3.85v-1.85h6.63v1.62l-2.48,2.37c1.33.22,2.63.92,2.63,2.75v.03c0,1.85-1.34,3.21-3.53,3.21-1.76,0-2.98-.7-3.82-1.69Z"/>
      <g>
        <path class="cls-5" d="m105.29,18.75h-2.83v-.88h6.61v.88h-2.83v7.52h-.95v-7.52Z"/>
        <path class="cls-5" d="m110.33,17.69h1.06v1.02h-1.06v-1.02Zm.06,2.38h.92v6.2h-.92v-6.2Z"/>
        <path class="cls-5" d="m113.47,20.07h.92v1.04c.41-.61.96-1.17,2-1.17s1.66.54,1.99,1.23c.44-.68,1.1-1.23,2.18-1.23,1.43,0,2.3.96,2.3,2.49v3.84h-.92v-3.62c0-1.2-.6-1.87-1.61-1.87-.94,0-1.72.7-1.72,1.92v3.57h-.91v-3.65c0-1.16-.61-1.85-1.6-1.85s-1.73.82-1.73,1.96v3.54h-.92v-6.2Z"/>
        <path class="cls-5" d="m124.46,23.18v-.02c0-1.79,1.26-3.23,2.97-3.23,1.83,0,2.89,1.46,2.89,3.27,0,.12,0,.19-.01.3h-4.92c.13,1.34,1.08,2.1,2.18,2.1.85,0,1.45-.35,1.95-.88l.58.52c-.62.7-1.38,1.16-2.55,1.16-1.7,0-3.09-1.31-3.09-3.23Zm4.93-.36c-.1-1.13-.74-2.11-1.98-2.11-1.08,0-1.9.9-2.01,2.11h3.99Z"/>
        <path class="cls-5" d="m132.03,17.51h.92v8.75h-.92v-8.75Z"/>
        <path class="cls-5" d="m139.74,20.07h.98l-2.6,6.4c-.53,1.28-1.13,1.75-2.06,1.75-.52,0-.9-.11-1.32-.31l.31-.73c.3.16.58.23.97.23.55,0,.9-.29,1.27-1.16l-2.82-6.18h1.02l2.25,5.17,1.99-5.17Z"/>
        <path class="cls-5" d="m145.79,20.07h.92v1.62c.46-1.03,1.36-1.78,2.53-1.73v1h-.07c-1.36,0-2.46.97-2.46,2.84v2.47h-.92v-6.2Z"/>
        <path class="cls-5" d="m150,23.18v-.02c0-1.79,1.26-3.23,2.97-3.23,1.83,0,2.89,1.46,2.89,3.27,0,.12,0,.19-.01.3h-4.92c.13,1.34,1.08,2.1,2.18,2.1.85,0,1.45-.35,1.95-.88l.58.52c-.62.7-1.38,1.16-2.55,1.16-1.7,0-3.09-1.31-3.09-3.23Zm4.93-.36c-.1-1.13-.74-2.11-1.98-2.11-1.08,0-1.9.9-2.01,2.11h3.99Z"/>
        <path class="cls-5" d="m157.84,20.88h-.85v-.8h.85v-.54c0-.71.19-1.25.54-1.59.31-.31.77-.48,1.33-.48.43,0,.72.05,1.02.16v.8c-.34-.1-.59-.16-.9-.16-.72,0-1.08.43-1.08,1.32v.5h1.97v.79h-1.96v5.38h-.92v-5.38Z"/>
        <path class="cls-5" d="m161.39,23.18v-.02c0-1.79,1.26-3.23,2.97-3.23,1.83,0,2.89,1.46,2.89,3.27,0,.12,0,.19-.01.3h-4.92c.13,1.34,1.08,2.1,2.18,2.1.85,0,1.45-.35,1.96-.88l.58.52c-.62.7-1.38,1.16-2.55,1.16-1.7,0-3.09-1.31-3.09-3.23Zm4.93-.36c-.1-1.13-.74-2.11-1.98-2.11-1.08,0-1.89.9-2.01,2.11h3.99Z"/>
        <path class="cls-5" d="m168.88,20.07h.92v1.62c.46-1.03,1.36-1.78,2.53-1.73v1h-.07c-1.36,0-2.46.97-2.46,2.84v2.47h-.92v-6.2Z"/>
        <path class="cls-5" d="m173.74,20.07h.92v1.62c.46-1.03,1.35-1.78,2.53-1.73v1h-.07c-1.36,0-2.46.97-2.46,2.84v2.47h-.92v-6.2Z"/>
        <path class="cls-5" d="m177.83,24.47v-.02c0-1.31,1.08-2,2.65-2,.79,0,1.36.11,1.91.26v-.22c0-1.12-.68-1.69-1.85-1.69-.73,0-1.31.19-1.88.46l-.28-.75c.68-.31,1.36-.52,2.26-.52s1.55.23,2,.68c.42.42.64,1.02.64,1.81v3.79h-.89v-.94c-.43.56-1.15,1.07-2.24,1.07-1.15,0-2.31-.66-2.31-1.93Zm4.57-.48v-.6c-.46-.13-1.07-.26-1.82-.26-1.16,0-1.81.5-1.81,1.28v.02c0,.78.72,1.24,1.56,1.24,1.14,0,2.08-.7,2.08-1.68Z"/>
        <path class="cls-5" d="m185.33,17.51h.92v8.75h-.92v-8.75Z"/>
        <path class="cls-5" d="m191.54,24.47v-.02c0-1.31,1.08-2,2.65-2,.79,0,1.36.11,1.91.26v-.22c0-1.12-.68-1.69-1.85-1.69-.73,0-1.31.19-1.88.46l-.28-.75c.68-.31,1.36-.52,2.26-.52s1.55.23,2,.68c.42.42.64,1.02.64,1.81v3.79h-.89v-.94c-.43.56-1.15,1.07-2.24,1.07-1.15,0-2.31-.66-2.31-1.93Zm4.57-.48v-.6c-.46-.13-1.07-.26-1.82-.26-1.16,0-1.81.5-1.81,1.28v.02c0,.78.72,1.24,1.56,1.24,1.14,0,2.08-.7,2.08-1.68Z"/>
        <path class="cls-5" d="m198.95,20.07h.92v1.08c.41-.67,1.06-1.21,2.12-1.21,1.5,0,2.38,1.01,2.38,2.48v3.85h-.92v-3.62c0-1.15-.62-1.87-1.71-1.87s-1.86.78-1.86,1.94v3.55h-.92v-6.2Z"/>
        <path class="cls-5" d="m205.98,23.18v-.02c0-2.03,1.48-3.23,2.96-3.23,1.15,0,1.89.62,2.38,1.32v-3.74h.92v8.75h-.92v-1.25c-.5.74-1.24,1.38-2.38,1.38-1.49,0-2.96-1.17-2.96-3.21Zm5.37-.01v-.02c0-1.43-1.09-2.39-2.24-2.39s-2.18.89-2.18,2.39v.02c0,1.46,1.01,2.4,2.18,2.4s2.24-.97,2.24-2.4Z"/>
        <path class="cls-5" d="m217.55,23.18v-.02c0-2.03,1.47-3.23,2.96-3.23,1.15,0,1.9.62,2.38,1.32v-3.74h.92v8.75h-.92v-1.25c-.5.74-1.23,1.38-2.38,1.38-1.49,0-2.96-1.17-2.96-3.21Zm5.37-.01v-.02c0-1.43-1.09-2.39-2.24-2.39s-2.18.89-2.18,2.39v.02c0,1.46,1.01,2.4,2.18,2.4s2.24-.97,2.24-2.4Z"/>
        <path class="cls-5" d="m225.9,17.69h1.05v1.02h-1.05v-1.02Zm.06,2.38h.92v6.2h-.92v-6.2Z"/>
        <path class="cls-5" d="m228.57,24.47v-.02c0-1.31,1.08-2,2.65-2,.79,0,1.35.11,1.91.26v-.22c0-1.12-.68-1.69-1.85-1.69-.73,0-1.31.19-1.88.46l-.28-.75c.68-.31,1.36-.52,2.25-.52s1.55.23,2,.68c.42.42.64,1.02.64,1.81v3.79h-.89v-.94c-.43.56-1.15,1.07-2.24,1.07-1.15,0-2.32-.66-2.32-1.93Zm4.57-.48v-.6c-.46-.13-1.07-.26-1.82-.26-1.16,0-1.81.5-1.81,1.28v.02c0,.78.72,1.24,1.56,1.24,1.14,0,2.07-.7,2.07-1.68Z"/>
        <path class="cls-5" d="m235.91,27.35l.42-.72c.71.52,1.5.79,2.39.79,1.37,0,2.25-.76,2.25-2.21v-.73c-.54.72-1.29,1.31-2.44,1.31-1.49,0-2.91-1.12-2.91-2.9v-.02c0-1.81,1.44-2.93,2.91-2.93,1.16,0,1.92.58,2.42,1.25v-1.12h.92v5.12c0,.96-.29,1.69-.79,2.19-.55.55-1.38.83-2.36.83s-1.99-.29-2.82-.86Zm5.08-4.47v-.02c0-1.27-1.1-2.1-2.28-2.1s-2.15.82-2.15,2.09v.02c0,1.25,1,2.11,2.15,2.11s2.28-.85,2.28-2.1Z"/>
        <path class="cls-5" d="m243.95,20.07h.92v1.08c.41-.67,1.05-1.21,2.12-1.21,1.5,0,2.38,1.01,2.38,2.48v3.85h-.92v-3.62c0-1.15-.62-1.87-1.71-1.87s-1.86.78-1.86,1.94v3.55h-.92v-6.2Z"/>
        <path class="cls-5" d="m250.96,23.2v-.02c0-1.75,1.37-3.24,3.24-3.24s3.23,1.46,3.23,3.21v.02c0,1.75-1.38,3.24-3.25,3.24s-3.21-1.46-3.21-3.21Zm5.52,0v-.02c0-1.33-1-2.42-2.3-2.42s-2.27,1.09-2.27,2.4v.02c0,1.33.98,2.41,2.29,2.41s2.28-1.08,2.28-2.39Z"/>
        <path class="cls-5" d="m258.58,25.47l.47-.66c.67.5,1.42.79,2.15.79s1.28-.38,1.28-.98v-.02c0-.62-.73-.86-1.55-1.09-.97-.28-2.05-.61-2.05-1.75v-.02c0-1.07.89-1.78,2.11-1.78.76,0,1.59.26,2.23.68l-.42.7c-.58-.37-1.24-.6-1.83-.6-.73,0-1.2.38-1.2.9v.02c0,.59.77.82,1.59,1.07.96.29,1.99.66,1.99,1.78v.02c0,1.18-.97,1.86-2.21,1.86-.89,0-1.87-.35-2.57-.91Z"/>
        <path class="cls-5" d="m265.09,17.69h1.05v1.02h-1.05v-1.02Zm.06,2.38h.92v6.2h-.92v-6.2Z"/>
        <path class="cls-5" d="m267.71,25.47l.47-.66c.67.5,1.42.79,2.15.79s1.28-.38,1.28-.98v-.02c0-.62-.73-.86-1.55-1.09-.97-.28-2.05-.61-2.05-1.75v-.02c0-1.07.89-1.78,2.11-1.78.76,0,1.6.26,2.23.68l-.42.7c-.58-.37-1.24-.6-1.83-.6-.73,0-1.2.38-1.2.9v.02c0,.59.77.82,1.6,1.07.96.29,1.99.66,1.99,1.78v.02c0,1.18-.97,1.86-2.21,1.86-.89,0-1.87-.35-2.57-.91Z"/>
        <path class="cls-5" d="m273.72,27.31c.6-.22.85-.53.8-1.04h-.43v-1.26h1.1v1.08c0,.97-.42,1.44-1.33,1.64l-.14-.42Z"/>
        <path class="cls-5" d="m281.09,20.88h-.85v-.8h.85v-.54c0-.71.19-1.25.54-1.59.31-.31.77-.48,1.33-.48.43,0,.72.05,1.02.16v.8c-.34-.1-.59-.16-.9-.16-.72,0-1.08.43-1.08,1.32v.5h1.97v.79h-1.96v5.38h-.92v-5.38Z"/>
        <path class="cls-5" d="m284.64,23.2v-.02c0-1.75,1.37-3.24,3.24-3.24s3.23,1.46,3.23,3.21v.02c0,1.75-1.38,3.24-3.25,3.24s-3.21-1.46-3.21-3.21Zm5.52,0v-.02c0-1.33-1-2.42-2.3-2.42s-2.27,1.09-2.27,2.4v.02c0,1.33.98,2.41,2.29,2.41s2.28-1.08,2.28-2.39Z"/>
        <path class="cls-5" d="m292.86,17.51h.92v8.75h-.92v-8.75Z"/>
        <path class="cls-5" d="m296.02,17.51h.92v8.75h-.92v-8.75Z"/>
        <path class="cls-5" d="m298.7,23.2v-.02c0-1.75,1.37-3.24,3.24-3.24s3.23,1.46,3.23,3.21v.02c0,1.75-1.38,3.24-3.25,3.24s-3.21-1.46-3.21-3.21Zm5.52,0v-.02c0-1.33-1-2.42-2.3-2.42s-2.27,1.09-2.27,2.4v.02c0,1.33.98,2.41,2.29,2.41s2.28-1.08,2.28-2.39Z"/>
        <path class="cls-5" d="m306.01,20.07h.98l1.63,4.98,1.67-5h.77l1.68,5,1.63-4.98h.96l-2.18,6.25h-.8l-1.67-4.89-1.68,4.89h-.82l-2.17-6.25Z"/>
        <path class="cls-5" d="m316.19,23.18v-.02c0-1.79,1.26-3.23,2.97-3.23,1.84,0,2.89,1.46,2.89,3.27,0,.12,0,.19-.01.3h-4.92c.13,1.34,1.08,2.1,2.18,2.1.85,0,1.45-.35,1.96-.88l.58.52c-.62.7-1.38,1.16-2.55,1.16-1.7,0-3.1-1.31-3.1-3.23Zm4.93-.36c-.1-1.13-.74-2.11-1.98-2.11-1.08,0-1.89.9-2.02,2.11h3.99Z"/>
        <path class="cls-5" d="m323.32,23.18v-.02c0-2.03,1.48-3.23,2.96-3.23,1.15,0,1.89.62,2.38,1.32v-3.74h.92v8.75h-.92v-1.25c-.5.74-1.24,1.38-2.38,1.38-1.49,0-2.96-1.17-2.96-3.21Zm5.37-.01v-.02c0-1.43-1.09-2.39-2.24-2.39s-2.18.89-2.18,2.39v.02c0,1.46,1.01,2.4,2.18,2.4s2.24-.97,2.24-2.4Z"/>
        <path class="cls-5" d="m336.17,25.08v1.19h-.92v-8.75h.92v3.8c.5-.74,1.23-1.38,2.37-1.38,1.49,0,2.96,1.17,2.96,3.21v.02c0,2.03-1.46,3.23-2.96,3.23-1.15,0-1.9-.62-2.37-1.32Zm4.39-1.89v-.02c0-1.46-1.01-2.4-2.18-2.4s-2.24.97-2.24,2.39v.02c0,1.44,1.09,2.4,2.24,2.4s2.18-.89,2.18-2.39Z"/>
        <path class="cls-5" d="m347.55,20.07h.98l-2.6,6.4c-.53,1.28-1.13,1.75-2.06,1.75-.52,0-.9-.11-1.32-.31l.31-.73c.3.16.58.23.97.23.55,0,.9-.29,1.27-1.16l-2.82-6.18h1.02l2.26,5.17,1.99-5.17Z"/>
        <path class="cls-5" d="m353.63,17.69h1.05v1.02h-1.05v-1.02Zm.06,2.38h.92v6.2h-.92v-6.2Z"/>
        <path class="cls-5" d="m356.76,20.07h.92v1.04c.41-.61.96-1.17,2-1.17s1.65.54,1.99,1.23c.44-.68,1.1-1.23,2.18-1.23,1.43,0,2.3.96,2.3,2.49v3.84h-.92v-3.62c0-1.2-.6-1.87-1.61-1.87-.94,0-1.71.7-1.71,1.92v3.57h-.91v-3.65c0-1.16-.61-1.85-1.59-1.85s-1.73.82-1.73,1.96v3.54h-.92v-6.2Z"/>
        <path class="cls-5" d="m368.14,20.07h.92v1.25c.5-.74,1.23-1.38,2.37-1.38,1.49,0,2.96,1.17,2.96,3.21v.02c0,2.03-1.46,3.23-2.96,3.23-1.15,0-1.9-.62-2.37-1.32v3.11h-.92v-8.12Zm5.31,3.12v-.02c0-1.46-1.01-2.4-2.18-2.4s-2.24.97-2.24,2.39v.02c0,1.44,1.09,2.4,2.24,2.4s2.18-.89,2.18-2.39Z"/>
        <path class="cls-5" d="m376.19,17.51h.92v8.75h-.92v-8.75Z"/>
        <path class="cls-5" d="m378.87,23.18v-.02c0-1.79,1.26-3.23,2.97-3.23,1.83,0,2.89,1.46,2.89,3.27,0,.12,0,.19-.01.3h-4.92c.13,1.34,1.08,2.1,2.18,2.1.85,0,1.45-.35,1.96-.88l.58.52c-.62.7-1.38,1.16-2.55,1.16-1.7,0-3.09-1.31-3.09-3.23Zm4.93-.36c-.1-1.13-.74-2.11-1.98-2.11-1.08,0-1.89.9-2.01,2.11h3.99Z"/>
        <path class="cls-5" d="m386.36,20.07h.92v1.04c.41-.61.96-1.17,2-1.17s1.65.54,1.99,1.23c.44-.68,1.1-1.23,2.18-1.23,1.43,0,2.3.96,2.3,2.49v3.84h-.92v-3.62c0-1.2-.6-1.87-1.61-1.87-.94,0-1.71.7-1.71,1.92v3.57h-.91v-3.65c0-1.16-.61-1.85-1.59-1.85s-1.73.82-1.73,1.96v3.54h-.92v-6.2Z"/>
        <path class="cls-5" d="m397.35,23.18v-.02c0-1.79,1.26-3.23,2.97-3.23,1.84,0,2.89,1.46,2.89,3.27,0,.12,0,.19-.01.3h-4.92c.13,1.34,1.08,2.1,2.18,2.1.85,0,1.45-.35,1.96-.88l.58.52c-.62.7-1.38,1.16-2.55,1.16-1.7,0-3.1-1.31-3.1-3.23Zm4.93-.36c-.1-1.13-.74-2.11-1.98-2.11-1.08,0-1.89.9-2.02,2.11h3.99Z"/>
        <path class="cls-5" d="m404.84,20.07h.92v1.08c.41-.67,1.05-1.21,2.12-1.21,1.5,0,2.38,1.01,2.38,2.48v3.85h-.92v-3.62c0-1.15-.62-1.87-1.71-1.87s-1.86.78-1.86,1.94v3.55h-.92v-6.2Z"/>
        <path class="cls-5" d="m412.56,24.62v-3.74h-.86v-.82h.86v-1.87h.92v1.87h1.97v.82h-1.97v3.62c0,.75.42,1.03,1.04,1.03.31,0,.58-.06.9-.22v.79c-.32.17-.67.26-1.12.26-1,0-1.75-.49-1.75-1.75Z"/>
        <path class="cls-5" d="m417.11,17.69h1.06v1.02h-1.06v-1.02Zm.06,2.38h.92v6.2h-.92v-6.2Z"/>
        <path class="cls-5" d="m420.24,20.07h.92v1.08c.41-.67,1.05-1.21,2.12-1.21,1.5,0,2.38,1.01,2.38,2.48v3.85h-.92v-3.62c0-1.15-.62-1.87-1.71-1.87s-1.86.78-1.86,1.94v3.55h-.92v-6.2Z"/>
        <path class="cls-5" d="m427.56,27.35l.42-.72c.71.52,1.5.79,2.39.79,1.37,0,2.25-.76,2.25-2.21v-.73c-.54.72-1.29,1.31-2.43,1.31-1.49,0-2.92-1.12-2.92-2.9v-.02c0-1.81,1.44-2.93,2.92-2.93,1.16,0,1.92.58,2.42,1.25v-1.12h.92v5.12c0,.96-.29,1.69-.79,2.19-.55.55-1.38.83-2.36.83-1.03,0-1.99-.29-2.82-.86Zm5.08-4.47v-.02c0-1.27-1.1-2.1-2.28-2.1s-2.15.82-2.15,2.09v.02c0,1.25,1,2.11,2.15,2.11s2.28-.85,2.28-2.1Z"/>
        <path class="cls-5" d="m438.73,24.47v-.02c0-1.31,1.08-2,2.65-2,.79,0,1.35.11,1.91.26v-.22c0-1.12-.68-1.69-1.85-1.69-.73,0-1.31.19-1.88.46l-.28-.75c.68-.31,1.36-.52,2.25-.52s1.55.23,2,.68c.42.42.64,1.02.64,1.81v3.79h-.89v-.94c-.43.56-1.15,1.07-2.24,1.07-1.15,0-2.32-.66-2.32-1.93Zm4.57-.48v-.6c-.46-.13-1.07-.26-1.82-.26-1.16,0-1.81.5-1.81,1.28v.02c0,.78.72,1.24,1.56,1.24,1.14,0,2.07-.7,2.07-1.68Z"/>
        <path class="cls-5" d="m452.08,18.75h-2.83v-.88h6.61v.88h-2.83v7.52h-.95v-7.52Z"/>
        <path class="cls-5" d="m456.98,25.53l3.05-2.69c1.28-1.15,1.75-1.8,1.75-2.64,0-.98-.78-1.61-1.69-1.61-.96,0-1.58.5-2.25,1.44l-.7-.5c.76-1.13,1.55-1.79,3.02-1.79s2.6,1.01,2.6,2.38v.02c0,1.22-.65,1.98-2.12,3.26l-2.24,1.99h4.45v.86h-5.86v-.73Z"/>
        <path class="cls-5" d="m466.96,18.75h-2.83v-.88h6.61v.88h-2.83v7.52h-.95v-7.52Z"/>
        <path class="cls-5" d="m475.45,24.47v-.02c0-1.31,1.08-2,2.65-2,.79,0,1.36.11,1.91.26v-.22c0-1.12-.68-1.69-1.85-1.69-.73,0-1.31.19-1.88.46l-.28-.75c.68-.31,1.36-.52,2.25-.52s1.55.23,2,.68c.42.42.64,1.02.64,1.81v3.79h-.89v-.94c-.43.56-1.15,1.07-2.24,1.07-1.15,0-2.31-.66-2.31-1.93Zm4.57-.48v-.6c-.46-.13-1.07-.26-1.82-.26-1.16,0-1.81.5-1.81,1.28v.02c0,.78.72,1.24,1.56,1.24,1.14,0,2.08-.7,2.08-1.68Z"/>
        <path class="cls-5" d="m482.87,20.07h.92v1.25c.5-.74,1.23-1.38,2.37-1.38,1.49,0,2.96,1.17,2.96,3.21v.02c0,2.03-1.46,3.23-2.96,3.23-1.15,0-1.9-.62-2.37-1.32v3.11h-.92v-8.12Zm5.31,3.12v-.02c0-1.46-1.01-2.4-2.18-2.4s-2.24.97-2.24,2.39v.02c0,1.44,1.09,2.4,2.24,2.4s2.18-.89,2.18-2.39Z"/>
        <path class="cls-5" d="m490.83,20.07h.92v1.25c.5-.74,1.24-1.38,2.38-1.38,1.49,0,2.96,1.17,2.96,3.21v.02c0,2.03-1.46,3.23-2.96,3.23-1.15,0-1.89-.62-2.38-1.32v3.11h-.92v-8.12Zm5.31,3.12v-.02c0-1.46-1.01-2.4-2.18-2.4s-2.24.97-2.24,2.39v.02c0,1.44,1.09,2.4,2.24,2.4s2.18-.89,2.18-2.39Z"/>
        <path class="cls-5" d="m498.8,20.07h.92v1.62c.46-1.03,1.35-1.78,2.53-1.73v1h-.07c-1.36,0-2.46.97-2.46,2.84v2.47h-.92v-6.2Z"/>
        <path class="cls-5" d="m503.01,23.2v-.02c0-1.75,1.37-3.24,3.24-3.24s3.23,1.46,3.23,3.21v.02c0,1.75-1.38,3.24-3.25,3.24s-3.21-1.46-3.21-3.21Zm5.52,0v-.02c0-1.33-1-2.42-2.3-2.42s-2.27,1.09-2.27,2.4v.02c0,1.33.98,2.41,2.29,2.41s2.28-1.08,2.28-2.39Z"/>
        <path class="cls-5" d="m510.68,24.47v-.02c0-1.31,1.08-2,2.65-2,.79,0,1.35.11,1.91.26v-.22c0-1.12-.68-1.69-1.85-1.69-.73,0-1.31.19-1.88.46l-.28-.75c.68-.31,1.36-.52,2.25-.52s1.55.23,2,.68c.42.42.64,1.02.64,1.81v3.79h-.89v-.94c-.43.56-1.15,1.07-2.24,1.07-1.15,0-2.32-.66-2.32-1.93Zm4.57-.48v-.6c-.46-.13-1.07-.26-1.82-.26-1.16,0-1.81.5-1.81,1.28v.02c0,.78.72,1.24,1.56,1.24,1.14,0,2.07-.7,2.07-1.68Z"/>
        <path class="cls-5" d="m517.71,23.2v-.02c0-1.75,1.37-3.24,3.18-3.24,1.18,0,1.91.49,2.48,1.1l-.61.65c-.49-.52-1.04-.94-1.88-.94-1.26,0-2.22,1.07-2.22,2.4v.02c0,1.34.98,2.41,2.28,2.41.79,0,1.4-.4,1.89-.92l.59.55c-.62.7-1.37,1.2-2.53,1.2-1.81,0-3.18-1.47-3.18-3.21Z"/>
        <path class="cls-5" d="m524.95,17.51h.92v3.63c.41-.67,1.06-1.21,2.12-1.21,1.5,0,2.38,1.01,2.38,2.48v3.85h-.92v-3.62c0-1.15-.62-1.87-1.71-1.87s-1.86.78-1.86,1.94v3.55h-.92v-8.75Z"/>
        <path class="cls-5" d="m531.86,27.31c.6-.22.85-.53.8-1.04h-.43v-1.26h1.1v1.08c0,.97-.42,1.44-1.33,1.64l-.14-.42Z"/>
        <path class="cls-5" d="m102.57,38.2v-.02c0-1.75,1.37-3.24,3.18-3.24,1.18,0,1.91.49,2.48,1.1l-.61.65c-.49-.52-1.04-.94-1.88-.94-1.26,0-2.22,1.07-2.22,2.4v.02c0,1.34.98,2.41,2.28,2.41.79,0,1.4-.4,1.9-.92l.59.55c-.62.7-1.37,1.2-2.53,1.2-1.81,0-3.18-1.47-3.18-3.21Z"/>
        <path class="cls-5" d="m109.24,38.2v-.02c0-1.75,1.37-3.24,3.24-3.24s3.23,1.46,3.23,3.21v.02c0,1.75-1.38,3.24-3.25,3.24s-3.21-1.46-3.21-3.21Zm5.52,0v-.02c0-1.33-1-2.42-2.3-2.42s-2.27,1.09-2.27,2.4v.02c0,1.33.98,2.41,2.29,2.41s2.28-1.08,2.28-2.39Z"/>
        <path class="cls-5" d="m117.28,38.92v-3.85h.92v3.62c0,1.15.62,1.87,1.72,1.87s1.86-.78,1.86-1.94v-3.55h.91v6.2h-.91v-1.08c-.42.67-1.06,1.21-2.12,1.21-1.5,0-2.37-1.01-2.37-2.48Z"/>
        <path class="cls-5" d="m124.85,32.51h.92v8.75h-.92v-8.75Z"/>
        <path class="cls-5" d="m127.56,38.18v-.02c0-2.03,1.48-3.23,2.96-3.23,1.15,0,1.89.62,2.38,1.32v-3.74h.92v8.75h-.92v-1.25c-.5.74-1.24,1.38-2.38,1.38-1.49,0-2.96-1.17-2.96-3.21Zm5.37-.01v-.02c0-1.43-1.09-2.39-2.24-2.39s-2.18.89-2.18,2.39v.02c0,1.46,1.01,2.4,2.18,2.4s2.24-.97,2.24-2.4Z"/>
        <path class="cls-5" d="m139.49,35.07h.92v1.25c.5-.74,1.24-1.38,2.38-1.38,1.49,0,2.96,1.17,2.96,3.21v.02c0,2.03-1.46,3.23-2.96,3.23-1.15,0-1.9-.62-2.38-1.32v3.11h-.92v-8.12Zm5.31,3.12v-.02c0-1.46-1.01-2.4-2.18-2.4s-2.24.97-2.24,2.39v.02c0,1.44,1.09,2.4,2.24,2.4s2.18-.89,2.18-2.39Z"/>
        <path class="cls-5" d="m147.08,38.2v-.02c0-1.75,1.37-3.24,3.24-3.24s3.23,1.46,3.23,3.21v.02c0,1.75-1.38,3.24-3.25,3.24s-3.21-1.46-3.21-3.21Zm5.52,0v-.02c0-1.33-1-2.42-2.3-2.42s-2.27,1.09-2.27,2.4v.02c0,1.33.98,2.41,2.29,2.41s2.28-1.08,2.28-2.39Z"/>
        <path class="cls-5" d="m155.54,39.62v-3.74h-.86v-.82h.86v-1.87h.92v1.87h1.97v.82h-1.97v3.62c0,.75.42,1.03,1.04,1.03.31,0,.58-.06.9-.22v.79c-.32.17-.67.26-1.12.26-1,0-1.75-.49-1.75-1.75Z"/>
        <path class="cls-5" d="m159.5,38.18v-.02c0-1.79,1.26-3.23,2.97-3.23,1.83,0,2.89,1.46,2.89,3.27,0,.12,0,.19-.01.3h-4.92c.13,1.34,1.08,2.1,2.18,2.1.85,0,1.45-.35,1.95-.88l.58.52c-.62.7-1.38,1.16-2.55,1.16-1.7,0-3.09-1.31-3.09-3.23Zm4.93-.36c-.1-1.13-.74-2.11-1.98-2.11-1.08,0-1.9.9-2.02,2.11h3.99Z"/>
        <path class="cls-5" d="m166.98,35.07h.92v1.08c.41-.67,1.05-1.21,2.12-1.21,1.5,0,2.38,1.01,2.38,2.48v3.85h-.92v-3.62c0-1.15-.62-1.87-1.71-1.87s-1.86.78-1.86,1.94v3.55h-.92v-6.2Z"/>
        <path class="cls-5" d="m174.7,39.62v-3.74h-.86v-.82h.86v-1.87h.92v1.87h1.97v.82h-1.97v3.62c0,.75.42,1.03,1.04,1.03.31,0,.58-.06.9-.22v.79c-.32.17-.67.26-1.12.26-1,0-1.75-.49-1.75-1.75Z"/>
        <path class="cls-5" d="m179.25,32.69h1.05v1.02h-1.05v-1.02Zm.06,2.38h.92v6.2h-.92v-6.2Z"/>
        <path class="cls-5" d="m181.91,39.47v-.02c0-1.31,1.08-2,2.65-2,.79,0,1.36.11,1.91.26v-.22c0-1.12-.68-1.69-1.85-1.69-.73,0-1.31.19-1.88.46l-.28-.75c.68-.31,1.36-.52,2.26-.52s1.55.23,2,.68c.42.42.64,1.02.64,1.81v3.79h-.89v-.94c-.43.56-1.15,1.07-2.24,1.07-1.15,0-2.31-.66-2.31-1.93Zm4.57-.48v-.6c-.46-.13-1.07-.26-1.82-.26-1.16,0-1.81.5-1.81,1.28v.02c0,.78.72,1.24,1.56,1.24,1.14,0,2.08-.7,2.08-1.68Z"/>
        <path class="cls-5" d="m189.41,32.51h.92v8.75h-.92v-8.75Z"/>
        <path class="cls-5" d="m192.57,32.51h.92v8.75h-.92v-8.75Z"/>
        <path class="cls-5" d="m200.28,35.07h.98l-2.6,6.4c-.53,1.28-1.13,1.75-2.06,1.75-.52,0-.9-.11-1.32-.31l.31-.73c.3.16.58.23.97.23.55,0,.9-.29,1.27-1.16l-2.82-6.18h1.02l2.25,5.17,1.99-5.17Z"/>
        <path class="cls-5" d="m206.35,32.69h1.06v1.02h-1.06v-1.02Zm.06,2.38h.92v6.2h-.92v-6.2Z"/>
        <path class="cls-5" d="m209.49,35.07h.92v1.04c.41-.61.96-1.17,2-1.17s1.66.54,1.99,1.23c.44-.68,1.1-1.23,2.18-1.23,1.43,0,2.3.96,2.3,2.49v3.84h-.92v-3.62c0-1.2-.6-1.87-1.61-1.87-.94,0-1.72.7-1.72,1.92v3.57h-.91v-3.65c0-1.16-.61-1.85-1.6-1.85s-1.73.82-1.73,1.96v3.54h-.92v-6.2Z"/>
        <path class="cls-5" d="m220.86,35.07h.92v1.25c.5-.74,1.24-1.38,2.38-1.38,1.49,0,2.96,1.17,2.96,3.21v.02c0,2.03-1.46,3.23-2.96,3.23-1.15,0-1.89-.62-2.38-1.32v3.11h-.92v-8.12Zm5.31,3.12v-.02c0-1.46-1.01-2.4-2.18-2.4s-2.24.97-2.24,2.39v.02c0,1.44,1.09,2.4,2.24,2.4s2.18-.89,2.18-2.39Z"/>
        <path class="cls-5" d="m228.83,35.07h.92v1.62c.46-1.03,1.35-1.78,2.53-1.73v1h-.07c-1.36,0-2.46.97-2.46,2.84v2.47h-.92v-6.2Z"/>
        <path class="cls-5" d="m233.04,38.2v-.02c0-1.75,1.37-3.24,3.24-3.24s3.23,1.46,3.23,3.21v.02c0,1.75-1.38,3.24-3.25,3.24s-3.21-1.46-3.21-3.21Zm5.52,0v-.02c0-1.33-1-2.42-2.3-2.42s-2.27,1.09-2.27,2.4v.02c0,1.33.98,2.41,2.29,2.41s2.28-1.08,2.28-2.39Z"/>
        <path class="cls-5" d="m240.21,35.07h1.02l2.09,5.14,2.1-5.14h1l-2.7,6.25h-.82l-2.69-6.25Z"/>
        <path class="cls-5" d="m247.12,38.18v-.02c0-1.79,1.26-3.23,2.97-3.23,1.84,0,2.89,1.46,2.89,3.27,0,.12,0,.19-.01.3h-4.92c.13,1.34,1.08,2.1,2.18,2.1.85,0,1.45-.35,1.96-.88l.58.52c-.62.7-1.38,1.16-2.55,1.16-1.7,0-3.1-1.31-3.1-3.23Zm4.93-.36c-.1-1.13-.74-2.11-1.98-2.11-1.08,0-1.89.9-2.02,2.11h3.99Z"/>
        <path class="cls-5" d="m257.82,38.2v-.02c0-1.75,1.37-3.24,3.24-3.24s3.23,1.46,3.23,3.21v.02c0,1.75-1.38,3.24-3.25,3.24s-3.21-1.46-3.21-3.21Zm5.52,0v-.02c0-1.33-1-2.42-2.3-2.42s-2.27,1.09-2.27,2.4v.02c0,1.33.98,2.41,2.29,2.41s2.28-1.08,2.28-2.39Z"/>
        <path class="cls-5" d="m265.86,38.92v-3.85h.92v3.62c0,1.15.62,1.87,1.71,1.87s1.86-.78,1.86-1.94v-3.55h.91v6.2h-.91v-1.08c-.42.67-1.06,1.21-2.12,1.21-1.5,0-2.38-1.01-2.38-2.48Z"/>
        <path class="cls-5" d="m273.67,39.62v-3.74h-.86v-.82h.86v-1.87h.92v1.87h1.97v.82h-1.97v3.62c0,.75.42,1.03,1.04,1.03.31,0,.58-.06.9-.22v.79c-.32.17-.67.26-1.12.26-1,0-1.75-.49-1.75-1.75Z"/>
        <path class="cls-5" d="m277.63,38.2v-.02c0-1.75,1.37-3.24,3.18-3.24,1.18,0,1.91.49,2.48,1.1l-.61.65c-.49-.52-1.04-.94-1.88-.94-1.26,0-2.22,1.07-2.22,2.4v.02c0,1.34.98,2.41,2.28,2.41.79,0,1.4-.4,1.9-.92l.59.55c-.62.7-1.37,1.2-2.53,1.2-1.81,0-3.18-1.47-3.18-3.21Z"/>
        <path class="cls-5" d="m284.31,38.2v-.02c0-1.75,1.37-3.24,3.24-3.24s3.23,1.46,3.23,3.21v.02c0,1.75-1.38,3.24-3.25,3.24s-3.21-1.46-3.21-3.21Zm5.52,0v-.02c0-1.33-1-2.42-2.3-2.42s-2.27,1.09-2.27,2.4v.02c0,1.33.98,2.41,2.29,2.41s2.28-1.08,2.28-2.39Z"/>
        <path class="cls-5" d="m292.44,35.07h.92v1.04c.41-.61.96-1.17,2-1.17s1.65.54,1.99,1.23c.44-.68,1.1-1.23,2.18-1.23,1.43,0,2.3.96,2.3,2.49v3.84h-.92v-3.62c0-1.2-.6-1.87-1.61-1.87-.94,0-1.71.7-1.71,1.92v3.57h-.91v-3.65c0-1.16-.61-1.85-1.59-1.85s-1.73.82-1.73,1.96v3.54h-.92v-6.2Z"/>
        <path class="cls-5" d="m303.43,38.18v-.02c0-1.79,1.26-3.23,2.97-3.23,1.84,0,2.89,1.46,2.89,3.27,0,.12,0,.19-.01.3h-4.92c.13,1.34,1.08,2.1,2.18,2.1.85,0,1.45-.35,1.96-.88l.58.52c-.62.7-1.38,1.16-2.55,1.16-1.7,0-3.1-1.31-3.1-3.23Zm4.93-.36c-.1-1.13-.74-2.11-1.98-2.11-1.08,0-1.89.9-2.02,2.11h3.99Z"/>
        <path class="cls-5" d="m310.41,40.47l.47-.66c.67.5,1.42.79,2.15.79s1.28-.38,1.28-.98v-.02c0-.62-.73-.86-1.55-1.09-.97-.28-2.05-.61-2.05-1.75v-.02c0-1.07.89-1.78,2.11-1.78.76,0,1.6.26,2.23.68l-.42.7c-.58-.37-1.24-.6-1.83-.6-.73,0-1.2.38-1.2.9v.02c0,.59.77.82,1.6,1.07.96.29,1.99.66,1.99,1.78v.02c0,1.18-.97,1.86-2.21,1.86-.89,0-1.87-.35-2.57-.91Z"/>
        <path class="cls-5" d="m320.85,35.88h-.85v-.8h.85v-.54c0-.71.19-1.25.54-1.59.31-.31.77-.48,1.33-.48.43,0,.72.05,1.02.16v.8c-.33-.1-.59-.16-.9-.16-.72,0-1.08.43-1.08,1.32v.5h1.97v.79h-1.96v5.38h-.92v-5.38Z"/>
        <path class="cls-5" d="m324.4,38.2v-.02c0-1.75,1.37-3.24,3.24-3.24s3.23,1.46,3.23,3.21v.02c0,1.75-1.38,3.24-3.25,3.24s-3.21-1.46-3.21-3.21Zm5.52,0v-.02c0-1.33-1-2.42-2.3-2.42s-2.27,1.09-2.27,2.4v.02c0,1.33.98,2.41,2.29,2.41s2.28-1.08,2.28-2.39Z"/>
        <path class="cls-5" d="m332.53,35.07h.92v1.62c.46-1.03,1.35-1.78,2.53-1.73v1h-.07c-1.36,0-2.46.97-2.46,2.84v2.47h-.92v-6.2Z"/>
        <path class="cls-5" d="m340.99,35.07h.92v1.25c.5-.74,1.24-1.38,2.38-1.38,1.49,0,2.96,1.17,2.96,3.21v.02c0,2.03-1.46,3.23-2.96,3.23-1.15,0-1.9-.62-2.38-1.32v3.11h-.92v-8.12Zm5.31,3.12v-.02c0-1.46-1.01-2.4-2.18-2.4s-2.24.97-2.24,2.39v.02c0,1.44,1.09,2.4,2.24,2.4s2.18-.89,2.18-2.39Z"/>
        <path class="cls-5" d="m348.49,39.47v-.02c0-1.31,1.08-2,2.65-2,.79,0,1.36.11,1.91.26v-.22c0-1.12-.68-1.69-1.85-1.69-.73,0-1.31.19-1.88.46l-.28-.75c.68-.31,1.36-.52,2.25-.52s1.55.23,2,.68c.42.42.64,1.02.64,1.81v3.79h-.89v-.94c-.43.56-1.15,1.07-2.24,1.07-1.15,0-2.31-.66-2.31-1.93Zm4.57-.48v-.6c-.46-.13-1.07-.26-1.82-.26-1.16,0-1.81.5-1.81,1.28v.02c0,.78.72,1.24,1.56,1.24,1.14,0,2.08-.7,2.08-1.68Z"/>
        <path class="cls-5" d="m356.17,39.62v-3.74h-.86v-.82h.86v-1.87h.92v1.87h1.97v.82h-1.97v3.62c0,.75.42,1.03,1.04,1.03.31,0,.58-.06.9-.22v.79c-.32.17-.67.26-1.12.26-1,0-1.75-.49-1.75-1.75Z"/>
        <path class="cls-5" d="m360.72,32.69h1.05v1.02h-1.05v-1.02Zm.06,2.38h.92v6.2h-.92v-6.2Z"/>
        <path class="cls-5" d="m363.47,38.18v-.02c0-1.79,1.26-3.23,2.97-3.23,1.83,0,2.89,1.46,2.89,3.27,0,.12,0,.19-.01.3h-4.92c.13,1.34,1.08,2.1,2.18,2.1.85,0,1.45-.35,1.96-.88l.58.52c-.62.7-1.38,1.16-2.55,1.16-1.7,0-3.09-1.31-3.09-3.23Zm4.93-.36c-.1-1.13-.74-2.11-1.98-2.11-1.08,0-1.89.9-2.01,2.11h3.99Z"/>
        <path class="cls-5" d="m370.96,35.07h.92v1.08c.41-.67,1.06-1.21,2.12-1.21,1.5,0,2.38,1.01,2.38,2.48v3.85h-.92v-3.62c0-1.15-.62-1.87-1.71-1.87s-1.86.78-1.86,1.94v3.55h-.92v-6.2Z"/>
        <path class="cls-5" d="m378.67,39.62v-3.74h-.86v-.82h.86v-1.87h.92v1.87h1.97v.82h-1.97v3.62c0,.75.42,1.03,1.04,1.03.31,0,.58-.06.9-.22v.79c-.32.17-.67.26-1.12.26-1,0-1.75-.49-1.75-1.75Z"/>
        <path class="cls-5" d="m382.68,40.47l.47-.66c.67.5,1.41.79,2.15.79s1.28-.38,1.28-.98v-.02c0-.62-.73-.86-1.55-1.09-.97-.28-2.05-.61-2.05-1.75v-.02c0-1.07.89-1.78,2.11-1.78.76,0,1.59.26,2.23.68l-.42.7c-.58-.37-1.24-.6-1.84-.6-.73,0-1.2.38-1.2.9v.02c0,.59.77.82,1.6,1.07.96.29,1.99.66,1.99,1.78v.02c0,1.18-.97,1.86-2.21,1.86-.89,0-1.87-.35-2.57-.91Z"/>
        <path class="cls-5" d="m392.24,35.07h.98l1.63,4.98,1.67-5h.77l1.68,5,1.63-4.98h.96l-2.18,6.25h-.8l-1.67-4.89-1.68,4.89h-.82l-2.17-6.25Z"/>
        <path class="cls-5" d="m403.13,32.69h1.06v1.02h-1.06v-1.02Zm.06,2.38h.92v6.2h-.92v-6.2Z"/>
        <path class="cls-5" d="m406.58,39.62v-3.74h-.86v-.82h.86v-1.87h.92v1.87h1.97v.82h-1.97v3.62c0,.75.42,1.03,1.04,1.03.31,0,.58-.06.9-.22v.79c-.32.17-.67.26-1.12.26-1,0-1.75-.49-1.75-1.75Z"/>
        <path class="cls-5" d="m411.11,32.51h.92v3.63c.41-.67,1.05-1.21,2.12-1.21,1.5,0,2.38,1.01,2.38,2.48v3.85h-.92v-3.62c0-1.15-.62-1.87-1.71-1.87s-1.86.78-1.86,1.94v3.55h-.92v-8.75Z"/>
        <path class="cls-5" d="m422.34,32.87h.95v8.4h-.95v-8.4Z"/>
        <path class="cls-5" d="m425.75,32.87h3.57c.96,0,1.72.28,2.2.74.35.36.54.8.54,1.34v.02c0,1.09-.67,1.65-1.33,1.94,1,.3,1.8.88,1.8,2.03v.02c0,1.44-1.21,2.29-3.05,2.29h-3.73v-8.4Zm5.35,2.22c0-.83-.66-1.37-1.86-1.37h-2.55v2.89h2.48c1.14,0,1.93-.52,1.93-1.5v-.02Zm-1.76,2.36h-2.65v2.96h2.82c1.27,0,2.06-.56,2.06-1.5v-.02c0-.91-.77-1.44-2.23-1.44Z"/>
        <path class="cls-5" d="m434.41,32.87h2.91c2.64,0,4.46,1.81,4.46,4.17v.02c0,2.36-1.82,4.2-4.46,4.2h-2.91v-8.4Zm.95.88v6.64h1.97c2.12,0,3.48-1.44,3.48-3.3v-.02c0-1.86-1.36-3.32-3.48-3.32h-1.97Z"/>
      </g>
      <g>
        <path class="cls-7" d="m317.23,337.41h2.73c2.2,0,3.72,1.51,3.72,3.48v.02c0,1.97-1.52,3.5-3.72,3.5h-2.73v-7Zm1.54,1.39v4.22h1.19c1.26,0,2.11-.85,2.11-2.09v-.02c0-1.24-.85-2.11-2.11-2.11h-1.19Z"/>
        <path class="cls-7" d="m324.92,337.11h1.6v1.35h-1.6v-1.35Zm.04,1.94h1.52v5.36h-1.52v-5.36Z"/>
        <path class="cls-7" d="m327.49,343.7l.65-1c.58.42,1.19.64,1.69.64.44,0,.64-.16.64-.4v-.02c0-.33-.52-.44-1.11-.62-.75-.22-1.6-.57-1.6-1.61v-.02c0-1.09.88-1.7,1.96-1.7.68,0,1.42.23,2,.62l-.58,1.05c-.53-.31-1.06-.5-1.45-.5s-.56.16-.56.37v.02c0,.3.51.44,1.09.64.75.25,1.62.61,1.62,1.59v.02c0,1.19-.89,1.73-2.05,1.73-.75,0-1.59-.25-2.3-.81Z"/>
        <path class="cls-7" d="m332.67,341.76v-.02c0-1.53,1.09-2.79,2.65-2.79,1.79,0,2.61,1.39,2.61,2.91,0,.12,0,.26-.02.4h-3.73c.15.69.63,1.05,1.31,1.05.51,0,.88-.16,1.3-.55l.87.77c-.5.62-1.22,1-2.19,1-1.61,0-2.8-1.13-2.8-2.77Zm3.78-.45c-.09-.68-.49-1.14-1.13-1.14s-1.04.45-1.16,1.14h2.29Z"/>
        <path class="cls-7" d="m338.74,342.87v-.02c0-1.17.89-1.71,2.16-1.71.54,0,.93.09,1.31.22v-.09c0-.63-.39-.98-1.15-.98-.58,0-.99.11-1.48.29l-.38-1.16c.59-.26,1.17-.43,2.08-.43.83,0,1.43.22,1.81.6.4.4.58.99.58,1.71v3.11h-1.47v-.58c-.37.41-.88.68-1.62.68-1.01,0-1.84-.58-1.84-1.64Zm3.49-.35v-.27c-.26-.12-.6-.2-.97-.2-.65,0-1.05.26-1.05.74v.02c0,.41.34.65.83.65.71,0,1.19-.39,1.19-.94Z"/>
        <path class="cls-7" d="m344.56,343.7l.65-1c.58.42,1.19.64,1.69.64.44,0,.64-.16.64-.4v-.02c0-.33-.52-.44-1.11-.62-.75-.22-1.6-.57-1.6-1.61v-.02c0-1.09.88-1.7,1.96-1.7.68,0,1.42.23,2,.62l-.58,1.05c-.53-.31-1.06-.5-1.45-.5-.37,0-.56.16-.56.37v.02c0,.3.51.44,1.09.64.75.25,1.62.61,1.62,1.59v.02c0,1.19-.89,1.73-2.05,1.73-.75,0-1.59-.25-2.3-.81Z"/>
        <path class="cls-7" d="m349.74,341.76v-.02c0-1.53,1.09-2.79,2.65-2.79,1.79,0,2.61,1.39,2.61,2.91,0,.12,0,.26-.02.4h-3.73c.15.69.63,1.05,1.31,1.05.51,0,.88-.16,1.3-.55l.87.77c-.5.62-1.22,1-2.19,1-1.61,0-2.8-1.13-2.8-2.77Zm3.78-.45c-.09-.68-.49-1.14-1.13-1.14s-1.04.45-1.16,1.14h2.29Z"/>
        <path class="cls-7" d="m358.87,341.76v-.02c0-1.53,1.17-2.79,2.81-2.79,1.01,0,1.64.34,2.14.9l-.93,1c-.34-.36-.68-.59-1.22-.59-.76,0-1.3.67-1.3,1.46v.02c0,.82.53,1.48,1.36,1.48.51,0,.86-.22,1.23-.57l.89.9c-.52.57-1.12.98-2.19.98-1.61,0-2.79-1.24-2.79-2.77Z"/>
        <path class="cls-7" d="m364.43,341.76v-.02c0-1.54,1.24-2.79,2.91-2.79s2.89,1.23,2.89,2.77v.02c0,1.54-1.24,2.79-2.91,2.79s-2.89-1.23-2.89-2.77Zm4.3,0v-.02c0-.79-.57-1.48-1.41-1.48s-1.39.67-1.39,1.46v.02c0,.79.57,1.48,1.41,1.48s1.39-.67,1.39-1.46Z"/>
        <path class="cls-7" d="m371.29,342.52v-3.47h1.52v2.99c0,.72.34,1.09.92,1.09s.95-.37.95-1.09v-2.99h1.52v5.36h-1.52v-.76c-.35.45-.8.86-1.57.86-1.15,0-1.82-.76-1.82-1.99Z"/>
        <path class="cls-7" d="m377.56,339.05h1.52v1.08c.31-.74.81-1.22,1.71-1.18v1.59h-.08c-1.01,0-1.63.61-1.63,1.89v1.98h-1.52v-5.36Z"/>
        <path class="cls-7" d="m381.32,343.7l.65-1c.58.42,1.19.64,1.69.64.44,0,.64-.16.64-.4v-.02c0-.33-.52-.44-1.11-.62-.75-.22-1.6-.57-1.6-1.61v-.02c0-1.09.88-1.7,1.96-1.7.68,0,1.42.23,2,.62l-.58,1.05c-.53-.31-1.06-.5-1.45-.5s-.56.16-.56.37v.02c0,.3.51.44,1.09.64.75.25,1.62.61,1.62,1.59v.02c0,1.19-.89,1.73-2.05,1.73-.75,0-1.59-.25-2.3-.81Z"/>
        <path class="cls-7" d="m386.5,341.76v-.02c0-1.53,1.09-2.79,2.65-2.79,1.79,0,2.61,1.39,2.61,2.91,0,.12,0,.26-.02.4h-3.73c.15.69.63,1.05,1.31,1.05.51,0,.88-.16,1.3-.55l.87.77c-.5.62-1.22,1-2.19,1-1.61,0-2.8-1.13-2.8-2.77Zm3.78-.45c-.09-.68-.49-1.14-1.13-1.14s-1.04.45-1.16,1.14h2.29Z"/>
      </g>
      <g>
        <path class="cls-7" d="m25.81,210.84l-.69.77c.38.59.6,1.3.6,2.08,0,2.16-1.61,3.71-3.6,3.71h-.02c-1.99,0-3.62-1.57-3.62-3.73s1.61-3.71,3.6-3.71h.02c.74,0,1.43.23,2.01.62l.61-.72,1.09.98Zm-1.7,1.91l-.97,1.14-1.1-.98,1.04-1.15c-.28-.12-.61-.19-.96-.19h-.02c-1.2,0-2.2.88-2.2,2.12s.98,2.1,2.18,2.1h.02c1.2,0,2.2-.88,2.2-2.12,0-.34-.06-.65-.19-.92Z"/>
        <path class="cls-7" d="m23.71,208.78h-3.47v-1.52h2.99c.72,0,1.09-.34,1.09-.92s-.37-.95-1.09-.95h-2.99v-1.52h5.36v1.52h-.76c.45.35.86.8.86,1.57,0,1.15-.76,1.82-1.99,1.82Z"/>
        <path class="cls-7" d="m24.06,202.83h-.02c-1.17,0-1.71-.89-1.71-2.16,0-.54.09-.93.22-1.31h-.09c-.63,0-.98.39-.98,1.15,0,.58.11.99.29,1.48l-1.16.38c-.26-.59-.43-1.17-.43-2.08,0-.83.22-1.43.6-1.81.4-.4.99-.58,1.71-.58h3.11v1.47h-.58c.41.37.68.88.68,1.62,0,1.01-.58,1.84-1.64,1.84Zm-.35-3.49h-.27c-.12.26-.2.6-.2.97,0,.65.26,1.05.74,1.05h.02c.41,0,.65-.34.65-.83,0-.71-.39-1.19-.94-1.19Z"/>
        <path class="cls-7" d="m18.3,196.53v-1.52h7.3v1.52h-7.3Z"/>
        <path class="cls-7" d="m18.3,193.55v-1.6h1.35v1.6h-1.35Zm1.94-.04v-1.52h5.36v1.52h-5.36Z"/>
        <path class="cls-7" d="m24.08,190.31h-2.54v.64h-1.3v-.64h-1.37v-1.52h1.37v-1.26h1.3v1.26h2.29c.35,0,.52-.15.52-.49,0-.28-.07-.53-.19-.75h1.22c.19.32.31.69.31,1.2,0,.93-.37,1.56-1.61,1.56Z"/>
        <path class="cls-7" d="m20.24,182.89v-1.58l5.49,2.06c1.09.41,1.5.85,1.5,1.76,0,.55-.14.96-.37,1.35l-1.1-.51c.12-.2.21-.45.21-.65,0-.26-.08-.4-.35-.53l-5.38,2.1v-1.61l3.65-1.22-3.65-1.17Z"/>
        <path class="cls-7" d="m22.95,177.67h-.02c-1.54,0-2.79-1.24-2.79-2.91s1.23-2.89,2.77-2.89h.02c1.54,0,2.79,1.24,2.79,2.91s-1.23,2.89-2.77,2.89Zm0-4.3h-.02c-.79,0-1.48.57-1.48,1.41s.67,1.39,1.46,1.39h.02c.79,0,1.48-.57,1.48-1.41s-.67-1.39-1.46-1.39Z"/>
        <path class="cls-7" d="m21.54,170.51v.63h-1.25v-.63h-.34c-.59,0-1.02-.15-1.3-.43-.28-.28-.42-.69-.42-1.23,0-.48.06-.8.15-1.08h1.26c-.08.22-.13.43-.13.69,0,.35.18.55.58.55h.21v-1.23h1.24v1.21h4.06v1.52h-4.06Z"/>
        <path class="cls-7" d="m18.3,163.88v-1.52h7.3v1.52h-7.3Z"/>
        <path class="cls-7" d="m18.3,160.9v-1.6h1.35v1.6h-1.35Zm1.94-.04v-1.52h5.36v1.52h-5.36Z"/>
        <path class="cls-7" d="m21.54,157.65v.63h-1.25v-.63h-.34c-.59,0-1.02-.15-1.3-.43-.28-.28-.42-.69-.42-1.23,0-.48.06-.8.15-1.08h1.26c-.08.22-.13.43-.13.69,0,.35.18.55.58.55h.21v-1.23h1.24v1.21h4.06v1.52h-4.06Z"/>
        <path class="cls-7" d="m22.95,154.45h-.02c-1.53,0-2.79-1.09-2.79-2.65,0-1.79,1.39-2.61,2.91-2.61.12,0,.26,0,.4.02v3.73c.69-.15,1.05-.63,1.05-1.31,0-.51-.16-.88-.55-1.3l.77-.87c.62.5,1,1.22,1,2.19,0,1.61-1.13,2.8-2.77,2.8Zm-.45-3.78c-.68.09-1.14.49-1.14,1.13s.45,1.04,1.14,1.16v-2.29Z"/>
      </g>
      <g>
        <path class="cls-4" d="m63.85,18.17c-.19-.43-.69-.63-1.13-.45-.43.19-.63.69-.45,1.13l2.16,4.99c.07.16.19.3.34.39h0s4.77,2.96,4.77,2.96c.9.56,1.17,1.74.62,2.63-.56.9-1.73,1.17-2.63.62l-2.39-1.48c-.4-.25-.93-.13-1.18.28-.25.4-.13.93.28,1.18l2.39,1.48c1.7,1.06,3.94.53,4.99-1.17,1.06-1.7.53-3.94-1.17-4.99l-4.55-2.82-2.06-4.74Z"/>
        <g>
          <path class="cls-4" d="m62.69,0c-3.23,0-5.86,2.63-5.86,5.86,0,3.23,2.62,5.86,5.86,5.86,3.23,0,5.86-2.63,5.86-5.86,0-3.23-2.63-5.86-5.86-5.86h0Zm0,1.72c2.29,0,4.14,1.86,4.14,4.14s-1.86,4.14-4.14,4.14c-2.29,0-4.14-1.86-4.14-4.14s1.86-4.14,4.14-4.14h0Z"/>
          <path class="cls-4" d="m67.74,52.62c1.42,1.87,4.09,2.24,5.96.82,1.87-1.42,2.24-4.08.82-5.95l-12.33-16.65,1.6-11.38c.34-2.39-.3-3.98-1.26-4.89-1.53-1.44-4.03-1.29-5.75.33-3.9,3.68-5.73,5.45-6.58,6.29-.01.01-.03.03-.04.05-.58.66-1.02,1.42-1.31,2.24l-2.76,7.83c-.76,2.22.43,4.64,2.66,5.39,2.22.76,4.64-.43,5.39-2.66l2.46-7.24,3.04-2.91c.34-.33.35-.87.03-1.21-.33-.34-.87-.35-1.21-.03l-3.19,3.05c-.1.1-.17.21-.22.34l-2.53,7.44c-.45,1.33-1.89,2.03-3.22,1.58-1.32-.45-2.03-1.89-1.58-3.21l2.75-7.82c.21-.61.54-1.17.96-1.66.86-.84,2.69-2.61,6.54-6.24,1.01-.96,2.49-1.18,3.39-.33.66.62.97,1.75.74,3.4-1.17,8.31-1.65,11.72-1.65,11.72-.03.22.03.45.16.63l12.54,16.94s0,0,0,0c.85,1.12.63,2.71-.49,3.55-1.12.85-2.71.63-3.55-.49l-11.27-14.86c-.29-.38-.82-.45-1.2-.17-.38.29-.45.82-.16,1.2l2.54,3.35-.15,1.09c-.08.54-.33,1.05-.71,1.43l-8.17,8.22c-.99.99-2.59,1-3.59.01-.99-.99-1-2.59,0-3.59l7.37-7.41c.13-.13.22-.3.24-.49l.25-1.79c.07-.47-.26-.9-.73-.97-.47-.07-.9.26-.97.73l-.21,1.51-7.17,7.21c-1.65,1.66-1.65,4.36.02,6.01,1.66,1.65,4.36,1.65,6.01-.02l8.17-8.21c.51-.52.88-1.15,1.08-1.85l7.3,9.63Z"/>
        </g>
      </g>
    </g>
  </g>
</svg>