<?xml version="1.0" encoding="UTF-8"?>
<svg id="rohan_conventional_therapy_svg_mobile" data-name="rohan_conventional_therapy_svg_mobile" xmlns="http://www.w3.org/2000/svg" xmlns:xlink="http://www.w3.org/1999/xlink" viewBox="0 0 263.76 451.59">
  <defs>
    <style>
      .mob-cls-1 {
        stroke-dasharray: 0 0 0 6.17;
      }

      .mob-cls-1, .mob-cls-2, .mob-cls-3, .mob-cls-4 {
        stroke: #9d5b8f;
        stroke-linecap: round;
        stroke-linejoin: round;
        stroke-width: 4px;
      }

      .mob-cls-1, .mob-cls-2, .mob-cls-3, .mob-cls-4, .mob-cls-5 {
        fill: none;
      }

      .mob-cls-6 {
        fill: #e0e1e0;
      }

      .mob-cls-6, .mob-cls-7, .mob-cls-8, .mob-cls-9, .mob-cls-10, .mob-cls-11, .mob-cls-12, .mob-cls-13 {
        stroke-width: 0px;
      }

      .mob-cls-7 {
        fill: url(#mob-linear-gradient);
      }

      .mob-cls-8 {
        fill: #fff;
      }

      .mob-cls-9 {
        fill: url(#mob-linear-gradient-2);
      }

      .mob-cls-10 {
        fill: url(#mob-linear-gradient-3);
      }

      .mob-cls-3 {
        stroke-dasharray: 0 0 0 5.83;
      }

      .mob-cls-11 {
        fill: #231f20;
      }

      .mob-cls-4 {
        stroke-dasharray: 0 0 0 4.67;
      }

      .mob-cls-12 {
        fill: #872780;
      }

      .mob-cls-13 {
        fill: url(#mob-linear-gradient-4);
      }

      .mob-cls-5 {
        stroke: #808b86;
        stroke-miterlimit: 10;
        stroke-width: 2px;
      }
    </style>
    <linearGradient id="mob-linear-gradient" x1="51.64" y1="368.49" x2="51.64" y2="400.65" gradientUnits="userSpaceOnUse">
      <stop offset="0" stop-color="#bebdbd"/>
      <stop offset="1" stop-color="#fff"/>
    </linearGradient>
    <linearGradient id="mob-linear-gradient-2" x1="51.64" y1="369.91" x2="51.64" y2="399.27" gradientUnits="userSpaceOnUse">
      <stop offset="0" stop-color="#8a2780"/>
      <stop offset=".01" stop-color="#8c2780"/>
      <stop offset=".22" stop-color="#a32c74"/>
      <stop offset=".42" stop-color="#b53560"/>
      <stop offset=".61" stop-color="#c33a4e"/>
      <stop offset=".77" stop-color="#cd3c3d"/>
      <stop offset=".91" stop-color="#d33e33"/>
      <stop offset="1" stop-color="#d43f2e"/>
    </linearGradient>
    <linearGradient id="mob-linear-gradient-3" y1="274.91" y2="307.08" xlink:href="#mob-linear-gradient"/>
    <linearGradient id="mob-linear-gradient-4" y1="276.34" y2="305.7" xlink:href="#mob-linear-gradient-2"/>
  </defs>
  <g id="rohan_conventional_therapy_mobile">
    <g>
      <line id="timeline" class="mob-cls-5" x1="51.64" y1="386.58" x2="51.64" y2="15"/>
      <g id="info_text_2">
        <g id="info_text_2-2" data-name="info_text_2">
          <path class="mob-cls-12" d="m122.44,344.77h4.06c1.16,0,2.09.35,2.69.95.46.46.73,1.12.73,1.86v.03c0,1.57-1.08,2.48-2.57,2.75l2.9,3.86h-1.31l-2.74-3.67h-2.7v3.67h-1.07v-9.45Zm3.97,4.82c1.42,0,2.43-.73,2.43-1.94v-.03c0-1.16-.89-1.86-2.42-1.86h-2.92v3.83h2.9Z"/>
          <path class="mob-cls-12" d="m131.46,350.77v-.03c0-1.97,1.54-3.65,3.65-3.65s3.63,1.65,3.63,3.62v.03c0,1.97-1.55,3.65-3.66,3.65s-3.62-1.65-3.62-3.62Zm6.21,0v-.03c0-1.5-1.12-2.73-2.59-2.73s-2.55,1.23-2.55,2.7v.03c0,1.5,1.11,2.71,2.58,2.71s2.57-1.22,2.57-2.69Z"/>
          <path class="mob-cls-12" d="m140.61,344.37h1.04v4.09c.46-.76,1.19-1.36,2.39-1.36,1.69,0,2.67,1.13,2.67,2.8v4.33h-1.04v-4.08c0-1.3-.7-2.11-1.93-2.11s-2.09.88-2.09,2.19v4h-1.04v-9.86Z"/>
          <path class="mob-cls-12" d="m148.4,352.2v-.03c0-1.47,1.21-2.25,2.98-2.25.89,0,1.53.12,2.15.3v-.24c0-1.26-.77-1.9-2.08-1.9-.82,0-1.47.22-2.12.51l-.31-.85c.77-.35,1.53-.58,2.54-.58s1.74.26,2.25.77c.47.47.72,1.15.72,2.04v4.27h-1v-1.05c-.49.63-1.3,1.2-2.53,1.2-1.3,0-2.61-.74-2.61-2.17Zm5.14-.54v-.67c-.51-.15-1.2-.3-2.05-.3-1.31,0-2.04.57-2.04,1.44v.03c0,.88.81,1.39,1.75,1.39,1.28,0,2.34-.78,2.34-1.89Z"/>
          <path class="mob-cls-12" d="m156.74,347.25h1.04v1.22c.46-.76,1.19-1.36,2.39-1.36,1.69,0,2.67,1.13,2.67,2.8v4.33h-1.04v-4.08c0-1.3-.7-2.11-1.93-2.11s-2.09.88-2.09,2.19v4h-1.04v-6.98Z"/>
          <path class="mob-cls-12" d="m168.53,353.34l.53-.74c.76.57,1.59.89,2.42.89s1.45-.43,1.45-1.11v-.03c0-.7-.82-.97-1.74-1.23-1.09-.31-2.31-.69-2.31-1.97v-.03c0-1.2,1-2,2.38-2,.85,0,1.8.3,2.51.77l-.47.78c-.65-.42-1.39-.68-2.07-.68-.82,0-1.35.43-1.35,1.01v.03c0,.66.86.92,1.8,1.2,1.08.32,2.24.74,2.24,2v.03c0,1.32-1.09,2.09-2.48,2.09-1,0-2.11-.39-2.89-1.03Z"/>
          <path class="mob-cls-12" d="m176.06,352.38v-4.21h-.97v-.92h.97v-2.11h1.04v2.11h2.21v.92h-2.21v4.08c0,.85.47,1.16,1.17,1.16.35,0,.65-.07,1.01-.24v.89c-.37.19-.76.3-1.26.3-1.12,0-1.97-.55-1.97-1.97Z"/>
          <path class="mob-cls-12" d="m180.62,352.2v-.03c0-1.47,1.21-2.25,2.98-2.25.89,0,1.53.12,2.15.3v-.24c0-1.26-.77-1.9-2.08-1.9-.82,0-1.47.22-2.12.51l-.31-.85c.77-.35,1.53-.58,2.54-.58s1.74.26,2.25.77c.47.47.72,1.15.72,2.04v4.27h-1v-1.05c-.49.63-1.3,1.2-2.53,1.2-1.3,0-2.61-.74-2.61-2.17Zm5.14-.54v-.67c-.51-.15-1.2-.3-2.05-.3-1.31,0-2.04.57-2.04,1.44v.03c0,.88.81,1.39,1.75,1.39,1.28,0,2.34-.78,2.34-1.89Z"/>
          <path class="mob-cls-12" d="m188.97,347.25h1.04v1.82c.51-1.16,1.53-2,2.85-1.94v1.12h-.08c-1.53,0-2.77,1.09-2.77,3.2v2.78h-1.04v-6.98Z"/>
          <path class="mob-cls-12" d="m194.8,352.38v-4.21h-.97v-.92h.97v-2.11h1.04v2.11h2.21v.92h-2.21v4.08c0,.85.47,1.16,1.17,1.16.35,0,.65-.07,1.01-.24v.89c-.37.19-.76.3-1.26.3-1.12,0-1.97-.55-1.97-1.97Z"/>
          <path class="mob-cls-12" d="m199.25,350.76v-.03c0-2.01,1.42-3.63,3.35-3.63,2.07,0,3.25,1.65,3.25,3.69,0,.13,0,.22-.01.34h-5.54c.15,1.51,1.22,2.36,2.46,2.36.96,0,1.63-.39,2.2-.99l.65.58c-.7.78-1.55,1.31-2.88,1.31-1.92,0-3.48-1.47-3.48-3.63Zm5.55-.4c-.11-1.27-.84-2.38-2.23-2.38-1.21,0-2.13,1.01-2.27,2.38h4.5Z"/>
          <path class="mob-cls-12" d="m207.27,350.76v-.03c0-2.28,1.66-3.63,3.34-3.63,1.3,0,2.13.7,2.67,1.49v-4.21h1.04v9.86h-1.04v-1.4c-.57.84-1.39,1.55-2.67,1.55-1.67,0-3.34-1.32-3.34-3.62Zm6.05-.01v-.03c0-1.61-1.23-2.69-2.52-2.69s-2.46,1-2.46,2.69v.03c0,1.65,1.13,2.7,2.46,2.7s2.52-1.09,2.52-2.7Z"/>
          <path class="mob-cls-12" d="m121.76,368.78l3.15-2.58c1.17-.97,1.63-1.49,1.63-2.27s-.53-1.23-1.27-1.23-1.23.4-1.93,1.27l-1.46-1.17c.93-1.27,1.84-1.96,3.52-1.96,1.96,0,3.25,1.15,3.25,2.92v.03c0,1.58-.81,2.36-2.49,3.66l-1.54,1.19h4.12v1.8h-7v-1.65Z"/>
          <path class="mob-cls-12" d="m130.24,365.73v-.03c0-2.74,1.7-4.89,4.21-4.89s4.19,2.12,4.19,4.86v.03c0,2.74-1.69,4.89-4.21,4.89s-4.19-2.12-4.19-4.86Zm6.27,0v-.03c0-1.71-.84-3.01-2.08-3.01s-2.05,1.26-2.05,2.98v.03c0,1.73.82,3.01,2.08,3.01s2.05-1.27,2.05-2.98Z"/>
          <path class="mob-cls-12" d="m144.33,363.19h2.05v1.03c.47-.61,1.09-1.16,2.13-1.16.95,0,1.66.42,2.04,1.15.63-.74,1.39-1.15,2.38-1.15,1.53,0,2.44.92,2.44,2.66v4.71h-2.05v-4.04c0-.97-.43-1.47-1.2-1.47s-1.24.5-1.24,1.47v4.04h-2.05v-4.04c0-.97-.43-1.47-1.2-1.47s-1.24.5-1.24,1.47v4.04h-2.05v-7.24Z"/>
          <path class="mob-cls-12" d="m157.2,371.86l.7-1.54c.74.42,1.49.66,2.44.66,1.4,0,2.07-.68,2.07-1.97v-.35c-.61.73-1.27,1.17-2.36,1.17-1.69,0-3.21-1.23-3.21-3.38v-.03c0-2.16,1.55-3.38,3.21-3.38,1.12,0,1.78.47,2.34,1.08v-.95h2.05v5.6c0,1.3-.31,2.24-.92,2.85-.67.68-1.71.97-3.12.97-1.17,0-2.28-.27-3.2-.76Zm5.21-5.4v-.03c0-.99-.77-1.67-1.77-1.67s-1.76.69-1.76,1.67v.03c0,1,.76,1.67,1.76,1.67s1.77-.69,1.77-1.67Z"/>
          <path class="mob-cls-12" d="m169.89,368.35v-.03c0-1.58,1.2-2.31,2.92-2.31.73,0,1.26.12,1.77.3v-.12c0-.85-.53-1.32-1.55-1.32-.78,0-1.34.15-2,.39l-.51-1.57c.8-.35,1.58-.58,2.81-.58,1.12,0,1.93.3,2.44.81.54.54.78,1.34.78,2.31v4.2h-1.99v-.78c-.5.55-1.19.92-2.19.92-1.36,0-2.48-.78-2.48-2.21Zm4.71-.47v-.36c-.35-.16-.81-.27-1.31-.27-.88,0-1.42.35-1.42,1v.03c0,.55.46.88,1.12.88.96,0,1.61-.53,1.61-1.27Z"/>
          <path class="mob-cls-12" d="m178.07,368.98l3.74-4.13h-3.62v-1.66h6.17v1.44l-3.75,4.13h3.75v1.66h-6.29v-1.44Z"/>
          <path class="mob-cls-12" d="m185.48,368.35v-.03c0-1.58,1.2-2.31,2.92-2.31.73,0,1.26.12,1.77.3v-.12c0-.85-.53-1.32-1.55-1.32-.78,0-1.34.15-2,.39l-.51-1.57c.8-.35,1.58-.58,2.81-.58,1.12,0,1.93.3,2.44.81.54.54.78,1.34.78,2.31v4.2h-1.99v-.78c-.5.55-1.19.92-2.19.92-1.36,0-2.48-.78-2.48-2.21Zm4.71-.47v-.36c-.35-.16-.81-.27-1.31-.27-.88,0-1.42.35-1.42,1v.03c0,.55.46.88,1.12.88.96,0,1.61-.53,1.61-1.27Z"/>
          <path class="mob-cls-12" d="m194.18,368.37v-3.43h-.86v-1.76h.86v-1.85h2.05v1.85h1.7v1.76h-1.7v3.09c0,.47.2.7.66.7.38,0,.72-.09,1.01-.26v1.65c-.43.26-.93.42-1.62.42-1.26,0-2.11-.5-2.11-2.17Z"/>
          <path class="mob-cls-12" d="m199.44,360.57h2.05v3.65c.47-.61,1.08-1.16,2.12-1.16,1.55,0,2.46,1.03,2.46,2.69v4.69h-2.05v-4.04c0-.97-.46-1.47-1.24-1.47s-1.28.5-1.28,1.47v4.04h-2.05v-9.86Z"/>
          <path class="mob-cls-12" d="m207.89,360.57h2.16v1.82h-2.16v-1.82Zm.05,2.62h2.05v7.24h-2.05v-7.24Z"/>
          <path class="mob-cls-12" d="m211.58,366.85v-.03c0-2.08,1.67-3.77,3.93-3.77s3.9,1.66,3.9,3.74v.03c0,2.08-1.67,3.77-3.93,3.77s-3.9-1.66-3.9-3.74Zm5.81,0v-.03c0-1.07-.77-2-1.9-2s-1.88.9-1.88,1.97v.03c0,1.07.77,2,1.9,2s1.88-.9,1.88-1.97Z"/>
          <path class="mob-cls-12" d="m220.89,363.19h2.05v1.04c.5-.68,1.19-1.17,2.25-1.17,1.69,0,3.3,1.32,3.3,3.74v.03c0,2.42-1.58,3.74-3.3,3.74-1.09,0-1.77-.5-2.25-1.08v3.11h-2.05v-9.4Zm5.55,3.63v-.03c0-1.2-.81-2-1.77-2s-1.75.8-1.75,2v.03c0,1.2.8,2,1.75,2s1.77-.78,1.77-2Z"/>
          <path class="mob-cls-12" d="m230,363.19h2.05v1.46c.42-1,1.09-1.65,2.31-1.59v2.15h-.11c-1.36,0-2.2.82-2.2,2.55v2.67h-2.05v-7.24Z"/>
          <path class="mob-cls-12" d="m235.69,360.57h2.16v1.82h-2.16v-1.82Zm.05,2.62h2.05v7.24h-2.05v-7.24Z"/>
          <path class="mob-cls-12" d="m239.72,363.19h2.05v1.03c.47-.61,1.08-1.16,2.12-1.16,1.55,0,2.46,1.03,2.46,2.69v4.69h-2.05v-4.04c0-.97-.46-1.47-1.24-1.47s-1.28.5-1.28,1.47v4.04h-2.05v-7.24Z"/>
          <path class="mob-cls-12" d="m247.78,366.85v-.03c0-2.07,1.47-3.77,3.58-3.77,2.42,0,3.52,1.88,3.52,3.93,0,.16-.01.35-.03.54h-5.04c.2.93.85,1.42,1.77,1.42.69,0,1.19-.22,1.76-.74l1.17,1.04c-.67.84-1.65,1.35-2.96,1.35-2.17,0-3.78-1.53-3.78-3.74Zm5.1-.61c-.12-.92-.66-1.54-1.53-1.54s-1.4.61-1.57,1.54h3.09Z"/>
          <path class="mob-cls-12" d="m127.24,385.59c-.5.68-1.19,1.18-2.26,1.18-1.69,0-3.29-1.32-3.29-3.74v-.03c0-2.42,1.58-3.74,3.29-3.74,1.09,0,1.77.5,2.26,1.08v-.95h2.05v9.4h-2.05v-3.2Zm.03-2.57v-.03c0-1.2-.8-2-1.75-2s-1.77.78-1.77,2v.03c0,1.2.81,2,1.77,2s1.75-.8,1.75-2Z"/>
          <path class="mob-cls-12" d="m131.17,376.77h2.16v1.82h-2.16v-1.82Zm.05,2.62h2.05v7.24h-2.05v-7.24Z"/>
          <path class="mob-cls-12" d="m134.88,383.02v-.03c0-2.42,1.58-3.74,3.29-3.74,1.09,0,1.77.5,2.26,1.08v-3.56h2.05v9.86h-2.05v-1.04c-.5.68-1.19,1.18-2.26,1.18-1.69,0-3.29-1.32-3.29-3.74Zm5.58,0v-.03c0-1.2-.8-2-1.75-2s-1.77.78-1.77,2v.03c0,1.2.81,2,1.77,2s1.75-.8,1.75-2Z"/>
          <path class="mob-cls-12" d="m148.05,383.02v-.03c0-2.42,1.58-3.74,3.29-3.74,1.09,0,1.77.5,2.26,1.08v-3.56h2.05v9.86h-2.05v-1.04c-.5.68-1.19,1.18-2.26,1.18-1.69,0-3.29-1.32-3.29-3.74Zm5.58,0v-.03c0-1.2-.8-2-1.75-2s-1.77.78-1.77,2v.03c0,1.2.81,2,1.77,2s1.75-.8,1.75-2Z"/>
          <path class="mob-cls-12" d="m157.43,384.07v-4.69h2.05v4.04c0,.97.46,1.47,1.24,1.47s1.28-.5,1.28-1.47v-4.04h2.05v7.24h-2.05v-1.03c-.47.61-1.08,1.16-2.12,1.16-1.55,0-2.46-1.03-2.46-2.69Z"/>
          <path class="mob-cls-12" d="m165.89,379.39h2.05v1.46c.42-1,1.09-1.65,2.31-1.59v2.15h-.11c-1.36,0-2.2.82-2.2,2.55v2.67h-2.05v-7.24Z"/>
          <path class="mob-cls-12" d="m171.58,376.77h2.16v1.82h-2.16v-1.82Zm.05,2.62h2.05v7.24h-2.05v-7.24Z"/>
          <path class="mob-cls-12" d="m175.61,379.39h2.05v1.03c.47-.61,1.08-1.16,2.12-1.16,1.55,0,2.46,1.03,2.46,2.69v4.69h-2.05v-4.04c0-.97-.46-1.47-1.24-1.47s-1.28.5-1.28,1.47v4.04h-2.05v-7.24Z"/>
          <path class="mob-cls-12" d="m184.06,388.06l.7-1.54c.74.42,1.49.66,2.44.66,1.4,0,2.07-.68,2.07-1.97v-.35c-.61.73-1.27,1.17-2.36,1.17-1.69,0-3.21-1.23-3.21-3.38v-.03c0-2.16,1.55-3.38,3.21-3.38,1.12,0,1.78.47,2.34,1.08v-.95h2.05v5.6c0,1.3-.31,2.24-.92,2.85-.67.68-1.71.97-3.12.97-1.17,0-2.28-.27-3.2-.76Zm5.21-5.4v-.03c0-.99-.77-1.67-1.77-1.67s-1.76.69-1.76,1.67v.03c0,1,.76,1.67,1.76,1.67s1.77-.69,1.77-1.67Z"/>
          <path class="mob-cls-12" d="m196.62,385.67l.88-1.35c.78.57,1.61.86,2.28.86.59,0,.86-.22.86-.54v-.03c0-.45-.7-.59-1.5-.84-1.01-.3-2.16-.77-2.16-2.17v-.03c0-1.47,1.19-2.3,2.65-2.3.92,0,1.92.31,2.7.84l-.78,1.42c-.72-.42-1.43-.68-1.96-.68s-.76.22-.76.5v.03c0,.41.69.59,1.47.86,1.01.34,2.19.82,2.19,2.15v.03c0,1.61-1.2,2.34-2.77,2.34-1.01,0-2.15-.34-3.11-1.09Z"/>
          <path class="mob-cls-12" d="m204.16,384.57v-3.43h-.86v-1.76h.86v-1.85h2.05v1.85h1.7v1.76h-1.7v3.09c0,.47.2.7.66.7.38,0,.72-.09,1.01-.26v1.65c-.43.26-.93.42-1.62.42-1.26,0-2.11-.5-2.11-2.17Z"/>
          <path class="mob-cls-12" d="m208.88,383.05v-.03c0-2.07,1.47-3.77,3.58-3.77,2.42,0,3.52,1.88,3.52,3.93,0,.16-.01.35-.03.54h-5.04c.2.93.85,1.42,1.77,1.42.69,0,1.19-.22,1.76-.74l1.17,1.04c-.67.84-1.65,1.35-2.96,1.35-2.17,0-3.78-1.53-3.78-3.74Zm5.1-.61c-.12-.92-.66-1.54-1.53-1.54s-1.4.61-1.57,1.54h3.09Z"/>
          <path class="mob-cls-12" d="m217.5,379.39h2.05v1.46c.42-1,1.09-1.65,2.31-1.59v2.15h-.11c-1.36,0-2.2.82-2.2,2.55v2.67h-2.05v-7.24Z"/>
          <path class="mob-cls-12" d="m222.59,383.05v-.03c0-2.08,1.67-3.77,3.93-3.77s3.9,1.66,3.9,3.74v.03c0,2.08-1.67,3.77-3.93,3.77s-3.9-1.66-3.9-3.74Zm5.81,0v-.03c0-1.07-.77-2-1.9-2s-1.88.9-1.88,1.97v.03c0,1.07.77,2,1.9,2s1.88-.9,1.88-1.97Z"/>
          <path class="mob-cls-12" d="m231.95,376.77h2.16v1.82h-2.16v-1.82Zm.05,2.62h2.05v7.24h-2.05v-7.24Z"/>
          <path class="mob-cls-12" d="m235.66,383.02v-.03c0-2.42,1.58-3.74,3.29-3.74,1.09,0,1.77.5,2.26,1.08v-3.56h2.05v9.86h-2.05v-1.04c-.5.68-1.19,1.18-2.26,1.18-1.69,0-3.29-1.32-3.29-3.74Zm5.58,0v-.03c0-1.2-.8-2-1.75-2s-1.77.78-1.77,2v.03c0,1.2.81,2,1.77,2s1.75-.8,1.75-2Z"/>
          <path class="mob-cls-12" d="m122.36,400.77v-3.43h-.86v-1.76h.86v-1.85h2.05v1.85h1.7v1.76h-1.7v3.09c0,.47.2.7.66.7.38,0,.72-.09,1.01-.26v1.65c-.43.26-.93.42-1.62.42-1.26,0-2.11-.5-2.11-2.17Z"/>
          <path class="mob-cls-12" d="m127.19,400.75v-.03c0-1.58,1.2-2.31,2.92-2.31.73,0,1.26.12,1.77.3v-.12c0-.85-.53-1.32-1.55-1.32-.78,0-1.34.15-2,.39l-.51-1.57c.8-.35,1.58-.58,2.81-.58,1.12,0,1.93.3,2.44.81.54.54.78,1.34.78,2.31v4.2h-1.99v-.78c-.5.55-1.19.92-2.19.92-1.36,0-2.48-.78-2.48-2.21Zm4.71-.47v-.36c-.35-.16-.81-.27-1.31-.27-.88,0-1.42.35-1.42,1v.03c0,.55.46.88,1.12.88.96,0,1.61-.53,1.61-1.27Z"/>
          <path class="mob-cls-12" d="m135.61,395.59h2.05v1.04c.5-.68,1.19-1.17,2.25-1.17,1.69,0,3.3,1.32,3.3,3.74v.03c0,2.42-1.58,3.74-3.3,3.74-1.09,0-1.77-.5-2.25-1.08v3.11h-2.05v-9.4Zm5.55,3.63v-.03c0-1.2-.81-2-1.77-2s-1.75.8-1.75,2v.03c0,1.2.8,2,1.75,2s1.77-.78,1.77-2Z"/>
          <path class="mob-cls-12" d="m144.37,399.25v-.03c0-2.07,1.47-3.77,3.58-3.77,2.42,0,3.52,1.88,3.52,3.93,0,.16-.01.35-.03.54h-5.04c.2.93.85,1.42,1.77,1.42.69,0,1.19-.22,1.76-.74l1.17,1.04c-.67.84-1.65,1.35-2.96,1.35-2.17,0-3.78-1.53-3.78-3.74Zm5.1-.61c-.12-.92-.66-1.54-1.53-1.54s-1.4.61-1.57,1.54h3.09Z"/>
          <path class="mob-cls-12" d="m153,395.59h2.05v1.46c.42-1,1.09-1.65,2.31-1.59v2.15h-.11c-1.36,0-2.2.82-2.2,2.55v2.67h-2.05v-7.24Z"/>
          <path class="mob-cls-12" d="m158.68,392.97h2.16v1.82h-2.16v-1.82Zm.05,2.62h2.05v7.24h-2.05v-7.24Z"/>
          <path class="mob-cls-12" d="m162.72,395.59h2.05v1.03c.47-.61,1.08-1.16,2.12-1.16,1.55,0,2.46,1.03,2.46,2.69v4.69h-2.05v-4.04c0-.97-.46-1.47-1.24-1.47s-1.28.5-1.28,1.47v4.04h-2.05v-7.24Z"/>
          <path class="mob-cls-12" d="m171.17,404.26l.7-1.54c.74.42,1.49.66,2.44.66,1.4,0,2.07-.68,2.07-1.97v-.35c-.61.73-1.27,1.17-2.36,1.17-1.69,0-3.21-1.23-3.21-3.38v-.03c0-2.16,1.55-3.38,3.21-3.38,1.12,0,1.78.47,2.34,1.08v-.95h2.05v5.6c0,1.3-.31,2.24-.92,2.85-.67.68-1.71.97-3.12.97-1.17,0-2.28-.27-3.2-.76Zm5.21-5.4v-.03c0-.99-.77-1.67-1.77-1.67s-1.76.69-1.76,1.67v.03c0,1,.76,1.67,1.76,1.67s1.77-.69,1.77-1.67Z"/>
          <path class="mob-cls-12" d="m179.68,404.16c.93-.09,1.39-.57,1.32-1.34h-.84v-2.16h2.19v1.82c0,1.78-.89,2.5-2.5,2.52l-.17-.85Z"/>
          <path class="mob-cls-12" d="m187.8,395.85h1.11l1.84,5.6,1.88-5.63h.86l1.89,5.63,1.84-5.6h1.08l-2.46,7.04h-.91l-1.88-5.51-1.89,5.51h-.92l-2.44-7.04Z"/>
          <path class="mob-cls-12" d="m200.02,392.97h1.04v4.09c.46-.76,1.19-1.36,2.39-1.36,1.69,0,2.67,1.13,2.67,2.79v4.33h-1.04v-4.08c0-1.3-.7-2.11-1.93-2.11s-2.09.88-2.09,2.19v4h-1.04v-9.86Z"/>
          <path class="mob-cls-12" d="m208.36,393.17h1.19v1.15h-1.19v-1.15Zm.07,2.67h1.04v6.98h-1.04v-6.98Z"/>
          <path class="mob-cls-12" d="m211.45,399.37v-.03c0-1.97,1.54-3.65,3.58-3.65,1.32,0,2.15.55,2.8,1.24l-.69.73c-.55-.58-1.17-1.05-2.12-1.05-1.42,0-2.5,1.2-2.5,2.7v.03c0,1.51,1.11,2.71,2.57,2.71.89,0,1.58-.45,2.13-1.04l.66.62c-.7.78-1.54,1.35-2.85,1.35-2.04,0-3.58-1.66-3.58-3.62Z"/>
          <path class="mob-cls-12" d="m219.59,392.97h1.04v4.09c.46-.76,1.19-1.36,2.39-1.36,1.69,0,2.67,1.13,2.67,2.79v4.33h-1.04v-4.08c0-1.3-.7-2.11-1.93-2.11s-2.09.88-2.09,2.19v4h-1.04v-9.86Z"/>
          <path class="mob-cls-12" d="m231.37,395.85h1.11l1.84,5.6,1.88-5.63h.86l1.89,5.63,1.84-5.6h1.08l-2.46,7.04h-.91l-1.88-5.51-1.89,5.51h-.92l-2.44-7.04Z"/>
          <path class="mob-cls-12" d="m242.79,400.8v-.03c0-1.47,1.21-2.25,2.98-2.25.89,0,1.53.12,2.15.3v-.24c0-1.26-.77-1.9-2.08-1.9-.82,0-1.47.22-2.12.51l-.31-.85c.77-.35,1.53-.58,2.54-.58s1.74.26,2.25.77c.47.47.72,1.15.72,2.04v4.27h-1v-1.05c-.49.63-1.3,1.2-2.53,1.2-1.3,0-2.61-.74-2.61-2.17Zm5.14-.54v-.68c-.51-.15-1.2-.3-2.05-.3-1.31,0-2.04.57-2.04,1.44v.03c0,.88.81,1.39,1.75,1.39,1.28,0,2.34-.78,2.34-1.89Z"/>
          <path class="mob-cls-12" d="m250.55,401.94l.53-.74c.76.57,1.59.89,2.42.89s1.45-.43,1.45-1.11v-.03c0-.7-.82-.97-1.74-1.23-1.09-.31-2.31-.69-2.31-1.97v-.03c0-1.2,1-2,2.38-2,.85,0,1.8.3,2.51.77l-.47.78c-.65-.42-1.39-.68-2.07-.68-.82,0-1.35.43-1.35,1.01v.03c0,.66.86.92,1.8,1.2,1.08.32,2.24.74,2.24,2v.03c0,1.32-1.09,2.09-2.48,2.09-1,0-2.11-.39-2.89-1.03Z"/>
          <path class="mob-cls-12" d="m122.29,409.37h1.19v1.15h-1.19v-1.15Zm.07,2.67h1.04v6.98h-1.04v-6.98Z"/>
          <path class="mob-cls-12" d="m125.81,412.05h1.04v1.22c.46-.76,1.19-1.36,2.39-1.36,1.69,0,2.67,1.13,2.67,2.8v4.33h-1.04v-4.08c0-1.3-.7-2.11-1.93-2.11s-2.09.88-2.09,2.19v4h-1.04v-6.98Z"/>
          <path class="mob-cls-12" d="m133.7,415.57v-.03c0-1.97,1.54-3.65,3.58-3.65,1.32,0,2.15.55,2.8,1.24l-.69.73c-.55-.58-1.17-1.05-2.12-1.05-1.42,0-2.5,1.2-2.5,2.7v.03c0,1.51,1.11,2.71,2.57,2.71.89,0,1.58-.45,2.13-1.04l.66.62c-.7.78-1.54,1.35-2.85,1.35-2.04,0-3.58-1.66-3.58-3.62Z"/>
          <path class="mob-cls-12" d="m141.84,412.05h1.04v1.82c.51-1.16,1.53-2,2.85-1.94v1.12h-.08c-1.53,0-2.77,1.09-2.77,3.2v2.78h-1.04v-6.98Z"/>
          <path class="mob-cls-12" d="m146.58,415.56v-.03c0-2.01,1.42-3.63,3.35-3.63,2.07,0,3.25,1.65,3.25,3.69,0,.13,0,.22-.01.34h-5.54c.15,1.51,1.22,2.36,2.46,2.36.96,0,1.63-.39,2.2-.99l.65.58c-.7.78-1.55,1.31-2.88,1.31-1.92,0-3.48-1.47-3.48-3.63Zm5.55-.4c-.11-1.27-.84-2.38-2.23-2.38-1.21,0-2.13,1.01-2.27,2.38h4.5Z"/>
          <path class="mob-cls-12" d="m154.47,417v-.03c0-1.47,1.21-2.25,2.98-2.25.89,0,1.53.12,2.15.3v-.24c0-1.26-.77-1.9-2.08-1.9-.82,0-1.47.22-2.12.51l-.31-.85c.77-.35,1.53-.58,2.54-.58s1.74.26,2.25.77c.47.47.72,1.15.72,2.04v4.27h-1v-1.05c-.49.63-1.3,1.2-2.53,1.2-1.3,0-2.61-.74-2.61-2.17Zm5.14-.54v-.67c-.51-.15-1.2-.3-2.05-.3-1.31,0-2.04.57-2.04,1.44v.03c0,.88.81,1.39,1.75,1.39,1.28,0,2.34-.78,2.34-1.89Z"/>
          <path class="mob-cls-12" d="m162.24,418.14l.53-.74c.76.57,1.59.89,2.42.89s1.45-.43,1.45-1.11v-.03c0-.7-.82-.97-1.74-1.23-1.09-.31-2.31-.69-2.31-1.97v-.03c0-1.2,1-2,2.38-2,.85,0,1.8.3,2.51.77l-.47.78c-.65-.42-1.39-.68-2.07-.68-.82,0-1.35.43-1.35,1.01v.03c0,.66.86.92,1.8,1.2,1.08.32,2.24.74,2.24,2v.03c0,1.32-1.09,2.09-2.48,2.09-1,0-2.11-.39-2.89-1.03Z"/>
          <path class="mob-cls-12" d="m169.11,415.56v-.03c0-2.01,1.42-3.63,3.35-3.63,2.07,0,3.25,1.65,3.25,3.69,0,.13,0,.22-.01.34h-5.54c.15,1.51,1.22,2.36,2.46,2.36.96,0,1.63-.39,2.2-.99l.65.58c-.7.78-1.55,1.31-2.88,1.31-1.92,0-3.48-1.47-3.48-3.63Zm5.55-.4c-.11-1.27-.84-2.38-2.23-2.38-1.21,0-2.13,1.01-2.27,2.38h4.5Z"/>
          <path class="mob-cls-12" d="m177.13,415.56v-.03c0-2.28,1.66-3.63,3.34-3.63,1.3,0,2.13.7,2.67,1.49v-4.21h1.04v9.86h-1.04v-1.4c-.57.84-1.39,1.55-2.67,1.55-1.67,0-3.34-1.32-3.34-3.62Zm6.05-.01v-.03c0-1.61-1.23-2.69-2.52-2.69s-2.46,1-2.46,2.69v.03c0,1.65,1.13,2.7,2.46,2.7s2.52-1.09,2.52-2.7Z"/>
          <path class="mob-cls-12" d="m190.91,417.18v-4.21h-.97v-.92h.97v-2.11h1.04v2.11h2.21v.92h-2.21v4.08c0,.85.47,1.16,1.17,1.16.35,0,.65-.07,1.01-.24v.89c-.37.19-.76.3-1.26.3-1.12,0-1.97-.55-1.97-1.97Z"/>
          <path class="mob-cls-12" d="m195.36,415.57v-.03c0-1.97,1.54-3.65,3.65-3.65s3.63,1.65,3.63,3.62v.03c0,1.97-1.55,3.65-3.66,3.65s-3.62-1.65-3.62-3.62Zm6.21,0v-.03c0-1.5-1.12-2.73-2.59-2.73s-2.55,1.23-2.55,2.7v.03c0,1.5,1.11,2.71,2.58,2.71s2.57-1.22,2.57-2.69Z"/>
          <path class="mob-cls-12" d="m209.82,410.61l-1.78.55-.26-.86,2.31-.8h.78v9.52h-1.05v-8.41Z"/>
          <path class="mob-cls-12" d="m213.08,414.33v-.03c0-2.65,1.58-4.89,4.01-4.89s3.97,2.21,3.97,4.86v.03c0,2.65-1.57,4.89-4,4.89s-3.98-2.21-3.98-4.86Zm6.87,0v-.03c0-2.07-1.13-3.92-2.89-3.92s-2.88,1.81-2.88,3.89v.03c0,2.07,1.13,3.92,2.9,3.92s2.86-1.82,2.86-3.89Z"/>
          <path class="mob-cls-12" d="m222.73,414.33v-.03c0-2.65,1.58-4.89,4.01-4.89s3.97,2.21,3.97,4.86v.03c0,2.65-1.57,4.89-4,4.89s-3.98-2.21-3.98-4.86Zm6.87,0v-.03c0-2.07-1.13-3.92-2.89-3.92s-2.88,1.81-2.88,3.89v.03c0,2.07,1.13,3.92,2.9,3.92s2.86-1.82,2.86-3.89Z"/>
          <path class="mob-cls-12" d="m236.75,412.05h1.04v1.17c.46-.69,1.08-1.32,2.25-1.32s1.86.61,2.24,1.39c.5-.77,1.24-1.39,2.46-1.39,1.61,0,2.59,1.08,2.59,2.81v4.32h-1.04v-4.08c0-1.35-.68-2.11-1.81-2.11-1.05,0-1.93.78-1.93,2.16v4.02h-1.03v-4.1c0-1.31-.69-2.08-1.8-2.08s-1.94.92-1.94,2.2v3.98h-1.04v-6.98Z"/>
          <path class="mob-cls-12" d="m249.47,420.24l.47-.81c.8.58,1.69.89,2.69.89,1.54,0,2.54-.85,2.54-2.48v-.82c-.61.81-1.46,1.47-2.74,1.47-1.67,0-3.28-1.26-3.28-3.27v-.03c0-2.04,1.62-3.3,3.28-3.3,1.31,0,2.16.65,2.73,1.4v-1.26h1.04v5.77c0,1.08-.32,1.9-.89,2.47-.62.62-1.55.93-2.66.93s-2.24-.32-3.17-.97Zm5.73-5.04v-.03c0-1.43-1.24-2.36-2.57-2.36s-2.42.92-2.42,2.35v.03c0,1.4,1.12,2.38,2.42,2.38s2.57-.96,2.57-2.36Z"/>
          <path class="mob-cls-12" d="m121.83,431.77v-.03c0-1.97,1.54-3.65,3.65-3.65s3.63,1.65,3.63,3.62v.03c0,1.97-1.55,3.65-3.66,3.65s-3.62-1.65-3.62-3.62Zm6.21,0v-.03c0-1.5-1.12-2.73-2.59-2.73s-2.55,1.23-2.55,2.7v.03c0,1.5,1.11,2.71,2.58,2.71s2.57-1.22,2.57-2.69Z"/>
          <path class="mob-cls-12" d="m130.98,428.25h1.04v1.22c.46-.76,1.19-1.36,2.39-1.36,1.69,0,2.67,1.13,2.67,2.8v4.33h-1.04v-4.08c0-1.3-.7-2.11-1.93-2.11s-2.09.88-2.09,2.19v4h-1.04v-6.98Z"/>
          <path class="mob-cls-12" d="m138.87,431.77v-.03c0-1.97,1.54-3.65,3.58-3.65,1.32,0,2.15.55,2.8,1.24l-.69.73c-.55-.58-1.17-1.05-2.12-1.05-1.42,0-2.5,1.2-2.5,2.7v.03c0,1.51,1.11,2.71,2.57,2.71.89,0,1.58-.45,2.13-1.04l.66.62c-.7.78-1.54,1.35-2.85,1.35-2.04,0-3.58-1.66-3.58-3.62Z"/>
          <path class="mob-cls-12" d="m146.37,431.76v-.03c0-2.01,1.42-3.63,3.35-3.63,2.07,0,3.25,1.65,3.25,3.69,0,.13,0,.22-.01.34h-5.54c.15,1.51,1.22,2.36,2.46,2.36.96,0,1.63-.39,2.2-.99l.65.58c-.7.78-1.55,1.31-2.88,1.31-1.92,0-3.48-1.47-3.48-3.63Zm5.55-.4c-.11-1.27-.84-2.38-2.23-2.38-1.21,0-2.13,1.01-2.27,2.38h4.5Z"/>
          <path class="mob-cls-12" d="m158.44,431.76v-.03c0-2.28,1.66-3.63,3.34-3.63,1.3,0,2.13.7,2.67,1.49v-4.21h1.04v9.86h-1.04v-1.4c-.57.84-1.39,1.55-2.67,1.55-1.67,0-3.34-1.32-3.34-3.62Zm6.05-.01v-.03c0-1.61-1.23-2.69-2.52-2.69s-2.46,1-2.46,2.69v.03c0,1.65,1.13,2.7,2.46,2.7s2.52-1.09,2.52-2.7Z"/>
          <path class="mob-cls-12" d="m167.28,433.2v-.03c0-1.47,1.21-2.25,2.98-2.25.89,0,1.53.12,2.15.3v-.24c0-1.26-.77-1.9-2.08-1.9-.82,0-1.47.22-2.12.51l-.31-.85c.77-.35,1.53-.58,2.54-.58s1.74.26,2.25.77c.47.47.72,1.15.72,2.04v4.27h-1v-1.05c-.49.63-1.3,1.2-2.53,1.2-1.3,0-2.61-.74-2.61-2.17Zm5.14-.54v-.67c-.51-.15-1.2-.3-2.05-.3-1.31,0-2.04.57-2.04,1.44v.03c0,.88.81,1.39,1.75,1.39,1.28,0,2.34-.78,2.34-1.89Z"/>
          <path class="mob-cls-12" d="m175.65,425.57h1.19v1.15h-1.19v-1.15Zm.07,2.67h1.04v6.98h-1.04v-6.98Z"/>
          <path class="mob-cls-12" d="m179.27,425.37h1.04v9.86h-1.04v-9.86Z"/>
          <path class="mob-cls-12" d="m187.95,428.25h1.11l-2.93,7.21c-.59,1.44-1.27,1.97-2.32,1.97-.58,0-1.01-.12-1.49-.35l.35-.82c.34.18.65.26,1.09.26.62,0,1.01-.32,1.43-1.31l-3.17-6.95h1.15l2.54,5.82,2.24-5.82Z"/>
          <path class="mob-cls-12" d="m194.32,431.77v-.03c0-1.97,1.54-3.65,3.65-3.65s3.63,1.65,3.63,3.62v.03c0,1.97-1.55,3.65-3.66,3.65s-3.62-1.65-3.62-3.62Zm6.21,0v-.03c0-1.5-1.12-2.73-2.59-2.73s-2.55,1.23-2.55,2.7v.03c0,1.5,1.11,2.71,2.58,2.71s2.57-1.22,2.57-2.69Z"/>
          <path class="mob-cls-12" d="m202.38,428.25h1.15l2.35,5.79,2.36-5.79h1.12l-3.04,7.04h-.92l-3.02-7.04Z"/>
          <path class="mob-cls-12" d="m210.16,431.76v-.03c0-2.01,1.42-3.63,3.35-3.63,2.07,0,3.25,1.65,3.25,3.69,0,.13,0,.22-.01.34h-5.54c.15,1.51,1.22,2.36,2.46,2.36.96,0,1.63-.39,2.2-.99l.65.58c-.7.78-1.55,1.31-2.88,1.31-1.92,0-3.48-1.47-3.48-3.63Zm5.55-.4c-.11-1.27-.84-2.38-2.23-2.38-1.21,0-2.13,1.01-2.27,2.38h4.5Z"/>
          <path class="mob-cls-12" d="m218.58,428.25h1.04v1.82c.51-1.16,1.53-2,2.85-1.94v1.12h-.08c-1.53,0-2.77,1.09-2.77,3.2v2.78h-1.04v-6.98Z"/>
          <path class="mob-cls-12" d="m227.59,434.4l3.43-3.02c1.45-1.3,1.97-2.03,1.97-2.97,0-1.11-.88-1.81-1.9-1.81-1.08,0-1.78.57-2.54,1.62l-.78-.57c.85-1.27,1.74-2.01,3.4-2.01s2.93,1.13,2.93,2.67v.03c0,1.38-.73,2.23-2.39,3.67l-2.53,2.24h5.01v.97h-6.6v-.82Z"/>
          <path class="mob-cls-12" d="m121.67,444.45h1.11l1.84,5.6,1.88-5.63h.86l1.89,5.63,1.84-5.6h1.08l-2.46,7.04h-.91l-1.88-5.51-1.89,5.51h-.92l-2.44-7.04Z"/>
          <path class="mob-cls-12" d="m133.11,447.96v-.03c0-2.01,1.42-3.63,3.35-3.63,2.07,0,3.25,1.65,3.25,3.69,0,.13,0,.22-.01.34h-5.54c.15,1.51,1.22,2.36,2.46,2.36.96,0,1.63-.39,2.2-.99l.65.58c-.7.78-1.55,1.31-2.88,1.31-1.92,0-3.48-1.47-3.48-3.63Zm5.55-.4c-.11-1.27-.84-2.38-2.23-2.38-1.21,0-2.13,1.01-2.27,2.38h4.5Z"/>
          <path class="mob-cls-12" d="m141.11,447.96v-.03c0-2.01,1.42-3.63,3.35-3.63,2.07,0,3.25,1.65,3.25,3.69,0,.13,0,.22-.01.34h-5.54c.15,1.51,1.22,2.36,2.46,2.36.96,0,1.63-.39,2.2-.99l.65.58c-.7.78-1.55,1.31-2.88,1.31-1.92,0-3.48-1.47-3.48-3.63Zm5.55-.4c-.11-1.27-.84-2.38-2.23-2.38-1.21,0-2.13,1.01-2.27,2.38h4.5Z"/>
          <path class="mob-cls-12" d="m149.53,441.57h1.04v6.81l3.77-3.93h1.3l-2.93,3,3.02,3.98h-1.24l-2.5-3.25-1.42,1.43v1.82h-1.04v-9.86Z"/>
          <path class="mob-cls-12" d="m156.54,450.54l.53-.74c.76.57,1.59.89,2.42.89s1.45-.43,1.45-1.11v-.03c0-.7-.82-.97-1.74-1.23-1.09-.31-2.31-.69-2.31-1.97v-.03c0-1.2,1-2,2.38-2,.85,0,1.8.3,2.51.77l-.47.78c-.65-.42-1.39-.68-2.07-.68-.82,0-1.35.43-1.35,1.01v.03c0,.66.86.92,1.8,1.2,1.08.32,2.24.74,2.24,2v.03c0,1.32-1.09,2.09-2.48,2.09-1,0-2.11-.39-2.89-1.03Z"/>
        </g>
        <g>
          <line class="mob-cls-2" x1="111.33" y1="385.56" x2="111.33" y2="385.56"/>
          <line class="mob-cls-1" x1="105.16" y1="385.56" x2="71.22" y2="385.56"/>
          <line class="mob-cls-2" x1="68.14" y1="385.56" x2="68.14" y2="385.56"/>
        </g>
      </g>
      <g id="info_btn_2" data-name="therapy_2" class="timeline--btn">
        <circle class="mob-cls-7" cx="51.64" cy="384.79" r="16.5"/>
        <circle class="mob-cls-9 tooltip-mobile" title="Click here" cx="51.64" cy="384.79" r="15.06"/>
        <g>
          <path class="mob-cls-8" d="m55.33,392.62h-8.69c-.76,0-1.38-.62-1.38-1.38,0-1.02.76-1.89,1.76-2.04l3.72-.58-6.28-6.28c-.69-.69-.69-1.8,0-2.49.69-.69,1.81-.69,2.5,0l1.63,1.63c.08-.27.23-.53.44-.74.63-.64,1.63-.69,2.32-.16.08-.28.23-.54.45-.76.64-.64,1.63-.69,2.32-.16.08-.28.23-.54.45-.76.69-.69,1.81-.69,2.5,0l3.47,3.81c.85.94,1.32,2.15,1.32,3.41,0,1.35-.53,2.63-1.48,3.58l-1.45,1.45c-.96.96-2.23,1.49-3.59,1.49Zm-9.62-12.37c-.21,0-.43.08-.59.25-.33.33-.33.87,0,1.19l6.92,6.92c.12.12.17.3.11.47-.05.17-.2.29-.37.31l-4.62.73c-.56.08-.98.56-.98,1.12,0,.25.21.46.46.46h8.69c1.11,0,2.15-.43,2.93-1.22l1.45-1.45c.78-.78,1.21-1.82,1.21-2.93,0-1.03-.38-2.02-1.08-2.79l-3.45-3.79c-.31-.31-.84-.31-1.17.02-.16.16-.25.37-.25.6s.09.44.25.59l.04.04c.18.18.18.47,0,.65-.18.18-.46.18-.64,0h0s0,0,0,0h0s0,0,0,0h0s0,0,0,0l-.97-.97c-.33-.33-.86-.33-1.19,0s-.33.86,0,1.19l.96.96c.09.09.14.21.14.33s-.05.24-.13.33c-.18.18-.47.18-.65,0l-1.88-1.88c-.33-.33-.86-.33-1.19,0-.33.33-.33.86,0,1.19l1.88,1.88c.09.09.14.21.14.33s-.05.24-.13.33c-.18.18-.47.18-.65,0l-4.61-4.61c-.16-.16-.38-.25-.59-.25Z"/>
          <path class="mob-cls-8" d="m44.2,384.92c-.06,0-.13-.01-.19-.04-1.49-.67-2.45-2.16-2.45-3.78,0-2.29,1.86-4.15,4.15-4.15,1.62,0,3.11.96,3.78,2.45.11.23,0,.51-.23.61-.23.11-.51,0-.61-.23-.52-1.16-1.68-1.9-2.94-1.9-1.78,0-3.23,1.45-3.23,3.23,0,1.26.75,2.41,1.9,2.94.23.11.33.38.23.61-.08.17-.25.27-.42.27Z"/>
        </g>
      </g>
      <g id="info_text_1">
        <g>
          <path class="mob-cls-12" d="m122.44,254.86h4.06c1.16,0,2.09.35,2.69.95.46.46.73,1.12.73,1.86v.03c0,1.57-1.08,2.48-2.57,2.75l2.9,3.86h-1.31l-2.74-3.67h-2.7v3.67h-1.07v-9.45Zm3.97,4.82c1.42,0,2.43-.73,2.43-1.94v-.03c0-1.16-.89-1.86-2.42-1.86h-2.92v3.83h2.9Z"/>
          <path class="mob-cls-12" d="m131.46,260.86v-.03c0-1.97,1.54-3.65,3.65-3.65s3.63,1.65,3.63,3.62v.03c0,1.97-1.55,3.65-3.66,3.65s-3.62-1.65-3.62-3.62Zm6.21,0v-.03c0-1.5-1.12-2.73-2.59-2.73s-2.55,1.23-2.55,2.7v.03c0,1.5,1.11,2.71,2.58,2.71s2.57-1.22,2.57-2.69Z"/>
          <path class="mob-cls-12" d="m140.61,254.46h1.04v4.09c.46-.76,1.19-1.36,2.39-1.36,1.69,0,2.67,1.13,2.67,2.8v4.33h-1.04v-4.08c0-1.3-.7-2.11-1.93-2.11s-2.09.88-2.09,2.19v4h-1.04v-9.86Z"/>
          <path class="mob-cls-12" d="m148.4,262.29v-.03c0-1.47,1.21-2.25,2.98-2.25.89,0,1.53.12,2.15.3v-.24c0-1.26-.77-1.9-2.08-1.9-.82,0-1.47.22-2.12.51l-.31-.85c.77-.35,1.53-.58,2.54-.58s1.74.26,2.25.77c.47.47.72,1.15.72,2.04v4.27h-1v-1.05c-.49.63-1.3,1.2-2.53,1.2-1.3,0-2.61-.74-2.61-2.17Zm5.14-.54v-.67c-.51-.15-1.2-.3-2.05-.3-1.31,0-2.04.57-2.04,1.44v.03c0,.88.81,1.39,1.75,1.39,1.28,0,2.34-.78,2.34-1.89Z"/>
          <path class="mob-cls-12" d="m156.74,257.33h1.04v1.22c.46-.76,1.19-1.36,2.39-1.36,1.69,0,2.67,1.13,2.67,2.8v4.33h-1.04v-4.08c0-1.3-.7-2.11-1.93-2.11s-2.09.88-2.09,2.19v4h-1.04v-6.98Z"/>
          <path class="mob-cls-12" d="m168.53,263.42l.53-.74c.76.57,1.59.89,2.42.89s1.45-.43,1.45-1.11v-.03c0-.7-.82-.97-1.74-1.23-1.09-.31-2.31-.69-2.31-1.97v-.03c0-1.2,1-2,2.38-2,.85,0,1.8.3,2.51.77l-.47.78c-.65-.42-1.39-.68-2.07-.68-.82,0-1.35.43-1.35,1.01v.03c0,.66.86.92,1.8,1.2,1.08.32,2.24.74,2.24,2v.03c0,1.32-1.09,2.09-2.48,2.09-1,0-2.11-.39-2.89-1.03Z"/>
          <path class="mob-cls-12" d="m176.06,262.46v-4.21h-.97v-.92h.97v-2.11h1.04v2.11h2.21v.92h-2.21v4.08c0,.85.47,1.16,1.17,1.16.35,0,.65-.07,1.01-.24v.89c-.36.19-.76.3-1.26.3-1.12,0-1.97-.55-1.97-1.97Z"/>
          <path class="mob-cls-12" d="m180.62,262.29v-.03c0-1.47,1.21-2.25,2.98-2.25.89,0,1.53.12,2.15.3v-.24c0-1.26-.77-1.9-2.08-1.9-.82,0-1.47.22-2.12.51l-.31-.85c.77-.35,1.53-.58,2.54-.58s1.74.26,2.25.77c.47.47.72,1.15.72,2.04v4.27h-1v-1.05c-.49.63-1.3,1.2-2.53,1.2-1.3,0-2.61-.74-2.61-2.17Zm5.14-.54v-.67c-.51-.15-1.2-.3-2.05-.3-1.31,0-2.04.57-2.04,1.44v.03c0,.88.81,1.39,1.75,1.39,1.28,0,2.34-.78,2.34-1.89Z"/>
          <path class="mob-cls-12" d="m188.97,257.33h1.04v1.82c.51-1.16,1.53-2,2.85-1.94v1.12h-.08c-1.53,0-2.77,1.09-2.77,3.2v2.78h-1.04v-6.98Z"/>
          <path class="mob-cls-12" d="m194.8,262.46v-4.21h-.97v-.92h.97v-2.11h1.04v2.11h2.21v.92h-2.21v4.08c0,.85.47,1.16,1.17,1.16.35,0,.65-.07,1.01-.24v.89c-.36.19-.76.3-1.26.3-1.12,0-1.97-.55-1.97-1.97Z"/>
          <path class="mob-cls-12" d="m199.25,260.84v-.03c0-2.01,1.42-3.63,3.35-3.63,2.07,0,3.25,1.65,3.25,3.69,0,.13,0,.22-.01.34h-5.54c.15,1.51,1.22,2.36,2.46,2.36.96,0,1.63-.39,2.2-.99l.65.58c-.7.78-1.55,1.31-2.88,1.31-1.92,0-3.48-1.47-3.48-3.63Zm5.55-.4c-.11-1.27-.84-2.38-2.23-2.38-1.21,0-2.13,1.01-2.27,2.38h4.5Z"/>
          <path class="mob-cls-12" d="m207.27,260.84v-.03c0-2.28,1.66-3.63,3.34-3.63,1.3,0,2.13.7,2.67,1.49v-4.21h1.04v9.86h-1.04v-1.4c-.57.84-1.39,1.55-2.67,1.55-1.67,0-3.34-1.32-3.34-3.62Zm6.05-.01v-.03c0-1.61-1.23-2.69-2.52-2.69s-2.46,1-2.46,2.69v.03c0,1.65,1.13,2.7,2.46,2.7s2.52-1.09,2.52-2.7Z"/>
          <path class="mob-cls-12" d="m224.9,262.28h-4.62l-.34-1.47,5.19-6.01h1.75v5.79h1.27v1.69h-1.27v2.04h-1.98v-2.04Zm0-1.69v-2.94l-2.51,2.94h2.51Z"/>
          <path class="mob-cls-12" d="m229.56,259.62v-.03c0-2.74,1.7-4.89,4.21-4.89s4.19,2.12,4.19,4.86v.03c0,2.74-1.69,4.89-4.21,4.89s-4.19-2.12-4.19-4.86Zm6.27,0v-.03c0-1.71-.84-3.01-2.08-3.01s-2.05,1.26-2.05,2.98v.03c0,1.73.82,3.01,2.08,3.01s2.05-1.27,2.05-2.98Z"/>
          <path class="mob-cls-12" d="m243.65,257.08h2.05v1.03c.47-.61,1.09-1.16,2.13-1.16.95,0,1.66.42,2.04,1.15.63-.74,1.39-1.15,2.38-1.15,1.53,0,2.44.92,2.44,2.66v4.71h-2.05v-4.04c0-.97-.43-1.47-1.2-1.47s-1.24.5-1.24,1.47v4.04h-2.05v-4.04c0-.97-.43-1.47-1.2-1.47s-1.24.5-1.24,1.47v4.04h-2.05v-7.24Z"/>
          <path class="mob-cls-12" d="m256.52,265.75l.7-1.54c.74.42,1.49.66,2.44.66,1.4,0,2.07-.68,2.07-1.97v-.35c-.61.73-1.27,1.17-2.36,1.17-1.69,0-3.21-1.23-3.21-3.38v-.03c0-2.16,1.55-3.38,3.21-3.38,1.12,0,1.78.47,2.34,1.08v-.95h2.05v5.6c0,1.3-.31,2.24-.92,2.85-.67.68-1.71.97-3.12.97-1.17,0-2.28-.27-3.2-.76Zm5.21-5.4v-.03c0-.99-.77-1.67-1.77-1.67s-1.76.69-1.76,1.67v.03c0,1,.76,1.67,1.76,1.67s1.77-.69,1.77-1.67Z"/>
          <path class="mob-cls-12" d="m122.02,273.28h2.05v1.04c.5-.68,1.19-1.17,2.25-1.17,1.69,0,3.3,1.32,3.3,3.74v.03c0,2.42-1.58,3.74-3.3,3.74-1.09,0-1.77-.5-2.25-1.08v3.11h-2.05v-9.4Zm5.55,3.63v-.03c0-1.2-.81-2-1.77-2s-1.75.8-1.75,2v.03c0,1.2.8,2,1.75,2s1.77-.78,1.77-2Z"/>
          <path class="mob-cls-12" d="m131.13,273.28h2.05v1.46c.42-1,1.09-1.65,2.31-1.59v2.15h-.11c-1.36,0-2.2.82-2.2,2.55v2.67h-2.05v-7.24Z"/>
          <path class="mob-cls-12" d="m136.22,276.94v-.03c0-2.07,1.47-3.77,3.58-3.77,2.42,0,3.52,1.88,3.52,3.93,0,.16-.01.35-.03.54h-5.04c.2.93.85,1.42,1.77,1.42.69,0,1.19-.22,1.76-.74l1.17,1.04c-.67.84-1.65,1.35-2.96,1.35-2.17,0-3.78-1.53-3.78-3.74Zm5.1-.61c-.12-.92-.66-1.54-1.53-1.54s-1.4.61-1.57,1.54h3.09Z"/>
          <path class="mob-cls-12" d="m144.52,276.91v-.03c0-2.42,1.58-3.74,3.3-3.74,1.09,0,1.77.5,2.25,1.08v-3.56h2.05v9.86h-2.05v-1.04c-.5.68-1.19,1.18-2.25,1.18-1.69,0-3.3-1.32-3.3-3.74Zm5.58,0v-.03c0-1.2-.8-2-1.75-2s-1.77.78-1.77,2v.03c0,1.2.81,2,1.77,2s1.75-.8,1.75-2Z"/>
          <path class="mob-cls-12" d="m153.96,273.28h2.05v1.03c.47-.61,1.08-1.16,2.12-1.16,1.55,0,2.46,1.03,2.46,2.69v4.69h-2.05v-4.04c0-.97-.46-1.47-1.24-1.47s-1.28.5-1.28,1.47v4.04h-2.05v-7.24Z"/>
          <path class="mob-cls-12" d="m162.41,270.66h2.16v1.82h-2.16v-1.82Zm.05,2.62h2.05v7.24h-2.05v-7.24Z"/>
          <path class="mob-cls-12" d="m165.88,279.56l.88-1.35c.78.57,1.61.86,2.28.86.59,0,.86-.22.86-.54v-.03c0-.45-.7-.59-1.5-.84-1.01-.3-2.16-.77-2.16-2.17v-.03c0-1.47,1.19-2.3,2.65-2.3.92,0,1.92.31,2.7.84l-.78,1.42c-.72-.42-1.43-.68-1.96-.68s-.76.22-.76.5v.03c0,.41.69.59,1.47.86,1.01.34,2.19.82,2.19,2.15v.03c0,1.61-1.2,2.34-2.77,2.34-1.01,0-2.15-.34-3.11-1.09Z"/>
          <path class="mob-cls-12" d="m172.87,276.94v-.03c0-2.08,1.67-3.77,3.93-3.77s3.9,1.66,3.9,3.74v.03c0,2.08-1.67,3.77-3.93,3.77s-3.9-1.66-3.9-3.74Zm5.81,0v-.03c0-1.07-.77-2-1.9-2s-1.88.9-1.88,1.97v.03c0,1.07.77,2,1.9,2s1.88-.9,1.88-1.97Z"/>
          <path class="mob-cls-12" d="m182.28,270.66h2.05v9.86h-2.05v-9.86Z"/>
          <path class="mob-cls-12" d="m185.91,276.94v-.03c0-2.08,1.67-3.77,3.93-3.77s3.9,1.66,3.9,3.74v.03c0,2.08-1.67,3.77-3.93,3.77s-3.9-1.66-3.9-3.74Zm5.81,0v-.03c0-1.07-.77-2-1.9-2s-1.88.9-1.88,1.97v.03c0,1.07.77,2,1.9,2s1.88-.9,1.88-1.97Z"/>
          <path class="mob-cls-12" d="m195.23,273.28h2.05v1.03c.47-.61,1.08-1.16,2.12-1.16,1.55,0,2.46,1.03,2.46,2.69v4.69h-2.05v-4.04c0-.97-.46-1.47-1.24-1.47s-1.28.5-1.28,1.47v4.04h-2.05v-7.24Z"/>
          <path class="mob-cls-12" d="m203.29,276.94v-.03c0-2.07,1.47-3.77,3.58-3.77,2.42,0,3.52,1.88,3.52,3.93,0,.16-.01.35-.03.54h-5.04c.2.93.85,1.42,1.77,1.42.69,0,1.19-.22,1.76-.74l1.17,1.04c-.67.84-1.65,1.35-2.96,1.35-2.17,0-3.78-1.53-3.78-3.74Zm5.1-.61c-.12-.92-.66-1.54-1.53-1.54s-1.4.61-1.57,1.54h3.09Z"/>
          <path class="mob-cls-12" d="m211.21,281.85c.93-.09,1.39-.57,1.32-1.34h-.84v-2.16h2.19v1.82c0,1.78-.89,2.5-2.5,2.52l-.17-.85Z"/>
          <path class="mob-cls-12" d="m122.36,294.66v-3.43h-.86v-1.76h.86v-1.85h2.05v1.85h1.7v1.76h-1.7v3.09c0,.47.2.7.66.7.38,0,.72-.09,1.01-.26v1.65c-.43.26-.93.42-1.62.42-1.26,0-2.11-.5-2.11-2.17Z"/>
          <path class="mob-cls-12" d="m127.19,294.64v-.03c0-1.58,1.2-2.31,2.92-2.31.73,0,1.26.12,1.77.3v-.12c0-.85-.53-1.32-1.55-1.32-.78,0-1.34.15-2,.39l-.51-1.57c.8-.35,1.58-.58,2.81-.58,1.12,0,1.93.3,2.44.81.54.54.78,1.34.78,2.31v4.2h-1.99v-.78c-.5.55-1.19.92-2.19.92-1.36,0-2.48-.78-2.48-2.21Zm4.71-.47v-.36c-.35-.16-.81-.27-1.31-.27-.88,0-1.42.35-1.42,1v.03c0,.55.46.88,1.12.88.96,0,1.61-.53,1.61-1.27Z"/>
          <path class="mob-cls-12" d="m135.61,289.48h2.05v1.04c.5-.68,1.19-1.17,2.25-1.17,1.69,0,3.3,1.32,3.3,3.74v.03c0,2.42-1.58,3.74-3.3,3.74-1.09,0-1.77-.5-2.25-1.08v3.11h-2.05v-9.4Zm5.55,3.63v-.03c0-1.2-.81-2-1.77-2s-1.75.8-1.75,2v.03c0,1.2.8,2,1.75,2s1.77-.78,1.77-2Z"/>
          <path class="mob-cls-12" d="m144.38,293.14v-.03c0-2.07,1.47-3.77,3.58-3.77,2.42,0,3.52,1.88,3.52,3.93,0,.16-.01.35-.03.54h-5.04c.2.93.85,1.42,1.77,1.42.69,0,1.19-.22,1.76-.74l1.17,1.04c-.67.84-1.65,1.35-2.96,1.35-2.17,0-3.78-1.53-3.78-3.74Zm5.1-.61c-.12-.92-.66-1.54-1.53-1.54s-1.4.61-1.57,1.54h3.09Z"/>
          <path class="mob-cls-12" d="m153,289.48h2.05v1.46c.42-1,1.09-1.65,2.31-1.59v2.15h-.11c-1.36,0-2.2.82-2.2,2.55v2.67h-2.05v-7.24Z"/>
          <path class="mob-cls-12" d="m158.09,293.14v-.03c0-2.07,1.47-3.77,3.58-3.77,2.42,0,3.52,1.88,3.52,3.93,0,.16-.01.35-.03.54h-5.04c.2.93.85,1.42,1.77,1.42.69,0,1.19-.22,1.76-.74l1.17,1.04c-.67.84-1.65,1.35-2.96,1.35-2.17,0-3.78-1.53-3.78-3.74Zm5.1-.61c-.12-.92-.66-1.54-1.53-1.54s-1.4.61-1.57,1.54h3.09Z"/>
          <path class="mob-cls-12" d="m166.39,293.11v-.03c0-2.42,1.58-3.74,3.29-3.74,1.09,0,1.77.5,2.26,1.08v-3.56h2.05v9.86h-2.05v-1.04c-.5.68-1.19,1.18-2.26,1.18-1.69,0-3.29-1.32-3.29-3.74Zm5.58,0v-.03c0-1.2-.8-2-1.75-2s-1.77.78-1.77,2v.03c0,1.2.81,2,1.77,2s1.75-.8,1.75-2Z"/>
          <path class="mob-cls-12" d="m181.93,295.77v.95h-2.05v-9.86h2.05v3.66c.5-.68,1.19-1.17,2.25-1.17,1.69,0,3.3,1.32,3.3,3.74v.03c0,2.42-1.58,3.74-3.3,3.74-1.09,0-1.77-.5-2.25-1.08Zm3.5-2.66v-.03c0-1.2-.81-2-1.77-2s-1.75.8-1.75,2v.03c0,1.2.8,2,1.75,2s1.77-.78,1.77-2Z"/>
          <path class="mob-cls-12" d="m193.41,289.48h2.13l-2.78,7.41c-.55,1.47-1.15,2.03-2.38,2.03-.74,0-1.3-.19-1.82-.5l.69-1.49c.27.16.61.28.88.28.35,0,.54-.11.71-.47l-2.83-7.27h2.17l1.65,4.93,1.58-4.93Z"/>
          <path class="mob-cls-12" d="m200.47,295.46l1.26-1.5c.72.65,1.42,1.03,2.25,1.03.97,0,1.58-.47,1.58-1.31v-.03c0-.81-.69-1.28-1.67-1.28-.59,0-1.13.16-1.58.35l-1.2-.8.27-4.66h5.81v1.82h-4.02l-.11,1.63c.38-.09.72-.16,1.24-.16,1.84,0,3.31.89,3.31,3.02v.03c0,2-1.42,3.27-3.59,3.27-1.51,0-2.62-.54-3.54-1.42Z"/>
          <path class="mob-cls-12" d="m213.36,289.48h2.05v1.03c.47-.61,1.09-1.16,2.13-1.16.95,0,1.66.42,2.04,1.15.63-.74,1.39-1.15,2.38-1.15,1.53,0,2.44.92,2.44,2.66v4.71h-2.05v-4.04c0-.97-.43-1.47-1.2-1.47s-1.24.5-1.24,1.47v4.04h-2.05v-4.04c0-.97-.43-1.47-1.2-1.47s-1.24.5-1.24,1.47v4.04h-2.05v-7.24Z"/>
          <path class="mob-cls-12" d="m226.22,298.15l.7-1.54c.74.42,1.49.66,2.44.66,1.4,0,2.07-.68,2.07-1.97v-.35c-.61.73-1.27,1.17-2.36,1.17-1.69,0-3.21-1.23-3.21-3.38v-.03c0-2.16,1.55-3.38,3.21-3.38,1.12,0,1.78.47,2.34,1.08v-.95h2.05v5.6c0,1.3-.31,2.24-.92,2.85-.67.68-1.71.97-3.12.97-1.17,0-2.28-.27-3.2-.76Zm5.21-5.4v-.03c0-.99-.77-1.67-1.77-1.67s-1.76.69-1.76,1.67v.03c0,1,.76,1.67,1.76,1.67s1.77-.69,1.77-1.67Z"/>
          <path class="mob-cls-12" d="m121.67,309.34v-.03c0-2.07,1.47-3.77,3.58-3.77,2.42,0,3.52,1.88,3.52,3.93,0,.16-.01.35-.03.54h-5.04c.2.93.85,1.42,1.77,1.42.69,0,1.19-.22,1.76-.74l1.17,1.04c-.67.84-1.65,1.35-2.96,1.35-2.17,0-3.78-1.53-3.78-3.74Zm5.1-.61c-.12-.92-.66-1.54-1.53-1.54s-1.4.61-1.57,1.54h3.09Z"/>
          <path class="mob-cls-12" d="m129.31,305.68h2.17l1.62,4.85,1.63-4.85h2.13l-2.85,7.29h-1.86l-2.85-7.29Z"/>
          <path class="mob-cls-12" d="m137.3,309.34v-.03c0-2.07,1.47-3.77,3.58-3.77,2.42,0,3.52,1.88,3.52,3.93,0,.16-.01.35-.03.54h-5.04c.2.93.85,1.42,1.77,1.42.69,0,1.19-.22,1.76-.74l1.17,1.04c-.67.84-1.65,1.35-2.96,1.35-2.17,0-3.78-1.53-3.78-3.74Zm5.1-.61c-.12-.92-.66-1.54-1.53-1.54s-1.4.61-1.57,1.54h3.09Z"/>
          <path class="mob-cls-12" d="m145.93,305.68h2.05v1.46c.42-1,1.09-1.65,2.31-1.59v2.15h-.11c-1.36,0-2.2.82-2.2,2.55v2.67h-2.05v-7.24Z"/>
          <path class="mob-cls-12" d="m156.32,305.68h2.13l-2.78,7.41c-.55,1.47-1.15,2.03-2.38,2.03-.74,0-1.3-.19-1.82-.5l.69-1.49c.27.16.61.28.88.28.35,0,.54-.11.71-.47l-2.83-7.27h2.17l1.65,4.93,1.58-4.93Z"/>
          <path class="mob-cls-12" d="m163.13,305.68h2.08l1.16,4.39,1.36-4.42h1.77l1.38,4.43,1.19-4.4h2.04l-2.25,7.29h-1.85l-1.39-4.44-1.42,4.44h-1.84l-2.23-7.29Z"/>
          <path class="mob-cls-12" d="m174.65,309.34v-.03c0-2.07,1.47-3.77,3.58-3.77,2.42,0,3.52,1.88,3.52,3.93,0,.16-.01.35-.03.54h-5.04c.2.93.85,1.42,1.77,1.42.69,0,1.19-.22,1.76-.74l1.17,1.04c-.67.84-1.65,1.35-2.96,1.35-2.17,0-3.78-1.53-3.78-3.74Zm5.1-.61c-.12-.92-.66-1.54-1.53-1.54s-1.4.61-1.57,1.54h3.09Z"/>
          <path class="mob-cls-12" d="m182.93,309.34v-.03c0-2.07,1.47-3.77,3.58-3.77,2.42,0,3.52,1.88,3.52,3.93,0,.16-.01.35-.03.54h-5.04c.2.93.85,1.42,1.77,1.42.69,0,1.19-.22,1.76-.74l1.17,1.04c-.67.84-1.65,1.35-2.96,1.35-2.17,0-3.78-1.53-3.78-3.74Zm5.1-.61c-.12-.92-.66-1.54-1.53-1.54s-1.4.61-1.57,1.54h3.09Z"/>
          <path class="mob-cls-12" d="m191.56,303.06h2.05v5.25l2.4-2.63h2.46l-2.75,2.85,2.85,4.39h-2.38l-1.85-2.97-.73.77v2.2h-2.05v-9.86Z"/>
          <path class="mob-cls-12" d="m198.98,314.25c.93-.09,1.39-.57,1.32-1.34h-.84v-2.16h2.19v1.82c0,1.78-.89,2.5-2.5,2.52l-.17-.85Z"/>
          <path class="mob-cls-12" d="m207.11,309.34v-.03c0-2.08,1.67-3.77,3.93-3.77s3.9,1.66,3.9,3.74v.03c0,2.08-1.67,3.77-3.93,3.77s-3.9-1.66-3.9-3.74Zm5.81,0v-.03c0-1.07-.77-2-1.9-2s-1.88.9-1.88,1.97v.03c0,1.07.77,2,1.9,2s1.88-.9,1.88-1.97Z"/>
          <path class="mob-cls-12" d="m215.37,305.68h2.17l1.62,4.85,1.63-4.85h2.13l-2.85,7.29h-1.86l-2.85-7.29Z"/>
          <path class="mob-cls-12" d="m223.36,309.34v-.03c0-2.07,1.47-3.77,3.58-3.77,2.42,0,3.52,1.88,3.52,3.93,0,.16-.01.35-.03.54h-5.04c.2.93.85,1.42,1.77,1.42.69,0,1.19-.22,1.76-.74l1.17,1.04c-.67.84-1.65,1.35-2.96,1.35-2.17,0-3.78-1.53-3.78-3.74Zm5.1-.61c-.12-.92-.66-1.54-1.53-1.54s-1.4.61-1.57,1.54h3.09Z"/>
          <path class="mob-cls-12" d="m231.99,305.68h2.05v1.46c.42-1,1.09-1.65,2.31-1.59v2.15h-.11c-1.36,0-2.2.82-2.2,2.55v2.67h-2.05v-7.24Z"/>
          <path class="mob-cls-12" d="m241.37,310.32v-.03c0-1.15.53-1.82,1.53-2.28-.73-.45-1.2-1.05-1.2-2.07v-.03c0-1.44,1.32-2.59,3.32-2.59s3.32,1.13,3.32,2.59v.03c0,1.01-.47,1.62-1.2,2.07.96.5,1.53,1.11,1.53,2.23v.03c0,1.76-1.55,2.78-3.65,2.78s-3.65-1.08-3.65-2.73Zm5.28-.16v-.03c0-.73-.69-1.16-1.63-1.16s-1.63.43-1.63,1.16v.03c0,.65.61,1.17,1.63,1.17s1.63-.51,1.63-1.17Zm-.28-3.98v-.03c0-.58-.5-1.11-1.35-1.11s-1.35.51-1.35,1.09v.03c0,.66.53,1.16,1.35,1.16s1.35-.49,1.35-1.15Z"/>
          <path class="mob-cls-12" d="m121.43,321.88h2.08l1.16,4.39,1.36-4.42h1.77l1.38,4.43,1.19-4.4h2.04l-2.25,7.29h-1.85l-1.39-4.44-1.42,4.44h-1.84l-2.23-7.29Z"/>
          <path class="mob-cls-12" d="m132.95,325.54v-.03c0-2.07,1.47-3.77,3.58-3.77,2.42,0,3.52,1.88,3.52,3.93,0,.16-.01.35-.03.54h-5.04c.2.93.85,1.42,1.77,1.42.69,0,1.19-.22,1.76-.74l1.17,1.04c-.67.84-1.65,1.35-2.96,1.35-2.17,0-3.78-1.53-3.78-3.74Zm5.1-.61c-.12-.92-.66-1.54-1.53-1.54s-1.4.61-1.57,1.54h3.09Z"/>
          <path class="mob-cls-12" d="m141.23,325.54v-.03c0-2.07,1.47-3.77,3.58-3.77,2.42,0,3.52,1.88,3.52,3.93,0,.16-.01.35-.03.54h-5.04c.2.93.85,1.42,1.77,1.42.69,0,1.19-.22,1.76-.74l1.17,1.04c-.67.84-1.65,1.35-2.96,1.35-2.17,0-3.78-1.53-3.78-3.74Zm5.1-.61c-.12-.92-.66-1.54-1.53-1.54s-1.4.61-1.57,1.54h3.09Z"/>
          <path class="mob-cls-12" d="m149.85,319.26h2.05v5.25l2.4-2.63h2.46l-2.75,2.85,2.85,4.39h-2.38l-1.85-2.97-.73.77v2.2h-2.05v-9.86Z"/>
          <path class="mob-cls-12" d="m157.28,328.16l.88-1.35c.78.57,1.61.86,2.28.86.59,0,.86-.22.86-.54v-.03c0-.45-.7-.59-1.5-.84-1.01-.3-2.16-.77-2.16-2.17v-.03c0-1.47,1.19-2.3,2.65-2.3.92,0,1.92.31,2.7.84l-.78,1.42c-.72-.42-1.43-.68-1.96-.68s-.76.22-.76.5v.03c0,.41.69.59,1.47.86,1.01.34,2.19.82,2.19,2.15v.03c0,1.61-1.2,2.34-2.77,2.34-1.01,0-2.15-.34-3.11-1.09Z"/>
        </g>
        <g>
          <line class="mob-cls-2" x1="111.33" y1="291.93" x2="111.33" y2="291.93"/>
          <line class="mob-cls-1" x1="105.16" y1="291.93" x2="71.22" y2="291.93"/>
          <line class="mob-cls-2" x1="68.14" y1="291.93" x2="68.14" y2="291.93"/>
        </g>
      </g>
      <g id="info_btn_1" data-name="therapy_1" class="timeline--btn">
        <circle class="mob-cls-10" cx="51.64" cy="291.21" r="16.5"/>
        <circle class="mob-cls-13 tooltip-mobile" title="Click here" cx="51.64" cy="291.21" r="15.06"/>
        <g>
          <path class="mob-cls-8" d="m55.33,299.05h-8.69c-.76,0-1.38-.62-1.38-1.38,0-1.02.76-1.89,1.76-2.04l3.72-.58-6.28-6.28c-.69-.69-.69-1.8,0-2.49.69-.69,1.81-.69,2.5,0l1.63,1.63c.08-.27.23-.53.44-.74.63-.64,1.63-.69,2.32-.16.08-.28.23-.54.45-.76.64-.64,1.63-.69,2.32-.16.08-.28.23-.54.45-.76.69-.69,1.81-.69,2.5,0l3.47,3.81c.85.94,1.32,2.15,1.32,3.41,0,1.35-.53,2.63-1.48,3.58l-1.45,1.45c-.96.96-2.23,1.49-3.59,1.49Zm-9.62-12.37c-.21,0-.43.08-.59.25-.33.33-.33.87,0,1.19l6.92,6.92c.12.12.17.3.11.47-.05.17-.2.29-.37.31l-4.62.73c-.56.08-.98.56-.98,1.12,0,.25.21.46.46.46h8.69c1.11,0,2.15-.43,2.93-1.22l1.45-1.45c.78-.78,1.21-1.82,1.21-2.93,0-1.03-.38-2.02-1.08-2.79l-3.45-3.79c-.31-.31-.84-.31-1.17.02-.16.16-.25.37-.25.6s.09.44.25.59l.04.04c.18.18.18.47,0,.65-.18.18-.46.18-.64,0h0s0,0,0,0h0s0,0,0,0h0s0,0,0,0l-.97-.97c-.33-.33-.86-.33-1.19,0s-.33.86,0,1.19l.96.96c.09.09.14.21.14.33s-.05.24-.13.33c-.18.18-.47.18-.65,0l-1.88-1.88c-.33-.33-.86-.33-1.19,0-.33.33-.33.86,0,1.19l1.88,1.88c.09.09.14.21.14.33s-.05.24-.13.33c-.18.18-.47.18-.65,0l-4.61-4.61c-.16-.16-.38-.25-.59-.25Z"/>
          <path class="mob-cls-8" d="m44.2,291.34c-.06,0-.13-.01-.19-.04-1.49-.67-2.45-2.16-2.45-3.78,0-2.29,1.86-4.15,4.15-4.15,1.62,0,3.11.96,3.78,2.45.11.23,0,.51-.23.61-.23.11-.51,0-.61-.23-.52-1.16-1.68-1.9-2.94-1.9-1.78,0-3.23,1.45-3.23,3.23,0,1.26.75,2.41,1.9,2.94.23.11.33.38.23.61-.08.17-.25.27-.42.27Z"/>
        </g>
      </g>
      <g id="june_2021_text">
        <g>
          <line class="mob-cls-2" x1="111.33" y1="200.79" x2="111.33" y2="200.79"/>
          <line class="mob-cls-4" x1="106.67" y1="200.79" x2="104.33" y2="200.79"/>
          <line class="mob-cls-2" x1="102" y1="200.79" x2="102" y2="200.79"/>
        </g>
        <g>
          <path class="mob-cls-11" d="m122.24,176.72h3.69c2.97,0,5.02,2.04,5.02,4.7v.03c0,2.66-2.05,4.73-5.02,4.73h-3.69v-9.45Zm2.08,1.88v5.7h1.61c1.7,0,2.85-1.15,2.85-2.82v-.03c0-1.67-1.15-2.85-2.85-2.85h-1.61Z"/>
          <path class="mob-cls-11" d="m132.62,176.31h2.16v1.82h-2.16v-1.82Zm.05,2.62h2.05v7.24h-2.05v-7.24Z"/>
          <path class="mob-cls-11" d="m136.22,184.09v-.03c0-1.58,1.2-2.31,2.92-2.31.73,0,1.26.12,1.77.3v-.12c0-.85-.53-1.32-1.55-1.32-.78,0-1.34.15-2,.39l-.51-1.57c.8-.35,1.58-.58,2.81-.58,1.12,0,1.93.3,2.44.81.54.54.78,1.34.78,2.31v4.2h-1.99v-.78c-.5.55-1.19.92-2.19.92-1.36,0-2.48-.78-2.48-2.21Zm4.71-.47v-.36c-.35-.16-.81-.27-1.31-.27-.88,0-1.42.35-1.42,1v.03c0,.55.46.88,1.12.88.96,0,1.61-.53,1.61-1.27Z"/>
          <path class="mob-cls-11" d="m144.69,187.6l.7-1.54c.74.42,1.49.66,2.44.66,1.4,0,2.07-.68,2.07-1.97v-.35c-.61.73-1.27,1.17-2.36,1.17-1.69,0-3.21-1.23-3.21-3.38v-.03c0-2.16,1.55-3.38,3.21-3.38,1.12,0,1.78.47,2.34,1.08v-.95h2.05v5.6c0,1.3-.31,2.24-.92,2.85-.67.68-1.71.97-3.12.97-1.17,0-2.28-.27-3.2-.76Zm5.21-5.4v-.03c0-.99-.77-1.67-1.77-1.67s-1.76.69-1.76,1.67v.03c0,1,.76,1.67,1.76,1.67s1.77-.69,1.77-1.67Z"/>
          <path class="mob-cls-11" d="m153.76,178.93h2.05v1.03c.47-.61,1.08-1.16,2.12-1.16,1.55,0,2.46,1.03,2.46,2.69v4.69h-2.05v-4.04c0-.97-.46-1.47-1.24-1.47s-1.28.5-1.28,1.47v4.04h-2.05v-7.24Z"/>
          <path class="mob-cls-11" d="m161.82,182.59v-.03c0-2.08,1.67-3.77,3.93-3.77s3.9,1.66,3.9,3.74v.03c0,2.08-1.67,3.77-3.93,3.77s-3.9-1.66-3.9-3.74Zm5.81,0v-.03c0-1.07-.77-2-1.9-2s-1.88.9-1.88,1.97v.03c0,1.07.77,2,1.9,2s1.88-.9,1.88-1.97Z"/>
          <path class="mob-cls-11" d="m170.56,185.21l.88-1.35c.78.57,1.61.86,2.28.86.59,0,.86-.22.86-.54v-.03c0-.45-.7-.59-1.5-.84-1.01-.3-2.16-.77-2.16-2.17v-.03c0-1.47,1.19-2.3,2.65-2.3.92,0,1.92.31,2.7.84l-.78,1.42c-.72-.42-1.43-.68-1.96-.68s-.76.22-.76.5v.03c0,.41.69.59,1.47.86,1.01.34,2.19.82,2.19,2.15v.03c0,1.61-1.2,2.34-2.77,2.34-1.01,0-2.15-.34-3.11-1.09Z"/>
          <path class="mob-cls-11" d="m177.95,176.31h2.16v1.82h-2.16v-1.82Zm.05,2.62h2.05v7.24h-2.05v-7.24Z"/>
          <path class="mob-cls-11" d="m181.42,185.21l.88-1.35c.78.57,1.61.86,2.28.86.59,0,.86-.22.86-.54v-.03c0-.45-.7-.59-1.5-.84-1.01-.3-2.16-.77-2.16-2.17v-.03c0-1.47,1.19-2.3,2.65-2.3.92,0,1.92.31,2.7.84l-.78,1.42c-.72-.42-1.43-.68-1.96-.68s-.76.22-.76.5v.03c0,.41.69.59,1.47.86,1.01.34,2.19.82,2.19,2.15v.03c0,1.61-1.2,2.34-2.77,2.34-1.01,0-2.15-.34-3.11-1.09Z"/>
          <path class="mob-cls-11" d="m192.46,182.59v-.03c0-2.08,1.67-3.77,3.93-3.77s3.9,1.66,3.9,3.74v.03c0,2.08-1.67,3.77-3.93,3.77s-3.9-1.66-3.9-3.74Zm5.81,0v-.03c0-1.07-.77-2-1.9-2s-1.88.9-1.88,1.97v.03c0,1.07.77,2,1.9,2s1.88-.9,1.88-1.97Z"/>
          <path class="mob-cls-11" d="m202.13,180.69h-.85v-1.69h.85v-.46c0-.8.2-1.38.58-1.76.38-.38.93-.57,1.66-.57.65,0,1.08.08,1.46.2v1.7c-.3-.11-.58-.18-.93-.18-.47,0-.74.24-.74.78v.28h1.66v1.67h-1.63v5.48h-2.05v-5.48Z"/>
          <path class="mob-cls-11" d="m122.06,192.51h2.16v1.82h-2.16v-1.82Zm.05,2.62h2.05v7.24h-2.05v-7.24Z"/>
          <path class="mob-cls-11" d="m126.19,192.51h2.05v9.86h-2.05v-9.86Z"/>
          <path class="mob-cls-11" d="m129.82,198.79v-.03c0-2.07,1.47-3.77,3.58-3.77,2.42,0,3.52,1.88,3.52,3.93,0,.16-.01.35-.03.54h-5.04c.2.93.85,1.42,1.77,1.42.69,0,1.19-.22,1.76-.74l1.17,1.04c-.67.84-1.65,1.35-2.96,1.35-2.17,0-3.78-1.53-3.78-3.74Zm5.1-.61c-.12-.92-.66-1.54-1.53-1.54s-1.4.61-1.57,1.54h3.09Z"/>
          <path class="mob-cls-11" d="m138.1,198.79v-.03c0-2.08,1.67-3.77,3.93-3.77s3.9,1.66,3.9,3.74v.03c0,2.08-1.67,3.77-3.93,3.77s-3.9-1.66-3.9-3.74Zm5.81,0v-.03c0-1.07-.77-2-1.9-2s-1.88.9-1.88,1.97v.03c0,1.07.77,2,1.9,2s1.88-.9,1.88-1.97Z"/>
          <path class="mob-cls-11" d="m147.06,198.79v-.03c0-2.07,1.58-3.77,3.79-3.77,1.36,0,2.21.46,2.89,1.22l-1.26,1.35c-.46-.49-.92-.8-1.65-.8-1.03,0-1.76.9-1.76,1.97v.03c0,1.11.72,2,1.84,2,.69,0,1.16-.3,1.66-.77l1.2,1.22c-.7.77-1.51,1.32-2.96,1.32-2.17,0-3.77-1.67-3.77-3.74Z"/>
          <path class="mob-cls-11" d="m154.57,198.79v-.03c0-2.08,1.67-3.77,3.93-3.77s3.9,1.66,3.9,3.74v.03c0,2.08-1.67,3.77-3.93,3.77s-3.9-1.66-3.9-3.74Zm5.81,0v-.03c0-1.07-.77-2-1.9-2s-1.88.9-1.88,1.97v.03c0,1.07.77,2,1.9,2s1.88-.9,1.88-1.97Z"/>
          <path class="mob-cls-11" d="m163.98,192.51h2.05v9.86h-2.05v-9.86Z"/>
          <path class="mob-cls-11" d="m167.61,198.79v-.03c0-2.08,1.67-3.77,3.93-3.77s3.9,1.66,3.9,3.74v.03c0,2.08-1.67,3.77-3.93,3.77s-3.9-1.66-3.9-3.74Zm5.81,0v-.03c0-1.07-.77-2-1.9-2s-1.88.9-1.88,1.97v.03c0,1.07.77,2,1.9,2s1.88-.9,1.88-1.97Z"/>
          <path class="mob-cls-11" d="m176.92,195.13h2.05v1.03c.47-.61,1.08-1.16,2.12-1.16,1.55,0,2.46,1.03,2.46,2.69v4.69h-2.05v-4.04c0-.97-.46-1.47-1.24-1.47s-1.28.5-1.28,1.47v4.04h-2.05v-7.24Z"/>
          <path class="mob-cls-11" d="m185.37,192.51h2.16v1.82h-2.16v-1.82Zm.05,2.62h2.05v7.24h-2.05v-7.24Z"/>
          <path class="mob-cls-11" d="m189.06,198.79v-.03c0-2.07,1.58-3.77,3.79-3.77,1.36,0,2.21.46,2.89,1.22l-1.26,1.35c-.46-.49-.92-.8-1.65-.8-1.03,0-1.76.9-1.76,1.97v.03c0,1.11.72,2,1.84,2,.69,0,1.16-.3,1.66-.77l1.2,1.22c-.7.77-1.51,1.32-2.96,1.32-2.17,0-3.77-1.67-3.77-3.74Z"/>
          <path class="mob-cls-11" d="m200.74,200.29v-.03c0-1.58,1.2-2.31,2.92-2.31.73,0,1.26.12,1.77.3v-.12c0-.85-.53-1.32-1.55-1.32-.78,0-1.34.15-2,.39l-.51-1.57c.8-.35,1.58-.58,2.81-.58,1.12,0,1.93.3,2.44.81.54.54.78,1.34.78,2.31v4.2h-1.99v-.78c-.5.55-1.19.92-2.19.92-1.36,0-2.48-.78-2.48-2.21Zm4.71-.47v-.36c-.35-.16-.81-.27-1.31-.27-.88,0-1.42.35-1.42,1v.03c0,.55.46.88,1.12.88.96,0,1.61-.53,1.61-1.27Z"/>
          <path class="mob-cls-11" d="m209.16,195.13h2.05v1.03c.47-.61,1.08-1.16,2.12-1.16,1.55,0,2.46,1.03,2.46,2.69v4.69h-2.05v-4.04c0-.97-.46-1.47-1.24-1.47s-1.28.5-1.28,1.47v4.04h-2.05v-7.24Z"/>
          <path class="mob-cls-11" d="m217.25,198.76v-.03c0-2.42,1.58-3.74,3.29-3.74,1.09,0,1.77.5,2.26,1.08v-3.56h2.05v9.86h-2.05v-1.04c-.5.68-1.19,1.18-2.26,1.18-1.69,0-3.29-1.32-3.29-3.74Zm5.58,0v-.03c0-1.2-.8-2-1.75-2s-1.77.78-1.77,2v.03c0,1.2.81,2,1.77,2s1.75-.8,1.75-2Z"/>
          <path class="mob-cls-11" d="m122.06,208.71h2.16v1.82h-2.16v-1.82Zm.05,2.62h2.05v7.24h-2.05v-7.24Z"/>
          <path class="mob-cls-11" d="m126.1,211.33h2.05v1.03c.47-.61,1.08-1.16,2.12-1.16,1.55,0,2.46,1.03,2.46,2.69v4.69h-2.05v-4.04c0-.97-.46-1.47-1.24-1.47s-1.28.5-1.28,1.47v4.04h-2.05v-7.24Z"/>
          <path class="mob-cls-11" d="m134.86,213.09h-.85v-1.69h.85v-.46c0-.8.2-1.38.58-1.76.38-.38.93-.57,1.66-.57.65,0,1.08.08,1.46.2v1.7c-.3-.11-.58-.18-.93-.18-.47,0-.74.24-.74.78v.28h1.66v1.67h-1.63v5.48h-2.05v-5.48Zm4.9-4.38h2.05v9.86h-2.05v-9.86Z"/>
          <path class="mob-cls-11" d="m143.31,216.49v-.03c0-1.58,1.2-2.31,2.92-2.31.73,0,1.26.12,1.77.3v-.12c0-.85-.53-1.32-1.55-1.32-.78,0-1.34.15-2,.39l-.51-1.57c.8-.35,1.58-.58,2.81-.58,1.12,0,1.93.3,2.44.81.54.54.78,1.34.78,2.31v4.2h-1.99v-.78c-.5.55-1.19.92-2.19.92-1.36,0-2.48-.78-2.48-2.21Zm4.71-.47v-.36c-.35-.16-.81-.27-1.31-.27-.88,0-1.42.35-1.42,1v.03c0,.55.46.88,1.12.88.96,0,1.61-.53,1.61-1.27Z"/>
          <path class="mob-cls-11" d="m151.73,211.33h2.05v1.03c.47-.61,1.09-1.16,2.13-1.16.95,0,1.66.42,2.04,1.15.63-.74,1.39-1.15,2.38-1.15,1.53,0,2.44.92,2.44,2.66v4.71h-2.05v-4.04c0-.97-.43-1.47-1.2-1.47s-1.24.5-1.24,1.47v4.04h-2.05v-4.04c0-.97-.43-1.47-1.2-1.47s-1.24.5-1.24,1.47v4.04h-2.05v-7.24Z"/>
          <path class="mob-cls-11" d="m164.56,211.33h2.05v1.03c.47-.61,1.09-1.16,2.13-1.16.95,0,1.66.42,2.04,1.15.63-.74,1.39-1.15,2.38-1.15,1.53,0,2.44.92,2.44,2.66v4.71h-2.05v-4.04c0-.97-.43-1.47-1.2-1.47s-1.24.5-1.24,1.47v4.04h-2.05v-4.04c0-.97-.43-1.47-1.2-1.47s-1.24.5-1.24,1.47v4.04h-2.05v-7.24Z"/>
          <path class="mob-cls-11" d="m176.95,216.49v-.03c0-1.58,1.2-2.31,2.92-2.31.73,0,1.26.12,1.77.3v-.12c0-.85-.53-1.32-1.55-1.32-.78,0-1.34.15-2,.39l-.51-1.57c.8-.35,1.58-.58,2.81-.58,1.12,0,1.93.3,2.44.81.54.54.78,1.34.78,2.31v4.2h-1.99v-.78c-.5.55-1.19.92-2.19.92-1.36,0-2.48-.78-2.48-2.21Zm4.71-.47v-.36c-.35-.16-.81-.27-1.31-.27-.88,0-1.42.35-1.42,1v.03c0,.55.46.88,1.12.88.96,0,1.61-.53,1.61-1.27Z"/>
          <path class="mob-cls-11" d="m185.64,216.52v-3.43h-.86v-1.76h.86v-1.85h2.05v1.85h1.7v1.76h-1.7v3.09c0,.47.2.7.66.7.38,0,.72-.09,1.01-.26v1.65c-.43.26-.93.42-1.62.42-1.26,0-2.11-.5-2.11-2.17Z"/>
          <path class="mob-cls-11" d="m190.36,214.99v-.03c0-2.08,1.67-3.77,3.93-3.77s3.9,1.66,3.9,3.74v.03c0,2.08-1.67,3.77-3.93,3.77s-3.9-1.66-3.9-3.74Zm5.81,0v-.03c0-1.07-.77-2-1.9-2s-1.88.9-1.88,1.97v.03c0,1.07.77,2,1.9,2s1.88-.9,1.88-1.97Z"/>
          <path class="mob-cls-11" d="m199.67,211.33h2.05v1.46c.42-1,1.09-1.65,2.31-1.59v2.15h-.11c-1.36,0-2.2.82-2.2,2.55v2.67h-2.05v-7.24Z"/>
          <path class="mob-cls-11" d="m210.07,211.33h2.13l-2.78,7.41c-.55,1.47-1.15,2.03-2.38,2.03-.74,0-1.3-.19-1.82-.5l.69-1.49c.27.16.61.28.88.28.35,0,.54-.11.71-.47l-2.83-7.27h2.17l1.65,4.93,1.58-4.93Z"/>
          <path class="mob-cls-11" d="m217.26,213.87v-.03c0-2.69,2.03-4.89,4.93-4.89,1.78,0,2.85.59,3.73,1.46l-1.32,1.53c-.73-.66-1.47-1.07-2.42-1.07-1.59,0-2.74,1.32-2.74,2.94v.03c0,1.62,1.12,2.97,2.74,2.97,1.08,0,1.74-.43,2.49-1.11l1.32,1.34c-.97,1.04-2.05,1.69-3.88,1.69-2.78,0-4.85-2.15-4.85-4.86Z"/>
          <path class="mob-cls-11" d="m227.64,209.12h3.69c2.97,0,5.02,2.04,5.02,4.7v.03c0,2.66-2.05,4.73-5.02,4.73h-3.69v-9.45Zm2.08,1.88v5.7h1.61c1.7,0,2.85-1.15,2.85-2.82v-.03c0-1.67-1.15-2.85-2.85-2.85h-1.61Z"/>
        </g>
      </g>
      <g id="june_2021_capsule">
        <rect class="mob-cls-6" x="0" y="184.14" width="102" height="30" rx="15" ry="15"/>
        <g>
          <path class="mob-cls-12" d="m20.5,202.47l1.16-1.3c.48.53.95.84,1.54.84.7,0,1.13-.42,1.13-1.39v-5.41h1.89v5.49c0,1-.29,1.74-.79,2.24-.52.52-1.27.78-2.18.78-1.31,0-2.17-.58-2.75-1.26Z"/>
          <path class="mob-cls-12" d="m27.87,201.34v-4.16h1.82v3.59c0,.86.41,1.31,1.1,1.31s1.14-.44,1.14-1.31v-3.59h1.82v6.43h-1.82v-.91c-.42.54-.96,1.03-1.88,1.03-1.38,0-2.18-.91-2.18-2.39Z"/>
          <path class="mob-cls-12" d="m35.39,197.18h1.82v.91c.42-.54.96-1.03,1.88-1.03,1.38,0,2.18.91,2.18,2.39v4.16h-1.82v-3.59c0-.86-.41-1.31-1.1-1.31s-1.14.44-1.14,1.31v3.59h-1.82v-6.43Z"/>
          <path class="mob-cls-12" d="m42.56,200.43v-.02c0-1.83,1.31-3.35,3.18-3.35,2.15,0,3.13,1.67,3.13,3.49,0,.14-.01.31-.02.48h-4.47c.18.83.76,1.26,1.57,1.26.61,0,1.06-.19,1.56-.66l1.04.92c-.6.74-1.46,1.2-2.63,1.2-1.93,0-3.36-1.36-3.36-3.32Zm4.53-.54c-.11-.82-.59-1.37-1.36-1.37s-1.25.54-1.39,1.37h2.75Z"/>
          <path class="mob-cls-12" d="m53.6,202.14l2.79-2.29c1.04-.86,1.45-1.32,1.45-2.02s-.47-1.09-1.13-1.09-1.09.36-1.71,1.13l-1.3-1.04c.83-1.13,1.63-1.74,3.13-1.74,1.74,0,2.89,1.02,2.89,2.59v.02c0,1.4-.72,2.1-2.21,3.25l-1.37,1.06h3.66v1.6h-6.21v-1.46Z"/>
          <path class="mob-cls-12" d="m61.13,199.43v-.02c0-2.43,1.51-4.34,3.74-4.34s3.72,1.88,3.72,4.32v.02c0,2.43-1.5,4.34-3.74,4.34s-3.72-1.88-3.72-4.32Zm5.57,0v-.02c0-1.52-.74-2.67-1.85-2.67s-1.82,1.12-1.82,2.65v.02c0,1.54.73,2.67,1.85,2.67s1.82-1.13,1.82-2.65Z"/>
          <path class="mob-cls-12" d="m69.71,202.14l2.79-2.29c1.04-.86,1.45-1.32,1.45-2.02s-.47-1.09-1.13-1.09-1.09.36-1.71,1.13l-1.3-1.04c.83-1.13,1.63-1.74,3.13-1.74,1.74,0,2.89,1.02,2.89,2.59v.02c0,1.4-.72,2.1-2.21,3.25l-1.37,1.06h3.66v1.6h-6.21v-1.46Z"/>
          <path class="mob-cls-12" d="m78.74,197.02l-1.46.36-.38-1.51,2.41-.72h1.26v8.46h-1.82v-6.58Z"/>
        </g>
      </g>
      <g id="_2018_capsule">
        <rect class="mob-cls-6" x="0" y="92.07" width="102" height="30" rx="15" ry="15"/>
        <g>
          <path class="mob-cls-12" d="m37.19,110.07l2.79-2.29c1.04-.86,1.45-1.32,1.45-2.02s-.47-1.09-1.13-1.09-1.09.36-1.71,1.13l-1.3-1.04c.83-1.13,1.63-1.74,3.13-1.74,1.74,0,2.89,1.02,2.89,2.59v.02c0,1.4-.72,2.1-2.21,3.25l-1.37,1.06h3.66v1.6h-6.21v-1.46Z"/>
          <path class="mob-cls-12" d="m44.72,107.36v-.02c0-2.43,1.51-4.34,3.74-4.34s3.72,1.88,3.72,4.32v.02c0,2.43-1.5,4.34-3.74,4.34s-3.72-1.88-3.72-4.32Zm5.57,0v-.02c0-1.52-.74-2.67-1.85-2.67s-1.82,1.12-1.82,2.65v.02c0,1.54.73,2.67,1.85,2.67s1.82-1.13,1.82-2.65Z"/>
          <path class="mob-cls-12" d="m54.91,104.95l-1.46.36-.38-1.51,2.41-.72h1.26v8.46h-1.82v-6.58Z"/>
          <path class="mob-cls-12" d="m58.38,109.23v-.02c0-1.02.47-1.62,1.35-2.03-.65-.4-1.07-.94-1.07-1.83v-.02c0-1.28,1.18-2.3,2.95-2.3s2.95,1.01,2.95,2.3v.02c0,.9-.42,1.44-1.07,1.83.85.44,1.36.98,1.36,1.98v.02c0,1.56-1.38,2.47-3.24,2.47s-3.24-.96-3.24-2.42Zm4.69-.14v-.02c0-.65-.61-1.03-1.45-1.03s-1.45.38-1.45,1.03v.02c0,.58.54,1.04,1.45,1.04s1.45-.46,1.45-1.04Zm-.25-3.54v-.02c0-.52-.44-.98-1.2-.98s-1.2.46-1.2.97v.02c0,.59.47,1.03,1.2,1.03s1.2-.43,1.2-1.02Z"/>
        </g>
      </g>
      <g id="first_symptoms_text">
        <g>
          <line class="mob-cls-2" x1="111.33" y1="61.33" x2="111.33" y2="61.33"/>
          <line class="mob-cls-3" x1="105.5" y1="61.33" x2="55.93" y2="61.33"/>
          <line class="mob-cls-2" x1="53.02" y1="61.33" x2="53.02" y2="61.33"/>
        </g>
        <g>
          <path class="mob-cls-11" d="m122.44,56.37h6.79v.99h-5.73v3.38h5.12v.97h-5.12v4.12h-1.07v-9.45Z"/>
          <path class="mob-cls-11" d="m131.14,56.17h1.19v1.15h-1.19v-1.15Zm.07,2.67h1.04v6.98h-1.04v-6.98Z"/>
          <path class="mob-cls-11" d="m134.67,58.84h1.04v1.82c.51-1.16,1.53-2,2.85-1.94v1.12h-.08c-1.53,0-2.77,1.09-2.77,3.2v2.78h-1.04v-6.98Z"/>
          <path class="mob-cls-11" d="m139.56,64.93l.53-.74c.76.57,1.59.89,2.42.89s1.45-.43,1.45-1.11v-.03c0-.7-.82-.97-1.74-1.23-1.09-.31-2.31-.69-2.31-1.97v-.03c0-1.2,1-2,2.38-2,.85,0,1.8.3,2.51.77l-.47.78c-.65-.42-1.39-.68-2.07-.68-.82,0-1.35.43-1.35,1.01v.03c0,.66.86.92,1.8,1.2,1.08.32,2.24.74,2.24,2v.03c0,1.32-1.09,2.09-2.48,2.09-1,0-2.11-.39-2.89-1.03Z"/>
          <path class="mob-cls-11" d="m147.09,63.97v-4.21h-.97v-.92h.97v-2.11h1.04v2.11h2.21v.92h-2.21v4.08c0,.85.47,1.16,1.17,1.16.35,0,.65-.07,1.01-.24v.89c-.36.19-.76.3-1.26.3-1.12,0-1.97-.55-1.97-1.97Z"/>
          <path class="mob-cls-11" d="m155.65,64.93l.53-.74c.76.57,1.59.89,2.42.89s1.45-.43,1.45-1.11v-.03c0-.7-.82-.97-1.74-1.23-1.09-.31-2.31-.69-2.31-1.97v-.03c0-1.2,1-2,2.38-2,.85,0,1.8.3,2.51.77l-.47.78c-.65-.42-1.39-.68-2.07-.68-.82,0-1.35.43-1.35,1.01v.03c0,.66.86.92,1.8,1.2,1.08.32,2.24.74,2.24,2v.03c0,1.32-1.09,2.09-2.48,2.09-1,0-2.11-.39-2.89-1.03Z"/>
          <path class="mob-cls-11" d="m167.97,58.84h1.11l-2.93,7.21c-.59,1.44-1.27,1.97-2.32,1.97-.58,0-1.01-.12-1.49-.35l.35-.82c.34.18.65.26,1.09.26.62,0,1.01-.32,1.43-1.31l-3.17-6.95h1.15l2.54,5.82,2.24-5.82Z"/>
          <path class="mob-cls-11" d="m170.73,58.84h1.04v1.17c.46-.69,1.08-1.32,2.25-1.32s1.86.61,2.24,1.39c.5-.77,1.24-1.39,2.46-1.39,1.61,0,2.59,1.08,2.59,2.81v4.32h-1.04v-4.08c0-1.35-.68-2.11-1.81-2.11-1.05,0-1.93.78-1.93,2.16v4.02h-1.03v-4.1c0-1.31-.69-2.08-1.8-2.08s-1.94.92-1.94,2.2v3.98h-1.04v-6.98Z"/>
          <path class="mob-cls-11" d="m183.52,58.84h1.04v1.4c.57-.84,1.39-1.55,2.67-1.55,1.67,0,3.34,1.32,3.34,3.62v.03c0,2.28-1.65,3.63-3.34,3.63-1.3,0-2.13-.7-2.67-1.49v3.5h-1.04v-9.14Zm5.98,3.51v-.03c0-1.65-1.13-2.7-2.46-2.7s-2.53,1.09-2.53,2.69v.03c0,1.62,1.23,2.7,2.53,2.7s2.46-1,2.46-2.69Z"/>
          <path class="mob-cls-11" d="m192.85,63.97v-4.21h-.97v-.92h.97v-2.11h1.04v2.11h2.21v.92h-2.21v4.08c0,.85.47,1.16,1.17,1.16.35,0,.65-.07,1.01-.24v.89c-.37.19-.76.3-1.26.3-1.12,0-1.97-.55-1.97-1.97Z"/>
          <path class="mob-cls-11" d="m197.31,62.37v-.03c0-1.97,1.54-3.65,3.65-3.65s3.63,1.65,3.63,3.62v.03c0,1.97-1.55,3.65-3.66,3.65s-3.62-1.65-3.62-3.62Zm6.21,0v-.03c0-1.5-1.12-2.73-2.59-2.73s-2.55,1.23-2.55,2.7v.03c0,1.5,1.11,2.71,2.58,2.71s2.57-1.22,2.57-2.69Z"/>
          <path class="mob-cls-11" d="m206.46,58.84h1.04v1.17c.46-.69,1.08-1.32,2.25-1.32s1.86.61,2.24,1.39c.5-.77,1.24-1.39,2.46-1.39,1.61,0,2.59,1.08,2.59,2.81v4.32h-1.04v-4.08c0-1.35-.68-2.11-1.81-2.11-1.05,0-1.93.78-1.93,2.16v4.02h-1.03v-4.1c0-1.31-.69-2.08-1.8-2.08s-1.94.92-1.94,2.2v3.98h-1.04v-6.98Z"/>
          <path class="mob-cls-11" d="m218.68,64.93l.53-.74c.76.57,1.59.89,2.42.89s1.45-.43,1.45-1.11v-.03c0-.7-.82-.97-1.74-1.23-1.09-.31-2.31-.69-2.31-1.97v-.03c0-1.2,1-2,2.38-2,.85,0,1.8.3,2.51.77l-.47.78c-.65-.42-1.39-.68-2.07-.68-.82,0-1.35.43-1.35,1.01v.03c0,.66.86.92,1.8,1.2,1.08.32,2.24.74,2.24,2v.03c0,1.32-1.09,2.09-2.48,2.09-1,0-2.11-.39-2.89-1.03Z"/>
        </g>
      </g>
      <g id="_2017_capsule">
        <rect class="mob-cls-6" x="0" y="0" width="102" height="30" rx="15" ry="15"/>
        <g>
          <path class="mob-cls-12" d="m37.25,18l2.79-2.29c1.04-.86,1.45-1.32,1.45-2.02s-.47-1.09-1.13-1.09-1.09.36-1.71,1.13l-1.3-1.04c.83-1.13,1.63-1.74,3.13-1.74,1.74,0,2.89,1.02,2.89,2.59v.02c0,1.4-.72,2.1-2.21,3.25l-1.37,1.06h3.66v1.6h-6.21v-1.46Z"/>
          <path class="mob-cls-12" d="m44.79,15.29v-.02c0-2.43,1.51-4.34,3.74-4.34s3.72,1.88,3.72,4.32v.02c0,2.43-1.5,4.34-3.74,4.34s-3.72-1.88-3.72-4.32Zm5.57,0v-.02c0-1.52-.74-2.67-1.85-2.67s-1.82,1.12-1.82,2.65v.02c0,1.54.73,2.67,1.85,2.67s1.82-1.13,1.82-2.65Z"/>
          <path class="mob-cls-12" d="m54.98,12.88l-1.46.36-.38-1.51,2.41-.72h1.26v8.46h-1.82v-6.58Z"/>
          <path class="mob-cls-12" d="m62.67,12.66h-3.95v-1.6h6.04v1.39l-3.77,7h-2.09l3.75-6.8Z"/>
        </g>
      </g>
    </g>
  </g>
</svg>