<?xml version="1.0" encoding="UTF-8"?>
<svg id="rohan_story_svg_desktop" data-name="rohan_story_svg_desktop" xmlns="http://www.w3.org/2000/svg" xmlns:xlink="http://www.w3.org/1999/xlink" width="100%" height="100%" viewBox="0 0 869.37 167.01">
  <defs>
    <style>
      .cls-1 {
        fill: #e0e1e0;
      }

      .cls-1, .cls-2, .cls-3, .cls-4, .cls-5 {
        stroke-width: 0px;
      }

      .cls-2 {
        fill: url(#linear-gradient);
      }

      .cls-6 {
        stroke-dasharray: 0 0 0 6.27;
      }

      .cls-6, .cls-7, .cls-8 {
        stroke: #9d5b8f;
        stroke-linecap: round;
        stroke-linejoin: round;
        stroke-width: 4px;
      }

      .cls-6, .cls-7, .cls-8, .cls-9 {
        fill: none;
      }

      .cls-3 {
        fill: #fff;
      }

      .cls-4 {
        fill: url(#linear-gradient-2);
      }

      .cls-8 {
        stroke-dasharray: 0 0 0 6.63;
      }

      .cls-5 {
        fill: #872780;
      }

      .cls-9 {
        stroke: #808b86;
        stroke-miterlimit: 10;
        stroke-width: 2px;
      }
    </style>
    <linearGradient id="linear-gradient" x1="760.55" y1=".27" x2="760.55" y2="43.16" gradientUnits="userSpaceOnUse">
      <stop offset="0" stop-color="#bebdbd"/>
      <stop offset="1" stop-color="#fff"/>
    </linearGradient>
    <linearGradient id="linear-gradient-2" x1="760.55" y1="2.24" x2="760.55" y2="41.23" gradientUnits="userSpaceOnUse">
      <stop offset="0" stop-color="#872780"/>
      <stop offset=".2" stop-color="#9b2e69"/>
      <stop offset=".53" stop-color="#b9394a"/>
      <stop offset=".81" stop-color="#cb3f36"/>
      <stop offset="1" stop-color="#d24230"/>
    </linearGradient>
  </defs>
  <g id="rohan_story_desktop_svg">
    <line id="timeline" class="cls-9" x1="828.55" y1="22" y2="22"/>
    <g id="text_3">
      <g>
        <path class="cls-5" d="m652.69,79.32h4.92c3.96,0,6.7,2.72,6.7,6.27v.04c0,3.55-2.74,6.3-6.7,6.3h-4.92v-12.6Zm2.77,2.5v7.6h2.14c2.27,0,3.8-1.53,3.8-3.76v-.04c0-2.23-1.53-3.8-3.8-3.8h-2.14Z"/>
        <path class="cls-5" d="m666.53,78.78h2.88v2.43h-2.88v-2.43Zm.07,3.49h2.74v9.65h-2.74v-9.65Z"/>
        <path class="cls-5" d="m671.33,89.15v-.04c0-2.11,1.6-3.08,3.89-3.08.97,0,1.67.16,2.36.4v-.16c0-1.13-.7-1.76-2.07-1.76-1.04,0-1.78.2-2.66.52l-.68-2.09c1.06-.47,2.11-.77,3.75-.77,1.49,0,2.58.4,3.26,1.08.72.72,1.04,1.78,1.04,3.08v5.6h-2.65v-1.04c-.67.74-1.58,1.22-2.92,1.22-1.82,0-3.31-1.04-3.31-2.95Zm6.28-.63v-.49c-.47-.22-1.08-.36-1.75-.36-1.17,0-1.89.47-1.89,1.33v.04c0,.74.61,1.17,1.5,1.17,1.28,0,2.14-.7,2.14-1.69Z"/>
        <path class="cls-5" d="m682.62,93.83l.94-2.05c.99.56,1.98.88,3.26.88,1.87,0,2.75-.9,2.75-2.63v-.47c-.81.97-1.69,1.57-3.15,1.57-2.25,0-4.29-1.64-4.29-4.5v-.04c0-2.88,2.07-4.5,4.29-4.5,1.49,0,2.38.63,3.12,1.44v-1.26h2.74v7.47c0,1.73-.41,2.99-1.22,3.8-.9.9-2.29,1.3-4.16,1.3-1.57,0-3.04-.36-4.27-1.01Zm6.95-7.2v-.04c0-1.31-1.03-2.23-2.36-2.23s-2.34.92-2.34,2.23v.04c0,1.33,1.01,2.23,2.34,2.23s2.36-.92,2.36-2.23Z"/>
        <path class="cls-5" d="m694.72,82.27h2.74v1.37c.63-.81,1.44-1.55,2.83-1.55,2.07,0,3.28,1.37,3.28,3.58v6.25h-2.74v-5.38c0-1.3-.61-1.96-1.66-1.96s-1.71.67-1.71,1.96v5.38h-2.74v-9.65Z"/>
        <path class="cls-5" d="m705.46,87.15v-.04c0-2.77,2.23-5.02,5.24-5.02s5.2,2.21,5.2,4.99v.04c0,2.77-2.23,5.02-5.24,5.02s-5.2-2.21-5.2-4.99Zm7.74,0v-.04c0-1.42-1.03-2.67-2.54-2.67s-2.5,1.21-2.5,2.63v.04c0,1.42,1.03,2.67,2.54,2.67s2.5-1.21,2.5-2.63Z"/>
        <path class="cls-5" d="m717.12,90.65l1.17-1.8c1.04.76,2.14,1.15,3.04,1.15.79,0,1.15-.29,1.15-.72v-.04c0-.59-.94-.79-2-1.12-1.35-.4-2.88-1.03-2.88-2.9v-.04c0-1.96,1.58-3.06,3.53-3.06,1.22,0,2.56.41,3.6,1.12l-1.04,1.89c-.95-.56-1.91-.9-2.61-.9-.67,0-1.01.29-1.01.67v.04c0,.54.92.79,1.96,1.15,1.35.45,2.92,1.1,2.92,2.86v.04c0,2.14-1.6,3.11-3.69,3.11-1.35,0-2.86-.45-4.14-1.46Z"/>
        <path class="cls-5" d="m726.97,78.78h2.88v2.43h-2.88v-2.43Zm.07,3.49h2.74v9.65h-2.74v-9.65Z"/>
        <path class="cls-5" d="m731.6,90.65l1.17-1.8c1.04.76,2.14,1.15,3.04,1.15.79,0,1.15-.29,1.15-.72v-.04c0-.59-.94-.79-2-1.12-1.35-.4-2.88-1.03-2.88-2.9v-.04c0-1.96,1.58-3.06,3.53-3.06,1.22,0,2.56.41,3.6,1.12l-1.04,1.89c-.95-.56-1.91-.9-2.61-.9-.67,0-1.01.29-1.01.67v.04c0,.54.92.79,1.96,1.15,1.35.45,2.92,1.1,2.92,2.86v.04c0,2.14-1.6,3.11-3.69,3.11-1.35,0-2.86-.45-4.14-1.46Z"/>
        <path class="cls-5" d="m746.32,87.15v-.04c0-2.77,2.23-5.02,5.24-5.02s5.2,2.21,5.2,4.99v.04c0,2.77-2.23,5.02-5.24,5.02s-5.2-2.21-5.2-4.99Zm7.74,0v-.04c0-1.42-1.03-2.67-2.54-2.67s-2.5,1.21-2.5,2.63v.04c0,1.42,1.03,2.67,2.54,2.67s2.5-1.21,2.5-2.63Z"/>
        <path class="cls-5" d="m759.21,84.61h-1.13v-2.25h1.13v-.61c0-1.06.27-1.84.77-2.34.5-.5,1.24-.76,2.21-.76.86,0,1.44.11,1.95.27v2.27c-.4-.14-.77-.23-1.24-.23-.63,0-.99.32-.99,1.04v.38h2.21v2.23h-2.18v7.31h-2.74v-7.31Z"/>
        <path class="cls-5" d="m771.07,78.78h2.88v2.43h-2.88v-2.43Zm.07,3.49h2.74v9.65h-2.74v-9.65Z"/>
        <path class="cls-5" d="m776.58,78.78h2.74v13.14h-2.74v-13.14Z"/>
        <path class="cls-5" d="m781.42,87.15v-.04c0-2.75,1.96-5.02,4.77-5.02,3.22,0,4.7,2.5,4.7,5.24,0,.22-.02.47-.04.72h-6.72c.27,1.24,1.13,1.89,2.36,1.89.92,0,1.58-.29,2.34-.99l1.57,1.39c-.9,1.12-2.2,1.8-3.94,1.8-2.9,0-5.04-2.03-5.04-4.99Zm6.81-.81c-.16-1.22-.88-2.05-2.03-2.05s-1.87.81-2.09,2.05h4.12Z"/>
        <path class="cls-5" d="m792.45,87.15v-.04c0-2.77,2.23-5.02,5.24-5.02s5.2,2.21,5.2,4.99v.04c0,2.77-2.23,5.02-5.24,5.02s-5.2-2.21-5.2-4.99Zm7.74,0v-.04c0-1.42-1.03-2.67-2.54-2.67s-2.5,1.21-2.5,2.63v.04c0,1.42,1.03,2.67,2.54,2.67s2.5-1.21,2.5-2.63Z"/>
        <path class="cls-5" d="m804.4,87.15v-.04c0-2.75,2.11-5.02,5.06-5.02,1.82,0,2.95.61,3.85,1.62l-1.67,1.8c-.61-.65-1.22-1.06-2.2-1.06-1.37,0-2.34,1.21-2.34,2.63v.04c0,1.48.95,2.67,2.45,2.67.92,0,1.55-.4,2.21-1.03l1.6,1.62c-.94,1.03-2.02,1.76-3.94,1.76-2.9,0-5.02-2.23-5.02-4.99Z"/>
        <path class="cls-5" d="m814.41,87.15v-.04c0-2.77,2.23-5.02,5.24-5.02s5.2,2.21,5.2,4.99v.04c0,2.77-2.23,5.02-5.24,5.02s-5.2-2.21-5.2-4.99Zm7.74,0v-.04c0-1.42-1.03-2.67-2.54-2.67s-2.5,1.21-2.5,2.63v.04c0,1.42,1.03,2.67,2.54,2.67s2.5-1.21,2.5-2.63Z"/>
        <path class="cls-5" d="m826.96,78.78h2.74v13.14h-2.74v-13.14Z"/>
        <path class="cls-5" d="m831.8,87.15v-.04c0-2.77,2.23-5.02,5.24-5.02s5.2,2.21,5.2,4.99v.04c0,2.77-2.23,5.02-5.24,5.02s-5.2-2.21-5.2-4.99Zm7.74,0v-.04c0-1.42-1.03-2.67-2.54-2.67s-2.5,1.21-2.5,2.63v.04c0,1.42,1.03,2.67,2.54,2.67s2.5-1.21,2.5-2.63Z"/>
        <path class="cls-5" d="m844.22,82.27h2.74v1.37c.63-.81,1.44-1.55,2.83-1.55,2.07,0,3.28,1.37,3.28,3.58v6.25h-2.74v-5.38c0-1.3-.61-1.96-1.66-1.96s-1.71.67-1.71,1.96v5.38h-2.74v-9.65Z"/>
        <path class="cls-5" d="m855.49,78.78h2.88v2.43h-2.88v-2.43Zm.07,3.49h2.74v9.65h-2.74v-9.65Z"/>
        <path class="cls-5" d="m860.4,87.15v-.04c0-2.75,2.11-5.02,5.06-5.02,1.82,0,2.95.61,3.85,1.62l-1.67,1.8c-.61-.65-1.22-1.06-2.2-1.06-1.37,0-2.34,1.21-2.34,2.63v.04c0,1.48.95,2.67,2.45,2.67.92,0,1.55-.4,2.21-1.03l1.6,1.62c-.94,1.03-2.02,1.76-3.94,1.76-2.9,0-5.02-2.23-5.02-4.99Z"/>
        <path class="cls-5" d="m664.18,110.75v-.04c0-2.11,1.6-3.08,3.89-3.08.97,0,1.67.16,2.36.4v-.16c0-1.13-.7-1.76-2.07-1.76-1.04,0-1.78.2-2.67.52l-.68-2.09c1.06-.47,2.11-.77,3.75-.77,1.49,0,2.57.4,3.26,1.08.72.72,1.04,1.78,1.04,3.08v5.6h-2.65v-1.04c-.67.74-1.58,1.22-2.92,1.22-1.82,0-3.31-1.04-3.31-2.95Zm6.28-.63v-.49c-.47-.22-1.08-.36-1.75-.36-1.17,0-1.89.47-1.89,1.33v.04c0,.74.61,1.17,1.49,1.17,1.28,0,2.14-.7,2.14-1.69Z"/>
        <path class="cls-5" d="m675.41,103.87h2.74v1.37c.63-.81,1.44-1.55,2.83-1.55,2.07,0,3.28,1.37,3.28,3.58v6.25h-2.74v-5.38c0-1.3-.61-1.96-1.66-1.96s-1.71.67-1.71,1.96v5.38h-2.74v-9.65Z"/>
        <path class="cls-5" d="m686.19,108.72v-.04c0-3.22,2.11-4.99,4.39-4.99,1.46,0,2.36.67,3.01,1.44v-4.75h2.74v13.14h-2.74v-1.39c-.67.9-1.58,1.57-3.01,1.57-2.25,0-4.39-1.76-4.39-4.99Zm7.44,0v-.04c0-1.6-1.06-2.66-2.34-2.66s-2.36,1.04-2.36,2.66v.04c0,1.6,1.08,2.66,2.36,2.66s2.34-1.06,2.34-2.66Z"/>
        <path class="cls-5" d="m704.23,100.38h2.88v2.43h-2.88v-2.43Zm.07,3.49h2.74v9.65h-2.74v-9.65Z"/>
        <path class="cls-5" d="m709.61,103.87h2.74v1.37c.63-.81,1.44-1.55,2.83-1.55,2.07,0,3.28,1.37,3.28,3.58v6.25h-2.74v-5.38c0-1.3-.61-1.96-1.66-1.96s-1.71.67-1.71,1.96v5.38h-2.74v-9.65Z"/>
        <path class="cls-5" d="m721.29,106.21h-1.13v-2.25h1.13v-.61c0-1.06.27-1.84.77-2.34s1.24-.76,2.21-.76c.86,0,1.44.11,1.94.27v2.27c-.4-.14-.77-.23-1.24-.23-.63,0-.99.32-.99,1.04v.38h2.21v2.23h-2.18v7.31h-2.74v-7.31Zm6.54-5.83h2.74v13.14h-2.74v-13.14Z"/>
        <path class="cls-5" d="m732.56,110.75v-.04c0-2.11,1.6-3.08,3.89-3.08.97,0,1.67.16,2.36.4v-.16c0-1.13-.7-1.76-2.07-1.76-1.04,0-1.78.2-2.67.52l-.68-2.09c1.06-.47,2.11-.77,3.75-.77,1.49,0,2.57.4,3.26,1.08.72.72,1.04,1.78,1.04,3.08v5.6h-2.65v-1.04c-.67.74-1.58,1.22-2.92,1.22-1.82,0-3.31-1.04-3.31-2.95Zm6.28-.63v-.49c-.47-.22-1.08-.36-1.75-.36-1.17,0-1.89.47-1.89,1.33v.04c0,.74.61,1.17,1.49,1.17,1.28,0,2.14-.7,2.14-1.69Z"/>
        <path class="cls-5" d="m743.79,103.87h2.74v1.37c.63-.81,1.46-1.55,2.85-1.55,1.26,0,2.21.56,2.72,1.53.85-.99,1.85-1.53,3.17-1.53,2.03,0,3.26,1.22,3.26,3.55v6.28h-2.74v-5.38c0-1.3-.58-1.96-1.6-1.96s-1.66.67-1.66,1.96v5.38h-2.74v-5.38c0-1.3-.58-1.96-1.6-1.96s-1.66.67-1.66,1.96v5.38h-2.74v-9.65Z"/>
        <path class="cls-5" d="m760.89,103.87h2.74v1.37c.63-.81,1.46-1.55,2.84-1.55,1.26,0,2.21.56,2.72,1.53.85-.99,1.85-1.53,3.17-1.53,2.04,0,3.26,1.22,3.26,3.55v6.28h-2.74v-5.38c0-1.3-.58-1.96-1.6-1.96s-1.66.67-1.66,1.96v5.38h-2.74v-5.38c0-1.3-.58-1.96-1.6-1.96s-1.66.67-1.66,1.96v5.38h-2.74v-9.65Z"/>
        <path class="cls-5" d="m777.41,110.75v-.04c0-2.11,1.6-3.08,3.89-3.08.97,0,1.67.16,2.36.4v-.16c0-1.13-.7-1.76-2.07-1.76-1.04,0-1.78.2-2.66.52l-.68-2.09c1.06-.47,2.11-.77,3.75-.77,1.49,0,2.58.4,3.26,1.08.72.72,1.04,1.78,1.04,3.08v5.6h-2.65v-1.04c-.67.74-1.58,1.22-2.92,1.22-1.82,0-3.31-1.04-3.31-2.95Zm6.28-.63v-.49c-.47-.22-1.08-.36-1.75-.36-1.17,0-1.89.47-1.89,1.33v.04c0,.74.61,1.17,1.5,1.17,1.28,0,2.14-.7,2.14-1.69Z"/>
        <path class="cls-5" d="m789.01,110.79v-4.57h-1.15v-2.34h1.15v-2.47h2.74v2.47h2.27v2.34h-2.27v4.12c0,.63.27.94.88.94.5,0,.96-.13,1.35-.34v2.2c-.58.34-1.24.56-2.16.56-1.67,0-2.81-.67-2.81-2.9Z"/>
        <path class="cls-5" d="m795.29,108.75v-.04c0-2.77,2.23-5.02,5.24-5.02s5.2,2.21,5.2,4.99v.04c0,2.77-2.23,5.02-5.24,5.02s-5.2-2.21-5.2-4.99Zm7.74,0v-.04c0-1.42-1.03-2.67-2.54-2.67s-2.5,1.21-2.5,2.63v.04c0,1.42,1.03,2.66,2.54,2.66s2.5-1.21,2.5-2.63Z"/>
        <path class="cls-5" d="m807.71,103.87h2.74v1.94c.56-1.33,1.46-2.2,3.08-2.12v2.86h-.14c-1.82,0-2.93,1.1-2.93,3.4v3.56h-2.74v-9.65Z"/>
        <path class="cls-5" d="m821.57,103.87h2.84l-3.71,9.88c-.74,1.96-1.53,2.7-3.17,2.7-.99,0-1.73-.25-2.43-.67l.92-1.98c.36.21.81.38,1.17.38.47,0,.72-.14.95-.63l-3.78-9.69h2.9l2.2,6.57,2.11-6.57Z"/>
        <path class="cls-5" d="m831.16,107.26v-.04c0-3.58,2.7-6.52,6.57-6.52,2.38,0,3.8.79,4.97,1.95l-1.76,2.03c-.97-.88-1.96-1.42-3.22-1.42-2.12,0-3.66,1.76-3.66,3.92v.04c0,2.16,1.5,3.96,3.66,3.96,1.44,0,2.32-.58,3.31-1.48l1.76,1.78c-1.3,1.38-2.74,2.25-5.17,2.25-3.71,0-6.46-2.86-6.46-6.48Z"/>
        <path class="cls-5" d="m845,100.92h4.92c3.96,0,6.7,2.72,6.7,6.27v.04c0,3.55-2.74,6.3-6.7,6.3h-4.92v-12.6Zm2.77,2.5v7.6h2.14c2.27,0,3.8-1.53,3.8-3.76v-.04c0-2.23-1.53-3.8-3.8-3.8h-2.14Z"/>
      </g>
      <g>
        <path class="cls-5" d="m685.29,138.87v-.04c0-1.3,1.1-2.34,2.36-2.34s2.36,1.04,2.36,2.34v.04c0,1.3-1.06,2.34-2.36,2.34s-2.36-1.04-2.36-2.34Z"/>
        <path class="cls-5" d="m702.57,138.93v-.04c0-3.57,2.67-6.52,6.37-6.52,2.29,0,3.66.81,4.92,2l-.97,1.04c-1.06-1.01-2.25-1.73-3.96-1.73-2.79,0-4.88,2.27-4.88,5.17v.04c0,2.92,2.11,5.2,4.88,5.2,1.73,0,2.86-.67,4.07-1.82l.94.92c-1.31,1.33-2.75,2.21-5.04,2.21-3.64,0-6.32-2.86-6.32-6.48Z"/>
        <path class="cls-5" d="m716.48,132.59h4.38c3.96,0,6.7,2.72,6.7,6.27v.04c0,3.55-2.74,6.3-6.7,6.3h-4.38v-12.6Zm1.42,1.31v9.97h2.95c3.19,0,5.22-2.16,5.22-4.95v-.04c0-2.79-2.03-4.99-5.22-4.99h-2.95Z"/>
        <path class="cls-5" d="m734.39,132.5h1.33l5.74,12.69h-1.53l-1.48-3.33h-6.86l-1.49,3.33h-1.46l5.74-12.69Zm3.51,8.08l-2.86-6.43-2.88,6.43h5.74Z"/>
        <path class="cls-5" d="m744.07,132.59h1.42v12.6h-1.42v-12.6Z"/>
        <path class="cls-5" d="m748.86,135.88h1.66v1.89h-1.66v-1.89Zm0,7.42h1.66v1.89h-1.66v-1.89Z"/>
        <path class="cls-5" d="m758.28,143.16l1.03-.92c.97,1.19,2.14,1.87,3.69,1.87s2.75-.97,2.75-2.45v-.04c0-1.57-1.46-2.43-3.53-2.43h-.81l-.29-.85,3.98-4.48h-6.16v-1.28h8.05v1.04l-3.96,4.39c2.2.18,4.16,1.24,4.16,3.55v.04c0,2.25-1.87,3.8-4.21,3.8-2.11,0-3.67-.92-4.7-2.25Z"/>
        <path class="cls-5" d="m769.27,144.1l4.57-4.03c1.93-1.73,2.63-2.7,2.63-3.96,0-1.48-1.17-2.41-2.54-2.41-1.44,0-2.38.76-3.39,2.16l-1.04-.76c1.13-1.69,2.32-2.68,4.54-2.68s3.91,1.51,3.91,3.56v.04c0,1.84-.97,2.97-3.19,4.9l-3.37,2.99h6.68v1.3h-8.8v-1.1Z"/>
        <path class="cls-5" d="m780.06,144.1l4.57-4.03c1.93-1.73,2.63-2.7,2.63-3.96,0-1.48-1.17-2.41-2.54-2.41-1.44,0-2.38.76-3.38,2.16l-1.04-.76c1.13-1.69,2.32-2.68,4.54-2.68s3.91,1.51,3.91,3.56v.04c0,1.84-.97,2.97-3.19,4.9l-3.37,2.99h6.68v1.3h-8.8v-1.1Z"/>
        <path class="cls-5" d="m685.29,160.47v-.04c0-1.3,1.1-2.34,2.36-2.34s2.36,1.04,2.36,2.34v.04c0,1.3-1.06,2.34-2.36,2.34s-2.36-1.04-2.36-2.34Z"/>
        <path class="cls-5" d="m702.3,164.96l.88-1.04c1.31,1.19,2.57,1.78,4.32,1.78s2.81-.9,2.81-2.14v-.04c0-1.17-.63-1.84-3.28-2.39-2.9-.63-4.23-1.57-4.23-3.64v-.04c0-1.98,1.75-3.44,4.14-3.44,1.84,0,3.15.52,4.43,1.55l-.83,1.1c-1.17-.96-2.34-1.37-3.64-1.37-1.64,0-2.68.9-2.68,2.04v.04c0,1.19.65,1.86,3.42,2.45,2.81.61,4.11,1.64,4.11,3.56v.04c0,2.16-1.8,3.56-4.3,3.56-2,0-3.64-.67-5.15-2.02Z"/>
        <path class="cls-5" d="m714.64,154.19h9.11v1.29h-7.69v4.3h6.88v1.29h-6.88v4.41h7.78v1.3h-9.2v-12.6Z"/>
        <path class="cls-5" d="m725.88,164.96l.88-1.04c1.31,1.19,2.57,1.78,4.32,1.78s2.81-.9,2.81-2.14v-.04c0-1.17-.63-1.84-3.28-2.39-2.9-.63-4.23-1.57-4.23-3.64v-.04c0-1.98,1.75-3.44,4.14-3.44,1.84,0,3.15.52,4.43,1.55l-.83,1.1c-1.17-.96-2.34-1.37-3.64-1.37-1.64,0-2.68.9-2.68,2.04v.04c0,1.19.65,1.86,3.42,2.45,2.81.61,4.11,1.64,4.11,3.56v.04c0,2.16-1.8,3.56-4.3,3.56-2,0-3.64-.67-5.15-2.02Z"/>
        <path class="cls-5" d="m737.61,160.65h5.01v1.46h-5.01v-1.46Z"/>
        <path class="cls-5" d="m745.01,160.53v-.04c0-3.56,2.67-6.52,6.37-6.52,2.29,0,3.66.81,4.92,2l-.97,1.04c-1.06-1.01-2.25-1.73-3.96-1.73-2.79,0-4.88,2.27-4.88,5.17v.04c0,2.92,2.11,5.2,4.88,5.2,1.73,0,2.86-.67,4.07-1.82l.94.92c-1.31,1.33-2.75,2.21-5.04,2.21-3.64,0-6.32-2.86-6.32-6.48Z"/>
        <path class="cls-5" d="m758.92,154.19h4.38c3.96,0,6.7,2.72,6.7,6.27v.04c0,3.55-2.74,6.3-6.7,6.3h-4.38v-12.6Zm1.42,1.31v9.97h2.95c3.19,0,5.22-2.16,5.22-4.95v-.04c0-2.79-2.04-4.99-5.22-4.99h-2.95Z"/>
        <path class="cls-5" d="m772.68,157.49h1.66v1.89h-1.66v-1.89Zm0,7.42h1.66v1.89h-1.66v-1.89Z"/>
        <path class="cls-5" d="m782.05,165.7l4.57-4.03c1.93-1.73,2.63-2.7,2.63-3.96,0-1.48-1.17-2.41-2.54-2.41-1.44,0-2.38.76-3.39,2.16l-1.04-.76c1.13-1.69,2.32-2.68,4.54-2.68s3.91,1.51,3.91,3.57v.04c0,1.84-.97,2.97-3.19,4.9l-3.37,2.99h6.68v1.3h-8.8v-1.1Z"/>
        <path class="cls-5" d="m792.84,165.7l4.57-4.03c1.93-1.73,2.63-2.7,2.63-3.96,0-1.48-1.17-2.41-2.54-2.41-1.44,0-2.38.76-3.39,2.16l-1.04-.76c1.13-1.69,2.32-2.68,4.54-2.68s3.91,1.51,3.91,3.57v.04c0,1.84-.97,2.97-3.19,4.9l-3.37,2.99h6.68v1.3h-8.8v-1.1Z"/>
      </g>
      <g id="line_2">
        <g>
          <line class="cls-7" x1="760.55" y1="45.8" x2="760.55" y2="45.8"/>
          <line class="cls-8" x1="760.55" y1="52.43" x2="760.55" y2="69"/>
          <line class="cls-7" x1="760.55" y1="72.31" x2="760.55" y2="72.31"/>
        </g>
      </g>
    </g>
    <g id="_2021" data-name="2021" class="timeline--btn tooltip" title="Click here">
      <rect id="capsule_year_2021" class="cls-2" x="690.55" y="0" width="140" height="44" rx="22" ry="22"/>
      <rect id="gradient_bg" class="cls-4" x="692.55" y="2" width="136" height="40" rx="20" ry="20"/>
      <g>
        <path class="cls-3" d="m742.23,26l3.73-3.06c1.39-1.15,1.94-1.76,1.94-2.69s-.62-1.46-1.5-1.46-1.46.48-2.29,1.5l-1.73-1.39c1.1-1.5,2.18-2.32,4.18-2.32,2.32,0,3.86,1.36,3.86,3.46v.03c0,1.87-.96,2.8-2.95,4.34l-1.82,1.41h4.88v2.13h-8.29v-1.95Z"/>
        <path class="cls-3" d="m752.28,22.38v-.03c0-3.25,2.02-5.79,4.99-5.79s4.96,2.51,4.96,5.76v.03c0,3.25-2,5.79-4.99,5.79s-4.96-2.51-4.96-5.76Zm7.43,0v-.03c0-2.03-.99-3.57-2.47-3.57s-2.43,1.49-2.43,3.54v.03c0,2.05.98,3.57,2.46,3.57s2.43-1.5,2.43-3.54Z"/>
        <path class="cls-3" d="m763.72,26l3.73-3.06c1.39-1.15,1.94-1.76,1.94-2.69s-.62-1.46-1.5-1.46-1.46.48-2.29,1.5l-1.73-1.39c1.1-1.5,2.18-2.32,4.18-2.32,2.32,0,3.86,1.36,3.86,3.46v.03c0,1.87-.96,2.8-2.95,4.34l-1.82,1.41h4.88v2.13h-8.29v-1.95Z"/>
        <path class="cls-3" d="m775.75,19.16l-1.95.48-.51-2.02,3.22-.96h1.68v11.28h-2.43v-8.79Z"/>
      </g>
    </g>
    <g id="_2020" data-name="2020">
      <rect id="capsule_year_2020" class="cls-1" x="519.41" y="2" width="136" height="40" rx="20" ry="20"/>
      <g>
        <path class="cls-5" d="m566.63,26l3.73-3.06c1.39-1.15,1.94-1.76,1.94-2.69s-.62-1.46-1.5-1.46-1.46.48-2.29,1.5l-1.73-1.39c1.1-1.5,2.18-2.32,4.18-2.32,2.32,0,3.86,1.36,3.86,3.46v.03c0,1.87-.96,2.8-2.94,4.34l-1.83,1.41h4.88v2.13h-8.29v-1.95Z"/>
        <path class="cls-5" d="m576.68,22.38v-.03c0-3.25,2.02-5.79,4.99-5.79s4.96,2.51,4.96,5.76v.03c0,3.25-2,5.79-4.99,5.79s-4.96-2.51-4.96-5.76Zm7.43,0v-.03c0-2.03-.99-3.57-2.46-3.57s-2.43,1.49-2.43,3.54v.03c0,2.05.98,3.57,2.46,3.57s2.43-1.5,2.43-3.54Z"/>
        <path class="cls-5" d="m588.11,26l3.73-3.06c1.39-1.15,1.94-1.76,1.94-2.69s-.62-1.46-1.5-1.46-1.46.48-2.29,1.5l-1.73-1.39c1.1-1.5,2.18-2.32,4.18-2.32,2.32,0,3.86,1.36,3.86,3.46v.03c0,1.87-.96,2.8-2.95,4.34l-1.82,1.41h4.88v2.13h-8.29v-1.95Z"/>
        <path class="cls-5" d="m598.16,22.38v-.03c0-3.25,2.02-5.79,4.99-5.79s4.96,2.51,4.96,5.76v.03c0,3.25-2,5.79-4.99,5.79s-4.96-2.51-4.96-5.76Zm7.43,0v-.03c0-2.03-.99-3.57-2.47-3.57s-2.43,1.49-2.43,3.54v.03c0,2.05.98,3.57,2.46,3.57s2.43-1.5,2.43-3.54Z"/>
      </g>
    </g>
    <g id="text_2">
      <g>
        <path class="cls-5" d="m284.71,79.23h1.33l5.74,12.69h-1.53l-1.48-3.33h-6.86l-1.49,3.33h-1.46l5.74-12.69Zm3.51,8.08l-2.86-6.43-2.88,6.43h5.74Z"/>
        <path class="cls-5" d="m295.42,90.14v1.78h-1.39v-13.14h1.39v5.71c.76-1.12,1.85-2.07,3.56-2.07,2.23,0,4.45,1.76,4.45,4.83v.04c0,3.04-2.2,4.84-4.45,4.84-1.73,0-2.84-.94-3.56-1.98Zm6.59-2.84v-.04c0-2.2-1.51-3.6-3.28-3.6s-3.37,1.46-3.37,3.58v.04c0,2.16,1.64,3.6,3.37,3.6s3.28-1.33,3.28-3.58Z"/>
        <path class="cls-5" d="m305.44,87.3v-.04c0-3.04,2.21-4.84,4.45-4.84,1.73,0,2.84.94,3.57,1.98v-5.62h1.39v13.14h-1.39v-1.87c-.76,1.12-1.85,2.07-3.57,2.07-2.23,0-4.45-1.76-4.45-4.83Zm8.07-.02v-.04c0-2.14-1.64-3.58-3.37-3.58s-3.28,1.33-3.28,3.58v.04c0,2.2,1.51,3.6,3.28,3.6s3.37-1.46,3.37-3.6Z"/>
        <path class="cls-5" d="m317.36,87.31v-.04c0-2.63,2.05-4.86,4.86-4.86s4.84,2.2,4.84,4.83v.04c0,2.63-2.07,4.86-4.88,4.86s-4.83-2.2-4.83-4.83Zm8.28,0v-.04c0-2-1.49-3.64-3.46-3.64s-3.4,1.64-3.4,3.6v.04c0,2,1.48,3.62,3.44,3.62s3.42-1.62,3.42-3.58Z"/>
        <path class="cls-5" d="m329.56,82.62h1.39v1.57c.61-.92,1.44-1.76,3.01-1.76s2.48.81,2.99,1.85c.67-1.03,1.66-1.85,3.28-1.85,2.14,0,3.46,1.44,3.46,3.75v5.76h-1.39v-5.44c0-1.8-.9-2.81-2.41-2.81-1.41,0-2.58,1.04-2.58,2.88v5.37h-1.37v-5.47c0-1.75-.92-2.77-2.39-2.77s-2.59,1.22-2.59,2.93v5.31h-1.39v-9.31Z"/>
        <path class="cls-5" d="m346.66,79.05h1.58v1.53h-1.58v-1.53Zm.09,3.57h1.39v9.31h-1.39v-9.31Z"/>
        <path class="cls-5" d="m351.36,82.62h1.39v1.62c.61-1.01,1.58-1.82,3.19-1.82,2.25,0,3.57,1.51,3.57,3.73v5.78h-1.39v-5.44c0-1.73-.94-2.81-2.58-2.81s-2.79,1.17-2.79,2.92v5.33h-1.39v-9.31Z"/>
        <path class="cls-5" d="m361.74,89.22v-.04c0-1.96,1.62-3.01,3.98-3.01,1.19,0,2.03.16,2.86.4v-.32c0-1.67-1.03-2.54-2.77-2.54-1.1,0-1.96.29-2.83.68l-.41-1.13c1.03-.47,2.03-.77,3.38-.77s2.32.34,3.01,1.03c.63.63.95,1.53.95,2.72v5.69h-1.33v-1.4c-.65.85-1.73,1.6-3.37,1.6-1.73,0-3.47-.99-3.47-2.9Zm6.86-.72v-.9c-.68-.2-1.6-.4-2.74-.4-1.75,0-2.72.76-2.72,1.93v.04c0,1.17,1.08,1.85,2.34,1.85,1.71,0,3.12-1.04,3.12-2.52Z"/>
        <path class="cls-5" d="m372.99,78.78h1.39v13.14h-1.39v-13.14Z"/>
        <path class="cls-5" d="m383,82.62h1.39v1.87c.76-1.12,1.85-2.07,3.56-2.07,2.23,0,4.45,1.76,4.45,4.83v.04c0,3.04-2.2,4.84-4.45,4.84-1.73,0-2.84-.94-3.56-1.98v4.66h-1.39v-12.19Zm7.98,4.68v-.04c0-2.2-1.51-3.6-3.28-3.6s-3.37,1.46-3.37,3.58v.04c0,2.16,1.64,3.6,3.37,3.6s3.28-1.33,3.28-3.58Z"/>
        <path class="cls-5" d="m394.25,89.22v-.04c0-1.96,1.62-3.01,3.98-3.01,1.19,0,2.03.16,2.86.4v-.32c0-1.67-1.03-2.54-2.77-2.54-1.1,0-1.96.29-2.83.68l-.42-1.13c1.03-.47,2.04-.77,3.39-.77s2.32.34,3.01,1.03c.63.63.95,1.53.95,2.72v5.69h-1.33v-1.4c-.65.85-1.73,1.6-3.37,1.6-1.73,0-3.48-.99-3.48-2.9Zm6.86-.72v-.9c-.68-.2-1.6-.4-2.74-.4-1.75,0-2.72.76-2.72,1.93v.04c0,1.17,1.08,1.85,2.34,1.85,1.71,0,3.12-1.04,3.12-2.52Z"/>
        <path class="cls-5" d="m405.41,79.05h1.58v1.53h-1.58v-1.53Zm.09,3.57h1.39v9.31h-1.39v-9.31Z"/>
        <path class="cls-5" d="m410.11,82.62h1.39v1.62c.61-1.01,1.58-1.82,3.19-1.82,2.25,0,3.57,1.51,3.57,3.73v5.78h-1.39v-5.44c0-1.73-.94-2.81-2.58-2.81s-2.79,1.17-2.79,2.92v5.33h-1.39v-9.31Z"/>
        <path class="cls-5" d="m425.89,89.22v-.04c0-1.96,1.62-3.01,3.98-3.01,1.19,0,2.03.16,2.86.4v-.32c0-1.67-1.03-2.54-2.77-2.54-1.1,0-1.96.29-2.83.68l-.42-1.13c1.03-.47,2.04-.77,3.39-.77s2.32.34,3.01,1.03c.63.63.95,1.53.95,2.72v5.69h-1.33v-1.4c-.65.85-1.73,1.6-3.37,1.6-1.73,0-3.48-.99-3.48-2.9Zm6.86-.72v-.9c-.68-.2-1.6-.4-2.74-.4-1.75,0-2.72.76-2.72,1.93v.04c0,1.17,1.08,1.85,2.34,1.85,1.71,0,3.12-1.04,3.12-2.52Z"/>
        <path class="cls-5" d="m437.02,82.62h1.39v1.62c.61-1.01,1.58-1.82,3.19-1.82,2.25,0,3.56,1.51,3.56,3.73v5.78h-1.39v-5.44c0-1.73-.94-2.81-2.57-2.81s-2.79,1.17-2.79,2.92v5.33h-1.39v-9.31Z"/>
        <path class="cls-5" d="m447.57,87.3v-.04c0-3.04,2.21-4.84,4.45-4.84,1.73,0,2.84.94,3.57,1.98v-5.62h1.39v13.14h-1.39v-1.87c-.76,1.12-1.85,2.07-3.57,2.07-2.23,0-4.45-1.76-4.45-4.83Zm8.07-.02v-.04c0-2.14-1.64-3.58-3.37-3.58s-3.28,1.33-3.28,3.58v.04c0,2.2,1.51,3.6,3.28,3.6s3.37-1.46,3.37-3.6Z"/>
        <path class="cls-5" d="m465.98,83.84h-1.28v-1.21h1.28v-.81c0-1.06.29-1.87.81-2.4.47-.47,1.15-.72,2-.72.65,0,1.08.07,1.53.23v1.21c-.5-.14-.88-.23-1.35-.23-1.08,0-1.62.65-1.62,1.98v.76h2.95v1.19h-2.93v8.08h-1.39v-8.08Z"/>
        <path class="cls-5" d="m472.06,82.62h1.39v2.43c.68-1.55,2.03-2.67,3.8-2.59v1.49h-.11c-2.03,0-3.69,1.46-3.69,4.27v3.71h-1.39v-9.31Z"/>
        <path class="cls-5" d="m478.38,87.3v-.04c0-2.68,1.89-4.84,4.47-4.84,2.75,0,4.34,2.2,4.34,4.92,0,.18,0,.29-.02.45h-7.38c.2,2.02,1.62,3.15,3.28,3.15,1.28,0,2.18-.52,2.93-1.31l.86.77c-.94,1.04-2.07,1.75-3.83,1.75-2.56,0-4.65-1.96-4.65-4.84Zm7.4-.54c-.14-1.69-1.12-3.17-2.97-3.17-1.62,0-2.84,1.35-3.02,3.17h6Z"/>
        <path class="cls-5" d="m497.09,90.05c-.76,1.12-1.85,2.07-3.56,2.07-2.23,0-4.45-1.76-4.45-4.83v-.04c0-3.04,2.21-4.84,4.45-4.84,1.73,0,2.84.94,3.56,1.98v-1.78h1.39v12.19h-1.39v-4.75Zm.05-2.77v-.04c0-2.14-1.64-3.58-3.37-3.58s-3.28,1.33-3.28,3.58v.04c0,2.2,1.51,3.6,3.28,3.6s3.37-1.46,3.37-3.6Z"/>
        <path class="cls-5" d="m501.42,88.4v-5.78h1.39v5.44c0,1.73.94,2.81,2.57,2.81s2.79-1.17,2.79-2.92v-5.33h1.37v9.31h-1.37v-1.62c-.63,1.01-1.58,1.82-3.19,1.82-2.25,0-3.57-1.51-3.57-3.73Z"/>
        <path class="cls-5" d="m512.08,87.3v-.04c0-2.68,1.89-4.84,4.47-4.84,2.75,0,4.34,2.2,4.34,4.92,0,.18,0,.29-.02.45h-7.38c.2,2.02,1.62,3.15,3.28,3.15,1.28,0,2.18-.52,2.93-1.31l.86.77c-.94,1.04-2.07,1.75-3.83,1.75-2.56,0-4.65-1.96-4.65-4.84Zm7.4-.54c-.14-1.69-1.12-3.17-2.97-3.17-1.62,0-2.84,1.35-3.02,3.17h6Z"/>
        <path class="cls-5" d="m523.31,82.62h1.39v1.62c.61-1.01,1.58-1.82,3.19-1.82,2.25,0,3.57,1.51,3.57,3.73v5.78h-1.39v-5.44c0-1.73-.94-2.81-2.58-2.81s-2.79,1.17-2.79,2.92v5.33h-1.39v-9.31Z"/>
        <path class="cls-5" d="m534.88,89.46v-5.62h-1.3v-1.22h1.3v-2.81h1.39v2.81h2.95v1.22h-2.95v5.44c0,1.13.63,1.55,1.57,1.55.47,0,.86-.09,1.35-.32v1.19c-.49.25-1.01.4-1.67.4-1.5,0-2.63-.74-2.63-2.63Z"/>
        <path class="cls-5" d="m279.31,108.9v-.04c0-3.04,2.21-4.84,4.45-4.84,1.73,0,2.84.94,3.57,1.98v-5.62h1.39v13.14h-1.39v-1.87c-.76,1.12-1.85,2.07-3.57,2.07-2.23,0-4.45-1.76-4.45-4.82Zm8.07-.02v-.04c0-2.14-1.64-3.58-3.37-3.58s-3.28,1.33-3.28,3.58v.04c0,2.2,1.51,3.6,3.28,3.6s3.37-1.46,3.37-3.6Z"/>
        <path class="cls-5" d="m291.84,100.65h1.58v1.53h-1.58v-1.53Zm.09,3.57h1.39v9.31h-1.39v-9.31Z"/>
        <path class="cls-5" d="m295.84,110.82v-.04c0-1.96,1.62-3.01,3.98-3.01,1.19,0,2.03.16,2.86.4v-.32c0-1.67-1.03-2.54-2.77-2.54-1.1,0-1.96.29-2.83.68l-.42-1.13c1.03-.47,2.04-.77,3.39-.77s2.32.34,3.01,1.03c.63.63.95,1.53.95,2.72v5.69h-1.33v-1.4c-.65.85-1.73,1.6-3.37,1.6-1.73,0-3.48-.99-3.48-2.9Zm6.86-.72v-.9c-.68-.2-1.6-.4-2.74-.4-1.75,0-2.72.76-2.72,1.93v.04c0,1.17,1.08,1.86,2.34,1.86,1.71,0,3.12-1.04,3.12-2.52Z"/>
        <path class="cls-5" d="m306.96,104.22h1.39v2.43c.68-1.55,2.04-2.67,3.8-2.59v1.49h-.11c-2.04,0-3.69,1.46-3.69,4.27v3.71h-1.39v-9.31Z"/>
        <path class="cls-5" d="m314.25,104.22h1.39v2.43c.68-1.55,2.04-2.67,3.8-2.59v1.49h-.11c-2.04,0-3.69,1.46-3.69,4.27v3.71h-1.39v-9.31Z"/>
        <path class="cls-5" d="m321.54,100.38h1.39v5.46c.61-1.01,1.58-1.82,3.19-1.82,2.25,0,3.56,1.51,3.56,3.73v5.78h-1.39v-5.44c0-1.73-.94-2.81-2.57-2.81s-2.79,1.17-2.79,2.92v5.33h-1.39v-13.14Z"/>
        <path class="cls-5" d="m332.05,108.92v-.04c0-2.63,2.05-4.86,4.86-4.86s4.84,2.2,4.84,4.83v.04c0,2.63-2.07,4.86-4.88,4.86s-4.83-2.2-4.83-4.82Zm8.28,0v-.04c0-2-1.5-3.64-3.46-3.64s-3.4,1.64-3.4,3.6v.04c0,2,1.48,3.62,3.44,3.62s3.42-1.62,3.42-3.58Z"/>
        <path class="cls-5" d="m343.68,108.9v-.04c0-2.68,1.89-4.84,4.47-4.84,2.75,0,4.34,2.2,4.34,4.92,0,.18,0,.29-.02.45h-7.38c.2,2.02,1.62,3.15,3.28,3.15,1.28,0,2.18-.52,2.93-1.31l.86.77c-.94,1.04-2.07,1.75-3.83,1.75-2.56,0-4.65-1.96-4.65-4.84Zm7.4-.54c-.14-1.69-1.12-3.17-2.97-3.17-1.62,0-2.84,1.35-3.02,3.17h6Z"/>
        <path class="cls-5" d="m354.21,110.82v-.04c0-1.96,1.62-3.01,3.98-3.01,1.19,0,2.03.16,2.86.4v-.32c0-1.67-1.03-2.54-2.77-2.54-1.1,0-1.96.29-2.83.68l-.41-1.13c1.03-.47,2.03-.77,3.38-.77s2.32.34,3.01,1.03c.63.63.95,1.53.95,2.72v5.69h-1.33v-1.4c-.65.85-1.73,1.6-3.37,1.6-1.73,0-3.47-.99-3.47-2.9Zm6.86-.72v-.9c-.68-.2-1.6-.4-2.74-.4-1.75,0-2.72.76-2.72,1.93v.04c0,1.17,1.08,1.86,2.34,1.86,1.71,0,3.12-1.04,3.12-2.52Z"/>
        <path class="cls-5" d="m370.41,108.36c0-3.31,1.78-5.91,4.99-7.71l.59.92c-2.74,1.75-4.18,3.91-4.18,6.79s1.44,5.04,4.18,6.79l-.59.92c-3.21-1.8-4.99-4.39-4.99-7.71Z"/>
        <path class="cls-5" d="m381.21,108.72c-.41-.18-.83-.36-1.12-.36-.47,0-.67.23-.94.9l-.85-.23c.36-1.37.85-1.91,1.71-1.91.41,0,.85.18,1.3.38.4.18.81.36,1.12.36.47,0,.67-.23.94-.9l.83.23c-.36,1.37-.83,1.91-1.69,1.91-.41,0-.85-.18-1.3-.38Z"/>
        <path class="cls-5" d="m388.74,102.31l-2.38.74-.34-1.15,3.08-1.06h1.04v12.69h-1.4v-11.22Z"/>
        <path class="cls-5" d="m393.07,107.26v-.04c0-3.53,2.11-6.52,5.35-6.52s5.29,2.95,5.29,6.48v.04c0,3.53-2.09,6.52-5.33,6.52s-5.31-2.95-5.31-6.48Zm9.17,0v-.04c0-2.75-1.51-5.22-3.85-5.22s-3.83,2.41-3.83,5.19v.04c0,2.76,1.51,5.22,3.87,5.22s3.82-2.43,3.82-5.19Z"/>
        <path class="cls-5" d="m412.26,111.06v-5.62h-1.3v-1.22h1.3v-2.81h1.39v2.81h2.95v1.22h-2.95v5.44c0,1.13.63,1.55,1.57,1.55.47,0,.86-.09,1.35-.32v1.19c-.49.25-1.01.4-1.67.4-1.5,0-2.63-.74-2.63-2.63Z"/>
        <path class="cls-5" d="m419.08,100.65h1.58v1.53h-1.58v-1.53Zm.09,3.57h1.39v9.31h-1.39v-9.31Z"/>
        <path class="cls-5" d="m423.78,104.22h1.39v1.57c.61-.92,1.44-1.76,3.01-1.76s2.48.81,2.99,1.85c.67-1.03,1.66-1.85,3.28-1.85,2.14,0,3.46,1.44,3.46,3.75v5.76h-1.39v-5.44c0-1.8-.9-2.81-2.41-2.81-1.41,0-2.58,1.04-2.58,2.88v5.37h-1.37v-5.47c0-1.75-.92-2.77-2.39-2.77s-2.59,1.22-2.59,2.93v5.31h-1.39v-9.31Z"/>
        <path class="cls-5" d="m440.27,108.9v-.04c0-2.68,1.89-4.84,4.47-4.84,2.75,0,4.34,2.2,4.34,4.92,0,.18,0,.29-.02.45h-7.38c.2,2.02,1.62,3.15,3.28,3.15,1.28,0,2.18-.52,2.93-1.31l.86.77c-.94,1.04-2.07,1.75-3.83,1.75-2.56,0-4.65-1.96-4.65-4.84Zm7.4-.54c-.14-1.69-1.12-3.17-2.97-3.17-1.62,0-2.84,1.35-3.02,3.17h6Z"/>
        <path class="cls-5" d="m450.73,112.34l.7-.99c1.01.76,2.12,1.19,3.22,1.19s1.93-.58,1.93-1.48v-.04c0-.94-1.1-1.29-2.32-1.64-1.46-.41-3.08-.92-3.08-2.63v-.04c0-1.6,1.33-2.67,3.17-2.67,1.13,0,2.39.4,3.35,1.03l-.63,1.04c-.86-.56-1.85-.9-2.75-.9-1.1,0-1.8.58-1.8,1.35v.04c0,.88,1.15,1.22,2.4,1.6,1.44.43,2.99.99,2.99,2.67v.04c0,1.76-1.46,2.79-3.31,2.79-1.33,0-2.81-.52-3.85-1.37Z"/>
        <path class="cls-5" d="m465.86,104.22h1.39v1.87c.76-1.12,1.85-2.07,3.57-2.07,2.23,0,4.45,1.76,4.45,4.83v.04c0,3.04-2.2,4.84-4.45,4.84-1.73,0-2.84-.94-3.57-1.98v4.66h-1.39v-12.19Zm7.98,4.68v-.04c0-2.2-1.51-3.6-3.28-3.6s-3.37,1.46-3.37,3.58v.04c0,2.16,1.64,3.6,3.37,3.6s3.28-1.33,3.28-3.58Z"/>
        <path class="cls-5" d="m477.24,108.9v-.04c0-2.68,1.89-4.84,4.46-4.84,2.75,0,4.34,2.2,4.34,4.92,0,.18,0,.29-.02.45h-7.38c.2,2.02,1.62,3.15,3.28,3.15,1.28,0,2.18-.52,2.93-1.31l.86.77c-.94,1.04-2.07,1.75-3.83,1.75-2.56,0-4.65-1.96-4.65-4.84Zm7.4-.54c-.14-1.69-1.12-3.17-2.97-3.17-1.62,0-2.85,1.35-3.03,3.17h6Z"/>
        <path class="cls-5" d="m488.47,104.22h1.39v2.43c.68-1.55,2.04-2.67,3.8-2.59v1.49h-.11c-2.04,0-3.69,1.46-3.69,4.27v3.71h-1.39v-9.31Z"/>
        <path class="cls-5" d="m500.62,108.9v-.04c0-3.04,2.21-4.84,4.45-4.84,1.73,0,2.84.94,3.56,1.98v-5.62h1.39v13.14h-1.39v-1.87c-.76,1.12-1.85,2.07-3.56,2.07-2.23,0-4.45-1.76-4.45-4.82Zm8.07-.02v-.04c0-2.14-1.64-3.58-3.37-3.58s-3.28,1.33-3.28,3.58v.04c0,2.2,1.51,3.6,3.28,3.6s3.37-1.46,3.37-3.6Z"/>
        <path class="cls-5" d="m512.41,110.82v-.04c0-1.96,1.62-3.01,3.98-3.01,1.19,0,2.03.16,2.86.4v-.32c0-1.67-1.03-2.54-2.77-2.54-1.1,0-1.96.29-2.83.68l-.42-1.13c1.03-.47,2.04-.77,3.39-.77s2.32.34,3.01,1.03c.63.63.95,1.53.95,2.72v5.69h-1.33v-1.4c-.65.85-1.73,1.6-3.37,1.6-1.73,0-3.48-.99-3.48-2.9Zm6.86-.72v-.9c-.68-.2-1.6-.4-2.74-.4-1.75,0-2.72.76-2.72,1.93v.04c0,1.17,1.08,1.86,2.34,1.86,1.71,0,3.12-1.04,3.12-2.52Z"/>
        <path class="cls-5" d="m530.14,104.22h1.48l-3.91,9.61c-.79,1.93-1.69,2.63-3.1,2.63-.77,0-1.35-.16-1.98-.47l.47-1.1c.45.23.86.34,1.46.34.83,0,1.35-.43,1.91-1.75l-4.23-9.27h1.53l3.39,7.76,2.99-7.76Z"/>
        <path class="cls-5" d="m533.27,115.14c2.74-1.75,4.18-3.91,4.18-6.79s-1.44-5.04-4.18-6.79l.59-.92c3.21,1.8,4.99,4.39,4.99,7.71s-1.78,5.91-4.99,7.71l-.59-.92Z"/>
      </g>
    </g>
    <g id="_2019" data-name="2019">
      <rect id="capsule_year_2019" class="cls-1" x="346.27" y="2" width="136" height="40" rx="20" ry="20"/>
      <g>
        <path class="cls-5" d="m395.6,26l3.73-3.06c1.39-1.15,1.94-1.76,1.94-2.69s-.62-1.46-1.5-1.46-1.46.48-2.29,1.5l-1.73-1.39c1.1-1.5,2.18-2.32,4.18-2.32,2.32,0,3.86,1.36,3.86,3.46v.03c0,1.87-.96,2.8-2.95,4.34l-1.83,1.41h4.88v2.13h-8.29v-1.95Z"/>
        <path class="cls-5" d="m405.65,22.38v-.03c0-3.25,2.02-5.79,4.99-5.79s4.96,2.51,4.96,5.76v.03c0,3.25-2,5.79-4.99,5.79s-4.96-2.51-4.96-5.76Zm7.43,0v-.03c0-2.03-.99-3.57-2.46-3.57s-2.43,1.49-2.43,3.54v.03c0,2.05.98,3.57,2.46,3.57s2.43-1.5,2.43-3.54Z"/>
        <path class="cls-5" d="m419.23,19.16l-1.95.48-.51-2.02,3.22-.96h1.68v11.28h-2.43v-8.79Z"/>
        <path class="cls-5" d="m430.31,23.35c-.58.48-1.31.77-2.27.77-2.43,0-4-1.34-4-3.62v-.03c0-2.26,1.75-3.92,4.27-3.92,1.5,0,2.39.37,3.23,1.22.8.8,1.33,2.02,1.33,4.23v.03c0,3.63-1.71,6.11-4.9,6.11-1.63,0-2.74-.54-3.68-1.33l1.3-1.87c.82.66,1.5.96,2.45.96,1.7,0,2.18-1.58,2.27-2.54Zm.05-2.95v-.03c0-.99-.74-1.71-1.97-1.71s-1.9.7-1.9,1.7v.03c0,.99.74,1.68,1.95,1.68s1.92-.7,1.92-1.66Z"/>
      </g>
    </g>
    <g id="_2018" data-name="2018">
      <rect id="capsule_year_2018" class="cls-1" x="173.14" y="2" width="136" height="40" rx="20" ry="20"/>
      <g>
        <path class="cls-5" d="m222.72,26l3.73-3.06c1.39-1.15,1.94-1.76,1.94-2.69s-.62-1.46-1.5-1.46-1.46.48-2.29,1.5l-1.73-1.39c1.1-1.5,2.18-2.32,4.18-2.32,2.32,0,3.86,1.36,3.86,3.46v.03c0,1.87-.96,2.8-2.95,4.34l-1.82,1.41h4.88v2.13h-8.29v-1.95Z"/>
        <path class="cls-5" d="m232.77,22.38v-.03c0-3.25,2.02-5.79,4.99-5.79s4.96,2.51,4.96,5.76v.03c0,3.25-2,5.79-4.99,5.79s-4.96-2.51-4.96-5.76Zm7.43,0v-.03c0-2.03-.99-3.57-2.47-3.57s-2.43,1.49-2.43,3.54v.03c0,2.05.98,3.57,2.46,3.57s2.43-1.5,2.43-3.54Z"/>
        <path class="cls-5" d="m246.35,19.16l-1.95.48-.51-2.02,3.22-.96h1.68v11.28h-2.43v-8.79Z"/>
        <path class="cls-5" d="m250.98,24.88v-.03c0-1.36.62-2.16,1.81-2.71-.86-.53-1.42-1.25-1.42-2.45v-.03c0-1.71,1.57-3.07,3.94-3.07s3.94,1.34,3.94,3.07v.03c0,1.2-.56,1.92-1.42,2.45,1.14.59,1.81,1.31,1.81,2.64v.03c0,2.08-1.84,3.3-4.32,3.3s-4.32-1.28-4.32-3.23Zm6.26-.19v-.03c0-.86-.82-1.38-1.94-1.38s-1.94.51-1.94,1.38v.03c0,.77.72,1.39,1.94,1.39s1.94-.61,1.94-1.39Zm-.34-4.72v-.03c0-.69-.59-1.31-1.6-1.31s-1.6.61-1.6,1.3v.03c0,.78.62,1.38,1.6,1.38s1.6-.58,1.6-1.36Z"/>
      </g>
    </g>
    <g id="text_1">
      <g>
        <path class="cls-5" d="m145.13,79.32h9.06v1.31h-7.63v4.5h6.82v1.3h-6.82v5.49h-1.42v-12.6Z"/>
        <path class="cls-5" d="m156.74,79.05h1.58v1.53h-1.58v-1.53Zm.09,3.57h1.39v9.31h-1.39v-9.31Z"/>
        <path class="cls-5" d="m161.43,82.61h1.39v2.43c.68-1.55,2.03-2.67,3.8-2.59v1.49h-.11c-2.04,0-3.69,1.46-3.69,4.27v3.71h-1.39v-9.31Z"/>
        <path class="cls-5" d="m167.95,90.73l.7-.99c1.01.76,2.12,1.19,3.22,1.19s1.93-.58,1.93-1.48v-.04c0-.94-1.1-1.3-2.32-1.64-1.46-.41-3.08-.92-3.08-2.63v-.04c0-1.6,1.33-2.67,3.17-2.67,1.13,0,2.4.4,3.35,1.03l-.63,1.04c-.86-.56-1.86-.9-2.75-.9-1.1,0-1.8.58-1.8,1.35v.04c0,.88,1.15,1.22,2.39,1.6,1.44.43,2.99.99,2.99,2.67v.04c0,1.76-1.46,2.79-3.31,2.79-1.33,0-2.81-.52-3.85-1.37Z"/>
        <path class="cls-5" d="m177.99,89.46v-5.62h-1.3v-1.22h1.3v-2.81h1.39v2.81h2.95v1.22h-2.95v5.44c0,1.13.63,1.55,1.57,1.55.47,0,.86-.09,1.35-.32v1.19c-.49.25-1.01.4-1.67.4-1.49,0-2.63-.74-2.63-2.63Z"/>
        <path class="cls-5" d="m117.56,112.34l.7-.99c1.01.76,2.12,1.19,3.22,1.19s1.93-.58,1.93-1.48v-.04c0-.94-1.1-1.3-2.32-1.64-1.46-.41-3.08-.92-3.08-2.63v-.04c0-1.6,1.33-2.67,3.17-2.67,1.13,0,2.39.4,3.35,1.03l-.63,1.04c-.86-.56-1.85-.9-2.75-.9-1.1,0-1.8.58-1.8,1.35v.04c0,.88,1.15,1.22,2.4,1.6,1.44.43,2.99.99,2.99,2.66v.04c0,1.76-1.46,2.79-3.31,2.79-1.33,0-2.81-.52-3.85-1.37Z"/>
        <path class="cls-5" d="m134,104.22h1.48l-3.91,9.61c-.79,1.93-1.69,2.63-3.1,2.63-.77,0-1.35-.16-1.98-.47l.47-1.1c.45.23.86.34,1.46.34.83,0,1.35-.43,1.91-1.75l-4.23-9.27h1.53l3.38,7.76,2.99-7.76Z"/>
        <path class="cls-5" d="m137.66,104.22h1.39v1.57c.61-.92,1.44-1.76,3.01-1.76s2.48.81,2.99,1.85c.67-1.03,1.66-1.85,3.28-1.85,2.14,0,3.46,1.44,3.46,3.75v5.76h-1.39v-5.44c0-1.8-.9-2.81-2.41-2.81-1.4,0-2.58,1.04-2.58,2.88v5.36h-1.37v-5.47c0-1.75-.92-2.77-2.39-2.77s-2.59,1.22-2.59,2.93v5.31h-1.39v-9.31Z"/>
        <path class="cls-5" d="m154.73,104.22h1.39v1.87c.76-1.12,1.85-2.07,3.56-2.07,2.23,0,4.45,1.76,4.45,4.83v.04c0,3.04-2.2,4.84-4.45,4.84-1.73,0-2.84-.94-3.56-1.98v4.66h-1.39v-12.19Zm7.98,4.68v-.04c0-2.2-1.51-3.6-3.28-3.6s-3.37,1.46-3.37,3.58v.04c0,2.16,1.64,3.6,3.37,3.6s3.28-1.33,3.28-3.58Z"/>
        <path class="cls-5" d="m167.17,111.06v-5.62h-1.3v-1.22h1.3v-2.81h1.39v2.81h2.95v1.22h-2.95v5.44c0,1.13.63,1.55,1.57,1.55.47,0,.86-.09,1.35-.32v1.19c-.49.25-1.01.4-1.67.4-1.49,0-2.63-.74-2.63-2.63Z"/>
        <path class="cls-5" d="m173.11,108.91v-.04c0-2.63,2.05-4.86,4.86-4.86s4.84,2.2,4.84,4.83v.04c0,2.63-2.07,4.86-4.88,4.86s-4.83-2.2-4.83-4.83Zm8.28,0v-.04c0-2-1.5-3.64-3.46-3.64s-3.4,1.64-3.4,3.6v.04c0,2,1.48,3.62,3.44,3.62s3.42-1.62,3.42-3.58Z"/>
        <path class="cls-5" d="m185.31,104.22h1.39v1.57c.61-.92,1.44-1.76,3.01-1.76s2.48.81,2.99,1.85c.67-1.03,1.66-1.85,3.28-1.85,2.14,0,3.46,1.44,3.46,3.75v5.76h-1.39v-5.44c0-1.8-.9-2.81-2.41-2.81-1.4,0-2.58,1.04-2.58,2.88v5.36h-1.37v-5.47c0-1.75-.92-2.77-2.39-2.77s-2.59,1.22-2.59,2.93v5.31h-1.39v-9.31Z"/>
        <path class="cls-5" d="m201.6,112.34l.7-.99c1.01.76,2.12,1.19,3.22,1.19s1.93-.58,1.93-1.48v-.04c0-.94-1.1-1.3-2.32-1.64-1.46-.41-3.08-.92-3.08-2.63v-.04c0-1.6,1.33-2.67,3.17-2.67,1.13,0,2.39.4,3.35,1.03l-.63,1.04c-.86-.56-1.85-.9-2.75-.9-1.1,0-1.8.58-1.8,1.35v.04c0,.88,1.15,1.22,2.4,1.6,1.44.43,2.99.99,2.99,2.66v.04c0,1.76-1.46,2.79-3.31,2.79-1.33,0-2.81-.52-3.85-1.37Z"/>
      </g>
      <g id="line_1">
        <g>
          <line class="cls-7" x1="163.29" y1="21.98" x2="163.29" y2="21.98"/>
          <line class="cls-6" x1="163.29" y1="28.25" x2="163.29" y2="69.03"/>
          <line class="cls-7" x1="163.29" y1="72.17" x2="163.29" y2="72.17"/>
        </g>
      </g>
    </g>
    <g id="_2017" data-name="2017">
      <rect id="capsule_year_2017" class="cls-1" x="0" y="2" width="136" height="40" rx="20" ry="20"/>
      <g>
        <path class="cls-5" d="m49.67,26l3.73-3.06c1.39-1.15,1.94-1.76,1.94-2.69s-.62-1.46-1.5-1.46-1.46.48-2.29,1.5l-1.73-1.39c1.1-1.5,2.18-2.32,4.18-2.32,2.32,0,3.86,1.36,3.86,3.46v.03c0,1.87-.96,2.8-2.94,4.34l-1.83,1.41h4.88v2.13h-8.29v-1.95Z"/>
        <path class="cls-5" d="m59.72,22.38v-.03c0-3.25,2.02-5.79,4.99-5.79s4.96,2.51,4.96,5.76v.03c0,3.25-2,5.79-4.99,5.79s-4.96-2.51-4.96-5.76Zm7.43,0v-.03c0-2.03-.99-3.57-2.46-3.57s-2.43,1.49-2.43,3.54v.03c0,2.05.98,3.57,2.46,3.57s2.43-1.5,2.43-3.54Z"/>
        <path class="cls-5" d="m73.31,19.16l-1.95.48-.51-2.02,3.22-.96h1.68v11.28h-2.43v-8.79Z"/>
        <path class="cls-5" d="m83.56,18.87h-5.27v-2.13h8.07v1.86l-5.03,9.35h-2.79l5.01-9.08Z"/>
      </g>
    </g>
  </g>
</svg>