<?xml version="1.0" encoding="UTF-8"?>
<svg id="rohan_disease_behaviour_svg_mobile" data-name="rohan_disease_behaviour_svg_mobile" xmlns="http://www.w3.org/2000/svg" xmlns:xlink="http://www.w3.org/1999/xlink" viewBox="0 0 353.26 526.76">
  <defs>
    <style>
      .cls-1 {
        fill: url(#linear-gradient);
      }

      .cls-1, .cls-2, .cls-3, .cls-4, .cls-5, .cls-6, .cls-7, .cls-8, .cls-9, .cls-10, .cls-11, .cls-12, .cls-13, .cls-14, .cls-15 {
        stroke-width: 0px;
      }

      .cls-16 {
        fill: none;
        stroke: #872780;
        stroke-miterlimit: 10;
        stroke-width: 2px;
      }

      .cls-2, .cls-8, .cls-15 {
        opacity: .75;
      }

      .cls-2, .cls-13 {
        fill: #d2c4cf;
      }

      .cls-3 {
        fill: #010101;
      }

      .cls-4 {
        fill: #fff;
      }

      .cls-5 {
        fill: url(#linear-gradient-2);
      }

      .cls-6, .cls-8 {
        fill: #9d5b8f;
      }

      .cls-7 {
        fill: #828386;
      }

      .cls-9 {
        fill: url(#linear-gradient-3);
      }

      .cls-10 {
        fill: #231f20;
      }

      .cls-11, .cls-15 {
        fill: #6a2062;
      }

      .cls-12 {
        fill: #872780;
      }

      .cls-14 {
        fill: url(#linear-gradient-4);
      }
    </style>
    <linearGradient id="linear-gradient" x1="170.06" y1="110.62" x2="170.06" y2="142.79" gradientUnits="userSpaceOnUse">
      <stop offset="0" stop-color="#bebdbd"/>
      <stop offset="1" stop-color="#fff"/>
    </linearGradient>
    <linearGradient id="linear-gradient-2" x1="170.06" y1="112.1" x2="170.06" y2="141.35" gradientUnits="userSpaceOnUse">
      <stop offset="0" stop-color="#bebdbd"/>
      <stop offset=".2" stop-color="#c6c6c7"/>
      <stop offset=".68" stop-color="#d8d9dc"/>
      <stop offset="1" stop-color="#dfe0e4"/>
    </linearGradient>
    <linearGradient id="linear-gradient-3" y2="142.79" xlink:href="#linear-gradient"/>
    <linearGradient id="linear-gradient-4" x1="170.06" y1="112.1" x2="170.06" y2="141.35" gradientUnits="userSpaceOnUse">
      <stop offset="0" stop-color="#872780"/>
      <stop offset=".2" stop-color="#9b2e69"/>
      <stop offset=".53" stop-color="#b9394a"/>
      <stop offset=".81" stop-color="#cb3f36"/>
      <stop offset="1" stop-color="#d24230"/>
    </linearGradient>
  </defs>
  <g id="patient_rohan_disease_behaviour_mobile">
    <g>
      <g id="footnote">
        <path class="cls-10" d="m59.51,518.97h.67l2.87,6.35h-.76l-.74-1.67h-3.43l-.75,1.67h-.73l2.87-6.35Zm1.76,4.04l-1.43-3.21-1.44,3.21h2.87Z"/>
        <path class="cls-10" d="m63.68,523v-.02c0-1.52,1.11-2.42,2.22-2.42.86,0,1.42.47,1.78.99v-2.81h.69v6.57h-.69v-.94c-.38.56-.93,1.04-1.78,1.04-1.12,0-2.22-.88-2.22-2.41Zm4.03,0v-.02c0-1.07-.82-1.79-1.68-1.79s-1.64.67-1.64,1.79v.02c0,1.1.76,1.8,1.64,1.8s1.68-.73,1.68-1.8Z"/>
        <path class="cls-10" d="m69.57,523.97v-.02c0-.98.81-1.5,1.99-1.5.59,0,1.02.08,1.43.2v-.16c0-.84-.51-1.27-1.39-1.27-.55,0-.98.14-1.41.34l-.21-.57c.51-.23,1.02-.39,1.69-.39s1.16.17,1.5.51c.32.31.48.76.48,1.36v2.84h-.67v-.7c-.32.42-.86.8-1.68.8-.87,0-1.74-.5-1.74-1.45Zm3.43-.36v-.45c-.34-.1-.8-.2-1.37-.2-.87,0-1.36.38-1.36.96v.02c0,.58.54.93,1.17.93.86,0,1.56-.52,1.56-1.26Z"/>
        <path class="cls-10" d="m75.13,520.66h.69v.94c.38-.56.93-1.04,1.78-1.04,1.12,0,2.22.88,2.22,2.41v.02c0,1.52-1.1,2.42-2.22,2.42-.86,0-1.42-.47-1.78-.99v2.33h-.69v-6.09Zm3.99,2.34v-.02c0-1.1-.76-1.8-1.64-1.8s-1.68.73-1.68,1.79v.02c0,1.08.82,1.8,1.68,1.8s1.64-.67,1.64-1.79Z"/>
        <path class="cls-10" d="m81.35,524.08v-2.81h-.65v-.61h.65v-1.4h.69v1.4h1.48v.61h-1.48v2.72c0,.57.31.77.78.77.23,0,.43-.04.67-.16v.59c-.24.13-.5.2-.84.2-.75,0-1.31-.37-1.31-1.31Z"/>
        <path class="cls-10" d="m84.32,523v-.02c0-1.34.95-2.42,2.23-2.42,1.38,0,2.17,1.1,2.17,2.46,0,.09,0,.14,0,.23h-3.69c.1,1.01.81,1.58,1.64,1.58.64,0,1.09-.26,1.47-.66l.43.39c-.47.52-1.04.87-1.92.87-1.28,0-2.32-.98-2.32-2.42Zm3.7-.27c-.07-.85-.56-1.58-1.49-1.58-.81,0-1.42.67-1.51,1.58h3Z"/>
        <path class="cls-10" d="m89.67,523v-.02c0-1.52,1.11-2.42,2.22-2.42.86,0,1.42.47,1.78.99v-2.81h.69v6.57h-.69v-.94c-.38.56-.93,1.04-1.78,1.04-1.12,0-2.22-.88-2.22-2.41Zm4.03,0v-.02c0-1.07-.82-1.79-1.68-1.79s-1.64.67-1.64,1.79v.02c0,1.1.76,1.8,1.64,1.8s1.68-.73,1.68-1.8Z"/>
        <path class="cls-10" d="m98.88,521.28h-.64v-.6h.64v-.41c0-.53.14-.94.41-1.2.23-.23.58-.36,1-.36.32,0,.54.04.77.12v.6c-.25-.07-.44-.12-.68-.12-.54,0-.81.32-.81.99v.38h1.48v.59h-1.47v4.04h-.69v-4.04Z"/>
        <path class="cls-10" d="m101.92,520.66h.69v1.21c.34-.77,1.02-1.33,1.9-1.3v.75h-.05c-1.02,0-1.85.73-1.85,2.13v1.85h-.69v-4.65Z"/>
        <path class="cls-10" d="m105.08,523.01v-.02c0-1.31,1.03-2.43,2.43-2.43s2.42,1.1,2.42,2.41v.02c0,1.31-1.04,2.43-2.44,2.43s-2.41-1.1-2.41-2.41Zm4.14,0v-.02c0-1-.75-1.82-1.73-1.82s-1.7.82-1.7,1.8v.02c0,1,.74,1.81,1.72,1.81s1.71-.81,1.71-1.79Z"/>
        <path class="cls-10" d="m111.18,520.66h.69v.78c.31-.46.72-.88,1.5-.88s1.24.4,1.49.93c.33-.51.83-.93,1.64-.93,1.07,0,1.73.72,1.73,1.87v2.88h-.69v-2.72c0-.9-.45-1.4-1.21-1.4-.7,0-1.29.52-1.29,1.44v2.68h-.68v-2.74c0-.87-.46-1.39-1.2-1.39s-1.3.61-1.3,1.47v2.66h-.69v-4.65Z"/>
        <path class="cls-10" d="m122.53,519.02h2.68c.72,0,1.29.21,1.65.56.26.27.41.6.41,1.01v.02c0,.82-.5,1.24-1,1.46.75.22,1.35.66,1.35,1.52v.02c0,1.08-.91,1.72-2.29,1.72h-2.8v-6.3Zm4.01,1.67c0-.62-.5-1.03-1.4-1.03h-1.92v2.17h1.86c.86,0,1.45-.39,1.45-1.12v-.02Zm-1.32,1.77h-1.99v2.22h2.12c.95,0,1.55-.42,1.55-1.12v-.02c0-.68-.58-1.08-1.67-1.08Z"/>
        <path class="cls-10" d="m128.84,523.55v-2.89h.69v2.72c0,.86.47,1.4,1.29,1.4s1.4-.58,1.4-1.46v-2.67h.68v4.65h-.68v-.81c-.32.5-.79.91-1.59.91-1.12,0-1.78-.76-1.78-1.86Z"/>
        <path class="cls-10" d="m134.45,520.66h.69v1.21c.34-.77,1.02-1.33,1.9-1.3v.75h-.05c-1.02,0-1.84.73-1.84,2.13v1.85h-.69v-4.65Z"/>
        <path class="cls-10" d="m138.12,518.88h.79v.76h-.79v-.76Zm.04,1.78h.69v4.65h-.69v-4.65Z"/>
        <path class="cls-10" d="m140.08,524.72l.35-.5c.5.38,1.06.59,1.61.59s.96-.29.96-.74v-.02c0-.47-.55-.65-1.16-.82-.73-.21-1.54-.46-1.54-1.31v-.02c0-.8.67-1.33,1.58-1.33.57,0,1.2.2,1.67.51l-.32.52c-.43-.28-.93-.45-1.38-.45-.55,0-.9.29-.9.68v.02c0,.44.58.61,1.2.8.72.22,1.49.5,1.49,1.33v.02c0,.88-.73,1.4-1.66,1.4-.67,0-1.4-.26-1.93-.68Z"/>
        <path class="cls-10" d="m144.66,523.01v-.02c0-1.31,1.03-2.43,2.39-2.43.88,0,1.43.37,1.86.83l-.46.49c-.37-.39-.78-.7-1.41-.7-.95,0-1.67.8-1.67,1.8v.02c0,1.01.74,1.81,1.71,1.81.59,0,1.05-.3,1.42-.69l.44.41c-.47.52-1.03.9-1.9.9-1.36,0-2.39-1.11-2.39-2.41Z"/>
        <path class="cls-10" d="m150.08,518.75h.69v2.73c.31-.5.79-.91,1.59-.91,1.13,0,1.78.76,1.78,1.86v2.89h-.69v-2.72c0-.86-.47-1.4-1.29-1.4s-1.4.58-1.4,1.46v2.67h-.69v-6.57Z"/>
        <path class="cls-10" d="m157.83,524.29l.51-.44c.39.59.78.9,1.44.9.71,0,1.23-.51,1.23-1.51v-4.22h.72v4.21c0,.74-.22,1.3-.58,1.66-.35.34-.83.52-1.39.52-.95,0-1.55-.47-1.94-1.12Z"/>
        <path class="cls-10" d="m162.81,526.1c.45-.16.64-.4.6-.78h-.32v-.95h.83v.81c0,.73-.32,1.08-1,1.23l-.11-.32Z"/>
        <path class="cls-10" d="m167.79,523v-.02c0-1.34.95-2.42,2.23-2.42,1.38,0,2.17,1.1,2.17,2.46,0,.09,0,.14,0,.23h-3.69c.1,1.01.81,1.58,1.64,1.58.64,0,1.09-.26,1.47-.66l.43.39c-.47.52-1.04.87-1.92.87-1.28,0-2.32-.98-2.32-2.42Zm3.7-.27c-.07-.85-.56-1.58-1.49-1.58-.81,0-1.42.67-1.51,1.58h3Z"/>
        <path class="cls-10" d="m173.65,524.08v-2.81h-.65v-.61h.65v-1.4h.69v1.4h1.48v.61h-1.48v2.72c0,.57.31.77.78.77.23,0,.43-.04.67-.16v.59c-.24.13-.5.2-.84.2-.75,0-1.31-.37-1.31-1.31Z"/>
        <path class="cls-10" d="m179.39,523.97v-.02c0-.98.81-1.5,1.99-1.5.59,0,1.02.08,1.43.2v-.16c0-.84-.51-1.27-1.39-1.27-.55,0-.98.14-1.41.34l-.21-.57c.51-.23,1.02-.39,1.69-.39s1.16.17,1.5.51c.32.31.48.76.48,1.36v2.84h-.67v-.7c-.32.42-.86.8-1.68.8-.86,0-1.74-.5-1.74-1.45Zm3.43-.36v-.45c-.34-.1-.8-.2-1.37-.2-.87,0-1.36.38-1.36.96v.02c0,.58.54.93,1.17.93.86,0,1.56-.52,1.56-1.26Z"/>
        <path class="cls-10" d="m185.01,518.75h.69v6.57h-.69v-6.57Z"/>
        <path class="cls-10" d="m187.23,524.37h.83v.95h-.83v-.95Z"/>
        <path class="cls-10" d="m192.21,522.75c0-1,.44-1.98,1.17-2.71.68-.68,1.62-1.13,2.7-1.13,1.3,0,1.98.56,2.38,1.15l-.54.42c-.37-.51-.87-.93-1.9-.93-.82,0-1.56.35-2.1.89-.59.6-.96,1.44-.96,2.28,0,1.3.86,2.05,2.09,2.05.68,0,1.22-.19,1.63-.44l.5-1.75h-1.9l.17-.64h2.6l-.8,2.83c-.67.41-1.37.66-2.24.66-1.53,0-2.79-.99-2.79-2.68Z"/>
        <path class="cls-10" d="m199.03,523.98c0-.22.05-.48.12-.72l.68-2.59h.69l-.7,2.64c-.04.15-.07.37-.07.52,0,.61.4.97,1.04.97.72,0,1.44-.62,1.68-1.51l.7-2.62h.69l-1.25,4.65h-.68l.2-.76c-.42.48-.91.85-1.62.85-.9,0-1.49-.56-1.49-1.44Z"/>
        <path class="cls-10" d="m204.71,524.48c0-.16.03-.34.06-.49l.73-2.72h-.64l.16-.61h.65l.38-1.4h.68l-.38,1.4h1.47l-.16.61h-1.47l-.72,2.68c-.02.11-.04.24-.04.34,0,.32.24.48.64.48.21,0,.43-.04.67-.14l-.17.63c-.24.1-.47.13-.74.13-.67,0-1.13-.32-1.13-.92Z"/>
        <path class="cls-10" d="m207.95,524.37h.83l-.26.95h-.82l.25-.95Z"/>
        <path class="cls-10" d="m212.97,524.77l2.29-2.02c.96-.86,1.31-1.35,1.31-1.98,0-.74-.58-1.21-1.27-1.21-.72,0-1.19.38-1.69,1.08l-.52-.38c.57-.85,1.16-1.34,2.27-1.34s1.95.76,1.95,1.78v.02c0,.92-.49,1.49-1.59,2.45l-1.68,1.49h3.34v.65h-4.4v-.55Z"/>
        <path class="cls-10" d="m218.48,522.18v-.02c0-1.76,1.05-3.26,2.67-3.26s2.65,1.48,2.65,3.24v.02c0,1.76-1.04,3.26-2.67,3.26s-2.66-1.48-2.66-3.24Zm4.58,0v-.02c0-1.38-.76-2.61-1.93-2.61s-1.92,1.21-1.92,2.59v.02c0,1.38.76,2.61,1.94,2.61s1.91-1.22,1.91-2.59Z"/>
        <path class="cls-10" d="m225.93,519.71l-1.19.37-.17-.58,1.54-.53h.52v6.35h-.7v-5.61Z"/>
        <path class="cls-10" d="m232.08,522.15v-.13c-.4.61-.97,1-1.78,1-1.3,0-2.2-.82-2.2-1.95v-.02c0-1.2.93-2.14,2.27-2.14.72,0,1.25.24,1.66.65.48.48.78,1.18.78,2.44v.02c0,2-1.06,3.41-2.62,3.41-.82,0-1.41-.33-1.95-.77l.41-.55c.51.45.99.68,1.55.68,1.21,0,1.87-1.27,1.87-2.63Zm-.13-1.16v-.02c0-.8-.66-1.43-1.6-1.43s-1.51.69-1.51,1.48v.02c0,.8.63,1.38,1.55,1.38.96,0,1.57-.7,1.57-1.42Z"/>
        <path class="cls-10" d="m233.82,526.1c.45-.16.64-.4.6-.78h-.32v-.95h.83v.81c0,.73-.32,1.08-1,1.23l-.11-.32Zm.28-5.44h.83v.95h-.83v-.95Z"/>
        <path class="cls-10" d="m237,524.79c-.5-.5-.79-1.15-.79-2.44v-.02c0-1.92.97-3.42,2.62-3.42.76,0,1.31.27,1.86.72l-.41.55c-.47-.4-.91-.62-1.49-.62-1.21,0-1.85,1.28-1.85,2.7v.09c.41-.6.98-.97,1.8-.97,1.17,0,2.18.76,2.18,1.94v.02c0,1.21-.98,2.1-2.26,2.1-.69,0-1.26-.24-1.66-.64Zm3.19-1.43v-.02c0-.77-.63-1.35-1.54-1.35s-1.58.67-1.58,1.38v.02c0,.8.67,1.41,1.59,1.41s1.52-.64,1.52-1.44Z"/>
        <path class="cls-10" d="m241.95,523.62v-.02c0-.75.54-1.28,1.3-1.55-.58-.27-1.08-.72-1.08-1.45v-.02c0-.97,1-1.67,2.15-1.67s2.15.69,2.15,1.67v.02c0,.73-.5,1.18-1.08,1.45.75.28,1.3.79,1.3,1.54v.02c0,1.07-1.03,1.79-2.37,1.79s-2.37-.73-2.37-1.78Zm4.02-.02v-.02c0-.7-.73-1.2-1.65-1.2s-1.65.5-1.65,1.2v.02c0,.64.61,1.18,1.65,1.18s1.65-.54,1.65-1.18Zm-.21-2.95v-.02c0-.62-.62-1.09-1.44-1.09s-1.44.46-1.44,1.09v.02c0,.68.64,1.15,1.44,1.15s1.44-.47,1.44-1.15Z"/>
        <path class="cls-10" d="m247.88,520.66h.83v.95h-.83v-.95Zm0,3.71h.83v.95h-.83v-.95Z"/>
        <path class="cls-10" d="m253.32,523.82h-3.32l-.18-.51,3.57-4.34h.62v4.26h.98v.59h-.98v1.49h-.68v-1.49Zm0-.59v-3.25l-2.65,3.25h2.65Z"/>
        <path class="cls-10" d="m255.9,524.77l2.29-2.02c.96-.86,1.31-1.35,1.31-1.98,0-.74-.58-1.21-1.27-1.21-.72,0-1.19.38-1.69,1.08l-.52-.38c.57-.85,1.16-1.34,2.27-1.34s1.95.76,1.95,1.78v.02c0,.92-.49,1.49-1.59,2.45l-1.68,1.49h3.34v.65h-4.4v-.55Z"/>
        <path class="cls-10" d="m261.31,524.3l.51-.46c.49.59,1.07.94,1.85.94s1.38-.49,1.38-1.22v-.02c0-.78-.73-1.22-1.76-1.22h-.41l-.14-.42,1.99-2.24h-3.08v-.64h4.02v.52l-1.98,2.2c1.1.09,2.08.62,2.08,1.77v.02c0,1.13-.94,1.9-2.11,1.9-1.05,0-1.84-.46-2.35-1.13Z"/>
        <path class="cls-10" d="m266.97,522.27h3.58v.69h-3.58v-.69Z"/>
        <path class="cls-10" d="m271.49,524.3l.51-.46c.49.59,1.07.94,1.85.94s1.38-.49,1.38-1.22v-.02c0-.78-.73-1.22-1.76-1.22h-.41l-.14-.42,1.99-2.24h-3.08v-.64h4.02v.52l-1.98,2.2c1.1.09,2.08.62,2.08,1.77v.02c0,1.13-.94,1.9-2.11,1.9-1.05,0-1.84-.46-2.35-1.13Z"/>
        <path class="cls-10" d="m277.01,524.3l.51-.46c.49.59,1.07.94,1.85.94s1.38-.49,1.38-1.22v-.02c0-.78-.73-1.22-1.76-1.22h-.41l-.14-.42,1.99-2.24h-3.08v-.64h4.02v.52l-1.98,2.2c1.1.09,2.08.62,2.08,1.77v.02c0,1.13-.94,1.9-2.11,1.9-1.05,0-1.84-.46-2.35-1.13Z"/>
        <path class="cls-10" d="m282.76,524.37h.83v.95h-.83v-.95Z"/>
      </g>
      <g id="result_graph" class="graph_details">
        <rect class="cls-6" x="272.54" y="186.88" width="52.53" height="176.7"/>
        <rect class="cls-13" x="272.54" y="377.77" width="52.53" height="71.63"/>
        <rect class="cls-11" x="272.54" y="464.23" width="52.53" height="39.65"/>
        <g>
          <path class="cls-4" d="m277.77,285.75h3.9c.96,0,1.71.26,2.2.74.38.38.58.85.58,1.43v.02c0,.95-.5,1.47-1.1,1.81.97.37,1.57.94,1.57,2.06v.02c0,1.54-1.25,2.3-3.14,2.3h-3.99v-8.4Zm4.83,2.48c0-.55-.43-.86-1.21-.86h-1.82v1.78h1.7c.82,0,1.33-.26,1.33-.89v-.02Zm-.9,2.45h-2.13v1.85h2.19c.82,0,1.31-.29,1.31-.91v-.02c0-.56-.42-.91-1.37-.91Z"/>
          <path class="cls-4" d="m287.56,287.56l-1.46.36-.38-1.51,2.41-.72h1.26v8.46h-1.82v-6.58Z"/>
          <path class="cls-4" d="m291.29,287.72h1.94v1.92h-1.94v-1.92Zm0,4.51h1.94v1.92h-1.94v-1.92Z"/>
          <path class="cls-4" d="m299.28,293.39c-.61-.61-1-1.51-1-3.18v-.02c0-2.59,1.18-4.58,3.68-4.58,1.14,0,1.88.34,2.63.92l-.97,1.43c-.55-.42-1-.67-1.71-.67-1.26,0-1.63,1.21-1.69,1.94.44-.3.97-.54,1.74-.54,1.67,0,2.95.92,2.95,2.67v.02c0,1.72-1.38,2.9-3.2,2.9-1.09,0-1.83-.31-2.42-.9Zm3.79-1.92v-.02c0-.71-.55-1.22-1.46-1.22s-1.44.5-1.44,1.21v.02c0,.71.55,1.25,1.46,1.25s1.44-.52,1.44-1.24Z"/>
          <path class="cls-4" d="m307.6,287.56l-1.46.36-.38-1.51,2.41-.72h1.26v8.46h-1.82v-6.58Z"/>
          <path class="cls-4" d="m311.07,287.82v-.02c0-1.19.83-2.15,2.05-2.15s2.03.95,2.03,2.12v.02c0,1.18-.83,2.15-2.05,2.15s-2.03-.95-2.03-2.12Zm6.97-2.08h1.43l-3.36,4.52-2.77,3.87h-1.43l3.36-4.52,2.77-3.87Zm-5.71,2.03v.02c0,.56.31,1.06.79,1.06s.77-.49.77-1.03v-.02c0-.56-.31-1.06-.79-1.06-.5,0-.77.48-.77,1.03Zm3.9,4.34v-.02c0-1.19.83-2.15,2.05-2.15s2.03.95,2.03,2.12v.02c0,1.17-.83,2.15-2.05,2.15s-2.03-.95-2.03-2.12Zm2.82,0v-.02c0-.56-.31-1.06-.79-1.06-.5,0-.77.48-.77,1.03v.02c0,.56.31,1.06.79,1.06s.77-.49.77-1.03Z"/>
        </g>
        <g>
          <path class="cls-4" d="m276.35,481.82h3.9c.96,0,1.71.26,2.2.74.38.38.58.85.58,1.43v.02c0,.95-.5,1.47-1.1,1.81.97.37,1.57.94,1.57,2.06v.02c0,1.54-1.25,2.3-3.14,2.3h-3.99v-8.4Zm4.83,2.48c0-.55-.43-.86-1.21-.86h-1.82v1.78h1.7c.82,0,1.33-.26,1.33-.89v-.02Zm-.9,2.45h-2.13v1.85h2.19c.82,0,1.31-.29,1.31-.91v-.02c0-.56-.42-.91-1.37-.91Z"/>
          <path class="cls-4" d="m284.46,488.91l1.27-1.21c.58.65,1.17,1.01,2.03,1.01.7,0,1.19-.4,1.19-1.02v-.02c0-.68-.61-1.07-1.64-1.07h-.77l-.29-1.17,2-2.02h-3.3v-1.58h5.67v1.39l-2.12,2.03c1.14.19,2.25.79,2.25,2.35v.02c0,1.58-1.15,2.75-3.02,2.75-1.51,0-2.55-.6-3.27-1.45Z"/>
          <path class="cls-4" d="m292.26,483.79h1.94v1.92h-1.94v-1.92Zm0,4.51h1.94v1.92h-1.94v-1.92Z"/>
          <path class="cls-4" d="m300.75,483.64l-1.46.36-.38-1.51,2.41-.72h1.26v8.46h-1.82v-6.58Z"/>
          <path class="cls-4" d="m308.45,488.41h-4.1l-.3-1.31,4.61-5.34h1.56v5.14h1.13v1.5h-1.13v1.81h-1.76v-1.81Zm0-1.5v-2.61l-2.23,2.61h2.23Z"/>
          <path class="cls-4" d="m312.48,483.9v-.02c0-1.19.83-2.15,2.05-2.15s2.03.95,2.03,2.12v.02c0,1.18-.83,2.15-2.05,2.15s-2.03-.95-2.03-2.12Zm6.97-2.08h1.43l-3.36,4.52-2.77,3.87h-1.43l3.36-4.52,2.77-3.87Zm-5.71,2.03v.02c0,.56.31,1.06.79,1.06s.77-.49.77-1.03v-.02c0-.56-.31-1.06-.79-1.06-.5,0-.77.48-.77,1.03Zm3.9,4.34v-.02c0-1.19.83-2.15,2.05-2.15s2.03.95,2.03,2.12v.02c0,1.17-.83,2.15-2.05,2.15s-2.03-.95-2.03-2.12Zm2.82,0v-.02c0-.56-.31-1.06-.79-1.06-.5,0-.77.48-.77,1.03v.02c0,.56.31,1.06.79,1.06s.77-.49.77-1.03Z"/>
        </g>
        <g>
          <path class="cls-3" d="m275.49,411.75h3.9c.96,0,1.71.26,2.2.74.38.38.58.85.58,1.43v.02c0,.95-.5,1.47-1.1,1.81.97.37,1.57.94,1.57,2.06v.02c0,1.54-1.25,2.3-3.14,2.3h-3.99v-8.4Zm4.83,2.48c0-.55-.43-.86-1.21-.86h-1.82v1.78h1.7c.82,0,1.33-.26,1.33-.89v-.02Zm-.9,2.45h-2.13v1.85h2.19c.82,0,1.31-.29,1.31-.91v-.02c0-.56-.42-.91-1.37-.91Z"/>
          <path class="cls-3" d="m283.73,418.68l2.79-2.29c1.04-.86,1.45-1.32,1.45-2.01s-.47-1.09-1.13-1.09-1.09.36-1.71,1.13l-1.3-1.04c.83-1.13,1.63-1.74,3.13-1.74,1.74,0,2.89,1.02,2.89,2.59v.02c0,1.4-.72,2.1-2.21,3.25l-1.37,1.06h3.66v1.59h-6.21v-1.46Z"/>
          <path class="cls-3" d="m291.42,413.72h1.94v1.92h-1.94v-1.92Zm0,4.51h1.94v1.92h-1.94v-1.92Z"/>
          <path class="cls-3" d="m298.36,418.68l2.79-2.29c1.04-.86,1.45-1.32,1.45-2.01s-.47-1.09-1.13-1.09-1.09.36-1.71,1.13l-1.3-1.04c.83-1.13,1.63-1.74,3.13-1.74,1.74,0,2.89,1.02,2.89,2.59v.02c0,1.4-.72,2.1-2.21,3.25l-1.37,1.06h3.66v1.59h-6.21v-1.46Z"/>
          <path class="cls-3" d="m305.76,419.03l1.12-1.33c.64.58,1.26.91,2,.91.86,0,1.4-.42,1.4-1.16v-.02c0-.72-.61-1.14-1.49-1.14-.53,0-1.01.14-1.4.31l-1.07-.71.24-4.14h5.16v1.62h-3.57l-.1,1.45c.34-.08.64-.14,1.1-.14,1.63,0,2.94.79,2.94,2.69v.02c0,1.78-1.26,2.9-3.19,2.9-1.34,0-2.33-.48-3.14-1.26Z"/>
          <path class="cls-3" d="m313.35,413.82v-.02c0-1.19.83-2.15,2.05-2.15s2.03.95,2.03,2.12v.02c0,1.18-.83,2.15-2.05,2.15s-2.03-.95-2.03-2.12Zm6.97-2.08h1.43l-3.36,4.52-2.77,3.87h-1.43l3.36-4.52,2.77-3.87Zm-5.71,2.03v.02c0,.56.31,1.06.79,1.06.5,0,.77-.49.77-1.03v-.02c0-.56-.31-1.06-.79-1.06-.5,0-.77.48-.77,1.03Zm3.9,4.34v-.02c0-1.19.83-2.15,2.05-2.15s2.03.95,2.03,2.12v.02c0,1.17-.83,2.15-2.05,2.15s-2.03-.95-2.03-2.12Zm2.82,0v-.02c0-.56-.31-1.06-.79-1.06-.5,0-.77.48-.77,1.03v.02c0,.56.31,1.06.79,1.06s.77-.49.77-1.03Z"/>
        </g>
        <g>
          <path class="cls-12" d="m336.24,496.21l-.56-.63c.73-.59,1.14-1.31,1.14-2.26s-.59-1.68-1.5-1.68h-.02c-.96,0-1.48.89-1.48,2.16v.49l-.52.18-2.74-2.43v3.76h-.78v-4.92h.64l2.68,2.42c.11-1.34.76-2.54,2.17-2.54h.02c1.38,0,2.32,1.14,2.32,2.57,0,1.29-.56,2.25-1.38,2.87Z"/>
          <path class="cls-12" d="m333.61,484.52h-.15c.75.48,1.22,1.19,1.22,2.18,0,1.58-1,2.68-2.39,2.68h-.02c-1.46,0-2.62-1.13-2.62-2.77,0-.88.3-1.53.79-2.02.58-.58,1.44-.96,2.98-.96h.02c2.44,0,4.17,1.3,4.17,3.2,0,1-.41,1.73-.95,2.38l-.67-.51c.55-.63.83-1.21.83-1.89,0-1.49-1.55-2.29-3.21-2.29Zm-1.42.17h-.02c-.98,0-1.75.8-1.75,1.96s.85,1.85,1.8,1.85h.02c.98,0,1.68-.77,1.68-1.89s-.86-1.91-1.74-1.91Z"/>
          <path class="cls-12" d="m331.68,482.38h-.02c-1.04,0-1.97-.7-1.97-1.76s.91-1.73,1.95-1.73h.02c1.05,0,1.97.7,1.97,1.75s-.91,1.74-1.95,1.74Zm-1.9-6.45v-.78l4.04,2.97,3.66,2.67v.79l-4.02-2.97-3.69-2.68Zm1.86,5.71h.02c.77,0,1.35-.45,1.35-1.02s-.59-1-1.33-1h-.02c-.77,0-1.35.46-1.35,1.02,0,.61.6,1,1.33,1Zm3.98-3.81h-.02c-1.05,0-1.97-.7-1.97-1.75s.91-1.73,1.95-1.73h.02c1.04,0,1.97.69,1.97,1.75s-.91,1.73-1.95,1.73Zm0-2.75h-.02c-.77,0-1.35.45-1.35,1.02s.61,1,1.33,1h.02c.77,0,1.35-.45,1.35-1.02,0-.6-.59-1-1.33-1Z"/>
          <path class="cls-12" d="m336.75,470.01l-.6-.43c.46-.62.73-1.3.73-1.97s-.35-1.18-.9-1.18h-.02c-.57,0-.79.67-1,1.42-.25.89-.56,1.88-1.61,1.88h-.02c-.98,0-1.63-.81-1.63-1.94,0-.69.24-1.46.63-2.05l.64.38c-.34.53-.55,1.13-.55,1.68,0,.67.35,1.1.82,1.1h.02c.54,0,.75-.7.98-1.46.26-.88.6-1.83,1.63-1.83h.02c1.08,0,1.71.89,1.71,2.02,0,.81-.32,1.72-.84,2.35Z"/>
          <path class="cls-12" d="m335.97,463.87h-3.43v.79h-.75v-.79h-1.72v-.85h1.72v-1.8h.75v1.8h3.32c.69,0,.95-.39.95-.96,0-.29-.06-.53-.2-.83h.73c.15.3.24.62.24,1.02,0,.91-.45,1.61-1.61,1.61Z"/>
          <path class="cls-12" d="m331.79,459.72v-.85h1.49c-.95-.42-1.63-1.24-1.58-2.32h.91v.07c0,1.24.89,2.26,2.61,2.26h2.27v.85h-5.69Z"/>
          <path class="cls-12" d="m335.32,455.36h-3.53v-.85h3.32c1.06,0,1.72-.57,1.72-1.57s-.71-1.71-1.78-1.71h-3.26v-.84h5.69v.84h-.99c.62.38,1.11.97,1.11,1.95,0,1.38-.92,2.18-2.28,2.18Z"/>
          <path class="cls-12" d="m334.66,448.84h-.02c-1.61,0-2.97-1.25-2.97-2.92,0-1.08.45-1.75,1.01-2.28l.59.56c-.47.45-.86.96-.86,1.73,0,1.15.98,2.04,2.2,2.04h.02c1.23,0,2.21-.9,2.21-2.09,0-.73-.36-1.29-.85-1.74l.51-.54c.64.57,1.1,1.25,1.1,2.32,0,1.66-1.35,2.92-2.95,2.92Z"/>
          <path class="cls-12" d="m335.97,441.91h-3.43v.79h-.75v-.79h-1.72v-.85h1.72v-1.8h.75v1.8h3.32c.69,0,.95-.39.95-.96,0-.29-.06-.53-.2-.82h.73c.15.3.24.62.24,1.02,0,.91-.45,1.61-1.61,1.61Z"/>
          <path class="cls-12" d="m335.32,437.85h-3.53v-.85h3.32c1.06,0,1.72-.57,1.72-1.57s-.71-1.71-1.78-1.71h-3.26v-.84h5.69v.84h-.99c.62.38,1.11.97,1.11,1.95,0,1.38-.92,2.18-2.28,2.18Z"/>
          <path class="cls-12" d="m331.79,430.99v-.85h1.49c-.95-.42-1.63-1.24-1.58-2.32h.91v.07c0,1.24.89,2.26,2.61,2.26h2.27v.85h-5.69Z"/>
          <path class="cls-12" d="m329.61,426.51v-.97h.94v.97h-.94Zm2.18-.06v-.85h5.69v.85h-5.69Z"/>
          <path class="cls-12" d="m331.79,423.64v-.85h.99c-.62-.37-1.11-.97-1.11-1.95,0-1.38.92-2.18,2.28-2.18h3.53v.85h-3.32c-1.06,0-1.72.57-1.72,1.57s.72,1.71,1.78,1.71h3.26v.85h-5.69Z"/>
          <path class="cls-12" d="m338.47,416.93l-.66-.39c.47-.65.73-1.38.73-2.19,0-1.25-.69-2.07-2.02-2.07h-.67c.66.5,1.2,1.19,1.2,2.23,0,1.36-1.02,2.67-2.66,2.67h-.02c-1.66,0-2.68-1.32-2.68-2.67,0-1.07.53-1.76,1.14-2.22h-1.02v-.85h4.7c.88,0,1.55.26,2.01.73.51.51.76,1.27.76,2.17,0,.95-.26,1.83-.79,2.59Zm-4.1-4.67h-.02c-1.17,0-1.92,1.01-1.92,2.09s.75,1.97,1.91,1.97h.02c1.14,0,1.94-.91,1.94-1.97s-.78-2.09-1.92-2.09Z"/>
          <path class="cls-12" d="m334.32,406.46c-2.02,0-3.61-1.09-4.71-3.05l.56-.36c1.07,1.67,2.39,2.55,4.15,2.55s3.08-.88,4.15-2.55l.56.36c-1.1,1.96-2.68,3.05-4.71,3.05Z"/>
          <path class="cls-12" d="m329.78,401.35v-3.28c0-.88.25-1.57.68-2.01.33-.32.74-.5,1.23-.5h.02c1,0,1.52.62,1.78,1.22.27-.91.8-1.65,1.86-1.65h.02c1.32,0,2.1,1.11,2.1,2.79v3.42h-7.7Zm2.04-4.91c-.76,0-1.25.61-1.25,1.71v2.34h2.65v-2.28c0-1.04-.47-1.77-1.38-1.77h-.02Zm2.17,1.62v2.43h2.72v-2.58c0-1.17-.52-1.89-1.38-1.89h-.02c-.84,0-1.32.7-1.32,2.05Z"/>
          <path class="cls-12" d="m330.63,392.52l.45,1.45-.7.21-.65-1.88v-.64h7.76v.86h-6.85Z"/>
          <path class="cls-12" d="m338.47,389.94c-1.07-1.67-2.39-2.55-4.15-2.55s-3.08.88-4.15,2.55l-.56-.36c1.1-1.96,2.68-3.05,4.71-3.05s3.61,1.09,4.71,3.05l-.56.36Z"/>
          <path class="cls-12" d="m349.83,498.05h-.02c-1.2,0-1.84-.99-1.84-2.43,0-.73.1-1.24.24-1.75h-.2c-1.02,0-1.55.63-1.55,1.69,0,.67.18,1.2.42,1.73l-.69.25c-.29-.63-.47-1.24-.47-2.07s.21-1.42.63-1.84c.38-.38.94-.58,1.66-.58h3.48v.81h-.86c.52.4.98,1.06.98,2.06,0,1.06-.61,2.12-1.77,2.12Zm-.44-4.19h-.55c-.12.42-.24.98-.24,1.67,0,1.07.46,1.66,1.18,1.66h.02c.72,0,1.13-.66,1.13-1.43,0-1.04-.64-1.9-1.54-1.9Z"/>
          <path class="cls-12" d="m345.79,491.25v-.85h.99c-.62-.37-1.11-.97-1.11-1.95,0-1.38.92-2.18,2.28-2.18h3.53v.85h-3.32c-1.06,0-1.72.57-1.72,1.57s.72,1.71,1.78,1.71h3.26v.85h-5.69Z"/>
          <path class="cls-12" d="m348.65,484.8h-.02c-1.86,0-2.96-1.35-2.96-2.72,0-1.06.57-1.74,1.21-2.18h-3.43v-.85h8.03v.85h-1.14c.68.46,1.27,1.13,1.27,2.18,0,1.36-1.08,2.72-2.95,2.72Zm-.01-4.93h-.02c-1.31,0-2.19,1-2.19,2.06s.81,2,2.19,2h.02c1.34,0,2.2-.92,2.2-2s-.89-2.06-2.2-2.06Z"/>
          <path class="cls-12" d="m345.79,473.87v-.85h1.14c-.68-.46-1.26-1.13-1.26-2.18,0-1.36,1.08-2.72,2.95-2.72h.02c1.86,0,2.96,1.34,2.96,2.72,0,1.06-.57,1.74-1.21,2.18h2.85v.85h-7.45Zm2.86-4.87h-.02c-1.34,0-2.2.92-2.2,2s.89,2.06,2.19,2.06h.02c1.32,0,2.2-1,2.2-2.06s-.81-2-2.19-2Z"/>
          <path class="cls-12" d="m348.65,466.92h-.02c-1.64,0-2.96-1.16-2.96-2.73,0-1.68,1.34-2.65,3-2.65.11,0,.18,0,.28.01v4.51c1.23-.12,1.92-.99,1.92-2,0-.78-.32-1.33-.8-1.79l.47-.53c.64.57,1.07,1.26,1.07,2.34,0,1.56-1.2,2.84-2.96,2.84Zm-.33-4.52c-1.03.09-1.94.68-1.94,1.82,0,.99.83,1.74,1.94,1.85v-3.66Z"/>
          <path class="cls-12" d="m345.79,460.05v-.85h.99c-.62-.37-1.11-.97-1.11-1.95,0-1.38.92-2.18,2.28-2.18h3.53v.85h-3.32c-1.06,0-1.72.57-1.72,1.57s.72,1.71,1.78,1.71h3.26v.85h-5.69Z"/>
          <path class="cls-12" d="m348.65,453.63h-.02c-1.64,0-2.96-1.16-2.96-2.73,0-1.68,1.34-2.65,3-2.65.11,0,.18,0,.28.01v4.51c1.23-.12,1.92-.99,1.92-2,0-.78-.32-1.33-.8-1.79l.47-.53c.64.57,1.07,1.26,1.07,2.34,0,1.56-1.2,2.84-2.96,2.84Zm-.33-4.52c-1.03.09-1.94.68-1.94,1.82,0,.99.83,1.74,1.94,1.85v-3.66Z"/>
          <path class="cls-12" d="m349.97,446.47h-3.43v.79h-.75v-.79h-1.72v-.85h1.72v-1.8h.75v1.8h3.32c.69,0,.95-.39.95-.96,0-.29-.06-.53-.2-.82h.73c.15.3.24.62.24,1.02,0,.91-.45,1.61-1.61,1.61Z"/>
          <path class="cls-12" d="m345.79,442.32v-.85h1.49c-.95-.42-1.63-1.24-1.58-2.32h.91v.07c0,1.24.89,2.26,2.61,2.26h2.27v.85h-5.69Z"/>
          <path class="cls-12" d="m349.83,438.57h-.02c-1.2,0-1.84-.99-1.84-2.43,0-.73.1-1.24.24-1.75h-.2c-1.02,0-1.55.63-1.55,1.69,0,.67.18,1.2.42,1.73l-.69.25c-.29-.63-.47-1.24-.47-2.07s.21-1.42.63-1.84c.38-.38.94-.58,1.66-.58h3.48v.81h-.86c.52.4.98,1.06.98,2.06,0,1.06-.61,2.12-1.77,2.12Zm-.44-4.19h-.55c-.12.42-.24.98-.24,1.67,0,1.07.46,1.66,1.18,1.66h.02c.72,0,1.13-.66,1.13-1.43,0-1.04-.64-1.9-1.54-1.9Z"/>
          <path class="cls-12" d="m349.97,431.53h-3.43v.79h-.75v-.79h-1.72v-.85h1.72v-1.8h.75v1.8h3.32c.69,0,.95-.39.95-.96,0-.29-.06-.53-.2-.82h.73c.15.3.24.62.24,1.02,0,.91-.45,1.61-1.61,1.61Z"/>
          <path class="cls-12" d="m343.61,427.36v-.97h.94v.97h-.94Zm2.18-.06v-.85h5.69v.85h-5.69Z"/>
          <path class="cls-12" d="m345.79,424.49v-.85h.99c-.62-.37-1.11-.97-1.11-1.95,0-1.38.92-2.18,2.28-2.18h3.53v.85h-3.32c-1.06,0-1.72.57-1.72,1.57s.72,1.71,1.78,1.71h3.26v.85h-5.69Z"/>
          <path class="cls-12" d="m352.47,417.78l-.66-.39c.47-.65.73-1.38.73-2.19,0-1.25-.69-2.07-2.02-2.07h-.67c.66.5,1.2,1.19,1.2,2.23,0,1.36-1.02,2.67-2.66,2.67h-.02c-1.66,0-2.68-1.32-2.68-2.67,0-1.07.53-1.76,1.14-2.22h-1.02v-.85h4.7c.88,0,1.55.26,2.01.73.51.51.76,1.27.76,2.17,0,.95-.26,1.83-.79,2.59Zm-4.1-4.67h-.02c-1.17,0-1.92,1.01-1.92,2.09s.75,1.97,1.91,1.97h.02c1.14,0,1.94-.91,1.94-1.97s-.78-2.09-1.92-2.09Z"/>
          <path class="cls-12" d="m348.32,407.31c-2.02,0-3.61-1.09-4.71-3.05l.56-.36c1.07,1.67,2.39,2.55,4.15,2.55s3.08-.88,4.15-2.55l.56.36c-1.1,1.96-2.68,3.05-4.71,3.05Z"/>
          <path class="cls-12" d="m343.78,402.2v-3.28c0-.88.25-1.57.68-2.01.33-.32.74-.5,1.23-.5h.02c1,0,1.52.62,1.78,1.22.27-.91.8-1.65,1.86-1.65h.02c1.32,0,2.1,1.11,2.1,2.79v3.42h-7.7Zm2.04-4.91c-.76,0-1.25.61-1.25,1.71v2.34h2.65v-2.28c0-1.04-.47-1.77-1.38-1.77h-.02Zm2.17,1.62v2.43h2.72v-2.58c0-1.17-.52-1.89-1.38-1.89h-.02c-.84,0-1.32.7-1.32,2.05Z"/>
          <path class="cls-12" d="m350.81,394.81l-2.46-2.79c-1.06-1.18-1.65-1.61-2.42-1.61-.9,0-1.47.71-1.47,1.55,0,.88.46,1.45,1.32,2.07l-.46.64c-1.03-.69-1.64-1.42-1.64-2.77s.92-2.39,2.18-2.39h.02c1.12,0,1.81.59,2.99,1.95l1.83,2.06v-4.08h.79v5.38h-.67Z"/>
          <path class="cls-12" d="m352.47,388.14c-1.07-1.67-2.39-2.55-4.15-2.55s-3.08.88-4.15,2.55l-.56-.36c1.1-1.96,2.68-3.05,4.71-3.05s3.61,1.09,4.71,3.05l-.56.36Z"/>
        </g>
        <rect class="cls-15" x="56.39" y="478.35" width="216.15" height="25.53"/>
        <path class="cls-8" d="m56.39,392.6s41.92.31,62.88,12.27c20.96,11.96,69.3,45.09,86.07,52.76,16.77,7.67,47.6,14.42,67.2,14.42v-7.82s-25.03-.46-43.03-5.99c-18-5.52-34.77-12.88-62.89-32.51-28.11-19.63-57.71-38.03-86.07-39.26-28.36-1.23-24.16-.92-24.16-.92v7.05Z"/>
        <rect class="cls-8" x="56.39" y="186.88" width="216.15" height="176.7"/>
        <path class="cls-8" d="m56.39,385.55v-21.97s58.44,2.04,77.43,3.88c18.99,1.84,103.08,11.75,138.72,10.32v21.58s-67.7-3.37-83.73-4.91c-16.03-1.53-62.33-6.94-77.15-8.05-20.38-1.53-55.27-.84-55.27-.84Z"/>
        <path class="cls-2" d="m56.39,407.03s72.99-2.16,89.51-3.08,69.79-8.59,126.64-7.36v52.81s-95.81,3.93-118.25,5.77c-23.92.92-87.97,3.68-97.9,3.68v-51.82Z"/>
        <path class="cls-2" d="m56.39,465.41v-6.56s81.87,2.76,96.42,5.06,89.52,9.66,119.73,8.13v6.3s-69.36-2.47-96.36-4.54c0,0-67.26-8.4-119.79-8.4Z"/>
        <polyline class="cls-16" points="341.65 499.52 341.65 503.88 326.55 503.88"/>
        <polyline class="cls-16" points="326.55 377.77 341.65 377.77 341.65 382.37"/>
        <g>
          <path class="cls-4" d="m73.16,292.08v-.02c0-.91.66-1.56,1.58-1.89-.71-.33-1.32-.88-1.32-1.77v-.02c0-1.19,1.22-2.04,2.63-2.04s2.63.85,2.63,2.04v.02c0,.89-.6,1.44-1.32,1.77.91.34,1.58.97,1.58,1.88v.02c0,1.31-1.25,2.19-2.89,2.19s-2.89-.89-2.89-2.18Zm4.91-.02v-.02c0-.86-.89-1.46-2.01-1.46s-2.01.6-2.01,1.46v.02c0,.78.75,1.44,2.01,1.44s2.01-.66,2.01-1.44Zm-.25-3.61v-.02c0-.76-.76-1.33-1.76-1.33s-1.76.56-1.76,1.33v.02c0,.84.78,1.41,1.76,1.41s1.76-.57,1.76-1.41Z"/>
          <path class="cls-4" d="m81.15,293.5c-.62-.62-.97-1.41-.97-2.98v-.02c0-2.34,1.19-4.18,3.2-4.18.92,0,1.61.33,2.28.88l-.51.67c-.57-.48-1.11-.76-1.82-.76-1.48,0-2.27,1.56-2.27,3.3v.11c.51-.74,1.2-1.19,2.2-1.19,1.43,0,2.66.92,2.66,2.37v.02c0,1.49-1.2,2.56-2.76,2.56-.85,0-1.54-.3-2.02-.78Zm3.89-1.75v-.02c0-.95-.77-1.65-1.88-1.65s-1.92.83-1.92,1.68v.02c0,.98.81,1.73,1.95,1.73s1.86-.78,1.86-1.76Z"/>
          <path class="cls-4" d="m87.2,288.35v-.02c0-1.04.7-1.97,1.76-1.97s1.73.91,1.73,1.95v.02c0,1.05-.7,1.97-1.75,1.97s-1.74-.91-1.74-1.95Zm.74-.04v.02c0,.77.45,1.35,1.02,1.35s1-.59,1-1.33v-.02c0-.77-.46-1.35-1.02-1.35-.61,0-1,.6-1,1.33Zm5.71-1.86h.78l-2.97,4.04-2.67,3.66h-.79l2.97-4.02,2.68-3.69Zm-1.9,5.84v-.02c0-1.05.7-1.97,1.75-1.97s1.73.91,1.73,1.95v.02c0,1.04-.69,1.97-1.75,1.97s-1.73-.91-1.73-1.95Zm2.75,0v-.02c0-.77-.45-1.35-1.02-1.35s-1,.61-1,1.33v.02c0,.77.45,1.35,1.02,1.35.6,0,1-.59,1-1.33Z"/>
        </g>
        <g>
          <path class="cls-4" d="m75.68,373.02l-1.45.45-.21-.7,1.88-.65h.64v7.76h-.86v-6.85Z"/>
          <path class="cls-4" d="m78.33,376.05v-.02c0-2.16,1.29-3.98,3.27-3.98s3.23,1.8,3.23,3.96v.02c0,2.16-1.28,3.98-3.26,3.98s-3.25-1.8-3.25-3.96Zm5.6,0v-.02c0-1.68-.92-3.19-2.35-3.19s-2.34,1.47-2.34,3.17v.02c0,1.68.92,3.19,2.37,3.19s2.33-1.49,2.33-3.17Z"/>
          <path class="cls-4" d="m86.08,374.08v-.02c0-1.04.7-1.97,1.76-1.97s1.73.91,1.73,1.95v.02c0,1.05-.7,1.97-1.75,1.97s-1.74-.91-1.74-1.95Zm.74-.04v.02c0,.77.45,1.35,1.02,1.35s1-.59,1-1.33v-.02c0-.77-.46-1.35-1.02-1.35-.61,0-1,.6-1,1.33Zm5.71-1.86h.78l-2.97,4.04-2.67,3.66h-.79l2.97-4.02,2.68-3.69Zm-1.9,5.84v-.02c0-1.05.7-1.97,1.75-1.97s1.73.91,1.73,1.95v.02c0,1.04-.69,1.97-1.75,1.97s-1.73-.91-1.73-1.95Zm2.75,0v-.02c0-.77-.45-1.35-1.02-1.35s-1,.61-1,1.33v.02c0,.77.45,1.35,1.02,1.35.6,0,1-.59,1-1.33Z"/>
        </g>
        <g>
          <path class="cls-4" d="m80.67,392.93h-4.06l-.22-.63,4.36-5.3h.76v5.2h1.2v.73h-1.2v1.83h-.84v-1.83Zm0-.73v-3.97l-3.23,3.97h3.23Z"/>
          <path class="cls-4" d="m83.87,388.95v-.02c0-1.04.7-1.97,1.76-1.97s1.73.91,1.73,1.95v.02c0,1.05-.7,1.97-1.75,1.97s-1.74-.91-1.74-1.95Zm.74-.04v.02c0,.77.45,1.35,1.02,1.35s1-.59,1-1.33v-.02c0-.77-.46-1.35-1.02-1.35-.61,0-1,.6-1,1.33Zm5.71-1.86h.78l-2.97,4.04-2.67,3.66h-.79l2.97-4.02,2.68-3.69Zm-1.9,5.84v-.02c0-1.05.7-1.97,1.75-1.97s1.73.91,1.73,1.95v.02c0,1.04-.69,1.97-1.75,1.97s-1.73-.91-1.73-1.95Zm2.75,0v-.02c0-.77-.45-1.35-1.02-1.35s-1,.61-1,1.33v.02c0,.77.45,1.35,1.02,1.35.6,0,1-.59,1-1.33Z"/>
        </g>
        <g>
          <path class="cls-3" d="m73.18,434.15v-.02c0-.91.66-1.56,1.58-1.89-.71-.33-1.32-.88-1.32-1.77v-.02c0-1.19,1.22-2.04,2.63-2.04s2.63.85,2.63,2.04v.02c0,.89-.6,1.44-1.32,1.77.91.34,1.58.97,1.58,1.88v.02c0,1.31-1.25,2.19-2.89,2.19s-2.89-.89-2.89-2.18Zm4.91-.02v-.02c0-.86-.89-1.46-2.01-1.46s-2.01.6-2.01,1.46v.02c0,.78.75,1.44,2.01,1.44s2.01-.66,2.01-1.44Zm-.25-3.61v-.02c0-.76-.76-1.33-1.76-1.33s-1.76.56-1.76,1.33v.02c0,.84.78,1.41,1.76,1.41s1.76-.57,1.76-1.41Z"/>
          <path class="cls-3" d="m85.04,432.35v-.15c-.48.75-1.19,1.22-2.18,1.22-1.58,0-2.68-1-2.68-2.39v-.02c0-1.46,1.13-2.62,2.77-2.62.88,0,1.53.3,2.02.79.58.58.96,1.44.96,2.98v.02c0,2.44-1.3,4.17-3.2,4.17-1,0-1.73-.41-2.38-.95l.51-.67c.63.55,1.21.83,1.89.83,1.49,0,2.29-1.55,2.29-3.21Zm-.17-1.42v-.02c0-.98-.8-1.75-1.96-1.75s-1.85.85-1.85,1.8v.02c0,.98.77,1.68,1.89,1.68s1.91-.86,1.91-1.74Z"/>
          <path class="cls-3" d="m87.18,430.43v-.02c0-1.04.7-1.97,1.76-1.97s1.73.91,1.73,1.95v.02c0,1.05-.7,1.97-1.75,1.97s-1.74-.91-1.74-1.95Zm.74-.04v.02c0,.77.45,1.35,1.02,1.35s1-.59,1-1.33v-.02c0-.77-.46-1.35-1.02-1.35-.61,0-1,.6-1,1.33Zm5.71-1.86h.78l-2.97,4.04-2.67,3.66h-.79l2.97-4.02,2.68-3.69Zm-1.9,5.84v-.02c0-1.05.7-1.97,1.75-1.97s1.73.91,1.73,1.95v.02c0,1.04-.69,1.97-1.75,1.97s-1.73-.91-1.73-1.95Zm2.75,0v-.02c0-.77-.45-1.35-1.02-1.35s-1,.61-1,1.33v.02c0,.77.45,1.35,1.02,1.35.6,0,1-.59,1-1.33Z"/>
        </g>
        <g>
          <path class="cls-3" d="m77.64,459.91l-1.45.45-.21-.7,1.88-.65h.64v7.76h-.86v-6.85Z"/>
          <path class="cls-3" d="m81.58,459.91l-1.45.45-.21-.7,1.88-.65h.64v7.76h-.86v-6.85Z"/>
          <path class="cls-3" d="m84.12,460.96v-.02c0-1.04.7-1.97,1.76-1.97s1.73.91,1.73,1.95v.02c0,1.05-.7,1.97-1.75,1.97s-1.74-.91-1.74-1.95Zm.74-.04v.02c0,.77.45,1.35,1.02,1.35s1-.59,1-1.33v-.02c0-.77-.46-1.35-1.02-1.35-.61,0-1,.6-1,1.33Zm5.71-1.86h.78l-2.97,4.04-2.67,3.66h-.79l2.97-4.02,2.68-3.69Zm-1.9,5.84v-.02c0-1.05.7-1.97,1.75-1.97s1.73.91,1.73,1.95v.02c0,1.04-.69,1.97-1.75,1.97s-1.73-.91-1.73-1.95Zm2.75,0v-.02c0-.77-.45-1.35-1.02-1.35s-1,.61-1,1.33v.02c0,.77.45,1.35,1.02,1.35.6,0,1-.59,1-1.33Z"/>
        </g>
        <g>
          <path class="cls-4" d="m71.74,489.5l-1.45.45-.21-.7,1.88-.65h.64v7.76h-.86v-6.85Z"/>
          <path class="cls-4" d="m74.39,492.53v-.02c0-2.16,1.29-3.98,3.27-3.98s3.23,1.8,3.23,3.96v.02c0,2.16-1.28,3.98-3.26,3.98s-3.25-1.8-3.25-3.96Zm5.6,0v-.02c0-1.68-.92-3.19-2.35-3.19s-2.34,1.47-2.34,3.17v.02c0,1.68.92,3.19,2.37,3.19s2.33-1.49,2.33-3.17Z"/>
          <path class="cls-4" d="m82.26,492.53v-.02c0-2.16,1.29-3.98,3.27-3.98s3.23,1.8,3.23,3.96v.02c0,2.16-1.28,3.98-3.26,3.98s-3.25-1.8-3.25-3.96Zm5.6,0v-.02c0-1.68-.92-3.19-2.35-3.19s-2.34,1.47-2.34,3.17v.02c0,1.68.92,3.19,2.37,3.19s2.33-1.49,2.33-3.17Z"/>
          <path class="cls-4" d="m90.01,490.56v-.02c0-1.04.7-1.97,1.76-1.97s1.73.91,1.73,1.95v.02c0,1.05-.7,1.97-1.75,1.97s-1.74-.91-1.74-1.95Zm.74-.04v.02c0,.77.45,1.35,1.02,1.35s1-.59,1-1.33v-.02c0-.77-.46-1.35-1.02-1.35-.61,0-1,.6-1,1.33Zm5.71-1.86h.78l-2.97,4.04-2.67,3.66h-.79l2.97-4.02,2.68-3.69Zm-1.9,5.84v-.02c0-1.05.7-1.97,1.75-1.97s1.73.91,1.73,1.95v.02c0,1.04-.69,1.97-1.75,1.97s-1.73-.91-1.73-1.95Zm2.75,0v-.02c0-.77-.45-1.35-1.02-1.35s-1,.61-1,1.33v.02c0,.77.45,1.35,1.02,1.35.6,0,1-.59,1-1.33Z"/>
        </g>
      </g>
      <g id="follow_up_title">
        <path class="cls-10" d="m269.63,164.36h6.15v.89h-5.18v3.06h4.63v.88h-4.63v3.73h-.97v-8.56Z"/>
        <path class="cls-10" d="m276.91,169.79v-.02c0-1.78,1.39-3.3,3.3-3.3s3.29,1.49,3.29,3.28v.02c0,1.78-1.41,3.3-3.31,3.3s-3.28-1.49-3.28-3.28Zm5.62,0v-.02c0-1.36-1.01-2.47-2.35-2.47s-2.31,1.11-2.31,2.44v.02c0,1.36,1,2.46,2.33,2.46s2.32-1.1,2.32-2.43Z"/>
        <path class="cls-10" d="m285.28,163.99h.94v8.92h-.94v-8.92Z"/>
        <path class="cls-10" d="m288.5,163.99h.94v8.92h-.94v-8.92Z"/>
        <path class="cls-10" d="m291.23,169.79v-.02c0-1.78,1.39-3.3,3.3-3.3s3.29,1.49,3.29,3.28v.02c0,1.78-1.41,3.3-3.31,3.3s-3.28-1.49-3.28-3.28Zm5.62,0v-.02c0-1.36-1.01-2.47-2.35-2.47s-2.31,1.11-2.31,2.44v.02c0,1.36,1,2.46,2.33,2.46s2.32-1.1,2.32-2.43Z"/>
        <path class="cls-10" d="m298.68,166.6h1l1.66,5.07,1.7-5.1h.78l1.71,5.1,1.66-5.07h.98l-2.22,6.37h-.82l-1.7-4.99-1.71,4.99h-.83l-2.21-6.37Z"/>
        <path class="cls-10" d="m309.36,168.75h3.4v.99h-3.4v-.99Z"/>
        <path class="cls-10" d="m314.5,170.52v-3.92h.94v3.69c0,1.17.64,1.91,1.75,1.91s1.89-.79,1.89-1.98v-3.62h.93v6.32h-.93v-1.1c-.43.68-1.08,1.23-2.16,1.23-1.53,0-2.42-1.03-2.42-2.53Z"/>
        <path class="cls-10" d="m322.13,166.6h.94v1.27c.51-.76,1.26-1.41,2.42-1.41,1.52,0,3.02,1.2,3.02,3.28v.02c0,2.07-1.49,3.29-3.02,3.29-1.17,0-1.93-.64-2.42-1.34v3.17h-.94v-8.27Zm5.42,3.18v-.02c0-1.49-1.03-2.44-2.22-2.44s-2.29.99-2.29,2.43v.02c0,1.47,1.11,2.44,2.29,2.44s2.22-.9,2.22-2.43Z"/>
      </g>
      <g id="initial_diagnosis_graph">
        <rect class="cls-6" x="3.86" y="186.88" width="52.53" height="205.73"/>
        <rect class="cls-13" x="3.86" y="407.03" width="52.53" height="58.38"/>
        <rect class="cls-11" x="3.86" y="478.35" width="52.53" height="25.53"/>
        <g>
          <path class="cls-4" d="m6.65,285.75h3.9c.96,0,1.71.26,2.19.74.38.38.58.85.58,1.43v.02c0,.95-.5,1.47-1.1,1.81.97.37,1.57.94,1.57,2.06v.02c0,1.54-1.25,2.3-3.14,2.3h-3.99v-8.4Zm4.83,2.48c0-.55-.43-.86-1.21-.86h-1.82v1.78h1.7c.82,0,1.33-.26,1.33-.89v-.02Zm-.9,2.45h-2.13v1.85h2.19c.82,0,1.31-.29,1.31-.91v-.02c0-.56-.42-.91-1.37-.91Z"/>
          <path class="cls-4" d="m16.44,287.56l-1.46.36-.38-1.51,2.41-.72h1.26v8.46h-1.82v-6.58Z"/>
          <path class="cls-4" d="m21.65,288.24l-1.16.89-.5-.86,1.34-.56-1.34-.56.5-.86,1.16.89-.19-1.44h.98l-.19,1.44,1.16-.89.5.86-1.34.56,1.34.56-.5.86-1.16-.89.19,1.44h-.98l.19-1.44Z"/>
          <path class="cls-4" d="m25.33,287.72h1.94v1.92h-1.94v-1.92Zm0,4.51h1.94v1.92h-1.94v-1.92Z"/>
          <path class="cls-4" d="m36.44,287.34h-3.95v-1.6h6.04v1.39l-3.77,7h-2.09l3.75-6.8Z"/>
          <path class="cls-4" d="m41.36,287.56l-1.46.36-.38-1.51,2.41-.72h1.26v8.46h-1.82v-6.58Z"/>
          <path class="cls-4" d="m44.83,287.82v-.02c0-1.19.83-2.15,2.05-2.15s2.03.95,2.03,2.12v.02c0,1.18-.83,2.15-2.05,2.15s-2.03-.95-2.03-2.12Zm6.97-2.08h1.43l-3.36,4.52-2.77,3.87h-1.43l3.36-4.52,2.77-3.87Zm-5.71,2.03v.02c0,.56.31,1.06.79,1.06s.77-.49.77-1.03v-.02c0-.56-.31-1.06-.79-1.06-.5,0-.77.48-.77,1.03Zm3.9,4.34v-.02c0-1.19.83-2.15,2.05-2.15s2.03.95,2.03,2.12v.02c0,1.17-.83,2.15-2.05,2.15s-2.03-.95-2.03-2.12Zm2.82,0v-.02c0-.56-.31-1.06-.79-1.06-.5,0-.77.48-.77,1.03v.02c0,.56.31,1.06.79,1.06s.77-.49.77-1.03Z"/>
        </g>
        <g>
          <path class="cls-4" d="m7.98,487.96h3.9c.96,0,1.71.26,2.19.74.38.38.58.85.58,1.43v.02c0,.95-.5,1.47-1.1,1.81.97.37,1.57.94,1.57,2.06v.02c0,1.54-1.25,2.3-3.14,2.3h-3.99v-8.4Zm4.83,2.48c0-.55-.43-.86-1.21-.86h-1.82v1.78h1.7c.82,0,1.33-.26,1.33-.89v-.02Zm-.9,2.45h-2.13v1.85h2.19c.82,0,1.31-.29,1.31-.91v-.02c0-.56-.42-.91-1.37-.91Z"/>
          <path class="cls-4" d="m16.09,495.05l1.27-1.21c.58.65,1.18,1.01,2.03,1.01.7,0,1.19-.4,1.19-1.02v-.02c0-.68-.61-1.07-1.64-1.07h-.77l-.29-1.17,2-2.02h-3.3v-1.58h5.67v1.39l-2.12,2.03c1.14.19,2.25.79,2.25,2.35v.02c0,1.58-1.15,2.75-3.02,2.75-1.51,0-2.55-.6-3.27-1.45Z"/>
          <path class="cls-4" d="m25.37,490.45l-1.16.89-.5-.86,1.34-.56-1.34-.56.5-.86,1.16.89-.19-1.44h.98l-.19,1.44,1.16-.89.5.86-1.34.56,1.34.56-.5.86-1.16-.89.19,1.44h-.98l.19-1.44Z"/>
          <path class="cls-4" d="m29.05,489.93h1.94v1.92h-1.94v-1.92Zm0,4.51h1.94v1.92h-1.94v-1.92Z"/>
          <path class="cls-4" d="m35.94,494.05v-.02c0-1.02.47-1.62,1.35-2.03-.65-.4-1.07-.94-1.07-1.83v-.02c0-1.28,1.18-2.3,2.95-2.3s2.95,1.01,2.95,2.3v.02c0,.9-.42,1.44-1.07,1.83.85.44,1.36.98,1.36,1.98v.02c0,1.56-1.38,2.47-3.24,2.47s-3.24-.96-3.24-2.42Zm4.69-.14v-.02c0-.65-.61-1.03-1.45-1.03s-1.45.38-1.45,1.03v.02c0,.58.54,1.04,1.45,1.04s1.45-.46,1.45-1.04Zm-.25-3.54v-.02c0-.52-.44-.98-1.2-.98s-1.2.46-1.2.97v.02c0,.59.47,1.03,1.2,1.03s1.2-.43,1.2-1.02Z"/>
          <path class="cls-4" d="m43.5,490.03v-.02c0-1.19.83-2.15,2.05-2.15s2.03.95,2.03,2.12v.02c0,1.18-.83,2.15-2.05,2.15s-2.03-.95-2.03-2.12Zm6.97-2.08h1.43l-3.36,4.52-2.77,3.87h-1.43l3.36-4.52,2.77-3.87Zm-5.71,2.03v.02c0,.56.31,1.06.79,1.06s.77-.49.77-1.03v-.02c0-.56-.31-1.06-.79-1.06-.5,0-.77.48-.77,1.03Zm3.9,4.34v-.02c0-1.19.83-2.15,2.05-2.15s2.03.95,2.03,2.12v.02c0,1.17-.83,2.15-2.05,2.15s-2.03-.95-2.03-2.12Zm2.82,0v-.02c0-.56-.31-1.06-.79-1.06-.5,0-.77.48-.77,1.03v.02c0,.56.31,1.06.79,1.06s.77-.49.77-1.03Z"/>
        </g>
        <g>
          <path class="cls-3" d="m5.48,432.45h3.9c.96,0,1.71.26,2.19.74.38.38.58.85.58,1.43v.02c0,.95-.5,1.47-1.1,1.81.97.37,1.57.94,1.57,2.06v.02c0,1.54-1.25,2.3-3.14,2.3h-3.99v-8.4Zm4.83,2.48c0-.55-.43-.86-1.21-.86h-1.82v1.78h1.7c.82,0,1.33-.26,1.33-.89v-.02Zm-.9,2.45h-2.13v1.85h2.19c.82,0,1.31-.29,1.31-.91v-.02c0-.56-.42-.91-1.37-.91Z"/>
          <path class="cls-3" d="m13.72,439.39l2.79-2.29c1.04-.86,1.45-1.32,1.45-2.01s-.47-1.09-1.13-1.09-1.09.36-1.71,1.13l-1.3-1.04c.83-1.13,1.63-1.74,3.13-1.74,1.74,0,2.89,1.02,2.89,2.59v.02c0,1.4-.72,2.1-2.21,3.25l-1.37,1.06h3.66v1.59h-6.21v-1.46Z"/>
          <path class="cls-3" d="m22.89,434.95l-1.16.89-.5-.86,1.34-.56-1.34-.56.5-.86,1.16.89-.19-1.44h.98l-.19,1.44,1.16-.89.5.86-1.34.56,1.34.56-.5.86-1.16-.89.19,1.44h-.98l.19-1.44Z"/>
          <path class="cls-3" d="m26.57,434.42h1.94v1.92h-1.94v-1.92Zm0,4.51h1.94v1.92h-1.94v-1.92Z"/>
          <path class="cls-3" d="m33.51,439.39l2.79-2.29c1.04-.86,1.45-1.32,1.45-2.01s-.47-1.09-1.13-1.09-1.09.36-1.71,1.13l-1.3-1.04c.83-1.13,1.63-1.74,3.13-1.74,1.74,0,2.89,1.02,2.89,2.59v.02c0,1.4-.72,2.1-2.21,3.25l-1.37,1.06h3.66v1.59h-6.21v-1.46Z"/>
          <path class="cls-3" d="m42.53,434.27l-1.46.36-.38-1.51,2.41-.72h1.26v8.46h-1.82v-6.58Z"/>
          <path class="cls-3" d="m46,434.53v-.02c0-1.19.83-2.15,2.05-2.15s2.03.95,2.03,2.12v.02c0,1.18-.83,2.15-2.05,2.15s-2.03-.95-2.03-2.12Zm6.97-2.08h1.43l-3.36,4.52-2.77,3.87h-1.43l3.36-4.52,2.77-3.87Zm-5.71,2.03v.02c0,.56.31,1.06.79,1.06s.77-.49.77-1.03v-.02c0-.56-.31-1.06-.79-1.06-.5,0-.77.48-.77,1.03Zm3.9,4.34v-.02c0-1.19.83-2.15,2.05-2.15s2.03.95,2.03,2.12v.02c0,1.17-.83,2.15-2.05,2.15s-2.03-.95-2.03-2.12Zm2.82,0v-.02c0-.56-.31-1.06-.79-1.06-.5,0-.77.48-.77,1.03v.02c0,.56.31,1.06.79,1.06s.77-.49.77-1.03Z"/>
        </g>
      </g>
      <g id="initial_diagnosis_title">
        <path class="cls-10" d="m15.05,155.84h.96v8.56h-.96v-8.56Z"/>
        <path class="cls-10" d="m18.36,158.07h.94v1.1c.42-.68,1.08-1.23,2.16-1.23,1.53,0,2.42,1.03,2.42,2.53v3.92h-.94v-3.69c0-1.17-.64-1.91-1.75-1.91s-1.89.79-1.89,1.98v3.62h-.94v-6.32Z"/>
        <path class="cls-10" d="m25.92,155.65h1.08v1.04h-1.08v-1.04Zm.06,2.42h.94v6.32h-.94v-6.32Z"/>
        <path class="cls-10" d="m29.44,162.72v-3.81h-.88v-.83h.88v-1.91h.94v1.91h2v.83h-2v3.69c0,.77.43,1.05,1.06,1.05.32,0,.59-.06.92-.22v.81c-.33.17-.68.27-1.14.27-1.01,0-1.79-.5-1.79-1.78Z"/>
        <path class="cls-10" d="m34.07,155.65h1.08v1.04h-1.08v-1.04Zm.06,2.42h.94v6.32h-.94v-6.32Z"/>
        <path class="cls-10" d="m36.78,162.56v-.02c0-1.33,1.1-2.04,2.7-2.04.81,0,1.38.11,1.94.27v-.22c0-1.14-.7-1.72-1.88-1.72-.75,0-1.33.2-1.92.46l-.28-.77c.7-.32,1.38-.53,2.3-.53s1.58.23,2.04.7c.43.43.65,1.04.65,1.85v3.86h-.9v-.95c-.44.57-1.17,1.09-2.29,1.09-1.17,0-2.36-.67-2.36-1.97Zm4.66-.49v-.61c-.46-.13-1.09-.27-1.86-.27-1.19,0-1.85.51-1.85,1.31v.02c0,.79.73,1.26,1.59,1.26,1.16,0,2.12-.71,2.12-1.71Z"/>
        <path class="cls-10" d="m44.42,155.47h.94v8.92h-.94v-8.92Z"/>
        <path class="cls-10" d="m2.15,174.83v-.02c0-2.07,1.5-3.29,3.02-3.29,1.17,0,1.93.64,2.42,1.34v-3.81h.94v8.92h-.94v-1.27c-.51.76-1.26,1.41-2.42,1.41-1.52,0-3.02-1.2-3.02-3.28Zm5.48-.01v-.02c0-1.45-1.11-2.43-2.29-2.43s-2.22.9-2.22,2.43v.02c0,1.49,1.03,2.44,2.22,2.44s2.29-.99,2.29-2.44Z"/>
        <path class="cls-10" d="m10.65,169.23h1.08v1.04h-1.08v-1.04Zm.06,2.42h.94v6.32h-.94v-6.32Z"/>
        <path class="cls-10" d="m13.37,176.14v-.02c0-1.33,1.1-2.04,2.7-2.04.81,0,1.38.11,1.94.27v-.22c0-1.14-.7-1.72-1.88-1.72-.75,0-1.33.2-1.92.46l-.28-.77c.7-.32,1.38-.53,2.3-.53s1.58.23,2.04.7c.43.43.65,1.04.65,1.85v3.86h-.9v-.95c-.44.57-1.17,1.09-2.29,1.09-1.17,0-2.36-.67-2.36-1.97Zm4.66-.49v-.61c-.46-.13-1.09-.27-1.86-.27-1.19,0-1.85.51-1.85,1.31v.02c0,.79.73,1.26,1.59,1.26,1.16,0,2.12-.71,2.12-1.71Z"/>
        <path class="cls-10" d="m20.85,179.07l.43-.73c.72.53,1.53.81,2.43.81,1.39,0,2.3-.77,2.3-2.25v-.75c-.55.73-1.32,1.33-2.48,1.33-1.52,0-2.97-1.14-2.97-2.96v-.02c0-1.85,1.47-2.98,2.97-2.98,1.19,0,1.96.59,2.47,1.27v-1.14h.94v5.22c0,.98-.29,1.72-.81,2.24-.56.56-1.41.84-2.41.84s-2.03-.29-2.87-.88Zm5.18-4.56v-.02c0-1.29-1.12-2.14-2.32-2.14s-2.19.83-2.19,2.13v.02c0,1.27,1.01,2.15,2.19,2.15s2.32-.87,2.32-2.14Z"/>
        <path class="cls-10" d="m29.03,171.65h.94v1.1c.42-.68,1.08-1.23,2.16-1.23,1.53,0,2.42,1.03,2.42,2.53v3.92h-.94v-3.69c0-1.17-.64-1.91-1.75-1.91s-1.89.79-1.89,1.98v3.62h-.94v-6.32Z"/>
        <path class="cls-10" d="m36.17,174.84v-.02c0-1.78,1.39-3.3,3.3-3.3s3.29,1.49,3.29,3.28v.02c0,1.78-1.41,3.3-3.31,3.3s-3.28-1.49-3.28-3.28Zm5.62,0v-.02c0-1.36-1.01-2.47-2.35-2.47s-2.31,1.11-2.31,2.44v.02c0,1.36,1,2.46,2.33,2.46s2.32-1.1,2.32-2.43Z"/>
        <path class="cls-10" d="m43.93,177.16l.48-.67c.68.51,1.44.81,2.19.81s1.31-.39,1.31-1v-.02c0-.64-.75-.88-1.58-1.11-.99-.28-2.09-.62-2.09-1.79v-.02c0-1.09.9-1.81,2.15-1.81.77,0,1.62.27,2.27.7l-.43.71c-.59-.38-1.26-.61-1.87-.61-.75,0-1.22.39-1.22.92v.02c0,.6.78.83,1.63,1.09.98.29,2.03.67,2.03,1.81v.02c0,1.2-.99,1.89-2.25,1.89-.91,0-1.91-.35-2.62-.93Z"/>
        <path class="cls-10" d="m50.56,169.23h1.08v1.04h-1.08v-1.04Zm.06,2.42h.94v6.32h-.94v-6.32Z"/>
        <path class="cls-10" d="m53.23,177.16l.48-.67c.68.51,1.44.81,2.19.81s1.31-.39,1.31-1v-.02c0-.64-.75-.88-1.58-1.11-.99-.28-2.09-.62-2.09-1.79v-.02c0-1.09.9-1.81,2.15-1.81.77,0,1.62.27,2.27.7l-.43.71c-.59-.38-1.26-.61-1.87-.61-.75,0-1.22.39-1.22.92v.02c0,.6.78.83,1.63,1.09.98.29,2.03.67,2.03,1.81v.02c0,1.2-.99,1.89-2.25,1.89-.91,0-1.91-.35-2.62-.93Z"/>
      </g>
      <g id="graph_button" class="graph--btn">
        <g id="active_btn" class="active-btn">
          <rect class="cls-1" x="69.13" y="110.42" width="201.85" height="33" rx="16.5" ry="16.5"/>
          <rect class="cls-5" x="70.63" y="111.92" width="198.85" height="30" rx="15" ry="15"/>
          <g>
            <path class="cls-7" d="m82.56,127.21v-.02c0-2.38,1.77-4.34,4.25-4.34,1.52,0,2.44.54,3.27,1.33l-.65.7c-.71-.67-1.5-1.15-2.64-1.15-1.86,0-3.25,1.51-3.25,3.44v.02c0,1.94,1.4,3.47,3.25,3.47,1.15,0,1.91-.44,2.71-1.21l.62.61c-.88.89-1.83,1.47-3.36,1.47-2.42,0-4.21-1.91-4.21-4.32Z"/>
            <path class="cls-7" d="m91.68,122.63h.92v3.63c.41-.67,1.06-1.21,2.12-1.21,1.5,0,2.38,1.01,2.38,2.48v3.85h-.92v-3.62c0-1.15-.62-1.87-1.71-1.87s-1.86.78-1.86,1.94v3.55h-.92v-8.75Z"/>
            <path class="cls-7" d="m98.6,129.58v-.02c0-1.31,1.08-2,2.65-2,.79,0,1.35.11,1.91.26v-.22c0-1.12-.68-1.69-1.85-1.69-.73,0-1.31.19-1.88.46l-.28-.75c.68-.31,1.36-.52,2.25-.52s1.55.23,2,.68c.42.42.64,1.02.64,1.81v3.79h-.89v-.94c-.43.56-1.15,1.07-2.24,1.07-1.15,0-2.31-.66-2.31-1.93Zm4.57-.48v-.6c-.46-.13-1.07-.26-1.82-.26-1.16,0-1.81.5-1.81,1.28v.02c0,.78.72,1.24,1.56,1.24,1.14,0,2.08-.7,2.08-1.68Z"/>
            <path class="cls-7" d="m106.02,125.18h.92v1.08c.41-.67,1.06-1.21,2.12-1.21,1.5,0,2.38,1.01,2.38,2.48v3.85h-.92v-3.62c0-1.15-.62-1.87-1.71-1.87s-1.86.78-1.86,1.94v3.55h-.92v-6.2Z"/>
            <path class="cls-7" d="m113.34,132.46l.42-.72c.71.52,1.5.79,2.39.79,1.37,0,2.25-.76,2.25-2.21v-.73c-.54.72-1.29,1.31-2.43,1.31-1.49,0-2.91-1.12-2.91-2.9v-.02c0-1.81,1.44-2.93,2.91-2.93,1.16,0,1.92.58,2.42,1.25v-1.12h.92v5.12c0,.96-.29,1.69-.79,2.19-.55.55-1.38.83-2.36.83s-1.99-.29-2.82-.86Zm5.08-4.47v-.02c0-1.27-1.1-2.1-2.28-2.1s-2.15.82-2.15,2.09v.02c0,1.25,1,2.11,2.15,2.11s2.28-.85,2.28-2.1Z"/>
            <path class="cls-7" d="m120.99,128.3v-.02c0-1.79,1.26-3.23,2.97-3.23,1.83,0,2.89,1.46,2.89,3.27,0,.12,0,.19-.01.3h-4.92c.13,1.34,1.08,2.1,2.18,2.1.85,0,1.45-.35,1.95-.88l.58.52c-.62.7-1.38,1.16-2.55,1.16-1.7,0-3.09-1.31-3.09-3.23Zm4.93-.36c-.1-1.13-.74-2.11-1.98-2.11-1.08,0-1.9.9-2.02,2.11h3.99Z"/>
            <path class="cls-7" d="m127.96,130.59l.47-.66c.67.5,1.42.79,2.15.79s1.28-.38,1.28-.98v-.02c0-.62-.73-.86-1.55-1.09-.97-.28-2.05-.61-2.05-1.75v-.02c0-1.07.89-1.78,2.11-1.78.76,0,1.6.26,2.23.68l-.42.7c-.58-.37-1.24-.6-1.83-.6-.73,0-1.2.38-1.2.9v.02c0,.59.77.82,1.6,1.07.96.29,1.99.66,1.99,1.78v.02c0,1.18-.97,1.86-2.21,1.86-.89,0-1.87-.35-2.57-.91Z"/>
            <path class="cls-7" d="m138.08,122.81h1.06v1.02h-1.06v-1.02Zm.06,2.38h.92v6.2h-.92v-6.2Z"/>
            <path class="cls-7" d="m141.21,125.18h.92v1.08c.41-.67,1.06-1.21,2.12-1.21,1.5,0,2.38,1.01,2.38,2.48v3.85h-.92v-3.62c0-1.15-.62-1.87-1.71-1.87s-1.86.78-1.86,1.94v3.55h-.92v-6.2Z"/>
            <path class="cls-7" d="m151.84,128.3v-.02c0-2.03,1.48-3.23,2.96-3.23,1.15,0,1.9.62,2.38,1.32v-3.74h.92v8.75h-.92v-1.25c-.5.74-1.24,1.38-2.38,1.38-1.49,0-2.96-1.17-2.96-3.21Zm5.37-.01v-.02c0-1.43-1.09-2.39-2.24-2.39s-2.18.89-2.18,2.39v.02c0,1.46,1.01,2.4,2.18,2.4s2.24-.97,2.24-2.4Z"/>
            <path class="cls-7" d="m160.2,122.81h1.06v1.02h-1.06v-1.02Zm.06,2.38h.92v6.2h-.92v-6.2Z"/>
            <path class="cls-7" d="m162.81,130.59l.47-.66c.67.5,1.42.79,2.15.79s1.28-.38,1.28-.98v-.02c0-.62-.73-.86-1.55-1.09-.97-.28-2.05-.61-2.05-1.75v-.02c0-1.07.89-1.78,2.11-1.78.76,0,1.6.26,2.23.68l-.42.7c-.58-.37-1.24-.6-1.83-.6-.73,0-1.2.38-1.2.9v.02c0,.59.77.82,1.6,1.07.96.29,1.99.66,1.99,1.78v.02c0,1.18-.97,1.86-2.21,1.86-.89,0-1.87-.35-2.57-.91Z"/>
            <path class="cls-7" d="m168.92,128.3v-.02c0-1.79,1.26-3.23,2.97-3.23,1.83,0,2.89,1.46,2.89,3.27,0,.12,0,.19-.01.3h-4.92c.13,1.34,1.08,2.1,2.18,2.1.85,0,1.45-.35,1.96-.88l.58.52c-.62.7-1.38,1.16-2.55,1.16-1.7,0-3.09-1.31-3.09-3.23Zm4.93-.36c-.1-1.13-.74-2.11-1.98-2.11-1.08,0-1.9.9-2.02,2.11h3.99Z"/>
            <path class="cls-7" d="m175.94,129.58v-.02c0-1.31,1.08-2,2.65-2,.79,0,1.36.11,1.91.26v-.22c0-1.12-.68-1.69-1.85-1.69-.73,0-1.31.19-1.88.46l-.28-.75c.68-.31,1.36-.52,2.25-.52s1.55.23,2,.68c.42.42.64,1.02.64,1.81v3.79h-.89v-.94c-.43.56-1.15,1.07-2.24,1.07-1.15,0-2.31-.66-2.31-1.93Zm4.57-.48v-.6c-.46-.13-1.07-.26-1.82-.26-1.16,0-1.81.5-1.81,1.28v.02c0,.78.72,1.24,1.56,1.24,1.14,0,2.07-.7,2.07-1.68Z"/>
            <path class="cls-7" d="m182.84,130.59l.47-.66c.67.5,1.42.79,2.15.79s1.28-.38,1.28-.98v-.02c0-.62-.73-.86-1.55-1.09-.97-.28-2.05-.61-2.05-1.75v-.02c0-1.07.89-1.78,2.11-1.78.75,0,1.59.26,2.23.68l-.42.7c-.58-.37-1.24-.6-1.83-.6-.73,0-1.2.38-1.2.9v.02c0,.59.77.82,1.59,1.07.96.29,1.99.66,1.99,1.78v.02c0,1.18-.97,1.86-2.21,1.86-.89,0-1.87-.35-2.57-.91Z"/>
            <path class="cls-7" d="m188.95,128.3v-.02c0-1.79,1.26-3.23,2.97-3.23,1.83,0,2.89,1.46,2.89,3.27,0,.12,0,.19-.01.3h-4.92c.13,1.34,1.08,2.1,2.18,2.1.85,0,1.45-.35,1.96-.88l.58.52c-.62.7-1.38,1.16-2.55,1.16-1.7,0-3.09-1.31-3.09-3.23Zm4.93-.36c-.1-1.13-.74-2.11-1.98-2.11-1.08,0-1.89.9-2.01,2.11h3.99Z"/>
            <path class="cls-7" d="m200.96,130.19v1.19h-.92v-8.75h.92v3.8c.5-.74,1.24-1.38,2.38-1.38,1.49,0,2.96,1.17,2.96,3.21v.02c0,2.03-1.46,3.23-2.96,3.23-1.15,0-1.9-.62-2.38-1.32Zm4.39-1.89v-.02c0-1.46-1.01-2.4-2.18-2.4s-2.24.97-2.24,2.39v.02c0,1.44,1.09,2.4,2.24,2.4s2.18-.89,2.18-2.39Z"/>
            <path class="cls-7" d="m207.62,128.3v-.02c0-1.79,1.26-3.23,2.97-3.23,1.83,0,2.89,1.46,2.89,3.27,0,.12,0,.19-.01.3h-4.92c.13,1.34,1.08,2.1,2.18,2.1.85,0,1.45-.35,1.96-.88l.58.52c-.62.7-1.38,1.16-2.55,1.16-1.7,0-3.09-1.31-3.09-3.23Zm4.93-.36c-.1-1.13-.74-2.11-1.98-2.11-1.08,0-1.89.9-2.01,2.11h3.99Z"/>
            <path class="cls-7" d="m215.11,122.63h.92v3.63c.41-.67,1.06-1.21,2.12-1.21,1.5,0,2.37,1.01,2.37,2.48v3.85h-.92v-3.62c0-1.15-.62-1.87-1.72-1.87s-1.86.78-1.86,1.94v3.55h-.92v-8.75Z"/>
            <path class="cls-7" d="m222.03,129.58v-.02c0-1.31,1.08-2,2.65-2,.79,0,1.36.11,1.91.26v-.22c0-1.12-.68-1.69-1.85-1.69-.73,0-1.31.19-1.88.46l-.28-.75c.68-.31,1.36-.52,2.25-.52s1.55.23,2,.68c.42.42.64,1.02.64,1.81v3.79h-.89v-.94c-.43.56-1.15,1.07-2.24,1.07-1.15,0-2.32-.66-2.32-1.93Zm4.57-.48v-.6c-.46-.13-1.07-.26-1.82-.26-1.16,0-1.81.5-1.81,1.28v.02c0,.78.72,1.24,1.56,1.24,1.14,0,2.07-.7,2.07-1.68Z"/>
            <path class="cls-7" d="m228.6,125.18h1.02l2.09,5.14,2.1-5.14h1l-2.7,6.25h-.82l-2.69-6.25Z"/>
            <path class="cls-7" d="m236.27,122.81h1.06v1.02h-1.06v-1.02Zm.06,2.38h.92v6.2h-.92v-6.2Z"/>
            <path class="cls-7" d="m239.02,128.31v-.02c0-1.75,1.37-3.24,3.24-3.24s3.23,1.46,3.23,3.21v.02c0,1.75-1.38,3.24-3.25,3.24s-3.21-1.46-3.21-3.21Zm5.52,0v-.02c0-1.33-1-2.42-2.3-2.42s-2.27,1.09-2.27,2.4v.02c0,1.33.98,2.41,2.29,2.41s2.28-1.08,2.28-2.39Z"/>
            <path class="cls-7" d="m247.06,129.03v-3.85h.92v3.62c0,1.15.62,1.87,1.71,1.87s1.86-.78,1.86-1.94v-3.55h.91v6.2h-.91v-1.08c-.42.67-1.05,1.21-2.12,1.21-1.5,0-2.38-1.01-2.38-2.48Z"/>
            <path class="cls-7" d="m254.55,125.18h.92v1.62c.46-1.03,1.36-1.78,2.53-1.73v1h-.07c-1.35,0-2.46.97-2.46,2.84v2.47h-.92v-6.2Z"/>
          </g>
        </g>
        <g id="inactive_btn" class="inactive-btn">
          <rect class="cls-9" x="69.13" y="110.42" width="201.85" height="33" rx="16.5" ry="16.5"/>
          <rect class="cls-14" x="70.63" y="111.92" width="198.85" height="30" rx="15" ry="15"/>
          <g>
            <path class="cls-4" d="m80.22,127.21v-.02c0-2.39,1.8-4.34,4.38-4.34,1.58,0,2.53.53,3.31,1.29l-1.17,1.36c-.65-.59-1.31-.95-2.15-.95-1.42,0-2.44,1.17-2.44,2.61v.02c0,1.44,1,2.64,2.44,2.64.96,0,1.55-.38,2.21-.98l1.18,1.19c-.86.92-1.82,1.5-3.44,1.5-2.47,0-4.31-1.91-4.31-4.32Z"/>
            <path class="cls-4" d="m89.25,122.63h1.82v3.24c.42-.54.96-1.03,1.88-1.03,1.38,0,2.18.91,2.18,2.39v4.16h-1.82v-3.59c0-.86-.41-1.31-1.1-1.31s-1.14.44-1.14,1.31v3.59h-1.82v-8.75Z"/>
            <path class="cls-4" d="m96.35,129.54v-.02c0-1.4,1.07-2.05,2.59-2.05.65,0,1.12.11,1.57.26v-.11c0-.76-.47-1.18-1.38-1.18-.7,0-1.19.13-1.78.35l-.46-1.39c.71-.31,1.4-.52,2.49-.52,1,0,1.72.26,2.17.72.48.48.7,1.19.7,2.05v3.73h-1.76v-.7c-.44.49-1.06.82-1.94.82-1.21,0-2.21-.7-2.21-1.97Zm4.19-.42v-.32c-.31-.14-.72-.24-1.16-.24-.78,0-1.26.31-1.26.89v.02c0,.49.41.78,1,.78.85,0,1.43-.47,1.43-1.13Z"/>
            <path class="cls-4" d="m103.83,124.95h1.82v.91c.42-.54.96-1.03,1.88-1.03,1.38,0,2.18.91,2.18,2.39v4.16h-1.82v-3.59c0-.86-.41-1.31-1.1-1.31s-1.14.44-1.14,1.31v3.59h-1.82v-6.43Z"/>
            <path class="cls-4" d="m111.35,132.65l.62-1.37c.66.37,1.32.59,2.17.59,1.25,0,1.83-.6,1.83-1.75v-.31c-.54.65-1.13,1.04-2.1,1.04-1.5,0-2.85-1.09-2.85-3v-.02c0-1.92,1.38-3,2.85-3,1,0,1.58.42,2.08.96v-.84h1.82v4.98c0,1.15-.28,1.99-.82,2.53-.6.6-1.52.86-2.77.86-1.04,0-2.03-.24-2.84-.67Zm4.63-4.8v-.02c0-.88-.68-1.49-1.57-1.49s-1.56.61-1.56,1.49v.02c0,.89.67,1.49,1.56,1.49s1.57-.61,1.57-1.49Z"/>
            <path class="cls-4" d="m119.1,128.2v-.02c0-1.83,1.31-3.35,3.18-3.35,2.15,0,3.13,1.67,3.13,3.49,0,.14-.01.31-.02.48h-4.47c.18.83.76,1.26,1.57,1.26.61,0,1.06-.19,1.56-.66l1.04.92c-.6.74-1.46,1.2-2.63,1.2-1.93,0-3.36-1.35-3.36-3.32Zm4.53-.54c-.11-.82-.59-1.37-1.36-1.37s-1.25.54-1.39,1.37h2.75Z"/>
            <path class="cls-4" d="m126.26,130.53l.78-1.2c.7.5,1.43.77,2.03.77.53,0,.77-.19.77-.48v-.02c0-.4-.62-.53-1.33-.74-.9-.26-1.92-.68-1.92-1.93v-.02c0-1.31,1.06-2.04,2.35-2.04.82,0,1.7.28,2.4.74l-.7,1.26c-.64-.37-1.27-.6-1.74-.6-.44,0-.67.19-.67.44v.02c0,.36.61.53,1.31.77.9.3,1.94.73,1.94,1.91v.02c0,1.43-1.07,2.08-2.46,2.08-.9,0-1.91-.3-2.76-.97Z"/>
            <path class="cls-4" d="m136.42,122.63h1.92v1.62h-1.92v-1.62Zm.05,2.33h1.82v6.43h-1.82v-6.43Z"/>
            <path class="cls-4" d="m140.01,124.95h1.82v.91c.42-.54.96-1.03,1.88-1.03,1.38,0,2.18.91,2.18,2.39v4.16h-1.82v-3.59c0-.86-.41-1.31-1.1-1.31s-1.14.44-1.14,1.31v3.59h-1.82v-6.43Z"/>
            <path class="cls-4" d="m150.8,128.18v-.02c0-2.15,1.4-3.32,2.93-3.32.97,0,1.57.44,2,.96v-3.17h1.82v8.75h-1.82v-.92c-.44.6-1.06,1.04-2,1.04-1.5,0-2.93-1.18-2.93-3.32Zm4.95,0v-.02c0-1.07-.71-1.77-1.56-1.77s-1.57.7-1.57,1.77v.02c0,1.07.72,1.78,1.57,1.78s1.56-.71,1.56-1.78Z"/>
            <path class="cls-4" d="m159.22,122.63h1.92v1.62h-1.92v-1.62Zm.05,2.33h1.82v6.43h-1.82v-6.43Z"/>
            <path class="cls-4" d="m162.31,130.53l.78-1.2c.7.5,1.43.77,2.03.77.53,0,.77-.19.77-.48v-.02c0-.4-.62-.53-1.33-.74-.9-.26-1.92-.68-1.92-1.93v-.02c0-1.31,1.06-2.04,2.35-2.04.82,0,1.7.28,2.4.74l-.7,1.26c-.64-.37-1.27-.6-1.74-.6-.44,0-.67.19-.67.44v.02c0,.36.61.53,1.31.77.9.3,1.94.73,1.94,1.91v.02c0,1.43-1.07,2.08-2.46,2.08-.9,0-1.91-.3-2.76-.97Z"/>
            <path class="cls-4" d="m168.52,128.2v-.02c0-1.83,1.31-3.35,3.18-3.35,2.15,0,3.13,1.67,3.13,3.49,0,.14-.01.31-.02.48h-4.47c.18.83.75,1.26,1.57,1.26.61,0,1.06-.19,1.56-.66l1.04.92c-.6.74-1.46,1.2-2.63,1.2-1.93,0-3.36-1.35-3.36-3.32Zm4.53-.54c-.11-.82-.59-1.37-1.35-1.37s-1.25.54-1.39,1.37h2.75Z"/>
            <path class="cls-4" d="m175.81,129.54v-.02c0-1.4,1.07-2.05,2.59-2.05.65,0,1.12.11,1.57.26v-.11c0-.76-.47-1.18-1.38-1.18-.7,0-1.19.13-1.77.35l-.46-1.39c.71-.31,1.4-.52,2.5-.52,1,0,1.71.26,2.17.72.48.48.7,1.19.7,2.05v3.73h-1.76v-.7c-.44.49-1.05.82-1.94.82-1.21,0-2.21-.7-2.21-1.97Zm4.19-.42v-.32c-.31-.14-.72-.24-1.16-.24-.78,0-1.26.31-1.26.89v.02c0,.49.41.78,1,.78.85,0,1.43-.47,1.43-1.13Z"/>
            <path class="cls-4" d="m182.79,130.53l.78-1.2c.7.5,1.43.77,2.03.77.53,0,.77-.19.77-.48v-.02c0-.4-.62-.53-1.33-.74-.9-.26-1.92-.68-1.92-1.93v-.02c0-1.31,1.06-2.04,2.35-2.04.82,0,1.7.28,2.4.74l-.7,1.26c-.64-.37-1.27-.6-1.74-.6-.44,0-.67.19-.67.44v.02c0,.36.61.53,1.31.77.9.3,1.94.73,1.94,1.91v.02c0,1.43-1.07,2.08-2.46,2.08-.9,0-1.91-.3-2.76-.97Z"/>
            <path class="cls-4" d="m189.01,128.2v-.02c0-1.83,1.31-3.35,3.18-3.35,2.15,0,3.13,1.67,3.13,3.49,0,.14-.01.31-.02.48h-4.47c.18.83.76,1.26,1.57,1.26.61,0,1.06-.19,1.56-.66l1.04.92c-.6.74-1.46,1.2-2.63,1.2-1.93,0-3.36-1.35-3.36-3.32Zm4.53-.54c-.11-.82-.59-1.37-1.36-1.37s-1.25.54-1.39,1.37h2.75Z"/>
            <path class="cls-4" d="m202.1,130.54v.84h-1.82v-8.75h1.82v3.25c.44-.6,1.06-1.04,2-1.04,1.5,0,2.93,1.18,2.93,3.32v.02c0,2.15-1.4,3.32-2.93,3.32-.97,0-1.57-.44-2-.96Zm3.11-2.36v-.02c0-1.07-.72-1.77-1.57-1.77s-1.56.71-1.56,1.77v.02c0,1.07.71,1.78,1.56,1.78s1.57-.7,1.57-1.78Z"/>
            <path class="cls-4" d="m208.06,128.2v-.02c0-1.83,1.31-3.35,3.18-3.35,2.15,0,3.13,1.67,3.13,3.49,0,.14-.01.31-.02.48h-4.47c.18.83.76,1.26,1.57,1.26.61,0,1.06-.19,1.56-.66l1.04.92c-.6.74-1.46,1.2-2.63,1.2-1.93,0-3.36-1.35-3.36-3.32Zm4.53-.54c-.11-.82-.59-1.37-1.36-1.37s-1.25.54-1.39,1.37h2.75Z"/>
            <path class="cls-4" d="m215.73,122.63h1.82v3.24c.42-.54.96-1.03,1.88-1.03,1.38,0,2.18.91,2.18,2.39v4.16h-1.82v-3.59c0-.86-.41-1.31-1.1-1.31s-1.14.44-1.14,1.31v3.59h-1.82v-8.75Z"/>
            <path class="cls-4" d="m222.82,129.54v-.02c0-1.4,1.07-2.05,2.59-2.05.65,0,1.12.11,1.57.26v-.11c0-.76-.47-1.18-1.38-1.18-.7,0-1.19.13-1.77.35l-.46-1.39c.71-.31,1.4-.52,2.5-.52,1,0,1.71.26,2.17.72.48.48.7,1.19.7,2.05v3.73h-1.76v-.7c-.44.49-1.05.82-1.94.82-1.21,0-2.21-.7-2.21-1.97Zm4.19-.42v-.32c-.31-.14-.72-.24-1.16-.24-.78,0-1.26.31-1.26.89v.02c0,.49.41.78,1,.78.85,0,1.43-.47,1.43-1.13Z"/>
            <path class="cls-4" d="m229.5,124.95h1.93l1.44,4.31,1.45-4.31h1.89l-2.53,6.48h-1.66l-2.53-6.48Z"/>
            <path class="cls-4" d="m237.31,122.63h1.92v1.62h-1.92v-1.62Zm.05,2.33h1.82v6.43h-1.82v-6.43Z"/>
            <path class="cls-4" d="m240.58,128.2v-.02c0-1.85,1.49-3.35,3.49-3.35s3.47,1.48,3.47,3.32v.02c0,1.85-1.49,3.35-3.49,3.35s-3.47-1.47-3.47-3.32Zm5.16,0v-.02c0-.95-.68-1.78-1.69-1.78s-1.67.8-1.67,1.75v.02c0,.95.68,1.78,1.69,1.78s1.67-.8,1.67-1.75Z"/>
            <path class="cls-4" d="m248.81,129.12v-4.16h1.82v3.59c0,.86.41,1.31,1.1,1.31s1.14-.44,1.14-1.31v-3.59h1.82v6.43h-1.82v-.91c-.42.54-.96,1.03-1.88,1.03-1.38,0-2.18-.91-2.18-2.39Z"/>
            <path class="cls-4" d="m256.34,124.95h1.82v1.3c.37-.89.97-1.46,2.05-1.42v1.91h-.1c-1.21,0-1.96.73-1.96,2.27v2.38h-1.82v-6.43Z"/>
          </g>
        </g>
      </g>
      <g id="study_text">
        <path class="cls-10" d="m0,.41h7.13v1.85H2.07v1.92h4.46v1.85H2.07v1.99h5.13v1.85H0V.41Z"/>
        <path class="cls-10" d="m8.83,2.62h2.05v1.04c.5-.67,1.19-1.17,2.25-1.17,1.69,0,3.3,1.32,3.3,3.74v.03c0,2.42-1.58,3.74-3.3,3.74-1.09,0-1.77-.5-2.25-1.08v3.11h-2.05V2.62Zm5.55,3.63v-.03c0-1.2-.81-2-1.77-2s-1.75.8-1.75,2v.03c0,1.2.8,2,1.75,2s1.77-.78,1.77-2Z"/>
        <path class="cls-10" d="m17.98,0h2.16v1.82h-2.16V0Zm.05,2.62h2.05v7.24h-2.05V2.62Z"/>
        <path class="cls-10" d="m21.77,4.69h4.16v1.97h-4.16v-1.97Z"/>
        <path class="cls-10" d="m27.84.41h2.08v9.45h-2.08V.41Z"/>
        <path class="cls-10" d="m32.28.41h4.39c1.08,0,1.93.3,2.47.84.43.43.65.96.65,1.61v.03c0,1.07-.57,1.66-1.24,2.04,1.09.42,1.77,1.05,1.77,2.32v.03c0,1.73-1.4,2.59-3.54,2.59h-4.5V.41Zm5.44,2.79c0-.62-.49-.97-1.36-.97h-2.05v2h1.92c.92,0,1.5-.3,1.5-1v-.03Zm-1.01,2.75h-2.4v2.08h2.47c.92,0,1.47-.32,1.47-1.03v-.03c0-.63-.47-1.03-1.54-1.03Z"/>
        <path class="cls-10" d="m42.03.41h3.69c2.97,0,5.02,2.04,5.02,4.7v.03c0,2.66-2.05,4.73-5.02,4.73h-3.69V.41Zm2.08,1.88v5.7h1.61c1.7,0,2.85-1.15,2.85-2.82v-.03c0-1.67-1.15-2.85-2.85-2.85h-1.61Z"/>
        <path class="cls-10" d="m55.85,8.9l.88-1.35c.78.57,1.61.86,2.28.86.59,0,.86-.22.86-.54v-.03c0-.45-.7-.59-1.5-.84-1.01-.3-2.16-.77-2.16-2.17v-.03c0-1.47,1.19-2.3,2.65-2.3.92,0,1.92.31,2.7.84l-.78,1.42c-.72-.42-1.43-.67-1.96-.67s-.76.22-.76.5v.03c0,.41.69.59,1.47.86,1.01.34,2.19.82,2.19,2.15v.03c0,1.61-1.2,2.34-2.77,2.34-1.01,0-2.15-.34-3.11-1.09Z"/>
        <path class="cls-10" d="m63.4,7.8v-3.43h-.86v-1.76h.86V.77h2.05v1.85h1.7v1.76h-1.7v3.09c0,.47.2.7.66.7.38,0,.72-.09,1.01-.26v1.65c-.43.26-.93.42-1.62.42-1.26,0-2.11-.5-2.11-2.17Z"/>
        <path class="cls-10" d="m68.61,7.31V2.62h2.05v4.04c0,.97.46,1.47,1.24,1.47s1.28-.5,1.28-1.47V2.62h2.05v7.24h-2.05v-1.03c-.47.61-1.08,1.16-2.12,1.16-1.55,0-2.46-1.03-2.46-2.69Z"/>
        <path class="cls-10" d="m76.75,6.25v-.03c0-2.42,1.58-3.74,3.3-3.74,1.09,0,1.77.5,2.25,1.08V0h2.05v9.86h-2.05v-1.04c-.5.68-1.19,1.18-2.25,1.18-1.69,0-3.3-1.32-3.3-3.74Zm5.58,0v-.03c0-1.2-.8-2-1.75-2s-1.77.78-1.77,2v.03c0,1.2.81,2,1.77,2s1.75-.8,1.75-2Z"/>
        <path class="cls-10" d="m90.94,2.62h2.13l-2.78,7.41c-.55,1.47-1.15,2.03-2.38,2.03-.74,0-1.3-.19-1.82-.5l.69-1.49c.27.16.61.28.88.28.35,0,.54-.11.71-.47l-2.83-7.27h2.17l1.65,4.93,1.58-4.93Z"/>
        <path class="cls-10" d="m94.27,2.62h2.19v2.16h-2.19v-2.16Zm0,5.08h2.19v2.16h-2.19v-2.16Z"/>
        <path class="cls-10" d="m.23,21.32v-.03c0-1.11.9-2,2.01-2s2.01.89,2.01,2v.03c0,1.11-.9,2-2.01,2s-2.01-.89-2.01-2Z"/>
        <path class="cls-10" d="m18,16.61h1.92l4.43,5.82v-5.82h2.05v9.45h-1.77l-4.58-6.01v6.01h-2.05v-9.45Z"/>
        <path class="cls-10" d="m32.57,18.62h6.67v1.86h-6.67v-1.86Zm0,3.51h6.67v1.86h-6.67v-1.86Z"/>
        <path class="cls-10" d="m49.64,24.02h-4.62l-.34-1.47,5.19-6.01h1.75v5.79h1.27v1.69h-1.27v2.04h-1.98v-2.04Zm0-1.69v-2.94l-2.51,2.94h2.51Z"/>
        <path class="cls-10" d="m54.18,23.46v-.03c0-1.15.53-1.82,1.53-2.28-.73-.45-1.2-1.05-1.2-2.07v-.03c0-1.44,1.32-2.59,3.32-2.59s3.32,1.13,3.32,2.59v.03c0,1.01-.47,1.62-1.2,2.07.96.5,1.53,1.11,1.53,2.23v.03c0,1.76-1.55,2.78-3.65,2.78s-3.65-1.08-3.65-2.73Zm5.28-.16v-.03c0-.73-.69-1.16-1.63-1.16s-1.63.43-1.63,1.16v.03c0,.65.61,1.17,1.63,1.17s1.63-.51,1.63-1.17Zm-.28-3.98v-.03c0-.58-.5-1.11-1.35-1.11s-1.35.51-1.35,1.09v.03c0,.66.53,1.16,1.35,1.16s1.35-.49,1.35-1.15Z"/>
        <path class="cls-10" d="m62.68,23.46v-.03c0-1.15.53-1.82,1.53-2.28-.73-.45-1.2-1.05-1.2-2.07v-.03c0-1.44,1.32-2.59,3.32-2.59s3.32,1.13,3.32,2.59v.03c0,1.01-.47,1.62-1.2,2.07.96.5,1.53,1.11,1.53,2.23v.03c0,1.76-1.55,2.78-3.65,2.78s-3.65-1.08-3.65-2.73Zm5.28-.16v-.03c0-.73-.69-1.16-1.63-1.16s-1.63.43-1.63,1.16v.03c0,.65.61,1.17,1.63,1.17s1.63-.51,1.63-1.17Zm-.28-3.98v-.03c0-.58-.5-1.11-1.35-1.11s-1.35.51-1.35,1.09v.03c0,.66.53,1.16,1.35,1.16s1.35-.49,1.35-1.15Z"/>
        <path class="cls-10" d="m75.79,19.08h1.04v1.4c.57-.84,1.39-1.55,2.67-1.55,1.67,0,3.33,1.32,3.33,3.62v.03c0,2.28-1.65,3.63-3.33,3.63-1.3,0-2.13-.7-2.67-1.49v3.5h-1.04v-9.14Zm5.98,3.51v-.03c0-1.65-1.13-2.7-2.46-2.7s-2.52,1.09-2.52,2.69v.03c0,1.62,1.23,2.7,2.52,2.7s2.46-1,2.46-2.69Z"/>
        <path class="cls-10" d="m84.23,24.03v-.03c0-1.47,1.21-2.25,2.98-2.25.89,0,1.53.12,2.15.3v-.24c0-1.26-.77-1.9-2.08-1.9-.82,0-1.47.22-2.12.51l-.31-.85c.77-.35,1.53-.58,2.54-.58s1.74.26,2.25.77c.47.47.72,1.15.72,2.04v4.27h-1v-1.05c-.49.63-1.3,1.2-2.53,1.2-1.3,0-2.61-.74-2.61-2.17Zm5.14-.54v-.68c-.51-.15-1.2-.3-2.05-.3-1.31,0-2.04.57-2.04,1.45v.03c0,.88.81,1.39,1.75,1.39,1.28,0,2.34-.78,2.34-1.89Z"/>
        <path class="cls-10" d="m92.87,24.21v-4.21h-.97v-.92h.97v-2.11h1.04v2.11h2.21v.92h-2.21v4.08c0,.85.47,1.16,1.17,1.16.35,0,.65-.07,1.01-.24v.89c-.36.19-.76.3-1.26.3-1.12,0-1.97-.55-1.97-1.97Z"/>
        <path class="cls-10" d="m97.99,16.4h1.19v1.15h-1.19v-1.15Zm.07,2.67h1.04v6.98h-1.04v-6.98Z"/>
        <path class="cls-10" d="m101.08,22.59v-.03c0-2.01,1.42-3.63,3.35-3.63,2.07,0,3.25,1.65,3.25,3.69,0,.13,0,.22-.01.34h-5.54c.15,1.51,1.22,2.36,2.46,2.36.96,0,1.63-.39,2.2-.99l.65.58c-.7.78-1.55,1.31-2.88,1.31-1.92,0-3.48-1.47-3.48-3.63Zm5.55-.4c-.11-1.27-.84-2.38-2.23-2.38-1.21,0-2.13,1.01-2.27,2.38h4.5Z"/>
        <path class="cls-10" d="m109.5,19.08h1.04v1.22c.46-.76,1.19-1.36,2.39-1.36,1.69,0,2.67,1.13,2.67,2.79v4.33h-1.04v-4.08c0-1.3-.7-2.11-1.93-2.11s-2.09.88-2.09,2.19v4h-1.04v-6.98Z"/>
        <path class="cls-10" d="m118.18,24.21v-4.21h-.97v-.92h.97v-2.11h1.04v2.11h2.21v.92h-2.21v4.08c0,.85.47,1.16,1.17,1.16.35,0,.65-.07,1.01-.24v.89c-.36.19-.76.3-1.26.3-1.12,0-1.97-.55-1.97-1.97Z"/>
        <path class="cls-10" d="m122.69,25.17l.53-.74c.76.57,1.59.89,2.42.89s1.45-.43,1.45-1.11v-.03c0-.7-.82-.97-1.74-1.23-1.09-.31-2.31-.69-2.31-1.97v-.03c0-1.2,1-2,2.38-2,.85,0,1.8.3,2.51.77l-.47.78c-.65-.42-1.39-.68-2.07-.68-.82,0-1.35.43-1.35,1.01v.03c0,.66.86.92,1.8,1.2,1.08.32,2.24.74,2.24,2v.03c0,1.32-1.09,2.09-2.48,2.09-1,0-2.11-.39-2.89-1.03Z"/>
        <path class="cls-10" d="m133.45,19.08h1.11l1.84,5.6,1.88-5.63h.86l1.89,5.63,1.84-5.6h1.08l-2.46,7.04h-.91l-1.88-5.51-1.89,5.51h-.92l-2.44-7.04Z"/>
        <path class="cls-10" d="m145.69,16.4h1.19v1.15h-1.19v-1.15Zm.07,2.67h1.04v6.98h-1.04v-6.98Z"/>
        <path class="cls-10" d="m149.58,24.21v-4.21h-.97v-.92h.97v-2.11h1.04v2.11h2.21v.92h-2.21v4.08c0,.85.47,1.16,1.17,1.16.35,0,.65-.07,1.01-.24v.89c-.36.19-.76.3-1.26.3-1.12,0-1.97-.55-1.97-1.97Z"/>
        <path class="cls-10" d="m154.67,16.2h1.04v4.09c.46-.76,1.19-1.36,2.39-1.36,1.69,0,2.67,1.13,2.67,2.79v4.33h-1.04v-4.08c0-1.3-.7-2.11-1.93-2.11s-2.09.88-2.09,2.19v4h-1.04v-9.86Z"/>
        <path class="cls-10" d="m166.59,21.36v-.03c0-2.69,2.03-4.89,4.93-4.89,1.78,0,2.85.59,3.73,1.46l-1.32,1.53c-.73-.66-1.47-1.07-2.42-1.07-1.59,0-2.74,1.32-2.74,2.94v.03c0,1.62,1.12,2.97,2.74,2.97,1.08,0,1.74-.43,2.49-1.11l1.32,1.34c-.97,1.04-2.05,1.69-3.88,1.69-2.78,0-4.85-2.15-4.85-4.86Z"/>
        <path class="cls-10" d="m176.97,16.61h3.69c2.97,0,5.02,2.04,5.02,4.7v.03c0,2.66-2.05,4.73-5.02,4.73h-3.69v-9.45Zm2.08,1.88v5.7h1.61c1.7,0,2.85-1.15,2.85-2.82v-.03c0-1.67-1.15-2.85-2.85-2.85h-1.61Z"/>
        <path class="cls-10" d="m.23,37.52v-.03c0-1.11.9-2,2.01-2s2.01.89,2.01,2v.03c0,1.11-.9,2-2.01,2s-2.01-.89-2.01-2Z"/>
        <path class="cls-10" d="m17.53,40.61l3.15-2.58c1.17-.97,1.63-1.49,1.63-2.27s-.53-1.23-1.27-1.23-1.23.41-1.93,1.27l-1.46-1.17c.93-1.27,1.84-1.96,3.52-1.96,1.96,0,3.25,1.15,3.25,2.92v.03c0,1.58-.81,2.36-2.49,3.66l-1.54,1.19h4.12v1.8h-7v-1.65Z"/>
        <path class="cls-10" d="m31.33,38.38c-.49.41-1.11.65-1.92.65-2.05,0-3.38-1.13-3.38-3.05v-.03c0-1.9,1.47-3.31,3.61-3.31,1.27,0,2.01.31,2.73,1.03.67.67,1.12,1.7,1.12,3.57v.03c0,3.07-1.44,5.16-4.13,5.16-1.38,0-2.31-.46-3.11-1.12l1.09-1.58c.69.55,1.27.81,2.07.81,1.43,0,1.84-1.34,1.92-2.15Zm.04-2.48v-.03c0-.84-.62-1.45-1.66-1.45s-1.61.59-1.61,1.43v.03c0,.84.62,1.42,1.65,1.42s1.62-.59,1.62-1.4Z"/>
        <path class="cls-10" d="m39.4,32.8h7.13v1.85h-5.06v1.92h4.46v1.85h-4.46v1.98h5.13v1.85h-7.2v-9.45Z"/>
        <path class="cls-10" d="m48.17,39.71v-4.69h2.05v4.04c0,.97.46,1.47,1.24,1.47s1.28-.5,1.28-1.47v-4.04h2.05v7.24h-2.05v-1.03c-.47.61-1.08,1.16-2.12,1.16-1.55,0-2.46-1.03-2.46-2.69Z"/>
        <path class="cls-10" d="m56.63,35.02h2.05v1.46c.42-1,1.09-1.65,2.31-1.59v2.15h-.11c-1.36,0-2.2.82-2.2,2.55v2.67h-2.05v-7.24Z"/>
        <path class="cls-10" d="m61.72,38.68v-.03c0-2.08,1.67-3.77,3.93-3.77s3.9,1.66,3.9,3.74v.03c0,2.08-1.67,3.77-3.93,3.77s-3.9-1.66-3.9-3.74Zm5.81,0v-.03c0-1.07-.77-2-1.9-2s-1.88.91-1.88,1.97v.03c0,1.07.77,2,1.9,2s1.88-.9,1.88-1.97Z"/>
        <path class="cls-10" d="m71.04,35.02h2.05v1.04c.5-.68,1.19-1.17,2.25-1.17,1.69,0,3.3,1.32,3.3,3.74v.03c0,2.42-1.58,3.74-3.3,3.74-1.09,0-1.77-.5-2.25-1.08v3.11h-2.05v-9.4Zm5.55,3.63v-.03c0-1.2-.81-2-1.77-2s-1.75.8-1.75,2v.03c0,1.2.8,2,1.75,2s1.77-.78,1.77-2Z"/>
        <path class="cls-10" d="m79.8,38.68v-.03c0-2.07,1.47-3.77,3.58-3.77,2.42,0,3.52,1.88,3.52,3.93,0,.16-.01.35-.03.54h-5.04c.2.93.85,1.42,1.77,1.42.69,0,1.19-.22,1.76-.74l1.17,1.04c-.67.84-1.65,1.35-2.96,1.35-2.17,0-3.78-1.53-3.78-3.74Zm5.1-.61c-.12-.92-.66-1.54-1.53-1.54s-1.4.61-1.57,1.54h3.09Z"/>
        <path class="cls-10" d="m88,40.18v-.03c0-1.58,1.2-2.31,2.92-2.31.73,0,1.26.12,1.77.3v-.12c0-.85-.53-1.32-1.55-1.32-.78,0-1.34.15-2,.39l-.51-1.57c.8-.35,1.58-.58,2.81-.58,1.12,0,1.93.3,2.44.81.54.54.78,1.34.78,2.31v4.2h-1.99v-.78c-.5.55-1.19.92-2.19.92-1.36,0-2.48-.78-2.48-2.21Zm4.71-.47v-.36c-.35-.16-.81-.27-1.31-.27-.88,0-1.42.35-1.42,1v.03c0,.55.46.88,1.12.88.96,0,1.61-.53,1.61-1.27Z"/>
        <path class="cls-10" d="m96.42,35.02h2.05v1.03c.47-.61,1.08-1.16,2.12-1.16,1.55,0,2.46,1.03,2.46,2.69v4.69h-2.05v-4.04c0-.97-.46-1.47-1.24-1.47s-1.28.5-1.28,1.47v4.04h-2.05v-7.24Z"/>
        <path class="cls-10" d="m109.39,32.8h1.07v9.45h-1.07v-9.45Z"/>
        <path class="cls-10" d="m113.23,32.8h4.02c1.08,0,1.93.31,2.47.84.39.41.61.91.61,1.51v.03c0,1.23-.76,1.86-1.5,2.19,1.12.34,2.03.99,2.03,2.28v.03c0,1.62-1.36,2.58-3.43,2.58h-4.2v-9.45Zm6.02,2.5c0-.93-.74-1.54-2.09-1.54h-2.88v3.25h2.79c1.28,0,2.17-.58,2.17-1.69v-.03Zm-1.98,2.66h-2.98v3.34h3.17c1.43,0,2.32-.63,2.32-1.69v-.03c0-1.03-.86-1.62-2.51-1.62Z"/>
        <path class="cls-10" d="m122.97,32.8h3.28c2.97,0,5.02,2.04,5.02,4.7v.03c0,2.66-2.05,4.73-5.02,4.73h-3.28v-9.45Zm1.07.99v7.48h2.21c2.39,0,3.92-1.62,3.92-3.71v-.03c0-2.09-1.53-3.74-3.92-3.74h-2.21Z"/>
        <path class="cls-10" d="m136.97,38.8v-.03c0-1.97,1.54-3.65,3.58-3.65,1.32,0,2.15.55,2.8,1.24l-.69.73c-.55-.58-1.17-1.05-2.12-1.05-1.42,0-2.5,1.2-2.5,2.7v.03c0,1.51,1.11,2.71,2.57,2.71.89,0,1.58-.45,2.13-1.04l.66.62c-.7.78-1.54,1.35-2.85,1.35-2.04,0-3.58-1.66-3.58-3.62Z"/>
        <path class="cls-10" d="m144.48,38.79v-.03c0-2.01,1.42-3.63,3.35-3.63,2.07,0,3.25,1.65,3.25,3.69,0,.13,0,.22-.01.34h-5.54c.15,1.51,1.22,2.36,2.46,2.36.96,0,1.63-.39,2.2-.99l.65.58c-.7.78-1.55,1.31-2.88,1.31-1.92,0-3.48-1.47-3.48-3.63Zm5.55-.41c-.11-1.27-.84-2.38-2.23-2.38-1.21,0-2.13,1.01-2.27,2.38h4.5Z"/>
        <path class="cls-10" d="m152.9,35.28h1.04v1.21c.46-.76,1.19-1.36,2.39-1.36,1.69,0,2.67,1.13,2.67,2.8v4.33h-1.04v-4.08c0-1.3-.7-2.11-1.93-2.11s-2.09.88-2.09,2.19v4h-1.04v-6.98Z"/>
        <path class="cls-10" d="m161.58,40.41v-4.21h-.97v-.92h.97v-2.11h1.04v2.11h2.21v.92h-2.21v4.08c0,.85.47,1.16,1.17,1.16.35,0,.65-.07,1.01-.24v.89c-.37.19-.76.3-1.26.3-1.12,0-1.97-.55-1.97-1.97Z"/>
        <path class="cls-10" d="m166.67,35.28h1.04v1.82c.51-1.16,1.53-2,2.85-1.94v1.12h-.08c-1.53,0-2.77,1.09-2.77,3.2v2.78h-1.04v-6.98Z"/>
        <path class="cls-10" d="m171.41,38.79v-.03c0-2.01,1.42-3.63,3.35-3.63,2.07,0,3.25,1.65,3.25,3.69,0,.13,0,.22-.01.34h-5.54c.15,1.51,1.22,2.36,2.46,2.36.96,0,1.63-.39,2.2-.99l.65.58c-.7.78-1.55,1.31-2.88,1.31-1.92,0-3.48-1.47-3.48-3.63Zm5.55-.41c-.11-1.27-.84-2.38-2.23-2.38-1.21,0-2.13,1.01-2.27,2.38h4.5Z"/>
        <path class="cls-10" d="m179.26,41.37l.53-.74c.76.57,1.59.89,2.42.89s1.45-.43,1.45-1.11v-.03c0-.7-.82-.97-1.74-1.23-1.09-.31-2.31-.69-2.31-1.97v-.03c0-1.2,1-2,2.38-2,.85,0,1.8.3,2.51.77l-.47.78c-.65-.42-1.39-.67-2.07-.67-.82,0-1.35.43-1.35,1.01v.03c0,.66.86.92,1.8,1.2,1.08.32,2.24.74,2.24,2v.03c0,1.32-1.09,2.09-2.48,2.09-1,0-2.11-.39-2.89-1.03Z"/>
        <path class="cls-10" d="m190.64,32.6h1.19v1.15h-1.19v-1.15Zm.07,2.67h1.04v6.98h-1.04v-6.98Z"/>
        <path class="cls-10" d="m194.16,35.28h1.04v1.21c.46-.76,1.19-1.36,2.39-1.36,1.69,0,2.67,1.13,2.67,2.8v4.33h-1.04v-4.08c0-1.3-.7-2.11-1.93-2.11s-2.09.88-2.09,2.19v4h-1.04v-6.98Z"/>
        <path class="cls-10" d="m201.52,35.28h1.15l2.35,5.79,2.36-5.79h1.12l-3.04,7.04h-.92l-3.02-7.04Z"/>
        <path class="cls-10" d="m209.29,38.8v-.03c0-1.97,1.54-3.65,3.65-3.65s3.63,1.65,3.63,3.62v.03c0,1.97-1.55,3.65-3.66,3.65s-3.62-1.65-3.62-3.62Zm6.21,0v-.03c0-1.5-1.12-2.73-2.59-2.73s-2.55,1.23-2.55,2.7v.03c0,1.5,1.11,2.71,2.58,2.71s2.57-1.22,2.57-2.69Z"/>
        <path class="cls-10" d="m218.54,32.4h1.04v9.86h-1.04v-9.86Z"/>
        <path class="cls-10" d="m221.31,35.28h1.15l2.35,5.79,2.36-5.79h1.12l-3.04,7.04h-.92l-3.02-7.04Z"/>
        <path class="cls-10" d="m229.08,38.79v-.03c0-2.01,1.42-3.63,3.35-3.63,2.07,0,3.25,1.65,3.25,3.69,0,.13,0,.22-.01.34h-5.54c.15,1.51,1.22,2.36,2.46,2.36.96,0,1.63-.39,2.2-.99l.65.58c-.7.78-1.55,1.31-2.88,1.31-1.92,0-3.48-1.47-3.48-3.63Zm5.55-.41c-.11-1.27-.84-2.38-2.23-2.38-1.21,0-2.13,1.01-2.27,2.38h4.5Z"/>
        <path class="cls-10" d="m237.1,38.79v-.03c0-2.28,1.66-3.63,3.34-3.63,1.3,0,2.13.7,2.67,1.49v-4.21h1.04v9.86h-1.04v-1.4c-.57.84-1.39,1.55-2.67,1.55-1.67,0-3.34-1.32-3.34-3.62Zm6.05-.01v-.03c0-1.61-1.23-2.69-2.52-2.69s-2.46,1-2.46,2.69v.03c0,1.65,1.13,2.7,2.46,2.7s2.52-1.09,2.52-2.7Z"/>
        <path class="cls-10" d="m.23,53.72v-.03c0-1.11.9-2,2.01-2s2.01.89,2.01,2v.03c0,1.11-.9,2-2.01,2s-2.01-.89-2.01-2Z"/>
        <path class="cls-10" d="m18,49h3.86c2.26,0,3.62,1.34,3.62,3.27v.03c0,2.19-1.7,3.32-3.82,3.32h-1.58v2.84h-2.08v-9.45Zm3.73,4.77c1.04,0,1.65-.62,1.65-1.43v-.03c0-.93-.65-1.43-1.69-1.43h-1.61v2.89h1.65Z"/>
        <path class="cls-10" d="m26.8,51.22h2.05v1.46c.42-1,1.09-1.65,2.31-1.59v2.15h-.11c-1.36,0-2.2.82-2.2,2.55v2.67h-2.05v-7.24Z"/>
        <path class="cls-10" d="m31.89,54.88v-.03c0-2.08,1.67-3.77,3.93-3.77s3.9,1.66,3.9,3.74v.03c0,2.08-1.67,3.77-3.93,3.77s-3.9-1.66-3.9-3.74Zm5.81,0v-.03c0-1.07-.77-2-1.9-2s-1.88.9-1.88,1.97v.03c0,1.07.77,2,1.9,2s1.88-.9,1.88-1.97Z"/>
        <path class="cls-10" d="m40.64,57.5l.88-1.35c.78.57,1.61.86,2.28.86.59,0,.86-.22.86-.54v-.03c0-.45-.7-.59-1.5-.84-1.01-.3-2.16-.77-2.16-2.17v-.03c0-1.47,1.19-2.3,2.65-2.3.92,0,1.92.31,2.7.84l-.78,1.42c-.72-.42-1.43-.67-1.96-.67s-.76.22-.76.5v.03c0,.41.69.59,1.47.86,1.01.34,2.19.82,2.19,2.15v.03c0,1.61-1.2,2.34-2.77,2.34-1.01,0-2.15-.34-3.11-1.09Z"/>
        <path class="cls-10" d="m47.98,51.22h2.05v1.04c.5-.67,1.19-1.17,2.25-1.17,1.69,0,3.3,1.32,3.3,3.74v.03c0,2.42-1.58,3.74-3.3,3.74-1.09,0-1.77-.5-2.25-1.08v3.11h-2.05v-9.4Zm5.55,3.63v-.03c0-1.2-.81-2-1.77-2s-1.75.8-1.75,2v.03c0,1.2.8,2,1.75,2s1.77-.78,1.77-2Z"/>
        <path class="cls-10" d="m56.74,54.88v-.03c0-2.07,1.47-3.77,3.58-3.77,2.42,0,3.52,1.88,3.52,3.93,0,.16-.01.35-.03.54h-5.04c.2.93.85,1.42,1.77,1.42.69,0,1.19-.22,1.76-.74l1.17,1.04c-.67.84-1.65,1.35-2.96,1.35-2.17,0-3.78-1.53-3.78-3.74Zm5.1-.61c-.12-.92-.66-1.54-1.53-1.54s-1.4.61-1.57,1.54h3.09Z"/>
        <path class="cls-10" d="m65.02,54.88v-.03c0-2.07,1.58-3.77,3.79-3.77,1.36,0,2.21.46,2.89,1.22l-1.26,1.35c-.46-.49-.92-.8-1.65-.8-1.03,0-1.76.9-1.76,1.97v.03c0,1.11.72,2,1.84,2,.69,0,1.16-.3,1.66-.77l1.2,1.22c-.7.77-1.51,1.32-2.96,1.32-2.17,0-3.77-1.67-3.77-3.74Z"/>
        <path class="cls-10" d="m73.42,56.4v-3.43h-.86v-1.76h.86v-1.85h2.05v1.85h1.7v1.76h-1.7v3.09c0,.47.2.7.66.7.38,0,.72-.09,1.01-.26v1.65c-.43.26-.93.42-1.62.42-1.26,0-2.11-.5-2.11-2.17Z"/>
        <path class="cls-10" d="m78.72,48.6h2.16v1.82h-2.16v-1.82Zm.05,2.62h2.05v7.24h-2.05v-7.24Z"/>
        <path class="cls-10" d="m82.11,51.22h2.17l1.62,4.85,1.63-4.85h2.13l-2.85,7.29h-1.86l-2.85-7.29Z"/>
        <path class="cls-10" d="m90.1,54.88v-.03c0-2.07,1.47-3.77,3.58-3.77,2.42,0,3.52,1.88,3.52,3.93,0,.16-.01.35-.03.54h-5.04c.2.93.85,1.42,1.77,1.42.69,0,1.19-.22,1.76-.74l1.17,1.04c-.67.84-1.65,1.35-2.96,1.35-2.17,0-3.78-1.53-3.78-3.74Zm5.1-.61c-.12-.92-.66-1.54-1.53-1.54s-1.4.61-1.57,1.54h3.09Z"/>
        <path class="cls-10" d="m102.49,56.43v-.03c0-1.47,1.21-2.25,2.98-2.25.89,0,1.53.12,2.15.3v-.24c0-1.26-.77-1.9-2.08-1.9-.82,0-1.47.22-2.12.51l-.31-.85c.77-.35,1.53-.58,2.54-.58s1.74.26,2.25.77c.47.47.72,1.15.72,2.04v4.27h-1v-1.05c-.49.63-1.3,1.2-2.53,1.2-1.3,0-2.61-.74-2.61-2.17Zm5.14-.54v-.68c-.51-.15-1.2-.3-2.05-.3-1.31,0-2.04.57-2.04,1.45v.03c0,.88.81,1.39,1.75,1.39,1.28,0,2.34-.78,2.34-1.89Z"/>
        <path class="cls-10" d="m110.84,51.48h1.04v1.22c.46-.76,1.19-1.36,2.39-1.36,1.69,0,2.67,1.13,2.67,2.79v4.33h-1.04v-4.08c0-1.3-.7-2.11-1.93-2.11s-2.09.88-2.09,2.19v4h-1.04v-6.98Z"/>
        <path class="cls-10" d="m118.75,54.99v-.03c0-2.28,1.66-3.63,3.34-3.63,1.3,0,2.13.7,2.67,1.49v-4.21h1.04v9.86h-1.04v-1.4c-.57.84-1.39,1.55-2.67,1.55-1.67,0-3.34-1.32-3.34-3.62Zm6.05-.01v-.03c0-1.61-1.23-2.69-2.52-2.69s-2.46,1-2.46,2.69v.03c0,1.65,1.13,2.7,2.46,2.7s2.52-1.09,2.52-2.7Z"/>
        <path class="cls-10" d="m131.92,51.22h2.05v1.04c.5-.67,1.19-1.17,2.25-1.17,1.69,0,3.3,1.32,3.3,3.74v.03c0,2.42-1.58,3.74-3.3,3.74-1.09,0-1.77-.5-2.25-1.08v3.11h-2.05v-9.4Zm5.55,3.63v-.03c0-1.2-.81-2-1.77-2s-1.75.8-1.75,2v.03c0,1.2.8,2,1.75,2s1.77-.78,1.77-2Z"/>
        <path class="cls-10" d="m140.69,54.88v-.03c0-2.08,1.67-3.77,3.93-3.77s3.9,1.66,3.9,3.74v.03c0,2.08-1.67,3.77-3.93,3.77s-3.9-1.66-3.9-3.74Zm5.81,0v-.03c0-1.07-.77-2-1.9-2s-1.88.9-1.88,1.97v.03c0,1.07.77,2,1.9,2s1.88-.9,1.88-1.97Z"/>
        <path class="cls-10" d="m150,51.22h2.05v1.04c.5-.67,1.19-1.17,2.25-1.17,1.69,0,3.3,1.32,3.3,3.74v.03c0,2.42-1.58,3.74-3.3,3.74-1.09,0-1.77-.5-2.25-1.08v3.11h-2.05v-9.4Zm5.55,3.63v-.03c0-1.2-.81-2-1.77-2s-1.75.8-1.75,2v.03c0,1.2.8,2,1.75,2s1.77-.78,1.77-2Z"/>
        <path class="cls-10" d="m159.06,55.91v-4.69h2.05v4.04c0,.97.46,1.47,1.24,1.47s1.28-.5,1.28-1.47v-4.04h2.05v7.24h-2.05v-1.03c-.47.61-1.08,1.16-2.12,1.16-1.55,0-2.46-1.03-2.46-2.69Z"/>
        <path class="cls-10" d="m167.62,48.6h2.05v9.86h-2.05v-9.86Z"/>
        <path class="cls-10" d="m171.17,56.38v-.03c0-1.58,1.2-2.31,2.92-2.31.73,0,1.26.12,1.77.3v-.12c0-.85-.53-1.32-1.55-1.32-.78,0-1.34.15-2,.39l-.51-1.57c.8-.35,1.58-.58,2.81-.58,1.12,0,1.93.3,2.44.81.54.54.78,1.34.78,2.31v4.2h-1.99v-.78c-.5.55-1.19.92-2.19.92-1.36,0-2.48-.78-2.48-2.21Zm4.71-.47v-.37c-.35-.16-.81-.27-1.31-.27-.88,0-1.42.35-1.42,1v.03c0,.55.46.88,1.12.88.96,0,1.61-.53,1.61-1.27Z"/>
        <path class="cls-10" d="m179.86,56.4v-3.43h-.86v-1.76h.86v-1.85h2.05v1.85h1.7v1.76h-1.7v3.09c0,.47.2.7.66.7.38,0,.72-.09,1.01-.26v1.65c-.43.26-.93.42-1.62.42-1.26,0-2.11-.5-2.11-2.17Z"/>
        <path class="cls-10" d="m185.17,48.6h2.16v1.82h-2.16v-1.82Zm.05,2.62h2.05v7.24h-2.05v-7.24Z"/>
        <path class="cls-10" d="m188.85,54.88v-.03c0-2.08,1.67-3.77,3.93-3.77s3.9,1.66,3.9,3.74v.03c0,2.08-1.67,3.77-3.93,3.77s-3.9-1.66-3.9-3.74Zm5.81,0v-.03c0-1.07-.77-2-1.9-2s-1.88.9-1.88,1.97v.03c0,1.07.77,2,1.9,2s1.88-.9,1.88-1.97Z"/>
        <path class="cls-10" d="m198.17,51.22h2.05v1.03c.47-.61,1.08-1.16,2.12-1.16,1.55,0,2.46,1.03,2.46,2.69v4.69h-2.05v-4.04c0-.97-.46-1.47-1.24-1.47s-1.28.5-1.28,1.47v4.04h-2.05v-7.24Z"/>
        <path class="cls-10" d="m212.68,57.51v.95h-2.05v-9.86h2.05v3.66c.5-.67,1.19-1.17,2.25-1.17,1.69,0,3.3,1.32,3.3,3.74v.03c0,2.42-1.58,3.74-3.3,3.74-1.09,0-1.77-.5-2.25-1.08Zm3.5-2.66v-.03c0-1.2-.81-2-1.77-2s-1.75.8-1.75,2v.03c0,1.2.8,2,1.75,2s1.77-.78,1.77-2Z"/>
        <path class="cls-10" d="m219.31,56.38v-.03c0-1.58,1.2-2.31,2.92-2.31.73,0,1.26.12,1.77.3v-.12c0-.85-.53-1.32-1.55-1.32-.78,0-1.34.15-2,.39l-.51-1.57c.8-.35,1.58-.58,2.81-.58,1.12,0,1.93.3,2.44.81.54.54.78,1.34.78,2.31v4.2h-1.99v-.78c-.5.55-1.19.92-2.19.92-1.36,0-2.48-.78-2.48-2.21Zm4.71-.47v-.37c-.35-.16-.81-.27-1.31-.27-.88,0-1.42.35-1.42,1v.03c0,.55.46.88,1.12.88.96,0,1.61-.53,1.61-1.27Z"/>
        <path class="cls-10" d="m227.17,57.5l.88-1.35c.78.57,1.61.86,2.28.86.59,0,.86-.22.86-.54v-.03c0-.45-.7-.59-1.5-.84-1.01-.3-2.16-.77-2.16-2.17v-.03c0-1.47,1.19-2.3,2.65-2.3.92,0,1.92.31,2.7.84l-.78,1.42c-.72-.42-1.43-.67-1.96-.67s-.76.22-.76.5v.03c0,.41.69.59,1.47.86,1.01.34,2.19.82,2.19,2.15v.03c0,1.61-1.2,2.34-2.77,2.34-1.01,0-2.15-.34-3.11-1.09Z"/>
        <path class="cls-10" d="m234.16,54.88v-.03c0-2.07,1.47-3.77,3.58-3.77,2.42,0,3.52,1.88,3.52,3.93,0,.16-.01.35-.03.54h-5.04c.2.93.85,1.42,1.77,1.42.69,0,1.19-.22,1.76-.74l1.17,1.04c-.67.84-1.65,1.35-2.96,1.35-2.17,0-3.78-1.53-3.78-3.74Zm5.1-.61c-.12-.92-.66-1.54-1.53-1.54s-1.4.61-1.57,1.54h3.09Z"/>
        <path class="cls-10" d="m242.46,54.85v-.03c0-2.42,1.58-3.74,3.3-3.74,1.09,0,1.77.5,2.25,1.08v-3.56h2.05v9.86h-2.05v-1.04c-.5.68-1.19,1.17-2.25,1.17-1.69,0-3.3-1.32-3.3-3.74Zm5.58,0v-.03c0-1.2-.8-2-1.75-2s-1.77.78-1.77,2v.03c0,1.2.81,2,1.77,2s1.75-.8,1.75-2Z"/>
        <path class="cls-10" d="m.23,69.92v-.03c0-1.11.9-2,2.01-2s2.01.89,2.01,2v.03c0,1.11-.9,2-2.01,2s-2.01-.89-2.01-2Z"/>
        <path class="cls-10" d="m17.45,73.4l1.26-1.5c.72.65,1.42,1.03,2.25,1.03.97,0,1.58-.47,1.58-1.31v-.03c0-.81-.69-1.28-1.67-1.28-.59,0-1.13.16-1.58.35l-1.2-.8.27-4.66h5.81v1.82h-4.02l-.11,1.63c.38-.09.72-.16,1.24-.16,1.84,0,3.31.89,3.31,3.03v.03c0,2-1.42,3.27-3.59,3.27-1.51,0-2.62-.54-3.54-1.42Z"/>
        <path class="cls-10" d="m26.04,69.49h4.16v1.97h-4.16v-1.97Z"/>
        <path class="cls-10" d="m36.35,67.42h2.13l-2.78,7.41c-.55,1.47-1.15,2.03-2.38,2.03-.74,0-1.3-.19-1.82-.5l.69-1.49c.27.16.61.28.88.28.35,0,.54-.11.71-.47l-2.83-7.27h2.17l1.65,4.93,1.58-4.93Z"/>
        <path class="cls-10" d="m38.94,71.08v-.03c0-2.07,1.47-3.77,3.58-3.77,2.42,0,3.52,1.88,3.52,3.93,0,.16-.01.35-.03.54h-5.04c.2.93.85,1.42,1.77,1.42.69,0,1.19-.22,1.76-.74l1.17,1.04c-.67.84-1.65,1.35-2.96,1.35-2.17,0-3.78-1.53-3.78-3.74Zm5.1-.61c-.12-.92-.66-1.54-1.53-1.54s-1.4.61-1.57,1.54h3.09Z"/>
        <path class="cls-10" d="m47.13,72.58v-.03c0-1.58,1.2-2.31,2.92-2.31.73,0,1.26.12,1.77.3v-.12c0-.85-.53-1.32-1.55-1.32-.78,0-1.34.15-2,.39l-.51-1.57c.8-.35,1.58-.58,2.81-.58,1.12,0,1.93.3,2.44.81.54.54.78,1.34.78,2.31v4.2h-1.99v-.78c-.5.55-1.19.92-2.19.92-1.36,0-2.48-.78-2.48-2.21Zm4.71-.47v-.36c-.35-.16-.81-.27-1.31-.27-.88,0-1.42.35-1.42,1v.03c0,.55.46.88,1.12.88.96,0,1.61-.53,1.61-1.27Z"/>
        <path class="cls-10" d="m55.56,67.42h2.05v1.46c.42-1,1.09-1.65,2.31-1.59v2.15h-.11c-1.36,0-2.2.82-2.2,2.55v2.67h-2.05v-7.24Z"/>
        <path class="cls-10" d="m65.6,69.17h-.85v-1.69h.85v-.46c0-.8.2-1.38.58-1.76.38-.38.93-.57,1.66-.57.65,0,1.08.08,1.46.2v1.7c-.3-.11-.58-.17-.93-.17-.47,0-.74.24-.74.78v.28h1.66v1.67h-1.63v5.48h-2.05v-5.48Z"/>
        <path class="cls-10" d="m69.92,71.08v-.03c0-2.08,1.67-3.77,3.93-3.77s3.9,1.66,3.9,3.74v.03c0,2.08-1.67,3.77-3.93,3.77s-3.9-1.66-3.9-3.74Zm5.81,0v-.03c0-1.07-.77-2-1.9-2s-1.88.91-1.88,1.97v.03c0,1.07.77,2,1.9,2s1.88-.9,1.88-1.97Z"/>
        <path class="cls-10" d="m79.33,64.8h2.05v9.86h-2.05v-9.86Z"/>
        <path class="cls-10" d="m83.41,64.8h2.05v9.86h-2.05v-9.86Z"/>
        <path class="cls-10" d="m87.04,71.08v-.03c0-2.08,1.67-3.77,3.93-3.77s3.9,1.66,3.9,3.74v.03c0,2.08-1.67,3.77-3.93,3.77s-3.9-1.66-3.9-3.74Zm5.81,0v-.03c0-1.07-.77-2-1.9-2s-1.88.91-1.88,1.97v.03c0,1.07.77,2,1.9,2s1.88-.9,1.88-1.97Z"/>
        <path class="cls-10" d="m95.42,67.42h2.08l1.16,4.39,1.36-4.42h1.77l1.38,4.43,1.19-4.4h2.04l-2.25,7.29h-1.85l-1.39-4.44-1.42,4.44h-1.84l-2.23-7.29Z"/>
        <path class="cls-10" d="m107.26,69.49h4.16v1.97h-4.16v-1.97Z"/>
        <path class="cls-10" d="m112.96,72.1v-4.69h2.05v4.04c0,.97.46,1.47,1.24,1.47s1.28-.5,1.28-1.47v-4.04h2.05v7.24h-2.05v-1.03c-.47.61-1.08,1.16-2.12,1.16-1.55,0-2.46-1.03-2.46-2.69Z"/>
        <path class="cls-10" d="m121.42,67.42h2.05v1.04c.5-.68,1.19-1.17,2.25-1.17,1.69,0,3.3,1.32,3.3,3.74v.03c0,2.42-1.58,3.74-3.3,3.74-1.09,0-1.77-.5-2.25-1.08v3.11h-2.05v-9.4Zm5.55,3.63v-.03c0-1.2-.81-2-1.77-2s-1.75.8-1.75,2v.03c0,1.2.8,2,1.75,2s1.77-.78,1.77-2Z"/>
        <path class="cls-10" d="m135.22,68.59h-.96v-.9h.96v-.61c0-.8.22-1.4.61-1.8.35-.35.87-.54,1.5-.54.49,0,.81.05,1.15.18v.9c-.38-.11-.66-.17-1.01-.17-.81,0-1.22.49-1.22,1.49v.57h2.21v.89h-2.2v6.06h-1.04v-6.06Z"/>
        <path class="cls-10" d="m139.78,67.68h1.04v1.82c.51-1.16,1.53-2,2.85-1.95v1.12h-.08c-1.53,0-2.77,1.09-2.77,3.2v2.78h-1.04v-6.98Z"/>
        <path class="cls-10" d="m144.52,71.2v-.03c0-1.97,1.54-3.65,3.65-3.65s3.63,1.65,3.63,3.62v.03c0,1.97-1.55,3.65-3.66,3.65s-3.62-1.65-3.62-3.62Zm6.21,0v-.03c0-1.5-1.12-2.73-2.59-2.73s-2.55,1.23-2.55,2.7v.03c0,1.5,1.11,2.71,2.58,2.71s2.57-1.22,2.57-2.69Z"/>
        <path class="cls-10" d="m153.67,67.68h1.04v1.17c.46-.69,1.08-1.32,2.25-1.32s1.86.61,2.24,1.39c.5-.77,1.24-1.39,2.46-1.39,1.61,0,2.59,1.08,2.59,2.81v4.32h-1.04v-4.08c0-1.35-.68-2.11-1.81-2.11-1.05,0-1.93.78-1.93,2.16v4.02h-1.03v-4.11c0-1.31-.69-2.08-1.8-2.08s-1.94.92-1.94,2.2v3.98h-1.04v-6.98Z"/>
        <path class="cls-10" d="m170.11,71.19v-.03c0-2.28,1.66-3.63,3.34-3.63,1.3,0,2.13.7,2.67,1.49v-4.21h1.04v9.86h-1.04v-1.4c-.57.84-1.39,1.55-2.67,1.55-1.67,0-3.34-1.32-3.34-3.62Zm6.05-.01v-.03c0-1.61-1.23-2.69-2.52-2.69s-2.46,1-2.46,2.69v.03c0,1.65,1.13,2.7,2.46,2.7s2.52-1.09,2.52-2.7Z"/>
        <path class="cls-10" d="m179.51,65h1.19v1.15h-1.19v-1.15Zm.07,2.67h1.04v6.98h-1.04v-6.98Z"/>
        <path class="cls-10" d="m182.51,72.63v-.03c0-1.47,1.21-2.25,2.98-2.25.89,0,1.53.12,2.15.3v-.24c0-1.26-.77-1.9-2.08-1.9-.82,0-1.47.22-2.12.51l-.31-.85c.77-.35,1.53-.58,2.54-.58s1.74.26,2.25.77c.47.47.72,1.15.72,2.04v4.27h-1v-1.05c-.49.63-1.3,1.2-2.53,1.2-1.3,0-2.61-.74-2.61-2.17Zm5.14-.54v-.68c-.51-.15-1.2-.3-2.05-.3-1.31,0-2.04.57-2.04,1.45v.03c0,.88.81,1.39,1.75,1.39,1.28,0,2.34-.78,2.34-1.89Z"/>
        <path class="cls-10" d="m190.77,75.87l.47-.81c.8.58,1.69.89,2.69.89,1.54,0,2.54-.85,2.54-2.48v-.82c-.61.81-1.46,1.47-2.74,1.47-1.67,0-3.28-1.26-3.28-3.27v-.03c0-2.04,1.62-3.29,3.28-3.29,1.31,0,2.16.65,2.73,1.4v-1.26h1.04v5.77c0,1.08-.32,1.9-.89,2.47-.62.62-1.55.93-2.66.93s-2.24-.32-3.17-.97Zm5.73-5.04v-.03c0-1.43-1.24-2.36-2.57-2.36s-2.42.92-2.42,2.35v.03c0,1.4,1.12,2.38,2.42,2.38s2.57-.96,2.57-2.36Z"/>
        <path class="cls-10" d="m199.81,67.68h1.04v1.21c.46-.76,1.19-1.36,2.39-1.36,1.69,0,2.67,1.13,2.67,2.79v4.33h-1.04v-4.08c0-1.3-.7-2.11-1.93-2.11s-2.09.88-2.09,2.19v4h-1.04v-6.98Z"/>
        <path class="cls-10" d="m207.7,71.2v-.03c0-1.97,1.54-3.65,3.65-3.65s3.63,1.65,3.63,3.62v.03c0,1.97-1.55,3.65-3.66,3.65s-3.62-1.65-3.62-3.62Zm6.21,0v-.03c0-1.5-1.12-2.73-2.59-2.73s-2.55,1.23-2.55,2.7v.03c0,1.5,1.11,2.71,2.58,2.71s2.57-1.22,2.57-2.69Z"/>
        <path class="cls-10" d="m216.27,73.77l.53-.74c.76.57,1.59.89,2.42.89s1.45-.43,1.45-1.11v-.03c0-.7-.82-.97-1.74-1.23-1.09-.31-2.31-.69-2.31-1.97v-.03c0-1.2,1-2,2.38-2,.85,0,1.8.3,2.51.77l-.47.78c-.65-.42-1.39-.68-2.07-.68-.82,0-1.35.43-1.35,1.01v.03c0,.66.86.92,1.8,1.2,1.08.32,2.24.74,2.24,2v.03c0,1.32-1.09,2.09-2.48,2.09-1,0-2.11-.39-2.89-1.03Z"/>
        <path class="cls-10" d="m223.6,65h1.19v1.15h-1.19v-1.15Zm.07,2.67h1.04v6.98h-1.04v-6.98Z"/>
        <path class="cls-10" d="m226.54,73.77l.53-.74c.76.57,1.59.89,2.42.89s1.45-.43,1.45-1.11v-.03c0-.7-.82-.97-1.74-1.23-1.09-.31-2.31-.69-2.31-1.97v-.03c0-1.2,1-2,2.38-2,.85,0,1.8.3,2.51.77l-.47.78c-.65-.42-1.39-.68-2.07-.68-.82,0-1.35.43-1.35,1.01v.03c0,.66.86.92,1.8,1.2,1.08.32,2.24.74,2.24,2v.03c0,1.32-1.09,2.09-2.48,2.09-1,0-2.11-.39-2.89-1.03Z"/>
      </g>
    </g>
  </g>
</svg>