<?xml version="1.0" encoding="UTF-8"?>
<svg id="rohan_follow-up_entyvio_svg_mobile" data-name="rohan_follow-up_entyvio_svg_mobile" xmlns="http://www.w3.org/2000/svg" xmlns:xlink="http://www.w3.org/1999/xlink" viewBox="0 0 334.6 459.51">
  <defs>
    <style>
      .mob-cls-1 {
        fill: #e0e1e0;
      }

      .mob-cls-1, .mob-cls-2, .mob-cls-3, .mob-cls-4, .mob-cls-5, .mob-cls-6, .mob-cls-7 {
        stroke-width: 0px;
      }

      .mob-cls-2 {
        fill: url(#linear-gradient-cls);
      }

      .mob-cls-8, .mob-cls-9 {
        stroke: #9d5b8f;
        stroke-linecap: round;
        stroke-linejoin: round;
        stroke-width: 4px;
      }

      .mob-cls-8, .mob-cls-9, .mob-cls-10 {
        fill: none;
      }

      .mob-cls-3 {
        fill: #d24230;
      }

      .mob-cls-4 {
        fill: #fff;
      }

      .mob-cls-5 {
        fill: url(#linear-gradient-cls-2);
      }

      .mob-cls-6 {
        fill: #231f20;
      }

      .mob-cls-9 {
        stroke-dasharray: 0 0 0 4.67;
      }

      .mob-cls-7 {
        fill: #872780;
      }

      .mob-cls-10 {
        stroke: #808b86;
        stroke-miterlimit: 10;
        stroke-width: 2px;
      }
    </style>
    <linearGradient id="linear-gradient-cls" x1="148.54" y1="426.71" x2="148.54" y2="458.88" gradientUnits="userSpaceOnUse">
      <stop offset="0" stop-color="#bebdbd"/>
      <stop offset="1" stop-color="#fff"/>
    </linearGradient>
    <linearGradient id="linear-gradient-cls-2" x1="148.54" y1="428.19" x2="148.54" y2="457.44" gradientUnits="userSpaceOnUse">
      <stop offset="0" stop-color="#872780"/>
      <stop offset=".2" stop-color="#9b2e69"/>
      <stop offset=".53" stop-color="#b9394a"/>
      <stop offset=".81" stop-color="#cb3f36"/>
      <stop offset="1" stop-color="#d24230"/>
    </linearGradient>
  </defs>
  <g id="rohan_follow-up_entyvio_mobile">
    <g>
      <line id="timeline" class="mob-cls-10" x1="152.33" y1="436.25" x2="152.33" y2="37.93"/>
      <g id="june_2021_text">
        <g>
          <line class="mob-cls-8" x1="210.77" y1="22.93" x2="210.77" y2="22.93"/>
          <line class="mob-cls-9" x1="206.1" y1="22.93" x2="203.77" y2="22.93"/>
          <line class="mob-cls-8" x1="201.44" y1="22.93" x2="201.44" y2="22.93"/>
        </g>
        <g>
          <path class="mob-cls-6" d="m220.48.5h3.69c2.97,0,5.02,2.04,5.02,4.7v.03c0,2.66-2.05,4.73-5.02,4.73h-3.69V.5Zm2.08,1.88v5.7h1.61c1.7,0,2.85-1.15,2.85-2.82v-.03c0-1.67-1.15-2.85-2.85-2.85h-1.61Z"/>
          <path class="mob-cls-6" d="m230.86.09h2.16v1.82h-2.16V.09Zm.05,2.62h2.05v7.24h-2.05V2.71Z"/>
          <path class="mob-cls-6" d="m234.46,7.87v-.03c0-1.58,1.2-2.31,2.92-2.31.73,0,1.26.12,1.77.3v-.12c0-.85-.53-1.32-1.55-1.32-.78,0-1.34.15-2,.39l-.51-1.57c.8-.35,1.58-.58,2.81-.58,1.12,0,1.93.3,2.44.81.54.54.78,1.34.78,2.31v4.2h-1.99v-.78c-.5.55-1.19.92-2.19.92-1.36,0-2.48-.78-2.48-2.21Zm4.71-.47v-.36c-.35-.16-.81-.27-1.31-.27-.88,0-1.42.35-1.42,1v.03c0,.55.46.88,1.12.88.96,0,1.61-.53,1.61-1.27Z"/>
          <path class="mob-cls-6" d="m242.93,11.38l.7-1.54c.74.42,1.49.66,2.44.66,1.4,0,2.07-.68,2.07-1.97v-.35c-.61.73-1.27,1.17-2.36,1.17-1.69,0-3.21-1.23-3.21-3.38v-.03c0-2.16,1.55-3.38,3.21-3.38,1.12,0,1.78.47,2.34,1.08v-.95h2.05v5.6c0,1.3-.31,2.24-.92,2.85-.67.68-1.71.97-3.12.97-1.17,0-2.28-.27-3.2-.76Zm5.21-5.4v-.03c0-.99-.77-1.67-1.77-1.67s-1.76.69-1.76,1.67v.03c0,1,.76,1.67,1.76,1.67s1.77-.69,1.77-1.67Z"/>
          <path class="mob-cls-6" d="m252,2.71h2.05v1.03c.47-.61,1.08-1.16,2.12-1.16,1.55,0,2.46,1.03,2.46,2.69v4.69h-2.05v-4.04c0-.97-.46-1.47-1.24-1.47s-1.28.5-1.28,1.47v4.04h-2.05V2.71Z"/>
          <path class="mob-cls-6" d="m260.06,6.37v-.03c0-2.08,1.67-3.77,3.93-3.77s3.9,1.66,3.9,3.74v.03c0,2.08-1.67,3.77-3.93,3.77s-3.9-1.66-3.9-3.74Zm5.81,0v-.03c0-1.07-.77-2-1.9-2s-1.88.9-1.88,1.97v.03c0,1.07.77,2,1.9,2s1.88-.9,1.88-1.97Z"/>
          <path class="mob-cls-6" d="m268.81,8.99l.88-1.35c.78.57,1.61.86,2.28.86.59,0,.86-.22.86-.54v-.03c0-.45-.7-.59-1.5-.84-1.01-.3-2.16-.77-2.16-2.17v-.03c0-1.47,1.19-2.3,2.65-2.3.92,0,1.92.31,2.7.84l-.78,1.42c-.72-.42-1.43-.68-1.96-.68s-.76.22-.76.5v.03c0,.41.69.59,1.47.86,1.01.34,2.19.82,2.19,2.15v.03c0,1.61-1.2,2.34-2.77,2.34-1.01,0-2.15-.34-3.11-1.09Z"/>
          <path class="mob-cls-6" d="m276.19.09h2.16v1.82h-2.16V.09Zm.05,2.62h2.05v7.24h-2.05V2.71Z"/>
          <path class="mob-cls-6" d="m279.66,8.99l.88-1.35c.78.57,1.61.86,2.28.86.59,0,.86-.22.86-.54v-.03c0-.45-.7-.59-1.5-.84-1.01-.3-2.16-.77-2.16-2.17v-.03c0-1.47,1.19-2.3,2.65-2.3.92,0,1.92.31,2.7.84l-.78,1.42c-.72-.42-1.43-.68-1.96-.68s-.76.22-.76.5v.03c0,.41.69.59,1.47.86,1.01.34,2.19.82,2.19,2.15v.03c0,1.61-1.2,2.34-2.77,2.34-1.01,0-2.15-.34-3.11-1.09Z"/>
          <path class="mob-cls-6" d="m290.71,6.37v-.03c0-2.08,1.67-3.77,3.93-3.77s3.9,1.66,3.9,3.74v.03c0,2.08-1.67,3.77-3.93,3.77s-3.9-1.66-3.9-3.74Zm5.81,0v-.03c0-1.07-.77-2-1.9-2s-1.88.9-1.88,1.97v.03c0,1.07.77,2,1.9,2s1.88-.9,1.88-1.97Z"/>
          <path class="mob-cls-6" d="m300.37,4.47h-.85v-1.69h.85v-.46c0-.8.2-1.38.58-1.76.38-.38.93-.57,1.66-.57.65,0,1.08.08,1.46.2v1.7c-.3-.11-.58-.18-.93-.18-.47,0-.74.24-.74.78v.28h1.66v1.67h-1.63v5.48h-2.05v-5.48Z"/>
          <path class="mob-cls-6" d="m220.3,16.29h2.16v1.82h-2.16v-1.82Zm.05,2.62h2.05v7.24h-2.05v-7.24Z"/>
          <path class="mob-cls-6" d="m224.43,16.29h2.05v9.86h-2.05v-9.86Z"/>
          <path class="mob-cls-6" d="m228.07,22.57v-.03c0-2.07,1.47-3.77,3.58-3.77,2.42,0,3.52,1.88,3.52,3.93,0,.16-.01.35-.03.54h-5.04c.2.93.85,1.42,1.77,1.42.69,0,1.19-.22,1.76-.74l1.17,1.04c-.67.84-1.65,1.35-2.96,1.35-2.17,0-3.78-1.53-3.78-3.74Zm5.1-.61c-.12-.92-.66-1.54-1.53-1.54s-1.4.61-1.57,1.54h3.09Z"/>
          <path class="mob-cls-6" d="m236.34,22.57v-.03c0-2.08,1.67-3.77,3.93-3.77s3.9,1.66,3.9,3.74v.03c0,2.08-1.67,3.77-3.93,3.77s-3.9-1.66-3.9-3.74Zm5.81,0v-.03c0-1.07-.77-2-1.9-2s-1.88.9-1.88,1.97v.03c0,1.07.77,2,1.9,2s1.88-.9,1.88-1.97Z"/>
          <path class="mob-cls-6" d="m245.31,22.57v-.03c0-2.07,1.58-3.77,3.79-3.77,1.36,0,2.21.46,2.89,1.22l-1.26,1.35c-.46-.49-.92-.8-1.65-.8-1.03,0-1.76.9-1.76,1.97v.03c0,1.11.72,2,1.84,2,.69,0,1.16-.3,1.66-.77l1.2,1.22c-.7.77-1.51,1.32-2.96,1.32-2.17,0-3.77-1.67-3.77-3.74Z"/>
          <path class="mob-cls-6" d="m252.81,22.57v-.03c0-2.08,1.67-3.77,3.93-3.77s3.9,1.66,3.9,3.74v.03c0,2.08-1.67,3.77-3.93,3.77s-3.9-1.66-3.9-3.74Zm5.81,0v-.03c0-1.07-.77-2-1.9-2s-1.88.9-1.88,1.97v.03c0,1.07.77,2,1.9,2s1.88-.9,1.88-1.97Z"/>
          <path class="mob-cls-6" d="m262.22,16.29h2.05v9.86h-2.05v-9.86Z"/>
          <path class="mob-cls-6" d="m265.85,22.57v-.03c0-2.08,1.67-3.77,3.93-3.77s3.9,1.66,3.9,3.74v.03c0,2.08-1.67,3.77-3.93,3.77s-3.9-1.66-3.9-3.74Zm5.81,0v-.03c0-1.07-.77-2-1.9-2s-1.88.9-1.88,1.97v.03c0,1.07.77,2,1.9,2s1.88-.9,1.88-1.97Z"/>
          <path class="mob-cls-6" d="m275.17,18.91h2.05v1.03c.47-.61,1.08-1.16,2.12-1.16,1.55,0,2.46,1.03,2.46,2.69v4.69h-2.05v-4.04c0-.97-.46-1.47-1.24-1.47s-1.28.5-1.28,1.47v4.04h-2.05v-7.24Z"/>
          <path class="mob-cls-6" d="m283.62,16.29h2.16v1.82h-2.16v-1.82Zm.05,2.62h2.05v7.24h-2.05v-7.24Z"/>
          <path class="mob-cls-6" d="m287.3,22.57v-.03c0-2.07,1.58-3.77,3.79-3.77,1.36,0,2.21.46,2.89,1.22l-1.26,1.35c-.46-.49-.92-.8-1.65-.8-1.03,0-1.76.9-1.76,1.97v.03c0,1.11.72,2,1.84,2,.69,0,1.16-.3,1.66-.77l1.2,1.22c-.7.77-1.51,1.32-2.96,1.32-2.17,0-3.77-1.67-3.77-3.74Z"/>
          <path class="mob-cls-6" d="m298.98,24.07v-.03c0-1.58,1.2-2.31,2.92-2.31.73,0,1.26.12,1.77.3v-.12c0-.85-.53-1.32-1.55-1.32-.78,0-1.34.15-2,.39l-.51-1.57c.8-.35,1.58-.58,2.81-.58,1.12,0,1.93.3,2.44.81.54.54.78,1.34.78,2.31v4.2h-1.99v-.78c-.5.55-1.19.92-2.19.92-1.36,0-2.48-.78-2.48-2.21Zm4.71-.47v-.36c-.35-.16-.81-.27-1.31-.27-.88,0-1.42.35-1.42,1v.03c0,.55.46.88,1.12.88.96,0,1.61-.53,1.61-1.27Z"/>
          <path class="mob-cls-6" d="m307.4,18.91h2.05v1.03c.47-.61,1.08-1.16,2.12-1.16,1.55,0,2.46,1.03,2.46,2.69v4.69h-2.05v-4.04c0-.97-.46-1.47-1.24-1.47s-1.28.5-1.28,1.47v4.04h-2.05v-7.24Z"/>
          <path class="mob-cls-6" d="m315.49,22.55v-.03c0-2.42,1.58-3.74,3.29-3.74,1.09,0,1.77.5,2.26,1.08v-3.56h2.05v9.86h-2.05v-1.04c-.5.68-1.19,1.18-2.26,1.18-1.69,0-3.29-1.32-3.29-3.74Zm5.58,0v-.03c0-1.2-.8-2-1.75-2s-1.77.78-1.77,2v.03c0,1.2.81,2,1.77,2s1.75-.8,1.75-2Z"/>
          <path class="mob-cls-6" d="m220.3,32.49h2.16v1.82h-2.16v-1.82Zm.05,2.62h2.05v7.24h-2.05v-7.24Z"/>
          <path class="mob-cls-6" d="m224.34,35.11h2.05v1.03c.47-.61,1.08-1.16,2.12-1.16,1.55,0,2.46,1.03,2.46,2.69v4.69h-2.05v-4.04c0-.97-.46-1.47-1.24-1.47s-1.28.5-1.28,1.47v4.04h-2.05v-7.24Z"/>
          <path class="mob-cls-6" d="m233.1,36.87h-.85v-1.69h.85v-.46c0-.8.2-1.38.58-1.76.38-.38.93-.57,1.66-.57.65,0,1.08.08,1.46.2v1.7c-.3-.11-.58-.18-.93-.18-.47,0-.74.24-.74.78v.28h1.66v1.67h-1.63v5.48h-2.05v-5.48Zm4.9-4.38h2.05v9.86h-2.05v-9.86Z"/>
          <path class="mob-cls-6" d="m241.55,40.27v-.03c0-1.58,1.2-2.31,2.92-2.31.73,0,1.26.12,1.77.3v-.12c0-.85-.53-1.32-1.55-1.32-.78,0-1.34.15-2,.39l-.51-1.57c.8-.35,1.58-.58,2.81-.58,1.12,0,1.93.3,2.44.81.54.54.78,1.34.78,2.31v4.2h-1.99v-.78c-.5.55-1.19.92-2.19.92-1.36,0-2.48-.78-2.48-2.21Zm4.71-.47v-.36c-.35-.16-.81-.27-1.31-.27-.88,0-1.42.35-1.42,1v.03c0,.55.46.88,1.12.88.96,0,1.61-.53,1.61-1.27Z"/>
          <path class="mob-cls-6" d="m249.98,35.11h2.05v1.03c.47-.61,1.09-1.16,2.13-1.16.95,0,1.66.42,2.04,1.15.63-.74,1.39-1.15,2.38-1.15,1.53,0,2.44.92,2.44,2.66v4.71h-2.05v-4.04c0-.97-.43-1.47-1.2-1.47s-1.24.5-1.24,1.47v4.04h-2.05v-4.04c0-.97-.43-1.47-1.2-1.47s-1.24.5-1.24,1.47v4.04h-2.05v-7.24Z"/>
          <path class="mob-cls-6" d="m262.8,35.11h2.05v1.03c.47-.61,1.09-1.16,2.13-1.16.95,0,1.66.42,2.04,1.15.63-.74,1.39-1.15,2.38-1.15,1.53,0,2.44.92,2.44,2.66v4.71h-2.05v-4.04c0-.97-.43-1.47-1.2-1.47s-1.24.5-1.24,1.47v4.04h-2.05v-4.04c0-.97-.43-1.47-1.2-1.47s-1.24.5-1.24,1.47v4.04h-2.05v-7.24Z"/>
          <path class="mob-cls-6" d="m275.19,40.27v-.03c0-1.58,1.2-2.31,2.92-2.31.73,0,1.26.12,1.77.3v-.12c0-.85-.53-1.32-1.55-1.32-.78,0-1.34.15-2,.39l-.51-1.57c.8-.35,1.58-.58,2.81-.58,1.12,0,1.93.3,2.44.81.54.54.78,1.34.78,2.31v4.2h-1.99v-.78c-.5.55-1.19.92-2.19.92-1.36,0-2.48-.78-2.48-2.21Zm4.71-.47v-.36c-.35-.16-.81-.27-1.31-.27-.88,0-1.42.35-1.42,1v.03c0,.55.46.88,1.12.88.96,0,1.61-.53,1.61-1.27Z"/>
          <path class="mob-cls-6" d="m283.89,40.3v-3.43h-.86v-1.76h.86v-1.85h2.05v1.85h1.7v1.76h-1.7v3.09c0,.47.2.7.66.7.38,0,.72-.09,1.01-.26v1.65c-.43.26-.93.42-1.62.42-1.26,0-2.11-.5-2.11-2.17Z"/>
          <path class="mob-cls-6" d="m288.6,38.77v-.03c0-2.08,1.67-3.77,3.93-3.77s3.9,1.66,3.9,3.74v.03c0,2.08-1.67,3.77-3.93,3.77s-3.9-1.66-3.9-3.74Zm5.81,0v-.03c0-1.07-.77-2-1.9-2s-1.88.9-1.88,1.97v.03c0,1.07.77,2,1.9,2s1.88-.9,1.88-1.97Z"/>
          <path class="mob-cls-6" d="m297.91,35.11h2.05v1.46c.42-1,1.09-1.65,2.31-1.59v2.15h-.11c-1.36,0-2.2.82-2.2,2.55v2.67h-2.05v-7.24Z"/>
          <path class="mob-cls-6" d="m308.31,35.11h2.13l-2.78,7.41c-.55,1.47-1.15,2.03-2.38,2.03-.74,0-1.3-.19-1.82-.5l.69-1.49c.27.16.61.28.88.28.35,0,.54-.11.71-.47l-2.83-7.27h2.17l1.65,4.93,1.58-4.93Z"/>
          <path class="mob-cls-6" d="m315.5,37.65v-.03c0-2.69,2.03-4.89,4.93-4.89,1.78,0,2.85.59,3.73,1.46l-1.32,1.53c-.73-.66-1.47-1.07-2.42-1.07-1.59,0-2.74,1.32-2.74,2.94v.03c0,1.62,1.12,2.97,2.74,2.97,1.08,0,1.74-.43,2.49-1.11l1.32,1.34c-.97,1.04-2.05,1.69-3.88,1.69-2.78,0-4.85-2.15-4.85-4.86Z"/>
          <path class="mob-cls-6" d="m325.89,32.9h3.69c2.97,0,5.02,2.04,5.02,4.7v.03c0,2.66-2.05,4.73-5.02,4.73h-3.69v-9.45Zm2.08,1.88v5.7h1.61c1.7,0,2.85-1.15,2.85-2.82v-.03c0-1.67-1.15-2.85-2.85-2.85h-1.61Z"/>
        </g>
      </g>
      <g id="june_2021_capsule">
        <rect class="mob-cls-1" x="99.44" y="7.93" width="102" height="30" rx="15" ry="15"/>
        <g>
          <path class="mob-cls-7" d="m119.94,26.25l1.16-1.3c.48.53.95.84,1.54.84.7,0,1.13-.42,1.13-1.39v-5.41h1.89v5.49c0,1-.29,1.74-.79,2.24-.52.52-1.27.78-2.18.78-1.31,0-2.17-.58-2.75-1.26Z"/>
          <path class="mob-cls-7" d="m127.31,25.12v-4.16h1.82v3.59c0,.86.41,1.31,1.1,1.31s1.14-.44,1.14-1.31v-3.59h1.82v6.43h-1.82v-.91c-.42.54-.96,1.03-1.88,1.03-1.38,0-2.18-.91-2.18-2.39Z"/>
          <path class="mob-cls-7" d="m134.83,20.96h1.82v.91c.42-.54.96-1.03,1.88-1.03,1.38,0,2.18.91,2.18,2.39v4.16h-1.82v-3.59c0-.86-.41-1.31-1.1-1.31s-1.14.44-1.14,1.31v3.59h-1.82v-6.43Z"/>
          <path class="mob-cls-7" d="m141.99,24.21v-.02c0-1.83,1.31-3.35,3.18-3.35,2.15,0,3.13,1.67,3.13,3.49,0,.14-.01.31-.02.48h-4.47c.18.83.76,1.26,1.57,1.26.61,0,1.06-.19,1.56-.66l1.04.92c-.6.74-1.46,1.2-2.63,1.2-1.93,0-3.36-1.36-3.36-3.32Zm4.53-.54c-.11-.82-.59-1.37-1.36-1.37s-1.25.54-1.39,1.37h2.75Z"/>
          <path class="mob-cls-7" d="m153.03,25.93l2.79-2.29c1.04-.86,1.45-1.32,1.45-2.02s-.47-1.09-1.13-1.09-1.09.36-1.71,1.13l-1.3-1.04c.83-1.13,1.63-1.74,3.13-1.74,1.74,0,2.89,1.02,2.89,2.59v.02c0,1.4-.72,2.1-2.21,3.25l-1.37,1.06h3.66v1.6h-6.21v-1.46Z"/>
          <path class="mob-cls-7" d="m160.57,23.22v-.02c0-2.43,1.51-4.34,3.74-4.34s3.72,1.88,3.72,4.32v.02c0,2.43-1.5,4.34-3.74,4.34s-3.72-1.88-3.72-4.32Zm5.57,0v-.02c0-1.52-.74-2.67-1.85-2.67s-1.82,1.12-1.82,2.65v.02c0,1.54.73,2.67,1.85,2.67s1.82-1.13,1.82-2.65Z"/>
          <path class="mob-cls-7" d="m169.15,25.93l2.79-2.29c1.04-.86,1.45-1.32,1.45-2.02s-.47-1.09-1.13-1.09-1.09.36-1.71,1.13l-1.3-1.04c.83-1.13,1.63-1.74,3.13-1.74,1.74,0,2.89,1.02,2.89,2.59v.02c0,1.4-.72,2.1-2.21,3.25l-1.37,1.06h3.66v1.6h-6.21v-1.46Z"/>
          <path class="mob-cls-7" d="m178.17,20.81l-1.46.36-.38-1.51,2.41-.72h1.26v8.46h-1.82v-6.58Z"/>
        </g>
      </g>
      <g id="october_2021_capsule">
        <rect class="mob-cls-1" x="99.44" y="198.07" width="102" height="30" rx="15" ry="15"/>
        <g>
          <path class="mob-cls-7" d="m109.8,213.35v-.02c0-2.39,1.88-4.34,4.47-4.34s4.45,1.93,4.45,4.32v.02c0,2.39-1.88,4.34-4.47,4.34s-4.45-1.93-4.45-4.32Zm6.99,0v-.02c0-1.44-1.06-2.64-2.54-2.64s-2.52,1.18-2.52,2.61v.02c0,1.44,1.06,2.64,2.54,2.64s2.52-1.18,2.52-2.61Z"/>
          <path class="mob-cls-7" d="m119.87,214.35v-.02c0-1.83,1.4-3.35,3.37-3.35,1.21,0,1.97.41,2.57,1.08l-1.12,1.2c-.41-.43-.82-.71-1.46-.71-.91,0-1.56.8-1.56,1.75v.02c0,.98.64,1.77,1.63,1.77.61,0,1.03-.26,1.48-.68l1.07,1.08c-.62.68-1.34,1.18-2.63,1.18-1.93,0-3.35-1.49-3.35-3.32Z"/>
          <path class="mob-cls-7" d="m127.33,215.7v-3.05h-.77v-1.56h.77v-1.64h1.82v1.64h1.51v1.56h-1.51v2.75c0,.42.18.62.59.62.34,0,.64-.08.9-.23v1.46c-.38.23-.83.37-1.44.37-1.12,0-1.87-.44-1.87-1.93Z"/>
          <path class="mob-cls-7" d="m131.52,214.35v-.02c0-1.85,1.49-3.35,3.49-3.35s3.47,1.48,3.47,3.32v.02c0,1.85-1.49,3.35-3.49,3.35s-3.47-1.48-3.47-3.32Zm5.16,0v-.02c0-.95-.68-1.77-1.69-1.77s-1.67.8-1.67,1.75v.02c0,.95.68,1.77,1.69,1.77s1.67-.8,1.67-1.75Z"/>
          <path class="mob-cls-7" d="m141.62,216.69v.84h-1.82v-8.76h1.82v3.25c.44-.6,1.06-1.04,2-1.04,1.5,0,2.93,1.18,2.93,3.32v.02c0,2.15-1.4,3.32-2.93,3.32-.97,0-1.57-.44-2-.96Zm3.11-2.36v-.02c0-1.07-.72-1.78-1.57-1.78s-1.56.71-1.56,1.78v.02c0,1.07.71,1.77,1.56,1.77s1.57-.7,1.57-1.77Z"/>
          <path class="mob-cls-7" d="m147.59,214.35v-.02c0-1.83,1.31-3.35,3.18-3.35,2.15,0,3.13,1.67,3.13,3.49,0,.14-.01.31-.02.48h-4.47c.18.83.76,1.26,1.57,1.26.61,0,1.06-.19,1.56-.66l1.04.92c-.6.74-1.46,1.2-2.63,1.2-1.93,0-3.36-1.36-3.36-3.32Zm4.53-.54c-.11-.82-.59-1.37-1.36-1.37s-1.25.54-1.39,1.37h2.75Z"/>
          <path class="mob-cls-7" d="m155.25,211.1h1.82v1.3c.37-.89.97-1.46,2.05-1.42v1.91h-.1c-1.21,0-1.96.73-1.96,2.27v2.37h-1.82v-6.43Z"/>
          <path class="mob-cls-7" d="m163.64,216.06l2.79-2.29c1.04-.86,1.45-1.32,1.45-2.02s-.47-1.09-1.13-1.09-1.09.36-1.71,1.13l-1.3-1.04c.83-1.13,1.63-1.74,3.13-1.74,1.74,0,2.89,1.02,2.89,2.59v.02c0,1.4-.72,2.1-2.21,3.25l-1.37,1.06h3.66v1.6h-6.21v-1.46Z"/>
          <path class="mob-cls-7" d="m171.18,213.35v-.02c0-2.43,1.51-4.34,3.74-4.34s3.72,1.88,3.72,4.32v.02c0,2.43-1.5,4.34-3.74,4.34s-3.72-1.88-3.72-4.32Zm5.57,0v-.02c0-1.52-.74-2.67-1.85-2.67s-1.82,1.12-1.82,2.65v.02c0,1.54.73,2.67,1.85,2.67s1.82-1.13,1.82-2.65Z"/>
          <path class="mob-cls-7" d="m179.76,216.06l2.79-2.29c1.04-.86,1.45-1.32,1.45-2.02s-.47-1.09-1.13-1.09-1.09.36-1.71,1.13l-1.3-1.04c.83-1.13,1.63-1.74,3.13-1.74,1.74,0,2.89,1.02,2.89,2.59v.02c0,1.4-.72,2.1-2.21,3.25l-1.37,1.06h3.66v1.6h-6.21v-1.46Z"/>
          <path class="mob-cls-7" d="m188.78,210.94l-1.46.36-.38-1.51,2.41-.72h1.26v8.46h-1.82v-6.58Z"/>
        </g>
      </g>
      <g id="november_2021_capsule">
        <rect class="mob-cls-1" x="99.44" y="304.35" width="102" height="30" rx="15" ry="15"/>
        <g>
          <path class="mob-cls-7" d="m103.74,315.42h1.7l3.93,5.17v-5.17h1.82v8.4h-1.57l-4.07-5.34v5.34h-1.82v-8.4Z"/>
          <path class="mob-cls-7" d="m112.71,320.64v-.02c0-1.85,1.49-3.35,3.49-3.35s3.47,1.48,3.47,3.32v.02c0,1.85-1.49,3.35-3.49,3.35s-3.47-1.48-3.47-3.32Zm5.16,0v-.02c0-.95-.68-1.77-1.69-1.77s-1.67.8-1.67,1.75v.02c0,.95.68,1.77,1.69,1.77s1.67-.8,1.67-1.75Z"/>
          <path class="mob-cls-7" d="m120.06,317.39h1.93l1.44,4.31,1.45-4.31h1.89l-2.53,6.48h-1.66l-2.53-6.48Z"/>
          <path class="mob-cls-7" d="m127.16,320.64v-.02c0-1.83,1.31-3.35,3.18-3.35,2.15,0,3.13,1.67,3.13,3.49,0,.14-.01.31-.02.48h-4.47c.18.83.76,1.26,1.57,1.26.61,0,1.06-.19,1.56-.66l1.04.92c-.6.74-1.46,1.2-2.63,1.2-1.93,0-3.36-1.36-3.36-3.32Zm4.53-.54c-.11-.82-.59-1.37-1.36-1.37s-1.25.54-1.39,1.37h2.75Z"/>
          <path class="mob-cls-7" d="m134.83,317.39h1.82v.91c.42-.54.97-1.03,1.89-1.03.84,0,1.48.37,1.81,1.02.56-.66,1.24-1.02,2.11-1.02,1.36,0,2.17.82,2.17,2.36v4.19h-1.82v-3.59c0-.86-.38-1.31-1.07-1.31s-1.1.44-1.1,1.31v3.59h-1.82v-3.59c0-.86-.38-1.31-1.07-1.31s-1.1.44-1.1,1.31v3.59h-1.82v-6.43Z"/>
          <path class="mob-cls-7" d="m148.05,322.98v.84h-1.82v-8.76h1.82v3.25c.44-.6,1.06-1.04,2-1.04,1.5,0,2.93,1.18,2.93,3.32v.02c0,2.15-1.4,3.32-2.93,3.32-.97,0-1.57-.44-2-.96Zm3.11-2.36v-.02c0-1.07-.72-1.78-1.57-1.78s-1.56.71-1.56,1.78v.02c0,1.07.71,1.77,1.56,1.77s1.57-.7,1.57-1.77Z"/>
          <path class="mob-cls-7" d="m154.02,320.64v-.02c0-1.83,1.31-3.35,3.18-3.35,2.15,0,3.13,1.67,3.13,3.49,0,.14-.01.31-.02.48h-4.47c.18.83.76,1.26,1.57,1.26.61,0,1.06-.19,1.56-.66l1.04.92c-.6.74-1.46,1.2-2.63,1.2-1.93,0-3.36-1.36-3.36-3.32Zm4.53-.54c-.11-.82-.59-1.37-1.36-1.37s-1.25.54-1.39,1.37h2.75Z"/>
          <path class="mob-cls-7" d="m161.69,317.39h1.82v1.3c.37-.89.97-1.46,2.05-1.42v1.91h-.1c-1.21,0-1.96.73-1.96,2.27v2.37h-1.82v-6.43Z"/>
          <path class="mob-cls-7" d="m170.07,322.35l2.79-2.29c1.04-.86,1.45-1.32,1.45-2.02s-.47-1.09-1.13-1.09-1.09.36-1.71,1.13l-1.3-1.04c.83-1.13,1.63-1.74,3.13-1.74,1.74,0,2.89,1.02,2.89,2.59v.02c0,1.4-.72,2.1-2.21,3.25l-1.37,1.06h3.66v1.6h-6.21v-1.46Z"/>
          <path class="mob-cls-7" d="m177.61,319.64v-.02c0-2.43,1.51-4.34,3.74-4.34s3.72,1.88,3.72,4.32v.02c0,2.43-1.5,4.34-3.74,4.34s-3.72-1.88-3.72-4.32Zm5.57,0v-.02c0-1.52-.74-2.67-1.85-2.67s-1.82,1.12-1.82,2.65v.02c0,1.54.73,2.67,1.85,2.67s1.82-1.13,1.82-2.65Z"/>
          <path class="mob-cls-7" d="m186.19,322.35l2.79-2.29c1.04-.86,1.45-1.32,1.45-2.02s-.47-1.09-1.13-1.09-1.09.36-1.71,1.13l-1.3-1.04c.83-1.13,1.63-1.74,3.13-1.74,1.74,0,2.89,1.02,2.89,2.59v.02c0,1.4-.72,2.1-2.21,3.25l-1.37,1.06h3.66v1.6h-6.21v-1.46Z"/>
          <path class="mob-cls-7" d="m195.21,317.23l-1.46.36-.38-1.51,2.41-.72h1.26v8.46h-1.82v-6.58Z"/>
        </g>
      </g>
      <g id="july_2022_btn" class="timeline--btn" data-name="july_2022">
        <rect class="mob-cls-2" x="96.04" y="426.51" width="105" height="33" rx="16.5" ry="16.5"/>
        <rect class="mob-cls-5 tooltip-mobile" title="Click here" x="97.54" y="428.01" width="102" height="30" rx="15" ry="15"/>
        <g>
          <path class="mob-cls-4" d="m118.84,446.33l1.16-1.3c.48.53.95.84,1.54.84.7,0,1.13-.42,1.13-1.39v-5.41h1.89v5.49c0,1-.29,1.74-.79,2.24-.52.52-1.27.78-2.18.78-1.31,0-2.17-.58-2.75-1.26Z"/>
          <path class="mob-cls-4" d="m126.21,445.21v-4.16h1.82v3.59c0,.86.41,1.31,1.1,1.31s1.14-.44,1.14-1.31v-3.59h1.82v6.43h-1.82v-.91c-.42.54-.96,1.03-1.88,1.03-1.38,0-2.18-.91-2.18-2.39Z"/>
          <path class="mob-cls-4" d="m133.82,438.72h1.82v8.76h-1.82v-8.76Z"/>
          <path class="mob-cls-4" d="m141.58,441.04h1.9l-2.47,6.58c-.49,1.31-1.02,1.8-2.11,1.8-.66,0-1.15-.17-1.62-.44l.61-1.32c.24.14.54.25.78.25.31,0,.48-.1.64-.42l-2.52-6.45h1.93l1.46,4.38,1.4-4.38Z"/>
          <path class="mob-cls-4" d="m147.93,446.01l2.79-2.29c1.04-.86,1.45-1.32,1.45-2.02s-.47-1.09-1.13-1.09-1.09.36-1.71,1.13l-1.3-1.04c.83-1.13,1.63-1.74,3.13-1.74,1.74,0,2.89,1.02,2.89,2.59v.02c0,1.4-.72,2.1-2.21,3.25l-1.37,1.06h3.66v1.6h-6.21v-1.46Z"/>
          <path class="mob-cls-4" d="m155.46,443.3v-.02c0-2.43,1.51-4.34,3.74-4.34s3.72,1.88,3.72,4.32v.02c0,2.43-1.5,4.34-3.74,4.34s-3.72-1.88-3.72-4.32Zm5.57,0v-.02c0-1.52-.74-2.67-1.85-2.67s-1.82,1.12-1.82,2.65v.02c0,1.54.73,2.67,1.85,2.67s1.82-1.13,1.82-2.65Z"/>
          <path class="mob-cls-4" d="m164.04,446.01l2.79-2.29c1.04-.86,1.45-1.32,1.45-2.02s-.47-1.09-1.13-1.09-1.09.36-1.71,1.13l-1.3-1.04c.83-1.13,1.63-1.74,3.13-1.74,1.74,0,2.89,1.02,2.89,2.59v.02c0,1.4-.72,2.1-2.21,3.25l-1.37,1.06h3.66v1.6h-6.21v-1.46Z"/>
          <path class="mob-cls-4" d="m171.52,446.01l2.79-2.29c1.04-.86,1.45-1.32,1.45-2.02s-.47-1.09-1.13-1.09-1.09.36-1.71,1.13l-1.3-1.04c.83-1.13,1.63-1.74,3.13-1.74,1.74,0,2.89,1.02,2.89,2.59v.02c0,1.4-.72,2.1-2.21,3.25l-1.37,1.06h3.66v1.6h-6.21v-1.46Z"/>
        </g>
      </g>
      <g id="een_6weeks">
        <polygon class="mob-cls-3" points="0 315.89 0 198.07 18.89 208.24 37.78 198.07 37.78 315.89 18.89 326.06 0 315.89"/>
        <g>
          <path class="mob-cls-4" d="m7.13,283.91v-6.07h.86v5.12h2.87v-4.58h.86v4.58h2.94v-5.18h.86v6.13H7.13Z"/>
          <path class="mob-cls-4" d="m7.13,275.87v-6.07h.86v5.12h2.87v-4.58h.86v4.58h2.94v-5.18h.86v6.13H7.13Z"/>
          <path class="mob-cls-4" d="m7.13,267.83v-.89l6.73-5.29h-6.73v-.92h8.4v.76l-6.88,5.42h6.88v.92H7.13Z"/>
          <path class="mob-cls-4" d="m10.14,254.55v.85h-.8v-.85h-.54c-.71,0-1.25-.19-1.59-.54-.31-.31-.48-.77-.48-1.33,0-.43.05-.72.16-1.02h.8c-.1.34-.16.59-.16.9,0,.72.43,1.08,1.32,1.08h.5v-1.97h.79v1.96h5.38v.92h-5.38Z"/>
          <path class="mob-cls-4" d="m12.45,251h-.02c-1.75,0-3.24-1.37-3.24-3.24s1.46-3.23,3.21-3.23h.02c1.75,0,3.24,1.38,3.24,3.25s-1.46,3.21-3.21,3.21Zm0-5.52h-.02c-1.33,0-2.42,1-2.42,2.3s1.09,2.27,2.4,2.27h.02c1.33,0,2.41-.98,2.41-2.29s-1.08-2.28-2.39-2.28Z"/>
          <path class="mob-cls-4" d="m9.32,242.87v-.92h1.62c-1.03-.46-1.78-1.35-1.73-2.53h1v.07c0,1.36.97,2.46,2.84,2.46h2.47v.92h-6.2Z"/>
          <path class="mob-cls-4" d="m28.82,284.44c-.67.67-1.54,1.06-3.25,1.06h-.02c-2.55,0-4.56-1.3-4.56-3.49,0-1.01.36-1.75.96-2.48l.73.55c-.53.62-.83,1.21-.83,1.98,0,1.62,1.7,2.47,3.6,2.47h.12c-.8-.55-1.29-1.31-1.29-2.4,0-1.56,1.01-2.9,2.58-2.9h.02c1.62,0,2.79,1.31,2.79,3.01,0,.92-.32,1.68-.85,2.21Zm-1.91-4.25h-.02c-1.03,0-1.8.84-1.8,2.05s.9,2.1,1.83,2.1h.02c1.07,0,1.88-.89,1.88-2.12s-.85-2.03-1.92-2.03Z"/>
          <path class="mob-cls-4" d="m23.32,274.36v-.98l4.98-1.63-5-1.67v-.77l5-1.68-4.98-1.63v-.96l6.25,2.18v.8l-4.89,1.67,4.89,1.68v.82l-6.25,2.17Z"/>
          <path class="mob-cls-4" d="m26.44,264.18h-.02c-1.79,0-3.23-1.26-3.23-2.97,0-1.83,1.46-2.89,3.27-2.89.12,0,.19,0,.3.01v4.92c1.34-.13,2.1-1.08,2.1-2.18,0-.85-.35-1.45-.88-1.95l.52-.58c.7.62,1.16,1.38,1.16,2.55,0,1.7-1.31,3.09-3.23,3.09Zm-.36-4.93c-1.13.1-2.11.74-2.11,1.98,0,1.08.9,1.9,2.11,2.02v-3.99Z"/>
          <path class="mob-cls-4" d="m26.44,257.08h-.02c-1.79,0-3.23-1.26-3.23-2.97,0-1.83,1.46-2.89,3.27-2.89.12,0,.19,0,.3.01v4.92c1.34-.13,2.1-1.08,2.1-2.18,0-.85-.35-1.45-.88-1.95l.52-.58c.7.62,1.16,1.38,1.16,2.55,0,1.7-1.31,3.09-3.23,3.09Zm-.36-4.93c-1.13.1-2.11.74-2.11,1.98,0,1.08.9,1.9,2.11,2.02v-3.99Z"/>
          <path class="mob-cls-4" d="m20.77,249.59v-.92h6.04l-3.49-3.35v-1.15l2.66,2.6,3.54-2.69v1.1l-2.89,2.22,1.27,1.26h1.62v.92h-8.75Z"/>
          <path class="mob-cls-4" d="m28.73,243.36l-.66-.47c.5-.67.79-1.42.79-2.15s-.38-1.28-.98-1.28h-.02c-.62,0-.86.73-1.09,1.55-.28.97-.61,2.05-1.75,2.05h-.02c-1.07,0-1.78-.89-1.78-2.11,0-.76.26-1.6.68-2.23l.7.42c-.37.58-.6,1.24-.6,1.83,0,.73.38,1.2.9,1.2h.02c.59,0,.82-.77,1.07-1.6.29-.96.66-1.99,1.78-1.99h.02c1.18,0,1.86.97,1.86,2.21,0,.89-.35,1.87-.91,2.57Z"/>
        </g>
      </g>
      <g id="prednisolone_8weeks">
        <polygon class="mob-cls-3" points="0 155.57 0 22.93 18.89 33.1 37.78 22.93 37.78 155.57 18.89 165.74 0 155.57"/>
        <g>
          <path class="mob-cls-4" d="m7.13,142.18v-3.14c0-1.9,1.01-3.14,2.66-3.14h.02c1.81,0,2.75,1.51,2.75,3.3v2.04h2.96v.95H7.13Zm4.57-3.02c0-1.39-.74-2.3-1.85-2.3h-.02c-1.2,0-1.82.9-1.82,2.25v2.12h3.69v-2.07Z"/>
          <path class="mob-cls-4" d="m9.32,134.32v-.92h1.62c-1.03-.46-1.78-1.35-1.73-2.53h1v.07c0,1.36.97,2.46,2.84,2.46h2.47v.92h-6.2Z"/>
          <path class="mob-cls-4" d="m12.44,130.1h-.02c-1.79,0-3.23-1.26-3.23-2.97,0-1.83,1.46-2.89,3.27-2.89.12,0,.19,0,.3.01v4.92c1.34-.13,2.1-1.08,2.1-2.18,0-.85-.35-1.45-.88-1.95l.52-.58c.7.62,1.16,1.38,1.16,2.55,0,1.7-1.31,3.09-3.23,3.09Zm-.36-4.93c-1.13.1-2.11.74-2.11,1.98,0,1.08.9,1.9,2.11,2.02v-3.99Z"/>
          <path class="mob-cls-4" d="m12.44,122.98h-.02c-2.03,0-3.23-1.48-3.23-2.96,0-1.15.62-1.9,1.32-2.38h-3.74v-.92h8.75v.92h-1.25c.74.5,1.38,1.24,1.38,2.38,0,1.49-1.17,2.96-3.21,2.96Zm-.01-5.37h-.02c-1.43,0-2.39,1.09-2.39,2.24s.89,2.18,2.39,2.18h.02c1.46,0,2.4-1.01,2.4-2.18s-.97-2.24-2.4-2.24Z"/>
          <path class="mob-cls-4" d="m9.32,114.65v-.92h1.08c-.67-.41-1.21-1.06-1.21-2.12,0-1.5,1.01-2.38,2.48-2.38h3.85v.92h-3.62c-1.15,0-1.87.62-1.87,1.71s.78,1.86,1.94,1.86h3.55v.92h-6.2Z"/>
          <path class="mob-cls-4" d="m6.95,107.23v-1.06h1.02v1.06h-1.02Zm2.38-.06v-.92h6.2v.92h-6.2Z"/>
          <path class="mob-cls-4" d="m14.73,104.62l-.66-.47c.5-.67.79-1.42.79-2.15s-.38-1.28-.98-1.28h-.02c-.62,0-.86.73-1.09,1.55-.28.97-.61,2.05-1.75,2.05h-.02c-1.07,0-1.78-.89-1.78-2.11,0-.76.26-1.6.68-2.23l.7.42c-.37.58-.6,1.24-.6,1.83,0,.73.38,1.2.9,1.2h.02c.59,0,.82-.77,1.07-1.6.29-.96.66-1.99,1.78-1.99h.02c1.18,0,1.86.97,1.86,2.21,0,.89-.35,1.87-.91,2.57Z"/>
          <path class="mob-cls-4" d="m12.45,98.51h-.02c-1.75,0-3.24-1.37-3.24-3.24s1.46-3.23,3.21-3.23h.02c1.75,0,3.24,1.38,3.24,3.25s-1.46,3.21-3.21,3.21Zm0-5.52h-.02c-1.33,0-2.42,1-2.42,2.3s1.09,2.27,2.4,2.27h.02c1.33,0,2.41-.98,2.41-2.29s-1.08-2.28-2.39-2.28Z"/>
          <path class="mob-cls-4" d="m6.77,90.29v-.92h8.75v.92H6.77Z"/>
          <path class="mob-cls-4" d="m12.45,87.6h-.02c-1.75,0-3.24-1.37-3.24-3.24s1.46-3.23,3.21-3.23h.02c1.75,0,3.24,1.38,3.24,3.25s-1.46,3.21-3.21,3.21Zm0-5.52h-.02c-1.33,0-2.42,1-2.42,2.3s1.09,2.27,2.4,2.27h.02c1.33,0,2.41-.98,2.41-2.29s-1.08-2.28-2.39-2.28Z"/>
          <path class="mob-cls-4" d="m9.32,79.47v-.92h1.08c-.67-.41-1.21-1.06-1.21-2.12,0-1.5,1.01-2.38,2.48-2.38h3.85v.92h-3.62c-1.15,0-1.87.62-1.87,1.71s.78,1.86,1.94,1.86h3.55v.92h-6.2Z"/>
          <path class="mob-cls-4" d="m12.44,72.46h-.02c-1.79,0-3.23-1.26-3.23-2.97,0-1.83,1.46-2.89,3.27-2.89.12,0,.19,0,.3.01v4.92c1.34-.13,2.1-1.08,2.1-2.18,0-.85-.35-1.45-.88-1.95l.52-.58c.7.62,1.16,1.38,1.16,2.55,0,1.7-1.31,3.09-3.23,3.09Zm-.36-4.93c-1.13.1-2.11.74-2.11,1.98,0,1.08.9,1.9,2.11,2.02v-3.99Z"/>
          <path class="mob-cls-4" d="m10.14,61.02v.85h-.8v-.85h-.54c-.71,0-1.25-.19-1.59-.54-.31-.31-.48-.77-.48-1.33,0-.43.05-.72.16-1.02h.8c-.1.34-.16.59-.16.9,0,.72.43,1.08,1.32,1.08h.5v-1.97h.79v1.96h5.38v.92h-5.38Z"/>
          <path class="mob-cls-4" d="m12.45,57.47h-.02c-1.75,0-3.24-1.37-3.24-3.24s1.46-3.23,3.21-3.23h.02c1.75,0,3.24,1.38,3.24,3.25s-1.46,3.21-3.21,3.21Zm0-5.52h-.02c-1.33,0-2.42,1-2.42,2.3s1.09,2.27,2.4,2.27h.02c1.33,0,2.41-.98,2.41-2.29s-1.08-2.28-2.39-2.28Z"/>
          <path class="mob-cls-4" d="m9.32,49.33v-.92h1.62c-1.03-.46-1.78-1.35-1.73-2.53h1v.07c0,1.36.97,2.46,2.84,2.46h2.47v.92h-6.2Z"/>
          <path class="mob-cls-4" d="m27.27,117.87h-.02c-1,0-1.7-.72-2.06-1.73-.36.78-.96,1.44-1.93,1.44h-.02c-1.29,0-2.22-1.33-2.22-2.87s.92-2.87,2.22-2.87h.02c.97,0,1.57.66,1.93,1.44.37-1,1.06-1.73,2.05-1.73h.02c1.43,0,2.39,1.37,2.39,3.15s-.97,3.15-2.38,3.15Zm-3.96-5.07h-.02c-.83,0-1.45.83-1.45,1.92s.61,1.92,1.45,1.92h.02c.91,0,1.54-.85,1.54-1.92s-.62-1.92-1.54-1.92Zm3.93-.28h-.02c-.94,0-1.59.97-1.59,2.19s.66,2.19,1.59,2.19h.02c.85,0,1.57-.82,1.57-2.19s-.72-2.19-1.57-2.19Z"/>
          <path class="mob-cls-4" d="m23.32,106.83v-.98l4.98-1.63-5-1.67v-.77l5-1.68-4.98-1.63v-.96l6.25,2.18v.8l-4.89,1.67,4.89,1.68v.82l-6.25,2.17Z"/>
          <path class="mob-cls-4" d="m26.44,96.66h-.02c-1.79,0-3.23-1.26-3.23-2.97,0-1.83,1.46-2.89,3.27-2.89.12,0,.19,0,.3.01v4.92c1.34-.13,2.1-1.08,2.1-2.18,0-.85-.35-1.45-.88-1.95l.52-.58c.7.62,1.16,1.38,1.16,2.55,0,1.7-1.31,3.09-3.23,3.09Zm-.36-4.93c-1.13.1-2.11.74-2.11,1.98,0,1.08.9,1.9,2.11,2.02v-3.99Z"/>
          <path class="mob-cls-4" d="m26.44,89.55h-.02c-1.79,0-3.23-1.26-3.23-2.97,0-1.83,1.46-2.89,3.27-2.89.12,0,.19,0,.3.01v4.92c1.34-.13,2.1-1.08,2.1-2.18,0-.85-.35-1.45-.88-1.95l.52-.58c.7.62,1.16,1.38,1.16,2.55,0,1.7-1.31,3.09-3.23,3.09Zm-.36-4.93c-1.13.1-2.11.74-2.11,1.98,0,1.08.9,1.9,2.11,2.02v-3.99Z"/>
          <path class="mob-cls-4" d="m20.77,82.06v-.92h6.04l-3.49-3.35v-1.15l2.66,2.6,3.54-2.69v1.1l-2.89,2.22,1.27,1.26h1.62v.92h-8.75Z"/>
          <path class="mob-cls-4" d="m28.73,75.84l-.66-.47c.5-.67.79-1.42.79-2.15s-.38-1.28-.98-1.28h-.02c-.62,0-.86.73-1.09,1.55-.28.97-.61,2.05-1.75,2.05h-.02c-1.07,0-1.78-.89-1.78-2.11,0-.76.26-1.6.68-2.23l.7.42c-.37.58-.6,1.24-.6,1.83,0,.73.38,1.2.9,1.2h.02c.59,0,.82-.77,1.07-1.6.29-.96.66-1.99,1.78-1.99h.02c1.18,0,1.86.97,1.86,2.21,0,.89-.35,1.87-.91,2.57Z"/>
        </g>
      </g>
      <g id="azathioprine_5months">
        <polygon class="mob-cls-3" points="47.53 206.81 47.53 70.97 66.42 81.15 85.31 70.97 85.31 206.81 66.42 216.98 47.53 206.81"/>
        <g>
          <path class="mob-cls-4" d="m57.08,185.78v-.89l8.46-3.83v1.02l-2.22.98v4.57l2.22,1v.97l-8.46-3.83Zm5.38-2.34l-4.28,1.91,4.28,1.92v-3.83Z"/>
          <path class="mob-cls-4" d="m64.95,179.93l-4.83-4.11v3.97h-.78v-5.23h.59l4.83,4.13v-4.13h.78v5.37h-.59Z"/>
          <path class="mob-cls-4" d="m63.74,173.36h-.02c-1.31,0-2-1.08-2-2.65,0-.79.11-1.35.26-1.91h-.22c-1.12,0-1.69.68-1.69,1.85,0,.73.19,1.31.46,1.88l-.75.28c-.31-.68-.52-1.36-.52-2.25s.23-1.55.68-2c.42-.42,1.02-.64,1.81-.64h3.79v.89h-.94c.56.43,1.07,1.15,1.07,2.24,0,1.15-.66,2.31-1.93,2.31Zm-.48-4.57h-.6c-.13.46-.26,1.07-.26,1.82,0,1.16.5,1.81,1.28,1.81h.02c.78,0,1.24-.72,1.24-1.56,0-1.14-.7-2.08-1.68-2.08Z"/>
          <path class="mob-cls-4" d="m63.9,165.68h-3.74v.86h-.82v-.86h-1.87v-.92h1.87v-1.97h.82v1.97h3.62c.75,0,1.03-.42,1.03-1.04,0-.31-.06-.58-.22-.9h.79c.17.32.26.67.26,1.12,0,1-.49,1.75-1.75,1.75Z"/>
          <path class="mob-cls-4" d="m56.79,161.16v-.92h3.63c-.67-.41-1.21-1.06-1.21-2.12,0-1.5,1.01-2.38,2.48-2.38h3.85v.92h-3.62c-1.15,0-1.87.62-1.87,1.71s.78,1.86,1.94,1.86h3.55v.92h-8.75Z"/>
          <path class="mob-cls-4" d="m56.96,153.74v-1.06h1.02v1.06h-1.02Zm2.38-.06v-.92h6.2v.92h-6.2Z"/>
          <path class="mob-cls-4" d="m62.47,151h-.02c-1.75,0-3.24-1.37-3.24-3.24s1.46-3.23,3.21-3.23h.02c1.75,0,3.24,1.38,3.24,3.25s-1.46,3.21-3.21,3.21Zm0-5.52h-.02c-1.33,0-2.42,1-2.42,2.3s1.09,2.27,2.4,2.27h.02c1.33,0,2.41-.98,2.41-2.29s-1.08-2.28-2.39-2.28Z"/>
          <path class="mob-cls-4" d="m59.34,142.86v-.92h1.25c-.74-.5-1.38-1.24-1.38-2.37,0-1.49,1.17-2.96,3.21-2.96h.02c2.03,0,3.23,1.46,3.23,2.96,0,1.15-.62,1.9-1.32,2.37h3.11v.92h-8.12Zm3.12-5.31h-.02c-1.46,0-2.4,1.01-2.4,2.18s.97,2.24,2.39,2.24h.02c1.44,0,2.4-1.09,2.4-2.24s-.89-2.18-2.39-2.18Z"/>
          <path class="mob-cls-4" d="m59.34,134.89v-.92h1.62c-1.03-.46-1.78-1.35-1.73-2.53h1v.07c0,1.36.97,2.46,2.84,2.46h2.47v.92h-6.2Z"/>
          <path class="mob-cls-4" d="m56.96,130.01v-1.06h1.02v1.06h-1.02Zm2.38-.06v-.92h6.2v.92h-6.2Z"/>
          <path class="mob-cls-4" d="m59.34,126.88v-.92h1.08c-.67-.41-1.21-1.06-1.21-2.12,0-1.5,1.01-2.38,2.48-2.38h3.85v.92h-3.62c-1.15,0-1.87.62-1.87,1.71s.78,1.86,1.94,1.86h3.55v.92h-6.2Z"/>
          <path class="mob-cls-4" d="m62.46,119.87h-.02c-1.79,0-3.23-1.26-3.23-2.97,0-1.83,1.46-2.89,3.27-2.89.12,0,.19,0,.3.01v4.92c1.34-.13,2.1-1.08,2.1-2.18,0-.85-.35-1.45-.88-1.95l.52-.58c.7.62,1.16,1.38,1.16,2.55,0,1.7-1.31,3.09-3.23,3.09Zm-.36-4.93c-1.13.1-2.11.74-2.11,1.98,0,1.08.9,1.9,2.11,2.02v-3.99Z"/>
          <path class="mob-cls-4" d="m60.16,108.43v.85h-.8v-.85h-.54c-.71,0-1.25-.19-1.59-.54-.31-.31-.48-.77-.48-1.33,0-.43.05-.72.16-1.02h.8c-.1.34-.16.59-.16.9,0,.72.43,1.08,1.32,1.08h.5v-1.97h.79v1.96h5.38v.92h-5.38Z"/>
          <path class="mob-cls-4" d="m62.47,104.88h-.02c-1.75,0-3.24-1.37-3.24-3.24s1.46-3.23,3.21-3.23h.02c1.75,0,3.24,1.38,3.24,3.25s-1.46,3.21-3.21,3.21Zm0-5.52h-.02c-1.33,0-2.42,1-2.42,2.3s1.09,2.27,2.4,2.27h.02c1.33,0,2.41-.98,2.41-2.29s-1.08-2.28-2.39-2.28Z"/>
          <path class="mob-cls-4" d="m59.34,96.74v-.92h1.62c-1.03-.46-1.78-1.35-1.73-2.53h1v.07c0,1.36.97,2.46,2.84,2.46h2.47v.92h-6.2Z"/>
          <path class="mob-cls-4" d="m78.35,168.7l-.68-.62c.71-.73,1.15-1.54,1.15-2.39,0-1.2-.79-2.03-1.86-2.03h-.02c-1.04,0-1.76.86-1.76,2.09,0,.71.22,1.27.48,1.76l-.42.64-4.09-.24v-4.83h.88v4.01l2.69.18c-.22-.49-.37-.96-.37-1.66,0-1.63.97-2.9,2.57-2.9h.02c1.64,0,2.76,1.25,2.76,3,0,1.2-.58,2.24-1.33,3Z"/>
          <path class="mob-cls-4" d="m73.34,157.36v-.92h1.04c-.61-.41-1.17-.96-1.17-2s.54-1.65,1.23-1.99c-.68-.44-1.23-1.1-1.23-2.18,0-1.43.96-2.3,2.49-2.3h3.84v.92h-3.62c-1.2,0-1.87.6-1.87,1.61,0,.94.7,1.72,1.92,1.72h3.57v.91h-3.65c-1.16,0-1.85.61-1.85,1.59s.82,1.73,1.96,1.73h3.54v.92h-6.2Z"/>
          <path class="mob-cls-4" d="m76.47,146.37h-.02c-1.75,0-3.24-1.37-3.24-3.24s1.46-3.23,3.21-3.23h.02c1.75,0,3.24,1.38,3.24,3.25s-1.46,3.21-3.21,3.21Zm0-5.52h-.02c-1.33,0-2.42,1-2.42,2.3s1.09,2.27,2.4,2.27h.02c1.33,0,2.41-.98,2.41-2.29s-1.08-2.28-2.39-2.28Z"/>
          <path class="mob-cls-4" d="m73.34,138.23v-.92h1.08c-.67-.41-1.21-1.06-1.21-2.12,0-1.5,1.01-2.38,2.48-2.38h3.85v.92h-3.62c-1.15,0-1.87.62-1.87,1.71s.78,1.86,1.94,1.86h3.55v.92h-6.2Z"/>
          <path class="mob-cls-4" d="m77.9,130.52h-3.74v.86h-.82v-.86h-1.87v-.92h1.87v-1.97h.82v1.97h3.62c.75,0,1.03-.42,1.03-1.04,0-.31-.06-.58-.22-.9h.79c.17.32.26.67.26,1.12,0,1-.49,1.75-1.75,1.75Z"/>
          <path class="mob-cls-4" d="m70.79,125.99v-.92h3.63c-.67-.41-1.21-1.06-1.21-2.12,0-1.5,1.01-2.38,2.48-2.38h3.85v.92h-3.62c-1.15,0-1.87.62-1.87,1.71s.78,1.86,1.94,1.86h3.55v.92h-8.75Z"/>
          <path class="mob-cls-4" d="m78.75,119.12l-.66-.47c.5-.67.79-1.42.79-2.15s-.38-1.28-.98-1.28h-.02c-.62,0-.86.73-1.09,1.55-.28.97-.61,2.05-1.75,2.05h-.02c-1.07,0-1.78-.89-1.78-2.11,0-.76.26-1.6.68-2.23l.7.42c-.37.58-.6,1.24-.6,1.83,0,.73.38,1.2.9,1.2h.02c.59,0,.82-.77,1.07-1.6.29-.96.66-1.99,1.78-1.99h.02c1.18,0,1.86.97,1.86,2.21,0,.89-.35,1.87-.91,2.57Z"/>
        </g>
      </g>
      <g id="entyvio_treatment">
        <polygon class="mob-cls-7" points="47.53 447.47 47.53 304.35 66.42 314.53 85.31 304.35 85.31 447.47 66.42 457.65 47.53 447.47"/>
        <g>
          <path class="mob-cls-4" d="m57.14,444.17v-6.07h.86v5.12h2.87v-4.58h.86v4.58h2.94v-5.18h.86v6.13h-8.4Z"/>
          <path class="mob-cls-4" d="m59.34,436.59v-.92h1.08c-.67-.41-1.21-1.06-1.21-2.12,0-1.5,1.01-2.38,2.48-2.38h3.85v.92h-3.62c-1.15,0-1.87.62-1.87,1.71s.78,1.86,1.94,1.86h3.55v.92h-6.2Z"/>
          <path class="mob-cls-4" d="m63.9,429.17h-3.74v.86h-.82v-.86h-1.87v-.92h1.87v-1.97h.82v1.97h3.62c.75,0,1.03-.42,1.03-1.04,0-.31-.06-.58-.22-.9h.79c.17.32.26.67.26,1.12,0,1-.49,1.75-1.75,1.75Z"/>
          <path class="mob-cls-4" d="m59.34,420.3v-.98l6.4,2.6c1.28.53,1.75,1.13,1.75,2.06,0,.52-.11.9-.31,1.32l-.73-.31c.16-.3.23-.58.23-.97,0-.55-.29-.9-1.16-1.27l-6.18,2.82v-1.02l5.17-2.25-5.17-1.99Z"/>
          <path class="mob-cls-4" d="m59.34,418.95v-1.02l5.14-2.09-5.14-2.1v-1l6.25,2.7v.82l-6.25,2.69Z"/>
          <path class="mob-cls-4" d="m56.96,411.57v-1.06h1.02v1.06h-1.02Zm2.38-.06v-.92h6.2v.92h-6.2Z"/>
          <path class="mob-cls-4" d="m62.47,409.12h-.02c-1.75,0-3.24-1.37-3.24-3.24s1.46-3.23,3.21-3.23h.02c1.75,0,3.24,1.38,3.24,3.25s-1.46,3.21-3.21,3.21Zm0-5.52h-.02c-1.33,0-2.42,1-2.42,2.3s1.09,2.27,2.4,2.27h.02c1.33,0,2.41-.98,2.41-2.29s-1.08-2.28-2.39-2.28Z"/>
          <path class="mob-cls-4" d="m62.1,398.2c-2.21,0-3.93-1.19-5.13-3.32l.61-.4c1.16,1.82,2.6,2.78,4.52,2.78s3.36-.96,4.52-2.78l.61.4c-1.2,2.13-2.93,3.32-5.13,3.32Z"/>
          <path class="mob-cls-4" d="m59.34,393.69v-1.02l5.14-2.09-5.14-2.1v-1l6.25,2.7v.82l-6.25,2.69Z"/>
          <path class="mob-cls-4" d="m62.46,387.07h-.02c-1.79,0-3.23-1.26-3.23-2.97,0-1.83,1.46-2.89,3.27-2.89.12,0,.19,0,.3.01v4.92c1.34-.13,2.1-1.08,2.1-2.18,0-.85-.35-1.45-.88-1.95l.52-.58c.7.62,1.16,1.38,1.16,2.55,0,1.7-1.31,3.09-3.23,3.09Zm-.36-4.93c-1.13.1-2.11.74-2.11,1.98,0,1.08.9,1.9,2.11,2.02v-3.99Z"/>
          <path class="mob-cls-4" d="m62.46,380.25h-.02c-2.03,0-3.23-1.48-3.23-2.96,0-1.15.62-1.9,1.32-2.38h-3.74v-.92h8.75v.92h-1.25c.74.5,1.38,1.24,1.38,2.38,0,1.49-1.17,2.96-3.21,2.96Zm-.01-5.37h-.02c-1.43,0-2.39,1.09-2.39,2.24s.89,2.18,2.39,2.18h.02c1.46,0,2.4-1.01,2.4-2.18s-.97-2.24-2.4-2.24Z"/>
          <path class="mob-cls-4" d="m62.47,372.6h-.02c-1.75,0-3.24-1.37-3.24-3.24s1.46-3.23,3.21-3.23h.02c1.75,0,3.24,1.38,3.24,3.25s-1.46,3.21-3.21,3.21Zm0-5.52h-.02c-1.33,0-2.42,1-2.42,2.3s1.09,2.27,2.4,2.27h.02c1.33,0,2.41-.98,2.41-2.29s-1.08-2.28-2.39-2.28Z"/>
          <path class="mob-cls-4" d="m56.78,364.68v-.92h8.75v.92h-8.75Z"/>
          <path class="mob-cls-4" d="m56.96,361.89v-1.06h1.02v1.06h-1.02Zm2.38-.06v-.92h6.2v.92h-6.2Z"/>
          <path class="mob-cls-4" d="m64.95,359.42l-4.83-4.11v3.97h-.78v-5.23h.59l4.83,4.13v-4.13h.78v5.37h-.59Z"/>
          <path class="mob-cls-4" d="m63.19,352.78h-3.85v-.92h3.62c1.15,0,1.87-.62,1.87-1.72s-.78-1.86-1.94-1.86h-3.55v-.91h6.2v.91h-1.08c.67.42,1.21,1.06,1.21,2.12,0,1.5-1.01,2.37-2.48,2.37Z"/>
          <path class="mob-cls-4" d="m59.34,345.59v-.92h1.04c-.61-.41-1.17-.96-1.17-2s.54-1.65,1.23-1.99c-.68-.44-1.23-1.1-1.23-2.18,0-1.43.96-2.3,2.49-2.3h3.84v.92h-3.62c-1.2,0-1.87.6-1.87,1.61,0,.94.7,1.72,1.92,1.72h3.57v.91h-3.65c-1.16,0-1.85.61-1.85,1.59s.82,1.73,1.96,1.73h3.54v.92h-6.2Z"/>
          <path class="mob-cls-4" d="m63.74,334.98h-.02c-1.31,0-2-1.08-2-2.65,0-.79.11-1.35.26-1.91h-.22c-1.12,0-1.69.68-1.69,1.85,0,.73.19,1.31.46,1.88l-.75.28c-.31-.68-.52-1.36-.52-2.25s.23-1.55.68-2c.42-.42,1.02-.64,1.81-.64h3.79v.89h-.94c.56.43,1.07,1.15,1.07,2.24,0,1.15-.66,2.31-1.93,2.31Zm-.48-4.57h-.6c-.13.46-.26,1.07-.26,1.82,0,1.16.5,1.81,1.28,1.81h.02c.78,0,1.24-.72,1.24-1.56,0-1.14-.7-2.08-1.68-2.08Z"/>
          <path class="mob-cls-4" d="m64.35,326.94h1.19v.92h-8.75v-.92h3.8c-.74-.5-1.38-1.24-1.38-2.37,0-1.49,1.17-2.96,3.21-2.96h.02c2.03,0,3.23,1.46,3.23,2.96,0,1.15-.62,1.9-1.32,2.37Zm-1.89-4.39h-.02c-1.46,0-2.4,1.01-2.4,2.18s.97,2.24,2.39,2.24h.02c1.44,0,2.4-1.09,2.4-2.24s-.89-2.18-2.39-2.18Z"/>
          <path class="mob-cls-4" d="m66.62,320.92c-1.16-1.82-2.6-2.78-4.52-2.78s-3.36.96-4.52,2.78l-.61-.4c1.2-2.13,2.93-3.32,5.13-3.32s3.93,1.19,5.13,3.32l-.61.4Z"/>
          <path class="mob-cls-4" d="m77.9,407.82h-3.74v.86h-.82v-.86h-1.87v-.92h1.87v-1.97h.82v1.97h3.62c.75,0,1.03-.42,1.03-1.04,0-.31-.06-.58-.22-.9h.79c.17.32.26.67.26,1.12,0,1-.49,1.75-1.75,1.75Z"/>
          <path class="mob-cls-4" d="m73.34,403.59v-.92h1.62c-1.03-.46-1.78-1.35-1.73-2.53h1v.07c0,1.36.97,2.46,2.84,2.46h2.47v.92h-6.2Z"/>
          <path class="mob-cls-4" d="m76.46,399.68h-.02c-1.79,0-3.23-1.26-3.23-2.97,0-1.83,1.46-2.89,3.27-2.89.12,0,.19,0,.3.01v4.92c1.34-.13,2.1-1.08,2.1-2.18,0-.85-.35-1.45-.88-1.95l.52-.58c.7.62,1.16,1.38,1.16,2.55,0,1.7-1.31,3.09-3.23,3.09Zm-.36-4.93c-1.13.1-2.11.74-2.11,1.98,0,1.08.9,1.9,2.11,2.02v-3.99Z"/>
          <path class="mob-cls-4" d="m77.74,392.96h-.02c-1.31,0-2-1.08-2-2.65,0-.79.11-1.35.26-1.91h-.22c-1.12,0-1.69.68-1.69,1.85,0,.73.19,1.31.46,1.88l-.75.28c-.31-.68-.52-1.36-.52-2.25s.23-1.55.68-2c.42-.42,1.02-.64,1.81-.64h3.79v.89h-.94c.56.43,1.07,1.15,1.07,2.24,0,1.15-.66,2.31-1.93,2.31Zm-.48-4.57h-.6c-.13.46-.26,1.07-.26,1.82,0,1.16.5,1.81,1.28,1.81h.02c.78,0,1.24-.72,1.24-1.56,0-1.14-.7-2.08-1.68-2.08Z"/>
          <path class="mob-cls-4" d="m77.9,385.58h-3.74v.86h-.82v-.86h-1.87v-.92h1.87v-1.97h.82v1.97h3.62c.75,0,1.03-.42,1.03-1.04,0-.31-.06-.58-.22-.9h.79c.17.32.26.67.26,1.12,0,1-.49,1.75-1.75,1.75Z"/>
          <path class="mob-cls-4" d="m73.34,381.36v-.92h1.04c-.61-.41-1.17-.96-1.17-2s.54-1.65,1.23-1.99c-.68-.44-1.23-1.1-1.23-2.18,0-1.43.96-2.3,2.49-2.3h3.84v.92h-3.62c-1.2,0-1.87.6-1.87,1.61,0,.94.7,1.72,1.92,1.72h3.57v.91h-3.65c-1.16,0-1.85.61-1.85,1.6s.82,1.73,1.96,1.73h3.54v.92h-6.2Z"/>
          <path class="mob-cls-4" d="m76.46,370.67h-.02c-1.79,0-3.23-1.26-3.23-2.97,0-1.83,1.46-2.89,3.27-2.89.12,0,.19,0,.3.01v4.92c1.34-.13,2.1-1.08,2.1-2.18,0-.85-.35-1.45-.88-1.95l.52-.58c.7.62,1.16,1.38,1.16,2.55,0,1.7-1.31,3.09-3.23,3.09Zm-.36-4.93c-1.13.1-2.11.74-2.11,1.98,0,1.08.9,1.9,2.11,2.02v-3.99Z"/>
          <path class="mob-cls-4" d="m73.34,363.48v-.92h1.08c-.67-.41-1.21-1.06-1.21-2.12,0-1.5,1.01-2.38,2.48-2.38h3.85v.92h-3.62c-1.15,0-1.87.62-1.87,1.71s.78,1.86,1.94,1.86h3.55v.92h-6.2Z"/>
          <path class="mob-cls-4" d="m77.9,356.06h-3.74v.86h-.82v-.86h-1.87v-.92h1.87v-1.97h.82v1.97h3.62c.75,0,1.03-.42,1.03-1.04,0-.31-.06-.58-.22-.9h.79c.17.32.26.67.26,1.12,0,1-.49,1.75-1.75,1.75Z"/>
        </g>
      </g>
    </g>
  </g>
</svg>