<?xml version="1.0" encoding="UTF-8"?>
<svg id="rohan_disease_behaviour_svg_desktop" data-name="rohan_disease_behaviour_svg_desktop" xmlns="http://www.w3.org/2000/svg" xmlns:xlink="http://www.w3.org/1999/xlink" viewBox="0 0 948.5 479.46">
  <defs>
    <style>
      .cls-desktop-1 {
        fill: url(#linear-gradient-desktop);
      }

      .cls-desktop-1, .cls-desktop-2, .cls-desktop-3, .cls-desktop-4, .cls-desktop-5, .cls-desktop-6, .cls-desktop-7, .cls-desktop-8, .cls-desktop-9, .cls-desktop-10, .cls-desktop-11, .cls-desktop-12, .cls-desktop-13, .cls-desktop-14 {
        stroke-width: 0px;
      }

      .cls-desktop-15 {
        fill: none;
        stroke: #872780;
        stroke-miterlimit: 10;
        stroke-width: 2px;
      }

      .cls-desktop-2, .cls-desktop-8, .cls-desktop-14 {
        opacity: .75;
      }

      .cls-desktop-2, .cls-desktop-13 {
        fill: #d2c4cf;
      }

      .cls-desktop-3 {
        fill: #010101;
      }

      .cls-desktop-4 {
        fill: #fff;
      }

      .cls-desktop-5 {
        fill: url(#linear-gradient-desktop-2);
      }

      .cls-desktop-6, .cls-desktop-8 {
        fill: #9d5b8f;
      }

      .cls-desktop-7 {
        fill: #828386;
      }

      .cls-desktop-9 {
        fill: url(#linear-gradient-desktop-3);
      }

      .cls-desktop-10 {
        fill: #231f20;
      }

      .cls-desktop-11, .cls-desktop-14 {
        fill: #6a2062;
      }

      .cls-desktop-12 {
        fill: #872780;
      }
    </style>
    <linearGradient id="linear-gradient-desktop" x1="842.17" y1="-1317.95" x2="842.17" y2="-1275.06" gradientTransform="translate(-303.31 1318.22)" gradientUnits="userSpaceOnUse">
      <stop offset="0" stop-color="#bebdbd"/>
      <stop offset="1" stop-color="#fff"/>
    </linearGradient>
    <linearGradient id="linear-gradient-desktop-2" x1="842.17" y1="-1315.97" x2="842.17" y2="-1276.98" gradientTransform="translate(-303.31 1318.22)" gradientUnits="userSpaceOnUse">
      <stop offset="0" stop-color="#bebdbd"/>
      <stop offset=".2" stop-color="#c6c6c7"/>
      <stop offset=".68" stop-color="#d8d9dc"/>
      <stop offset="1" stop-color="#dfe0e4"/>
    </linearGradient>
    <linearGradient id="linear-gradient-desktop-3" x1="842.17" y1="-1315.97" x2="842.17" y2="-1276.98" gradientTransform="translate(-303.31 1318.22)" gradientUnits="userSpaceOnUse">
      <stop offset="0" stop-color="#872780"/>
      <stop offset=".2" stop-color="#9b2e69"/>
      <stop offset=".53" stop-color="#b9394a"/>
      <stop offset=".81" stop-color="#cb3f36"/>
      <stop offset="1" stop-color="#d24230"/>
    </linearGradient>
  </defs>
  <g id="patient_rohan_disease_behaviour_desktop">
    <g id="rohan_disease_behaviour_desktop">
      <g id="graph_button" class="graph--btn">
        <g id="active_behaviour_btn" class="active-btn">
          <rect class="cls-desktop-1" x="404.29" y="0" width="269.13" height="44" rx="22" ry="22"/>
          <rect class="cls-desktop-5" x="406.29" y="2" width="265.13" height="40" rx="20" ry="20"/>
          <g>
            <path class="cls-desktop-7" d="m422.19,22.39v-.03c0-3.17,2.37-5.79,5.67-5.79,2.03,0,3.25.72,4.37,1.78l-.86.93c-.94-.9-2-1.54-3.52-1.54-2.48,0-4.34,2.02-4.34,4.59v.03c0,2.59,1.87,4.62,4.34,4.62,1.54,0,2.54-.59,3.62-1.62l.83.82c-1.17,1.18-2.45,1.97-4.48,1.97-3.23,0-5.62-2.54-5.62-5.76Z"/>
            <path class="cls-desktop-7" d="m434.35,16.27h1.23v4.85c.54-.9,1.41-1.62,2.83-1.62,2,0,3.17,1.34,3.17,3.31v5.14h-1.23v-4.83c0-1.54-.83-2.5-2.29-2.5s-2.48,1.04-2.48,2.59v4.74h-1.23v-11.68Z"/>
            <path class="cls-desktop-7" d="m443.58,25.56v-.03c0-1.75,1.44-2.67,3.54-2.67,1.06,0,1.81.14,2.55.35v-.29c0-1.49-.91-2.26-2.47-2.26-.98,0-1.74.26-2.51.61l-.37-1.01c.91-.42,1.81-.69,3.01-.69s2.06.3,2.67.91c.56.56.85,1.36.85,2.42v5.06h-1.18v-1.25c-.58.75-1.54,1.42-2.99,1.42-1.54,0-3.09-.88-3.09-2.58Zm6.1-.64v-.8c-.61-.18-1.42-.35-2.43-.35-1.55,0-2.42.67-2.42,1.71v.03c0,1.04.96,1.65,2.08,1.65,1.52,0,2.77-.93,2.77-2.24Z"/>
            <path class="cls-desktop-7" d="m453.47,19.68h1.23v1.44c.54-.9,1.41-1.62,2.83-1.62,2,0,3.17,1.34,3.17,3.31v5.14h-1.23v-4.83c0-1.54-.83-2.5-2.29-2.5s-2.48,1.04-2.48,2.59v4.74h-1.23v-8.28Z"/>
            <path class="cls-desktop-7" d="m463.23,29.4l.56-.96c.94.69,2,1.06,3.19,1.06,1.82,0,3.01-1.01,3.01-2.95v-.98c-.72.96-1.73,1.75-3.25,1.75-1.98,0-3.89-1.49-3.89-3.87v-.03c0-2.42,1.92-3.91,3.89-3.91,1.55,0,2.56.77,3.23,1.67v-1.49h1.23v6.83c0,1.28-.38,2.26-1.06,2.93-.74.74-1.84,1.1-3.15,1.1s-2.66-.38-3.76-1.15Zm6.79-5.97v-.03c0-1.7-1.47-2.8-3.04-2.8s-2.87,1.09-2.87,2.79v.03c0,1.67,1.33,2.82,2.87,2.82s3.04-1.14,3.04-2.8Z"/>
            <path class="cls-desktop-7" d="m473.43,23.84v-.03c0-2.38,1.68-4.31,3.97-4.31,2.45,0,3.86,1.95,3.86,4.37,0,.16,0,.26-.02.4h-6.56c.18,1.79,1.44,2.8,2.91,2.8,1.14,0,1.94-.46,2.61-1.17l.77.69c-.83.93-1.84,1.55-3.41,1.55-2.27,0-4.13-1.75-4.13-4.31Zm6.58-.48c-.13-1.5-.99-2.82-2.64-2.82-1.44,0-2.53,1.2-2.69,2.82h5.33Z"/>
            <path class="cls-desktop-7" d="m482.73,26.9l.62-.88c.9.67,1.89,1.06,2.87,1.06s1.71-.51,1.71-1.31v-.03c0-.83-.98-1.15-2.06-1.46-1.3-.37-2.74-.82-2.74-2.34v-.03c0-1.42,1.18-2.37,2.82-2.37,1.01,0,2.13.35,2.98.91l-.56.93c-.77-.5-1.65-.8-2.45-.8-.98,0-1.6.51-1.6,1.2v.03c0,.78,1.02,1.09,2.13,1.42,1.28.38,2.66.88,2.66,2.37v.03c0,1.57-1.3,2.48-2.95,2.48-1.18,0-2.5-.46-3.43-1.22Z"/>
            <path class="cls-desktop-7" d="m496.22,16.51h1.41v1.36h-1.41v-1.36Zm.08,3.17h1.23v8.28h-1.23v-8.28Z"/>
            <path class="cls-desktop-7" d="m500.39,19.68h1.23v1.44c.54-.9,1.41-1.62,2.83-1.62,2,0,3.17,1.34,3.17,3.31v5.14h-1.23v-4.83c0-1.54-.83-2.5-2.29-2.5s-2.48,1.04-2.48,2.59v4.74h-1.23v-8.28Z"/>
            <path class="cls-desktop-7" d="m514.57,23.84v-.03c0-2.71,1.97-4.31,3.95-4.31,1.54,0,2.53.83,3.17,1.76v-4.99h1.23v11.68h-1.23v-1.66c-.67.99-1.65,1.84-3.17,1.84-1.98,0-3.95-1.57-3.95-4.29Zm7.17-.02v-.03c0-1.91-1.46-3.19-2.99-3.19s-2.91,1.18-2.91,3.19v.03c0,1.95,1.34,3.2,2.91,3.2s2.99-1.3,2.99-3.2Z"/>
            <path class="cls-desktop-7" d="m525.7,16.51h1.41v1.36h-1.41v-1.36Zm.08,3.17h1.23v8.28h-1.23v-8.28Z"/>
            <path class="cls-desktop-7" d="m529.19,26.9l.62-.88c.9.67,1.89,1.06,2.87,1.06s1.71-.51,1.71-1.31v-.03c0-.83-.98-1.15-2.06-1.46-1.3-.37-2.74-.82-2.74-2.34v-.03c0-1.42,1.18-2.37,2.82-2.37,1.01,0,2.13.35,2.98.91l-.56.93c-.77-.5-1.65-.8-2.45-.8-.98,0-1.6.51-1.6,1.2v.03c0,.78,1.02,1.09,2.13,1.42,1.28.38,2.66.88,2.66,2.37v.03c0,1.57-1.3,2.48-2.95,2.48-1.18,0-2.5-.46-3.43-1.22Z"/>
            <path class="cls-desktop-7" d="m537.33,23.84v-.03c0-2.38,1.68-4.31,3.97-4.31,2.45,0,3.86,1.95,3.86,4.37,0,.16,0,.26-.02.4h-6.56c.18,1.79,1.44,2.8,2.91,2.8,1.14,0,1.94-.46,2.61-1.17l.77.69c-.83.93-1.84,1.55-3.41,1.55-2.27,0-4.13-1.75-4.13-4.31Zm6.58-.48c-.13-1.5-.99-2.82-2.64-2.82-1.44,0-2.53,1.2-2.69,2.82h5.33Z"/>
            <path class="cls-desktop-7" d="m546.7,25.56v-.03c0-1.75,1.44-2.67,3.54-2.67,1.06,0,1.81.14,2.55.35v-.29c0-1.49-.91-2.26-2.47-2.26-.98,0-1.74.26-2.51.61l-.37-1.01c.91-.42,1.81-.69,3.01-.69s2.06.3,2.67.91c.56.56.85,1.36.85,2.42v5.06h-1.18v-1.25c-.58.75-1.54,1.42-2.99,1.42-1.54,0-3.09-.88-3.09-2.58Zm6.1-.64v-.8c-.61-.18-1.42-.35-2.43-.35-1.55,0-2.42.67-2.42,1.71v.03c0,1.04.96,1.65,2.08,1.65,1.52,0,2.77-.93,2.77-2.24Z"/>
            <path class="cls-desktop-7" d="m555.9,26.9l.62-.88c.9.67,1.89,1.06,2.87,1.06s1.71-.51,1.71-1.31v-.03c0-.83-.98-1.15-2.06-1.46-1.3-.37-2.74-.82-2.74-2.34v-.03c0-1.42,1.18-2.37,2.82-2.37,1.01,0,2.13.35,2.98.91l-.56.93c-.77-.5-1.65-.8-2.45-.8-.98,0-1.6.51-1.6,1.2v.03c0,.78,1.02,1.09,2.13,1.42,1.28.38,2.66.88,2.66,2.37v.03c0,1.57-1.3,2.48-2.95,2.48-1.18,0-2.5-.46-3.43-1.22Z"/>
            <path class="cls-desktop-7" d="m564.04,23.84v-.03c0-2.38,1.68-4.31,3.97-4.31,2.45,0,3.86,1.95,3.86,4.37,0,.16,0,.26-.02.4h-6.56c.18,1.79,1.44,2.8,2.91,2.8,1.14,0,1.94-.46,2.61-1.17l.77.69c-.83.93-1.84,1.55-3.41,1.55-2.27,0-4.13-1.75-4.13-4.31Zm6.58-.48c-.13-1.5-.99-2.82-2.64-2.82-1.44,0-2.53,1.2-2.69,2.82h5.33Z"/>
            <path class="cls-desktop-7" d="m580.06,26.37v1.58h-1.23v-11.68h1.23v5.07c.67-.99,1.65-1.84,3.17-1.84,1.98,0,3.95,1.57,3.95,4.29v.03c0,2.71-1.95,4.31-3.95,4.31-1.54,0-2.53-.83-3.17-1.76Zm5.86-2.53v-.03c0-1.95-1.34-3.2-2.91-3.2s-2.99,1.3-2.99,3.19v.03c0,1.92,1.46,3.2,2.99,3.2s2.91-1.18,2.91-3.19Z"/>
            <path class="cls-desktop-7" d="m588.93,23.84v-.03c0-2.38,1.68-4.31,3.97-4.31,2.45,0,3.86,1.95,3.86,4.37,0,.16,0,.26-.02.4h-6.56c.18,1.79,1.44,2.8,2.91,2.8,1.14,0,1.94-.46,2.61-1.17l.77.69c-.83.93-1.84,1.55-3.41,1.55-2.27,0-4.13-1.75-4.13-4.31Zm6.58-.48c-.13-1.5-.99-2.82-2.64-2.82-1.44,0-2.53,1.2-2.69,2.82h5.33Z"/>
            <path class="cls-desktop-7" d="m598.92,16.27h1.23v4.85c.54-.9,1.41-1.62,2.83-1.62,2,0,3.17,1.34,3.17,3.31v5.14h-1.23v-4.83c0-1.54-.83-2.5-2.29-2.5s-2.48,1.04-2.48,2.59v4.74h-1.23v-11.68Z"/>
            <path class="cls-desktop-7" d="m608.15,25.56v-.03c0-1.75,1.44-2.67,3.54-2.67,1.06,0,1.81.14,2.55.35v-.29c0-1.49-.91-2.26-2.47-2.26-.98,0-1.74.26-2.51.61l-.37-1.01c.91-.42,1.81-.69,3.01-.69s2.06.3,2.67.91c.56.56.85,1.36.85,2.42v5.06h-1.18v-1.25c-.58.75-1.54,1.42-2.99,1.42-1.54,0-3.09-.88-3.09-2.58Zm6.1-.64v-.8c-.61-.18-1.42-.35-2.43-.35-1.55,0-2.42.67-2.42,1.71v.03c0,1.04.96,1.65,2.08,1.65,1.52,0,2.77-.93,2.77-2.24Z"/>
            <path class="cls-desktop-7" d="m616.9,19.68h1.36l2.79,6.87,2.8-6.87h1.33l-3.6,8.34h-1.09l-3.59-8.34Z"/>
            <path class="cls-desktop-7" d="m627.14,16.51h1.41v1.36h-1.41v-1.36Zm.08,3.17h1.23v8.28h-1.23v-8.28Z"/>
            <path class="cls-desktop-7" d="m630.81,23.86v-.03c0-2.34,1.82-4.32,4.32-4.32s4.31,1.95,4.31,4.29v.03c0,2.34-1.84,4.32-4.34,4.32s-4.29-1.95-4.29-4.29Zm7.36,0v-.03c0-1.78-1.33-3.23-3.07-3.23s-3.03,1.46-3.03,3.2v.03c0,1.78,1.31,3.22,3.06,3.22s3.04-1.44,3.04-3.19Z"/>
            <path class="cls-desktop-7" d="m641.53,24.82v-5.14h1.23v4.83c0,1.54.83,2.5,2.29,2.5s2.48-1.04,2.48-2.59v-4.74h1.22v8.28h-1.22v-1.44c-.56.9-1.41,1.62-2.83,1.62-2,0-3.17-1.34-3.17-3.31Z"/>
            <path class="cls-desktop-7" d="m651.51,19.68h1.23v2.16c.61-1.38,1.81-2.37,3.38-2.3v1.33h-.1c-1.81,0-3.28,1.3-3.28,3.79v3.3h-1.23v-8.28Z"/>
          </g>
        </g>
        <g id="behaviour_btn" class="inactive-btn">
          <rect class="cls-desktop-1" x="404.29" y="0" width="269.13" height="44" rx="22" ry="22"/>
          <rect class="cls-desktop-9" x="406.29" y="2" width="265.13" height="40" rx="20" ry="20"/>
          <g>
            <path class="cls-desktop-4" d="m419.07,22.39v-.03c0-3.19,2.4-5.79,5.84-5.79,2.11,0,3.38.7,4.42,1.73l-1.57,1.81c-.86-.78-1.75-1.26-2.87-1.26-1.89,0-3.25,1.57-3.25,3.49v.03c0,1.92,1.33,3.52,3.25,3.52,1.28,0,2.06-.51,2.95-1.31l1.57,1.58c-1.15,1.23-2.43,2-4.59,2-3.3,0-5.75-2.54-5.75-5.76Z"/>
            <path class="cls-desktop-4" d="m431.11,16.27h2.43v4.32c.56-.72,1.28-1.38,2.51-1.38,1.84,0,2.91,1.22,2.91,3.19v5.55h-2.43v-4.79c0-1.15-.54-1.74-1.47-1.74s-1.52.59-1.52,1.74v4.79h-2.43v-11.68Z"/>
            <path class="cls-desktop-4" d="m440.57,25.49v-.03c0-1.87,1.42-2.74,3.46-2.74.86,0,1.49.14,2.1.35v-.14c0-1.01-.62-1.57-1.84-1.57-.93,0-1.58.18-2.37.46l-.61-1.86c.94-.42,1.87-.69,3.33-.69,1.33,0,2.29.35,2.9.96.64.64.93,1.58.93,2.74v4.98h-2.35v-.93c-.59.66-1.41,1.09-2.59,1.09-1.62,0-2.95-.93-2.95-2.62Zm5.59-.56v-.43c-.42-.19-.96-.32-1.55-.32-1.04,0-1.68.42-1.68,1.18v.03c0,.66.54,1.04,1.33,1.04,1.14,0,1.9-.62,1.9-1.5Z"/>
            <path class="cls-desktop-4" d="m450.55,19.38h2.43v1.22c.56-.72,1.28-1.38,2.51-1.38,1.84,0,2.91,1.22,2.91,3.19v5.55h-2.43v-4.79c0-1.15-.54-1.74-1.47-1.74s-1.52.59-1.52,1.74v4.79h-2.43v-8.58Z"/>
            <path class="cls-desktop-4" d="m460.57,29.65l.83-1.82c.88.5,1.76.78,2.9.78,1.67,0,2.45-.8,2.45-2.34v-.42c-.72.86-1.5,1.39-2.8,1.39-2,0-3.81-1.46-3.81-4v-.03c0-2.56,1.84-4,3.81-4,1.33,0,2.11.56,2.77,1.28v-1.12h2.43v6.64c0,1.54-.37,2.66-1.09,3.38-.8.8-2.03,1.15-3.7,1.15-1.39,0-2.71-.32-3.79-.9Zm6.18-6.4v-.03c0-1.17-.91-1.98-2.1-1.98s-2.08.82-2.08,1.98v.03c0,1.18.9,1.98,2.08,1.98s2.1-.82,2.1-1.98Z"/>
            <path class="cls-desktop-4" d="m470.91,23.71v-.03c0-2.45,1.74-4.47,4.24-4.47,2.87,0,4.18,2.23,4.18,4.66,0,.19-.02.42-.03.64h-5.97c.24,1.1,1.01,1.68,2.1,1.68.82,0,1.41-.26,2.08-.88l1.39,1.23c-.8.99-1.95,1.6-3.51,1.6-2.58,0-4.48-1.81-4.48-4.43Zm6.05-.72c-.14-1.09-.78-1.82-1.81-1.82s-1.66.72-1.86,1.82h3.67Z"/>
            <path class="cls-desktop-4" d="m480.46,26.82l1.04-1.6c.93.67,1.9,1.02,2.71,1.02.7,0,1.02-.26,1.02-.64v-.03c0-.53-.83-.7-1.78-.99-1.2-.35-2.56-.91-2.56-2.58v-.03c0-1.74,1.41-2.72,3.14-2.72,1.09,0,2.27.37,3.2.99l-.93,1.68c-.85-.5-1.7-.8-2.32-.8-.59,0-.9.26-.9.59v.03c0,.48.82.7,1.75,1.02,1.2.4,2.59.98,2.59,2.54v.03c0,1.9-1.42,2.77-3.28,2.77-1.2,0-2.54-.4-3.68-1.3Z"/>
            <path class="cls-desktop-4" d="m494.01,16.27h2.56v2.16h-2.56v-2.16Zm.06,3.1h2.43v8.58h-2.43v-8.58Z"/>
            <path class="cls-desktop-4" d="m498.79,19.38h2.43v1.22c.56-.72,1.28-1.38,2.51-1.38,1.84,0,2.91,1.22,2.91,3.19v5.55h-2.43v-4.79c0-1.15-.54-1.74-1.47-1.74s-1.52.59-1.52,1.74v4.79h-2.43v-8.58Z"/>
            <path class="cls-desktop-4" d="m513.18,23.68v-.03c0-2.87,1.87-4.43,3.91-4.43,1.3,0,2.1.59,2.67,1.28v-4.23h2.43v11.68h-2.43v-1.23c-.59.8-1.41,1.39-2.67,1.39-2,0-3.91-1.57-3.91-4.43Zm6.61,0v-.03c0-1.42-.94-2.37-2.08-2.37s-2.1.93-2.1,2.37v.03c0,1.42.96,2.37,2.1,2.37s2.08-.94,2.08-2.37Z"/>
            <path class="cls-desktop-4" d="m524.41,16.27h2.56v2.16h-2.56v-2.16Zm.06,3.1h2.43v8.58h-2.43v-8.58Z"/>
            <path class="cls-desktop-4" d="m528.52,26.82l1.04-1.6c.93.67,1.9,1.02,2.71,1.02.7,0,1.02-.26,1.02-.64v-.03c0-.53-.83-.7-1.78-.99-1.2-.35-2.56-.91-2.56-2.58v-.03c0-1.74,1.41-2.72,3.14-2.72,1.09,0,2.27.37,3.2.99l-.93,1.68c-.85-.5-1.7-.8-2.32-.8-.59,0-.9.26-.9.59v.03c0,.48.82.7,1.75,1.02,1.2.4,2.59.98,2.59,2.54v.03c0,1.9-1.42,2.77-3.28,2.77-1.2,0-2.54-.4-3.68-1.3Z"/>
            <path class="cls-desktop-4" d="m536.81,23.71v-.03c0-2.45,1.74-4.47,4.24-4.47,2.87,0,4.18,2.23,4.18,4.66,0,.19-.02.42-.03.64h-5.97c.24,1.1,1.01,1.68,2.1,1.68.82,0,1.41-.26,2.08-.88l1.39,1.23c-.8.99-1.95,1.6-3.51,1.6-2.58,0-4.48-1.81-4.48-4.43Zm6.05-.72c-.14-1.09-.78-1.82-1.81-1.82s-1.66.72-1.86,1.82h3.67Z"/>
            <path class="cls-desktop-4" d="m546.52,25.49v-.03c0-1.87,1.42-2.74,3.46-2.74.86,0,1.49.14,2.1.35v-.14c0-1.01-.62-1.57-1.84-1.57-.93,0-1.58.18-2.37.46l-.61-1.86c.94-.42,1.87-.69,3.33-.69,1.33,0,2.29.35,2.9.96.64.64.93,1.58.93,2.74v4.98h-2.35v-.93c-.59.66-1.41,1.09-2.59,1.09-1.62,0-2.95-.93-2.95-2.62Zm5.59-.56v-.43c-.42-.19-.96-.32-1.55-.32-1.04,0-1.68.42-1.68,1.18v.03c0,.66.54,1.04,1.33,1.04,1.14,0,1.9-.62,1.9-1.5Z"/>
            <path class="cls-desktop-4" d="m555.83,26.82l1.04-1.6c.93.67,1.9,1.02,2.71,1.02.7,0,1.02-.26,1.02-.64v-.03c0-.53-.83-.7-1.78-.99-1.2-.35-2.56-.91-2.56-2.58v-.03c0-1.74,1.41-2.72,3.14-2.72,1.09,0,2.27.37,3.2.99l-.93,1.68c-.85-.5-1.7-.8-2.32-.8-.59,0-.9.26-.9.59v.03c0,.48.82.7,1.75,1.02,1.2.4,2.59.98,2.59,2.54v.03c0,1.9-1.42,2.77-3.28,2.77-1.2,0-2.54-.4-3.68-1.3Z"/>
            <path class="cls-desktop-4" d="m564.12,23.71v-.03c0-2.45,1.74-4.47,4.24-4.47,2.87,0,4.18,2.23,4.18,4.66,0,.19-.02.42-.03.64h-5.97c.24,1.1,1.01,1.68,2.1,1.68.82,0,1.41-.26,2.08-.88l1.39,1.23c-.8.99-1.95,1.6-3.51,1.6-2.58,0-4.48-1.81-4.48-4.43Zm6.05-.72c-.14-1.09-.78-1.82-1.81-1.82s-1.66.72-1.86,1.82h3.67Z"/>
            <path class="cls-desktop-4" d="m581.58,26.84v1.12h-2.43v-11.68h2.43v4.34c.59-.8,1.41-1.39,2.67-1.39,2,0,3.91,1.57,3.91,4.43v.03c0,2.87-1.87,4.43-3.91,4.43-1.3,0-2.1-.59-2.67-1.28Zm4.15-3.15v-.03c0-1.42-.96-2.37-2.1-2.37s-2.08.94-2.08,2.37v.03c0,1.42.94,2.37,2.08,2.37s2.1-.93,2.1-2.37Z"/>
            <path class="cls-desktop-4" d="m589.53,23.71v-.03c0-2.45,1.74-4.47,4.24-4.47,2.87,0,4.18,2.23,4.18,4.66,0,.19-.02.42-.03.64h-5.97c.24,1.1,1.01,1.68,2.1,1.68.82,0,1.41-.26,2.08-.88l1.39,1.23c-.8.99-1.95,1.6-3.51,1.6-2.58,0-4.48-1.81-4.48-4.43Zm6.05-.72c-.14-1.09-.78-1.82-1.81-1.82s-1.66.72-1.86,1.82h3.67Z"/>
            <path class="cls-desktop-4" d="m599.75,16.27h2.43v4.32c.56-.72,1.28-1.38,2.51-1.38,1.84,0,2.91,1.22,2.91,3.19v5.55h-2.43v-4.79c0-1.15-.54-1.74-1.47-1.74s-1.52.59-1.52,1.74v4.79h-2.43v-11.68Z"/>
            <path class="cls-desktop-4" d="m609.21,25.49v-.03c0-1.87,1.42-2.74,3.46-2.74.86,0,1.49.14,2.1.35v-.14c0-1.01-.62-1.57-1.84-1.57-.93,0-1.58.18-2.37.46l-.61-1.86c.94-.42,1.87-.69,3.33-.69,1.33,0,2.29.35,2.9.96.64.64.93,1.58.93,2.74v4.98h-2.35v-.93c-.59.66-1.41,1.09-2.59,1.09-1.62,0-2.95-.93-2.95-2.62Zm5.59-.56v-.43c-.42-.19-.96-.32-1.55-.32-1.04,0-1.68.42-1.68,1.18v.03c0,.66.54,1.04,1.33,1.04,1.14,0,1.9-.62,1.9-1.5Z"/>
            <path class="cls-desktop-4" d="m618.1,19.38h2.58l1.92,5.75,1.94-5.75h2.53l-3.38,8.64h-2.21l-3.38-8.64Z"/>
            <path class="cls-desktop-4" d="m628.52,16.27h2.56v2.16h-2.56v-2.16Zm.06,3.1h2.43v8.58h-2.43v-8.58Z"/>
            <path class="cls-desktop-4" d="m632.89,23.71v-.03c0-2.46,1.98-4.47,4.66-4.47s4.63,1.97,4.63,4.43v.03c0,2.47-1.98,4.47-4.66,4.47s-4.63-1.97-4.63-4.43Zm6.88,0v-.03c0-1.26-.91-2.37-2.26-2.37s-2.23,1.07-2.23,2.34v.03c0,1.26.91,2.37,2.26,2.37s2.23-1.07,2.23-2.34Z"/>
            <path class="cls-desktop-4" d="m643.86,24.93v-5.55h2.43v4.79c0,1.15.54,1.74,1.47,1.74s1.52-.59,1.52-1.74v-4.79h2.43v8.58h-2.43v-1.22c-.56.72-1.28,1.38-2.51,1.38-1.84,0-2.91-1.22-2.91-3.19Z"/>
            <path class="cls-desktop-4" d="m653.89,19.38h2.43v1.73c.5-1.18,1.3-1.95,2.74-1.89v2.55h-.13c-1.62,0-2.61.98-2.61,3.02v3.17h-2.43v-8.58Z"/>
          </g>
        </g>
      </g>
      <g id="footnote">
        <path class="cls-desktop-10" d="m391,469.09h.89l3.83,8.46h-1.02l-.98-2.22h-4.57l-1,2.22h-.97l3.83-8.46Zm2.34,5.38l-1.91-4.28-1.92,4.28h3.83Z"/>
        <path class="cls-desktop-10" d="m396.56,474.46v-.02c0-2.03,1.47-3.23,2.96-3.23,1.15,0,1.9.62,2.38,1.32v-3.74h.92v8.75h-.92v-1.25c-.5.74-1.24,1.38-2.38,1.38-1.49,0-2.96-1.17-2.96-3.21Zm5.37-.01v-.02c0-1.43-1.09-2.39-2.24-2.39s-2.18.89-2.18,2.39v.02c0,1.46,1.01,2.4,2.18,2.4s2.24-.97,2.24-2.4Z"/>
        <path class="cls-desktop-10" d="m404.42,475.74v-.02c0-1.31,1.08-2,2.65-2,.79,0,1.36.11,1.91.26v-.22c0-1.12-.68-1.69-1.85-1.69-.73,0-1.31.19-1.88.46l-.28-.75c.68-.31,1.36-.52,2.25-.52s1.55.23,2,.68c.42.42.64,1.02.64,1.81v3.79h-.89v-.94c-.43.56-1.15,1.07-2.24,1.07-1.15,0-2.32-.66-2.32-1.93Zm4.57-.48v-.6c-.46-.13-1.07-.26-1.82-.26-1.16,0-1.81.5-1.81,1.28v.02c0,.78.72,1.24,1.56,1.24,1.14,0,2.07-.7,2.07-1.68Z"/>
        <path class="cls-desktop-10" d="m411.84,471.34h.92v1.25c.5-.74,1.24-1.38,2.38-1.38,1.49,0,2.96,1.17,2.96,3.21v.02c0,2.03-1.46,3.23-2.96,3.23-1.15,0-1.9-.62-2.38-1.32v3.11h-.92v-8.12Zm5.31,3.12v-.02c0-1.46-1.01-2.4-2.18-2.4s-2.24.97-2.24,2.39v.02c0,1.44,1.09,2.4,2.24,2.4s2.18-.89,2.18-2.39Z"/>
        <path class="cls-desktop-10" d="m420.13,475.9v-3.74h-.86v-.82h.86v-1.87h.92v1.87h1.97v.82h-1.97v3.62c0,.75.42,1.03,1.04,1.03.31,0,.58-.06.9-.22v.79c-.32.17-.67.26-1.12.26-1,0-1.75-.49-1.75-1.75Z"/>
        <path class="cls-desktop-10" d="m424.09,474.46v-.02c0-1.79,1.26-3.23,2.97-3.23,1.83,0,2.89,1.46,2.89,3.27,0,.12,0,.19-.01.3h-4.92c.13,1.34,1.08,2.1,2.18,2.1.85,0,1.45-.35,1.96-.88l.58.52c-.62.7-1.38,1.16-2.55,1.16-1.7,0-3.09-1.31-3.09-3.23Zm4.93-.36c-.1-1.13-.74-2.11-1.98-2.11-1.08,0-1.89.9-2.01,2.11h3.99Z"/>
        <path class="cls-desktop-10" d="m431.22,474.46v-.02c0-2.03,1.47-3.23,2.96-3.23,1.15,0,1.9.62,2.38,1.32v-3.74h.92v8.75h-.92v-1.25c-.5.74-1.24,1.38-2.38,1.38-1.49,0-2.96-1.17-2.96-3.21Zm5.37-.01v-.02c0-1.43-1.09-2.39-2.24-2.39s-2.18.89-2.18,2.39v.02c0,1.46,1.01,2.4,2.18,2.4s2.24-.97,2.24-2.4Z"/>
        <path class="cls-desktop-10" d="m443.49,472.16h-.85v-.8h.85v-.54c0-.71.19-1.25.54-1.59.31-.31.77-.48,1.33-.48.43,0,.72.05,1.02.16v.8c-.34-.1-.59-.16-.9-.16-.72,0-1.08.43-1.08,1.32v.5h1.97v.79h-1.96v5.38h-.92v-5.38Z"/>
        <path class="cls-desktop-10" d="m447.55,471.34h.92v1.62c.46-1.03,1.36-1.78,2.53-1.73v1h-.07c-1.35,0-2.46.97-2.46,2.84v2.47h-.92v-6.2Z"/>
        <path class="cls-desktop-10" d="m451.76,474.47v-.02c0-1.75,1.37-3.24,3.24-3.24s3.23,1.46,3.23,3.21v.02c0,1.75-1.38,3.24-3.25,3.24s-3.21-1.46-3.21-3.21Zm5.52,0v-.02c0-1.33-1-2.42-2.3-2.42s-2.27,1.09-2.27,2.4v.02c0,1.33.98,2.41,2.29,2.41s2.28-1.08,2.28-2.39Z"/>
        <path class="cls-desktop-10" d="m459.9,471.34h.92v1.04c.41-.61.96-1.17,2-1.17s1.66.54,1.99,1.23c.44-.68,1.1-1.23,2.18-1.23,1.43,0,2.3.96,2.3,2.49v3.84h-.92v-3.62c0-1.2-.6-1.87-1.61-1.87-.94,0-1.71.7-1.71,1.92v3.57h-.91v-3.65c0-1.16-.61-1.85-1.6-1.85s-1.73.82-1.73,1.96v3.54h-.92v-6.2Z"/>
        <path class="cls-desktop-10" d="m475.03,469.15h3.57c.96,0,1.71.28,2.19.74.35.36.54.8.54,1.34v.02c0,1.09-.67,1.65-1.33,1.94,1,.3,1.8.88,1.8,2.03v.02c0,1.44-1.21,2.29-3.05,2.29h-3.73v-8.4Zm5.35,2.22c0-.83-.66-1.37-1.86-1.37h-2.55v2.89h2.48c1.14,0,1.93-.52,1.93-1.5v-.02Zm-1.76,2.36h-2.65v2.96h2.82c1.27,0,2.06-.56,2.06-1.5v-.02c0-.91-.77-1.44-2.23-1.44Z"/>
        <path class="cls-desktop-10" d="m483.44,475.19v-3.85h.92v3.62c0,1.15.62,1.87,1.71,1.87s1.86-.78,1.86-1.94v-3.55h.91v6.2h-.91v-1.08c-.42.67-1.05,1.21-2.12,1.21-1.5,0-2.38-1.01-2.38-2.48Z"/>
        <path class="cls-desktop-10" d="m490.93,471.34h.92v1.62c.46-1.03,1.36-1.78,2.53-1.73v1h-.07c-1.36,0-2.46.97-2.46,2.84v2.47h-.92v-6.2Z"/>
        <path class="cls-desktop-10" d="m495.81,468.97h1.05v1.02h-1.05v-1.02Zm.06,2.38h.92v6.2h-.92v-6.2Z"/>
        <path class="cls-desktop-10" d="m498.43,476.75l.47-.66c.67.5,1.42.79,2.15.79s1.28-.38,1.28-.98v-.02c0-.62-.73-.86-1.55-1.09-.97-.28-2.05-.61-2.05-1.75v-.02c0-1.07.89-1.78,2.11-1.78.75,0,1.59.26,2.23.68l-.42.7c-.58-.37-1.24-.6-1.83-.6-.73,0-1.2.38-1.2.9v.02c0,.59.77.82,1.59,1.07.96.29,1.99.66,1.99,1.78v.02c0,1.18-.97,1.86-2.21,1.86-.89,0-1.87-.35-2.57-.91Z"/>
        <path class="cls-desktop-10" d="m504.54,474.47v-.02c0-1.75,1.37-3.24,3.18-3.24,1.17,0,1.91.49,2.48,1.1l-.61.65c-.49-.52-1.04-.94-1.88-.94-1.26,0-2.22,1.07-2.22,2.4v.02c0,1.34.98,2.41,2.28,2.41.79,0,1.4-.4,1.89-.92l.59.55c-.62.7-1.37,1.2-2.53,1.2-1.81,0-3.18-1.47-3.18-3.21Z"/>
        <path class="cls-desktop-10" d="m511.77,468.79h.92v3.63c.41-.67,1.06-1.21,2.12-1.21,1.5,0,2.37,1.01,2.37,2.48v3.85h-.92v-3.62c0-1.15-.62-1.87-1.72-1.87s-1.86.78-1.86,1.94v3.55h-.92v-8.75Z"/>
        <path class="cls-desktop-10" d="m522.11,476.17l.68-.59c.52.78,1.04,1.2,1.92,1.2.95,0,1.64-.68,1.64-2.01v-5.62h.96v5.61c0,.98-.29,1.73-.77,2.21-.47.46-1.1.7-1.85.7-1.26,0-2.06-.62-2.59-1.49Z"/>
        <path class="cls-desktop-10" d="m528.74,478.58c.6-.22.85-.53.8-1.04h-.43v-1.26h1.1v1.08c0,.97-.42,1.44-1.33,1.64l-.14-.42Z"/>
        <path class="cls-desktop-10" d="m535.38,474.46v-.02c0-1.79,1.26-3.23,2.97-3.23,1.83,0,2.89,1.46,2.89,3.27,0,.12,0,.19-.01.3h-4.92c.13,1.34,1.08,2.1,2.18,2.1.85,0,1.45-.35,1.96-.88l.58.52c-.62.7-1.38,1.16-2.55,1.16-1.7,0-3.09-1.31-3.09-3.23Zm4.93-.36c-.1-1.13-.74-2.11-1.98-2.11-1.08,0-1.89.9-2.01,2.11h3.99Z"/>
        <path class="cls-desktop-10" d="m543.19,475.9v-3.74h-.86v-.82h.86v-1.87h.92v1.87h1.97v.82h-1.97v3.62c0,.75.42,1.03,1.04,1.03.31,0,.58-.06.9-.22v.79c-.32.17-.67.26-1.12.26-1,0-1.75-.49-1.75-1.75Z"/>
        <path class="cls-desktop-10" d="m550.84,475.74v-.02c0-1.31,1.08-2,2.65-2,.79,0,1.36.11,1.91.26v-.22c0-1.12-.68-1.69-1.85-1.69-.73,0-1.31.19-1.88.46l-.28-.75c.68-.31,1.36-.52,2.25-.52s1.55.23,2,.68c.42.42.64,1.02.64,1.81v3.79h-.89v-.94c-.43.56-1.15,1.07-2.24,1.07-1.15,0-2.32-.66-2.32-1.93Zm4.57-.48v-.6c-.46-.13-1.07-.26-1.82-.26-1.16,0-1.81.5-1.81,1.28v.02c0,.78.72,1.24,1.56,1.24,1.14,0,2.07-.7,2.07-1.68Z"/>
        <path class="cls-desktop-10" d="m558.34,468.79h.92v8.75h-.92v-8.75Z"/>
        <path class="cls-desktop-10" d="m561.29,476.28h1.1v1.26h-1.1v-1.26Z"/>
        <path class="cls-desktop-10" d="m567.94,474.12c0-1.33.59-2.64,1.56-3.61.9-.91,2.16-1.51,3.6-1.51,1.73,0,2.64.74,3.17,1.54l-.72.56c-.49-.68-1.16-1.24-2.53-1.24-1.09,0-2.07.47-2.79,1.19-.79.8-1.28,1.92-1.28,3.03,0,1.73,1.15,2.73,2.78,2.73.91,0,1.63-.25,2.17-.59l.66-2.33h-2.53l.23-.85h3.47l-1.07,3.77c-.89.55-1.82.88-2.99.88-2.04,0-3.72-1.32-3.72-3.57Z"/>
        <path class="cls-desktop-10" d="m577.03,475.75c0-.29.07-.64.16-.96l.91-3.45h.92l-.94,3.51c-.06.2-.1.49-.1.7,0,.82.53,1.3,1.39,1.3.96,0,1.92-.83,2.24-2.02l.94-3.49h.92l-1.67,6.2h-.91l.26-1.01c-.56.64-1.21,1.14-2.16,1.14-1.2,0-1.98-.74-1.98-1.92Z"/>
        <path class="cls-desktop-10" d="m584.6,476.43c0-.22.04-.46.08-.65l.97-3.62h-.85l.22-.82h.86l.5-1.87h.91l-.5,1.87h1.96l-.22.82h-1.96l-.96,3.57c-.02.14-.05.32-.05.46,0,.43.32.64.85.64.28,0,.58-.06.9-.19l-.23.84c-.32.13-.62.18-.98.18-.89,0-1.51-.42-1.51-1.22Z"/>
        <path class="cls-desktop-10" d="m588.93,476.28h1.1l-.35,1.26h-1.09l.34-1.26Z"/>
        <path class="cls-desktop-10" d="m595.62,476.81l3.05-2.69c1.28-1.15,1.75-1.8,1.75-2.64,0-.98-.78-1.61-1.69-1.61-.96,0-1.58.5-2.25,1.44l-.7-.5c.76-1.13,1.55-1.79,3.02-1.79s2.6,1.01,2.6,2.38v.02c0,1.22-.65,1.98-2.12,3.26l-2.24,1.99h4.45v.86h-5.86v-.73Z"/>
        <path class="cls-desktop-10" d="m602.97,473.37v-.02c0-2.35,1.4-4.34,3.56-4.34s3.53,1.97,3.53,4.32v.02c0,2.35-1.39,4.34-3.55,4.34s-3.54-1.97-3.54-4.32Zm6.11,0v-.02c0-1.83-1.01-3.48-2.57-3.48s-2.55,1.61-2.55,3.45v.02c0,1.83,1.01,3.48,2.58,3.48s2.54-1.62,2.54-3.45Z"/>
        <path class="cls-desktop-10" d="m612.89,470.07l-1.58.49-.23-.77,2.05-.71h.7v8.46h-.94v-7.47Z"/>
        <path class="cls-desktop-10" d="m621.1,473.32v-.17c-.53.82-1.29,1.33-2.38,1.33-1.73,0-2.93-1.09-2.93-2.6v-.02c0-1.6,1.24-2.85,3.02-2.85.96,0,1.67.32,2.21.86.64.64,1.04,1.57,1.04,3.25v.02c0,2.66-1.42,4.54-3.49,4.54-1.09,0-1.88-.44-2.59-1.03l.55-.73c.68.6,1.32.9,2.06.9,1.62,0,2.49-1.69,2.49-3.5Zm-.18-1.55v-.02c0-1.07-.88-1.91-2.13-1.91s-2.02.92-2.02,1.97v.02c0,1.07.84,1.83,2.06,1.83s2.09-.94,2.09-1.89Z"/>
        <path class="cls-desktop-10" d="m623.42,478.58c.6-.22.85-.53.8-1.04h-.43v-1.26h1.1v1.08c0,.97-.42,1.44-1.33,1.64l-.14-.42Zm.37-7.24h1.1v1.26h-1.1v-1.26Z"/>
        <path class="cls-desktop-10" d="m627.65,476.83c-.67-.67-1.06-1.54-1.06-3.25v-.02c0-2.55,1.3-4.56,3.49-4.56,1.01,0,1.75.36,2.48.96l-.55.73c-.62-.53-1.21-.83-1.98-.83-1.62,0-2.47,1.7-2.47,3.6v.12c.55-.8,1.31-1.29,2.4-1.29,1.56,0,2.9,1.01,2.9,2.58v.02c0,1.62-1.31,2.79-3.01,2.79-.92,0-1.68-.32-2.21-.85Zm4.25-1.91v-.02c0-1.03-.84-1.8-2.05-1.8s-2.1.9-2.1,1.83v.02c0,1.07.89,1.88,2.12,1.88s2.03-.85,2.03-1.92Z"/>
        <path class="cls-desktop-10" d="m634.25,475.29v-.02c0-1,.72-1.7,1.73-2.06-.78-.36-1.44-.96-1.44-1.93v-.02c0-1.29,1.33-2.22,2.87-2.22s2.87.92,2.87,2.22v.02c0,.97-.66,1.57-1.44,1.93,1,.37,1.73,1.06,1.73,2.05v.02c0,1.43-1.37,2.39-3.15,2.39s-3.15-.97-3.15-2.38Zm5.35-.02v-.02c0-.94-.97-1.59-2.19-1.59s-2.2.66-2.2,1.59v.02c0,.85.82,1.57,2.2,1.57s2.19-.72,2.19-1.57Zm-.28-3.93v-.02c0-.83-.83-1.45-1.92-1.45s-1.92.61-1.92,1.45v.02c0,.91.85,1.54,1.92,1.54s1.92-.62,1.92-1.54Z"/>
        <path class="cls-desktop-10" d="m642.16,471.34h1.1v1.26h-1.1v-1.26Zm0,4.94h1.1v1.26h-1.1v-1.26Z"/>
        <path class="cls-desktop-10" d="m649.42,475.55h-4.43l-.24-.68,4.75-5.78h.83v5.67h1.31v.79h-1.31v1.99h-.91v-1.99Zm0-.79v-4.33l-3.53,4.33h3.53Z"/>
        <path class="cls-desktop-10" d="m652.87,476.81l3.05-2.69c1.28-1.15,1.75-1.8,1.75-2.64,0-.98-.78-1.61-1.69-1.61-.96,0-1.58.5-2.25,1.44l-.7-.5c.76-1.13,1.55-1.79,3.02-1.79s2.6,1.01,2.6,2.38v.02c0,1.22-.65,1.98-2.12,3.26l-2.24,1.99h4.45v.86h-5.87v-.73Z"/>
        <path class="cls-desktop-10" d="m660.08,476.19l.68-.61c.65.79,1.43,1.25,2.46,1.25s1.83-.65,1.83-1.63v-.02c0-1.04-.97-1.62-2.35-1.62h-.54l-.19-.56,2.65-2.99h-4.1v-.85h5.36v.7l-2.64,2.93c1.46.12,2.77.83,2.77,2.36v.02c0,1.5-1.25,2.53-2.81,2.53-1.4,0-2.45-.61-3.13-1.5Z"/>
        <path class="cls-desktop-10" d="m667.61,473.48h4.77v.92h-4.77v-.92Z"/>
        <path class="cls-desktop-10" d="m673.65,476.19l.68-.61c.65.79,1.43,1.25,2.46,1.25s1.83-.65,1.83-1.63v-.02c0-1.04-.97-1.62-2.35-1.62h-.54l-.19-.56,2.65-2.99h-4.1v-.85h5.36v.7l-2.64,2.93c1.46.12,2.77.83,2.77,2.36v.02c0,1.5-1.25,2.53-2.81,2.53-1.4,0-2.45-.61-3.13-1.5Z"/>
        <path class="cls-desktop-10" d="m681.01,476.19l.68-.61c.65.79,1.43,1.25,2.46,1.25s1.83-.65,1.83-1.63v-.02c0-1.04-.97-1.62-2.35-1.62h-.54l-.19-.56,2.65-2.99h-4.1v-.85h5.36v.7l-2.64,2.93c1.46.12,2.77.83,2.77,2.36v.02c0,1.5-1.25,2.53-2.81,2.53-1.4,0-2.45-.61-3.13-1.5Z"/>
        <path class="cls-desktop-10" d="m688.67,476.28h1.1v1.26h-1.1v-1.26Z"/>
      </g>
      <g id="initial_diagnosis_graph">
        <rect class="cls-desktop-6" x="302.3" y="80.84" width="77.37" height="243.64"/>
        <rect class="cls-desktop-13" x="302.3" y="341.56" width="77.37" height="69.14"/>
        <rect class="cls-desktop-11" x="302.3" y="426.02" width="77.37" height="30.23"/>
        <g>
          <path class="cls-desktop-4" d="m309.68,196.67h5.2c1.28,0,2.29.35,2.93.99.51.51.77,1.14.77,1.9v.03c0,1.26-.67,1.97-1.47,2.42,1.3.5,2.1,1.25,2.1,2.75v.03c0,2.05-1.66,3.07-4.19,3.07h-5.33v-11.2Zm6.45,3.31c0-.74-.58-1.15-1.62-1.15h-2.43v2.37h2.27c1.09,0,1.78-.35,1.78-1.18v-.03Zm-1.2,3.27h-2.85v2.46h2.93c1.09,0,1.74-.38,1.74-1.22v-.03c0-.75-.56-1.22-1.82-1.22Z"/>
          <path class="cls-desktop-4" d="m322.74,199.08l-1.95.48-.51-2.02,3.22-.96h1.68v11.28h-2.43v-8.79Z"/>
          <path class="cls-desktop-4" d="m329.68,200l-1.55,1.18-.67-1.15,1.79-.75-1.79-.75.67-1.15,1.55,1.18-.26-1.92h1.31l-.26,1.92,1.55-1.18.67,1.15-1.79.75,1.79.75-.67,1.15-1.55-1.18.26,1.92h-1.31l.26-1.92Z"/>
          <path class="cls-desktop-4" d="m334.59,199.29h2.59v2.56h-2.59v-2.56Zm0,6.02h2.59v2.56h-2.59v-2.56Z"/>
          <path class="cls-desktop-4" d="m349.41,198.79h-5.27v-2.13h8.07v1.86l-5.03,9.35h-2.79l5.01-9.08Z"/>
          <path class="cls-desktop-4" d="m355.97,199.08l-1.95.48-.51-2.02,3.22-.96h1.68v11.28h-2.43v-8.79Z"/>
          <path class="cls-desktop-4" d="m360.59,199.43v-.03c0-1.58,1.1-2.87,2.74-2.87s2.71,1.26,2.71,2.83v.03c0,1.57-1.1,2.87-2.74,2.87s-2.71-1.26-2.71-2.83Zm9.3-2.77h1.9l-4.48,6.03-3.7,5.17h-1.9l4.48-6.03,3.7-5.17Zm-7.62,2.71v.03c0,.75.42,1.41,1.06,1.41.67,0,1.02-.66,1.02-1.38v-.03c0-.75-.42-1.41-1.06-1.41-.67,0-1.02.64-1.02,1.38Zm5.2,5.79v-.03c0-1.58,1.1-2.87,2.74-2.87s2.71,1.26,2.71,2.83v.03c0,1.57-1.1,2.87-2.74,2.87s-2.71-1.26-2.71-2.83Zm3.76,0v-.03c0-.75-.42-1.41-1.06-1.41-.67,0-1.02.64-1.02,1.38v.03c0,.75.42,1.41,1.06,1.41.67,0,1.02-.66,1.02-1.38Z"/>
        </g>
        <g>
          <path class="cls-desktop-4" d="m311.46,436.14h5.2c1.28,0,2.29.35,2.93.99.51.51.77,1.14.77,1.9v.03c0,1.26-.67,1.97-1.47,2.42,1.3.5,2.1,1.25,2.1,2.75v.03c0,2.05-1.66,3.07-4.19,3.07h-5.33v-11.2Zm6.45,3.31c0-.74-.58-1.15-1.62-1.15h-2.43v2.37h2.27c1.09,0,1.78-.35,1.78-1.18v-.03Zm-1.2,3.27h-2.85v2.46h2.93c1.09,0,1.74-.38,1.74-1.22v-.03c0-.75-.56-1.22-1.82-1.22Z"/>
          <path class="cls-desktop-4" d="m322.27,445.6l1.7-1.62c.77.86,1.57,1.34,2.71,1.34.93,0,1.58-.53,1.58-1.36v-.03c0-.91-.82-1.42-2.19-1.42h-1.02l-.38-1.57,2.67-2.69h-4.4v-2.11h7.57v1.86l-2.83,2.71c1.52.26,3.01,1.06,3.01,3.14v.03c0,2.11-1.54,3.67-4.03,3.67-2.02,0-3.41-.8-4.37-1.94Z"/>
          <path class="cls-desktop-4" d="m334.64,439.47l-1.55,1.18-.67-1.15,1.79-.75-1.79-.75.67-1.15,1.55,1.18-.26-1.92h1.31l-.26,1.92,1.55-1.18.67,1.15-1.79.75,1.79.75-.67,1.15-1.55-1.18.26,1.92h-1.31l.26-1.92Z"/>
          <path class="cls-desktop-4" d="m339.55,438.76h2.59v2.56h-2.59v-2.56Zm0,6.02h2.59v2.56h-2.59v-2.56Z"/>
          <path class="cls-desktop-4" d="m348.74,444.27v-.03c0-1.36.62-2.16,1.81-2.71-.86-.53-1.42-1.25-1.42-2.45v-.03c0-1.71,1.57-3.07,3.94-3.07s3.94,1.34,3.94,3.07v.03c0,1.2-.56,1.92-1.42,2.45,1.14.59,1.81,1.31,1.81,2.64v.03c0,2.08-1.84,3.3-4.32,3.3s-4.32-1.28-4.32-3.23Zm6.26-.19v-.03c0-.87-.82-1.38-1.94-1.38s-1.94.51-1.94,1.38v.03c0,.77.72,1.39,1.94,1.39s1.94-.61,1.94-1.39Zm-.34-4.72v-.03c0-.69-.59-1.31-1.6-1.31s-1.6.61-1.6,1.3v.03c0,.78.62,1.38,1.6,1.38s1.6-.58,1.6-1.36Z"/>
          <path class="cls-desktop-4" d="m358.82,438.91v-.03c0-1.58,1.1-2.87,2.74-2.87s2.71,1.26,2.71,2.83v.03c0,1.57-1.1,2.87-2.74,2.87s-2.71-1.26-2.71-2.83Zm9.3-2.77h1.9l-4.48,6.03-3.7,5.17h-1.9l4.48-6.03,3.7-5.17Zm-7.62,2.71v.03c0,.75.42,1.41,1.06,1.41.67,0,1.02-.66,1.02-1.38v-.03c0-.75-.42-1.41-1.06-1.41-.67,0-1.02.64-1.02,1.38Zm5.2,5.79v-.03c0-1.58,1.1-2.87,2.74-2.87s2.71,1.26,2.71,2.83v.03c0,1.57-1.1,2.87-2.74,2.87s-2.71-1.26-2.71-2.83Zm3.76,0v-.03c0-.75-.42-1.41-1.06-1.41-.67,0-1.02.64-1.02,1.38v.03c0,.75.42,1.41,1.06,1.41s1.02-.66,1.02-1.38Z"/>
        </g>
        <g>
          <path class="cls-desktop-3" d="m308.12,370.41h5.2c1.28,0,2.29.35,2.93.99.51.51.77,1.14.77,1.9v.03c0,1.26-.67,1.97-1.47,2.42,1.3.5,2.1,1.25,2.1,2.75v.03c0,2.05-1.66,3.07-4.19,3.07h-5.33v-11.2Zm6.45,3.31c0-.74-.58-1.15-1.62-1.15h-2.43v2.37h2.27c1.09,0,1.78-.35,1.78-1.18v-.03Zm-1.2,3.27h-2.85v2.46h2.93c1.09,0,1.74-.38,1.74-1.22v-.03c0-.75-.56-1.22-1.82-1.22Z"/>
          <path class="cls-desktop-3" d="m319.11,379.66l3.73-3.06c1.39-1.15,1.94-1.76,1.94-2.69s-.62-1.46-1.5-1.46-1.46.48-2.29,1.5l-1.73-1.39c1.1-1.5,2.18-2.32,4.18-2.32,2.32,0,3.86,1.36,3.86,3.46v.03c0,1.87-.96,2.8-2.95,4.34l-1.82,1.41h4.88v2.13h-8.29v-1.95Z"/>
          <path class="cls-desktop-3" d="m331.34,373.74l-1.55,1.18-.67-1.15,1.79-.75-1.79-.75.67-1.15,1.55,1.18-.26-1.92h1.31l-.26,1.92,1.55-1.18.67,1.15-1.79.75,1.79.75-.67,1.15-1.55-1.18.26,1.92h-1.31l.26-1.92Z"/>
          <path class="cls-desktop-3" d="m336.25,373.03h2.59v2.56h-2.59v-2.56Zm0,6.02h2.59v2.56h-2.59v-2.56Z"/>
          <path class="cls-desktop-3" d="m345.5,379.66l3.73-3.06c1.39-1.15,1.94-1.76,1.94-2.69s-.62-1.46-1.5-1.46-1.46.48-2.29,1.5l-1.73-1.39c1.1-1.5,2.18-2.32,4.18-2.32,2.32,0,3.86,1.36,3.86,3.46v.03c0,1.87-.96,2.8-2.94,4.34l-1.82,1.41h4.88v2.13h-8.29v-1.95Z"/>
          <path class="cls-desktop-3" d="m357.53,372.82l-1.95.48-.51-2.02,3.22-.96h1.68v11.28h-2.43v-8.79Z"/>
          <path class="cls-desktop-3" d="m362.15,373.17v-.03c0-1.58,1.1-2.87,2.74-2.87s2.71,1.26,2.71,2.83v.03c0,1.57-1.1,2.87-2.74,2.87s-2.71-1.26-2.71-2.83Zm9.3-2.77h1.9l-4.48,6.03-3.7,5.17h-1.9l4.48-6.03,3.7-5.17Zm-7.62,2.71v.03c0,.75.42,1.41,1.06,1.41.67,0,1.02-.66,1.02-1.38v-.03c0-.75-.42-1.41-1.06-1.41-.67,0-1.02.64-1.02,1.38Zm5.2,5.79v-.03c0-1.58,1.1-2.87,2.74-2.87s2.71,1.26,2.71,2.83v.03c0,1.57-1.1,2.87-2.74,2.87s-2.71-1.26-2.71-2.83Zm3.76,0v-.03c0-.75-.42-1.41-1.06-1.41-.67,0-1.02.64-1.02,1.38v.03c0,.75.42,1.41,1.06,1.41s1.02-.66,1.02-1.38Z"/>
        </g>
      </g>
      <g id="initial_diagnosis_title">
        <path class="cls-desktop-10" d="m318.79,35.11h1.42v12.6h-1.42v-12.6Z"/>
        <path class="cls-desktop-10" d="m323.66,38.41h1.39v1.62c.61-1.01,1.58-1.82,3.19-1.82,2.25,0,3.56,1.51,3.56,3.73v5.78h-1.39v-5.44c0-1.73-.94-2.81-2.57-2.81s-2.79,1.17-2.79,2.92v5.33h-1.39v-9.31Z"/>
        <path class="cls-desktop-10" d="m334.79,34.84h1.58v1.53h-1.58v-1.53Zm.09,3.57h1.39v9.31h-1.39v-9.31Z"/>
        <path class="cls-desktop-10" d="m339.97,45.25v-5.62h-1.3v-1.22h1.3v-2.81h1.39v2.81h2.95v1.22h-2.95v5.44c0,1.13.63,1.55,1.57,1.55.47,0,.86-.09,1.35-.32v1.19c-.49.25-1.01.4-1.67.4-1.49,0-2.63-.74-2.63-2.63Z"/>
        <path class="cls-desktop-10" d="m346.79,34.84h1.58v1.53h-1.58v-1.53Zm.09,3.57h1.39v9.31h-1.39v-9.31Z"/>
        <path class="cls-desktop-10" d="m350.79,45.02v-.04c0-1.96,1.62-3.01,3.98-3.01,1.19,0,2.03.16,2.86.4v-.32c0-1.67-1.03-2.54-2.77-2.54-1.1,0-1.96.29-2.83.68l-.41-1.13c1.03-.47,2.03-.77,3.39-.77s2.32.34,3.01,1.03c.63.63.95,1.53.95,2.72v5.69h-1.33v-1.4c-.65.85-1.73,1.6-3.37,1.6-1.73,0-3.48-.99-3.48-2.9Zm6.86-.72v-.9c-.68-.2-1.6-.4-2.74-.4-1.75,0-2.72.76-2.72,1.93v.04c0,1.17,1.08,1.85,2.34,1.85,1.71,0,3.12-1.04,3.12-2.52Z"/>
        <path class="cls-desktop-10" d="m362.04,34.57h1.39v13.14h-1.39v-13.14Z"/>
        <path class="cls-desktop-10" d="m299.78,63.09v-.04c0-3.04,2.21-4.84,4.45-4.84,1.73,0,2.84.94,3.56,1.98v-5.62h1.39v13.14h-1.39v-1.87c-.76,1.12-1.85,2.07-3.56,2.07-2.23,0-4.45-1.76-4.45-4.83Zm8.07-.02v-.04c0-2.14-1.64-3.58-3.37-3.58s-3.28,1.33-3.28,3.58v.04c0,2.2,1.51,3.6,3.28,3.6s3.37-1.46,3.37-3.6Z"/>
        <path class="cls-desktop-10" d="m312.3,54.84h1.58v1.53h-1.58v-1.53Zm.09,3.57h1.39v9.31h-1.39v-9.31Z"/>
        <path class="cls-desktop-10" d="m316.3,65.02v-.04c0-1.96,1.62-3.01,3.98-3.01,1.19,0,2.03.16,2.86.4v-.32c0-1.67-1.03-2.54-2.77-2.54-1.1,0-1.96.29-2.83.68l-.41-1.13c1.03-.47,2.03-.77,3.39-.77s2.32.34,3.01,1.03c.63.63.95,1.53.95,2.72v5.69h-1.33v-1.4c-.65.85-1.73,1.6-3.37,1.6-1.73,0-3.48-.99-3.48-2.9Zm6.86-.72v-.9c-.68-.2-1.6-.4-2.74-.4-1.75,0-2.72.76-2.72,1.93v.04c0,1.17,1.08,1.85,2.34,1.85,1.71,0,3.11-1.04,3.11-2.52Z"/>
        <path class="cls-desktop-10" d="m327.32,69.34l.63-1.08c1.06.77,2.25,1.19,3.58,1.19,2.05,0,3.38-1.13,3.38-3.31v-1.1c-.81,1.08-1.94,1.96-3.65,1.96-2.23,0-4.38-1.67-4.38-4.36v-.04c0-2.72,2.16-4.39,4.38-4.39,1.75,0,2.88.86,3.64,1.87v-1.67h1.39v7.69c0,1.44-.43,2.54-1.19,3.29-.83.83-2.07,1.24-3.55,1.24-1.55,0-2.99-.43-4.23-1.3Zm7.63-6.72v-.04c0-1.91-1.66-3.15-3.42-3.15s-3.22,1.22-3.22,3.13v.04c0,1.87,1.49,3.17,3.22,3.17s3.42-1.28,3.42-3.15Z"/>
        <path class="cls-desktop-10" d="m339.38,58.41h1.39v1.62c.61-1.01,1.58-1.82,3.19-1.82,2.25,0,3.57,1.51,3.57,3.73v5.78h-1.39v-5.44c0-1.73-.94-2.81-2.57-2.81s-2.79,1.17-2.79,2.92v5.33h-1.39v-9.31Z"/>
        <path class="cls-desktop-10" d="m349.89,63.11v-.04c0-2.63,2.05-4.86,4.86-4.86s4.84,2.2,4.84,4.83v.04c0,2.63-2.07,4.86-4.88,4.86s-4.83-2.2-4.83-4.83Zm8.28,0v-.04c0-2-1.49-3.64-3.46-3.64s-3.4,1.64-3.4,3.6v.04c0,2,1.48,3.62,3.44,3.62s3.42-1.62,3.42-3.58Z"/>
        <path class="cls-desktop-10" d="m361.32,66.53l.7-.99c1.01.76,2.12,1.19,3.22,1.19s1.93-.58,1.93-1.48v-.04c0-.94-1.1-1.3-2.32-1.64-1.46-.41-3.08-.92-3.08-2.63v-.04c0-1.6,1.33-2.67,3.17-2.67,1.13,0,2.4.4,3.35,1.03l-.63,1.04c-.86-.56-1.85-.9-2.75-.9-1.1,0-1.8.58-1.8,1.35v.04c0,.88,1.15,1.22,2.4,1.6,1.44.43,2.99.99,2.99,2.67v.04c0,1.76-1.46,2.79-3.31,2.79-1.33,0-2.81-.52-3.85-1.37Z"/>
        <path class="cls-desktop-10" d="m371.09,54.84h1.58v1.53h-1.58v-1.53Zm.09,3.57h1.39v9.31h-1.39v-9.31Z"/>
        <path class="cls-desktop-10" d="m375.02,66.53l.7-.99c1.01.76,2.12,1.19,3.22,1.19s1.93-.58,1.93-1.48v-.04c0-.94-1.1-1.3-2.32-1.64-1.46-.41-3.08-.92-3.08-2.63v-.04c0-1.6,1.33-2.67,3.17-2.67,1.13,0,2.39.4,3.35,1.03l-.63,1.04c-.86-.56-1.85-.9-2.75-.9-1.1,0-1.8.58-1.8,1.35v.04c0,.88,1.15,1.22,2.4,1.6,1.44.43,2.99.99,2.99,2.67v.04c0,1.76-1.46,2.79-3.31,2.79-1.33,0-2.81-.52-3.85-1.37Z"/>
      </g>
      <g id="result_graph" class="graph_details">
        <rect class="cls-desktop-6" x="698.05" y="80.84" width="77.37" height="209.26"/>
        <rect class="cls-desktop-13" x="698.05" y="306.91" width="77.37" height="84.83"/>
        <rect class="cls-desktop-11" x="698.05" y="409.3" width="77.37" height="46.95"/>
        <g>
          <path class="cls-desktop-4" d="m708.69,196.67h5.2c1.28,0,2.29.35,2.93.99.51.51.77,1.14.77,1.9v.03c0,1.26-.67,1.97-1.47,2.42,1.3.5,2.1,1.25,2.1,2.75v.03c0,2.05-1.66,3.07-4.19,3.07h-5.33v-11.2Zm6.45,3.31c0-.74-.58-1.15-1.62-1.15h-2.43v2.37h2.27c1.09,0,1.78-.35,1.78-1.18v-.03Zm-1.2,3.27h-2.85v2.46h2.93c1.09,0,1.74-.38,1.74-1.22v-.03c0-.75-.56-1.22-1.82-1.22Z"/>
          <path class="cls-desktop-4" d="m721.75,199.08l-1.95.48-.51-2.02,3.22-.96h1.68v11.28h-2.43v-8.79Z"/>
          <path class="cls-desktop-4" d="m726.72,199.29h2.59v2.56h-2.59v-2.56Zm0,6.02h2.59v2.56h-2.59v-2.56Z"/>
          <path class="cls-desktop-4" d="m737.38,206.86c-.82-.82-1.33-2.02-1.33-4.24v-.03c0-3.46,1.57-6.11,4.91-6.11,1.52,0,2.51.45,3.51,1.23l-1.3,1.9c-.74-.56-1.33-.9-2.29-.9-1.68,0-2.18,1.62-2.26,2.59.59-.4,1.3-.72,2.32-.72,2.23,0,3.94,1.23,3.94,3.57v.03c0,2.29-1.84,3.87-4.27,3.87-1.46,0-2.45-.42-3.23-1.2Zm5.06-2.56v-.03c0-.94-.74-1.63-1.95-1.63s-1.92.67-1.92,1.62v.03c0,.95.74,1.67,1.95,1.67s1.92-.69,1.92-1.65Z"/>
          <path class="cls-desktop-4" d="m748.46,199.08l-1.95.48-.51-2.02,3.22-.96h1.68v11.28h-2.43v-8.79Z"/>
          <path class="cls-desktop-4" d="m753.09,199.43v-.03c0-1.58,1.1-2.87,2.74-2.87s2.71,1.26,2.71,2.83v.03c0,1.57-1.1,2.87-2.74,2.87s-2.71-1.26-2.71-2.83Zm9.3-2.77h1.9l-4.48,6.03-3.7,5.17h-1.9l4.48-6.03,3.7-5.17Zm-7.62,2.71v.03c0,.75.42,1.41,1.06,1.41.67,0,1.02-.66,1.02-1.38v-.03c0-.75-.42-1.41-1.06-1.41-.67,0-1.02.64-1.02,1.38Zm5.2,5.79v-.03c0-1.58,1.1-2.87,2.74-2.87s2.71,1.26,2.71,2.83v.03c0,1.57-1.1,2.87-2.74,2.87s-2.71-1.26-2.71-2.83Zm3.76,0v-.03c0-.75-.42-1.41-1.06-1.41-.67,0-1.02.64-1.02,1.38v.03c0,.75.42,1.41,1.06,1.41.67,0,1.02-.66,1.02-1.38Z"/>
        </g>
        <g>
          <path class="cls-desktop-4" d="m706.8,428.87h5.2c1.28,0,2.29.35,2.93.99.51.51.77,1.14.77,1.9v.03c0,1.26-.67,1.97-1.47,2.42,1.3.5,2.1,1.25,2.1,2.75v.03c0,2.05-1.66,3.07-4.19,3.07h-5.33v-11.2Zm6.45,3.31c0-.74-.58-1.15-1.62-1.15h-2.43v2.37h2.27c1.09,0,1.78-.35,1.78-1.18v-.03Zm-1.2,3.27h-2.85v2.46h2.93c1.09,0,1.74-.38,1.74-1.22v-.03c0-.75-.56-1.22-1.82-1.22Z"/>
          <path class="cls-desktop-4" d="m717.62,438.33l1.7-1.62c.77.86,1.57,1.34,2.71,1.34.93,0,1.58-.53,1.58-1.36v-.03c0-.91-.82-1.42-2.19-1.42h-1.02l-.38-1.57,2.67-2.69h-4.4v-2.11h7.57v1.86l-2.83,2.71c1.52.26,3.01,1.06,3.01,3.14v.03c0,2.11-1.54,3.67-4.03,3.67-2.02,0-3.41-.8-4.37-1.94Z"/>
          <path class="cls-desktop-4" d="m728.02,431.5h2.59v2.56h-2.59v-2.56Zm0,6.02h2.59v2.56h-2.59v-2.56Z"/>
          <path class="cls-desktop-4" d="m739.33,431.29l-1.95.48-.51-2.02,3.22-.96h1.68v11.28h-2.43v-8.79Z"/>
          <path class="cls-desktop-4" d="m749.6,437.66h-5.47l-.4-1.75,6.15-7.12h2.08v6.87h1.5v2h-1.5v2.42h-2.35v-2.42Zm0-2v-3.49l-2.98,3.49h2.98Z"/>
          <path class="cls-desktop-4" d="m754.98,431.64v-.03c0-1.58,1.1-2.87,2.74-2.87s2.71,1.26,2.71,2.83v.03c0,1.57-1.1,2.87-2.74,2.87s-2.71-1.26-2.71-2.83Zm9.3-2.77h1.9l-4.48,6.03-3.7,5.17h-1.9l4.48-6.03,3.7-5.17Zm-7.62,2.71v.03c0,.75.42,1.41,1.06,1.41.67,0,1.02-.66,1.02-1.38v-.03c0-.75-.42-1.41-1.06-1.41-.67,0-1.02.64-1.02,1.38Zm5.2,5.79v-.03c0-1.58,1.1-2.87,2.74-2.87s2.71,1.26,2.71,2.83v.03c0,1.57-1.1,2.87-2.74,2.87s-2.71-1.26-2.71-2.83Zm3.76,0v-.03c0-.75-.42-1.41-1.06-1.41-.67,0-1.02.64-1.02,1.38v.03c0,.75.42,1.41,1.06,1.41.67,0,1.02-.66,1.02-1.38Z"/>
        </g>
        <g>
          <path class="cls-desktop-3" d="m705.65,345.89h5.2c1.28,0,2.29.35,2.93.99.51.51.77,1.14.77,1.9v.03c0,1.26-.67,1.97-1.47,2.42,1.3.5,2.1,1.25,2.1,2.75v.03c0,2.05-1.66,3.07-4.19,3.07h-5.33v-11.2Zm6.45,3.31c0-.74-.58-1.15-1.62-1.15h-2.43v2.37h2.27c1.09,0,1.78-.35,1.78-1.18v-.03Zm-1.2,3.27h-2.85v2.46h2.93c1.09,0,1.74-.38,1.74-1.22v-.03c0-.75-.56-1.22-1.82-1.22Z"/>
          <path class="cls-desktop-3" d="m716.64,355.14l3.73-3.06c1.39-1.15,1.94-1.76,1.94-2.69s-.62-1.46-1.5-1.46-1.46.48-2.29,1.5l-1.73-1.39c1.1-1.5,2.18-2.32,4.18-2.32,2.32,0,3.86,1.36,3.86,3.46v.03c0,1.87-.96,2.8-2.95,4.34l-1.82,1.41h4.88v2.13h-8.29v-1.95Z"/>
          <path class="cls-desktop-3" d="m726.9,348.51h2.59v2.56h-2.59v-2.56Zm0,6.02h2.59v2.56h-2.59v-2.56Z"/>
          <path class="cls-desktop-3" d="m736.14,355.14l3.73-3.06c1.39-1.15,1.94-1.76,1.94-2.69s-.62-1.46-1.5-1.46-1.46.48-2.29,1.5l-1.73-1.39c1.1-1.5,2.18-2.32,4.18-2.32,2.32,0,3.86,1.36,3.86,3.46v.03c0,1.87-.96,2.8-2.94,4.34l-1.82,1.41h4.88v2.13h-8.29v-1.95Z"/>
          <path class="cls-desktop-3" d="m746.02,355.6l1.49-1.78c.85.77,1.68,1.22,2.67,1.22,1.15,0,1.87-.56,1.87-1.55v-.03c0-.96-.82-1.52-1.98-1.52-.7,0-1.34.19-1.87.42l-1.42-.94.32-5.52h6.88v2.16h-4.77l-.13,1.94c.45-.11.85-.19,1.47-.19,2.18,0,3.92,1.06,3.92,3.58v.03c0,2.37-1.68,3.87-4.26,3.87-1.79,0-3.1-.64-4.19-1.68Z"/>
          <path class="cls-desktop-3" d="m756.13,348.66v-.03c0-1.58,1.1-2.87,2.74-2.87s2.71,1.26,2.71,2.83v.03c0,1.57-1.1,2.87-2.74,2.87s-2.71-1.26-2.71-2.83Zm9.3-2.77h1.9l-4.48,6.03-3.7,5.17h-1.9l4.48-6.03,3.7-5.17Zm-7.62,2.71v.03c0,.75.42,1.41,1.06,1.41.67,0,1.02-.66,1.02-1.38v-.03c0-.75-.42-1.41-1.06-1.41-.67,0-1.02.64-1.02,1.38Zm5.2,5.79v-.03c0-1.58,1.1-2.87,2.74-2.87s2.71,1.26,2.71,2.83v.03c0,1.57-1.1,2.87-2.74,2.87s-2.71-1.26-2.71-2.83Zm3.76,0v-.03c0-.75-.42-1.41-1.06-1.41-.67,0-1.02.64-1.02,1.38v.03c0,.75.42,1.41,1.06,1.41.67,0,1.02-.66,1.02-1.38Z"/>
        </g>
        <g>
          <path class="cls-desktop-12" d="m818.26,361.33l.91-.82c.86,1.06,1.9,1.67,3.28,1.67s2.45-.87,2.45-2.18v-.03c0-1.39-1.3-2.16-3.14-2.16h-.72l-.26-.75,3.54-3.99h-5.47v-1.14h7.15v.93l-3.52,3.91c1.95.16,3.7,1.1,3.7,3.15v.03c0,2-1.66,3.38-3.75,3.38-1.87,0-3.27-.82-4.18-2Z"/>
          <path class="cls-desktop-12" d="m835.27,357.5v-.22c-.7,1.09-1.73,1.78-3.17,1.78-2.31,0-3.91-1.46-3.91-3.47v-.03c0-2.13,1.65-3.81,4.03-3.81,1.28,0,2.23.43,2.95,1.15.85.85,1.39,2.1,1.39,4.34v.03c0,3.55-1.89,6.07-4.66,6.07-1.46,0-2.51-.59-3.46-1.38l.74-.98c.91.8,1.76,1.2,2.75,1.2,2.16,0,3.33-2.26,3.33-4.67Zm-.24-2.06v-.03c0-1.42-1.17-2.54-2.85-2.54s-2.69,1.23-2.69,2.62v.03c0,1.42,1.12,2.45,2.75,2.45s2.79-1.25,2.79-2.53Z"/>
          <path class="cls-desktop-12" d="m838.38,354.7v-.03c0-1.52,1.02-2.87,2.56-2.87s2.51,1.33,2.51,2.83v.03c0,1.52-1.02,2.87-2.54,2.87s-2.53-1.33-2.53-2.83Zm1.07-.06v.03c0,1.12.66,1.97,1.49,1.97s1.46-.86,1.46-1.94v-.03c0-1.12-.67-1.97-1.49-1.97-.88,0-1.46.88-1.46,1.94Zm8.31-2.71h1.14l-4.32,5.87-3.89,5.33h-1.15l4.32-5.84,3.91-5.36Zm-2.77,8.5v-.03c0-1.52,1.02-2.87,2.55-2.87s2.51,1.33,2.51,2.83v.03c0,1.52-1.01,2.87-2.54,2.87s-2.51-1.33-2.51-2.83Zm4,0v-.03c0-1.12-.66-1.97-1.49-1.97s-1.46.88-1.46,1.94v.03c0,1.12.66,1.97,1.49,1.97.88,0,1.46-.86,1.46-1.94Z"/>
          <path class="cls-desktop-12" d="m856.38,362.08l.62-.88c.9.67,1.89,1.06,2.87,1.06s1.71-.51,1.71-1.31v-.03c0-.83-.98-1.15-2.06-1.46-1.3-.37-2.74-.82-2.74-2.34v-.03c0-1.42,1.18-2.37,2.82-2.37,1.01,0,2.13.35,2.98.91l-.56.93c-.77-.5-1.65-.8-2.45-.8-.98,0-1.6.51-1.6,1.2v.03c0,.78,1.02,1.09,2.13,1.42,1.28.38,2.66.88,2.66,2.37v.03c0,1.57-1.3,2.48-2.95,2.48-1.18,0-2.5-.46-3.43-1.22Z"/>
          <path class="cls-desktop-12" d="m865.3,360.95v-4.99h-1.15v-1.09h1.15v-2.5h1.23v2.5h2.63v1.09h-2.63v4.83c0,1.01.56,1.38,1.39,1.38.42,0,.77-.08,1.2-.29v1.06c-.43.22-.9.35-1.49.35-1.33,0-2.34-.66-2.34-2.34Z"/>
          <path class="cls-desktop-12" d="m871.33,354.86h1.23v2.16c.61-1.38,1.81-2.37,3.38-2.3v1.33h-.1c-1.81,0-3.28,1.3-3.28,3.79v3.3h-1.23v-8.28Z"/>
          <path class="cls-desktop-12" d="m877.69,360v-5.14h1.23v4.83c0,1.54.83,2.5,2.29,2.5s2.48-1.04,2.48-2.59v-4.74h1.22v8.28h-1.22v-1.44c-.56.9-1.41,1.62-2.83,1.62-2,0-3.17-1.34-3.17-3.31Z"/>
          <path class="cls-desktop-12" d="m887.16,359.04v-.03c0-2.34,1.82-4.32,4.24-4.32,1.57,0,2.54.66,3.31,1.47l-.82.86c-.66-.69-1.39-1.25-2.51-1.25-1.68,0-2.96,1.42-2.96,3.2v.03c0,1.79,1.31,3.22,3.04,3.22,1.06,0,1.87-.53,2.53-1.23l.78.74c-.83.93-1.82,1.6-3.38,1.6-2.42,0-4.24-1.97-4.24-4.29Z"/>
          <path class="cls-desktop-12" d="m897.24,360.95v-4.99h-1.15v-1.09h1.15v-2.5h1.23v2.5h2.63v1.09h-2.63v4.83c0,1.01.56,1.38,1.39,1.38.42,0,.77-.08,1.2-.29v1.06c-.43.22-.9.35-1.49.35-1.33,0-2.34-.66-2.34-2.34Z"/>
          <path class="cls-desktop-12" d="m903.14,360v-5.14h1.23v4.83c0,1.54.83,2.5,2.29,2.5s2.48-1.04,2.48-2.59v-4.74h1.22v8.28h-1.22v-1.44c-.56.9-1.41,1.62-2.83,1.62-2,0-3.17-1.34-3.17-3.31Z"/>
          <path class="cls-desktop-12" d="m913.13,354.86h1.23v2.16c.61-1.38,1.81-2.37,3.38-2.3v1.33h-.1c-1.81,0-3.28,1.3-3.28,3.79v3.3h-1.23v-8.28Z"/>
          <path class="cls-desktop-12" d="m919.64,351.7h1.41v1.36h-1.41v-1.36Zm.08,3.17h1.23v8.28h-1.23v-8.28Z"/>
          <path class="cls-desktop-12" d="m923.81,354.86h1.23v1.44c.54-.9,1.41-1.62,2.83-1.62,2,0,3.17,1.34,3.17,3.31v5.14h-1.23v-4.83c0-1.54-.83-2.5-2.29-2.5s-2.48,1.04-2.48,2.59v4.74h-1.23v-8.28Z"/>
          <path class="cls-desktop-12" d="m933.57,364.58l.56-.96c.94.69,2,1.06,3.19,1.06,1.82,0,3.01-1.01,3.01-2.95v-.98c-.72.96-1.73,1.74-3.25,1.74-1.98,0-3.89-1.49-3.89-3.87v-.03c0-2.42,1.92-3.91,3.89-3.91,1.55,0,2.56.77,3.23,1.66v-1.49h1.23v6.83c0,1.28-.38,2.26-1.06,2.93-.74.74-1.84,1.1-3.15,1.1s-2.66-.38-3.76-1.15Zm6.79-5.97v-.03c0-1.7-1.47-2.8-3.04-2.8s-2.87,1.09-2.87,2.79v.03c0,1.67,1.33,2.82,2.87,2.82s3.04-1.14,3.04-2.8Z"/>
          <path class="cls-desktop-12" d="m818.55,380.55c0-2.95,1.58-5.25,4.43-6.85l.53.82c-2.43,1.55-3.71,3.47-3.71,6.03s1.28,4.48,3.71,6.03l-.53.82c-2.85-1.6-4.43-3.91-4.43-6.85Z"/>
          <path class="cls-desktop-12" d="m825.99,373.94h4.77c1.28,0,2.29.37,2.93.99.46.48.72,1.07.72,1.79v.03c0,1.46-.9,2.21-1.78,2.59,1.33.4,2.4,1.17,2.4,2.71v.03c0,1.92-1.62,3.06-4.07,3.06h-4.98v-11.2Zm7.14,2.96c0-1.1-.88-1.83-2.48-1.83h-3.41v3.86h3.31c1.52,0,2.58-.69,2.58-2v-.03Zm-2.35,3.15h-3.54v3.95h3.76c1.7,0,2.75-.75,2.75-2v-.03c0-1.22-1.02-1.92-2.98-1.92Z"/>
          <path class="cls-desktop-12" d="m838.82,375.17l-2.11.66-.3-1.02,2.74-.94h.93v11.28h-1.25v-9.97Z"/>
          <path class="cls-desktop-12" d="m842.58,386.58c2.43-1.55,3.71-3.47,3.71-6.03s-1.28-4.48-3.71-6.03l.53-.82c2.85,1.6,4.43,3.91,4.43,6.85s-1.58,5.25-4.43,6.85l-.53-.82Z"/>
          <path class="cls-desktop-12" d="m854.18,382.74v-.03c0-1.75,1.44-2.67,3.54-2.67,1.06,0,1.81.14,2.55.35v-.29c0-1.49-.91-2.26-2.47-2.26-.98,0-1.74.26-2.51.61l-.37-1.01c.91-.42,1.81-.69,3.01-.69s2.06.3,2.67.91c.56.56.85,1.36.85,2.42v5.06h-1.18v-1.25c-.58.75-1.54,1.42-2.99,1.42-1.54,0-3.09-.88-3.09-2.58Zm6.1-.64v-.8c-.61-.18-1.42-.35-2.43-.35-1.55,0-2.42.67-2.42,1.71v.03c0,1.04.96,1.65,2.08,1.65,1.52,0,2.77-.93,2.77-2.24Z"/>
          <path class="cls-desktop-12" d="m864.07,376.86h1.23v1.44c.54-.9,1.41-1.62,2.83-1.62,2,0,3.17,1.34,3.17,3.31v5.14h-1.23v-4.83c0-1.54-.83-2.5-2.29-2.5s-2.48,1.04-2.48,2.59v4.74h-1.23v-8.28Z"/>
          <path class="cls-desktop-12" d="m873.45,381.03v-.03c0-2.71,1.97-4.31,3.95-4.31,1.54,0,2.53.83,3.17,1.76v-4.99h1.23v11.68h-1.23v-1.67c-.67.99-1.65,1.84-3.17,1.84-1.98,0-3.95-1.57-3.95-4.29Zm7.17-.02v-.03c0-1.9-1.46-3.18-2.99-3.18s-2.91,1.18-2.91,3.18v.03c0,1.95,1.34,3.2,2.91,3.2s2.99-1.3,2.99-3.2Z"/>
          <path class="cls-desktop-12" d="m818.84,398.86h1.23v1.67c.67-.99,1.65-1.84,3.17-1.84,1.98,0,3.95,1.57,3.95,4.29v.03c0,2.71-1.95,4.31-3.95,4.31-1.54,0-2.53-.83-3.17-1.76v4.15h-1.23v-10.84Zm7.09,4.16v-.03c0-1.95-1.34-3.2-2.91-3.2s-2.99,1.3-2.99,3.18v.03c0,1.92,1.46,3.2,2.99,3.2s2.91-1.18,2.91-3.18Z"/>
          <path class="cls-desktop-12" d="m828.95,403.03v-.03c0-2.38,1.68-4.31,3.97-4.31,2.45,0,3.86,1.95,3.86,4.37,0,.16,0,.26-.02.4h-6.56c.18,1.79,1.44,2.8,2.91,2.8,1.14,0,1.94-.46,2.61-1.17l.77.69c-.83.93-1.84,1.55-3.41,1.55-2.27,0-4.13-1.75-4.13-4.31Zm6.58-.48c-.13-1.5-.99-2.82-2.64-2.82-1.44,0-2.53,1.2-2.69,2.82h5.33Z"/>
          <path class="cls-desktop-12" d="m838.94,398.86h1.23v1.44c.54-.9,1.41-1.62,2.83-1.62,2,0,3.17,1.34,3.17,3.31v5.14h-1.23v-4.83c0-1.54-.83-2.5-2.29-2.5s-2.48,1.04-2.48,2.59v4.74h-1.23v-8.28Z"/>
          <path class="cls-desktop-12" d="m848.28,403.03v-.03c0-2.38,1.68-4.31,3.97-4.31,2.45,0,3.86,1.95,3.86,4.37,0,.16,0,.26-.02.4h-6.56c.18,1.79,1.44,2.8,2.91,2.8,1.14,0,1.94-.46,2.61-1.17l.77.69c-.83.93-1.84,1.55-3.41,1.55-2.27,0-4.13-1.75-4.13-4.31Zm6.58-.48c-.13-1.5-.99-2.82-2.64-2.82-1.44,0-2.53,1.2-2.69,2.82h5.33Z"/>
          <path class="cls-desktop-12" d="m858.69,404.95v-4.99h-1.15v-1.09h1.15v-2.5h1.23v2.5h2.63v1.09h-2.63v4.83c0,1.01.56,1.38,1.39,1.38.42,0,.77-.08,1.2-.29v1.06c-.43.22-.9.35-1.49.35-1.33,0-2.34-.66-2.34-2.34Z"/>
          <path class="cls-desktop-12" d="m864.73,398.86h1.23v2.16c.61-1.38,1.81-2.37,3.38-2.3v1.33h-.1c-1.81,0-3.28,1.3-3.28,3.79v3.3h-1.23v-8.28Z"/>
          <path class="cls-desktop-12" d="m870.18,404.74v-.03c0-1.75,1.44-2.67,3.54-2.67,1.06,0,1.81.14,2.55.35v-.29c0-1.49-.91-2.26-2.47-2.26-.98,0-1.74.26-2.51.61l-.37-1.01c.91-.42,1.81-.69,3.01-.69s2.06.3,2.67.91c.56.56.85,1.36.85,2.42v5.06h-1.18v-1.25c-.58.75-1.54,1.42-2.99,1.42-1.54,0-3.09-.88-3.09-2.58Zm6.1-.64v-.8c-.61-.18-1.42-.35-2.43-.35-1.55,0-2.42.67-2.42,1.71v.03c0,1.04.96,1.65,2.08,1.65,1.52,0,2.77-.93,2.77-2.24Z"/>
          <path class="cls-desktop-12" d="m880.42,404.95v-4.99h-1.15v-1.09h1.15v-2.5h1.23v2.5h2.63v1.09h-2.63v4.83c0,1.01.56,1.38,1.39,1.38.42,0,.77-.08,1.2-.29v1.06c-.43.22-.9.35-1.49.35-1.33,0-2.34-.66-2.34-2.34Z"/>
          <path class="cls-desktop-12" d="m886.49,395.7h1.41v1.36h-1.41v-1.36Zm.08,3.17h1.23v8.28h-1.23v-8.28Z"/>
          <path class="cls-desktop-12" d="m890.66,398.86h1.23v1.44c.54-.9,1.41-1.62,2.83-1.62,2,0,3.17,1.34,3.17,3.31v5.14h-1.23v-4.83c0-1.54-.83-2.5-2.29-2.5s-2.48,1.04-2.48,2.59v4.74h-1.23v-8.28Z"/>
          <path class="cls-desktop-12" d="m900.42,408.58l.56-.96c.94.69,2,1.06,3.19,1.06,1.82,0,3.01-1.01,3.01-2.95v-.98c-.72.96-1.73,1.74-3.25,1.74-1.98,0-3.89-1.49-3.89-3.87v-.03c0-2.42,1.92-3.91,3.89-3.91,1.55,0,2.56.77,3.23,1.66v-1.49h1.23v6.83c0,1.28-.38,2.26-1.06,2.93-.74.74-1.84,1.1-3.15,1.1s-2.66-.38-3.76-1.15Zm6.79-5.97v-.03c0-1.7-1.47-2.8-3.04-2.8s-2.87,1.09-2.87,2.79v.03c0,1.67,1.33,2.82,2.87,2.82s3.04-1.14,3.04-2.8Z"/>
          <path class="cls-desktop-12" d="m915.65,402.55c0-2.95,1.58-5.25,4.43-6.85l.53.82c-2.43,1.55-3.71,3.47-3.71,6.03s1.28,4.48,3.71,6.03l-.53.82c-2.85-1.6-4.43-3.91-4.43-6.85Z"/>
          <path class="cls-desktop-12" d="m923.09,395.94h4.77c1.28,0,2.29.37,2.93.99.46.48.72,1.07.72,1.79v.03c0,1.46-.9,2.21-1.78,2.59,1.33.4,2.4,1.17,2.4,2.71v.03c0,1.92-1.62,3.06-4.07,3.06h-4.98v-11.2Zm7.14,2.96c0-1.1-.88-1.83-2.48-1.83h-3.41v3.86h3.31c1.52,0,2.58-.69,2.58-2v-.03Zm-2.35,3.15h-3.54v3.95h3.76c1.7,0,2.75-.75,2.75-2v-.03c0-1.22-1.02-1.92-2.98-1.92Z"/>
          <path class="cls-desktop-12" d="m933.83,406.16l4.07-3.58c1.71-1.54,2.34-2.4,2.34-3.52,0-1.31-1.04-2.15-2.26-2.15-1.28,0-2.11.67-3.01,1.92l-.93-.67c1.01-1.5,2.06-2.38,4.03-2.38s3.47,1.34,3.47,3.17v.03c0,1.63-.86,2.64-2.83,4.35l-2.99,2.66h5.94v1.15h-7.83v-.98Z"/>
          <path class="cls-desktop-12" d="m943.54,408.58c2.43-1.55,3.71-3.47,3.71-6.03s-1.28-4.48-3.71-6.03l.53-.82c2.85,1.6,4.43,3.91,4.43,6.85s-1.58,5.25-4.43,6.85l-.53-.82Z"/>
        </g>
        <rect class="cls-desktop-14" x="379.67" y="426.02" width="318.38" height="30.23"/>
        <path class="cls-desktop-8" d="m379.67,324.47s61.74.36,92.62,14.53,102.07,53.4,126.77,62.48c24.7,9.08,70.11,17.07,98.99,17.07v-9.26s-36.87-.55-63.39-7.09c-26.52-6.54-51.22-15.26-92.63-38.5-41.41-23.25-85-45.04-126.77-46.5-41.77-1.45-35.59-1.09-35.59-1.09v8.35Z"/>
        <rect class="cls-desktop-8" x="379.67" y="80.84" width="318.38" height="209.26"/>
        <path class="cls-desktop-8" d="m379.67,316.12v-26.02s86.08,2.41,114.05,4.59c27.97,2.18,151.84,13.92,204.33,12.22v25.55s-99.71-4-123.32-5.81-91.8-8.21-113.64-9.54c-30.03-1.82-81.41-1-81.41-1Z"/>
        <path class="cls-desktop-2" d="m379.67,341.56s107.51-2.56,131.85-3.65c24.34-1.09,102.8-10.17,186.53-8.72v62.54s-141.12,4.66-174.18,6.84c-35.24,1.09-129.58,4.36-144.2,4.36v-61.37Z"/>
        <path class="cls-desktop-2" d="m379.67,410.7v-7.76s120.59,3.27,142.02,5.99,131.86,11.44,176.36,9.63v7.46s-102.16-2.92-141.94-5.37c0,0-99.06-9.94-176.44-9.94Z"/>
        <polyline class="cls-desktop-15" points="777.6 306.91 798.31 306.91 798.31 456.25 777.6 456.25"/>
        <line class="cls-desktop-15" x1="798.31" y1="381.58" x2="810.29" y2="381.58"/>
        <g>
          <path class="cls-desktop-4" d="m407.58,205.43v-.03c0-1.08.78-1.85,1.87-2.24-.84-.39-1.56-1.04-1.56-2.09v-.03c0-1.4,1.44-2.41,3.11-2.41s3.11,1,3.11,2.41v.03c0,1.05-.71,1.7-1.56,2.09,1.08.4,1.87,1.14,1.87,2.22v.03c0,1.55-1.48,2.59-3.42,2.59s-3.42-1.05-3.42-2.57Zm5.8-.03v-.03c0-1.01-1.05-1.73-2.38-1.73s-2.38.72-2.38,1.73v.03c0,.92.88,1.7,2.38,1.7s2.38-.78,2.38-1.7Zm-.3-4.26v-.03c0-.9-.9-1.57-2.08-1.57s-2.08.66-2.08,1.57v.03c0,.99.92,1.66,2.08,1.66s2.08-.68,2.08-1.66Z"/>
          <path class="cls-desktop-4" d="m417.03,207.1c-.73-.73-1.14-1.66-1.14-3.52v-.03c0-2.77,1.4-4.94,3.78-4.94,1.09,0,1.9.39,2.69,1.04l-.6.79c-.68-.57-1.31-.9-2.15-.9-1.75,0-2.68,1.85-2.68,3.9v.13c.6-.87,1.42-1.4,2.6-1.4,1.69,0,3.15,1.09,3.15,2.79v.03c0,1.75-1.42,3.03-3.26,3.03-1,0-1.82-.35-2.39-.92Zm4.6-2.07v-.03c0-1.12-.91-1.95-2.22-1.95s-2.27.98-2.27,1.99v.03c0,1.16.96,2.04,2.3,2.04s2.2-.92,2.2-2.08Z"/>
          <path class="cls-desktop-4" d="m424.18,201.02v-.03c0-1.24.83-2.33,2.08-2.33s2.04,1.08,2.04,2.3v.03c0,1.23-.83,2.33-2.07,2.33s-2.05-1.08-2.05-2.3Zm.87-.05v.03c0,.91.53,1.6,1.21,1.6s1.18-.7,1.18-1.57v-.03c0-.91-.55-1.6-1.21-1.6-.71,0-1.18.71-1.18,1.57Zm6.75-2.2h.92l-3.51,4.77-3.16,4.33h-.94l3.51-4.75,3.17-4.36Zm-2.25,6.9v-.03c0-1.24.83-2.33,2.07-2.33s2.04,1.08,2.04,2.3v.03c0,1.23-.82,2.33-2.07,2.33s-2.04-1.08-2.04-2.3Zm3.25,0v-.03c0-.91-.53-1.6-1.21-1.6s-1.18.71-1.18,1.57v.03c0,.91.53,1.6,1.21,1.6.71,0,1.18-.7,1.18-1.57Z"/>
        </g>
        <g>
          <path class="cls-desktop-4" d="m410.56,301.3l-1.72.53-.25-.83,2.22-.77h.75v9.17h-1.01v-8.1Z"/>
          <path class="cls-desktop-4" d="m413.69,304.88v-.03c0-2.55,1.52-4.71,3.86-4.71s3.82,2.13,3.82,4.68v.03c0,2.55-1.51,4.71-3.85,4.71s-3.83-2.13-3.83-4.68Zm6.62,0v-.03c0-1.99-1.09-3.77-2.78-3.77s-2.77,1.74-2.77,3.74v.03c0,1.99,1.09,3.77,2.79,3.77s2.76-1.75,2.76-3.74Z"/>
          <path class="cls-desktop-4" d="m422.85,302.55v-.03c0-1.24.83-2.33,2.08-2.33s2.04,1.08,2.04,2.3v.03c0,1.23-.83,2.33-2.07,2.33s-2.05-1.08-2.05-2.3Zm.87-.05v.03c0,.91.53,1.6,1.21,1.6s1.18-.7,1.18-1.57v-.03c0-.91-.55-1.6-1.21-1.6-.71,0-1.18.71-1.18,1.57Zm6.75-2.2h.92l-3.51,4.77-3.16,4.33h-.94l3.51-4.75,3.17-4.36Zm-2.25,6.9v-.03c0-1.24.83-2.33,2.07-2.33s2.04,1.08,2.04,2.3v.03c0,1.23-.82,2.33-2.07,2.33s-2.04-1.08-2.04-2.3Zm3.25,0v-.03c0-.91-.53-1.6-1.21-1.6s-1.18.71-1.18,1.57v.03c0,.91.53,1.6,1.21,1.6.71,0,1.18-.7,1.18-1.57Z"/>
        </g>
        <g>
          <path class="cls-desktop-4" d="m416.46,324.86h-4.8l-.26-.74,5.15-6.27h.9v6.15h1.42v.86h-1.42v2.16h-.99v-2.16Zm0-.86v-4.69l-3.82,4.69h3.82Z"/>
          <path class="cls-desktop-4" d="m420.24,320.17v-.03c0-1.24.83-2.33,2.08-2.33s2.04,1.08,2.04,2.3v.03c0,1.23-.83,2.33-2.07,2.33s-2.05-1.08-2.05-2.3Zm.87-.05v.03c0,.91.53,1.6,1.21,1.6s1.18-.7,1.18-1.57v-.03c0-.91-.55-1.6-1.21-1.6-.71,0-1.18.71-1.18,1.57Zm6.75-2.2h.92l-3.51,4.77-3.16,4.33h-.94l3.51-4.75,3.17-4.36Zm-2.25,6.9v-.03c0-1.24.83-2.33,2.07-2.33s2.04,1.08,2.04,2.3v.03c0,1.23-.82,2.33-2.07,2.33s-2.04-1.08-2.04-2.3Zm3.25,0v-.03c0-.91-.53-1.6-1.21-1.6s-1.18.71-1.18,1.57v.03c0,.91.53,1.6,1.21,1.6.71,0,1.18-.7,1.18-1.57Z"/>
        </g>
        <g>
          <path class="cls-desktop-3" d="m407.61,373.69v-.03c0-1.08.78-1.85,1.87-2.24-.84-.39-1.56-1.04-1.56-2.09v-.03c0-1.4,1.44-2.41,3.11-2.41s3.11,1,3.11,2.41v.03c0,1.05-.71,1.7-1.56,2.09,1.08.4,1.87,1.14,1.87,2.22v.03c0,1.55-1.48,2.59-3.42,2.59s-3.42-1.05-3.42-2.57Zm5.8-.03v-.03c0-1.01-1.05-1.73-2.38-1.73s-2.38.72-2.38,1.73v.03c0,.92.88,1.7,2.38,1.7s2.38-.78,2.38-1.7Zm-.3-4.26v-.03c0-.9-.9-1.57-2.08-1.57s-2.08.66-2.08,1.57v.03c0,.99.92,1.66,2.08,1.66s2.08-.68,2.08-1.66Z"/>
          <path class="cls-desktop-3" d="m421.63,371.55v-.18c-.57.88-1.4,1.44-2.57,1.44-1.87,0-3.17-1.18-3.17-2.82v-.03c0-1.73,1.34-3.09,3.28-3.09,1.04,0,1.81.35,2.39.94.69.69,1.13,1.7,1.13,3.52v.03c0,2.89-1.53,4.93-3.78,4.93-1.18,0-2.04-.48-2.81-1.12l.6-.79c.74.65,1.43.97,2.24.97,1.75,0,2.7-1.83,2.7-3.8Zm-.2-1.68v-.03c0-1.16-.95-2.07-2.31-2.07s-2.18,1-2.18,2.13v.03c0,1.16.91,1.99,2.24,1.99s2.26-1.01,2.26-2.05Z"/>
          <path class="cls-desktop-3" d="m424.15,369.28v-.03c0-1.24.83-2.33,2.08-2.33s2.04,1.08,2.04,2.3v.03c0,1.23-.83,2.33-2.07,2.33s-2.05-1.08-2.05-2.3Zm.87-.05v.03c0,.91.53,1.6,1.21,1.6s1.18-.7,1.18-1.57v-.03c0-.91-.55-1.6-1.21-1.6-.71,0-1.18.71-1.18,1.57Zm6.75-2.2h.92l-3.51,4.77-3.16,4.33h-.94l3.51-4.75,3.17-4.36Zm-2.25,6.9v-.03c0-1.24.83-2.33,2.07-2.33s2.04,1.08,2.04,2.3v.03c0,1.23-.82,2.33-2.07,2.33s-2.04-1.08-2.04-2.3Zm3.25,0v-.03c0-.91-.53-1.6-1.21-1.6s-1.18.71-1.18,1.57v.03c0,.91.53,1.6,1.21,1.6.71,0,1.18-.7,1.18-1.57Z"/>
        </g>
        <g>
          <path class="cls-desktop-3" d="m412.88,404.2l-1.72.53-.25-.83,2.22-.77h.75v9.17h-1.01v-8.1Z"/>
          <path class="cls-desktop-3" d="m417.53,404.2l-1.72.53-.25-.83,2.22-.77h.75v9.17h-1.01v-8.1Z"/>
          <path class="cls-desktop-3" d="m420.53,405.45v-.03c0-1.24.83-2.33,2.08-2.33s2.04,1.08,2.04,2.3v.03c0,1.23-.83,2.33-2.07,2.33s-2.05-1.08-2.05-2.3Zm.87-.05v.03c0,.91.53,1.6,1.21,1.6s1.18-.7,1.18-1.57v-.03c0-.91-.55-1.6-1.21-1.6-.71,0-1.18.71-1.18,1.57Zm6.75-2.2h.92l-3.51,4.77-3.16,4.33h-.94l3.51-4.75,3.17-4.36Zm-2.25,6.9v-.03c0-1.24.83-2.33,2.07-2.33s2.04,1.08,2.04,2.3v.03c0,1.23-.82,2.33-2.07,2.33s-2.04-1.08-2.04-2.3Zm3.25,0v-.03c0-.91-.53-1.6-1.21-1.6s-1.18.71-1.18,1.57v.03c0,.91.53,1.6,1.21,1.6.71,0,1.18-.7,1.18-1.57Z"/>
        </g>
        <g>
          <path class="cls-desktop-4" d="m405.91,439.24l-1.72.53-.25-.83,2.22-.77h.75v9.17h-1.01v-8.1Z"/>
          <path class="cls-desktop-4" d="m409.04,442.82v-.03c0-2.55,1.52-4.71,3.86-4.71s3.82,2.13,3.82,4.68v.03c0,2.55-1.51,4.71-3.85,4.71s-3.83-2.13-3.83-4.68Zm6.62,0v-.03c0-1.99-1.09-3.77-2.78-3.77s-2.77,1.74-2.77,3.74v.03c0,1.99,1.09,3.77,2.79,3.77s2.76-1.75,2.76-3.74Z"/>
          <path class="cls-desktop-4" d="m418.34,442.82v-.03c0-2.55,1.52-4.71,3.86-4.71s3.82,2.13,3.82,4.68v.03c0,2.55-1.51,4.71-3.85,4.71s-3.83-2.13-3.83-4.68Zm6.62,0v-.03c0-1.99-1.09-3.77-2.78-3.77s-2.77,1.74-2.77,3.74v.03c0,1.99,1.09,3.77,2.79,3.77s2.76-1.75,2.76-3.74Z"/>
          <path class="cls-desktop-4" d="m427.5,440.49v-.03c0-1.24.83-2.33,2.08-2.33s2.04,1.08,2.04,2.3v.03c0,1.23-.83,2.33-2.07,2.33s-2.05-1.08-2.05-2.3Zm.87-.05v.03c0,.91.53,1.6,1.21,1.6s1.18-.7,1.18-1.57v-.03c0-.91-.55-1.6-1.21-1.6-.71,0-1.18.71-1.18,1.57Zm6.75-2.2h.92l-3.51,4.77-3.16,4.33h-.94l3.51-4.75,3.17-4.36Zm-2.25,6.9v-.03c0-1.24.83-2.33,2.07-2.33s2.04,1.08,2.04,2.3v.03c0,1.23-.82,2.33-2.07,2.33s-2.04-1.08-2.04-2.3Zm3.25,0v-.03c0-.91-.53-1.6-1.21-1.6s-1.18.71-1.18,1.57v.03c0,.91.53,1.6,1.21,1.6.71,0,1.18-.7,1.18-1.57Z"/>
        </g>
      </g>
      <g id="follow_up_title">
        <path class="cls-desktop-10" d="m693.76,47.67h9.06v1.31h-7.63v4.5h6.82v1.3h-6.82v5.49h-1.42v-12.6Z"/>
        <path class="cls-desktop-10" d="m704.49,55.66v-.04c0-2.63,2.05-4.86,4.86-4.86s4.84,2.2,4.84,4.83v.04c0,2.63-2.07,4.86-4.88,4.86s-4.83-2.2-4.83-4.83Zm8.28,0v-.04c0-2-1.49-3.64-3.46-3.64s-3.4,1.64-3.4,3.6v.04c0,2,1.48,3.62,3.44,3.62s3.42-1.62,3.42-3.58Z"/>
        <path class="cls-desktop-10" d="m716.82,47.13h1.39v13.14h-1.39v-13.14Z"/>
        <path class="cls-desktop-10" d="m721.55,47.13h1.39v13.14h-1.39v-13.14Z"/>
        <path class="cls-desktop-10" d="m725.59,55.66v-.04c0-2.63,2.05-4.86,4.86-4.86s4.84,2.2,4.84,4.83v.04c0,2.63-2.07,4.86-4.88,4.86s-4.83-2.2-4.83-4.83Zm8.28,0v-.04c0-2-1.49-3.64-3.46-3.64s-3.4,1.64-3.4,3.6v.04c0,2,1.48,3.62,3.44,3.62s3.42-1.62,3.42-3.58Z"/>
        <path class="cls-desktop-10" d="m736.55,50.96h1.48l2.45,7.47,2.5-7.51h1.15l2.52,7.51,2.45-7.47h1.44l-3.28,9.38h-1.21l-2.5-7.35-2.52,7.35h-1.22l-3.26-9.38Z"/>
        <path class="cls-desktop-10" d="m752.28,54.13h5.01v1.46h-5.01v-1.46Z"/>
        <path class="cls-desktop-10" d="m759.86,56.74v-5.78h1.39v5.44c0,1.73.94,2.81,2.57,2.81s2.79-1.17,2.79-2.92v-5.33h1.37v9.31h-1.37v-1.62c-.63,1.01-1.58,1.82-3.19,1.82-2.25,0-3.57-1.51-3.57-3.73Z"/>
        <path class="cls-desktop-10" d="m771.09,50.96h1.39v1.87c.76-1.12,1.85-2.07,3.56-2.07,2.23,0,4.45,1.76,4.45,4.83v.04c0,3.04-2.2,4.84-4.45,4.84-1.73,0-2.84-.94-3.56-1.98v4.66h-1.39v-12.19Zm7.98,4.68v-.04c0-2.2-1.51-3.6-3.28-3.6s-3.37,1.46-3.37,3.58v.04c0,2.16,1.64,3.6,3.37,3.6s3.28-1.33,3.28-3.58Z"/>
      </g>
      <g id="study_text">
        <path class="cls-desktop-10" d="m0,.54h9.51v2.47H2.75v2.56h5.94v2.47H2.75v2.65h6.84v2.47H0V.54Z"/>
        <path class="cls-desktop-10" d="m11.77,3.49h2.74v1.39c.67-.9,1.58-1.57,3.01-1.57,2.25,0,4.39,1.76,4.39,4.99v.04c0,3.22-2.11,4.99-4.39,4.99-1.46,0-2.36-.67-3.01-1.44v4.14h-2.74V3.49Zm7.4,4.84v-.04c0-1.6-1.08-2.66-2.36-2.66s-2.34,1.06-2.34,2.66v.04c0,1.6,1.06,2.67,2.34,2.67s2.36-1.04,2.36-2.67Z"/>
        <path class="cls-desktop-10" d="m23.98,0h2.88v2.43h-2.88V0Zm.07,3.49h2.74v9.65h-2.74V3.49Z"/>
        <path class="cls-desktop-10" d="m29.03,6.25h5.55v2.63h-5.55v-2.63Z"/>
        <path class="cls-desktop-10" d="m37.12.54h2.77v12.6h-2.77V.54Z"/>
        <path class="cls-desktop-10" d="m43.04.54h5.85c1.44,0,2.57.4,3.29,1.12.58.58.86,1.28.86,2.14v.04c0,1.42-.76,2.21-1.66,2.72,1.46.56,2.36,1.4,2.36,3.1v.04c0,2.3-1.87,3.46-4.72,3.46h-6V.54Zm7.26,3.73c0-.83-.65-1.3-1.82-1.3h-2.74v2.67h2.56c1.22,0,2-.4,2-1.33v-.04Zm-1.35,3.67h-3.21v2.77h3.29c1.22,0,1.96-.43,1.96-1.37v-.04c0-.85-.63-1.37-2.05-1.37Z"/>
        <path class="cls-desktop-10" d="m56.03.54h4.92c3.96,0,6.7,2.72,6.7,6.27v.04c0,3.55-2.74,6.3-6.7,6.3h-4.92V.54Zm2.77,2.5v7.6h2.14c2.27,0,3.8-1.53,3.8-3.76v-.04c0-2.23-1.53-3.8-3.8-3.8h-2.14Z"/>
        <path class="cls-desktop-10" d="m74.46,11.87l1.17-1.8c1.04.76,2.14,1.15,3.04,1.15.79,0,1.15-.29,1.15-.72v-.04c0-.59-.94-.79-2-1.12-1.35-.4-2.88-1.03-2.88-2.9v-.04c0-1.96,1.58-3.06,3.53-3.06,1.22,0,2.56.41,3.6,1.12l-1.04,1.89c-.95-.56-1.91-.9-2.61-.9-.67,0-1.01.29-1.01.67v.04c0,.54.92.79,1.96,1.15,1.35.45,2.92,1.1,2.92,2.86v.04c0,2.14-1.6,3.11-3.69,3.11-1.35,0-2.86-.45-4.14-1.46Z"/>
        <path class="cls-desktop-10" d="m84.53,10.41v-4.57h-1.15v-2.34h1.15V1.03h2.74v2.47h2.27v2.34h-2.27v4.12c0,.63.27.94.88.94.5,0,.95-.13,1.35-.34v2.2c-.58.34-1.24.56-2.16.56-1.67,0-2.81-.67-2.81-2.9Z"/>
        <path class="cls-desktop-10" d="m91.48,9.74V3.49h2.74v5.38c0,1.3.61,1.96,1.66,1.96s1.71-.67,1.71-1.96V3.49h2.74v9.65h-2.74v-1.37c-.63.81-1.44,1.55-2.83,1.55-2.07,0-3.28-1.37-3.28-3.58Z"/>
        <path class="cls-desktop-10" d="m102.33,8.34v-.04c0-3.22,2.11-4.99,4.39-4.99,1.46,0,2.36.67,3.01,1.44V0h2.74v13.14h-2.74v-1.39c-.67.9-1.58,1.57-3.01,1.57-2.25,0-4.39-1.76-4.39-4.99Zm7.44,0v-.04c0-1.6-1.06-2.66-2.34-2.66s-2.36,1.04-2.36,2.66v.04c0,1.6,1.08,2.67,2.36,2.67s2.34-1.06,2.34-2.67Z"/>
        <path class="cls-desktop-10" d="m121.25,3.49h2.84l-3.71,9.89c-.74,1.96-1.53,2.7-3.17,2.7-.99,0-1.73-.25-2.43-.67l.92-1.98c.36.22.81.38,1.17.38.47,0,.72-.14.95-.63l-3.78-9.69h2.9l2.2,6.57,2.11-6.57Z"/>
        <path class="cls-desktop-10" d="m125.69,3.49h2.92v2.88h-2.92v-2.88Zm0,6.77h2.92v2.88h-2.92v-2.88Z"/>
        <path class="cls-desktop-10" d="m.31,28.42v-.04c0-1.48,1.21-2.67,2.68-2.67s2.68,1.19,2.68,2.67v.04c0,1.48-1.21,2.67-2.68,2.67s-2.68-1.19-2.68-2.67Z"/>
        <path class="cls-desktop-10" d="m18,22.14h2.56l5.91,7.76v-7.76h2.74v12.6h-2.36l-6.1-8.01v8.01h-2.74v-12.6Z"/>
        <path class="cls-desktop-10" d="m37.42,24.82h8.89v2.48h-8.89v-2.48Zm0,4.68h8.89v2.48h-8.89v-2.48Z"/>
        <path class="cls-desktop-10" d="m60.19,32.03h-6.16l-.45-1.96,6.91-8.01h2.34v7.72h1.69v2.25h-1.69v2.72h-2.65v-2.72Zm0-2.25v-3.92l-3.35,3.92h3.35Z"/>
        <path class="cls-desktop-10" d="m66.24,31.29v-.04c0-1.53.7-2.43,2.03-3.04-.97-.59-1.6-1.4-1.6-2.75v-.04c0-1.93,1.76-3.46,4.43-3.46s4.43,1.51,4.43,3.46v.04c0,1.35-.63,2.16-1.6,2.75,1.28.67,2.03,1.48,2.03,2.97v.04c0,2.34-2.07,3.71-4.86,3.71s-4.86-1.44-4.86-3.64Zm7.04-.22v-.04c0-.97-.92-1.55-2.18-1.55s-2.18.58-2.18,1.55v.04c0,.86.81,1.57,2.18,1.57s2.18-.68,2.18-1.57Zm-.38-5.31v-.04c0-.77-.67-1.48-1.8-1.48s-1.8.68-1.8,1.46v.04c0,.88.7,1.55,1.8,1.55s1.8-.65,1.8-1.53Z"/>
        <path class="cls-desktop-10" d="m77.58,31.29v-.04c0-1.53.7-2.43,2.03-3.04-.97-.59-1.6-1.4-1.6-2.75v-.04c0-1.93,1.76-3.46,4.43-3.46s4.43,1.51,4.43,3.46v.04c0,1.35-.63,2.16-1.6,2.75,1.28.67,2.03,1.48,2.03,2.97v.04c0,2.34-2.07,3.71-4.86,3.71s-4.86-1.44-4.86-3.64Zm7.04-.22v-.04c0-.97-.92-1.55-2.18-1.55s-2.18.58-2.18,1.55v.04c0,.86.81,1.57,2.18,1.57s2.18-.68,2.18-1.57Zm-.38-5.31v-.04c0-.77-.67-1.48-1.8-1.48s-1.8.68-1.8,1.46v.04c0,.88.7,1.55,1.8,1.55s1.8-.65,1.8-1.53Z"/>
        <path class="cls-desktop-10" d="m95.06,25.44h1.39v1.87c.76-1.12,1.85-2.07,3.56-2.07,2.23,0,4.45,1.76,4.45,4.83v.04c0,3.04-2.2,4.84-4.45,4.84-1.73,0-2.84-.94-3.56-1.98v4.66h-1.39v-12.19Zm7.98,4.68v-.04c0-2.2-1.51-3.6-3.28-3.6s-3.37,1.46-3.37,3.58v.04c0,2.16,1.64,3.6,3.37,3.6s3.28-1.33,3.28-3.58Z"/>
        <path class="cls-desktop-10" d="m106.31,32.04v-.04c0-1.96,1.62-3.01,3.98-3.01,1.19,0,2.03.16,2.86.4v-.32c0-1.67-1.03-2.54-2.77-2.54-1.1,0-1.96.29-2.83.68l-.41-1.13c1.03-.47,2.03-.77,3.39-.77s2.32.34,3.01,1.03c.63.63.95,1.53.95,2.72v5.69h-1.33v-1.4c-.65.85-1.73,1.6-3.37,1.6-1.73,0-3.48-.99-3.48-2.9Zm6.86-.72v-.9c-.68-.2-1.6-.4-2.74-.4-1.75,0-2.72.76-2.72,1.93v.04c0,1.17,1.08,1.85,2.34,1.85,1.71,0,3.12-1.04,3.12-2.52Z"/>
        <path class="cls-desktop-10" d="m117.83,32.28v-5.62h-1.3v-1.22h1.3v-2.81h1.39v2.81h2.95v1.22h-2.95v5.44c0,1.13.63,1.55,1.57,1.55.47,0,.86-.09,1.35-.32v1.19c-.49.25-1.01.4-1.67.4-1.49,0-2.63-.74-2.63-2.63Z"/>
        <path class="cls-desktop-10" d="m124.65,21.87h1.58v1.53h-1.58v-1.53Zm.09,3.57h1.39v9.31h-1.39v-9.31Z"/>
        <path class="cls-desktop-10" d="m128.77,30.12v-.04c0-2.68,1.89-4.84,4.47-4.84,2.75,0,4.34,2.2,4.34,4.92,0,.18,0,.29-.02.45h-7.38c.2,2.02,1.62,3.15,3.28,3.15,1.28,0,2.18-.52,2.93-1.31l.86.77c-.94,1.04-2.07,1.75-3.83,1.75-2.56,0-4.65-1.96-4.65-4.84Zm7.4-.54c-.14-1.69-1.12-3.17-2.97-3.17-1.62,0-2.85,1.35-3.03,3.17h6Z"/>
        <path class="cls-desktop-10" d="m140,25.44h1.39v1.62c.61-1.01,1.58-1.82,3.19-1.82,2.25,0,3.56,1.51,3.56,3.73v5.78h-1.39v-5.44c0-1.73-.94-2.81-2.57-2.81s-2.79,1.17-2.79,2.92v5.33h-1.39v-9.31Z"/>
        <path class="cls-desktop-10" d="m151.58,32.28v-5.62h-1.3v-1.22h1.3v-2.81h1.39v2.81h2.95v1.22h-2.95v5.44c0,1.13.63,1.55,1.57,1.55.47,0,.86-.09,1.35-.32v1.19c-.49.25-1.01.4-1.67.4-1.49,0-2.63-.74-2.63-2.63Z"/>
        <path class="cls-desktop-10" d="m157.59,33.56l.7-.99c1.01.76,2.12,1.19,3.22,1.19s1.93-.58,1.93-1.48v-.04c0-.94-1.1-1.3-2.32-1.64-1.46-.41-3.08-.92-3.08-2.63v-.04c0-1.6,1.33-2.67,3.17-2.67,1.13,0,2.4.4,3.35,1.03l-.63,1.04c-.86-.56-1.85-.9-2.75-.9-1.1,0-1.8.58-1.8,1.35v.04c0,.88,1.15,1.22,2.4,1.6,1.44.43,2.99.99,2.99,2.67v.04c0,1.76-1.46,2.79-3.31,2.79-1.33,0-2.81-.52-3.85-1.37Z"/>
        <path class="cls-desktop-10" d="m171.93,25.44h1.48l2.45,7.47,2.5-7.51h1.15l2.52,7.51,2.45-7.47h1.44l-3.28,9.38h-1.21l-2.5-7.35-2.52,7.35h-1.22l-3.26-9.38Z"/>
        <path class="cls-desktop-10" d="m188.26,21.87h1.58v1.53h-1.58v-1.53Zm.09,3.57h1.39v9.31h-1.39v-9.31Z"/>
        <path class="cls-desktop-10" d="m193.44,32.28v-5.62h-1.3v-1.22h1.3v-2.81h1.39v2.81h2.95v1.22h-2.95v5.44c0,1.13.63,1.55,1.57,1.55.47,0,.86-.09,1.35-.32v1.19c-.49.25-1.01.4-1.67.4-1.49,0-2.63-.74-2.63-2.63Z"/>
        <path class="cls-desktop-10" d="m200.23,21.6h1.39v5.46c.61-1.01,1.58-1.82,3.19-1.82,2.25,0,3.56,1.51,3.56,3.73v5.78h-1.39v-5.44c0-1.73-.94-2.81-2.57-2.81s-2.79,1.17-2.79,2.92v5.33h-1.39v-13.14Z"/>
        <path class="cls-desktop-10" d="m216.12,28.48v-.04c0-3.58,2.7-6.52,6.57-6.52,2.38,0,3.8.79,4.97,1.95l-1.76,2.03c-.97-.88-1.96-1.42-3.22-1.42-2.12,0-3.66,1.76-3.66,3.92v.04c0,2.16,1.49,3.96,3.66,3.96,1.44,0,2.32-.58,3.31-1.48l1.76,1.78c-1.3,1.39-2.74,2.25-5.17,2.25-3.71,0-6.46-2.86-6.46-6.48Z"/>
        <path class="cls-desktop-10" d="m229.97,22.14h4.92c3.96,0,6.7,2.72,6.7,6.27v.04c0,3.55-2.74,6.3-6.7,6.3h-4.92v-12.6Zm2.77,2.5v7.6h2.14c2.27,0,3.8-1.53,3.8-3.76v-.04c0-2.23-1.53-3.8-3.8-3.8h-2.14Z"/>
        <path class="cls-desktop-10" d="m.31,50.02v-.04c0-1.48,1.21-2.67,2.68-2.67s2.68,1.19,2.68,2.67v.04c0,1.48-1.21,2.67-2.68,2.67s-2.68-1.19-2.68-2.67Z"/>
        <path class="cls-desktop-10" d="m17.37,54.15l4.2-3.44c1.57-1.3,2.18-1.98,2.18-3.02s-.7-1.64-1.69-1.64-1.64.54-2.57,1.69l-1.94-1.57c1.24-1.69,2.45-2.61,4.7-2.61,2.61,0,4.34,1.53,4.34,3.89v.04c0,2.11-1.08,3.15-3.31,4.88l-2.05,1.58h5.49v2.39h-9.33v-2.2Z"/>
        <path class="cls-desktop-10" d="m35.77,51.18c-.65.54-1.48.86-2.56.86-2.74,0-4.5-1.51-4.5-4.07v-.04c0-2.54,1.96-4.41,4.81-4.41,1.69,0,2.68.42,3.64,1.37.9.9,1.49,2.27,1.49,4.75v.04c0,4.09-1.93,6.88-5.51,6.88-1.84,0-3.08-.61-4.14-1.49l1.46-2.11c.92.74,1.69,1.08,2.75,1.08,1.91,0,2.45-1.78,2.56-2.86Zm.05-3.31v-.04c0-1.12-.83-1.93-2.21-1.93s-2.14.79-2.14,1.91v.04c0,1.12.83,1.89,2.2,1.89s2.16-.79,2.16-1.87Z"/>
        <path class="cls-desktop-10" d="m46.53,43.74h9.51v2.47h-6.75v2.56h5.94v2.47h-5.94v2.65h6.84v2.47h-9.6v-12.6Z"/>
        <path class="cls-desktop-10" d="m58.23,52.94v-6.25h2.74v5.38c0,1.3.61,1.96,1.66,1.96s1.71-.67,1.71-1.96v-5.38h2.74v9.65h-2.74v-1.37c-.63.81-1.44,1.55-2.83,1.55-2.07,0-3.28-1.37-3.28-3.58Z"/>
        <path class="cls-desktop-10" d="m69.52,46.69h2.74v1.94c.56-1.33,1.46-2.2,3.08-2.12v2.86h-.14c-1.82,0-2.94,1.1-2.94,3.4v3.57h-2.74v-9.65Z"/>
        <path class="cls-desktop-10" d="m76.3,51.57v-.04c0-2.77,2.23-5.02,5.24-5.02s5.2,2.21,5.2,4.99v.04c0,2.77-2.23,5.02-5.24,5.02s-5.2-2.21-5.2-4.99Zm7.74,0v-.04c0-1.42-1.03-2.67-2.54-2.67s-2.5,1.21-2.5,2.63v.04c0,1.42,1.03,2.67,2.54,2.67s2.5-1.21,2.5-2.63Z"/>
        <path class="cls-desktop-10" d="m88.72,46.69h2.74v1.39c.67-.9,1.58-1.57,3.01-1.57,2.25,0,4.39,1.76,4.39,4.99v.04c0,3.22-2.11,4.99-4.39,4.99-1.46,0-2.36-.67-3.01-1.44v4.14h-2.74v-12.53Zm7.4,4.84v-.04c0-1.6-1.08-2.66-2.36-2.66s-2.34,1.06-2.34,2.66v.04c0,1.6,1.06,2.67,2.34,2.67s2.36-1.04,2.36-2.67Z"/>
        <path class="cls-desktop-10" d="m100.4,51.57v-.04c0-2.75,1.96-5.02,4.77-5.02,3.22,0,4.7,2.5,4.7,5.24,0,.22-.02.47-.04.72h-6.72c.27,1.24,1.13,1.89,2.36,1.89.92,0,1.58-.29,2.34-.99l1.57,1.39c-.9,1.12-2.2,1.8-3.94,1.8-2.9,0-5.04-2.03-5.04-4.99Zm6.81-.81c-.16-1.22-.88-2.05-2.03-2.05s-1.87.81-2.09,2.05h4.12Z"/>
        <path class="cls-desktop-10" d="m111.33,53.57v-.04c0-2.11,1.6-3.08,3.89-3.08.97,0,1.67.16,2.36.4v-.16c0-1.13-.7-1.76-2.07-1.76-1.04,0-1.78.2-2.67.52l-.68-2.09c1.06-.47,2.11-.77,3.75-.77,1.49,0,2.57.4,3.26,1.08.72.72,1.04,1.78,1.04,3.08v5.6h-2.65v-1.04c-.67.74-1.58,1.22-2.92,1.22-1.82,0-3.31-1.04-3.31-2.95Zm6.28-.63v-.49c-.47-.22-1.08-.36-1.75-.36-1.17,0-1.89.47-1.89,1.33v.04c0,.74.61,1.17,1.49,1.17,1.28,0,2.14-.7,2.14-1.69Z"/>
        <path class="cls-desktop-10" d="m122.56,46.69h2.74v1.37c.63-.81,1.44-1.55,2.83-1.55,2.07,0,3.28,1.37,3.28,3.58v6.25h-2.74v-5.38c0-1.3-.61-1.96-1.66-1.96s-1.71.67-1.71,1.96v5.38h-2.74v-9.65Z"/>
        <path class="cls-desktop-10" d="m139.86,43.74h1.42v12.6h-1.42v-12.6Z"/>
        <path class="cls-desktop-10" d="m144.97,43.74h5.37c1.44,0,2.57.41,3.3,1.12.52.54.81,1.21.81,2.02v.04c0,1.64-1.01,2.48-2,2.92,1.49.45,2.7,1.31,2.7,3.04v.04c0,2.16-1.82,3.44-4.57,3.44h-5.6v-12.6Zm8.03,3.33c0-1.24-.99-2.05-2.79-2.05h-3.83v4.34h3.73c1.71,0,2.9-.77,2.9-2.25v-.04Zm-2.65,3.55h-3.98v4.45h4.23c1.91,0,3.1-.85,3.1-2.25v-.04c0-1.37-1.15-2.16-3.35-2.16Z"/>
        <path class="cls-desktop-10" d="m157.97,43.74h4.38c3.96,0,6.7,2.72,6.7,6.27v.04c0,3.55-2.74,6.3-6.7,6.3h-4.38v-12.6Zm1.42,1.31v9.97h2.95c3.19,0,5.22-2.16,5.22-4.95v-.04c0-2.79-2.03-4.99-5.22-4.99h-2.95Z"/>
        <path class="cls-desktop-10" d="m176.63,51.73v-.04c0-2.63,2.05-4.86,4.77-4.86,1.76,0,2.86.74,3.73,1.66l-.92.97c-.74-.77-1.57-1.4-2.83-1.4-1.89,0-3.33,1.6-3.33,3.6v.04c0,2.02,1.48,3.62,3.42,3.62,1.19,0,2.11-.59,2.84-1.39l.88.83c-.94,1.04-2.05,1.8-3.8,1.8-2.72,0-4.77-2.21-4.77-4.83Z"/>
        <path class="cls-desktop-10" d="m186.64,51.72v-.04c0-2.68,1.89-4.84,4.47-4.84,2.75,0,4.34,2.2,4.34,4.92,0,.18,0,.29-.02.45h-7.38c.2,2.02,1.62,3.15,3.28,3.15,1.28,0,2.18-.52,2.93-1.31l.86.77c-.94,1.04-2.07,1.75-3.83,1.75-2.56,0-4.65-1.96-4.65-4.84Zm7.4-.54c-.14-1.69-1.12-3.17-2.97-3.17-1.62,0-2.84,1.35-3.02,3.17h6Z"/>
        <path class="cls-desktop-10" d="m197.87,47.04h1.39v1.62c.61-1.01,1.58-1.82,3.19-1.82,2.25,0,3.57,1.51,3.57,3.73v5.78h-1.39v-5.44c0-1.73-.94-2.81-2.57-2.81s-2.79,1.17-2.79,2.92v5.33h-1.39v-9.31Z"/>
        <path class="cls-desktop-10" d="m209.45,53.88v-5.62h-1.3v-1.22h1.3v-2.81h1.39v2.81h2.95v1.22h-2.95v5.44c0,1.13.63,1.55,1.57,1.55.47,0,.86-.09,1.35-.32v1.19c-.49.25-1.01.4-1.67.4-1.49,0-2.63-.74-2.63-2.63Z"/>
        <path class="cls-desktop-10" d="m216.23,47.04h1.39v2.43c.68-1.55,2.03-2.67,3.8-2.59v1.49h-.11c-2.03,0-3.69,1.46-3.69,4.27v3.71h-1.39v-9.31Z"/>
        <path class="cls-desktop-10" d="m222.55,51.72v-.04c0-2.68,1.89-4.84,4.47-4.84,2.75,0,4.34,2.2,4.34,4.92,0,.18,0,.29-.02.45h-7.38c.2,2.02,1.62,3.15,3.28,3.15,1.28,0,2.18-.52,2.93-1.31l.86.77c-.94,1.04-2.07,1.75-3.83,1.75-2.56,0-4.65-1.96-4.65-4.84Zm7.4-.54c-.14-1.69-1.12-3.17-2.97-3.17-1.62,0-2.84,1.35-3.02,3.17h6Z"/>
        <path class="cls-desktop-10" d="m233.01,55.16l.7-.99c1.01.76,2.12,1.19,3.22,1.19s1.93-.58,1.93-1.48v-.04c0-.94-1.1-1.3-2.32-1.64-1.46-.41-3.08-.92-3.08-2.63v-.04c0-1.6,1.33-2.67,3.17-2.67,1.13,0,2.39.4,3.35,1.03l-.63,1.04c-.86-.56-1.85-.9-2.75-.9-1.1,0-1.8.58-1.8,1.35v.04c0,.88,1.15,1.22,2.4,1.6,1.44.43,2.99.99,2.99,2.67v.04c0,1.76-1.46,2.79-3.31,2.79-1.33,0-2.81-.52-3.85-1.37Z"/>
        <path class="cls-desktop-10" d="m18.07,65.07h1.58v1.53h-1.58v-1.53Zm.09,3.57h1.39v9.31h-1.39v-9.31Z"/>
        <path class="cls-desktop-10" d="m22.77,68.63h1.39v1.62c.61-1.01,1.58-1.82,3.19-1.82,2.25,0,3.56,1.51,3.56,3.73v5.78h-1.39v-5.44c0-1.73-.94-2.81-2.57-2.81s-2.79,1.17-2.79,2.92v5.33h-1.39v-9.31Z"/>
        <path class="cls-desktop-10" d="m32.58,68.63h1.53l3.13,7.72,3.15-7.72h1.49l-4.05,9.38h-1.22l-4.03-9.38Z"/>
        <path class="cls-desktop-10" d="m42.95,73.33v-.04c0-2.63,2.05-4.86,4.86-4.86s4.84,2.2,4.84,4.83v.04c0,2.63-2.07,4.86-4.88,4.86s-4.83-2.2-4.83-4.83Zm8.28,0v-.04c0-2-1.49-3.64-3.46-3.64s-3.4,1.64-3.4,3.6v.04c0,2,1.48,3.62,3.44,3.62s3.42-1.62,3.42-3.58Z"/>
        <path class="cls-desktop-10" d="m55.28,64.8h1.39v13.14h-1.39v-13.14Z"/>
        <path class="cls-desktop-10" d="m58.97,68.63h1.53l3.13,7.72,3.15-7.72h1.49l-4.05,9.38h-1.22l-4.03-9.38Z"/>
        <path class="cls-desktop-10" d="m69.34,73.32v-.04c0-2.68,1.89-4.84,4.47-4.84,2.75,0,4.34,2.2,4.34,4.92,0,.18,0,.29-.02.45h-7.38c.2,2.02,1.62,3.15,3.28,3.15,1.28,0,2.18-.52,2.93-1.31l.86.77c-.94,1.04-2.07,1.75-3.83,1.75-2.56,0-4.65-1.96-4.65-4.84Zm7.4-.54c-.14-1.69-1.12-3.17-2.97-3.17-1.62,0-2.84,1.35-3.02,3.17h6Z"/>
        <path class="cls-desktop-10" d="m80.03,73.32v-.04c0-3.04,2.21-4.84,4.45-4.84,1.73,0,2.84.94,3.56,1.98v-5.62h1.39v13.14h-1.39v-1.87c-.76,1.12-1.85,2.07-3.56,2.07-2.23,0-4.45-1.76-4.45-4.83Zm8.07-.02v-.04c0-2.14-1.64-3.58-3.37-3.58s-3.28,1.33-3.28,3.58v.04c0,2.2,1.51,3.6,3.28,3.6s3.37-1.46,3.37-3.6Z"/>
        <path class="cls-desktop-10" d="m.31,93.22v-.04c0-1.48,1.21-2.67,2.68-2.67s2.68,1.19,2.68,2.67v.04c0,1.48-1.21,2.67-2.68,2.67s-2.68-1.19-2.68-2.67Z"/>
        <path class="cls-desktop-10" d="m18,86.94h5.15c3.01,0,4.83,1.78,4.83,4.36v.04c0,2.92-2.27,4.43-5.1,4.43h-2.11v3.78h-2.77v-12.6Zm4.97,6.36c1.39,0,2.2-.83,2.2-1.91v-.04c0-1.24-.86-1.91-2.25-1.91h-2.14v3.85h2.2Z"/>
        <path class="cls-desktop-10" d="m29.74,89.89h2.74v1.95c.56-1.33,1.46-2.2,3.08-2.12v2.86h-.14c-1.82,0-2.94,1.1-2.94,3.4v3.57h-2.74v-9.65Z"/>
        <path class="cls-desktop-10" d="m36.52,94.77v-.04c0-2.77,2.23-5.02,5.24-5.02s5.2,2.21,5.2,4.99v.04c0,2.77-2.23,5.02-5.24,5.02s-5.2-2.21-5.2-4.99Zm7.74,0v-.04c0-1.42-1.03-2.67-2.54-2.67s-2.5,1.21-2.5,2.63v.04c0,1.42,1.03,2.67,2.54,2.67s2.5-1.21,2.5-2.63Z"/>
        <path class="cls-desktop-10" d="m48.19,98.27l1.17-1.8c1.04.76,2.14,1.15,3.04,1.15.79,0,1.15-.29,1.15-.72v-.04c0-.59-.94-.79-2-1.12-1.35-.4-2.88-1.03-2.88-2.9v-.04c0-1.96,1.58-3.06,3.53-3.06,1.22,0,2.56.41,3.6,1.12l-1.04,1.89c-.95-.56-1.91-.9-2.61-.9-.67,0-1.01.29-1.01.67v.04c0,.54.92.79,1.96,1.15,1.35.45,2.92,1.1,2.92,2.86v.04c0,2.14-1.6,3.11-3.69,3.11-1.35,0-2.86-.45-4.14-1.46Z"/>
        <path class="cls-desktop-10" d="m57.98,89.89h2.74v1.39c.67-.9,1.58-1.57,3.01-1.57,2.25,0,4.39,1.76,4.39,4.99v.04c0,3.22-2.11,4.99-4.39,4.99-1.46,0-2.36-.67-3.01-1.44v4.14h-2.74v-12.53Zm7.4,4.84v-.04c0-1.6-1.08-2.66-2.36-2.66s-2.34,1.06-2.34,2.66v.04c0,1.6,1.06,2.67,2.34,2.67s2.36-1.04,2.36-2.67Z"/>
        <path class="cls-desktop-10" d="m69.66,94.77v-.04c0-2.75,1.96-5.02,4.77-5.02,3.22,0,4.7,2.5,4.7,5.24,0,.22-.02.47-.04.72h-6.72c.27,1.24,1.13,1.89,2.36,1.89.92,0,1.58-.29,2.34-.99l1.57,1.39c-.9,1.12-2.2,1.8-3.94,1.8-2.9,0-5.04-2.03-5.04-4.99Zm6.81-.81c-.16-1.22-.88-2.05-2.03-2.05s-1.87.81-2.09,2.05h4.12Z"/>
        <path class="cls-desktop-10" d="m80.69,94.77v-.04c0-2.75,2.11-5.02,5.06-5.02,1.82,0,2.95.61,3.85,1.62l-1.67,1.8c-.61-.65-1.22-1.06-2.2-1.06-1.37,0-2.34,1.21-2.34,2.63v.04c0,1.48.95,2.67,2.45,2.67.92,0,1.55-.4,2.21-1.03l1.6,1.62c-.94,1.03-2.02,1.76-3.94,1.76-2.9,0-5.02-2.23-5.02-4.99Z"/>
        <path class="cls-desktop-10" d="m91.89,96.81v-4.57h-1.15v-2.34h1.15v-2.47h2.74v2.47h2.27v2.34h-2.27v4.12c0,.63.27.94.88.94.5,0,.95-.13,1.35-.34v2.2c-.58.34-1.24.56-2.16.56-1.67,0-2.81-.67-2.81-2.9Z"/>
        <path class="cls-desktop-10" d="m98.96,86.4h2.88v2.43h-2.88v-2.43Zm.07,3.49h2.74v9.65h-2.74v-9.65Z"/>
        <path class="cls-desktop-10" d="m103.48,89.89h2.9l2.16,6.46,2.18-6.46h2.85l-3.8,9.72h-2.48l-3.8-9.72Z"/>
        <path class="cls-desktop-10" d="m114.14,94.77v-.04c0-2.75,1.96-5.02,4.77-5.02,3.22,0,4.7,2.5,4.7,5.24,0,.22-.02.47-.04.72h-6.72c.27,1.24,1.13,1.89,2.36,1.89.92,0,1.58-.29,2.34-.99l1.57,1.39c-.9,1.12-2.2,1.8-3.94,1.8-2.9,0-5.04-2.03-5.04-4.99Zm6.81-.81c-.16-1.22-.88-2.05-2.03-2.05s-1.87.81-2.09,2.05h4.12Z"/>
        <path class="cls-desktop-10" d="m130.66,96.84v-.04c0-1.96,1.62-3.01,3.98-3.01,1.19,0,2.03.16,2.86.4v-.32c0-1.67-1.03-2.54-2.77-2.54-1.1,0-1.96.29-2.83.68l-.41-1.13c1.03-.47,2.03-.77,3.39-.77s2.32.34,3.01,1.03c.63.63.95,1.53.95,2.72v5.69h-1.33v-1.4c-.65.85-1.73,1.6-3.37,1.6-1.73,0-3.48-.99-3.48-2.9Zm6.86-.72v-.9c-.68-.2-1.6-.4-2.74-.4-1.75,0-2.72.76-2.72,1.93v.04c0,1.17,1.08,1.85,2.34,1.85,1.71,0,3.11-1.04,3.11-2.52Z"/>
        <path class="cls-desktop-10" d="m141.78,90.24h1.39v1.62c.61-1.01,1.58-1.82,3.19-1.82,2.25,0,3.56,1.51,3.56,3.73v5.78h-1.39v-5.44c0-1.73-.94-2.81-2.57-2.81s-2.79,1.17-2.79,2.92v5.33h-1.39v-9.31Z"/>
        <path class="cls-desktop-10" d="m152.33,94.92v-.04c0-3.04,2.21-4.84,4.45-4.84,1.73,0,2.84.94,3.56,1.98v-5.62h1.39v13.14h-1.39v-1.87c-.76,1.12-1.85,2.07-3.56,2.07-2.23,0-4.45-1.76-4.45-4.83Zm8.07-.02v-.04c0-2.14-1.64-3.58-3.37-3.58s-3.28,1.33-3.28,3.58v.04c0,2.2,1.51,3.6,3.28,3.6s3.37-1.46,3.37-3.6Z"/>
        <path class="cls-desktop-10" d="m17.71,111.49h2.74v1.39c.67-.9,1.58-1.57,3.01-1.57,2.25,0,4.39,1.76,4.39,4.99v.04c0,3.22-2.11,4.99-4.39,4.99-1.46,0-2.36-.67-3.01-1.44v4.14h-2.74v-12.53Zm7.4,4.84v-.04c0-1.6-1.08-2.66-2.36-2.66s-2.34,1.06-2.34,2.66v.04c0,1.6,1.06,2.67,2.34,2.67s2.36-1.04,2.36-2.67Z"/>
        <path class="cls-desktop-10" d="m29.39,116.37v-.04c0-2.77,2.23-5.02,5.24-5.02s5.2,2.21,5.2,4.99v.04c0,2.77-2.23,5.02-5.24,5.02s-5.2-2.21-5.2-4.99Zm7.74,0v-.04c0-1.42-1.03-2.67-2.54-2.67s-2.5,1.21-2.5,2.63v.04c0,1.42,1.03,2.67,2.54,2.67s2.5-1.21,2.5-2.63Z"/>
        <path class="cls-desktop-10" d="m41.81,111.49h2.74v1.39c.67-.9,1.58-1.57,3.01-1.57,2.25,0,4.39,1.76,4.39,4.99v.04c0,3.22-2.11,4.99-4.39,4.99-1.46,0-2.36-.67-3.01-1.44v4.14h-2.74v-12.53Zm7.4,4.84v-.04c0-1.6-1.08-2.66-2.36-2.66s-2.34,1.06-2.34,2.66v.04c0,1.6,1.06,2.67,2.34,2.67s2.36-1.04,2.36-2.67Z"/>
        <path class="cls-desktop-10" d="m53.89,117.74v-6.25h2.74v5.38c0,1.3.61,1.96,1.66,1.96s1.71-.67,1.71-1.96v-5.38h2.74v9.65h-2.74v-1.37c-.63.81-1.44,1.55-2.83,1.55-2.07,0-3.28-1.37-3.28-3.58Z"/>
        <path class="cls-desktop-10" d="m65.3,108h2.74v13.14h-2.74v-13.14Z"/>
        <path class="cls-desktop-10" d="m70.04,118.37v-.04c0-2.11,1.6-3.08,3.89-3.08.97,0,1.67.16,2.36.4v-.16c0-1.13-.7-1.76-2.07-1.76-1.04,0-1.78.2-2.66.52l-.68-2.09c1.06-.47,2.11-.77,3.75-.77,1.49,0,2.57.4,3.26,1.08.72.72,1.04,1.78,1.04,3.08v5.6h-2.65v-1.04c-.67.74-1.58,1.22-2.92,1.22-1.82,0-3.31-1.04-3.31-2.95Zm6.28-.63v-.49c-.47-.22-1.08-.36-1.75-.36-1.17,0-1.89.47-1.89,1.33v.04c0,.74.61,1.17,1.49,1.17,1.28,0,2.14-.7,2.14-1.69Z"/>
        <path class="cls-desktop-10" d="m81.63,118.41v-4.57h-1.15v-2.34h1.15v-2.47h2.74v2.47h2.27v2.34h-2.27v4.12c0,.63.27.94.88.94.5,0,.95-.13,1.35-.34v2.2c-.58.34-1.24.56-2.16.56-1.67,0-2.81-.67-2.81-2.9Z"/>
        <path class="cls-desktop-10" d="m88.7,108h2.88v2.43h-2.88v-2.43Zm.07,3.49h2.74v9.65h-2.74v-9.65Z"/>
        <path class="cls-desktop-10" d="m93.62,116.37v-.04c0-2.77,2.23-5.02,5.24-5.02s5.2,2.21,5.2,4.99v.04c0,2.77-2.23,5.02-5.24,5.02s-5.2-2.21-5.2-4.99Zm7.74,0v-.04c0-1.42-1.03-2.67-2.54-2.67s-2.5,1.21-2.5,2.63v.04c0,1.42,1.03,2.67,2.54,2.67s2.5-1.21,2.5-2.63Z"/>
        <path class="cls-desktop-10" d="m106.04,111.49h2.74v1.37c.63-.81,1.44-1.55,2.83-1.55,2.07,0,3.28,1.37,3.28,3.58v6.25h-2.74v-5.38c0-1.3-.61-1.96-1.66-1.96s-1.71.67-1.71,1.96v5.38h-2.74v-9.65Z"/>
        <path class="cls-desktop-10" d="m125.39,119.88v1.26h-2.74v-13.14h2.74v4.88c.67-.9,1.58-1.57,3.01-1.57,2.25,0,4.39,1.76,4.39,4.99v.04c0,3.22-2.11,4.99-4.39,4.99-1.46,0-2.36-.67-3.01-1.44Zm4.66-3.55v-.04c0-1.6-1.08-2.66-2.36-2.66s-2.34,1.06-2.34,2.66v.04c0,1.6,1.06,2.67,2.34,2.67s2.36-1.04,2.36-2.67Z"/>
        <path class="cls-desktop-10" d="m134.22,118.37v-.04c0-2.11,1.6-3.08,3.89-3.08.97,0,1.67.16,2.36.4v-.16c0-1.13-.7-1.76-2.07-1.76-1.04,0-1.78.2-2.66.52l-.68-2.09c1.06-.47,2.11-.77,3.75-.77,1.49,0,2.57.4,3.26,1.08.72.72,1.04,1.78,1.04,3.08v5.6h-2.65v-1.04c-.67.74-1.58,1.22-2.92,1.22-1.82,0-3.31-1.04-3.31-2.95Zm6.28-.63v-.49c-.47-.22-1.08-.36-1.75-.36-1.17,0-1.89.47-1.89,1.33v.04c0,.74.61,1.17,1.49,1.17,1.28,0,2.14-.7,2.14-1.69Z"/>
        <path class="cls-desktop-10" d="m144.7,119.87l1.17-1.8c1.04.76,2.14,1.15,3.04,1.15.79,0,1.15-.29,1.15-.72v-.04c0-.59-.94-.79-2-1.12-1.35-.4-2.88-1.03-2.88-2.9v-.04c0-1.96,1.58-3.06,3.53-3.06,1.22,0,2.56.41,3.6,1.12l-1.04,1.89c-.95-.56-1.91-.9-2.61-.9-.67,0-1.01.29-1.01.67v.04c0,.54.92.79,1.96,1.15,1.35.45,2.92,1.1,2.92,2.86v.04c0,2.14-1.6,3.11-3.69,3.11-1.35,0-2.86-.45-4.14-1.46Z"/>
        <path class="cls-desktop-10" d="m154.02,116.37v-.04c0-2.75,1.96-5.02,4.77-5.02,3.22,0,4.7,2.5,4.7,5.24,0,.22-.02.47-.04.72h-6.72c.27,1.24,1.13,1.89,2.36,1.89.92,0,1.58-.29,2.34-.99l1.57,1.39c-.9,1.12-2.2,1.8-3.94,1.8-2.9,0-5.04-2.03-5.04-4.99Zm6.81-.81c-.16-1.22-.88-2.05-2.03-2.05s-1.87.81-2.09,2.05h4.12Z"/>
        <path class="cls-desktop-10" d="m165.09,116.34v-.04c0-3.22,2.11-4.99,4.39-4.99,1.46,0,2.36.67,3.01,1.44v-4.75h2.74v13.14h-2.74v-1.39c-.67.9-1.58,1.57-3.01,1.57-2.25,0-4.39-1.76-4.39-4.99Zm7.44,0v-.04c0-1.6-1.06-2.66-2.34-2.66s-2.36,1.04-2.36,2.66v.04c0,1.6,1.08,2.67,2.36,2.67s2.34-1.06,2.34-2.67Z"/>
        <path class="cls-desktop-10" d="m.31,136.42v-.04c0-1.48,1.21-2.67,2.68-2.67s2.68,1.19,2.68,2.67v.04c0,1.48-1.21,2.67-2.68,2.67s-2.68-1.19-2.68-2.67Z"/>
        <path class="cls-desktop-10" d="m17.26,141.07l1.67-2c.95.86,1.89,1.37,3.01,1.37,1.3,0,2.11-.63,2.11-1.75v-.04c0-1.08-.92-1.71-2.23-1.71-.79,0-1.51.22-2.11.47l-1.6-1.06.36-6.21h7.74v2.43h-5.37l-.14,2.18c.5-.13.95-.22,1.66-.22,2.45,0,4.41,1.19,4.41,4.03v.04c0,2.67-1.89,4.36-4.79,4.36-2.02,0-3.49-.72-4.72-1.89Z"/>
        <path class="cls-desktop-10" d="m28.73,135.85h5.55v2.63h-5.55v-2.63Z"/>
        <path class="cls-desktop-10" d="m42.46,133.09h2.84l-3.71,9.88c-.74,1.96-1.53,2.7-3.17,2.7-.99,0-1.73-.25-2.43-.67l.92-1.98c.36.22.81.38,1.17.38.47,0,.72-.14.95-.63l-3.78-9.69h2.9l2.2,6.57,2.11-6.57Z"/>
        <path class="cls-desktop-10" d="m45.92,137.97v-.04c0-2.75,1.96-5.02,4.77-5.02,3.22,0,4.7,2.5,4.7,5.24,0,.22-.02.47-.04.72h-6.72c.27,1.24,1.13,1.89,2.36,1.89.92,0,1.58-.29,2.34-.99l1.57,1.39c-.9,1.12-2.2,1.8-3.94,1.8-2.9,0-5.04-2.03-5.04-4.99Zm6.81-.81c-.16-1.22-.88-2.05-2.03-2.05s-1.87.81-2.09,2.05h4.12Z"/>
        <path class="cls-desktop-10" d="m56.84,139.97v-.04c0-2.11,1.6-3.08,3.89-3.08.97,0,1.67.16,2.36.4v-.16c0-1.13-.7-1.76-2.07-1.76-1.04,0-1.78.2-2.67.52l-.68-2.09c1.06-.47,2.11-.77,3.75-.77,1.49,0,2.57.4,3.26,1.08.72.72,1.04,1.78,1.04,3.08v5.6h-2.65v-1.04c-.67.74-1.58,1.22-2.92,1.22-1.82,0-3.31-1.04-3.31-2.95Zm6.28-.63v-.49c-.47-.22-1.08-.36-1.75-.36-1.17,0-1.89.47-1.89,1.33v.04c0,.74.61,1.17,1.49,1.17,1.28,0,2.14-.7,2.14-1.69Z"/>
        <path class="cls-desktop-10" d="m68.08,133.09h2.74v1.94c.56-1.33,1.46-2.2,3.08-2.12v2.86h-.14c-1.82,0-2.94,1.1-2.94,3.4v3.57h-2.74v-9.65Z"/>
        <path class="cls-desktop-10" d="m81.47,135.43h-1.13v-2.25h1.13v-.61c0-1.06.27-1.84.77-2.34.5-.5,1.24-.76,2.21-.76.86,0,1.44.11,1.94.27v2.27c-.4-.14-.77-.23-1.24-.23-.63,0-.99.32-.99,1.04v.38h2.21v2.23h-2.18v7.31h-2.74v-7.31Z"/>
        <path class="cls-desktop-10" d="m87.23,137.97v-.04c0-2.77,2.23-5.02,5.24-5.02s5.2,2.21,5.2,4.99v.04c0,2.77-2.23,5.02-5.24,5.02s-5.2-2.21-5.2-4.99Zm7.74,0v-.04c0-1.42-1.03-2.67-2.54-2.67s-2.5,1.21-2.5,2.63v.04c0,1.42,1.03,2.67,2.54,2.67s2.5-1.21,2.5-2.63Z"/>
        <path class="cls-desktop-10" d="m99.77,129.6h2.74v13.14h-2.74v-13.14Z"/>
        <path class="cls-desktop-10" d="m105.21,129.6h2.74v13.14h-2.74v-13.14Z"/>
        <path class="cls-desktop-10" d="m110.05,137.97v-.04c0-2.77,2.23-5.02,5.24-5.02s5.2,2.21,5.2,4.99v.04c0,2.77-2.23,5.02-5.24,5.02s-5.2-2.21-5.2-4.99Zm7.74,0v-.04c0-1.42-1.03-2.67-2.54-2.67s-2.5,1.21-2.5,2.63v.04c0,1.42,1.03,2.67,2.54,2.67s2.5-1.21,2.5-2.63Z"/>
        <path class="cls-desktop-10" d="m121.23,133.09h2.77l1.55,5.85,1.82-5.89h2.36l1.84,5.91,1.58-5.87h2.72l-3.01,9.72h-2.47l-1.85-5.92-1.89,5.92h-2.45l-2.97-9.72Z"/>
        <path class="cls-desktop-10" d="m137.01,135.85h5.55v2.63h-5.55v-2.63Z"/>
        <path class="cls-desktop-10" d="m144.61,139.34v-6.25h2.74v5.38c0,1.3.61,1.96,1.66,1.96s1.71-.67,1.71-1.96v-5.38h2.74v9.65h-2.74v-1.37c-.63.81-1.44,1.55-2.83,1.55-2.07,0-3.28-1.37-3.28-3.58Z"/>
        <path class="cls-desktop-10" d="m155.9,133.09h2.74v1.39c.67-.9,1.58-1.57,3.01-1.57,2.25,0,4.39,1.76,4.39,4.99v.04c0,3.22-2.11,4.99-4.39,4.99-1.46,0-2.36-.67-3.01-1.44v4.14h-2.74v-12.53Zm7.4,4.84v-.04c0-1.6-1.08-2.66-2.36-2.66s-2.34,1.06-2.34,2.66v.04c0,1.6,1.06,2.67,2.34,2.67s2.36-1.04,2.36-2.67Z"/>
        <path class="cls-desktop-10" d="m174.29,134.66h-1.28v-1.21h1.28v-.81c0-1.06.29-1.87.81-2.4.47-.47,1.15-.72,2-.72.65,0,1.08.07,1.53.23v1.21c-.5-.14-.88-.23-1.35-.23-1.08,0-1.62.65-1.62,1.98v.76h2.95v1.19h-2.94v8.08h-1.39v-8.08Z"/>
        <path class="cls-desktop-10" d="m180.38,133.44h1.39v2.43c.68-1.55,2.03-2.67,3.8-2.59v1.49h-.11c-2.03,0-3.69,1.46-3.69,4.27v3.71h-1.39v-9.31Z"/>
        <path class="cls-desktop-10" d="m186.69,138.13v-.04c0-2.63,2.05-4.86,4.86-4.86s4.84,2.2,4.84,4.83v.04c0,2.63-2.07,4.86-4.88,4.86s-4.83-2.2-4.83-4.83Zm8.28,0v-.04c0-2-1.49-3.64-3.46-3.64s-3.4,1.64-3.4,3.6v.04c0,2,1.48,3.62,3.44,3.62s3.42-1.62,3.42-3.58Z"/>
        <path class="cls-desktop-10" d="m198.9,133.44h1.39v1.57c.61-.92,1.44-1.76,3.01-1.76s2.48.81,2.99,1.85c.67-1.03,1.66-1.85,3.28-1.85,2.14,0,3.46,1.44,3.46,3.75v5.76h-1.39v-5.44c0-1.8-.9-2.81-2.41-2.81-1.4,0-2.57,1.04-2.57,2.88v5.37h-1.37v-5.47c0-1.75-.92-2.77-2.39-2.77s-2.59,1.22-2.59,2.93v5.31h-1.39v-9.31Z"/>
        <path class="cls-desktop-10" d="m220.82,138.12v-.04c0-3.04,2.21-4.84,4.45-4.84,1.73,0,2.84.94,3.56,1.98v-5.62h1.39v13.14h-1.39v-1.87c-.76,1.12-1.85,2.07-3.56,2.07-2.23,0-4.45-1.76-4.45-4.83Zm8.07-.02v-.04c0-2.14-1.64-3.58-3.37-3.58s-3.28,1.33-3.28,3.58v.04c0,2.2,1.51,3.6,3.28,3.6s3.37-1.46,3.37-3.6Z"/>
        <path class="cls-desktop-10" d="m233.35,129.87h1.58v1.53h-1.58v-1.53Zm.09,3.57h1.39v9.31h-1.39v-9.31Z"/>
        <path class="cls-desktop-10" d="m237.67,136.6h5.01v1.46h-5.01v-1.46Z"/>
        <path class="cls-desktop-10" d="m17.33,161.64v-.04c0-1.96,1.62-3.01,3.98-3.01,1.19,0,2.03.16,2.86.4v-.32c0-1.67-1.03-2.54-2.77-2.54-1.1,0-1.96.29-2.83.68l-.41-1.13c1.03-.47,2.03-.77,3.39-.77s2.32.34,3.01,1.03c.63.63.95,1.53.95,2.72v5.69h-1.33v-1.4c-.65.85-1.73,1.6-3.37,1.6-1.73,0-3.48-.99-3.48-2.9Zm6.86-.72v-.9c-.68-.2-1.6-.4-2.74-.4-1.75,0-2.72.76-2.72,1.93v.04c0,1.17,1.08,1.85,2.34,1.85,1.71,0,3.12-1.04,3.12-2.52Z"/>
        <path class="cls-desktop-10" d="m28.35,165.96l.63-1.08c1.06.77,2.25,1.19,3.58,1.19,2.05,0,3.38-1.13,3.38-3.31v-1.1c-.81,1.08-1.94,1.96-3.65,1.96-2.23,0-4.38-1.67-4.38-4.36v-.04c0-2.72,2.16-4.39,4.38-4.39,1.75,0,2.88.86,3.64,1.87v-1.67h1.39v7.69c0,1.44-.43,2.54-1.19,3.29-.83.83-2.07,1.24-3.55,1.24-1.55,0-2.99-.43-4.23-1.3Zm7.63-6.72v-.04c0-1.91-1.66-3.15-3.42-3.15s-3.22,1.22-3.22,3.13v.04c0,1.87,1.49,3.17,3.22,3.17s3.42-1.28,3.42-3.15Z"/>
        <path class="cls-desktop-10" d="m40.41,155.04h1.39v1.62c.61-1.01,1.58-1.82,3.19-1.82,2.25,0,3.56,1.51,3.56,3.73v5.78h-1.39v-5.44c0-1.73-.94-2.81-2.57-2.81s-2.79,1.17-2.79,2.92v5.33h-1.39v-9.31Z"/>
        <path class="cls-desktop-10" d="m50.92,159.73v-.04c0-2.63,2.05-4.86,4.86-4.86s4.84,2.2,4.84,4.83v.04c0,2.63-2.07,4.86-4.88,4.86s-4.83-2.2-4.83-4.83Zm8.28,0v-.04c0-2-1.49-3.64-3.46-3.64s-3.4,1.64-3.4,3.6v.04c0,2,1.48,3.62,3.44,3.62s3.42-1.62,3.42-3.58Z"/>
        <path class="cls-desktop-10" d="m62.35,163.16l.7-.99c1.01.76,2.12,1.19,3.22,1.19s1.93-.58,1.93-1.48v-.04c0-.94-1.1-1.3-2.32-1.64-1.46-.41-3.08-.92-3.08-2.63v-.04c0-1.6,1.33-2.67,3.17-2.67,1.13,0,2.39.4,3.35,1.03l-.63,1.04c-.86-.56-1.85-.9-2.75-.9-1.1,0-1.8.58-1.8,1.35v.04c0,.88,1.15,1.22,2.4,1.6,1.44.43,2.99.99,2.99,2.67v.04c0,1.76-1.46,2.79-3.31,2.79-1.33,0-2.81-.52-3.85-1.37Z"/>
        <path class="cls-desktop-10" d="m72.13,151.47h1.58v1.53h-1.58v-1.53Zm.09,3.57h1.39v9.31h-1.39v-9.31Z"/>
        <path class="cls-desktop-10" d="m76.05,163.16l.7-.99c1.01.76,2.12,1.19,3.22,1.19s1.93-.58,1.93-1.48v-.04c0-.94-1.1-1.3-2.32-1.64-1.46-.41-3.08-.92-3.08-2.63v-.04c0-1.6,1.33-2.67,3.17-2.67,1.13,0,2.4.4,3.35,1.03l-.63,1.04c-.86-.56-1.85-.9-2.75-.9-1.1,0-1.8.58-1.8,1.35v.04c0,.88,1.15,1.22,2.4,1.6,1.44.43,2.99.99,2.99,2.67v.04c0,1.76-1.46,2.79-3.31,2.79-1.33,0-2.81-.52-3.85-1.37Z"/>
      </g>
    </g>
  </g>
</svg>