<?xml version="1.0" encoding="UTF-8"?>
<svg id="rohan_features_high_risk" data-name="rohan_features_high_risk" xmlns="http://www.w3.org/2000/svg" xmlns:xlink="http://www.w3.org/1999/xlink" viewBox="0 0 784.37 457.28">
  <defs>
    <style>
      .cls-1 {
        fill: url(#linear-gradient-12);
      }

      .cls-1, .cls-2, .cls-3, .cls-4, .cls-5, .cls-6, .cls-7, .cls-8, .cls-9, .cls-10, .cls-11, .cls-12, .cls-13, .cls-14 {
        stroke-width: 0px;
      }

      .cls-15 {
        stroke: #872780;
      }

      .cls-15, .cls-16, .cls-17, .cls-18, .cls-19, .cls-20, .cls-21 {
        stroke-miterlimit: 10;
      }

      .cls-15, .cls-17 {
        fill: none;
        stroke-width: 2px;
      }

      .cls-16 {
        stroke: url(#linear-gradient);
      }

      .cls-16, .cls-5, .cls-18, .cls-19, .cls-20, .cls-21 {
        fill: #fff;
      }

      .cls-2 {
        fill: url(#linear-gradient-6);
      }

      .cls-3 {
        fill: url(#linear-gradient-11);
      }

      .cls-17 {
        stroke: #d2c4cf;
      }

      .cls-4 {
        fill: url(#linear-gradient-13);
      }

      .cls-18 {
        stroke: url(#linear-gradient-4);
      }

      .cls-6 {
        fill: url(#linear-gradient-14);
      }

      .cls-7 {
        fill: #828386;
      }

      .cls-8 {
        fill: url(#linear-gradient-7);
      }

      .cls-9 {
        fill: #231f20;
      }

      .cls-19 {
        stroke: url(#linear-gradient-5);
      }

      .cls-20 {
        stroke: url(#linear-gradient-2);
      }

      .cls-10 {
        fill: url(#linear-gradient-9);
      }

      .cls-11 {
        fill: url(#linear-gradient-8);
      }

      .cls-12 {
        fill: #872780;
      }

      .cls-13 {
        fill: url(#linear-gradient-10);
      }

      .cls-21 {
        stroke: url(#linear-gradient-3);
      }

      .cls-14 {
        fill: #d2c4cf;
      }
    </style>
    <linearGradient id="linear-gradient" x1=".63" y1="401.46" x2="784.37" y2="401.46" gradientUnits="userSpaceOnUse">
      <stop offset="0" stop-color="#d2c4cf"/>
      <stop offset=".16" stop-color="#b388aa"/>
      <stop offset=".29" stop-color="#9d5b8f"/>
      <stop offset=".53" stop-color="#8d3684"/>
      <stop offset=".66" stop-color="#872780"/>
      <stop offset=".69" stop-color="#83267c"/>
      <stop offset=".87" stop-color="#702168"/>
      <stop offset="1" stop-color="#6a2062"/>
    </linearGradient>
    <linearGradient id="linear-gradient-2" y1="370.25" y2="370.25" xlink:href="#linear-gradient"/>
    <linearGradient id="linear-gradient-3" y1="339.04" x2="784.37" y2="339.04" xlink:href="#linear-gradient"/>
    <linearGradient id="linear-gradient-4" y1="307.83" x2="784.37" y2="307.83" xlink:href="#linear-gradient"/>
    <linearGradient id="linear-gradient-5" x1=".63" y1="276.62" x2="784.37" y2="276.62" xlink:href="#linear-gradient"/>
    <linearGradient id="linear-gradient-6" x1="140.76" y1="188.96" x2="667.12" y2="188.96" xlink:href="#linear-gradient"/>
    <linearGradient id="linear-gradient-7" x1="713.87" y1="167.23" x2="713.87" y2="210.12" gradientUnits="userSpaceOnUse">
      <stop offset="0" stop-color="#bebdbd"/>
      <stop offset="1" stop-color="#fff"/>
    </linearGradient>
    <linearGradient id="linear-gradient-8" x1="713.87" y1="169.2" x2="713.87" y2="208.2" gradientUnits="userSpaceOnUse">
      <stop offset="0" stop-color="#bebdbd"/>
      <stop offset=".2" stop-color="#c6c6c7"/>
      <stop offset=".68" stop-color="#d8d9dc"/>
      <stop offset="1" stop-color="#dfe0e4"/>
    </linearGradient>
    <linearGradient id="linear-gradient-9" x1="713.87" x2="713.87" xlink:href="#linear-gradient-7"/>
    <linearGradient id="linear-gradient-10" x1="713.87" y1="169.2" x2="713.87" y2="208.2" gradientUnits="userSpaceOnUse">
      <stop offset="0" stop-color="#872780"/>
      <stop offset=".2" stop-color="#9b2e69"/>
      <stop offset=".53" stop-color="#b9394a"/>
      <stop offset=".81" stop-color="#cb3f36"/>
      <stop offset="1" stop-color="#d24230"/>
    </linearGradient>
    <linearGradient id="linear-gradient-11" x1="70" x2="70" xlink:href="#linear-gradient-7"/>
    <linearGradient id="linear-gradient-12" x1="70" x2="70" xlink:href="#linear-gradient-8"/>
    <linearGradient id="linear-gradient-13" x1="70" x2="70" xlink:href="#linear-gradient-7"/>
    <linearGradient id="linear-gradient-14" x1="70" x2="70" xlink:href="#linear-gradient-10"/>
  </defs>
  <g id="rohan_features_high_risk_desktop">
    <g id="rohan_features_high_risk_svg_desktop">
      <g id="footnote">
        <path class="cls-9" d="m87.01,432.53h2.91c2.64,0,4.46,1.81,4.46,4.17v.02c0,2.36-1.82,4.2-4.46,4.2h-2.91v-8.4Zm.95.88v6.64h1.97c2.12,0,3.48-1.44,3.48-3.3v-.02c0-1.86-1.36-3.32-3.48-3.32h-1.97Z"/>
        <path class="cls-9" d="m96.26,432.35h1.06v1.02h-1.06v-1.02Zm.06,2.38h.92v6.2h-.92v-6.2Z"/>
        <path class="cls-9" d="m98.92,439.13v-.02c0-1.31,1.08-2,2.65-2,.79,0,1.36.11,1.91.26v-.22c0-1.12-.68-1.69-1.85-1.69-.73,0-1.31.19-1.88.46l-.28-.75c.68-.31,1.36-.52,2.25-.52s1.55.23,2,.68c.42.42.64,1.02.64,1.81v3.79h-.89v-.94c-.43.56-1.15,1.07-2.24,1.07-1.15,0-2.32-.66-2.32-1.93Zm4.57-.48v-.6c-.46-.13-1.07-.26-1.82-.26-1.16,0-1.81.5-1.81,1.28v.02c0,.78.72,1.24,1.56,1.24,1.14,0,2.07-.7,2.07-1.68Z"/>
        <path class="cls-9" d="m106.27,442.01l.42-.72c.71.52,1.5.79,2.39.79,1.37,0,2.25-.76,2.25-2.21v-.73c-.54.72-1.29,1.31-2.43,1.31-1.49,0-2.91-1.12-2.91-2.9v-.02c0-1.81,1.44-2.93,2.91-2.93,1.16,0,1.92.58,2.42,1.25v-1.12h.92v5.12c0,.96-.29,1.69-.79,2.19-.55.55-1.38.83-2.36.83-1.03,0-1.99-.29-2.82-.86Zm5.09-4.47v-.02c0-1.27-1.1-2.1-2.28-2.1s-2.15.82-2.15,2.09v.02c0,1.25,1,2.11,2.15,2.11s2.28-.85,2.28-2.1Z"/>
        <path class="cls-9" d="m114.31,434.73h.92v1.62c.46-1.03,1.36-1.78,2.53-1.73v1h-.07c-1.36,0-2.46.97-2.46,2.84v2.47h-.92v-6.2Z"/>
        <path class="cls-9" d="m118.4,439.13v-.02c0-1.31,1.08-2,2.65-2,.79,0,1.36.11,1.91.26v-.22c0-1.12-.68-1.69-1.85-1.69-.73,0-1.31.19-1.88.46l-.28-.75c.68-.31,1.36-.52,2.25-.52s1.55.23,2,.68c.42.42.64,1.02.64,1.81v3.79h-.89v-.94c-.43.56-1.15,1.07-2.24,1.07-1.15,0-2.31-.66-2.31-1.93Zm4.57-.48v-.6c-.46-.13-1.07-.26-1.82-.26-1.16,0-1.81.5-1.81,1.28v.02c0,.78.72,1.24,1.56,1.24,1.14,0,2.07-.7,2.07-1.68Z"/>
        <path class="cls-9" d="m125.82,434.73h.92v1.04c.41-.61.96-1.17,2-1.17s1.66.54,1.99,1.23c.44-.68,1.1-1.23,2.18-1.23,1.43,0,2.3.96,2.3,2.49v3.84h-.92v-3.62c0-1.2-.6-1.87-1.61-1.87-.94,0-1.71.7-1.71,1.92v3.57h-.91v-3.65c0-1.16-.61-1.85-1.6-1.85s-1.73.82-1.73,1.96v3.54h-.92v-6.2Z"/>
        <path class="cls-9" d="m140.43,437.85v-.02c0-2.03,1.47-3.23,2.96-3.23,1.15,0,1.9.62,2.38,1.32v-3.74h.92v8.75h-.92v-1.25c-.5.74-1.24,1.38-2.38,1.38-1.49,0-2.96-1.17-2.96-3.21Zm5.37-.01v-.02c0-1.43-1.09-2.39-2.24-2.39s-2.18.89-2.18,2.39v.02c0,1.46,1.01,2.4,2.18,2.4s2.24-.97,2.24-2.4Z"/>
        <path class="cls-9" d="m148.38,437.85v-.02c0-1.79,1.26-3.23,2.97-3.23,1.83,0,2.89,1.46,2.89,3.27,0,.12,0,.19-.01.3h-4.92c.13,1.34,1.08,2.1,2.18,2.1.85,0,1.45-.35,1.96-.88l.58.52c-.62.7-1.38,1.16-2.55,1.16-1.7,0-3.09-1.31-3.09-3.23Zm4.93-.36c-.1-1.13-.74-2.11-1.98-2.11-1.08,0-1.89.9-2.01,2.11h3.99Z"/>
        <path class="cls-9" d="m154.95,434.73h1.02l2.09,5.14,2.1-5.14h1l-2.7,6.25h-.82l-2.69-6.25Z"/>
        <path class="cls-9" d="m161.86,437.85v-.02c0-1.79,1.26-3.23,2.97-3.23,1.83,0,2.89,1.46,2.89,3.27,0,.12,0,.19-.01.3h-4.92c.13,1.34,1.08,2.1,2.18,2.1.85,0,1.45-.35,1.96-.88l.58.52c-.62.7-1.38,1.16-2.55,1.16-1.7,0-3.09-1.31-3.09-3.23Zm4.93-.36c-.1-1.13-.74-2.11-1.98-2.11-1.08,0-1.89.9-2.01,2.11h3.99Z"/>
        <path class="cls-9" d="m169.44,432.17h.92v8.75h-.92v-8.75Z"/>
        <path class="cls-9" d="m172.12,437.86v-.02c0-1.75,1.37-3.24,3.24-3.24s3.23,1.46,3.23,3.21v.02c0,1.75-1.38,3.24-3.25,3.24s-3.21-1.46-3.21-3.21Zm5.52,0v-.02c0-1.33-1-2.42-2.3-2.42s-2.27,1.09-2.27,2.4v.02c0,1.33.98,2.41,2.29,2.41s2.28-1.08,2.28-2.39Z"/>
        <path class="cls-9" d="m180.26,434.73h.92v1.25c.5-.74,1.24-1.38,2.38-1.38,1.49,0,2.96,1.17,2.96,3.21v.02c0,2.03-1.46,3.23-2.96,3.23-1.15,0-1.9-.62-2.38-1.32v3.11h-.92v-8.12Zm5.31,3.12v-.02c0-1.46-1.01-2.4-2.18-2.4s-2.24.97-2.24,2.39v.02c0,1.44,1.09,2.4,2.24,2.4s2.18-.89,2.18-2.39Z"/>
        <path class="cls-9" d="m187.84,437.85v-.02c0-1.79,1.26-3.23,2.97-3.23,1.83,0,2.89,1.46,2.89,3.27,0,.12,0,.19-.01.3h-4.92c.13,1.34,1.08,2.1,2.18,2.1.85,0,1.45-.35,1.96-.88l.58.52c-.62.7-1.38,1.16-2.55,1.16-1.7,0-3.09-1.31-3.09-3.23Zm4.93-.36c-.1-1.13-.74-2.11-1.98-2.11-1.08,0-1.89.9-2.01,2.11h3.99Z"/>
        <path class="cls-9" d="m194.97,437.85v-.02c0-2.03,1.47-3.23,2.96-3.23,1.15,0,1.9.62,2.38,1.32v-3.74h.92v8.75h-.92v-1.25c-.5.74-1.24,1.38-2.38,1.38-1.49,0-2.96-1.17-2.96-3.21Zm5.37-.01v-.02c0-1.43-1.09-2.39-2.24-2.39s-2.18.89-2.18,2.39v.02c0,1.46,1.01,2.4,2.18,2.4s2.24-.97,2.24-2.4Z"/>
        <path class="cls-9" d="m207.25,435.54h-.85v-.8h.85v-.54c0-.71.19-1.25.54-1.59.31-.31.77-.48,1.33-.48.43,0,.72.05,1.02.16v.8c-.34-.1-.59-.16-.9-.16-.72,0-1.08.43-1.08,1.32v.5h1.97v.79h-1.96v5.38h-.92v-5.38Z"/>
        <path class="cls-9" d="m211.3,434.73h.92v1.62c.46-1.03,1.36-1.78,2.53-1.73v1h-.07c-1.36,0-2.46.97-2.46,2.84v2.47h-.92v-6.2Z"/>
        <path class="cls-9" d="m215.51,437.86v-.02c0-1.75,1.37-3.24,3.24-3.24s3.23,1.46,3.23,3.21v.02c0,1.75-1.38,3.24-3.25,3.24s-3.21-1.46-3.21-3.21Zm5.52,0v-.02c0-1.33-1-2.42-2.3-2.42s-2.27,1.09-2.27,2.4v.02c0,1.33.98,2.41,2.29,2.41s2.28-1.08,2.28-2.39Z"/>
        <path class="cls-9" d="m223.65,434.73h.92v1.04c.41-.61.96-1.17,2-1.17s1.66.54,1.99,1.23c.44-.68,1.1-1.23,2.18-1.23,1.43,0,2.3.96,2.3,2.49v3.84h-.92v-3.62c0-1.2-.6-1.87-1.61-1.87-.94,0-1.71.7-1.71,1.92v3.57h-.91v-3.65c0-1.16-.61-1.85-1.6-1.85s-1.73.82-1.73,1.96v3.54h-.92v-6.2Z"/>
        <path class="cls-9" d="m238.27,437.85v-.02c0-2.03,1.47-3.23,2.96-3.23,1.15,0,1.9.62,2.38,1.32v-3.74h.92v8.75h-.92v-1.25c-.5.74-1.24,1.38-2.38,1.38-1.49,0-2.96-1.17-2.96-3.21Zm5.37-.01v-.02c0-1.43-1.09-2.39-2.24-2.39s-2.18.89-2.18,2.39v.02c0,1.46,1.01,2.4,2.18,2.4s2.24-.97,2.24-2.4Z"/>
        <path class="cls-9" d="m246.13,439.13v-.02c0-1.31,1.08-2,2.65-2,.79,0,1.36.11,1.91.26v-.22c0-1.12-.68-1.69-1.85-1.69-.73,0-1.31.19-1.88.46l-.28-.75c.68-.31,1.36-.52,2.25-.52s1.55.23,2,.68c.42.42.64,1.02.64,1.81v3.79h-.89v-.94c-.43.56-1.15,1.07-2.24,1.07-1.15,0-2.31-.66-2.31-1.93Zm4.57-.48v-.6c-.46-.13-1.07-.26-1.82-.26-1.16,0-1.81.5-1.81,1.28v.02c0,.78.72,1.24,1.56,1.24,1.14,0,2.07-.7,2.07-1.68Z"/>
        <path class="cls-9" d="m253.81,439.28v-3.74h-.86v-.82h.86v-1.87h.92v1.87h1.97v.82h-1.97v3.62c0,.75.42,1.03,1.04,1.03.31,0,.58-.06.9-.22v.79c-.32.17-.67.26-1.12.26-1,0-1.75-.49-1.75-1.75Z"/>
        <path class="cls-9" d="m257.86,439.13v-.02c0-1.31,1.08-2,2.65-2,.79,0,1.36.11,1.91.26v-.22c0-1.12-.68-1.69-1.85-1.69-.73,0-1.31.19-1.88.46l-.28-.75c.68-.31,1.36-.52,2.25-.52s1.55.23,2,.68c.42.42.64,1.02.64,1.81v3.79h-.89v-.94c-.43.56-1.15,1.07-2.24,1.07-1.15,0-2.32-.66-2.32-1.93Zm4.57-.48v-.6c-.46-.13-1.07-.26-1.82-.26-1.16,0-1.81.5-1.81,1.28v.02c0,.78.72,1.24,1.56,1.24,1.14,0,2.07-.7,2.07-1.68Z"/>
        <path class="cls-9" d="m268.88,434.73h.92v1.25c.5-.74,1.24-1.38,2.38-1.38,1.49,0,2.96,1.17,2.96,3.21v.02c0,2.03-1.46,3.23-2.96,3.23-1.15,0-1.9-.62-2.38-1.32v3.11h-.92v-8.12Zm5.31,3.12v-.02c0-1.46-1.01-2.4-2.18-2.4s-2.24.97-2.24,2.39v.02c0,1.44,1.09,2.4,2.24,2.4s2.18-.89,2.18-2.39Z"/>
        <path class="cls-9" d="m276.85,434.73h.92v1.62c.46-1.03,1.36-1.78,2.53-1.73v1h-.07c-1.36,0-2.46.97-2.46,2.84v2.47h-.92v-6.2Z"/>
        <path class="cls-9" d="m281.06,437.85v-.02c0-1.79,1.26-3.23,2.97-3.23,1.83,0,2.89,1.46,2.89,3.27,0,.12,0,.19-.01.3h-4.92c.13,1.34,1.08,2.1,2.18,2.1.85,0,1.45-.35,1.96-.88l.58.52c-.62.7-1.38,1.16-2.55,1.16-1.7,0-3.09-1.31-3.09-3.23Zm4.93-.36c-.1-1.13-.74-2.11-1.98-2.11-1.08,0-1.89.9-2.01,2.11h3.99Z"/>
        <path class="cls-9" d="m288.03,440.14l.47-.66c.67.5,1.42.79,2.15.79s1.28-.38,1.28-.98v-.02c0-.62-.73-.86-1.55-1.09-.97-.28-2.05-.61-2.05-1.75v-.02c0-1.07.89-1.78,2.11-1.78.75,0,1.59.26,2.23.68l-.42.7c-.58-.37-1.24-.6-1.83-.6-.73,0-1.2.38-1.2.9v.02c0,.59.77.82,1.59,1.07.96.29,1.99.66,1.99,1.78v.02c0,1.18-.97,1.86-2.21,1.86-.89,0-1.87-.35-2.57-.91Z"/>
        <path class="cls-9" d="m294.14,437.85v-.02c0-1.79,1.26-3.23,2.97-3.23,1.83,0,2.89,1.46,2.89,3.27,0,.12,0,.19-.01.3h-4.92c.13,1.34,1.08,2.1,2.18,2.1.85,0,1.45-.35,1.96-.88l.58.52c-.62.7-1.38,1.16-2.55,1.16-1.7,0-3.09-1.31-3.09-3.23Zm4.93-.36c-.1-1.13-.74-2.11-1.98-2.11-1.08,0-1.89.9-2.01,2.11h3.99Z"/>
        <path class="cls-9" d="m301.63,434.73h.92v1.08c.41-.67,1.06-1.21,2.12-1.21,1.5,0,2.37,1.01,2.37,2.48v3.85h-.92v-3.62c0-1.15-.62-1.87-1.72-1.87s-1.86.78-1.86,1.94v3.55h-.92v-6.2Z"/>
        <path class="cls-9" d="m309.34,439.28v-3.74h-.86v-.82h.86v-1.87h.92v1.87h1.97v.82h-1.97v3.62c0,.75.42,1.03,1.04,1.03.31,0,.58-.06.9-.22v.79c-.32.17-.67.26-1.12.26-1,0-1.75-.49-1.75-1.75Z"/>
        <path class="cls-9" d="m313.3,437.85v-.02c0-1.79,1.26-3.23,2.97-3.23,1.83,0,2.89,1.46,2.89,3.27,0,.12,0,.19-.01.3h-4.92c.13,1.34,1.08,2.1,2.18,2.1.85,0,1.45-.35,1.96-.88l.58.52c-.62.7-1.38,1.16-2.55,1.16-1.7,0-3.09-1.31-3.09-3.23Zm4.93-.36c-.1-1.13-.74-2.11-1.98-2.11-1.08,0-1.89.9-2.01,2.11h3.99Z"/>
        <path class="cls-9" d="m320.43,437.85v-.02c0-2.03,1.47-3.23,2.96-3.23,1.15,0,1.9.62,2.38,1.32v-3.74h.92v8.75h-.92v-1.25c-.5.74-1.24,1.38-2.38,1.38-1.49,0-2.96-1.17-2.96-3.21Zm5.37-.01v-.02c0-1.43-1.09-2.39-2.24-2.39s-2.18.89-2.18,2.39v.02c0,1.46,1.01,2.4,2.18,2.4s2.24-.97,2.24-2.4Z"/>
        <path class="cls-9" d="m332.38,432.35h1.06v1.02h-1.06v-1.02Zm.06,2.38h.92v6.2h-.92v-6.2Z"/>
        <path class="cls-9" d="m335.51,434.73h.92v1.08c.41-.67,1.06-1.21,2.12-1.21,1.5,0,2.37,1.01,2.37,2.48v3.85h-.92v-3.62c0-1.15-.62-1.87-1.72-1.87s-1.86.78-1.86,1.94v3.55h-.92v-6.2Z"/>
        <path class="cls-9" d="m346.66,432.53h.95v7.52h4.73v.88h-5.67v-8.4Z"/>
        <path class="cls-9" d="m353.91,432.35h1.06v1.02h-1.06v-1.02Zm.06,2.38h.92v6.2h-.92v-6.2Z"/>
        <path class="cls-9" d="m356.66,437.86v-.02c0-1.75,1.37-3.24,3.18-3.24,1.17,0,1.91.49,2.48,1.1l-.61.65c-.49-.52-1.04-.94-1.88-.94-1.26,0-2.22,1.07-2.22,2.4v.02c0,1.34.98,2.41,2.28,2.41.79,0,1.4-.4,1.89-.92l.59.55c-.62.7-1.37,1.2-2.53,1.2-1.81,0-3.18-1.47-3.18-3.21Z"/>
        <path class="cls-9" d="m363.89,432.17h.92v3.63c.41-.67,1.06-1.21,2.12-1.21,1.5,0,2.37,1.01,2.37,2.48v3.85h-.92v-3.62c0-1.15-.62-1.87-1.72-1.87s-1.86.78-1.86,1.94v3.55h-.92v-8.75Z"/>
        <path class="cls-9" d="m371.61,439.28v-3.74h-.86v-.82h.86v-1.87h.92v1.87h1.97v.82h-1.97v3.62c0,.75.42,1.03,1.04,1.03.31,0,.58-.06.9-.22v.79c-.32.17-.67.26-1.12.26-1,0-1.75-.49-1.75-1.75Z"/>
        <path class="cls-9" d="m375.57,437.85v-.02c0-1.79,1.26-3.23,2.97-3.23,1.83,0,2.89,1.46,2.89,3.27,0,.12,0,.19-.01.3h-4.92c.13,1.34,1.08,2.1,2.18,2.1.85,0,1.45-.35,1.96-.88l.58.52c-.62.7-1.38,1.16-2.55,1.16-1.7,0-3.09-1.31-3.09-3.23Zm4.93-.36c-.1-1.13-.74-2.11-1.98-2.11-1.08,0-1.89.9-2.01,2.11h3.99Z"/>
        <path class="cls-9" d="m383.06,434.73h.92v1.08c.41-.67,1.06-1.21,2.12-1.21,1.5,0,2.37,1.01,2.37,2.48v3.85h-.92v-3.62c0-1.15-.62-1.87-1.72-1.87s-1.86.78-1.86,1.94v3.55h-.92v-6.2Z"/>
        <path class="cls-9" d="m389.93,440.14l.47-.66c.67.5,1.42.79,2.15.79s1.28-.38,1.28-.98v-.02c0-.62-.73-.86-1.55-1.09-.97-.28-2.05-.61-2.05-1.75v-.02c0-1.07.89-1.78,2.11-1.78.75,0,1.59.26,2.23.68l-.42.7c-.58-.37-1.24-.6-1.83-.6-.73,0-1.2.38-1.2.9v.02c0,.59.77.82,1.59,1.07.96.29,1.99.66,1.99,1.78v.02c0,1.18-.97,1.86-2.21,1.86-.89,0-1.87-.35-2.57-.91Z"/>
        <path class="cls-9" d="m396.63,439.28v-3.74h-.86v-.82h.86v-1.87h.92v1.87h1.97v.82h-1.97v3.62c0,.75.42,1.03,1.04,1.03.31,0,.58-.06.9-.22v.79c-.32.17-.67.26-1.12.26-1,0-1.75-.49-1.75-1.75Z"/>
        <path class="cls-9" d="m400.59,437.85v-.02c0-1.79,1.26-3.23,2.97-3.23,1.83,0,2.89,1.46,2.89,3.27,0,.12,0,.19-.01.3h-4.92c.13,1.34,1.08,2.1,2.18,2.1.85,0,1.45-.35,1.96-.88l.58.52c-.62.7-1.38,1.16-2.55,1.16-1.7,0-3.09-1.31-3.09-3.23Zm4.93-.36c-.1-1.13-.74-2.11-1.98-2.11-1.08,0-1.89.9-2.01,2.11h3.99Z"/>
        <path class="cls-9" d="m408.1,432.35h1.06v1.02h-1.06v-1.02Zm.06,2.38h.92v6.2h-.92v-6.2Z"/>
        <path class="cls-9" d="m411.23,434.73h.92v1.08c.41-.67,1.06-1.21,2.12-1.21,1.5,0,2.37,1.01,2.37,2.48v3.85h-.92v-3.62c0-1.15-.62-1.87-1.72-1.87s-1.86.78-1.86,1.94v3.55h-.92v-6.2Z"/>
        <path class="cls-9" d="m422.01,436.75v-.02c0-2.3,1.69-4.34,4.21-4.34,1.42,0,2.29.41,3.13,1.12l-.61.72c-.65-.56-1.37-.96-2.55-.96-1.86,0-3.19,1.57-3.19,3.44v.02c0,2,1.28,3.49,3.32,3.49.96,0,1.85-.37,2.42-.84v-2.09h-2.55v-.85h3.47v3.35c-.78.7-1.96,1.28-3.37,1.28-2.64,0-4.27-1.92-4.27-4.32Z"/>
        <path class="cls-9" d="m431.79,432.53h3.61c1.03,0,1.86.31,2.39.84.41.41.65,1,.65,1.66v.02c0,1.39-.96,2.21-2.28,2.45l2.58,3.43h-1.16l-2.43-3.26h-2.4v3.26h-.95v-8.4Zm3.53,4.28c1.26,0,2.16-.65,2.16-1.73v-.02c0-1.03-.79-1.65-2.15-1.65h-2.59v3.41h2.58Z"/>
        <path class="cls-9" d="m439.83,441.97c.6-.22.85-.53.8-1.04h-.43v-1.26h1.1v1.08c0,.97-.42,1.44-1.33,1.64l-.14-.42Z"/>
        <path class="cls-9" d="m446.46,437.85v-.02c0-1.79,1.26-3.23,2.97-3.23,1.83,0,2.89,1.46,2.89,3.27,0,.12,0,.19-.01.3h-4.92c.13,1.34,1.08,2.1,2.18,2.1.85,0,1.45-.35,1.96-.88l.58.52c-.62.7-1.38,1.16-2.55,1.16-1.7,0-3.09-1.31-3.09-3.23Zm4.93-.36c-.1-1.13-.74-2.11-1.98-2.11-1.08,0-1.89.9-2.01,2.11h3.99Z"/>
        <path class="cls-9" d="m454.28,439.28v-3.74h-.86v-.82h.86v-1.87h.92v1.87h1.97v.82h-1.97v3.62c0,.75.42,1.03,1.04,1.03.31,0,.58-.06.9-.22v.79c-.32.17-.67.26-1.12.26-1,0-1.75-.49-1.75-1.75Z"/>
        <path class="cls-9" d="m461.93,439.13v-.02c0-1.31,1.08-2,2.65-2,.79,0,1.36.11,1.91.26v-.22c0-1.12-.68-1.69-1.85-1.69-.73,0-1.31.19-1.88.46l-.28-.75c.68-.31,1.36-.52,2.25-.52s1.55.23,2,.68c.42.42.64,1.02.64,1.81v3.79h-.89v-.94c-.43.56-1.15,1.07-2.24,1.07-1.15,0-2.31-.66-2.31-1.93Zm4.57-.48v-.6c-.46-.13-1.07-.26-1.82-.26-1.16,0-1.81.5-1.81,1.28v.02c0,.78.72,1.24,1.56,1.24,1.14,0,2.07-.7,2.07-1.68Z"/>
        <path class="cls-9" d="m469.43,432.17h.92v8.75h-.92v-8.75Z"/>
        <path class="cls-9" d="m472.38,439.67h1.1v1.26h-1.1v-1.26Z"/>
        <path class="cls-9" d="m483.61,432.47h.91l1.56,8.46h-.97l-.38-2.22h-4.58l-1.58,2.22h-1.04l6.09-8.46Zm.96,5.37l-.76-4.29-3.07,4.29h3.83Z"/>
        <path class="cls-9" d="m488.99,434.73h.92l-.26,1.01c.56-.64,1.14-1.14,2.06-1.14,1.03,0,1.6.67,1.76,1.4.55-.85,1.39-1.4,2.49-1.4s1.9.77,1.9,1.92c0,.29-.1.64-.18.96l-.91,3.45h-.92l.94-3.51c.06-.2.1-.49.1-.7,0-.8-.49-1.29-1.28-1.29-.91,0-1.85.85-2.15,2l-.94,3.5h-.91l.94-3.51c.06-.2.1-.49.1-.7,0-.8-.49-1.29-1.29-1.29-.91,0-1.83.85-2.15,2l-.94,3.5h-.92l1.66-6.2Z"/>
        <path class="cls-9" d="m501.99,439.26l.76-.44c.35.9.88,1.36,1.75,1.36.56,0,1.03-.2,1.42-.58.38-.4.64-.92.88-1.81l1.42-5.25h.96l-1.45,5.43c-.29,1.05-.6,1.71-1.15,2.27s-1.29.82-2.07.82c-1.32,0-2.13-.76-2.5-1.79Z"/>
        <path class="cls-9" d="m513.45,437.51c0-1.33.59-2.64,1.56-3.61.9-.91,2.16-1.51,3.6-1.51,1.73,0,2.64.74,3.17,1.54l-.72.56c-.49-.68-1.16-1.24-2.53-1.24-1.09,0-2.07.47-2.79,1.19-.79.8-1.28,1.92-1.28,3.03,0,1.73,1.15,2.73,2.78,2.73.91,0,1.63-.25,2.17-.59l.66-2.33h-2.53l.23-.85h3.47l-1.07,3.77c-.89.55-1.82.88-2.99.88-2.04,0-3.72-1.32-3.72-3.57Z"/>
        <path class="cls-9" d="m522.17,439.34c0-.6.22-1.1.59-1.48.49-.49,1.26-.77,2.17-.77.83,0,1.61.17,2.21.34l.04-.14c.05-.18.08-.41.08-.58,0-.8-.55-1.26-1.68-1.26-.66,0-1.2.13-1.75.32l-.16-.77c.61-.23,1.25-.37,2.05-.37,1.56,0,2.43.72,2.43,1.92,0,.26-.05.56-.13.85l-.94,3.51h-.9l.26-.97c-.58.66-1.33,1.1-2.32,1.1-1.04,0-1.97-.61-1.97-1.71Zm4.69-.85l.12-.43c-.54-.16-1.25-.28-2.01-.28-.64,0-1.14.19-1.46.52-.26.25-.4.58-.4.94,0,.66.52,1.1,1.32,1.1,1.04,0,2.13-.76,2.43-1.85Z"/>
        <path class="cls-9" d="m528.78,439.98l.6-.6c.67.65,1.42.91,2.16.91s1.37-.41,1.37-1.03c0-.41-.28-.71-1.18-1.06-1.12-.43-1.75-.84-1.75-1.7,0-1.06.91-1.91,2.35-1.91.91,0,1.77.41,2.29.85l-.54.64c-.52-.42-1.16-.72-1.83-.72-.88,0-1.34.47-1.34.98,0,.41.25.67,1.24,1.05,1.12.46,1.69.9,1.69,1.7,0,1.15-1.06,1.96-2.38,1.96-.96,0-1.96-.36-2.67-1.08Z"/>
        <path class="cls-9" d="m535.6,439.81c0-.22.04-.46.08-.65l.97-3.62h-.85l.22-.82h.86l.5-1.87h.91l-.5,1.87h1.96l-.22.82h-1.96l-.96,3.57c-.02.14-.05.32-.05.46,0,.43.32.64.85.64.28,0,.58-.06.9-.19l-.23.84c-.32.13-.62.18-.98.18-.89,0-1.51-.42-1.51-1.22Z"/>
        <path class="cls-9" d="m541.36,434.73h.92l-.42,1.62c.76-1.08,1.72-1.8,2.95-1.73l-.26,1h-.06c-1.36,0-2.7,1-3.2,2.87l-.66,2.45h-.92l1.66-6.2Z"/>
        <path class="cls-9" d="m544.85,438.29c0-.98.42-1.92,1.12-2.6.66-.66,1.56-1.09,2.53-1.09,1.7,0,2.83,1.16,2.83,2.77,0,.98-.43,1.92-1.12,2.62-.66.66-1.57,1.09-2.54,1.09-1.7,0-2.82-1.17-2.82-2.78Zm4.64,1.19c.55-.55.89-1.32.89-2.08,0-1.26-.79-1.99-1.94-1.99-.67,0-1.3.31-1.76.78-.54.54-.89,1.31-.89,2.08,0,1.26.79,1.98,1.94,1.98.67,0,1.3-.3,1.76-.77Z"/>
        <path class="cls-9" d="m553.42,438.15c-.01.08-.01.17-.01.25,0,1.1.7,1.88,1.83,1.88.79,0,1.38-.28,1.96-.73l.47.6c-.64.54-1.39.92-2.5.92-1.61,0-2.69-1.09-2.69-2.64,0-1.03.44-2.06,1.17-2.79.64-.64,1.48-1.04,2.43-1.04,1.57,0,2.4,1.08,2.4,2.37,0,.42-.08.82-.22,1.18h-4.86Zm.12-.7h3.99c.04-.11.06-.26.06-.48,0-.85-.48-1.59-1.55-1.59-.68,0-1.27.3-1.73.74-.36.36-.62.83-.78,1.33Z"/>
        <path class="cls-9" d="m560.83,434.73h.92l-.26,1.01c.55-.64,1.21-1.14,2.16-1.14,1.2,0,1.97.74,1.97,1.92,0,.29-.07.64-.14.96l-.92,3.45h-.92l.95-3.51c.05-.2.08-.49.08-.7,0-.82-.52-1.29-1.38-1.29-.96,0-1.92.83-2.24,2l-.94,3.5h-.92l1.66-6.2Z"/>
        <path class="cls-9" d="m567.25,439.81c0-.22.04-.46.08-.65l.97-3.62h-.85l.22-.82h.86l.5-1.87h.91l-.5,1.87h1.96l-.22.82h-1.96l-.96,3.57c-.02.14-.05.32-.05.46,0,.43.32.64.85.64.28,0,.58-.06.9-.19l-.23.84c-.32.13-.62.18-.98.18-.89,0-1.51-.42-1.51-1.22Z"/>
        <path class="cls-9" d="m572.54,438.15c-.01.08-.01.17-.01.25,0,1.1.7,1.88,1.83,1.88.79,0,1.38-.28,1.96-.73l.47.6c-.64.54-1.39.92-2.49.92-1.61,0-2.69-1.09-2.69-2.64,0-1.03.44-2.06,1.18-2.79.64-.64,1.48-1.04,2.43-1.04,1.57,0,2.4,1.08,2.4,2.37,0,.42-.08.82-.22,1.18h-4.86Zm.12-.7h3.99c.04-.11.06-.26.06-.48,0-.85-.48-1.59-1.55-1.59-.68,0-1.27.3-1.73.74-.36.36-.62.83-.78,1.33Z"/>
        <path class="cls-9" d="m579.96,434.73h.92l-.42,1.62c.76-1.08,1.72-1.8,2.95-1.73l-.26,1h-.06c-1.36,0-2.7,1-3.2,2.87l-.66,2.45h-.92l1.66-6.2Z"/>
        <path class="cls-9" d="m583.45,438.29c0-.98.42-1.92,1.12-2.6.66-.66,1.56-1.09,2.53-1.09,1.7,0,2.83,1.16,2.83,2.77,0,.98-.43,1.92-1.12,2.62-.66.66-1.57,1.09-2.54,1.09-1.7,0-2.82-1.17-2.82-2.78Zm4.64,1.19c.55-.55.89-1.32.89-2.08,0-1.26-.79-1.99-1.94-1.99-.67,0-1.3.31-1.76.78-.54.54-.89,1.31-.89,2.08,0,1.26.79,1.98,1.94,1.98.67,0,1.3-.3,1.76-.77Z"/>
        <path class="cls-9" d="m593.15,432.17h.92l-2.35,8.75h-.92l2.35-8.75Z"/>
        <path class="cls-9" d="m594.59,439.67h1.1v1.26h-1.1v-1.26Z"/>
        <path class="cls-9" d="m600.78,440.2l3.05-2.69c1.28-1.15,1.75-1.8,1.75-2.64,0-.98-.78-1.61-1.69-1.61-.96,0-1.58.5-2.25,1.44l-.7-.5c.76-1.13,1.55-1.79,3.02-1.79s2.6,1.01,2.6,2.38v.02c0,1.22-.65,1.98-2.12,3.26l-2.24,1.99h4.45v.86h-5.86v-.73Z"/>
        <path class="cls-9" d="m608.14,436.75v-.02c0-2.35,1.4-4.34,3.56-4.34s3.53,1.97,3.53,4.32v.02c0,2.35-1.39,4.34-3.55,4.34s-3.54-1.97-3.54-4.32Zm6.11,0v-.02c0-1.83-1.01-3.48-2.57-3.48s-2.55,1.61-2.55,3.45v.02c0,1.83,1.01,3.48,2.58,3.48s2.54-1.62,2.54-3.45Z"/>
        <path class="cls-9" d="m618.06,433.46l-1.58.49-.23-.77,2.05-.71h.7v8.46h-.94v-7.47Z"/>
        <path class="cls-9" d="m620.83,438.67v-.02c0-1,.72-1.7,1.73-2.06-.78-.36-1.44-.96-1.44-1.93v-.02c0-1.29,1.33-2.22,2.87-2.22s2.87.92,2.87,2.22v.02c0,.97-.66,1.57-1.44,1.93,1,.37,1.73,1.06,1.73,2.05v.02c0,1.43-1.37,2.39-3.15,2.39s-3.15-.97-3.15-2.38Zm5.35-.02v-.02c0-.94-.97-1.59-2.19-1.59s-2.2.66-2.2,1.59v.02c0,.85.82,1.57,2.2,1.57s2.19-.72,2.19-1.57Zm-.28-3.93v-.02c0-.83-.83-1.45-1.92-1.45s-1.92.61-1.92,1.45v.02c0,.91.85,1.54,1.92,1.54s1.92-.62,1.92-1.54Z"/>
        <path class="cls-9" d="m628.38,441.97c.6-.22.85-.53.8-1.04h-.43v-1.26h1.1v1.08c0,.97-.42,1.44-1.33,1.64l-.14-.42Zm.37-7.24h1.1v1.26h-1.1v-1.26Z"/>
        <path class="cls-9" d="m632.98,433.46l-1.58.49-.23-.77,2.05-.71h.7v8.46h-.94v-7.47Z"/>
        <path class="cls-9" d="m637.27,433.46l-1.58.49-.23-.77,2.05-.71h.7v8.46h-.94v-7.47Z"/>
        <path class="cls-9" d="m640.02,439.57l.68-.61c.65.79,1.43,1.25,2.46,1.25s1.83-.65,1.83-1.63v-.02c0-1.04-.97-1.62-2.35-1.62h-.54l-.19-.56,2.65-2.99h-4.1v-.85h5.36v.7l-2.64,2.93c1.46.12,2.77.83,2.77,2.36v.02c0,1.5-1.25,2.53-2.81,2.53-1.4,0-2.45-.61-3.13-1.5Z"/>
        <path class="cls-9" d="m647.75,434.73h1.1v1.26h-1.1v-1.26Zm0,4.94h1.1v1.26h-1.1v-1.26Z"/>
        <path class="cls-9" d="m655.01,438.94h-4.42l-.24-.68,4.75-5.78h.83v5.67h1.31v.79h-1.31v1.99h-.91v-1.99Zm0-.79v-4.33l-3.53,4.33h3.53Z"/>
        <path class="cls-9" d="m658.5,438.67v-.02c0-1,.72-1.7,1.73-2.06-.78-.36-1.44-.96-1.44-1.93v-.02c0-1.29,1.33-2.22,2.87-2.22s2.87.92,2.87,2.22v.02c0,.97-.66,1.57-1.44,1.93,1,.37,1.73,1.06,1.73,2.05v.02c0,1.43-1.37,2.39-3.15,2.39s-3.15-.97-3.15-2.38Zm5.35-.02v-.02c0-.94-.97-1.59-2.19-1.59s-2.2.66-2.2,1.59v.02c0,.85.82,1.57,2.2,1.57s2.19-.72,2.19-1.57Zm-.28-3.93v-.02c0-.83-.83-1.45-1.92-1.45s-1.92.61-1.92,1.45v.02c0,.91.85,1.54,1.92,1.54s1.92-.62,1.92-1.54Z"/>
        <path class="cls-9" d="m667.58,433.46l-1.58.49-.23-.77,2.05-.71h.7v8.46h-.94v-7.47Z"/>
        <path class="cls-9" d="m670.51,436.86h4.77v.92h-4.77v-.92Z"/>
        <path class="cls-9" d="m676.7,439.74l.62-.68c.73.71,1.54,1.15,2.39,1.15,1.2,0,2.03-.79,2.03-1.86v-.02c0-1.04-.86-1.76-2.09-1.76-.71,0-1.27.22-1.76.48l-.64-.42.24-4.09h4.83v.88h-4.01l-.18,2.69c.49-.22.96-.37,1.65-.37,1.63,0,2.9.97,2.9,2.57v.02c0,1.64-1.25,2.76-3,2.76-1.2,0-2.24-.58-3-1.33Z"/>
        <path class="cls-9" d="m685.56,433.46l-1.58.49-.23-.77,2.05-.71h.7v8.46h-.94v-7.47Z"/>
        <path class="cls-9" d="m693.14,433.4h-4.62v-.86h5.7v.71l-3.81,7.69h-1.05l3.79-7.53Z"/>
        <path class="cls-9" d="m694.57,439.67h1.1v1.26h-1.1v-1.26Z"/>
        <path class="cls-9" d="m291.78,451.15v-.02c0-2.32,1.74-4.34,4.29-4.34s4.27,2,4.27,4.32v.02c0,2.31-1.74,4.34-4.29,4.34s-4.27-2-4.27-4.32Zm7.58,0v-.02c0-1.91-1.39-3.47-3.31-3.47s-3.29,1.54-3.29,3.44v.02c0,1.91,1.39,3.47,3.31,3.47s3.29-1.54,3.29-3.44Z"/>
        <path class="cls-9" d="m302.2,449.13h.92v1.08c.41-.67,1.06-1.21,2.12-1.21,1.5,0,2.37,1.01,2.37,2.48v3.85h-.92v-3.62c0-1.15-.62-1.87-1.72-1.87s-1.86.78-1.86,1.94v3.55h-.92v-6.2Z"/>
        <path class="cls-9" d="m309.67,446.57h.92v8.75h-.92v-8.75Z"/>
        <path class="cls-9" d="m317.39,449.13h.98l-2.6,6.4c-.53,1.28-1.13,1.75-2.06,1.75-.52,0-.9-.11-1.32-.31l.31-.73c.3.16.58.23.97.23.55,0,.9-.29,1.27-1.16l-2.82-6.18h1.02l2.25,5.17,1.99-5.17Z"/>
        <path class="cls-9" d="m322.92,454.54l.47-.66c.67.5,1.42.79,2.15.79s1.28-.38,1.28-.98v-.02c0-.62-.73-.86-1.55-1.09-.97-.28-2.05-.61-2.05-1.75v-.02c0-1.07.89-1.78,2.11-1.78.75,0,1.59.26,2.23.68l-.42.7c-.58-.37-1.24-.6-1.83-.6-.73,0-1.2.38-1.2.9v.02c0,.59.77.82,1.59,1.07.96.29,1.99.66,1.99,1.78v.02c0,1.18-.97,1.86-2.21,1.86-.89,0-1.87-.35-2.57-.91Z"/>
        <path class="cls-9" d="m329.03,452.25v-.02c0-1.79,1.26-3.23,2.97-3.23,1.83,0,2.89,1.46,2.89,3.27,0,.12,0,.19-.01.3h-4.92c.13,1.34,1.08,2.1,2.18,2.1.85,0,1.45-.35,1.96-.88l.58.52c-.62.7-1.38,1.16-2.55,1.16-1.7,0-3.09-1.31-3.09-3.23Zm4.93-.36c-.1-1.13-.74-2.11-1.98-2.11-1.08,0-1.89.9-2.01,2.11h3.99Z"/>
        <path class="cls-9" d="m336.6,446.57h.92v8.75h-.92v-8.75Z"/>
        <path class="cls-9" d="m339.29,452.25v-.02c0-1.79,1.26-3.23,2.97-3.23,1.83,0,2.89,1.46,2.89,3.27,0,.12,0,.19-.01.3h-4.92c.13,1.34,1.08,2.1,2.18,2.1.85,0,1.45-.35,1.96-.88l.58.52c-.62.7-1.38,1.16-2.55,1.16-1.7,0-3.09-1.31-3.09-3.23Zm4.93-.36c-.1-1.13-.74-2.11-1.98-2.11-1.08,0-1.89.9-2.01,2.11h3.99Z"/>
        <path class="cls-9" d="m346.39,452.26v-.02c0-1.75,1.37-3.24,3.18-3.24,1.17,0,1.91.49,2.48,1.1l-.61.65c-.49-.52-1.04-.94-1.88-.94-1.26,0-2.22,1.07-2.22,2.4v.02c0,1.34.98,2.41,2.28,2.41.79,0,1.4-.4,1.89-.92l.59.55c-.62.7-1.37,1.2-2.53,1.2-1.81,0-3.18-1.47-3.18-3.21Z"/>
        <path class="cls-9" d="m353.95,453.68v-3.74h-.86v-.82h.86v-1.87h.92v1.87h1.97v.82h-1.97v3.62c0,.75.42,1.03,1.04,1.03.31,0,.58-.06.9-.22v.79c-.32.17-.67.26-1.12.26-1,0-1.75-.49-1.75-1.75Z"/>
        <path class="cls-9" d="m357.91,452.25v-.02c0-1.79,1.26-3.23,2.97-3.23,1.83,0,2.89,1.46,2.89,3.27,0,.12,0,.19-.01.3h-4.92c.13,1.34,1.08,2.1,2.18,2.1.85,0,1.45-.35,1.96-.88l.58.52c-.62.7-1.38,1.16-2.55,1.16-1.7,0-3.09-1.31-3.09-3.23Zm4.93-.36c-.1-1.13-.74-2.11-1.98-2.11-1.08,0-1.89.9-2.01,2.11h3.99Z"/>
        <path class="cls-9" d="m365.04,452.25v-.02c0-2.03,1.47-3.23,2.96-3.23,1.15,0,1.9.62,2.38,1.32v-3.74h.92v8.75h-.92v-1.25c-.5.74-1.24,1.38-2.38,1.38-1.49,0-2.96-1.17-2.96-3.21Zm5.37-.01v-.02c0-1.43-1.09-2.39-2.24-2.39s-2.18.89-2.18,2.39v.02c0,1.46,1.01,2.4,2.18,2.4s2.24-.97,2.24-2.4Z"/>
        <path class="cls-9" d="m377.31,449.94h-.85v-.8h.85v-.54c0-.71.19-1.25.54-1.59.31-.31.77-.48,1.33-.48.43,0,.72.05,1.02.16v.8c-.34-.1-.59-.16-.9-.16-.72,0-1.08.43-1.08,1.32v.5h1.97v.79h-1.96v5.38h-.92v-5.38Z"/>
        <path class="cls-9" d="m380.87,452.25v-.02c0-1.79,1.26-3.23,2.97-3.23,1.83,0,2.89,1.46,2.89,3.27,0,.12,0,.19-.01.3h-4.92c.13,1.34,1.08,2.1,2.18,2.1.85,0,1.45-.35,1.96-.88l.58.52c-.62.7-1.38,1.16-2.55,1.16-1.7,0-3.09-1.31-3.09-3.23Zm4.93-.36c-.1-1.13-.74-2.11-1.98-2.11-1.08,0-1.89.9-2.01,2.11h3.99Z"/>
        <path class="cls-9" d="m387.89,453.53v-.02c0-1.31,1.08-2,2.65-2,.79,0,1.36.11,1.91.26v-.22c0-1.12-.68-1.69-1.85-1.69-.73,0-1.31.19-1.88.46l-.28-.75c.68-.31,1.36-.52,2.25-.52s1.55.23,2,.68c.42.42.64,1.02.64,1.81v3.79h-.89v-.94c-.43.56-1.15,1.07-2.24,1.07-1.15,0-2.31-.66-2.31-1.93Zm4.57-.48v-.6c-.46-.13-1.07-.26-1.82-.26-1.16,0-1.81.5-1.81,1.28v.02c0,.78.72,1.24,1.56,1.24,1.14,0,2.07-.7,2.07-1.68Z"/>
        <path class="cls-9" d="m395.57,453.68v-3.74h-.86v-.82h.86v-1.87h.92v1.87h1.97v.82h-1.97v3.62c0,.75.42,1.03,1.04,1.03.31,0,.58-.06.9-.22v.79c-.32.17-.67.26-1.12.26-1,0-1.75-.49-1.75-1.75Z"/>
        <path class="cls-9" d="m400,452.98v-3.85h.92v3.62c0,1.15.62,1.87,1.71,1.87s1.86-.78,1.86-1.94v-3.55h.91v6.2h-.91v-1.08c-.42.67-1.05,1.21-2.12,1.21-1.5,0-2.38-1.01-2.38-2.48Z"/>
        <path class="cls-9" d="m407.48,449.13h.92v1.62c.46-1.03,1.36-1.78,2.53-1.73v1h-.07c-1.36,0-2.46.97-2.46,2.84v2.47h-.92v-6.2Z"/>
        <path class="cls-9" d="m411.69,452.25v-.02c0-1.79,1.26-3.23,2.97-3.23,1.83,0,2.89,1.46,2.89,3.27,0,.12,0,.19-.01.3h-4.92c.13,1.34,1.08,2.1,2.18,2.1.85,0,1.45-.35,1.96-.88l.58.52c-.62.7-1.38,1.16-2.55,1.16-1.7,0-3.09-1.31-3.09-3.23Zm4.93-.36c-.1-1.13-.74-2.11-1.98-2.11-1.08,0-1.89.9-2.01,2.11h3.99Z"/>
        <path class="cls-9" d="m418.67,454.54l.47-.66c.67.5,1.42.79,2.15.79s1.28-.38,1.28-.98v-.02c0-.62-.73-.86-1.55-1.09-.97-.28-2.05-.61-2.05-1.75v-.02c0-1.07.89-1.78,2.11-1.78.75,0,1.59.26,2.23.68l-.42.7c-.58-.37-1.24-.6-1.83-.6-.73,0-1.2.38-1.2.9v.02c0,.59.77.82,1.59,1.07.96.29,1.99.66,1.99,1.78v.02c0,1.18-.97,1.86-2.21,1.86-.89,0-1.87-.35-2.57-.91Z"/>
        <path class="cls-9" d="m428.29,453.53v-.02c0-1.31,1.08-2,2.65-2,.79,0,1.36.11,1.91.26v-.22c0-1.12-.68-1.69-1.85-1.69-.73,0-1.31.19-1.88.46l-.28-.75c.68-.31,1.36-.52,2.25-.52s1.55.23,2,.68c.42.42.64,1.02.64,1.81v3.79h-.89v-.94c-.43.56-1.15,1.07-2.24,1.07-1.15,0-2.32-.66-2.32-1.93Zm4.57-.48v-.6c-.46-.13-1.07-.26-1.82-.26-1.16,0-1.81.5-1.81,1.28v.02c0,.78.72,1.24,1.56,1.24,1.14,0,2.07-.7,2.07-1.68Z"/>
        <path class="cls-9" d="m435.71,449.13h.92v1.62c.46-1.03,1.36-1.78,2.53-1.73v1h-.07c-1.35,0-2.46.97-2.46,2.84v2.47h-.92v-6.2Z"/>
        <path class="cls-9" d="m439.92,452.25v-.02c0-1.79,1.26-3.23,2.97-3.23,1.83,0,2.89,1.46,2.89,3.27,0,.12,0,.19-.01.3h-4.92c.13,1.34,1.08,2.1,2.18,2.1.85,0,1.45-.35,1.96-.88l.58.52c-.62.7-1.38,1.16-2.55,1.16-1.7,0-3.09-1.31-3.09-3.23Zm4.93-.36c-.1-1.13-.74-2.11-1.98-2.11-1.08,0-1.89.9-2.01,2.11h3.99Z"/>
        <path class="cls-9" d="m450.49,454.54l.47-.66c.67.5,1.42.79,2.15.79s1.28-.38,1.28-.98v-.02c0-.62-.73-.86-1.55-1.09-.97-.28-2.05-.61-2.05-1.75v-.02c0-1.07.89-1.78,2.11-1.78.75,0,1.59.26,2.23.68l-.42.7c-.58-.37-1.24-.6-1.83-.6-.73,0-1.2.38-1.2.9v.02c0,.59.77.82,1.59,1.07.96.29,1.99.66,1.99,1.78v.02c0,1.18-.97,1.86-2.21,1.86-.89,0-1.87-.35-2.57-.91Z"/>
        <path class="cls-9" d="m456.98,446.57h.92v3.63c.41-.67,1.06-1.21,2.12-1.21,1.5,0,2.37,1.01,2.37,2.48v3.85h-.92v-3.62c0-1.15-.62-1.87-1.72-1.87s-1.86.78-1.86,1.94v3.55h-.92v-8.75Z"/>
        <path class="cls-9" d="m463.99,452.26v-.02c0-1.75,1.37-3.24,3.24-3.24s3.23,1.46,3.23,3.21v.02c0,1.75-1.38,3.24-3.25,3.24s-3.21-1.46-3.21-3.21Zm5.52,0v-.02c0-1.33-1-2.42-2.3-2.42s-2.27,1.09-2.27,2.4v.02c0,1.33.98,2.41,2.29,2.41s2.28-1.08,2.28-2.39Z"/>
        <path class="cls-9" d="m471.3,449.13h.98l1.63,4.98,1.67-5h.77l1.68,5,1.63-4.98h.96l-2.18,6.25h-.8l-1.67-4.89-1.68,4.89h-.82l-2.17-6.25Z"/>
        <path class="cls-9" d="m482.16,449.13h.92v1.08c.41-.67,1.06-1.21,2.12-1.21,1.5,0,2.37,1.01,2.37,2.48v3.85h-.92v-3.62c0-1.15-.62-1.87-1.72-1.87s-1.86.78-1.86,1.94v3.55h-.92v-6.2Z"/>
        <path class="cls-9" d="m489.43,454.07h1.1v1.26h-1.1v-1.26Z"/>
      </g>
      <g id="ileal_bar">
        <rect class="cls-16" x="1.13" y="387.94" width="782.74" height="27.06" rx="13.53" ry="13.53"/>
        <g>
          <path class="cls-9" d="m262.68,395.43h2.77v12.6h-2.77v-12.6Z"/>
          <path class="cls-9" d="m268.44,394.89h2.74v13.14h-2.74v-13.14Z"/>
          <path class="cls-9" d="m273.28,403.26v-.04c0-2.75,1.96-5.02,4.77-5.02,3.22,0,4.7,2.5,4.7,5.24,0,.22-.02.47-.04.72h-6.72c.27,1.24,1.13,1.89,2.36,1.89.92,0,1.58-.29,2.34-.99l1.57,1.39c-.9,1.12-2.2,1.8-3.94,1.8-2.9,0-5.04-2.03-5.04-4.99Zm6.81-.81c-.16-1.22-.88-2.05-2.03-2.05s-1.87.81-2.09,2.05h4.12Z"/>
          <path class="cls-9" d="m284.21,405.26v-.04c0-2.11,1.6-3.08,3.89-3.08.97,0,1.67.16,2.36.4v-.16c0-1.13-.7-1.76-2.07-1.76-1.04,0-1.78.2-2.67.52l-.68-2.09c1.06-.47,2.11-.77,3.75-.77,1.49,0,2.57.4,3.26,1.08.72.72,1.04,1.78,1.04,3.08v5.6h-2.65v-1.04c-.67.74-1.58,1.22-2.92,1.22-1.82,0-3.31-1.04-3.31-2.95Zm6.28-.63v-.49c-.47-.22-1.08-.36-1.75-.36-1.17,0-1.89.47-1.89,1.33v.04c0,.74.61,1.17,1.49,1.17,1.28,0,2.14-.7,2.14-1.69Z"/>
          <path class="cls-9" d="m295.56,394.89h2.74v13.14h-2.74v-13.14Z"/>
          <path class="cls-9" d="m307.12,393.66h2.32l-7.98,16.67h-2.32l7.98-16.67Z"/>
          <path class="cls-9" d="m310.47,394.89h2.88v2.43h-2.88v-2.43Zm.07,3.49h2.74v9.65h-2.74v-9.65Z"/>
          <path class="cls-9" d="m315.98,394.89h2.74v13.14h-2.74v-13.14Z"/>
          <path class="cls-9" d="m320.82,403.26v-.04c0-2.75,1.96-5.02,4.77-5.02,3.22,0,4.7,2.5,4.7,5.24,0,.22-.02.47-.04.72h-6.72c.27,1.24,1.13,1.89,2.36,1.89.92,0,1.58-.29,2.34-.99l1.57,1.39c-.9,1.12-2.2,1.8-3.94,1.8-2.9,0-5.04-2.03-5.04-4.99Zm6.81-.81c-.16-1.22-.88-2.05-2.03-2.05s-1.87.81-2.09,2.05h4.12Z"/>
          <path class="cls-9" d="m331.85,403.26v-.04c0-2.77,2.23-5.02,5.24-5.02s5.2,2.21,5.2,4.99v.04c0,2.77-2.23,5.02-5.24,5.02s-5.2-2.21-5.2-4.99Zm7.74,0v-.04c0-1.42-1.03-2.67-2.54-2.67s-2.5,1.21-2.5,2.63v.04c0,1.42,1.03,2.67,2.54,2.67s2.5-1.21,2.5-2.63Z"/>
          <path class="cls-9" d="m343.8,403.26v-.04c0-2.75,2.11-5.02,5.06-5.02,1.82,0,2.95.61,3.85,1.62l-1.67,1.8c-.61-.65-1.22-1.06-2.2-1.06-1.37,0-2.34,1.21-2.34,2.63v.04c0,1.48.95,2.67,2.45,2.67.92,0,1.55-.4,2.21-1.03l1.6,1.62c-.94,1.03-2.02,1.76-3.94,1.76-2.9,0-5.02-2.23-5.02-4.99Z"/>
          <path class="cls-9" d="m353.81,403.26v-.04c0-2.77,2.23-5.02,5.24-5.02s5.2,2.21,5.2,4.99v.04c0,2.77-2.23,5.02-5.24,5.02s-5.2-2.21-5.2-4.99Zm7.74,0v-.04c0-1.42-1.03-2.67-2.54-2.67s-2.5,1.21-2.5,2.63v.04c0,1.42,1.03,2.67,2.54,2.67s2.5-1.21,2.5-2.63Z"/>
          <path class="cls-9" d="m366.36,394.89h2.74v13.14h-2.74v-13.14Z"/>
          <path class="cls-9" d="m371.2,403.26v-.04c0-2.77,2.23-5.02,5.24-5.02s5.2,2.21,5.2,4.99v.04c0,2.77-2.23,5.02-5.24,5.02s-5.2-2.21-5.2-4.99Zm7.74,0v-.04c0-1.42-1.03-2.67-2.54-2.67s-2.5,1.21-2.5,2.63v.04c0,1.42,1.03,2.67,2.54,2.67s2.5-1.21,2.5-2.63Z"/>
          <path class="cls-9" d="m383.62,398.38h2.74v1.37c.63-.81,1.44-1.55,2.83-1.55,2.07,0,3.28,1.37,3.28,3.58v6.25h-2.74v-5.38c0-1.3-.61-1.96-1.66-1.96s-1.71.67-1.71,1.96v5.38h-2.74v-9.65Z"/>
          <path class="cls-9" d="m394.88,394.89h2.88v2.43h-2.88v-2.43Zm.07,3.49h2.74v9.65h-2.74v-9.65Z"/>
          <path class="cls-9" d="m399.8,403.26v-.04c0-2.75,2.11-5.02,5.06-5.02,1.82,0,2.95.61,3.85,1.62l-1.67,1.8c-.61-.65-1.22-1.06-2.2-1.06-1.37,0-2.34,1.21-2.34,2.63v.04c0,1.48.95,2.67,2.45,2.67.92,0,1.55-.4,2.21-1.03l1.6,1.62c-.94,1.03-2.02,1.76-3.94,1.76-2.9,0-5.02-2.23-5.02-4.99Z"/>
          <path class="cls-9" d="m416,394.89h2.88v2.43h-2.88v-2.43Zm.07,3.49h2.74v9.65h-2.74v-9.65Z"/>
          <path class="cls-9" d="m421.38,398.38h2.74v1.37c.63-.81,1.44-1.55,2.83-1.55,2.07,0,3.28,1.37,3.28,3.58v6.25h-2.74v-5.38c0-1.3-.61-1.96-1.66-1.96s-1.71.67-1.71,1.96v5.38h-2.74v-9.65Z"/>
          <path class="cls-9" d="m431.37,398.38h2.9l2.16,6.46,2.18-6.46h2.84l-3.8,9.72h-2.48l-3.8-9.72Z"/>
          <path class="cls-9" d="m442.02,403.26v-.04c0-2.77,2.23-5.02,5.24-5.02s5.2,2.21,5.2,4.99v.04c0,2.77-2.23,5.02-5.24,5.02s-5.2-2.21-5.2-4.99Zm7.74,0v-.04c0-1.42-1.03-2.67-2.54-2.67s-2.5,1.21-2.5,2.63v.04c0,1.42,1.03,2.67,2.54,2.67s2.5-1.21,2.5-2.63Z"/>
          <path class="cls-9" d="m454.57,394.89h2.74v13.14h-2.74v-13.14Z"/>
          <path class="cls-9" d="m459.02,398.38h2.9l2.16,6.46,2.18-6.46h2.84l-3.8,9.72h-2.49l-3.8-9.72Z"/>
          <path class="cls-9" d="m469.67,403.26v-.04c0-2.75,1.96-5.02,4.77-5.02,3.22,0,4.7,2.5,4.7,5.24,0,.22-.02.47-.04.72h-6.72c.27,1.24,1.13,1.89,2.36,1.89.92,0,1.58-.29,2.34-.99l1.57,1.39c-.9,1.12-2.2,1.8-3.94,1.8-2.9,0-5.04-2.03-5.04-4.99Zm6.81-.81c-.16-1.22-.88-2.05-2.03-2.05s-1.87.81-2.09,2.05h4.12Z"/>
          <path class="cls-9" d="m481.17,398.38h2.74v1.37c.63-.81,1.46-1.55,2.84-1.55,1.26,0,2.21.56,2.72,1.53.85-.99,1.85-1.53,3.17-1.53,2.04,0,3.26,1.22,3.26,3.55v6.28h-2.74v-5.38c0-1.3-.58-1.96-1.6-1.96s-1.66.67-1.66,1.96v5.38h-2.74v-5.38c0-1.3-.58-1.96-1.6-1.96s-1.66.67-1.66,1.96v5.38h-2.74v-9.65Z"/>
          <path class="cls-9" d="m497.81,403.26v-.04c0-2.75,1.96-5.02,4.77-5.02,3.22,0,4.7,2.5,4.7,5.24,0,.22-.02.47-.04.72h-6.72c.27,1.24,1.13,1.89,2.36,1.89.92,0,1.58-.29,2.34-.99l1.57,1.39c-.9,1.12-2.2,1.8-3.94,1.8-2.9,0-5.04-2.03-5.04-4.99Zm6.81-.81c-.16-1.22-.88-2.05-2.03-2.05s-1.87.81-2.09,2.05h4.12Z"/>
          <path class="cls-9" d="m509.31,398.38h2.74v1.37c.63-.81,1.44-1.55,2.83-1.55,2.07,0,3.28,1.37,3.28,3.58v6.25h-2.74v-5.38c0-1.3-.61-1.96-1.66-1.96s-1.71.67-1.71,1.96v5.38h-2.74v-9.65Z"/>
          <path class="cls-9" d="m520.97,405.3v-4.57h-1.15v-2.34h1.15v-2.47h2.74v2.47h2.27v2.34h-2.27v4.12c0,.63.27.94.88.94.5,0,.96-.13,1.35-.34v2.2c-.58.34-1.24.56-2.16.56-1.67,0-2.81-.67-2.81-2.9Z"/>
        </g>
      </g>
      <g id="ulcers_bar">
        <rect class="cls-20" x="1.13" y="356.73" width="782.74" height="27.06" rx="13.53" ry="13.53"/>
        <g>
          <path class="cls-9" d="m364.2,371.42v-7.2h2.77v7.13c0,2.05,1.03,3.12,2.72,3.12s2.72-1.03,2.72-3.03v-7.22h2.77v7.11c0,3.82-2.14,5.69-5.53,5.69s-5.46-1.89-5.46-5.6Z"/>
          <path class="cls-9" d="m377.84,363.68h2.74v13.14h-2.74v-13.14Z"/>
          <path class="cls-9" d="m382.68,372.05v-.04c0-2.75,2.11-5.02,5.06-5.02,1.82,0,2.95.61,3.85,1.62l-1.67,1.8c-.61-.65-1.22-1.06-2.2-1.06-1.37,0-2.34,1.21-2.34,2.63v.04c0,1.48.95,2.67,2.45,2.67.92,0,1.55-.4,2.21-1.03l1.6,1.62c-.94,1.03-2.02,1.76-3.94,1.76-2.9,0-5.02-2.23-5.02-4.99Z"/>
          <path class="cls-9" d="m392.69,372.05v-.04c0-2.75,1.96-5.02,4.77-5.02,3.22,0,4.7,2.5,4.7,5.24,0,.22-.02.47-.04.72h-6.72c.27,1.24,1.13,1.89,2.36,1.89.92,0,1.58-.29,2.34-.99l1.57,1.39c-.9,1.12-2.2,1.8-3.94,1.8-2.9,0-5.04-2.03-5.04-4.99Zm6.81-.81c-.16-1.22-.88-2.05-2.03-2.05s-1.87.81-2.09,2.05h4.12Z"/>
          <path class="cls-9" d="m404.19,367.17h2.74v1.95c.56-1.33,1.46-2.2,3.08-2.12v2.86h-.14c-1.82,0-2.94,1.1-2.94,3.4v3.57h-2.74v-9.65Z"/>
          <path class="cls-9" d="m410.96,375.54l1.17-1.8c1.04.76,2.14,1.15,3.04,1.15.79,0,1.15-.29,1.15-.72v-.04c0-.59-.94-.79-2-1.12-1.35-.4-2.88-1.03-2.88-2.9v-.04c0-1.96,1.58-3.06,3.53-3.06,1.22,0,2.56.41,3.6,1.12l-1.04,1.89c-.95-.56-1.91-.9-2.61-.9-.67,0-1.01.29-1.01.67v.04c0,.54.92.79,1.96,1.15,1.35.45,2.92,1.1,2.92,2.86v.04c0,2.14-1.6,3.11-3.69,3.11-1.35,0-2.86-.45-4.14-1.46Z"/>
        </g>
      </g>
      <g id="perianal_bar">
        <rect class="cls-21" x="1.13" y="325.52" width="782.74" height="27.06" rx="13.53" ry="13.53"/>
        <g>
          <path class="cls-9" d="m224.32,332.76h5.15c3.01,0,4.83,1.78,4.83,4.36v.04c0,2.92-2.27,4.43-5.09,4.43h-2.11v3.78h-2.77v-12.6Zm4.97,6.36c1.39,0,2.2-.83,2.2-1.91v-.04c0-1.24-.86-1.91-2.25-1.91h-2.14v3.85h2.2Z"/>
          <path class="cls-9" d="m235.5,340.59v-.04c0-2.75,1.96-5.02,4.77-5.02,3.22,0,4.7,2.5,4.7,5.24,0,.22-.02.47-.04.72h-6.72c.27,1.24,1.13,1.89,2.36,1.89.92,0,1.58-.29,2.34-.99l1.57,1.39c-.9,1.12-2.2,1.8-3.94,1.8-2.9,0-5.04-2.03-5.04-4.99Zm6.81-.81c-.16-1.22-.88-2.05-2.03-2.05s-1.87.81-2.09,2.05h4.12Z"/>
          <path class="cls-9" d="m247,335.71h2.74v1.95c.56-1.33,1.46-2.2,3.08-2.12v2.86h-.14c-1.82,0-2.94,1.1-2.94,3.4v3.57h-2.74v-9.65Z"/>
          <path class="cls-9" d="m254.58,332.22h2.88v2.43h-2.88v-2.43Zm.07,3.49h2.74v9.65h-2.74v-9.65Z"/>
          <path class="cls-9" d="m259.38,342.59v-.04c0-2.11,1.6-3.08,3.89-3.08.97,0,1.67.16,2.36.4v-.16c0-1.13-.7-1.76-2.07-1.76-1.04,0-1.78.2-2.67.52l-.68-2.09c1.06-.47,2.11-.77,3.75-.77,1.49,0,2.57.4,3.26,1.08.72.72,1.04,1.78,1.04,3.08v5.6h-2.65v-1.04c-.67.74-1.58,1.22-2.92,1.22-1.82,0-3.31-1.04-3.31-2.95Zm6.28-.63v-.49c-.47-.22-1.08-.36-1.75-.36-1.17,0-1.89.47-1.89,1.33v.04c0,.74.61,1.17,1.49,1.17,1.28,0,2.14-.7,2.14-1.69Z"/>
          <path class="cls-9" d="m270.62,335.71h2.74v1.37c.63-.81,1.44-1.55,2.83-1.55,2.07,0,3.28,1.37,3.28,3.58v6.25h-2.74v-5.38c0-1.3-.61-1.96-1.66-1.96s-1.71.67-1.71,1.96v5.38h-2.74v-9.65Z"/>
          <path class="cls-9" d="m281.25,342.59v-.04c0-2.11,1.6-3.08,3.89-3.08.97,0,1.67.16,2.36.4v-.16c0-1.13-.7-1.76-2.07-1.76-1.04,0-1.78.2-2.66.52l-.68-2.09c1.06-.47,2.11-.77,3.75-.77,1.49,0,2.58.4,3.26,1.08.72.72,1.04,1.78,1.04,3.08v5.6h-2.65v-1.04c-.67.74-1.58,1.22-2.92,1.22-1.82,0-3.31-1.04-3.31-2.95Zm6.28-.63v-.49c-.47-.22-1.08-.36-1.75-.36-1.17,0-1.89.47-1.89,1.33v.04c0,.74.61,1.17,1.5,1.17,1.28,0,2.14-.7,2.14-1.69Z"/>
          <path class="cls-9" d="m292.61,332.22h2.74v13.14h-2.74v-13.14Z"/>
          <path class="cls-9" d="m302.74,342.59v-.04c0-2.11,1.6-3.08,3.89-3.08.97,0,1.67.16,2.36.4v-.16c0-1.13-.7-1.76-2.07-1.76-1.04,0-1.78.2-2.66.52l-.68-2.09c1.06-.47,2.11-.77,3.75-.77,1.49,0,2.58.4,3.26,1.08.72.72,1.04,1.78,1.04,3.08v5.6h-2.65v-1.04c-.67.74-1.58,1.22-2.92,1.22-1.82,0-3.31-1.04-3.31-2.95Zm6.28-.63v-.49c-.47-.22-1.08-.36-1.75-.36-1.17,0-1.89.47-1.89,1.33v.04c0,.74.61,1.17,1.5,1.17,1.28,0,2.14-.7,2.14-1.69Z"/>
          <path class="cls-9" d="m313.98,335.71h2.74v1.37c.63-.81,1.44-1.55,2.83-1.55,2.07,0,3.28,1.37,3.28,3.58v6.25h-2.74v-5.38c0-1.3-.61-1.96-1.66-1.96s-1.71.67-1.71,1.96v5.38h-2.74v-9.65Z"/>
          <path class="cls-9" d="m324.76,340.56v-.04c0-3.22,2.11-4.99,4.39-4.99,1.46,0,2.36.67,3.01,1.44v-4.75h2.74v13.14h-2.74v-1.39c-.67.9-1.58,1.57-3.01,1.57-2.25,0-4.39-1.76-4.39-4.99Zm7.44,0v-.04c0-1.6-1.06-2.66-2.34-2.66s-2.36,1.04-2.36,2.66v.04c0,1.6,1.08,2.67,2.36,2.67s2.34-1.06,2.34-2.67Z"/>
          <path class="cls-9" d="m343.59,331h2.32l-7.98,16.67h-2.32l7.98-16.67Z"/>
          <path class="cls-9" d="m344.97,340.59v-.04c0-2.77,2.23-5.02,5.24-5.02s5.2,2.21,5.2,4.99v.04c0,2.77-2.23,5.02-5.24,5.02s-5.2-2.21-5.2-4.99Zm7.74,0v-.04c0-1.42-1.03-2.67-2.54-2.67s-2.5,1.21-2.5,2.63v.04c0,1.42,1.03,2.67,2.54,2.67s2.5-1.21,2.5-2.63Z"/>
          <path class="cls-9" d="m357.39,335.71h2.74v1.95c.56-1.33,1.46-2.2,3.08-2.12v2.86h-.14c-1.82,0-2.94,1.1-2.94,3.4v3.57h-2.74v-9.65Z"/>
          <path class="cls-9" d="m369.56,344.09l1.17-1.8c1.04.76,2.14,1.15,3.04,1.15.79,0,1.15-.29,1.15-.72v-.04c0-.59-.94-.79-2-1.12-1.35-.4-2.88-1.03-2.88-2.9v-.04c0-1.96,1.58-3.06,3.53-3.06,1.22,0,2.56.41,3.6,1.12l-1.04,1.89c-.95-.56-1.91-.9-2.61-.9-.67,0-1.01.29-1.01.67v.04c0,.54.92.79,1.96,1.15,1.35.45,2.92,1.1,2.92,2.86v.04c0,2.14-1.6,3.11-3.69,3.11-1.35,0-2.86-.45-4.14-1.46Z"/>
          <path class="cls-9" d="m378.88,340.59v-.04c0-2.75,1.96-5.02,4.77-5.02,3.22,0,4.7,2.5,4.7,5.24,0,.22-.02.47-.04.72h-6.72c.27,1.24,1.13,1.89,2.36,1.89.92,0,1.58-.29,2.34-.99l1.57,1.39c-.9,1.12-2.2,1.8-3.94,1.8-2.9,0-5.04-2.03-5.04-4.99Zm6.81-.81c-.16-1.22-.88-2.05-2.03-2.05s-1.87.81-2.09,2.05h4.12Z"/>
          <path class="cls-9" d="m389.07,335.71h2.9l2.16,6.46,2.18-6.46h2.84l-3.8,9.72h-2.49l-3.8-9.72Z"/>
          <path class="cls-9" d="m399.73,340.59v-.04c0-2.75,1.96-5.02,4.77-5.02,3.22,0,4.7,2.5,4.7,5.24,0,.22-.02.47-.04.72h-6.72c.27,1.24,1.13,1.89,2.36,1.89.92,0,1.58-.29,2.34-.99l1.57,1.39c-.9,1.12-2.2,1.8-3.94,1.8-2.9,0-5.04-2.03-5.04-4.99Zm6.81-.81c-.16-1.22-.88-2.05-2.03-2.05s-1.87.81-2.09,2.05h4.12Z"/>
          <path class="cls-9" d="m411.23,335.71h2.74v1.95c.56-1.33,1.46-2.2,3.08-2.12v2.86h-.14c-1.82,0-2.93,1.1-2.93,3.4v3.57h-2.74v-9.65Z"/>
          <path class="cls-9" d="m418.02,340.59v-.04c0-2.75,1.96-5.02,4.77-5.02,3.22,0,4.7,2.5,4.7,5.24,0,.22-.02.47-.04.72h-6.72c.27,1.24,1.13,1.89,2.36,1.89.92,0,1.58-.29,2.34-.99l1.57,1.39c-.9,1.12-2.2,1.8-3.94,1.8-2.9,0-5.04-2.03-5.04-4.99Zm6.81-.81c-.16-1.22-.88-2.05-2.03-2.05s-1.87.81-2.09,2.05h4.12Z"/>
          <path class="cls-9" d="m434.92,335.71h2.74v1.95c.56-1.33,1.46-2.2,3.08-2.12v2.86h-.14c-1.82,0-2.93,1.1-2.93,3.4v3.57h-2.74v-9.65Z"/>
          <path class="cls-9" d="m441.7,340.59v-.04c0-2.75,1.96-5.02,4.77-5.02,3.22,0,4.7,2.5,4.7,5.24,0,.22-.02.47-.04.72h-6.72c.27,1.24,1.13,1.89,2.36,1.89.92,0,1.58-.29,2.34-.99l1.57,1.39c-.9,1.12-2.2,1.8-3.94,1.8-2.9,0-5.04-2.03-5.04-4.99Zm6.81-.81c-.16-1.22-.88-2.05-2.03-2.05s-1.87.81-2.09,2.05h4.12Z"/>
          <path class="cls-9" d="m452.74,340.59v-.04c0-2.75,2.11-5.02,5.06-5.02,1.82,0,2.95.61,3.85,1.62l-1.67,1.8c-.61-.65-1.22-1.06-2.2-1.06-1.37,0-2.34,1.21-2.34,2.63v.04c0,1.48.95,2.67,2.45,2.67.92,0,1.55-.4,2.21-1.03l1.6,1.62c-.94,1.03-2.02,1.76-3.94,1.76-2.9,0-5.02-2.23-5.02-4.99Z"/>
          <path class="cls-9" d="m463.93,342.63v-4.57h-1.15v-2.34h1.15v-2.47h2.74v2.47h2.27v2.34h-2.27v4.12c0,.63.27.94.88.94.5,0,.96-.13,1.35-.34v2.2c-.58.34-1.24.56-2.16.56-1.67,0-2.81-.67-2.81-2.9Z"/>
          <path class="cls-9" d="m470.38,342.59v-.04c0-2.11,1.6-3.08,3.89-3.08.97,0,1.67.16,2.36.4v-.16c0-1.13-.7-1.76-2.07-1.76-1.04,0-1.78.2-2.67.52l-.68-2.09c1.06-.47,2.11-.77,3.75-.77,1.49,0,2.57.4,3.26,1.08.72.72,1.04,1.78,1.04,3.08v5.6h-2.65v-1.04c-.67.74-1.58,1.22-2.92,1.22-1.82,0-3.31-1.04-3.31-2.95Zm6.28-.63v-.49c-.47-.22-1.08-.36-1.75-.36-1.17,0-1.89.47-1.89,1.33v.04c0,.74.61,1.17,1.49,1.17,1.28,0,2.14-.7,2.14-1.69Z"/>
          <path class="cls-9" d="m481.73,332.22h2.74v13.14h-2.74v-13.14Z"/>
          <path class="cls-9" d="m492.01,340.56v-.04c0-3.22,2.11-4.99,4.39-4.99,1.46,0,2.36.67,3.01,1.44v-4.75h2.74v13.14h-2.74v-1.39c-.67.9-1.58,1.57-3.01,1.57-2.25,0-4.39-1.76-4.39-4.99Zm7.44,0v-.04c0-1.6-1.06-2.66-2.34-2.66s-2.36,1.04-2.36,2.66v.04c0,1.6,1.08,2.67,2.36,2.67s2.34-1.06,2.34-2.67Z"/>
          <path class="cls-9" d="m504.65,332.22h2.88v2.43h-2.88v-2.43Zm.07,3.49h2.74v9.65h-2.74v-9.65Z"/>
          <path class="cls-9" d="m509.27,344.09l1.17-1.8c1.04.76,2.14,1.15,3.04,1.15.79,0,1.15-.29,1.15-.72v-.04c0-.59-.94-.79-2-1.12-1.35-.4-2.88-1.03-2.88-2.9v-.04c0-1.96,1.58-3.06,3.53-3.06,1.22,0,2.56.41,3.6,1.12l-1.04,1.89c-.95-.56-1.91-.9-2.61-.9-.67,0-1.01.29-1.01.67v.04c0,.54.92.79,1.96,1.15,1.35.45,2.92,1.1,2.92,2.86v.04c0,2.14-1.6,3.11-3.69,3.11-1.35,0-2.86-.45-4.14-1.46Z"/>
          <path class="cls-9" d="m518.6,340.59v-.04c0-2.75,1.96-5.02,4.77-5.02,3.22,0,4.7,2.5,4.7,5.24,0,.22-.02.47-.04.72h-6.72c.27,1.24,1.13,1.89,2.36,1.89.92,0,1.58-.29,2.34-.99l1.57,1.39c-.9,1.12-2.2,1.8-3.94,1.8-2.9,0-5.04-2.03-5.04-4.99Zm6.81-.81c-.16-1.22-.88-2.05-2.03-2.05s-1.87.81-2.09,2.05h4.12Z"/>
          <path class="cls-9" d="m529.52,342.59v-.04c0-2.11,1.6-3.08,3.89-3.08.97,0,1.67.16,2.36.4v-.16c0-1.13-.7-1.76-2.07-1.76-1.04,0-1.78.2-2.67.52l-.68-2.09c1.06-.47,2.11-.77,3.75-.77,1.49,0,2.57.4,3.26,1.08.72.72,1.04,1.78,1.04,3.08v5.6h-2.65v-1.04c-.67.74-1.58,1.22-2.92,1.22-1.82,0-3.31-1.04-3.31-2.95Zm6.28-.63v-.49c-.47-.22-1.08-.36-1.75-.36-1.17,0-1.89.47-1.89,1.33v.04c0,.74.61,1.17,1.49,1.17,1.28,0,2.14-.7,2.14-1.69Z"/>
          <path class="cls-9" d="m540,344.09l1.17-1.8c1.04.76,2.14,1.15,3.04,1.15.79,0,1.15-.29,1.15-.72v-.04c0-.59-.94-.79-2-1.12-1.35-.4-2.88-1.03-2.88-2.9v-.04c0-1.96,1.58-3.06,3.53-3.06,1.22,0,2.56.41,3.6,1.12l-1.04,1.89c-.95-.56-1.91-.9-2.61-.9-.67,0-1.01.29-1.01.67v.04c0,.54.92.79,1.96,1.15,1.35.45,2.92,1.1,2.92,2.86v.04c0,2.14-1.6,3.11-3.69,3.11-1.35,0-2.86-.45-4.14-1.46Z"/>
          <path class="cls-9" d="m549.32,340.59v-.04c0-2.75,1.96-5.02,4.77-5.02,3.22,0,4.7,2.5,4.7,5.24,0,.22-.02.47-.04.72h-6.72c.27,1.24,1.13,1.89,2.36,1.89.92,0,1.58-.29,2.34-.99l1.57,1.39c-.9,1.12-2.2,1.8-3.94,1.8-2.9,0-5.04-2.03-5.04-4.99Zm6.81-.81c-.16-1.22-.88-2.05-2.03-2.05s-1.87.81-2.09,2.05h4.12Z"/>
        </g>
      </g>
      <g id="anatomic_bar">
        <rect class="cls-18" x="1.13" y="294.3" width="782.74" height="27.06" rx="13.53" ry="13.53"/>
        <g>
          <path class="cls-9" d="m294.33,301.05h2.56l5.4,12.69h-2.9l-1.15-2.83h-5.33l-1.15,2.83h-2.83l5.4-12.69Zm2.92,7.42l-1.67-4.09-1.67,4.09h3.35Z"/>
          <path class="cls-9" d="m303.94,304.09h2.74v1.37c.63-.81,1.44-1.55,2.83-1.55,2.07,0,3.28,1.37,3.28,3.58v6.25h-2.74v-5.38c0-1.3-.61-1.96-1.66-1.96s-1.71.67-1.71,1.96v5.38h-2.74v-9.65Z"/>
          <path class="cls-9" d="m314.58,310.97v-.04c0-2.11,1.6-3.08,3.89-3.08.97,0,1.67.16,2.36.4v-.16c0-1.13-.7-1.76-2.07-1.76-1.04,0-1.78.2-2.67.52l-.68-2.09c1.06-.47,2.11-.77,3.75-.77,1.49,0,2.57.4,3.26,1.08.72.72,1.04,1.78,1.04,3.08v5.6h-2.65v-1.04c-.67.74-1.58,1.22-2.92,1.22-1.82,0-3.31-1.04-3.31-2.95Zm6.28-.63v-.49c-.47-.22-1.08-.36-1.75-.36-1.17,0-1.89.47-1.89,1.33v.04c0,.74.61,1.17,1.49,1.17,1.28,0,2.14-.7,2.14-1.69Z"/>
          <path class="cls-9" d="m326.17,311.01v-4.57h-1.15v-2.34h1.15v-2.47h2.74v2.47h2.27v2.34h-2.27v4.12c0,.63.27.94.88.94.5,0,.95-.13,1.35-.34v2.2c-.58.34-1.24.56-2.16.56-1.67,0-2.81-.67-2.81-2.9Z"/>
          <path class="cls-9" d="m332.45,308.97v-.04c0-2.77,2.23-5.02,5.24-5.02s5.2,2.21,5.2,4.99v.04c0,2.77-2.23,5.02-5.24,5.02s-5.2-2.21-5.2-4.99Zm7.74,0v-.04c0-1.42-1.03-2.67-2.54-2.67s-2.5,1.21-2.5,2.63v.04c0,1.42,1.03,2.67,2.54,2.67s2.5-1.21,2.5-2.63Z"/>
          <path class="cls-9" d="m344.87,304.09h2.74v1.37c.63-.81,1.46-1.55,2.85-1.55,1.26,0,2.21.56,2.72,1.53.85-.99,1.85-1.53,3.17-1.53,2.03,0,3.26,1.22,3.26,3.55v6.28h-2.74v-5.38c0-1.3-.58-1.96-1.6-1.96s-1.66.67-1.66,1.96v5.38h-2.74v-5.38c0-1.3-.58-1.96-1.6-1.96s-1.66.67-1.66,1.96v5.38h-2.74v-9.65Z"/>
          <path class="cls-9" d="m362.03,300.6h2.88v2.43h-2.88v-2.43Zm.07,3.49h2.74v9.65h-2.74v-9.65Z"/>
          <path class="cls-9" d="m366.94,308.97v-.04c0-2.75,2.11-5.02,5.06-5.02,1.82,0,2.95.61,3.85,1.62l-1.67,1.8c-.61-.65-1.22-1.06-2.2-1.06-1.37,0-2.34,1.21-2.34,2.63v.04c0,1.48.95,2.67,2.45,2.67.92,0,1.55-.4,2.21-1.03l1.6,1.62c-.94,1.03-2.02,1.76-3.94,1.76-2.9,0-5.02-2.23-5.02-4.99Z"/>
          <path class="cls-9" d="m383.14,300.6h2.88v2.43h-2.88v-2.43Zm.07,3.49h2.74v9.65h-2.74v-9.65Z"/>
          <path class="cls-9" d="m388.52,304.09h2.74v1.37c.63-.81,1.44-1.55,2.83-1.55,2.07,0,3.28,1.37,3.28,3.58v6.25h-2.74v-5.38c0-1.3-.61-1.96-1.66-1.96s-1.71.67-1.71,1.96v5.38h-2.74v-9.65Z"/>
          <path class="cls-9" d="m398.51,304.09h2.9l2.16,6.46,2.18-6.46h2.84l-3.8,9.72h-2.49l-3.8-9.72Z"/>
          <path class="cls-9" d="m409.17,308.97v-.04c0-2.77,2.23-5.02,5.24-5.02s5.2,2.21,5.2,4.99v.04c0,2.77-2.23,5.02-5.24,5.02s-5.2-2.21-5.2-4.99Zm7.74,0v-.04c0-1.42-1.03-2.67-2.54-2.67s-2.5,1.21-2.5,2.63v.04c0,1.42,1.03,2.67,2.54,2.67s2.5-1.21,2.5-2.63Z"/>
          <path class="cls-9" d="m421.71,300.6h2.74v13.14h-2.74v-13.14Z"/>
          <path class="cls-9" d="m426.16,304.09h2.9l2.16,6.46,2.18-6.46h2.84l-3.8,9.72h-2.48l-3.8-9.72Z"/>
          <path class="cls-9" d="m436.82,308.97v-.04c0-2.75,1.96-5.02,4.77-5.02,3.22,0,4.7,2.5,4.7,5.24,0,.22-.02.47-.04.72h-6.72c.27,1.24,1.13,1.89,2.36,1.89.92,0,1.58-.29,2.34-.99l1.57,1.39c-.9,1.12-2.2,1.8-3.94,1.8-2.9,0-5.04-2.03-5.04-4.99Zm6.81-.81c-.16-1.22-.88-2.05-2.03-2.05s-1.87.81-2.09,2.05h4.12Z"/>
          <path class="cls-9" d="m448.32,304.09h2.74v1.37c.63-.81,1.46-1.55,2.85-1.55,1.26,0,2.21.56,2.72,1.53.85-.99,1.85-1.53,3.17-1.53,2.03,0,3.26,1.22,3.26,3.55v6.28h-2.74v-5.38c0-1.3-.58-1.96-1.6-1.96s-1.66.67-1.66,1.96v5.38h-2.74v-5.38c0-1.3-.58-1.96-1.6-1.96s-1.66.67-1.66,1.96v5.38h-2.74v-9.65Z"/>
          <path class="cls-9" d="m464.95,308.97v-.04c0-2.75,1.96-5.02,4.77-5.02,3.22,0,4.7,2.5,4.7,5.24,0,.22-.02.47-.04.72h-6.72c.27,1.24,1.13,1.89,2.36,1.89.92,0,1.58-.29,2.34-.99l1.57,1.39c-.9,1.12-2.2,1.8-3.94,1.8-2.9,0-5.04-2.03-5.04-4.99Zm6.81-.81c-.16-1.22-.88-2.05-2.03-2.05s-1.87.81-2.09,2.05h4.12Z"/>
          <path class="cls-9" d="m476.45,304.09h2.74v1.37c.63-.81,1.44-1.55,2.83-1.55,2.07,0,3.28,1.37,3.28,3.58v6.25h-2.74v-5.38c0-1.3-.61-1.96-1.66-1.96s-1.71.67-1.71,1.96v5.38h-2.74v-9.65Z"/>
          <path class="cls-9" d="m488.11,311.01v-4.57h-1.15v-2.34h1.15v-2.47h2.74v2.47h2.27v2.34h-2.27v4.12c0,.63.27.94.88.94.5,0,.95-.13,1.35-.34v2.2c-.58.34-1.24.56-2.16.56-1.67,0-2.81-.67-2.81-2.9Z"/>
        </g>
      </g>
      <g id="age_bar">
        <rect class="cls-19" x="1.13" y="263.09" width="782.74" height="27.06" rx="13.53" ry="13.53"/>
        <g>
          <path class="cls-9" d="m320.61,270.41h2.56l5.4,12.69h-2.9l-1.15-2.83h-5.33l-1.15,2.83h-2.83l5.4-12.69Zm2.92,7.42l-1.67-4.09-1.67,4.09h3.35Z"/>
          <path class="cls-9" d="m329.83,285.01l.94-2.05c.99.56,1.98.88,3.26.88,1.87,0,2.75-.9,2.75-2.63v-.47c-.81.97-1.69,1.57-3.15,1.57-2.25,0-4.29-1.64-4.29-4.5v-.04c0-2.88,2.07-4.5,4.29-4.5,1.49,0,2.38.63,3.11,1.44v-1.26h2.74v7.47c0,1.73-.41,2.99-1.22,3.8-.9.9-2.29,1.3-4.16,1.3-1.57,0-3.04-.36-4.27-1.01Zm6.95-7.2v-.04c0-1.31-1.03-2.23-2.36-2.23s-2.34.92-2.34,2.23v.04c0,1.33,1.01,2.23,2.34,2.23s2.36-.92,2.36-2.23Z"/>
          <path class="cls-9" d="m341.45,278.33v-.04c0-2.75,1.96-5.02,4.77-5.02,3.22,0,4.7,2.5,4.7,5.24,0,.22-.02.47-.04.72h-6.72c.27,1.24,1.13,1.89,2.36,1.89.92,0,1.58-.29,2.34-.99l1.57,1.39c-.9,1.12-2.2,1.8-3.94,1.8-2.9,0-5.04-2.03-5.04-4.99Zm6.81-.81c-.16-1.22-.88-2.05-2.03-2.05s-1.87.81-2.09,2.05h4.12Z"/>
          <path class="cls-9" d="m357.78,280.33v-.04c0-2.11,1.6-3.08,3.89-3.08.97,0,1.67.16,2.36.4v-.16c0-1.13-.7-1.76-2.07-1.76-1.04,0-1.78.2-2.67.52l-.68-2.09c1.06-.47,2.11-.77,3.75-.77,1.49,0,2.57.4,3.26,1.08.72.72,1.04,1.78,1.04,3.08v5.6h-2.65v-1.04c-.67.74-1.58,1.22-2.92,1.22-1.82,0-3.31-1.04-3.31-2.95Zm6.28-.63v-.49c-.47-.22-1.08-.36-1.75-.36-1.17,0-1.89.47-1.89,1.33v.04c0,.74.61,1.17,1.49,1.17,1.28,0,2.14-.7,2.14-1.69Z"/>
          <path class="cls-9" d="m369.37,280.36v-4.57h-1.15v-2.34h1.15v-2.47h2.74v2.47h2.27v2.34h-2.27v4.12c0,.63.27.94.88.94.5,0,.95-.13,1.35-.34v2.2c-.58.34-1.24.56-2.16.56-1.67,0-2.81-.67-2.81-2.9Z"/>
          <path class="cls-9" d="m381.36,278.29v-.04c0-3.22,2.11-4.99,4.39-4.99,1.46,0,2.36.67,3.01,1.44v-4.75h2.74v13.14h-2.74v-1.39c-.67.9-1.58,1.57-3.01,1.57-2.25,0-4.39-1.76-4.39-4.99Zm7.44,0v-.04c0-1.6-1.06-2.66-2.34-2.66s-2.36,1.04-2.36,2.66v.04c0,1.6,1.08,2.67,2.36,2.67s2.34-1.06,2.34-2.67Z"/>
          <path class="cls-9" d="m394,269.96h2.88v2.43h-2.88v-2.43Zm.07,3.49h2.74v9.65h-2.74v-9.65Z"/>
          <path class="cls-9" d="m398.8,280.33v-.04c0-2.11,1.6-3.08,3.89-3.08.97,0,1.67.16,2.36.4v-.16c0-1.13-.7-1.76-2.07-1.76-1.04,0-1.78.2-2.66.52l-.68-2.09c1.06-.47,2.11-.77,3.75-.77,1.49,0,2.58.4,3.26,1.08.72.72,1.04,1.78,1.04,3.08v5.6h-2.65v-1.04c-.67.74-1.58,1.22-2.92,1.22-1.82,0-3.31-1.04-3.31-2.95Zm6.28-.63v-.49c-.47-.22-1.08-.36-1.75-.36-1.17,0-1.89.47-1.89,1.33v.04c0,.74.61,1.17,1.5,1.17,1.28,0,2.14-.7,2.14-1.69Z"/>
          <path class="cls-9" d="m410.09,285.01l.94-2.05c.99.56,1.98.88,3.26.88,1.87,0,2.75-.9,2.75-2.63v-.47c-.81.97-1.69,1.57-3.15,1.57-2.25,0-4.29-1.64-4.29-4.5v-.04c0-2.88,2.07-4.5,4.29-4.5,1.49,0,2.38.63,3.12,1.44v-1.26h2.74v7.47c0,1.73-.41,2.99-1.22,3.8-.9.9-2.29,1.3-4.16,1.3-1.57,0-3.04-.36-4.27-1.01Zm6.95-7.2v-.04c0-1.31-1.03-2.23-2.36-2.23s-2.34.92-2.34,2.23v.04c0,1.33,1.01,2.23,2.34,2.23s2.36-.92,2.36-2.23Z"/>
          <path class="cls-9" d="m422.18,273.45h2.74v1.37c.63-.81,1.44-1.55,2.83-1.55,2.07,0,3.28,1.37,3.28,3.58v6.25h-2.74v-5.38c0-1.3-.61-1.96-1.66-1.96s-1.71.67-1.71,1.96v5.38h-2.74v-9.65Z"/>
          <path class="cls-9" d="m432.93,278.33v-.04c0-2.77,2.23-5.02,5.24-5.02s5.2,2.21,5.2,4.99v.04c0,2.77-2.23,5.02-5.24,5.02s-5.2-2.21-5.2-4.99Zm7.74,0v-.04c0-1.42-1.03-2.67-2.54-2.67s-2.5,1.21-2.5,2.63v.04c0,1.42,1.03,2.67,2.54,2.67s2.5-1.21,2.5-2.63Z"/>
          <path class="cls-9" d="m444.59,281.82l1.17-1.8c1.04.76,2.14,1.15,3.04,1.15.79,0,1.15-.29,1.15-.72v-.04c0-.59-.94-.79-2-1.12-1.35-.4-2.88-1.03-2.88-2.9v-.04c0-1.96,1.58-3.06,3.53-3.06,1.22,0,2.56.41,3.6,1.12l-1.04,1.89c-.95-.56-1.91-.9-2.61-.9-.67,0-1.01.29-1.01.67v.04c0,.54.92.79,1.96,1.15,1.35.45,2.92,1.1,2.92,2.86v.04c0,2.14-1.6,3.11-3.69,3.11-1.35,0-2.86-.45-4.14-1.46Z"/>
          <path class="cls-9" d="m454.44,269.96h2.88v2.43h-2.88v-2.43Zm.07,3.49h2.74v9.65h-2.74v-9.65Z"/>
          <path class="cls-9" d="m459.06,281.82l1.17-1.8c1.04.76,2.14,1.15,3.04,1.15.79,0,1.15-.29,1.15-.72v-.04c0-.59-.94-.79-2-1.12-1.35-.4-2.88-1.03-2.88-2.9v-.04c0-1.96,1.58-3.06,3.53-3.06,1.22,0,2.56.41,3.6,1.12l-1.04,1.89c-.95-.56-1.91-.9-2.61-.9-.67,0-1.01.29-1.01.67v.04c0,.54.92.79,1.96,1.15,1.35.45,2.92,1.1,2.92,2.86v.04c0,2.14-1.6,3.11-3.69,3.11-1.35,0-2.86-.45-4.14-1.46Z"/>
        </g>
      </g>
      <path class="cls-2" d="m127.16,208.96h529.55c-7.57-3.48-12.84-11.12-12.84-20h0c0-8.88,5.26-16.52,12.84-20H127.16c7.57,3.48,12.84,11.12,12.84,20h0c0,8.88-5.26,16.52-12.84,20Z"/>
      <g id="organ_icon">
        <circle class="cls-5" cx="391.94" cy="188.96" r="63.51"/>
        <g>
          <path class="cls-12" d="m424.58,208.5c0-2.51-.74-4.9-2.06-6.71,1.48-1.93,2.32-4.53,2.32-7.28,0-2.59-.76-5.06-2.1-6.96,1.26-1.39,1.97-3.2,1.97-5.11,0-4.2-3.42-7.61-7.62-7.61-3.49,0-6.46,2.33-7.36,5.59-.4-.07-.81-.1-1.23-.1-3.1,0-5.8,1.88-6.91,4.65-1.37-.67-2.87-1.02-4.4-1.02-2.84,0-5.48,1.18-7.36,3.22-1.41-1.94-3.67-3.12-6.16-3.12-1.35,0-2.64.34-3.78.99-1.7-1.68-4.16-2.65-6.78-2.65-.31,0-.62.01-.96.04-1.33-1.03-2.96-1.58-4.66-1.58-4.2,0-7.62,3.41-7.62,7.61,0,1.15.25,2.27.73,3.28-.94.89-1.49,2.15-1.49,3.47,0,.43.06.86.18,1.28-.74,1.2-1.13,2.57-1.13,3.99,0,1.55.48,3.06,1.37,4.34-1.1,1.35-1.72,3.05-1.72,4.82,0,2.35,1.08,4.54,2.89,5.97-1,1.32-1.56,2.94-1.56,4.61,0,4.2,3.43,7.61,7.63,7.61,2.31,0,4.38-1.03,5.77-2.65.71,2.14,2.1,3.43,3.38,4.19,1.6.95,3.52,1.37,5.29,1.37.82,0,1.6-.09,2.3-.25,0,2.9,1.07,5.42,2.56,7.05.67.72,1.32,1.31,1.96,1.87,1.56,1.39,2.7,2.4,2.92,4.55.25,2.4,1.77,2.79,2.7,2.79.03,0,.05,0,.08,0,1.68-.02,2.6-1.51,2.63-2.97v-.41c.02-2.68.04-4.94-.49-6.87,2.62.68,5.46.29,7.21-.93,2.28,2.21,5.75,3.26,8.85,2.58,1.88-.41,5.15-1.81,6.54-6.55,3.55-.97,6.14-4.98,6.14-9.68,0-2.51-.75-4.91-2.07-6.73,1.3-1.82,2.03-4.19,2.03-6.66h0Zm-47.49,18.92c-2.09-1.25-3-3.45-2.71-6.54,0-.05,0-.11,0-.16.01-.17.02-.34.02-.51,0-2.37-1.08-4.55-2.89-5.98,1.01-1.32,1.56-2.94,1.56-4.6,0-1.56-.48-3.07-1.37-4.35,1.1-1.34,1.72-3.05,1.72-4.8,0-.84-.13-1.67-.4-2.44.53,0,1.05-.03,1.56-.11.04,1.34.45,2.53,1.25,3.56.63.82,1.47,1.46,2.38,1.96-1.38.69-2.66,1.72-3.52,3.09-.88,1.4-1.97,4.29.62,7.98,1.7,2.44,3.84,3.37,6.12,3.56-.68,1.73-1.14,3.96-.89,5.31.1.54.57.91,1.1.91.07,0,.14,0,.21-.02.61-.12,1.01-.7.89-1.31-.19-1.01.43-3.57,1.16-4.93,1.56-.16,3.13-.52,4.64-.87.94-.22,1.91-.44,2.83-.61,5.91-1.07,7.94-.36,11.04,2.35.21.19.48.28.74.28.31,0,.63-.13.85-.39.41-.47.36-1.18-.11-1.59-3.84-3.34-6.73-3.98-12.91-2.86-.98.18-1.98.41-2.94.63-4.46,1.03-8.32,1.93-10.89-1.75-1.4-2.01-1.59-3.86-.55-5.5,1.2-1.91,3.84-3.09,5.65-3.02.18.02.35.04.51.05.6.04,1.13-.39,1.2-.99.07-.6-.34-1.14-.94-1.24-.18-.03-.36-.05-.55-.06-1.43-.19-3.69-.85-4.86-2.36-.6-.77-.85-1.69-.77-2.77.41-.16.81-.35,1.19-.56,1.44,1.58,3.49,2.5,5.64,2.5,1.74,0,3.42-.6,4.76-1.67,1.16,1.16,2.75,1.88,4.59,2.07,2.45.24,5.12-.49,6.76-1.8.28.06.55.11.83.15.02.15.04.29.07.43-2.01.62-3.47,2.49-3.47,4.69,0,.62.5,1.12,1.12,1.12s1.12-.5,1.12-1.12c0-1.24.86-2.28,2.01-2.58,1.24,2.2,3.6,3.68,6.3,3.68h.03c.62,0,1.12-.5,1.12-1.12s-.5-1.12-1.12-1.12h-.03c-2.03,0-3.77-1.22-4.55-2.96-.02-.08-.05-.16-.1-.23-.08-.21-.15-.43-.2-.66,2.09-.05,4.24-.56,6.3-1.52-.13,2.42.76,4.19,1.64,5.32-1.24,1.79-1.94,4.12-1.94,6.54s.75,4.92,2.08,6.73c-1.44,2.1-2.1,5.08-2.08,7.88-1.85-.34-4.31-.39-6.34.61-1.91-2.77-5.07-4.46-8.5-4.46-4.03,0-7.72,2.36-9.39,6.01-.43.93-.74,1.85-.93,2.75-1.37.57-4.43.75-6.71-.6h0Zm40.32,2.08c-.45.07-.82.4-.93.85-.72,3.04-2.51,5.02-5.02,5.57-2.64.58-5.75-.54-7.4-2.66-.21-.27-.54-.43-.88-.43h0c-.34,0-.67.16-.88.43-.87,1.11-3.67,1.75-6.27.91-.61-.2-1.41-.55-2.11-1.16-.1-.1-.21-.21-.33-.31-.71-.74-1.26-1.78-1.33-3.26-.03-.62-.55-1.1-1.17-1.07-.62.03-1.1.55-1.07,1.17.08,1.78.69,3.32,1.75,4.52.05.07.11.14.19.2,0,0,0,0,0,0,.15.16.31.3.47.45,1.76,1.87,1.74,4.49,1.71,8.61v.38c0,.06-.05.77-.43.77-.31,0-.42,0-.5-.77-.31-3.02-1.94-4.46-3.66-6-.59-.53-1.21-1.08-1.8-1.71-1.77-1.93-2.84-5.8-.98-9.77,1.31-2.86,4.19-4.7,7.35-4.7,2.99,0,5.73,1.64,7.13,4.28.15.29.43.5.75.57.32.07.66,0,.92-.2,1.76-1.34,4.54-1.12,6.21-.71.17,1.16.47,2.23.89,3.11.27.56.94.8,1.5.53.56-.27.8-.94.53-1.5-.39-.81-.65-1.85-.77-2.97,0-.1,0-.21-.03-.31-.26-2.95.39-6.46,2.06-8.35.38-.43.38-1.08,0-1.5-1.33-1.47-2.1-3.64-2.1-5.96s.73-4.38,2-5.85c.39-.45.36-1.11-.05-1.53-1.08-1.07-2.16-2.95-1.41-5.87.09-.06.18-.12.27-.18,3.64-2.5,6.1-6.05,6.44-9.27.06-.62-.38-1.17-1-1.23-.62-.06-1.17.38-1.23,1-.27,2.55-2.42,5.55-5.48,7.65-.17.12-.35.23-.52.35-.03.02-.05.03-.08.05-3.36,2.11-7.1,2.82-10.35,1.95-.39-.11-.81,0-1.09.3-.92.94-3.14,1.81-5.44,1.58-1.17-.11-2.77-.57-3.77-2.09-.19-.29-.51-.48-.86-.5-.35-.03-.69.11-.92.37-1.04,1.17-2.47,1.81-4.03,1.81-1.78,0-3.45-.89-4.47-2.38-.17-.25-.44-.42-.74-.47-.3-.05-.61.02-.85.2-1.24.91-2.83,1.41-4.5,1.41-.64,0-1.24-.06-1.77-.19h0s0,0,0,0c-2.09-.47-3.8-1.74-4.57-3.42-.26-.56-.93-.81-1.49-.55-.56.26-.81.93-.55,1.49,1.01,2.18,3.11,3.86,5.67,4.56.51.84.78,1.8.78,2.8,0,1.49-.62,2.92-1.71,3.92-.45.42-.49,1.13-.07,1.58.92,1.01,1.43,2.31,1.43,3.65,0,1.27-.47,2.5-1.29,3.48-.87-.34-1.8-.52-2.75-.52-.62,0-1.12.5-1.12,1.12s.5,1.12,1.12,1.12c.87,0,1.73.21,2.48.61,0,0,0,0,0,0,0,0,0,0,0,0,1.78.92,2.88,2.75,2.88,4.76,0,2.96-2.41,5.36-5.37,5.36s-5.39-2.41-5.39-5.36c0-1.52.65-2.97,1.79-3.99.27-.25.41-.61.37-.97-.04-.36-.26-.68-.59-.85-1.78-.94-2.89-2.76-2.89-4.76,0-1.52.61-2.92,1.71-3.93.45-.42.49-1.13.07-1.59-.92-1.01-1.43-2.3-1.43-3.64,0-1.14.36-2.24,1.03-3.17.23-.32.28-.73.13-1.1-.14-.32-.21-.67-.21-1.01,0-.92.47-1.74,1.26-2.19.27-.15.46-.41.53-.72.07-.3.01-.62-.16-.88-.57-.87-.88-1.89-.88-2.96,0-2.96,2.41-5.36,5.37-5.36.56,0,1.11.08,1.63.25-1,.58-1.77,1.41-2.19,2.42-.24.57.02,1.23.59,1.47.14.06.29.09.44.09.44,0,.85-.26,1.03-.68.42-.99,1.55-1.73,2.95-1.93.44-.05.81-.07,1.17-.07,2.32,0,4.45.96,5.71,2.57.38.49,1.08.58,1.57.2.94-.73,2.08-1.11,3.28-1.11,2.2,0,4.15,1.31,4.97,3.33.16.39.52.66.94.7.42.04.82-.16,1.05-.52,1.43-2.26,3.88-3.61,6.56-3.61,1.58,0,3.12.48,4.44,1.39.32.22.72.26,1.07.11.35-.15.61-.47.67-.84.43-2.49,2.59-4.29,5.12-4.29.59,0,1.18.1,1.73.3.32.12.69.08.98-.11.29-.18.48-.49.52-.84.28-2.76,2.58-4.84,5.36-4.84,2.96,0,5.37,2.4,5.37,5.36,0,1.61-.71,3.12-1.95,4.14-.24.2-.38.48-.4.78-.02.31.08.61.28.83,1.4,1.57,2.21,3.87,2.21,6.32s-.85,4.92-2.35,6.49c-.41.43-.41,1.09-.02,1.53,1.33,1.47,2.1,3.65,2.1,5.98s-.75,4.45-2.06,5.92c-.38.43-.38,1.08,0,1.5,1.33,1.47,2.1,3.64,2.1,5.96,0,3.84-2.18,7.19-4.97,7.6h0Zm-26.2-21.59c-.65,1.03-1.59,1.95-2.73,2.64-1.44.87-3.1,1.32-4.78,1.32-.44,0-.88-.03-1.32-.09-.61-.09-1.04-.66-.95-1.27.09-.61.66-1.04,1.27-.95,3.41.48,6.42-1.61,7.09-3.88.5-1.67-.34-3.12-2.36-4.06-.56-.26-.8-.93-.54-1.49.26-.56.93-.8,1.49-.54,3.18,1.49,4.02,3.92,3.74,5.95,4.24-.41,10.66.13,15.82,5.57.43.45.41,1.16-.04,1.59-.22.21-.5.31-.77.31-.3,0-.59-.12-.82-.35-5-5.27-11.41-5.3-15.09-4.74h0Z"/>
          <g>
            <path class="cls-12" d="m411.98,148.32c-2.4-4.51-6.07-7.7-10.06-8.76-4.05-1.07-8.76-.27-12.04,2.04h-1.17c-1.57,0-2.85-1.28-2.85-2.86v-3.01c0-1.38-1.12-2.5-2.5-2.5h-1.72c-1.38,0-2.5,1.12-2.5,2.5v3.9c0,3.97,2.64,7.39,6.45,8.39-1.15,5.2,1.6,8.59,3.83,11.32,1.3,1.6,2.42,2.98,2.53,4.38.12,1.59-1.01,3.36-3.58,5.56-1.39,1.19-2.29,2.82-2.58,4.6h-1.9c-3.7,0-6.72,3.02-6.72,6.72v3.19c0,1.38,1.12,2.5,2.5,2.5h1.44c1.38,0,2.5-1.12,2.5-2.5v-1.93c0-.31.25-.56.56-.56h4.81c1.51,1.02,3.92,1.73,5.89,1.73,3.18,0,6.56-1.44,9.8-4.16,3.84-3.23,6.94-7.85,8.74-13.03,1.98-5.71,1.46-12.1-1.43-17.52Zm-20.76,9.51c-2.28-2.85-4.64-5.8-3.03-10.34.12-.34.08-.72-.12-1.03-.2-.31-.52-.51-.88-.54-3.24-.32-5.69-3.03-5.69-6.29v-3.9c0-.08.06-.14.14-.14h1.72c.08,0,.14.06.14.14v3.01c0,1.4.57,2.76,1.57,3.75.99.97,2.29,1.49,3.65,1.47.4,0,.72,0,.97,0,.63.02.94.02,1.3-.25,2.69-2.04,6.85-2.8,10.33-1.87,3.31.88,6.51,3.71,8.58,7.59,2.58,4.84,3.05,10.54,1.28,15.63-2.65,7.66-8.01,12.88-12.15,14.65-2.76,1.19-5.44,1.21-7.97.06-.55-.25-.76-.42-.91-.54-.41-.33-.46-.33-2.9-.31-.76,0-1.76.01-3.08.01-1.61,0-2.92,1.31-2.92,2.92v1.93c0,.08-.06.14-.14.14h-1.44c-.08,0-.14-.06-.14-.14v-3.19c0-2.41,1.96-4.36,4.36-4.36h2.99c.65,0,1.18-.53,1.18-1.18,0-1.56.66-2.97,1.84-3.99,7.06-6.05,4.27-9.54,1.32-13.24Z"/>
            <path class="cls-12" d="m400.08,145.48c4.07.94,6.63,4.09,8.07,9.91.08.31.27.56.54.73.19.11.4.17.61.17.09,0,.19-.01.28-.03.63-.16,1.02-.8.86-1.43-1.65-6.69-4.86-10.5-9.83-11.64h0c-.63-.15-1.27.25-1.41.88-.15.63.25,1.27.88,1.42Z"/>
            <path class="cls-12" d="m397.22,145.05c.65,0,1.18-.53,1.18-1.18s-.53-1.18-1.18-1.18-1.18.53-1.18,1.18.53,1.18,1.18,1.18Z"/>
          </g>
        </g>
      </g>
      <g id="high_risk_answers" class="graph_details" data-value="high_risk">
        <g>
          <path class="cls-9" d="m741.67,401.47l-5.24-7.62h1.73l4.25,6.3,4.29-6.3h1.66l-5.24,7.6v5.01h-1.44v-4.99Z"/>
          <path class="cls-9" d="m747.82,401.83v-.04c0-2.68,1.89-4.84,4.47-4.84,2.75,0,4.34,2.2,4.34,4.92,0,.18,0,.29-.02.45h-7.38c.2,2.02,1.62,3.15,3.28,3.15,1.28,0,2.18-.52,2.93-1.31l.86.77c-.94,1.04-2.07,1.75-3.83,1.75-2.56,0-4.65-1.96-4.65-4.84Zm7.4-.54c-.14-1.69-1.12-3.17-2.97-3.17-1.62,0-2.84,1.35-3.02,3.17h6Z"/>
          <path class="cls-9" d="m758.28,405.26l.7-.99c1.01.76,2.12,1.19,3.22,1.19s1.93-.58,1.93-1.48v-.04c0-.94-1.1-1.3-2.32-1.64-1.46-.41-3.08-.92-3.08-2.63v-.04c0-1.6,1.33-2.67,3.17-2.67,1.13,0,2.39.4,3.35,1.03l-.63,1.04c-.86-.56-1.85-.9-2.75-.9-1.1,0-1.8.58-1.8,1.35v.04c0,.88,1.15,1.22,2.4,1.6,1.44.43,2.99.99,2.99,2.67v.04c0,1.76-1.46,2.79-3.31,2.79-1.33,0-2.81-.52-3.85-1.37Z"/>
        </g>
        <g>
          <path class="cls-9" d="m720.91,362.64h4.38c3.96,0,6.7,2.72,6.7,6.27v.04c0,3.55-2.74,6.3-6.7,6.3h-4.38v-12.6Zm1.42,1.31v9.97h2.95c3.19,0,5.22-2.16,5.22-4.95v-.04c0-2.79-2.03-4.99-5.22-4.99h-2.95Z"/>
          <path class="cls-9" d="m734.18,370.62v-.04c0-2.68,1.89-4.84,4.47-4.84,2.75,0,4.34,2.2,4.34,4.92,0,.18,0,.29-.02.45h-7.38c.2,2.02,1.62,3.15,3.28,3.15,1.28,0,2.18-.52,2.93-1.31l.86.77c-.94,1.04-2.07,1.75-3.83,1.75-2.56,0-4.65-1.96-4.65-4.84Zm7.4-.54c-.14-1.69-1.12-3.17-2.97-3.17-1.62,0-2.84,1.35-3.02,3.17h6Z"/>
          <path class="cls-9" d="m744.84,370.62v-.04c0-2.68,1.89-4.84,4.47-4.84,2.75,0,4.34,2.2,4.34,4.92,0,.18,0,.29-.02.45h-7.38c.2,2.02,1.62,3.15,3.28,3.15,1.28,0,2.18-.52,2.93-1.31l.86.77c-.94,1.04-2.07,1.75-3.83,1.75-2.56,0-4.65-1.96-4.65-4.84Zm7.4-.54c-.14-1.69-1.12-3.17-2.97-3.17-1.62,0-2.85,1.35-3.03,3.17h6Z"/>
          <path class="cls-9" d="m756.07,365.93h1.39v1.87c.76-1.12,1.85-2.07,3.56-2.07,2.23,0,4.45,1.76,4.45,4.83v.04c0,3.04-2.2,4.84-4.45,4.84-1.73,0-2.84-.94-3.56-1.98v4.66h-1.39v-12.19Zm7.98,4.68v-.04c0-2.2-1.51-3.6-3.28-3.6s-3.37,1.46-3.37,3.58v.04c0,2.16,1.64,3.6,3.37,3.6s3.28-1.33,3.28-3.58Z"/>
        </g>
        <g>
          <path class="cls-9" d="m741.67,340.44l-5.24-7.62h1.73l4.25,6.3,4.29-6.3h1.66l-5.24,7.6v5.01h-1.44v-4.99Z"/>
          <path class="cls-9" d="m747.82,340.8v-.04c0-2.68,1.89-4.84,4.47-4.84,2.75,0,4.34,2.2,4.34,4.92,0,.18,0,.29-.02.45h-7.38c.2,2.02,1.62,3.15,3.28,3.15,1.28,0,2.18-.52,2.93-1.31l.86.77c-.94,1.04-2.07,1.75-3.83,1.75-2.56,0-4.65-1.96-4.65-4.84Zm7.4-.54c-.14-1.69-1.12-3.17-2.97-3.17-1.62,0-2.84,1.35-3.02,3.17h6Z"/>
          <path class="cls-9" d="m758.28,344.24l.7-.99c1.01.76,2.12,1.19,3.22,1.19s1.93-.58,1.93-1.48v-.04c0-.94-1.1-1.3-2.32-1.64-1.46-.41-3.08-.92-3.08-2.63v-.04c0-1.6,1.33-2.67,3.17-2.67,1.13,0,2.39.4,3.35,1.03l-.63,1.04c-.86-.56-1.85-.9-2.75-.9-1.1,0-1.8.58-1.8,1.35v.04c0,.88,1.15,1.22,2.4,1.6,1.44.43,2.99.99,2.99,2.67v.04c0,1.76-1.46,2.79-3.31,2.79-1.33,0-2.81-.52-3.85-1.37Z"/>
        </g>
        <g>
          <path class="cls-9" d="m682.74,301.23h9.11v1.3h-7.69v4.3h6.88v1.3h-6.88v4.41h7.78v1.3h-9.2v-12.6Z"/>
          <path class="cls-9" d="m698.18,308.16l2.77-3.64h1.55l-3.53,4.55,3.67,4.75h-1.6l-2.88-3.83-2.9,3.83h-1.55l3.64-4.74-3.49-4.57h1.58l2.74,3.64Z"/>
          <path class="cls-9" d="m705.38,311.37v-5.62h-1.3v-1.22h1.3v-2.81h1.39v2.81h2.95v1.22h-2.95v5.44c0,1.13.63,1.55,1.57,1.55.47,0,.86-.09,1.35-.32v1.19c-.49.25-1.01.4-1.67.4-1.5,0-2.63-.74-2.63-2.63Z"/>
          <path class="cls-9" d="m711.32,309.21v-.04c0-2.68,1.89-4.84,4.46-4.84,2.75,0,4.34,2.2,4.34,4.92,0,.18,0,.29-.02.45h-7.38c.2,2.02,1.62,3.15,3.28,3.15,1.28,0,2.18-.52,2.93-1.31l.86.77c-.94,1.04-2.07,1.75-3.83,1.75-2.56,0-4.65-1.96-4.65-4.84Zm7.4-.54c-.14-1.69-1.12-3.17-2.97-3.17-1.62,0-2.84,1.35-3.02,3.17h6Z"/>
          <path class="cls-9" d="m722.55,304.53h1.39v1.62c.61-1.01,1.58-1.82,3.19-1.82,2.25,0,3.57,1.51,3.57,3.73v5.78h-1.39v-5.44c0-1.73-.94-2.81-2.57-2.81s-2.79,1.17-2.79,2.92v5.33h-1.39v-9.31Z"/>
          <path class="cls-9" d="m732.87,312.65l.7-.99c1.01.76,2.12,1.19,3.22,1.19s1.93-.58,1.93-1.48v-.04c0-.94-1.1-1.3-2.32-1.64-1.46-.41-3.08-.92-3.08-2.63v-.04c0-1.6,1.33-2.67,3.17-2.67,1.13,0,2.4.4,3.35,1.03l-.63,1.04c-.86-.56-1.86-.9-2.75-.9-1.1,0-1.8.58-1.8,1.35v.04c0,.88,1.15,1.22,2.39,1.6,1.44.43,2.99.99,2.99,2.67v.04c0,1.76-1.46,2.79-3.31,2.79-1.33,0-2.81-.52-3.85-1.37Z"/>
          <path class="cls-9" d="m742.64,300.96h1.58v1.53h-1.58v-1.53Zm.09,3.57h1.39v9.31h-1.39v-9.31Z"/>
          <path class="cls-9" d="m746.42,304.53h1.53l3.13,7.72,3.15-7.72h1.5l-4.05,9.38h-1.22l-4.03-9.38Z"/>
          <path class="cls-9" d="m756.79,309.21v-.04c0-2.68,1.89-4.84,4.47-4.84,2.75,0,4.34,2.2,4.34,4.92,0,.18,0,.29-.02.45h-7.38c.2,2.02,1.62,3.15,3.28,3.15,1.28,0,2.18-.52,2.93-1.31l.86.77c-.94,1.04-2.07,1.75-3.83,1.75-2.56,0-4.65-1.96-4.65-4.84Zm7.4-.54c-.14-1.69-1.12-3.17-2.97-3.17-1.62,0-2.84,1.35-3.03,3.17h6Z"/>
        </g>
        <g>
          <path class="cls-9" d="m697.59,277.17l-5.24-7.62h1.73l4.25,6.3,4.29-6.3h1.66l-5.24,7.6v5.01h-1.44v-4.99Z"/>
          <path class="cls-9" d="m703.74,277.55v-.04c0-2.63,2.05-4.86,4.86-4.86s4.84,2.2,4.84,4.83v.04c0,2.63-2.07,4.86-4.88,4.86s-4.83-2.2-4.83-4.83Zm8.28,0v-.04c0-2-1.49-3.64-3.46-3.64s-3.4,1.64-3.4,3.6v.04c0,2,1.48,3.62,3.44,3.62s3.42-1.62,3.42-3.58Z"/>
          <path class="cls-9" d="m715.8,278.63v-5.78h1.39v5.44c0,1.73.94,2.81,2.57,2.81s2.79-1.17,2.79-2.92v-5.33h1.37v9.31h-1.37v-1.62c-.63,1.01-1.58,1.82-3.19,1.82-2.25,0-3.57-1.51-3.57-3.73Z"/>
          <path class="cls-9" d="m727.03,272.85h1.39v1.62c.61-1.01,1.58-1.82,3.19-1.82,2.25,0,3.56,1.51,3.56,3.73v5.78h-1.39v-5.44c0-1.73-.94-2.81-2.57-2.81s-2.79,1.17-2.79,2.92v5.33h-1.39v-9.31Z"/>
          <path class="cls-9" d="m738.01,283.78l.63-1.08c1.06.77,2.25,1.19,3.58,1.19,2.05,0,3.38-1.13,3.38-3.31v-1.1c-.81,1.08-1.94,1.96-3.65,1.96-2.23,0-4.38-1.67-4.38-4.36v-.04c0-2.72,2.16-4.39,4.38-4.39,1.75,0,2.88.86,3.64,1.87v-1.67h1.39v7.69c0,1.44-.43,2.54-1.19,3.29-.83.83-2.07,1.24-3.55,1.24-1.55,0-2.99-.43-4.23-1.3Zm7.63-6.72v-.04c0-1.91-1.66-3.15-3.42-3.15s-3.22,1.22-3.22,3.13v.04c0,1.87,1.49,3.17,3.22,3.17s3.42-1.28,3.42-3.15Z"/>
          <path class="cls-9" d="m749.5,277.53v-.04c0-2.68,1.89-4.84,4.47-4.84,2.75,0,4.34,2.2,4.34,4.92,0,.18,0,.29-.02.45h-7.38c.2,2.02,1.62,3.15,3.28,3.15,1.28,0,2.18-.52,2.93-1.31l.86.77c-.94,1.04-2.07,1.75-3.83,1.75-2.56,0-4.65-1.96-4.65-4.84Zm7.4-.54c-.14-1.69-1.12-3.17-2.97-3.17-1.62,0-2.84,1.35-3.02,3.17h6Z"/>
          <path class="cls-9" d="m760.73,272.85h1.39v2.43c.68-1.55,2.03-2.67,3.8-2.59v1.49h-.11c-2.03,0-3.69,1.46-3.69,4.27v3.71h-1.39v-9.31Z"/>
        </g>
      </g>
      <g id="low_risk_answers" class="graph_details" data-value="low_risk">
        <g>
          <path class="cls-9" d="m21.54,394.02h1.33l7.94,10.1v-10.1h1.39v12.6h-1.13l-8.14-10.33v10.33h-1.39v-12.6Z"/>
          <path class="cls-9" d="m34.95,402.01v-.04c0-2.63,2.05-4.86,4.86-4.86s4.84,2.2,4.84,4.83v.04c0,2.63-2.07,4.86-4.88,4.86s-4.83-2.2-4.83-4.83Zm8.28,0v-.04c0-2-1.5-3.64-3.46-3.64s-3.4,1.64-3.4,3.6v.04c0,2,1.48,3.62,3.44,3.62s3.42-1.62,3.42-3.58Z"/>
        </g>
        <g>
          <path class="cls-9" d="m20.71,373.57l.88-1.04c1.31,1.19,2.58,1.78,4.32,1.78s2.81-.9,2.81-2.14v-.04c0-1.17-.63-1.84-3.28-2.39-2.9-.63-4.23-1.57-4.23-3.64v-.04c0-1.98,1.75-3.44,4.14-3.44,1.84,0,3.15.52,4.43,1.55l-.83,1.1c-1.17-.95-2.34-1.37-3.64-1.37-1.64,0-2.68.9-2.68,2.04v.04c0,1.19.65,1.85,3.42,2.45,2.81.61,4.11,1.64,4.11,3.57v.04c0,2.16-1.8,3.56-4.3,3.56-2,0-3.64-.67-5.15-2.02Z"/>
          <path class="cls-9" d="m32.68,371.88v-5.78h1.39v5.44c0,1.73.94,2.81,2.58,2.81s2.79-1.17,2.79-2.92v-5.33h1.37v9.31h-1.37v-1.62c-.63,1.01-1.58,1.82-3.19,1.82-2.25,0-3.57-1.51-3.57-3.73Z"/>
          <path class="cls-9" d="m43.92,366.1h1.39v1.87c.76-1.12,1.85-2.07,3.56-2.07,2.23,0,4.45,1.76,4.45,4.83v.04c0,3.04-2.2,4.84-4.45,4.84-1.73,0-2.84-.94-3.56-1.98v4.66h-1.39v-12.19Zm7.98,4.68v-.04c0-2.2-1.51-3.6-3.28-3.6s-3.37,1.46-3.37,3.58v.04c0,2.16,1.64,3.6,3.37,3.6s3.28-1.33,3.28-3.58Z"/>
          <path class="cls-9" d="m55.29,370.78v-.04c0-2.68,1.89-4.84,4.47-4.84,2.75,0,4.34,2.2,4.34,4.92,0,.18,0,.29-.02.45h-7.38c.2,2.02,1.62,3.15,3.28,3.15,1.28,0,2.18-.52,2.93-1.31l.86.77c-.94,1.04-2.07,1.75-3.83,1.75-2.56,0-4.65-1.96-4.65-4.84Zm7.4-.54c-.14-1.69-1.12-3.17-2.97-3.17-1.62,0-2.84,1.35-3.03,3.17h6Z"/>
          <path class="cls-9" d="m66.52,366.1h1.39v2.43c.68-1.55,2.03-2.67,3.8-2.59v1.49h-.11c-2.03,0-3.69,1.46-3.69,4.27v3.71h-1.39v-9.31Z"/>
          <path class="cls-9" d="m74.34,367.33h-1.28v-1.21h1.28v-.81c0-1.06.29-1.87.81-2.4.47-.47,1.15-.72,2-.72.65,0,1.08.07,1.53.23v1.21c-.5-.14-.88-.23-1.35-.23-1.08,0-1.62.65-1.62,1.98v.76h2.95v1.19h-2.94v8.08h-1.39v-8.08Zm6.12-4.79h1.58v1.53h-1.58v-1.53Zm.11,3.57h1.37v9.31h-1.37v-9.31Z"/>
          <path class="cls-9" d="m84.6,370.8v-.04c0-2.63,2.05-4.86,4.77-4.86,1.76,0,2.86.74,3.73,1.66l-.92.97c-.74-.77-1.57-1.4-2.83-1.4-1.89,0-3.33,1.6-3.33,3.6v.04c0,2.02,1.48,3.62,3.42,3.62,1.19,0,2.11-.59,2.84-1.39l.88.83c-.94,1.04-2.05,1.8-3.8,1.8-2.72,0-4.77-2.21-4.77-4.83Z"/>
          <path class="cls-9" d="m95.49,362.54h1.58v1.53h-1.58v-1.53Zm.09,3.57h1.39v9.31h-1.39v-9.31Z"/>
          <path class="cls-9" d="m99.48,372.71v-.04c0-1.96,1.62-3.01,3.98-3.01,1.19,0,2.03.16,2.86.4v-.32c0-1.67-1.03-2.54-2.77-2.54-1.1,0-1.96.29-2.83.68l-.41-1.13c1.03-.47,2.04-.77,3.39-.77s2.32.34,3.01,1.03c.63.63.95,1.53.95,2.72v5.69h-1.33v-1.4c-.65.85-1.73,1.6-3.37,1.6-1.73,0-3.48-.99-3.48-2.9Zm6.86-.72v-.9c-.68-.2-1.6-.4-2.74-.4-1.75,0-2.72.76-2.72,1.93v.04c0,1.17,1.08,1.85,2.34,1.85,1.71,0,3.12-1.04,3.12-2.52Z"/>
          <path class="cls-9" d="m110.73,362.27h1.39v13.14h-1.39v-13.14Z"/>
        </g>
        <g>
          <path class="cls-9" d="m21.54,332.92h1.33l7.94,10.1v-10.1h1.39v12.6h-1.13l-8.14-10.33v10.33h-1.39v-12.6Z"/>
          <path class="cls-9" d="m34.95,340.91v-.04c0-2.63,2.05-4.86,4.86-4.86s4.84,2.2,4.84,4.83v.04c0,2.63-2.07,4.86-4.88,4.86s-4.83-2.2-4.83-4.83Zm8.28,0v-.04c0-2-1.5-3.64-3.46-3.64s-3.4,1.64-3.4,3.6v.04c0,2,1.48,3.62,3.44,3.62s3.42-1.62,3.42-3.58Z"/>
        </g>
        <g>
          <path class="cls-9" d="m21.54,300.81h1.42v11.29h7.09v1.31h-8.52v-12.6Z"/>
          <path class="cls-9" d="m32.41,300.54h1.58v1.53h-1.58v-1.53Zm.09,3.57h1.39v9.31h-1.39v-9.31Z"/>
          <path class="cls-9" d="m37.11,304.1h1.39v1.57c.61-.92,1.44-1.76,3.01-1.76s2.48.81,2.99,1.85c.67-1.03,1.66-1.85,3.28-1.85,2.14,0,3.46,1.44,3.46,3.75v5.76h-1.39v-5.44c0-1.8-.9-2.81-2.41-2.81-1.4,0-2.57,1.04-2.57,2.88v5.37h-1.37v-5.47c0-1.75-.92-2.77-2.39-2.77s-2.59,1.22-2.59,2.93v5.31h-1.39v-9.31Z"/>
          <path class="cls-9" d="m54.21,300.54h1.58v1.53h-1.58v-1.53Zm.09,3.57h1.39v9.31h-1.39v-9.31Z"/>
          <path class="cls-9" d="m59.4,310.94v-5.62h-1.3v-1.22h1.3v-2.81h1.39v2.81h2.95v1.22h-2.95v5.44c0,1.13.63,1.55,1.57,1.55.47,0,.86-.09,1.35-.32v1.19c-.49.25-1.01.4-1.67.4-1.49,0-2.63-.74-2.63-2.63Z"/>
          <path class="cls-9" d="m65.34,308.78v-.04c0-2.68,1.89-4.84,4.47-4.84,2.75,0,4.34,2.2,4.34,4.92,0,.18,0,.29-.02.45h-7.38c.2,2.02,1.62,3.15,3.28,3.15,1.28,0,2.18-.52,2.93-1.31l.86.77c-.94,1.04-2.07,1.75-3.83,1.75-2.56,0-4.65-1.96-4.65-4.84Zm7.4-.54c-.14-1.69-1.12-3.17-2.97-3.17-1.62,0-2.84,1.35-3.02,3.17h6Z"/>
          <path class="cls-9" d="m76.03,308.78v-.04c0-3.04,2.21-4.84,4.45-4.84,1.73,0,2.84.94,3.56,1.98v-5.62h1.39v13.14h-1.39v-1.87c-.76,1.12-1.85,2.07-3.56,2.07-2.23,0-4.45-1.76-4.45-4.83Zm8.07-.02v-.04c0-2.14-1.64-3.58-3.37-3.58s-3.28,1.33-3.28,3.58v.04c0,2.2,1.51,3.6,3.28,3.6s3.37-1.46,3.37-3.6Z"/>
        </g>
        <g>
          <path class="cls-9" d="m20.98,275.89v-.04c0-3.48,2.61-6.52,6.45-6.52s6.41,3.01,6.41,6.48v.04c0,3.47-2.61,6.52-6.45,6.52s-6.41-3.01-6.41-6.48Zm11.38,0v-.04c0-2.86-2.09-5.2-4.97-5.2s-4.93,2.3-4.93,5.17v.04c0,2.86,2.09,5.2,4.97,5.2s4.93-2.3,4.93-5.17Z"/>
          <path class="cls-9" d="m36.73,269.02h1.39v13.14h-1.39v-13.14Z"/>
          <path class="cls-9" d="m40.8,277.53v-.04c0-3.04,2.21-4.84,4.45-4.84,1.73,0,2.84.94,3.57,1.98v-5.62h1.39v13.14h-1.39v-1.87c-.76,1.12-1.85,2.07-3.57,2.07-2.23,0-4.45-1.76-4.45-4.83Zm8.07-.02v-.04c0-2.14-1.64-3.58-3.37-3.58s-3.28,1.33-3.28,3.58v.04c0,2.2,1.51,3.6,3.28,3.6s3.37-1.46,3.37-3.6Z"/>
          <path class="cls-9" d="m52.72,277.53v-.04c0-2.68,1.89-4.84,4.46-4.84,2.75,0,4.34,2.2,4.34,4.92,0,.18,0,.29-.02.45h-7.38c.2,2.02,1.62,3.15,3.28,3.15,1.28,0,2.18-.52,2.93-1.31l.86.77c-.94,1.04-2.07,1.75-3.83,1.75-2.56,0-4.65-1.96-4.65-4.84Zm7.4-.54c-.14-1.69-1.12-3.17-2.97-3.17-1.62,0-2.84,1.35-3.02,3.17h6Z"/>
          <path class="cls-9" d="m63.95,272.85h1.39v2.43c.68-1.55,2.03-2.67,3.8-2.59v1.49h-.11c-2.04,0-3.69,1.46-3.69,4.27v3.71h-1.39v-9.31Z"/>
        </g>
      </g>
      <line id="high_risk_line" class="cls-15" x1="713.87" y1="210.96" x2="713.87" y2="263.09"/>
      <g id="high_risk_btn" class="graph--btn" data-value="high_risk">
        <g id="active_high_risk_btn" class="active-btn">
          <rect class="cls-8" x="643.87" y="166.96" width="140" height="44" rx="22" ry="22"/>
          <rect class="cls-11" x="645.87" y="168.96" width="136" height="40" rx="20" ry="20"/>
          <g>
            <path class="cls-7" d="m680.75,183.71h1.26v4.98h6.47v-4.98h1.26v11.2h-1.26v-5.04h-6.47v5.04h-1.26v-11.2Z"/>
            <path class="cls-7" d="m692.74,183.47h1.41v1.36h-1.41v-1.36Zm.08,3.17h1.23v8.28h-1.23v-8.28Z"/>
            <path class="cls-7" d="m696.82,196.35l.56-.96c.94.69,2,1.06,3.19,1.06,1.82,0,3.01-1.01,3.01-2.95v-.98c-.72.96-1.73,1.74-3.25,1.74-1.98,0-3.89-1.49-3.89-3.87v-.03c0-2.42,1.92-3.91,3.89-3.91,1.55,0,2.56.77,3.23,1.67v-1.49h1.23v6.83c0,1.28-.38,2.26-1.06,2.93-.74.74-1.84,1.1-3.15,1.1s-2.66-.38-3.76-1.15Zm6.79-5.97v-.03c0-1.7-1.47-2.8-3.04-2.8s-2.87,1.09-2.87,2.79v.03c0,1.66,1.33,2.82,2.87,2.82s3.04-1.14,3.04-2.8Z"/>
            <path class="cls-7" d="m707.54,183.23h1.23v4.85c.54-.9,1.41-1.62,2.83-1.62,2,0,3.17,1.34,3.17,3.31v5.14h-1.23v-4.83c0-1.54-.83-2.5-2.29-2.5s-2.48,1.04-2.48,2.59v4.74h-1.23v-11.68Z"/>
            <path class="cls-7" d="m722.19,186.64h1.23v2.16c.61-1.38,1.81-2.37,3.38-2.31v1.33h-.1c-1.81,0-3.28,1.3-3.28,3.79v3.3h-1.23v-8.28Z"/>
            <path class="cls-7" d="m728.71,183.47h1.41v1.36h-1.41v-1.36Zm.08,3.17h1.23v8.28h-1.23v-8.28Z"/>
            <path class="cls-7" d="m732.19,193.85l.62-.88c.9.67,1.89,1.06,2.87,1.06s1.71-.51,1.71-1.31v-.03c0-.83-.98-1.15-2.07-1.46-1.3-.37-2.74-.82-2.74-2.34v-.03c0-1.42,1.18-2.37,2.82-2.37,1.01,0,2.13.35,2.98.91l-.56.93c-.77-.5-1.65-.8-2.45-.8-.98,0-1.6.51-1.6,1.2v.03c0,.78,1.02,1.09,2.13,1.42,1.28.38,2.66.88,2.66,2.37v.03c0,1.57-1.3,2.48-2.95,2.48-1.18,0-2.5-.46-3.42-1.22Z"/>
            <path class="cls-7" d="m740.85,183.23h1.23v8.07l4.47-4.66h1.54l-3.47,3.55,3.59,4.72h-1.47l-2.96-3.86-1.68,1.7v2.16h-1.23v-11.68Z"/>
          </g>
        </g>
        <g id="inactive_high_risk_btn" class="inactive-btn">
          <rect class="cls-10" x="643.87" y="166.96" width="140" height="44" rx="22" ry="22"/>
          <rect class="cls-13" x="645.87" y="168.96" width="136" height="40" rx="20" ry="20"/>
          <g>
            <path class="cls-5" d="m679.43,183.71h2.46v4.43h4.55v-4.43h2.46v11.2h-2.46v-4.5h-4.55v4.5h-2.46v-11.2Z"/>
            <path class="cls-5" d="m691.38,183.23h2.56v2.16h-2.56v-2.16Zm.06,3.1h2.43v8.58h-2.43v-8.58Z"/>
            <path class="cls-5" d="m696.21,196.61l.83-1.82c.88.5,1.76.78,2.9.78,1.66,0,2.45-.8,2.45-2.34v-.42c-.72.86-1.5,1.39-2.8,1.39-2,0-3.81-1.46-3.81-4v-.03c0-2.56,1.84-4,3.81-4,1.33,0,2.11.56,2.77,1.28v-1.12h2.43v6.64c0,1.54-.37,2.66-1.09,3.38-.8.8-2.03,1.15-3.7,1.15-1.39,0-2.71-.32-3.79-.9Zm6.18-6.4v-.03c0-1.17-.91-1.98-2.1-1.98s-2.08.82-2.08,1.98v.03c0,1.18.9,1.98,2.08,1.98s2.1-.82,2.1-1.98Z"/>
            <path class="cls-5" d="m706.96,183.23h2.43v4.32c.56-.72,1.28-1.38,2.51-1.38,1.84,0,2.91,1.22,2.91,3.19v5.55h-2.43v-4.79c0-1.15-.54-1.74-1.47-1.74s-1.52.59-1.52,1.74v4.79h-2.43v-11.68Z"/>
            <path class="cls-5" d="m721.73,186.33h2.43v1.73c.5-1.18,1.3-1.95,2.74-1.89v2.55h-.13c-1.62,0-2.61.98-2.61,3.02v3.17h-2.43v-8.58Z"/>
            <path class="cls-5" d="m728.47,183.23h2.56v2.16h-2.56v-2.16Zm.06,3.1h2.43v8.58h-2.43v-8.58Z"/>
            <path class="cls-5" d="m732.58,193.77l1.04-1.6c.93.67,1.91,1.02,2.71,1.02.71,0,1.02-.26,1.02-.64v-.03c0-.53-.83-.7-1.78-.99-1.2-.35-2.56-.91-2.56-2.58v-.03c0-1.74,1.41-2.72,3.14-2.72,1.09,0,2.27.37,3.2.99l-.93,1.68c-.85-.5-1.7-.8-2.32-.8s-.9.26-.9.59v.03c0,.48.82.7,1.75,1.02,1.2.4,2.59.98,2.59,2.54v.03c0,1.9-1.42,2.77-3.28,2.77-1.2,0-2.54-.4-3.68-1.3Z"/>
            <path class="cls-5" d="m741.28,183.23h2.43v6.23l2.85-3.12h2.91l-3.26,3.38,3.38,5.2h-2.82l-2.19-3.52-.86.91v2.61h-2.43v-11.68Z"/>
          </g>
        </g>
      </g>
      <line id="low_risk_line" class="cls-17" x1="70" y1="210.96" x2="70" y2="263.09"/>
      <g id="low_risk_btn" class="graph--btn" data-value="low_risk">
        <g id="active_low_risk_btn" class="active-btn">
          <rect class="cls-3" x="0" y="166.96" width="140" height="44" rx="22" ry="22"/>
          <rect class="cls-1" x="2" y="168.96" width="136" height="40" rx="20" ry="20"/>
          <g>
            <path class="cls-7" d="m38.58,183.71h1.26v10.04h6.31v1.17h-7.57v-11.2Z"/>
            <path class="cls-7" d="m47.6,190.81v-.03c0-2.34,1.82-4.32,4.32-4.32s4.31,1.95,4.31,4.29v.03c0,2.34-1.84,4.32-4.34,4.32s-4.29-1.95-4.29-4.29Zm7.36,0v-.03c0-1.78-1.33-3.23-3.07-3.23s-3.03,1.46-3.03,3.2v.03c0,1.78,1.31,3.22,3.06,3.22s3.04-1.44,3.04-3.19Z"/>
            <path class="cls-7" d="m57.35,186.64h1.31l2.18,6.64,2.23-6.67h1.02l2.24,6.67,2.18-6.64h1.28l-2.91,8.34h-1.07l-2.22-6.53-2.24,6.53h-1.09l-2.9-8.34Z"/>
            <path class="cls-7" d="m76.62,186.64h1.23v2.16c.61-1.38,1.81-2.37,3.38-2.31v1.33h-.1c-1.81,0-3.28,1.3-3.28,3.79v3.3h-1.23v-8.28Z"/>
            <path class="cls-7" d="m83.14,183.47h1.41v1.36h-1.41v-1.36Zm.08,3.17h1.23v8.28h-1.23v-8.28Z"/>
            <path class="cls-7" d="m86.62,193.85l.62-.88c.9.67,1.89,1.06,2.87,1.06s1.71-.51,1.71-1.31v-.03c0-.83-.98-1.15-2.06-1.46-1.3-.37-2.74-.82-2.74-2.34v-.03c0-1.42,1.18-2.37,2.82-2.37,1.01,0,2.13.35,2.98.91l-.56.93c-.77-.5-1.65-.8-2.45-.8-.98,0-1.6.51-1.6,1.2v.03c0,.78,1.02,1.09,2.13,1.42,1.28.38,2.66.88,2.66,2.37v.03c0,1.57-1.3,2.48-2.95,2.48-1.18,0-2.5-.46-3.43-1.22Z"/>
            <path class="cls-7" d="m95.28,183.23h1.23v8.07l4.47-4.66h1.54l-3.47,3.55,3.59,4.72h-1.47l-2.96-3.86-1.68,1.7v2.16h-1.23v-11.68Z"/>
          </g>
        </g>
        <g id="inactive_low_risk_btn" class="inactive-btn">
          <rect class="cls-4" x="0" y="166.96" width="140" height="44" rx="22" ry="22"/>
          <rect class="cls-6" x="2" y="168.96" width="136" height="40" rx="20" ry="20"/>
          <g>
            <path class="cls-5" d="m37.56,183.71h2.46v8.96h5.59v2.24h-8.05v-11.2Z"/>
            <path class="cls-5" d="m46.63,190.67v-.03c0-2.46,1.98-4.47,4.66-4.47s4.63,1.97,4.63,4.43v.03c0,2.47-1.98,4.47-4.66,4.47s-4.63-1.97-4.63-4.43Zm6.88,0v-.03c0-1.26-.91-2.37-2.26-2.37s-2.23,1.07-2.23,2.34v.03c0,1.26.91,2.37,2.26,2.37s2.23-1.07,2.23-2.34Z"/>
            <path class="cls-5" d="m56.57,186.33h2.46l1.38,5.2,1.62-5.23h2.1l1.63,5.25,1.41-5.22h2.42l-2.67,8.64h-2.19l-1.65-5.27-1.68,5.27h-2.18l-2.64-8.64Z"/>
            <path class="cls-5" d="m75.85,186.33h2.43v1.73c.5-1.18,1.3-1.95,2.74-1.89v2.55h-.13c-1.62,0-2.61.98-2.61,3.02v3.17h-2.43v-8.58Z"/>
            <path class="cls-5" d="m82.58,183.23h2.56v2.16h-2.56v-2.16Zm.06,3.1h2.43v8.58h-2.43v-8.58Z"/>
            <path class="cls-5" d="m86.7,193.77l1.04-1.6c.93.67,1.9,1.02,2.71,1.02.7,0,1.02-.26,1.02-.64v-.03c0-.53-.83-.7-1.78-.99-1.2-.35-2.56-.91-2.56-2.58v-.03c0-1.74,1.41-2.72,3.14-2.72,1.09,0,2.27.37,3.2.99l-.93,1.68c-.85-.5-1.7-.8-2.32-.8-.59,0-.9.26-.9.59v.03c0,.48.82.7,1.75,1.02,1.2.4,2.59.98,2.59,2.54v.03c0,1.9-1.42,2.77-3.28,2.77-1.2,0-2.54-.4-3.68-1.3Z"/>
            <path class="cls-5" d="m95.4,183.23h2.43v6.23l2.85-3.12h2.91l-3.27,3.38,3.38,5.2h-2.82l-2.19-3.52-.86.91v2.61h-2.43v-11.68Z"/>
          </g>
        </g>
      </g>
      <g id="features_icon">
        <g>
          <path class="cls-14" d="m485.88,20.67c0-4.03-3.27-7.3-7.3-7.3s-7.3,3.27-7.3,7.3,3.27,7.3,7.3,7.3c4.03,0,7.3-3.27,7.3-7.3Zm-12.17,0c0-2.69,2.18-4.87,4.87-4.87s4.87,2.18,4.87,4.87-2.18,4.87-4.87,4.87-4.87-2.18-4.87-4.87Z"/>
          <path class="cls-14" d="m485.88,57.2h3.65c.67,0,1.22-.55,1.22-1.22v-17.04c0-4.7-3.82-8.52-8.52-8.52h-7.3c-4.7,0-8.52,3.82-8.52,8.52v17.04c0,.67.55,1.22,1.22,1.22h3.65v15.83c0,.67.55,1.22,1.22,1.22h12.17c.67,0,1.22-.55,1.22-1.22v-15.83m-10.96-24.35h7.3c3.36,0,6.08,2.73,6.09,6.09v15.83h-2.43v-14.61h-2.43v31.65h-3.65v-17.04h-2.43v17.04h-3.65v-31.65h-2.43v14.61h-2.43v-15.83c0-3.36,2.73-6.08,6.09-6.09Z"/>
        </g>
        <g>
          <path class="cls-14" d="m457.36,20.67c0-4.03-3.27-7.3-7.3-7.3s-7.3,3.27-7.3,7.3,3.27,7.3,7.3,7.3c4.03,0,7.3-3.27,7.3-7.3Zm-12.17,0c0-2.69,2.18-4.87,4.87-4.87s4.87,2.18,4.87,4.87-2.18,4.87-4.87,4.87-4.87-2.18-4.87-4.87Z"/>
          <path class="cls-14" d="m457.36,57.2h3.65c.67,0,1.22-.55,1.22-1.22v-17.04c0-4.7-3.82-8.52-8.52-8.52h-7.3c-4.7,0-8.52,3.82-8.52,8.52v17.04c0,.67.55,1.22,1.22,1.22h3.65v15.83c0,.67.55,1.22,1.22,1.22h12.17c.67,0,1.22-.55,1.22-1.22v-15.83m-10.96-24.35h7.3c3.36,0,6.08,2.73,6.09,6.09v15.83h-2.43v-14.61h-2.43v31.65h-3.65v-17.04h-2.43v17.04h-3.65v-31.65h-2.43v14.61h-2.43v-15.83c0-3.36,2.73-6.08,6.09-6.09Z"/>
        </g>
        <g>
          <path class="cls-14" d="m428.84,20.67c0-4.03-3.27-7.3-7.3-7.3s-7.3,3.27-7.3,7.3,3.27,7.3,7.3,7.3c4.03,0,7.3-3.27,7.3-7.3Zm-12.17,0c0-2.69,2.18-4.87,4.87-4.87s4.87,2.18,4.87,4.87-2.18,4.87-4.87,4.87-4.87-2.18-4.87-4.87Z"/>
          <path class="cls-14" d="m428.84,57.2h3.65c.67,0,1.22-.55,1.22-1.22v-17.04c0-4.7-3.82-8.52-8.52-8.52h-7.3c-4.7,0-8.52,3.82-8.52,8.52v17.04c0,.67.55,1.22,1.22,1.22h3.65v15.83c0,.67.55,1.22,1.22,1.22h12.17c.67,0,1.22-.55,1.22-1.22v-15.83m-10.96-24.35h7.3c3.36,0,6.08,2.73,6.09,6.09v15.83h-2.43v-14.61h-2.43v31.65h-3.65v-17.04h-2.43v17.04h-3.65v-31.65h-2.43v14.61h-2.43v-15.83c0-3.36,2.73-6.08,6.09-6.09Z"/>
        </g>
        <g>
          <path class="cls-12" d="m400.32,20.67c0-4.03-3.27-7.3-7.3-7.3s-7.3,3.27-7.3,7.3,3.27,7.3,7.3,7.3c4.03,0,7.3-3.27,7.3-7.3Zm-12.17,0c0-2.69,2.18-4.87,4.87-4.87s4.87,2.18,4.87,4.87-2.18,4.87-4.87,4.87-4.87-2.18-4.87-4.87Z"/>
          <path class="cls-12" d="m400.32,57.2h3.65c.67,0,1.22-.55,1.22-1.22v-17.04c0-4.7-3.82-8.52-8.52-8.52h-7.3c-4.7,0-8.52,3.82-8.52,8.52v17.04c0,.67.55,1.22,1.22,1.22h3.65v15.83c0,.67.55,1.22,1.22,1.22h12.17c.67,0,1.22-.55,1.22-1.22v-15.83m-10.96-24.35h7.3c3.36,0,6.08,2.73,6.09,6.09v15.83h-2.43v-14.61h-2.43v31.65h-3.65v-17.04h-2.43v17.04h-3.65v-31.65h-2.43v14.61h-2.43v-15.83c0-3.36,2.73-6.08,6.09-6.09Z"/>
        </g>
        <g>
          <path class="cls-14" d="m371.8,20.67c0-4.03-3.27-7.3-7.3-7.3s-7.3,3.27-7.3,7.3,3.27,7.3,7.3,7.3c4.03,0,7.3-3.27,7.3-7.3Zm-12.17,0c0-2.69,2.18-4.87,4.87-4.87s4.87,2.18,4.87,4.87-2.18,4.87-4.87,4.87-4.87-2.18-4.87-4.87Z"/>
          <path class="cls-14" d="m371.8,57.2h3.65c.67,0,1.22-.55,1.22-1.22v-17.04c0-4.7-3.82-8.52-8.52-8.52h-7.3c-4.7,0-8.52,3.82-8.52,8.52v17.04c0,.67.55,1.22,1.22,1.22h3.65v15.83c0,.67.55,1.22,1.22,1.22h12.17c.67,0,1.22-.55,1.22-1.22v-15.83m-10.96-24.35h7.3c3.36,0,6.08,2.73,6.09,6.09v15.83h-2.43v-14.61h-2.43v31.65h-3.65v-17.04h-2.43v17.04h-3.65v-31.65h-2.43v14.61h-2.43v-15.83c0-3.36,2.73-6.08,6.09-6.09Z"/>
        </g>
        <g>
          <path class="cls-14" d="m343.29,20.67c0-4.03-3.27-7.3-7.3-7.3s-7.3,3.27-7.3,7.3,3.27,7.3,7.3,7.3c4.03,0,7.3-3.27,7.3-7.3Zm-12.17,0c0-2.69,2.18-4.87,4.87-4.87s4.87,2.18,4.87,4.87-2.18,4.87-4.87,4.87-4.87-2.18-4.87-4.87Z"/>
          <path class="cls-14" d="m343.29,57.2h3.65c.67,0,1.22-.55,1.22-1.22v-17.04c0-4.7-3.82-8.52-8.52-8.52h-7.3c-4.7,0-8.52,3.82-8.52,8.52v17.04c0,.67.55,1.22,1.22,1.22h3.65v15.83c0,.67.55,1.22,1.22,1.22h12.17c.67,0,1.22-.55,1.22-1.22v-15.83m-10.96-24.35h7.3c3.36,0,6.08,2.73,6.09,6.09v15.83h-2.43v-14.61h-2.43v31.65h-3.65v-17.04h-2.43v17.04h-3.65v-31.65h-2.43v14.61h-2.43v-15.83c0-3.36,2.73-6.08,6.09-6.09Z"/>
        </g>
        <g>
          <path class="cls-14" d="m314.77,20.67c0-4.03-3.27-7.3-7.3-7.3s-7.3,3.27-7.3,7.3,3.27,7.3,7.3,7.3c4.03,0,7.3-3.27,7.3-7.3Zm-12.17,0c0-2.69,2.18-4.87,4.87-4.87s4.87,2.18,4.87,4.87-2.18,4.87-4.87,4.87-4.87-2.18-4.87-4.87Z"/>
          <path class="cls-14" d="m314.77,57.2h3.65c.67,0,1.22-.55,1.22-1.22v-17.04c0-4.7-3.82-8.52-8.52-8.52h-7.3c-4.7,0-8.52,3.82-8.52,8.52v17.04c0,.67.55,1.22,1.22,1.22h3.65v15.83c0,.67.55,1.22,1.22,1.22h12.17c.67,0,1.22-.55,1.22-1.22v-15.83m-10.96-24.35h7.3c3.36,0,6.08,2.73,6.09,6.09v15.83h-2.43v-14.61h-2.43v31.65h-3.65v-17.04h-2.43v17.04h-3.65v-31.65h-2.43v14.61h-2.43v-15.83c0-3.36,2.73-6.08,6.09-6.09Z"/>
        </g>
        <g>
          <path class="cls-12" d="m393.41,0c-24.11,0-43.72,19.61-43.72,43.72,0,24.11,19.61,43.72,43.72,43.72,9.75,0,18.76-3.21,26.03-8.62l4.43,4.43-.41.41c-.68.68-.68,1.79,0,2.47l30.69,30.69c1.65,1.65,3.85,2.56,6.18,2.56s4.53-.91,6.18-2.56c1.65-1.65,2.56-3.85,2.56-6.18s-.91-4.53-2.56-6.18l-30.69-30.69c-.33-.33-.77-.51-1.24-.51s-.91.18-1.24.51l-.41.41-4.43-4.43c5.41-7.28,8.62-16.29,8.62-26.04,0-24.11-19.61-43.72-43.72-43.72h0Zm38.71,89.86l7.42-7.42,24.5,24.5c.99.99,1.54,2.31,1.54,3.71s-.55,2.72-1.54,3.71c-.99.99-2.31,1.54-3.71,1.54-1.4,0-2.72-.55-3.71-1.54l-24.5-24.5Zm-4.95-4.95s.41-.41.41-.41c0,0,6.59-6.59,6.59-6.6l.41-.41,2.47,2.47-7.42,7.42-2.47-2.47Zm-5-8.29c1.46-1.28,2.84-2.66,4.12-4.12l4.17,4.17-4.12,4.12-4.17-4.17Zm-28.77,7.33c-22.18,0-40.23-18.05-40.23-40.23,0-22.18,18.04-40.23,40.23-40.23,22.18,0,40.23,18.05,40.23,40.23,0,22.18-18.05,40.23-40.23,40.23h0Z"/>
          <path class="cls-12" d="m393.41,7c-20.25,0-36.73,16.48-36.73,36.73,0,20.25,16.48,36.73,36.73,36.73,20.25,0,36.73-16.48,36.73-36.73,0-8.44-2.95-16.69-8.3-23.23-.61-.75-1.71-.86-2.46-.25-.75.61-.86,1.71-.25,2.46,4.84,5.92,7.51,13.38,7.51,21.02,0,18.32-14.91,33.23-33.23,33.23-18.32,0-33.23-14.91-33.23-33.23,0-18.32,14.91-33.23,33.23-33.23,7.64,0,15.1,2.67,21.02,7.51.75.61,1.85.5,2.46-.25.61-.75.5-1.85-.25-2.46-6.54-5.35-14.79-8.3-23.23-8.3h0Z"/>
        </g>
      </g>
    </g>
  </g>
</svg>