<?xml version="1.0" encoding="UTF-8"?>
<svg id="rohan_flare_svg" data-name="rohan_flare_svg" xmlns="http://www.w3.org/2000/svg" xmlns:xlink="http://www.w3.org/1999/xlink" viewBox="0 0 538.72 205.76">
  <defs>
    <style>
      .cls-1 {
        fill: #e0e1e0;
      }

      .cls-1, .cls-2, .cls-3, .cls-4, .cls-5, .cls-6, .cls-7, .cls-8 {
        stroke-width: 0px;
      }

      .cls-2 {
        fill: url(#linear-gradient);
      }

      .cls-3, .cls-9, .cls-10, .cls-11 {
        fill: none;
      }

      .cls-9, .cls-10 {
        stroke: #9d5b8f;
        stroke-linecap: round;
        stroke-linejoin: round;
        stroke-width: 4px;
      }

      .cls-4 {
        fill: #d24230;
      }

      .cls-5 {
        fill: #fff;
      }

      .cls-6 {
        fill: url(#linear-gradient-2);
      }

      .cls-7 {
        fill: #231f20;
      }

      .cls-10 {
        stroke-dasharray: 0 0 0 6.63;
      }

      .cls-8 {
        fill: #872780;
      }

      .cls-11 {
        stroke: #808b86;
        stroke-miterlimit: 10;
        stroke-width: 2px;
      }
    </style>
    <linearGradient id="linear-gradient" x1="453.45" y1="59.95" x2="453.45" y2="102.85" gradientUnits="userSpaceOnUse">
      <stop offset="0" stop-color="#bebdbd"/>
      <stop offset="1" stop-color="#fff"/>
    </linearGradient>
    <linearGradient id="linear-gradient-2" x1="453.45" y1="61.93" x2="453.45" y2="100.92" gradientUnits="userSpaceOnUse">
      <stop offset="0" stop-color="#872780"/>
      <stop offset=".2" stop-color="#9b2e69"/>
      <stop offset=".53" stop-color="#b9394a"/>
      <stop offset=".81" stop-color="#cb3f36"/>
      <stop offset="1" stop-color="#d24230"/>
    </linearGradient>
  </defs>
  <g id="rohan_svg_desktop">
    <g id="rohan_flare">
      <line id="timeline" class="cls-11" x1="522.8" y1="80.99" x2="38.25" y2="80.99"/>
      <g id="october_text">
        <g id="serve_flare_text">
          <path class="cls-8" d="m379.09,147.03h5.42c1.55,0,2.79.47,3.58,1.26.61.61.97,1.5.97,2.49v.04c0,2.09-1.44,3.31-3.42,3.67l3.87,5.15h-1.75l-3.65-4.9h-3.6v4.9h-1.42v-12.6Zm5.29,6.43c1.89,0,3.24-.97,3.24-2.59v-.04c0-1.55-1.19-2.48-3.22-2.48h-3.89v5.11h3.87Z"/>
          <path class="cls-8" d="m391.11,155.02v-.04c0-2.63,2.05-4.86,4.86-4.86s4.84,2.2,4.84,4.82v.04c0,2.63-2.07,4.86-4.88,4.86s-4.83-2.2-4.83-4.83Zm8.28,0v-.04c0-2-1.49-3.64-3.46-3.64s-3.4,1.64-3.4,3.6v.04c0,2,1.48,3.62,3.44,3.62s3.42-1.62,3.42-3.58Z"/>
          <path class="cls-8" d="m403.32,146.49h1.39v5.46c.61-1.01,1.58-1.82,3.19-1.82,2.25,0,3.56,1.51,3.56,3.73v5.78h-1.39v-5.44c0-1.73-.94-2.81-2.57-2.81s-2.79,1.17-2.79,2.92v5.33h-1.39v-13.14Z"/>
          <path class="cls-8" d="m413.7,156.93v-.04c0-1.96,1.62-3.01,3.98-3.01,1.19,0,2.03.16,2.86.4v-.32c0-1.67-1.03-2.54-2.77-2.54-1.1,0-1.96.29-2.83.68l-.41-1.13c1.03-.47,2.03-.77,3.39-.77s2.32.34,3.01,1.03c.63.63.95,1.53.95,2.72v5.69h-1.33v-1.4c-.65.85-1.73,1.6-3.37,1.6-1.73,0-3.48-.99-3.48-2.9Zm6.86-.72v-.9c-.68-.2-1.6-.4-2.74-.4-1.75,0-2.72.76-2.72,1.93v.04c0,1.17,1.08,1.85,2.34,1.85,1.71,0,3.11-1.04,3.11-2.52Z"/>
          <path class="cls-8" d="m424.83,150.32h1.39v1.62c.61-1.01,1.58-1.82,3.19-1.82,2.25,0,3.56,1.51,3.56,3.73v5.78h-1.39v-5.44c0-1.73-.94-2.81-2.57-2.81s-2.79,1.17-2.79,2.92v5.33h-1.39v-9.31Z"/>
          <path class="cls-8" d="m441.31,150.32h1.39v1.87c.76-1.12,1.85-2.07,3.56-2.07,2.23,0,4.45,1.76,4.45,4.82v.04c0,3.04-2.2,4.84-4.45,4.84-1.73,0-2.84-.94-3.56-1.98v4.66h-1.39v-12.19Zm7.98,4.68v-.04c0-2.2-1.51-3.6-3.28-3.6s-3.37,1.46-3.37,3.58v.04c0,2.16,1.64,3.6,3.37,3.6s3.28-1.33,3.28-3.58Z"/>
          <path class="cls-8" d="m453.27,150.32h1.39v2.43c.68-1.55,2.03-2.67,3.8-2.59v1.49h-.11c-2.03,0-3.69,1.46-3.69,4.27v3.71h-1.39v-9.31Z"/>
          <path class="cls-8" d="m459.58,155v-.04c0-2.68,1.89-4.84,4.47-4.84,2.75,0,4.34,2.2,4.34,4.91,0,.18,0,.29-.02.45h-7.38c.2,2.02,1.62,3.15,3.28,3.15,1.28,0,2.18-.52,2.93-1.31l.86.78c-.94,1.04-2.07,1.75-3.83,1.75-2.56,0-4.65-1.96-4.65-4.84Zm7.4-.54c-.14-1.69-1.12-3.17-2.97-3.17-1.62,0-2.85,1.35-3.03,3.17h6Z"/>
          <path class="cls-8" d="m470.04,158.44l.7-.99c1.01.76,2.12,1.19,3.22,1.19s1.93-.58,1.93-1.48v-.04c0-.94-1.1-1.3-2.32-1.64-1.46-.41-3.08-.92-3.08-2.63v-.04c0-1.6,1.33-2.67,3.17-2.67,1.13,0,2.39.4,3.35,1.03l-.63,1.04c-.86-.56-1.85-.9-2.75-.9-1.1,0-1.8.58-1.8,1.35v.04c0,.88,1.15,1.22,2.4,1.6,1.44.43,2.99.99,2.99,2.66v.04c0,1.76-1.46,2.79-3.31,2.79-1.33,0-2.81-.52-3.85-1.37Z"/>
          <path class="cls-8" d="m479.2,155v-.04c0-2.68,1.89-4.84,4.47-4.84,2.75,0,4.34,2.2,4.34,4.91,0,.18,0,.29-.02.45h-7.38c.2,2.02,1.62,3.15,3.28,3.15,1.28,0,2.18-.52,2.93-1.31l.86.78c-.94,1.04-2.07,1.75-3.83,1.75-2.56,0-4.65-1.96-4.65-4.84Zm7.4-.54c-.14-1.69-1.12-3.17-2.97-3.17-1.62,0-2.84,1.35-3.02,3.17h6Z"/>
          <path class="cls-8" d="m490.44,150.32h1.39v1.62c.61-1.01,1.58-1.82,3.19-1.82,2.25,0,3.57,1.51,3.57,3.73v5.78h-1.39v-5.44c0-1.73-.94-2.81-2.57-2.81s-2.79,1.17-2.79,2.92v5.33h-1.39v-9.31Z"/>
          <path class="cls-8" d="m502.01,157.16v-5.62h-1.3v-1.22h1.3v-2.81h1.39v2.81h2.95v1.22h-2.95v5.44c0,1.13.63,1.55,1.57,1.55.47,0,.86-.09,1.35-.32v1.19c-.49.25-1.01.4-1.67.4-1.49,0-2.63-.74-2.63-2.63Z"/>
          <path class="cls-8" d="m507.95,155v-.04c0-2.68,1.89-4.84,4.47-4.84,2.75,0,4.34,2.2,4.34,4.91,0,.18,0,.29-.02.45h-7.38c.2,2.02,1.62,3.15,3.28,3.15,1.28,0,2.18-.52,2.93-1.31l.86.78c-.94,1.04-2.07,1.75-3.83,1.75-2.56,0-4.65-1.96-4.65-4.84Zm7.4-.54c-.14-1.69-1.12-3.17-2.97-3.17-1.62,0-2.85,1.35-3.03,3.17h6Z"/>
          <path class="cls-8" d="m518.64,155v-.04c0-3.04,2.21-4.84,4.45-4.84,1.73,0,2.84.94,3.56,1.98v-5.62h1.39v13.14h-1.39v-1.87c-.76,1.12-1.85,2.07-3.56,2.07-2.23,0-4.45-1.77-4.45-4.83Zm8.07-.02v-.04c0-2.14-1.64-3.58-3.37-3.58s-3.28,1.33-3.28,3.58v.04c0,2.2,1.51,3.6,3.28,3.6s3.37-1.46,3.37-3.6Z"/>
          <path class="cls-8" d="m394.69,171.92h1.48l2.45,7.47,2.5-7.51h1.15l2.52,7.51,2.45-7.47h1.44l-3.28,9.38h-1.21l-2.5-7.35-2.52,7.35h-1.22l-3.26-9.38Z"/>
          <path class="cls-8" d="m411.02,168.36h1.58v1.53h-1.58v-1.53Zm.09,3.57h1.39v9.31h-1.39v-9.31Z"/>
          <path class="cls-8" d="m416.2,178.76v-5.62h-1.3v-1.22h1.3v-2.81h1.39v2.81h2.95v1.22h-2.95v5.44c0,1.13.63,1.55,1.57,1.55.47,0,.86-.09,1.35-.32v1.19c-.49.25-1.01.4-1.67.4-1.49,0-2.63-.74-2.63-2.63Z"/>
          <path class="cls-8" d="m422.99,168.09h1.39v5.46c.61-1.01,1.58-1.82,3.19-1.82,2.25,0,3.56,1.51,3.56,3.73v5.78h-1.39v-5.44c0-1.73-.94-2.81-2.57-2.81s-2.79,1.17-2.79,2.92v5.33h-1.39v-13.14Z"/>
          <path class="cls-8" d="m438.78,178.53v-.04c0-1.96,1.62-3.01,3.98-3.01,1.19,0,2.03.16,2.86.4v-.32c0-1.67-1.03-2.54-2.77-2.54-1.1,0-1.96.29-2.83.68l-.41-1.13c1.03-.47,2.03-.78,3.39-.78s2.32.34,3.01,1.03c.63.63.95,1.53.95,2.72v5.69h-1.33v-1.4c-.65.85-1.73,1.6-3.37,1.6-1.73,0-3.48-.99-3.48-2.9Zm6.86-.72v-.9c-.68-.2-1.6-.4-2.74-.4-1.75,0-2.72.76-2.72,1.93v.04c0,1.17,1.08,1.86,2.34,1.86,1.71,0,3.12-1.04,3.12-2.52Z"/>
          <path class="cls-8" d="m454.22,179.95l1.17-1.8c1.04.76,2.14,1.15,3.04,1.15.79,0,1.15-.29,1.15-.72v-.04c0-.59-.94-.79-2-1.12-1.35-.4-2.88-1.03-2.88-2.9v-.04c0-1.96,1.58-3.06,3.53-3.06,1.22,0,2.56.41,3.6,1.12l-1.04,1.89c-.95-.56-1.91-.9-2.61-.9-.67,0-1.01.29-1.01.67v.04c0,.54.92.79,1.96,1.15,1.35.45,2.92,1.1,2.92,2.86v.04c0,2.14-1.6,3.12-3.69,3.12-1.35,0-2.86-.45-4.14-1.46Z"/>
          <path class="cls-8" d="m463.54,176.46v-.04c0-2.75,1.96-5.02,4.77-5.02,3.22,0,4.7,2.5,4.7,5.24,0,.22-.02.47-.04.72h-6.72c.27,1.24,1.13,1.89,2.36,1.89.92,0,1.58-.29,2.34-.99l1.57,1.39c-.9,1.12-2.2,1.8-3.94,1.8-2.9,0-5.04-2.03-5.04-4.99Zm6.81-.81c-.16-1.22-.88-2.05-2.03-2.05s-1.87.81-2.09,2.05h4.12Z"/>
          <path class="cls-8" d="m473.73,171.58h2.9l2.16,6.46,2.18-6.46h2.85l-3.8,9.72h-2.48l-3.8-9.72Z"/>
          <path class="cls-8" d="m484.39,176.46v-.04c0-2.75,1.96-5.02,4.77-5.02,3.22,0,4.7,2.5,4.7,5.24,0,.22-.02.47-.04.72h-6.72c.27,1.24,1.13,1.89,2.36,1.89.92,0,1.58-.29,2.34-.99l1.57,1.39c-.9,1.12-2.2,1.8-3.94,1.8-2.9,0-5.04-2.03-5.04-4.99Zm6.81-.81c-.16-1.22-.88-2.05-2.03-2.05s-1.87.81-2.09,2.05h4.12Z"/>
          <path class="cls-8" d="m495.89,171.58h2.74v1.94c.56-1.33,1.46-2.2,3.08-2.12v2.86h-.14c-1.82,0-2.93,1.1-2.93,3.4v3.57h-2.74v-9.65Z"/>
          <path class="cls-8" d="m502.68,176.46v-.04c0-2.75,1.96-5.02,4.77-5.02,3.22,0,4.7,2.5,4.7,5.24,0,.22-.02.47-.04.72h-6.72c.27,1.24,1.13,1.89,2.36,1.89.92,0,1.58-.29,2.34-.99l1.57,1.39c-.9,1.12-2.2,1.8-3.94,1.8-2.9,0-5.04-2.03-5.04-4.99Zm6.81-.81c-.16-1.22-.88-2.05-2.03-2.05s-1.87.81-2.09,2.05h4.12Z"/>
          <path class="cls-8" d="m434.51,195.52h-1.13v-2.25h1.13v-.61c0-1.06.27-1.84.77-2.34.5-.5,1.24-.76,2.21-.76.86,0,1.44.11,1.94.27v2.27c-.4-.14-.77-.23-1.24-.23-.63,0-.99.32-.99,1.04v.38h2.21v2.23h-2.18v7.31h-2.74v-7.31Zm6.54-5.83h2.74v13.14h-2.74v-13.14Z"/>
          <path class="cls-8" d="m445.78,200.06v-.04c0-2.11,1.6-3.08,3.89-3.08.97,0,1.67.16,2.36.4v-.16c0-1.13-.7-1.76-2.07-1.76-1.04,0-1.78.2-2.66.52l-.68-2.09c1.06-.47,2.11-.78,3.75-.78,1.49,0,2.57.4,3.26,1.08.72.72,1.04,1.78,1.04,3.08v5.6h-2.65v-1.04c-.67.74-1.58,1.22-2.92,1.22-1.82,0-3.31-1.04-3.31-2.95Zm6.28-.63v-.48c-.47-.22-1.08-.36-1.75-.36-1.17,0-1.89.47-1.89,1.33v.04c0,.74.61,1.17,1.49,1.17,1.28,0,2.14-.7,2.14-1.69Z"/>
          <path class="cls-8" d="m457.01,193.18h2.74v1.94c.56-1.33,1.46-2.2,3.08-2.12v2.86h-.14c-1.82,0-2.93,1.1-2.93,3.4v3.57h-2.74v-9.65Z"/>
          <path class="cls-8" d="m463.8,198.06v-.04c0-2.75,1.96-5.02,4.77-5.02,3.22,0,4.7,2.5,4.7,5.24,0,.22-.02.47-.04.72h-6.72c.27,1.24,1.13,1.89,2.36,1.89.92,0,1.58-.29,2.34-.99l1.57,1.39c-.9,1.12-2.2,1.8-3.94,1.8-2.9,0-5.04-2.03-5.04-4.99Zm6.81-.81c-.16-1.22-.88-2.05-2.03-2.05s-1.87.81-2.09,2.05h4.12Z"/>
        </g>
        <g>
          <line class="cls-9" x1="453.45" y1="108.79" x2="453.45" y2="108.79"/>
          <line class="cls-10" x1="453.45" y1="115.42" x2="453.45" y2="131.99"/>
          <line class="cls-9" x1="453.45" y1="135.3" x2="453.45" y2="135.3"/>
        </g>
      </g>
      <g id="flare_btn" data-name="flare_october_2021" class="timeline--btn">
        <rect class="cls-3" x="368.18" y="49.91" width="170.54" height="63.55"/>
        <rect class="cls-2" x="383.45" y="59.69" width="140" height="44" rx="22" ry="22"/>
        <rect class="cls-6 tooltip" title="Click here" x="385.45" y="61.69" width="136" height="40" rx="20" ry="20"/>
        <g>
          <path class="cls-5" d="m399.26,82.07v-.03c0-3.19,2.51-5.79,5.97-5.79s5.94,2.58,5.94,5.76v.03c0,3.19-2.51,5.79-5.97,5.79s-5.94-2.58-5.94-5.76Zm9.33,0v-.03c0-1.92-1.41-3.52-3.39-3.52s-3.36,1.57-3.36,3.49v.03c0,1.92,1.41,3.52,3.39,3.52s3.36-1.57,3.36-3.49Z"/>
          <path class="cls-5" d="m412.69,83.39v-.03c0-2.45,1.87-4.46,4.5-4.46,1.62,0,2.62.54,3.43,1.44l-1.49,1.6c-.54-.58-1.09-.94-1.95-.94-1.22,0-2.08,1.07-2.08,2.34v.03c0,1.31.85,2.37,2.18,2.37.82,0,1.38-.35,1.97-.91l1.42,1.44c-.83.91-1.79,1.57-3.51,1.57-2.58,0-4.47-1.98-4.47-4.43Z"/>
          <path class="cls-5" d="m422.64,85.2v-4.07h-1.02v-2.08h1.02v-2.19h2.43v2.19h2.02v2.08h-2.02v3.67c0,.56.24.83.78.83.45,0,.85-.11,1.2-.3v1.95c-.51.3-1.1.5-1.92.5-1.49,0-2.5-.59-2.5-2.58Z"/>
          <path class="cls-5" d="m428.22,83.39v-.03c0-2.46,1.98-4.46,4.66-4.46s4.63,1.97,4.63,4.43v.03c0,2.47-1.98,4.47-4.66,4.47s-4.63-1.97-4.63-4.43Zm6.88,0v-.03c0-1.26-.91-2.37-2.26-2.37s-2.23,1.07-2.23,2.34v.03c0,1.27.91,2.37,2.26,2.37s2.23-1.07,2.23-2.34Z"/>
          <path class="cls-5" d="m441.7,86.52v1.12h-2.43v-11.68h2.43v4.34c.59-.8,1.41-1.39,2.67-1.39,2,0,3.91,1.57,3.91,4.43v.03c0,2.87-1.87,4.43-3.91,4.43-1.3,0-2.1-.59-2.67-1.28Zm4.15-3.15v-.03c0-1.42-.96-2.37-2.1-2.37s-2.08.94-2.08,2.37v.03c0,1.43.94,2.37,2.08,2.37s2.1-.93,2.1-2.37Z"/>
          <path class="cls-5" d="m449.65,83.39v-.03c0-2.45,1.74-4.46,4.24-4.46,2.87,0,4.18,2.22,4.18,4.66,0,.19-.02.42-.03.64h-5.97c.24,1.1,1.01,1.68,2.1,1.68.82,0,1.41-.26,2.08-.88l1.39,1.23c-.8.99-1.95,1.6-3.51,1.6-2.58,0-4.48-1.81-4.48-4.43Zm6.05-.72c-.14-1.09-.78-1.82-1.81-1.82s-1.66.72-1.86,1.82h3.67Z"/>
          <path class="cls-5" d="m459.87,79.06h2.43v1.73c.5-1.18,1.3-1.95,2.74-1.89v2.54h-.13c-1.62,0-2.61.98-2.61,3.03v3.17h-2.43v-8.58Z"/>
          <path class="cls-5" d="m471.05,85.68l3.73-3.06c1.39-1.15,1.94-1.76,1.94-2.69s-.62-1.46-1.5-1.46-1.46.48-2.29,1.5l-1.73-1.39c1.1-1.5,2.18-2.32,4.18-2.32,2.32,0,3.86,1.36,3.86,3.46v.03c0,1.87-.96,2.8-2.94,4.34l-1.82,1.41h4.88v2.13h-8.29v-1.95Z"/>
          <path class="cls-5" d="m481.1,82.07v-.03c0-3.25,2.02-5.79,4.99-5.79s4.96,2.51,4.96,5.76v.03c0,3.25-2,5.79-4.99,5.79s-4.96-2.51-4.96-5.76Zm7.43,0v-.03c0-2.03-.99-3.57-2.47-3.57s-2.43,1.49-2.43,3.54v.03c0,2.05.98,3.57,2.46,3.57s2.43-1.51,2.43-3.54Z"/>
          <path class="cls-5" d="m492.54,85.68l3.73-3.06c1.39-1.15,1.94-1.76,1.94-2.69s-.62-1.46-1.5-1.46-1.46.48-2.29,1.5l-1.73-1.39c1.1-1.5,2.18-2.32,4.18-2.32,2.32,0,3.86,1.36,3.86,3.46v.03c0,1.87-.96,2.8-2.95,4.34l-1.82,1.41h4.88v2.13h-8.29v-1.95Z"/>
          <path class="cls-5" d="m504.57,78.85l-1.95.48-.51-2.02,3.22-.96h1.68v11.28h-2.43v-8.79Z"/>
        </g>
      </g>
      <g id="june_text">
        <g id="diagnosis_text">
          <path class="cls-7" d="m20.93,147.03h4.92c3.96,0,6.7,2.72,6.7,6.27v.04c0,3.55-2.74,6.3-6.7,6.3h-4.92v-12.6Zm2.77,2.5v7.6h2.14c2.27,0,3.8-1.53,3.8-3.76v-.04c0-2.23-1.53-3.8-3.8-3.8h-2.14Z"/>
          <path class="cls-7" d="m34.78,146.49h2.88v2.43h-2.88v-2.43Zm.07,3.49h2.74v9.65h-2.74v-9.65Z"/>
          <path class="cls-7" d="m39.58,156.86v-.04c0-2.11,1.6-3.08,3.89-3.08.97,0,1.67.16,2.36.4v-.16c0-1.13-.7-1.76-2.07-1.76-1.04,0-1.78.2-2.66.52l-.68-2.09c1.06-.47,2.11-.77,3.75-.77,1.49,0,2.57.4,3.26,1.08.72.72,1.04,1.78,1.04,3.08v5.6h-2.65v-1.04c-.67.74-1.58,1.22-2.92,1.22-1.82,0-3.31-1.04-3.31-2.95Zm6.28-.63v-.49c-.47-.22-1.08-.36-1.75-.36-1.17,0-1.89.47-1.89,1.33v.04c0,.74.61,1.17,1.49,1.17,1.28,0,2.14-.7,2.14-1.69Z"/>
          <path class="cls-7" d="m50.87,161.54l.94-2.05c.99.56,1.98.88,3.26.88,1.87,0,2.75-.9,2.75-2.63v-.47c-.81.97-1.69,1.57-3.15,1.57-2.25,0-4.29-1.64-4.29-4.5v-.04c0-2.88,2.07-4.5,4.29-4.5,1.49,0,2.38.63,3.11,1.44v-1.26h2.74v7.47c0,1.73-.41,2.99-1.22,3.8-.9.9-2.29,1.3-4.16,1.3-1.57,0-3.04-.36-4.27-1.01Zm6.95-7.2v-.04c0-1.31-1.03-2.23-2.36-2.23s-2.34.92-2.34,2.23v.04c0,1.33,1.01,2.23,2.34,2.23s2.36-.92,2.36-2.23Z"/>
          <path class="cls-7" d="m62.96,149.98h2.74v1.37c.63-.81,1.44-1.55,2.83-1.55,2.07,0,3.28,1.37,3.28,3.58v6.25h-2.74v-5.38c0-1.3-.61-1.96-1.66-1.96s-1.71.67-1.71,1.96v5.38h-2.74v-9.65Z"/>
          <path class="cls-7" d="m73.71,154.86v-.04c0-2.77,2.23-5.02,5.24-5.02s5.2,2.21,5.2,4.99v.04c0,2.77-2.23,5.02-5.24,5.02s-5.2-2.21-5.2-4.99Zm7.74,0v-.04c0-1.42-1.03-2.67-2.54-2.67s-2.5,1.21-2.5,2.63v.04c0,1.42,1.03,2.67,2.54,2.67s2.5-1.21,2.5-2.63Z"/>
          <path class="cls-7" d="m85.37,158.35l1.17-1.8c1.04.76,2.14,1.15,3.04,1.15.79,0,1.15-.29,1.15-.72v-.04c0-.59-.94-.79-2-1.12-1.35-.4-2.88-1.03-2.88-2.9v-.04c0-1.96,1.58-3.06,3.53-3.06,1.22,0,2.56.41,3.6,1.12l-1.04,1.89c-.95-.56-1.91-.9-2.61-.9-.67,0-1.01.29-1.01.67v.04c0,.54.92.79,1.96,1.15,1.35.45,2.92,1.1,2.92,2.86v.04c0,2.14-1.6,3.11-3.69,3.11-1.35,0-2.86-.45-4.14-1.46Z"/>
          <path class="cls-7" d="m95.22,146.49h2.88v2.43h-2.88v-2.43Zm.07,3.49h2.74v9.65h-2.74v-9.65Z"/>
          <path class="cls-7" d="m99.84,158.35l1.17-1.8c1.04.76,2.14,1.15,3.04,1.15.79,0,1.15-.29,1.15-.72v-.04c0-.59-.94-.79-2-1.12-1.35-.4-2.88-1.03-2.88-2.9v-.04c0-1.96,1.58-3.06,3.53-3.06,1.22,0,2.56.41,3.6,1.12l-1.04,1.89c-.95-.56-1.91-.9-2.61-.9-.67,0-1.01.29-1.01.67v.04c0,.54.92.79,1.96,1.15,1.35.45,2.92,1.1,2.92,2.86v.04c0,2.14-1.6,3.11-3.69,3.11-1.35,0-2.86-.45-4.14-1.46Z"/>
          <path class="cls-7" d="m114.57,154.86v-.04c0-2.77,2.23-5.02,5.24-5.02s5.2,2.21,5.2,4.99v.04c0,2.77-2.23,5.02-5.24,5.02s-5.2-2.21-5.2-4.99Zm7.74,0v-.04c0-1.42-1.03-2.67-2.54-2.67s-2.5,1.21-2.5,2.63v.04c0,1.42,1.03,2.67,2.54,2.67s2.5-1.21,2.5-2.63Z"/>
          <path class="cls-7" d="m127.46,152.32h-1.13v-2.25h1.13v-.61c0-1.06.27-1.84.77-2.34.5-.5,1.24-.76,2.21-.76.86,0,1.44.11,1.94.27v2.27c-.4-.14-.77-.23-1.24-.23-.63,0-.99.32-.99,1.04v.38h2.21v2.23h-2.18v7.31h-2.74v-7.31Z"/>
          <path class="cls-7" d="m7.53,168.09h2.88v2.43h-2.88v-2.43Zm.07,3.49h2.74v9.65h-2.74v-9.65Z"/>
          <path class="cls-7" d="m13.04,168.09h2.74v13.14h-2.74v-13.14Z"/>
          <path class="cls-7" d="m17.88,176.46v-.04c0-2.75,1.96-5.02,4.77-5.02,3.22,0,4.7,2.5,4.7,5.24,0,.22-.02.47-.04.72h-6.72c.27,1.24,1.13,1.89,2.36,1.89.92,0,1.58-.29,2.34-.99l1.57,1.39c-.9,1.12-2.2,1.8-3.94,1.8-2.9,0-5.04-2.03-5.04-4.99Zm6.81-.81c-.16-1.22-.88-2.05-2.03-2.05s-1.87.81-2.09,2.05h4.12Z"/>
          <path class="cls-7" d="m28.92,176.46v-.04c0-2.77,2.23-5.02,5.24-5.02s5.2,2.21,5.2,4.99v.04c0,2.77-2.23,5.02-5.24,5.02s-5.2-2.21-5.2-4.99Zm7.74,0v-.04c0-1.42-1.03-2.67-2.54-2.67s-2.5,1.21-2.5,2.63v.04c0,1.42,1.03,2.67,2.54,2.67s2.5-1.21,2.5-2.63Z"/>
          <path class="cls-7" d="m40.87,176.46v-.04c0-2.75,2.11-5.02,5.06-5.02,1.82,0,2.95.61,3.85,1.62l-1.67,1.8c-.61-.65-1.22-1.06-2.2-1.06-1.37,0-2.34,1.21-2.34,2.63v.04c0,1.48.95,2.67,2.45,2.67.92,0,1.55-.4,2.21-1.03l1.6,1.62c-.94,1.03-2.02,1.76-3.94,1.76-2.9,0-5.02-2.23-5.02-4.99Z"/>
          <path class="cls-7" d="m50.88,176.46v-.04c0-2.77,2.23-5.02,5.24-5.02s5.2,2.21,5.2,4.99v.04c0,2.77-2.23,5.02-5.24,5.02s-5.2-2.21-5.2-4.99Zm7.74,0v-.04c0-1.42-1.03-2.67-2.54-2.67s-2.5,1.21-2.5,2.63v.04c0,1.42,1.03,2.67,2.54,2.67s2.5-1.21,2.5-2.63Z"/>
          <path class="cls-7" d="m63.42,168.09h2.74v13.14h-2.74v-13.14Z"/>
          <path class="cls-7" d="m68.26,176.46v-.04c0-2.77,2.23-5.02,5.24-5.02s5.2,2.21,5.2,4.99v.04c0,2.77-2.23,5.02-5.24,5.02s-5.2-2.21-5.2-4.99Zm7.74,0v-.04c0-1.42-1.03-2.67-2.54-2.67s-2.5,1.21-2.5,2.63v.04c0,1.42,1.03,2.67,2.54,2.67s2.5-1.21,2.5-2.63Z"/>
          <path class="cls-7" d="m80.68,171.58h2.74v1.37c.63-.81,1.44-1.55,2.83-1.55,2.07,0,3.28,1.37,3.28,3.58v6.25h-2.74v-5.38c0-1.3-.61-1.96-1.66-1.96s-1.71.67-1.71,1.96v5.38h-2.74v-9.65Z"/>
          <path class="cls-7" d="m91.95,168.09h2.88v2.43h-2.88v-2.43Zm.07,3.49h2.74v9.65h-2.74v-9.65Z"/>
          <path class="cls-7" d="m96.86,176.46v-.04c0-2.75,2.11-5.02,5.06-5.02,1.82,0,2.95.61,3.85,1.62l-1.67,1.8c-.61-.65-1.22-1.06-2.2-1.06-1.37,0-2.34,1.21-2.34,2.63v.04c0,1.48.95,2.67,2.45,2.67.92,0,1.55-.4,2.21-1.03l1.6,1.62c-.94,1.03-2.02,1.76-3.94,1.76-2.9,0-5.02-2.23-5.02-4.99Z"/>
          <path class="cls-7" d="m112.43,178.46v-.04c0-2.11,1.6-3.08,3.89-3.08.97,0,1.67.16,2.36.4v-.16c0-1.13-.7-1.76-2.07-1.76-1.04,0-1.78.2-2.67.52l-.68-2.09c1.06-.47,2.11-.77,3.75-.77,1.49,0,2.57.4,3.26,1.08.72.72,1.04,1.78,1.04,3.08v5.6h-2.65v-1.04c-.67.74-1.58,1.22-2.92,1.22-1.82,0-3.31-1.04-3.31-2.95Zm6.28-.63v-.49c-.47-.22-1.08-.36-1.75-.36-1.17,0-1.89.47-1.89,1.33v.04c0,.74.61,1.17,1.49,1.17,1.28,0,2.14-.7,2.14-1.69Z"/>
          <path class="cls-7" d="m123.67,171.58h2.74v1.37c.63-.81,1.44-1.55,2.83-1.55,2.07,0,3.28,1.37,3.28,3.58v6.25h-2.74v-5.38c0-1.3-.61-1.96-1.66-1.96s-1.71.67-1.71,1.96v5.38h-2.74v-9.65Z"/>
          <path class="cls-7" d="m134.45,176.42v-.04c0-3.22,2.11-4.99,4.39-4.99,1.46,0,2.36.67,3.01,1.44v-4.75h2.74v13.14h-2.74v-1.39c-.67.9-1.58,1.57-3.01,1.57-2.25,0-4.39-1.76-4.39-4.99Zm7.44,0v-.04c0-1.6-1.06-2.66-2.34-2.66s-2.36,1.04-2.36,2.66v.04c0,1.6,1.08,2.67,2.36,2.67s2.34-1.06,2.34-2.67Z"/>
          <path class="cls-7" d="m0,189.69h2.88v2.43H0v-2.43Zm.07,3.49h2.74v9.65H.07v-9.65Z"/>
          <path class="cls-7" d="m5.38,193.18h2.74v1.37c.63-.81,1.44-1.55,2.83-1.55,2.07,0,3.28,1.37,3.28,3.58v6.25h-2.74v-5.38c0-1.3-.61-1.96-1.66-1.96s-1.71.67-1.71,1.96v5.38h-2.74v-9.65Z"/>
          <path class="cls-7" d="m17.06,195.52h-1.13v-2.25h1.13v-.61c0-1.06.27-1.84.77-2.34.5-.5,1.24-.76,2.21-.76.86,0,1.44.11,1.94.27v2.27c-.4-.14-.77-.23-1.24-.23-.63,0-.99.32-.99,1.04v.38h2.21v2.23h-2.18v7.31h-2.74v-7.31Zm6.54-5.83h2.74v13.14h-2.74v-13.14Z"/>
          <path class="cls-7" d="m28.33,200.06v-.04c0-2.11,1.6-3.08,3.89-3.08.97,0,1.67.16,2.36.4v-.16c0-1.13-.7-1.76-2.07-1.76-1.04,0-1.78.2-2.67.52l-.68-2.09c1.06-.47,2.11-.77,3.75-.77,1.49,0,2.57.4,3.26,1.08.72.72,1.04,1.78,1.04,3.08v5.6h-2.65v-1.04c-.67.74-1.58,1.22-2.92,1.22-1.82,0-3.31-1.04-3.31-2.95Zm6.28-.63v-.49c-.47-.22-1.08-.36-1.75-.36-1.17,0-1.89.47-1.89,1.33v.04c0,.74.61,1.17,1.49,1.17,1.28,0,2.14-.7,2.14-1.69Z"/>
          <path class="cls-7" d="m39.56,193.18h2.74v1.37c.63-.81,1.46-1.55,2.85-1.55,1.26,0,2.21.56,2.72,1.53.85-.99,1.85-1.53,3.17-1.53,2.03,0,3.26,1.22,3.26,3.55v6.28h-2.74v-5.38c0-1.3-.58-1.96-1.6-1.96s-1.66.67-1.66,1.96v5.38h-2.74v-5.38c0-1.3-.58-1.96-1.6-1.96s-1.66.67-1.66,1.96v5.38h-2.74v-9.65Z"/>
          <path class="cls-7" d="m56.66,193.18h2.74v1.37c.63-.81,1.46-1.55,2.84-1.55,1.26,0,2.21.56,2.72,1.53.85-.99,1.85-1.53,3.17-1.53,2.03,0,3.26,1.22,3.26,3.55v6.28h-2.74v-5.38c0-1.3-.58-1.96-1.6-1.96s-1.66.67-1.66,1.96v5.38h-2.74v-5.38c0-1.3-.58-1.96-1.6-1.96s-1.66.67-1.66,1.96v5.38h-2.74v-9.65Z"/>
          <path class="cls-7" d="m73.19,200.06v-.04c0-2.11,1.6-3.08,3.89-3.08.97,0,1.67.16,2.36.4v-.16c0-1.13-.7-1.76-2.07-1.76-1.04,0-1.78.2-2.66.52l-.68-2.09c1.06-.47,2.11-.77,3.75-.77,1.49,0,2.57.4,3.26,1.08.72.72,1.04,1.78,1.04,3.08v5.6h-2.65v-1.04c-.67.74-1.58,1.22-2.92,1.22-1.82,0-3.31-1.04-3.31-2.95Zm6.28-.63v-.49c-.47-.22-1.08-.36-1.75-.36-1.17,0-1.89.47-1.89,1.33v.04c0,.74.61,1.17,1.49,1.17,1.28,0,2.14-.7,2.14-1.69Z"/>
          <path class="cls-7" d="m84.78,200.09v-4.57h-1.15v-2.34h1.15v-2.47h2.74v2.47h2.27v2.34h-2.27v4.12c0,.63.27.94.88.94.5,0,.95-.13,1.35-.34v2.2c-.58.34-1.24.56-2.16.56-1.67,0-2.81-.67-2.81-2.9Z"/>
          <path class="cls-7" d="m91.06,198.06v-.04c0-2.77,2.23-5.02,5.24-5.02s5.2,2.21,5.2,4.99v.04c0,2.77-2.23,5.02-5.24,5.02s-5.2-2.21-5.2-4.99Zm7.74,0v-.04c0-1.42-1.03-2.67-2.54-2.67s-2.5,1.21-2.5,2.63v.04c0,1.42,1.03,2.67,2.54,2.67s2.5-1.21,2.5-2.63Z"/>
          <path class="cls-7" d="m103.48,193.18h2.74v1.94c.56-1.33,1.46-2.2,3.08-2.12v2.86h-.14c-1.82,0-2.93,1.1-2.93,3.4v3.57h-2.74v-9.65Z"/>
          <path class="cls-7" d="m117.34,193.18h2.84l-3.71,9.88c-.74,1.96-1.53,2.7-3.17,2.7-.99,0-1.73-.25-2.43-.67l.92-1.98c.36.22.81.38,1.17.38.47,0,.72-.14.95-.63l-3.78-9.69h2.9l2.2,6.57,2.11-6.57Z"/>
          <path class="cls-7" d="m126.93,196.56v-.04c0-3.58,2.7-6.52,6.57-6.52,2.38,0,3.8.79,4.97,1.95l-1.76,2.03c-.97-.88-1.96-1.42-3.22-1.42-2.12,0-3.66,1.76-3.66,3.92v.04c0,2.16,1.49,3.96,3.66,3.96,1.44,0,2.32-.58,3.31-1.48l1.76,1.78c-1.3,1.39-2.74,2.25-5.17,2.25-3.71,0-6.46-2.86-6.46-6.48Z"/>
          <path class="cls-7" d="m140.78,190.23h4.92c3.96,0,6.7,2.72,6.7,6.27v.04c0,3.55-2.74,6.3-6.7,6.3h-4.92v-12.6Zm2.77,2.5v7.6h2.14c2.27,0,3.8-1.53,3.8-3.76v-.04c0-2.23-1.53-3.8-3.8-3.8h-2.14Z"/>
        </g>
        <g>
          <line class="cls-9" x1="76.03" y1="108.79" x2="76.03" y2="108.79"/>
          <line class="cls-10" x1="76.03" y1="115.42" x2="76.03" y2="131.99"/>
          <line class="cls-9" x1="76.03" y1="135.3" x2="76.03" y2="135.3"/>
        </g>
      </g>
      <g id="june_2021_capsule">
        <rect class="cls-1" x="7.89" y="60.99" width="136" height="40" rx="20" ry="20"/>
        <g>
          <path class="cls-8" d="m35.22,85.42l1.55-1.73c.64.71,1.26,1.12,2.05,1.12.93,0,1.5-.56,1.5-1.86v-7.22h2.53v7.33c0,1.33-.38,2.32-1.06,2.99-.69.69-1.7,1.04-2.91,1.04-1.74,0-2.9-.77-3.67-1.68Z"/>
          <path class="cls-8" d="m45.05,83.91v-5.55h2.43v4.79c0,1.15.54,1.74,1.47,1.74s1.52-.59,1.52-1.74v-4.79h2.43v8.58h-2.43v-1.22c-.56.72-1.28,1.38-2.51,1.38-1.84,0-2.91-1.22-2.91-3.19Z"/>
          <path class="cls-8" d="m55.08,78.36h2.43v1.22c.56-.72,1.28-1.38,2.51-1.38,1.84,0,2.91,1.22,2.91,3.19v5.55h-2.43v-4.79c0-1.15-.54-1.75-1.47-1.75s-1.52.59-1.52,1.75v4.79h-2.43v-8.58Z"/>
          <path class="cls-8" d="m64.63,82.69v-.03c0-2.45,1.74-4.47,4.24-4.47,2.87,0,4.18,2.23,4.18,4.66,0,.19-.02.42-.03.64h-5.97c.24,1.1,1.01,1.68,2.1,1.68.82,0,1.41-.26,2.08-.88l1.39,1.23c-.8.99-1.95,1.6-3.51,1.6-2.58,0-4.48-1.81-4.48-4.43Zm6.05-.72c-.14-1.09-.78-1.83-1.81-1.83s-1.66.72-1.86,1.83h3.67Z"/>
          <path class="cls-8" d="m79.35,84.98l3.73-3.06c1.39-1.15,1.94-1.76,1.94-2.69s-.62-1.46-1.5-1.46-1.46.48-2.29,1.51l-1.73-1.39c1.1-1.51,2.18-2.32,4.18-2.32,2.32,0,3.86,1.36,3.86,3.46v.03c0,1.87-.96,2.8-2.95,4.34l-1.82,1.41h4.88v2.13h-8.29v-1.95Z"/>
          <path class="cls-8" d="m89.4,81.37v-.03c0-3.25,2.02-5.79,4.99-5.79s4.96,2.51,4.96,5.76v.03c0,3.25-2,5.79-4.99,5.79s-4.96-2.51-4.96-5.76Zm7.43,0v-.03c0-2.03-.99-3.57-2.47-3.57s-2.43,1.49-2.43,3.54v.03c0,2.05.98,3.57,2.46,3.57s2.43-1.5,2.43-3.54Z"/>
          <path class="cls-8" d="m100.84,84.98l3.73-3.06c1.39-1.15,1.94-1.76,1.94-2.69s-.62-1.46-1.5-1.46-1.46.48-2.29,1.51l-1.73-1.39c1.1-1.51,2.18-2.32,4.18-2.32,2.32,0,3.86,1.36,3.86,3.46v.03c0,1.87-.96,2.8-2.95,4.34l-1.82,1.41h4.88v2.13h-8.29v-1.95Z"/>
          <path class="cls-8" d="m112.87,78.15l-1.95.48-.51-2.02,3.22-.96h1.68v11.29h-2.43v-8.79Z"/>
        </g>
      </g>
      <g id="prednisolone_banner">
        <polygon class="cls-4" points="348.22 64.64 151.19 64.64 160.64 53.15 151.19 41.65 348.22 41.65 357.67 53.15 348.22 64.64"/>
        <g>
          <path class="cls-5" d="m168.74,48.87h3.75c2.26,0,3.75,1.2,3.75,3.18v.03c0,2.16-1.8,3.28-3.94,3.28h-2.43v3.54h-1.13v-10.02Zm3.61,5.45c1.66,0,2.75-.89,2.75-2.2v-.03c0-1.43-1.07-2.17-2.69-2.17h-2.53v4.41h2.48Z"/>
          <path class="cls-5" d="m178.11,51.49h1.1v1.93c.54-1.23,1.62-2.12,3.02-2.06v1.19h-.09c-1.62,0-2.93,1.16-2.93,3.39v2.95h-1.1v-7.4Z"/>
          <path class="cls-5" d="m183.13,55.21v-.03c0-2.13,1.5-3.85,3.55-3.85,2.19,0,3.45,1.75,3.45,3.91,0,.14,0,.23-.01.36h-5.87c.16,1.6,1.29,2.5,2.6,2.5,1.02,0,1.73-.42,2.33-1.04l.69.62c-.74.83-1.65,1.39-3.05,1.39-2.03,0-3.69-1.56-3.69-3.85Zm5.88-.43c-.11-1.35-.89-2.52-2.36-2.52-1.29,0-2.26,1.07-2.4,2.52h4.77Z"/>
          <path class="cls-5" d="m191.63,55.21v-.03c0-2.42,1.76-3.85,3.54-3.85,1.37,0,2.26.74,2.83,1.57v-4.47h1.1v10.45h-1.1v-1.49c-.6.89-1.47,1.65-2.83,1.65-1.77,0-3.54-1.4-3.54-3.84Zm6.41-.01v-.03c0-1.7-1.3-2.85-2.68-2.85s-2.6,1.06-2.6,2.85v.03c0,1.75,1.2,2.86,2.6,2.86s2.68-1.16,2.68-2.86Z"/>
          <path class="cls-5" d="m201.56,51.49h1.1v1.29c.49-.8,1.26-1.45,2.53-1.45,1.79,0,2.83,1.2,2.83,2.96v4.59h-1.1v-4.32c0-1.37-.74-2.23-2.05-2.23s-2.22.93-2.22,2.32v4.24h-1.1v-7.4Z"/>
          <path class="cls-5" d="m210.4,48.65h1.26v1.22h-1.26v-1.22Zm.07,2.83h1.1v7.4h-1.1v-7.4Z"/>
          <path class="cls-5" d="m213.52,57.94l.56-.79c.8.6,1.69.94,2.56.94s1.53-.46,1.53-1.17v-.03c0-.74-.87-1.03-1.85-1.3-1.16-.33-2.45-.73-2.45-2.09v-.03c0-1.27,1.06-2.12,2.52-2.12.9,0,1.9.31,2.66.82l-.5.83c-.69-.44-1.47-.72-2.19-.72-.87,0-1.43.46-1.43,1.07v.03c0,.7.92.97,1.9,1.27,1.15.34,2.38.79,2.38,2.12v.03c0,1.4-1.16,2.22-2.63,2.22-1.06,0-2.23-.42-3.06-1.09Z"/>
          <path class="cls-5" d="m220.8,55.22v-.03c0-2.09,1.63-3.86,3.86-3.86s3.85,1.75,3.85,3.83v.03c0,2.09-1.65,3.86-3.88,3.86s-3.84-1.75-3.84-3.84Zm6.58,0v-.03c0-1.59-1.19-2.89-2.75-2.89s-2.71,1.3-2.71,2.86v.03c0,1.59,1.17,2.88,2.73,2.88s2.72-1.29,2.72-2.85Z"/>
          <path class="cls-5" d="m230.6,48.44h1.1v10.45h-1.1v-10.45Z"/>
          <path class="cls-5" d="m233.81,55.22v-.03c0-2.09,1.63-3.86,3.86-3.86s3.85,1.75,3.85,3.83v.03c0,2.09-1.65,3.86-3.88,3.86s-3.84-1.75-3.84-3.84Zm6.58,0v-.03c0-1.59-1.19-2.89-2.75-2.89s-2.71,1.3-2.71,2.86v.03c0,1.59,1.17,2.88,2.73,2.88s2.72-1.29,2.72-2.85Z"/>
          <path class="cls-5" d="m243.5,51.49h1.1v1.29c.49-.8,1.26-1.45,2.53-1.45,1.79,0,2.83,1.2,2.83,2.96v4.59h-1.1v-4.32c0-1.37-.74-2.23-2.05-2.23s-2.22.93-2.22,2.32v4.24h-1.1v-7.4Z"/>
          <path class="cls-5" d="m251.86,55.21v-.03c0-2.13,1.5-3.85,3.55-3.85,2.19,0,3.45,1.75,3.45,3.91,0,.14,0,.23-.01.36h-5.87c.16,1.6,1.29,2.5,2.6,2.5,1.02,0,1.73-.42,2.33-1.04l.69.62c-.74.83-1.65,1.39-3.05,1.39-2.03,0-3.69-1.56-3.69-3.85Zm5.88-.43c-.11-1.35-.89-2.52-2.36-2.52-1.29,0-2.26,1.07-2.4,2.52h4.77Z"/>
          <path class="cls-5" d="m265.49,52.46h-1.02v-.96h1.02v-.64c0-.84.23-1.49.64-1.9.37-.37.92-.57,1.59-.57.52,0,.86.06,1.22.19v.96c-.4-.11-.7-.19-1.07-.19-.86,0-1.29.52-1.29,1.57v.6h2.35v.94h-2.33v6.43h-1.1v-6.43Z"/>
          <path class="cls-5" d="m269.73,55.22v-.03c0-2.09,1.63-3.86,3.86-3.86s3.85,1.75,3.85,3.83v.03c0,2.09-1.65,3.86-3.88,3.86s-3.84-1.75-3.84-3.84Zm6.58,0v-.03c0-1.59-1.19-2.89-2.75-2.89s-2.71,1.3-2.71,2.86v.03c0,1.59,1.17,2.88,2.73,2.88s2.72-1.29,2.72-2.85Z"/>
          <path class="cls-5" d="m279.43,51.49h1.1v1.93c.54-1.23,1.62-2.12,3.02-2.06v1.19h-.09c-1.62,0-2.93,1.16-2.93,3.39v2.95h-1.1v-7.4Z"/>
          <path class="cls-5" d="m289.03,56.2v-.03c0-1.19.86-2.03,2.06-2.46-.93-.43-1.72-1.14-1.72-2.3v-.03c0-1.54,1.59-2.65,3.42-2.65s3.42,1.1,3.42,2.65v.03c0,1.16-.79,1.88-1.72,2.3,1.19.44,2.06,1.26,2.06,2.45v.03c0,1.7-1.63,2.85-3.76,2.85s-3.76-1.16-3.76-2.83Zm6.38-.03v-.03c0-1.12-1.16-1.9-2.62-1.9s-2.62.79-2.62,1.9v.03c0,1.02.97,1.88,2.62,1.88s2.62-.86,2.62-1.88Zm-.33-4.69v-.03c0-.99-.99-1.73-2.29-1.73s-2.29.73-2.29,1.73v.03c0,1.09,1.02,1.83,2.29,1.83s2.29-.74,2.29-1.83Z"/>
          <path class="cls-5" d="m302.19,51.49h1.17l1.95,5.94,1.99-5.97h.92l2,5.97,1.95-5.94h1.15l-2.6,7.46h-.96l-1.99-5.84-2,5.84h-.97l-2.59-7.46Z"/>
          <path class="cls-5" d="m314.32,55.21v-.03c0-2.13,1.5-3.85,3.55-3.85,2.19,0,3.45,1.75,3.45,3.91,0,.14,0,.23-.01.36h-5.87c.16,1.6,1.29,2.5,2.6,2.5,1.02,0,1.73-.42,2.33-1.04l.69.62c-.74.83-1.65,1.39-3.05,1.39-2.03,0-3.69-1.56-3.69-3.85Zm5.88-.43c-.11-1.35-.89-2.52-2.36-2.52-1.29,0-2.26,1.07-2.4,2.52h4.77Z"/>
          <path class="cls-5" d="m322.79,55.21v-.03c0-2.13,1.5-3.85,3.55-3.85,2.19,0,3.45,1.75,3.45,3.91,0,.14,0,.23-.01.36h-5.87c.16,1.6,1.29,2.5,2.6,2.5,1.02,0,1.73-.42,2.33-1.04l.69.62c-.74.83-1.65,1.39-3.05,1.39-2.03,0-3.69-1.56-3.69-3.85Zm5.88-.43c-.11-1.35-.89-2.52-2.36-2.52-1.29,0-2.26,1.07-2.4,2.52h4.77Z"/>
          <path class="cls-5" d="m331.72,48.44h1.1v7.21l3.99-4.17h1.37l-3.11,3.18,3.21,4.22h-1.32l-2.65-3.45-1.5,1.52v1.93h-1.1v-10.45Z"/>
          <path class="cls-5" d="m339.14,57.94l.56-.79c.8.6,1.69.94,2.56.94s1.53-.46,1.53-1.17v-.03c0-.74-.87-1.03-1.85-1.3-1.16-.33-2.45-.73-2.45-2.09v-.03c0-1.27,1.06-2.12,2.52-2.12.9,0,1.9.31,2.66.82l-.5.83c-.69-.44-1.47-.72-2.19-.72-.87,0-1.43.46-1.43,1.07v.03c0,.7.92.97,1.9,1.27,1.15.34,2.38.79,2.38,2.12v.03c0,1.4-1.16,2.22-2.63,2.22-1.06,0-2.23-.42-3.06-1.09Z"/>
        </g>
      </g>
      <g id="azathioprine_banner">
        <polygon class="cls-4" points="486.76 22.99 212.69 22.99 222.14 11.49 212.69 0 486.76 0 496.21 11.49 486.76 22.99"/>
        <g>
          <path class="cls-5" d="m266.32,7.14h1.06l4.57,10.09h-1.22l-1.17-2.65h-5.45l-1.19,2.65h-1.16l4.57-10.09Zm2.79,6.43l-2.28-5.11-2.29,5.11h4.57Z"/>
          <path class="cls-5" d="m273.3,16.53l4.91-5.77h-4.74v-.93h6.24v.7l-4.92,5.77h4.92v.93h-6.41v-.7Z"/>
          <path class="cls-5" d="m281.12,15.09v-.03c0-1.56,1.29-2.39,3.16-2.39.94,0,1.62.13,2.28.31v-.26c0-1.33-.82-2.02-2.2-2.02-.87,0-1.56.23-2.25.54l-.33-.9c.82-.37,1.62-.62,2.69-.62s1.85.27,2.39.82c.5.5.76,1.22.76,2.16v4.52h-1.06v-1.12c-.52.67-1.37,1.27-2.68,1.27-1.37,0-2.76-.79-2.76-2.3Zm5.45-.57v-.72c-.54-.16-1.27-.31-2.18-.31-1.39,0-2.16.6-2.16,1.53v.03c0,.93.86,1.47,1.86,1.47,1.36,0,2.48-.83,2.48-2Z"/>
          <path class="cls-5" d="m290.28,15.27v-4.47h-1.03v-.97h1.03v-2.23h1.1v2.23h2.35v.97h-2.35v4.32c0,.9.5,1.23,1.25,1.23.37,0,.69-.07,1.07-.26v.94c-.39.2-.8.32-1.33.32-1.19,0-2.09-.59-2.09-2.09Z"/>
          <path class="cls-5" d="m295.67,6.79h1.1v4.34c.49-.8,1.26-1.45,2.53-1.45,1.79,0,2.83,1.2,2.83,2.96v4.59h-1.1v-4.32c0-1.37-.74-2.23-2.05-2.23s-2.22.93-2.22,2.32v4.24h-1.1V6.79Z"/>
          <path class="cls-5" d="m304.51,7h1.26v1.22h-1.26v-1.22Zm.07,2.83h1.1v7.4h-1.1v-7.4Z"/>
          <path class="cls-5" d="m307.79,13.57v-.03c0-2.09,1.63-3.86,3.86-3.86s3.85,1.75,3.85,3.83v.03c0,2.09-1.65,3.86-3.88,3.86s-3.84-1.75-3.84-3.84Zm6.58,0v-.03c0-1.59-1.19-2.89-2.75-2.89s-2.71,1.3-2.71,2.86v.03c0,1.59,1.17,2.88,2.73,2.88s2.72-1.29,2.72-2.85Z"/>
          <path class="cls-5" d="m317.49,9.83h1.1v1.49c.6-.89,1.47-1.65,2.83-1.65,1.77,0,3.54,1.4,3.54,3.83v.03c0,2.42-1.75,3.85-3.54,3.85-1.37,0-2.26-.74-2.83-1.57v3.71h-1.1v-9.69Zm6.34,3.72v-.03c0-1.75-1.2-2.86-2.6-2.86s-2.68,1.16-2.68,2.85v.03c0,1.72,1.3,2.86,2.68,2.86s2.6-1.06,2.6-2.85Z"/>
          <path class="cls-5" d="m326.99,9.83h1.1v1.93c.54-1.23,1.62-2.12,3.02-2.06v1.19h-.09c-1.62,0-2.93,1.16-2.93,3.39v2.95h-1.1v-7.4Z"/>
          <path class="cls-5" d="m332.81,7h1.26v1.22h-1.26v-1.22Zm.07,2.83h1.1v7.4h-1.1v-7.4Z"/>
          <path class="cls-5" d="m336.55,9.83h1.1v1.29c.49-.8,1.26-1.45,2.53-1.45,1.79,0,2.83,1.2,2.83,2.96v4.59h-1.1v-4.32c0-1.37-.74-2.23-2.05-2.23s-2.22.93-2.22,2.32v4.24h-1.1v-7.4Z"/>
          <path class="cls-5" d="m344.9,13.55v-.03c0-2.13,1.5-3.85,3.55-3.85,2.19,0,3.45,1.75,3.45,3.91,0,.14,0,.23-.01.36h-5.87c.16,1.6,1.29,2.5,2.6,2.5,1.02,0,1.73-.42,2.33-1.04l.69.62c-.74.83-1.65,1.39-3.05,1.39-2.03,0-3.69-1.56-3.69-3.85Zm5.88-.43c-.11-1.35-.89-2.52-2.36-2.52-1.29,0-2.26,1.07-2.4,2.52h4.77Z"/>
          <path class="cls-5" d="m358.53,10.81h-1.02v-.96h1.02v-.64c0-.84.23-1.49.64-1.9.37-.37.92-.57,1.59-.57.52,0,.86.06,1.22.19v.96c-.4-.11-.7-.19-1.07-.19-.86,0-1.29.52-1.29,1.57v.6h2.35v.94h-2.33v6.43h-1.1v-6.43Z"/>
          <path class="cls-5" d="m362.77,13.57v-.03c0-2.09,1.63-3.86,3.86-3.86s3.85,1.75,3.85,3.83v.03c0,2.09-1.65,3.86-3.88,3.86s-3.84-1.75-3.84-3.84Zm6.58,0v-.03c0-1.59-1.19-2.89-2.75-2.89s-2.71,1.3-2.71,2.86v.03c0,1.59,1.17,2.88,2.73,2.88s2.72-1.29,2.72-2.85Z"/>
          <path class="cls-5" d="m372.47,9.83h1.1v1.93c.54-1.23,1.62-2.12,3.02-2.06v1.19h-.09c-1.62,0-2.93,1.16-2.93,3.39v2.95h-1.1v-7.4Z"/>
          <path class="cls-5" d="m382.08,15.82l.74-.82c.87.84,1.83,1.37,2.85,1.37,1.43,0,2.42-.95,2.42-2.22v-.03c0-1.25-1.03-2.1-2.49-2.1-.84,0-1.52.26-2.1.57l-.76-.5.29-4.88h5.77v1.04h-4.78l-.21,3.21c.59-.26,1.15-.44,1.98-.44,1.95,0,3.46,1.16,3.46,3.06v.03c0,1.96-1.49,3.29-3.58,3.29-1.43,0-2.68-.69-3.58-1.59Z"/>
          <path class="cls-5" d="m395.6,9.83h1.1v1.25c.49-.73,1.15-1.4,2.39-1.4s1.98.64,2.38,1.47c.53-.82,1.32-1.47,2.6-1.47,1.7,0,2.75,1.14,2.75,2.98v4.58h-1.1v-4.32c0-1.43-.72-2.23-1.92-2.23-1.12,0-2.05.83-2.05,2.29v4.27h-1.09v-4.35c0-1.39-.73-2.2-1.9-2.2s-2.06.97-2.06,2.33v4.22h-1.1v-7.4Z"/>
          <path class="cls-5" d="m408.71,13.57v-.03c0-2.09,1.63-3.86,3.86-3.86s3.85,1.75,3.85,3.83v.03c0,2.09-1.65,3.86-3.88,3.86s-3.84-1.75-3.84-3.84Zm6.58,0v-.03c0-1.59-1.19-2.89-2.75-2.89s-2.71,1.3-2.71,2.86v.03c0,1.59,1.17,2.88,2.73,2.88s2.72-1.29,2.72-2.85Z"/>
          <path class="cls-5" d="m418.41,9.83h1.1v1.29c.49-.8,1.26-1.45,2.53-1.45,1.79,0,2.83,1.2,2.83,2.96v4.59h-1.1v-4.32c0-1.37-.74-2.23-2.05-2.23s-2.22.93-2.22,2.32v4.24h-1.1v-7.4Z"/>
          <path class="cls-5" d="m427.6,15.27v-4.47h-1.03v-.97h1.03v-2.23h1.1v2.23h2.35v.97h-2.35v4.32c0,.9.5,1.23,1.25,1.23.37,0,.69-.07,1.07-.26v.94c-.39.2-.8.32-1.33.32-1.19,0-2.09-.59-2.09-2.09Z"/>
          <path class="cls-5" d="m433,6.79h1.1v4.34c.49-.8,1.26-1.45,2.53-1.45,1.79,0,2.83,1.2,2.83,2.96v4.59h-1.1v-4.32c0-1.37-.74-2.23-2.05-2.23s-2.22.93-2.22,2.32v4.24h-1.1V6.79Z"/>
          <path class="cls-5" d="m441.2,16.29l.56-.79c.8.6,1.69.94,2.56.94s1.53-.46,1.53-1.17v-.03c0-.74-.87-1.03-1.85-1.3-1.16-.33-2.45-.73-2.45-2.09v-.03c0-1.27,1.06-2.12,2.52-2.12.9,0,1.9.31,2.66.82l-.5.83c-.69-.44-1.47-.72-2.19-.72-.87,0-1.43.46-1.43,1.07v.03c0,.7.92.97,1.9,1.27,1.15.34,2.38.79,2.38,2.12v.03c0,1.4-1.16,2.22-2.63,2.22-1.06,0-2.23-.42-3.06-1.09Z"/>
        </g>
      </g>
    </g>
  </g>
</svg>