<?xml version="1.0" encoding="UTF-8"?>
<svg id="rohan_conventional_therapy_svg" data-name="rohan_conventional_therapy_svg" xmlns="http://www.w3.org/2000/svg" xmlns:xlink="http://www.w3.org/1999/xlink" viewBox="0 0 885.84 289.99">
  <defs>
    <style>
      .cls-1 {
        fill: #e0e1e0;
      }

      .cls-1, .cls-2, .cls-3, .cls-4, .cls-5, .cls-6, .cls-7, .cls-8, .cls-9, .cls-10, .cls-11, .cls-12, .cls-13 {
        stroke-width: 0px;
      }

      .cls-2 {
        fill: url(#linear-gradient);
      }

      .cls-3 {
        fill: url(#linear-gradient-6);
      }

      .cls-14 {
        stroke-dasharray: 0 0 0 5.79;
      }

      .cls-14, .cls-15, .cls-16 {
        stroke: #9d5b8f;
        stroke-linecap: round;
        stroke-linejoin: round;
        stroke-width: 4px;
      }

      .cls-14, .cls-15, .cls-16, .cls-17 {
        fill: none;
      }

      .cls-4 {
        fill: url(#linear-gradient-5);
      }

      .cls-5 {
        fill: #fff;
      }

      .cls-6 {
        fill: url(#linear-gradient-2);
      }

      .cls-7 {
        fill: #828386;
      }

      .cls-8 {
        fill: url(#linear-gradient-7);
      }

      .cls-9 {
        fill: url(#linear-gradient-3);
      }

      .cls-10 {
        fill: #231f20;
      }

      .cls-16 {
        stroke-dasharray: 0 0 0 6.63;
      }

      .cls-11 {
        fill: url(#linear-gradient-8);
      }

      .cls-12 {
        fill: #872780;
      }

      .cls-13 {
        fill: url(#linear-gradient-4);
      }

      .cls-17 {
        stroke: #808b86;
        stroke-miterlimit: 10;
        stroke-width: 2px;
      }
    </style>
    <linearGradient id="linear-gradient" x1="762.2" y1="100.43" x2="762.2" y2="143.11" gradientUnits="userSpaceOnUse">
      <stop offset="0" stop-color="#bebdbd"/>
      <stop offset=".2" stop-color="#c6c6c7"/>
      <stop offset=".68" stop-color="#d8d9dc"/>
      <stop offset="1" stop-color="#dfe0e4"/>
    </linearGradient>
    <linearGradient id="linear-gradient-2" x1="762.2" y1="102.32" x2="762.2" y2="141.27" gradientUnits="userSpaceOnUse">
      <stop offset="0" stop-color="#bebdbd"/>
      <stop offset="1" stop-color="#fff"/>
    </linearGradient>
    <linearGradient id="linear-gradient-3" x1="762.2" y1="100.43" x2="762.2" y2="143.11" xlink:href="#linear-gradient-2"/>
    <linearGradient id="linear-gradient-4" x1="762.2" y1="102.32" x2="762.2" y2="141.27" gradientUnits="userSpaceOnUse">
      <stop offset="0" stop-color="#8a2780"/>
      <stop offset=".01" stop-color="#8c2780"/>
      <stop offset=".22" stop-color="#a32c74"/>
      <stop offset=".42" stop-color="#b53560"/>
      <stop offset=".61" stop-color="#c33a4e"/>
      <stop offset=".77" stop-color="#cd3c3d"/>
      <stop offset=".91" stop-color="#d33e33"/>
      <stop offset="1" stop-color="#d43f2e"/>
    </linearGradient>
    <linearGradient id="linear-gradient-5" x1="681.19" x2="681.19" xlink:href="#linear-gradient"/>
    <linearGradient id="linear-gradient-6" x1="681.19" x2="681.19" xlink:href="#linear-gradient-2"/>
    <linearGradient id="linear-gradient-7" x1="681.19" y1="100.43" x2="681.19" y2="143.11" xlink:href="#linear-gradient-2"/>
    <linearGradient id="linear-gradient-8" x1="681.19" x2="681.19" xlink:href="#linear-gradient-4"/>
  </defs>
  <g id="rohan_svg_desktop">
    <g id="rohan_conventional_therapy">
      <line id="timeline" class="cls-17" x1="828.55" y1="122.01" y2="122.01"/>
      <g id="info_text_2">
        <g>
          <path class="cls-12" d="m668.86,188.05h5.42c1.55,0,2.79.47,3.58,1.26.61.61.97,1.5.97,2.49v.04c0,2.09-1.44,3.31-3.42,3.67l3.87,5.15h-1.75l-3.66-4.9h-3.6v4.9h-1.42v-12.6Zm5.29,6.43c1.89,0,3.24-.97,3.24-2.59v-.04c0-1.55-1.19-2.48-3.22-2.48h-3.89v5.11h3.87Z"/>
          <path class="cls-12" d="m680.88,196.05v-.04c0-2.63,2.05-4.86,4.86-4.86s4.84,2.2,4.84,4.83v.04c0,2.63-2.07,4.86-4.88,4.86s-4.83-2.2-4.83-4.83Zm8.28,0v-.04c0-2-1.5-3.64-3.46-3.64s-3.4,1.64-3.4,3.6v.04c0,2,1.48,3.62,3.44,3.62s3.42-1.62,3.42-3.58Z"/>
          <path class="cls-12" d="m693.09,187.51h1.39v5.46c.61-1.01,1.58-1.82,3.19-1.82,2.25,0,3.57,1.51,3.57,3.73v5.78h-1.39v-5.44c0-1.73-.94-2.81-2.57-2.81s-2.79,1.17-2.79,2.92v5.33h-1.39v-13.14Z"/>
          <path class="cls-12" d="m703.47,197.96v-.04c0-1.96,1.62-3.01,3.98-3.01,1.19,0,2.03.16,2.86.4v-.32c0-1.67-1.03-2.54-2.77-2.54-1.1,0-1.96.29-2.83.68l-.41-1.13c1.03-.47,2.04-.77,3.39-.77s2.32.34,3.01,1.03c.63.63.95,1.53.95,2.72v5.69h-1.33v-1.4c-.65.85-1.73,1.6-3.37,1.6-1.73,0-3.48-.99-3.48-2.9Zm6.86-.72v-.9c-.68-.2-1.6-.4-2.74-.4-1.75,0-2.72.76-2.72,1.93v.04c0,1.17,1.08,1.85,2.34,1.85,1.71,0,3.12-1.04,3.12-2.52Z"/>
          <path class="cls-12" d="m714.6,191.35h1.39v1.62c.61-1.01,1.58-1.82,3.19-1.82,2.25,0,3.57,1.51,3.57,3.73v5.78h-1.39v-5.44c0-1.73-.94-2.81-2.57-2.81s-2.79,1.17-2.79,2.92v5.33h-1.39v-9.31Z"/>
          <path class="cls-12" d="m730.31,199.47l.7-.99c1.01.76,2.12,1.19,3.22,1.19s1.93-.58,1.93-1.48v-.04c0-.94-1.1-1.3-2.32-1.64-1.46-.41-3.08-.92-3.08-2.63v-.04c0-1.6,1.33-2.67,3.17-2.67,1.13,0,2.39.4,3.35,1.03l-.63,1.04c-.86-.56-1.85-.9-2.75-.9-1.1,0-1.8.58-1.8,1.35v.04c0,.88,1.15,1.22,2.4,1.6,1.44.43,2.99.99,2.99,2.67v.04c0,1.76-1.46,2.79-3.31,2.79-1.33,0-2.81-.52-3.85-1.37Z"/>
          <path class="cls-12" d="m740.35,198.19v-5.62h-1.3v-1.22h1.3v-2.81h1.39v2.81h2.95v1.22h-2.95v5.44c0,1.13.63,1.55,1.57,1.55.47,0,.86-.09,1.35-.32v1.19c-.49.25-1.01.4-1.67.4-1.49,0-2.63-.74-2.63-2.63Z"/>
          <path class="cls-12" d="m746.44,197.96v-.04c0-1.96,1.62-3.01,3.98-3.01,1.19,0,2.04.16,2.86.4v-.32c0-1.67-1.03-2.54-2.77-2.54-1.1,0-1.96.29-2.83.68l-.41-1.13c1.03-.47,2.03-.77,3.38-.77s2.32.34,3.01,1.03c.63.63.95,1.53.95,2.72v5.69h-1.33v-1.4c-.65.85-1.73,1.6-3.37,1.6-1.73,0-3.47-.99-3.47-2.9Zm6.86-.72v-.9c-.68-.2-1.6-.4-2.74-.4-1.75,0-2.72.76-2.72,1.93v.04c0,1.17,1.08,1.85,2.34,1.85,1.71,0,3.11-1.04,3.11-2.52Z"/>
          <path class="cls-12" d="m757.56,191.35h1.39v2.43c.68-1.55,2.03-2.67,3.8-2.59v1.49h-.11c-2.03,0-3.69,1.46-3.69,4.27v3.71h-1.39v-9.31Z"/>
          <path class="cls-12" d="m765.34,198.19v-5.62h-1.3v-1.22h1.3v-2.81h1.39v2.81h2.95v1.22h-2.95v5.44c0,1.13.63,1.55,1.57,1.55.47,0,.86-.09,1.35-.32v1.19c-.49.25-1.01.4-1.67.4-1.5,0-2.63-.74-2.63-2.63Z"/>
          <path class="cls-12" d="m771.28,196.03v-.04c0-2.68,1.89-4.84,4.46-4.84,2.75,0,4.34,2.2,4.34,4.92,0,.18,0,.29-.02.45h-7.38c.2,2.02,1.62,3.15,3.28,3.15,1.28,0,2.18-.52,2.93-1.31l.86.77c-.94,1.04-2.07,1.75-3.83,1.75-2.56,0-4.65-1.96-4.65-4.84Zm7.4-.54c-.14-1.69-1.12-3.17-2.97-3.17-1.62,0-2.84,1.35-3.02,3.17h6Z"/>
          <path class="cls-12" d="m781.97,196.03v-.04c0-3.04,2.21-4.84,4.45-4.84,1.73,0,2.84.94,3.57,1.98v-5.62h1.39v13.14h-1.39v-1.87c-.76,1.12-1.85,2.07-3.57,2.07-2.23,0-4.45-1.76-4.45-4.83Zm8.07-.02v-.04c0-2.14-1.64-3.58-3.37-3.58s-3.28,1.33-3.28,3.58v.04c0,2.2,1.51,3.6,3.28,3.6s3.37-1.46,3.37-3.6Z"/>
          <path class="cls-12" d="m799.19,198.46l4.2-3.44c1.57-1.3,2.18-1.98,2.18-3.02s-.7-1.64-1.69-1.64-1.64.54-2.58,1.69l-1.94-1.57c1.24-1.69,2.45-2.61,4.7-2.61,2.61,0,4.34,1.53,4.34,3.89v.04c0,2.11-1.08,3.15-3.31,4.88l-2.05,1.58h5.49v2.39h-9.33v-2.2Z"/>
          <path class="cls-12" d="m810.5,194.39v-.04c0-3.66,2.27-6.52,5.62-6.52s5.58,2.83,5.58,6.48v.04c0,3.66-2.25,6.52-5.62,6.52s-5.58-2.83-5.58-6.48Zm8.35,0v-.04c0-2.29-1.12-4.02-2.77-4.02s-2.74,1.67-2.74,3.98v.04c0,2.3,1.1,4.01,2.77,4.01s2.74-1.69,2.74-3.98Z"/>
          <path class="cls-12" d="m829.29,191.01h2.74v1.37c.63-.81,1.46-1.55,2.84-1.55,1.26,0,2.21.56,2.72,1.53.85-.99,1.85-1.53,3.17-1.53,2.04,0,3.26,1.22,3.26,3.55v6.28h-2.74v-5.38c0-1.3-.58-1.96-1.6-1.96s-1.66.67-1.66,1.96v5.38h-2.74v-5.38c0-1.3-.58-1.96-1.6-1.96s-1.66.67-1.66,1.96v5.38h-2.74v-9.65Z"/>
          <path class="cls-12" d="m846.44,202.56l.94-2.05c.99.56,1.98.88,3.26.88,1.87,0,2.75-.9,2.75-2.63v-.47c-.81.97-1.69,1.57-3.15,1.57-2.25,0-4.29-1.64-4.29-4.5v-.04c0-2.88,2.07-4.5,4.29-4.5,1.49,0,2.38.63,3.11,1.44v-1.26h2.74v7.47c0,1.73-.41,2.99-1.22,3.8-.9.9-2.29,1.3-4.16,1.3-1.57,0-3.04-.36-4.27-1.01Zm6.95-7.2v-.04c0-1.31-1.03-2.23-2.36-2.23s-2.34.92-2.34,2.23v.04c0,1.33,1.01,2.23,2.34,2.23s2.36-.92,2.36-2.23Z"/>
          <path class="cls-12" d="m655.34,219.48v-.04c0-2.11,1.6-3.08,3.89-3.08.97,0,1.67.16,2.36.4v-.16c0-1.13-.7-1.76-2.07-1.76-1.04,0-1.78.2-2.66.52l-.68-2.09c1.06-.47,2.11-.77,3.75-.77,1.49,0,2.58.4,3.26,1.08.72.72,1.04,1.78,1.04,3.08v5.6h-2.65v-1.04c-.67.74-1.58,1.22-2.92,1.22-1.82,0-3.31-1.04-3.31-2.95Zm6.28-.63v-.49c-.47-.22-1.08-.36-1.75-.36-1.17,0-1.89.47-1.89,1.33v.04c0,.74.61,1.17,1.5,1.17,1.28,0,2.14-.7,2.14-1.69Z"/>
          <path class="cls-12" d="m666.25,220.33l4.99-5.51h-4.83v-2.21h8.23v1.93l-5,5.51h5v2.21h-8.39v-1.93Z"/>
          <path class="cls-12" d="m676.13,219.48v-.04c0-2.11,1.6-3.08,3.89-3.08.97,0,1.67.16,2.36.4v-.16c0-1.13-.7-1.76-2.07-1.76-1.04,0-1.78.2-2.67.52l-.68-2.09c1.06-.47,2.11-.77,3.75-.77,1.49,0,2.57.4,3.26,1.08.72.72,1.04,1.78,1.04,3.08v5.6h-2.65v-1.04c-.67.74-1.58,1.22-2.92,1.22-1.82,0-3.31-1.04-3.31-2.95Zm6.28-.63v-.49c-.47-.22-1.08-.36-1.75-.36-1.17,0-1.89.47-1.89,1.33v.04c0,.74.61,1.17,1.49,1.17,1.28,0,2.14-.7,2.14-1.69Z"/>
          <path class="cls-12" d="m687.72,219.52v-4.57h-1.15v-2.34h1.15v-2.47h2.74v2.47h2.27v2.34h-2.27v4.12c0,.63.27.94.88.94.5,0,.95-.13,1.35-.34v2.2c-.58.34-1.24.56-2.16.56-1.67,0-2.81-.67-2.81-2.9Z"/>
          <path class="cls-12" d="m694.74,209.11h2.74v4.86c.63-.81,1.44-1.55,2.83-1.55,2.07,0,3.28,1.37,3.28,3.58v6.25h-2.74v-5.38c0-1.3-.61-1.96-1.66-1.96s-1.71.67-1.71,1.96v5.38h-2.74v-13.14Z"/>
          <path class="cls-12" d="m706.01,209.11h2.88v2.43h-2.88v-2.43Zm.07,3.49h2.74v9.65h-2.74v-9.65Z"/>
          <path class="cls-12" d="m710.92,217.49v-.04c0-2.77,2.23-5.02,5.24-5.02s5.2,2.21,5.2,4.99v.04c0,2.77-2.23,5.02-5.24,5.02s-5.2-2.21-5.2-4.99Zm7.74,0v-.04c0-1.42-1.03-2.67-2.54-2.67s-2.5,1.21-2.5,2.63v.04c0,1.42,1.03,2.67,2.54,2.67s2.5-1.21,2.5-2.63Z"/>
          <path class="cls-12" d="m723.34,212.61h2.74v1.39c.67-.9,1.58-1.57,3.01-1.57,2.25,0,4.39,1.76,4.39,4.99v.04c0,3.22-2.11,4.99-4.39,4.99-1.46,0-2.36-.67-3.01-1.44v4.14h-2.74v-12.53Zm7.4,4.84v-.04c0-1.6-1.08-2.66-2.36-2.66s-2.34,1.06-2.34,2.66v.04c0,1.6,1.06,2.67,2.34,2.67s2.36-1.04,2.36-2.67Z"/>
          <path class="cls-12" d="m735.49,212.61h2.74v1.95c.56-1.33,1.46-2.2,3.08-2.12v2.86h-.14c-1.82,0-2.94,1.1-2.94,3.4v3.57h-2.74v-9.65Z"/>
          <path class="cls-12" d="m743.07,209.11h2.88v2.43h-2.88v-2.43Zm.07,3.49h2.74v9.65h-2.74v-9.65Z"/>
          <path class="cls-12" d="m748.45,212.61h2.74v1.37c.63-.81,1.44-1.55,2.83-1.55,2.07,0,3.28,1.37,3.28,3.58v6.25h-2.74v-5.38c0-1.3-.61-1.96-1.66-1.96s-1.71.67-1.71,1.96v5.38h-2.74v-9.65Z"/>
          <path class="cls-12" d="m759.2,217.49v-.04c0-2.75,1.96-5.02,4.77-5.02,3.22,0,4.7,2.5,4.7,5.24,0,.22-.02.47-.04.72h-6.72c.27,1.24,1.13,1.89,2.36,1.89.92,0,1.58-.29,2.34-.99l1.57,1.39c-.9,1.12-2.2,1.8-3.94,1.8-2.9,0-5.04-2.03-5.04-4.99Zm6.81-.81c-.16-1.22-.88-2.05-2.03-2.05s-1.87.81-2.09,2.05h4.12Z"/>
          <path class="cls-12" d="m783.07,220.87c-.67.9-1.58,1.57-3.01,1.57-2.25,0-4.39-1.76-4.39-4.99v-.04c0-3.22,2.11-4.99,4.39-4.99,1.46,0,2.36.67,3.01,1.44v-1.26h2.74v12.53h-2.74v-4.27Zm.04-3.42v-.04c0-1.6-1.06-2.66-2.34-2.66s-2.36,1.04-2.36,2.66v.04c0,1.6,1.08,2.67,2.36,2.67s2.34-1.06,2.34-2.67Z"/>
          <path class="cls-12" d="m788.3,209.11h2.88v2.43h-2.88v-2.43Zm.07,3.49h2.74v9.65h-2.74v-9.65Z"/>
          <path class="cls-12" d="m793.25,217.45v-.04c0-3.22,2.11-4.99,4.39-4.99,1.46,0,2.36.67,3.01,1.44v-4.75h2.74v13.14h-2.74v-1.39c-.67.9-1.58,1.57-3.01,1.57-2.25,0-4.39-1.76-4.39-4.99Zm7.44,0v-.04c0-1.6-1.06-2.66-2.34-2.66s-2.36,1.04-2.36,2.66v.04c0,1.6,1.08,2.67,2.36,2.67s2.34-1.06,2.34-2.67Z"/>
          <path class="cls-12" d="m810.8,217.45v-.04c0-3.22,2.11-4.99,4.39-4.99,1.46,0,2.36.67,3.01,1.44v-4.75h2.74v13.14h-2.74v-1.39c-.67.9-1.58,1.57-3.01,1.57-2.25,0-4.39-1.76-4.39-4.99Zm7.44,0v-.04c0-1.6-1.06-2.66-2.34-2.66s-2.36,1.04-2.36,2.66v.04c0,1.6,1.08,2.67,2.36,2.67s2.34-1.06,2.34-2.67Z"/>
          <path class="cls-12" d="m823.31,218.85v-6.25h2.74v5.38c0,1.3.61,1.96,1.66,1.96s1.71-.67,1.71-1.96v-5.38h2.74v9.65h-2.74v-1.37c-.63.81-1.44,1.55-2.83,1.55-2.07,0-3.28-1.37-3.28-3.58Z"/>
          <path class="cls-12" d="m834.6,212.61h2.74v1.95c.56-1.33,1.46-2.2,3.08-2.12v2.86h-.14c-1.82,0-2.93,1.1-2.93,3.4v3.57h-2.74v-9.65Z"/>
          <path class="cls-12" d="m842.18,209.11h2.88v2.43h-2.88v-2.43Zm.07,3.49h2.74v9.65h-2.74v-9.65Z"/>
          <path class="cls-12" d="m847.56,212.61h2.74v1.37c.63-.81,1.44-1.55,2.83-1.55,2.07,0,3.28,1.37,3.28,3.58v6.25h-2.74v-5.38c0-1.3-.61-1.96-1.66-1.96s-1.71.67-1.71,1.96v5.38h-2.74v-9.65Z"/>
          <path class="cls-12" d="m858.83,224.17l.94-2.05c.99.56,1.98.88,3.26.88,1.87,0,2.75-.9,2.75-2.63v-.47c-.81.97-1.69,1.57-3.15,1.57-2.25,0-4.29-1.64-4.29-4.5v-.04c0-2.88,2.07-4.5,4.29-4.5,1.49,0,2.38.63,3.11,1.44v-1.26h2.74v7.47c0,1.73-.41,2.99-1.22,3.8-.9.9-2.29,1.3-4.16,1.3-1.57,0-3.04-.36-4.27-1.01Zm6.95-7.2v-.04c0-1.31-1.03-2.23-2.36-2.23s-2.34.92-2.34,2.23v.04c0,1.33,1.01,2.23,2.34,2.23s2.36-.92,2.36-2.23Z"/>
          <path class="cls-12" d="m638,242.58l1.17-1.8c1.04.76,2.14,1.15,3.04,1.15.79,0,1.15-.29,1.15-.72v-.04c0-.59-.94-.79-2-1.12-1.35-.4-2.88-1.03-2.88-2.9v-.04c0-1.96,1.58-3.06,3.53-3.06,1.22,0,2.56.41,3.6,1.12l-1.04,1.89c-.95-.56-1.91-.9-2.61-.9-.67,0-1.01.29-1.01.67v.04c0,.54.92.79,1.96,1.15,1.35.45,2.92,1.1,2.92,2.86v.04c0,2.14-1.6,3.11-3.69,3.11-1.35,0-2.86-.45-4.14-1.46Z"/>
          <path class="cls-12" d="m648.06,241.12v-4.57h-1.15v-2.34h1.15v-2.47h2.74v2.47h2.27v2.34h-2.27v4.12c0,.63.27.94.88.94.5,0,.95-.13,1.35-.34v2.2c-.58.34-1.24.56-2.16.56-1.67,0-2.81-.67-2.81-2.9Z"/>
          <path class="cls-12" d="m654.34,239.08v-.04c0-2.75,1.96-5.02,4.77-5.02,3.22,0,4.7,2.5,4.7,5.24,0,.22-.02.47-.04.72h-6.72c.27,1.24,1.13,1.89,2.36,1.89.92,0,1.58-.29,2.34-.99l1.57,1.39c-.9,1.12-2.2,1.8-3.94,1.8-2.9,0-5.04-2.03-5.04-4.99Zm6.81-.81c-.16-1.22-.88-2.05-2.03-2.05s-1.87.81-2.09,2.05h4.12Z"/>
          <path class="cls-12" d="m665.84,234.21h2.74v1.95c.56-1.33,1.46-2.2,3.08-2.12v2.86h-.14c-1.82,0-2.94,1.1-2.94,3.4v3.57h-2.74v-9.65Z"/>
          <path class="cls-12" d="m672.63,239.08v-.04c0-2.77,2.23-5.02,5.24-5.02s5.2,2.21,5.2,4.99v.04c0,2.77-2.23,5.02-5.24,5.02s-5.2-2.21-5.2-4.99Zm7.74,0v-.04c0-1.42-1.03-2.67-2.54-2.67s-2.5,1.21-2.5,2.63v.04c0,1.42,1.03,2.67,2.54,2.67s2.5-1.21,2.5-2.63Z"/>
          <path class="cls-12" d="m685.1,230.71h2.88v2.43h-2.88v-2.43Zm.07,3.49h2.74v9.65h-2.74v-9.65Z"/>
          <path class="cls-12" d="m690.05,239.05v-.04c0-3.22,2.11-4.99,4.39-4.99,1.46,0,2.36.67,3.01,1.44v-4.75h2.74v13.14h-2.74v-1.39c-.67.9-1.58,1.57-3.01,1.57-2.25,0-4.39-1.76-4.39-4.99Zm7.44,0v-.04c0-1.6-1.06-2.66-2.34-2.66s-2.36,1.04-2.36,2.66v.04c0,1.6,1.08,2.67,2.36,2.67s2.34-1.06,2.34-2.67Z"/>
          <path class="cls-12" d="m708.48,241.12v-4.57h-1.15v-2.34h1.15v-2.47h2.74v2.47h2.27v2.34h-2.27v4.12c0,.63.27.94.88.94.5,0,.96-.13,1.35-.34v2.2c-.58.34-1.24.56-2.16.56-1.67,0-2.81-.67-2.81-2.9Z"/>
          <path class="cls-12" d="m714.93,241.08v-.04c0-2.11,1.6-3.08,3.89-3.08.97,0,1.67.16,2.36.4v-.16c0-1.13-.7-1.76-2.07-1.76-1.04,0-1.78.2-2.67.52l-.68-2.09c1.06-.47,2.11-.77,3.75-.77,1.49,0,2.57.4,3.26,1.08.72.72,1.04,1.78,1.04,3.08v5.6h-2.65v-1.04c-.67.74-1.58,1.22-2.92,1.22-1.82,0-3.31-1.04-3.31-2.95Zm6.28-.63v-.49c-.47-.22-1.08-.36-1.75-.36-1.17,0-1.89.47-1.89,1.33v.04c0,.74.61,1.17,1.49,1.17,1.28,0,2.14-.7,2.14-1.69Z"/>
          <path class="cls-12" d="m726.16,234.21h2.74v1.39c.67-.9,1.58-1.57,3.01-1.57,2.25,0,4.39,1.76,4.39,4.99v.04c0,3.22-2.11,4.99-4.39,4.99-1.46,0-2.36-.67-3.01-1.44v4.14h-2.74v-12.53Zm7.4,4.84v-.04c0-1.6-1.08-2.66-2.36-2.66s-2.34,1.06-2.34,2.66v.04c0,1.6,1.06,2.67,2.34,2.67s2.36-1.04,2.36-2.67Z"/>
          <path class="cls-12" d="m737.84,239.08v-.04c0-2.75,1.96-5.02,4.77-5.02,3.22,0,4.7,2.5,4.7,5.24,0,.22-.02.47-.04.72h-6.72c.27,1.24,1.13,1.89,2.36,1.89.92,0,1.58-.29,2.34-.99l1.57,1.39c-.9,1.12-2.2,1.8-3.94,1.8-2.9,0-5.04-2.03-5.04-4.99Zm6.81-.81c-.16-1.22-.88-2.05-2.03-2.05s-1.87.81-2.09,2.05h4.12Z"/>
          <path class="cls-12" d="m749.34,234.21h2.74v1.95c.56-1.33,1.46-2.2,3.08-2.12v2.86h-.14c-1.82,0-2.94,1.1-2.94,3.4v3.57h-2.74v-9.65Z"/>
          <path class="cls-12" d="m756.92,230.71h2.88v2.43h-2.88v-2.43Zm.07,3.49h2.74v9.65h-2.74v-9.65Z"/>
          <path class="cls-12" d="m762.3,234.21h2.74v1.37c.63-.81,1.44-1.55,2.83-1.55,2.07,0,3.28,1.37,3.28,3.58v6.25h-2.74v-5.38c0-1.3-.61-1.96-1.66-1.96s-1.71.67-1.71,1.96v5.38h-2.74v-9.65Z"/>
          <path class="cls-12" d="m773.57,245.76l.94-2.05c.99.56,1.98.88,3.26.88,1.87,0,2.75-.9,2.75-2.63v-.47c-.81.97-1.69,1.57-3.15,1.57-2.25,0-4.29-1.64-4.29-4.5v-.04c0-2.88,2.07-4.5,4.29-4.5,1.49,0,2.38.63,3.12,1.44v-1.26h2.74v7.47c0,1.73-.41,2.99-1.22,3.8-.9.9-2.29,1.3-4.16,1.3-1.57,0-3.04-.36-4.27-1.01Zm6.95-7.2v-.04c0-1.31-1.03-2.23-2.36-2.23s-2.34.92-2.34,2.23v.04c0,1.33,1.01,2.23,2.34,2.23s2.36-.92,2.36-2.23Z"/>
          <path class="cls-12" d="m785.27,245.42c.9-.32,1.28-.79,1.21-1.57h-.65v-1.89h1.66v1.62c0,1.46-.63,2.16-2,2.47l-.22-.63Z"/>
          <path class="cls-12" d="m795.01,234.55h1.48l2.45,7.47,2.5-7.51h1.15l2.52,7.51,2.45-7.47h1.44l-3.28,9.38h-1.21l-2.5-7.35-2.52,7.35h-1.22l-3.26-9.38Z"/>
          <path class="cls-12" d="m811.3,230.71h1.39v5.46c.61-1.01,1.58-1.82,3.19-1.82,2.25,0,3.57,1.51,3.57,3.73v5.78h-1.39v-5.44c0-1.73-.94-2.81-2.57-2.81s-2.79,1.17-2.79,2.92v5.33h-1.39v-13.14Z"/>
          <path class="cls-12" d="m822.42,230.98h1.58v1.53h-1.58v-1.53Zm.09,3.57h1.39v9.31h-1.39v-9.31Z"/>
          <path class="cls-12" d="m826.55,239.25v-.04c0-2.63,2.05-4.86,4.77-4.86,1.76,0,2.86.74,3.73,1.66l-.92.97c-.74-.77-1.57-1.4-2.83-1.4-1.89,0-3.33,1.6-3.33,3.6v.04c0,2.02,1.48,3.62,3.42,3.62,1.19,0,2.11-.59,2.84-1.39l.88.83c-.94,1.04-2.05,1.8-3.8,1.8-2.72,0-4.77-2.21-4.77-4.83Z"/>
          <path class="cls-12" d="m837.4,230.71h1.39v5.46c.61-1.01,1.58-1.82,3.19-1.82,2.25,0,3.57,1.51,3.57,3.73v5.78h-1.39v-5.44c0-1.73-.94-2.81-2.57-2.81s-2.79,1.17-2.79,2.92v5.33h-1.39v-13.14Z"/>
          <path class="cls-12" d="m853.1,234.55h1.48l2.45,7.47,2.5-7.51h1.15l2.52,7.51,2.45-7.47h1.44l-3.28,9.38h-1.21l-2.5-7.35-2.52,7.35h-1.22l-3.26-9.38Z"/>
          <path class="cls-12" d="m868.32,241.16v-.04c0-1.96,1.62-3.01,3.98-3.01,1.19,0,2.03.16,2.86.4v-.32c0-1.67-1.03-2.54-2.77-2.54-1.1,0-1.96.29-2.83.68l-.41-1.13c1.03-.47,2.04-.77,3.39-.77s2.32.34,3.01,1.03c.63.63.95,1.53.95,2.72v5.69h-1.33v-1.4c-.65.85-1.73,1.6-3.37,1.6-1.73,0-3.48-.99-3.48-2.9Zm6.86-.72v-.9c-.68-.2-1.6-.4-2.74-.4-1.75,0-2.72.76-2.72,1.93v.04c0,1.17,1.08,1.85,2.34,1.85,1.71,0,3.12-1.04,3.12-2.52Z"/>
          <path class="cls-12" d="m878.67,242.67l.7-.99c1.01.76,2.12,1.19,3.22,1.19s1.93-.58,1.93-1.48v-.04c0-.94-1.1-1.3-2.32-1.64-1.46-.41-3.08-.92-3.08-2.63v-.04c0-1.6,1.33-2.67,3.17-2.67,1.13,0,2.4.4,3.35,1.03l-.63,1.04c-.86-.56-1.86-.9-2.75-.9-1.1,0-1.8.58-1.8,1.35v.04c0,.88,1.15,1.22,2.39,1.6,1.44.43,2.99.99,2.99,2.67v.04c0,1.76-1.46,2.79-3.31,2.79-1.33,0-2.81-.52-3.85-1.37Z"/>
          <path class="cls-12" d="m648.55,252.58h1.58v1.53h-1.58v-1.53Zm.09,3.57h1.39v9.31h-1.39v-9.31Z"/>
          <path class="cls-12" d="m653.25,256.15h1.39v1.62c.61-1.01,1.58-1.82,3.19-1.82,2.25,0,3.57,1.51,3.57,3.73v5.78h-1.39v-5.44c0-1.73-.94-2.81-2.57-2.81s-2.79,1.17-2.79,2.92v5.33h-1.39v-9.31Z"/>
          <path class="cls-12" d="m663.76,260.85v-.04c0-2.63,2.05-4.86,4.77-4.86,1.76,0,2.86.74,3.73,1.66l-.92.97c-.74-.77-1.57-1.4-2.83-1.4-1.89,0-3.33,1.6-3.33,3.6v.04c0,2.02,1.48,3.62,3.42,3.62,1.19,0,2.11-.59,2.84-1.39l.88.83c-.94,1.04-2.05,1.8-3.8,1.8-2.72,0-4.77-2.21-4.77-4.83Z"/>
          <path class="cls-12" d="m674.62,256.15h1.39v2.43c.68-1.55,2.03-2.67,3.8-2.59v1.49h-.11c-2.03,0-3.69,1.46-3.69,4.27v3.71h-1.39v-9.31Z"/>
          <path class="cls-12" d="m680.94,260.83v-.04c0-2.68,1.89-4.84,4.47-4.84,2.75,0,4.34,2.2,4.34,4.92,0,.18,0,.29-.02.45h-7.38c.2,2.02,1.62,3.15,3.28,3.15,1.28,0,2.18-.52,2.93-1.31l.86.77c-.94,1.04-2.07,1.75-3.83,1.75-2.56,0-4.65-1.96-4.65-4.84Zm7.4-.54c-.14-1.69-1.12-3.17-2.97-3.17-1.62,0-2.84,1.35-3.03,3.17h6Z"/>
          <path class="cls-12" d="m691.47,262.75v-.04c0-1.96,1.62-3.01,3.98-3.01,1.19,0,2.04.16,2.86.4v-.32c0-1.67-1.03-2.54-2.77-2.54-1.1,0-1.96.29-2.83.68l-.41-1.13c1.03-.47,2.03-.77,3.38-.77s2.32.34,3.01,1.03c.63.63.95,1.53.95,2.72v5.69h-1.33v-1.4c-.65.85-1.73,1.6-3.37,1.6-1.73,0-3.47-.99-3.47-2.9Zm6.86-.72v-.9c-.68-.2-1.6-.4-2.74-.4-1.75,0-2.72.76-2.72,1.93v.04c0,1.17,1.08,1.85,2.34,1.85,1.71,0,3.11-1.04,3.11-2.52Z"/>
          <path class="cls-12" d="m701.82,264.27l.7-.99c1.01.76,2.12,1.19,3.22,1.19s1.93-.58,1.93-1.48v-.04c0-.94-1.1-1.3-2.32-1.64-1.46-.41-3.08-.92-3.08-2.63v-.04c0-1.6,1.33-2.67,3.17-2.67,1.13,0,2.39.4,3.35,1.03l-.63,1.04c-.86-.56-1.85-.9-2.75-.9-1.1,0-1.8.58-1.8,1.35v.04c0,.88,1.15,1.22,2.4,1.6,1.44.43,2.99.99,2.99,2.67v.04c0,1.76-1.46,2.79-3.31,2.79-1.33,0-2.81-.52-3.85-1.37Z"/>
          <path class="cls-12" d="m710.98,260.83v-.04c0-2.68,1.89-4.84,4.46-4.84,2.75,0,4.34,2.2,4.34,4.92,0,.18,0,.29-.02.45h-7.38c.2,2.02,1.62,3.15,3.28,3.15,1.28,0,2.18-.52,2.93-1.31l.86.77c-.94,1.04-2.07,1.75-3.83,1.75-2.56,0-4.65-1.96-4.65-4.84Zm7.4-.54c-.14-1.69-1.12-3.17-2.97-3.17-1.62,0-2.84,1.35-3.02,3.17h6Z"/>
          <path class="cls-12" d="m721.67,260.83v-.04c0-3.04,2.21-4.84,4.45-4.84,1.73,0,2.84.94,3.57,1.98v-5.62h1.39v13.14h-1.39v-1.87c-.76,1.12-1.85,2.07-3.57,2.07-2.23,0-4.45-1.76-4.45-4.83Zm8.07-.02v-.04c0-2.14-1.64-3.58-3.37-3.58s-3.28,1.33-3.28,3.58v.04c0,2.2,1.51,3.6,3.28,3.6s3.37-1.46,3.37-3.6Z"/>
          <path class="cls-12" d="m740.05,262.99v-5.62h-1.3v-1.22h1.3v-2.81h1.39v2.81h2.95v1.22h-2.95v5.44c0,1.13.63,1.55,1.57,1.55.47,0,.86-.09,1.35-.32v1.19c-.49.25-1.01.4-1.67.4-1.49,0-2.63-.74-2.63-2.63Z"/>
          <path class="cls-12" d="m745.99,260.85v-.04c0-2.63,2.05-4.86,4.86-4.86s4.84,2.2,4.84,4.83v.04c0,2.63-2.07,4.86-4.88,4.86s-4.83-2.2-4.83-4.83Zm8.28,0v-.04c0-2-1.49-3.64-3.46-3.64s-3.4,1.64-3.4,3.6v.04c0,2,1.48,3.62,3.44,3.62s3.42-1.62,3.42-3.58Z"/>
          <path class="cls-12" d="m765.27,254.24l-2.38.74-.34-1.15,3.08-1.06h1.04v12.69h-1.4v-11.22Z"/>
          <path class="cls-12" d="m769.6,259.19v-.04c0-3.53,2.11-6.52,5.35-6.52s5.29,2.95,5.29,6.48v.04c0,3.53-2.09,6.52-5.33,6.52s-5.31-2.95-5.31-6.48Zm9.17,0v-.04c0-2.75-1.51-5.22-3.85-5.22s-3.83,2.41-3.83,5.19v.04c0,2.75,1.51,5.22,3.87,5.22s3.82-2.43,3.82-5.19Z"/>
          <path class="cls-12" d="m782.47,259.19v-.04c0-3.53,2.11-6.52,5.35-6.52s5.29,2.95,5.29,6.48v.04c0,3.53-2.09,6.52-5.33,6.52s-5.31-2.95-5.31-6.48Zm9.17,0v-.04c0-2.75-1.51-5.22-3.85-5.22s-3.83,2.41-3.83,5.19v.04c0,2.75,1.51,5.22,3.87,5.22s3.82-2.43,3.82-5.19Z"/>
          <path class="cls-12" d="m801.18,256.15h1.39v1.57c.61-.92,1.44-1.76,3.01-1.76s2.48.81,2.99,1.85c.67-1.03,1.66-1.85,3.28-1.85,2.14,0,3.46,1.44,3.46,3.75v5.76h-1.39v-5.44c0-1.8-.9-2.81-2.41-2.81-1.41,0-2.58,1.04-2.58,2.88v5.37h-1.37v-5.47c0-1.75-.92-2.77-2.39-2.77s-2.59,1.22-2.59,2.93v5.31h-1.39v-9.31Z"/>
          <path class="cls-12" d="m818.13,267.08l.63-1.08c1.06.77,2.25,1.19,3.58,1.19,2.05,0,3.38-1.13,3.38-3.31v-1.1c-.81,1.08-1.94,1.96-3.66,1.96-2.23,0-4.38-1.67-4.38-4.36v-.04c0-2.72,2.16-4.39,4.38-4.39,1.75,0,2.88.86,3.64,1.87v-1.67h1.39v7.69c0,1.44-.43,2.54-1.19,3.29-.83.83-2.07,1.24-3.55,1.24-1.55,0-2.99-.43-4.23-1.3Zm7.63-6.72v-.04c0-1.91-1.66-3.15-3.42-3.15s-3.22,1.22-3.22,3.13v.04c0,1.87,1.5,3.17,3.22,3.17s3.42-1.28,3.42-3.15Z"/>
          <path class="cls-12" d="m835.01,260.85v-.04c0-2.63,2.05-4.86,4.86-4.86s4.84,2.2,4.84,4.83v.04c0,2.63-2.07,4.86-4.88,4.86s-4.83-2.2-4.83-4.83Zm8.28,0v-.04c0-2-1.49-3.64-3.46-3.64s-3.4,1.64-3.4,3.6v.04c0,2,1.48,3.62,3.44,3.62s3.42-1.62,3.42-3.58Z"/>
          <path class="cls-12" d="m847.22,256.15h1.39v1.62c.61-1.01,1.58-1.82,3.19-1.82,2.25,0,3.57,1.51,3.57,3.73v5.78h-1.39v-5.44c0-1.73-.94-2.81-2.58-2.81s-2.79,1.17-2.79,2.92v5.33h-1.39v-9.31Z"/>
          <path class="cls-12" d="m857.73,260.85v-.04c0-2.63,2.05-4.86,4.77-4.86,1.76,0,2.86.74,3.73,1.66l-.92.97c-.74-.77-1.57-1.4-2.83-1.4-1.89,0-3.33,1.6-3.33,3.6v.04c0,2.02,1.48,3.62,3.42,3.62,1.19,0,2.11-.59,2.84-1.39l.88.83c-.94,1.04-2.05,1.8-3.8,1.8-2.72,0-4.77-2.21-4.77-4.83Z"/>
          <path class="cls-12" d="m867.74,260.83v-.04c0-2.68,1.89-4.84,4.46-4.84,2.75,0,4.34,2.2,4.34,4.92,0,.18,0,.29-.02.45h-7.38c.2,2.02,1.62,3.15,3.28,3.15,1.28,0,2.18-.52,2.93-1.31l.86.77c-.94,1.04-2.07,1.75-3.83,1.75-2.56,0-4.65-1.96-4.65-4.84Zm7.4-.54c-.14-1.69-1.12-3.17-2.97-3.17-1.62,0-2.84,1.35-3.02,3.17h6Z"/>
          <path class="cls-12" d="m681.22,282.43v-.04c0-3.04,2.21-4.84,4.45-4.84,1.73,0,2.84.94,3.56,1.98v-5.62h1.39v13.14h-1.39v-1.87c-.76,1.12-1.85,2.07-3.56,2.07-2.23,0-4.45-1.76-4.45-4.83Zm8.07-.02v-.04c0-2.14-1.64-3.58-3.37-3.58s-3.28,1.33-3.28,3.58v.04c0,2.2,1.51,3.6,3.28,3.6s3.37-1.46,3.37-3.6Z"/>
          <path class="cls-12" d="m693.01,284.36v-.04c0-1.96,1.62-3.01,3.98-3.01,1.19,0,2.03.16,2.86.4v-.32c0-1.67-1.03-2.54-2.77-2.54-1.1,0-1.96.29-2.83.68l-.41-1.13c1.03-.47,2.04-.77,3.39-.77s2.32.34,3.01,1.03c.63.63.95,1.53.95,2.72v5.69h-1.33v-1.4c-.65.85-1.73,1.6-3.37,1.6-1.73,0-3.48-.99-3.48-2.9Zm6.86-.72v-.9c-.68-.2-1.6-.4-2.74-.4-1.75,0-2.72.76-2.72,1.93v.04c0,1.17,1.08,1.85,2.34,1.85,1.71,0,3.12-1.04,3.12-2.52Z"/>
          <path class="cls-12" d="m704.17,274.18h1.58v1.53h-1.58v-1.53Zm.09,3.57h1.39v9.31h-1.39v-9.31Z"/>
          <path class="cls-12" d="m709,273.91h1.39v13.14h-1.39v-13.14Z"/>
          <path class="cls-12" d="m720.57,277.75h1.48l-3.91,9.61c-.79,1.93-1.69,2.63-3.1,2.63-.77,0-1.35-.16-1.98-.47l.47-1.1c.45.23.86.34,1.46.34.83,0,1.35-.43,1.91-1.75l-4.23-9.27h1.53l3.38,7.76,2.99-7.76Z"/>
          <path class="cls-12" d="m729.07,282.45v-.04c0-2.63,2.05-4.86,4.86-4.86s4.84,2.2,4.84,4.83v.04c0,2.63-2.07,4.86-4.88,4.86s-4.83-2.2-4.83-4.83Zm8.28,0v-.04c0-2-1.49-3.64-3.46-3.64s-3.4,1.64-3.4,3.6v.04c0,2,1.48,3.62,3.44,3.62s3.42-1.62,3.42-3.58Z"/>
          <path class="cls-12" d="m739.81,277.75h1.53l3.13,7.72,3.15-7.72h1.5l-4.05,9.38h-1.22l-4.03-9.38Z"/>
          <path class="cls-12" d="m750.18,282.43v-.04c0-2.68,1.89-4.84,4.47-4.84,2.75,0,4.34,2.2,4.34,4.92,0,.18,0,.29-.02.45h-7.38c.2,2.02,1.62,3.15,3.28,3.15,1.28,0,2.18-.52,2.93-1.31l.86.77c-.94,1.04-2.07,1.75-3.83,1.75-2.56,0-4.65-1.96-4.65-4.84Zm7.4-.54c-.14-1.69-1.12-3.17-2.97-3.17-1.62,0-2.84,1.35-3.03,3.17h6Z"/>
          <path class="cls-12" d="m761.41,277.75h1.39v2.43c.68-1.55,2.03-2.67,3.8-2.59v1.49h-.11c-2.03,0-3.69,1.46-3.69,4.27v3.71h-1.39v-9.31Z"/>
          <path class="cls-12" d="m773.42,285.96l4.57-4.03c1.93-1.73,2.63-2.7,2.63-3.96,0-1.48-1.17-2.41-2.54-2.41-1.44,0-2.38.76-3.38,2.16l-1.04-.76c1.13-1.69,2.32-2.68,4.54-2.68s3.91,1.51,3.91,3.57v.04c0,1.84-.97,2.97-3.19,4.9l-3.37,2.99h6.68v1.3h-8.8v-1.1Z"/>
          <path class="cls-12" d="m789.49,277.75h1.48l2.45,7.47,2.5-7.51h1.15l2.52,7.51,2.45-7.47h1.44l-3.28,9.38h-1.21l-2.5-7.35-2.52,7.35h-1.22l-3.26-9.38Z"/>
          <path class="cls-12" d="m804.76,282.43v-.04c0-2.68,1.89-4.84,4.46-4.84,2.75,0,4.34,2.2,4.34,4.92,0,.18,0,.29-.02.45h-7.38c.2,2.02,1.62,3.15,3.28,3.15,1.28,0,2.18-.52,2.93-1.31l.86.77c-.94,1.04-2.07,1.75-3.83,1.75-2.56,0-4.65-1.96-4.65-4.84Zm7.4-.54c-.14-1.69-1.12-3.17-2.97-3.17-1.62,0-2.84,1.35-3.02,3.17h6Z"/>
          <path class="cls-12" d="m815.41,282.43v-.04c0-2.68,1.89-4.84,4.47-4.84,2.75,0,4.34,2.2,4.34,4.92,0,.18,0,.29-.02.45h-7.38c.2,2.02,1.62,3.15,3.28,3.15,1.28,0,2.18-.52,2.93-1.31l.86.77c-.94,1.04-2.07,1.75-3.83,1.75-2.56,0-4.65-1.96-4.65-4.84Zm7.4-.54c-.14-1.69-1.12-3.17-2.97-3.17-1.62,0-2.84,1.35-3.03,3.17h6Z"/>
          <path class="cls-12" d="m826.64,273.91h1.39v9.07l5.02-5.24h1.73l-3.91,4,4.03,5.31h-1.66l-3.33-4.34-1.89,1.91v2.43h-1.39v-13.14Z"/>
          <path class="cls-12" d="m835.99,285.87l.7-.99c1.01.76,2.12,1.19,3.22,1.19s1.93-.58,1.93-1.48v-.04c0-.94-1.1-1.3-2.32-1.64-1.46-.41-3.08-.92-3.08-2.63v-.04c0-1.6,1.33-2.67,3.17-2.67,1.13,0,2.4.4,3.35,1.03l-.63,1.04c-.86-.56-1.86-.9-2.75-.9-1.1,0-1.8.58-1.8,1.35v.04c0,.88,1.15,1.22,2.39,1.6,1.44.43,2.99.99,2.99,2.67v.04c0,1.76-1.46,2.79-3.31,2.79-1.33,0-2.81-.52-3.85-1.37Z"/>
        </g>
        <g>
          <line class="cls-15" x1="762.2" y1="145.82" x2="762.2" y2="145.82"/>
          <line class="cls-16" x1="762.2" y1="152.44" x2="762.2" y2="169.01"/>
          <line class="cls-15" x1="762.2" y1="172.32" x2="762.2" y2="172.32"/>
        </g>
      </g>
      <g id="info_btn_2" data-name="therapy_2" class="timeline--btn tooltip" title="Click here">
        <g id="active_info_btn_2" class="active-btn">
          <circle class="cls-2" cx="762.2" cy="122.06" r="21.89"/>
          <circle class="cls-6" cx="762.2" cy="122.06" r="19.98"/>
          <g>
            <path class="cls-7" d="m767,132.45h-11.53c-1.01,0-1.84-.82-1.84-1.84,0-1.35,1.01-2.51,2.34-2.7l4.94-.78-8.33-8.33c-.91-.91-.91-2.39,0-3.3.92-.92,2.4-.92,3.31,0l2.17,2.17c.11-.36.3-.7.59-.99.84-.84,2.16-.91,3.08-.21.11-.37.3-.72.59-1.01.84-.84,2.16-.91,3.08-.21.1-.37.3-.72.59-1.01.92-.92,2.4-.92,3.31,0l4.6,5.05c1.13,1.24,1.75,2.85,1.75,4.52,0,1.79-.7,3.48-1.97,4.75l-1.92,1.92c-1.27,1.27-2.96,1.97-4.76,1.97Zm-12.76-16.41c-.29,0-.57.11-.79.33-.44.44-.44,1.15,0,1.58l9.18,9.18c.16.16.22.4.15.62-.07.22-.26.38-.49.41l-6.14.96c-.75.11-1.3.75-1.3,1.49,0,.34.27.61.61.61h11.53c1.47,0,2.85-.57,3.89-1.61l1.92-1.92c1.04-1.04,1.61-2.42,1.61-3.89,0-1.37-.51-2.69-1.43-3.7l-4.58-5.03c-.41-.41-1.12-.41-1.55.02-.22.22-.33.5-.33.79s.12.58.33.79l.05.05c.24.24.24.63,0,.86-.23.23-.61.24-.85.01h0s0,0,0,0h0s0,0,0,0h0s0,0,0,0l-1.28-1.28c-.43-.43-1.14-.43-1.57,0s-.44,1.15,0,1.58l1.28,1.28c.12.12.18.28.18.43s-.06.31-.18.43c-.24.24-.63.24-.86,0l-2.5-2.5c-.43-.43-1.14-.43-1.57,0-.44.44-.44,1.15,0,1.58l2.5,2.5c.12.12.18.28.18.43s-.06.31-.18.43c-.24.24-.63.24-.86,0l-6.12-6.12c-.22-.22-.5-.33-.79-.33Z"/>
            <path class="cls-7" d="m752.24,122.23c-.08,0-.17-.02-.25-.05-1.97-.89-3.25-2.86-3.25-5.01,0-3.04,2.47-5.51,5.51-5.51,2.15,0,4.12,1.27,5.01,3.25.14.31,0,.67-.31.81-.31.14-.67,0-.81-.31-.69-1.53-2.22-2.53-3.9-2.53-2.36,0-4.28,1.92-4.28,4.28,0,1.67.99,3.2,2.53,3.9.31.14.44.5.31.81-.1.23-.33.36-.56.36Z"/>
          </g>
        </g>
        <g id="inactive_info_btn_2" class="inactive-btn">
          <circle class="cls-9" cx="762.2" cy="122.06" r="21.89"/>
          <circle class="cls-13" cx="762.2" cy="122.06" r="19.98"/>
          <g>
            <path class="cls-5" d="m767,132.45h-11.53c-1.01,0-1.84-.82-1.84-1.84,0-1.35,1.01-2.51,2.34-2.7l4.94-.78-8.33-8.33c-.91-.91-.91-2.39,0-3.3.92-.92,2.4-.92,3.31,0l2.17,2.17c.11-.36.3-.7.59-.99.84-.84,2.16-.91,3.08-.21.11-.37.3-.72.59-1.01.84-.84,2.16-.91,3.08-.21.1-.37.3-.72.59-1.01.92-.92,2.4-.92,3.31,0l4.6,5.05c1.13,1.24,1.75,2.85,1.75,4.52,0,1.79-.7,3.48-1.97,4.75l-1.92,1.92c-1.27,1.27-2.96,1.97-4.76,1.97Zm-12.76-16.41c-.29,0-.57.11-.79.33-.44.44-.44,1.15,0,1.58l9.18,9.18c.16.16.22.4.15.62-.07.22-.26.38-.49.41l-6.14.96c-.75.11-1.3.75-1.3,1.49,0,.34.27.61.61.61h11.53c1.47,0,2.85-.57,3.89-1.61l1.92-1.92c1.04-1.04,1.61-2.42,1.61-3.89,0-1.37-.51-2.69-1.43-3.7l-4.58-5.03c-.41-.41-1.12-.41-1.55.02-.22.22-.33.5-.33.79s.12.58.33.79l.05.05c.24.24.24.63,0,.86-.23.23-.61.24-.85.01h0s0,0,0,0h0s0,0,0,0h0s0,0,0,0l-1.28-1.28c-.43-.43-1.14-.43-1.57,0s-.44,1.15,0,1.58l1.28,1.28c.12.12.18.28.18.43s-.06.31-.18.43c-.24.24-.63.24-.86,0l-2.5-2.5c-.43-.43-1.14-.43-1.57,0-.44.44-.44,1.15,0,1.58l2.5,2.5c.12.12.18.28.18.43s-.06.31-.18.43c-.24.24-.63.24-.86,0l-6.12-6.12c-.22-.22-.5-.33-.79-.33Z"/>
            <path class="cls-5" d="m752.24,122.23c-.08,0-.17-.02-.25-.05-1.97-.89-3.25-2.86-3.25-5.01,0-3.04,2.47-5.51,5.51-5.51,2.15,0,4.12,1.27,5.01,3.25.14.31,0,.67-.31.81-.31.14-.67,0-.81-.31-.69-1.53-2.22-2.53-3.9-2.53-2.36,0-4.28,1.92-4.28,4.28,0,1.67.99,3.2,2.53,3.9.31.14.44.5.31.81-.1.23-.33.36-.56.36Z"/>
          </g>
        </g>
      </g>
      <g id="info_text_1">
        <g>
          <path class="cls-12" d="m587.35.54h5.42c1.55,0,2.79.47,3.58,1.26.61.61.97,1.5.97,2.49v.04c0,2.09-1.44,3.31-3.42,3.67l3.87,5.15h-1.75l-3.65-4.9h-3.6v4.9h-1.42V.54Zm5.29,6.43c1.89,0,3.24-.97,3.24-2.59v-.04c0-1.55-1.19-2.48-3.22-2.48h-3.89v5.11h3.87Z"/>
          <path class="cls-12" d="m599.37,8.53v-.04c0-2.63,2.05-4.86,4.86-4.86s4.84,2.2,4.84,4.83v.04c0,2.63-2.07,4.86-4.88,4.86s-4.83-2.2-4.83-4.83Zm8.28,0v-.04c0-2-1.49-3.64-3.46-3.64s-3.4,1.64-3.4,3.6v.04c0,2,1.48,3.62,3.44,3.62s3.42-1.62,3.42-3.58Z"/>
          <path class="cls-12" d="m611.58,0h1.39v5.46c.61-1.01,1.58-1.82,3.19-1.82,2.25,0,3.56,1.51,3.56,3.73v5.78h-1.39v-5.44c0-1.73-.94-2.81-2.57-2.81s-2.79,1.17-2.79,2.92v5.33h-1.39V0Z"/>
          <path class="cls-12" d="m621.96,10.44v-.04c0-1.96,1.62-3.01,3.98-3.01,1.19,0,2.03.16,2.86.4v-.32c0-1.67-1.03-2.54-2.77-2.54-1.1,0-1.96.29-2.83.68l-.41-1.13c1.03-.47,2.03-.77,3.39-.77s2.32.34,3.01,1.03c.63.63.95,1.53.95,2.72v5.69h-1.33v-1.4c-.65.85-1.73,1.6-3.37,1.6-1.73,0-3.48-.99-3.48-2.9Zm6.86-.72v-.9c-.68-.2-1.6-.4-2.74-.4-1.75,0-2.72.76-2.72,1.93v.04c0,1.17,1.08,1.85,2.34,1.85,1.71,0,3.11-1.04,3.11-2.52Z"/>
          <path class="cls-12" d="m633.09,3.83h1.39v1.62c.61-1.01,1.58-1.82,3.19-1.82,2.25,0,3.56,1.51,3.56,3.73v5.78h-1.39v-5.44c0-1.73-.94-2.81-2.57-2.81s-2.79,1.17-2.79,2.92v5.33h-1.39V3.83Z"/>
          <path class="cls-12" d="m648.8,11.96l.7-.99c1.01.76,2.12,1.19,3.22,1.19s1.93-.58,1.93-1.48v-.04c0-.94-1.1-1.3-2.32-1.64-1.46-.41-3.08-.92-3.08-2.63v-.04c0-1.6,1.33-2.67,3.17-2.67,1.13,0,2.4.4,3.35,1.03l-.63,1.04c-.86-.56-1.85-.9-2.75-.9-1.1,0-1.8.58-1.8,1.35v.04c0,.88,1.15,1.22,2.4,1.6,1.44.43,2.99.99,2.99,2.67v.04c0,1.76-1.46,2.79-3.31,2.79-1.33,0-2.81-.52-3.85-1.37Z"/>
          <path class="cls-12" d="m658.85,10.68v-5.62h-1.3v-1.22h1.3V1.03h1.39v2.81h2.95v1.22h-2.95v5.44c0,1.13.63,1.55,1.57,1.55.47,0,.86-.09,1.35-.32v1.19c-.49.25-1.01.4-1.67.4-1.49,0-2.63-.74-2.63-2.63Z"/>
          <path class="cls-12" d="m664.93,10.44v-.04c0-1.96,1.62-3.01,3.98-3.01,1.19,0,2.03.16,2.86.4v-.32c0-1.67-1.03-2.54-2.77-2.54-1.1,0-1.96.29-2.83.68l-.41-1.13c1.03-.47,2.03-.77,3.39-.77s2.32.34,3.01,1.03c.63.63.95,1.53.95,2.72v5.69h-1.33v-1.4c-.65.85-1.73,1.6-3.37,1.6-1.73,0-3.48-.99-3.48-2.9Zm6.86-.72v-.9c-.68-.2-1.6-.4-2.74-.4-1.75,0-2.72.76-2.72,1.93v.04c0,1.17,1.08,1.85,2.34,1.85,1.71,0,3.12-1.04,3.12-2.52Z"/>
          <path class="cls-12" d="m676.05,3.83h1.39v2.43c.68-1.55,2.03-2.67,3.8-2.59v1.49h-.11c-2.03,0-3.69,1.46-3.69,4.27v3.71h-1.39V3.83Z"/>
          <path class="cls-12" d="m683.83,10.68v-5.62h-1.3v-1.22h1.3V1.03h1.39v2.81h2.95v1.22h-2.95v5.44c0,1.13.63,1.55,1.57,1.55.47,0,.86-.09,1.35-.32v1.19c-.49.25-1.01.4-1.67.4-1.49,0-2.63-.74-2.63-2.63Z"/>
          <path class="cls-12" d="m689.77,8.52v-.04c0-2.68,1.89-4.84,4.47-4.84,2.75,0,4.34,2.2,4.34,4.92,0,.18,0,.29-.02.45h-7.38c.2,2.02,1.62,3.15,3.28,3.15,1.28,0,2.18-.52,2.93-1.31l.86.77c-.94,1.04-2.07,1.75-3.83,1.75-2.56,0-4.65-1.96-4.65-4.84Zm7.4-.54c-.14-1.69-1.12-3.17-2.97-3.17-1.62,0-2.85,1.35-3.03,3.17h6Z"/>
          <path class="cls-12" d="m700.46,8.52v-.04c0-3.04,2.21-4.84,4.45-4.84,1.73,0,2.84.94,3.56,1.98V0h1.39v13.14h-1.39v-1.87c-.76,1.12-1.85,2.07-3.56,2.07-2.23,0-4.45-1.76-4.45-4.83Zm8.07-.02v-.04c0-2.14-1.64-3.58-3.37-3.58s-3.28,1.33-3.28,3.58v.04c0,2.2,1.51,3.6,3.28,3.6s3.37-1.46,3.37-3.6Z"/>
          <path class="cls-12" d="m723.97,10.42h-6.16l-.45-1.96,6.91-8.01h2.34v7.72h1.69v2.25h-1.69v2.72h-2.65v-2.72Zm0-2.25v-3.92l-3.35,3.92h3.35Z"/>
          <path class="cls-12" d="m730.18,6.88v-.04c0-3.66,2.27-6.52,5.62-6.52s5.58,2.83,5.58,6.48v.04c0,3.66-2.25,6.52-5.62,6.52s-5.58-2.83-5.58-6.48Zm8.35,0v-.04c0-2.29-1.12-4.02-2.77-4.02s-2.74,1.67-2.74,3.98v.04c0,2.3,1.1,4.01,2.77,4.01s2.74-1.69,2.74-3.98Z"/>
          <path class="cls-12" d="m748.97,3.49h2.74v1.37c.63-.81,1.46-1.55,2.84-1.55,1.26,0,2.21.56,2.72,1.53.85-.99,1.85-1.53,3.17-1.53,2.03,0,3.26,1.22,3.26,3.55v6.28h-2.74v-5.38c0-1.3-.58-1.96-1.6-1.96s-1.66.67-1.66,1.96v5.38h-2.74v-5.38c0-1.3-.58-1.96-1.6-1.96s-1.66.67-1.66,1.96v5.38h-2.74V3.49Z"/>
          <path class="cls-12" d="m766.12,15.05l.94-2.05c.99.56,1.98.88,3.26.88,1.87,0,2.75-.9,2.75-2.63v-.47c-.81.97-1.69,1.57-3.15,1.57-2.25,0-4.29-1.64-4.29-4.5v-.04c0-2.88,2.07-4.5,4.29-4.5,1.49,0,2.38.63,3.11,1.44v-1.26h2.74v7.47c0,1.73-.41,2.99-1.22,3.8-.9.9-2.29,1.3-4.16,1.3-1.57,0-3.04-.36-4.27-1.01Zm6.95-7.2v-.04c0-1.31-1.03-2.23-2.36-2.23s-2.34.92-2.34,2.23v.04c0,1.33,1.01,2.23,2.34,2.23s2.36-.92,2.36-2.23Z"/>
          <path class="cls-12" d="m541.87,25.09h2.74v1.39c.67-.9,1.58-1.57,3.01-1.57,2.25,0,4.39,1.76,4.39,4.99v.04c0,3.22-2.11,4.99-4.39,4.99-1.46,0-2.36-.67-3.01-1.44v4.14h-2.74v-12.53Zm7.4,4.84v-.04c0-1.6-1.08-2.66-2.36-2.66s-2.34,1.06-2.34,2.66v.04c0,1.6,1.06,2.67,2.34,2.67s2.36-1.04,2.36-2.67Z"/>
          <path class="cls-12" d="m554.02,25.09h2.74v1.94c.56-1.33,1.46-2.2,3.08-2.12v2.86h-.14c-1.82,0-2.93,1.1-2.93,3.4v3.57h-2.74v-9.65Z"/>
          <path class="cls-12" d="m560.81,29.97v-.04c0-2.75,1.96-5.02,4.77-5.02,3.22,0,4.7,2.5,4.7,5.24,0,.22-.02.47-.04.72h-6.72c.27,1.24,1.13,1.89,2.36,1.89.92,0,1.58-.29,2.34-.99l1.57,1.39c-.9,1.12-2.2,1.8-3.94,1.8-2.9,0-5.04-2.03-5.04-4.99Zm6.81-.81c-.16-1.22-.88-2.05-2.03-2.05s-1.87.81-2.09,2.05h4.12Z"/>
          <path class="cls-12" d="m571.88,29.94v-.04c0-3.22,2.11-4.99,4.39-4.99,1.46,0,2.36.67,3.01,1.44v-4.75h2.74v13.14h-2.74v-1.39c-.67.9-1.58,1.57-3.01,1.57-2.25,0-4.39-1.76-4.39-4.99Zm7.44,0v-.04c0-1.6-1.06-2.66-2.34-2.66s-2.36,1.04-2.36,2.66v.04c0,1.6,1.08,2.67,2.36,2.67s2.34-1.06,2.34-2.67Z"/>
          <path class="cls-12" d="m584.46,25.09h2.74v1.37c.63-.81,1.44-1.55,2.83-1.55,2.07,0,3.28,1.37,3.28,3.58v6.25h-2.74v-5.38c0-1.3-.61-1.96-1.66-1.96s-1.71.67-1.71,1.96v5.38h-2.74v-9.65Z"/>
          <path class="cls-12" d="m595.73,21.6h2.88v2.43h-2.88v-2.43Zm.07,3.49h2.74v9.65h-2.74v-9.65Z"/>
          <path class="cls-12" d="m600.35,33.47l1.17-1.8c1.04.76,2.14,1.15,3.04,1.15.79,0,1.15-.29,1.15-.72v-.04c0-.59-.94-.79-2-1.12-1.35-.4-2.88-1.03-2.88-2.9v-.04c0-1.96,1.58-3.06,3.53-3.06,1.22,0,2.56.41,3.6,1.12l-1.04,1.89c-.95-.56-1.91-.9-2.61-.9-.67,0-1.01.29-1.01.67v.04c0,.54.92.79,1.96,1.15,1.35.45,2.92,1.1,2.92,2.86v.04c0,2.14-1.6,3.11-3.69,3.11-1.35,0-2.86-.45-4.14-1.46Z"/>
          <path class="cls-12" d="m609.68,29.97v-.04c0-2.77,2.23-5.02,5.24-5.02s5.2,2.21,5.2,4.99v.04c0,2.77-2.23,5.02-5.24,5.02s-5.2-2.21-5.2-4.99Zm7.74,0v-.04c0-1.42-1.03-2.67-2.54-2.67s-2.5,1.21-2.5,2.63v.04c0,1.42,1.03,2.67,2.54,2.67s2.5-1.21,2.5-2.63Z"/>
          <path class="cls-12" d="m622.22,21.6h2.74v13.14h-2.74v-13.14Z"/>
          <path class="cls-12" d="m627.07,29.97v-.04c0-2.77,2.23-5.02,5.24-5.02s5.2,2.21,5.2,4.99v.04c0,2.77-2.23,5.02-5.24,5.02s-5.2-2.21-5.2-4.99Zm7.74,0v-.04c0-1.42-1.03-2.67-2.54-2.67s-2.5,1.21-2.5,2.63v.04c0,1.42,1.03,2.67,2.54,2.67s2.5-1.21,2.5-2.63Z"/>
          <path class="cls-12" d="m639.49,25.09h2.74v1.37c.63-.81,1.44-1.55,2.83-1.55,2.07,0,3.28,1.37,3.28,3.58v6.25h-2.74v-5.38c0-1.3-.61-1.96-1.66-1.96s-1.71.67-1.71,1.96v5.38h-2.74v-9.65Z"/>
          <path class="cls-12" d="m650.23,29.97v-.04c0-2.75,1.96-5.02,4.77-5.02,3.22,0,4.7,2.5,4.7,5.24,0,.22-.02.47-.04.72h-6.72c.27,1.24,1.13,1.89,2.36,1.89.92,0,1.58-.29,2.34-.99l1.57,1.39c-.9,1.12-2.2,1.8-3.94,1.8-2.9,0-5.04-2.03-5.04-4.99Zm6.81-.81c-.16-1.22-.88-2.05-2.03-2.05s-1.87.81-2.09,2.05h4.12Z"/>
          <path class="cls-12" d="m660.8,36.53c1.24-.13,1.85-.76,1.76-1.78h-1.12v-2.88h2.92v2.43c0,2.38-1.19,3.33-3.33,3.37l-.23-1.13Z"/>
          <path class="cls-12" d="m672.55,32.01v-4.57h-1.15v-2.34h1.15v-2.47h2.74v2.47h2.27v2.34h-2.27v4.12c0,.63.27.94.88.94.5,0,.95-.13,1.35-.34v2.2c-.58.34-1.24.56-2.16.56-1.67,0-2.81-.67-2.81-2.9Z"/>
          <path class="cls-12" d="m679,31.97v-.04c0-2.11,1.6-3.08,3.89-3.08.97,0,1.67.16,2.36.4v-.16c0-1.13-.7-1.76-2.07-1.76-1.04,0-1.78.2-2.66.52l-.68-2.09c1.06-.47,2.11-.77,3.75-.77,1.49,0,2.57.4,3.26,1.08.72.72,1.04,1.78,1.04,3.08v5.6h-2.65v-1.04c-.67.74-1.58,1.22-2.92,1.22-1.82,0-3.31-1.04-3.31-2.95Zm6.28-.63v-.49c-.47-.22-1.08-.36-1.75-.36-1.17,0-1.89.47-1.89,1.33v.04c0,.74.61,1.17,1.49,1.17,1.28,0,2.14-.7,2.14-1.69Z"/>
          <path class="cls-12" d="m690.23,25.09h2.74v1.39c.67-.9,1.58-1.57,3.01-1.57,2.25,0,4.39,1.76,4.39,4.99v.04c0,3.22-2.11,4.99-4.39,4.99-1.46,0-2.36-.67-3.01-1.44v4.14h-2.74v-12.53Zm7.4,4.84v-.04c0-1.6-1.08-2.66-2.36-2.66s-2.34,1.06-2.34,2.66v.04c0,1.6,1.06,2.67,2.34,2.67s2.36-1.04,2.36-2.67Z"/>
          <path class="cls-12" d="m701.91,29.97v-.04c0-2.75,1.96-5.02,4.77-5.02,3.22,0,4.7,2.5,4.7,5.24,0,.22-.02.47-.04.72h-6.72c.27,1.24,1.13,1.89,2.36,1.89.92,0,1.58-.29,2.34-.99l1.57,1.39c-.9,1.12-2.2,1.8-3.94,1.8-2.9,0-5.04-2.03-5.04-4.99Zm6.81-.81c-.16-1.22-.88-2.05-2.03-2.05s-1.87.81-2.09,2.05h4.12Z"/>
          <path class="cls-12" d="m713.41,25.09h2.74v1.94c.56-1.33,1.46-2.2,3.08-2.12v2.86h-.14c-1.82,0-2.93,1.1-2.93,3.4v3.57h-2.74v-9.65Z"/>
          <path class="cls-12" d="m720.2,29.97v-.04c0-2.75,1.96-5.02,4.77-5.02,3.22,0,4.7,2.5,4.7,5.24,0,.22-.02.47-.04.72h-6.72c.27,1.24,1.13,1.89,2.36,1.89.92,0,1.58-.29,2.34-.99l1.57,1.39c-.9,1.12-2.2,1.8-3.94,1.8-2.9,0-5.04-2.03-5.04-4.99Zm6.81-.81c-.16-1.22-.88-2.05-2.03-2.05s-1.87.81-2.09,2.05h4.12Z"/>
          <path class="cls-12" d="m731.27,29.94v-.04c0-3.22,2.11-4.99,4.39-4.99,1.46,0,2.36.67,3.01,1.44v-4.75h2.74v13.14h-2.74v-1.39c-.67.9-1.58,1.57-3.01,1.57-2.25,0-4.39-1.76-4.39-4.99Zm7.44,0v-.04c0-1.6-1.06-2.66-2.34-2.66s-2.36,1.04-2.36,2.66v.04c0,1.6,1.08,2.67,2.36,2.67s2.34-1.06,2.34-2.67Z"/>
          <path class="cls-12" d="m751.98,33.48v1.26h-2.74v-13.14h2.74v4.88c.67-.9,1.58-1.57,3.01-1.57,2.25,0,4.39,1.76,4.39,4.99v.04c0,3.22-2.11,4.99-4.39,4.99-1.46,0-2.36-.67-3.01-1.44Zm4.66-3.55v-.04c0-1.6-1.08-2.66-2.36-2.66s-2.34,1.06-2.34,2.66v.04c0,1.6,1.06,2.67,2.34,2.67s2.36-1.04,2.36-2.67Z"/>
          <path class="cls-12" d="m767.29,25.09h2.85l-3.71,9.88c-.74,1.96-1.53,2.7-3.17,2.7-.99,0-1.73-.25-2.43-.67l.92-1.98c.36.22.81.38,1.17.38.47,0,.72-.14.95-.63l-3.78-9.69h2.9l2.2,6.57,2.11-6.57Z"/>
          <path class="cls-12" d="m776.7,33.07l1.67-2c.95.86,1.89,1.37,3.01,1.37,1.3,0,2.11-.63,2.11-1.75v-.04c0-1.08-.92-1.71-2.23-1.71-.79,0-1.51.22-2.11.47l-1.6-1.06.36-6.21h7.74v2.43h-5.37l-.14,2.18c.5-.13.95-.22,1.66-.22,2.45,0,4.41,1.19,4.41,4.03v.04c0,2.67-1.89,4.36-4.79,4.36-2.02,0-3.49-.72-4.72-1.89Z"/>
          <path class="cls-12" d="m793.89,25.09h2.74v1.37c.63-.81,1.46-1.55,2.84-1.55,1.26,0,2.21.56,2.72,1.53.85-.99,1.85-1.53,3.17-1.53,2.03,0,3.26,1.22,3.26,3.55v6.28h-2.74v-5.38c0-1.3-.58-1.96-1.6-1.96s-1.66.67-1.66,1.96v5.38h-2.74v-5.38c0-1.3-.58-1.96-1.6-1.96s-1.66.67-1.66,1.96v5.38h-2.74v-9.65Z"/>
          <path class="cls-12" d="m811.04,36.65l.94-2.05c.99.56,1.98.88,3.26.88,1.87,0,2.75-.9,2.75-2.63v-.47c-.81.97-1.69,1.57-3.15,1.57-2.25,0-4.29-1.64-4.29-4.5v-.04c0-2.88,2.07-4.5,4.29-4.5,1.49,0,2.38.63,3.11,1.44v-1.26h2.74v7.47c0,1.73-.41,2.99-1.22,3.8-.9.9-2.29,1.3-4.16,1.3-1.57,0-3.04-.36-4.27-1.01Zm6.95-7.2v-.04c0-1.31-1.03-2.23-2.36-2.23s-2.34.92-2.34,2.23v.04c0,1.33,1.01,2.23,2.34,2.23s2.36-.92,2.36-2.23Z"/>
          <path class="cls-12" d="m565.49,51.57v-.04c0-2.75,1.96-5.02,4.77-5.02,3.22,0,4.7,2.5,4.7,5.24,0,.22-.02.47-.04.72h-6.72c.27,1.24,1.13,1.89,2.36,1.89.92,0,1.58-.29,2.34-.99l1.57,1.39c-.9,1.12-2.2,1.8-3.94,1.8-2.9,0-5.04-2.03-5.04-4.99Zm6.81-.81c-.16-1.22-.88-2.05-2.03-2.05s-1.87.81-2.09,2.05h4.12Z"/>
          <path class="cls-12" d="m575.68,46.69h2.9l2.16,6.46,2.18-6.46h2.85l-3.8,9.72h-2.48l-3.8-9.72Z"/>
          <path class="cls-12" d="m586.33,51.57v-.04c0-2.75,1.96-5.02,4.77-5.02,3.22,0,4.7,2.5,4.7,5.24,0,.22-.02.47-.04.72h-6.72c.27,1.24,1.13,1.89,2.36,1.89.92,0,1.58-.29,2.34-.99l1.57,1.39c-.9,1.12-2.2,1.8-3.94,1.8-2.9,0-5.04-2.03-5.04-4.99Zm6.81-.81c-.16-1.22-.88-2.05-2.03-2.05s-1.87.81-2.09,2.05h4.12Z"/>
          <path class="cls-12" d="m597.83,46.69h2.74v1.94c.56-1.33,1.46-2.2,3.08-2.12v2.86h-.14c-1.82,0-2.93,1.1-2.93,3.4v3.57h-2.74v-9.65Z"/>
          <path class="cls-12" d="m611.7,46.69h2.84l-3.71,9.88c-.74,1.96-1.53,2.7-3.17,2.7-.99,0-1.73-.25-2.43-.67l.92-1.98c.36.22.81.38,1.17.38.47,0,.72-.14.95-.63l-3.78-9.69h2.9l2.2,6.57,2.11-6.57Z"/>
          <path class="cls-12" d="m620.77,46.69h2.77l1.55,5.85,1.82-5.89h2.36l1.84,5.91,1.58-5.87h2.72l-3.01,9.72h-2.47l-1.85-5.92-1.89,5.92h-2.45l-2.97-9.72Z"/>
          <path class="cls-12" d="m636.14,51.57v-.04c0-2.75,1.96-5.02,4.77-5.02,3.22,0,4.7,2.5,4.7,5.24,0,.22-.02.47-.04.72h-6.72c.27,1.24,1.13,1.89,2.36,1.89.92,0,1.58-.29,2.34-.99l1.57,1.39c-.9,1.12-2.2,1.8-3.94,1.8-2.9,0-5.04-2.03-5.04-4.99Zm6.81-.81c-.16-1.22-.88-2.05-2.03-2.05s-1.87.81-2.09,2.05h4.12Z"/>
          <path class="cls-12" d="m647.17,51.57v-.04c0-2.75,1.96-5.02,4.77-5.02,3.22,0,4.7,2.5,4.7,5.24,0,.22-.02.47-.04.72h-6.72c.27,1.24,1.13,1.89,2.36,1.89.92,0,1.58-.29,2.34-.99l1.57,1.39c-.9,1.12-2.2,1.8-3.94,1.8-2.9,0-5.04-2.03-5.04-4.99Zm6.81-.81c-.16-1.22-.88-2.05-2.03-2.05s-1.87.81-2.09,2.05h4.12Z"/>
          <path class="cls-12" d="m658.67,43.2h2.74v7l3.2-3.51h3.28l-3.67,3.8,3.8,5.85h-3.17l-2.47-3.96-.97,1.03v2.93h-2.74v-13.14Z"/>
          <path class="cls-12" d="m668.57,58.13c1.24-.13,1.85-.76,1.76-1.78h-1.12v-2.88h2.92v2.43c0,2.38-1.19,3.33-3.33,3.37l-.23-1.13Z"/>
          <path class="cls-12" d="m679.41,51.57v-.04c0-2.77,2.23-5.02,5.24-5.02s5.2,2.21,5.2,4.99v.04c0,2.77-2.23,5.02-5.24,5.02s-5.2-2.21-5.2-4.99Zm7.74,0v-.04c0-1.42-1.03-2.67-2.54-2.67s-2.5,1.21-2.5,2.63v.04c0,1.42,1.03,2.67,2.54,2.67s2.5-1.21,2.5-2.63Z"/>
          <path class="cls-12" d="m690.43,46.69h2.9l2.16,6.46,2.18-6.46h2.85l-3.8,9.72h-2.48l-3.8-9.72Z"/>
          <path class="cls-12" d="m701.08,51.57v-.04c0-2.75,1.96-5.02,4.77-5.02,3.22,0,4.7,2.5,4.7,5.24,0,.22-.02.47-.04.72h-6.72c.27,1.24,1.13,1.89,2.36,1.89.92,0,1.58-.29,2.34-.99l1.57,1.39c-.9,1.12-2.2,1.8-3.94,1.8-2.9,0-5.04-2.03-5.04-4.99Zm6.81-.81c-.16-1.22-.88-2.05-2.03-2.05s-1.87.81-2.09,2.05h4.12Z"/>
          <path class="cls-12" d="m712.58,46.69h2.74v1.94c.56-1.33,1.46-2.2,3.08-2.12v2.86h-.14c-1.82,0-2.93,1.1-2.93,3.4v3.57h-2.74v-9.65Z"/>
          <path class="cls-12" d="m725.09,52.89v-.04c0-1.53.7-2.43,2.03-3.04-.97-.59-1.6-1.4-1.6-2.75v-.04c0-1.93,1.76-3.46,4.43-3.46s4.43,1.51,4.43,3.46v.04c0,1.35-.63,2.16-1.6,2.75,1.28.67,2.03,1.48,2.03,2.97v.04c0,2.34-2.07,3.71-4.86,3.71s-4.86-1.44-4.86-3.64Zm7.04-.22v-.04c0-.97-.92-1.55-2.18-1.55s-2.18.58-2.18,1.55v.04c0,.86.81,1.57,2.18,1.57s2.18-.68,2.18-1.57Zm-.38-5.31v-.04c0-.77-.67-1.48-1.8-1.48s-1.8.68-1.8,1.46v.04c0,.88.7,1.55,1.8,1.55s1.8-.65,1.8-1.53Z"/>
          <path class="cls-12" d="m741.45,46.69h2.77l1.55,5.85,1.82-5.89h2.36l1.84,5.91,1.58-5.87h2.72l-3.01,9.72h-2.47l-1.85-5.92-1.89,5.92h-2.45l-2.97-9.72Z"/>
          <path class="cls-12" d="m756.83,51.57v-.04c0-2.75,1.96-5.02,4.77-5.02,3.22,0,4.7,2.5,4.7,5.24,0,.22-.02.47-.04.72h-6.72c.27,1.24,1.13,1.89,2.36,1.89.92,0,1.58-.29,2.34-.99l1.57,1.39c-.9,1.12-2.2,1.8-3.94,1.8-2.9,0-5.04-2.03-5.04-4.99Zm6.81-.81c-.16-1.22-.88-2.05-2.03-2.05s-1.87.81-2.09,2.05h4.12Z"/>
          <path class="cls-12" d="m767.86,51.57v-.04c0-2.75,1.96-5.02,4.77-5.02,3.22,0,4.7,2.5,4.7,5.24,0,.22-.02.47-.04.72h-6.72c.27,1.24,1.13,1.89,2.36,1.89.92,0,1.58-.29,2.34-.99l1.57,1.39c-.9,1.12-2.2,1.8-3.94,1.8-2.9,0-5.04-2.03-5.04-4.99Zm6.81-.81c-.16-1.22-.88-2.05-2.03-2.05s-1.87.81-2.09,2.05h4.12Z"/>
          <path class="cls-12" d="m779.36,43.2h2.74v7l3.21-3.51h3.28l-3.67,3.8,3.8,5.85h-3.17l-2.47-3.96-.97,1.03v2.93h-2.74v-13.14Z"/>
          <path class="cls-12" d="m789.26,55.07l1.17-1.8c1.04.76,2.14,1.15,3.04,1.15.79,0,1.15-.29,1.15-.72v-.04c0-.59-.94-.79-2-1.12-1.35-.4-2.88-1.03-2.88-2.9v-.04c0-1.96,1.58-3.06,3.53-3.06,1.22,0,2.56.41,3.6,1.12l-1.04,1.89c-.95-.56-1.91-.9-2.61-.9-.67,0-1.01.29-1.01.67v.04c0,.54.92.79,1.96,1.15,1.35.45,2.92,1.1,2.92,2.86v.04c0,2.14-1.6,3.11-3.69,3.11-1.35,0-2.86-.45-4.14-1.46Z"/>
        </g>
        <g>
          <line class="cls-15" x1="681.19" y1="69.4" x2="681.19" y2="69.4"/>
          <line class="cls-16" x1="681.19" y1="76.02" x2="681.19" y2="92.59"/>
          <line class="cls-15" x1="681.19" y1="95.9" x2="681.19" y2="95.9"/>
        </g>
      </g>
      <g id="info_btn_1" data-name="therapy_1" class="timeline--btn tooltip" title="Click here">
        <g id="active_info_btn_1" class="active-btn">
          <circle class="cls-4" cx="681.19" cy="122.06" r="21.89"/>
          <circle class="cls-3" cx="681.19" cy="122.06" r="19.98"/>
          <g>
            <path class="cls-7" d="m686,132.45h-11.53c-1.01,0-1.84-.82-1.84-1.84,0-1.35,1.01-2.51,2.34-2.7l4.94-.78-8.33-8.33c-.91-.91-.91-2.39,0-3.3.92-.92,2.4-.92,3.31,0l2.17,2.17c.11-.36.3-.7.59-.99.84-.84,2.16-.91,3.08-.21.11-.37.3-.72.59-1.01.84-.84,2.16-.91,3.08-.21.1-.37.3-.72.59-1.01.92-.92,2.4-.92,3.31,0l4.6,5.05c1.13,1.24,1.75,2.85,1.75,4.52,0,1.79-.7,3.48-1.97,4.75l-1.92,1.92c-1.27,1.27-2.96,1.97-4.76,1.97Zm-12.76-16.41c-.29,0-.57.11-.79.33-.44.44-.44,1.15,0,1.58l9.18,9.18c.16.16.22.4.15.62-.07.22-.26.38-.49.41l-6.14.96c-.75.11-1.3.75-1.3,1.49,0,.34.27.61.61.61h11.53c1.47,0,2.85-.57,3.89-1.61l1.92-1.92c1.04-1.04,1.61-2.42,1.61-3.89,0-1.37-.51-2.69-1.43-3.7l-4.58-5.03c-.41-.41-1.12-.41-1.55.02-.22.22-.33.5-.33.79s.12.58.33.79l.05.05c.24.24.24.63,0,.86-.23.23-.61.24-.85.01h0s0,0,0,0h0s0,0,0,0h0s0,0,0,0l-1.28-1.28c-.43-.43-1.14-.43-1.57,0s-.44,1.15,0,1.58l1.28,1.28c.12.12.18.28.18.43s-.06.31-.18.43c-.24.24-.63.24-.86,0l-2.5-2.5c-.43-.43-1.14-.43-1.57,0-.44.44-.44,1.15,0,1.58l2.5,2.5c.12.12.18.28.18.43s-.06.31-.18.43c-.24.24-.63.24-.86,0l-6.12-6.12c-.22-.22-.5-.33-.79-.33Z"/>
            <path class="cls-7" d="m671.23,122.23c-.08,0-.17-.02-.25-.05-1.97-.89-3.25-2.86-3.25-5.01,0-3.04,2.47-5.51,5.51-5.51,2.15,0,4.12,1.27,5.01,3.25.14.31,0,.67-.31.81-.31.14-.67,0-.81-.31-.69-1.53-2.22-2.53-3.9-2.53-2.36,0-4.28,1.92-4.28,4.28,0,1.67.99,3.2,2.53,3.9.31.14.44.5.31.81-.1.23-.33.36-.56.36Z"/>
          </g>
        </g>
        <g id="inactive_info_btn_1" class="inactive-btn">
          <circle class="cls-8" cx="681.19" cy="122.06" r="21.89"/>
          <circle class="cls-11" cx="681.19" cy="122.06" r="19.98"/>
          <g>
            <path class="cls-5" d="m686.09,132.45h-11.53c-1.01,0-1.84-.82-1.84-1.84,0-1.35,1.01-2.51,2.34-2.7l4.94-.78-8.33-8.33c-.91-.91-.91-2.39,0-3.3.92-.92,2.4-.92,3.31,0l2.17,2.17c.11-.36.3-.7.59-.99.84-.84,2.16-.91,3.08-.21.11-.37.3-.72.59-1.01.84-.84,2.16-.91,3.08-.21.1-.37.3-.72.59-1.01.92-.92,2.4-.92,3.31,0l4.6,5.05c1.13,1.24,1.75,2.85,1.75,4.52,0,1.79-.7,3.48-1.97,4.75l-1.92,1.92c-1.27,1.27-2.96,1.97-4.76,1.97Zm-12.76-16.41c-.29,0-.57.11-.79.33-.44.44-.44,1.15,0,1.58l9.18,9.18c.16.16.22.4.15.62-.07.22-.26.38-.49.41l-6.14.96c-.75.11-1.3.75-1.3,1.49,0,.34.27.61.61.61h11.53c1.47,0,2.85-.57,3.89-1.61l1.92-1.92c1.04-1.04,1.61-2.42,1.61-3.89,0-1.37-.51-2.69-1.43-3.7l-4.58-5.03c-.41-.41-1.12-.41-1.55.02-.22.22-.33.5-.33.79s.12.58.33.79l.05.05c.24.24.24.63,0,.86-.23.23-.61.24-.85.01h0s0,0,0,0h0s0,0,0,0h0s0,0,0,0l-1.28-1.28c-.43-.43-1.14-.43-1.57,0s-.44,1.15,0,1.58l1.28,1.28c.12.12.18.28.18.43s-.06.31-.18.43c-.24.24-.63.24-.86,0l-2.5-2.5c-.43-.43-1.14-.43-1.57,0-.44.44-.44,1.15,0,1.58l2.5,2.5c.12.12.18.28.18.43s-.06.31-.18.43c-.24.24-.63.24-.86,0l-6.12-6.12c-.22-.22-.5-.33-.79-.33Z"/>
            <path class="cls-5" d="m671.32,122.23c-.08,0-.17-.02-.25-.05-1.97-.89-3.25-2.86-3.25-5.01,0-3.04,2.47-5.51,5.51-5.51,2.15,0,4.12,1.27,5.01,3.25.14.31,0,.67-.31.81-.31.14-.67,0-.81-.31-.69-1.53-2.22-2.53-3.9-2.53-2.36,0-4.28,1.92-4.28,4.28,0,1.67.99,3.2,2.53,3.9.31.14.44.5.31.81-.1.23-.33.36-.56.36Z"/>
          </g>
        </g>
      </g>
      <g id="june_2021_text">
        <g>
          <path class="cls-10" d="m371.82,188.05h4.92c3.96,0,6.7,2.72,6.7,6.27v.04c0,3.55-2.74,6.3-6.7,6.3h-4.92v-12.6Zm2.77,2.5v7.6h2.14c2.27,0,3.8-1.53,3.8-3.76v-.04c0-2.23-1.53-3.8-3.8-3.8h-2.14Z"/>
          <path class="cls-10" d="m385.66,187.51h2.88v2.43h-2.88v-2.43Zm.07,3.49h2.74v9.65h-2.74v-9.65Z"/>
          <path class="cls-10" d="m390.46,197.88v-.04c0-2.11,1.6-3.08,3.89-3.08.97,0,1.67.16,2.36.4v-.16c0-1.13-.7-1.76-2.07-1.76-1.04,0-1.78.2-2.66.52l-.68-2.09c1.06-.47,2.11-.77,3.75-.77,1.49,0,2.57.4,3.26,1.08.72.72,1.04,1.78,1.04,3.08v5.6h-2.65v-1.04c-.67.74-1.58,1.22-2.92,1.22-1.82,0-3.31-1.04-3.31-2.95Zm6.28-.63v-.49c-.47-.22-1.08-.36-1.75-.36-1.17,0-1.89.47-1.89,1.33v.04c0,.74.61,1.17,1.49,1.17,1.28,0,2.14-.7,2.14-1.69Z"/>
          <path class="cls-10" d="m401.75,202.56l.94-2.05c.99.56,1.98.88,3.26.88,1.87,0,2.75-.9,2.75-2.63v-.47c-.81.97-1.69,1.57-3.15,1.57-2.25,0-4.29-1.64-4.29-4.5v-.04c0-2.88,2.07-4.5,4.29-4.5,1.49,0,2.38.63,3.11,1.44v-1.26h2.74v7.47c0,1.73-.41,2.99-1.22,3.8-.9.9-2.29,1.3-4.16,1.3-1.57,0-3.04-.36-4.27-1.01Zm6.95-7.2v-.04c0-1.31-1.03-2.23-2.36-2.23s-2.34.92-2.34,2.23v.04c0,1.33,1.01,2.23,2.34,2.23s2.36-.92,2.36-2.23Z"/>
          <path class="cls-10" d="m413.84,191h2.74v1.37c.63-.81,1.44-1.55,2.83-1.55,2.07,0,3.28,1.37,3.28,3.58v6.25h-2.74v-5.38c0-1.3-.61-1.96-1.66-1.96s-1.71.67-1.71,1.96v5.38h-2.74v-9.65Z"/>
          <path class="cls-10" d="m424.59,195.88v-.04c0-2.77,2.23-5.02,5.24-5.02s5.2,2.21,5.2,4.99v.04c0,2.77-2.23,5.02-5.24,5.02s-5.2-2.21-5.2-4.99Zm7.74,0v-.04c0-1.42-1.03-2.67-2.54-2.67s-2.5,1.21-2.5,2.63v.04c0,1.42,1.03,2.67,2.54,2.67s2.5-1.21,2.5-2.63Z"/>
          <path class="cls-10" d="m436.25,199.38l1.17-1.8c1.04.76,2.14,1.15,3.04,1.15.79,0,1.15-.29,1.15-.72v-.04c0-.59-.94-.79-2-1.12-1.35-.4-2.88-1.03-2.88-2.9v-.04c0-1.96,1.58-3.06,3.53-3.06,1.22,0,2.56.41,3.6,1.12l-1.04,1.89c-.95-.56-1.91-.9-2.61-.9-.67,0-1.01.29-1.01.67v.04c0,.54.92.79,1.96,1.15,1.35.45,2.92,1.1,2.92,2.86v.04c0,2.14-1.6,3.11-3.69,3.11-1.35,0-2.86-.45-4.14-1.46Z"/>
          <path class="cls-10" d="m446.1,187.51h2.88v2.43h-2.88v-2.43Zm.07,3.49h2.74v9.65h-2.74v-9.65Z"/>
          <path class="cls-10" d="m450.73,199.38l1.17-1.8c1.04.76,2.14,1.15,3.04,1.15.79,0,1.15-.29,1.15-.72v-.04c0-.59-.94-.79-2-1.12-1.35-.4-2.88-1.03-2.88-2.9v-.04c0-1.96,1.58-3.06,3.53-3.06,1.22,0,2.56.41,3.6,1.12l-1.04,1.89c-.95-.56-1.91-.9-2.61-.9-.67,0-1.01.29-1.01.67v.04c0,.54.92.79,1.96,1.15,1.35.45,2.92,1.1,2.92,2.86v.04c0,2.14-1.6,3.11-3.69,3.11-1.35,0-2.86-.45-4.14-1.46Z"/>
          <path class="cls-10" d="m465.45,195.88v-.04c0-2.77,2.23-5.02,5.24-5.02s5.2,2.21,5.2,4.99v.04c0,2.77-2.23,5.02-5.24,5.02s-5.2-2.21-5.2-4.99Zm7.74,0v-.04c0-1.42-1.03-2.67-2.54-2.67s-2.5,1.21-2.5,2.63v.04c0,1.42,1.03,2.67,2.54,2.67s2.5-1.21,2.5-2.63Z"/>
          <path class="cls-10" d="m478.34,193.34h-1.13v-2.25h1.13v-.61c0-1.06.27-1.84.77-2.34.5-.5,1.24-.76,2.21-.76.86,0,1.44.11,1.94.27v2.27c-.4-.14-.77-.23-1.24-.23-.63,0-.99.32-.99,1.04v.38h2.21v2.23h-2.18v7.31h-2.74v-7.31Z"/>
          <path class="cls-10" d="m490.2,187.51h2.88v2.43h-2.88v-2.43Zm.07,3.49h2.74v9.65h-2.74v-9.65Z"/>
          <path class="cls-10" d="m495.71,187.51h2.74v13.14h-2.74v-13.14Z"/>
          <path class="cls-10" d="m500.55,195.88v-.04c0-2.75,1.96-5.02,4.77-5.02,3.22,0,4.7,2.5,4.7,5.24,0,.22-.02.47-.04.72h-6.72c.27,1.24,1.13,1.89,2.36,1.89.92,0,1.58-.29,2.34-.99l1.57,1.39c-.9,1.12-2.2,1.8-3.94,1.8-2.9,0-5.04-2.03-5.04-4.99Zm6.81-.81c-.16-1.22-.88-2.05-2.03-2.05s-1.87.81-2.09,2.05h4.12Z"/>
          <path class="cls-10" d="m511.58,195.88v-.04c0-2.77,2.23-5.02,5.24-5.02s5.2,2.21,5.2,4.99v.04c0,2.77-2.23,5.02-5.24,5.02s-5.2-2.21-5.2-4.99Zm7.74,0v-.04c0-1.42-1.03-2.67-2.54-2.67s-2.5,1.21-2.5,2.63v.04c0,1.42,1.03,2.67,2.54,2.67s2.5-1.21,2.5-2.63Z"/>
          <path class="cls-10" d="m523.53,195.88v-.04c0-2.75,2.11-5.02,5.06-5.02,1.82,0,2.95.61,3.85,1.62l-1.67,1.8c-.61-.65-1.22-1.06-2.2-1.06-1.37,0-2.34,1.21-2.34,2.63v.04c0,1.48.95,2.67,2.45,2.67.92,0,1.55-.4,2.21-1.03l1.6,1.62c-.94,1.03-2.02,1.76-3.94,1.76-2.9,0-5.02-2.23-5.02-4.99Z"/>
          <path class="cls-10" d="m533.54,195.88v-.04c0-2.77,2.23-5.02,5.24-5.02s5.2,2.21,5.2,4.99v.04c0,2.77-2.23,5.02-5.24,5.02s-5.2-2.21-5.2-4.99Zm7.74,0v-.04c0-1.42-1.03-2.67-2.54-2.67s-2.5,1.21-2.5,2.63v.04c0,1.42,1.03,2.67,2.54,2.67s2.5-1.21,2.5-2.63Z"/>
          <path class="cls-10" d="m546.09,187.51h2.74v13.14h-2.74v-13.14Z"/>
          <path class="cls-10" d="m550.93,195.88v-.04c0-2.77,2.23-5.02,5.24-5.02s5.2,2.21,5.2,4.99v.04c0,2.77-2.23,5.02-5.24,5.02s-5.2-2.21-5.2-4.99Zm7.74,0v-.04c0-1.42-1.03-2.67-2.54-2.67s-2.5,1.21-2.5,2.63v.04c0,1.42,1.03,2.67,2.54,2.67s2.5-1.21,2.5-2.63Z"/>
          <path class="cls-10" d="m563.35,191h2.74v1.37c.63-.81,1.44-1.55,2.83-1.55,2.07,0,3.28,1.37,3.28,3.58v6.25h-2.74v-5.38c0-1.3-.61-1.96-1.66-1.96s-1.71.67-1.71,1.96v5.38h-2.74v-9.65Z"/>
          <path class="cls-10" d="m574.62,187.51h2.88v2.43h-2.88v-2.43Zm.07,3.49h2.74v9.65h-2.74v-9.65Z"/>
          <path class="cls-10" d="m579.53,195.88v-.04c0-2.75,2.11-5.02,5.06-5.02,1.82,0,2.95.61,3.85,1.62l-1.67,1.8c-.61-.65-1.22-1.06-2.2-1.06-1.37,0-2.34,1.21-2.34,2.63v.04c0,1.48.95,2.67,2.45,2.67.92,0,1.55-.4,2.21-1.03l1.6,1.62c-.94,1.03-2.02,1.76-3.94,1.76-2.9,0-5.02-2.23-5.02-4.99Z"/>
          <path class="cls-10" d="m383.31,219.48v-.04c0-2.11,1.6-3.08,3.89-3.08.97,0,1.67.16,2.36.4v-.16c0-1.13-.7-1.76-2.07-1.76-1.04,0-1.78.2-2.67.52l-.68-2.09c1.06-.47,2.11-.77,3.75-.77,1.49,0,2.57.4,3.26,1.08.72.72,1.04,1.78,1.04,3.08v5.6h-2.65v-1.04c-.67.74-1.58,1.22-2.92,1.22-1.82,0-3.31-1.04-3.31-2.95Zm6.28-.63v-.49c-.47-.22-1.08-.36-1.75-.36-1.17,0-1.89.47-1.89,1.33v.04c0,.74.61,1.17,1.49,1.17,1.28,0,2.14-.7,2.14-1.69Z"/>
          <path class="cls-10" d="m394.54,212.6h2.74v1.37c.63-.81,1.44-1.55,2.83-1.55,2.07,0,3.28,1.37,3.28,3.58v6.25h-2.74v-5.38c0-1.3-.61-1.96-1.66-1.96s-1.71.67-1.71,1.96v5.38h-2.74v-9.65Z"/>
          <path class="cls-10" d="m405.32,217.45v-.04c0-3.22,2.11-4.99,4.39-4.99,1.46,0,2.36.67,3.01,1.44v-4.75h2.74v13.14h-2.74v-1.39c-.67.9-1.58,1.57-3.01,1.57-2.25,0-4.39-1.76-4.39-4.99Zm7.44,0v-.04c0-1.6-1.06-2.66-2.34-2.66s-2.36,1.04-2.36,2.66v.04c0,1.6,1.08,2.67,2.36,2.67s2.34-1.06,2.34-2.67Z"/>
          <path class="cls-10" d="m423.36,209.11h2.88v2.43h-2.88v-2.43Zm.07,3.49h2.74v9.65h-2.74v-9.65Z"/>
          <path class="cls-10" d="m428.74,212.6h2.74v1.37c.63-.81,1.44-1.55,2.83-1.55,2.07,0,3.28,1.37,3.28,3.58v6.25h-2.74v-5.38c0-1.3-.61-1.96-1.66-1.96s-1.71.67-1.71,1.96v5.38h-2.74v-9.65Z"/>
          <path class="cls-10" d="m440.42,214.94h-1.13v-2.25h1.13v-.61c0-1.06.27-1.84.77-2.34.5-.5,1.24-.76,2.21-.76.86,0,1.44.11,1.94.27v2.27c-.4-.14-.77-.23-1.24-.23-.63,0-.99.32-.99,1.04v.38h2.21v2.23h-2.18v7.31h-2.74v-7.31Zm6.54-5.83h2.74v13.14h-2.74v-13.14Z"/>
          <path class="cls-10" d="m451.69,219.48v-.04c0-2.11,1.6-3.08,3.89-3.08.97,0,1.67.16,2.36.4v-.16c0-1.13-.7-1.76-2.07-1.76-1.04,0-1.78.2-2.67.52l-.68-2.09c1.06-.47,2.11-.77,3.75-.77,1.49,0,2.57.4,3.26,1.08.72.72,1.04,1.78,1.04,3.08v5.6h-2.65v-1.04c-.67.74-1.58,1.22-2.92,1.22-1.82,0-3.31-1.04-3.31-2.95Zm6.28-.63v-.49c-.47-.22-1.08-.36-1.75-.36-1.17,0-1.89.47-1.89,1.33v.04c0,.74.61,1.17,1.49,1.17,1.28,0,2.14-.7,2.14-1.69Z"/>
          <path class="cls-10" d="m462.92,212.6h2.74v1.37c.63-.81,1.46-1.55,2.85-1.55,1.26,0,2.21.56,2.72,1.53.85-.99,1.85-1.53,3.17-1.53,2.03,0,3.26,1.22,3.26,3.55v6.28h-2.74v-5.38c0-1.3-.58-1.96-1.6-1.96s-1.66.67-1.66,1.96v5.38h-2.74v-5.38c0-1.3-.58-1.96-1.6-1.96s-1.66.67-1.66,1.96v5.38h-2.74v-9.65Z"/>
          <path class="cls-10" d="m480.02,212.6h2.74v1.37c.63-.81,1.46-1.55,2.84-1.55,1.26,0,2.21.56,2.72,1.53.85-.99,1.85-1.53,3.17-1.53,2.03,0,3.26,1.22,3.26,3.55v6.28h-2.74v-5.38c0-1.3-.58-1.96-1.6-1.96s-1.66.67-1.66,1.96v5.38h-2.74v-5.38c0-1.3-.58-1.96-1.6-1.96s-1.66.67-1.66,1.96v5.38h-2.74v-9.65Z"/>
          <path class="cls-10" d="m496.54,219.48v-.04c0-2.11,1.6-3.08,3.89-3.08.97,0,1.67.16,2.36.4v-.16c0-1.13-.7-1.76-2.07-1.76-1.04,0-1.78.2-2.66.52l-.68-2.09c1.06-.47,2.11-.77,3.75-.77,1.49,0,2.57.4,3.26,1.08.72.72,1.04,1.78,1.04,3.08v5.6h-2.65v-1.04c-.67.74-1.58,1.22-2.92,1.22-1.82,0-3.31-1.04-3.31-2.95Zm6.28-.63v-.49c-.47-.22-1.08-.36-1.75-.36-1.17,0-1.89.47-1.89,1.33v.04c0,.74.61,1.17,1.49,1.17,1.28,0,2.14-.7,2.14-1.69Z"/>
          <path class="cls-10" d="m508.14,219.52v-4.57h-1.15v-2.34h1.15v-2.47h2.74v2.47h2.27v2.34h-2.27v4.12c0,.63.27.94.88.94.5,0,.95-.13,1.35-.34v2.2c-.58.34-1.24.56-2.16.56-1.67,0-2.81-.67-2.81-2.9Z"/>
          <path class="cls-10" d="m514.42,217.48v-.04c0-2.77,2.23-5.02,5.24-5.02s5.2,2.21,5.2,4.99v.04c0,2.77-2.23,5.02-5.24,5.02s-5.2-2.21-5.2-4.99Zm7.74,0v-.04c0-1.42-1.03-2.67-2.54-2.67s-2.5,1.21-2.5,2.63v.04c0,1.42,1.03,2.67,2.54,2.67s2.5-1.21,2.5-2.63Z"/>
          <path class="cls-10" d="m526.84,212.6h2.74v1.94c.56-1.33,1.46-2.2,3.08-2.12v2.86h-.14c-1.82,0-2.93,1.1-2.93,3.4v3.57h-2.74v-9.65Z"/>
          <path class="cls-10" d="m540.7,212.6h2.84l-3.71,9.88c-.74,1.96-1.53,2.7-3.17,2.7-.99,0-1.73-.25-2.43-.67l.92-1.98c.36.22.81.38,1.17.38.47,0,.72-.14.95-.63l-3.78-9.69h2.9l2.2,6.57,2.11-6.57Z"/>
          <path class="cls-10" d="m550.29,215.99v-.04c0-3.58,2.7-6.52,6.57-6.52,2.38,0,3.8.79,4.97,1.95l-1.76,2.03c-.97-.88-1.96-1.42-3.22-1.42-2.12,0-3.66,1.76-3.66,3.92v.04c0,2.16,1.49,3.96,3.66,3.96,1.44,0,2.32-.58,3.31-1.48l1.76,1.78c-1.3,1.39-2.74,2.25-5.17,2.25-3.71,0-6.46-2.86-6.46-6.48Z"/>
          <path class="cls-10" d="m564.13,209.65h4.92c3.96,0,6.7,2.72,6.7,6.27v.04c0,3.55-2.74,6.3-6.7,6.3h-4.92v-12.6Zm2.77,2.5v7.6h2.14c2.27,0,3.8-1.53,3.8-3.76v-.04c0-2.23-1.53-3.8-3.8-3.8h-2.14Z"/>
        </g>
        <g>
          <line class="cls-15" x1="479.68" y1="145.82" x2="479.68" y2="145.82"/>
          <line class="cls-16" x1="479.68" y1="152.44" x2="479.68" y2="169.01"/>
          <line class="cls-15" x1="479.68" y1="172.32" x2="479.68" y2="172.32"/>
        </g>
      </g>
      <g id="june_2021_capsule">
        <rect class="cls-1" x="411.53" y="102.01" width="136" height="40" rx="20" ry="20"/>
        <g>
          <path class="cls-12" d="m438.87,126.44l1.55-1.73c.64.7,1.26,1.12,2.05,1.12.93,0,1.5-.56,1.5-1.86v-7.22h2.53v7.33c0,1.33-.38,2.32-1.06,2.99-.69.69-1.7,1.04-2.91,1.04-1.74,0-2.9-.77-3.67-1.68Z"/>
          <path class="cls-12" d="m448.69,124.94v-5.55h2.43v4.79c0,1.15.54,1.74,1.47,1.74s1.52-.59,1.52-1.74v-4.79h2.43v8.58h-2.43v-1.22c-.56.72-1.28,1.38-2.51,1.38-1.84,0-2.91-1.22-2.91-3.19Z"/>
          <path class="cls-12" d="m458.73,119.38h2.43v1.22c.56-.72,1.28-1.38,2.51-1.38,1.84,0,2.91,1.22,2.91,3.19v5.55h-2.43v-4.79c0-1.15-.54-1.74-1.47-1.74s-1.52.59-1.52,1.74v4.79h-2.43v-8.58Z"/>
          <path class="cls-12" d="m468.28,123.72v-.03c0-2.45,1.74-4.47,4.24-4.47,2.87,0,4.18,2.22,4.18,4.66,0,.19-.02.42-.03.64h-5.97c.24,1.1,1.01,1.68,2.1,1.68.82,0,1.41-.26,2.08-.88l1.39,1.23c-.8.99-1.95,1.6-3.51,1.6-2.58,0-4.48-1.81-4.48-4.43Zm6.05-.72c-.14-1.09-.78-1.82-1.81-1.82s-1.66.72-1.86,1.82h3.67Z"/>
          <path class="cls-12" d="m483,126.01l3.73-3.06c1.39-1.15,1.94-1.76,1.94-2.69s-.62-1.46-1.5-1.46-1.46.48-2.29,1.5l-1.73-1.39c1.1-1.5,2.18-2.32,4.18-2.32,2.32,0,3.86,1.36,3.86,3.46v.03c0,1.87-.96,2.8-2.95,4.34l-1.82,1.41h4.88v2.13h-8.29v-1.95Z"/>
          <path class="cls-12" d="m493.05,122.39v-.03c0-3.25,2.02-5.79,4.99-5.79s4.96,2.51,4.96,5.76v.03c0,3.25-2,5.79-4.99,5.79s-4.96-2.51-4.96-5.76Zm7.43,0v-.03c0-2.03-.99-3.57-2.47-3.57s-2.43,1.49-2.43,3.54v.03c0,2.05.98,3.57,2.46,3.57s2.43-1.5,2.43-3.54Z"/>
          <path class="cls-12" d="m504.49,126.01l3.73-3.06c1.39-1.15,1.94-1.76,1.94-2.69s-.62-1.46-1.5-1.46-1.46.48-2.29,1.5l-1.73-1.39c1.1-1.5,2.18-2.32,4.18-2.32,2.32,0,3.86,1.36,3.86,3.46v.03c0,1.87-.96,2.8-2.95,4.34l-1.82,1.41h4.88v2.13h-8.29v-1.95Z"/>
          <path class="cls-12" d="m516.52,119.17l-1.95.48-.51-2.02,3.22-.96h1.68v11.28h-2.43v-8.79Z"/>
        </g>
      </g>
      <g id="_2018_capsule" data-name="2018_capsule">
        <rect class="cls-1" x="173.14" y="102.01" width="136" height="40" rx="20" ry="20"/>
        <g>
          <path class="cls-12" d="m222.72,126.01l3.73-3.06c1.39-1.15,1.94-1.76,1.94-2.69s-.62-1.46-1.5-1.46-1.46.48-2.29,1.5l-1.73-1.39c1.1-1.5,2.18-2.32,4.18-2.32,2.32,0,3.86,1.36,3.86,3.46v.03c0,1.87-.96,2.8-2.94,4.34l-1.82,1.41h4.88v2.13h-8.29v-1.95Z"/>
          <path class="cls-12" d="m232.77,122.39v-.03c0-3.25,2.02-5.79,4.99-5.79s4.96,2.51,4.96,5.76v.03c0,3.25-2,5.79-4.99,5.79s-4.96-2.51-4.96-5.76Zm7.43,0v-.03c0-2.03-.99-3.57-2.47-3.57s-2.43,1.49-2.43,3.54v.03c0,2.05.98,3.57,2.46,3.57s2.43-1.5,2.43-3.54Z"/>
          <path class="cls-12" d="m246.35,119.17l-1.95.48-.51-2.02,3.22-.96h1.68v11.29h-2.43v-8.79Z"/>
          <path class="cls-12" d="m250.98,124.89v-.03c0-1.36.62-2.16,1.81-2.71-.86-.53-1.42-1.25-1.42-2.45v-.03c0-1.71,1.57-3.07,3.94-3.07s3.94,1.34,3.94,3.07v.03c0,1.2-.56,1.92-1.42,2.45,1.14.59,1.81,1.31,1.81,2.64v.03c0,2.08-1.84,3.3-4.32,3.3s-4.32-1.28-4.32-3.23Zm6.26-.19v-.03c0-.86-.82-1.38-1.94-1.38s-1.94.51-1.94,1.38v.03c0,.77.72,1.39,1.94,1.39s1.94-.61,1.94-1.39Zm-.34-4.72v-.03c0-.69-.59-1.31-1.6-1.31s-1.6.61-1.6,1.3v.03c0,.79.62,1.38,1.6,1.38s1.6-.58,1.6-1.36Z"/>
        </g>
      </g>
      <g id="first_symptoms_text">
        <g>
          <path class="cls-10" d="m145.13,188.05h9.06v1.31h-7.63v4.5h6.82v1.3h-6.82v5.49h-1.42v-12.6Z"/>
          <path class="cls-10" d="m156.74,187.78h1.58v1.53h-1.58v-1.53Zm.09,3.57h1.39v9.31h-1.39v-9.31Z"/>
          <path class="cls-10" d="m161.43,191.35h1.39v2.43c.68-1.55,2.03-2.67,3.8-2.59v1.49h-.11c-2.03,0-3.69,1.46-3.69,4.27v3.71h-1.39v-9.31Z"/>
          <path class="cls-10" d="m167.95,199.47l.7-.99c1.01.76,2.12,1.19,3.22,1.19s1.93-.58,1.93-1.48v-.04c0-.94-1.1-1.3-2.32-1.64-1.46-.41-3.08-.92-3.08-2.63v-.04c0-1.6,1.33-2.67,3.17-2.67,1.13,0,2.4.4,3.35,1.03l-.63,1.04c-.86-.56-1.85-.9-2.75-.9-1.1,0-1.8.58-1.8,1.35v.04c0,.88,1.15,1.22,2.4,1.6,1.44.43,2.99.99,2.99,2.67v.04c0,1.76-1.46,2.79-3.31,2.79-1.33,0-2.81-.52-3.85-1.37Z"/>
          <path class="cls-10" d="m177.99,198.19v-5.62h-1.3v-1.22h1.3v-2.81h1.39v2.81h2.95v1.22h-2.95v5.44c0,1.13.63,1.55,1.57,1.55.47,0,.86-.09,1.35-.32v1.19c-.49.25-1.01.4-1.67.4-1.49,0-2.63-.74-2.63-2.63Z"/>
          <path class="cls-10" d="m117.56,221.07l.7-.99c1.01.76,2.12,1.19,3.22,1.19s1.93-.58,1.93-1.48v-.04c0-.94-1.1-1.3-2.32-1.64-1.46-.41-3.08-.92-3.08-2.63v-.04c0-1.6,1.33-2.67,3.17-2.67,1.13,0,2.39.4,3.35,1.03l-.63,1.04c-.86-.56-1.85-.9-2.75-.9-1.1,0-1.8.58-1.8,1.35v.04c0,.88,1.15,1.22,2.4,1.6,1.44.43,2.99.99,2.99,2.67v.04c0,1.76-1.46,2.79-3.31,2.79-1.33,0-2.81-.52-3.85-1.37Z"/>
          <path class="cls-10" d="m133.99,212.95h1.48l-3.91,9.61c-.79,1.93-1.69,2.63-3.1,2.63-.77,0-1.35-.16-1.98-.47l.47-1.1c.45.23.86.34,1.46.34.83,0,1.35-.43,1.91-1.75l-4.23-9.27h1.53l3.39,7.76,2.99-7.76Z"/>
          <path class="cls-10" d="m137.66,212.95h1.39v1.57c.61-.92,1.44-1.76,3.01-1.76s2.48.81,2.99,1.85c.67-1.03,1.66-1.85,3.28-1.85,2.14,0,3.46,1.44,3.46,3.75v5.76h-1.39v-5.44c0-1.8-.9-2.81-2.41-2.81-1.4,0-2.58,1.04-2.58,2.88v5.37h-1.37v-5.47c0-1.75-.92-2.77-2.39-2.77s-2.59,1.22-2.59,2.93v5.31h-1.39v-9.31Z"/>
          <path class="cls-10" d="m154.73,212.95h1.39v1.87c.76-1.12,1.85-2.07,3.56-2.07,2.23,0,4.45,1.76,4.45,4.83v.04c0,3.04-2.2,4.84-4.45,4.84-1.73,0-2.84-.94-3.56-1.98v4.66h-1.39v-12.19Zm7.98,4.68v-.04c0-2.2-1.51-3.6-3.28-3.6s-3.37,1.46-3.37,3.58v.04c0,2.16,1.64,3.6,3.37,3.6s3.28-1.33,3.28-3.58Z"/>
          <path class="cls-10" d="m167.17,219.79v-5.62h-1.3v-1.22h1.3v-2.81h1.39v2.81h2.95v1.22h-2.95v5.44c0,1.13.63,1.55,1.57,1.55.47,0,.86-.09,1.35-.32v1.19c-.49.25-1.01.4-1.67.4-1.49,0-2.63-.74-2.63-2.63Z"/>
          <path class="cls-10" d="m173.11,217.65v-.04c0-2.63,2.05-4.86,4.86-4.86s4.84,2.2,4.84,4.83v.04c0,2.63-2.07,4.86-4.88,4.86s-4.83-2.2-4.83-4.83Zm8.28,0v-.04c0-2-1.49-3.64-3.46-3.64s-3.4,1.64-3.4,3.6v.04c0,2,1.48,3.62,3.44,3.62s3.42-1.62,3.42-3.58Z"/>
          <path class="cls-10" d="m185.31,212.95h1.39v1.57c.61-.92,1.44-1.76,3.01-1.76s2.48.81,2.99,1.85c.67-1.03,1.66-1.85,3.28-1.85,2.14,0,3.46,1.44,3.46,3.75v5.76h-1.39v-5.44c0-1.8-.9-2.81-2.41-2.81-1.4,0-2.58,1.04-2.58,2.88v5.37h-1.37v-5.47c0-1.75-.92-2.77-2.39-2.77s-2.59,1.22-2.59,2.93v5.31h-1.39v-9.31Z"/>
          <path class="cls-10" d="m201.6,221.07l.7-.99c1.01.76,2.12,1.19,3.22,1.19s1.93-.58,1.93-1.48v-.04c0-.94-1.1-1.3-2.32-1.64-1.46-.41-3.08-.92-3.08-2.63v-.04c0-1.6,1.33-2.67,3.17-2.67,1.13,0,2.39.4,3.35,1.03l-.63,1.04c-.86-.56-1.85-.9-2.75-.9-1.1,0-1.8.58-1.8,1.35v.04c0,.88,1.15,1.22,2.4,1.6,1.44.43,2.99.99,2.99,2.67v.04c0,1.76-1.46,2.79-3.31,2.79-1.33,0-2.81-.52-3.85-1.37Z"/>
        </g>
        <g>
          <line class="cls-15" x1="163.29" y1="126.52" x2="163.29" y2="126.52"/>
          <line class="cls-14" x1="163.29" y1="132.31" x2="163.29" y2="175.72"/>
          <line class="cls-15" x1="163.29" y1="178.62" x2="163.29" y2="178.62"/>
        </g>
      </g>
      <g id="_2017_capsule" data-name="2017_capsule">
        <rect class="cls-1" x="0" y="102.01" width="136" height="40" rx="20" ry="20"/>
        <g>
          <path class="cls-12" d="m49.67,126.01l3.73-3.06c1.39-1.15,1.94-1.76,1.94-2.69s-.62-1.46-1.5-1.46-1.46.48-2.29,1.5l-1.73-1.39c1.1-1.5,2.18-2.32,4.18-2.32,2.32,0,3.86,1.36,3.86,3.46v.03c0,1.87-.96,2.8-2.94,4.34l-1.82,1.41h4.88v2.13h-8.29v-1.95Z"/>
          <path class="cls-12" d="m59.72,122.39v-.03c0-3.25,2.02-5.79,4.99-5.79s4.96,2.51,4.96,5.76v.03c0,3.25-2,5.79-4.99,5.79s-4.96-2.51-4.96-5.76Zm7.43,0v-.03c0-2.03-.99-3.57-2.47-3.57s-2.43,1.49-2.43,3.54v.03c0,2.05.98,3.57,2.46,3.57s2.43-1.5,2.43-3.54Z"/>
          <path class="cls-12" d="m73.3,119.17l-1.95.48-.51-2.02,3.22-.96h1.68v11.29h-2.43v-8.79Z"/>
          <path class="cls-12" d="m83.56,118.89h-5.27v-2.13h8.07v1.86l-5.03,9.35h-2.79l5.01-9.08Z"/>
        </g>
      </g>
    </g>
  </g>
</svg>