<?xml version="1.0" encoding="UTF-8"?>
<svg id="Layer_2" data-name="Layer 2" xmlns="http://www.w3.org/2000/svg" xmlns:xlink="http://www.w3.org/1999/xlink" viewBox="0 0 671.44 249.4">
  <defs>
    <style>
      .cls-1 {
        stroke: #231f20;
      }

      .cls-1, .cls-2, .cls-3, .cls-4 {
        stroke-miterlimit: 10;
      }

      .cls-1, .cls-3 {
        fill: none;
      }

      .cls-5 {
        fill: #dc1c24;
      }

      .cls-5, .cls-6, .cls-7, .cls-8, .cls-9, .cls-10, .cls-11, .cls-12, .cls-13, .cls-14, .cls-15 {
        stroke-width: 0px;
      }

      .cls-6 {
        fill: url(#linear-gradient);
      }

      .cls-2 {
        stroke-width: .25px;
      }

      .cls-2, .cls-3, .cls-4 {
        stroke: #882580;
      }

      .cls-2, .cls-15 {
        fill: #882580;
      }

      .cls-3, .cls-4 {
        stroke-width: 2px;
      }

      .cls-8, .cls-4 {
        fill: #fff;
      }

      .cls-9 {
        fill: url(#linear-gradient-2);
      }

      .cls-10 {
        fill: #9d5b90;
      }

      .cls-11 {
        fill: url(#linear-gradient-3);
      }

      .cls-12 {
        fill: #231f20;
      }

      .cls-13 {
        fill: #808c86;
      }

      .cls-14 {
        fill: url(#linear-gradient-4);
      }
    </style>
    <linearGradient id="linear-gradient" x1="141.52" y1="103.21" x2="141.52" y2="185.09" gradientUnits="userSpaceOnUse">
      <stop offset="0" stop-color="#fff"/>
      <stop offset="1" stop-color="#808c86"/>
    </linearGradient>
    <linearGradient id="linear-gradient-2" x1="255.94" y1="103.21" x2="255.94" y2="185.09" xlink:href="#linear-gradient"/>
    <linearGradient id="linear-gradient-3" x1="370.37" y1="103.21" x2="370.37" y2="185.09" xlink:href="#linear-gradient"/>
    <linearGradient id="linear-gradient-4" x1="484.79" y1="103.21" x2="484.79" y2="185.09" xlink:href="#linear-gradient"/>
  </defs>
  <g id="Layer_1-2" data-name="Layer 1">
    <g>
      <g>
        <path class="cls-7" d="m342.51,11.15h2.43c2.2,0,3.72,1.51,3.72,3.48v.02c0,1.97-1.52,3.5-3.72,3.5h-2.43v-7Zm.79.73v5.54h1.64c1.77,0,2.9-1.2,2.9-2.75v-.02c0-1.55-1.13-2.77-2.9-2.77h-1.64Z"/>
        <path class="cls-7" d="m349.88,15.58v-.02c0-1.49,1.05-2.69,2.48-2.69,1.53,0,2.41,1.22,2.41,2.73,0,.1,0,.16,0,.25h-4.1c.11,1.12.9,1.75,1.82,1.75.71,0,1.21-.29,1.63-.73l.48.43c-.52.58-1.15.97-2.13.97-1.42,0-2.58-1.09-2.58-2.69Zm4.11-.3c-.08-.94-.62-1.76-1.65-1.76-.9,0-1.58.75-1.68,1.76h3.33Z"/>
        <path class="cls-7" d="m355.8,15.59v-.02c0-1.46,1.14-2.7,2.65-2.7.98,0,1.59.41,2.07.92l-.51.54c-.41-.43-.87-.78-1.57-.78-1.05,0-1.85.89-1.85,2v.02c0,1.12.82,2.01,1.9,2.01.66,0,1.17-.33,1.58-.77l.49.46c-.52.58-1.14,1-2.11,1-1.51,0-2.65-1.23-2.65-2.68Z"/>
        <path class="cls-7" d="m361.84,12.98h.77v1.35c.38-.86,1.13-1.48,2.11-1.44v.83h-.06c-1.13,0-2.05.81-2.05,2.37v2.06h-.77v-5.17Z"/>
        <path class="cls-7" d="m365.34,15.58v-.02c0-1.49,1.05-2.69,2.48-2.69,1.53,0,2.41,1.22,2.41,2.73,0,.1,0,.16-.01.25h-4.1c.11,1.12.9,1.75,1.82,1.75.71,0,1.21-.29,1.63-.73l.48.43c-.52.58-1.15.97-2.13.97-1.42,0-2.58-1.09-2.58-2.69Zm4.11-.3c-.08-.94-.62-1.76-1.65-1.76-.9,0-1.58.75-1.68,1.76h3.33Z"/>
        <path class="cls-7" d="m371.2,16.65v-.02c0-1.09.9-1.67,2.21-1.67.66,0,1.13.09,1.59.22v-.18c0-.93-.57-1.41-1.54-1.41-.61,0-1.09.16-1.57.38l-.23-.63c.57-.26,1.13-.43,1.88-.43s1.29.19,1.67.57c.35.35.53.85.53,1.51v3.16h-.74v-.78c-.36.47-.96.89-1.87.89-.96,0-1.93-.55-1.93-1.61Zm3.81-.4v-.5c-.38-.11-.89-.22-1.52-.22-.97,0-1.51.42-1.51,1.07v.02c0,.65.6,1.03,1.3,1.03.95,0,1.73-.58,1.73-1.4Z"/>
        <path class="cls-7" d="m376.95,17.49l.39-.55c.56.42,1.18.66,1.79.66s1.07-.32,1.07-.82v-.02c0-.52-.61-.72-1.29-.91-.81-.23-1.71-.51-1.71-1.46v-.02c0-.89.74-1.48,1.76-1.48.63,0,1.33.22,1.86.57l-.35.58c-.48-.31-1.03-.5-1.53-.5-.61,0-1,.32-1,.75v.02c0,.49.64.68,1.33.89.8.24,1.66.55,1.66,1.48v.02c0,.98-.81,1.55-1.84,1.55-.74,0-1.56-.29-2.14-.76Z"/>
        <path class="cls-7" d="m382.04,15.58v-.02c0-1.49,1.05-2.69,2.48-2.69,1.53,0,2.41,1.22,2.41,2.73,0,.1,0,.16,0,.25h-4.1c.11,1.12.9,1.75,1.82,1.75.71,0,1.21-.29,1.63-.73l.48.43c-.52.58-1.15.97-2.13.97-1.42,0-2.58-1.09-2.58-2.69Zm4.11-.3c-.08-.94-.62-1.76-1.65-1.76-.9,0-1.58.75-1.68,1.76h3.33Z"/>
        <path class="cls-7" d="m391.3,11h.88v.85h-.88v-.85Zm.05,1.98h.77v5.17h-.77v-5.17Z"/>
        <path class="cls-7" d="m393.9,12.98h.77v.9c.34-.56.88-1.01,1.77-1.01,1.25,0,1.98.84,1.98,2.07v3.21h-.77v-3.02c0-.96-.52-1.56-1.43-1.56s-1.55.65-1.55,1.62v2.96h-.77v-5.17Z"/>
        <path class="cls-7" d="m333.03,26.59v-.02c0-1.46,1.14-2.7,2.65-2.7.98,0,1.59.41,2.07.92l-.51.54c-.41-.43-.87-.78-1.57-.78-1.05,0-1.85.89-1.85,2v.02c0,1.12.82,2.01,1.9,2.01.66,0,1.17-.33,1.58-.77l.49.46c-.52.58-1.14,1-2.11,1-1.51,0-2.65-1.23-2.65-2.68Z"/>
        <path class="cls-7" d="m338.67,27.65v-.02c0-1.09.9-1.67,2.21-1.67.66,0,1.13.09,1.59.22v-.18c0-.93-.57-1.41-1.54-1.41-.61,0-1.09.16-1.57.38l-.23-.63c.57-.26,1.13-.43,1.88-.43s1.29.19,1.67.57c.35.35.53.85.53,1.51v3.16h-.74v-.78c-.36.47-.96.89-1.87.89-.96,0-1.93-.55-1.93-1.61Zm3.81-.4v-.5c-.38-.11-.89-.22-1.52-.22-.97,0-1.51.42-1.51,1.07v.02c0,.65.6,1.03,1.3,1.03.95,0,1.73-.58,1.73-1.4Z"/>
        <path class="cls-7" d="m344.92,21.85h.77v7.3h-.77v-7.3Z"/>
        <path class="cls-7" d="m347.48,23.98h.77v1.04c.42-.62,1.03-1.15,1.98-1.15,1.24,0,2.47.98,2.47,2.68v.02c0,1.69-1.22,2.69-2.47,2.69-.96,0-1.58-.52-1.98-1.1v2.59h-.77v-6.77Zm4.43,2.6v-.02c0-1.22-.84-2-1.82-2s-1.87.81-1.87,1.99v.02c0,1.2.91,2,1.87,2s1.82-.74,1.82-1.99Z"/>
        <path class="cls-7" d="m354.11,23.98h.77v1.35c.38-.86,1.13-1.48,2.11-1.44v.83h-.06c-1.13,0-2.05.81-2.05,2.37v2.06h-.77v-5.17Z"/>
        <path class="cls-7" d="m357.63,26.59v-.02c0-1.46,1.14-2.7,2.7-2.7s2.69,1.22,2.69,2.68v.02c0,1.46-1.15,2.7-2.71,2.7s-2.68-1.22-2.68-2.68Zm4.6,0v-.02c0-1.11-.83-2.02-1.92-2.02s-1.89.91-1.89,2v.02c0,1.11.82,2.01,1.91,2.01s1.9-.9,1.9-1.99Z"/>
        <path class="cls-7" d="m364.67,27.78v-3.12h-.72v-.68h.72v-1.56h.77v1.56h1.64v.68h-1.64v3.02c0,.63.35.86.87.86.26,0,.48-.05.75-.18v.66c-.27.14-.56.22-.93.22-.83,0-1.46-.41-1.46-1.46Z"/>
        <path class="cls-7" d="m367.98,26.58v-.02c0-1.49,1.05-2.69,2.48-2.69,1.53,0,2.41,1.22,2.41,2.73,0,.1,0,.16,0,.25h-4.1c.11,1.12.9,1.75,1.82,1.75.71,0,1.21-.29,1.63-.73l.48.43c-.52.58-1.15.97-2.13.97-1.42,0-2.58-1.09-2.58-2.69Zm4.11-.3c-.08-.94-.62-1.76-1.65-1.76-.9,0-1.58.75-1.68,1.76h3.33Z"/>
        <path class="cls-7" d="m373.9,26.59v-.02c0-1.46,1.14-2.7,2.65-2.7.98,0,1.59.41,2.07.92l-.51.54c-.41-.43-.87-.78-1.57-.78-1.05,0-1.85.89-1.85,2v.02c0,1.12.82,2.01,1.9,2.01.66,0,1.17-.33,1.58-.77l.49.46c-.52.58-1.14,1-2.11,1-1.51,0-2.65-1.23-2.65-2.68Z"/>
        <path class="cls-7" d="m380.19,27.78v-3.12h-.72v-.68h.72v-1.56h.77v1.56h1.64v.68h-1.64v3.02c0,.63.35.86.87.86.26,0,.48-.05.75-.18v.66c-.27.14-.56.22-.93.22-.83,0-1.46-.41-1.46-1.46Z"/>
        <path class="cls-7" d="m383.99,22h.88v.85h-.88v-.85Zm.05,1.98h.77v5.17h-.77v-5.17Z"/>
        <path class="cls-7" d="m386.59,23.98h.77v.9c.34-.56.88-1.01,1.77-1.01,1.25,0,1.98.84,1.98,2.07v3.21h-.77v-3.02c0-.96-.52-1.56-1.43-1.56s-1.55.65-1.55,1.62v2.96h-.77v-5.17Z"/>
        <path class="cls-7" d="m396.02,27.78v-3.12h-.72v-.68h.72v-1.56h.77v1.56h1.64v.68h-1.64v3.02c0,.63.35.86.87.86.26,0,.48-.05.75-.18v.66c-.27.14-.56.22-.93.22-.83,0-1.46-.41-1.46-1.46Z"/>
        <path class="cls-7" d="m399.33,26.59v-.02c0-1.46,1.14-2.7,2.7-2.7s2.69,1.22,2.69,2.68v.02c0,1.46-1.15,2.7-2.71,2.7s-2.68-1.22-2.68-2.68Zm4.6,0v-.02c0-1.11-.83-2.02-1.92-2.02s-1.89.91-1.89,2v.02c0,1.11.82,2.01,1.91,2.01s1.9-.9,1.9-1.99Z"/>
        <path class="cls-7" d="m327.94,38.65v-.02c0-1.09.9-1.67,2.21-1.67.66,0,1.13.09,1.59.22v-.18c0-.93-.57-1.41-1.54-1.41-.61,0-1.09.16-1.57.38l-.23-.63c.57-.26,1.13-.43,1.88-.43s1.29.19,1.67.57c.35.35.53.85.53,1.51v3.16h-.74v-.78c-.36.47-.96.89-1.87.89-.96,0-1.93-.55-1.93-1.61Zm3.81-.4v-.5c-.38-.11-.89-.22-1.52-.22-.97,0-1.51.42-1.51,1.07v.02c0,.65.6,1.03,1.3,1.03.95,0,1.73-.58,1.73-1.4Z"/>
        <path class="cls-7" d="m333.8,37.59v-.02c0-1.46,1.14-2.7,2.65-2.7.98,0,1.59.41,2.07.92l-.51.54c-.41-.43-.87-.78-1.57-.78-1.05,0-1.85.89-1.85,2v.02c0,1.12.82,2.01,1.9,2.01.66,0,1.17-.33,1.58-.77l.49.46c-.52.58-1.14,1-2.11,1-1.51,0-2.65-1.23-2.65-2.68Z"/>
        <path class="cls-7" d="m339.36,37.59v-.02c0-1.46,1.14-2.7,2.65-2.7.98,0,1.59.41,2.07.92l-.51.54c-.41-.43-.87-.78-1.57-.78-1.05,0-1.85.89-1.85,2v.02c0,1.12.82,2.01,1.9,2.01.66,0,1.17-.33,1.58-.77l.49.46c-.52.58-1.14,1-2.11,1-1.51,0-2.65-1.23-2.65-2.68Z"/>
        <path class="cls-7" d="m344.92,37.58v-.02c0-1.49,1.05-2.69,2.48-2.69,1.53,0,2.41,1.22,2.41,2.73,0,.1,0,.16-.01.25h-4.1c.11,1.12.9,1.75,1.82,1.75.71,0,1.21-.29,1.63-.73l.48.43c-.52.58-1.15.97-2.13.97-1.42,0-2.58-1.09-2.58-2.69Zm4.11-.3c-.08-.94-.62-1.76-1.65-1.76-.9,0-1.58.75-1.68,1.76h3.33Z"/>
        <path class="cls-7" d="m351.16,34.98h.77v1.04c.42-.62,1.03-1.15,1.98-1.15,1.24,0,2.47.98,2.47,2.68v.02c0,1.69-1.22,2.69-2.47,2.69-.96,0-1.58-.52-1.98-1.1v2.59h-.77v-6.77Zm4.43,2.6v-.02c0-1.22-.84-2-1.82-2s-1.87.81-1.87,1.99v.02c0,1.2.91,2,1.87,2s1.82-.74,1.82-1.99Z"/>
        <path class="cls-7" d="m358.07,38.78v-3.12h-.72v-.68h.72v-1.56h.77v1.56h1.64v.68h-1.64v3.02c0,.63.35.86.87.86.26,0,.48-.05.75-.18v.66c-.27.14-.56.22-.93.22-.83,0-1.46-.41-1.46-1.46Z"/>
        <path class="cls-7" d="m361.45,38.65v-.02c0-1.09.9-1.67,2.21-1.67.66,0,1.13.09,1.59.22v-.18c0-.93-.57-1.41-1.54-1.41-.61,0-1.09.16-1.57.38l-.23-.63c.57-.26,1.13-.43,1.88-.43s1.29.19,1.67.57c.35.35.53.85.53,1.51v3.16h-.74v-.78c-.36.47-.96.89-1.87.89-.96,0-1.93-.55-1.93-1.61Zm3.81-.4v-.5c-.38-.11-.89-.22-1.52-.22-.97,0-1.51.42-1.51,1.07v.02c0,.65.6,1.03,1.3,1.03.95,0,1.73-.58,1.73-1.4Z"/>
        <path class="cls-7" d="m368.39,39.16v.99h-.77v-7.3h.77v3.17c.42-.62,1.03-1.15,1.98-1.15,1.24,0,2.47.98,2.47,2.68v.02c0,1.69-1.22,2.69-2.47,2.69-.96,0-1.58-.52-1.98-1.1Zm3.66-1.58v-.02c0-1.22-.84-2-1.82-2s-1.87.81-1.87,1.99v.02c0,1.2.91,2,1.87,2s1.82-.74,1.82-1.99Z"/>
        <path class="cls-7" d="m374.34,32.85h.77v7.3h-.77v-7.3Z"/>
        <path class="cls-7" d="m376.58,37.58v-.02c0-1.49,1.05-2.69,2.48-2.69,1.53,0,2.41,1.22,2.41,2.73,0,.1,0,.16,0,.25h-4.1c.11,1.12.9,1.75,1.82,1.75.71,0,1.21-.29,1.63-.73l.48.43c-.52.58-1.15.97-2.13.97-1.42,0-2.58-1.09-2.58-2.69Zm4.11-.3c-.08-.94-.62-1.76-1.65-1.76-.9,0-1.58.75-1.68,1.76h3.33Z"/>
        <path class="cls-7" d="m385.81,34.98h.77v1.35c.38-.86,1.13-1.48,2.11-1.44v.83h-.06c-1.13,0-2.05.81-2.05,2.37v2.06h-.77v-5.17Z"/>
        <path class="cls-7" d="m389.22,38.65v-.02c0-1.09.9-1.67,2.21-1.67.66,0,1.13.09,1.59.22v-.18c0-.93-.57-1.41-1.54-1.41-.61,0-1.09.16-1.57.38l-.23-.63c.57-.26,1.13-.43,1.88-.43s1.29.19,1.67.57c.35.35.53.85.53,1.51v3.16h-.74v-.78c-.36.47-.96.89-1.87.89-.96,0-1.93-.55-1.93-1.61Zm3.81-.4v-.5c-.38-.11-.89-.22-1.52-.22-.97,0-1.51.42-1.51,1.07v.02c0,.65.6,1.03,1.3,1.03.95,0,1.73-.58,1.73-1.4Z"/>
        <path class="cls-7" d="m395.4,34.98h.77v.9c.34-.56.88-1.01,1.77-1.01,1.25,0,1.98.84,1.98,2.07v3.21h-.77v-3.02c0-.96-.52-1.56-1.43-1.56s-1.55.65-1.55,1.62v2.96h-.77v-5.17Z"/>
        <path class="cls-7" d="m401.51,41.05l.35-.6c.59.43,1.25.66,1.99.66,1.14,0,1.88-.63,1.88-1.84v-.61c-.45.6-1.08,1.09-2.03,1.09-1.24,0-2.43-.93-2.43-2.42v-.02c0-1.51,1.2-2.44,2.43-2.44.97,0,1.6.48,2.02,1.04v-.93h.77v4.27c0,.8-.24,1.41-.66,1.83-.46.46-1.15.69-1.97.69-.86,0-1.66-.24-2.35-.72Zm4.24-3.73v-.02c0-1.06-.92-1.75-1.9-1.75s-1.79.68-1.79,1.74v.02c0,1.04.83,1.76,1.79,1.76s1.9-.71,1.9-1.75Z"/>
        <path class="cls-7" d="m407.88,37.58v-.02c0-1.49,1.05-2.69,2.48-2.69,1.53,0,2.41,1.22,2.41,2.73,0,.1,0,.16,0,.25h-4.1c.11,1.12.9,1.75,1.82,1.75.71,0,1.21-.29,1.63-.73l.48.43c-.52.58-1.15.97-2.13.97-1.42,0-2.58-1.09-2.58-2.69Zm4.11-.3c-.08-.94-.62-1.76-1.65-1.76-.9,0-1.58.75-1.68,1.76h3.33Z"/>
      </g>
      <g>
        <g>
          <path class="cls-7" d="m108.93,28.13l.49-.58c.73.66,1.43.99,2.4.99s1.56-.5,1.56-1.19v-.02c0-.65-.35-1.02-1.82-1.33-1.61-.35-2.35-.87-2.35-2.02v-.02c0-1.1.97-1.91,2.3-1.91,1.02,0,1.75.29,2.46.86l-.46.61c-.65-.53-1.3-.76-2.02-.76-.91,0-1.49.5-1.49,1.13v.02c0,.66.36,1.03,1.9,1.36,1.56.34,2.28.91,2.28,1.98v.02c0,1.2-1,1.98-2.39,1.98-1.11,0-2.02-.37-2.86-1.12Z"/>
          <path class="cls-7" d="m119.38,23.98h.82l-2.17,5.34c-.44,1.07-.94,1.46-1.72,1.46-.43,0-.75-.09-1.1-.26l.26-.61c.25.13.48.19.81.19.46,0,.75-.24,1.06-.97l-2.35-5.15h.85l1.88,4.31,1.66-4.31Z"/>
          <path class="cls-7" d="m121.42,23.98h.77v.87c.34-.51.8-.98,1.67-.98s1.38.45,1.66,1.03c.37-.57.92-1.03,1.82-1.03,1.19,0,1.92.8,1.92,2.08v3.2h-.77v-3.02c0-1-.5-1.56-1.34-1.56-.78,0-1.43.58-1.43,1.6v2.98h-.76v-3.04c0-.97-.51-1.54-1.33-1.54s-1.44.68-1.44,1.63v2.95h-.77v-5.17Z"/>
          <path class="cls-7" d="m130.9,23.98h.77v1.04c.42-.62,1.03-1.15,1.98-1.15,1.24,0,2.47.98,2.47,2.68v.02c0,1.69-1.22,2.69-2.47,2.69-.96,0-1.58-.52-1.98-1.1v2.59h-.77v-6.77Zm4.43,2.6v-.02c0-1.22-.84-2-1.82-2s-1.87.81-1.87,1.99v.02c0,1.2.91,2,1.87,2s1.82-.74,1.82-1.99Z"/>
          <path class="cls-7" d="m137.81,27.78v-3.12h-.72v-.68h.72v-1.56h.77v1.56h1.64v.68h-1.64v3.02c0,.63.35.86.87.86.26,0,.48-.05.75-.18v.66c-.27.14-.56.22-.93.22-.83,0-1.46-.41-1.46-1.46Z"/>
          <path class="cls-7" d="m141.11,26.59v-.02c0-1.46,1.14-2.7,2.7-2.7s2.69,1.22,2.69,2.68v.02c0,1.46-1.15,2.7-2.71,2.7s-2.68-1.22-2.68-2.68Zm4.6,0v-.02c0-1.11-.83-2.02-1.92-2.02s-1.89.91-1.89,2v.02c0,1.11.82,2.01,1.91,2.01s1.9-.9,1.9-1.99Z"/>
          <path class="cls-7" d="m147.89,23.98h.77v.87c.34-.51.8-.98,1.67-.98s1.38.45,1.66,1.03c.37-.57.92-1.03,1.82-1.03,1.19,0,1.92.8,1.92,2.08v3.2h-.77v-3.02c0-1-.5-1.56-1.34-1.56-.78,0-1.43.58-1.43,1.6v2.98h-.76v-3.04c0-.97-.51-1.54-1.33-1.54s-1.44.68-1.44,1.63v2.95h-.77v-5.17Z"/>
          <path class="cls-7" d="m156.98,27.65v-.02c0-1.09.9-1.67,2.21-1.67.66,0,1.13.09,1.59.22v-.18c0-.93-.57-1.41-1.54-1.41-.61,0-1.09.16-1.57.38l-.23-.63c.57-.26,1.13-.43,1.88-.43s1.29.19,1.67.57c.35.35.53.85.53,1.51v3.16h-.74v-.78c-.36.47-.96.89-1.87.89-.96,0-1.93-.55-1.93-1.61Zm3.81-.4v-.5c-.38-.11-.89-.22-1.52-.22-.97,0-1.51.42-1.51,1.07v.02c0,.65.6,1.03,1.3,1.03.95,0,1.73-.58,1.73-1.4Z"/>
          <path class="cls-7" d="m163.38,27.78v-3.12h-.72v-.68h.72v-1.56h.77v1.56h1.64v.68h-1.64v3.02c0,.63.35.86.87.86.26,0,.48-.05.75-.18v.66c-.27.14-.56.22-.93.22-.83,0-1.46-.41-1.46-1.46Z"/>
          <path class="cls-7" d="m167.17,22h.88v.85h-.88v-.85Zm.05,1.98h.77v5.17h-.77v-5.17Z"/>
          <path class="cls-7" d="m169.46,26.59v-.02c0-1.46,1.14-2.7,2.65-2.7.98,0,1.59.41,2.07.92l-.51.54c-.41-.43-.87-.78-1.57-.78-1.05,0-1.85.89-1.85,2v.02c0,1.12.82,2.01,1.9,2.01.66,0,1.17-.33,1.58-.77l.49.46c-.52.58-1.14,1-2.11,1-1.51,0-2.65-1.23-2.65-2.68Z"/>
          <path class="cls-7" d="m119.93,34.98h.77v1.35c.38-.86,1.13-1.48,2.11-1.44v.83h-.06c-1.13,0-2.05.81-2.05,2.37v2.06h-.77v-5.17Z"/>
          <path class="cls-7" d="m123.44,37.58v-.02c0-1.49,1.05-2.69,2.48-2.69,1.53,0,2.41,1.22,2.41,2.73,0,.1,0,.16,0,.25h-4.1c.11,1.12.9,1.75,1.82,1.75.71,0,1.21-.29,1.63-.73l.48.43c-.52.58-1.15.97-2.13.97-1.42,0-2.58-1.09-2.58-2.69Zm4.11-.3c-.08-.94-.62-1.76-1.65-1.76-.9,0-1.58.75-1.68,1.76h3.33Z"/>
          <path class="cls-7" d="m129.25,39.49l.39-.55c.56.42,1.18.66,1.79.66s1.07-.32,1.07-.82v-.02c0-.52-.61-.72-1.29-.91-.81-.23-1.71-.51-1.71-1.46v-.02c0-.89.74-1.48,1.76-1.48.63,0,1.33.22,1.86.57l-.35.58c-.48-.31-1.03-.5-1.53-.5-.61,0-1,.32-1,.75v.02c0,.49.64.68,1.33.89.8.24,1.66.55,1.66,1.48v.02c0,.98-.81,1.55-1.84,1.55-.74,0-1.56-.29-2.14-.76Z"/>
          <path class="cls-7" d="m134.66,34.98h.77v1.04c.42-.62,1.03-1.15,1.98-1.15,1.24,0,2.47.98,2.47,2.68v.02c0,1.69-1.22,2.69-2.47,2.69-.96,0-1.58-.52-1.98-1.1v2.59h-.77v-6.77Zm4.43,2.6v-.02c0-1.22-.84-2-1.82-2s-1.87.81-1.87,1.99v.02c0,1.2.91,2,1.87,2s1.82-.74,1.82-1.99Z"/>
          <path class="cls-7" d="m140.98,37.59v-.02c0-1.46,1.14-2.7,2.7-2.7s2.69,1.22,2.69,2.68v.02c0,1.46-1.15,2.7-2.71,2.7s-2.68-1.22-2.68-2.68Zm4.6,0v-.02c0-1.11-.83-2.02-1.92-2.02s-1.89.91-1.89,2v.02c0,1.11.82,2.01,1.91,2.01s1.9-.9,1.9-1.99Z"/>
          <path class="cls-7" d="m147.76,34.98h.77v.9c.34-.56.88-1.01,1.77-1.01,1.25,0,1.98.84,1.98,2.07v3.21h-.77v-3.02c0-.96-.52-1.56-1.43-1.56s-1.55.65-1.55,1.62v2.96h-.77v-5.17Z"/>
          <path class="cls-7" d="m153.49,39.49l.39-.55c.56.42,1.18.66,1.79.66s1.07-.32,1.07-.82v-.02c0-.52-.61-.72-1.29-.91-.81-.23-1.71-.51-1.71-1.46v-.02c0-.89.74-1.48,1.76-1.48.63,0,1.33.22,1.86.57l-.35.58c-.48-.31-1.03-.5-1.53-.5-.61,0-1,.32-1,.75v.02c0,.49.64.68,1.33.89.8.24,1.66.55,1.66,1.48v.02c0,.98-.81,1.55-1.84,1.55-.74,0-1.56-.29-2.14-.76Z"/>
          <path class="cls-7" d="m158.58,37.58v-.02c0-1.49,1.05-2.69,2.48-2.69,1.53,0,2.41,1.22,2.41,2.73,0,.1,0,.16,0,.25h-4.1c.11,1.12.9,1.75,1.82,1.75.71,0,1.21-.29,1.63-.73l.48.43c-.52.58-1.15.97-2.13.97-1.42,0-2.58-1.09-2.58-2.69Zm4.11-.3c-.08-.94-.62-1.76-1.65-1.76-.9,0-1.58.75-1.68,1.76h3.33Z"/>
        </g>
        <g>
          <path class="cls-7" d="m223.36,6.13l.49-.58c.73.66,1.43.99,2.4.99s1.56-.5,1.56-1.19v-.02c0-.65-.35-1.02-1.82-1.33-1.61-.35-2.35-.87-2.35-2.02v-.02c0-1.1.97-1.91,2.3-1.91,1.02,0,1.75.29,2.46.86l-.46.61c-.65-.53-1.3-.76-2.02-.76-.91,0-1.49.5-1.49,1.13v.02c0,.66.36,1.03,1.9,1.36,1.56.34,2.28.91,2.28,1.98v.02c0,1.2-1,1.98-2.39,1.98-1.11,0-2.02-.37-2.86-1.12Z"/>
          <path class="cls-7" d="m233.8,1.98h.82l-2.17,5.34c-.44,1.07-.94,1.46-1.72,1.46-.43,0-.75-.09-1.1-.26l.26-.61c.25.13.48.19.81.19.46,0,.75-.24,1.06-.97l-2.35-5.15h.85l1.88,4.31,1.66-4.31Z"/>
          <path class="cls-7" d="m235.85,1.98h.77v.87c.34-.51.8-.98,1.67-.98s1.38.45,1.66,1.03c.37-.57.92-1.03,1.82-1.03,1.19,0,1.92.8,1.92,2.08v3.2h-.77v-3.02c0-1-.5-1.56-1.34-1.56-.78,0-1.43.58-1.43,1.6v2.98h-.76v-3.04c0-.97-.51-1.54-1.33-1.54s-1.44.68-1.44,1.63v2.95h-.77V1.98Z"/>
          <path class="cls-7" d="m245.33,1.98h.77v1.04c.42-.62,1.03-1.15,1.98-1.15,1.24,0,2.47.98,2.47,2.68v.02c0,1.69-1.22,2.69-2.47,2.69-.96,0-1.58-.52-1.98-1.1v2.59h-.77V1.98Zm4.43,2.6v-.02c0-1.22-.84-2-1.82-2s-1.87.81-1.87,1.99v.02c0,1.2.91,2,1.87,2s1.82-.74,1.82-1.99Z"/>
          <path class="cls-7" d="m252.24,5.78v-3.12h-.72v-.68h.72V.42h.77v1.56h1.64v.68h-1.64v3.02c0,.63.35.86.87.86.26,0,.48-.05.75-.18v.66c-.27.14-.56.22-.93.22-.83,0-1.46-.41-1.46-1.46Z"/>
          <path class="cls-7" d="m255.54,4.59v-.02c0-1.46,1.14-2.7,2.7-2.7s2.69,1.22,2.69,2.68v.02c0,1.46-1.15,2.7-2.71,2.7s-2.68-1.22-2.68-2.68Zm4.6,0v-.02c0-1.11-.83-2.02-1.92-2.02s-1.89.91-1.89,2v.02c0,1.11.82,2.01,1.91,2.01s1.9-.9,1.9-1.99Z"/>
          <path class="cls-7" d="m262.32,1.98h.77v.87c.34-.51.8-.98,1.67-.98s1.38.45,1.66,1.03c.37-.57.92-1.03,1.82-1.03,1.19,0,1.92.8,1.92,2.08v3.2h-.77v-3.02c0-1-.5-1.56-1.34-1.56-.78,0-1.43.58-1.43,1.6v2.98h-.76v-3.04c0-.97-.51-1.54-1.33-1.54s-1.44.68-1.44,1.63v2.95h-.77V1.98Z"/>
          <path class="cls-7" d="m271.41,5.65v-.02c0-1.09.9-1.67,2.21-1.67.66,0,1.13.09,1.59.22v-.18c0-.93-.57-1.41-1.54-1.41-.61,0-1.09.16-1.57.38l-.23-.63c.57-.26,1.13-.43,1.88-.43s1.29.19,1.67.57c.35.35.53.85.53,1.51v3.16h-.74v-.78c-.36.47-.96.89-1.87.89-.96,0-1.93-.55-1.93-1.61Zm3.81-.4v-.5c-.38-.11-.89-.22-1.52-.22-.97,0-1.51.42-1.51,1.07v.02c0,.65.6,1.03,1.3,1.03.95,0,1.73-.58,1.73-1.4Z"/>
          <path class="cls-7" d="m277.81,5.78v-3.12h-.72v-.68h.72V.42h.77v1.56h1.64v.68h-1.64v3.02c0,.63.35.86.87.86.26,0,.48-.05.75-.18v.66c-.27.14-.56.22-.93.22-.83,0-1.46-.41-1.46-1.46Z"/>
          <path class="cls-7" d="m281.6,0h.88v.85h-.88v-.85Zm.05,1.98h.77v5.17h-.77V1.98Z"/>
          <path class="cls-7" d="m283.89,4.59v-.02c0-1.46,1.14-2.7,2.65-2.7.98,0,1.59.41,2.07.92l-.51.54c-.41-.43-.87-.78-1.57-.78-1.05,0-1.85.89-1.85,2v.02c0,1.12.82,2.01,1.9,2.01.66,0,1.17-.33,1.58-.77l.49.46c-.52.58-1.14,1-2.11,1-1.51,0-2.65-1.23-2.65-2.68Z"/>
          <path class="cls-7" d="m222.52,12.98h.77v1.35c.38-.86,1.13-1.48,2.11-1.44v.83h-.06c-1.13,0-2.05.81-2.05,2.37v2.06h-.77v-5.17Z"/>
          <path class="cls-7" d="m226.03,15.58v-.02c0-1.49,1.05-2.69,2.48-2.69,1.53,0,2.41,1.22,2.41,2.73,0,.1,0,.16,0,.25h-4.1c.11,1.12.9,1.75,1.82,1.75.71,0,1.21-.29,1.63-.73l.48.43c-.52.58-1.15.97-2.13.97-1.42,0-2.58-1.09-2.58-2.69Zm4.11-.3c-.08-.94-.62-1.76-1.65-1.76-.9,0-1.58.75-1.68,1.76h3.33Z"/>
          <path class="cls-7" d="m232.27,12.98h.77v.87c.34-.51.8-.98,1.67-.98s1.38.45,1.66,1.03c.37-.57.92-1.03,1.82-1.03,1.19,0,1.92.8,1.92,2.08v3.2h-.77v-3.02c0-1-.5-1.56-1.34-1.56-.78,0-1.43.58-1.43,1.6v2.98h-.76v-3.04c0-.97-.51-1.54-1.33-1.54s-1.44.68-1.44,1.63v2.95h-.77v-5.17Z"/>
          <path class="cls-7" d="m241.77,11h.88v.85h-.88v-.85Zm.05,1.98h.77v5.17h-.77v-5.17Z"/>
          <path class="cls-7" d="m243.95,17.49l.39-.55c.56.42,1.18.66,1.79.66s1.07-.32,1.07-.82v-.02c0-.52-.61-.72-1.29-.91-.81-.23-1.71-.51-1.71-1.46v-.02c0-.89.74-1.48,1.76-1.48.63,0,1.33.22,1.86.57l-.35.58c-.48-.31-1.03-.5-1.53-.5-.61,0-1,.32-1,.75v.02c0,.49.64.68,1.33.89.8.24,1.66.55,1.66,1.48v.02c0,.98-.81,1.55-1.84,1.55-.74,0-1.56-.29-2.14-.76Z"/>
          <path class="cls-7" d="m248.83,17.49l.39-.55c.56.42,1.18.66,1.79.66s1.07-.32,1.07-.82v-.02c0-.52-.61-.72-1.29-.91-.81-.23-1.71-.51-1.71-1.46v-.02c0-.89.74-1.48,1.76-1.48.63,0,1.33.22,1.86.57l-.35.58c-.48-.31-1.03-.5-1.53-.5-.61,0-1,.32-1,.75v.02c0,.49.64.68,1.33.89.8.24,1.66.55,1.66,1.48v.02c0,.98-.81,1.55-1.84,1.55-.74,0-1.56-.29-2.14-.76Z"/>
          <path class="cls-7" d="m254.26,11h.88v.85h-.88v-.85Zm.05,1.98h.77v5.17h-.77v-5.17Z"/>
          <path class="cls-7" d="m256.55,15.59v-.02c0-1.46,1.14-2.7,2.7-2.7s2.69,1.22,2.69,2.68v.02c0,1.46-1.15,2.7-2.71,2.7s-2.68-1.22-2.68-2.68Zm4.6,0v-.02c0-1.11-.83-2.02-1.92-2.02s-1.89.91-1.89,2v.02c0,1.11.82,2.01,1.91,2.01s1.9-.9,1.9-1.99Z"/>
          <path class="cls-7" d="m263.33,12.98h.77v.9c.34-.56.88-1.01,1.77-1.01,1.25,0,1.98.84,1.98,2.07v3.21h-.77v-3.02c0-.96-.52-1.56-1.43-1.56s-1.55.65-1.55,1.62v2.96h-.77v-5.17Z"/>
          <path class="cls-7" d="m272.1,16.65v-.02c0-1.09.9-1.67,2.21-1.67.66,0,1.13.09,1.59.22v-.18c0-.93-.57-1.41-1.54-1.41-.61,0-1.09.16-1.57.38l-.23-.63c.57-.26,1.13-.43,1.88-.43s1.29.19,1.67.57c.35.35.53.85.53,1.51v3.16h-.74v-.78c-.36.47-.96.89-1.87.89-.96,0-1.93-.55-1.93-1.61Zm3.81-.4v-.5c-.38-.11-.89-.22-1.52-.22-.97,0-1.51.42-1.51,1.07v.02c0,.65.6,1.03,1.3,1.03.95,0,1.73-.58,1.73-1.4Z"/>
          <path class="cls-7" d="m278.28,12.98h.77v.9c.34-.56.88-1.01,1.77-1.01,1.25,0,1.98.84,1.98,2.07v3.21h-.77v-3.02c0-.96-.52-1.56-1.43-1.56s-1.55.65-1.55,1.62v2.96h-.77v-5.17Z"/>
          <path class="cls-7" d="m284.14,15.58v-.02c0-1.69,1.23-2.69,2.47-2.69.96,0,1.58.52,1.98,1.1v-3.12h.77v7.3h-.77v-1.04c-.42.62-1.03,1.15-1.98,1.15-1.24,0-2.47-.98-2.47-2.68Zm4.48,0v-.02c0-1.19-.91-1.99-1.87-1.99s-1.82.74-1.82,1.99v.02c0,1.22.84,2,1.82,2s1.87-.81,1.87-2Z"/>
          <path class="cls-7" d="m222.91,23.98h.77v.9c.34-.56.88-1.01,1.77-1.01,1.25,0,1.98.84,1.98,2.07v3.21h-.77v-3.02c0-.96-.52-1.56-1.43-1.56s-1.55.65-1.55,1.62v2.96h-.77v-5.17Z"/>
          <path class="cls-7" d="m228.75,26.59v-.02c0-1.46,1.14-2.7,2.7-2.7s2.69,1.22,2.69,2.68v.02c0,1.46-1.15,2.7-2.71,2.7s-2.68-1.22-2.68-2.68Zm4.6,0v-.02c0-1.11-.83-2.02-1.92-2.02s-1.89.91-1.89,2v.02c0,1.11.82,2.01,1.91,2.01s1.9-.9,1.9-1.99Z"/>
          <path class="cls-7" d="m235.53,23.98h.77v1.35c.38-.86,1.13-1.48,2.11-1.44v.83h-.06c-1.13,0-2.05.81-2.05,2.37v2.06h-.77v-5.17Z"/>
          <path class="cls-7" d="m239.58,23.98h.77v.87c.34-.51.8-.98,1.67-.98s1.38.45,1.66,1.03c.37-.57.92-1.03,1.82-1.03,1.19,0,1.92.8,1.92,2.08v3.2h-.77v-3.02c0-1-.5-1.56-1.34-1.56-.78,0-1.43.58-1.43,1.6v2.98h-.76v-3.04c0-.97-.51-1.54-1.33-1.54s-1.44.68-1.44,1.63v2.95h-.77v-5.17Z"/>
          <path class="cls-7" d="m248.67,27.65v-.02c0-1.09.9-1.67,2.21-1.67.66,0,1.13.09,1.59.22v-.18c0-.93-.57-1.41-1.54-1.41-.61,0-1.09.16-1.57.38l-.23-.63c.57-.26,1.13-.43,1.88-.43s1.29.19,1.67.57c.35.35.53.85.53,1.51v3.16h-.74v-.78c-.36.47-.96.89-1.87.89-.96,0-1.93-.55-1.93-1.61Zm3.81-.4v-.5c-.38-.11-.89-.22-1.52-.22-.97,0-1.51.42-1.51,1.07v.02c0,.65.6,1.03,1.3,1.03.95,0,1.73-.58,1.73-1.4Z"/>
          <path class="cls-7" d="m254.92,21.85h.77v7.3h-.77v-7.3Z"/>
          <path class="cls-7" d="m257.5,22h.88v.85h-.88v-.85Zm.05,1.98h.77v5.17h-.77v-5.17Z"/>
          <path class="cls-7" d="m259.81,28.66l3.43-4.03h-3.31v-.65h4.36v.49l-3.44,4.03h3.44v.65h-4.48v-.49Z"/>
          <path class="cls-7" d="m265.28,27.65v-.02c0-1.09.9-1.67,2.21-1.67.66,0,1.13.09,1.59.22v-.18c0-.93-.57-1.41-1.54-1.41-.61,0-1.09.16-1.57.38l-.23-.63c.57-.26,1.13-.43,1.88-.43s1.29.19,1.67.57c.35.35.53.85.53,1.51v3.16h-.74v-.78c-.36.47-.96.89-1.87.89-.96,0-1.93-.55-1.93-1.61Zm3.81-.4v-.5c-.38-.11-.89-.22-1.52-.22-.97,0-1.51.42-1.51,1.07v.02c0,.65.6,1.03,1.3,1.03.95,0,1.73-.58,1.73-1.4Z"/>
          <path class="cls-7" d="m271.68,27.78v-3.12h-.72v-.68h.72v-1.56h.77v1.56h1.64v.68h-1.64v3.02c0,.63.35.86.87.86.26,0,.48-.05.75-.18v.66c-.27.14-.56.22-.93.22-.83,0-1.46-.41-1.46-1.46Z"/>
          <path class="cls-7" d="m275.47,22h.88v.85h-.88v-.85Zm.05,1.98h.77v5.17h-.77v-5.17Z"/>
          <path class="cls-7" d="m277.76,26.59v-.02c0-1.46,1.14-2.7,2.7-2.7s2.69,1.22,2.69,2.68v.02c0,1.46-1.15,2.7-2.71,2.7s-2.68-1.22-2.68-2.68Zm4.6,0v-.02c0-1.11-.83-2.02-1.92-2.02s-1.89.91-1.89,2v.02c0,1.11.82,2.01,1.91,2.01s1.9-.9,1.9-1.99Z"/>
          <path class="cls-7" d="m284.54,23.98h.77v.9c.34-.56.88-1.01,1.77-1.01,1.25,0,1.98.84,1.98,2.07v3.21h-.77v-3.02c0-.96-.52-1.56-1.43-1.56s-1.55.65-1.55,1.62v2.96h-.77v-5.17Z"/>
          <path class="cls-7" d="m239.25,37.59v-.02c0-1.46,1.14-2.7,2.7-2.7s2.69,1.22,2.69,2.68v.02c0,1.46-1.15,2.7-2.71,2.7s-2.68-1.22-2.68-2.68Zm4.6,0v-.02c0-1.11-.83-2.02-1.92-2.02s-1.89.91-1.89,2v.02c0,1.11.82,2.01,1.91,2.01s1.9-.9,1.9-1.99Z"/>
          <path class="cls-7" d="m246.32,35.66h-.71v-.67h.71v-.45c0-.59.16-1.04.45-1.33.26-.26.64-.4,1.11-.4.36,0,.6.04.85.13v.67c-.28-.08-.49-.13-.75-.13-.6,0-.9.36-.9,1.1v.42h1.64v.66h-1.63v4.49h-.77v-4.49Z"/>
          <path class="cls-7" d="m252.52,36.67v-.02c0-1.98,1.48-3.62,3.54-3.62,1.27,0,2.03.45,2.73,1.11l-.54.58c-.59-.56-1.25-.96-2.2-.96-1.55,0-2.71,1.26-2.71,2.87v.02c0,1.62,1.17,2.89,2.71,2.89.96,0,1.59-.37,2.26-1.01l.52.51c-.73.74-1.53,1.23-2.8,1.23-2.02,0-3.51-1.59-3.51-3.6Z"/>
          <path class="cls-7" d="m260.25,33.15h3.01c.86,0,1.55.26,1.99.7.34.34.54.83.54,1.38v.02c0,1.16-.8,1.84-1.9,2.04l2.15,2.86h-.97l-2.03-2.72h-2v2.72h-.79v-7Zm2.94,3.57c1.05,0,1.8-.54,1.8-1.44v-.02c0-.86-.66-1.38-1.79-1.38h-2.16v2.84h2.15Z"/>
          <path class="cls-7" d="m267.48,33.15h2.62c1.58,0,2.62.84,2.62,2.22v.02c0,1.51-1.26,2.29-2.75,2.29h-1.7v2.47h-.79v-7Zm2.52,3.81c1.16,0,1.92-.62,1.92-1.54v-.02c0-1-.75-1.52-1.88-1.52h-1.77v3.08h1.73Z"/>
        </g>
        <g>
          <path class="cls-15" d="m567.39,69.31v-.02c0-1.98,1.48-3.62,3.54-3.62,1.27,0,2.03.45,2.73,1.11l-.54.58c-.59-.56-1.25-.96-2.2-.96-1.55,0-2.71,1.26-2.71,2.87v.02c0,1.62,1.17,2.89,2.71,2.89.96,0,1.59-.37,2.26-1.01l.52.51c-.73.74-1.53,1.23-2.8,1.23-2.02,0-3.51-1.59-3.51-3.6Z"/>
          <path class="cls-15" d="m574.57,70.23v-.02c0-1.46,1.14-2.7,2.7-2.7s2.69,1.22,2.69,2.68v.02c0,1.46-1.15,2.7-2.71,2.7s-2.68-1.22-2.68-2.68Zm4.6,0v-.02c0-1.11-.83-2.02-1.92-2.02s-1.89.91-1.89,2v.02c0,1.11.82,2.01,1.91,2.01s1.9-.9,1.9-1.99Z"/>
          <path class="cls-15" d="m581.35,67.62h.77v.9c.34-.56.88-1.01,1.77-1.01,1.25,0,1.98.84,1.98,2.07v3.21h-.77v-3.02c0-.96-.52-1.56-1.43-1.56s-1.55.65-1.55,1.62v2.96h-.77v-5.17Z"/>
          <path class="cls-15" d="m587.08,72.13l.39-.55c.56.42,1.18.66,1.79.66s1.07-.32,1.07-.82v-.02c0-.52-.61-.72-1.29-.91-.81-.23-1.71-.51-1.71-1.46v-.02c0-.89.74-1.48,1.76-1.48.63,0,1.33.22,1.86.57l-.35.58c-.48-.31-1.03-.5-1.53-.5-.61,0-1,.32-1,.75v.02c0,.49.64.68,1.33.89.8.24,1.66.55,1.66,1.48v.02c0,.98-.81,1.55-1.84,1.55-.74,0-1.56-.29-2.14-.76Z"/>
          <path class="cls-15" d="m592.51,65.64h.88v.85h-.88v-.85Zm.05,1.98h.77v5.17h-.77v-5.17Z"/>
          <path class="cls-15" d="m594.82,70.22v-.02c0-1.69,1.23-2.69,2.47-2.69.96,0,1.58.52,1.98,1.1v-3.12h.77v7.3h-.77v-1.04c-.42.62-1.03,1.15-1.98,1.15-1.24,0-2.47-.98-2.47-2.68Zm4.48,0v-.02c0-1.19-.91-1.99-1.87-1.99s-1.82.74-1.82,1.99v.02c0,1.22.84,2,1.82,2s1.87-.81,1.87-2Z"/>
          <path class="cls-15" d="m601.44,70.22v-.02c0-1.49,1.05-2.69,2.48-2.69,1.53,0,2.41,1.22,2.41,2.73,0,.1,0,.16,0,.25h-4.1c.11,1.12.9,1.75,1.82,1.75.71,0,1.21-.29,1.63-.73l.48.43c-.52.58-1.15.97-2.13.97-1.42,0-2.58-1.09-2.58-2.69Zm4.11-.3c-.08-.94-.62-1.76-1.65-1.76-.9,0-1.58.75-1.68,1.76h3.33Z"/>
          <path class="cls-15" d="m607.68,67.62h.77v1.35c.38-.86,1.13-1.48,2.11-1.44v.83h-.06c-1.13,0-2.05.81-2.05,2.37v2.06h-.77v-5.17Z"/>
          <path class="cls-15" d="m610.43,73.66c.5-.18.71-.44.67-.87h-.36v-1.05h.92v.9c0,.81-.35,1.2-1.11,1.37l-.12-.35Z"/>
          <path class="cls-15" d="m617.05,71.8v.99h-.77v-7.3h.77v3.17c.42-.62,1.03-1.15,1.98-1.15,1.24,0,2.47.98,2.47,2.68v.02c0,1.69-1.22,2.69-2.47,2.69-.96,0-1.58-.52-1.98-1.1Zm3.66-1.58v-.02c0-1.22-.84-2-1.82-2s-1.87.81-1.87,1.99v.02c0,1.2.91,2,1.87,2s1.82-.74,1.82-1.99Z"/>
          <path class="cls-15" d="m622.84,70.83v-3.21h.77v3.02c0,.96.52,1.56,1.43,1.56s1.55-.65,1.55-1.62v-2.96h.76v5.17h-.76v-.9c-.35.56-.88,1.01-1.77,1.01-1.25,0-1.98-.84-1.98-2.07Z"/>
          <path class="cls-15" d="m629.35,71.42v-3.12h-.72v-.68h.72v-1.56h.77v1.56h1.64v.68h-1.64v3.02c0,.63.35.86.87.86.26,0,.48-.05.75-.18v.66c-.27.14-.56.22-.93.22-.83,0-1.46-.41-1.46-1.46Z"/>
          <path class="cls-15" d="m636.12,67.62h.77v.9c.34-.56.88-1.01,1.77-1.01,1.25,0,1.98.84,1.98,2.07v3.21h-.77v-3.02c0-.96-.52-1.56-1.43-1.56s-1.55.65-1.55,1.62v2.96h-.77v-5.17Z"/>
          <path class="cls-15" d="m641.96,70.23v-.02c0-1.46,1.14-2.7,2.7-2.7s2.69,1.22,2.69,2.68v.02c0,1.46-1.15,2.7-2.71,2.7s-2.68-1.22-2.68-2.68Zm4.6,0v-.02c0-1.11-.83-2.02-1.92-2.02s-1.89.91-1.89,2v.02c0,1.11.82,2.01,1.91,2.01s1.9-.9,1.9-1.99Z"/>
          <path class="cls-15" d="m649.01,71.42v-3.12h-.72v-.68h.72v-1.56h.77v1.56h1.64v.68h-1.64v3.02c0,.63.35.86.87.86.26,0,.48-.05.75-.18v.66c-.27.14-.56.22-.93.22-.83,0-1.46-.41-1.46-1.46Z"/>
          <path class="cls-15" d="m655.39,71.29v-.02c0-1.09.9-1.67,2.21-1.67.66,0,1.13.09,1.59.22v-.18c0-.93-.57-1.41-1.54-1.41-.61,0-1.09.16-1.57.38l-.23-.63c.57-.26,1.13-.43,1.88-.43s1.29.19,1.67.57c.35.35.53.85.53,1.51v3.16h-.74v-.78c-.36.47-.96.89-1.87.89-.96,0-1.93-.55-1.93-1.61Zm3.81-.4v-.5c-.38-.11-.89-.22-1.52-.22-.97,0-1.51.42-1.51,1.07v.02c0,.65.6,1.03,1.3,1.03.95,0,1.73-.58,1.73-1.4Z"/>
          <path class="cls-15" d="m580.97,79.3h-.71v-.67h.71v-.45c0-.59.16-1.04.45-1.33.26-.26.64-.4,1.11-.4.36,0,.6.04.85.13v.67c-.28-.08-.49-.13-.75-.13-.6,0-.9.36-.9,1.1v.42h1.64v.66h-1.63v4.49h-.77v-4.49Z"/>
          <path class="cls-15" d="m583.93,81.23v-.02c0-1.46,1.14-2.7,2.7-2.7s2.69,1.22,2.69,2.68v.02c0,1.46-1.15,2.7-2.71,2.7s-2.68-1.22-2.68-2.68Zm4.6,0v-.02c0-1.11-.83-2.02-1.92-2.02s-1.89.91-1.89,2v.02c0,1.11.82,2.01,1.91,2.01s1.9-.9,1.9-1.99Z"/>
          <path class="cls-15" d="m590.71,78.62h.77v1.35c.38-.86,1.13-1.48,2.11-1.44v.83h-.06c-1.13,0-2.05.81-2.05,2.37v2.06h-.77v-5.17Z"/>
          <path class="cls-15" d="m594.76,78.62h.77v.87c.34-.51.8-.98,1.67-.98s1.38.45,1.66,1.03c.37-.57.92-1.03,1.82-1.03,1.19,0,1.92.8,1.92,2.08v3.2h-.77v-3.02c0-1-.5-1.56-1.34-1.56-.78,0-1.43.58-1.43,1.6v2.98h-.76v-3.04c0-.97-.51-1.54-1.33-1.54s-1.44.68-1.44,1.63v2.95h-.77v-5.17Z"/>
          <path class="cls-15" d="m603.85,82.29v-.02c0-1.09.9-1.67,2.21-1.67.66,0,1.13.09,1.59.22v-.18c0-.93-.57-1.41-1.54-1.41-.61,0-1.09.16-1.57.38l-.23-.63c.57-.26,1.13-.43,1.88-.43s1.29.19,1.67.57c.35.35.53.85.53,1.51v3.16h-.74v-.78c-.36.47-.96.89-1.87.89-.96,0-1.93-.55-1.93-1.61Zm3.81-.4v-.5c-.38-.11-.89-.22-1.52-.22-.97,0-1.51.42-1.51,1.07v.02c0,.65.6,1.03,1.3,1.03.95,0,1.73-.58,1.73-1.4Z"/>
          <path class="cls-15" d="m610.1,76.49h.77v7.3h-.77v-7.3Z"/>
          <path class="cls-15" d="m615.93,82.42v-3.12h-.72v-.68h.72v-1.56h.77v1.56h1.64v.68h-1.64v3.02c0,.63.35.86.87.86.26,0,.48-.05.75-.18v.66c-.27.14-.56.22-.93.22-.83,0-1.46-.41-1.46-1.46Z"/>
          <path class="cls-15" d="m619.31,82.29v-.02c0-1.09.9-1.67,2.21-1.67.66,0,1.13.09,1.59.22v-.18c0-.93-.57-1.41-1.54-1.41-.61,0-1.09.16-1.57.38l-.23-.63c.57-.26,1.13-.43,1.88-.43s1.29.19,1.67.57c.35.35.53.85.53,1.51v3.16h-.74v-.78c-.36.47-.96.89-1.87.89-.96,0-1.93-.55-1.93-1.61Zm3.81-.4v-.5c-.38-.11-.89-.22-1.52-.22-.97,0-1.51.42-1.51,1.07v.02c0,.65.6,1.03,1.3,1.03.95,0,1.73-.58,1.73-1.4Z"/>
          <path class="cls-15" d="m625.49,78.62h.77v1.35c.38-.86,1.13-1.48,2.11-1.44v.83h-.06c-1.13,0-2.05.81-2.05,2.37v2.06h-.77v-5.17Z"/>
          <path class="cls-15" d="m629.27,84.69l.35-.6c.59.43,1.25.66,1.99.66,1.14,0,1.88-.63,1.88-1.84v-.61c-.45.6-1.08,1.09-2.03,1.09-1.24,0-2.43-.93-2.43-2.42v-.02c0-1.51,1.2-2.44,2.43-2.44.97,0,1.6.48,2.02,1.04v-.93h.77v4.27c0,.8-.24,1.41-.66,1.83-.46.46-1.15.69-1.97.69-.86,0-1.66-.24-2.35-.72Zm4.24-3.73v-.02c0-1.06-.92-1.75-1.9-1.75s-1.79.68-1.79,1.74v.02c0,1.04.83,1.76,1.79,1.76s1.9-.71,1.9-1.75Z"/>
          <path class="cls-15" d="m635.65,81.22v-.02c0-1.49,1.05-2.69,2.48-2.69,1.53,0,2.41,1.22,2.41,2.73,0,.1,0,.16,0,.25h-4.1c.11,1.12.9,1.75,1.82,1.75.71,0,1.21-.29,1.63-.73l.48.43c-.52.58-1.15.97-2.13.97-1.42,0-2.58-1.09-2.58-2.69Zm4.11-.3c-.08-.94-.62-1.76-1.65-1.76-.9,0-1.58.75-1.68,1.76h3.33Z"/>
          <path class="cls-15" d="m642.16,82.42v-3.12h-.72v-.68h.72v-1.56h.77v1.56h1.64v.68h-1.64v3.02c0,.63.35.86.87.86.26,0,.48-.05.75-.18v.66c-.27.14-.56.22-.93.22-.83,0-1.46-.41-1.46-1.46Z"/>
          <path class="cls-15" d="m645.88,78.62h.92v1.05h-.92v-1.05Zm0,4.12h.92v1.05h-.92v-1.05Z"/>
          <path class="cls-15" d="m569.99,99.52h-2.36v-.73h5.51v.73h-2.36v6.27h-.79v-6.27Z"/>
          <path class="cls-15" d="m573.59,100.62h.77v1.35c.38-.86,1.13-1.48,2.11-1.44v.83h-.06c-1.13,0-2.05.81-2.05,2.37v2.06h-.77v-5.17Z"/>
          <path class="cls-15" d="m577,104.29v-.02c0-1.09.9-1.67,2.21-1.67.66,0,1.13.09,1.59.22v-.18c0-.93-.57-1.41-1.54-1.41-.61,0-1.09.16-1.57.38l-.23-.63c.57-.26,1.13-.43,1.88-.43s1.29.19,1.67.57c.35.35.53.85.53,1.51v3.16h-.74v-.78c-.36.47-.96.89-1.87.89-.96,0-1.93-.55-1.93-1.61Zm3.81-.4v-.5c-.38-.11-.89-.22-1.52-.22-.97,0-1.51.42-1.51,1.07v.02c0,.65.6,1.03,1.3,1.03.95,0,1.73-.58,1.73-1.4Z"/>
          <path class="cls-15" d="m583.18,100.62h.77v.9c.34-.56.88-1.01,1.77-1.01,1.25,0,1.98.84,1.98,2.07v3.21h-.77v-3.02c0-.96-.52-1.56-1.43-1.56s-1.55.65-1.55,1.62v2.96h-.77v-5.17Z"/>
          <path class="cls-15" d="m588.91,105.13l.39-.55c.56.42,1.18.66,1.79.66s1.07-.32,1.07-.82v-.02c0-.52-.61-.72-1.29-.91-.81-.23-1.71-.51-1.71-1.46v-.02c0-.89.74-1.48,1.76-1.48.63,0,1.33.22,1.86.57l-.35.58c-.48-.31-1.03-.5-1.53-.5-.61,0-1,.32-1,.75v.02c0,.49.64.68,1.33.89.8.24,1.66.55,1.66,1.48v.02c0,.98-.81,1.55-1.84,1.55-.74,0-1.56-.29-2.14-.76Z"/>
          <path class="cls-15" d="m594.32,100.62h.77v.87c.34-.51.8-.98,1.67-.98s1.38.45,1.66,1.03c.37-.57.92-1.03,1.82-1.03,1.19,0,1.92.8,1.92,2.08v3.2h-.77v-3.02c0-1-.5-1.56-1.34-1.56-.78,0-1.43.58-1.43,1.6v2.98h-.76v-3.04c0-.97-.51-1.54-1.33-1.54s-1.44.68-1.44,1.63v2.95h-.77v-5.17Z"/>
          <path class="cls-15" d="m603.72,103.83v-3.21h.77v3.02c0,.96.52,1.56,1.43,1.56s1.55-.65,1.55-1.62v-2.96h.76v5.17h-.76v-.9c-.35.56-.88,1.01-1.77,1.01-1.25,0-1.98-.84-1.98-2.07Z"/>
          <path class="cls-15" d="m609.96,100.62h.77v1.35c.38-.86,1.13-1.48,2.11-1.44v.83h-.06c-1.13,0-2.05.81-2.05,2.37v2.06h-.77v-5.17Z"/>
          <path class="cls-15" d="m613.37,104.29v-.02c0-1.09.9-1.67,2.21-1.67.66,0,1.13.09,1.59.22v-.18c0-.93-.57-1.41-1.54-1.41-.61,0-1.09.16-1.57.38l-.23-.63c.57-.26,1.13-.43,1.88-.43s1.29.19,1.67.57c.35.35.53.85.53,1.51v3.16h-.74v-.78c-.36.47-.96.89-1.87.89-.96,0-1.93-.55-1.93-1.61Zm3.81-.4v-.5c-.38-.11-.89-.22-1.52-.22-.97,0-1.51.42-1.51,1.07v.02c0,.65.6,1.03,1.3,1.03.95,0,1.73-.58,1.73-1.4Z"/>
          <path class="cls-15" d="m619.62,98.49h.77v7.3h-.77v-7.3Z"/>
          <path class="cls-15" d="m625.18,98.49h.77v3.03c.34-.56.88-1.01,1.77-1.01,1.25,0,1.98.84,1.98,2.07v3.21h-.77v-3.02c0-.96-.52-1.56-1.43-1.56s-1.55.65-1.55,1.62v2.96h-.77v-7.3Z"/>
          <path class="cls-15" d="m631.02,103.22v-.02c0-1.49,1.05-2.69,2.48-2.69,1.53,0,2.41,1.22,2.41,2.73,0,.1,0,.16,0,.25h-4.1c.11,1.12.9,1.75,1.82,1.75.71,0,1.21-.29,1.63-.73l.48.43c-.52.58-1.15.97-2.13.97-1.42,0-2.58-1.09-2.58-2.69Zm4.11-.3c-.08-.94-.62-1.76-1.65-1.76-.9,0-1.58.75-1.68,1.76h3.33Z"/>
          <path class="cls-15" d="m636.87,104.29v-.02c0-1.09.9-1.67,2.21-1.67.66,0,1.13.09,1.59.22v-.18c0-.93-.57-1.41-1.54-1.41-.61,0-1.09.16-1.57.38l-.23-.63c.57-.26,1.13-.43,1.88-.43s1.29.19,1.67.57c.35.35.53.85.53,1.51v3.16h-.74v-.78c-.36.47-.96.89-1.87.89-.96,0-1.93-.55-1.93-1.61Zm3.81-.4v-.5c-.38-.11-.89-.22-1.52-.22-.97,0-1.51.42-1.51,1.07v.02c0,.65.6,1.03,1.3,1.03.95,0,1.73-.58,1.73-1.4Z"/>
          <path class="cls-15" d="m643.12,98.49h.77v7.3h-.77v-7.3Z"/>
          <path class="cls-15" d="m645.7,98.64h.88v.85h-.88v-.85Zm.05,1.98h.77v5.17h-.77v-5.17Z"/>
          <path class="cls-15" d="m648.31,100.62h.77v.9c.34-.56.88-1.01,1.77-1.01,1.25,0,1.98.84,1.98,2.07v3.21h-.77v-3.02c0-.96-.52-1.56-1.43-1.56s-1.55.65-1.55,1.62v2.96h-.77v-5.17Z"/>
          <path class="cls-15" d="m654.41,106.69l.35-.6c.59.43,1.25.66,1.99.66,1.14,0,1.88-.63,1.88-1.84v-.61c-.45.6-1.08,1.09-2.03,1.09-1.24,0-2.43-.93-2.43-2.42v-.02c0-1.51,1.2-2.44,2.43-2.44.97,0,1.6.48,2.02,1.04v-.93h.77v4.27c0,.8-.24,1.41-.66,1.83-.46.46-1.15.69-1.97.69s-1.66-.24-2.35-.72Zm4.24-3.73v-.02c0-1.06-.92-1.75-1.9-1.75s-1.79.68-1.79,1.74v.02c0,1.04.83,1.76,1.79,1.76s1.9-.71,1.9-1.75Z"/>
        </g>
        <g>
          <path class="cls-7" d="m301.29,236.25h.79v7h-.79v-7Z"/>
          <path class="cls-7" d="m304,238.08h.77v.9c.34-.56.88-1.01,1.77-1.01,1.25,0,1.98.84,1.98,2.07v3.21h-.77v-3.02c0-.96-.52-1.56-1.43-1.56s-1.55.65-1.55,1.62v2.96h-.77v-5.17Z"/>
          <path class="cls-7" d="m310.43,241.87v-3.12h-.72v-.68h.72v-1.56h.77v1.56h1.64v.68h-1.64v3.02c0,.63.35.86.87.86.26,0,.48-.05.75-.18v.66c-.27.14-.56.22-.93.22-.83,0-1.46-.41-1.46-1.46Z"/>
          <path class="cls-7" d="m313.73,240.67v-.02c0-1.49,1.05-2.69,2.48-2.69,1.53,0,2.41,1.22,2.41,2.73,0,.1,0,.16,0,.25h-4.1c.11,1.12.9,1.75,1.82,1.75.71,0,1.21-.29,1.63-.73l.48.43c-.52.58-1.15.97-2.13.97-1.42,0-2.58-1.09-2.58-2.69Zm4.11-.3c-.08-.94-.62-1.76-1.65-1.76-.9,0-1.58.75-1.68,1.76h3.33Z"/>
          <path class="cls-7" d="m319.97,238.08h.77v1.35c.38-.86,1.13-1.48,2.11-1.44v.83h-.06c-1.13,0-2.05.81-2.05,2.37v2.06h-.77v-5.17Z"/>
          <path class="cls-7" d="m324.02,238.08h.77v.87c.34-.51.8-.98,1.67-.98s1.38.45,1.66,1.03c.37-.57.92-1.03,1.82-1.03,1.19,0,1.92.8,1.92,2.08v3.2h-.77v-3.02c0-1-.5-1.56-1.34-1.56-.78,0-1.43.58-1.43,1.6v2.98h-.76v-3.04c0-.97-.51-1.54-1.33-1.54s-1.44.68-1.44,1.63v2.95h-.77v-5.17Z"/>
          <path class="cls-7" d="m333.18,240.67v-.02c0-1.49,1.05-2.69,2.48-2.69,1.53,0,2.41,1.22,2.41,2.73,0,.1,0,.16-.01.25h-4.1c.11,1.12.9,1.75,1.82,1.75.71,0,1.21-.29,1.63-.73l.48.43c-.52.58-1.15.97-2.13.97-1.42,0-2.58-1.09-2.58-2.69Zm4.11-.3c-.08-.94-.62-1.76-1.65-1.76-.9,0-1.58.75-1.68,1.76h3.33Z"/>
          <path class="cls-7" d="m339.12,240.67v-.02c0-1.69,1.23-2.69,2.47-2.69.96,0,1.58.52,1.98,1.1v-3.12h.77v7.3h-.77v-1.04c-.42.62-1.03,1.15-1.98,1.15-1.24,0-2.47-.98-2.47-2.68Zm4.48,0v-.02c0-1.19-.91-1.99-1.87-1.99s-1.82.74-1.82,1.99v.02c0,1.22.84,2,1.82,2s1.87-.81,1.87-2Z"/>
          <path class="cls-7" d="m346.08,236.1h.88v.85h-.88v-.85Zm.05,1.98h.77v5.17h-.77v-5.17Z"/>
          <path class="cls-7" d="m348.3,241.74v-.02c0-1.09.9-1.67,2.21-1.67.66,0,1.13.09,1.59.22v-.18c0-.93-.57-1.41-1.54-1.41-.61,0-1.09.16-1.57.38l-.23-.63c.57-.26,1.13-.43,1.88-.43s1.29.19,1.67.57c.35.35.53.85.53,1.51v3.16h-.74v-.78c-.36.47-.96.89-1.87.89-.96,0-1.93-.55-1.93-1.61Zm3.81-.4v-.5c-.38-.11-.89-.22-1.52-.22-.97,0-1.51.42-1.51,1.07v.02c0,.65.6,1.03,1.3,1.03.95,0,1.73-.58,1.73-1.4Z"/>
          <path class="cls-7" d="m354.7,241.87v-3.12h-.72v-.68h.72v-1.56h.77v1.56h1.64v.68h-1.64v3.02c0,.63.35.86.87.86.26,0,.48-.05.75-.18v.66c-.27.14-.56.22-.93.22-.83,0-1.46-.41-1.46-1.46Z"/>
          <path class="cls-7" d="m358,240.67v-.02c0-1.49,1.05-2.69,2.48-2.69,1.53,0,2.41,1.22,2.41,2.73,0,.1,0,.16,0,.25h-4.1c.11,1.12.9,1.75,1.82,1.75.71,0,1.21-.29,1.63-.73l.48.43c-.52.58-1.15.97-2.13.97-1.42,0-2.58-1.09-2.58-2.69Zm4.11-.3c-.08-.94-.62-1.76-1.65-1.76-.9,0-1.58.75-1.68,1.76h3.33Z"/>
          <path class="cls-7" d="m367.51,241.87v-3.12h-.72v-.68h.72v-1.56h.77v1.56h1.64v.68h-1.64v3.02c0,.63.35.86.87.86.26,0,.48-.05.75-.18v.66c-.27.14-.56.22-.93.22-.83,0-1.46-.41-1.46-1.46Z"/>
          <path class="cls-7" d="m370.89,241.74v-.02c0-1.09.9-1.67,2.21-1.67.66,0,1.13.09,1.59.22v-.18c0-.93-.57-1.41-1.54-1.41-.61,0-1.09.16-1.57.38l-.23-.63c.57-.26,1.13-.43,1.88-.43s1.29.19,1.67.57c.35.35.53.85.53,1.51v3.16h-.74v-.78c-.36.47-.96.89-1.87.89-.96,0-1.93-.55-1.93-1.61Zm3.81-.4v-.5c-.38-.11-.89-.22-1.52-.22-.97,0-1.51.42-1.51,1.07v.02c0,.65.6,1.03,1.3,1.03.95,0,1.73-.58,1.73-1.4Z"/>
          <path class="cls-7" d="m377.07,238.08h.77v1.35c.38-.86,1.13-1.48,2.11-1.44v.83h-.06c-1.13,0-2.05.81-2.05,2.37v2.06h-.77v-5.17Z"/>
          <path class="cls-7" d="m380.85,244.14l.35-.6c.59.43,1.25.66,1.99.66,1.14,0,1.88-.63,1.88-1.84v-.61c-.45.6-1.08,1.09-2.03,1.09-1.24,0-2.43-.93-2.43-2.42v-.02c0-1.51,1.2-2.44,2.43-2.44.97,0,1.6.48,2.02,1.04v-.93h.77v4.27c0,.8-.24,1.41-.66,1.83-.46.46-1.15.69-1.97.69-.86,0-1.66-.24-2.35-.72Zm4.24-3.73v-.02c0-1.06-.92-1.75-1.9-1.75s-1.79.68-1.79,1.74v.02c0,1.04.83,1.76,1.79,1.76s1.9-.71,1.9-1.75Z"/>
          <path class="cls-7" d="m387.23,240.67v-.02c0-1.49,1.05-2.69,2.48-2.69,1.53,0,2.41,1.22,2.41,2.73,0,.1,0,.16,0,.25h-4.1c.11,1.12.9,1.75,1.82,1.75.71,0,1.21-.29,1.63-.73l.48.43c-.52.58-1.15.97-2.13.97-1.42,0-2.58-1.09-2.58-2.69Zm4.11-.3c-.08-.94-.62-1.76-1.65-1.76-.9,0-1.58.75-1.68,1.76h3.33Z"/>
          <path class="cls-7" d="m393.74,241.87v-3.12h-.72v-.68h.72v-1.56h.77v1.56h1.64v.68h-1.64v3.02c0,.63.35.86.87.86.26,0,.48-.05.75-.18v.66c-.27.14-.56.22-.93.22-.83,0-1.46-.41-1.46-1.46Z"/>
          <path class="cls-7" d="m397.08,242.58l.39-.55c.56.42,1.18.66,1.79.66s1.07-.32,1.07-.82v-.02c0-.52-.61-.72-1.29-.91-.81-.23-1.71-.51-1.71-1.46v-.02c0-.89.74-1.48,1.76-1.48.63,0,1.33.22,1.86.57l-.35.58c-.48-.31-1.03-.5-1.53-.5-.61,0-1,.32-1,.75v.02c0,.49.64.68,1.33.89.8.24,1.66.55,1.66,1.48v.02c0,.98-.81,1.55-1.84,1.55-.74,0-1.56-.29-2.14-.76Z"/>
        </g>
        <g>
          <path class="cls-7" d="m124.67,242.22l.49-.58c.73.66,1.43.99,2.4.99s1.56-.5,1.56-1.19v-.02c0-.65-.35-1.02-1.82-1.33-1.61-.35-2.35-.87-2.35-2.02v-.02c0-1.1.97-1.91,2.3-1.91,1.02,0,1.75.29,2.46.86l-.46.61c-.65-.53-1.3-.76-2.02-.76-.91,0-1.49.5-1.49,1.13v.02c0,.66.36,1.03,1.9,1.36,1.56.34,2.28.91,2.28,1.98v.02c0,1.2-1,1.98-2.39,1.98-1.11,0-2.02-.37-2.86-1.12Z"/>
          <path class="cls-7" d="m131.4,235.95h.77v3.03c.34-.56.88-1.01,1.77-1.01,1.25,0,1.98.84,1.98,2.07v3.21h-.77v-3.02c0-.96-.52-1.56-1.43-1.56s-1.55.65-1.55,1.62v2.96h-.77v-7.3Z"/>
          <path class="cls-7" d="m137.24,240.68v-.02c0-1.46,1.14-2.7,2.7-2.7s2.69,1.22,2.69,2.68v.02c0,1.46-1.15,2.7-2.71,2.7s-2.68-1.22-2.68-2.68Zm4.6,0v-.02c0-1.11-.83-2.02-1.92-2.02s-1.89.91-1.89,2v.02c0,1.11.82,2.01,1.91,2.01s1.9-.9,1.9-1.99Z"/>
          <path class="cls-7" d="m144.02,238.08h.77v1.35c.38-.86,1.13-1.48,2.11-1.44v.83h-.06c-1.13,0-2.05.81-2.05,2.37v2.06h-.77v-5.17Z"/>
          <path class="cls-7" d="m148.34,241.87v-3.12h-.72v-.68h.72v-1.56h.77v1.56h1.64v.68h-1.64v3.02c0,.63.35.86.87.86.26,0,.48-.05.75-.18v.66c-.27.14-.56.22-.93.22-.83,0-1.46-.41-1.46-1.46Z"/>
          <path class="cls-7" d="m151.9,239.83h2.78v.81h-2.78v-.81Z"/>
          <path class="cls-7" d="m156.46,241.87v-3.12h-.72v-.68h.72v-1.56h.77v1.56h1.64v.68h-1.64v3.02c0,.63.35.86.87.86.26,0,.48-.05.75-.18v.66c-.27.14-.56.22-.93.22-.83,0-1.46-.41-1.46-1.46Z"/>
          <path class="cls-7" d="m159.76,240.67v-.02c0-1.49,1.05-2.69,2.48-2.69,1.53,0,2.41,1.22,2.41,2.73,0,.1,0,.16-.01.25h-4.1c.11,1.12.9,1.75,1.82,1.75.71,0,1.21-.29,1.63-.73l.48.43c-.52.58-1.15.97-2.13.97-1.42,0-2.58-1.09-2.58-2.69Zm4.11-.3c-.08-.94-.62-1.76-1.65-1.76-.9,0-1.58.75-1.68,1.76h3.33Z"/>
          <path class="cls-7" d="m166,238.08h.77v1.35c.38-.86,1.13-1.48,2.11-1.44v.83h-.06c-1.13,0-2.05.81-2.05,2.37v2.06h-.77v-5.17Z"/>
          <path class="cls-7" d="m170.05,238.08h.77v.87c.34-.51.8-.98,1.67-.98s1.38.45,1.66,1.03c.37-.57.92-1.03,1.82-1.03,1.19,0,1.92.8,1.92,2.08v3.2h-.77v-3.02c0-1-.5-1.56-1.34-1.56-.78,0-1.43.58-1.43,1.6v2.98h-.76v-3.04c0-.97-.51-1.54-1.33-1.54s-1.44.68-1.44,1.63v2.95h-.77v-5.17Z"/>
          <path class="cls-7" d="m182.8,241.87v-3.12h-.72v-.68h.72v-1.56h.77v1.56h1.64v.68h-1.64v3.02c0,.63.35.86.87.86.26,0,.48-.05.75-.18v.66c-.27.14-.56.22-.93.22-.83,0-1.46-.41-1.46-1.46Z"/>
          <path class="cls-7" d="m186.18,241.74v-.02c0-1.09.9-1.67,2.21-1.67.66,0,1.13.09,1.59.22v-.18c0-.93-.57-1.41-1.54-1.41-.61,0-1.09.16-1.57.38l-.23-.63c.57-.26,1.13-.43,1.88-.43s1.29.19,1.67.57c.35.35.53.85.53,1.51v3.16h-.74v-.78c-.36.47-.96.89-1.87.89-.96,0-1.93-.55-1.93-1.61Zm3.81-.4v-.5c-.38-.11-.89-.22-1.52-.22-.97,0-1.51.42-1.51,1.07v.02c0,.65.6,1.03,1.3,1.03.95,0,1.73-.58,1.73-1.4Z"/>
          <path class="cls-7" d="m192.36,238.08h.77v1.35c.38-.86,1.13-1.48,2.11-1.44v.83h-.06c-1.13,0-2.05.81-2.05,2.37v2.06h-.77v-5.17Z"/>
          <path class="cls-7" d="m196.14,244.14l.35-.6c.59.43,1.25.66,1.99.66,1.14,0,1.88-.63,1.88-1.84v-.61c-.45.6-1.08,1.09-2.03,1.09-1.24,0-2.43-.93-2.43-2.42v-.02c0-1.51,1.2-2.44,2.43-2.44.97,0,1.6.48,2.02,1.04v-.93h.77v4.27c0,.8-.24,1.41-.66,1.83-.46.46-1.15.69-1.97.69-.86,0-1.66-.24-2.35-.72Zm4.24-3.73v-.02c0-1.06-.92-1.75-1.9-1.75s-1.79.68-1.79,1.74v.02c0,1.04.83,1.76,1.79,1.76s1.9-.71,1.9-1.75Z"/>
          <path class="cls-7" d="m202.52,240.67v-.02c0-1.49,1.05-2.69,2.48-2.69,1.53,0,2.41,1.22,2.41,2.73,0,.1,0,.16,0,.25h-4.1c.11,1.12.9,1.75,1.82,1.75.71,0,1.21-.29,1.63-.73l.48.43c-.52.58-1.15.97-2.13.97-1.42,0-2.58-1.09-2.58-2.69Zm4.11-.3c-.08-.94-.62-1.76-1.65-1.76-.9,0-1.58.75-1.68,1.76h3.33Z"/>
          <path class="cls-7" d="m209.03,241.87v-3.12h-.72v-.68h.72v-1.56h.77v1.56h1.64v.68h-1.64v3.02c0,.63.35.86.87.86.26,0,.48-.05.75-.18v.66c-.27.14-.56.22-.93.22-.83,0-1.46-.41-1.46-1.46Z"/>
          <path class="cls-7" d="m212.37,242.58l.39-.55c.56.42,1.18.66,1.79.66s1.07-.32,1.07-.82v-.02c0-.52-.61-.72-1.29-.91-.81-.23-1.71-.51-1.71-1.46v-.02c0-.89.74-1.48,1.76-1.48.63,0,1.33.22,1.86.57l-.35.58c-.48-.31-1.03-.5-1.53-.5-.61,0-1,.32-1,.75v.02c0,.49.64.68,1.33.89.8.24,1.66.55,1.66,1.48v.02c0,.98-.81,1.55-1.84,1.55-.74,0-1.56-.29-2.14-.76Z"/>
        </g>
        <g>
          <path class="cls-7" d="m516.96,236.25h.79v6.27h3.94v.73h-4.73v-7Z"/>
          <path class="cls-7" d="m522.6,240.68v-.02c0-1.46,1.14-2.7,2.7-2.7s2.69,1.22,2.69,2.68v.02c0,1.46-1.15,2.7-2.71,2.7s-2.68-1.22-2.68-2.68Zm4.6,0v-.02c0-1.11-.83-2.02-1.92-2.02s-1.89.91-1.89,2v.02c0,1.11.82,2.01,1.91,2.01s1.9-.9,1.9-1.99Z"/>
          <path class="cls-7" d="m529.38,238.08h.77v.9c.34-.56.88-1.01,1.77-1.01,1.25,0,1.98.84,1.98,2.07v3.21h-.77v-3.02c0-.96-.52-1.56-1.43-1.56s-1.55.65-1.55,1.62v2.96h-.77v-5.17Z"/>
          <path class="cls-7" d="m535.48,244.14l.35-.6c.59.43,1.25.66,1.99.66,1.14,0,1.88-.63,1.88-1.84v-.61c-.45.6-1.08,1.09-2.03,1.09-1.24,0-2.43-.93-2.43-2.42v-.02c0-1.51,1.2-2.44,2.43-2.44.97,0,1.6.48,2.02,1.04v-.93h.77v4.27c0,.8-.24,1.41-.66,1.83-.46.46-1.15.69-1.97.69s-1.66-.24-2.35-.72Zm4.24-3.73v-.02c0-1.06-.92-1.75-1.9-1.75s-1.79.68-1.79,1.74v.02c0,1.04.83,1.76,1.79,1.76s1.9-.71,1.9-1.75Z"/>
          <path class="cls-7" d="m541.97,239.83h2.78v.81h-2.78v-.81Z"/>
          <path class="cls-7" d="m546.53,241.87v-3.12h-.72v-.68h.72v-1.56h.77v1.56h1.64v.68h-1.64v3.02c0,.63.35.86.87.86.26,0,.48-.05.75-.18v.66c-.27.14-.56.22-.93.22-.83,0-1.46-.41-1.46-1.46Z"/>
          <path class="cls-7" d="m549.83,240.67v-.02c0-1.49,1.05-2.69,2.48-2.69,1.53,0,2.41,1.22,2.41,2.73,0,.1,0,.16,0,.25h-4.1c.11,1.12.9,1.75,1.82,1.75.71,0,1.21-.29,1.63-.73l.48.43c-.52.58-1.15.97-2.13.97-1.42,0-2.58-1.09-2.58-2.69Zm4.11-.3c-.08-.94-.62-1.76-1.65-1.76-.9,0-1.58.75-1.68,1.76h3.33Z"/>
          <path class="cls-7" d="m556.07,238.08h.77v1.35c.38-.86,1.13-1.48,2.11-1.44v.83h-.06c-1.13,0-2.05.81-2.05,2.37v2.06h-.77v-5.17Z"/>
          <path class="cls-7" d="m560.12,238.08h.77v.87c.34-.51.8-.98,1.67-.98s1.38.45,1.66,1.03c.37-.57.92-1.03,1.82-1.03,1.19,0,1.92.8,1.92,2.08v3.2h-.77v-3.02c0-1-.5-1.56-1.34-1.56-.78,0-1.43.58-1.43,1.6v2.98h-.76v-3.04c0-.97-.51-1.54-1.33-1.54s-1.44.68-1.44,1.63v2.95h-.77v-5.17Z"/>
          <path class="cls-7" d="m572.87,241.87v-3.12h-.72v-.68h.72v-1.56h.77v1.56h1.64v.68h-1.64v3.02c0,.63.35.86.87.86.26,0,.48-.05.75-.18v.66c-.27.14-.56.22-.93.22-.83,0-1.46-.41-1.46-1.46Z"/>
          <path class="cls-7" d="m576.25,241.74v-.02c0-1.09.9-1.67,2.21-1.67.66,0,1.13.09,1.59.22v-.18c0-.93-.57-1.41-1.54-1.41-.61,0-1.09.16-1.57.38l-.23-.63c.57-.26,1.13-.43,1.88-.43s1.29.19,1.67.57c.35.35.53.85.53,1.51v3.16h-.74v-.78c-.36.47-.96.89-1.87.89-.96,0-1.93-.55-1.93-1.61Zm3.81-.4v-.5c-.38-.11-.89-.22-1.52-.22-.97,0-1.51.42-1.51,1.07v.02c0,.65.6,1.03,1.3,1.03.95,0,1.73-.58,1.73-1.4Z"/>
          <path class="cls-7" d="m582.43,238.08h.77v1.35c.38-.86,1.13-1.48,2.11-1.44v.83h-.06c-1.13,0-2.05.81-2.05,2.37v2.06h-.77v-5.17Z"/>
          <path class="cls-7" d="m586.21,244.14l.35-.6c.59.43,1.25.66,1.99.66,1.14,0,1.88-.63,1.88-1.84v-.61c-.45.6-1.08,1.09-2.03,1.09-1.24,0-2.43-.93-2.43-2.42v-.02c0-1.51,1.2-2.44,2.43-2.44.97,0,1.6.48,2.02,1.04v-.93h.77v4.27c0,.8-.24,1.41-.66,1.83-.46.46-1.15.69-1.97.69-.86,0-1.66-.24-2.35-.72Zm4.24-3.73v-.02c0-1.06-.92-1.75-1.9-1.75s-1.79.68-1.79,1.74v.02c0,1.04.83,1.76,1.79,1.76s1.9-.71,1.9-1.75Z"/>
          <path class="cls-7" d="m592.59,240.67v-.02c0-1.49,1.05-2.69,2.48-2.69,1.53,0,2.41,1.22,2.41,2.73,0,.1,0,.16,0,.25h-4.1c.11,1.12.9,1.75,1.82,1.75.71,0,1.21-.29,1.63-.73l.48.43c-.52.58-1.15.97-2.13.97-1.42,0-2.58-1.09-2.58-2.69Zm4.11-.3c-.08-.94-.62-1.76-1.65-1.76-.9,0-1.58.75-1.68,1.76h3.33Z"/>
          <path class="cls-7" d="m599.1,241.87v-3.12h-.72v-.68h.72v-1.56h.77v1.56h1.64v.68h-1.64v3.02c0,.63.35.86.87.86.26,0,.48-.05.75-.18v.66c-.27.14-.56.22-.93.22-.83,0-1.46-.41-1.46-1.46Z"/>
          <path class="cls-7" d="m602.44,242.58l.39-.55c.56.42,1.18.66,1.79.66s1.07-.32,1.07-.82v-.02c0-.52-.61-.72-1.29-.91-.81-.23-1.71-.51-1.71-1.46v-.02c0-.89.74-1.48,1.76-1.48.63,0,1.33.22,1.86.57l-.35.58c-.48-.31-1.03-.5-1.53-.5-.61,0-1,.32-1,.75v.02c0,.49.64.68,1.33.89.8.24,1.66.55,1.66,1.48v.02c0,.98-.81,1.55-1.84,1.55-.74,0-1.56-.29-2.14-.76Z"/>
        </g>
        <g>
          <path class="cls-7" d="m436.12,11.15h5.06v.72h-4.27v2.39h3.82v.72h-3.82v2.45h4.32v.72h-5.11v-7Z"/>
          <path class="cls-7" d="m442.69,12.98h.77v.9c.34-.56.88-1.01,1.77-1.01,1.25,0,1.98.84,1.98,2.07v3.21h-.77v-3.02c0-.96-.52-1.56-1.43-1.56s-1.55.65-1.55,1.62v2.96h-.77v-5.17Z"/>
          <path class="cls-7" d="m448.55,15.58v-.02c0-1.69,1.23-2.69,2.47-2.69.96,0,1.58.52,1.98,1.1v-3.12h.77v7.3h-.77v-1.04c-.42.62-1.03,1.15-1.98,1.15-1.24,0-2.47-.98-2.47-2.68Zm4.48,0v-.02c0-1.19-.91-1.99-1.87-1.99s-1.82.74-1.82,1.99v.02c0,1.22.84,2,1.82,2s1.87-.81,1.87-2Z"/>
          <path class="cls-7" d="m455.17,15.59v-.02c0-1.46,1.14-2.7,2.7-2.7s2.69,1.22,2.69,2.68v.02c0,1.46-1.15,2.7-2.71,2.7s-2.68-1.22-2.68-2.68Zm4.6,0v-.02c0-1.11-.83-2.02-1.92-2.02s-1.89.91-1.89,2v.02c0,1.11.82,2.01,1.91,2.01s1.9-.9,1.9-1.99Z"/>
          <path class="cls-7" d="m461.52,17.49l.39-.55c.56.42,1.18.66,1.79.66s1.07-.32,1.07-.82v-.02c0-.52-.61-.72-1.29-.91-.81-.23-1.71-.51-1.71-1.46v-.02c0-.89.74-1.48,1.76-1.48.63,0,1.33.22,1.86.57l-.35.58c-.48-.31-1.03-.5-1.53-.5-.61,0-1,.32-1,.75v.02c0,.49.64.68,1.33.89.8.24,1.66.55,1.66,1.48v.02c0,.98-.81,1.55-1.84,1.55-.74,0-1.56-.29-2.14-.76Z"/>
          <path class="cls-7" d="m466.61,15.59v-.02c0-1.46,1.14-2.7,2.65-2.7.98,0,1.59.41,2.07.92l-.51.54c-.41-.43-.87-.78-1.57-.78-1.05,0-1.85.89-1.85,2v.02c0,1.12.82,2.01,1.9,2.01.66,0,1.17-.33,1.58-.77l.49.46c-.52.58-1.14,1-2.11,1-1.51,0-2.65-1.23-2.65-2.68Z"/>
          <path class="cls-7" d="m472.17,15.59v-.02c0-1.46,1.14-2.7,2.7-2.7s2.69,1.22,2.69,2.68v.02c0,1.46-1.15,2.7-2.71,2.7s-2.68-1.22-2.68-2.68Zm4.6,0v-.02c0-1.11-.83-2.02-1.92-2.02s-1.89.91-1.89,2v.02c0,1.11.82,2.01,1.91,2.01s1.9-.9,1.9-1.99Z"/>
          <path class="cls-7" d="m478.95,12.98h.77v1.04c.42-.62,1.03-1.15,1.98-1.15,1.24,0,2.47.98,2.47,2.68v.02c0,1.69-1.22,2.69-2.47,2.69-.96,0-1.58-.52-1.98-1.1v2.59h-.77v-6.77Zm4.43,2.6v-.02c0-1.22-.84-2-1.82-2s-1.87.81-1.87,1.99v.02c0,1.2.91,2,1.87,2s1.82-.74,1.82-1.99Z"/>
          <path class="cls-7" d="m485.61,11h.88v.85h-.88v-.85Zm.05,1.98h.77v5.17h-.77v-5.17Z"/>
          <path class="cls-7" d="m487.9,15.59v-.02c0-1.46,1.14-2.7,2.65-2.7.98,0,1.59.41,2.07.92l-.51.54c-.41-.43-.87-.78-1.57-.78-1.05,0-1.85.89-1.85,2v.02c0,1.12.82,2.01,1.9,2.01.66,0,1.17-.33,1.58-.77l.49.46c-.52.58-1.14,1-2.11,1-1.51,0-2.65-1.23-2.65-2.68Z"/>
          <path class="cls-7" d="m496.93,10.85h.77v3.03c.34-.56.88-1.01,1.77-1.01,1.25,0,1.98.84,1.98,2.07v3.21h-.77v-3.02c0-.96-.52-1.56-1.43-1.56s-1.55.65-1.55,1.62v2.96h-.77v-7.3Z"/>
          <path class="cls-7" d="m502.77,15.58v-.02c0-1.49,1.05-2.69,2.48-2.69,1.53,0,2.41,1.22,2.41,2.73,0,.1,0,.16,0,.25h-4.1c.11,1.12.9,1.75,1.82,1.75.71,0,1.21-.29,1.63-.73l.48.43c-.52.58-1.15.97-2.13.97-1.42,0-2.58-1.09-2.58-2.69Zm4.11-.3c-.08-.94-.62-1.76-1.65-1.76-.9,0-1.58.75-1.68,1.76h3.33Z"/>
          <path class="cls-7" d="m508.62,16.65v-.02c0-1.09.9-1.67,2.21-1.67.66,0,1.13.09,1.59.22v-.18c0-.93-.57-1.41-1.54-1.41-.61,0-1.09.16-1.57.38l-.23-.63c.57-.26,1.13-.43,1.88-.43s1.29.19,1.67.57c.35.35.53.85.53,1.51v3.16h-.74v-.78c-.36.47-.96.89-1.87.89-.96,0-1.93-.55-1.93-1.61Zm3.81-.4v-.5c-.38-.11-.89-.22-1.52-.22-.97,0-1.51.42-1.51,1.07v.02c0,.65.6,1.03,1.3,1.03.95,0,1.73-.58,1.73-1.4Z"/>
          <path class="cls-7" d="m514.87,10.85h.77v7.3h-.77v-7.3Z"/>
          <path class="cls-7" d="m517.45,11h.88v.85h-.88v-.85Zm.05,1.98h.77v5.17h-.77v-5.17Z"/>
          <path class="cls-7" d="m520.06,12.98h.77v.9c.34-.56.88-1.01,1.77-1.01,1.25,0,1.98.84,1.98,2.07v3.21h-.77v-3.02c0-.96-.52-1.56-1.43-1.56s-1.55.65-1.55,1.62v2.96h-.77v-5.17Z"/>
          <path class="cls-7" d="m526.16,19.05l.35-.6c.59.43,1.25.66,1.99.66,1.14,0,1.88-.63,1.88-1.84v-.61c-.45.6-1.08,1.09-2.03,1.09-1.24,0-2.43-.93-2.43-2.42v-.02c0-1.51,1.2-2.44,2.43-2.44.97,0,1.6.48,2.02,1.04v-.93h.77v4.27c0,.8-.24,1.41-.66,1.83-.46.46-1.15.69-1.97.69s-1.66-.24-2.35-.72Zm4.24-3.73v-.02c0-1.06-.92-1.75-1.9-1.75s-1.79.68-1.79,1.74v.02c0,1.04.83,1.76,1.79,1.76s1.9-.71,1.9-1.75Z"/>
          <path class="cls-7" d="m532.46,19.02c.5-.18.71-.44.67-.87h-.36v-1.05h.92v.9c0,.81-.35,1.2-1.11,1.37l-.12-.35Z"/>
          <path class="cls-7" d="m433.99,23.98h.77v.9c.34-.56.88-1.01,1.77-1.01,1.25,0,1.98.84,1.98,2.07v3.21h-.77v-3.02c0-.96-.52-1.56-1.43-1.56s-1.55.65-1.55,1.62v2.96h-.77v-5.17Z"/>
          <path class="cls-7" d="m439.83,26.59v-.02c0-1.46,1.14-2.7,2.7-2.7s2.69,1.22,2.69,2.68v.02c0,1.46-1.15,2.7-2.71,2.7s-2.68-1.22-2.68-2.68Zm4.6,0v-.02c0-1.11-.83-2.02-1.92-2.02s-1.89.91-1.89,2v.02c0,1.11.82,2.01,1.91,2.01s1.9-.9,1.9-1.99Z"/>
          <path class="cls-7" d="m446.61,23.98h.77v1.35c.38-.86,1.13-1.48,2.11-1.44v.83h-.06c-1.13,0-2.05.81-2.05,2.37v2.06h-.77v-5.17Z"/>
          <path class="cls-7" d="m450.66,23.98h.77v.87c.34-.51.8-.98,1.67-.98s1.38.45,1.66,1.03c.37-.57.92-1.03,1.82-1.03,1.19,0,1.92.8,1.92,2.08v3.2h-.77v-3.02c0-1-.5-1.56-1.34-1.56-.78,0-1.43.58-1.43,1.6v2.98h-.76v-3.04c0-.97-.51-1.54-1.33-1.54s-1.44.68-1.44,1.63v2.95h-.77v-5.17Z"/>
          <path class="cls-7" d="m459.75,27.65v-.02c0-1.09.9-1.67,2.21-1.67.66,0,1.13.09,1.59.22v-.18c0-.93-.57-1.41-1.54-1.41-.61,0-1.09.16-1.57.38l-.23-.63c.57-.26,1.13-.43,1.88-.43s1.29.19,1.67.57c.35.35.53.85.53,1.51v3.16h-.74v-.78c-.36.47-.96.89-1.87.89-.96,0-1.93-.55-1.93-1.61Zm3.81-.4v-.5c-.38-.11-.89-.22-1.52-.22-.97,0-1.51.42-1.51,1.07v.02c0,.65.6,1.03,1.3,1.03.95,0,1.73-.58,1.73-1.4Z"/>
          <path class="cls-7" d="m466,21.85h.77v7.3h-.77v-7.3Z"/>
          <path class="cls-7" d="m468.58,22h.88v.85h-.88v-.85Zm.05,1.98h.77v5.17h-.77v-5.17Z"/>
          <path class="cls-7" d="m470.89,28.66l3.43-4.03h-3.31v-.65h4.36v.49l-3.44,4.03h3.44v.65h-4.48v-.49Z"/>
          <path class="cls-7" d="m476.28,26.58v-.02c0-1.49,1.05-2.69,2.48-2.69,1.53,0,2.41,1.22,2.41,2.73,0,.1,0,.16,0,.25h-4.1c.11,1.12.9,1.75,1.82,1.75.71,0,1.21-.29,1.63-.73l.48.43c-.52.58-1.15.97-2.13.97-1.42,0-2.58-1.09-2.58-2.69Zm4.11-.3c-.08-.94-.62-1.76-1.65-1.76-.9,0-1.58.75-1.68,1.76h3.33Z"/>
          <path class="cls-7" d="m482.22,26.58v-.02c0-1.69,1.23-2.69,2.47-2.69.96,0,1.58.52,1.98,1.1v-3.12h.77v7.3h-.77v-1.04c-.42.62-1.03,1.15-1.98,1.15-1.24,0-2.47-.98-2.47-2.68Zm4.48,0v-.02c0-1.19-.91-1.99-1.87-1.99s-1.82.74-1.82,1.99v.02c0,1.22.84,2,1.82,2s1.87-.81,1.87-2Z"/>
          <path class="cls-7" d="m498.67,29.36l-.93-.83c-.59.46-1.34.74-2.2.74-2.13,0-3.56-1.67-3.56-3.6v-.02c0-1.93,1.45-3.62,3.58-3.62s3.56,1.67,3.56,3.6v.02c0,.87-.31,1.7-.83,2.34l.92.78-.54.59Zm-1.49-1.34l-1.31-1.12.53-.59,1.31,1.19c.38-.5.59-1.13.59-1.83v-.02c0-1.59-1.16-2.89-2.76-2.89s-2.74,1.28-2.74,2.87v.02c0,1.59,1.16,2.89,2.76,2.89.62,0,1.18-.19,1.62-.52Z"/>
          <path class="cls-7" d="m500.34,26.59v-.02c0-1.46,1.14-2.7,2.7-2.7s2.69,1.22,2.69,2.68v.02c0,1.46-1.15,2.7-2.71,2.7s-2.68-1.22-2.68-2.68Zm4.6,0v-.02c0-1.11-.83-2.02-1.92-2.02s-1.89.91-1.89,2v.02c0,1.11.82,2.01,1.91,2.01s1.9-.9,1.9-1.99Z"/>
          <path class="cls-7" d="m507.25,22.15h.79v6.27h3.94v.73h-4.73v-7Z"/>
          <path class="cls-7" d="m512.87,30.02c.5-.18.71-.44.67-.87h-.36v-1.05h.92v.9c0,.81-.35,1.2-1.11,1.37l-.12-.35Z"/>
          <path class="cls-7" d="m518.33,27.65v-.02c0-1.09.9-1.67,2.21-1.67.66,0,1.13.09,1.59.22v-.18c0-.93-.57-1.41-1.54-1.41-.61,0-1.09.16-1.57.38l-.23-.63c.57-.26,1.13-.43,1.88-.43s1.29.19,1.67.57c.35.35.53.85.53,1.51v3.16h-.74v-.78c-.36.47-.96.89-1.87.89-.96,0-1.93-.55-1.93-1.61Zm3.81-.4v-.5c-.38-.11-.89-.22-1.52-.22-.97,0-1.51.42-1.51,1.07v.02c0,.65.6,1.03,1.3,1.03.95,0,1.73-.58,1.73-1.4Z"/>
          <path class="cls-7" d="m524.51,23.98h.77v.9c.34-.56.88-1.01,1.77-1.01,1.25,0,1.98.84,1.98,2.07v3.21h-.77v-3.02c0-.96-.52-1.56-1.43-1.56s-1.55.65-1.55,1.62v2.96h-.77v-5.17Z"/>
          <path class="cls-7" d="m530.37,26.58v-.02c0-1.69,1.23-2.69,2.47-2.69.96,0,1.58.52,1.98,1.1v-3.12h.77v7.3h-.77v-1.04c-.42.62-1.03,1.15-1.98,1.15-1.24,0-2.47-.98-2.47-2.68Zm4.48,0v-.02c0-1.19-.91-1.99-1.87-1.99s-1.82.74-1.82,1.99v.02c0,1.22.84,2,1.82,2s1.87-.81,1.87-2Z"/>
          <path class="cls-7" d="m434.45,38.65v-.02c0-1.09.9-1.67,2.21-1.67.66,0,1.13.09,1.59.22v-.18c0-.93-.57-1.41-1.54-1.41-.61,0-1.09.16-1.57.38l-.23-.63c.57-.26,1.13-.43,1.88-.43s1.29.19,1.67.57c.35.35.53.85.53,1.51v3.16h-.74v-.78c-.36.47-.96.89-1.87.89-.96,0-1.93-.55-1.93-1.61Zm3.81-.4v-.5c-.38-.11-.89-.22-1.52-.22-.97,0-1.51.42-1.51,1.07v.02c0,.65.6,1.03,1.3,1.03.95,0,1.73-.58,1.73-1.4Z"/>
          <path class="cls-7" d="m441.4,39.16v.99h-.77v-7.3h.77v3.17c.42-.62,1.03-1.15,1.98-1.15,1.24,0,2.47.98,2.47,2.68v.02c0,1.69-1.22,2.69-2.47,2.69-.96,0-1.58-.52-1.98-1.1Zm3.66-1.58v-.02c0-1.22-.84-2-1.82-2s-1.87.81-1.87,1.99v.02c0,1.2.91,2,1.87,2s1.82-.74,1.82-1.99Z"/>
          <path class="cls-7" d="m446.84,39.49l.39-.55c.56.42,1.18.66,1.79.66s1.07-.32,1.07-.82v-.02c0-.52-.61-.72-1.29-.91-.81-.23-1.71-.51-1.71-1.46v-.02c0-.89.74-1.48,1.76-1.48.63,0,1.33.22,1.86.57l-.35.58c-.48-.31-1.03-.5-1.53-.5-.61,0-1,.32-1,.75v.02c0,.49.64.68,1.33.89.8.24,1.66.55,1.66,1.48v.02c0,.98-.81,1.55-1.84,1.55-.74,0-1.56-.29-2.14-.76Z"/>
          <path class="cls-7" d="m451.93,37.58v-.02c0-1.49,1.05-2.69,2.48-2.69,1.53,0,2.41,1.22,2.41,2.73,0,.1,0,.16,0,.25h-4.1c.11,1.12.9,1.75,1.82,1.75.71,0,1.21-.29,1.63-.73l.48.43c-.52.58-1.15.97-2.13.97-1.42,0-2.58-1.09-2.58-2.69Zm4.11-.3c-.08-.94-.62-1.76-1.65-1.76-.9,0-1.58.75-1.68,1.76h3.33Z"/>
          <path class="cls-7" d="m458.17,34.98h.77v.9c.34-.56.88-1.01,1.77-1.01,1.25,0,1.98.84,1.98,2.07v3.21h-.77v-3.02c0-.96-.52-1.56-1.43-1.56s-1.55.65-1.55,1.62v2.96h-.77v-5.17Z"/>
          <path class="cls-7" d="m464.01,37.59v-.02c0-1.46,1.14-2.7,2.65-2.7.98,0,1.59.41,2.07.92l-.51.54c-.41-.43-.87-.78-1.57-.78-1.05,0-1.85.89-1.85,2v.02c0,1.12.82,2.01,1.9,2.01.66,0,1.17-.33,1.58-.77l.49.46c-.52.58-1.14,1-2.11,1-1.51,0-2.65-1.23-2.65-2.68Z"/>
          <path class="cls-7" d="m469.57,37.58v-.02c0-1.49,1.05-2.69,2.48-2.69,1.53,0,2.41,1.22,2.41,2.73,0,.1,0,.16-.01.25h-4.1c.11,1.12.9,1.75,1.82,1.75.71,0,1.21-.29,1.63-.73l.48.43c-.52.58-1.15.97-2.13.97-1.42,0-2.58-1.09-2.58-2.69Zm4.11-.3c-.08-.94-.62-1.76-1.65-1.76-.9,0-1.58.75-1.68,1.76h3.33Z"/>
          <path class="cls-7" d="m478.49,37.59v-.02c0-1.46,1.14-2.7,2.7-2.7s2.69,1.22,2.69,2.68v.02c0,1.46-1.15,2.7-2.71,2.7s-2.68-1.22-2.68-2.68Zm4.6,0v-.02c0-1.11-.83-2.02-1.92-2.02s-1.89.91-1.89,2v.02c0,1.11.82,2.01,1.91,2.01s1.9-.9,1.9-1.99Z"/>
          <path class="cls-7" d="m485.56,35.66h-.71v-.67h.71v-.45c0-.59.16-1.04.45-1.33.26-.26.64-.4,1.11-.4.36,0,.6.04.85.13v.67c-.28-.08-.49-.13-.75-.13-.6,0-.9.36-.9,1.1v.42h1.64v.66h-1.63v4.49h-.77v-4.49Z"/>
          <path class="cls-7" d="m491.64,37.58v-.02c0-1.69,1.23-2.69,2.47-2.69.96,0,1.58.52,1.98,1.1v-3.12h.77v7.3h-.77v-1.04c-.42.62-1.03,1.15-1.98,1.15-1.24,0-2.47-.98-2.47-2.68Zm4.48,0v-.02c0-1.19-.91-1.99-1.87-1.99s-1.82.74-1.82,1.99v.02c0,1.22.84,2,1.82,2s1.87-.81,1.87-2Z"/>
          <path class="cls-7" d="m498.6,33h.88v.85h-.88v-.85Zm.05,1.98h.77v5.17h-.77v-5.17Z"/>
          <path class="cls-7" d="m500.78,39.49l.39-.55c.56.42,1.18.66,1.79.66s1.07-.32,1.07-.82v-.02c0-.52-.61-.72-1.29-.91-.81-.23-1.71-.51-1.71-1.46v-.02c0-.89.74-1.48,1.76-1.48.63,0,1.33.22,1.86.57l-.35.58c-.48-.31-1.03-.5-1.53-.5-.61,0-1,.32-1,.75v.02c0,.49.64.68,1.33.89.8.24,1.66.55,1.66,1.48v.02c0,.98-.81,1.55-1.84,1.55-.74,0-1.56-.29-2.14-.76Z"/>
          <path class="cls-7" d="m505.8,38.65v-.02c0-1.09.9-1.67,2.21-1.67.66,0,1.13.09,1.59.22v-.18c0-.93-.57-1.41-1.54-1.41-.61,0-1.09.16-1.57.38l-.23-.63c.57-.26,1.13-.43,1.88-.43s1.29.19,1.67.57c.35.35.53.85.53,1.51v3.16h-.74v-.78c-.36.47-.96.89-1.87.89-.96,0-1.93-.55-1.93-1.61Zm3.81-.4v-.5c-.38-.11-.89-.22-1.52-.22-.97,0-1.51.42-1.51,1.07v.02c0,.65.6,1.03,1.3,1.03.95,0,1.73-.58,1.73-1.4Z"/>
          <path class="cls-7" d="m512.75,39.16v.99h-.77v-7.3h.77v3.17c.42-.62,1.03-1.15,1.98-1.15,1.24,0,2.47.98,2.47,2.68v.02c0,1.69-1.22,2.69-2.47,2.69-.96,0-1.58-.52-1.98-1.1Zm3.66-1.58v-.02c0-1.22-.84-2-1.82-2s-1.87.81-1.87,1.99v.02c0,1.2.91,2,1.87,2s1.82-.74,1.82-1.99Z"/>
          <path class="cls-7" d="m518.64,33h.88v.85h-.88v-.85Zm.05,1.98h.77v5.17h-.77v-5.17Z"/>
          <path class="cls-7" d="m521.32,32.85h.77v7.3h-.77v-7.3Z"/>
          <path class="cls-7" d="m523.9,33h.88v.85h-.88v-.85Zm.05,1.98h.77v5.17h-.77v-5.17Z"/>
          <path class="cls-7" d="m526.78,38.78v-3.12h-.72v-.68h.72v-1.56h.77v1.56h1.64v.68h-1.64v3.02c0,.63.35.86.87.86.26,0,.48-.05.75-.18v.66c-.27.14-.56.22-.93.22-.83,0-1.46-.41-1.46-1.46Z"/>
          <path class="cls-7" d="m534.42,34.98h.82l-2.17,5.34c-.44,1.07-.94,1.46-1.72,1.46-.43,0-.75-.09-1.1-.26l.26-.61c.25.13.48.19.81.19.46,0,.75-.24,1.06-.97l-2.35-5.15h.85l1.88,4.31,1.66-4.31Z"/>
        </g>
        <polygon class="cls-5" points="224.07 87.14 194.28 65.34 194.28 75.42 144.51 75.42 144.51 98.85 194.28 98.85 194.28 108.93 224.07 87.14"/>
        <polygon class="cls-5" points="109.64 87.14 53.38 45.97 53.38 65.01 25.19 65.01 25.19 109.26 53.38 109.26 53.38 128.3 109.64 87.14"/>
        <polygon class="cls-6" points="141.52 187.54 163.31 157.76 153.23 157.76 153.23 107.99 129.8 107.99 129.8 157.76 119.72 157.76 141.52 187.54"/>
        <polygon class="cls-13" points="22.13 143.14 .33 172.93 10.41 172.93 10.41 200.9 33.84 200.9 33.84 172.93 43.92 172.93 22.13 143.14"/>
        <polygon class="cls-9" points="255.94 187.54 277.74 157.76 267.66 157.76 267.66 107.99 244.23 107.99 244.23 157.76 234.15 157.76 255.94 187.54"/>
        <polygon class="cls-11" points="370.37 187.54 392.16 157.76 382.08 157.76 382.08 107.99 358.65 107.99 358.65 157.76 348.57 157.76 370.37 187.54"/>
        <polygon class="cls-14" points="484.79 187.54 506.58 157.76 496.5 157.76 496.5 107.99 473.07 107.99 473.07 157.76 462.99 157.76 484.79 187.54"/>
        <polygon class="cls-10" points="475.23 238.71 460.62 228.02 460.62 232.96 421.67 232.96 421.67 244.46 460.62 244.46 460.62 249.4 475.23 238.71"/>
        <polygon class="cls-10" points="287.76 238.71 273.15 228.02 273.15 232.96 234.21 232.96 234.21 244.46 273.15 244.46 273.15 249.4 287.76 238.71"/>
        <polygon class="cls-5" points="338.49 87.14 308.7 65.34 308.7 75.42 279.92 75.42 279.92 98.85 308.7 98.85 308.7 108.93 338.49 87.14"/>
        <polygon class="cls-5" points="452.91 87.14 423.13 65.34 423.13 75.42 394.34 75.42 394.34 98.85 423.13 98.85 423.13 108.93 452.91 87.14"/>
        <polygon class="cls-5" points="555.82 87.14 526.03 65.34 526.03 75.42 509.04 75.42 509.04 98.85 526.03 98.85 526.03 108.93 555.82 87.14"/>
        <circle class="cls-4" cx="141.52" cy="87.14" r="31.88"/>
        <circle class="cls-4" cx="255.94" cy="87.14" r="31.88"/>
        <circle class="cls-4" cx="370.37" cy="87.14" r="31.88"/>
        <circle class="cls-4" cx="484.79" cy="87.14" r="31.88"/>
        <rect class="cls-13" x="10.41" y="187.54" width="501.14" height="19.74"/>
        <g>
          <path class="cls-8" d="m212.75,195.33h-2.13v-1.42h5.8v1.42h-2.13v5.58h-1.54v-5.58Z"/>
          <path class="cls-8" d="m216.07,199.36v-.02c0-1.17.89-1.71,2.16-1.71.54,0,.93.09,1.31.22v-.09c0-.63-.39-.98-1.15-.98-.58,0-.99.11-1.48.29l-.38-1.16c.59-.26,1.17-.43,2.08-.43.83,0,1.43.22,1.81.6.4.4.58.99.58,1.71v3.11h-1.47v-.58c-.37.41-.88.68-1.62.68-1.01,0-1.84-.58-1.84-1.64Zm3.49-.35v-.27c-.26-.12-.6-.2-.97-.2-.65,0-1.05.26-1.05.74v.02c0,.41.34.65.83.65.71,0,1.19-.39,1.19-.94Z"/>
          <path class="cls-8" d="m222.31,195.55h1.52v1.08c.31-.74.81-1.22,1.71-1.18v1.59h-.08c-1.01,0-1.63.61-1.63,1.89v1.98h-1.52v-5.36Z"/>
          <path class="cls-8" d="m226.42,201.96l.52-1.14c.55.31,1.1.49,1.81.49,1.04,0,1.53-.5,1.53-1.46v-.26c-.45.54-.94.87-1.75.87-1.25,0-2.38-.91-2.38-2.5v-.02c0-1.6,1.15-2.5,2.38-2.5.83,0,1.32.35,1.73.8v-.7h1.52v4.15c0,.96-.23,1.66-.68,2.11-.5.5-1.27.72-2.31.72-.87,0-1.69-.2-2.37-.56Zm3.86-4v-.02c0-.73-.57-1.24-1.31-1.24s-1.3.51-1.3,1.24v.02c0,.74.56,1.24,1.3,1.24s1.31-.51,1.31-1.24Z"/>
          <path class="cls-8" d="m232.88,198.25v-.02c0-1.53,1.09-2.79,2.65-2.79,1.79,0,2.61,1.39,2.61,2.91,0,.12,0,.26-.02.4h-3.73c.15.69.63,1.05,1.31,1.05.51,0,.88-.16,1.3-.55l.87.77c-.5.62-1.22,1-2.19,1-1.61,0-2.8-1.13-2.8-2.77Zm3.78-.45c-.09-.68-.49-1.14-1.13-1.14s-1.04.45-1.16,1.14h2.29Z"/>
          <path class="cls-8" d="m239.52,199.38v-2.54h-.64v-1.3h.64v-1.37h1.52v1.37h1.26v1.3h-1.26v2.29c0,.35.15.52.49.52.28,0,.53-.07.75-.19v1.22c-.32.19-.69.31-1.2.31-.93,0-1.56-.37-1.56-1.61Z"/>
          <path class="cls-8" d="m243,200.19l.65-1c.58.42,1.19.64,1.69.64.44,0,.64-.16.64-.4v-.02c0-.33-.52-.44-1.11-.62-.75-.22-1.6-.57-1.6-1.61v-.02c0-1.09.88-1.7,1.96-1.7.68,0,1.42.23,2,.62l-.58,1.05c-.53-.31-1.06-.5-1.45-.5-.37,0-.56.16-.56.37v.02c0,.3.51.44,1.09.64.75.25,1.62.61,1.62,1.59v.02c0,1.19-.89,1.73-2.05,1.73-.75,0-1.59-.25-2.3-.81Z"/>
          <path class="cls-8" d="m251.44,195.55h1.52v.76c.35-.45.8-.86,1.57-.86,1.15,0,1.82.76,1.82,1.99v3.47h-1.52v-2.99c0-.72-.34-1.09-.92-1.09s-.95.37-.95,1.09v2.99h-1.52v-5.36Z"/>
          <path class="cls-8" d="m257.41,198.25v-.02c0-1.54,1.24-2.79,2.91-2.79s2.89,1.23,2.89,2.77v.02c0,1.54-1.24,2.79-2.91,2.79s-2.89-1.23-2.89-2.77Zm4.3,0v-.02c0-.79-.57-1.48-1.41-1.48s-1.39.67-1.39,1.46v.02c0,.79.57,1.48,1.41,1.48s1.39-.67,1.39-1.46Z"/>
          <path class="cls-8" d="m264.56,199.38v-2.54h-.64v-1.3h.64v-1.37h1.52v1.37h1.26v1.3h-1.26v2.29c0,.35.15.52.49.52.28,0,.53-.07.75-.19v1.22c-.32.19-.69.31-1.2.31-.93,0-1.56-.37-1.56-1.61Z"/>
          <path class="cls-8" d="m271.46,195.55h1.52v1.08c.31-.74.81-1.22,1.71-1.18v1.59h-.08c-1.01,0-1.63.61-1.63,1.89v1.98h-1.52v-5.36Z"/>
          <path class="cls-8" d="m275.23,198.25v-.02c0-1.53,1.09-2.79,2.65-2.79,1.79,0,2.61,1.39,2.61,2.91,0,.12,0,.26-.02.4h-3.73c.15.69.63,1.05,1.31,1.05.51,0,.88-.16,1.3-.55l.87.77c-.5.62-1.22,1-2.19,1-1.61,0-2.8-1.13-2.8-2.77Zm3.78-.45c-.09-.68-.49-1.14-1.13-1.14s-1.04.45-1.16,1.14h2.29Z"/>
          <path class="cls-8" d="m281.3,199.36v-.02c0-1.17.89-1.71,2.16-1.71.54,0,.93.09,1.31.22v-.09c0-.63-.39-.98-1.15-.98-.58,0-.99.11-1.48.29l-.38-1.16c.59-.26,1.17-.43,2.08-.43.83,0,1.43.22,1.81.6.4.4.58.99.58,1.71v3.11h-1.47v-.58c-.37.41-.88.68-1.62.68-1.01,0-1.84-.58-1.84-1.64Zm3.49-.35v-.27c-.26-.12-.6-.2-.97-.2-.65,0-1.05.26-1.05.74v.02c0,.41.34.65.83.65.71,0,1.19-.39,1.19-.94Z"/>
          <path class="cls-8" d="m287.28,198.25v-.02c0-1.53,1.17-2.79,2.81-2.79,1.01,0,1.64.34,2.14.9l-.93,1c-.34-.36-.68-.59-1.22-.59-.76,0-1.3.67-1.3,1.46v.02c0,.82.53,1.48,1.36,1.48.51,0,.86-.22,1.23-.57l.89.9c-.52.57-1.12.98-2.19.98-1.61,0-2.79-1.24-2.79-2.77Z"/>
          <path class="cls-8" d="m293.25,193.61h1.52v2.7c.35-.45.8-.86,1.57-.86,1.15,0,1.82.76,1.82,1.99v3.47h-1.52v-2.99c0-.72-.34-1.09-.92-1.09s-.95.37-.95,1.09v2.99h-1.52v-7.3Z"/>
          <path class="cls-8" d="m299.22,198.25v-.02c0-1.53,1.09-2.79,2.65-2.79,1.79,0,2.61,1.39,2.61,2.91,0,.12,0,.26-.02.4h-3.73c.15.69.63,1.05,1.31,1.05.51,0,.88-.16,1.3-.55l.87.77c-.5.62-1.22,1-2.19,1-1.61,0-2.8-1.13-2.8-2.77Zm3.78-.45c-.09-.68-.49-1.14-1.13-1.14s-1.04.45-1.16,1.14h2.29Z"/>
          <path class="cls-8" d="m305.37,198.23v-.02c0-1.79,1.17-2.77,2.44-2.77.81,0,1.31.37,1.67.8v-2.64h1.52v7.3h-1.52v-.77c-.37.5-.88.87-1.67.87-1.25,0-2.44-.98-2.44-2.77Zm4.13,0v-.02c0-.89-.59-1.48-1.3-1.48s-1.31.58-1.31,1.48v.02c0,.89.6,1.48,1.31,1.48s1.3-.59,1.3-1.48Z"/>
        </g>
        <g>
          <path class="cls-8" d="m49.51,74.07h-2.13v-1.42h5.8v1.42h-2.13v5.58h-1.54v-5.58Z"/>
          <path class="cls-8" d="m54.15,72.35h1.52v2.7c.35-.45.8-.86,1.57-.86,1.15,0,1.82.76,1.82,1.99v3.47h-1.52v-2.99c0-.72-.34-1.09-.92-1.09s-.95.37-.95,1.09v2.99h-1.52v-7.3Z"/>
          <path class="cls-8" d="m60.12,77v-.02c0-1.53,1.09-2.79,2.65-2.79,1.79,0,2.61,1.39,2.61,2.91,0,.12,0,.26-.02.4h-3.73c.15.69.63,1.05,1.31,1.05.51,0,.88-.16,1.3-.55l.87.77c-.5.62-1.22,1-2.19,1-1.61,0-2.8-1.13-2.8-2.77Zm3.78-.45c-.09-.68-.49-1.14-1.13-1.14s-1.04.45-1.16,1.14h2.29Z"/>
          <path class="cls-8" d="m66.51,74.29h1.52v1.08c.31-.74.81-1.22,1.71-1.18v1.59h-.08c-1.01,0-1.63.61-1.63,1.89v1.98h-1.52v-5.36Z"/>
          <path class="cls-8" d="m70.12,78.1v-.02c0-1.17.89-1.71,2.16-1.71.54,0,.93.09,1.31.22v-.09c0-.63-.39-.98-1.15-.98-.58,0-.99.11-1.48.29l-.38-1.16c.59-.26,1.17-.43,2.08-.43.83,0,1.43.22,1.81.6.4.4.58.99.58,1.71v3.11h-1.47v-.58c-.37.41-.88.68-1.62.68-1.01,0-1.84-.58-1.84-1.64Zm3.49-.35v-.27c-.26-.12-.6-.2-.97-.2-.65,0-1.05.26-1.05.74v.02c0,.41.34.65.83.65.71,0,1.19-.39,1.19-.94Z"/>
          <path class="cls-8" d="m76.36,74.29h1.52v.77c.37-.5.88-.87,1.67-.87,1.25,0,2.44.98,2.44,2.77v.02c0,1.79-1.17,2.77-2.44,2.77-.81,0-1.31-.37-1.67-.8v2.3h-1.52v-6.96Zm4.11,2.69v-.02c0-.89-.6-1.48-1.31-1.48s-1.3.59-1.3,1.48v.02c0,.89.59,1.48,1.3,1.48s1.31-.58,1.31-1.48Z"/>
          <path class="cls-8" d="m86.38,74.29h1.58l-2.06,5.49c-.41,1.09-.85,1.5-1.76,1.5-.55,0-.96-.14-1.35-.37l.51-1.1c.2.12.45.21.65.21.26,0,.4-.08.53-.35l-2.1-5.38h1.61l1.22,3.65,1.17-3.65Z"/>
          <path class="cls-8" d="m47.4,89.1v-.02c0-1.17.89-1.71,2.16-1.71.54,0,.93.09,1.31.22v-.09c0-.63-.39-.98-1.15-.98-.58,0-.99.11-1.48.29l-.38-1.16c.59-.26,1.17-.43,2.08-.43.83,0,1.43.22,1.81.6.4.4.58.99.58,1.71v3.11h-1.47v-.58c-.37.41-.88.68-1.62.68-1.01,0-1.84-.58-1.84-1.64Zm3.49-.35v-.27c-.26-.12-.6-.2-.97-.2-.65,0-1.05.26-1.05.74v.02c0,.41.34.65.83.65.71,0,1.19-.39,1.19-.94Z"/>
          <path class="cls-8" d="m53.38,88v-.02c0-1.53,1.17-2.79,2.81-2.79,1.01,0,1.64.34,2.14.9l-.93,1c-.34-.36-.68-.59-1.22-.59-.76,0-1.3.67-1.3,1.46v.02c0,.82.53,1.48,1.36,1.48.51,0,.86-.22,1.23-.57l.89.9c-.52.57-1.12.98-2.19.98-1.61,0-2.79-1.24-2.79-2.77Z"/>
          <path class="cls-8" d="m58.94,88v-.02c0-1.53,1.17-2.79,2.81-2.79,1.01,0,1.64.34,2.14.9l-.93,1c-.34-.36-.68-.59-1.22-.59-.76,0-1.3.67-1.3,1.46v.02c0,.82.53,1.48,1.36,1.48.51,0,.86-.22,1.23-.57l.89.9c-.52.57-1.12.98-2.19.98-1.61,0-2.79-1.24-2.79-2.77Z"/>
          <path class="cls-8" d="m64.5,88v-.02c0-1.54,1.24-2.79,2.91-2.79s2.89,1.23,2.89,2.77v.02c0,1.54-1.24,2.79-2.91,2.79s-2.89-1.23-2.89-2.77Zm4.3,0v-.02c0-.79-.57-1.48-1.41-1.48s-1.39.67-1.39,1.46v.02c0,.79.57,1.48,1.41,1.48s1.39-.67,1.39-1.46Z"/>
          <path class="cls-8" d="m71.4,85.29h1.52v1.08c.31-.74.81-1.22,1.71-1.18v1.59h-.08c-1.01,0-1.63.61-1.63,1.89v1.98h-1.52v-5.36Z"/>
          <path class="cls-8" d="m75.24,87.97v-.02c0-1.79,1.17-2.77,2.44-2.77.81,0,1.31.37,1.67.8v-2.64h1.52v7.3h-1.52v-.77c-.37.5-.88.87-1.67.87-1.25,0-2.44-.98-2.44-2.77Zm4.13,0v-.02c0-.89-.59-1.48-1.3-1.48s-1.31.58-1.31,1.48v.02c0,.89.6,1.48,1.31,1.48s1.3-.59,1.3-1.48Z"/>
          <path class="cls-8" d="m82.26,83.35h1.6v1.35h-1.6v-1.35Zm.04,1.94h1.52v5.36h-1.52v-5.36Z"/>
          <path class="cls-8" d="m85.25,85.29h1.52v.76c.35-.45.8-.86,1.57-.86,1.15,0,1.82.76,1.82,1.99v3.47h-1.52v-2.99c0-.72-.34-1.09-.92-1.09s-.95.37-.95,1.09v2.99h-1.52v-5.36Z"/>
          <path class="cls-8" d="m91.51,91.7l.52-1.14c.55.31,1.1.49,1.81.49,1.04,0,1.53-.5,1.53-1.46v-.26c-.45.54-.94.87-1.75.87-1.25,0-2.38-.91-2.38-2.5v-.02c0-1.6,1.15-2.5,2.38-2.5.83,0,1.32.35,1.73.8v-.7h1.52v4.15c0,.96-.23,1.66-.68,2.11-.5.5-1.27.72-2.31.72-.87,0-1.69-.2-2.37-.56Zm3.86-4v-.02c0-.73-.57-1.24-1.31-1.24s-1.3.51-1.3,1.24v.02c0,.74.56,1.24,1.3,1.24s1.31-.51,1.31-1.24Z"/>
          <path class="cls-8" d="m47.97,100.12v-2.54h-.64v-1.3h.64v-1.37h1.52v1.37h1.26v1.3h-1.26v2.29c0,.35.15.52.49.52.28,0,.53-.07.75-.19v1.22c-.32.19-.69.31-1.2.31-.93,0-1.56-.37-1.56-1.61Z"/>
          <path class="cls-8" d="m51.46,99v-.02c0-1.54,1.24-2.79,2.91-2.79s2.89,1.23,2.89,2.77v.02c0,1.54-1.24,2.79-2.91,2.79s-2.89-1.23-2.89-2.77Zm4.3,0v-.02c0-.79-.57-1.48-1.41-1.48s-1.39.67-1.39,1.46v.02c0,.79.57,1.48,1.41,1.48s1.39-.67,1.39-1.46Z"/>
          <path class="cls-8" d="m61.36,96.29h1.52v1.08c.31-.74.81-1.22,1.71-1.18v1.59h-.08c-1.01,0-1.63.61-1.63,1.89v1.98h-1.52v-5.36Z"/>
          <path class="cls-8" d="m65.57,94.35h1.6v1.35h-1.6v-1.35Zm.04,1.94h1.52v5.36h-1.52v-5.36Z"/>
          <path class="cls-8" d="m68.14,100.93l.65-1c.58.42,1.19.64,1.69.64.44,0,.64-.16.64-.4v-.02c0-.33-.52-.44-1.11-.62-.75-.22-1.6-.57-1.6-1.61v-.02c0-1.09.88-1.7,1.96-1.7.68,0,1.42.23,2,.62l-.58,1.05c-.53-.31-1.06-.5-1.45-.5s-.56.16-.56.37v.02c0,.3.51.44,1.09.64.75.25,1.62.61,1.62,1.59v.02c0,1.19-.89,1.73-2.05,1.73-.75,0-1.59-.25-2.3-.81Z"/>
          <path class="cls-8" d="m73.58,94.35h1.52v3.89l1.78-1.95h1.82l-2.04,2.11,2.11,3.25h-1.76l-1.37-2.2-.54.57v1.63h-1.52v-7.3Z"/>
        </g>
        <g>
          <polyline class="cls-1" points="248.86 213 248.86 220.09 92.21 220.09 92.21 213"/>
          <line class="cls-1" x1="170.53" y1="220.09" x2="170.53" y2="227.44"/>
        </g>
        <g>
          <polyline class="cls-1" points="670.05 213 670.05 220.09 452.91 220.09 452.91 213"/>
          <line class="cls-1" x1="561.48" y1="220.09" x2="561.48" y2="227.44"/>
        </g>
        <g>
          <polyline class="cls-1" points="443.11 213 443.11 220.09 258.76 220.09 258.76 213"/>
          <line class="cls-1" x1="350.89" y1="220.09" x2="350.89" y2="227.44"/>
        </g>
        <rect class="cls-12" y="31.78" width="44.26" height="111.37"/>
        <g>
          <path class="cls-8" d="m9.19,78.88h1.42l3,7.05h-1.61l-.64-1.57h-2.96l-.64,1.57h-1.57l3-7.05Zm1.62,4.12l-.93-2.27-.93,2.27h1.86Z"/>
          <path class="cls-8" d="m14.02,83.28v-.02c0-1.53,1.17-2.79,2.81-2.79,1.01,0,1.64.34,2.14.9l-.93,1c-.34-.36-.68-.59-1.22-.59-.76,0-1.3.67-1.3,1.46v.02c0,.82.53,1.48,1.36,1.48.51,0,.86-.22,1.23-.57l.89.9c-.52.57-1.12.98-2.19.98-1.61,0-2.79-1.24-2.79-2.77Z"/>
          <path class="cls-8" d="m20.24,84.4v-2.54h-.64v-1.3h.64v-1.37h1.52v1.37h1.26v1.3h-1.26v2.29c0,.35.15.52.49.52.28,0,.53-.07.75-.19v1.22c-.32.19-.69.31-1.2.31-.93,0-1.56-.37-1.56-1.61Z"/>
          <path class="cls-8" d="m24.17,78.63h1.6v1.35h-1.6v-1.35Zm.04,1.94h1.52v5.36h-1.52v-5.36Z"/>
          <path class="cls-8" d="m26.68,80.57h1.61l1.2,3.59,1.21-3.59h1.58l-2.11,5.4h-1.38l-2.11-5.4Z"/>
          <path class="cls-8" d="m32.6,83.28v-.02c0-1.53,1.09-2.79,2.65-2.79,1.79,0,2.61,1.39,2.61,2.91,0,.12,0,.26-.02.4h-3.73c.15.69.63,1.05,1.31,1.05.51,0,.88-.16,1.3-.55l.87.77c-.5.62-1.22,1-2.19,1-1.61,0-2.8-1.13-2.8-2.77Zm3.78-.45c-.09-.68-.49-1.14-1.13-1.14s-1.04.45-1.16,1.14h2.29Z"/>
          <path class="cls-8" d="m13.84,89.93h1.54v7h-1.54v-7Z"/>
          <path class="cls-8" d="m17.13,89.93h3.25c.8,0,1.43.22,1.83.62.32.32.48.71.48,1.19v.02c0,.79-.42,1.23-.92,1.51.81.31,1.31.78,1.31,1.72v.02c0,1.28-1.04,1.92-2.62,1.92h-3.33v-7Zm4.03,2.07c0-.46-.36-.72-1.01-.72h-1.52v1.48h1.42c.68,0,1.11-.22,1.11-.74v-.02Zm-.75,2.04h-1.78v1.54h1.83c.68,0,1.09-.24,1.09-.76v-.02c0-.47-.35-.76-1.14-.76Z"/>
          <path class="cls-8" d="m24.35,89.93h2.73c2.2,0,3.72,1.51,3.72,3.48v.02c0,1.97-1.52,3.5-3.72,3.5h-2.73v-7Zm1.54,1.39v4.22h1.19c1.26,0,2.11-.85,2.11-2.09v-.02c0-1.24-.85-2.11-2.11-2.11h-1.19Z"/>
        </g>
        <rect class="cls-3" x="556.99" y="51.55" width="113.45" height="71.82" rx="5.16" ry="5.16"/>
        <g>
          <path class="cls-15" d="m245.96,66.18v-.02c0-1.98,1.48-3.62,3.54-3.62,1.27,0,2.03.45,2.73,1.11l-.54.58c-.59-.56-1.25-.96-2.2-.96-1.55,0-2.71,1.26-2.71,2.87v.02c0,1.62,1.17,2.89,2.71,2.89.96,0,1.59-.37,2.26-1.01l.52.51c-.73.74-1.53,1.23-2.8,1.23-2.02,0-3.51-1.59-3.51-3.6Z"/>
          <path class="cls-15" d="m253.69,62.67h3.01c.86,0,1.55.26,1.99.7.34.34.54.83.54,1.38v.02c0,1.16-.8,1.84-1.9,2.04l2.15,2.86h-.97l-2.03-2.72h-2v2.72h-.79v-7Zm2.94,3.57c1.05,0,1.8-.54,1.8-1.44v-.02c0-.86-.66-1.38-1.79-1.38h-2.16v2.84h2.15Z"/>
          <path class="cls-15" d="m260.92,62.67h2.62c1.58,0,2.62.84,2.62,2.22v.02c0,1.51-1.26,2.29-2.75,2.29h-1.7v2.47h-.79v-7Zm2.52,3.81c1.16,0,1.92-.62,1.92-1.54v-.02c0-1-.75-1.52-1.88-1.52h-1.77v3.08h1.73Z"/>
        </g>
        <g>
          <path class="cls-2" d="m147.68,107.98c-.33,0-.62-.24-.67-.57l-2.75-16.42v-11.19c0-.36.28-.66.64-.68,6.24-.37,10.26-1.87,12.1-2.72.17-.08.31-.22.37-.4.06-.18.05-.37-.03-.54-.17-.34-.56-.49-.9-.34-2.36,1.03-7.54,2.76-15.71,2.76s-13.2-1.72-15.5-2.75c-.33-.15-.73,0-.9.33-.09.17-.1.37-.04.55.06.18.19.32.37.41,1.82.86,5.81,2.37,12.11,2.73.36.02.64.32.64.68v11.06l-2.75,16.54c-.06.37-.42.63-.79.56-.37-.06-.63-.41-.56-.79l2.73-16.42v-10.31c-6.16-.44-10.13-1.94-11.97-2.82-.51-.24-.89-.67-1.07-1.2-.18-.53-.14-1.1.11-1.61.5-.98,1.68-1.4,2.68-.96,2.2.98,7.06,2.63,14.94,2.63s12.9-1.66,15.17-2.65c1.01-.45,2.19,0,2.67.99.25.5.28,1.07.09,1.6-.19.53-.57.95-1.08,1.19-1.87.87-5.86,2.36-11.95,2.81v10.43l2.73,16.31c.06.37-.19.73-.56.79-.04,0-.08,0-.11,0h0Z"/>
          <path class="cls-2" d="m140.83,75.14c-2.26,0-4.11-1.84-4.11-4.11s1.84-4.11,4.11-4.11,4.11,1.84,4.11,4.11-1.84,4.11-4.11,4.11h0Zm0-6.84c-1.51,0-2.74,1.23-2.74,2.74s1.23,2.74,2.74,2.74,2.74-1.23,2.74-2.74-1.23-2.74-2.74-2.74h0Z"/>
          <path class="cls-2" d="m144.76,107.99c-.3,0-.58-.2-.66-.51l-3.27-12.52-3.26,12.52c-.1.37-.47.58-.83.49-.37-.1-.59-.47-.49-.83l3.93-15.06c.16-.6,1.17-.6,1.33,0l3.93,15.06c.1.37-.12.74-.49.84-.06.01-.11.02-.17.02h0Z"/>
          <path class="cls-2" d="m129.88,107.98s-.08,0-.12,0l-5.47-.96c-.37-.07-.62-.42-.56-.79.06-.37.41-.62.79-.56l5.47.96c.37.07.62.42.56.79-.06.33-.35.57-.67.57h0Z"/>
          <path class="cls-2" d="m122.36,105.93c0,.38-.31.68-.68.68s-.68-.31-.68-.68.31-.68.68-.68.68.31.68.68h0Z"/>
          <path class="cls-2" d="m131.25,105.25c-.18,0-.35-.07-.48-.2l-6.16-6.16c-.27-.27-.27-.7,0-.97.27-.27.7-.27.97,0l6.16,6.16c.27.27.27.7,0,.97-.13.13-.31.2-.48.2h0Z"/>
          <path class="cls-2" d="m123.72,96.35c0,.38-.31.68-.68.68s-.68-.31-.68-.68.31-.68.68-.68.68.31.68.68h0Z"/>
          <path class="cls-2" d="m151.78,107.98c-.34,0-.63-.25-.68-.59-.05-.37.21-.72.58-.77l6.84-.96c.37-.06.72.21.77.58.05.37-.21.72-.58.77l-6.84.96s-.06,0-.09,0h0Z"/>
          <path class="cls-2" d="m162.05,105.93c0,.38-.31.68-.68.68s-.68-.31-.68-.68.31-.68.68-.68.68.31.68.68h0Z"/>
          <path class="cls-2" d="m150.41,105.25c-.2,0-.4-.09-.53-.25-.24-.29-.2-.72.1-.96l7.53-6.16c.29-.24.72-.2.96.1.24.29.2.72-.1.96l-7.53,6.16c-.13.1-.28.15-.43.15h0Z"/>
          <path class="cls-2" d="m160.68,96.35c0,.38-.31.68-.68.68s-.68-.31-.68-.68.31-.68.68-.68.68.31.68.68h0Z"/>
          <path class="cls-2" d="m151.1,68.98c0,.38-.31.68-.68.68s-.68-.31-.68-.68.31-.68.68-.68.68.31.68.68h0Z"/>
          <path class="cls-2" d="m151.1,82.66c0,.38-.31.68-.68.68s-.68-.31-.68-.68.31-.68.68-.68.68.31.68.68h0Z"/>
          <path class="cls-2" d="m156.57,85.4c0,.38-.31.68-.68.68s-.68-.31-.68-.68.31-.68.68-.68.68.31.68.68h0Z"/>
          <path class="cls-2" d="m125.09,89.51c0,.38-.31.68-.68.68s-.68-.31-.68-.68.31-.68.68-.68.68.31.68.68h0Z"/>
          <path class="cls-2" d="m131.94,94.98c0,.38-.31.68-.68.68s-.68-.31-.68-.68.31-.68.68-.68.68.31.68.68h0Z"/>
          <path class="cls-2" d="m131.94,71.71c0,.38-.31.68-.68.68s-.68-.31-.68-.68.31-.68.68-.68.68.31.68.68h0Z"/>
        </g>
        <g>
          <path class="cls-2" d="m386.75,86.35h-3.46v-10.45h.49c.27,0,.49-.22.49-.49v-2.97c0-.27-.22-.49-.49-.49h-7.62c-.27,0-.49.22-.49.49v2.97c0,.27.22.49.49.49h.49v10.45h-2.97v-10.45h.49c.27,0,.49-.22.49-.49v-2.97c0-.27-.22-.49-.49-.49h-7.62c-.27,0-.49.22-.49.49v2.97c0,.27.22.49.49.49h.49v10.45h-2.97v-10.45h.49c.27,0,.49-.22.49-.49v-2.97c0-.27-.22-.49-.49-.49h-7.62c-.27,0-.49.22-.49.49v2.97c0,.27.22.49.49.49h.49v10.45h-3.46c-.27,0-.49.22-.49.49v18.36c0,.27.22.49.49.49h32.76c.27,0,.49-.22.49-.49v-18.36c0-.27-.22-.49-.49-.49h0Zm-9.11-6.49h4.66v.99h-4.66v-.99Zm-.99-6.92h6.64v1.98h-6.64v-1.98Zm5.65,2.97v2.97h-4.66v-2.97h4.66Zm-4.66,5.93h4.66v4.52h-4.66v-4.52Zm-9.6-1.98h4.66v.99h-4.66v-.99Zm-.99-6.92h6.64v1.98h-6.64v-1.98Zm5.65,2.97v2.97h-4.66v-2.97h4.66Zm-4.66,5.93h4.66v4.52h-4.66v-4.52Zm-9.6-1.98h4.66v.99h-4.66v-.99Zm-.99-6.92h6.64v1.98h-6.64v-1.98Zm5.65,2.97v2.97h-4.66v-2.97h4.66Zm-4.66,5.93h4.66v4.52h-4.66v-4.52Zm27.82,22.87h-31.77v-17.37h31.77v17.37Z"/>
          <path class="cls-2" d="m355.96,90.31c-.27,0-.49.22-.49.49v12.43c0,.27.22.49.49.49h28.81c.27,0,.49-.22.49-.49v-12.43c0-.27-.22-.49-.49-.49h-28.81Zm28.31,12.43h-27.82v-11.44h6.64v7.13c0,1.28-1.04,2.33-2.33,2.33s-2.33-1.04-2.33-2.33v-5.65c0-.27-.22-.49-.49-.49s-.49.22-.49.49v5.65c0,1.83,1.49,3.32,3.32,3.32s3.32-1.49,3.32-3.32v-7.13h8.61v7.13c0,1.28-1.04,2.33-2.33,2.33s-2.33-1.04-2.33-2.33v-5.65c0-.27-.22-.49-.49-.49s-.49.22-.49.49v5.65c0,1.83,1.49,3.32,3.32,3.32s3.32-1.49,3.32-3.32v-7.13h8.61v7.13c0,1.28-1.04,2.33-2.33,2.33s-2.33-1.04-2.33-2.33v-5.65c0-.27-.22-.49-.49-.49s-.49.22-.49.49v5.65c0,1.83,1.49,3.32,3.32,3.32s3.32-1.49,3.32-3.32v-7.13h.99v11.44Z"/>
        </g>
        <g>
          <path class="cls-2" d="m272.56,108.48h-33.24c-.4,0-.72-.32-.72-.72s.32-.72.72-.72h33.24c.4,0,.72.32.72.72s-.32.72-.72.72h0Z"/>
          <path class="cls-2" d="m271.12,108.48h-7.23c-.4,0-.72-.32-.72-.72v-7.95c0-.8.65-1.45,1.45-1.45h5.78c.8,0,1.45.65,1.45,1.45v7.95c0,.4-.32.72-.72.72h0Zm-6.5-1.45h5.78v-7.23h-5.78v7.23Z"/>
          <path class="cls-2" d="m259.55,108.48h-7.23c-.4,0-.72-.32-.72-.72v-16.62c0-.8.65-1.45,1.45-1.45h5.78c.8,0,1.45.65,1.45,1.45v16.62c0,.4-.32.72-.72.72h0Zm-6.5-1.45h5.78v-15.9h-5.78v15.9Z"/>
          <g>
            <path class="cls-2" d="m247.99,108.48h-7.23c-.4,0-.72-.32-.72-.72v-25.29c0-.8.65-1.45,1.45-1.45h5.78c.8,0,1.45.65,1.45,1.45v25.29c0,.4-.32.72-.72.72h0Zm-6.5-1.45h5.78v-24.57h-5.78v24.57Z"/>
            <path class="cls-2" d="m269.67,89.69c-.18,0-.37-.07-.51-.21l-13.01-13.01c-.28-.28-.28-.74,0-1.02.28-.28.74-.28,1.02,0l13.01,13.01c.28.28.28.74,0,1.02-.14.14-.33.21-.51.21h0Z"/>
          </g>
          <path class="cls-2" d="m269.67,89.69h-5.78c-.4,0-.72-.32-.72-.72s.32-.72.72-.72h5.06v-5.06c0-.4.32-.72.72-.72s.72.32.72.72v5.78c0,.4-.32.72-.72.72h0Z"/>
        </g>
        <path class="cls-2" d="m502.62,88.28c0-1.36-.4-2.65-1.1-3.63.8-1.05,1.25-2.45,1.25-3.94,0-1.4-.41-2.74-1.13-3.77.68-.75,1.06-1.73,1.06-2.77,0-2.27-1.83-4.12-4.09-4.12-1.87,0-3.47,1.26-3.95,3.03-.22-.04-.44-.06-.66-.06-1.66,0-3.11,1.02-3.71,2.52-.74-.36-1.54-.55-2.36-.55-1.52,0-2.94.64-3.95,1.74-.75-1.05-1.97-1.69-3.3-1.69-.72,0-1.42.18-2.03.54-.91-.91-2.23-1.44-3.64-1.44-.16,0-.33,0-.51.02-.71-.55-1.59-.86-2.5-.86-2.25,0-4.09,1.85-4.09,4.12,0,.62.13,1.23.39,1.77-.5.48-.8,1.16-.8,1.88,0,.23.03.47.1.69-.4.65-.6,1.39-.6,2.16,0,.84.26,1.66.73,2.35-.59.73-.92,1.65-.92,2.61,0,1.27.58,2.46,1.55,3.23-.54.71-.84,1.59-.84,2.5,0,2.27,1.84,4.12,4.1,4.12,1.24,0,2.35-.56,3.1-1.44.38,1.16,1.13,1.85,1.81,2.27.86.51,1.89.74,2.84.74.44,0,.86-.05,1.23-.14,0,1.57.57,2.94,1.37,3.81.36.39.71.71,1.05,1.01.84.75,1.45,1.3,1.56,2.46.13,1.3.95,1.51,1.45,1.51.02,0,.03,0,.04,0,.9-.01,1.39-.82,1.41-1.61h0s0-.22,0-.22c.01-1.45.02-2.68-.26-3.72,1.4.37,2.93.16,3.87-.5,1.22,1.19,3.09,1.76,4.75,1.4,1.01-.22,2.76-.98,3.51-3.54,1.91-.53,3.3-2.69,3.3-5.24,0-1.36-.4-2.66-1.11-3.64.69-.98,1.09-2.27,1.09-3.61h0Zm-25.48,10.24c-1.12-.67-1.61-1.86-1.45-3.54,0-.03,0-.06,0-.09,0-.09.01-.18.01-.28,0-1.28-.58-2.46-1.55-3.24.54-.72.84-1.59.84-2.49,0-.85-.26-1.66-.73-2.35.59-.73.92-1.65.92-2.6,0-.46-.07-.9-.21-1.32.28,0,.56-.02.84-.06.02.72.24,1.37.67,1.93.34.44.79.79,1.28,1.06-.74.37-1.43.93-1.89,1.67-.47.76-1.05,2.32.33,4.32.91,1.32,2.06,1.82,3.28,1.93-.37.94-.61,2.15-.48,2.87.05.29.31.49.59.49.04,0,.08,0,.11-.01.33-.06.54-.38.48-.71-.1-.55.23-1.93.62-2.67.83-.09,1.68-.28,2.49-.47.5-.12,1.02-.24,1.52-.33,3.17-.58,4.26-.19,5.92,1.27.11.1.26.15.4.15.17,0,.34-.07.46-.21.22-.25.19-.64-.06-.86-2.06-1.81-3.61-2.16-6.93-1.55-.53.1-1.06.22-1.58.34-2.39.56-4.46,1.04-5.84-.95-.75-1.09-.85-2.09-.3-2.98.64-1.03,2.06-1.67,3.03-1.63.09.01.19.02.27.03.32.02.61-.21.64-.54.04-.32-.18-.62-.5-.67-.1-.01-.19-.03-.3-.03-.77-.1-1.98-.46-2.61-1.28-.32-.42-.46-.91-.41-1.5.22-.09.43-.19.64-.3.77.86,1.87,1.35,3.03,1.35.93,0,1.83-.32,2.55-.9.62.63,1.47,1.02,2.46,1.12,1.31.13,2.75-.26,3.63-.97.15.03.3.06.45.08.01.08.02.16.04.23-1.08.33-1.86,1.35-1.86,2.54,0,.34.27.61.6.61s.6-.27.6-.61c0-.67.46-1.24,1.08-1.39.67,1.19,1.93,1.99,3.38,1.99h.02c.33,0,.6-.27.6-.61s-.27-.61-.6-.61h-.02c-1.09,0-2.02-.66-2.44-1.6-.01-.04-.03-.08-.05-.12-.04-.11-.08-.23-.11-.36,1.12-.03,2.27-.31,3.38-.82-.07,1.31.41,2.27.88,2.88-.67.97-1.04,2.23-1.04,3.54s.4,2.66,1.12,3.64c-.77,1.14-1.12,2.75-1.12,4.26-.99-.18-2.31-.21-3.4.33-1.03-1.5-2.72-2.41-4.56-2.41-2.16,0-4.14,1.28-5.04,3.25-.23.5-.39,1-.5,1.49-.73.31-2.38.41-3.6-.33h0Zm21.63,1.13c-.24.04-.44.22-.5.46-.39,1.65-1.34,2.72-2.69,3.01-1.41.31-3.08-.29-3.97-1.44-.11-.15-.29-.23-.47-.23h0c-.18,0-.36.09-.47.23-.47.6-1.97.95-3.37.49-.33-.11-.75-.3-1.13-.63-.06-.06-.11-.11-.18-.17-.38-.4-.68-.96-.71-1.76-.01-.33-.3-.6-.63-.58-.33.01-.59.3-.58.63.04.96.37,1.79.94,2.45.03.04.06.08.1.11,0,0,0,0,0,0,.08.08.16.16.25.24.94,1.01.93,2.43.92,4.66v.2s-.03.42-.23.42c-.16,0-.23,0-.27-.41-.17-1.63-1.04-2.42-1.96-3.24-.32-.29-.65-.58-.96-.93-.95-1.04-1.52-3.14-.53-5.29.7-1.55,2.25-2.54,3.94-2.54,1.61,0,3.07.89,3.82,2.32.08.16.23.27.4.31.17.04.35,0,.49-.11.95-.73,2.43-.61,3.33-.39.09.63.25,1.21.48,1.68.14.3.5.43.8.29.3-.14.43-.51.28-.81-.21-.44-.35-1-.41-1.61,0-.06,0-.11-.02-.17-.14-1.6.21-3.49,1.1-4.52.2-.23.2-.58,0-.81-.72-.79-1.13-1.97-1.13-3.23s.39-2.37,1.07-3.17c.21-.24.19-.6-.03-.83-.58-.58-1.16-1.6-.75-3.18.05-.03.1-.07.15-.1,1.95-1.35,3.28-3.27,3.46-5.02.03-.33-.21-.63-.54-.67-.33-.04-.63.21-.66.54-.14,1.38-1.3,3-2.94,4.14-.09.06-.19.13-.28.19-.01,0-.03.02-.04.03-1.8,1.14-3.81,1.53-5.55,1.05-.21-.06-.43,0-.59.16-.5.51-1.68.98-2.92.86-.63-.06-1.49-.31-2.02-1.13-.1-.16-.27-.26-.46-.27-.19-.01-.37.06-.49.2-.56.63-1.33.98-2.16.98-.96,0-1.85-.48-2.4-1.29-.09-.14-.24-.23-.4-.26-.16-.03-.33.01-.46.11-.66.49-1.52.76-2.41.76-.34,0-.66-.03-.95-.1h0s0,0,0,0c-1.12-.25-2.04-.94-2.45-1.85-.14-.3-.5-.44-.8-.3-.3.14-.43.5-.29.81.54,1.18,1.67,2.09,3.04,2.47.28.45.42.97.42,1.51,0,.8-.34,1.58-.92,2.12-.24.23-.26.61-.04.86.5.55.77,1.25.77,1.98,0,.69-.25,1.35-.69,1.88-.47-.18-.97-.28-1.48-.28-.33,0-.6.27-.6.61s.27.61.6.61c.47,0,.93.11,1.33.33,0,0,0,0,0,0,0,0,0,0,0,0,.95.5,1.55,1.49,1.55,2.58,0,1.6-1.29,2.9-2.88,2.9s-2.89-1.3-2.89-2.9c0-.82.35-1.61.96-2.16.15-.13.22-.33.2-.53-.02-.2-.14-.37-.32-.46-.96-.51-1.55-1.5-1.55-2.58,0-.82.33-1.58.92-2.13.24-.23.26-.61.04-.86-.5-.55-.77-1.24-.77-1.97,0-.62.19-1.21.55-1.72.12-.17.15-.4.07-.59-.07-.18-.11-.36-.11-.54,0-.5.25-.94.68-1.19.14-.08.25-.22.29-.39.04-.16,0-.34-.08-.48-.31-.47-.47-1.02-.47-1.6,0-1.6,1.29-2.9,2.88-2.9.3,0,.6.05.87.13-.53.32-.95.77-1.18,1.31-.13.31.01.67.32.8.08.03.16.05.24.05.23,0,.46-.14.55-.37.23-.54.83-.94,1.58-1.05.24-.03.43-.04.63-.04,1.24,0,2.39.52,3.06,1.39.2.26.58.31.84.11.5-.39,1.11-.6,1.76-.6,1.18,0,2.23.71,2.67,1.8.09.21.28.36.5.38.22.02.44-.09.56-.28.77-1.22,2.08-1.95,3.52-1.95.85,0,1.67.26,2.38.75.17.12.39.14.58.06.19-.08.33-.25.36-.46.23-1.35,1.39-2.32,2.75-2.32.32,0,.63.05.93.16.17.06.37.04.53-.06.16-.1.26-.27.28-.45.15-1.49,1.39-2.62,2.88-2.62,1.59,0,2.88,1.3,2.88,2.9,0,.87-.38,1.69-1.05,2.24-.13.11-.2.26-.22.42-.01.17.04.33.15.45.75.85,1.18,2.09,1.18,3.42s-.46,2.66-1.26,3.51c-.22.23-.22.59,0,.83.72.79,1.13,1.97,1.13,3.24s-.4,2.41-1.1,3.2c-.2.23-.2.58,0,.81.72.79,1.13,1.97,1.13,3.23,0,2.08-1.17,3.89-2.67,4.11h0Zm-14.06-11.68c-.35.56-.85,1.06-1.46,1.43-.77.47-1.66.72-2.57.72-.24,0-.47-.02-.71-.05-.33-.05-.56-.36-.51-.69.05-.33.35-.56.68-.52,1.83.26,3.44-.87,3.81-2.1.27-.91-.18-1.69-1.27-2.2-.3-.14-.43-.5-.29-.81.14-.3.5-.44.8-.29,1.71.8,2.16,2.12,2,3.22,2.27-.22,5.72.07,8.49,3.02.23.24.22.63-.02.86-.12.11-.27.17-.41.17-.16,0-.32-.06-.44-.19-2.68-2.85-6.12-2.87-8.1-2.57h0Z"/>
      </g>
    </g>
  </g>
</svg>