<?xml version="1.0" encoding="UTF-8"?>
<svg id="rohan_story_svg_mobile" data-name="rohan_story_svg_mobile" xmlns="http://www.w3.org/2000/svg" xmlns:xlink="http://www.w3.org/1999/xlink" width="100%" height="100%" viewBox="0 0 253.63 442.8">
  <defs>
    <style>
      .cls-1 {
        fill: #e0e1e0;
      }

      .cls-1, .cls-2_mobile, .cls-3_mobile, .cls-4_mobile, .cls-5 {
        stroke-width: 0px;
      }

      .cls-2_mobile {
        fill: url(#linear-gradient_mobile);
      }

      .cls-6 {
        stroke-dasharray: 0 0 0 5.87;
      }

      .cls-6, .cls-7, .cls-8 {
        stroke: #9d5b8f;
        stroke-linecap: round;
        stroke-linejoin: round;
        stroke-width: 4px;
      }

      .cls-6, .cls-7, .cls-8, .cls-9 {
        fill: none;
      }

      .cls-3_mobile {
        fill: #fff;
      }

      .cls-4_mobile {
        fill: url(#linear-gradient_mobile-2);
      }

      .cls-8 {
        stroke-dasharray: 0 0 0 4.67;
      }

      .cls-5 {
        fill: #872780;
      }

      .cls-9 {
        stroke: #808b86;
        stroke-miterlimit: 10;
        stroke-width: 2px;
      }
    </style>
    <linearGradient id="linear-gradient_mobile" x1="52.5" y1="368.49" x2="52.5" y2="400.65" gradientUnits="userSpaceOnUse">
      <stop offset="0" stop-color="#bebdbd"/>
      <stop offset="1" stop-color="#fff"/>
    </linearGradient>
    <linearGradient id="linear-gradient_mobile-2" x1="52.5" y1="369.97" x2="52.5" y2="399.21" gradientUnits="userSpaceOnUse">
      <stop offset="0" stop-color="#872780"/>
      <stop offset=".2" stop-color="#9b2e69"/>
      <stop offset=".53" stop-color="#b9394a"/>
      <stop offset=".81" stop-color="#cb3f36"/>
      <stop offset="1" stop-color="#d24230"/>
    </linearGradient>
  </defs>
  <g id="rohan_story_svg">
    <g id="rohan_story_mobile">
      <g id="first_symptoms">
        <g>
          <path class="cls-5" d="m120.94,56.37h6.79v.99h-5.73v3.38h5.12v.97h-5.12v4.12h-1.07v-9.45Z"/>
          <path class="cls-5" d="m129.64,56.17h1.19v1.15h-1.19v-1.15Zm.07,2.67h1.04v6.98h-1.04v-6.98Z"/>
          <path class="cls-5" d="m133.17,58.84h1.04v1.82c.51-1.16,1.53-2,2.85-1.94v1.12h-.08c-1.53,0-2.77,1.09-2.77,3.2v2.78h-1.04v-6.98Z"/>
          <path class="cls-5" d="m138.05,64.93l.53-.74c.76.57,1.59.89,2.42.89s1.45-.43,1.45-1.11v-.03c0-.7-.82-.97-1.74-1.23-1.09-.31-2.31-.69-2.31-1.97v-.03c0-1.2,1-2,2.38-2,.85,0,1.8.3,2.51.77l-.47.78c-.65-.42-1.39-.68-2.07-.68-.82,0-1.35.43-1.35,1.01v.03c0,.66.86.92,1.8,1.2,1.08.32,2.24.74,2.24,2v.03c0,1.32-1.09,2.09-2.48,2.09-1,0-2.11-.39-2.89-1.03Z"/>
          <path class="cls-5" d="m145.59,63.97v-4.21h-.97v-.92h.97v-2.11h1.04v2.11h2.21v.92h-2.21v4.08c0,.85.47,1.16,1.17,1.16.35,0,.65-.07,1.01-.24v.89c-.36.19-.76.3-1.26.3-1.12,0-1.97-.55-1.97-1.97Z"/>
          <path class="cls-5" d="m154.15,64.93l.53-.74c.76.57,1.59.89,2.42.89s1.45-.43,1.45-1.11v-.03c0-.7-.82-.97-1.74-1.23-1.09-.31-2.31-.69-2.31-1.97v-.03c0-1.2,1-2,2.38-2,.85,0,1.8.3,2.51.77l-.47.78c-.65-.42-1.39-.68-2.07-.68-.82,0-1.35.43-1.35,1.01v.03c0,.66.86.92,1.8,1.2,1.08.32,2.24.74,2.24,2v.03c0,1.32-1.09,2.09-2.48,2.09-1,0-2.11-.39-2.89-1.03Z"/>
          <path class="cls-5" d="m166.47,58.84h1.11l-2.93,7.21c-.59,1.45-1.27,1.97-2.32,1.97-.58,0-1.01-.12-1.49-.35l.35-.82c.34.18.65.26,1.09.26.62,0,1.01-.32,1.43-1.31l-3.17-6.96h1.15l2.54,5.82,2.24-5.82Z"/>
          <path class="cls-5" d="m169.23,58.84h1.04v1.17c.46-.69,1.08-1.32,2.25-1.32s1.86.61,2.24,1.39c.5-.77,1.24-1.39,2.46-1.39,1.61,0,2.59,1.08,2.59,2.81v4.32h-1.04v-4.08c0-1.35-.68-2.11-1.81-2.11-1.05,0-1.93.78-1.93,2.16v4.02h-1.03v-4.1c0-1.31-.69-2.08-1.8-2.08s-1.94.92-1.94,2.2v3.98h-1.04v-6.98Z"/>
          <path class="cls-5" d="m182.02,58.84h1.04v1.4c.57-.84,1.39-1.55,2.67-1.55,1.67,0,3.34,1.32,3.34,3.62v.03c0,2.28-1.65,3.63-3.34,3.63-1.3,0-2.13-.7-2.67-1.49v3.5h-1.04v-9.14Zm5.98,3.51v-.03c0-1.65-1.13-2.7-2.46-2.7s-2.53,1.09-2.53,2.69v.03c0,1.62,1.23,2.7,2.53,2.7s2.46-1,2.46-2.69Z"/>
          <path class="cls-5" d="m191.35,63.97v-4.21h-.97v-.92h.97v-2.11h1.04v2.11h2.21v.92h-2.21v4.08c0,.85.47,1.16,1.17,1.16.35,0,.65-.07,1.01-.24v.89c-.37.19-.76.3-1.26.3-1.12,0-1.97-.55-1.97-1.97Z"/>
          <path class="cls-5" d="m195.81,62.37v-.03c0-1.97,1.54-3.65,3.65-3.65s3.63,1.65,3.63,3.62v.03c0,1.97-1.55,3.65-3.66,3.65s-3.62-1.65-3.62-3.62Zm6.21,0v-.03c0-1.5-1.12-2.73-2.59-2.73s-2.55,1.23-2.55,2.7v.03c0,1.5,1.11,2.71,2.58,2.71s2.57-1.21,2.57-2.69Z"/>
          <path class="cls-5" d="m204.96,58.84h1.04v1.17c.46-.69,1.08-1.32,2.25-1.32s1.86.61,2.24,1.39c.5-.77,1.24-1.39,2.46-1.39,1.61,0,2.59,1.08,2.59,2.81v4.32h-1.04v-4.08c0-1.35-.68-2.11-1.81-2.11-1.05,0-1.93.78-1.93,2.16v4.02h-1.03v-4.1c0-1.31-.69-2.08-1.8-2.08s-1.94.92-1.94,2.2v3.98h-1.04v-6.98Z"/>
          <path class="cls-5" d="m217.18,64.93l.53-.74c.76.57,1.59.89,2.42.89s1.45-.43,1.45-1.11v-.03c0-.7-.82-.97-1.74-1.23-1.09-.31-2.31-.69-2.31-1.97v-.03c0-1.2,1-2,2.38-2,.85,0,1.8.3,2.51.77l-.47.78c-.65-.42-1.39-.68-2.07-.68-.82,0-1.35.43-1.35,1.01v.03c0,.66.86.92,1.8,1.2,1.08.32,2.24.74,2.24,2v.03c0,1.32-1.09,2.09-2.48,2.09-1,0-2.11-.39-2.89-1.03Z"/>
        </g>
        <g>
          <line class="cls-7" x1="112.83" y1="61.33" x2="112.83" y2="61.33"/>
          <line class="cls-6" x1="106.97" y1="61.33" x2="57.11" y2="61.36"/>
          <line class="cls-7" x1="54.18" y1="61.36" x2="54.18" y2="61.36"/>
        </g>
      </g>
      <g id="_2021_text" data-name="2021_text">
        <g>
          <line class="cls-7" x1="112.83" y1="385.56" x2="112.83" y2="385.56"/>
          <line class="cls-8" x1="108.17" y1="385.56" x2="105.83" y2="385.56"/>
          <line class="cls-7" x1="103.5" y1="385.56" x2="103.5" y2="385.56"/>
        </g>
        <g>
          <path class="cls-5" d="m120.73,363.18h3.69c2.97,0,5.02,2.04,5.02,4.7v.03c0,2.66-2.05,4.73-5.02,4.73h-3.69v-9.45Zm2.08,1.88v5.7h1.61c1.7,0,2.85-1.15,2.85-2.82v-.03c0-1.67-1.15-2.85-2.85-2.85h-1.61Z"/>
          <path class="cls-5" d="m131.12,362.77h2.16v1.82h-2.16v-1.82Zm.05,2.62h2.05v7.24h-2.05v-7.24Z"/>
          <path class="cls-5" d="m134.72,370.55v-.03c0-1.58,1.2-2.31,2.92-2.31.73,0,1.26.12,1.77.3v-.12c0-.85-.53-1.32-1.55-1.32-.78,0-1.34.15-2,.39l-.51-1.57c.8-.35,1.58-.58,2.81-.58,1.12,0,1.93.3,2.44.81.54.54.78,1.34.78,2.31v4.2h-1.99v-.78c-.5.55-1.19.92-2.19.92-1.36,0-2.48-.78-2.48-2.21Zm4.71-.47v-.36c-.35-.16-.81-.27-1.31-.27-.88,0-1.42.35-1.42,1v.03c0,.55.46.88,1.12.88.96,0,1.61-.53,1.61-1.27Z"/>
          <path class="cls-5" d="m143.18,374.06l.7-1.54c.74.42,1.49.66,2.44.66,1.4,0,2.07-.68,2.07-1.97v-.35c-.61.73-1.27,1.17-2.36,1.17-1.69,0-3.21-1.23-3.21-3.38v-.03c0-2.16,1.55-3.38,3.21-3.38,1.12,0,1.78.47,2.34,1.08v-.95h2.05v5.6c0,1.3-.31,2.24-.92,2.85-.67.68-1.71.97-3.12.97-1.17,0-2.28-.27-3.2-.76Zm5.21-5.4v-.03c0-.99-.77-1.67-1.77-1.67s-1.76.69-1.76,1.67v.03c0,1,.76,1.67,1.76,1.67s1.77-.69,1.77-1.67Z"/>
          <path class="cls-5" d="m152.26,365.39h2.05v1.03c.47-.61,1.08-1.16,2.12-1.16,1.55,0,2.46,1.03,2.46,2.69v4.69h-2.05v-4.04c0-.97-.46-1.47-1.24-1.47s-1.28.5-1.28,1.47v4.04h-2.05v-7.24Z"/>
          <path class="cls-5" d="m160.32,369.05v-.03c0-2.08,1.67-3.77,3.93-3.77s3.9,1.66,3.9,3.74v.03c0,2.08-1.67,3.77-3.93,3.77s-3.9-1.66-3.9-3.74Zm5.81,0v-.03c0-1.07-.77-2-1.9-2s-1.88.9-1.88,1.97v.03c0,1.07.77,2,1.9,2s1.88-.9,1.88-1.97Z"/>
          <path class="cls-5" d="m169.06,371.67l.88-1.35c.78.57,1.61.86,2.28.86.59,0,.86-.22.86-.54v-.03c0-.45-.7-.59-1.5-.84-1.01-.3-2.16-.77-2.16-2.17v-.03c0-1.47,1.19-2.3,2.65-2.3.92,0,1.92.31,2.7.84l-.78,1.42c-.72-.42-1.43-.68-1.96-.68s-.76.22-.76.5v.03c0,.41.69.59,1.47.86,1.01.34,2.19.82,2.19,2.15v.03c0,1.61-1.2,2.34-2.77,2.34-1.01,0-2.15-.34-3.11-1.09Z"/>
          <path class="cls-5" d="m176.45,362.77h2.16v1.82h-2.16v-1.82Zm.05,2.62h2.05v7.24h-2.05v-7.24Z"/>
          <path class="cls-5" d="m179.92,371.67l.88-1.35c.78.57,1.61.86,2.28.86.59,0,.86-.22.86-.54v-.03c0-.45-.7-.59-1.5-.84-1.01-.3-2.16-.77-2.16-2.17v-.03c0-1.47,1.19-2.3,2.65-2.3.92,0,1.92.31,2.7.84l-.78,1.42c-.72-.42-1.43-.68-1.96-.68s-.76.22-.76.5v.03c0,.41.69.59,1.47.86,1.01.34,2.19.82,2.19,2.15v.03c0,1.61-1.2,2.34-2.77,2.34-1.01,0-2.15-.34-3.11-1.09Z"/>
          <path class="cls-5" d="m190.96,369.05v-.03c0-2.08,1.67-3.77,3.93-3.77s3.9,1.66,3.9,3.74v.03c0,2.08-1.67,3.77-3.93,3.77s-3.9-1.66-3.9-3.74Zm5.81,0v-.03c0-1.07-.77-2-1.9-2s-1.88.9-1.88,1.97v.03c0,1.07.77,2,1.9,2s1.88-.9,1.88-1.97Z"/>
          <path class="cls-5" d="m200.63,367.15h-.85v-1.69h.85v-.46c0-.8.2-1.38.58-1.76.38-.38.93-.57,1.66-.57.65,0,1.08.08,1.46.2v1.7c-.3-.11-.58-.18-.93-.18-.47,0-.74.24-.74.78v.28h1.66v1.67h-1.63v5.48h-2.05v-5.48Z"/>
          <path class="cls-5" d="m120.56,378.97h2.16v1.82h-2.16v-1.82Zm.05,2.62h2.05v7.24h-2.05v-7.24Z"/>
          <path class="cls-5" d="m124.69,378.97h2.05v9.86h-2.05v-9.86Z"/>
          <path class="cls-5" d="m128.32,385.25v-.03c0-2.07,1.47-3.77,3.58-3.77,2.42,0,3.52,1.88,3.52,3.93,0,.16-.01.35-.03.54h-5.04c.2.93.85,1.42,1.77,1.42.69,0,1.19-.22,1.76-.74l1.17,1.04c-.67.84-1.65,1.35-2.96,1.35-2.17,0-3.78-1.53-3.78-3.74Zm5.1-.61c-.12-.92-.66-1.54-1.53-1.54s-1.4.61-1.57,1.54h3.09Z"/>
          <path class="cls-5" d="m136.6,385.25v-.03c0-2.08,1.67-3.77,3.93-3.77s3.9,1.66,3.9,3.74v.03c0,2.08-1.67,3.77-3.93,3.77s-3.9-1.66-3.9-3.74Zm5.81,0v-.03c0-1.07-.77-2-1.9-2s-1.88.9-1.88,1.97v.03c0,1.07.77,2,1.9,2s1.88-.9,1.88-1.97Z"/>
          <path class="cls-5" d="m145.56,385.25v-.03c0-2.07,1.58-3.77,3.79-3.77,1.36,0,2.21.46,2.89,1.22l-1.26,1.35c-.46-.49-.92-.8-1.65-.8-1.03,0-1.76.9-1.76,1.97v.03c0,1.11.72,2,1.84,2,.69,0,1.16-.3,1.66-.77l1.2,1.22c-.7.77-1.51,1.32-2.96,1.32-2.17,0-3.77-1.67-3.77-3.74Z"/>
          <path class="cls-5" d="m153.07,385.25v-.03c0-2.08,1.67-3.77,3.93-3.77s3.9,1.66,3.9,3.74v.03c0,2.08-1.67,3.77-3.93,3.77s-3.9-1.66-3.9-3.74Zm5.81,0v-.03c0-1.07-.77-2-1.9-2s-1.88.9-1.88,1.97v.03c0,1.07.77,2,1.9,2s1.88-.9,1.88-1.97Z"/>
          <path class="cls-5" d="m162.48,378.97h2.05v9.86h-2.05v-9.86Z"/>
          <path class="cls-5" d="m166.11,385.25v-.03c0-2.08,1.67-3.77,3.93-3.77s3.9,1.66,3.9,3.74v.03c0,2.08-1.67,3.77-3.93,3.77s-3.9-1.66-3.9-3.74Zm5.81,0v-.03c0-1.07-.77-2-1.9-2s-1.88.9-1.88,1.97v.03c0,1.07.77,2,1.9,2s1.88-.9,1.88-1.97Z"/>
          <path class="cls-5" d="m175.42,381.59h2.05v1.03c.47-.61,1.08-1.16,2.12-1.16,1.55,0,2.46,1.03,2.46,2.69v4.69h-2.05v-4.04c0-.97-.46-1.47-1.24-1.47s-1.28.5-1.28,1.47v4.04h-2.05v-7.24Z"/>
          <path class="cls-5" d="m183.87,378.97h2.16v1.82h-2.16v-1.82Zm.05,2.62h2.05v7.24h-2.05v-7.24Z"/>
          <path class="cls-5" d="m187.56,385.25v-.03c0-2.07,1.58-3.77,3.79-3.77,1.36,0,2.21.46,2.89,1.22l-1.26,1.35c-.46-.49-.92-.8-1.65-.8-1.03,0-1.76.9-1.76,1.97v.03c0,1.11.72,2,1.84,2,.69,0,1.16-.3,1.66-.77l1.2,1.22c-.7.77-1.51,1.32-2.96,1.32-2.17,0-3.77-1.67-3.77-3.74Z"/>
          <path class="cls-5" d="m199.24,386.75v-.03c0-1.58,1.2-2.31,2.92-2.31.73,0,1.26.12,1.77.3v-.12c0-.85-.53-1.32-1.55-1.32-.78,0-1.34.15-2,.39l-.51-1.57c.8-.35,1.58-.58,2.81-.58,1.12,0,1.93.3,2.44.81.54.54.78,1.34.78,2.31v4.2h-1.99v-.78c-.5.55-1.19.92-2.19.92-1.36,0-2.48-.78-2.48-2.21Zm4.71-.47v-.36c-.35-.16-.81-.27-1.31-.27-.88,0-1.42.35-1.42,1v.03c0,.55.46.88,1.12.88.96,0,1.61-.53,1.61-1.27Z"/>
          <path class="cls-5" d="m207.66,381.59h2.05v1.03c.47-.61,1.08-1.16,2.12-1.16,1.55,0,2.46,1.03,2.46,2.69v4.69h-2.05v-4.04c0-.97-.46-1.47-1.24-1.47s-1.28.5-1.28,1.47v4.04h-2.05v-7.24Z"/>
          <path class="cls-5" d="m215.75,385.23v-.03c0-2.42,1.58-3.74,3.3-3.74,1.09,0,1.77.5,2.25,1.08v-3.56h2.05v9.86h-2.05v-1.04c-.5.68-1.19,1.18-2.25,1.18-1.69,0-3.3-1.32-3.3-3.74Zm5.58,0v-.03c0-1.2-.8-2-1.75-2s-1.77.78-1.77,2v.03c0,1.2.81,2,1.77,2s1.75-.8,1.75-2Z"/>
          <path class="cls-5" d="m120.56,395.17h2.16v1.82h-2.16v-1.82Zm.05,2.62h2.05v7.24h-2.05v-7.24Z"/>
          <path class="cls-5" d="m124.59,397.79h2.05v1.03c.47-.61,1.08-1.16,2.12-1.16,1.55,0,2.46,1.03,2.46,2.69v4.69h-2.05v-4.04c0-.97-.46-1.47-1.24-1.47s-1.28.5-1.28,1.47v4.04h-2.05v-7.24Z"/>
          <path class="cls-5" d="m133.36,399.55h-.85v-1.69h.85v-.46c0-.8.2-1.38.58-1.76.38-.38.93-.57,1.66-.57.65,0,1.08.08,1.46.2v1.7c-.3-.11-.58-.18-.93-.18-.47,0-.74.24-.74.78v.28h1.66v1.67h-1.63v5.48h-2.05v-5.48Zm4.9-4.38h2.05v9.86h-2.05v-9.86Z"/>
          <path class="cls-5" d="m141.81,402.95v-.03c0-1.58,1.2-2.31,2.92-2.31.73,0,1.26.12,1.77.3v-.12c0-.85-.53-1.32-1.55-1.32-.78,0-1.34.15-2,.39l-.51-1.57c.8-.35,1.58-.58,2.81-.58,1.12,0,1.93.3,2.44.81.54.54.78,1.34.78,2.31v4.2h-1.99v-.78c-.5.55-1.19.92-2.19.92-1.36,0-2.48-.78-2.48-2.21Zm4.71-.47v-.36c-.35-.16-.81-.27-1.31-.27-.88,0-1.42.35-1.42,1v.03c0,.55.46.88,1.12.88.96,0,1.61-.53,1.61-1.27Z"/>
          <path class="cls-5" d="m150.23,397.79h2.05v1.03c.47-.61,1.09-1.16,2.13-1.16.95,0,1.66.42,2.04,1.15.63-.74,1.39-1.15,2.38-1.15,1.53,0,2.44.92,2.44,2.66v4.71h-2.05v-4.04c0-.97-.43-1.47-1.2-1.47s-1.24.5-1.24,1.47v4.04h-2.05v-4.04c0-.97-.43-1.47-1.2-1.47s-1.24.5-1.24,1.47v4.04h-2.05v-7.24Z"/>
          <path class="cls-5" d="m163.06,397.79h2.05v1.03c.47-.61,1.09-1.16,2.13-1.16.95,0,1.66.42,2.04,1.15.63-.74,1.39-1.15,2.38-1.15,1.53,0,2.44.92,2.44,2.66v4.71h-2.05v-4.04c0-.97-.43-1.47-1.2-1.47s-1.24.5-1.24,1.47v4.04h-2.05v-4.04c0-.97-.43-1.47-1.2-1.47s-1.24.5-1.24,1.47v4.04h-2.05v-7.24Z"/>
          <path class="cls-5" d="m175.45,402.95v-.03c0-1.58,1.2-2.31,2.92-2.31.73,0,1.26.12,1.77.3v-.12c0-.85-.53-1.32-1.55-1.32-.78,0-1.34.15-2,.39l-.51-1.57c.8-.35,1.58-.58,2.81-.58,1.12,0,1.93.3,2.44.81.54.54.78,1.34.78,2.31v4.2h-1.99v-.78c-.5.55-1.19.92-2.19.92-1.36,0-2.48-.78-2.48-2.21Zm4.71-.47v-.36c-.35-.16-.81-.27-1.31-.27-.88,0-1.42.35-1.42,1v.03c0,.55.46.88,1.12.88.96,0,1.61-.53,1.61-1.27Z"/>
          <path class="cls-5" d="m184.14,402.98v-3.43h-.86v-1.76h.86v-1.85h2.05v1.85h1.7v1.76h-1.7v3.09c0,.47.2.7.66.7.38,0,.72-.09,1.01-.26v1.65c-.43.26-.93.42-1.62.42-1.26,0-2.11-.5-2.11-2.17Z"/>
          <path class="cls-5" d="m188.86,401.45v-.03c0-2.08,1.67-3.77,3.93-3.77s3.9,1.66,3.9,3.74v.03c0,2.08-1.67,3.77-3.93,3.77s-3.9-1.66-3.9-3.74Zm5.81,0v-.03c0-1.07-.77-2-1.9-2s-1.88.9-1.88,1.97v.03c0,1.07.77,2,1.9,2s1.88-.9,1.88-1.97Z"/>
          <path class="cls-5" d="m198.17,397.79h2.05v1.46c.42-1,1.09-1.65,2.31-1.59v2.15h-.11c-1.36,0-2.2.82-2.2,2.55v2.67h-2.05v-7.24Z"/>
          <path class="cls-5" d="m208.57,397.79h2.13l-2.78,7.41c-.55,1.47-1.15,2.03-2.38,2.03-.74,0-1.3-.19-1.82-.5l.69-1.49c.27.16.61.28.88.28.35,0,.54-.11.71-.47l-2.83-7.27h2.17l1.65,4.93,1.58-4.93Z"/>
          <path class="cls-5" d="m215.76,400.33v-.03c0-2.69,2.03-4.89,4.93-4.89,1.78,0,2.85.59,3.73,1.46l-1.32,1.53c-.73-.66-1.47-1.07-2.42-1.07-1.59,0-2.74,1.32-2.74,2.94v.03c0,1.62,1.12,2.97,2.74,2.97,1.08,0,1.74-.43,2.49-1.11l1.32,1.34c-.97,1.04-2.05,1.69-3.88,1.69-2.78,0-4.85-2.15-4.85-4.86Z"/>
          <path class="cls-5" d="m226.14,395.58h3.69c2.97,0,5.02,2.04,5.02,4.7v.03c0,2.66-2.05,4.73-5.02,4.73h-3.69v-9.45Zm2.08,1.88v5.7h1.61c1.7,0,2.85-1.15,2.85-2.82v-.03c0-1.67-1.15-2.85-2.85-2.85h-1.61Z"/>
        </g>
        <g>
          <path class="cls-5" d="m121.06,421.7v-.03c0-.97.82-1.76,1.77-1.76s1.77.78,1.77,1.76v.03c0,.97-.8,1.75-1.77,1.75s-1.77-.78-1.77-1.75Z"/>
          <path class="cls-5" d="m138.52,421.74v-.03c0-2.67,2-4.89,4.78-4.89,1.72,0,2.74.61,3.69,1.5l-.73.78c-.8-.76-1.69-1.3-2.97-1.3-2.09,0-3.66,1.7-3.66,3.88v.03c0,2.19,1.58,3.9,3.66,3.9,1.3,0,2.15-.5,3.05-1.36l.7.69c-.99,1-2.07,1.66-3.78,1.66-2.73,0-4.74-2.15-4.74-4.86Z"/>
          <path class="cls-5" d="m148.95,416.99h3.28c2.97,0,5.02,2.04,5.02,4.7v.03c0,2.66-2.05,4.73-5.02,4.73h-3.28v-9.45Zm1.07.99v7.48h2.21c2.39,0,3.92-1.62,3.92-3.71v-.03c0-2.09-1.53-3.74-3.92-3.74h-2.21Z"/>
          <path class="cls-5" d="m162.39,416.92h1l4.31,9.52h-1.15l-1.11-2.5h-5.15l-1.12,2.5h-1.09l4.31-9.52Zm2.63,6.06l-2.15-4.82-2.16,4.82h4.31Z"/>
          <path class="cls-5" d="m169.65,416.99h1.07v9.45h-1.07v-9.45Z"/>
          <path class="cls-5" d="m173.24,419.46h1.24v1.42h-1.24v-1.42Zm0,5.56h1.24v1.42h-1.24v-1.42Z"/>
          <path class="cls-5" d="m180.3,424.92l.77-.69c.73.89,1.61,1.41,2.77,1.41s2.07-.73,2.07-1.84v-.03c0-1.17-1.09-1.82-2.65-1.82h-.61l-.22-.63,2.98-3.36h-4.62v-.96h6.04v.78l-2.97,3.29c1.65.13,3.12.93,3.12,2.66v.03c0,1.69-1.4,2.85-3.16,2.85-1.58,0-2.75-.69-3.53-1.69Z"/>
          <path class="cls-5" d="m188.55,425.62l3.43-3.03c1.45-1.3,1.97-2.03,1.97-2.97,0-1.11-.88-1.81-1.9-1.81-1.08,0-1.78.57-2.54,1.62l-.78-.57c.85-1.27,1.74-2.01,3.4-2.01s2.93,1.13,2.93,2.67v.03c0,1.38-.73,2.23-2.39,3.67l-2.53,2.24h5.01v.97h-6.6v-.82Z"/>
          <path class="cls-5" d="m196.64,425.62l3.43-3.03c1.45-1.3,1.97-2.03,1.97-2.97,0-1.11-.88-1.81-1.9-1.81-1.08,0-1.78.57-2.54,1.62l-.78-.57c.85-1.27,1.74-2.01,3.4-2.01s2.93,1.13,2.93,2.67v.03c0,1.38-.73,2.23-2.39,3.67l-2.53,2.24h5.01v.97h-6.6v-.82Z"/>
          <path class="cls-5" d="m121.06,437.9v-.03c0-.97.82-1.76,1.77-1.76s1.77.78,1.77,1.76v.03c0,.97-.8,1.75-1.77,1.75s-1.77-.78-1.77-1.75Z"/>
          <path class="cls-5" d="m138.32,441.26l.66-.78c.99.89,1.93,1.34,3.24,1.34s2.11-.68,2.11-1.61v-.03c0-.88-.47-1.38-2.46-1.8-2.17-.47-3.17-1.17-3.17-2.73v-.03c0-1.49,1.31-2.58,3.11-2.58,1.38,0,2.36.39,3.32,1.16l-.62.82c-.88-.72-1.75-1.03-2.73-1.03-1.23,0-2.01.67-2.01,1.53v.03c0,.89.49,1.39,2.57,1.84,2.11.46,3.08,1.23,3.08,2.67v.03c0,1.62-1.35,2.67-3.23,2.67-1.5,0-2.73-.5-3.86-1.51Z"/>
          <path class="cls-5" d="m147.58,433.19h6.83v.97h-5.77v3.23h5.16v.97h-5.16v3.31h5.83v.97h-6.9v-9.45Z"/>
          <path class="cls-5" d="m156,441.26l.66-.78c.99.89,1.93,1.34,3.24,1.34s2.11-.68,2.11-1.61v-.03c0-.88-.47-1.38-2.46-1.8-2.17-.47-3.17-1.17-3.17-2.73v-.03c0-1.49,1.31-2.58,3.11-2.58,1.38,0,2.36.39,3.32,1.16l-.62.82c-.88-.72-1.75-1.03-2.73-1.03-1.23,0-2.01.67-2.01,1.53v.03c0,.89.49,1.39,2.57,1.84,2.11.46,3.08,1.23,3.08,2.67v.03c0,1.62-1.35,2.67-3.23,2.67-1.5,0-2.73-.5-3.86-1.51Z"/>
          <path class="cls-5" d="m164.8,438.04h3.75v1.09h-3.75v-1.09Z"/>
          <path class="cls-5" d="m170.35,437.94v-.03c0-2.67,2-4.89,4.78-4.89,1.72,0,2.74.61,3.69,1.5l-.73.78c-.8-.76-1.69-1.3-2.97-1.3-2.09,0-3.66,1.7-3.66,3.88v.03c0,2.19,1.58,3.9,3.66,3.9,1.3,0,2.15-.5,3.05-1.36l.7.69c-.99,1-2.07,1.66-3.78,1.66-2.73,0-4.74-2.15-4.74-4.86Z"/>
          <path class="cls-5" d="m180.79,433.19h3.28c2.97,0,5.02,2.04,5.02,4.7v.03c0,2.66-2.05,4.73-5.02,4.73h-3.28v-9.45Zm1.07.99v7.48h2.21c2.39,0,3.92-1.62,3.92-3.71v-.03c0-2.09-1.53-3.74-3.92-3.74h-2.21Z"/>
          <path class="cls-5" d="m191.1,435.66h1.24v1.42h-1.24v-1.42Zm0,5.56h1.24v1.42h-1.24v-1.42Z"/>
          <path class="cls-5" d="m198.13,441.82l3.43-3.03c1.45-1.3,1.97-2.03,1.97-2.97,0-1.11-.88-1.81-1.9-1.81-1.08,0-1.78.57-2.54,1.62l-.78-.57c.85-1.27,1.74-2.01,3.4-2.01s2.93,1.13,2.93,2.67v.03c0,1.38-.73,2.23-2.39,3.67l-2.53,2.24h5.01v.97h-6.6v-.82Z"/>
          <path class="cls-5" d="m206.22,441.82l3.43-3.03c1.45-1.3,1.97-2.03,1.97-2.97,0-1.11-.88-1.81-1.9-1.81-1.08,0-1.78.57-2.54,1.62l-.78-.57c.85-1.27,1.74-2.01,3.4-2.01s2.93,1.13,2.93,2.67v.03c0,1.38-.73,2.23-2.39,3.67l-2.53,2.24h5.01v.97h-6.6v-.82Z"/>
        </g>
      </g>
      <line id="timeline" class="cls-9" x1="53.14" y1="386.58" x2="53.14" y2="15"/>
      <g id="_2021_btn" data-name="2021" class="timeline--btn tooltip-mobile" title="Click here">
        <rect class="cls-2_mobile" x="0" y="368.29" width="105" height="33" rx="16.5" ry="16.5"/>
        <rect class="cls-4_mobile" x="1.5" y="369.79" width="102" height="30" rx="15" ry="15"/>
        <g>
          <path class="cls-3_mobile" d="m38.76,387.78l2.79-2.29c1.04-.86,1.45-1.32,1.45-2.02s-.47-1.09-1.13-1.09-1.09.36-1.71,1.13l-1.3-1.04c.83-1.13,1.63-1.74,3.13-1.74,1.74,0,2.89,1.02,2.89,2.59v.02c0,1.4-.72,2.1-2.21,3.25l-1.37,1.05h3.66v1.6h-6.21v-1.46Z"/>
          <path class="cls-3_mobile" d="m46.29,385.07v-.02c0-2.43,1.51-4.34,3.74-4.34s3.72,1.88,3.72,4.32v.02c0,2.43-1.5,4.34-3.74,4.34s-3.72-1.88-3.72-4.32Zm5.57,0v-.02c0-1.52-.74-2.67-1.85-2.67s-1.82,1.12-1.82,2.65v.02c0,1.54.73,2.67,1.85,2.67s1.82-1.13,1.82-2.65Z"/>
          <path class="cls-3_mobile" d="m54.87,387.78l2.79-2.29c1.04-.86,1.45-1.32,1.45-2.02s-.47-1.09-1.13-1.09-1.09.36-1.71,1.13l-1.3-1.04c.83-1.13,1.63-1.74,3.13-1.74,1.74,0,2.89,1.02,2.89,2.59v.02c0,1.4-.72,2.1-2.21,3.25l-1.37,1.05h3.66v1.6h-6.21v-1.46Z"/>
          <path class="cls-3_mobile" d="m63.9,382.66l-1.46.36-.38-1.51,2.41-.72h1.26v8.46h-1.82v-6.58Z"/>
        </g>
      </g>
      <g id="_2020_capsule" data-name="2020_capsule">
        <rect class="cls-1" x="1.5" y="276.21" width="102" height="30" rx="15" ry="15"/>
        <g>
          <path class="cls-5" d="m36.91,294.21l2.79-2.29c1.04-.86,1.45-1.32,1.45-2.02s-.47-1.09-1.13-1.09-1.09.36-1.71,1.13l-1.3-1.04c.83-1.13,1.63-1.74,3.13-1.74,1.74,0,2.89,1.02,2.89,2.59v.02c0,1.4-.72,2.1-2.21,3.25l-1.37,1.05h3.66v1.6h-6.21v-1.46Z"/>
          <path class="cls-5" d="m44.45,291.5v-.02c0-2.43,1.51-4.34,3.74-4.34s3.72,1.88,3.72,4.32v.02c0,2.43-1.5,4.34-3.74,4.34s-3.72-1.88-3.72-4.32Zm5.57,0v-.02c0-1.52-.74-2.67-1.85-2.67s-1.82,1.12-1.82,2.65v.02c0,1.54.73,2.67,1.85,2.67s1.82-1.13,1.82-2.65Z"/>
          <path class="cls-5" d="m53.03,294.21l2.79-2.29c1.04-.86,1.45-1.32,1.45-2.02s-.47-1.09-1.13-1.09-1.09.36-1.71,1.13l-1.3-1.04c.83-1.13,1.63-1.74,3.13-1.74,1.74,0,2.89,1.02,2.89,2.59v.02c0,1.4-.72,2.1-2.21,3.25l-1.37,1.05h3.66v1.6h-6.21v-1.46Z"/>
          <path class="cls-5" d="m60.56,291.5v-.02c0-2.43,1.51-4.34,3.74-4.34s3.72,1.88,3.72,4.32v.02c0,2.43-1.5,4.34-3.74,4.34s-3.72-1.88-3.72-4.32Zm5.57,0v-.02c0-1.52-.74-2.67-1.85-2.67s-1.82,1.12-1.82,2.65v.02c0,1.54.73,2.67,1.85,2.67s1.82-1.13,1.82-2.65Z"/>
        </g>
      </g>
      <g id="_2019_text" data-name="2019_text">
        <path class="cls-5" d="m124.43,176.65h1l4.31,9.52h-1.15l-1.11-2.5h-5.15l-1.12,2.5h-1.09l4.31-9.52Zm2.63,6.06l-2.15-4.82-2.16,4.82h4.31Z"/>
        <path class="cls-5" d="m132.47,184.83v1.34h-1.04v-9.86h1.04v4.28c.57-.84,1.39-1.55,2.67-1.55,1.67,0,3.34,1.32,3.34,3.62v.03c0,2.28-1.65,3.63-3.34,3.63-1.3,0-2.13-.7-2.67-1.49Zm4.94-2.13v-.03c0-1.65-1.13-2.7-2.46-2.7s-2.53,1.09-2.53,2.69v.03c0,1.62,1.23,2.7,2.53,2.7s2.46-1,2.46-2.69Z"/>
        <path class="cls-5" d="m139.99,182.7v-.03c0-2.28,1.66-3.63,3.34-3.63,1.3,0,2.13.7,2.67,1.49v-4.21h1.04v9.86h-1.04v-1.4c-.57.84-1.39,1.55-2.67,1.55-1.67,0-3.34-1.32-3.34-3.62Zm6.05-.01v-.03c0-1.61-1.23-2.69-2.52-2.69s-2.46,1-2.46,2.69v.03c0,1.65,1.13,2.7,2.46,2.7s2.52-1.09,2.52-2.7Z"/>
        <path class="cls-5" d="m148.92,182.71v-.03c0-1.97,1.54-3.65,3.65-3.65s3.63,1.65,3.63,3.62v.03c0,1.97-1.55,3.65-3.66,3.65s-3.62-1.65-3.62-3.62Zm6.21,0v-.03c0-1.5-1.12-2.73-2.59-2.73s-2.55,1.23-2.55,2.7v.03c0,1.5,1.11,2.71,2.58,2.71s2.57-1.22,2.57-2.69Z"/>
        <path class="cls-5" d="m158.08,179.19h1.04v1.17c.46-.69,1.08-1.32,2.25-1.32s1.86.61,2.24,1.39c.5-.77,1.24-1.39,2.46-1.39,1.61,0,2.59,1.08,2.59,2.81v4.32h-1.04v-4.08c0-1.35-.68-2.11-1.81-2.11-1.05,0-1.93.78-1.93,2.16v4.02h-1.03v-4.11c0-1.31-.69-2.08-1.8-2.08s-1.94.92-1.94,2.2v3.98h-1.04v-6.98Z"/>
        <path class="cls-5" d="m170.9,176.51h1.19v1.15h-1.19v-1.15Zm.07,2.67h1.04v6.98h-1.04v-6.98Z"/>
        <path class="cls-5" d="m174.42,179.19h1.04v1.21c.46-.76,1.19-1.36,2.39-1.36,1.69,0,2.67,1.13,2.67,2.8v4.33h-1.04v-4.08c0-1.3-.7-2.11-1.93-2.11s-2.09.88-2.09,2.19v4h-1.04v-6.98Z"/>
        <path class="cls-5" d="m182.21,184.14v-.03c0-1.47,1.21-2.25,2.98-2.25.89,0,1.53.12,2.15.3v-.24c0-1.26-.77-1.9-2.08-1.9-.82,0-1.47.22-2.12.51l-.31-.85c.77-.35,1.53-.58,2.54-.58s1.74.26,2.25.77c.47.47.72,1.15.72,2.04v4.27h-1v-1.05c-.49.63-1.3,1.2-2.53,1.2-1.3,0-2.61-.74-2.61-2.17Zm5.14-.54v-.67c-.51-.15-1.2-.3-2.05-.3-1.31,0-2.04.57-2.04,1.44v.03c0,.88.81,1.39,1.75,1.39,1.28,0,2.34-.78,2.34-1.89Z"/>
        <path class="cls-5" d="m190.65,176.31h1.04v9.86h-1.04v-9.86Z"/>
        <path class="cls-5" d="m198.16,179.19h1.04v1.4c.57-.84,1.39-1.55,2.67-1.55,1.67,0,3.33,1.32,3.33,3.62v.03c0,2.28-1.65,3.63-3.33,3.63-1.3,0-2.13-.7-2.67-1.49v3.5h-1.04v-9.14Zm5.98,3.51v-.03c0-1.65-1.13-2.7-2.46-2.7s-2.52,1.09-2.52,2.69v.03c0,1.62,1.23,2.7,2.52,2.7s2.46-1,2.46-2.69Z"/>
        <path class="cls-5" d="m206.59,184.14v-.03c0-1.47,1.21-2.25,2.98-2.25.89,0,1.53.12,2.15.3v-.24c0-1.26-.77-1.9-2.08-1.9-.82,0-1.47.22-2.12.51l-.31-.85c.77-.35,1.53-.58,2.54-.58s1.74.26,2.25.77c.47.47.72,1.15.72,2.04v4.27h-1v-1.05c-.49.63-1.3,1.2-2.53,1.2-1.3,0-2.61-.74-2.61-2.17Zm5.14-.54v-.67c-.51-.15-1.2-.3-2.05-.3-1.31,0-2.04.57-2.04,1.44v.03c0,.88.81,1.39,1.75,1.39,1.28,0,2.34-.78,2.34-1.89Z"/>
        <path class="cls-5" d="m214.96,176.51h1.19v1.15h-1.19v-1.15Zm.07,2.67h1.04v6.98h-1.04v-6.98Z"/>
        <path class="cls-5" d="m218.49,179.19h1.04v1.21c.46-.76,1.19-1.36,2.39-1.36,1.69,0,2.67,1.13,2.67,2.8v4.33h-1.04v-4.08c0-1.3-.7-2.11-1.93-2.11s-2.09.88-2.09,2.19v4h-1.04v-6.98Z"/>
        <path class="cls-5" d="m230.33,184.14v-.03c0-1.47,1.21-2.25,2.98-2.25.89,0,1.53.12,2.15.3v-.24c0-1.26-.77-1.9-2.08-1.9-.82,0-1.47.22-2.12.51l-.31-.85c.77-.35,1.53-.58,2.54-.58s1.74.26,2.25.77c.47.47.72,1.15.72,2.04v4.27h-1v-1.05c-.49.63-1.3,1.2-2.53,1.2-1.3,0-2.61-.74-2.61-2.17Zm5.14-.54v-.67c-.51-.15-1.2-.3-2.05-.3-1.31,0-2.04.57-2.04,1.44v.03c0,.88.81,1.39,1.75,1.39,1.28,0,2.34-.78,2.34-1.89Z"/>
        <path class="cls-5" d="m238.67,179.19h1.04v1.21c.46-.76,1.19-1.36,2.39-1.36,1.69,0,2.67,1.13,2.67,2.8v4.33h-1.04v-4.08c0-1.3-.7-2.11-1.93-2.11s-2.09.88-2.09,2.19v4h-1.04v-6.98Z"/>
        <path class="cls-5" d="m246.58,182.7v-.03c0-2.28,1.66-3.63,3.34-3.63,1.3,0,2.13.7,2.67,1.49v-4.21h1.04v9.86h-1.04v-1.4c-.57.84-1.39,1.55-2.67,1.55-1.67,0-3.34-1.32-3.34-3.62Zm6.05-.01v-.03c0-1.61-1.23-2.69-2.52-2.69s-2.46,1-2.46,2.69v.03c0,1.65,1.13,2.7,2.46,2.7s2.52-1.09,2.52-2.7Z"/>
        <path class="cls-5" d="m121.15,196.3h-.96v-.91h.96v-.61c0-.8.22-1.4.61-1.8.35-.35.86-.54,1.5-.54.49,0,.81.05,1.15.18v.9c-.38-.11-.66-.18-1.01-.18-.81,0-1.22.49-1.22,1.49v.57h2.21v.89h-2.2v6.06h-1.04v-6.06Z"/>
        <path class="cls-5" d="m125.72,195.39h1.04v1.82c.51-1.16,1.53-2,2.85-1.94v1.12h-.08c-1.53,0-2.77,1.09-2.77,3.2v2.78h-1.04v-6.98Z"/>
        <path class="cls-5" d="m130.46,198.9v-.03c0-2.01,1.42-3.63,3.35-3.63,2.07,0,3.25,1.65,3.25,3.69,0,.13,0,.22-.01.34h-5.54c.15,1.51,1.22,2.36,2.46,2.36.96,0,1.63-.39,2.2-.99l.65.58c-.7.78-1.55,1.31-2.88,1.31-1.92,0-3.48-1.47-3.48-3.63Zm5.55-.41c-.11-1.27-.84-2.38-2.23-2.38-1.21,0-2.13,1.01-2.27,2.38h4.5Z"/>
        <path class="cls-5" d="m144.48,200.96c-.57.84-1.39,1.55-2.67,1.55-1.67,0-3.34-1.32-3.34-3.62v-.03c0-2.28,1.66-3.63,3.34-3.63,1.3,0,2.13.7,2.67,1.49v-1.34h1.04v9.14h-1.04v-3.56Zm.04-2.08v-.03c0-1.61-1.23-2.69-2.52-2.69s-2.46,1-2.46,2.69v.03c0,1.65,1.13,2.7,2.46,2.7s2.52-1.09,2.52-2.7Z"/>
        <path class="cls-5" d="m147.74,199.72v-4.33h1.04v4.08c0,1.3.7,2.11,1.93,2.11s2.09-.88,2.09-2.19v-4h1.03v6.98h-1.03v-1.22c-.47.76-1.19,1.36-2.39,1.36-1.69,0-2.67-1.13-2.67-2.8Z"/>
        <path class="cls-5" d="m155.73,198.9v-.03c0-2.01,1.42-3.63,3.35-3.63,2.07,0,3.25,1.65,3.25,3.69,0,.13,0,.22-.01.34h-5.54c.15,1.51,1.22,2.36,2.46,2.36.96,0,1.63-.39,2.2-.99l.65.58c-.7.78-1.55,1.31-2.88,1.31-1.92,0-3.48-1.47-3.48-3.63Zm5.55-.41c-.11-1.27-.84-2.38-2.23-2.38-1.21,0-2.13,1.01-2.27,2.38h4.5Z"/>
        <path class="cls-5" d="m164.15,195.39h1.04v1.21c.46-.76,1.19-1.36,2.39-1.36,1.69,0,2.67,1.13,2.67,2.8v4.33h-1.04v-4.08c0-1.3-.7-2.11-1.93-2.11s-2.09.88-2.09,2.19v4h-1.04v-6.98Z"/>
        <path class="cls-5" d="m172.83,200.52v-4.21h-.97v-.92h.97v-2.11h1.04v2.11h2.21v.92h-2.21v4.08c0,.85.47,1.16,1.17,1.16.35,0,.65-.07,1.01-.24v.89c-.37.19-.76.3-1.26.3-1.12,0-1.97-.55-1.97-1.97Z"/>
        <path class="cls-5" d="m181.57,198.9v-.03c0-2.28,1.66-3.63,3.34-3.63,1.3,0,2.13.7,2.67,1.49v-4.21h1.04v9.86h-1.04v-1.4c-.57.84-1.39,1.55-2.67,1.55-1.67,0-3.34-1.32-3.34-3.62Zm6.05-.01v-.03c0-1.61-1.23-2.69-2.52-2.69s-2.46,1-2.46,2.69v.03c0,1.65,1.13,2.7,2.46,2.7s2.52-1.09,2.52-2.7Z"/>
        <path class="cls-5" d="m190.96,192.71h1.19v1.15h-1.19v-1.15Zm.07,2.67h1.04v6.98h-1.04v-6.98Z"/>
        <path class="cls-5" d="m193.96,200.34v-.03c0-1.47,1.21-2.25,2.98-2.25.89,0,1.53.12,2.15.3v-.24c0-1.26-.77-1.9-2.08-1.9-.82,0-1.47.22-2.12.51l-.31-.85c.77-.35,1.53-.58,2.54-.58s1.74.26,2.25.77c.47.47.72,1.15.72,2.04v4.27h-1v-1.05c-.49.63-1.3,1.2-2.53,1.2-1.3,0-2.61-.74-2.61-2.17Zm5.14-.54v-.67c-.51-.15-1.2-.3-2.05-.3-1.31,0-2.04.57-2.04,1.44v.03c0,.88.81,1.39,1.75,1.39,1.28,0,2.34-.78,2.34-1.89Z"/>
        <path class="cls-5" d="m202.3,195.39h1.04v1.82c.51-1.16,1.53-2,2.85-1.94v1.12h-.08c-1.53,0-2.77,1.09-2.77,3.2v2.78h-1.04v-6.98Z"/>
        <path class="cls-5" d="m207.77,195.39h1.04v1.82c.51-1.16,1.53-2,2.85-1.94v1.12h-.08c-1.53,0-2.77,1.09-2.77,3.2v2.78h-1.04v-6.98Z"/>
        <path class="cls-5" d="m213.24,192.51h1.04v4.09c.46-.76,1.19-1.36,2.39-1.36,1.69,0,2.67,1.13,2.67,2.8v4.33h-1.04v-4.08c0-1.3-.7-2.11-1.93-2.11s-2.09.88-2.09,2.19v4h-1.04v-9.86Z"/>
        <path class="cls-5" d="m221.12,198.91v-.03c0-1.97,1.54-3.65,3.65-3.65s3.63,1.65,3.63,3.62v.03c0,1.97-1.55,3.65-3.66,3.65s-3.62-1.65-3.62-3.62Zm6.21,0v-.03c0-1.5-1.12-2.73-2.59-2.73s-2.55,1.23-2.55,2.7v.03c0,1.5,1.11,2.71,2.58,2.71s2.57-1.22,2.57-2.69Z"/>
        <path class="cls-5" d="m229.84,198.9v-.03c0-2.01,1.42-3.63,3.35-3.63,2.07,0,3.25,1.65,3.25,3.69,0,.13,0,.22-.01.34h-5.54c.15,1.51,1.22,2.36,2.46,2.36.96,0,1.63-.39,2.2-.99l.65.58c-.7.78-1.55,1.31-2.88,1.31-1.92,0-3.48-1.47-3.48-3.63Zm5.55-.41c-.11-1.27-.84-2.38-2.23-2.38-1.21,0-2.13,1.01-2.27,2.38h4.5Z"/>
        <path class="cls-5" d="m237.74,200.34v-.03c0-1.47,1.21-2.25,2.98-2.25.89,0,1.53.12,2.15.3v-.24c0-1.26-.77-1.9-2.08-1.9-.82,0-1.47.22-2.12.51l-.31-.85c.77-.35,1.53-.58,2.54-.58s1.74.26,2.25.77c.47.47.72,1.15.72,2.04v4.27h-1v-1.05c-.49.63-1.3,1.2-2.53,1.2-1.3,0-2.61-.74-2.61-2.17Zm5.14-.54v-.67c-.51-.15-1.2-.3-2.05-.3-1.31,0-2.04.57-2.04,1.44v.03c0,.88.81,1.39,1.75,1.39,1.28,0,2.34-.78,2.34-1.89Z"/>
        <path class="cls-5" d="m120.52,214.69c0-2.49,1.34-4.43,3.74-5.78l.45.69c-2.05,1.31-3.13,2.93-3.13,5.09s1.08,3.78,3.13,5.09l-.45.69c-2.4-1.35-3.74-3.29-3.74-5.78Z"/>
        <path class="cls-5" d="m128.62,214.96c-.31-.13-.62-.27-.84-.27-.35,0-.5.17-.7.67l-.63-.18c.27-1.03.63-1.43,1.28-1.43.31,0,.63.14.97.28.3.13.61.27.84.27.35,0,.5-.17.7-.67l.62.18c-.27,1.03-.62,1.43-1.27,1.43-.31,0-.63-.14-.97-.28Z"/>
        <path class="cls-5" d="m134.26,210.15l-1.78.55-.26-.86,2.31-.8h.78v9.52h-1.05v-8.41Z"/>
        <path class="cls-5" d="m137.51,213.87v-.03c0-2.65,1.58-4.89,4.01-4.89s3.97,2.21,3.97,4.86v.03c0,2.65-1.57,4.89-4,4.89s-3.98-2.21-3.98-4.86Zm6.87,0v-.03c0-2.07-1.13-3.92-2.89-3.92s-2.88,1.81-2.88,3.89v.03c0,2.07,1.13,3.92,2.9,3.92s2.86-1.82,2.86-3.89Z"/>
        <path class="cls-5" d="m151.91,216.72v-4.21h-.97v-.92h.97v-2.11h1.04v2.11h2.21v.92h-2.21v4.08c0,.85.47,1.16,1.17,1.16.35,0,.65-.07,1.01-.24v.89c-.36.19-.76.3-1.26.3-1.12,0-1.97-.55-1.97-1.97Z"/>
        <path class="cls-5" d="m157.02,208.91h1.19v1.15h-1.19v-1.15Zm.07,2.67h1.04v6.98h-1.04v-6.98Z"/>
        <path class="cls-5" d="m160.55,211.59h1.04v1.17c.46-.69,1.08-1.32,2.25-1.32s1.86.61,2.24,1.39c.5-.77,1.24-1.39,2.46-1.39,1.61,0,2.59,1.08,2.59,2.81v4.32h-1.04v-4.08c0-1.35-.68-2.11-1.81-2.11-1.05,0-1.93.78-1.93,2.16v4.02h-1.03v-4.11c0-1.31-.69-2.08-1.8-2.08s-1.94.92-1.94,2.2v3.98h-1.04v-6.98Z"/>
        <path class="cls-5" d="m172.91,215.1v-.03c0-2.01,1.42-3.63,3.35-3.63,2.07,0,3.25,1.65,3.25,3.69,0,.13,0,.22-.01.34h-5.54c.15,1.51,1.22,2.36,2.46,2.36.96,0,1.63-.39,2.2-.99l.65.58c-.7.78-1.55,1.31-2.88,1.31-1.92,0-3.48-1.47-3.48-3.63Zm5.55-.4c-.11-1.27-.84-2.38-2.23-2.38-1.21,0-2.13,1.01-2.27,2.38h4.5Z"/>
        <path class="cls-5" d="m180.76,217.68l.53-.74c.76.57,1.59.89,2.42.89s1.45-.43,1.45-1.11v-.03c0-.7-.82-.97-1.74-1.23-1.09-.31-2.31-.69-2.31-1.97v-.03c0-1.2,1-2,2.38-2,.85,0,1.8.3,2.51.77l-.47.78c-.65-.42-1.39-.68-2.07-.68-.82,0-1.35.43-1.35,1.01v.03c0,.66.86.92,1.8,1.2,1.08.32,2.24.74,2.24,2v.03c0,1.32-1.09,2.09-2.48,2.09-1,0-2.11-.39-2.89-1.03Z"/>
        <path class="cls-5" d="m192.11,211.59h1.04v1.4c.57-.84,1.39-1.55,2.67-1.55,1.67,0,3.34,1.32,3.34,3.62v.03c0,2.28-1.65,3.63-3.34,3.63-1.3,0-2.13-.7-2.67-1.49v3.5h-1.04v-9.14Zm5.98,3.51v-.03c0-1.65-1.13-2.7-2.46-2.7s-2.53,1.09-2.53,2.69v.03c0,1.62,1.23,2.7,2.53,2.7s2.46-1,2.46-2.69Z"/>
        <path class="cls-5" d="m200.64,215.1v-.03c0-2.01,1.42-3.63,3.35-3.63,2.07,0,3.25,1.65,3.25,3.69,0,.13,0,.22-.01.34h-5.54c.15,1.51,1.22,2.36,2.46,2.36.96,0,1.63-.39,2.2-.99l.65.58c-.7.78-1.55,1.31-2.88,1.31-1.92,0-3.48-1.47-3.48-3.63Zm5.55-.4c-.11-1.27-.84-2.38-2.23-2.38-1.21,0-2.13,1.01-2.27,2.38h4.5Z"/>
        <path class="cls-5" d="m209.06,211.59h1.04v1.82c.51-1.16,1.53-2,2.85-1.94v1.12h-.08c-1.53,0-2.77,1.09-2.77,3.2v2.78h-1.04v-6.98Z"/>
        <path class="cls-5" d="m218.18,215.1v-.03c0-2.28,1.66-3.63,3.34-3.63,1.3,0,2.13.7,2.67,1.49v-4.21h1.04v9.86h-1.04v-1.4c-.57.84-1.39,1.55-2.67,1.55-1.67,0-3.34-1.32-3.34-3.62Zm6.05-.01v-.03c0-1.61-1.23-2.69-2.52-2.69s-2.46,1-2.46,2.69v.03c0,1.65,1.13,2.7,2.46,2.7s2.52-1.09,2.52-2.7Z"/>
        <path class="cls-5" d="m227.02,216.54v-.03c0-1.47,1.21-2.25,2.98-2.25.89,0,1.53.12,2.15.3v-.24c0-1.26-.77-1.9-2.08-1.9-.82,0-1.47.22-2.12.51l-.31-.85c.77-.35,1.53-.58,2.54-.58s1.74.26,2.25.77c.47.47.72,1.15.72,2.04v4.27h-1v-1.05c-.49.63-1.3,1.2-2.53,1.2-1.3,0-2.61-.74-2.61-2.17Zm5.14-.54v-.68c-.51-.15-1.2-.3-2.05-.3-1.31,0-2.04.57-2.04,1.45v.03c0,.88.81,1.39,1.75,1.39,1.28,0,2.34-.78,2.34-1.89Z"/>
        <path class="cls-5" d="m240.32,211.59h1.11l-2.93,7.21c-.59,1.45-1.27,1.97-2.32,1.97-.58,0-1.01-.12-1.49-.35l.35-.82c.34.18.65.26,1.09.26.62,0,1.01-.32,1.43-1.31l-3.17-6.96h1.15l2.54,5.82,2.24-5.82Z"/>
        <path class="cls-5" d="m242.67,219.78c2.05-1.31,3.13-2.93,3.13-5.09s-1.08-3.78-3.13-5.09l.45-.69c2.4,1.35,3.74,3.29,3.74,5.78s-1.34,4.43-3.74,5.78l-.45-.69Z"/>
      </g>
      <g id="_2019_capsule" data-name="2019_capsule">
        <rect class="cls-1" x="1.5" y="184.14" width="102" height="30" rx="15" ry="15"/>
        <g>
          <path class="cls-5" d="m38.5,202.14l2.79-2.29c1.04-.86,1.45-1.32,1.45-2.02s-.47-1.09-1.13-1.09-1.09.36-1.71,1.13l-1.3-1.04c.83-1.13,1.63-1.74,3.13-1.74,1.74,0,2.89,1.02,2.89,2.59v.02c0,1.4-.72,2.1-2.21,3.25l-1.37,1.06h3.66v1.6h-6.21v-1.46Z"/>
          <path class="cls-5" d="m46.03,199.43v-.02c0-2.43,1.51-4.34,3.74-4.34s3.72,1.88,3.72,4.32v.02c0,2.43-1.5,4.34-3.74,4.34s-3.72-1.88-3.72-4.32Zm5.57,0v-.02c0-1.52-.74-2.67-1.85-2.67s-1.82,1.12-1.82,2.65v.02c0,1.54.73,2.67,1.85,2.67s1.82-1.13,1.82-2.65Z"/>
          <path class="cls-5" d="m56.22,197.02l-1.46.36-.38-1.51,2.41-.72h1.26v8.46h-1.82v-6.58Z"/>
          <path class="cls-5" d="m64.52,200.16c-.43.36-.98.58-1.7.58-1.82,0-3-1.01-3-2.71v-.02c0-1.69,1.31-2.94,3.2-2.94,1.13,0,1.79.28,2.42.91.6.6,1,1.51,1,3.17v.02c0,2.72-1.28,4.58-3.67,4.58-1.22,0-2.05-.41-2.76-1l.97-1.4c.61.49,1.13.72,1.83.72,1.27,0,1.63-1.19,1.7-1.91Zm.04-2.21v-.02c0-.74-.55-1.28-1.48-1.28s-1.43.53-1.43,1.27v.02c0,.74.55,1.26,1.46,1.26s1.44-.53,1.44-1.25Z"/>
        </g>
      </g>
      <g id="_2018_capsule" data-name="2018_capsule">
        <rect class="cls-1" x="1.5" y="92.07" width="102" height="30" rx="15" ry="15"/>
        <g>
          <path class="cls-5" d="m38.69,110.07l2.79-2.29c1.04-.86,1.45-1.32,1.45-2.02s-.47-1.09-1.13-1.09-1.09.36-1.71,1.13l-1.3-1.04c.83-1.13,1.63-1.74,3.13-1.74,1.74,0,2.89,1.02,2.89,2.59v.02c0,1.4-.72,2.1-2.21,3.25l-1.37,1.06h3.66v1.6h-6.21v-1.46Z"/>
          <path class="cls-5" d="m46.22,107.36v-.02c0-2.43,1.51-4.34,3.74-4.34s3.72,1.88,3.72,4.32v.02c0,2.43-1.5,4.34-3.74,4.34s-3.72-1.88-3.72-4.32Zm5.57,0v-.02c0-1.52-.74-2.67-1.85-2.67s-1.82,1.12-1.82,2.65v.02c0,1.54.73,2.67,1.85,2.67s1.82-1.13,1.82-2.65Z"/>
          <path class="cls-5" d="m56.41,104.95l-1.46.36-.38-1.51,2.41-.72h1.26v8.46h-1.82v-6.58Z"/>
          <path class="cls-5" d="m59.88,109.23v-.02c0-1.02.47-1.62,1.35-2.03-.65-.4-1.07-.94-1.07-1.83v-.02c0-1.28,1.18-2.3,2.95-2.3s2.95,1.01,2.95,2.3v.02c0,.9-.42,1.44-1.07,1.83.85.44,1.36.98,1.36,1.98v.02c0,1.56-1.38,2.47-3.24,2.47s-3.24-.96-3.24-2.42Zm4.69-.14v-.02c0-.65-.61-1.03-1.45-1.03s-1.45.38-1.45,1.03v.02c0,.58.54,1.04,1.45,1.04s1.45-.46,1.45-1.04Zm-.25-3.54v-.02c0-.52-.44-.98-1.2-.98s-1.2.46-1.2.97v.02c0,.59.47,1.03,1.2,1.03s1.2-.43,1.2-1.02Z"/>
        </g>
      </g>
      <g id="_2017_capsule" data-name="2017_capsule">
        <rect class="cls-1" x="1.5" y="0" width="102" height="30" rx="15" ry="15"/>
        <g>
          <path class="cls-5" d="m38.75,18l2.79-2.29c1.04-.86,1.45-1.32,1.45-2.02s-.47-1.09-1.13-1.09-1.09.36-1.71,1.13l-1.3-1.04c.83-1.13,1.63-1.74,3.13-1.74,1.74,0,2.89,1.02,2.89,2.59v.02c0,1.4-.72,2.1-2.21,3.25l-1.37,1.05h3.66v1.6h-6.21v-1.46Z"/>
          <path class="cls-5" d="m46.29,15.29v-.02c0-2.43,1.51-4.34,3.74-4.34s3.72,1.88,3.72,4.32v.02c0,2.43-1.5,4.34-3.74,4.34s-3.72-1.88-3.72-4.32Zm5.57,0v-.02c0-1.52-.74-2.67-1.85-2.67s-1.82,1.12-1.82,2.65v.02c0,1.54.73,2.67,1.85,2.67s1.82-1.13,1.82-2.65Z"/>
          <path class="cls-5" d="m56.48,12.88l-1.46.36-.38-1.51,2.41-.72h1.26v8.46h-1.82v-6.58Z"/>
          <path class="cls-5" d="m64.17,12.66h-3.95v-1.59h6.04v1.39l-3.77,7h-2.09l3.75-6.8Z"/>
        </g>
      </g>
    </g>
  </g>
</svg>