<?xml version="1.0" encoding="UTF-8"?>
<svg id="Layer_2" data-name="Layer 2" xmlns="http://www.w3.org/2000/svg" xmlns:xlink="http://www.w3.org/1999/xlink" viewBox="0 0 113.46 113.46">
  <defs>
    <style>
      .cls-1 {
        fill: url(#Degradado_sin_nombre_35);
      }

      .cls-1, .cls-2 {
        stroke-width: 0px;
      }

      .cls-2 {
        fill: #862580;
      }
    </style>
    <linearGradient id="Degradado_sin_nombre_35" data-name="Degradado sin nombre 35" x1="56.73" y1="105.66" x2="56.73" y2="8.13" gradientUnits="userSpaceOnUse">
      <stop offset="0" stop-color="#fff"/>
      <stop offset="1" stop-color="#dfe0e4"/>
    </linearGradient>
  </defs>
  <g id="Layer_1-2" data-name="Layer 1">
    <circle class="cls-1" cx="56.73" cy="56.73" r="56.73"/>
    <g>
      <path class="cls-2" d="M59.58,44.92c-1.12,0-2.14.47-2.86,1.23-.72-.76-1.73-1.23-2.86-1.23h-5.66c-1.1,0-1.99.89-1.99,1.99v10.32c0,1.1.89,1.99,1.99,1.99h7.61c.33,0,.64-.08.91-.22.27.14.58.22.91.22h7.61c1.1,0,1.99-.89,1.99-1.99v-10.32c0-1.1-.89-1.99-1.99-1.99h-5.66ZM48.37,47.08h5.5c.98,0,1.78.8,1.78,1.78v8.21h-7.28v-9.99ZM65.08,57.07h-7.28v-8.21c0-.98.8-1.78,1.78-1.78h5.5v9.99Z"/>
      <path class="cls-2" d="M27.76,43.55l2.7,1.18c.14.06.29.09.43.09.41,0,.81-.24.99-.64.24-.55,0-1.18-.55-1.42l-2.7-1.18c-.55-.24-1.18,0-1.42.55-.24.54,0,1.18.55,1.42h0Z"/>
      <path class="cls-2" d="M35.25,36.76c.21.19.47.28.73.28.29,0,.58-.12.79-.35.4-.44.37-1.12-.06-1.52l-2.17-2c-.44-.4-1.12-.37-1.52.06-.4.44-.37,1.12.06,1.52l2.17,2Z"/>
      <g>
        <path class="cls-2" d="M42.36,30.78c.19.36.57.56.95.56.17,0,.35-.04.51-.13.52-.28.72-.94.43-1.46l-1.4-2.59c-.28-.52-.94-.72-1.46-.43-.52.28-.72.94-.43,1.46l1.4,2.59Z"/>
        <path class="cls-2" d="M51.02,27.43c.09.53.54.9,1.06.9.06,0,.12,0,.18-.02.59-.1.98-.65.89-1.24l-.48-2.91c-.1-.59-.65-.98-1.24-.89-.59.1-.98.65-.89,1.24l.48,2.91Z"/>
        <path class="cls-2" d="M61.19,28.31c.06,0,.12.02.18.02.52,0,.97-.37,1.06-.9l.48-2.91c.1-.59-.3-1.14-.89-1.24-.59-.1-1.14.3-1.24.89l-.49,2.91c-.1.59.3,1.14.89,1.24h0Z"/>
      </g>
      <path class="cls-2" d="M69.64,31.21c.16.09.34.13.51.13.38,0,.75-.2.95-.56l1.4-2.59c.28-.52.09-1.18-.43-1.46-.52-.28-1.18-.09-1.46.43l-1.4,2.59c-.28.52-.09,1.18.43,1.46h0Z"/>
      <path class="cls-2" d="M77.48,37.05c.26,0,.52-.09.73-.28l2.17-2c.44-.4.47-1.08.06-1.52-.4-.44-1.08-.47-1.52-.06l-2.17,2c-.44.4-.47,1.09-.06,1.52.21.23.5.35.79.35h0Z"/>
      <path class="cls-2" d="M82.56,44.82c.15,0,.29-.03.43-.09l2.7-1.18c.54-.24.79-.87.55-1.42-.24-.55-.87-.79-1.42-.55l-2.7,1.18c-.54.24-.79.87-.55,1.42.18.4.57.64.99.64h0Z"/>
      <path class="cls-2" d="M88.95,52.74h-14.85c.09-2.73-.61-5.97-1.96-8.48-.28-.53-.93-.73-1.45-.46-.53.28-.73.93-.46,1.45,1.31,2.55,1.93,5.46,1.65,8.46-.31,3.28-1.66,6.36-3.9,8.81-3.08,3.38-4.87,7.77-5.1,12.46h-2.97l2.07-9.63c.12-.58-.24-1.16-.83-1.28-.58-.12-1.15.24-1.28.83l-2.17,10.08h-1.94l-2.17-10.08c-.12-.58-.7-.95-1.28-.83-.58.13-.95.7-.83,1.28l2.07,9.63h-2.97c-.24-4.57-2.1-9.04-5.29-12.68-2.56-2.92-3.89-6.67-3.76-10.56.27-8.13,7.19-14.78,15.37-14.67,3.97.04,7.7,1.6,10.53,4.39.42.42,1.11.41,1.52,0,.42-.42.41-1.11,0-1.52-3.22-3.19-7.49-4.97-12.02-5.02-9.69-.14-17.85,8.08-17.55,17.82h-14.86c-2.51,0-4.56,2.04-4.56,4.56v19.81c0,2.51,2.05,4.56,4.56,4.56h19.95c.59,0,1.08-.48,1.08-1.08s-.48-1.08-1.08-1.08h-19.95c-1.33,0-2.4-1.08-2.4-2.4v-19.81c0-1.33,1.08-2.4,2.4-2.4h15.04c.49,3.26,1.9,6.32,4.11,8.84,3.03,3.43,4.82,7.95,4.79,12.34v5.85c0,4.56,3.71,8.28,8.28,8.28,4.67,0,8.39-3.9,8.28-8.52h23.94c2.51,0,4.56-2.05,4.56-4.56v-19.81c0-2.51-2.05-4.56-4.56-4.56h0ZM50.61,81.91v-.26h12.25c.02.66-.08,1.53-.39,2.41h-11.47c-.25-.67-.39-1.39-.39-2.15h0ZM62.85,77.14v2.36h-12.25v-2.36h12.25ZM56.73,88.04c-1.7,0-3.24-.7-4.35-1.82h8.7c-1.11,1.12-2.65,1.82-4.35,1.82h0ZM91.35,77.11c0,1.33-1.08,2.4-2.4,2.4h-23.94v-3.45c-.03-4.43,1.62-8.89,4.56-12.08,2.33-2.56,3.82-5.71,4.33-9.09h15.04c1.33,0,2.4,1.08,2.4,2.4v19.81Z"/>
      <path class="cls-2" d="M35.28,62.24l-4.11,4.11-.99-.99c-.57-.57-1.33-.88-2.13-.88s-1.56.31-2.13.88c-.57.57-.88,1.33-.88,2.13s.31,1.56.88,2.13l3.12,3.12c.57.57,1.33.88,2.13.88s1.56-.31,2.13-.88l6.24-6.24c.57-.57.88-1.33.88-2.13s-.31-1.56-.88-2.13c-1.18-1.18-3.09-1.18-4.27,0h0ZM38.02,63.76c.16.16.25.38.25.61s-.09.45-.25.61l-6.24,6.24c-.16.16-.38.25-.61.25s-.45-.09-.61-.25l-3.12-3.12c-.16-.16-.25-.38-.25-.61s.09-.45.25-.61.38-.25.61-.25.45.09.61.25l1.75,1.75c.2.2.48.32.76.32s.56-.11.76-.32l4.87-4.87c.34-.34.88-.34,1.22,0h0Z"/>
      <path class="cls-2" d="M86.34,63.85c0-.81-.31-1.56-.88-2.13-.57-.57-1.33-.88-2.13-.88s-1.56.31-2.13.88l-1.51,1.51-1.51-1.51c-1.18-1.18-3.09-1.18-4.27,0-.57.57-.88,1.33-.88,2.13s.31,1.56.88,2.13l1.51,1.51-1.51,1.51c-.57.57-.88,1.33-.88,2.13s.31,1.56.88,2.13c.57.57,1.33.88,2.13.88s1.56-.31,2.13-.88l1.51-1.51,1.51,1.51c.57.57,1.33.88,2.13.88s1.56-.31,2.13-.88c.57-.57.88-1.33.88-2.13s-.31-1.56-.88-2.13l-1.51-1.51,1.51-1.51c.57-.57.88-1.33.88-2.13h0ZM83.93,64.46l-2.27,2.27c-.42.42-.42,1.1,0,1.52l2.27,2.27c.16.16.25.38.25.61s-.09.45-.25.61c-.16.16-.38.25-.61.25s-.45-.09-.61-.25l-2.27-2.27c-.21-.21-.49-.32-.76-.32s-.55.11-.76.32l-2.27,2.27c-.16.16-.38.25-.61.25s-.45-.09-.61-.25c-.16-.16-.25-.38-.25-.61s.09-.45.25-.61l2.27-2.27c.42-.42.42-1.1,0-1.52l-2.27-2.27c-.16-.16-.25-.38-.25-.61s.09-.45.25-.61c.34-.34.88-.34,1.22,0l2.27,2.27c.2.2.48.32.76.32s.56-.11.76-.32l2.27-2.27c.16-.16.38-.25.61-.25s.45.09.61.25c.16.16.25.38.25.61s-.09.45-.25.61h0Z"/>
    </g>
  </g>
</svg>