<?xml version="1.0" encoding="UTF-8"?>
<svg id="Layer_2" data-name="Layer 2" xmlns="http://www.w3.org/2000/svg" xmlns:xlink="http://www.w3.org/1999/xlink" viewBox="0 0 113.46 113.46">
  <defs>
    <style>
      .cls-1 {
        fill: url(#Degradado_sin_nombre_35);
      }

      .cls-1, .cls-2 {
        stroke-width: 0px;
      }

      .cls-2 {
        fill: #862580;
      }
    </style>
    <linearGradient id="Degradado_sin_nombre_35" data-name="Degradado sin nombre 35" x1="56.73" y1="105.66" x2="56.73" y2="8.13" gradientUnits="userSpaceOnUse">
      <stop offset="0" stop-color="#fff"/>
      <stop offset="1" stop-color="#dfe0e4"/>
    </linearGradient>
  </defs>
  <g id="Layer_1-2" data-name="Layer 1">
    <circle class="cls-1" cx="56.73" cy="56.73" r="56.73"/>
    <path class="cls-2" d="M89.82,26.58c0-1.91-1.55-3.46-3.46-3.46h-43.81c-1.91,0-3.46,1.55-3.46,3.46v12.83c-.58.1-1.16.22-1.73.38-4.74,1.27-8.71,4.31-11.16,8.56-2.45,4.25-3.11,9.2-1.84,13.95.86,3.2,2.56,6.1,4.91,8.4.65.63.79,1.57.37,2.36-.35-.04-.7-.02-1.05.08-.72.19-1.32.65-1.69,1.3l-7.13,12.35c-1.3,2.26-.53,5.15,1.73,6.45.72.42,1.53.63,2.35.63.41,0,.83-.05,1.24-.16,1.22-.33,2.24-1.11,2.87-2.2l7.13-12.35c.57-.99.46-2.19-.18-3.06.48-.76,1.36-1.1,2.23-.86.64.18,1.29.32,1.94.43v8.22c0,1.91,1.55,3.46,3.46,3.46h43.81c1.91,0,3.46-1.55,3.46-3.46V26.58ZM75.42,25.09h4.79v7.69l-1.84-1.25c-.33-.22-.77-.22-1.1,0l-1.84,1.25v-7.69ZM33.41,78.17l-7.13,12.35c-.37.64-.96,1.09-1.68,1.28-.71.19-1.46.1-2.09-.27-1.32-.76-1.77-2.45-1.01-3.77l7.13-12.35c.11-.19.29-.32.5-.38.07-.02.14-.03.22-.03.14,0,.28.04.41.11l3.35,1.94c.39.23.53.73.3,1.12h0ZM33.35,74.91l-1.88-1.08c.74-1.54.43-3.33-.81-4.55-2.1-2.05-3.62-4.64-4.39-7.5-1.13-4.24-.55-8.66,1.64-12.46,2.19-3.8,5.73-6.51,9.97-7.65,4.24-1.14,8.66-.55,12.46,1.64,3.8,2.19,6.51,5.73,7.65,9.97.88,3.3.73,6.71-.42,9.85-.02.04-.03.07-.04.11-.32.85-.71,1.69-1.17,2.49-2.19,3.8-5.73,6.51-9.97,7.65-2.86.77-5.86.75-8.69-.05-1.67-.47-3.38.16-4.34,1.57h0ZM86.37,85.38h-43.81c-.82,0-1.49-.67-1.49-1.49v-8c1.95.11,3.91-.08,5.82-.6,4.74-1.27,8.71-4.31,11.16-8.56.41-.72.77-1.45,1.08-2.2h22.06c.54,0,.98-.44.98-.98s-.44-.98-.98-.98h-21.38c.33-1.17.55-2.37.64-3.57h20.73c.54,0,.98-.44.98-.98s-.44-.98-.98-.98h-20.69c-.04-1.19-.19-2.39-.46-3.57h21.15c.54,0,.98-.44.98-.98s-.44-.98-.98-.98h-21.71c-.44-1.26-1.01-2.46-1.69-3.57h23.4c.54,0,.98-.44.98-.98s-.44-.98-.98-.98h-24.79c-1.4-1.72-3.11-3.18-5.08-4.32-3.16-1.82-6.7-2.65-10.25-2.44v-12.6c0-.82.67-1.49,1.49-1.49h30.9v9.54c0,.36.2.7.52.87.32.17.71.15,1.01-.05l2.83-1.91,2.83,1.91c.17.11.36.17.55.17.16,0,.32-.04.46-.12.32-.17.52-.5.52-.87v-9.54h4.19c.82,0,1.49.67,1.49,1.49v57.3c0,.82-.67,1.49-1.49,1.49h0ZM68.94,32.33c0,.54-.44.98-.98.98h-20.23c-.54,0-.98-.44-.98-.98s.44-.98.98-.98h20.23c.54,0,.98.44.98.98h0ZM68.94,37.81c0,.54-.44.98-.98.98h-20.23c-.54,0-.98-.44-.98-.98s.44-.98.98-.98h20.23c.54,0,.98.44.98.98h0ZM82.18,72.6c0,.54-.44.98-.98.98h-20.23c-.54,0-.98-.44-.98-.98s.44-.98.98-.98h20.23c.54,0,.98.44.98.98h0ZM82.18,78.14c0,.54-.44.98-.98.98h-20.23c-.54,0-.98-.44-.98-.98s.44-.98.98-.98h20.23c.54,0,.98.44.98.98h0ZM56.5,57.54c0-7.93-6.45-14.38-14.37-14.38s-14.37,6.45-14.37,14.38,6.45,14.37,14.37,14.37,14.37-6.45,14.37-14.37h0ZM29.72,57.54c0-6.84,5.57-12.41,12.41-12.41s12.41,5.57,12.41,12.41-5.57,12.41-12.41,12.41-12.41-5.57-12.41-12.41h0ZM50.99,64.82v-2.62s0-.06,0-.09c-.2-2.2-1.21-4.24-2.84-5.74-.81-.74-1.74-1.32-2.74-1.72.91-.86,1.47-2.08,1.47-3.43,0-2.62-2.13-4.75-4.75-4.75s-4.75,2.13-4.75,4.75c0,1.35.57,2.57,1.47,3.43-1,.4-1.93.97-2.74,1.72-1.63,1.5-2.64,3.54-2.84,5.74,0,.03,0,.06,0,.09v2.62c0,.54.44.98.98.98h15.75c.54,0,.98-.44.98-.98h0ZM42.13,48.44c1.53,0,2.78,1.25,2.78,2.78s-1.25,2.78-2.78,2.78-2.78-1.25-2.78-2.78,1.25-2.78,2.78-2.78h0ZM49.02,63.84h-13.78v-1.59c.34-3.57,3.3-6.25,6.89-6.25s6.55,2.68,6.89,6.25v1.59Z"/>
  </g>
</svg>