<?xml version="1.0" encoding="UTF-8"?>
<svg id="Layer_2" data-name="Layer 2" xmlns="http://www.w3.org/2000/svg" xmlns:xlink="http://www.w3.org/1999/xlink" viewBox="0 0 138.2 44">
  <defs>
    <style>
      .cls-1 {
        fill: url(#linear-gradient);
      }

      .cls-1, .cls-2, .cls-3 {
        stroke-width: 0px;
      }

      .cls-2 {
        fill: #fff;
      }

      .cls-3 {
        fill: url(#linear-gradient-2);
      }
    </style>
    <linearGradient id="linear-gradient" x1="69.1" y1="746.27" x2="69.1" y2="789.16" gradientTransform="translate(0 -746)" gradientUnits="userSpaceOnUse">
      <stop offset="0" stop-color="#bdbdbd"/>
      <stop offset="1" stop-color="#fff"/>
    </linearGradient>
    <linearGradient id="linear-gradient-2" x1="69.1" y1="748.24" x2="69.1" y2="787.23" gradientTransform="translate(0 -746)" gradientUnits="userSpaceOnUse">
      <stop offset="0" stop-color="#862580"/>
      <stop offset=".19" stop-color="#9a2c6a"/>
      <stop offset=".52" stop-color="#b8374b"/>
      <stop offset=".81" stop-color="#ca3e37"/>
      <stop offset="1" stop-color="#d14131"/>
    </linearGradient>
  </defs>
  <g id="Layer_1-2" data-name="Layer 1">
    <g>
      <rect class="cls-1" x="0" y="0" width="138.2" height="44" rx="22" ry="22"/>
      <rect class="cls-3" x="2" y="2" width="134.2" height="40" rx="20" ry="20"/>
      <g>
        <path class="cls-2" d="M24.11,27.36l1.82-2.18c1.26,1.04,2.58,1.7,4.18,1.7,1.26,0,2.02-.5,2.02-1.32v-.04c0-.78-.48-1.18-2.82-1.78-2.82-.72-4.64-1.5-4.64-4.28v-.04c0-2.54,2.04-4.22,4.9-4.22,2.04,0,3.78.64,5.2,1.78l-1.6,2.32c-1.24-.86-2.46-1.38-3.64-1.38s-1.8.54-1.8,1.22v.04c0,.92.6,1.22,3.02,1.84,2.84.74,4.44,1.76,4.44,4.2v.04c0,2.78-2.12,4.34-5.14,4.34-2.12,0-4.26-.74-5.94-2.24Z"/>
        <path class="cls-2" d="M40.83,18.24h-4.26v-2.84h11.6v2.84h-4.26v11.16h-3.08v-11.16Z"/>
        <path class="cls-2" d="M53.53,15.3h2.84l6,14.1h-3.22l-1.28-3.14h-5.92l-1.28,3.14h-3.14l6-14.1ZM56.78,23.54l-1.86-4.54-1.86,4.54h3.72Z"/>
        <path class="cls-2" d="M64.53,15.4h6.4c1.78,0,3.16.5,4.08,1.42.78.78,1.2,1.88,1.2,3.2v.04c0,2.26-1.22,3.68-3,4.34l3.42,5h-3.6l-3-4.48h-2.42v4.48h-3.08v-14ZM70.73,22.2c1.5,0,2.36-.8,2.36-1.98v-.04c0-1.32-.92-2-2.42-2h-3.06v4.02h3.12Z"/>
        <path class="cls-2" d="M82.25,18.24h-4.26v-2.84h11.6v2.84h-4.26v11.16h-3.08v-11.16Z"/>
      </g>
      <path class="cls-2" d="M128.19,22.16c0,.38-.17.75-.46,1l-14.7,12.68c-.56.48-1.4.42-1.89-.14-.48-.56-.42-1.4.14-1.89l13.55-11.69-13.31-11.96c-.55-.49-.59-1.34-.1-1.89.49-.55,1.34-.59,1.89-.1l14.44,12.98c.29.26.45.62.44,1.01Z"/>
    </g>
  </g>
</svg>