<?xml version="1.0" encoding="UTF-8"?>
<svg id="Layer_2" data-name="Layer 2" xmlns="http://www.w3.org/2000/svg" xmlns:xlink="http://www.w3.org/1999/xlink" viewBox="0 0 28.36 28.36">
  <defs>
    <style>
      .cls-1 {
        fill: url(#linear-gradient);
      }

      .cls-1, .cls-2, .cls-3 {
        stroke-width: 0px;
      }

      .cls-2 {
        fill: url(#Degradado_sin_nombre_47);
      }

      .cls-3 {
        fill: url(#Degradado_sin_nombre_5);
      }
    </style>
    <linearGradient id="Degradado_sin_nombre_5" data-name="Degradado sin nombre 5" x1="14.18" y1=".73" x2="14.18" y2="27.53" gradientTransform="translate(3.66 -2.89) rotate(13.37)" gradientUnits="userSpaceOnUse">
      <stop offset="0" stop-color="#fff"/>
      <stop offset="1" stop-color="#dfe0e4"/>
    </linearGradient>
    <linearGradient id="Degradado_sin_nombre_47" data-name="Degradado sin nombre 47" x1="14.18" y1="2.04" x2="14.18" y2="26.23" gradientUnits="userSpaceOnUse">
      <stop offset="0" stop-color="#dfe0e4"/>
      <stop offset="1" stop-color="#fff"/>
    </linearGradient>
    <linearGradient id="linear-gradient" x1="14.45" y1="6.34" x2="13.9" y2="22.42" gradientUnits="userSpaceOnUse">
      <stop offset="0" stop-color="#872580"/>
      <stop offset=".19" stop-color="#9b2c6a"/>
      <stop offset=".52" stop-color="#b9374b"/>
      <stop offset=".81" stop-color="#cb3e37"/>
      <stop offset="1" stop-color="#d24131"/>
    </linearGradient>
  </defs>
  <g id="Layer_1-2" data-name="Layer 1">
    <g>
      <circle class="cls-3" cx="14.18" cy="14.18" r="14.18" transform="translate(-2.89 3.66) rotate(-13.37)"/>
      <path class="cls-2" d="m14.18,26.97c-7.05,0-12.79-5.74-12.79-12.79S7.12,1.39,14.18,1.39s12.79,5.74,12.79,12.79-5.74,12.79-12.79,12.79Z"/>
      <path class="cls-1" d="m15.59,14.29l5.39-5.39c.39-.39.39-1.02,0-1.41-.39-.39-1.02-.39-1.41,0l-5.39,5.39-5.39-5.39c-.39-.39-1.02-.39-1.41,0s-.39,1.02,0,1.41l5.39,5.39-5.39,5.39c-.39.39-.39,1.02,0,1.41.39.39,1.02.39,1.41,0l5.39-5.39,5.39,5.39c.39.39,1.02.39,1.41,0s.39-1.02,0-1.41l-5.39-5.39Z"/>
    </g>
  </g>
</svg>