<?xml version="1.0" encoding="UTF-8"?>
<svg id="disease_behaviour_mobile" data-name="disease_behaviour_mobile" xmlns="http://www.w3.org/2000/svg" xmlns:xlink="http://www.w3.org/1999/xlink" viewBox="0 0 350.81 527.5">
  <defs>
    <style>
      .mobile-cls-1 {
        fill: url(#mobile-linear-gradient);
      }

      .mobile-cls-1, .mobile-cls-2, .mobile-cls-3, .mobile-cls-4, .mobile-cls-5, .mobile-cls-6, .mobile-cls-7, .mobile-cls-8, .mobile-cls-9, .mobile-cls-10, .mobile-cls-11, .mobile-cls-12, .mobile-cls-13, .mobile-cls-14 {
        stroke-width: 0px;
      }

      .mobile-cls-15 {
        fill: none;
        stroke: #872780;
        stroke-miterlimit: 10;
        stroke-width: 2px;
      }

      .mobile-cls-2, .mobile-cls-8, .mobile-cls-14 {
        opacity: .75;
      }

      .mobile-cls-2, .mobile-cls-13 {
        fill: #d2c4cf;
      }

      .mobile-cls-3 {
        fill: #010101;
      }

      .mobile-cls-4 {
        fill: #fff;
      }

      .mobile-cls-5 {
        fill: url(#mobile-linear-gradient-2);
      }

      .mobile-cls-6, .mobile-cls-8 {
        fill: #9d5b8f;
      }

      .mobile-cls-7 {
        fill: #828386;
      }

      .mobile-cls-9 {
        fill: url(#mobile-linear-gradient-3);
      }

      .mobile-cls-10 {
        fill: #231f20;
      }

      .mobile-cls-11, .mobile-cls-14 {
        fill: #6a2062;
      }

      .mobile-cls-12 {
        fill: #872780;
      }
    </style>
    <linearGradient id="mobile-linear-gradient" x1="170.06" y1="110.62" x2="170.06" y2="142.79" gradientUnits="userSpaceOnUse">
      <stop offset="0" stop-color="#bebdbd"/>
      <stop offset="1" stop-color="#fff"/>
    </linearGradient>
    <linearGradient id="mobile-linear-gradient-2" x1="170.06" y1="112.1" x2="170.06" y2="141.35" gradientUnits="userSpaceOnUse">
      <stop offset="0" stop-color="#bebdbd"/>
      <stop offset=".2" stop-color="#c6c6c7"/>
      <stop offset=".68" stop-color="#d8d9dc"/>
      <stop offset="1" stop-color="#dfe0e4"/>
    </linearGradient>
    <linearGradient id="mobile-linear-gradient-3" x1="170.06" y1="112.1" x2="170.06" y2="141.35" gradientUnits="userSpaceOnUse">
      <stop offset="0" stop-color="#872780"/>
      <stop offset=".2" stop-color="#9b2e69"/>
      <stop offset=".53" stop-color="#b9394a"/>
      <stop offset=".81" stop-color="#cb3f36"/>
      <stop offset="1" stop-color="#d24230"/>
    </linearGradient>
  </defs>
  <g id="disease_behaviour_mobile_svg">
    <g>
      <g id="graph_button" class="graph--btn tooltip-mobile" title="Click here">
        <g id="active_behaviour_btn" class="active-btn">
          <rect class="mobile-cls-1" x="69.13" y="110.42" width="201.85" height="33" rx="16.5" ry="16.5"/>
          <rect class="mobile-cls-5" x="70.63" y="111.92" width="198.85" height="30" rx="15" ry="15"/>
          <g>
            <path class="mobile-cls-7" d="m82.56,127.21v-.02c0-2.38,1.77-4.34,4.25-4.34,1.52,0,2.44.54,3.27,1.33l-.65.7c-.71-.67-1.5-1.15-2.64-1.15-1.86,0-3.25,1.51-3.25,3.44v.02c0,1.94,1.4,3.47,3.25,3.47,1.15,0,1.91-.44,2.71-1.21l.62.61c-.88.89-1.83,1.47-3.36,1.47-2.42,0-4.21-1.91-4.21-4.32Z"/>
            <path class="mobile-cls-7" d="m91.68,122.63h.92v3.63c.41-.67,1.06-1.21,2.12-1.21,1.5,0,2.38,1.01,2.38,2.48v3.85h-.92v-3.62c0-1.15-.62-1.87-1.71-1.87s-1.86.78-1.86,1.94v3.55h-.92v-8.75Z"/>
            <path class="mobile-cls-7" d="m98.6,129.58v-.02c0-1.31,1.08-2,2.65-2,.79,0,1.36.11,1.91.26v-.22c0-1.12-.68-1.69-1.85-1.69-.73,0-1.31.19-1.88.46l-.28-.75c.68-.31,1.36-.52,2.25-.52s1.55.23,2,.68c.42.42.64,1.02.64,1.81v3.79h-.89v-.94c-.43.56-1.15,1.07-2.24,1.07-1.15,0-2.31-.66-2.31-1.93Zm4.57-.48v-.6c-.46-.13-1.07-.26-1.82-.26-1.16,0-1.81.5-1.81,1.28v.02c0,.78.72,1.24,1.56,1.24,1.14,0,2.08-.7,2.08-1.68Z"/>
            <path class="mobile-cls-7" d="m106.02,125.18h.92v1.08c.41-.67,1.06-1.21,2.12-1.21,1.5,0,2.38,1.01,2.38,2.48v3.85h-.92v-3.62c0-1.15-.62-1.87-1.71-1.87s-1.86.78-1.86,1.94v3.55h-.92v-6.2Z"/>
            <path class="mobile-cls-7" d="m113.34,132.46l.42-.72c.71.52,1.5.79,2.39.79,1.37,0,2.25-.76,2.25-2.21v-.73c-.54.72-1.29,1.31-2.43,1.31-1.49,0-2.92-1.12-2.92-2.9v-.02c0-1.81,1.44-2.93,2.92-2.93,1.16,0,1.92.58,2.42,1.25v-1.12h.92v5.12c0,.96-.29,1.69-.79,2.19-.55.55-1.38.83-2.36.83s-1.99-.29-2.82-.86Zm5.08-4.47v-.02c0-1.27-1.1-2.1-2.28-2.1s-2.15.82-2.15,2.09v.02c0,1.25,1,2.11,2.15,2.11s2.28-.85,2.28-2.1Z"/>
            <path class="mobile-cls-7" d="m120.99,128.3v-.02c0-1.79,1.26-3.23,2.97-3.23,1.83,0,2.89,1.46,2.89,3.27,0,.12,0,.19-.01.3h-4.92c.13,1.34,1.08,2.1,2.18,2.1.85,0,1.45-.35,1.96-.88l.58.52c-.62.7-1.38,1.16-2.55,1.16-1.7,0-3.09-1.31-3.09-3.23Zm4.93-.36c-.1-1.13-.74-2.11-1.98-2.11-1.08,0-1.89.9-2.01,2.11h3.99Z"/>
            <path class="mobile-cls-7" d="m127.96,130.59l.47-.66c.67.5,1.42.79,2.15.79s1.28-.38,1.28-.98v-.02c0-.62-.73-.86-1.55-1.09-.97-.28-2.05-.61-2.05-1.75v-.02c0-1.07.89-1.78,2.11-1.78.76,0,1.59.26,2.23.68l-.42.7c-.58-.37-1.24-.6-1.83-.6-.73,0-1.2.38-1.2.9v.02c0,.59.77.82,1.6,1.07.96.29,1.99.66,1.99,1.78v.02c0,1.18-.97,1.86-2.21,1.86-.89,0-1.87-.35-2.57-.91Z"/>
            <path class="mobile-cls-7" d="m138.08,122.81h1.06v1.02h-1.06v-1.02Zm.06,2.38h.92v6.2h-.92v-6.2Z"/>
            <path class="mobile-cls-7" d="m141.21,125.18h.92v1.08c.41-.67,1.06-1.21,2.12-1.21,1.5,0,2.38,1.01,2.38,2.48v3.85h-.92v-3.62c0-1.15-.62-1.87-1.71-1.87s-1.86.78-1.86,1.94v3.55h-.92v-6.2Z"/>
            <path class="mobile-cls-7" d="m151.84,128.3v-.02c0-2.03,1.48-3.23,2.96-3.23,1.15,0,1.89.62,2.38,1.32v-3.74h.92v8.75h-.92v-1.25c-.5.74-1.24,1.38-2.38,1.38-1.49,0-2.96-1.17-2.96-3.21Zm5.37-.01v-.02c0-1.43-1.09-2.39-2.24-2.39s-2.18.89-2.18,2.39v.02c0,1.46,1.01,2.4,2.18,2.4s2.24-.97,2.24-2.4Z"/>
            <path class="mobile-cls-7" d="m160.2,122.81h1.06v1.02h-1.06v-1.02Zm.06,2.38h.92v6.2h-.92v-6.2Z"/>
            <path class="mobile-cls-7" d="m162.81,130.59l.47-.66c.67.5,1.42.79,2.15.79s1.28-.38,1.28-.98v-.02c0-.62-.73-.86-1.55-1.09-.97-.28-2.05-.61-2.05-1.75v-.02c0-1.07.89-1.78,2.11-1.78.76,0,1.6.26,2.23.68l-.42.7c-.58-.37-1.24-.6-1.83-.6-.73,0-1.2.38-1.2.9v.02c0,.59.77.82,1.59,1.07.96.29,1.99.66,1.99,1.78v.02c0,1.18-.97,1.86-2.21,1.86-.89,0-1.87-.35-2.57-.91Z"/>
            <path class="mobile-cls-7" d="m168.92,128.3v-.02c0-1.79,1.26-3.23,2.97-3.23,1.83,0,2.89,1.46,2.89,3.27,0,.12,0,.19-.01.3h-4.92c.13,1.34,1.08,2.1,2.18,2.1.85,0,1.45-.35,1.96-.88l.58.52c-.62.7-1.38,1.16-2.55,1.16-1.7,0-3.09-1.31-3.09-3.23Zm4.93-.36c-.1-1.13-.74-2.11-1.98-2.11-1.08,0-1.89.9-2.01,2.11h3.99Z"/>
            <path class="mobile-cls-7" d="m175.94,129.58v-.02c0-1.31,1.08-2,2.65-2,.79,0,1.36.11,1.91.26v-.22c0-1.12-.68-1.69-1.85-1.69-.73,0-1.31.19-1.88.46l-.28-.75c.68-.31,1.36-.52,2.25-.52s1.55.23,2,.68c.42.42.64,1.02.64,1.81v3.79h-.89v-.94c-.43.56-1.15,1.07-2.24,1.07-1.15,0-2.31-.66-2.31-1.93Zm4.57-.48v-.6c-.46-.13-1.07-.26-1.82-.26-1.16,0-1.81.5-1.81,1.28v.02c0,.78.72,1.24,1.56,1.24,1.14,0,2.07-.7,2.07-1.68Z"/>
            <path class="mobile-cls-7" d="m182.84,130.59l.47-.66c.67.5,1.42.79,2.15.79s1.28-.38,1.28-.98v-.02c0-.62-.73-.86-1.55-1.09-.97-.28-2.05-.61-2.05-1.75v-.02c0-1.07.89-1.78,2.11-1.78.75,0,1.59.26,2.23.68l-.42.7c-.58-.37-1.24-.6-1.83-.6-.73,0-1.2.38-1.2.9v.02c0,.59.77.82,1.59,1.07.96.29,1.99.66,1.99,1.78v.02c0,1.18-.97,1.86-2.21,1.86-.89,0-1.87-.35-2.57-.91Z"/>
            <path class="mobile-cls-7" d="m188.95,128.3v-.02c0-1.79,1.26-3.23,2.97-3.23,1.83,0,2.89,1.46,2.89,3.27,0,.12,0,.19-.01.3h-4.92c.13,1.34,1.08,2.1,2.18,2.1.85,0,1.45-.35,1.96-.88l.58.52c-.62.7-1.38,1.16-2.55,1.16-1.7,0-3.09-1.31-3.09-3.23Zm4.93-.36c-.1-1.13-.74-2.11-1.98-2.11-1.08,0-1.89.9-2.01,2.11h3.99Z"/>
            <path class="mobile-cls-7" d="m200.96,130.2v1.19h-.92v-8.75h.92v3.8c.5-.74,1.24-1.38,2.38-1.38,1.49,0,2.96,1.17,2.96,3.21v.02c0,2.03-1.46,3.23-2.96,3.23-1.15,0-1.9-.62-2.38-1.32Zm4.39-1.89v-.02c0-1.46-1.01-2.4-2.18-2.4s-2.24.97-2.24,2.39v.02c0,1.44,1.09,2.4,2.24,2.4s2.18-.89,2.18-2.39Z"/>
            <path class="mobile-cls-7" d="m207.62,128.3v-.02c0-1.79,1.26-3.23,2.97-3.23,1.83,0,2.89,1.46,2.89,3.27,0,.12,0,.19-.01.3h-4.92c.13,1.34,1.08,2.1,2.18,2.1.85,0,1.45-.35,1.96-.88l.58.52c-.62.7-1.38,1.16-2.55,1.16-1.7,0-3.09-1.31-3.09-3.23Zm4.93-.36c-.1-1.13-.74-2.11-1.98-2.11-1.08,0-1.89.9-2.01,2.11h3.99Z"/>
            <path class="mobile-cls-7" d="m215.11,122.63h.92v3.63c.41-.67,1.06-1.21,2.12-1.21,1.5,0,2.37,1.01,2.37,2.48v3.85h-.92v-3.62c0-1.15-.62-1.87-1.72-1.87s-1.86.78-1.86,1.94v3.55h-.92v-8.75Z"/>
            <path class="mobile-cls-7" d="m222.03,129.58v-.02c0-1.31,1.08-2,2.65-2,.79,0,1.36.11,1.91.26v-.22c0-1.12-.68-1.69-1.85-1.69-.73,0-1.31.19-1.88.46l-.28-.75c.68-.31,1.36-.52,2.25-.52s1.55.23,2,.68c.42.42.64,1.02.64,1.81v3.79h-.89v-.94c-.43.56-1.15,1.07-2.24,1.07-1.15,0-2.32-.66-2.32-1.93Zm4.57-.48v-.6c-.46-.13-1.07-.26-1.82-.26-1.16,0-1.81.5-1.81,1.28v.02c0,.78.72,1.24,1.56,1.24,1.14,0,2.07-.7,2.07-1.68Z"/>
            <path class="mobile-cls-7" d="m228.6,125.18h1.02l2.09,5.14,2.1-5.14h1l-2.7,6.25h-.82l-2.69-6.25Z"/>
            <path class="mobile-cls-7" d="m236.27,122.81h1.06v1.02h-1.06v-1.02Zm.06,2.38h.92v6.2h-.92v-6.2Z"/>
            <path class="mobile-cls-7" d="m239.02,128.31v-.02c0-1.75,1.37-3.24,3.24-3.24s3.23,1.46,3.23,3.21v.02c0,1.75-1.38,3.24-3.25,3.24s-3.21-1.46-3.21-3.21Zm5.52,0v-.02c0-1.33-1-2.42-2.3-2.42s-2.27,1.09-2.27,2.4v.02c0,1.33.98,2.41,2.29,2.41s2.28-1.08,2.28-2.39Z"/>
            <path class="mobile-cls-7" d="m247.06,129.03v-3.85h.92v3.62c0,1.15.62,1.87,1.71,1.87s1.86-.78,1.86-1.94v-3.55h.91v6.2h-.91v-1.08c-.42.67-1.05,1.21-2.12,1.21-1.5,0-2.38-1.01-2.38-2.48Z"/>
            <path class="mobile-cls-7" d="m254.55,125.18h.92v1.62c.46-1.03,1.36-1.78,2.53-1.73v1h-.07c-1.35,0-2.46.97-2.46,2.84v2.47h-.92v-6.2Z"/>
          </g>
        </g>
        <g id="behaviour_btn" class="inactive-btn">
          <rect class="mobile-cls-1" x="69.13" y="110.42" width="201.85" height="33" rx="16.5" ry="16.5"/>
          <rect class="mobile-cls-9 tooltip-mobile" title="Click here" x="70.63" y="111.92" width="198.85" height="30" rx="15" ry="15"/>
          <g>
            <path class="mobile-cls-4" d="m80.22,127.21v-.02c0-2.39,1.8-4.34,4.38-4.34,1.58,0,2.53.53,3.31,1.29l-1.18,1.36c-.65-.59-1.31-.95-2.15-.95-1.42,0-2.44,1.17-2.44,2.61v.02c0,1.44,1,2.64,2.44,2.64.96,0,1.55-.38,2.21-.98l1.18,1.19c-.86.92-1.82,1.5-3.44,1.5-2.47,0-4.31-1.91-4.31-4.32Z"/>
            <path class="mobile-cls-4" d="m89.25,122.63h1.82v3.24c.42-.54.96-1.03,1.88-1.03,1.38,0,2.18.91,2.18,2.39v4.16h-1.82v-3.59c0-.86-.41-1.31-1.1-1.31s-1.14.44-1.14,1.31v3.59h-1.82v-8.75Z"/>
            <path class="mobile-cls-4" d="m96.34,129.54v-.02c0-1.4,1.07-2.05,2.59-2.05.65,0,1.12.11,1.57.26v-.11c0-.76-.47-1.18-1.38-1.18-.7,0-1.19.13-1.78.35l-.46-1.39c.71-.31,1.4-.52,2.49-.52,1,0,1.72.26,2.17.72.48.48.7,1.19.7,2.05v3.73h-1.76v-.7c-.44.49-1.06.82-1.94.82-1.21,0-2.21-.7-2.21-1.97Zm4.19-.42v-.32c-.31-.14-.72-.24-1.16-.24-.78,0-1.26.31-1.26.89v.02c0,.49.41.78,1,.78.85,0,1.43-.47,1.43-1.13Z"/>
            <path class="mobile-cls-4" d="m103.83,124.95h1.82v.91c.42-.54.96-1.03,1.88-1.03,1.38,0,2.18.91,2.18,2.39v4.16h-1.82v-3.59c0-.86-.41-1.31-1.1-1.31s-1.14.44-1.14,1.31v3.59h-1.82v-6.43Z"/>
            <path class="mobile-cls-4" d="m111.34,132.65l.62-1.37c.66.37,1.32.59,2.17.59,1.25,0,1.83-.6,1.83-1.75v-.31c-.54.65-1.13,1.04-2.1,1.04-1.5,0-2.85-1.09-2.85-3v-.02c0-1.92,1.38-3,2.85-3,1,0,1.58.42,2.07.96v-.84h1.82v4.98c0,1.15-.28,1.99-.82,2.53-.6.6-1.52.86-2.77.86-1.04,0-2.03-.24-2.84-.67Zm4.63-4.8v-.02c0-.88-.68-1.49-1.57-1.49s-1.56.61-1.56,1.49v.02c0,.89.67,1.49,1.56,1.49s1.57-.61,1.57-1.49Z"/>
            <path class="mobile-cls-4" d="m119.1,128.2v-.02c0-1.83,1.31-3.35,3.18-3.35,2.15,0,3.13,1.67,3.13,3.49,0,.14-.01.31-.02.48h-4.47c.18.83.76,1.26,1.57,1.26.61,0,1.06-.19,1.56-.66l1.04.92c-.6.74-1.46,1.2-2.63,1.2-1.93,0-3.36-1.35-3.36-3.32Zm4.53-.54c-.11-.82-.59-1.37-1.35-1.37s-1.25.54-1.39,1.37h2.75Z"/>
            <path class="mobile-cls-4" d="m126.26,130.53l.78-1.2c.7.5,1.43.77,2.03.77.53,0,.77-.19.77-.48v-.02c0-.4-.62-.53-1.33-.74-.9-.26-1.92-.68-1.92-1.93v-.02c0-1.31,1.06-2.04,2.35-2.04.82,0,1.7.28,2.4.74l-.7,1.26c-.64-.37-1.27-.6-1.74-.6-.44,0-.67.19-.67.44v.02c0,.36.61.53,1.31.77.9.3,1.94.73,1.94,1.91v.02c0,1.43-1.07,2.08-2.46,2.08-.9,0-1.91-.3-2.76-.97Z"/>
            <path class="mobile-cls-4" d="m136.42,122.63h1.92v1.62h-1.92v-1.62Zm.05,2.33h1.82v6.43h-1.82v-6.43Z"/>
            <path class="mobile-cls-4" d="m140.01,124.95h1.82v.91c.42-.54.96-1.03,1.88-1.03,1.38,0,2.18.91,2.18,2.39v4.16h-1.82v-3.59c0-.86-.41-1.31-1.1-1.31s-1.14.44-1.14,1.31v3.59h-1.82v-6.43Z"/>
            <path class="mobile-cls-4" d="m150.8,128.18v-.02c0-2.15,1.4-3.32,2.93-3.32.97,0,1.57.44,2,.96v-3.17h1.82v8.75h-1.82v-.92c-.44.6-1.06,1.04-2,1.04-1.5,0-2.93-1.18-2.93-3.32Zm4.95,0v-.02c0-1.07-.71-1.77-1.56-1.77s-1.57.7-1.57,1.77v.02c0,1.07.72,1.78,1.57,1.78s1.56-.71,1.56-1.78Z"/>
            <path class="mobile-cls-4" d="m159.22,122.63h1.92v1.62h-1.92v-1.62Zm.05,2.33h1.82v6.43h-1.82v-6.43Z"/>
            <path class="mobile-cls-4" d="m162.31,130.53l.78-1.2c.7.5,1.43.77,2.03.77.53,0,.77-.19.77-.48v-.02c0-.4-.62-.53-1.33-.74-.9-.26-1.92-.68-1.92-1.93v-.02c0-1.31,1.06-2.04,2.35-2.04.82,0,1.7.28,2.4.74l-.7,1.26c-.64-.37-1.27-.6-1.74-.6-.44,0-.67.19-.67.44v.02c0,.36.61.53,1.31.77.9.3,1.94.73,1.94,1.91v.02c0,1.43-1.07,2.08-2.46,2.08-.9,0-1.91-.3-2.76-.97Z"/>
            <path class="mobile-cls-4" d="m168.52,128.2v-.02c0-1.83,1.31-3.35,3.18-3.35,2.15,0,3.13,1.67,3.13,3.49,0,.14-.01.31-.02.48h-4.47c.18.83.76,1.26,1.57,1.26.61,0,1.06-.19,1.56-.66l1.04.92c-.6.74-1.46,1.2-2.63,1.2-1.93,0-3.36-1.35-3.36-3.32Zm4.53-.54c-.11-.82-.59-1.37-1.35-1.37s-1.25.54-1.39,1.37h2.75Z"/>
            <path class="mobile-cls-4" d="m175.81,129.54v-.02c0-1.4,1.07-2.05,2.59-2.05.65,0,1.12.11,1.57.26v-.11c0-.76-.47-1.18-1.38-1.18-.7,0-1.19.13-1.77.35l-.46-1.39c.71-.31,1.4-.52,2.5-.52,1,0,1.71.26,2.17.72.48.48.7,1.19.7,2.05v3.73h-1.76v-.7c-.44.49-1.05.82-1.94.82-1.21,0-2.21-.7-2.21-1.97Zm4.19-.42v-.32c-.31-.14-.72-.24-1.16-.24-.78,0-1.26.31-1.26.89v.02c0,.49.41.78,1,.78.85,0,1.43-.47,1.43-1.13Z"/>
            <path class="mobile-cls-4" d="m182.79,130.53l.78-1.2c.7.5,1.43.77,2.03.77.53,0,.77-.19.77-.48v-.02c0-.4-.62-.53-1.33-.74-.9-.26-1.92-.68-1.92-1.93v-.02c0-1.31,1.06-2.04,2.35-2.04.82,0,1.7.28,2.4.74l-.7,1.26c-.64-.37-1.27-.6-1.74-.6-.44,0-.67.19-.67.44v.02c0,.36.61.53,1.31.77.9.3,1.94.73,1.94,1.91v.02c0,1.43-1.07,2.08-2.46,2.08-.9,0-1.91-.3-2.76-.97Z"/>
            <path class="mobile-cls-4" d="m189.01,128.2v-.02c0-1.83,1.31-3.35,3.18-3.35,2.15,0,3.13,1.67,3.13,3.49,0,.14-.01.31-.02.48h-4.47c.18.83.76,1.26,1.57,1.26.61,0,1.06-.19,1.56-.66l1.04.92c-.6.74-1.46,1.2-2.63,1.2-1.93,0-3.36-1.35-3.36-3.32Zm4.53-.54c-.11-.82-.59-1.37-1.36-1.37s-1.25.54-1.39,1.37h2.75Z"/>
            <path class="mobile-cls-4" d="m202.1,130.54v.84h-1.82v-8.75h1.82v3.25c.44-.6,1.06-1.04,2-1.04,1.5,0,2.93,1.18,2.93,3.32v.02c0,2.15-1.4,3.32-2.93,3.32-.97,0-1.57-.44-2-.96Zm3.11-2.36v-.02c0-1.07-.72-1.77-1.57-1.77s-1.56.71-1.56,1.77v.02c0,1.07.71,1.78,1.56,1.78s1.57-.7,1.57-1.78Z"/>
            <path class="mobile-cls-4" d="m208.06,128.2v-.02c0-1.83,1.31-3.35,3.18-3.35,2.15,0,3.13,1.67,3.13,3.49,0,.14-.01.31-.02.48h-4.47c.18.83.76,1.26,1.57,1.26.61,0,1.06-.19,1.56-.66l1.04.92c-.6.74-1.46,1.2-2.63,1.2-1.93,0-3.36-1.35-3.36-3.32Zm4.53-.54c-.11-.82-.59-1.37-1.36-1.37s-1.25.54-1.39,1.37h2.75Z"/>
            <path class="mobile-cls-4" d="m215.73,122.63h1.82v3.24c.42-.54.96-1.03,1.88-1.03,1.38,0,2.18.91,2.18,2.39v4.16h-1.82v-3.59c0-.86-.41-1.31-1.1-1.31s-1.14.44-1.14,1.31v3.59h-1.82v-8.75Z"/>
            <path class="mobile-cls-4" d="m222.82,129.54v-.02c0-1.4,1.07-2.05,2.59-2.05.65,0,1.12.11,1.57.26v-.11c0-.76-.47-1.18-1.38-1.18-.7,0-1.19.13-1.77.35l-.46-1.39c.71-.31,1.4-.52,2.5-.52,1,0,1.71.26,2.17.72.48.48.7,1.19.7,2.05v3.73h-1.76v-.7c-.44.49-1.05.82-1.94.82-1.21,0-2.21-.7-2.21-1.97Zm4.19-.42v-.32c-.31-.14-.72-.24-1.16-.24-.78,0-1.26.31-1.26.89v.02c0,.49.41.78,1,.78.85,0,1.43-.47,1.43-1.13Z"/>
            <path class="mobile-cls-4" d="m229.5,124.95h1.93l1.44,4.31,1.45-4.31h1.89l-2.53,6.48h-1.66l-2.53-6.48Z"/>
            <path class="mobile-cls-4" d="m237.31,122.63h1.92v1.62h-1.92v-1.62Zm.05,2.33h1.82v6.43h-1.82v-6.43Z"/>
            <path class="mobile-cls-4" d="m240.58,128.2v-.02c0-1.85,1.49-3.35,3.49-3.35s3.47,1.48,3.47,3.32v.02c0,1.85-1.49,3.35-3.49,3.35s-3.47-1.47-3.47-3.32Zm5.16,0v-.02c0-.95-.68-1.78-1.69-1.78s-1.67.8-1.67,1.75v.02c0,.95.68,1.78,1.69,1.78s1.67-.8,1.67-1.75Z"/>
            <path class="mobile-cls-4" d="m248.81,129.12v-4.16h1.82v3.59c0,.86.41,1.31,1.1,1.31s1.14-.44,1.14-1.31v-3.59h1.82v6.43h-1.82v-.91c-.42.54-.96,1.03-1.88,1.03-1.38,0-2.18-.91-2.18-2.39Z"/>
            <path class="mobile-cls-4" d="m256.34,124.95h1.82v1.3c.37-.89.97-1.46,2.05-1.42v1.91h-.1c-1.21,0-1.96.73-1.96,2.27v2.38h-1.82v-6.43Z"/>
          </g>
        </g>
      </g>
      <g id="footnote">
        <path class="mobile-cls-10" d="m53.89,520.21h.62l2.69,5.94h-.72l-.69-1.56h-3.21l-.7,1.56h-.68l2.69-5.94Zm1.64,3.78l-1.34-3.01-1.35,3.01h2.69Z"/>
        <path class="mobile-cls-10" d="m57.79,523.98v-.02c0-1.42,1.04-2.27,2.08-2.27.81,0,1.33.44,1.67.93v-2.63h.65v6.15h-.65v-.88c-.35.52-.87.97-1.67.97-1.04,0-2.08-.83-2.08-2.26Zm3.77,0v-.02c0-1-.77-1.68-1.58-1.68s-1.53.62-1.53,1.68v.02c0,1.03.71,1.68,1.53,1.68s1.58-.68,1.58-1.68Z"/>
        <path class="mobile-cls-10" d="m63.3,524.88v-.02c0-.92.76-1.41,1.86-1.41.56,0,.95.08,1.34.19v-.15c0-.78-.48-1.19-1.3-1.19-.51,0-.92.13-1.32.32l-.19-.53c.48-.22.95-.36,1.58-.36s1.09.16,1.41.48c.29.29.45.72.45,1.27v2.66h-.62v-.66c-.3.4-.81.75-1.58.75-.81,0-1.63-.46-1.63-1.36Zm3.21-.34v-.42c-.32-.09-.75-.19-1.28-.19-.82,0-1.27.35-1.27.9v.02c0,.55.51.87,1.1.87.8,0,1.46-.49,1.46-1.18Z"/>
        <path class="mobile-cls-10" d="m68.51,521.79h.65v.88c.35-.52.87-.97,1.67-.97,1.04,0,2.08.83,2.08,2.26v.02c0,1.42-1.03,2.27-2.08,2.27-.81,0-1.33-.44-1.67-.93v2.18h-.65v-5.7Zm3.73,2.19v-.02c0-1.03-.71-1.68-1.53-1.68s-1.58.68-1.58,1.68v.02c0,1.01.77,1.68,1.58,1.68s1.53-.62,1.53-1.68Z"/>
        <path class="mobile-cls-10" d="m74.33,524.99v-2.63h-.61v-.57h.61v-1.31h.65v1.31h1.38v.57h-1.38v2.54c0,.53.29.72.73.72.22,0,.4-.04.63-.15v.56c-.23.12-.47.18-.78.18-.7,0-1.23-.34-1.23-1.23Z"/>
        <path class="mobile-cls-10" d="m77.11,523.98v-.02c0-1.25.88-2.27,2.09-2.27,1.29,0,2.03,1.03,2.03,2.3,0,.08,0,.13,0,.21h-3.45c.09.94.76,1.47,1.53,1.47.6,0,1.02-.24,1.37-.61l.4.36c-.44.49-.97.82-1.79.82-1.2,0-2.17-.92-2.17-2.27Zm3.46-.25c-.07-.79-.52-1.48-1.39-1.48-.76,0-1.33.63-1.42,1.48h2.8Z"/>
        <path class="mobile-cls-10" d="m82.12,523.98v-.02c0-1.42,1.04-2.27,2.08-2.27.81,0,1.33.44,1.67.93v-2.63h.65v6.15h-.65v-.88c-.35.52-.87.97-1.67.97-1.04,0-2.08-.83-2.08-2.26Zm3.77,0v-.02c0-1-.77-1.68-1.58-1.68s-1.53.62-1.53,1.68v.02c0,1.03.71,1.68,1.53,1.68s1.58-.68,1.58-1.68Z"/>
        <path class="mobile-cls-10" d="m90.73,522.37h-.6v-.56h.6v-.38c0-.5.13-.88.38-1.12.22-.22.54-.34.94-.34.3,0,.51.03.72.11v.56c-.24-.07-.41-.11-.63-.11-.51,0-.76.3-.76.93v.35h1.38v.56h-1.37v3.78h-.65v-3.78Z"/>
        <path class="mobile-cls-10" d="m93.58,521.79h.65v1.14c.32-.72.95-1.25,1.78-1.21v.7h-.05c-.95,0-1.73.68-1.73,2v1.74h-.65v-4.35Z"/>
        <path class="mobile-cls-10" d="m96.54,523.99v-.02c0-1.23.96-2.27,2.27-2.27s2.27,1.03,2.27,2.26v.02c0,1.23-.97,2.27-2.28,2.27s-2.26-1.03-2.26-2.26Zm3.87,0v-.02c0-.93-.7-1.7-1.62-1.7s-1.59.77-1.59,1.68v.02c0,.94.69,1.69,1.61,1.69s1.6-.76,1.6-1.68Z"/>
        <path class="mobile-cls-10" d="m102.25,521.79h.65v.73c.29-.43.67-.83,1.41-.83s1.16.38,1.4.87c.31-.48.77-.87,1.53-.87,1,0,1.62.67,1.62,1.75v2.7h-.65v-2.54c0-.84-.42-1.31-1.13-1.31-.66,0-1.2.49-1.2,1.35v2.51h-.64v-2.56c0-.82-.43-1.3-1.12-1.3s-1.21.57-1.21,1.37v2.49h-.65v-4.35Z"/>
        <path class="mobile-cls-10" d="m112.87,520.25h2.51c.67,0,1.2.19,1.54.52.24.25.38.56.38.94v.02c0,.77-.47,1.16-.94,1.36.7.21,1.26.62,1.26,1.42v.02c0,1.01-.85,1.61-2.14,1.61h-2.62v-5.9Zm3.76,1.56c0-.58-.46-.96-1.31-.96h-1.79v2.03h1.74c.8,0,1.36-.36,1.36-1.05v-.02Zm-1.24,1.66h-1.86v2.08h1.98c.89,0,1.45-.4,1.45-1.05v-.02c0-.64-.54-1.01-1.57-1.01Z"/>
        <path class="mobile-cls-10" d="m118.78,524.5v-2.7h.65v2.54c0,.81.44,1.31,1.2,1.31s1.31-.55,1.31-1.36v-2.49h.64v4.35h-.64v-.76c-.29.47-.74.85-1.49.85-1.05,0-1.67-.71-1.67-1.74Z"/>
        <path class="mobile-cls-10" d="m124.04,521.79h.65v1.14c.32-.72.95-1.25,1.78-1.21v.7h-.05c-.95,0-1.73.68-1.73,2v1.74h-.65v-4.35Z"/>
        <path class="mobile-cls-10" d="m127.46,520.13h.74v.72h-.74v-.72Zm.04,1.67h.65v4.35h-.65v-4.35Z"/>
        <path class="mobile-cls-10" d="m129.3,525.59l.33-.46c.47.35.99.56,1.51.56s.9-.27.9-.69v-.02c0-.44-.51-.61-1.09-.77-.68-.19-1.44-.43-1.44-1.23v-.02c0-.75.62-1.25,1.48-1.25.53,0,1.12.19,1.57.48l-.29.49c-.4-.26-.87-.42-1.29-.42-.51,0-.84.27-.84.63v.02c0,.41.54.57,1.12.75.67.2,1.4.46,1.4,1.25v.02c0,.83-.68,1.31-1.55,1.31-.62,0-1.31-.24-1.8-.64Z"/>
        <path class="mobile-cls-10" d="m133.59,523.99v-.02c0-1.23.96-2.27,2.23-2.27.83,0,1.34.34,1.74.77l-.43.46c-.35-.36-.73-.66-1.32-.66-.88,0-1.56.75-1.56,1.68v.02c0,.94.69,1.69,1.6,1.69.56,0,.99-.28,1.33-.65l.41.39c-.44.49-.96.84-1.78.84-1.27,0-2.23-1.04-2.23-2.26Z"/>
        <path class="mobile-cls-10" d="m138.67,520h.65v2.55c.29-.47.74-.85,1.49-.85,1.05,0,1.67.71,1.67,1.74v2.7h-.65v-2.54c0-.81-.44-1.31-1.2-1.31s-1.31.55-1.31,1.37v2.49h-.65v-6.15Z"/>
        <path class="mobile-cls-10" d="m145.92,525.19l.48-.41c.36.55.73.84,1.35.84.67,0,1.15-.48,1.15-1.42v-3.95h.67v3.94c0,.69-.2,1.21-.54,1.55-.33.32-.77.49-1.3.49-.88,0-1.45-.44-1.82-1.04Z"/>
        <path class="mobile-cls-10" d="m150.58,526.88c.42-.15.6-.37.56-.73h-.3v-.88h.77v.76c0,.68-.29,1.01-.93,1.15l-.1-.29Z"/>
        <path class="mobile-cls-10" d="m155.24,523.98v-.02c0-1.25.88-2.27,2.09-2.27,1.29,0,2.03,1.03,2.03,2.3,0,.08,0,.13,0,.21h-3.45c.09.94.76,1.47,1.53,1.47.6,0,1.02-.24,1.37-.61l.4.36c-.44.49-.97.82-1.79.82-1.2,0-2.17-.92-2.17-2.27Zm3.46-.25c-.07-.79-.52-1.48-1.39-1.48-.76,0-1.33.63-1.42,1.48h2.8Z"/>
        <path class="mobile-cls-10" d="m160.72,524.99v-2.63h-.61v-.57h.61v-1.31h.65v1.31h1.38v.57h-1.38v2.54c0,.53.29.72.73.72.22,0,.4-.04.63-.15v.56c-.23.12-.47.18-.78.18-.7,0-1.23-.34-1.23-1.23Z"/>
        <path class="mobile-cls-10" d="m166.1,524.88v-.02c0-.92.76-1.41,1.86-1.41.56,0,.95.08,1.34.19v-.15c0-.78-.48-1.19-1.3-1.19-.51,0-.92.13-1.32.32l-.19-.53c.48-.22.95-.36,1.58-.36s1.09.16,1.41.48c.29.29.45.72.45,1.27v2.66h-.62v-.66c-.3.4-.81.75-1.58.75-.81,0-1.63-.46-1.63-1.36Zm3.21-.34v-.42c-.32-.09-.75-.19-1.28-.19-.82,0-1.27.35-1.27.9v.02c0,.55.51.87,1.1.87.8,0,1.46-.49,1.46-1.18Z"/>
        <path class="mobile-cls-10" d="m171.36,520h.65v6.15h-.65v-6.15Z"/>
        <path class="mobile-cls-10" d="m173.44,525.26h.77v.88h-.77v-.88Z"/>
        <path class="mobile-cls-10" d="m178.1,523.75c0-.94.41-1.85,1.1-2.54.63-.64,1.52-1.06,2.53-1.06,1.21,0,1.85.52,2.22,1.08l-.51.4c-.35-.48-.82-.87-1.78-.87-.77,0-1.46.33-1.96.83-.56.56-.9,1.35-.9,2.13,0,1.21.81,1.92,1.95,1.92.64,0,1.15-.18,1.52-.41l.46-1.63h-1.78l.16-.6h2.43l-.75,2.64c-.62.39-1.28.62-2.1.62-1.43,0-2.61-.93-2.61-2.51Z"/>
        <path class="mobile-cls-10" d="m184.48,524.89c0-.2.05-.45.11-.67l.64-2.43h.65l-.66,2.47c-.04.14-.07.34-.07.49,0,.57.37.91.98.91.67,0,1.35-.58,1.58-1.42l.66-2.45h.65l-1.17,4.35h-.64l.19-.71c-.4.45-.85.8-1.52.8-.84,0-1.39-.52-1.39-1.35Z"/>
        <path class="mobile-cls-10" d="m189.8,525.37c0-.15.03-.32.06-.46l.68-2.54h-.6l.15-.57h.61l.35-1.31h.64l-.35,1.31h1.37l-.15.57h-1.37l-.67,2.51c-.02.1-.03.23-.03.32,0,.3.23.45.6.45.19,0,.4-.04.63-.13l-.16.59c-.23.09-.44.13-.69.13-.62,0-1.06-.29-1.06-.86Z"/>
        <path class="mobile-cls-10" d="m192.84,525.26h.77l-.24.88h-.77l.24-.88Z"/>
        <path class="mobile-cls-10" d="m197.53,525.63l2.14-1.89c.9-.81,1.23-1.26,1.23-1.85,0-.69-.55-1.13-1.19-1.13-.67,0-1.11.35-1.58,1.01l-.49-.35c.53-.79,1.09-1.25,2.12-1.25s1.83.71,1.83,1.67v.02c0,.86-.45,1.39-1.49,2.29l-1.57,1.4h3.12v.61h-4.12v-.51Z"/>
        <path class="mobile-cls-10" d="m202.69,523.22v-.02c0-1.65.99-3.05,2.5-3.05s2.48,1.38,2.48,3.03v.02c0,1.65-.98,3.05-2.49,3.05s-2.48-1.38-2.48-3.03Zm4.29,0v-.02c0-1.29-.71-2.44-1.8-2.44s-1.79,1.13-1.79,2.43v.02c0,1.29.71,2.44,1.81,2.44s1.79-1.14,1.79-2.43Z"/>
        <path class="mobile-cls-10" d="m209.66,520.9l-1.11.35-.16-.54,1.44-.5h.49v5.94h-.66v-5.25Z"/>
        <path class="mobile-cls-10" d="m215.42,523.18v-.12c-.37.57-.91.93-1.67.93-1.21,0-2.06-.77-2.06-1.83v-.02c0-1.12.87-2,2.12-2,.67,0,1.17.23,1.55.61.45.45.73,1.1.73,2.28v.02c0,1.87-.99,3.19-2.45,3.19-.77,0-1.32-.31-1.82-.72l.39-.51c.48.42.93.63,1.45.63,1.14,0,1.75-1.19,1.75-2.46Zm-.13-1.09v-.02c0-.75-.61-1.34-1.5-1.34s-1.42.65-1.42,1.38v.02c0,.75.59,1.29,1.45,1.29.9,0,1.47-.66,1.47-1.33Z"/>
        <path class="mobile-cls-10" d="m217.05,526.88c.42-.15.6-.37.56-.73h-.3v-.88h.78v.76c0,.68-.29,1.01-.94,1.15l-.1-.29Zm.26-5.09h.78v.88h-.78v-.88Z"/>
        <path class="mobile-cls-10" d="m220.02,525.65c-.47-.47-.74-1.08-.74-2.28v-.02c0-1.79.91-3.2,2.45-3.2.71,0,1.23.25,1.74.67l-.39.51c-.44-.37-.85-.58-1.39-.58-1.14,0-1.73,1.2-1.73,2.53v.08c.39-.56.92-.91,1.68-.91,1.09,0,2.04.71,2.04,1.81v.02c0,1.14-.92,1.96-2.11,1.96-.65,0-1.18-.23-1.55-.6Zm2.98-1.34v-.02c0-.72-.59-1.26-1.44-1.26s-1.47.63-1.47,1.29v.02c0,.75.62,1.32,1.49,1.32s1.42-.6,1.42-1.35Z"/>
        <path class="mobile-cls-10" d="m224.66,524.56v-.02c0-.7.51-1.2,1.21-1.45-.55-.25-1.01-.67-1.01-1.36v-.02c0-.91.94-1.56,2.01-1.56s2.01.65,2.01,1.56v.02c0,.68-.46,1.1-1.01,1.36.7.26,1.21.74,1.21,1.44v.02c0,1-.96,1.68-2.22,1.68s-2.22-.68-2.22-1.67Zm3.76-.02v-.02c0-.66-.68-1.12-1.54-1.12s-1.54.46-1.54,1.12v.02c0,.6.57,1.1,1.54,1.1s1.54-.51,1.54-1.1Zm-.19-2.76v-.02c0-.58-.58-1.02-1.35-1.02s-1.35.43-1.35,1.02v.02c0,.64.6,1.08,1.35,1.08s1.35-.44,1.35-1.08Z"/>
        <path class="mobile-cls-10" d="m230.21,521.79h.77v.88h-.77v-.88Zm0,3.47h.77v.88h-.77v-.88Z"/>
        <path class="mobile-cls-10" d="m235.3,524.75h-3.11l-.17-.48,3.34-4.06h.58v3.98h.92v.56h-.92v1.4h-.64v-1.4Zm0-.56v-3.04l-2.48,3.04h2.48Z"/>
        <path class="mobile-cls-10" d="m237.72,525.63l2.14-1.89c.9-.81,1.23-1.26,1.23-1.85,0-.69-.55-1.13-1.19-1.13-.67,0-1.11.35-1.58,1.01l-.49-.35c.53-.79,1.09-1.25,2.12-1.25s1.83.71,1.83,1.67v.02c0,.86-.46,1.39-1.49,2.29l-1.58,1.4h3.12v.61h-4.12v-.51Z"/>
        <path class="mobile-cls-10" d="m242.79,525.2l.48-.43c.45.56,1,.88,1.73.88s1.29-.46,1.29-1.15v-.02c0-.73-.68-1.14-1.65-1.14h-.38l-.13-.4,1.86-2.1h-2.88v-.6h3.77v.49l-1.85,2.06c1.03.08,1.95.58,1.95,1.66v.02c0,1.05-.88,1.78-1.97,1.78-.99,0-1.72-.43-2.2-1.05Z"/>
        <path class="mobile-cls-10" d="m248.08,523.29h3.35v.65h-3.35v-.65Z"/>
        <path class="mobile-cls-10" d="m252.31,525.2l.48-.43c.45.56,1,.88,1.73.88s1.29-.46,1.29-1.15v-.02c0-.73-.68-1.14-1.65-1.14h-.38l-.13-.4,1.86-2.1h-2.88v-.6h3.77v.49l-1.85,2.06c1.03.08,1.95.58,1.95,1.66v.02c0,1.05-.88,1.78-1.97,1.78-.99,0-1.72-.43-2.2-1.05Z"/>
        <path class="mobile-cls-10" d="m257.48,525.2l.48-.43c.45.56,1,.88,1.73.88s1.29-.46,1.29-1.15v-.02c0-.73-.68-1.14-1.65-1.14h-.38l-.13-.4,1.86-2.1h-2.88v-.6h3.77v.49l-1.85,2.06c1.03.08,1.95.58,1.95,1.66v.02c0,1.05-.88,1.78-1.97,1.78-.99,0-1.72-.43-2.2-1.05Z"/>
        <path class="mobile-cls-10" d="m262.86,525.26h.77v.88h-.77v-.88Z"/>
      </g>
      <g id="initial_diagnosis_graph">
        <rect class="mobile-cls-6" x="1.8" y="209.35" width="49.17" height="192.57"/>
        <rect class="mobile-cls-13" x="1.8" y="415.43" width="49.17" height="54.65"/>
        <rect class="mobile-cls-11" x="1.8" y="482.18" width="49.17" height="23.9"/>
        <g>
          <path class="mobile-cls-4" d="m4.4,301.9h3.65c.9,0,1.61.25,2.06.7.36.36.54.8.54,1.34v.02c0,.89-.47,1.38-1.03,1.7.91.35,1.47.88,1.47,1.93v.02c0,1.44-1.17,2.16-2.94,2.16h-3.74v-7.86Zm4.53,2.33c0-.52-.4-.81-1.13-.81h-1.71v1.66h1.59c.76,0,1.25-.25,1.25-.83v-.02Zm-.84,2.29h-2v1.73h2.06c.76,0,1.22-.27,1.22-.85v-.02c0-.53-.39-.85-1.28-.85Z"/>
          <path class="mobile-cls-4" d="m13.57,303.59l-1.37.34-.36-1.42,2.26-.67h1.18v7.92h-1.71v-6.17Z"/>
          <path class="mobile-cls-4" d="m18.44,304.23l-1.09.83-.47-.81,1.26-.53-1.26-.53.47-.81,1.09.83-.18-1.35h.92l-.18,1.35,1.09-.83.47.81-1.26.53,1.26.53-.47.81-1.09-.83.18,1.35h-.92l.18-1.35Z"/>
          <path class="mobile-cls-4" d="m21.89,303.74h1.82v1.8h-1.82v-1.8Zm0,4.22h1.82v1.8h-1.82v-1.8Z"/>
          <path class="mobile-cls-4" d="m32.29,303.39h-3.69v-1.49h5.66v1.3l-3.53,6.56h-1.95l3.52-6.37Z"/>
          <path class="mobile-cls-4" d="m36.9,303.59l-1.37.34-.36-1.42,2.26-.67h1.18v7.92h-1.71v-6.17Z"/>
          <path class="mobile-cls-4" d="m40.15,303.84v-.02c0-1.11.77-2.01,1.92-2.01s1.9.89,1.9,1.99v.02c0,1.1-.77,2.01-1.92,2.01s-1.9-.89-1.9-1.99Zm6.52-1.94h1.34l-3.14,4.23-2.59,3.63h-1.34l3.14-4.23,2.59-3.63Zm-5.35,1.9v.02c0,.53.29.99.74.99.47,0,.72-.46.72-.97v-.02c0-.53-.29-.99-.74-.99-.47,0-.72.45-.72.97Zm3.65,4.07v-.02c0-1.11.77-2.01,1.92-2.01s1.9.89,1.9,1.99v.02c0,1.1-.77,2.01-1.92,2.01s-1.9-.89-1.9-1.99Zm2.64,0v-.02c0-.53-.29-.99-.74-.99-.47,0-.72.45-.72.97v.02c0,.53.29.99.74.99.47,0,.72-.46.72-.97Z"/>
        </g>
        <g>
          <path class="mobile-cls-4" d="m5.65,491.18h3.65c.9,0,1.61.25,2.06.7.36.36.54.8.54,1.34v.02c0,.89-.47,1.38-1.03,1.7.91.35,1.47.88,1.47,1.93v.02c0,1.44-1.17,2.16-2.94,2.16h-3.74v-7.86Zm4.53,2.32c0-.52-.4-.81-1.13-.81h-1.71v1.66h1.59c.76,0,1.25-.25,1.25-.83v-.02Zm-.84,2.29h-2v1.73h2.06c.76,0,1.22-.27,1.22-.85v-.02c0-.53-.39-.85-1.28-.85Z"/>
          <path class="mobile-cls-4" d="m13.24,497.81l1.19-1.13c.54.61,1.1.94,1.9.94.65,0,1.11-.37,1.11-.96v-.02c0-.64-.57-1-1.54-1h-.72l-.27-1.1,1.88-1.89h-3.09v-1.48h5.31v1.3l-1.99,1.9c1.07.18,2.11.74,2.11,2.2v.02c0,1.48-1.08,2.57-2.83,2.57-1.42,0-2.39-.56-3.07-1.36Z"/>
          <path class="mobile-cls-4" d="m21.93,493.51l-1.09.83-.47-.81,1.26-.53-1.26-.53.47-.81,1.09.83-.18-1.35h.92l-.18,1.35,1.09-.83.47.81-1.26.53,1.26.53-.47.81-1.09-.83.18,1.35h-.92l.18-1.35Z"/>
          <path class="mobile-cls-4" d="m25.38,493.02h1.82v1.8h-1.82v-1.8Zm0,4.22h1.82v1.8h-1.82v-1.8Z"/>
          <path class="mobile-cls-4" d="m31.82,496.88v-.02c0-.96.44-1.52,1.27-1.9-.61-.37-1-.88-1-1.72v-.02c0-1.2,1.1-2.16,2.76-2.16s2.76.94,2.76,2.16v.02c0,.84-.39,1.35-1,1.72.8.42,1.27.92,1.27,1.85v.02c0,1.46-1.29,2.31-3.03,2.31s-3.03-.9-3.03-2.27Zm4.39-.13v-.02c0-.61-.57-.97-1.36-.97s-1.36.36-1.36.97v.02c0,.54.51.98,1.36.98s1.36-.43,1.36-.98Zm-.24-3.31v-.02c0-.48-.42-.92-1.12-.92s-1.12.43-1.12.91v.02c0,.55.44.97,1.12.97s1.12-.4,1.12-.96Z"/>
          <path class="mobile-cls-4" d="m38.9,493.12v-.02c0-1.11.77-2.01,1.92-2.01s1.9.89,1.9,1.99v.02c0,1.1-.77,2.01-1.92,2.01s-1.9-.89-1.9-1.99Zm6.52-1.94h1.34l-3.14,4.23-2.59,3.63h-1.34l3.14-4.23,2.59-3.63Zm-5.35,1.9v.02c0,.53.29.99.74.99.47,0,.72-.46.72-.97v-.02c0-.53-.29-.99-.74-.99-.47,0-.72.45-.72.97Zm3.65,4.07v-.02c0-1.11.77-2.01,1.92-2.01s1.9.89,1.9,1.99v.02c0,1.1-.77,2.01-1.92,2.01s-1.9-.89-1.9-1.99Zm2.64,0v-.02c0-.53-.29-.99-.74-.99-.47,0-.72.45-.72.97v.02c0,.53.29.99.74.99.47,0,.72-.46.72-.97Z"/>
        </g>
        <g>
          <path class="mobile-cls-3" d="m3.31,439.22h3.65c.9,0,1.61.25,2.06.7.36.36.54.8.54,1.34v.02c0,.89-.47,1.38-1.03,1.7.91.35,1.47.88,1.47,1.93v.02c0,1.44-1.17,2.16-2.94,2.16h-3.74v-7.86Zm4.53,2.32c0-.52-.4-.81-1.13-.81h-1.71v1.66h1.59c.76,0,1.25-.25,1.25-.83v-.02Zm-.84,2.29h-2v1.73h2.06c.76,0,1.22-.27,1.22-.85v-.02c0-.53-.39-.85-1.28-.85Z"/>
          <path class="mobile-cls-3" d="m11.03,445.71l2.62-2.15c.98-.81,1.36-1.24,1.36-1.89s-.44-1.02-1.06-1.02-1.02.34-1.61,1.06l-1.21-.98c.77-1.06,1.53-1.63,2.93-1.63,1.63,0,2.71.95,2.71,2.43v.02c0,1.31-.67,1.96-2.07,3.04l-1.28.99h3.43v1.49h-5.82v-1.37Z"/>
          <path class="mobile-cls-3" d="m19.61,441.56l-1.09.83-.47-.81,1.26-.53-1.26-.53.47-.81,1.09.83-.18-1.35h.92l-.18,1.35,1.09-.83.47.81-1.26.53,1.26.53-.47.81-1.09-.83.18,1.35h-.92l.18-1.35Z"/>
          <path class="mobile-cls-3" d="m23.06,441.06h1.82v1.8h-1.82v-1.8Zm0,4.22h1.82v1.8h-1.82v-1.8Z"/>
          <path class="mobile-cls-3" d="m29.55,445.71l2.62-2.15c.98-.81,1.36-1.24,1.36-1.89s-.44-1.02-1.06-1.02-1.02.34-1.61,1.06l-1.21-.98c.77-1.06,1.53-1.63,2.93-1.63,1.63,0,2.71.95,2.71,2.43v.02c0,1.31-.67,1.96-2.07,3.04l-1.28.99h3.43v1.49h-5.82v-1.37Z"/>
          <path class="mobile-cls-3" d="m37.99,440.92l-1.37.34-.36-1.42,2.26-.67h1.18v7.92h-1.71v-6.17Z"/>
          <path class="mobile-cls-3" d="m41.24,441.16v-.02c0-1.11.77-2.01,1.92-2.01s1.9.89,1.9,1.99v.02c0,1.1-.77,2.01-1.92,2.01s-1.9-.89-1.9-1.99Zm6.52-1.94h1.34l-3.14,4.23-2.59,3.63h-1.34l3.14-4.23,2.59-3.63Zm-5.35,1.9v.02c0,.53.29.99.74.99.47,0,.72-.46.72-.97v-.02c0-.53-.29-.99-.74-.99-.47,0-.72.45-.72.97Zm3.65,4.07v-.02c0-1.11.77-2.01,1.92-2.01s1.9.89,1.9,1.99v.02c0,1.1-.77,2.01-1.92,2.01s-1.9-.89-1.9-1.99Zm2.64,0v-.02c0-.53-.29-.99-.74-.99-.47,0-.72.45-.72.97v.02c0,.53.29.99.74.99.47,0,.72-.46.72-.97Z"/>
        </g>
      </g>
      <g id="initial_diagnosis_title">
        <path class="mobile-cls-10" d="m12.27,180.29h.9v8.01h-.9v-8.01Z"/>
        <path class="mobile-cls-10" d="m15.37,182.38h.88v1.03c.39-.64,1.01-1.16,2.03-1.16,1.43,0,2.27.96,2.27,2.37v3.67h-.88v-3.46c0-1.1-.6-1.79-1.64-1.79s-1.77.74-1.77,1.85v3.39h-.88v-5.92Z"/>
        <path class="mobile-cls-10" d="m22.44,180.12h1.01v.97h-1.01v-.97Zm.06,2.27h.88v5.92h-.88v-5.92Z"/>
        <path class="mobile-cls-10" d="m25.73,186.73v-3.57h-.82v-.78h.82v-1.79h.88v1.79h1.88v.78h-1.88v3.46c0,.72.4.98,1,.98.3,0,.55-.06.86-.21v.75c-.31.16-.64.25-1.06.25-.95,0-1.67-.47-1.67-1.67Z"/>
        <path class="mobile-cls-10" d="m30.07,180.12h1.01v.97h-1.01v-.97Zm.06,2.27h.88v5.92h-.88v-5.92Z"/>
        <path class="mobile-cls-10" d="m32.61,186.58v-.02c0-1.25,1.03-1.91,2.53-1.91.76,0,1.29.1,1.82.25v-.21c0-1.06-.65-1.61-1.76-1.61-.7,0-1.25.18-1.8.43l-.26-.72c.65-.3,1.29-.49,2.15-.49s1.48.22,1.91.65c.4.4.61.97.61,1.73v3.62h-.85v-.89c-.41.54-1.1,1.02-2.14,1.02-1.1,0-2.21-.63-2.21-1.84Zm4.36-.46v-.57c-.43-.13-1.02-.25-1.74-.25-1.11,0-1.73.48-1.73,1.22v.02c0,.74.69,1.18,1.49,1.18,1.09,0,1.98-.66,1.98-1.6Z"/>
        <path class="mobile-cls-10" d="m39.76,179.95h.88v8.35h-.88v-8.35Z"/>
        <path class="mobile-cls-10" d="m.19,198.07v-.02c0-1.93,1.41-3.08,2.83-3.08,1.1,0,1.81.6,2.27,1.26v-3.57h.88v8.35h-.88v-1.19c-.48.71-1.18,1.32-2.27,1.32-1.42,0-2.83-1.12-2.83-3.07Zm5.13-.01v-.02c0-1.36-1.04-2.28-2.14-2.28s-2.08.85-2.08,2.28v.02c0,1.4.96,2.29,2.08,2.29s2.14-.93,2.14-2.29Z"/>
        <path class="mobile-cls-10" d="m8.15,192.83h1.01v.97h-1.01v-.97Zm.06,2.27h.88v5.92h-.88v-5.92Z"/>
        <path class="mobile-cls-10" d="m10.69,199.29v-.02c0-1.25,1.03-1.91,2.53-1.91.76,0,1.29.1,1.82.25v-.21c0-1.06-.65-1.61-1.76-1.61-.7,0-1.25.18-1.8.43l-.26-.72c.65-.3,1.29-.49,2.15-.49s1.48.22,1.91.65c.4.4.61.97.61,1.73v3.62h-.85v-.89c-.41.54-1.1,1.02-2.14,1.02-1.1,0-2.21-.63-2.21-1.84Zm4.36-.46v-.57c-.43-.13-1.02-.25-1.74-.25-1.11,0-1.73.48-1.73,1.22v.02c0,.74.69,1.18,1.49,1.18,1.09,0,1.98-.66,1.98-1.6Z"/>
        <path class="mobile-cls-10" d="m17.69,202.04l.4-.69c.68.49,1.43.76,2.28.76,1.3,0,2.15-.72,2.15-2.11v-.7c-.52.69-1.24,1.25-2.32,1.25-1.42,0-2.78-1.06-2.78-2.77v-.02c0-1.73,1.37-2.79,2.78-2.79,1.11,0,1.83.55,2.31,1.19v-1.06h.88v4.89c0,.92-.27,1.61-.76,2.09-.53.53-1.32.79-2.25.79-.98,0-1.9-.27-2.69-.82Zm4.85-4.27v-.02c0-1.21-1.05-2-2.17-2s-2.05.78-2.05,1.99v.02c0,1.19.95,2.01,2.05,2.01s2.17-.81,2.17-2Z"/>
        <path class="mobile-cls-10" d="m25.36,195.09h.88v1.03c.39-.64,1.01-1.16,2.03-1.16,1.43,0,2.27.96,2.27,2.37v3.67h-.88v-3.46c0-1.1-.6-1.79-1.64-1.79s-1.77.74-1.77,1.85v3.39h-.88v-5.92Z"/>
        <path class="mobile-cls-10" d="m32.04,198.08v-.02c0-1.67,1.3-3.09,3.09-3.09s3.08,1.4,3.08,3.07v.02c0,1.67-1.32,3.09-3.1,3.09s-3.07-1.4-3.07-3.07Zm5.26,0v-.02c0-1.27-.95-2.31-2.2-2.31s-2.16,1.04-2.16,2.29v.02c0,1.27.94,2.3,2.19,2.3s2.17-1.03,2.17-2.28Z"/>
        <path class="mobile-cls-10" d="m39.3,200.25l.45-.63c.64.48,1.35.75,2.05.75s1.22-.37,1.22-.94v-.02c0-.6-.7-.82-1.48-1.04-.93-.26-1.96-.58-1.96-1.67v-.02c0-1.02.85-1.69,2.01-1.69.72,0,1.52.25,2.13.65l-.4.66c-.55-.35-1.18-.57-1.75-.57-.7,0-1.14.37-1.14.86v.02c0,.56.73.78,1.52,1.02.92.27,1.9.63,1.9,1.69v.02c0,1.12-.93,1.77-2.11,1.77-.85,0-1.79-.33-2.45-.87Z"/>
        <path class="mobile-cls-10" d="m45.51,192.83h1.01v.97h-1.01v-.97Zm.06,2.27h.88v5.92h-.88v-5.92Z"/>
        <path class="mobile-cls-10" d="m48.01,200.25l.45-.63c.64.48,1.35.75,2.05.75s1.22-.37,1.22-.94v-.02c0-.6-.7-.82-1.48-1.04-.93-.26-1.96-.58-1.96-1.67v-.02c0-1.02.85-1.69,2.01-1.69.72,0,1.52.25,2.13.65l-.4.66c-.55-.35-1.18-.57-1.75-.57-.7,0-1.14.37-1.14.86v.02c0,.56.73.78,1.52,1.02.92.27,1.9.63,1.9,1.69v.02c0,1.12-.93,1.77-2.11,1.77-.85,0-1.79-.33-2.45-.87Z"/>
      </g>
      <g id="result_graph" class="graph_details">
        <rect class="mobile-cls-6" x="253.29" y="209.35" width="49.17" height="165.4"/>
        <rect class="mobile-cls-13" x="253.29" y="388.04" width="49.17" height="67.05"/>
        <rect class="mobile-cls-11" x="253.29" y="468.97" width="49.17" height="37.11"/>
        <g>
          <path class="mobile-cls-4" d="m258.19,301.9h3.65c.9,0,1.61.25,2.06.7.36.36.54.8.54,1.34v.02c0,.89-.47,1.38-1.03,1.7.91.35,1.47.88,1.47,1.93v.02c0,1.44-1.17,2.16-2.94,2.16h-3.74v-7.86Zm4.53,2.32c0-.52-.4-.81-1.13-.81h-1.71v1.66h1.59c.76,0,1.25-.25,1.25-.83v-.02Zm-.84,2.29h-2v1.73h2.06c.76,0,1.22-.27,1.22-.85v-.02c0-.53-.39-.85-1.28-.85Z"/>
          <path class="mobile-cls-4" d="m267.35,303.59l-1.37.34-.36-1.42,2.26-.67h1.18v7.92h-1.71v-6.17Z"/>
          <path class="mobile-cls-4" d="m270.85,303.74h1.82v1.8h-1.82v-1.8Zm0,4.22h1.82v1.8h-1.82v-1.8Z"/>
          <path class="mobile-cls-4" d="m278.33,309.05c-.57-.57-.93-1.42-.93-2.98v-.02c0-2.43,1.1-4.29,3.45-4.29,1.07,0,1.76.31,2.46.86l-.91,1.34c-.52-.39-.93-.63-1.61-.63-1.18,0-1.53,1.13-1.58,1.82.42-.28.91-.51,1.63-.51,1.56,0,2.76.87,2.76,2.5v.02c0,1.61-1.29,2.72-3,2.72-1.02,0-1.72-.29-2.27-.84Zm3.55-1.8v-.02c0-.66-.52-1.15-1.37-1.15s-1.35.47-1.35,1.13v.02c0,.66.52,1.17,1.37,1.17s1.35-.48,1.35-1.16Z"/>
          <path class="mobile-cls-4" d="m286.11,303.59l-1.37.34-.36-1.42,2.26-.67h1.18v7.92h-1.71v-6.17Z"/>
          <path class="mobile-cls-4" d="m289.36,303.84v-.02c0-1.11.77-2.01,1.92-2.01s1.9.89,1.9,1.99v.02c0,1.1-.77,2.01-1.92,2.01s-1.9-.89-1.9-1.99Zm6.52-1.94h1.34l-3.14,4.23-2.59,3.63h-1.34l3.14-4.23,2.59-3.63Zm-5.35,1.9v.02c0,.53.29.99.74.99.47,0,.72-.46.72-.97v-.02c0-.53-.29-.99-.74-.99-.47,0-.72.45-.72.97Zm3.65,4.07v-.02c0-1.11.77-2.01,1.92-2.01s1.9.89,1.9,1.99v.02c0,1.1-.77,2.01-1.92,2.01s-1.9-.89-1.9-1.99Zm2.64,0v-.02c0-.53-.29-.99-.74-.99-.47,0-.72.45-.72.97v.02c0,.53.29.99.74.99.47,0,.72-.46.72-.97Z"/>
        </g>
        <g>
          <path class="mobile-cls-4" d="m256.86,485.43h3.65c.9,0,1.61.25,2.06.7.36.36.54.8.54,1.34v.02c0,.89-.47,1.38-1.03,1.7.91.35,1.47.88,1.47,1.93v.02c0,1.44-1.17,2.16-2.94,2.16h-3.74v-7.86Zm4.53,2.32c0-.52-.4-.81-1.13-.81h-1.71v1.66h1.59c.76,0,1.25-.25,1.25-.83v-.02Zm-.84,2.29h-2v1.73h2.06c.76,0,1.22-.27,1.22-.85v-.02c0-.53-.39-.85-1.28-.85Z"/>
          <path class="mobile-cls-4" d="m264.46,492.07l1.19-1.13c.54.61,1.1.94,1.9.94.65,0,1.11-.37,1.11-.96v-.02c0-.64-.57-1-1.54-1h-.72l-.27-1.1,1.88-1.89h-3.09v-1.48h5.31v1.3l-1.99,1.9c1.07.18,2.11.74,2.11,2.2v.02c0,1.48-1.08,2.57-2.83,2.57-1.42,0-2.39-.56-3.07-1.36Z"/>
          <path class="mobile-cls-4" d="m271.76,487.28h1.82v1.8h-1.82v-1.8Zm0,4.22h1.82v1.8h-1.82v-1.8Z"/>
          <path class="mobile-cls-4" d="m279.7,487.13l-1.37.34-.36-1.42,2.26-.67h1.18v7.92h-1.71v-6.17Z"/>
          <path class="mobile-cls-4" d="m286.91,491.6h-3.84l-.28-1.22,4.31-5h1.46v4.82h1.06v1.4h-1.06v1.7h-1.65v-1.7Zm0-1.4v-2.45l-2.09,2.45h2.09Z"/>
          <path class="mobile-cls-4" d="m290.68,487.38v-.02c0-1.11.77-2.01,1.92-2.01s1.9.89,1.9,1.99v.02c0,1.1-.77,2.01-1.92,2.01s-1.9-.89-1.9-1.99Zm6.52-1.94h1.34l-3.14,4.23-2.59,3.63h-1.34l3.14-4.23,2.59-3.63Zm-5.35,1.9v.02c0,.53.29.99.74.99.47,0,.72-.46.72-.97v-.02c0-.53-.29-.99-.74-.99-.47,0-.72.45-.72.97Zm3.65,4.07v-.02c0-1.11.77-2.01,1.92-2.01s1.9.89,1.9,1.99v.02c0,1.1-.77,2.01-1.92,2.01s-1.9-.89-1.9-1.99Zm2.64,0v-.02c0-.53-.29-.99-.74-.99-.47,0-.72.45-.72.97v.02c0,.53.29.99.74.99.47,0,.72-.46.72-.97Z"/>
        </g>
        <g>
          <path class="mobile-cls-3" d="m256.05,419.84h3.65c.9,0,1.61.25,2.06.7.36.36.54.8.54,1.34v.02c0,.89-.47,1.38-1.03,1.7.91.35,1.47.88,1.47,1.93v.02c0,1.44-1.17,2.16-2.94,2.16h-3.74v-7.86Zm4.53,2.32c0-.52-.4-.81-1.13-.81h-1.71v1.66h1.59c.76,0,1.25-.25,1.25-.83v-.02Zm-.84,2.29h-2v1.73h2.06c.76,0,1.22-.27,1.22-.85v-.02c0-.53-.39-.85-1.28-.85Z"/>
          <path class="mobile-cls-3" d="m263.77,426.33l2.62-2.15c.98-.81,1.36-1.24,1.36-1.89s-.44-1.02-1.06-1.02-1.02.34-1.61,1.06l-1.21-.98c.77-1.06,1.53-1.63,2.93-1.63,1.63,0,2.71.95,2.71,2.43v.02c0,1.31-.67,1.96-2.07,3.04l-1.28.99h3.43v1.49h-5.82v-1.37Z"/>
          <path class="mobile-cls-3" d="m270.97,421.68h1.82v1.8h-1.82v-1.8Zm0,4.22h1.82v1.8h-1.82v-1.8Z"/>
          <path class="mobile-cls-3" d="m277.46,426.33l2.62-2.15c.98-.81,1.36-1.24,1.36-1.89s-.44-1.02-1.06-1.02-1.02.34-1.61,1.06l-1.21-.98c.77-1.06,1.53-1.63,2.93-1.63,1.63,0,2.71.95,2.71,2.43v.02c0,1.31-.67,1.96-2.07,3.04l-1.28.99h3.43v1.49h-5.82v-1.37Z"/>
          <path class="mobile-cls-3" d="m284.39,426.66l1.04-1.25c.6.54,1.18.85,1.88.85.81,0,1.31-.39,1.31-1.09v-.02c0-.67-.57-1.07-1.39-1.07-.49,0-.94.13-1.31.29l-1-.66.22-3.87h4.83v1.52h-3.35l-.09,1.36c.31-.08.6-.13,1.03-.13,1.53,0,2.75.74,2.75,2.52v.02c0,1.66-1.18,2.72-2.99,2.72-1.26,0-2.18-.45-2.94-1.18Z"/>
          <path class="mobile-cls-3" d="m291.49,421.78v-.02c0-1.11.77-2.01,1.92-2.01s1.9.89,1.9,1.99v.02c0,1.1-.77,2.01-1.92,2.01s-1.9-.89-1.9-1.99Zm6.52-1.94h1.34l-3.14,4.23-2.59,3.63h-1.34l3.14-4.23,2.59-3.63Zm-5.35,1.9v.02c0,.53.29.99.74.99.47,0,.72-.46.72-.97v-.02c0-.53-.29-.99-.74-.99-.47,0-.72.45-.72.97Zm3.65,4.07v-.02c0-1.11.77-2.01,1.92-2.01s1.9.89,1.9,1.99v.02c0,1.1-.77,2.01-1.92,2.01s-1.9-.89-1.9-1.99Zm2.64,0v-.02c0-.53-.29-.99-.74-.99-.47,0-.72.45-.72.97v.02c0,.53.29.99.74.99.47,0,.72-.46.72-.97Z"/>
        </g>
        <g>
          <path class="mobile-cls-12" d="m320.02,484.32l-.56-.63c.73-.59,1.14-1.31,1.14-2.26s-.59-1.68-1.5-1.68h-.02c-.96,0-1.48.89-1.48,2.16v.5l-.52.18-2.74-2.43v3.76h-.78v-4.92h.64l2.68,2.42c.11-1.34.76-2.54,2.17-2.54h.02c1.38,0,2.32,1.14,2.32,2.57,0,1.29-.56,2.25-1.38,2.87Z"/>
          <path class="mobile-cls-12" d="m317.39,472.63h-.15c.75.48,1.22,1.19,1.22,2.18,0,1.58-1,2.68-2.39,2.68h-.02c-1.46,0-2.62-1.13-2.62-2.77,0-.88.3-1.53.79-2.02.58-.58,1.44-.96,2.98-.96h.02c2.44,0,4.17,1.3,4.17,3.2,0,1-.41,1.73-.95,2.38l-.67-.51c.55-.63.83-1.21.83-1.89,0-1.49-1.55-2.29-3.21-2.29Zm-1.42.17h-.02c-.98,0-1.75.8-1.75,1.96s.85,1.85,1.8,1.85h.02c.98,0,1.68-.77,1.68-1.89s-.86-1.91-1.74-1.91Z"/>
          <path class="mobile-cls-12" d="m315.46,470.5h-.02c-1.04,0-1.97-.7-1.97-1.76s.91-1.73,1.95-1.73h.02c1.05,0,1.97.7,1.97,1.75s-.91,1.74-1.95,1.74Zm-1.9-6.45v-.78l4.04,2.97,3.66,2.67v.79l-4.02-2.97-3.69-2.68Zm1.86,5.71h.02c.77,0,1.35-.45,1.35-1.02s-.59-1-1.33-1h-.02c-.77,0-1.35.46-1.35,1.02,0,.61.6,1,1.33,1Zm3.98-3.81h-.02c-1.05,0-1.97-.7-1.97-1.75s.91-1.73,1.95-1.73h.02c1.04,0,1.97.69,1.97,1.75s-.91,1.73-1.95,1.73Zm0-2.75h-.02c-.77,0-1.35.45-1.35,1.02s.61,1,1.33,1h.02c.77,0,1.35-.45,1.35-1.02,0-.6-.59-1-1.33-1Z"/>
          <path class="mobile-cls-12" d="m320.53,458.12l-.6-.43c.46-.62.73-1.3.73-1.97s-.35-1.18-.9-1.18h-.02c-.57,0-.79.67-1,1.42-.25.89-.56,1.88-1.61,1.88h-.02c-.98,0-1.63-.81-1.63-1.94,0-.69.24-1.46.63-2.05l.64.38c-.34.53-.55,1.13-.55,1.68,0,.67.35,1.1.82,1.1h.02c.54,0,.75-.7.98-1.46.26-.88.6-1.83,1.63-1.83h.02c1.08,0,1.71.89,1.71,2.02,0,.81-.32,1.72-.84,2.35Z"/>
          <path class="mobile-cls-12" d="m319.75,451.98h-3.43v.79h-.75v-.79h-1.72v-.85h1.72v-1.8h.75v1.8h3.32c.69,0,.95-.39.95-.96,0-.29-.06-.53-.2-.82h.73c.15.3.24.62.24,1.02,0,.91-.45,1.61-1.61,1.61Z"/>
          <path class="mobile-cls-12" d="m315.57,447.83v-.85h1.49c-.95-.42-1.63-1.24-1.58-2.32h.91v.07c0,1.24.89,2.26,2.61,2.26h2.27v.85h-5.69Z"/>
          <path class="mobile-cls-12" d="m313.39,443.36v-.97h.94v.97h-.94Zm2.18-.06v-.85h5.69v.85h-5.69Z"/>
          <path class="mobile-cls-12" d="m318.44,440.84h-.02c-1.61,0-2.97-1.25-2.97-2.92,0-1.08.45-1.75,1.01-2.28l.59.56c-.47.45-.86.96-.86,1.73,0,1.15.98,2.04,2.2,2.04h.02c1.23,0,2.21-.9,2.21-2.09,0-.73-.36-1.29-.85-1.74l.51-.54c.64.57,1.1,1.25,1.1,2.32,0,1.66-1.35,2.92-2.95,2.92Z"/>
          <path class="mobile-cls-12" d="m319.75,433.91h-3.43v.79h-.75v-.79h-1.72v-.85h1.72v-1.8h.75v1.8h3.32c.69,0,.95-.39.95-.96,0-.29-.06-.53-.2-.83h.73c.15.3.24.62.24,1.02,0,.91-.45,1.61-1.61,1.61Z"/>
          <path class="mobile-cls-12" d="m319.1,429.85h-3.53v-.85h3.32c1.06,0,1.72-.57,1.72-1.57s-.71-1.71-1.78-1.71h-3.26v-.84h5.69v.84h-.99c.62.38,1.11.97,1.11,1.95,0,1.38-.92,2.18-2.28,2.18Z"/>
          <path class="mobile-cls-12" d="m315.57,422.99v-.85h1.49c-.95-.42-1.63-1.24-1.58-2.32h.91v.07c0,1.24.89,2.26,2.61,2.26h2.27v.85h-5.69Z"/>
          <path class="mobile-cls-12" d="m313.39,418.51v-.97h.94v.97h-.94Zm2.18-.06v-.85h5.69v.85h-5.69Z"/>
          <path class="mobile-cls-12" d="m315.57,415.64v-.85h.99c-.62-.37-1.11-.97-1.11-1.95,0-1.38.92-2.18,2.28-2.18h3.53v.85h-3.32c-1.06,0-1.72.57-1.72,1.57s.72,1.71,1.78,1.71h3.26v.85h-5.69Z"/>
          <path class="mobile-cls-12" d="m322.25,408.93l-.66-.39c.47-.65.73-1.38.73-2.19,0-1.25-.69-2.07-2.02-2.07h-.67c.66.5,1.2,1.19,1.2,2.23,0,1.36-1.02,2.67-2.66,2.67h-.02c-1.66,0-2.68-1.32-2.68-2.67,0-1.07.53-1.76,1.14-2.22h-1.02v-.85h4.7c.88,0,1.55.26,2.01.73.51.51.76,1.27.76,2.17,0,.95-.26,1.83-.79,2.59Zm-4.1-4.67h-.02c-1.17,0-1.92,1.01-1.92,2.09s.75,1.97,1.91,1.97h.02c1.14,0,1.94-.91,1.94-1.97s-.78-2.09-1.92-2.09Z"/>
          <path class="mobile-cls-12" d="m332.1,515.01c-2.02,0-3.61-1.09-4.71-3.05l.56-.36c1.07,1.67,2.39,2.55,4.15,2.55s3.08-.88,4.15-2.55l.56.36c-1.1,1.96-2.68,3.05-4.71,3.05Z"/>
          <path class="mobile-cls-12" d="m327.56,509.9v-3.28c0-.88.25-1.57.68-2.01.33-.32.74-.5,1.23-.5h.02c1,0,1.52.62,1.78,1.22.27-.91.8-1.65,1.86-1.65h.02c1.32,0,2.1,1.11,2.1,2.79v3.42h-7.7Zm2.04-4.91c-.76,0-1.25.61-1.25,1.71v2.34h2.65v-2.28c0-1.04-.47-1.77-1.38-1.77h-.02Zm2.17,1.62v2.43h2.72v-2.58c0-1.17-.52-1.89-1.38-1.89h-.02c-.84,0-1.32.7-1.32,2.05Z"/>
          <path class="mobile-cls-12" d="m334.59,502.52l-2.46-2.79c-1.06-1.18-1.65-1.61-2.42-1.61-.9,0-1.47.71-1.47,1.55,0,.88.46,1.45,1.32,2.07l-.46.64c-1.03-.69-1.64-1.42-1.64-2.77s.92-2.39,2.18-2.39h.02c1.12,0,1.81.59,2.99,1.95l1.83,2.06v-4.08h.79v5.38h-.67Z"/>
          <path class="mobile-cls-12" d="m336.25,495.84c-1.07-1.67-2.39-2.55-4.15-2.55s-3.08.88-4.15,2.55l-.56-.36c1.1-1.96,2.68-3.05,4.71-3.05s3.61,1.09,4.71,3.05l-.56.36Z"/>
          <path class="mobile-cls-12" d="m332.44,487.79h-.02c-1.61,0-2.97-1.25-2.97-2.97s1.34-2.96,2.95-2.96h.02c1.61,0,2.97,1.27,2.97,2.98s-1.34,2.95-2.95,2.95Zm0-5.06h-.02c-1.22,0-2.22.91-2.22,2.11s1,2.08,2.2,2.08h.02c1.22,0,2.21-.9,2.21-2.1s-.99-2.09-2.19-2.09Z"/>
          <path class="mobile-cls-12" d="m329.57,480.33v-.85h1.49c-.95-.42-1.63-1.24-1.58-2.32h.91v.07c0,1.24.89,2.26,2.61,2.26h2.27v.85h-5.69Z"/>
          <path class="mobile-cls-12" d="m329.57,472.57v-.85h1.14c-.68-.46-1.26-1.13-1.26-2.18,0-1.36,1.08-2.72,2.95-2.72h.02c1.86,0,2.96,1.34,2.96,2.72,0,1.06-.57,1.74-1.21,2.18h2.85v.85h-7.45Zm2.86-4.87h-.02c-1.34,0-2.2.92-2.2,2s.89,2.06,2.19,2.06h.02c1.32,0,2.2-1,2.2-2.06s-.81-2-2.19-2Z"/>
          <path class="mobile-cls-12" d="m332.43,465.62h-.02c-1.64,0-2.96-1.16-2.96-2.73,0-1.68,1.34-2.65,3-2.65.11,0,.18,0,.28.01v4.51c1.23-.12,1.92-.99,1.92-2,0-.78-.32-1.33-.8-1.79l.47-.53c.64.57,1.07,1.26,1.07,2.34,0,1.56-1.2,2.84-2.96,2.84Zm-.33-4.52c-1.03.09-1.94.68-1.94,1.82,0,.99.83,1.74,1.94,1.85v-3.66Z"/>
          <path class="mobile-cls-12" d="m329.57,458.76v-.85h.99c-.62-.37-1.11-.97-1.11-1.95,0-1.38.92-2.18,2.28-2.18h3.53v.85h-3.32c-1.06,0-1.72.57-1.72,1.57s.72,1.71,1.78,1.71h3.26v.85h-5.69Z"/>
          <path class="mobile-cls-12" d="m332.43,452.33h-.02c-1.64,0-2.96-1.16-2.96-2.73,0-1.68,1.34-2.65,3-2.65.11,0,.18,0,.28.01v4.51c1.23-.12,1.92-.99,1.92-2,0-.78-.32-1.33-.8-1.79l.47-.53c.64.57,1.07,1.26,1.07,2.34,0,1.56-1.2,2.84-2.96,2.84Zm-.33-4.52c-1.03.09-1.94.68-1.94,1.82,0,.99.83,1.74,1.94,1.85v-3.66Z"/>
          <path class="mobile-cls-12" d="m333.75,445.17h-3.43v.79h-.75v-.79h-1.72v-.85h1.72v-1.8h.75v1.8h3.32c.69,0,.95-.39.95-.96,0-.29-.06-.53-.2-.82h.73c.15.3.24.62.24,1.02,0,.91-.45,1.61-1.61,1.61Z"/>
          <path class="mobile-cls-12" d="m329.57,441.03v-.85h1.49c-.95-.42-1.63-1.24-1.58-2.32h.91v.07c0,1.24.89,2.26,2.61,2.26h2.27v.85h-5.69Z"/>
          <path class="mobile-cls-12" d="m333.61,437.28h-.02c-1.2,0-1.84-.99-1.84-2.43,0-.73.1-1.24.24-1.75h-.2c-1.02,0-1.55.63-1.55,1.69,0,.67.18,1.2.42,1.73l-.69.25c-.29-.63-.47-1.24-.47-2.07s.21-1.42.63-1.84c.38-.38.94-.58,1.66-.58h3.48v.81h-.86c.52.4.98,1.06.98,2.06,0,1.06-.61,2.12-1.77,2.12Zm-.44-4.19h-.55c-.12.42-.24.98-.24,1.67,0,1.07.46,1.66,1.18,1.66h.02c.72,0,1.13-.66,1.13-1.43,0-1.04-.64-1.9-1.54-1.9Z"/>
          <path class="mobile-cls-12" d="m333.75,430.24h-3.43v.79h-.75v-.79h-1.72v-.85h1.72v-1.8h.75v1.8h3.32c.69,0,.95-.39.95-.96,0-.29-.06-.53-.2-.83h.73c.15.3.24.62.24,1.02,0,.91-.45,1.61-1.61,1.61Z"/>
          <path class="mobile-cls-12" d="m327.39,426.07v-.97h.94v.97h-.94Zm2.18-.06v-.85h5.69v.85h-5.69Z"/>
          <path class="mobile-cls-12" d="m329.57,423.2v-.85h.99c-.62-.37-1.11-.97-1.11-1.95,0-1.38.92-2.18,2.28-2.18h3.53v.85h-3.32c-1.06,0-1.72.57-1.72,1.57s.72,1.71,1.78,1.71h3.26v.85h-5.69Z"/>
          <path class="mobile-cls-12" d="m336.25,416.49l-.66-.39c.47-.65.73-1.38.73-2.19,0-1.25-.69-2.07-2.02-2.07h-.67c.66.5,1.2,1.19,1.2,2.23,0,1.36-1.02,2.67-2.66,2.67h-.02c-1.66,0-2.68-1.32-2.68-2.67,0-1.07.53-1.76,1.14-2.22h-1.02v-.85h4.7c.88,0,1.55.26,2.01.73.51.51.76,1.27.76,2.17,0,.95-.26,1.83-.79,2.59Zm-4.1-4.67h-.02c-1.17,0-1.92,1.01-1.92,2.09s.75,1.97,1.91,1.97h.02c1.14,0,1.94-.91,1.94-1.97s-.78-2.09-1.92-2.09Z"/>
          <path class="mobile-cls-12" d="m332.44,406.17h-.02c-1.61,0-2.97-1.25-2.97-2.97s1.34-2.96,2.95-2.96h.02c1.61,0,2.97,1.27,2.97,2.98s-1.34,2.95-2.95,2.95Zm0-5.06h-.02c-1.22,0-2.22.91-2.22,2.11s1,2.08,2.2,2.08h.02c1.22,0,2.21-.9,2.21-2.1s-.99-2.09-2.19-2.09Z"/>
          <path class="mobile-cls-12" d="m329.57,398.71v-.85h1.49c-.95-.42-1.63-1.24-1.58-2.32h.91v.07c0,1.24.89,2.26,2.61,2.26h2.27v.85h-5.69Z"/>
          <path class="mobile-cls-12" d="m329.57,391.44v-.9l4.57-1.5-4.59-1.53v-.7l4.59-1.54-4.57-1.5v-.88l5.73,2v.74l-4.49,1.53,4.49,1.54v.75l-5.73,1.99Z"/>
          <path class="mobile-cls-12" d="m327.39,381.46v-.97h.94v.97h-.94Zm2.18-.06v-.85h5.69v.85h-5.69Z"/>
          <path class="mobile-cls-12" d="m333.75,378.29h-3.43v.79h-.75v-.79h-1.72v-.85h1.72v-1.8h.75v1.8h3.32c.69,0,.95-.39.95-.96,0-.29-.06-.53-.2-.82h.73c.15.3.24.62.24,1.02,0,.91-.45,1.61-1.61,1.61Z"/>
          <path class="mobile-cls-12" d="m327.23,374.15v-.85h3.33c-.62-.37-1.11-.97-1.11-1.95,0-1.38.92-2.18,2.28-2.18h3.53v.85h-3.32c-1.06,0-1.72.57-1.72,1.57s.72,1.71,1.78,1.71h3.26v.85h-8.03Z"/>
          <path class="mobile-cls-12" d="m347.61,482.6h-.02c-1.2,0-1.84-.99-1.84-2.43,0-.73.1-1.24.24-1.75h-.2c-1.02,0-1.55.63-1.55,1.69,0,.67.18,1.2.42,1.73l-.69.25c-.29-.63-.47-1.24-.47-2.07s.21-1.42.63-1.84c.38-.38.94-.58,1.66-.58h3.48v.81h-.86c.52.4.98,1.06.98,2.06,0,1.06-.61,2.12-1.77,2.12Zm-.44-4.19h-.55c-.12.42-.24.98-.24,1.67,0,1.07.46,1.66,1.18,1.66h.02c.72,0,1.13-.66,1.13-1.43,0-1.04-.64-1.9-1.54-1.9Z"/>
          <path class="mobile-cls-12" d="m348.17,474.95h1.09v.85h-8.03v-.85h3.49c-.68-.46-1.26-1.13-1.26-2.18,0-1.36,1.08-2.72,2.95-2.72h.02c1.86,0,2.96,1.34,2.96,2.72,0,1.06-.57,1.74-1.21,2.18Zm-1.74-4.03h-.02c-1.34,0-2.2.92-2.2,2s.89,2.06,2.19,2.06h.02c1.32,0,2.2-1,2.2-2.06s-.81-2-2.19-2Z"/>
          <path class="mobile-cls-12" d="m348.53,468.97l-.6-.43c.46-.62.73-1.3.73-1.97s-.35-1.18-.9-1.18h-.02c-.57,0-.79.67-1,1.42-.25.89-.56,1.88-1.61,1.88h-.02c-.98,0-1.63-.81-1.63-1.94,0-.69.24-1.46.63-2.05l.64.38c-.34.53-.55,1.13-.55,1.68,0,.67.35,1.1.82,1.1h.02c.54,0,.75-.7.98-1.46.26-.88.6-1.83,1.63-1.83h.02c1.08,0,1.71.89,1.71,2.02,0,.81-.32,1.72-.84,2.35Z"/>
          <path class="mobile-cls-12" d="m346.44,463.37h-.02c-1.61,0-2.97-1.25-2.97-2.92,0-1.08.45-1.75,1.01-2.28l.59.56c-.47.45-.86.96-.86,1.73,0,1.15.98,2.04,2.2,2.04h.02c1.23,0,2.21-.9,2.21-2.09,0-.73-.36-1.29-.85-1.74l.51-.54c.64.57,1.1,1.25,1.1,2.32,0,1.66-1.35,2.92-2.95,2.92Z"/>
          <path class="mobile-cls-12" d="m346.43,457.25h-.02c-1.64,0-2.96-1.16-2.96-2.73,0-1.68,1.34-2.65,3-2.65.11,0,.18,0,.28.01v4.51c1.23-.12,1.92-.99,1.92-2,0-.78-.32-1.33-.8-1.79l.47-.53c.64.57,1.07,1.26,1.07,2.34,0,1.56-1.2,2.84-2.96,2.84Zm-.33-4.52c-1.03.09-1.94.68-1.94,1.82,0,.99.83,1.74,1.94,1.85v-3.66Z"/>
          <path class="mobile-cls-12" d="m348.53,450.86l-.6-.43c.46-.62.73-1.3.73-1.97s-.35-1.18-.9-1.18h-.02c-.57,0-.79.67-1,1.42-.25.89-.56,1.88-1.61,1.88h-.02c-.98,0-1.63-.81-1.63-1.94,0-.69.24-1.46.63-2.05l.64.38c-.34.53-.55,1.13-.55,1.68,0,.67.35,1.1.82,1.1h.02c.54,0,.75-.7.98-1.46.26-.88.6-1.83,1.63-1.83h.02c1.08,0,1.71.89,1.71,2.02,0,.81-.32,1.72-.84,2.35Z"/>
          <path class="mobile-cls-12" d="m348.53,445.49l-.6-.43c.46-.62.73-1.3.73-1.97s-.35-1.18-.9-1.18h-.02c-.57,0-.79.67-1,1.42-.25.89-.56,1.88-1.61,1.88h-.02c-.98,0-1.63-.81-1.63-1.94,0-.69.24-1.46.63-2.05l.64.38c-.34.53-.55,1.13-.55,1.68,0,.67.35,1.1.82,1.1h.02c.54,0,.75-.7.98-1.46.26-.88.6-1.83,1.63-1.83h.02c1.08,0,1.71.89,1.71,2.02,0,.81-.32,1.72-.84,2.35Z"/>
          <path class="mobile-cls-12" d="m346.43,439.89h-.02c-1.64,0-2.96-1.16-2.96-2.73,0-1.68,1.34-2.65,3-2.65.11,0,.18,0,.28.01v4.51c1.23-.12,1.92-.99,1.92-2,0-.78-.32-1.33-.8-1.79l.47-.53c.64.57,1.07,1.26,1.07,2.34,0,1.56-1.2,2.84-2.96,2.84Zm-.33-4.52c-1.03.09-1.94.68-1.94,1.82,0,.99.83,1.74,1.94,1.85v-3.66Z"/>
          <path class="mobile-cls-12" d="m348.53,433.5l-.6-.43c.46-.62.73-1.3.73-1.97s-.35-1.18-.9-1.18h-.02c-.57,0-.79.67-1,1.42-.25.89-.56,1.88-1.61,1.88h-.02c-.98,0-1.63-.81-1.63-1.94,0-.69.24-1.46.63-2.05l.64.38c-.34.53-.55,1.13-.55,1.68,0,.67.35,1.1.82,1.1h.02c.54,0,.75-.7.98-1.46.26-.88.6-1.83,1.63-1.83h.02c1.08,0,1.71.89,1.71,2.02,0,.81-.32,1.72-.84,2.35Z"/>
          <path class="mobile-cls-12" d="m346.1,424.45c-2.02,0-3.61-1.09-4.71-3.05l.56-.36c1.07,1.67,2.39,2.55,4.15,2.55s3.08-.88,4.15-2.55l.56.36c-1.1,1.96-2.68,3.05-4.71,3.05Z"/>
          <path class="mobile-cls-12" d="m341.56,419.34v-3.28c0-.88.25-1.57.68-2.01.33-.32.74-.5,1.23-.5h.02c1,0,1.52.62,1.78,1.22.27-.91.8-1.65,1.86-1.65h.02c1.32,0,2.1,1.11,2.1,2.79v3.42h-7.7Zm2.04-4.91c-.76,0-1.25.61-1.25,1.71v2.34h2.65v-2.28c0-1.04-.47-1.77-1.38-1.77h-.02Zm2.17,1.62v2.43h2.72v-2.58c0-1.17-.52-1.89-1.38-1.89h-.02c-.84,0-1.32.7-1.32,2.05Z"/>
          <path class="mobile-cls-12" d="m348.02,411.93l-.56-.63c.73-.59,1.14-1.31,1.14-2.26s-.59-1.68-1.5-1.68h-.02c-.96,0-1.48.89-1.48,2.16v.49l-.52.18-2.74-2.43v3.76h-.78v-4.92h.64l2.68,2.42c.11-1.34.76-2.54,2.17-2.54h.02c1.38,0,2.32,1.14,2.32,2.57,0,1.29-.56,2.25-1.38,2.87Z"/>
          <path class="mobile-cls-12" d="m350.25,405.12c-1.07-1.67-2.39-2.55-4.15-2.55s-3.08.88-4.15,2.55l-.56-.36c1.1-1.96,2.68-3.05,4.71-3.05s3.61,1.09,4.71,3.05l-.56.36Z"/>
        </g>
        <rect class="mobile-cls-14" x="50.97" y="482.18" width="202.33" height="23.9"/>
        <path class="mobile-cls-8" d="m50.97,401.92s39.24.29,58.86,11.48c19.62,11.2,64.87,42.21,80.57,49.38,15.7,7.18,44.55,13.49,62.91,13.49v-7.32s-23.43-.44-40.28-5.6-32.55-12.06-58.87-30.43c-26.32-18.38-54.02-35.6-80.57-36.75-26.55-1.15-22.62-.86-22.62-.86v6.6Z"/>
        <rect class="mobile-cls-8" x="50.97" y="209.35" width="202.33" height="165.4"/>
        <path class="mobile-cls-8" d="m50.97,395.32v-20.57s54.7,1.91,72.48,3.63c17.78,1.72,96.49,11,129.85,9.66v20.2s-63.37-3.16-78.37-4.59c-15.01-1.44-58.34-6.49-72.22-7.54-19.08-1.44-51.74-.79-51.74-.79Z"/>
        <path class="mobile-cls-2" d="m50.97,415.43s68.32-2.02,83.79-2.88,65.33-8.04,118.54-6.89v49.44s-89.68,3.68-110.69,5.4c-22.39.86-82.35,3.45-91.64,3.45v-48.51Z"/>
        <path class="mobile-cls-2" d="m50.97,470.07v-6.14s76.63,2.58,90.25,4.74,83.8,9.04,112.08,7.61v5.9s-64.93-2.31-90.2-4.25c0,0-62.96-7.86-112.13-7.86Z"/>
        <polyline class="mobile-cls-15" points="317.99 502 317.99 506.08 303.85 506.08"/>
        <polyline class="mobile-cls-15" points="303.85 388.04 317.99 388.04 317.99 392.34"/>
        <g>
          <path class="mobile-cls-4" d="m66.66,307.82v-.02c0-.86.62-1.46,1.48-1.77-.67-.31-1.24-.82-1.24-1.66v-.02c0-1.11,1.14-1.91,2.46-1.91s2.46.79,2.46,1.91v.02c0,.83-.57,1.35-1.24,1.66.85.32,1.48.91,1.48,1.76v.02c0,1.23-1.17,2.05-2.71,2.05s-2.71-.83-2.71-2.04Zm4.59-.02v-.02c0-.8-.83-1.37-1.88-1.37s-1.89.57-1.89,1.37v.02c0,.73.7,1.35,1.89,1.35s1.88-.62,1.88-1.35Zm-.24-3.38v-.02c0-.71-.71-1.25-1.65-1.25s-1.65.53-1.65,1.25v.02c0,.78.73,1.32,1.65,1.32s1.65-.54,1.65-1.32Z"/>
          <path class="mobile-cls-4" d="m74.15,309.15c-.58-.58-.91-1.32-.91-2.79v-.02c0-2.19,1.11-3.91,3-3.91.87,0,1.5.31,2.13.82l-.47.63c-.54-.45-1.04-.71-1.7-.71-1.39,0-2.12,1.46-2.12,3.09v.1c.47-.69,1.12-1.11,2.06-1.11,1.34,0,2.49.87,2.49,2.21v.02c0,1.39-1.12,2.4-2.59,2.4-.79,0-1.44-.28-1.9-.73Zm3.65-1.64v-.02c0-.89-.72-1.54-1.76-1.54s-1.8.77-1.8,1.58v.02c0,.92.76,1.62,1.82,1.62s1.74-.73,1.74-1.65Z"/>
          <path class="mobile-cls-4" d="m79.81,304.33v-.02c0-.98.66-1.84,1.65-1.84s1.62.85,1.62,1.82v.02c0,.98-.66,1.84-1.64,1.84s-1.63-.85-1.63-1.82Zm.69-.04v.02c0,.72.42,1.27.96,1.27s.94-.56.94-1.25v-.02c0-.72-.43-1.27-.96-1.27-.57,0-.94.57-.94,1.25Zm5.35-1.74h.73l-2.78,3.78-2.5,3.43h-.74l2.78-3.76,2.51-3.45Zm-1.78,5.47v-.02c0-.98.66-1.84,1.64-1.84s1.62.86,1.62,1.82v.02c0,.98-.65,1.84-1.64,1.84s-1.62-.85-1.62-1.82Zm2.57,0v-.02c0-.72-.42-1.27-.96-1.27s-.94.57-.94,1.25v.02c0,.72.42,1.27.96,1.27.57,0,.94-.56.94-1.25Z"/>
        </g>
        <g>
          <path class="mobile-cls-4" d="m69.02,383.59l-1.36.42-.2-.66,1.76-.61h.6v7.26h-.8v-6.42Z"/>
          <path class="mobile-cls-4" d="m71.5,386.42v-.02c0-2.02,1.21-3.73,3.06-3.73s3.03,1.69,3.03,3.71v.02c0,2.02-1.19,3.73-3.05,3.73s-3.04-1.69-3.04-3.71Zm5.24,0v-.02c0-1.58-.87-2.99-2.2-2.99s-2.19,1.38-2.19,2.97v.02c0,1.58.87,2.99,2.21,2.99s2.18-1.39,2.18-2.97Z"/>
          <path class="mobile-cls-4" d="m78.76,384.58v-.02c0-.98.66-1.84,1.65-1.84s1.62.85,1.62,1.82v.02c0,.98-.66,1.84-1.64,1.84s-1.63-.85-1.63-1.82Zm.69-.04v.02c0,.72.42,1.27.96,1.27s.94-.56.94-1.25v-.02c0-.72-.43-1.27-.96-1.27-.57,0-.94.57-.94,1.25Zm5.35-1.74h.73l-2.78,3.78-2.5,3.43h-.74l2.78-3.76,2.51-3.45Zm-1.78,5.47v-.02c0-.98.66-1.84,1.64-1.84s1.62.86,1.62,1.82v.02c0,.98-.65,1.84-1.64,1.84s-1.62-.85-1.62-1.82Zm2.57,0v-.02c0-.72-.42-1.27-.96-1.27s-.94.57-.94,1.25v.02c0,.72.42,1.27.96,1.27.57,0,.94-.56.94-1.25Z"/>
        </g>
        <g>
          <path class="mobile-cls-4" d="m73.69,402.22h-3.8l-.21-.59,4.08-4.96h.71v4.87h1.12v.68h-1.12v1.71h-.78v-1.71Zm0-.68v-3.72l-3.03,3.72h3.03Z"/>
          <path class="mobile-cls-4" d="m76.69,398.5v-.02c0-.98.66-1.84,1.65-1.84s1.62.85,1.62,1.82v.02c0,.98-.66,1.84-1.64,1.84s-1.63-.85-1.63-1.82Zm.69-.04v.02c0,.72.42,1.27.96,1.27s.94-.56.94-1.25v-.02c0-.72-.43-1.27-.96-1.27-.57,0-.94.57-.94,1.25Zm5.35-1.74h.73l-2.78,3.78-2.5,3.43h-.74l2.78-3.76,2.51-3.45Zm-1.78,5.47v-.02c0-.98.66-1.84,1.64-1.84s1.62.86,1.62,1.82v.02c0,.98-.65,1.84-1.64,1.84s-1.62-.85-1.62-1.82Zm2.57,0v-.02c0-.72-.42-1.27-.96-1.27s-.94.57-.94,1.25v.02c0,.72.42,1.27.96,1.27.57,0,.94-.56.94-1.25Z"/>
        </g>
        <g>
          <path class="mobile-cls-3" d="m66.69,440.81v-.02c0-.85.62-1.46,1.48-1.77-.67-.31-1.24-.82-1.24-1.66v-.02c0-1.11,1.14-1.91,2.46-1.91s2.46.79,2.46,1.91v.02c0,.83-.57,1.35-1.24,1.66.85.32,1.48.91,1.48,1.76v.02c0,1.23-1.17,2.05-2.71,2.05s-2.71-.83-2.71-2.04Zm4.59-.02v-.02c0-.8-.83-1.37-1.88-1.37s-1.89.57-1.89,1.37v.02c0,.73.7,1.35,1.89,1.35s1.88-.62,1.88-1.35Zm-.24-3.38v-.02c0-.71-.71-1.25-1.65-1.25s-1.65.53-1.65,1.25v.02c0,.78.73,1.32,1.65,1.32s1.65-.54,1.65-1.32Z"/>
          <path class="mobile-cls-3" d="m77.79,439.13v-.14c-.45.7-1.11,1.14-2.04,1.14-1.48,0-2.51-.94-2.51-2.24v-.02c0-1.37,1.06-2.45,2.6-2.45.82,0,1.43.28,1.9.74.55.55.9,1.35.9,2.79v.02c0,2.29-1.22,3.9-3,3.9-.94,0-1.62-.38-2.23-.89l.47-.63c.59.52,1.13.77,1.77.77,1.39,0,2.14-1.45,2.14-3.01Zm-.15-1.33v-.02c0-.92-.75-1.64-1.83-1.64s-1.73.79-1.73,1.69v.02c0,.92.72,1.58,1.77,1.58s1.79-.8,1.79-1.63Z"/>
          <path class="mobile-cls-3" d="m79.78,437.32v-.02c0-.98.66-1.84,1.65-1.84s1.62.85,1.62,1.82v.02c0,.98-.66,1.84-1.64,1.84s-1.63-.86-1.63-1.82Zm.69-.04v.02c0,.72.42,1.27.96,1.27s.94-.56.94-1.25v-.02c0-.72-.43-1.27-.96-1.27-.57,0-.94.57-.94,1.25Zm5.35-1.74h.73l-2.78,3.78-2.5,3.43h-.74l2.78-3.76,2.51-3.45Zm-1.78,5.47v-.02c0-.98.66-1.84,1.64-1.84s1.62.85,1.62,1.82v.02c0,.98-.65,1.84-1.64,1.84s-1.62-.86-1.62-1.82Zm2.57,0v-.02c0-.72-.42-1.27-.96-1.27s-.94.57-.94,1.25v.02c0,.72.42,1.27.96,1.27.57,0,.94-.56.94-1.25Z"/>
        </g>
        <g>
          <path class="mobile-cls-3" d="m70.86,464.92l-1.36.42-.2-.66,1.76-.61h.6v7.26h-.8v-6.42Z"/>
          <path class="mobile-cls-3" d="m74.54,464.92l-1.36.42-.2-.66,1.76-.61h.6v7.26h-.8v-6.42Z"/>
          <path class="mobile-cls-3" d="m76.92,465.91v-.02c0-.98.66-1.84,1.65-1.84s1.62.85,1.62,1.82v.02c0,.98-.66,1.84-1.64,1.84s-1.63-.85-1.63-1.82Zm.69-.04v.02c0,.72.42,1.27.96,1.27s.94-.56.94-1.25v-.02c0-.72-.43-1.27-.96-1.27-.57,0-.94.57-.94,1.25Zm5.35-1.74h.73l-2.78,3.78-2.5,3.43h-.74l2.78-3.76,2.51-3.45Zm-1.78,5.47v-.02c0-.98.66-1.84,1.64-1.84s1.62.86,1.62,1.82v.02c0,.98-.65,1.84-1.64,1.84s-1.62-.85-1.62-1.82Zm2.57,0v-.02c0-.72-.42-1.27-.96-1.27s-.94.57-.94,1.25v.02c0,.72.42,1.27.96,1.27.57,0,.94-.56.94-1.25Z"/>
        </g>
        <g>
          <path class="mobile-cls-4" d="m65.34,492.62l-1.36.42-.2-.66,1.76-.61h.6v7.26h-.8v-6.42Z"/>
          <path class="mobile-cls-4" d="m67.82,495.45v-.02c0-2.02,1.21-3.73,3.06-3.73s3.03,1.69,3.03,3.71v.02c0,2.02-1.19,3.73-3.05,3.73s-3.04-1.69-3.04-3.71Zm5.24,0v-.02c0-1.58-.87-2.99-2.2-2.99s-2.19,1.38-2.19,2.97v.02c0,1.58.86,2.99,2.21,2.99s2.18-1.39,2.18-2.97Z"/>
          <path class="mobile-cls-4" d="m75.18,495.45v-.02c0-2.02,1.21-3.73,3.06-3.73s3.03,1.69,3.03,3.71v.02c0,2.02-1.19,3.73-3.05,3.73s-3.04-1.69-3.04-3.71Zm5.24,0v-.02c0-1.58-.87-2.99-2.2-2.99s-2.19,1.38-2.19,2.97v.02c0,1.58.86,2.99,2.21,2.99s2.18-1.39,2.18-2.97Z"/>
          <path class="mobile-cls-4" d="m82.44,493.61v-.02c0-.98.66-1.84,1.65-1.84s1.62.85,1.62,1.82v.02c0,.98-.66,1.84-1.64,1.84s-1.63-.86-1.63-1.82Zm.69-.04v.02c0,.72.42,1.27.96,1.27s.94-.56.94-1.25v-.02c0-.72-.43-1.27-.96-1.27-.57,0-.94.57-.94,1.25Zm5.35-1.74h.73l-2.78,3.78-2.5,3.43h-.74l2.78-3.76,2.51-3.45Zm-1.78,5.47v-.02c0-.98.66-1.84,1.64-1.84s1.62.85,1.62,1.82v.02c0,.98-.65,1.84-1.64,1.84s-1.62-.86-1.62-1.82Zm2.57,0v-.02c0-.72-.42-1.27-.96-1.27s-.94.57-.94,1.25v.02c0,.72.42,1.27.96,1.27.57,0,.94-.56.94-1.25Z"/>
        </g>
      </g>
      <g id="follow_up_title">
        <path class="mobile-cls-10" d="m250.57,188.27h5.76v.84h-4.85v2.86h4.34v.82h-4.34v3.49h-.9v-8.01Z"/>
        <path class="mobile-cls-10" d="m257.39,193.35v-.02c0-1.67,1.3-3.09,3.09-3.09s3.08,1.4,3.08,3.07v.02c0,1.67-1.32,3.09-3.1,3.09s-3.07-1.4-3.07-3.07Zm5.26,0v-.02c0-1.27-.95-2.31-2.2-2.31s-2.16,1.04-2.16,2.29v.02c0,1.27.94,2.3,2.19,2.3s2.17-1.03,2.17-2.28Z"/>
        <path class="mobile-cls-10" d="m265.22,187.92h.88v8.35h-.88v-8.35Z"/>
        <path class="mobile-cls-10" d="m268.23,187.92h.88v8.35h-.88v-8.35Z"/>
        <path class="mobile-cls-10" d="m270.79,193.35v-.02c0-1.67,1.3-3.09,3.09-3.09s3.08,1.4,3.08,3.07v.02c0,1.67-1.32,3.09-3.1,3.09s-3.07-1.4-3.07-3.07Zm5.26,0v-.02c0-1.27-.95-2.31-2.2-2.31s-2.16,1.04-2.16,2.29v.02c0,1.27.94,2.3,2.19,2.3s2.17-1.03,2.17-2.28Z"/>
        <path class="mobile-cls-10" d="m277.76,190.36h.94l1.56,4.75,1.59-4.77h.73l1.6,4.77,1.56-4.75h.92l-2.08,5.96h-.77l-1.59-4.67-1.6,4.67h-.78l-2.07-5.96Z"/>
        <path class="mobile-cls-10" d="m287.76,192.38h3.18v.93h-3.18v-.93Z"/>
        <path class="mobile-cls-10" d="m292.57,194.03v-3.67h.88v3.46c0,1.1.6,1.79,1.64,1.79s1.77-.74,1.77-1.85v-3.39h.87v5.92h-.87v-1.03c-.4.64-1.01,1.16-2.03,1.16-1.43,0-2.27-.96-2.27-2.37Z"/>
        <path class="mobile-cls-10" d="m299.71,190.36h.88v1.19c.48-.71,1.18-1.32,2.27-1.32,1.42,0,2.83,1.12,2.83,3.07v.02c0,1.93-1.4,3.08-2.83,3.08-1.1,0-1.81-.59-2.27-1.26v2.96h-.88v-7.75Zm5.07,2.98v-.02c0-1.4-.96-2.29-2.08-2.29s-2.14.93-2.14,2.28v.02c0,1.37,1.04,2.29,2.14,2.29s2.08-.85,2.08-2.28Z"/>
      </g>
      <g id="study_text">
        <path class="mobile-cls-10" d="m0,.41h7.13v1.85H2.07v1.92h4.46v1.85H2.07v1.99h5.13v1.85H0V.41Z"/>
        <path class="mobile-cls-10" d="m8.83,2.62h2.05v1.04c.5-.67,1.19-1.17,2.25-1.17,1.69,0,3.3,1.32,3.3,3.74v.03c0,2.42-1.58,3.74-3.3,3.74-1.09,0-1.77-.5-2.25-1.08v3.11h-2.05V2.62Zm5.55,3.63v-.03c0-1.2-.81-2-1.77-2s-1.75.8-1.75,2v.03c0,1.2.8,2,1.75,2s1.77-.78,1.77-2Z"/>
        <path class="mobile-cls-10" d="m17.98,0h2.16v1.82h-2.16V0Zm.05,2.62h2.05v7.24h-2.05V2.62Z"/>
        <path class="mobile-cls-10" d="m21.77,4.69h4.16v1.97h-4.16v-1.97Z"/>
        <path class="mobile-cls-10" d="m27.84.41h2.08v9.45h-2.08V.41Z"/>
        <path class="mobile-cls-10" d="m32.28.41h4.39c1.08,0,1.93.3,2.47.84.43.43.65.96.65,1.61v.03c0,1.07-.57,1.66-1.24,2.04,1.09.42,1.77,1.05,1.77,2.32v.03c0,1.73-1.4,2.59-3.54,2.59h-4.5V.41Zm5.44,2.79c0-.62-.49-.97-1.36-.97h-2.05v2h1.92c.92,0,1.5-.3,1.5-1v-.03Zm-1.01,2.75h-2.4v2.08h2.47c.92,0,1.47-.32,1.47-1.03v-.03c0-.63-.47-1.03-1.54-1.03Z"/>
        <path class="mobile-cls-10" d="m42.03.41h3.69c2.97,0,5.02,2.04,5.02,4.7v.03c0,2.66-2.05,4.73-5.02,4.73h-3.69V.41Zm2.08,1.88v5.7h1.61c1.7,0,2.85-1.15,2.85-2.82v-.03c0-1.67-1.15-2.85-2.85-2.85h-1.61Z"/>
        <path class="mobile-cls-10" d="m55.85,8.9l.88-1.35c.78.57,1.61.86,2.28.86.59,0,.86-.22.86-.54v-.03c0-.45-.7-.59-1.5-.84-1.01-.3-2.16-.77-2.16-2.17v-.03c0-1.47,1.19-2.3,2.65-2.3.92,0,1.92.31,2.7.84l-.78,1.42c-.72-.42-1.43-.67-1.96-.67s-.76.22-.76.5v.03c0,.41.69.59,1.47.86,1.01.34,2.19.82,2.19,2.15v.03c0,1.61-1.2,2.34-2.77,2.34-1.01,0-2.15-.34-3.11-1.09Z"/>
        <path class="mobile-cls-10" d="m63.4,7.8v-3.43h-.86v-1.76h.86V.77h2.05v1.85h1.7v1.76h-1.7v3.09c0,.47.2.7.66.7.38,0,.72-.09,1.01-.26v1.65c-.43.26-.93.42-1.62.42-1.26,0-2.11-.5-2.11-2.17Z"/>
        <path class="mobile-cls-10" d="m68.61,7.31V2.62h2.05v4.04c0,.97.46,1.47,1.24,1.47s1.28-.5,1.28-1.47V2.62h2.05v7.24h-2.05v-1.03c-.47.61-1.08,1.16-2.12,1.16-1.55,0-2.46-1.03-2.46-2.69Z"/>
        <path class="mobile-cls-10" d="m76.75,6.25v-.03c0-2.42,1.58-3.74,3.3-3.74,1.09,0,1.77.5,2.25,1.08V0h2.05v9.86h-2.05v-1.04c-.5.68-1.19,1.18-2.25,1.18-1.69,0-3.3-1.32-3.3-3.74Zm5.58,0v-.03c0-1.2-.8-2-1.75-2s-1.77.78-1.77,2v.03c0,1.2.81,2,1.77,2s1.75-.8,1.75-2Z"/>
        <path class="mobile-cls-10" d="m90.94,2.62h2.13l-2.78,7.41c-.55,1.47-1.15,2.03-2.38,2.03-.74,0-1.3-.19-1.82-.5l.69-1.49c.27.16.61.28.88.28.35,0,.54-.11.71-.47l-2.83-7.27h2.17l1.65,4.93,1.58-4.93Z"/>
        <path class="mobile-cls-10" d="m94.27,2.62h2.19v2.16h-2.19v-2.16Zm0,5.08h2.19v2.16h-2.19v-2.16Z"/>
        <path class="mobile-cls-10" d="m.23,21.32v-.03c0-1.11.9-2,2.01-2s2.01.89,2.01,2v.03c0,1.11-.9,2-2.01,2s-2.01-.89-2.01-2Z"/>
        <path class="mobile-cls-10" d="m18,16.61h1.92l4.43,5.82v-5.82h2.05v9.45h-1.77l-4.58-6.01v6.01h-2.05v-9.45Z"/>
        <path class="mobile-cls-10" d="m32.57,18.62h6.67v1.86h-6.67v-1.86Zm0,3.51h6.67v1.86h-6.67v-1.86Z"/>
        <path class="mobile-cls-10" d="m49.64,24.02h-4.62l-.34-1.47,5.19-6.01h1.75v5.79h1.27v1.69h-1.27v2.04h-1.98v-2.04Zm0-1.69v-2.94l-2.51,2.94h2.51Z"/>
        <path class="mobile-cls-10" d="m54.18,23.46v-.03c0-1.15.53-1.82,1.53-2.28-.73-.45-1.2-1.05-1.2-2.07v-.03c0-1.44,1.32-2.59,3.32-2.59s3.32,1.13,3.32,2.59v.03c0,1.01-.47,1.62-1.2,2.07.96.5,1.53,1.11,1.53,2.23v.03c0,1.76-1.55,2.78-3.65,2.78s-3.65-1.08-3.65-2.73Zm5.28-.16v-.03c0-.73-.69-1.16-1.63-1.16s-1.63.43-1.63,1.16v.03c0,.65.61,1.17,1.63,1.17s1.63-.51,1.63-1.17Zm-.28-3.98v-.03c0-.58-.5-1.11-1.35-1.11s-1.35.51-1.35,1.09v.03c0,.66.53,1.16,1.35,1.16s1.35-.49,1.35-1.15Z"/>
        <path class="mobile-cls-10" d="m62.68,23.46v-.03c0-1.15.53-1.82,1.53-2.28-.73-.45-1.2-1.05-1.2-2.07v-.03c0-1.44,1.32-2.59,3.32-2.59s3.32,1.13,3.32,2.59v.03c0,1.01-.47,1.62-1.2,2.07.96.5,1.53,1.11,1.53,2.23v.03c0,1.76-1.55,2.78-3.65,2.78s-3.65-1.08-3.65-2.73Zm5.28-.16v-.03c0-.73-.69-1.16-1.63-1.16s-1.63.43-1.63,1.16v.03c0,.65.61,1.17,1.63,1.17s1.63-.51,1.63-1.17Zm-.28-3.98v-.03c0-.58-.5-1.11-1.35-1.11s-1.35.51-1.35,1.09v.03c0,.66.53,1.16,1.35,1.16s1.35-.49,1.35-1.15Z"/>
        <path class="mobile-cls-10" d="m75.79,19.08h1.04v1.4c.57-.84,1.39-1.55,2.67-1.55,1.67,0,3.33,1.32,3.33,3.62v.03c0,2.28-1.65,3.63-3.33,3.63-1.3,0-2.13-.7-2.67-1.49v3.5h-1.04v-9.14Zm5.98,3.51v-.03c0-1.65-1.13-2.7-2.46-2.7s-2.52,1.09-2.52,2.69v.03c0,1.62,1.23,2.7,2.52,2.7s2.46-1,2.46-2.69Z"/>
        <path class="mobile-cls-10" d="m84.23,24.03v-.03c0-1.47,1.21-2.25,2.98-2.25.89,0,1.53.12,2.15.3v-.24c0-1.26-.77-1.9-2.08-1.9-.82,0-1.47.22-2.12.51l-.31-.85c.77-.35,1.53-.58,2.54-.58s1.74.26,2.25.77c.47.47.72,1.15.72,2.04v4.27h-1v-1.05c-.49.63-1.3,1.2-2.53,1.2-1.3,0-2.61-.74-2.61-2.17Zm5.14-.54v-.68c-.51-.15-1.2-.3-2.05-.3-1.31,0-2.04.57-2.04,1.45v.03c0,.88.81,1.39,1.75,1.39,1.28,0,2.34-.78,2.34-1.89Z"/>
        <path class="mobile-cls-10" d="m92.87,24.21v-4.21h-.97v-.92h.97v-2.11h1.04v2.11h2.21v.92h-2.21v4.08c0,.85.47,1.16,1.17,1.16.35,0,.65-.07,1.01-.24v.89c-.36.19-.76.3-1.26.3-1.12,0-1.97-.55-1.97-1.97Z"/>
        <path class="mobile-cls-10" d="m97.99,16.4h1.19v1.15h-1.19v-1.15Zm.07,2.67h1.04v6.98h-1.04v-6.98Z"/>
        <path class="mobile-cls-10" d="m101.08,22.59v-.03c0-2.01,1.42-3.63,3.35-3.63,2.07,0,3.25,1.65,3.25,3.69,0,.13,0,.22-.01.34h-5.54c.15,1.51,1.22,2.36,2.46,2.36.96,0,1.63-.39,2.2-.99l.65.58c-.7.78-1.55,1.31-2.88,1.31-1.92,0-3.48-1.47-3.48-3.63Zm5.55-.4c-.11-1.27-.84-2.38-2.23-2.38-1.21,0-2.13,1.01-2.27,2.38h4.5Z"/>
        <path class="mobile-cls-10" d="m109.5,19.08h1.04v1.22c.46-.76,1.19-1.36,2.39-1.36,1.69,0,2.67,1.13,2.67,2.79v4.33h-1.04v-4.08c0-1.3-.7-2.11-1.93-2.11s-2.09.88-2.09,2.19v4h-1.04v-6.98Z"/>
        <path class="mobile-cls-10" d="m118.18,24.21v-4.21h-.97v-.92h.97v-2.11h1.04v2.11h2.21v.92h-2.21v4.08c0,.85.47,1.16,1.17,1.16.35,0,.65-.07,1.01-.24v.89c-.36.19-.76.3-1.26.3-1.12,0-1.97-.55-1.97-1.97Z"/>
        <path class="mobile-cls-10" d="m122.69,25.17l.53-.74c.76.57,1.59.89,2.42.89s1.45-.43,1.45-1.11v-.03c0-.7-.82-.97-1.74-1.23-1.09-.31-2.31-.69-2.31-1.97v-.03c0-1.2,1-2,2.38-2,.85,0,1.8.3,2.51.77l-.47.78c-.65-.42-1.39-.68-2.07-.68-.82,0-1.35.43-1.35,1.01v.03c0,.66.86.92,1.8,1.2,1.08.32,2.24.74,2.24,2v.03c0,1.32-1.09,2.09-2.48,2.09-1,0-2.11-.39-2.89-1.03Z"/>
        <path class="mobile-cls-10" d="m133.45,19.08h1.11l1.84,5.6,1.88-5.63h.86l1.89,5.63,1.84-5.6h1.08l-2.46,7.04h-.91l-1.88-5.51-1.89,5.51h-.92l-2.44-7.04Z"/>
        <path class="mobile-cls-10" d="m145.69,16.4h1.19v1.15h-1.19v-1.15Zm.07,2.67h1.04v6.98h-1.04v-6.98Z"/>
        <path class="mobile-cls-10" d="m149.58,24.21v-4.21h-.97v-.92h.97v-2.11h1.04v2.11h2.21v.92h-2.21v4.08c0,.85.47,1.16,1.17,1.16.35,0,.65-.07,1.01-.24v.89c-.36.19-.76.3-1.26.3-1.12,0-1.97-.55-1.97-1.97Z"/>
        <path class="mobile-cls-10" d="m154.67,16.2h1.04v4.09c.46-.76,1.19-1.36,2.39-1.36,1.69,0,2.67,1.13,2.67,2.79v4.33h-1.04v-4.08c0-1.3-.7-2.11-1.93-2.11s-2.09.88-2.09,2.19v4h-1.04v-9.86Z"/>
        <path class="mobile-cls-10" d="m166.59,21.36v-.03c0-2.69,2.03-4.89,4.93-4.89,1.78,0,2.85.59,3.73,1.46l-1.32,1.53c-.73-.66-1.47-1.07-2.42-1.07-1.59,0-2.74,1.32-2.74,2.94v.03c0,1.62,1.12,2.97,2.74,2.97,1.08,0,1.74-.43,2.49-1.11l1.32,1.34c-.97,1.04-2.05,1.69-3.88,1.69-2.78,0-4.85-2.15-4.85-4.86Z"/>
        <path class="mobile-cls-10" d="m176.97,16.61h3.69c2.97,0,5.02,2.04,5.02,4.7v.03c0,2.66-2.05,4.73-5.02,4.73h-3.69v-9.45Zm2.08,1.88v5.7h1.61c1.7,0,2.85-1.15,2.85-2.82v-.03c0-1.67-1.15-2.85-2.85-2.85h-1.61Z"/>
        <path class="mobile-cls-10" d="m.23,37.52v-.03c0-1.11.9-2,2.01-2s2.01.89,2.01,2v.03c0,1.11-.9,2-2.01,2s-2.01-.89-2.01-2Z"/>
        <path class="mobile-cls-10" d="m17.53,40.61l3.15-2.58c1.17-.97,1.63-1.49,1.63-2.27s-.53-1.23-1.27-1.23-1.23.41-1.93,1.27l-1.46-1.17c.93-1.27,1.84-1.96,3.52-1.96,1.96,0,3.25,1.15,3.25,2.92v.03c0,1.58-.81,2.36-2.49,3.66l-1.54,1.19h4.12v1.8h-7v-1.65Z"/>
        <path class="mobile-cls-10" d="m31.33,38.38c-.49.41-1.11.65-1.92.65-2.05,0-3.38-1.13-3.38-3.05v-.03c0-1.9,1.47-3.31,3.61-3.31,1.27,0,2.01.31,2.73,1.03.67.67,1.12,1.7,1.12,3.57v.03c0,3.07-1.44,5.16-4.13,5.16-1.38,0-2.31-.46-3.11-1.12l1.09-1.58c.69.55,1.27.81,2.07.81,1.43,0,1.84-1.34,1.92-2.15Zm.04-2.48v-.03c0-.84-.62-1.45-1.66-1.45s-1.61.59-1.61,1.43v.03c0,.84.62,1.42,1.65,1.42s1.62-.59,1.62-1.4Z"/>
        <path class="mobile-cls-10" d="m39.4,32.8h7.13v1.85h-5.06v1.92h4.46v1.85h-4.46v1.98h5.13v1.85h-7.2v-9.45Z"/>
        <path class="mobile-cls-10" d="m48.17,39.71v-4.69h2.05v4.04c0,.97.46,1.47,1.24,1.47s1.28-.5,1.28-1.47v-4.04h2.05v7.24h-2.05v-1.03c-.47.61-1.08,1.16-2.12,1.16-1.55,0-2.46-1.03-2.46-2.69Z"/>
        <path class="mobile-cls-10" d="m56.63,35.02h2.05v1.46c.42-1,1.09-1.65,2.31-1.59v2.15h-.11c-1.36,0-2.2.82-2.2,2.55v2.67h-2.05v-7.24Z"/>
        <path class="mobile-cls-10" d="m61.72,38.68v-.03c0-2.08,1.67-3.77,3.93-3.77s3.9,1.66,3.9,3.74v.03c0,2.08-1.67,3.77-3.93,3.77s-3.9-1.66-3.9-3.74Zm5.81,0v-.03c0-1.07-.77-2-1.9-2s-1.88.91-1.88,1.97v.03c0,1.07.77,2,1.9,2s1.88-.9,1.88-1.97Z"/>
        <path class="mobile-cls-10" d="m71.04,35.02h2.05v1.04c.5-.68,1.19-1.17,2.25-1.17,1.69,0,3.3,1.32,3.3,3.74v.03c0,2.42-1.58,3.74-3.3,3.74-1.09,0-1.77-.5-2.25-1.08v3.11h-2.05v-9.4Zm5.55,3.63v-.03c0-1.2-.81-2-1.77-2s-1.75.8-1.75,2v.03c0,1.2.8,2,1.75,2s1.77-.78,1.77-2Z"/>
        <path class="mobile-cls-10" d="m79.8,38.68v-.03c0-2.07,1.47-3.77,3.58-3.77,2.42,0,3.52,1.88,3.52,3.93,0,.16-.01.35-.03.54h-5.04c.2.93.85,1.42,1.77,1.42.69,0,1.19-.22,1.76-.74l1.17,1.04c-.67.84-1.65,1.35-2.96,1.35-2.17,0-3.78-1.53-3.78-3.74Zm5.1-.61c-.12-.92-.66-1.54-1.53-1.54s-1.4.61-1.57,1.54h3.09Z"/>
        <path class="mobile-cls-10" d="m88,40.18v-.03c0-1.58,1.2-2.31,2.92-2.31.73,0,1.26.12,1.77.3v-.12c0-.85-.53-1.32-1.55-1.32-.78,0-1.34.15-2,.39l-.51-1.57c.8-.35,1.58-.58,2.81-.58,1.12,0,1.93.3,2.44.81.54.54.78,1.34.78,2.31v4.2h-1.99v-.78c-.5.55-1.19.92-2.19.92-1.36,0-2.48-.78-2.48-2.21Zm4.71-.47v-.36c-.35-.16-.81-.27-1.31-.27-.88,0-1.42.35-1.42,1v.03c0,.55.46.88,1.12.88.96,0,1.61-.53,1.61-1.27Z"/>
        <path class="mobile-cls-10" d="m96.42,35.02h2.05v1.03c.47-.61,1.08-1.16,2.12-1.16,1.55,0,2.46,1.03,2.46,2.69v4.69h-2.05v-4.04c0-.97-.46-1.47-1.24-1.47s-1.28.5-1.28,1.47v4.04h-2.05v-7.24Z"/>
        <path class="mobile-cls-10" d="m109.39,32.8h1.07v9.45h-1.07v-9.45Z"/>
        <path class="mobile-cls-10" d="m113.23,32.8h4.02c1.08,0,1.93.31,2.47.84.39.41.61.91.61,1.51v.03c0,1.23-.76,1.86-1.5,2.19,1.12.34,2.03.99,2.03,2.28v.03c0,1.62-1.36,2.58-3.43,2.58h-4.2v-9.45Zm6.02,2.5c0-.93-.74-1.54-2.09-1.54h-2.88v3.25h2.79c1.28,0,2.17-.58,2.17-1.69v-.03Zm-1.98,2.66h-2.98v3.34h3.17c1.43,0,2.32-.63,2.32-1.69v-.03c0-1.03-.86-1.62-2.51-1.62Z"/>
        <path class="mobile-cls-10" d="m122.97,32.8h3.28c2.97,0,5.02,2.04,5.02,4.7v.03c0,2.66-2.05,4.73-5.02,4.73h-3.28v-9.45Zm1.07.99v7.48h2.21c2.39,0,3.92-1.62,3.92-3.71v-.03c0-2.09-1.53-3.74-3.92-3.74h-2.21Z"/>
        <path class="mobile-cls-10" d="m136.97,38.8v-.03c0-1.97,1.54-3.65,3.58-3.65,1.32,0,2.15.55,2.8,1.24l-.69.73c-.55-.58-1.17-1.05-2.12-1.05-1.42,0-2.5,1.2-2.5,2.7v.03c0,1.51,1.11,2.71,2.57,2.71.89,0,1.58-.45,2.13-1.04l.66.62c-.7.78-1.54,1.35-2.85,1.35-2.04,0-3.58-1.66-3.58-3.62Z"/>
        <path class="mobile-cls-10" d="m144.48,38.79v-.03c0-2.01,1.42-3.63,3.35-3.63,2.07,0,3.25,1.65,3.25,3.69,0,.13,0,.22-.01.34h-5.54c.15,1.51,1.22,2.36,2.46,2.36.96,0,1.63-.39,2.2-.99l.65.58c-.7.78-1.55,1.31-2.88,1.31-1.92,0-3.48-1.47-3.48-3.63Zm5.55-.41c-.11-1.27-.84-2.38-2.23-2.38-1.21,0-2.13,1.01-2.27,2.38h4.5Z"/>
        <path class="mobile-cls-10" d="m152.9,35.28h1.04v1.21c.46-.76,1.19-1.36,2.39-1.36,1.69,0,2.67,1.13,2.67,2.8v4.33h-1.04v-4.08c0-1.3-.7-2.11-1.93-2.11s-2.09.88-2.09,2.19v4h-1.04v-6.98Z"/>
        <path class="mobile-cls-10" d="m161.58,40.41v-4.21h-.97v-.92h.97v-2.11h1.04v2.11h2.21v.92h-2.21v4.08c0,.85.47,1.16,1.17,1.16.35,0,.65-.07,1.01-.24v.89c-.37.19-.76.3-1.26.3-1.12,0-1.97-.55-1.97-1.97Z"/>
        <path class="mobile-cls-10" d="m166.67,35.28h1.04v1.82c.51-1.16,1.53-2,2.85-1.94v1.12h-.08c-1.53,0-2.77,1.09-2.77,3.2v2.78h-1.04v-6.98Z"/>
        <path class="mobile-cls-10" d="m171.41,38.79v-.03c0-2.01,1.42-3.63,3.35-3.63,2.07,0,3.25,1.65,3.25,3.69,0,.13,0,.22-.01.34h-5.54c.15,1.51,1.22,2.36,2.46,2.36.96,0,1.63-.39,2.2-.99l.65.58c-.7.78-1.55,1.31-2.88,1.31-1.92,0-3.48-1.47-3.48-3.63Zm5.55-.41c-.11-1.27-.84-2.38-2.23-2.38-1.21,0-2.13,1.01-2.27,2.38h4.5Z"/>
        <path class="mobile-cls-10" d="m179.26,41.37l.53-.74c.76.57,1.59.89,2.42.89s1.45-.43,1.45-1.11v-.03c0-.7-.82-.97-1.74-1.23-1.09-.31-2.31-.69-2.31-1.97v-.03c0-1.2,1-2,2.38-2,.85,0,1.8.3,2.51.77l-.47.78c-.65-.42-1.39-.67-2.07-.67-.82,0-1.35.43-1.35,1.01v.03c0,.66.86.92,1.8,1.2,1.08.32,2.24.74,2.24,2v.03c0,1.32-1.09,2.09-2.48,2.09-1,0-2.11-.39-2.89-1.03Z"/>
        <path class="mobile-cls-10" d="m190.64,32.6h1.19v1.15h-1.19v-1.15Zm.07,2.67h1.04v6.98h-1.04v-6.98Z"/>
        <path class="mobile-cls-10" d="m194.16,35.28h1.04v1.21c.46-.76,1.19-1.36,2.39-1.36,1.69,0,2.67,1.13,2.67,2.8v4.33h-1.04v-4.08c0-1.3-.7-2.11-1.93-2.11s-2.09.88-2.09,2.19v4h-1.04v-6.98Z"/>
        <path class="mobile-cls-10" d="m201.52,35.28h1.15l2.35,5.79,2.36-5.79h1.12l-3.04,7.04h-.92l-3.02-7.04Z"/>
        <path class="mobile-cls-10" d="m209.29,38.8v-.03c0-1.97,1.54-3.65,3.65-3.65s3.63,1.65,3.63,3.62v.03c0,1.97-1.55,3.65-3.66,3.65s-3.62-1.65-3.62-3.62Zm6.21,0v-.03c0-1.5-1.12-2.73-2.59-2.73s-2.55,1.23-2.55,2.7v.03c0,1.5,1.11,2.71,2.58,2.71s2.57-1.22,2.57-2.69Z"/>
        <path class="mobile-cls-10" d="m218.54,32.4h1.04v9.86h-1.04v-9.86Z"/>
        <path class="mobile-cls-10" d="m221.31,35.28h1.15l2.35,5.79,2.36-5.79h1.12l-3.04,7.04h-.92l-3.02-7.04Z"/>
        <path class="mobile-cls-10" d="m229.08,38.79v-.03c0-2.01,1.42-3.63,3.35-3.63,2.07,0,3.25,1.65,3.25,3.69,0,.13,0,.22-.01.34h-5.54c.15,1.51,1.22,2.36,2.46,2.36.96,0,1.63-.39,2.2-.99l.65.58c-.7.78-1.55,1.31-2.88,1.31-1.92,0-3.48-1.47-3.48-3.63Zm5.55-.41c-.11-1.27-.84-2.38-2.23-2.38-1.21,0-2.13,1.01-2.27,2.38h4.5Z"/>
        <path class="mobile-cls-10" d="m237.1,38.79v-.03c0-2.28,1.66-3.63,3.34-3.63,1.3,0,2.13.7,2.67,1.49v-4.21h1.04v9.86h-1.04v-1.4c-.57.84-1.39,1.55-2.67,1.55-1.67,0-3.34-1.32-3.34-3.62Zm6.05-.01v-.03c0-1.61-1.23-2.69-2.52-2.69s-2.46,1-2.46,2.69v.03c0,1.65,1.13,2.7,2.46,2.7s2.52-1.09,2.52-2.7Z"/>
        <path class="mobile-cls-10" d="m.23,53.72v-.03c0-1.11.9-2,2.01-2s2.01.89,2.01,2v.03c0,1.11-.9,2-2.01,2s-2.01-.89-2.01-2Z"/>
        <path class="mobile-cls-10" d="m18,49h3.86c2.26,0,3.62,1.34,3.62,3.27v.03c0,2.19-1.7,3.32-3.82,3.32h-1.58v2.84h-2.08v-9.45Zm3.73,4.77c1.04,0,1.65-.62,1.65-1.43v-.03c0-.93-.65-1.43-1.69-1.43h-1.61v2.89h1.65Z"/>
        <path class="mobile-cls-10" d="m26.8,51.22h2.05v1.46c.42-1,1.09-1.65,2.31-1.59v2.15h-.11c-1.36,0-2.2.82-2.2,2.55v2.67h-2.05v-7.24Z"/>
        <path class="mobile-cls-10" d="m31.89,54.88v-.03c0-2.08,1.67-3.77,3.93-3.77s3.9,1.66,3.9,3.74v.03c0,2.08-1.67,3.77-3.93,3.77s-3.9-1.66-3.9-3.74Zm5.81,0v-.03c0-1.07-.77-2-1.9-2s-1.88.9-1.88,1.97v.03c0,1.07.77,2,1.9,2s1.88-.9,1.88-1.97Z"/>
        <path class="mobile-cls-10" d="m40.64,57.5l.88-1.35c.78.57,1.61.86,2.28.86.59,0,.86-.22.86-.54v-.03c0-.45-.7-.59-1.5-.84-1.01-.3-2.16-.77-2.16-2.17v-.03c0-1.47,1.19-2.3,2.65-2.3.92,0,1.92.31,2.7.84l-.78,1.42c-.72-.42-1.43-.67-1.96-.67s-.76.22-.76.5v.03c0,.41.69.59,1.47.86,1.01.34,2.19.82,2.19,2.15v.03c0,1.61-1.2,2.34-2.77,2.34-1.01,0-2.15-.34-3.11-1.09Z"/>
        <path class="mobile-cls-10" d="m47.98,51.22h2.05v1.04c.5-.67,1.19-1.17,2.25-1.17,1.69,0,3.3,1.32,3.3,3.74v.03c0,2.42-1.58,3.74-3.3,3.74-1.09,0-1.77-.5-2.25-1.08v3.11h-2.05v-9.4Zm5.55,3.63v-.03c0-1.2-.81-2-1.77-2s-1.75.8-1.75,2v.03c0,1.2.8,2,1.75,2s1.77-.78,1.77-2Z"/>
        <path class="mobile-cls-10" d="m56.74,54.88v-.03c0-2.07,1.47-3.77,3.58-3.77,2.42,0,3.52,1.88,3.52,3.93,0,.16-.01.35-.03.54h-5.04c.2.93.85,1.42,1.77,1.42.69,0,1.19-.22,1.76-.74l1.17,1.04c-.67.84-1.65,1.35-2.96,1.35-2.17,0-3.78-1.53-3.78-3.74Zm5.1-.61c-.12-.92-.66-1.54-1.53-1.54s-1.4.61-1.57,1.54h3.09Z"/>
        <path class="mobile-cls-10" d="m65.02,54.88v-.03c0-2.07,1.58-3.77,3.79-3.77,1.36,0,2.21.46,2.89,1.22l-1.26,1.35c-.46-.49-.92-.8-1.65-.8-1.03,0-1.76.9-1.76,1.97v.03c0,1.11.72,2,1.84,2,.69,0,1.16-.3,1.66-.77l1.2,1.22c-.7.77-1.51,1.32-2.96,1.32-2.17,0-3.77-1.67-3.77-3.74Z"/>
        <path class="mobile-cls-10" d="m73.42,56.4v-3.43h-.86v-1.76h.86v-1.85h2.05v1.85h1.7v1.76h-1.7v3.09c0,.47.2.7.66.7.38,0,.72-.09,1.01-.26v1.65c-.43.26-.93.42-1.62.42-1.26,0-2.11-.5-2.11-2.17Z"/>
        <path class="mobile-cls-10" d="m78.72,48.6h2.16v1.82h-2.16v-1.82Zm.05,2.62h2.05v7.24h-2.05v-7.24Z"/>
        <path class="mobile-cls-10" d="m82.11,51.22h2.17l1.62,4.85,1.63-4.85h2.13l-2.85,7.29h-1.86l-2.85-7.29Z"/>
        <path class="mobile-cls-10" d="m90.1,54.88v-.03c0-2.07,1.47-3.77,3.58-3.77,2.42,0,3.52,1.88,3.52,3.93,0,.16-.01.35-.03.54h-5.04c.2.93.85,1.42,1.77,1.42.69,0,1.19-.22,1.76-.74l1.17,1.04c-.67.84-1.65,1.35-2.96,1.35-2.17,0-3.78-1.53-3.78-3.74Zm5.1-.61c-.12-.92-.66-1.54-1.53-1.54s-1.4.61-1.57,1.54h3.09Z"/>
        <path class="mobile-cls-10" d="m102.49,56.43v-.03c0-1.47,1.21-2.25,2.98-2.25.89,0,1.53.12,2.15.3v-.24c0-1.26-.77-1.9-2.08-1.9-.82,0-1.47.22-2.12.51l-.31-.85c.77-.35,1.53-.58,2.54-.58s1.74.26,2.25.77c.47.47.72,1.15.72,2.04v4.27h-1v-1.05c-.49.63-1.3,1.2-2.53,1.2-1.3,0-2.61-.74-2.61-2.17Zm5.14-.54v-.68c-.51-.15-1.2-.3-2.05-.3-1.31,0-2.04.57-2.04,1.45v.03c0,.88.81,1.39,1.75,1.39,1.28,0,2.34-.78,2.34-1.89Z"/>
        <path class="mobile-cls-10" d="m110.84,51.48h1.04v1.22c.46-.76,1.19-1.36,2.39-1.36,1.69,0,2.67,1.13,2.67,2.79v4.33h-1.04v-4.08c0-1.3-.7-2.11-1.93-2.11s-2.09.88-2.09,2.19v4h-1.04v-6.98Z"/>
        <path class="mobile-cls-10" d="m118.75,54.99v-.03c0-2.28,1.66-3.63,3.34-3.63,1.3,0,2.13.7,2.67,1.49v-4.21h1.04v9.86h-1.04v-1.4c-.57.84-1.39,1.55-2.67,1.55-1.67,0-3.34-1.32-3.34-3.62Zm6.05-.01v-.03c0-1.61-1.23-2.69-2.52-2.69s-2.46,1-2.46,2.69v.03c0,1.65,1.13,2.7,2.46,2.7s2.52-1.09,2.52-2.7Z"/>
        <path class="mobile-cls-10" d="m131.92,51.22h2.05v1.04c.5-.67,1.19-1.17,2.25-1.17,1.69,0,3.3,1.32,3.3,3.74v.03c0,2.42-1.58,3.74-3.3,3.74-1.09,0-1.77-.5-2.25-1.08v3.11h-2.05v-9.4Zm5.55,3.63v-.03c0-1.2-.81-2-1.77-2s-1.75.8-1.75,2v.03c0,1.2.8,2,1.75,2s1.77-.78,1.77-2Z"/>
        <path class="mobile-cls-10" d="m140.69,54.88v-.03c0-2.08,1.67-3.77,3.93-3.77s3.9,1.66,3.9,3.74v.03c0,2.08-1.67,3.77-3.93,3.77s-3.9-1.66-3.9-3.74Zm5.81,0v-.03c0-1.07-.77-2-1.9-2s-1.88.9-1.88,1.97v.03c0,1.07.77,2,1.9,2s1.88-.9,1.88-1.97Z"/>
        <path class="mobile-cls-10" d="m150,51.22h2.05v1.04c.5-.67,1.19-1.17,2.25-1.17,1.69,0,3.3,1.32,3.3,3.74v.03c0,2.42-1.58,3.74-3.3,3.74-1.09,0-1.77-.5-2.25-1.08v3.11h-2.05v-9.4Zm5.55,3.63v-.03c0-1.2-.81-2-1.77-2s-1.75.8-1.75,2v.03c0,1.2.8,2,1.75,2s1.77-.78,1.77-2Z"/>
        <path class="mobile-cls-10" d="m159.06,55.91v-4.69h2.05v4.04c0,.97.46,1.47,1.24,1.47s1.28-.5,1.28-1.47v-4.04h2.05v7.24h-2.05v-1.03c-.47.61-1.08,1.16-2.12,1.16-1.55,0-2.46-1.03-2.46-2.69Z"/>
        <path class="mobile-cls-10" d="m167.62,48.6h2.05v9.86h-2.05v-9.86Z"/>
        <path class="mobile-cls-10" d="m171.17,56.38v-.03c0-1.58,1.2-2.31,2.92-2.31.73,0,1.26.12,1.77.3v-.12c0-.85-.53-1.32-1.55-1.32-.78,0-1.34.15-2,.39l-.51-1.57c.8-.35,1.58-.58,2.81-.58,1.12,0,1.93.3,2.44.81.54.54.78,1.34.78,2.31v4.2h-1.99v-.78c-.5.55-1.19.92-2.19.92-1.36,0-2.48-.78-2.48-2.21Zm4.71-.47v-.37c-.35-.16-.81-.27-1.31-.27-.88,0-1.42.35-1.42,1v.03c0,.55.46.88,1.12.88.96,0,1.61-.53,1.61-1.27Z"/>
        <path class="mobile-cls-10" d="m179.86,56.4v-3.43h-.86v-1.76h.86v-1.85h2.05v1.85h1.7v1.76h-1.7v3.09c0,.47.2.7.66.7.38,0,.72-.09,1.01-.26v1.65c-.43.26-.93.42-1.62.42-1.26,0-2.11-.5-2.11-2.17Z"/>
        <path class="mobile-cls-10" d="m185.17,48.6h2.16v1.82h-2.16v-1.82Zm.05,2.62h2.05v7.24h-2.05v-7.24Z"/>
        <path class="mobile-cls-10" d="m188.85,54.88v-.03c0-2.08,1.67-3.77,3.93-3.77s3.9,1.66,3.9,3.74v.03c0,2.08-1.67,3.77-3.93,3.77s-3.9-1.66-3.9-3.74Zm5.81,0v-.03c0-1.07-.77-2-1.9-2s-1.88.9-1.88,1.97v.03c0,1.07.77,2,1.9,2s1.88-.9,1.88-1.97Z"/>
        <path class="mobile-cls-10" d="m198.17,51.22h2.05v1.03c.47-.61,1.08-1.16,2.12-1.16,1.55,0,2.46,1.03,2.46,2.69v4.69h-2.05v-4.04c0-.97-.46-1.47-1.24-1.47s-1.28.5-1.28,1.47v4.04h-2.05v-7.24Z"/>
        <path class="mobile-cls-10" d="m212.68,57.51v.95h-2.05v-9.86h2.05v3.66c.5-.67,1.19-1.17,2.25-1.17,1.69,0,3.3,1.32,3.3,3.74v.03c0,2.42-1.58,3.74-3.3,3.74-1.09,0-1.77-.5-2.25-1.08Zm3.5-2.66v-.03c0-1.2-.81-2-1.77-2s-1.75.8-1.75,2v.03c0,1.2.8,2,1.75,2s1.77-.78,1.77-2Z"/>
        <path class="mobile-cls-10" d="m219.31,56.38v-.03c0-1.58,1.2-2.31,2.92-2.31.73,0,1.26.12,1.77.3v-.12c0-.85-.53-1.32-1.55-1.32-.78,0-1.34.15-2,.39l-.51-1.57c.8-.35,1.58-.58,2.81-.58,1.12,0,1.93.3,2.44.81.54.54.78,1.34.78,2.31v4.2h-1.99v-.78c-.5.55-1.19.92-2.19.92-1.36,0-2.48-.78-2.48-2.21Zm4.71-.47v-.37c-.35-.16-.81-.27-1.31-.27-.88,0-1.42.35-1.42,1v.03c0,.55.46.88,1.12.88.96,0,1.61-.53,1.61-1.27Z"/>
        <path class="mobile-cls-10" d="m227.17,57.5l.88-1.35c.78.57,1.61.86,2.28.86.59,0,.86-.22.86-.54v-.03c0-.45-.7-.59-1.5-.84-1.01-.3-2.16-.77-2.16-2.17v-.03c0-1.47,1.19-2.3,2.65-2.3.92,0,1.92.31,2.7.84l-.78,1.42c-.72-.42-1.43-.67-1.96-.67s-.76.22-.76.5v.03c0,.41.69.59,1.47.86,1.01.34,2.19.82,2.19,2.15v.03c0,1.61-1.2,2.34-2.77,2.34-1.01,0-2.15-.34-3.11-1.09Z"/>
        <path class="mobile-cls-10" d="m234.16,54.88v-.03c0-2.07,1.47-3.77,3.58-3.77,2.42,0,3.52,1.88,3.52,3.93,0,.16-.01.35-.03.54h-5.04c.2.93.85,1.42,1.77,1.42.69,0,1.19-.22,1.76-.74l1.17,1.04c-.67.84-1.65,1.35-2.96,1.35-2.17,0-3.78-1.53-3.78-3.74Zm5.1-.61c-.12-.92-.66-1.54-1.53-1.54s-1.4.61-1.57,1.54h3.09Z"/>
        <path class="mobile-cls-10" d="m242.46,54.85v-.03c0-2.42,1.58-3.74,3.3-3.74,1.09,0,1.77.5,2.25,1.08v-3.56h2.05v9.86h-2.05v-1.04c-.5.68-1.19,1.17-2.25,1.17-1.69,0-3.3-1.32-3.3-3.74Zm5.58,0v-.03c0-1.2-.8-2-1.75-2s-1.77.78-1.77,2v.03c0,1.2.81,2,1.77,2s1.75-.8,1.75-2Z"/>
        <path class="mobile-cls-10" d="m.23,69.92v-.03c0-1.11.9-2,2.01-2s2.01.89,2.01,2v.03c0,1.11-.9,2-2.01,2s-2.01-.89-2.01-2Z"/>
        <path class="mobile-cls-10" d="m17.45,73.4l1.26-1.5c.72.65,1.42,1.03,2.25,1.03.97,0,1.58-.47,1.58-1.31v-.03c0-.81-.69-1.28-1.67-1.28-.59,0-1.13.16-1.58.35l-1.2-.8.27-4.66h5.81v1.82h-4.02l-.11,1.63c.38-.09.72-.16,1.24-.16,1.84,0,3.31.89,3.31,3.03v.03c0,2-1.42,3.27-3.59,3.27-1.51,0-2.62-.54-3.54-1.42Z"/>
        <path class="mobile-cls-10" d="m26.04,69.49h4.16v1.97h-4.16v-1.97Z"/>
        <path class="mobile-cls-10" d="m36.35,67.42h2.13l-2.78,7.41c-.55,1.47-1.15,2.03-2.38,2.03-.74,0-1.3-.19-1.82-.5l.69-1.49c.27.16.61.28.88.28.35,0,.54-.11.71-.47l-2.83-7.27h2.17l1.65,4.93,1.58-4.93Z"/>
        <path class="mobile-cls-10" d="m38.94,71.08v-.03c0-2.07,1.47-3.77,3.58-3.77,2.42,0,3.52,1.88,3.52,3.93,0,.16-.01.35-.03.54h-5.04c.2.93.85,1.42,1.77,1.42.69,0,1.19-.22,1.76-.74l1.17,1.04c-.67.84-1.65,1.35-2.96,1.35-2.17,0-3.78-1.53-3.78-3.74Zm5.1-.61c-.12-.92-.66-1.54-1.53-1.54s-1.4.61-1.57,1.54h3.09Z"/>
        <path class="mobile-cls-10" d="m47.13,72.58v-.03c0-1.58,1.2-2.31,2.92-2.31.73,0,1.26.12,1.77.3v-.12c0-.85-.53-1.32-1.55-1.32-.78,0-1.34.15-2,.39l-.51-1.57c.8-.35,1.58-.58,2.81-.58,1.12,0,1.93.3,2.44.81.54.54.78,1.34.78,2.31v4.2h-1.99v-.78c-.5.55-1.19.92-2.19.92-1.36,0-2.48-.78-2.48-2.21Zm4.71-.47v-.36c-.35-.16-.81-.27-1.31-.27-.88,0-1.42.35-1.42,1v.03c0,.55.46.88,1.12.88.96,0,1.61-.53,1.61-1.27Z"/>
        <path class="mobile-cls-10" d="m55.56,67.42h2.05v1.46c.42-1,1.09-1.65,2.31-1.59v2.15h-.11c-1.36,0-2.2.82-2.2,2.55v2.67h-2.05v-7.24Z"/>
        <path class="mobile-cls-10" d="m65.6,69.17h-.85v-1.69h.85v-.46c0-.8.2-1.38.58-1.76.38-.38.93-.57,1.66-.57.65,0,1.08.08,1.46.2v1.7c-.3-.11-.58-.17-.93-.17-.47,0-.74.24-.74.78v.28h1.66v1.67h-1.63v5.48h-2.05v-5.48Z"/>
        <path class="mobile-cls-10" d="m69.92,71.08v-.03c0-2.08,1.67-3.77,3.93-3.77s3.9,1.66,3.9,3.74v.03c0,2.08-1.67,3.77-3.93,3.77s-3.9-1.66-3.9-3.74Zm5.81,0v-.03c0-1.07-.77-2-1.9-2s-1.88.91-1.88,1.97v.03c0,1.07.77,2,1.9,2s1.88-.9,1.88-1.97Z"/>
        <path class="mobile-cls-10" d="m79.33,64.8h2.05v9.86h-2.05v-9.86Z"/>
        <path class="mobile-cls-10" d="m83.41,64.8h2.05v9.86h-2.05v-9.86Z"/>
        <path class="mobile-cls-10" d="m87.04,71.08v-.03c0-2.08,1.67-3.77,3.93-3.77s3.9,1.66,3.9,3.74v.03c0,2.08-1.67,3.77-3.93,3.77s-3.9-1.66-3.9-3.74Zm5.81,0v-.03c0-1.07-.77-2-1.9-2s-1.88.91-1.88,1.97v.03c0,1.07.77,2,1.9,2s1.88-.9,1.88-1.97Z"/>
        <path class="mobile-cls-10" d="m95.42,67.42h2.08l1.16,4.39,1.36-4.42h1.77l1.38,4.43,1.19-4.4h2.04l-2.25,7.29h-1.85l-1.39-4.44-1.42,4.44h-1.84l-2.23-7.29Z"/>
        <path class="mobile-cls-10" d="m107.26,69.49h4.16v1.97h-4.16v-1.97Z"/>
        <path class="mobile-cls-10" d="m112.96,72.1v-4.69h2.05v4.04c0,.97.46,1.47,1.24,1.47s1.28-.5,1.28-1.47v-4.04h2.05v7.24h-2.05v-1.03c-.47.61-1.08,1.16-2.12,1.16-1.55,0-2.46-1.03-2.46-2.69Z"/>
        <path class="mobile-cls-10" d="m121.42,67.42h2.05v1.04c.5-.68,1.19-1.17,2.25-1.17,1.69,0,3.3,1.32,3.3,3.74v.03c0,2.42-1.58,3.74-3.3,3.74-1.09,0-1.77-.5-2.25-1.08v3.11h-2.05v-9.4Zm5.55,3.63v-.03c0-1.2-.81-2-1.77-2s-1.75.8-1.75,2v.03c0,1.2.8,2,1.75,2s1.77-.78,1.77-2Z"/>
        <path class="mobile-cls-10" d="m135.22,68.59h-.96v-.9h.96v-.61c0-.8.22-1.4.61-1.8.35-.35.87-.54,1.5-.54.49,0,.81.05,1.15.18v.9c-.38-.11-.66-.17-1.01-.17-.81,0-1.22.49-1.22,1.49v.57h2.21v.89h-2.2v6.06h-1.04v-6.06Z"/>
        <path class="mobile-cls-10" d="m139.78,67.68h1.04v1.82c.51-1.16,1.53-2,2.85-1.95v1.12h-.08c-1.53,0-2.77,1.09-2.77,3.2v2.78h-1.04v-6.98Z"/>
        <path class="mobile-cls-10" d="m144.52,71.2v-.03c0-1.97,1.54-3.65,3.65-3.65s3.63,1.65,3.63,3.62v.03c0,1.97-1.55,3.65-3.66,3.65s-3.62-1.65-3.62-3.62Zm6.21,0v-.03c0-1.5-1.12-2.73-2.59-2.73s-2.55,1.23-2.55,2.7v.03c0,1.5,1.11,2.71,2.58,2.71s2.57-1.22,2.57-2.69Z"/>
        <path class="mobile-cls-10" d="m153.67,67.68h1.04v1.17c.46-.69,1.08-1.32,2.25-1.32s1.86.61,2.24,1.39c.5-.77,1.24-1.39,2.46-1.39,1.61,0,2.59,1.08,2.59,2.81v4.32h-1.04v-4.08c0-1.35-.68-2.11-1.81-2.11-1.05,0-1.93.78-1.93,2.16v4.02h-1.03v-4.11c0-1.31-.69-2.08-1.8-2.08s-1.94.92-1.94,2.2v3.98h-1.04v-6.98Z"/>
        <path class="mobile-cls-10" d="m170.11,71.19v-.03c0-2.28,1.66-3.63,3.34-3.63,1.3,0,2.13.7,2.67,1.49v-4.21h1.04v9.86h-1.04v-1.4c-.57.84-1.39,1.55-2.67,1.55-1.67,0-3.34-1.32-3.34-3.62Zm6.05-.01v-.03c0-1.61-1.23-2.69-2.52-2.69s-2.46,1-2.46,2.69v.03c0,1.65,1.13,2.7,2.46,2.7s2.52-1.09,2.52-2.7Z"/>
        <path class="mobile-cls-10" d="m179.51,65h1.19v1.15h-1.19v-1.15Zm.07,2.67h1.04v6.98h-1.04v-6.98Z"/>
        <path class="mobile-cls-10" d="m182.51,72.63v-.03c0-1.47,1.21-2.25,2.98-2.25.89,0,1.53.12,2.15.3v-.24c0-1.26-.77-1.9-2.08-1.9-.82,0-1.47.22-2.12.51l-.31-.85c.77-.35,1.53-.58,2.54-.58s1.74.26,2.25.77c.47.47.72,1.15.72,2.04v4.27h-1v-1.05c-.49.63-1.3,1.2-2.53,1.2-1.3,0-2.61-.74-2.61-2.17Zm5.14-.54v-.68c-.51-.15-1.2-.3-2.05-.3-1.31,0-2.04.57-2.04,1.45v.03c0,.88.81,1.39,1.75,1.39,1.28,0,2.34-.78,2.34-1.89Z"/>
        <path class="mobile-cls-10" d="m190.77,75.87l.47-.81c.8.58,1.69.89,2.69.89,1.54,0,2.54-.85,2.54-2.48v-.82c-.61.81-1.46,1.47-2.74,1.47-1.67,0-3.28-1.26-3.28-3.27v-.03c0-2.04,1.62-3.29,3.28-3.29,1.31,0,2.16.65,2.73,1.4v-1.26h1.04v5.77c0,1.08-.32,1.9-.89,2.47-.62.62-1.55.93-2.66.93s-2.24-.32-3.17-.97Zm5.73-5.04v-.03c0-1.43-1.24-2.36-2.57-2.36s-2.42.92-2.42,2.35v.03c0,1.4,1.12,2.38,2.42,2.38s2.57-.96,2.57-2.36Z"/>
        <path class="mobile-cls-10" d="m199.81,67.68h1.04v1.21c.46-.76,1.19-1.36,2.39-1.36,1.69,0,2.67,1.13,2.67,2.79v4.33h-1.04v-4.08c0-1.3-.7-2.11-1.93-2.11s-2.09.88-2.09,2.19v4h-1.04v-6.98Z"/>
        <path class="mobile-cls-10" d="m207.7,71.2v-.03c0-1.97,1.54-3.65,3.65-3.65s3.63,1.65,3.63,3.62v.03c0,1.97-1.55,3.65-3.66,3.65s-3.62-1.65-3.62-3.62Zm6.21,0v-.03c0-1.5-1.12-2.73-2.59-2.73s-2.55,1.23-2.55,2.7v.03c0,1.5,1.11,2.71,2.58,2.71s2.57-1.22,2.57-2.69Z"/>
        <path class="mobile-cls-10" d="m216.27,73.77l.53-.74c.76.57,1.59.89,2.42.89s1.45-.43,1.45-1.11v-.03c0-.7-.82-.97-1.74-1.23-1.09-.31-2.31-.69-2.31-1.97v-.03c0-1.2,1-2,2.38-2,.85,0,1.8.3,2.51.77l-.47.78c-.65-.42-1.39-.68-2.07-.68-.82,0-1.35.43-1.35,1.01v.03c0,.66.86.92,1.8,1.2,1.08.32,2.24.74,2.24,2v.03c0,1.32-1.09,2.09-2.48,2.09-1,0-2.11-.39-2.89-1.03Z"/>
        <path class="mobile-cls-10" d="m223.6,65h1.19v1.15h-1.19v-1.15Zm.07,2.67h1.04v6.98h-1.04v-6.98Z"/>
        <path class="mobile-cls-10" d="m226.54,73.77l.53-.74c.76.57,1.59.89,2.42.89s1.45-.43,1.45-1.11v-.03c0-.7-.82-.97-1.74-1.23-1.09-.31-2.31-.69-2.31-1.97v-.03c0-1.2,1-2,2.38-2,.85,0,1.8.3,2.51.77l-.47.78c-.65-.42-1.39-.68-2.07-.68-.82,0-1.35.43-1.35,1.01v.03c0,.66.86.92,1.8,1.2,1.08.32,2.24.74,2.24,2v.03c0,1.32-1.09,2.09-2.48,2.09-1,0-2.11-.39-2.89-1.03Z"/>
      </g>
    </g>
  </g>
</svg>