<?xml version="1.0" encoding="UTF-8"?>
<svg id="entyvio_logo_svg" data-name="entyvio_logo_svg" xmlns="http://www.w3.org/2000/svg" xmlns:xlink="http://www.w3.org/1999/xlink" viewBox="0 0 113.02 41.28">
  <defs>
    <style>
      .entyvio_cls-1 {
        fill: url(#entyvio_linear-gradient);
      }

      .entyvio_cls-1, .entyvio_cls-2, .entyvio_cls-3 {
        stroke-width: 0px;
      }

      .entyvio_cls-2 {
        fill: #808982;
      }

      .entyvio_cls-3 {
        fill: #881d81;
      }
    </style>
    <linearGradient id="entyvio_linear-gradient" x1="1302.62" y1="-11773.69" x2="1328.47" y2="-11748.26" gradientTransform="translate(3485.47 -11450.06) rotate(9.98) scale(.87 -1.01) skewX(14.08)" gradientUnits="userSpaceOnUse">
      <stop offset="0" stop-color="#872680"/>
      <stop offset=".01" stop-color="#882680"/>
      <stop offset=".22" stop-color="#9f2c74"/>
      <stop offset=".42" stop-color="#b1335f"/>
      <stop offset=".61" stop-color="#bf384d"/>
      <stop offset=".77" stop-color="#c93b3d"/>
      <stop offset=".91" stop-color="#cf3d33"/>
      <stop offset="1" stop-color="#d13d2f"/>
    </linearGradient>
  </defs>
  <g id="entyvio_logo_svg_wrap" data-name="entyvio_logo_svg_wrap">
    <g>
      <path class="entyvio_cls-3" d="m111.69,14.99c-.2,0-.36-.03-.52-.1s-.29-.16-.42-.29-.23-.26-.29-.42c-.07-.16-.1-.33-.1-.52s.03-.36.1-.52c.07-.16.16-.29.29-.42.13-.13.26-.23.42-.29s.33-.1.52-.1.36.03.52.1.29.16.42.29.23.26.29.42c.07.16.1.33.1.52s-.03.36-.1.52c-.07.16-.16.29-.29.42-.13.13-.26.23-.42.29s-.33.1-.52.1Zm0-.16c.16,0,.33-.03.46-.1s.26-.13.36-.26c.1-.1.2-.23.23-.36.07-.13.1-.29.1-.46s-.03-.33-.1-.46c-.07-.13-.13-.26-.23-.36-.1-.1-.23-.2-.36-.26s-.29-.1-.46-.1-.33.03-.46.1-.26.13-.36.26c-.1.1-.2.23-.23.36-.07.13-.1.29-.1.46s.03.33.1.46c.07.13.13.26.23.36.1.1.23.2.36.26s.29.1.46.1Zm.68-.42h-.23l-.42-.68h-.33v.68h-.2v-1.53h.65c.2,0,.33.03.42.1.07.07.13.16.13.29,0,.07,0,.13-.03.2-.03.07-.07.1-.1.13-.03.03-.1.07-.16.07s-.13.03-.2.03l.46.72Zm-.72-.85h.16c.07,0,.13,0,.16-.03.07,0,.1-.03.13-.07.03-.03.07-.1.07-.16s0-.1-.03-.13c-.03-.03-.07-.07-.1-.07-.03-.03-.07-.03-.13-.03h-.55v.55h.29v-.07Z"/>
      <g>
        <path class="entyvio_cls-3" d="m38.88,25.66h-9.5c-.75,0-.94-.1-.81-.81l2.99-17.08c.13-.68.42-.72,1.07-.72h9.5c1.01,0,.62.81.52,1.5-.1.59-.2.88-.94.88-2.47,0-4.95-.03-7.42-.1l-.98,5.6c2.28-.07,4.52-.1,6.8-.1.94,0,.62.68.52,1.27-.1.59-.2.88-.94.88-2.24,0-4.49-.07-6.73-.1l-1.14,6.47c2.51-.1,5.01-.1,7.48-.1.72,0,.68.33.59.88l-.13.78c-.07.55-.29.75-.88.75Z"/>
        <path class="entyvio_cls-3" d="m52.67,25.66h-1.07c-.88,0-1.07.03-.94-.81l1.3-7.48c.1-.49.42-2.18.13-2.57-.29-.36-.81-.42-1.33-.42-1.79,0-3.16.91-4.65,1.85l-1.53,8.59c-.1.49-.2.81-.81.81h-1.07c-.88,0-1.07.03-.94-.81l2.02-11.39c.1-.65.26-.75.94-.75h1.37c.78,0,.55.72.46,1.2,1.72-1.04,2.99-1.63,4.98-1.63,2.67,0,3.97,1.2,3.55,3.58l-1.59,8.98c-.03.52-.16.85-.78.85Z"/>
        <path class="entyvio_cls-3" d="m64.29,14.73h-3.22l-1.27,7.06c-.16.85-.52,2.11.81,2.11.91,0,1.85-.42,2.6-.42.29,0,.29.1.26.36l-.2,1.07c-.13.68-.16.81-.94.88-.88.1-1.79.13-2.67.13-3.32,0-3.19-1.4-2.73-4.03l1.27-7.16c-1.69,0-1.59.1-1.33-1.4.13-.81,1.11-.65,1.69-.65l.46-2.6c.1-.62.26-.75.94-.75h1.37c.49,0,.62.36.55.75l-.46,2.6h3.22c.94,0,.81.29.68,1.04-.13.75-.16,1.01-1.04,1.01Z"/>
        <path class="entyvio_cls-3" d="m78.41,13.82l-9.14,16.17c-.26.49-.46.52-1.01.52h-1.63c-.26,0-.49.03-.46-.26.03-.16.2-.36.26-.49l2.9-4.49c-.26-1.07-3.09-11.91-3.03-12.27.03-.26.39-.29.62-.29h1.46c.52,0,.94-.03,1.04.49l1.72,9.08,4.62-8.78c.33-.59.52-.78,1.24-.78h1.43c.26,0,.52.07.46.33-.1.16-.39.62-.49.78Z"/>
        <path class="entyvio_cls-3" d="m85.01,24.91c-.26.49-.46.72-1.07.72h-1.43c-.68,0-.72-.16-.85-.72l-2.51-11.68c0-.1-.03-.2,0-.29.03-.26.33-.26.55-.26h1.76c.62,0,.68.1.78.65l1.53,9.17,4.78-9.14c.29-.52.39-.68,1.01-.68h1.66c.23,0,.49.03.46.29-.03.42-6.02,10.83-6.67,11.94Z"/>
        <path class="entyvio_cls-3" d="m92.85,25.66h-1.2c-.85,0-1.04,0-.91-.81l2.02-11.39c.1-.62.26-.75.94-.75h1.46c.49,0,.62.36.55.75l-2.02,11.39c-.13.49-.23.81-.85.81Zm2.64-15.06h-1.2c-.85,0-1.04,0-.91-.81l.16-1.01c.1-.62.26-.75.94-.75h1.46c.49,0,.62.36.55.75l-.16,1.01c-.1.49-.23.81-.85.81Z"/>
        <path class="entyvio_cls-3" d="m101.93,26.02c-5.01,0-6.02-2.77-5.3-6.86.72-4.13,2.67-6.86,7.71-6.86s5.99,2.8,5.27,6.86c-.68,4.07-2.7,6.86-7.68,6.86Zm4.85-10.44c-.49-1.14-1.46-1.17-2.8-1.17s-2.31.03-3.22,1.17c-.72.98-1.07,2.51-1.24,3.58-.2,1.07-.39,2.6,0,3.58.46,1.14,1.5,1.14,2.8,1.14s2.34-.03,3.19-1.14c.72-.94,1.07-2.54,1.24-3.58.2-1.07.42-2.6.03-3.58Z"/>
        <g>
          <polygon class="entyvio_cls-2" points="33.44 33.24 29.87 40.17 29.44 40.17 28.99 33.24 27.98 33.24 28.53 41.12 30.39 41.12 34.49 33.24 33.44 33.24"/>
          <path class="entyvio_cls-2" d="m38.36,33.11c-1.76,0-3.19,1.2-3.61,3.03l-.26,1.2c-.36,1.63-.29,2.6.2,3.22.39.49,1.01.72,1.92.72h0c.68,0,2.6-.13,2.7-.13h.16l.2-.94-.29.03s-1.63.13-2.64.13c-.59,0-.98-.13-1.2-.42-.33-.39-.36-1.14-.1-2.31h5.04l.29-1.37c.23-1.01.13-1.79-.29-2.31-.46-.59-1.17-.85-2.11-.85Zm1.27,1.4c.26.33.33.88.16,1.59l-.13.55h-4.07l.1-.46c.29-1.33,1.27-2.18,2.54-2.18.68,0,1.14.16,1.4.49Z"/>
          <path class="entyvio_cls-2" d="m47.69,33.34c-.52-.07-1.85-.23-2.47-.23-1.43,0-2.73,1.24-3.12,2.93l-.55,2.51c-.2.81-.07,1.5.33,1.98.36.46.94.68,1.63.68s1.95-.52,2.6-.81l-.16.65h.98l2.51-11.13h-.98l-.75,3.42Zm-5.21,5.3l.55-2.47c.29-1.24,1.14-2.15,2.05-2.15.55,0,1.85.16,2.37.26l-1.14,5.14c-.65.29-2.15.91-2.73.91-.39,0-.68-.13-.91-.39-.23-.33-.29-.78-.2-1.3Z"/>
          <path class="entyvio_cls-2" d="m54.23,33.15h-.94c-1.56,0-2.86,1.17-3.25,2.9l-.49,2.21c-.2.91-.1,1.69.36,2.24.39.46.98.72,1.69.72h.94c1.56,0,2.86-1.14,3.25-2.86l.49-2.21c.2-.94.1-1.72-.36-2.28-.36-.46-.94-.72-1.69-.72Zm-1.59,7.12h-.94c-.42,0-.75-.13-.98-.42-.29-.36-.36-.88-.23-1.53l.49-2.21c.23-1.01,1.07-2.08,2.18-2.08h.94c.42,0,.75.13.94.42.29.36.36.91.23,1.56l-.49,2.21c-.23,1.2-1.14,2.05-2.15,2.05Z"/>
          <polygon class="entyvio_cls-2" points="57.13 41.12 58.11 41.12 60.61 29.96 59.63 29.96 57.13 41.12"/>
          <polygon class="entyvio_cls-2" points="60.68 41.12 61.65 41.12 63.44 33.24 62.47 33.24 60.68 41.12"/>
          <polygon class="entyvio_cls-2" points="64.06 30.41 63.08 30.41 62.79 31.68 63.77 31.68 64.06 30.41"/>
          <polygon class="entyvio_cls-2" points="65.1 34.15 69.56 34.15 63.77 40.27 63.73 40.3 63.54 41.12 69.26 41.12 69.46 40.17 65.07 40.17 70.79 34.09 70.86 34.06 71.02 33.24 65.33 33.24 65.1 34.15"/>
          <path class="entyvio_cls-2" d="m76.26,39.59c-.65.23-2.15.72-2.67.72-.36,0-.68-.13-.91-.39-.26-.29-.33-.75-.2-1.27l1.2-5.43h-.98l-1.2,5.34c-.23,1.01.07,1.63.33,1.98.36.46.94.72,1.63.72.59,0,1.89-.42,2.54-.65l-.1.49h.98l1.76-7.87h-.98l-1.4,6.38Z"/>
          <path class="entyvio_cls-2" d="m88.92,33.11c-.72,0-2.24.62-2.8.85-.29-.49-.98-.85-1.63-.85s-1.85.46-2.47.72l.13-.55h-.98l-1.76,7.87h.98l1.4-6.28c.65-.26,2.08-.81,2.6-.81.33,0,.59.13.78.33.23.29.29.78.16,1.33l-1.2,5.4h.98l1.2-5.3c.1-.46.13-.75.1-1.01.62-.26,1.95-.78,2.41-.78.36,0,.68.13.88.39.26.33.33.75.2,1.27l-1.2,5.4h.98l1.2-5.3c.23-1.01-.07-1.66-.33-1.98-.39-.46-.94-.68-1.63-.68Z"/>
          <path class="entyvio_cls-2" d="m98.55,35.49c.16-.68.03-1.3-.29-1.76-.33-.39-.81-.62-1.4-.62-1.07,0-3.06.13-3.06.13h-.16l-.2.94.29-.03s2.05-.13,3.06-.13c.33,0,.55.1.72.29.2.26.26.65.13,1.11l-.2.81-3.06.26c-1.17.1-2.11,1.01-2.41,2.24-.16.75-.03,1.43.33,1.89.29.39.78.59,1.33.59.52,0,2.86-.26,3.22-.29l1.5.29.33-.88-1.11-.23.98-4.62Zm-1.37,1.69l-.65,2.86c-.55.07-2.47.26-2.86.26-.26,0-.46-.1-.62-.26-.23-.26-.29-.72-.16-1.2.13-.65.59-1.33,1.43-1.4l2.86-.26Z"/>
          <path class="entyvio_cls-2" d="m106.68,33.8c-.36-.46-.94-.72-1.63-.72s-1.92.36-2.57.52l.81-3.68h-.98l-2.47,11.06.26.03c.1,0,2.41.2,3.19.2,1.59,0,2.83-1.59,3.19-3.09l.52-2.37c.23-.98-.07-1.59-.33-1.95Zm-.62,1.89l-.52,2.37c-.29,1.24-1.24,2.24-2.11,2.24-.55,0-1.82-.1-2.37-.13l1.24-5.56c.46-.13,1.98-.62,2.67-.62.36,0,.68.13.88.39.26.36.33.81.23,1.3Z"/>
        </g>
        <path class="entyvio_cls-1" d="m32.34.16c-.13-.2-.42-.2-.68-.07-.16.1-16.85,9.66-30.06,13.5l-1.01.29c-.33.1-.59.46-.59.75,0,.33.26.52.55.46.42-.1,1.01-.2,1.72-.36,4.52-.85,13.47-2.57,21.9-7.65-3.71,5.08-7.84,12.1-9.73,18.61-.75-1.14-2.11-2.8-4.36-5.37-.13-.16-.29-.33-.39-.46,2.6-2.7,5.95-5.5,7.32-6.64.29-.23.55-.46.81-.68.29-.23.39-.62.23-.85-.16-.23-.52-.26-.81-.03,0,0-.29.26-.81.68-4,3.22-9.43,6.99-9.47,7.03-.2.13-.36.39-.36.62s.1.39.29.46h.07c1.98,1.72,8.13,9.96,8.2,10.05.07.1.16.13.26.16h0c.29.07.65-.16.78-.52.03-.1.07-.2.07-.29.65-7.42,15.88-28.76,16.01-28.99.2-.26.2-.55.07-.72Z"/>
      </g>
    </g>
  </g>
</svg>