<?xml version="1.0" encoding="UTF-8"?>
<svg id="features_high_risk_mobile" data-name="features_high_risk_mobile" width="100%" height="100%" xmlns="http://www.w3.org/2000/svg" xmlns:xlink="http://www.w3.org/1999/xlink" viewBox="0 0 351.66 534.22">
  <defs>
    <style>
      .mobile-cls-1 {
        fill: url(#mobile-linear-gradient-12);
      }

      .mobile-cls-1, .mobile-cls-2, .mobile-cls-3, .mobile-cls-4, .mobile-cls-5, .mobile-cls-6, .mobile-cls-7, .mobile-cls-8, .mobile-cls-9, .mobile-cls-10, .mobile-cls-11, .mobile-cls-12, .mobile-cls-13 {
        stroke-width: 0px;
      }

      .mobile-cls-14 {
        stroke: #872780;
      }

      .mobile-cls-14, .mobile-cls-15, .mobile-cls-16, .mobile-cls-17, .mobile-cls-18, .mobile-cls-19, .mobile-cls-20 {
        stroke-miterlimit: 10;
      }

      .mobile-cls-14, .mobile-cls-18 {
        fill: none;
        stroke-width: 2px;
      }

      .mobile-cls-15 {
        stroke: url(#mobile-linear-gradient-4);
      }

      .mobile-cls-15, .mobile-cls-16, .mobile-cls-17, .mobile-cls-5, .mobile-cls-19, .mobile-cls-20 {
        fill: #fff;
      }

      .mobile-cls-15, .mobile-cls-16, .mobile-cls-17, .mobile-cls-19, .mobile-cls-20 {
        stroke-width: .88px;
      }

      .mobile-cls-16 {
        stroke: url(#mobile-linear-gradient-3);
      }

      .mobile-cls-2 {
        fill: url(#mobile-linear-gradient-6);
      }

      .mobile-cls-17 {
        stroke: url(#mobile-linear-gradient);
      }

      .mobile-cls-3 {
        fill: url(#mobile-linear-gradient-11);
      }

      .mobile-cls-18 {
        stroke: #d2c4cf;
      }

      .mobile-cls-4 {
        fill: url(#mobile-linear-gradient-13);
      }

      .mobile-cls-6 {
        fill: #828386;
      }

      .mobile-cls-7 {
        fill: url(#mobile-linear-gradient-7);
      }

      .mobile-cls-8 {
        fill: #231f20;
      }

      .mobile-cls-9 {
        fill: url(#mobile-linear-gradient-9);
      }

      .mobile-cls-10 {
        fill: url(#mobile-linear-gradient-8);
      }

      .mobile-cls-19 {
        stroke: url(#mobile-linear-gradient-5);
      }

      .mobile-cls-20 {
        stroke: url(#mobile-linear-gradient-2);
      }

      .mobile-cls-11 {
        fill: #872780;
      }

      .mobile-cls-12 {
        fill: url(#mobile-linear-gradient-10);
      }

      .mobile-cls-13 {
        fill: #d2c4cf;
      }
    </style>
    <linearGradient id="mobile-linear-gradient" x1="3.11" y1="463.88" x2="350.1" y2="463.88" gradientUnits="userSpaceOnUse">
      <stop offset="0" stop-color="#d2c4cf"/>
      <stop offset=".16" stop-color="#b388aa"/>
      <stop offset=".29" stop-color="#9d5b8f"/>
      <stop offset=".53" stop-color="#8d3684"/>
      <stop offset=".66" stop-color="#872780"/>
      <stop offset=".69" stop-color="#83267c"/>
      <stop offset=".87" stop-color="#702168"/>
      <stop offset="1" stop-color="#6a2062"/>
    </linearGradient>
    <linearGradient id="mobile-linear-gradient-2" y1="405.37" y2="405.37" xlink:href="#mobile-linear-gradient"/>
    <linearGradient id="mobile-linear-gradient-3" y1="346.86" y2="346.86" xlink:href="#mobile-linear-gradient"/>
    <linearGradient id="mobile-linear-gradient-4" y1="288.35" y2="288.35" xlink:href="#mobile-linear-gradient"/>
    <linearGradient id="mobile-linear-gradient-5" y1="229.84" y2="229.84" xlink:href="#mobile-linear-gradient"/>
    <linearGradient id="mobile-linear-gradient-6" x1="84.13" y1="127.87" x2="276.3" y2="127.87" xlink:href="#mobile-linear-gradient"/>
    <linearGradient id="mobile-linear-gradient-7" x1="305.66" y1="106.14" x2="305.66" y2="149.03" gradientUnits="userSpaceOnUse">
      <stop offset="0" stop-color="#bebdbd"/>
      <stop offset="1" stop-color="#fff"/>
    </linearGradient>
    <linearGradient id="mobile-linear-gradient-8" x1="305.66" y1="108.11" x2="305.66" y2="147.11" gradientUnits="userSpaceOnUse">
      <stop offset="0" stop-color="#bebdbd"/>
      <stop offset=".2" stop-color="#c6c6c7"/>
      <stop offset=".68" stop-color="#d8d9dc"/>
      <stop offset="1" stop-color="#dfe0e4"/>
    </linearGradient>
    <linearGradient id="mobile-linear-gradient-9" x1="305.66" y1="108.11" x2="305.66" y2="147.11" gradientUnits="userSpaceOnUse">
      <stop offset="0" stop-color="#872780"/>
      <stop offset=".2" stop-color="#9b2e69"/>
      <stop offset=".53" stop-color="#b9394a"/>
      <stop offset=".81" stop-color="#cb3f36"/>
      <stop offset="1" stop-color="#d24230"/>
    </linearGradient>
    <linearGradient id="mobile-linear-gradient-10" x1="46" y1="106.14" x2="46" y2="149.03" xlink:href="#mobile-linear-gradient-7"/>
    <linearGradient id="mobile-linear-gradient-11" x1="46" y1="108.11" x2="46" y2="147.11" xlink:href="#mobile-linear-gradient-8"/>
    <linearGradient id="mobile-linear-gradient-12" x1="46" y1="106.14" x2="46" y2="149.03" xlink:href="#mobile-linear-gradient-7"/>
    <linearGradient id="mobile-linear-gradient-13" x1="46" y1="108.11" x2="46" y2="147.11" xlink:href="#mobile-linear-gradient-9"/>
  </defs>
  <g id="features_high_risk_mobile_svg">
    <g>
      <g id="footnote">
        <path class="mobile-cls-8" d="m31.78,504.85h2.19c1.98,0,3.35,1.36,3.35,3.13v.02c0,1.77-1.37,3.15-3.35,3.15h-2.19v-6.3Zm.71.66v4.99h1.48c1.59,0,2.61-1.08,2.61-2.48v-.02c0-1.39-1.02-2.49-2.61-2.49h-1.48Z"/>
        <path class="mobile-cls-8" d="m38.72,504.72h.79v.76h-.79v-.76Zm.04,1.78h.69v4.65h-.69v-4.65Z"/>
        <path class="mobile-cls-8" d="m40.72,509.81v-.02c0-.98.81-1.5,1.99-1.5.59,0,1.02.08,1.43.2v-.16c0-.84-.51-1.27-1.39-1.27-.55,0-.98.14-1.41.34l-.21-.57c.51-.23,1.02-.39,1.69-.39s1.16.17,1.5.51c.32.31.48.76.48,1.36v2.84h-.67v-.7c-.32.42-.86.8-1.68.8-.86,0-1.74-.5-1.74-1.45Zm3.43-.36v-.45c-.34-.1-.8-.2-1.37-.2-.87,0-1.36.38-1.36.96v.02c0,.58.54.93,1.17.93.86,0,1.56-.52,1.56-1.26Z"/>
        <path class="mobile-cls-8" d="m46.23,511.97l.31-.54c.53.39,1.12.59,1.79.59,1.03,0,1.69-.57,1.69-1.66v-.55c-.41.54-.97.98-1.83.98-1.12,0-2.19-.84-2.19-2.18v-.02c0-1.36,1.08-2.2,2.19-2.2.87,0,1.44.43,1.82.94v-.84h.69v3.84c0,.72-.22,1.27-.59,1.65-.41.41-1.04.62-1.77.62-.77,0-1.49-.22-2.12-.65Zm3.82-3.36v-.02c0-.96-.83-1.58-1.71-1.58s-1.61.61-1.61,1.57v.02c0,.94.75,1.58,1.61,1.58s1.71-.64,1.71-1.58Z"/>
        <path class="mobile-cls-8" d="m52.26,506.5h.69v1.21c.34-.77,1.02-1.33,1.9-1.3v.75h-.05c-1.02,0-1.85.73-1.85,2.13v1.85h-.69v-4.65Z"/>
        <path class="mobile-cls-8" d="m55.33,509.81v-.02c0-.98.81-1.5,1.99-1.5.59,0,1.02.08,1.43.2v-.16c0-.84-.51-1.27-1.39-1.27-.55,0-.98.14-1.41.34l-.21-.57c.51-.23,1.02-.39,1.69-.39s1.16.17,1.5.51c.32.31.48.76.48,1.36v2.84h-.67v-.7c-.32.42-.86.8-1.68.8-.87,0-1.74-.5-1.74-1.45Zm3.43-.36v-.45c-.34-.1-.8-.2-1.37-.2-.87,0-1.36.38-1.36.96v.02c0,.58.54.93,1.17.93.86,0,1.56-.52,1.56-1.26Z"/>
        <path class="mobile-cls-8" d="m60.89,506.5h.69v.78c.31-.46.72-.88,1.5-.88s1.24.4,1.5.93c.33-.51.83-.93,1.64-.93,1.07,0,1.73.72,1.73,1.87v2.88h-.69v-2.72c0-.9-.45-1.4-1.21-1.4-.7,0-1.29.52-1.29,1.44v2.68h-.68v-2.74c0-.87-.46-1.39-1.2-1.39s-1.3.61-1.3,1.47v2.66h-.69v-4.65Z"/>
        <path class="mobile-cls-8" d="m71.85,508.84v-.02c0-1.52,1.11-2.42,2.22-2.42.86,0,1.42.47,1.78.99v-2.81h.69v6.57h-.69v-.94c-.38.56-.93,1.04-1.78,1.04-1.12,0-2.22-.88-2.22-2.41Zm4.03,0v-.02c0-1.07-.82-1.79-1.68-1.79s-1.64.67-1.64,1.79v.02c0,1.1.76,1.8,1.64,1.8s1.68-.73,1.68-1.8Z"/>
        <path class="mobile-cls-8" d="m77.81,508.84v-.02c0-1.34.95-2.42,2.23-2.42,1.38,0,2.17,1.1,2.17,2.46,0,.09,0,.14,0,.23h-3.69c.1,1.01.81,1.58,1.64,1.58.64,0,1.09-.26,1.47-.66l.43.39c-.47.52-1.04.87-1.92.87-1.28,0-2.32-.98-2.32-2.42Zm3.7-.27c-.07-.85-.56-1.58-1.49-1.58-.81,0-1.42.67-1.51,1.58h3Z"/>
        <path class="mobile-cls-8" d="m82.74,506.5h.76l1.57,3.86,1.58-3.86h.75l-2.03,4.69h-.61l-2.02-4.69Z"/>
        <path class="mobile-cls-8" d="m87.92,508.84v-.02c0-1.34.95-2.42,2.23-2.42,1.38,0,2.17,1.1,2.17,2.46,0,.09,0,.14,0,.23h-3.69c.1,1.01.81,1.58,1.64,1.58.64,0,1.09-.26,1.47-.66l.43.39c-.47.52-1.04.87-1.92.87-1.28,0-2.32-.98-2.32-2.42Zm3.7-.27c-.07-.85-.56-1.58-1.49-1.58-.81,0-1.42.67-1.51,1.58h3Z"/>
        <path class="mobile-cls-8" d="m93.6,504.58h.69v6.57h-.69v-6.57Z"/>
        <path class="mobile-cls-8" d="m95.62,508.85v-.02c0-1.31,1.03-2.43,2.43-2.43s2.42,1.1,2.42,2.41v.02c0,1.31-1.04,2.43-2.44,2.43s-2.41-1.1-2.41-2.41Zm4.14,0v-.02c0-1-.75-1.82-1.73-1.82s-1.7.82-1.7,1.8v.02c0,1,.74,1.81,1.72,1.81s1.71-.81,1.71-1.79Z"/>
        <path class="mobile-cls-8" d="m101.72,506.5h.69v.94c.38-.56.93-1.04,1.78-1.04,1.12,0,2.22.88,2.22,2.41v.02c0,1.52-1.1,2.42-2.22,2.42-.86,0-1.42-.47-1.78-.99v2.33h-.69v-6.09Zm3.99,2.34v-.02c0-1.1-.76-1.8-1.64-1.8s-1.68.73-1.68,1.79v.02c0,1.08.82,1.8,1.68,1.8s1.64-.67,1.64-1.79Z"/>
        <path class="mobile-cls-8" d="m107.41,508.84v-.02c0-1.34.95-2.42,2.23-2.42,1.38,0,2.17,1.1,2.17,2.46,0,.09,0,.14,0,.23h-3.69c.1,1.01.81,1.58,1.64,1.58.64,0,1.09-.26,1.47-.66l.43.39c-.47.52-1.04.87-1.92.87-1.28,0-2.32-.98-2.32-2.42Zm3.7-.27c-.07-.85-.56-1.58-1.49-1.58-.81,0-1.42.67-1.51,1.58h3Z"/>
        <path class="mobile-cls-8" d="m112.76,508.84v-.02c0-1.52,1.11-2.42,2.22-2.42.86,0,1.42.47,1.78.99v-2.81h.69v6.57h-.69v-.94c-.38.56-.93,1.04-1.78,1.04-1.12,0-2.22-.88-2.22-2.41Zm4.03,0v-.02c0-1.07-.82-1.79-1.68-1.79s-1.64.67-1.64,1.79v.02c0,1.1.76,1.8,1.64,1.8s1.68-.73,1.68-1.8Z"/>
        <path class="mobile-cls-8" d="m121.96,507.11h-.64v-.6h.64v-.41c0-.53.14-.94.41-1.2.23-.23.58-.36,1-.36.32,0,.54.04.77.12v.6c-.25-.07-.44-.12-.68-.12-.54,0-.81.32-.81.99v.38h1.48v.59h-1.47v4.04h-.69v-4.04Z"/>
        <path class="mobile-cls-8" d="m125,506.5h.69v1.21c.34-.77,1.02-1.33,1.9-1.3v.75h-.05c-1.02,0-1.85.73-1.85,2.13v1.85h-.69v-4.65Z"/>
        <path class="mobile-cls-8" d="m128.16,508.85v-.02c0-1.31,1.03-2.43,2.43-2.43s2.42,1.1,2.42,2.41v.02c0,1.31-1.04,2.43-2.44,2.43s-2.41-1.1-2.41-2.41Zm4.14,0v-.02c0-1-.75-1.82-1.73-1.82s-1.7.82-1.7,1.8v.02c0,1,.74,1.81,1.72,1.81s1.71-.81,1.71-1.79Z"/>
        <path class="mobile-cls-8" d="m134.27,506.5h.69v.78c.31-.46.72-.88,1.5-.88s1.24.4,1.49.93c.33-.51.83-.93,1.64-.93,1.07,0,1.73.72,1.73,1.87v2.88h-.69v-2.72c0-.9-.45-1.4-1.21-1.4-.7,0-1.29.52-1.29,1.44v2.68h-.68v-2.74c0-.87-.46-1.39-1.2-1.39s-1.3.61-1.3,1.47v2.66h-.69v-4.65Z"/>
        <path class="mobile-cls-8" d="m145.23,508.84v-.02c0-1.52,1.11-2.42,2.22-2.42.86,0,1.42.47,1.78.99v-2.81h.69v6.57h-.69v-.94c-.38.56-.93,1.04-1.78,1.04-1.12,0-2.22-.88-2.22-2.41Zm4.03,0v-.02c0-1.07-.82-1.79-1.68-1.79s-1.64.67-1.64,1.79v.02c0,1.1.76,1.8,1.64,1.8s1.68-.73,1.68-1.8Z"/>
        <path class="mobile-cls-8" d="m151.12,509.81v-.02c0-.98.81-1.5,1.99-1.5.59,0,1.02.08,1.43.2v-.16c0-.84-.51-1.27-1.39-1.27-.55,0-.98.14-1.41.34l-.21-.57c.51-.23,1.02-.39,1.69-.39s1.16.17,1.5.51c.32.31.48.76.48,1.36v2.84h-.67v-.7c-.32.42-.86.8-1.68.8-.87,0-1.74-.5-1.74-1.45Zm3.43-.36v-.45c-.34-.1-.8-.2-1.37-.2-.87,0-1.36.38-1.36.96v.02c0,.58.54.93,1.17.93.86,0,1.56-.52,1.56-1.26Z"/>
        <path class="mobile-cls-8" d="m156.88,509.92v-2.81h-.65v-.61h.65v-1.4h.69v1.4h1.48v.61h-1.48v2.72c0,.57.31.77.78.77.23,0,.43-.04.67-.16v.59c-.24.13-.5.2-.84.2-.75,0-1.31-.37-1.31-1.31Z"/>
        <path class="mobile-cls-8" d="m159.92,509.81v-.02c0-.98.81-1.5,1.99-1.5.59,0,1.02.08,1.43.2v-.16c0-.84-.51-1.27-1.39-1.27-.55,0-.98.14-1.41.34l-.21-.57c.51-.23,1.02-.39,1.69-.39s1.16.17,1.5.51c.32.31.48.76.48,1.36v2.84h-.67v-.7c-.32.42-.86.8-1.68.8-.86,0-1.74-.5-1.74-1.45Zm3.43-.36v-.45c-.34-.1-.8-.2-1.37-.2-.87,0-1.36.38-1.36.96v.02c0,.58.54.93,1.17.93.86,0,1.56-.52,1.56-1.26Z"/>
        <path class="mobile-cls-8" d="m168.19,506.5h.69v.94c.38-.56.93-1.04,1.78-1.04,1.12,0,2.22.88,2.22,2.41v.02c0,1.52-1.1,2.42-2.22,2.42-.86,0-1.42-.47-1.78-.99v2.33h-.69v-6.09Zm3.99,2.34v-.02c0-1.1-.76-1.8-1.64-1.8s-1.68.73-1.68,1.79v.02c0,1.08.82,1.8,1.68,1.8s1.64-.67,1.64-1.79Z"/>
        <path class="mobile-cls-8" d="m174.16,506.5h.69v1.21c.34-.77,1.02-1.33,1.9-1.3v.75h-.05c-1.02,0-1.84.73-1.84,2.13v1.85h-.69v-4.65Z"/>
        <path class="mobile-cls-8" d="m177.32,508.84v-.02c0-1.34.95-2.42,2.23-2.42,1.38,0,2.17,1.1,2.17,2.46,0,.09,0,.14,0,.23h-3.69c.1,1.01.81,1.58,1.64,1.58.64,0,1.09-.26,1.47-.66l.43.39c-.47.52-1.04.87-1.92.87-1.28,0-2.32-.98-2.32-2.42Zm3.7-.27c-.07-.85-.56-1.58-1.49-1.58-.81,0-1.42.67-1.51,1.58h3Z"/>
        <path class="mobile-cls-8" d="m182.55,510.56l.35-.5c.5.38,1.06.59,1.61.59s.96-.29.96-.74v-.02c0-.47-.55-.65-1.16-.82-.73-.21-1.54-.46-1.54-1.31v-.02c0-.8.67-1.33,1.58-1.33.57,0,1.2.2,1.67.51l-.32.52c-.43-.28-.93-.45-1.38-.45-.55,0-.9.29-.9.68v.02c0,.44.58.61,1.2.8.72.22,1.49.5,1.49,1.33v.02c0,.88-.73,1.4-1.66,1.4-.67,0-1.4-.26-1.93-.68Z"/>
        <path class="mobile-cls-8" d="m187.13,508.84v-.02c0-1.34.95-2.42,2.23-2.42,1.38,0,2.17,1.1,2.17,2.46,0,.09,0,.14,0,.23h-3.69c.1,1.01.81,1.58,1.64,1.58.64,0,1.09-.26,1.47-.66l.43.39c-.47.52-1.04.87-1.92.87-1.28,0-2.32-.98-2.32-2.42Zm3.7-.27c-.07-.85-.56-1.58-1.49-1.58-.81,0-1.42.67-1.51,1.58h3Z"/>
        <path class="mobile-cls-8" d="m192.75,506.5h.69v.81c.31-.5.79-.91,1.59-.91,1.13,0,1.78.76,1.78,1.86v2.89h-.69v-2.72c0-.86-.47-1.4-1.29-1.4s-1.4.58-1.4,1.46v2.67h-.69v-4.65Z"/>
        <path class="mobile-cls-8" d="m198.53,509.92v-2.81h-.65v-.61h.65v-1.4h.69v1.4h1.48v.61h-1.48v2.72c0,.57.31.77.78.77.23,0,.43-.04.67-.16v.59c-.24.13-.5.2-.84.2-.75,0-1.31-.37-1.31-1.31Z"/>
        <path class="mobile-cls-8" d="m201.5,508.84v-.02c0-1.34.95-2.42,2.23-2.42,1.38,0,2.17,1.1,2.17,2.46,0,.09,0,.14,0,.23h-3.69c.1,1.01.81,1.58,1.64,1.58.64,0,1.09-.26,1.47-.66l.43.39c-.47.52-1.04.87-1.92.87-1.28,0-2.32-.98-2.32-2.42Zm3.7-.27c-.07-.85-.56-1.58-1.49-1.58-.81,0-1.42.67-1.51,1.58h3Z"/>
        <path class="mobile-cls-8" d="m206.85,508.84v-.02c0-1.52,1.11-2.42,2.22-2.42.86,0,1.42.47,1.78.99v-2.81h.69v6.57h-.69v-.94c-.38.56-.93,1.04-1.78,1.04-1.12,0-2.22-.88-2.22-2.41Zm4.03,0v-.02c0-1.07-.82-1.79-1.68-1.79s-1.64.67-1.64,1.79v.02c0,1.1.76,1.8,1.64,1.8s1.68-.73,1.68-1.8Z"/>
        <path class="mobile-cls-8" d="m215.81,504.72h.79v.76h-.79v-.76Zm.04,1.78h.69v4.65h-.69v-4.65Z"/>
        <path class="mobile-cls-8" d="m218.16,506.5h.69v.81c.31-.5.79-.91,1.59-.91,1.13,0,1.78.76,1.78,1.86v2.89h-.69v-2.72c0-.86-.47-1.4-1.29-1.4s-1.4.58-1.4,1.46v2.67h-.69v-4.65Z"/>
        <path class="mobile-cls-8" d="m226.52,504.85h.71v5.64h3.55v.66h-4.26v-6.3Z"/>
        <path class="mobile-cls-8" d="m231.96,504.72h.79v.76h-.79v-.76Zm.04,1.78h.69v4.65h-.69v-4.65Z"/>
        <path class="mobile-cls-8" d="m234.02,508.85v-.02c0-1.31,1.03-2.43,2.39-2.43.88,0,1.43.37,1.86.83l-.46.49c-.37-.39-.78-.7-1.41-.7-.95,0-1.67.8-1.67,1.8v.02c0,1.01.74,1.81,1.71,1.81.59,0,1.05-.3,1.42-.69l.44.41c-.47.52-1.03.9-1.9.9-1.36,0-2.39-1.11-2.39-2.41Z"/>
        <path class="mobile-cls-8" d="m239.45,504.58h.69v2.73c.31-.5.79-.91,1.59-.91,1.13,0,1.78.76,1.78,1.86v2.89h-.69v-2.72c0-.86-.47-1.4-1.29-1.4s-1.4.58-1.4,1.46v2.67h-.69v-6.57Z"/>
        <path class="mobile-cls-8" d="m245.23,509.92v-2.81h-.65v-.61h.65v-1.4h.69v1.4h1.48v.61h-1.48v2.72c0,.57.31.77.78.77.23,0,.43-.04.67-.16v.59c-.24.13-.5.2-.84.2-.75,0-1.31-.37-1.31-1.31Z"/>
        <path class="mobile-cls-8" d="m248.2,508.84v-.02c0-1.34.95-2.42,2.23-2.42,1.38,0,2.17,1.1,2.17,2.46,0,.09,0,.14,0,.23h-3.69c.1,1.01.81,1.58,1.64,1.58.64,0,1.09-.26,1.47-.66l.43.39c-.47.52-1.04.87-1.92.87-1.28,0-2.32-.98-2.32-2.42Zm3.7-.27c-.07-.85-.56-1.58-1.49-1.58-.81,0-1.42.67-1.51,1.58h3Z"/>
        <path class="mobile-cls-8" d="m253.82,506.5h.69v.81c.31-.5.79-.91,1.59-.91,1.13,0,1.78.76,1.78,1.86v2.89h-.69v-2.72c0-.86-.47-1.4-1.29-1.4s-1.4.58-1.4,1.46v2.67h-.69v-4.65Z"/>
        <path class="mobile-cls-8" d="m258.98,510.56l.35-.5c.5.38,1.06.59,1.61.59s.96-.29.96-.74v-.02c0-.47-.55-.65-1.16-.82-.73-.21-1.54-.46-1.54-1.31v-.02c0-.8.67-1.33,1.58-1.33.57,0,1.2.2,1.67.51l-.32.52c-.43-.28-.93-.45-1.38-.45-.55,0-.9.29-.9.68v.02c0,.44.58.61,1.2.8.72.22,1.49.5,1.49,1.33v.02c0,.88-.73,1.4-1.66,1.4-.67,0-1.4-.26-1.93-.68Z"/>
        <path class="mobile-cls-8" d="m264,509.92v-2.81h-.65v-.61h.65v-1.4h.69v1.4h1.48v.61h-1.48v2.72c0,.57.31.77.78.77.23,0,.43-.04.67-.16v.59c-.24.13-.5.2-.84.2-.75,0-1.31-.37-1.31-1.31Z"/>
        <path class="mobile-cls-8" d="m266.97,508.84v-.02c0-1.34.95-2.42,2.23-2.42,1.38,0,2.17,1.1,2.17,2.46,0,.09,0,.14,0,.23h-3.69c.1,1.01.81,1.58,1.64,1.58.64,0,1.09-.26,1.47-.66l.43.39c-.47.52-1.04.87-1.92.87-1.28,0-2.32-.98-2.32-2.42Zm3.7-.27c-.07-.85-.56-1.58-1.49-1.58-.81,0-1.42.67-1.51,1.58h3Z"/>
        <path class="mobile-cls-8" d="m272.6,504.72h.79v.76h-.79v-.76Zm.04,1.78h.69v4.65h-.69v-4.65Z"/>
        <path class="mobile-cls-8" d="m274.95,506.5h.69v.81c.31-.5.79-.91,1.59-.91,1.13,0,1.78.76,1.78,1.86v2.89h-.69v-2.72c0-.86-.47-1.4-1.29-1.4s-1.4.58-1.4,1.46v2.67h-.69v-4.65Z"/>
        <path class="mobile-cls-8" d="m283.03,508.02v-.02c0-1.73,1.27-3.26,3.16-3.26,1.06,0,1.72.31,2.35.84l-.46.54c-.49-.42-1.03-.72-1.92-.72-1.4,0-2.39,1.18-2.39,2.58v.02c0,1.5.96,2.62,2.49,2.62.72,0,1.39-.28,1.82-.63v-1.57h-1.92v-.64h2.6v2.51c-.58.52-1.47.96-2.53.96-1.98,0-3.21-1.44-3.21-3.24Z"/>
        <path class="mobile-cls-8" d="m290.37,504.85h2.71c.77,0,1.39.23,1.79.63.31.31.49.75.49,1.24v.02c0,1.04-.72,1.66-1.71,1.84l1.94,2.58h-.87l-1.83-2.45h-1.8v2.45h-.71v-6.3Zm2.65,3.21c.95,0,1.62-.49,1.62-1.3v-.02c0-.77-.59-1.24-1.61-1.24h-1.94v2.56h1.94Z"/>
        <path class="mobile-cls-8" d="m296.4,511.94c.45-.16.64-.4.6-.78h-.32v-.95h.83v.81c0,.73-.32,1.08-1,1.23l-.11-.32Z"/>
        <path class="mobile-cls-8" d="m301.37,508.84v-.02c0-1.34.95-2.42,2.23-2.42,1.38,0,2.17,1.1,2.17,2.46,0,.09,0,.14,0,.23h-3.69c.1,1.01.81,1.58,1.64,1.58.64,0,1.09-.26,1.47-.66l.43.39c-.47.52-1.04.87-1.92.87-1.28,0-2.32-.98-2.32-2.42Zm3.7-.27c-.07-.85-.56-1.58-1.49-1.58-.81,0-1.42.67-1.51,1.58h3Z"/>
        <path class="mobile-cls-8" d="m307.23,509.92v-2.81h-.65v-.61h.65v-1.4h.69v1.4h1.48v.61h-1.48v2.72c0,.57.31.77.78.77.23,0,.43-.04.67-.16v.59c-.24.13-.5.2-.84.2-.75,0-1.31-.37-1.31-1.31Z"/>
        <path class="mobile-cls-8" d="m312.97,509.81v-.02c0-.98.81-1.5,1.99-1.5.59,0,1.02.08,1.43.2v-.16c0-.84-.51-1.27-1.39-1.27-.55,0-.98.14-1.41.34l-.21-.57c.51-.23,1.02-.39,1.69-.39s1.16.17,1.5.51c.32.31.48.76.48,1.36v2.84h-.67v-.7c-.32.42-.86.8-1.68.8-.87,0-1.74-.5-1.74-1.45Zm3.43-.36v-.45c-.34-.1-.8-.2-1.37-.2-.87,0-1.36.38-1.36.96v.02c0,.58.54.93,1.17.93.86,0,1.56-.52,1.56-1.26Z"/>
        <path class="mobile-cls-8" d="m318.6,504.58h.69v6.57h-.69v-6.57Z"/>
        <path class="mobile-cls-8" d="m320.81,510.21h.83v.95h-.83v-.95Z"/>
        <path class="mobile-cls-8" d="m98.85,515.61h.68l1.17,6.35h-.73l-.29-1.67h-3.44l-1.19,1.67h-.78l4.57-6.35Zm.72,4.03l-.57-3.22-2.3,3.22h2.87Z"/>
        <path class="mobile-cls-8" d="m102.88,517.3h.69l-.2.76c.42-.48.86-.86,1.55-.86.77,0,1.2.5,1.32,1.05.41-.64,1.04-1.05,1.87-1.05s1.42.58,1.42,1.44c0,.22-.07.48-.14.72l-.68,2.59h-.69l.7-2.64c.04-.15.07-.37.07-.52,0-.6-.37-.97-.96-.97-.68,0-1.39.64-1.61,1.5l-.7,2.63h-.68l.7-2.64c.04-.15.07-.37.07-.52,0-.6-.37-.97-.97-.97-.68,0-1.38.64-1.61,1.5l-.7,2.63h-.69l1.24-4.65Z"/>
        <path class="mobile-cls-8" d="m112.63,520.7l.57-.33c.26.67.66,1.02,1.31,1.02.42,0,.77-.15,1.06-.43.29-.3.48-.69.66-1.36l1.06-3.94h.72l-1.09,4.08c-.22.79-.45,1.29-.86,1.7s-.97.61-1.56.61c-.99,0-1.6-.57-1.87-1.34Z"/>
        <path class="mobile-cls-8" d="m121.22,519.39c0-1,.44-1.98,1.17-2.71.68-.68,1.62-1.13,2.7-1.13,1.3,0,1.98.56,2.38,1.15l-.54.42c-.37-.51-.87-.93-1.9-.93-.82,0-1.56.35-2.1.89-.59.6-.96,1.44-.96,2.28,0,1.3.86,2.05,2.09,2.05.68,0,1.22-.19,1.63-.44l.5-1.75h-1.9l.17-.64h2.6l-.8,2.83c-.67.41-1.37.66-2.24.66-1.53,0-2.79-.99-2.79-2.68Z"/>
        <path class="mobile-cls-8" d="m127.77,520.77c0-.45.16-.83.44-1.11.37-.37.95-.58,1.63-.58.62,0,1.21.13,1.66.25l.03-.11c.04-.14.06-.31.06-.43,0-.6-.41-.95-1.26-.95-.5,0-.9.1-1.31.24l-.12-.58c.46-.17.94-.28,1.54-.28,1.17,0,1.83.54,1.83,1.44,0,.2-.04.42-.1.64l-.7,2.64h-.68l.2-.73c-.43.5-1,.83-1.74.83-.78,0-1.48-.46-1.48-1.29Zm3.52-.64l.09-.32c-.41-.12-.94-.21-1.51-.21-.48,0-.86.14-1.1.39-.2.19-.3.43-.3.7,0,.5.39.83.99.83.78,0,1.6-.57,1.83-1.39Z"/>
        <path class="mobile-cls-8" d="m132.73,521.24l.45-.45c.5.49,1.06.68,1.62.68s1.03-.31,1.03-.77c0-.31-.21-.53-.88-.79-.84-.32-1.31-.63-1.31-1.28,0-.79.68-1.43,1.76-1.43.68,0,1.33.31,1.72.64l-.41.48c-.39-.32-.87-.54-1.38-.54-.66,0-1.01.35-1.01.74,0,.31.19.5.93.79.84.34,1.27.67,1.27,1.28,0,.86-.79,1.47-1.78,1.47-.72,0-1.47-.27-2.01-.81Z"/>
        <path class="mobile-cls-8" d="m137.84,521.12c0-.16.03-.34.06-.49l.73-2.72h-.64l.16-.61h.65l.38-1.4h.68l-.38,1.4h1.47l-.16.61h-1.47l-.72,2.68c-.02.11-.04.24-.04.34,0,.32.24.48.64.48.21,0,.43-.04.67-.14l-.17.63c-.24.1-.47.13-.74.13-.67,0-1.13-.32-1.13-.92Z"/>
        <path class="mobile-cls-8" d="m142.16,517.3h.69l-.32,1.21c.57-.81,1.29-1.35,2.21-1.3l-.2.75h-.04c-1.02,0-2.03.75-2.4,2.15l-.5,1.84h-.69l1.24-4.65Z"/>
        <path class="mobile-cls-8" d="m144.78,519.98c0-.74.31-1.44.84-1.95.5-.5,1.17-.82,1.9-.82,1.28,0,2.12.87,2.12,2.08,0,.74-.32,1.44-.84,1.96-.5.5-1.18.82-1.91.82-1.28,0-2.12-.88-2.12-2.09Zm3.48.89c.41-.42.67-.99.67-1.56,0-.95-.59-1.5-1.46-1.5-.5,0-.97.23-1.32.59-.41.4-.67.98-.67,1.56,0,.95.59,1.49,1.46,1.49.5,0,.97-.23,1.32-.58Z"/>
        <path class="mobile-cls-8" d="m151.2,519.87c0,.06,0,.13,0,.19,0,.83.52,1.41,1.38,1.41.59,0,1.04-.21,1.47-.55l.35.45c-.48.41-1.04.69-1.87.69-1.21,0-2.02-.82-2.02-1.98,0-.77.33-1.55.88-2.1.48-.48,1.11-.78,1.83-.78,1.18,0,1.8.81,1.8,1.78,0,.31-.06.61-.16.88h-3.65Zm.09-.52h3c.03-.08.04-.2.04-.36,0-.64-.36-1.2-1.16-1.2-.51,0-.95.22-1.3.56-.27.27-.47.62-.58,1Z"/>
        <path class="mobile-cls-8" d="m156.77,517.3h.69l-.2.76c.41-.48.91-.86,1.62-.86.9,0,1.48.56,1.48,1.44,0,.22-.05.48-.11.72l-.69,2.59h-.69l.71-2.64c.04-.15.06-.37.06-.52,0-.61-.39-.97-1.04-.97-.72,0-1.44.62-1.68,1.5l-.7,2.63h-.69l1.24-4.65Z"/>
        <path class="mobile-cls-8" d="m161.58,521.12c0-.16.03-.34.06-.49l.73-2.72h-.64l.16-.61h.65l.38-1.4h.68l-.38,1.4h1.47l-.16.61h-1.47l-.72,2.68c-.02.11-.04.24-.04.34,0,.32.24.48.64.48.21,0,.43-.04.67-.14l-.17.63c-.24.1-.47.13-.74.13-.67,0-1.13-.32-1.13-.92Z"/>
        <path class="mobile-cls-8" d="m165.55,519.87c0,.06,0,.13,0,.19,0,.83.52,1.41,1.38,1.41.59,0,1.04-.21,1.47-.55l.35.45c-.48.41-1.04.69-1.87.69-1.21,0-2.02-.82-2.02-1.98,0-.77.33-1.55.88-2.1.48-.48,1.11-.78,1.83-.78,1.18,0,1.8.81,1.8,1.78,0,.31-.06.61-.16.88h-3.65Zm.09-.52h3c.03-.08.04-.2.04-.36,0-.64-.36-1.2-1.16-1.2-.51,0-.95.22-1.3.56-.27.27-.47.62-.58,1Z"/>
        <path class="mobile-cls-8" d="m171.11,517.3h.69l-.32,1.21c.57-.81,1.29-1.35,2.21-1.3l-.2.75h-.04c-1.02,0-2.03.75-2.4,2.15l-.5,1.84h-.69l1.24-4.65Z"/>
        <path class="mobile-cls-8" d="m173.73,519.98c0-.74.31-1.44.84-1.95.5-.5,1.17-.82,1.9-.82,1.28,0,2.12.87,2.12,2.08,0,.74-.32,1.44-.84,1.96-.5.5-1.18.82-1.91.82-1.28,0-2.12-.88-2.12-2.09Zm3.48.89c.41-.42.67-.99.67-1.56,0-.95-.59-1.5-1.46-1.5-.5,0-.97.23-1.32.59-.41.4-.67.98-.67,1.56,0,.95.59,1.49,1.46,1.49.5,0,.97-.23,1.32-.58Z"/>
        <path class="mobile-cls-8" d="m181,515.38h.69l-1.76,6.57h-.69l1.76-6.57Z"/>
        <path class="mobile-cls-8" d="m182.08,521.01h.83v.95h-.83v-.95Z"/>
        <path class="mobile-cls-8" d="m186.72,521.41l2.29-2.02c.96-.86,1.31-1.35,1.31-1.98,0-.74-.58-1.21-1.27-1.21-.72,0-1.19.38-1.69,1.08l-.52-.38c.57-.85,1.16-1.34,2.27-1.34s1.95.76,1.95,1.78v.02c0,.92-.49,1.49-1.59,2.45l-1.68,1.49h3.34v.65h-4.4v-.55Z"/>
        <path class="mobile-cls-8" d="m192.24,518.82v-.02c0-1.76,1.05-3.26,2.67-3.26s2.65,1.48,2.65,3.24v.02c0,1.76-1.04,3.26-2.67,3.26s-2.66-1.48-2.66-3.24Zm4.58,0v-.02c0-1.38-.76-2.61-1.93-2.61s-1.92,1.21-1.92,2.59v.02c0,1.38.76,2.61,1.94,2.61s1.91-1.22,1.91-2.59Z"/>
        <path class="mobile-cls-8" d="m199.68,516.35l-1.19.37-.17-.58,1.54-.53h.52v6.35h-.7v-5.61Z"/>
        <path class="mobile-cls-8" d="m201.76,520.26v-.02c0-.75.54-1.28,1.3-1.55-.58-.27-1.08-.72-1.08-1.45v-.02c0-.97,1-1.67,2.15-1.67s2.15.69,2.15,1.67v.02c0,.73-.5,1.18-1.08,1.45.75.28,1.3.79,1.3,1.54v.02c0,1.07-1.03,1.79-2.37,1.79s-2.37-.73-2.37-1.78Zm4.02-.02v-.02c0-.7-.73-1.2-1.65-1.2s-1.65.5-1.65,1.2v.02c0,.64.61,1.18,1.65,1.18s1.65-.54,1.65-1.18Zm-.21-2.95v-.02c0-.62-.62-1.09-1.44-1.09s-1.44.46-1.44,1.09v.02c0,.68.64,1.15,1.44,1.15s1.44-.47,1.44-1.15Z"/>
        <path class="mobile-cls-8" d="m207.42,522.74c.45-.16.64-.4.6-.78h-.32v-.95h.83v.81c0,.73-.32,1.08-1,1.23l-.11-.32Zm.28-5.44h.83v.95h-.83v-.95Z"/>
        <path class="mobile-cls-8" d="m210.87,516.35l-1.19.37-.17-.58,1.54-.53h.52v6.35h-.7v-5.61Z"/>
        <path class="mobile-cls-8" d="m214.09,516.35l-1.19.37-.17-.58,1.54-.53h.52v6.35h-.7v-5.61Z"/>
        <path class="mobile-cls-8" d="m216.15,520.94l.51-.46c.49.59,1.07.94,1.85.94s1.38-.49,1.38-1.22v-.02c0-.78-.73-1.22-1.76-1.22h-.41l-.14-.42,1.99-2.24h-3.08v-.64h4.02v.52l-1.98,2.2c1.1.09,2.08.62,2.08,1.77v.02c0,1.13-.94,1.9-2.11,1.9-1.05,0-1.84-.46-2.35-1.13Z"/>
        <path class="mobile-cls-8" d="m221.95,517.3h.83v.95h-.83v-.95Zm0,3.71h.83v.95h-.83v-.95Z"/>
        <path class="mobile-cls-8" d="m227.4,520.46h-3.32l-.18-.51,3.57-4.34h.62v4.26h.98v.59h-.98v1.49h-.68v-1.49Zm0-.59v-3.25l-2.65,3.25h2.65Z"/>
        <path class="mobile-cls-8" d="m230.01,520.26v-.02c0-.75.54-1.28,1.3-1.55-.58-.27-1.08-.72-1.08-1.45v-.02c0-.97,1-1.67,2.15-1.67s2.15.69,2.15,1.67v.02c0,.73-.5,1.18-1.08,1.45.75.28,1.3.79,1.3,1.54v.02c0,1.07-1.03,1.79-2.37,1.79s-2.37-.73-2.37-1.78Zm4.02-.02v-.02c0-.7-.73-1.2-1.65-1.2s-1.65.5-1.65,1.2v.02c0,.64.61,1.18,1.65,1.18s1.65-.54,1.65-1.18Zm-.21-2.95v-.02c0-.62-.62-1.09-1.44-1.09s-1.44.46-1.44,1.09v.02c0,.68.64,1.15,1.44,1.15s1.44-.47,1.44-1.15Z"/>
        <path class="mobile-cls-8" d="m236.83,516.35l-1.19.37-.17-.58,1.54-.53h.52v6.35h-.7v-5.61Z"/>
        <path class="mobile-cls-8" d="m239.02,518.9h3.58v.69h-3.58v-.69Z"/>
        <path class="mobile-cls-8" d="m243.67,521.06l.47-.51c.55.53,1.15.86,1.79.86.9,0,1.52-.59,1.52-1.4v-.02c0-.78-.65-1.32-1.57-1.32-.53,0-.95.16-1.32.36l-.48-.32.18-3.07h3.63v.66h-3.01l-.13,2.02c.37-.16.72-.28,1.24-.28,1.22,0,2.18.73,2.18,1.93v.02c0,1.23-.94,2.07-2.25,2.07-.9,0-1.68-.43-2.25-1Z"/>
        <path class="mobile-cls-8" d="m250.31,516.35l-1.19.37-.17-.58,1.54-.53h.52v6.35h-.7v-5.61Z"/>
        <path class="mobile-cls-8" d="m256,516.3h-3.47v-.65h4.28v.53l-2.86,5.77h-.79l2.84-5.65Z"/>
        <path class="mobile-cls-8" d="m257.07,521.01h.83v.95h-.83v-.95Z"/>
        <path class="mobile-cls-8" d="m102.04,529.62v-.02c0-1.74,1.31-3.26,3.22-3.26s3.21,1.5,3.21,3.24v.02c0,1.74-1.31,3.26-3.22,3.26s-3.21-1.5-3.21-3.24Zm5.69,0v-.02c0-1.43-1.04-2.6-2.48-2.6s-2.47,1.15-2.47,2.58v.02c0,1.43,1.04,2.6,2.48,2.6s2.47-1.15,2.47-2.58Z"/>
        <path class="mobile-cls-8" d="m109.85,528.1h.69v.81c.31-.5.79-.91,1.59-.91,1.13,0,1.78.76,1.78,1.86v2.89h-.69v-2.72c0-.86-.47-1.4-1.29-1.4s-1.4.58-1.4,1.46v2.67h-.69v-4.65Z"/>
        <path class="mobile-cls-8" d="m115.46,526.18h.69v6.57h-.69v-6.57Z"/>
        <path class="mobile-cls-8" d="m121.25,528.1h.74l-1.95,4.81c-.4.96-.85,1.31-1.55,1.31-.39,0-.67-.08-.99-.23l.23-.55c.22.12.43.17.73.17.41,0,.67-.22.95-.87l-2.12-4.64h.77l1.69,3.88,1.49-3.88Z"/>
        <path class="mobile-cls-8" d="m125.39,532.16l.35-.5c.5.38,1.06.59,1.61.59s.96-.29.96-.74v-.02c0-.47-.55-.65-1.16-.82-.73-.21-1.54-.46-1.54-1.31v-.02c0-.8.67-1.33,1.58-1.33.57,0,1.2.2,1.67.51l-.32.52c-.43-.28-.93-.45-1.38-.45-.55,0-.9.29-.9.68v.02c0,.44.58.61,1.2.8.72.22,1.49.5,1.49,1.33v.02c0,.88-.73,1.4-1.66,1.4-.67,0-1.4-.26-1.93-.68Z"/>
        <path class="mobile-cls-8" d="m129.98,530.44v-.02c0-1.34.95-2.42,2.23-2.42,1.38,0,2.17,1.1,2.17,2.46,0,.09,0,.14,0,.23h-3.69c.1,1.01.81,1.58,1.64,1.58.64,0,1.09-.26,1.47-.66l.43.39c-.47.52-1.04.87-1.92.87-1.28,0-2.32-.98-2.32-2.42Zm3.7-.27c-.07-.85-.56-1.58-1.49-1.58-.81,0-1.42.67-1.51,1.58h3Z"/>
        <path class="mobile-cls-8" d="m135.65,526.18h.69v6.57h-.69v-6.57Z"/>
        <path class="mobile-cls-8" d="m137.67,530.44v-.02c0-1.34.95-2.42,2.23-2.42,1.38,0,2.17,1.1,2.17,2.46,0,.09,0,.14,0,.23h-3.69c.1,1.01.81,1.58,1.64,1.58.64,0,1.09-.26,1.47-.66l.43.39c-.47.52-1.04.87-1.92.87-1.28,0-2.32-.98-2.32-2.42Zm3.7-.27c-.07-.85-.56-1.58-1.49-1.58-.81,0-1.42.67-1.51,1.58h3Z"/>
        <path class="mobile-cls-8" d="m143,530.45v-.02c0-1.31,1.03-2.43,2.39-2.43.88,0,1.43.37,1.86.83l-.46.49c-.37-.39-.78-.7-1.41-.7-.95,0-1.67.8-1.67,1.8v.02c0,1.01.74,1.81,1.71,1.81.59,0,1.05-.3,1.42-.69l.44.41c-.47.52-1.03.9-1.9.9-1.36,0-2.39-1.11-2.39-2.41Z"/>
        <path class="mobile-cls-8" d="m148.67,531.52v-2.81h-.65v-.61h.65v-1.4h.69v1.4h1.48v.61h-1.48v2.72c0,.57.31.77.78.77.23,0,.43-.04.67-.16v.59c-.24.13-.5.2-.84.2-.75,0-1.31-.37-1.31-1.31Z"/>
        <path class="mobile-cls-8" d="m151.64,530.44v-.02c0-1.34.95-2.42,2.23-2.42,1.38,0,2.17,1.1,2.17,2.46,0,.09,0,.14,0,.23h-3.69c.1,1.01.81,1.58,1.64,1.58.64,0,1.09-.26,1.47-.66l.43.39c-.47.52-1.04.87-1.92.87-1.28,0-2.32-.98-2.32-2.42Zm3.7-.27c-.07-.85-.56-1.58-1.49-1.58-.81,0-1.42.67-1.51,1.58h3Z"/>
        <path class="mobile-cls-8" d="m156.98,530.44v-.02c0-1.52,1.11-2.42,2.22-2.42.86,0,1.42.47,1.78.99v-2.81h.69v6.57h-.69v-.94c-.38.56-.93,1.04-1.78,1.04-1.12,0-2.22-.88-2.22-2.41Zm4.03,0v-.02c0-1.07-.82-1.79-1.68-1.79s-1.64.67-1.64,1.79v.02c0,1.1.76,1.8,1.64,1.8s1.68-.73,1.68-1.8Z"/>
        <path class="mobile-cls-8" d="m166.19,528.71h-.64v-.6h.64v-.41c0-.53.14-.94.41-1.2.23-.23.58-.36,1-.36.32,0,.54.04.77.12v.6c-.25-.07-.44-.12-.68-.12-.54,0-.81.32-.81.99v.38h1.48v.59h-1.47v4.04h-.69v-4.04Z"/>
        <path class="mobile-cls-8" d="m168.85,530.44v-.02c0-1.34.95-2.42,2.23-2.42,1.38,0,2.17,1.1,2.17,2.46,0,.09,0,.14,0,.23h-3.69c.1,1.01.81,1.58,1.64,1.58.64,0,1.09-.26,1.47-.66l.43.39c-.47.52-1.04.87-1.92.87-1.28,0-2.32-.98-2.32-2.42Zm3.7-.27c-.07-.85-.56-1.58-1.49-1.58-.81,0-1.42.67-1.51,1.58h3Z"/>
        <path class="mobile-cls-8" d="m174.12,531.4v-.02c0-.98.81-1.5,1.99-1.5.59,0,1.02.08,1.43.2v-.16c0-.84-.51-1.27-1.39-1.27-.55,0-.98.14-1.41.34l-.21-.57c.51-.23,1.02-.39,1.69-.39s1.16.17,1.5.51c.32.31.48.76.48,1.36v2.84h-.67v-.7c-.32.42-.86.8-1.68.8-.87,0-1.74-.5-1.74-1.45Zm3.43-.36v-.45c-.34-.1-.8-.2-1.37-.2-.87,0-1.36.38-1.36.96v.02c0,.58.54.93,1.17.93.86,0,1.56-.52,1.56-1.26Z"/>
        <path class="mobile-cls-8" d="m179.88,531.52v-2.81h-.65v-.61h.65v-1.4h.69v1.4h1.48v.61h-1.48v2.72c0,.57.31.77.78.77.23,0,.43-.04.67-.16v.59c-.24.13-.5.2-.84.2-.75,0-1.31-.37-1.31-1.31Z"/>
        <path class="mobile-cls-8" d="m183.2,530.99v-2.89h.69v2.72c0,.86.47,1.4,1.29,1.4s1.4-.58,1.4-1.46v-2.67h.68v4.65h-.68v-.81c-.32.5-.79.91-1.59.91-1.12,0-1.78-.76-1.78-1.86Z"/>
        <path class="mobile-cls-8" d="m188.82,528.1h.69v1.21c.34-.77,1.02-1.33,1.9-1.3v.75h-.05c-1.02,0-1.85.73-1.85,2.13v1.85h-.69v-4.65Z"/>
        <path class="mobile-cls-8" d="m191.98,530.44v-.02c0-1.34.95-2.42,2.23-2.42,1.38,0,2.17,1.1,2.17,2.46,0,.09,0,.14,0,.23h-3.69c.1,1.01.81,1.58,1.64,1.58.64,0,1.09-.26,1.47-.66l.43.39c-.47.52-1.04.87-1.92.87-1.28,0-2.32-.98-2.32-2.42Zm3.7-.27c-.07-.85-.56-1.58-1.49-1.58-.81,0-1.42.67-1.51,1.58h3Z"/>
        <path class="mobile-cls-8" d="m197.2,532.16l.35-.5c.5.38,1.06.59,1.61.59s.96-.29.96-.74v-.02c0-.47-.55-.65-1.16-.82-.73-.21-1.54-.46-1.54-1.31v-.02c0-.8.67-1.33,1.58-1.33.57,0,1.2.2,1.67.51l-.32.52c-.43-.28-.93-.45-1.38-.45-.55,0-.9.29-.9.68v.02c0,.44.58.61,1.2.8.72.22,1.49.5,1.49,1.33v.02c0,.88-.73,1.4-1.66,1.4-.67,0-1.4-.26-1.93-.68Z"/>
        <path class="mobile-cls-8" d="m204.42,531.4v-.02c0-.98.81-1.5,1.99-1.5.59,0,1.02.08,1.43.2v-.16c0-.84-.51-1.27-1.39-1.27-.55,0-.98.14-1.41.34l-.21-.57c.51-.23,1.02-.39,1.69-.39s1.16.17,1.5.51c.32.31.48.76.48,1.36v2.84h-.67v-.7c-.32.42-.86.8-1.68.8-.87,0-1.74-.5-1.74-1.45Zm3.43-.36v-.45c-.34-.1-.8-.2-1.37-.2-.87,0-1.36.38-1.36.96v.02c0,.58.54.93,1.17.93.86,0,1.56-.52,1.56-1.26Z"/>
        <path class="mobile-cls-8" d="m209.98,528.1h.69v1.21c.34-.77,1.02-1.33,1.9-1.3v.75h-.05c-1.02,0-1.85.73-1.85,2.13v1.85h-.69v-4.65Z"/>
        <path class="mobile-cls-8" d="m213.14,530.44v-.02c0-1.34.95-2.42,2.23-2.42,1.38,0,2.17,1.1,2.17,2.46,0,.09,0,.14,0,.23h-3.69c.1,1.01.81,1.58,1.64,1.58.64,0,1.09-.26,1.47-.66l.43.39c-.47.52-1.04.87-1.92.87-1.28,0-2.32-.98-2.32-2.42Zm3.7-.27c-.07-.85-.56-1.58-1.49-1.58-.81,0-1.42.67-1.51,1.58h3Z"/>
        <path class="mobile-cls-8" d="m221.07,532.16l.35-.5c.5.38,1.06.59,1.61.59s.96-.29.96-.74v-.02c0-.47-.55-.65-1.16-.82-.73-.21-1.54-.46-1.54-1.31v-.02c0-.8.67-1.33,1.58-1.33.57,0,1.2.2,1.67.51l-.32.52c-.43-.28-.93-.45-1.38-.45-.55,0-.9.29-.9.68v.02c0,.44.58.61,1.2.8.72.22,1.49.5,1.49,1.33v.02c0,.88-.73,1.4-1.66,1.4-.67,0-1.4-.26-1.93-.68Z"/>
        <path class="mobile-cls-8" d="m225.94,526.18h.69v2.73c.31-.5.79-.91,1.59-.91,1.13,0,1.78.76,1.78,1.86v2.89h-.69v-2.72c0-.86-.47-1.4-1.29-1.4s-1.4.58-1.4,1.46v2.67h-.69v-6.57Z"/>
        <path class="mobile-cls-8" d="m231.2,530.45v-.02c0-1.31,1.03-2.43,2.43-2.43s2.42,1.1,2.42,2.41v.02c0,1.31-1.04,2.43-2.44,2.43s-2.41-1.1-2.41-2.41Zm4.14,0v-.02c0-1-.75-1.82-1.73-1.82s-1.7.82-1.7,1.8v.02c0,1,.74,1.81,1.72,1.81s1.71-.81,1.71-1.79Z"/>
        <path class="mobile-cls-8" d="m236.68,528.1h.74l1.22,3.74,1.25-3.75h.58l1.26,3.75,1.22-3.74h.72l-1.64,4.69h-.6l-1.25-3.67-1.26,3.67h-.61l-1.63-4.69Z"/>
        <path class="mobile-cls-8" d="m244.82,528.1h.69v.81c.31-.5.79-.91,1.59-.91,1.13,0,1.78.76,1.78,1.86v2.89h-.69v-2.72c0-.86-.47-1.4-1.29-1.4s-1.4.58-1.4,1.46v2.67h-.69v-4.65Z"/>
        <path class="mobile-cls-8" d="m250.28,531.81h.83v.95h-.83v-.95Z"/>
      </g>
      <g id="ileal_bar">
        <rect class="mobile-cls-17" x="3.55" y="440.07" width="346.11" height="47.61" rx="23.8" ry="23.8"/>
        <g>
          <path class="mobile-cls-8" d="m98.77,452.41h1.85v8.4h-1.85v-8.4Z"/>
          <path class="mobile-cls-8" d="m102.61,452.05h1.82v8.75h-1.82v-8.75Z"/>
          <path class="mobile-cls-8" d="m105.84,457.63v-.02c0-1.83,1.31-3.35,3.18-3.35,2.15,0,3.13,1.67,3.13,3.49,0,.14-.01.31-.02.48h-4.47c.18.83.76,1.26,1.57,1.26.61,0,1.06-.19,1.56-.66l1.04.92c-.6.74-1.46,1.2-2.63,1.2-1.93,0-3.36-1.35-3.36-3.32Zm4.53-.54c-.11-.82-.59-1.37-1.36-1.37s-1.25.54-1.39,1.37h2.75Z"/>
          <path class="mobile-cls-8" d="m113.12,458.96v-.02c0-1.4,1.07-2.05,2.59-2.05.65,0,1.12.11,1.57.26v-.11c0-.76-.47-1.18-1.38-1.18-.7,0-1.19.13-1.78.35l-.46-1.39c.71-.31,1.4-.52,2.5-.52,1,0,1.71.26,2.17.72.48.48.7,1.19.7,2.05v3.73h-1.76v-.7c-.44.49-1.06.82-1.94.82-1.21,0-2.21-.7-2.21-1.97Zm4.19-.42v-.32c-.31-.14-.72-.24-1.16-.24-.78,0-1.26.31-1.26.89v.02c0,.49.41.78,1,.78.85,0,1.43-.47,1.43-1.13Z"/>
          <path class="mobile-cls-8" d="m120.7,452.05h1.82v8.75h-1.82v-8.75Z"/>
          <path class="mobile-cls-8" d="m128.4,451.24h1.55l-5.31,11.11h-1.55l5.31-11.11Z"/>
          <path class="mobile-cls-8" d="m130.63,452.05h1.92v1.62h-1.92v-1.62Zm.05,2.33h1.82v6.43h-1.82v-6.43Z"/>
          <path class="mobile-cls-8" d="m134.3,452.05h1.82v8.75h-1.82v-8.75Z"/>
          <path class="mobile-cls-8" d="m137.53,457.63v-.02c0-1.83,1.31-3.35,3.18-3.35,2.15,0,3.13,1.67,3.13,3.49,0,.14-.01.31-.02.48h-4.47c.18.83.75,1.26,1.57,1.26.61,0,1.06-.19,1.56-.66l1.04.92c-.6.74-1.46,1.2-2.63,1.2-1.93,0-3.36-1.35-3.36-3.32Zm4.53-.54c-.11-.82-.59-1.37-1.35-1.37s-1.25.54-1.39,1.37h2.75Z"/>
          <path class="mobile-cls-8" d="m144.89,457.63v-.02c0-1.85,1.49-3.35,3.49-3.35s3.47,1.48,3.47,3.32v.02c0,1.85-1.49,3.35-3.49,3.35s-3.47-1.47-3.47-3.32Zm5.16,0v-.02c0-.95-.68-1.78-1.69-1.78s-1.67.8-1.67,1.75v.02c0,.95.68,1.78,1.69,1.78s1.67-.8,1.67-1.75Z"/>
          <path class="mobile-cls-8" d="m152.86,457.63v-.02c0-1.83,1.4-3.35,3.37-3.35,1.21,0,1.97.41,2.57,1.08l-1.12,1.2c-.41-.43-.82-.71-1.46-.71-.91,0-1.56.8-1.56,1.75v.02c0,.98.64,1.78,1.63,1.78.61,0,1.03-.26,1.48-.68l1.07,1.08c-.62.68-1.34,1.17-2.63,1.17-1.93,0-3.35-1.49-3.35-3.32Z"/>
          <path class="mobile-cls-8" d="m159.53,457.63v-.02c0-1.85,1.49-3.35,3.49-3.35s3.47,1.48,3.47,3.32v.02c0,1.85-1.49,3.35-3.49,3.35s-3.47-1.47-3.47-3.32Zm5.16,0v-.02c0-.95-.68-1.78-1.69-1.78s-1.67.8-1.67,1.75v.02c0,.95.68,1.78,1.69,1.78s1.67-.8,1.67-1.75Z"/>
          <path class="mobile-cls-8" d="m167.89,452.05h1.82v8.75h-1.82v-8.75Z"/>
          <path class="mobile-cls-8" d="m171.12,457.63v-.02c0-1.85,1.49-3.35,3.49-3.35s3.47,1.48,3.47,3.32v.02c0,1.85-1.49,3.35-3.49,3.35s-3.47-1.47-3.47-3.32Zm5.16,0v-.02c0-.95-.68-1.78-1.69-1.78s-1.67.8-1.67,1.75v.02c0,.95.68,1.78,1.69,1.78s1.67-.8,1.67-1.75Z"/>
          <path class="mobile-cls-8" d="m179.4,454.38h1.82v.91c.42-.54.96-1.03,1.88-1.03,1.38,0,2.18.91,2.18,2.39v4.16h-1.82v-3.59c0-.86-.41-1.31-1.1-1.31s-1.14.44-1.14,1.31v3.59h-1.82v-6.43Z"/>
          <path class="mobile-cls-8" d="m186.91,452.05h1.92v1.62h-1.92v-1.62Zm.05,2.33h1.82v6.43h-1.82v-6.43Z"/>
          <path class="mobile-cls-8" d="m190.19,457.63v-.02c0-1.83,1.4-3.35,3.37-3.35,1.21,0,1.97.41,2.57,1.08l-1.12,1.2c-.41-.43-.82-.71-1.46-.71-.91,0-1.56.8-1.56,1.75v.02c0,.98.64,1.78,1.63,1.78.61,0,1.03-.26,1.47-.68l1.07,1.08c-.62.68-1.34,1.17-2.63,1.17-1.93,0-3.35-1.49-3.35-3.32Z"/>
          <path class="mobile-cls-8" d="m201.51,451.24h1.55l-5.31,11.11h-1.55l5.31-11.11Z"/>
          <path class="mobile-cls-8" d="m203.11,454.38h1.82v.92c.44-.6,1.06-1.04,2-1.04,1.5,0,2.93,1.18,2.93,3.32v.02c0,2.15-1.4,3.32-2.93,3.32-.97,0-1.57-.44-2-.96v2.76h-1.82v-8.35Zm4.93,3.23v-.02c0-1.07-.72-1.77-1.57-1.77s-1.56.71-1.56,1.77v.02c0,1.07.71,1.78,1.56,1.78s1.57-.7,1.57-1.78Z"/>
          <path class="mobile-cls-8" d="m211.21,454.38h1.82v1.3c.37-.89.97-1.46,2.05-1.42v1.91h-.1c-1.21,0-1.96.73-1.96,2.27v2.38h-1.82v-6.43Z"/>
          <path class="mobile-cls-8" d="m215.73,457.63v-.02c0-1.85,1.49-3.35,3.49-3.35s3.47,1.48,3.47,3.32v.02c0,1.85-1.49,3.35-3.49,3.35s-3.47-1.47-3.47-3.32Zm5.16,0v-.02c0-.95-.68-1.78-1.69-1.78s-1.67.8-1.67,1.75v.02c0,.95.68,1.78,1.69,1.78s1.67-.8,1.67-1.75Z"/>
          <path class="mobile-cls-8" d="m226.29,456.26l1.21-1.88h1.91l-2.17,3.14,2.27,3.29h-1.96l-1.29-2-1.3,2h-1.91l2.25-3.26-2.17-3.17h1.96l1.2,1.88Z"/>
          <path class="mobile-cls-8" d="m230.64,452.05h1.92v1.62h-1.92v-1.62Zm.05,2.33h1.82v6.43h-1.82v-6.43Z"/>
          <path class="mobile-cls-8" d="m234.23,454.38h1.82v.91c.42-.54.97-1.03,1.9-1.03.84,0,1.47.37,1.81,1.02.56-.66,1.24-1.02,2.11-1.02,1.35,0,2.17.82,2.17,2.36v4.19h-1.82v-3.59c0-.86-.38-1.31-1.07-1.31s-1.1.44-1.1,1.31v3.59h-1.82v-3.59c0-.86-.38-1.31-1.07-1.31s-1.1.44-1.1,1.31v3.59h-1.82v-6.43Z"/>
          <path class="mobile-cls-8" d="m245.24,458.96v-.02c0-1.4,1.07-2.05,2.59-2.05.65,0,1.12.11,1.57.26v-.11c0-.76-.47-1.18-1.38-1.18-.7,0-1.19.13-1.77.35l-.46-1.39c.71-.31,1.4-.52,2.49-.52,1,0,1.72.26,2.17.72.48.48.7,1.19.7,2.05v3.73h-1.76v-.7c-.44.49-1.06.82-1.94.82-1.21,0-2.21-.7-2.21-1.97Zm4.19-.42v-.32c-.31-.14-.72-.24-1.16-.24-.78,0-1.26.31-1.26.89v.02c0,.49.41.78,1,.78.85,0,1.43-.47,1.43-1.13Z"/>
          <path class="mobile-cls-8" d="m252.81,452.05h1.82v8.75h-1.82v-8.75Z"/>
          <path class="mobile-cls-8" d="m131.38,470.63v-.02c0-2.39,1.86-4.34,4.4-4.34,1.51,0,2.42.41,3.3,1.15l-1.16,1.4c-.65-.54-1.22-.85-2.2-.85-1.34,0-2.41,1.19-2.41,2.61v.02c0,1.54,1.06,2.66,2.54,2.66.67,0,1.27-.17,1.74-.5v-1.2h-1.86v-1.59h3.65v3.65c-.86.73-2.05,1.33-3.59,1.33-2.61,0-4.41-1.83-4.41-4.32Z"/>
          <path class="mobile-cls-8" d="m141.24,466.41h1.85v8.4h-1.85v-8.4Z"/>
          <path class="mobile-cls-8" d="m148.63,466.05h1.92v1.62h-1.92v-1.62Zm.05,2.33h1.82v6.43h-1.82v-6.43Z"/>
          <path class="mobile-cls-8" d="m152.22,468.38h1.82v.91c.42-.54.96-1.03,1.88-1.03,1.38,0,2.18.91,2.18,2.39v4.16h-1.82v-3.59c0-.86-.41-1.31-1.1-1.31s-1.14.44-1.14,1.31v3.59h-1.82v-6.43Z"/>
          <path class="mobile-cls-8" d="m158.88,468.38h1.93l1.44,4.31,1.45-4.31h1.89l-2.53,6.48h-1.66l-2.53-6.48Z"/>
          <path class="mobile-cls-8" d="m165.98,471.63v-.02c0-1.85,1.49-3.35,3.49-3.35s3.47,1.48,3.47,3.32v.02c0,1.85-1.49,3.35-3.49,3.35s-3.47-1.47-3.47-3.32Zm5.16,0v-.02c0-.95-.68-1.78-1.69-1.78s-1.67.8-1.67,1.75v.02c0,.95.68,1.78,1.69,1.78s1.67-.8,1.67-1.75Z"/>
          <path class="mobile-cls-8" d="m174.35,466.05h1.82v8.75h-1.82v-8.75Z"/>
          <path class="mobile-cls-8" d="m177.31,468.38h1.93l1.44,4.31,1.45-4.31h1.9l-2.53,6.48h-1.66l-2.53-6.48Z"/>
          <path class="mobile-cls-8" d="m184.41,471.63v-.02c0-1.83,1.31-3.35,3.18-3.35,2.15,0,3.13,1.67,3.13,3.49,0,.14-.01.31-.02.48h-4.47c.18.83.76,1.26,1.57,1.26.61,0,1.06-.19,1.56-.66l1.04.92c-.6.74-1.46,1.2-2.63,1.2-1.93,0-3.36-1.35-3.36-3.32Zm4.53-.54c-.11-.82-.59-1.37-1.36-1.37s-1.25.54-1.39,1.37h2.75Z"/>
          <path class="mobile-cls-8" d="m192.08,468.38h1.82v.91c.42-.54.97-1.03,1.9-1.03.84,0,1.47.37,1.81,1.02.56-.66,1.24-1.02,2.11-1.02,1.35,0,2.17.82,2.17,2.36v4.19h-1.82v-3.59c0-.86-.38-1.31-1.07-1.31s-1.1.44-1.1,1.31v3.59h-1.82v-3.59c0-.86-.38-1.31-1.07-1.31s-1.1.44-1.1,1.31v3.59h-1.82v-6.43Z"/>
          <path class="mobile-cls-8" d="m203.17,471.63v-.02c0-1.83,1.31-3.35,3.18-3.35,2.15,0,3.13,1.67,3.13,3.49,0,.14-.01.31-.02.48h-4.47c.18.83.76,1.26,1.57,1.26.61,0,1.06-.19,1.56-.66l1.04.92c-.6.74-1.46,1.2-2.63,1.2-1.93,0-3.36-1.35-3.36-3.32Zm4.53-.54c-.11-.82-.59-1.37-1.36-1.37s-1.25.54-1.39,1.37h2.75Z"/>
          <path class="mobile-cls-8" d="m210.84,468.38h1.82v.91c.42-.54.96-1.03,1.88-1.03,1.38,0,2.18.91,2.18,2.39v4.16h-1.82v-3.59c0-.86-.41-1.31-1.1-1.31s-1.14.44-1.14,1.31v3.59h-1.82v-6.43Z"/>
          <path class="mobile-cls-8" d="m218.61,472.98v-3.05h-.77v-1.56h.77v-1.64h1.82v1.64h1.51v1.56h-1.51v2.75c0,.42.18.62.59.62.34,0,.64-.08.9-.23v1.46c-.38.23-.83.37-1.44.37-1.12,0-1.87-.44-1.87-1.93Z"/>
        </g>
      </g>
      <g id="ulcers_bar">
        <rect class="mobile-cls-20" x="3.55" y="381.57" width="346.11" height="47.61" rx="23.8" ry="23.8"/>
        <g>
          <path class="mobile-cls-8" d="m158.6,405.7v-4.8h1.85v4.75c0,1.37.68,2.08,1.81,2.08s1.81-.68,1.81-2.01v-4.81h1.85v4.74c0,2.54-1.43,3.79-3.68,3.79s-3.63-1.26-3.63-3.73Z"/>
          <path class="mobile-cls-8" d="m167.7,400.54h1.82v8.75h-1.82v-8.75Z"/>
          <path class="mobile-cls-8" d="m170.93,406.12v-.02c0-1.83,1.4-3.35,3.37-3.35,1.21,0,1.97.41,2.57,1.08l-1.12,1.2c-.41-.43-.82-.71-1.46-.71-.91,0-1.56.8-1.56,1.75v.02c0,.98.64,1.78,1.63,1.78.61,0,1.03-.26,1.47-.68l1.07,1.08c-.62.68-1.34,1.17-2.63,1.17-1.93,0-3.35-1.49-3.35-3.32Z"/>
          <path class="mobile-cls-8" d="m177.6,406.12v-.02c0-1.83,1.31-3.35,3.18-3.35,2.15,0,3.13,1.67,3.13,3.49,0,.14-.01.31-.02.48h-4.47c.18.83.75,1.26,1.57,1.26.61,0,1.06-.19,1.56-.66l1.04.92c-.6.74-1.46,1.2-2.63,1.2-1.93,0-3.36-1.35-3.36-3.32Zm4.53-.54c-.11-.82-.59-1.37-1.35-1.37s-1.25.54-1.39,1.37h2.75Z"/>
          <path class="mobile-cls-8" d="m185.27,402.87h1.82v1.3c.37-.89.97-1.46,2.05-1.42v1.91h-.1c-1.21,0-1.95.73-1.95,2.27v2.38h-1.82v-6.43Z"/>
          <path class="mobile-cls-8" d="m189.78,408.45l.78-1.2c.7.5,1.43.77,2.03.77.53,0,.77-.19.77-.48v-.02c0-.4-.62-.53-1.33-.74-.9-.26-1.92-.68-1.92-1.93v-.02c0-1.31,1.06-2.04,2.35-2.04.82,0,1.7.28,2.4.74l-.7,1.26c-.64-.37-1.27-.6-1.74-.6-.44,0-.67.19-.67.44v.02c0,.36.61.53,1.31.77.9.3,1.94.73,1.94,1.91v.02c0,1.43-1.07,2.08-2.46,2.08-.9,0-1.91-.3-2.76-.97Z"/>
        </g>
      </g>
      <g id="perianal_bar">
        <rect class="mobile-cls-16" x="3.55" y="323.06" width="346.11" height="47.61" rx="23.8" ry="23.8"/>
        <g>
          <path class="mobile-cls-8" d="m130.65,335.39h3.43c2,0,3.21,1.19,3.21,2.9v.02c0,1.94-1.51,2.95-3.39,2.95h-1.4v2.52h-1.85v-8.4Zm3.31,4.23c.92,0,1.46-.55,1.46-1.27v-.02c0-.83-.58-1.27-1.5-1.27h-1.43v2.57h1.46Z"/>
          <path class="mobile-cls-8" d="m138.11,340.61v-.02c0-1.83,1.31-3.35,3.18-3.35,2.15,0,3.13,1.67,3.13,3.49,0,.14-.01.31-.02.48h-4.47c.18.83.76,1.26,1.57,1.26.61,0,1.06-.19,1.56-.66l1.04.92c-.6.74-1.46,1.2-2.63,1.2-1.93,0-3.36-1.35-3.36-3.32Zm4.53-.54c-.11-.82-.59-1.37-1.36-1.37s-1.25.54-1.39,1.37h2.75Z"/>
          <path class="mobile-cls-8" d="m145.77,337.36h1.82v1.3c.37-.89.97-1.46,2.05-1.42v1.91h-.1c-1.21,0-1.96.73-1.96,2.27v2.38h-1.82v-6.43Z"/>
          <path class="mobile-cls-8" d="m150.83,335.03h1.92v1.62h-1.92v-1.62Zm.05,2.33h1.82v6.43h-1.82v-6.43Z"/>
          <path class="mobile-cls-8" d="m154.03,341.94v-.02c0-1.4,1.07-2.05,2.59-2.05.65,0,1.12.11,1.57.26v-.11c0-.76-.47-1.18-1.38-1.18-.7,0-1.19.13-1.77.35l-.46-1.39c.71-.31,1.4-.52,2.49-.52,1,0,1.72.26,2.17.72.48.48.7,1.19.7,2.05v3.73h-1.76v-.7c-.44.49-1.06.82-1.94.82-1.21,0-2.21-.7-2.21-1.97Zm4.19-.42v-.32c-.31-.14-.72-.24-1.16-.24-.78,0-1.26.31-1.26.89v.02c0,.49.41.78,1,.78.85,0,1.43-.47,1.43-1.13Z"/>
          <path class="mobile-cls-8" d="m161.52,337.36h1.82v.91c.42-.54.96-1.03,1.88-1.03,1.38,0,2.18.91,2.18,2.39v4.16h-1.82v-3.59c0-.86-.41-1.31-1.1-1.31s-1.14.44-1.14,1.31v3.59h-1.82v-6.43Z"/>
          <path class="mobile-cls-8" d="m168.61,341.94v-.02c0-1.4,1.07-2.05,2.59-2.05.65,0,1.12.11,1.57.26v-.11c0-.76-.47-1.18-1.38-1.18-.7,0-1.19.13-1.78.35l-.46-1.39c.71-.31,1.4-.52,2.5-.52,1,0,1.71.26,2.17.72.48.48.7,1.19.7,2.05v3.73h-1.76v-.7c-.44.49-1.06.82-1.94.82-1.21,0-2.21-.7-2.21-1.97Zm4.19-.42v-.32c-.31-.14-.72-.24-1.16-.24-.78,0-1.26.31-1.26.89v.02c0,.49.41.78,1,.78.85,0,1.43-.47,1.43-1.13Z"/>
          <path class="mobile-cls-8" d="m176.18,335.03h1.82v8.75h-1.82v-8.75Z"/>
          <path class="mobile-cls-8" d="m182.94,341.94v-.02c0-1.4,1.07-2.05,2.59-2.05.65,0,1.12.11,1.57.26v-.11c0-.76-.47-1.18-1.38-1.18-.7,0-1.19.13-1.78.35l-.46-1.39c.71-.31,1.4-.52,2.5-.52,1,0,1.71.26,2.17.72.48.48.7,1.19.7,2.05v3.73h-1.76v-.7c-.44.49-1.06.82-1.94.82-1.21,0-2.21-.7-2.21-1.97Zm4.19-.42v-.32c-.31-.14-.72-.24-1.16-.24-.78,0-1.26.31-1.26.89v.02c0,.49.41.78,1,.78.85,0,1.43-.47,1.43-1.13Z"/>
          <path class="mobile-cls-8" d="m190.43,337.36h1.82v.91c.42-.54.96-1.03,1.88-1.03,1.38,0,2.18.91,2.18,2.39v4.16h-1.82v-3.59c0-.86-.41-1.31-1.1-1.31s-1.14.44-1.14,1.31v3.59h-1.82v-6.43Z"/>
          <path class="mobile-cls-8" d="m197.62,340.59v-.02c0-2.15,1.4-3.32,2.93-3.32.97,0,1.57.44,2,.96v-3.17h1.82v8.75h-1.82v-.92c-.44.6-1.06,1.04-2,1.04-1.5,0-2.93-1.18-2.93-3.32Zm4.95,0v-.02c0-1.07-.71-1.77-1.56-1.77s-1.57.7-1.57,1.77v.02c0,1.07.72,1.78,1.57,1.78s1.56-.71,1.56-1.78Z"/>
          <path class="mobile-cls-8" d="m210.16,334.22h1.55l-5.31,11.11h-1.55l5.31-11.11Z"/>
          <path class="mobile-cls-8" d="m211.09,340.61v-.02c0-1.85,1.49-3.35,3.49-3.35s3.47,1.48,3.47,3.32v.02c0,1.85-1.49,3.35-3.49,3.35s-3.47-1.47-3.47-3.32Zm5.16,0v-.02c0-.95-.68-1.78-1.69-1.78s-1.67.8-1.67,1.75v.02c0,.95.68,1.78,1.69,1.78s1.67-.8,1.67-1.75Z"/>
          <path class="mobile-cls-8" d="m219.37,337.36h1.82v1.3c.37-.89.97-1.46,2.05-1.42v1.91h-.1c-1.21,0-1.96.73-1.96,2.27v2.38h-1.82v-6.43Z"/>
          <path class="mobile-cls-8" d="m113.42,356.94l.78-1.2c.7.5,1.43.77,2.03.77.53,0,.77-.19.77-.48v-.02c0-.4-.62-.53-1.33-.74-.9-.26-1.92-.68-1.92-1.93v-.02c0-1.31,1.05-2.04,2.35-2.04.82,0,1.7.28,2.4.74l-.7,1.26c-.64-.37-1.27-.6-1.74-.6-.44,0-.67.19-.67.44v.02c0,.36.61.53,1.31.77.9.3,1.94.73,1.94,1.91v.02c0,1.43-1.07,2.08-2.46,2.08-.9,0-1.91-.3-2.76-.97Z"/>
          <path class="mobile-cls-8" d="m119.63,354.61v-.02c0-1.83,1.31-3.35,3.18-3.35,2.15,0,3.13,1.67,3.13,3.49,0,.14-.01.31-.02.48h-4.47c.18.83.75,1.26,1.57,1.26.61,0,1.06-.19,1.56-.66l1.04.92c-.6.74-1.46,1.2-2.63,1.2-1.93,0-3.36-1.35-3.36-3.32Zm4.53-.54c-.11-.82-.59-1.37-1.35-1.37s-1.25.54-1.39,1.37h2.75Z"/>
          <path class="mobile-cls-8" d="m126.43,351.36h1.93l1.44,4.31,1.45-4.31h1.9l-2.53,6.48h-1.66l-2.53-6.48Z"/>
          <path class="mobile-cls-8" d="m133.53,354.61v-.02c0-1.83,1.31-3.35,3.18-3.35,2.15,0,3.13,1.67,3.13,3.49,0,.14-.01.31-.02.48h-4.47c.18.83.76,1.26,1.57,1.26.61,0,1.06-.19,1.56-.66l1.04.92c-.6.74-1.46,1.2-2.63,1.2-1.93,0-3.36-1.35-3.36-3.32Zm4.53-.54c-.11-.82-.59-1.37-1.36-1.37s-1.25.54-1.39,1.37h2.75Z"/>
          <path class="mobile-cls-8" d="m141.2,351.36h1.82v1.3c.37-.89.97-1.46,2.05-1.42v1.91h-.1c-1.21,0-1.95.73-1.95,2.27v2.38h-1.82v-6.43Z"/>
          <path class="mobile-cls-8" d="m145.72,354.61v-.02c0-1.83,1.31-3.35,3.18-3.35,2.15,0,3.13,1.67,3.13,3.49,0,.14-.01.31-.02.48h-4.47c.18.83.75,1.26,1.57,1.26.61,0,1.06-.19,1.56-.66l1.04.92c-.6.74-1.46,1.2-2.63,1.2-1.93,0-3.36-1.35-3.36-3.32Zm4.53-.54c-.11-.82-.59-1.37-1.35-1.37s-1.25.54-1.39,1.37h2.75Z"/>
          <path class="mobile-cls-8" d="m156.99,351.36h1.82v1.3c.37-.89.97-1.46,2.05-1.42v1.91h-.1c-1.21,0-1.95.73-1.95,2.27v2.38h-1.82v-6.43Z"/>
          <path class="mobile-cls-8" d="m161.51,354.61v-.02c0-1.83,1.31-3.35,3.18-3.35,2.15,0,3.13,1.67,3.13,3.49,0,.14-.01.31-.02.48h-4.47c.18.83.76,1.26,1.57,1.26.61,0,1.06-.19,1.56-.66l1.04.92c-.6.74-1.46,1.2-2.63,1.2-1.93,0-3.36-1.35-3.36-3.32Zm4.53-.54c-.11-.82-.59-1.37-1.36-1.37s-1.25.54-1.39,1.37h2.75Z"/>
          <path class="mobile-cls-8" d="m168.87,354.61v-.02c0-1.83,1.4-3.35,3.37-3.35,1.21,0,1.97.41,2.57,1.08l-1.12,1.2c-.41-.43-.82-.71-1.46-.71-.91,0-1.56.8-1.56,1.75v.02c0,.98.64,1.78,1.63,1.78.61,0,1.03-.26,1.47-.68l1.07,1.08c-.62.68-1.34,1.17-2.63,1.17-1.93,0-3.35-1.49-3.35-3.32Z"/>
          <path class="mobile-cls-8" d="m176.33,355.97v-3.05h-.77v-1.56h.77v-1.64h1.82v1.64h1.51v1.56h-1.51v2.75c0,.42.18.62.59.62.34,0,.64-.08.9-.23v1.46c-.38.23-.83.37-1.44.37-1.12,0-1.87-.44-1.87-1.93Z"/>
          <path class="mobile-cls-8" d="m180.63,355.94v-.02c0-1.4,1.07-2.05,2.59-2.05.65,0,1.12.11,1.57.26v-.11c0-.76-.47-1.18-1.38-1.18-.7,0-1.19.13-1.78.35l-.46-1.39c.71-.31,1.4-.52,2.5-.52,1,0,1.71.26,2.17.72.48.48.7,1.19.7,2.05v3.73h-1.76v-.7c-.44.49-1.06.82-1.94.82-1.21,0-2.21-.7-2.21-1.97Zm4.19-.42v-.32c-.31-.14-.72-.24-1.16-.24-.78,0-1.26.31-1.26.89v.02c0,.49.41.78,1,.78.85,0,1.43-.47,1.43-1.13Z"/>
          <path class="mobile-cls-8" d="m188.2,349.03h1.82v8.75h-1.82v-8.75Z"/>
          <path class="mobile-cls-8" d="m195.05,354.59v-.02c0-2.15,1.4-3.32,2.93-3.32.97,0,1.57.44,2,.96v-3.17h1.82v8.75h-1.82v-.92c-.44.6-1.06,1.04-2,1.04-1.5,0-2.93-1.18-2.93-3.32Zm4.95,0v-.02c0-1.07-.71-1.77-1.56-1.77s-1.57.7-1.57,1.77v.02c0,1.07.72,1.78,1.57,1.78s1.56-.71,1.56-1.78Z"/>
          <path class="mobile-cls-8" d="m203.48,349.03h1.92v1.62h-1.92v-1.62Zm.05,2.33h1.82v6.43h-1.82v-6.43Z"/>
          <path class="mobile-cls-8" d="m206.56,356.94l.78-1.2c.7.5,1.43.77,2.03.77.53,0,.77-.19.77-.48v-.02c0-.4-.62-.53-1.33-.74-.9-.26-1.92-.68-1.92-1.93v-.02c0-1.31,1.06-2.04,2.35-2.04.82,0,1.7.28,2.4.74l-.7,1.26c-.64-.37-1.27-.6-1.74-.6-.44,0-.67.19-.67.44v.02c0,.36.61.53,1.31.77.9.3,1.94.73,1.94,1.91v.02c0,1.43-1.07,2.08-2.46,2.08-.9,0-1.91-.3-2.76-.97Z"/>
          <path class="mobile-cls-8" d="m212.78,354.61v-.02c0-1.83,1.31-3.35,3.18-3.35,2.15,0,3.13,1.67,3.13,3.49,0,.14-.01.31-.02.48h-4.47c.18.83.76,1.26,1.57,1.26.61,0,1.06-.19,1.56-.66l1.04.92c-.6.74-1.46,1.2-2.63,1.2-1.93,0-3.36-1.35-3.36-3.32Zm4.53-.54c-.11-.82-.59-1.37-1.36-1.37s-1.25.54-1.39,1.37h2.75Z"/>
          <path class="mobile-cls-8" d="m220.06,355.94v-.02c0-1.4,1.07-2.05,2.59-2.05.65,0,1.12.11,1.57.26v-.11c0-.76-.47-1.18-1.38-1.18-.7,0-1.19.13-1.78.35l-.46-1.39c.71-.31,1.4-.52,2.5-.52,1,0,1.71.26,2.17.72.48.48.7,1.19.7,2.05v3.73h-1.76v-.7c-.44.49-1.06.82-1.94.82-1.21,0-2.21-.7-2.21-1.97Zm4.19-.42v-.32c-.31-.14-.72-.24-1.16-.24-.78,0-1.26.31-1.26.89v.02c0,.49.41.78,1,.78.85,0,1.43-.47,1.43-1.13Z"/>
          <path class="mobile-cls-8" d="m227.04,356.94l.78-1.2c.7.5,1.43.77,2.03.77.53,0,.77-.19.77-.48v-.02c0-.4-.62-.53-1.33-.74-.9-.26-1.92-.68-1.92-1.93v-.02c0-1.31,1.05-2.04,2.35-2.04.82,0,1.7.28,2.4.74l-.7,1.26c-.64-.37-1.27-.6-1.74-.6-.44,0-.67.19-.67.44v.02c0,.36.61.53,1.31.77.9.3,1.94.73,1.94,1.91v.02c0,1.43-1.07,2.08-2.46,2.08-.9,0-1.91-.3-2.76-.97Z"/>
          <path class="mobile-cls-8" d="m233.26,354.61v-.02c0-1.83,1.31-3.35,3.18-3.35,2.15,0,3.13,1.67,3.13,3.49,0,.14-.01.31-.02.48h-4.47c.18.83.75,1.26,1.57,1.26.61,0,1.06-.19,1.56-.66l1.04.92c-.6.74-1.46,1.2-2.63,1.2-1.93,0-3.36-1.35-3.36-3.32Zm4.53-.54c-.11-.82-.59-1.37-1.35-1.37s-1.25.54-1.39,1.37h2.75Z"/>
        </g>
      </g>
      <g id="anatomic_bar">
        <rect class="mobile-cls-15" x="3.55" y="264.55" width="346.11" height="47.61" rx="23.8" ry="23.8"/>
        <g>
          <path class="mobile-cls-8" d="m151.17,276.83h1.7l3.6,8.46h-1.93l-.77-1.88h-3.55l-.77,1.88h-1.88l3.6-8.46Zm1.94,4.94l-1.12-2.72-1.12,2.72h2.23Z"/>
          <path class="mobile-cls-8" d="m157.58,278.85h1.82v.91c.42-.54.96-1.03,1.88-1.03,1.38,0,2.18.91,2.18,2.39v4.16h-1.82v-3.59c0-.86-.41-1.31-1.1-1.31s-1.14.44-1.14,1.31v3.59h-1.82v-6.43Z"/>
          <path class="mobile-cls-8" d="m164.67,283.44v-.02c0-1.4,1.07-2.05,2.59-2.05.65,0,1.12.11,1.57.26v-.11c0-.76-.47-1.18-1.38-1.18-.7,0-1.19.13-1.77.35l-.46-1.39c.71-.31,1.4-.52,2.49-.52,1,0,1.72.26,2.17.72.48.48.7,1.19.7,2.05v3.73h-1.76v-.7c-.44.49-1.06.82-1.94.82-1.21,0-2.21-.7-2.21-1.97Zm4.19-.42v-.32c-.31-.14-.72-.24-1.16-.24-.78,0-1.26.31-1.26.89v.02c0,.49.41.78,1,.78.85,0,1.43-.47,1.43-1.13Z"/>
          <path class="mobile-cls-8" d="m172.4,283.46v-3.05h-.77v-1.56h.77v-1.64h1.82v1.64h1.51v1.56h-1.51v2.75c0,.42.18.62.59.62.34,0,.64-.08.9-.23v1.46c-.38.23-.83.37-1.44.37-1.12,0-1.87-.44-1.87-1.93Z"/>
          <path class="mobile-cls-8" d="m176.59,282.1v-.02c0-1.85,1.49-3.35,3.49-3.35s3.47,1.48,3.47,3.32v.02c0,1.85-1.49,3.35-3.49,3.35s-3.47-1.47-3.47-3.32Zm5.16,0v-.02c0-.95-.68-1.78-1.69-1.78s-1.67.8-1.67,1.75v.02c0,.95.68,1.78,1.69,1.78s1.67-.8,1.67-1.75Z"/>
          <path class="mobile-cls-8" d="m184.87,278.85h1.82v.91c.42-.54.97-1.03,1.9-1.03.84,0,1.47.37,1.81,1.02.56-.66,1.24-1.02,2.11-1.02,1.35,0,2.17.82,2.17,2.36v4.19h-1.82v-3.59c0-.86-.38-1.31-1.07-1.31s-1.1.44-1.1,1.31v3.59h-1.82v-3.59c0-.86-.38-1.31-1.07-1.31s-1.1.44-1.1,1.31v3.59h-1.82v-6.43Z"/>
          <path class="mobile-cls-8" d="m196.31,276.53h1.92v1.62h-1.92v-1.62Zm.05,2.33h1.82v6.43h-1.82v-6.43Z"/>
          <path class="mobile-cls-8" d="m199.58,282.1v-.02c0-1.83,1.4-3.35,3.37-3.35,1.21,0,1.97.41,2.57,1.08l-1.12,1.2c-.41-.43-.82-.71-1.46-.71-.91,0-1.56.8-1.56,1.75v.02c0,.98.64,1.78,1.63,1.78.61,0,1.03-.26,1.48-.68l1.07,1.08c-.62.68-1.34,1.17-2.63,1.17-1.93,0-3.35-1.49-3.35-3.32Z"/>
          <path class="mobile-cls-8" d="m140.11,290.53h1.92v1.62h-1.92v-1.62Zm.05,2.33h1.82v6.43h-1.82v-6.43Z"/>
          <path class="mobile-cls-8" d="m143.7,292.85h1.82v.91c.42-.54.96-1.03,1.88-1.03,1.38,0,2.18.91,2.18,2.39v4.16h-1.82v-3.59c0-.86-.41-1.31-1.1-1.31s-1.14.44-1.14,1.31v3.59h-1.82v-6.43Z"/>
          <path class="mobile-cls-8" d="m150.36,292.85h1.93l1.44,4.31,1.45-4.31h1.89l-2.53,6.48h-1.66l-2.53-6.48Z"/>
          <path class="mobile-cls-8" d="m157.46,296.1v-.02c0-1.85,1.49-3.35,3.49-3.35s3.47,1.48,3.47,3.32v.02c0,1.85-1.49,3.35-3.49,3.35s-3.47-1.47-3.47-3.32Zm5.16,0v-.02c0-.95-.68-1.78-1.69-1.78s-1.67.8-1.67,1.75v.02c0,.95.68,1.78,1.69,1.78s1.67-.8,1.67-1.75Z"/>
          <path class="mobile-cls-8" d="m165.83,290.53h1.82v8.75h-1.82v-8.75Z"/>
          <path class="mobile-cls-8" d="m168.79,292.85h1.93l1.44,4.31,1.45-4.31h1.9l-2.53,6.48h-1.66l-2.53-6.48Z"/>
          <path class="mobile-cls-8" d="m175.89,296.1v-.02c0-1.83,1.31-3.35,3.18-3.35,2.15,0,3.13,1.67,3.13,3.49,0,.14-.01.31-.02.48h-4.47c.18.83.76,1.26,1.57,1.26.61,0,1.06-.19,1.56-.66l1.04.92c-.6.74-1.46,1.2-2.63,1.2-1.93,0-3.36-1.35-3.36-3.32Zm4.53-.54c-.11-.82-.59-1.37-1.36-1.37s-1.25.54-1.39,1.37h2.75Z"/>
          <path class="mobile-cls-8" d="m183.56,292.85h1.82v.91c.42-.54.97-1.03,1.9-1.03.84,0,1.47.37,1.81,1.02.56-.66,1.24-1.02,2.11-1.02,1.35,0,2.17.82,2.17,2.36v4.19h-1.82v-3.59c0-.86-.38-1.31-1.07-1.31s-1.1.44-1.1,1.31v3.59h-1.82v-3.59c0-.86-.38-1.31-1.07-1.31s-1.1.44-1.1,1.31v3.59h-1.82v-6.43Z"/>
          <path class="mobile-cls-8" d="m194.65,296.1v-.02c0-1.83,1.31-3.35,3.18-3.35,2.15,0,3.13,1.67,3.13,3.49,0,.14-.01.31-.02.48h-4.47c.18.83.76,1.26,1.57,1.26.61,0,1.06-.19,1.56-.66l1.04.92c-.6.74-1.46,1.2-2.63,1.2-1.93,0-3.36-1.35-3.36-3.32Zm4.53-.54c-.11-.82-.59-1.37-1.36-1.37s-1.25.54-1.39,1.37h2.75Z"/>
          <path class="mobile-cls-8" d="m202.32,292.85h1.82v.91c.42-.54.96-1.03,1.88-1.03,1.38,0,2.18.91,2.18,2.39v4.16h-1.82v-3.59c0-.86-.41-1.31-1.1-1.31s-1.14.44-1.14,1.31v3.59h-1.82v-6.43Z"/>
          <path class="mobile-cls-8" d="m210.09,297.46v-3.05h-.77v-1.56h.77v-1.64h1.82v1.64h1.51v1.56h-1.51v2.75c0,.42.18.62.59.62.34,0,.64-.08.9-.23v1.46c-.38.23-.83.37-1.44.37-1.12,0-1.87-.44-1.87-1.93Z"/>
        </g>
      </g>
      <g id="age_bar">
        <rect class="mobile-cls-19" x="3.55" y="206.04" width="346.11" height="47.61" rx="23.8" ry="23.8"/>
        <g>
          <path class="mobile-cls-8" d="m160.36,218.32h1.7l3.6,8.46h-1.93l-.77-1.88h-3.55l-.77,1.88h-1.88l3.6-8.46Zm1.94,4.94l-1.12-2.72-1.12,2.72h2.23Z"/>
          <path class="mobile-cls-8" d="m166.51,228.04l.62-1.37c.66.37,1.32.59,2.17.59,1.25,0,1.83-.6,1.83-1.75v-.31c-.54.65-1.13,1.04-2.1,1.04-1.5,0-2.85-1.09-2.85-3v-.02c0-1.92,1.38-3,2.85-3,1,0,1.58.42,2.07.96v-.84h1.82v4.98c0,1.15-.28,1.99-.82,2.53-.6.6-1.52.86-2.77.86-1.04,0-2.03-.24-2.84-.67Zm4.63-4.8v-.02c0-.88-.68-1.49-1.57-1.49s-1.56.61-1.56,1.49v.02c0,.89.67,1.49,1.56,1.49s1.57-.61,1.57-1.49Z"/>
          <path class="mobile-cls-8" d="m174.26,223.59v-.02c0-1.83,1.31-3.35,3.18-3.35,2.15,0,3.13,1.67,3.13,3.49,0,.14-.01.31-.02.48h-4.47c.18.83.76,1.26,1.57,1.26.61,0,1.06-.19,1.56-.66l1.04.92c-.6.74-1.46,1.2-2.63,1.2-1.93,0-3.36-1.35-3.36-3.32Zm4.53-.54c-.11-.82-.59-1.37-1.36-1.37s-1.25.54-1.39,1.37h2.75Z"/>
          <path class="mobile-cls-8" d="m185.15,224.93v-.02c0-1.4,1.07-2.05,2.59-2.05.65,0,1.12.11,1.57.26v-.11c0-.76-.47-1.18-1.38-1.18-.7,0-1.19.13-1.77.35l-.46-1.39c.71-.31,1.4-.52,2.49-.52,1,0,1.72.26,2.17.72.48.48.7,1.19.7,2.05v3.73h-1.76v-.7c-.44.49-1.06.82-1.94.82-1.21,0-2.21-.7-2.21-1.97Zm4.19-.42v-.32c-.31-.14-.72-.24-1.16-.24-.78,0-1.26.31-1.26.89v.02c0,.49.41.78,1,.78.85,0,1.43-.47,1.43-1.13Z"/>
          <path class="mobile-cls-8" d="m192.87,224.95v-3.05h-.77v-1.56h.77v-1.64h1.82v1.64h1.51v1.56h-1.51v2.75c0,.42.18.62.59.62.34,0,.64-.08.9-.23v1.46c-.38.23-.83.37-1.44.37-1.12,0-1.87-.44-1.87-1.93Z"/>
          <path class="mobile-cls-8" d="m148.11,237.57v-.02c0-2.15,1.4-3.32,2.93-3.32.97,0,1.57.44,2,.96v-3.17h1.82v8.75h-1.82v-.92c-.44.6-1.06,1.04-2,1.04-1.5,0-2.93-1.18-2.93-3.32Zm4.95,0v-.02c0-1.07-.71-1.77-1.56-1.77s-1.57.7-1.57,1.77v.02c0,1.07.72,1.78,1.57,1.78s1.56-.71,1.56-1.78Z"/>
          <path class="mobile-cls-8" d="m156.54,232.02h1.92v1.62h-1.92v-1.62Zm.05,2.33h1.82v6.43h-1.82v-6.43Z"/>
          <path class="mobile-cls-8" d="m159.74,238.93v-.02c0-1.4,1.07-2.05,2.59-2.05.65,0,1.12.11,1.57.26v-.11c0-.76-.47-1.18-1.38-1.18-.7,0-1.19.13-1.77.35l-.46-1.39c.71-.31,1.4-.52,2.49-.52,1,0,1.72.26,2.17.72.48.48.7,1.19.7,2.05v3.73h-1.76v-.7c-.44.49-1.06.82-1.94.82-1.21,0-2.21-.7-2.21-1.97Zm4.19-.42v-.32c-.31-.14-.72-.24-1.16-.24-.78,0-1.26.31-1.26.89v.02c0,.49.41.78,1,.78.85,0,1.43-.47,1.43-1.13Z"/>
          <path class="mobile-cls-8" d="m167.27,242.04l.62-1.37c.66.37,1.32.59,2.17.59,1.25,0,1.83-.6,1.83-1.75v-.31c-.54.65-1.13,1.04-2.1,1.04-1.5,0-2.85-1.09-2.85-3v-.02c0-1.92,1.38-3,2.85-3,1,0,1.58.42,2.07.96v-.84h1.82v4.98c0,1.15-.28,1.99-.82,2.53-.6.6-1.52.86-2.77.86-1.04,0-2.03-.24-2.84-.67Zm4.63-4.8v-.02c0-.88-.68-1.49-1.57-1.49s-1.56.61-1.56,1.49v.02c0,.89.67,1.49,1.56,1.49s1.57-.61,1.57-1.49Z"/>
          <path class="mobile-cls-8" d="m175.33,234.34h1.82v.91c.42-.54.96-1.03,1.88-1.03,1.38,0,2.18.91,2.18,2.39v4.16h-1.82v-3.59c0-.86-.41-1.31-1.1-1.31s-1.14.44-1.14,1.31v3.59h-1.82v-6.43Z"/>
          <path class="mobile-cls-8" d="m182.49,237.59v-.02c0-1.85,1.49-3.35,3.49-3.35s3.47,1.48,3.47,3.32v.02c0,1.85-1.49,3.35-3.49,3.35s-3.47-1.47-3.47-3.32Zm5.16,0v-.02c0-.95-.68-1.78-1.69-1.78s-1.67.8-1.67,1.75v.02c0,.95.68,1.78,1.69,1.78s1.67-.8,1.67-1.75Z"/>
          <path class="mobile-cls-8" d="m190.27,239.92l.78-1.2c.7.5,1.43.77,2.03.77.53,0,.77-.19.77-.48v-.02c0-.4-.62-.53-1.33-.74-.9-.26-1.92-.68-1.92-1.93v-.02c0-1.31,1.05-2.04,2.35-2.04.82,0,1.7.28,2.4.74l-.7,1.26c-.64-.37-1.27-.6-1.74-.6-.44,0-.67.19-.67.44v.02c0,.36.61.53,1.31.77.9.3,1.94.73,1.94,1.91v.02c0,1.43-1.07,2.08-2.46,2.08-.9,0-1.91-.3-2.76-.97Z"/>
          <path class="mobile-cls-8" d="m196.83,232.02h1.92v1.62h-1.92v-1.62Zm.05,2.33h1.82v6.43h-1.82v-6.43Z"/>
          <path class="mobile-cls-8" d="m199.92,239.92l.78-1.2c.7.5,1.43.77,2.03.77.53,0,.77-.19.77-.48v-.02c0-.4-.62-.53-1.33-.74-.9-.26-1.92-.68-1.92-1.93v-.02c0-1.31,1.06-2.04,2.35-2.04.82,0,1.7.28,2.4.74l-.7,1.26c-.64-.37-1.27-.6-1.74-.6-.44,0-.67.19-.67.44v.02c0,.36.61.53,1.31.77.9.3,1.94.73,1.94,1.91v.02c0,1.43-1.07,2.08-2.46,2.08-.9,0-1.91-.3-2.76-.97Z"/>
        </g>
      </g>
      <g id="gradient_bar">
        <path class="mobile-cls-2" d="m79.16,147.87h193.34c-7.57-3.48-12.84-11.12-12.84-20s5.26-16.52,12.84-20H79.16c7.57,3.48,12.84,11.12,12.84,20s-5.26,16.52-12.84,20Z"/>
      </g>
      <g id="organ_icon">
        <circle class="mobile-cls-5" cx="175.83" cy="127.87" r="43.92"/>
        <g>
          <path class="mobile-cls-11" d="m198.4,141.38c0-1.73-.51-3.39-1.42-4.64,1.03-1.34,1.61-3.13,1.61-5.04,0-1.79-.52-3.5-1.45-4.82.87-.96,1.36-2.21,1.36-3.53,0-2.9-2.36-5.26-5.27-5.26-2.42,0-4.47,1.61-5.09,3.87-.28-.05-.56-.07-.85-.07-2.14,0-4.01,1.3-4.78,3.22-.95-.46-1.98-.7-3.04-.7-1.96,0-3.79.81-5.09,2.23-.97-1.34-2.54-2.16-4.26-2.16-.93,0-1.83.24-2.61.69-1.18-1.16-2.88-1.83-4.69-1.83-.21,0-.43,0-.66.03-.92-.71-2.05-1.1-3.22-1.1-2.9,0-5.27,2.36-5.27,5.26,0,.8.17,1.57.5,2.27-.65.62-1.03,1.48-1.03,2.4,0,.29.04.6.12.89-.51.83-.78,1.78-.78,2.76,0,1.07.33,2.12.95,3-.76.93-1.19,2.11-1.19,3.33,0,1.63.75,3.14,2,4.13-.69.91-1.08,2.03-1.08,3.19,0,2.9,2.37,5.26,5.28,5.26,1.6,0,3.03-.71,3.99-1.84.49,1.48,1.45,2.37,2.34,2.89,1.1.66,2.44.94,3.66.94.56,0,1.11-.06,1.59-.18,0,2,.74,3.75,1.77,4.87.46.5.91.9,1.35,1.29,1.08.96,1.86,1.66,2.02,3.15.17,1.66,1.22,1.93,1.87,1.93.02,0,.04,0,.06,0,1.16-.02,1.8-1.05,1.82-2.05h0s0-.29,0-.29c.01-1.85.02-3.42-.34-4.75,1.81.47,3.77.2,4.99-.64,1.57,1.53,3.98,2.25,6.12,1.78,1.3-.28,3.56-1.25,4.52-4.53,2.46-.67,4.25-3.44,4.25-6.69,0-1.74-.52-3.39-1.43-4.65.9-1.26,1.4-2.9,1.4-4.61h0Zm-32.84,13.08c-1.45-.86-2.08-2.38-1.87-4.52,0-.04,0-.07,0-.11,0-.12.01-.23.01-.35,0-1.64-.75-3.15-2-4.13.7-.92,1.08-2.04,1.08-3.18,0-1.08-.33-2.13-.95-3.01.76-.93,1.19-2.11,1.19-3.32,0-.58-.09-1.15-.27-1.69.36,0,.73-.02,1.08-.07.02.92.31,1.75.86,2.46.44.56,1.02,1.01,1.65,1.35-.95.47-1.84,1.19-2.43,2.14-.61.97-1.36,2.97.43,5.52,1.18,1.69,2.65,2.33,4.23,2.46-.47,1.2-.79,2.74-.61,3.67.07.37.4.63.76.63.05,0,.1,0,.15-.01.42-.08.7-.49.62-.91-.13-.7.3-2.47.8-3.41,1.08-.11,2.16-.36,3.21-.6.65-.15,1.32-.31,1.96-.42,4.08-.74,5.49-.25,7.63,1.62.15.13.33.19.51.19.22,0,.43-.09.59-.27.28-.32.25-.81-.08-1.1-2.65-2.31-4.66-2.75-8.93-1.98-.68.12-1.37.28-2.03.44-3.09.72-5.75,1.33-7.53-1.21-.97-1.39-1.1-2.67-.38-3.81.83-1.32,2.65-2.13,3.91-2.09.12.02.24.03.35.04.41.03.78-.27.83-.68.05-.41-.24-.79-.65-.86-.12-.02-.25-.03-.38-.04-.99-.13-2.55-.59-3.36-1.64-.41-.53-.59-1.17-.53-1.92.28-.11.56-.24.82-.39,1,1.09,2.41,1.73,3.9,1.73,1.2,0,2.36-.41,3.29-1.16.8.8,1.9,1.3,3.18,1.43,1.69.17,3.54-.34,4.68-1.24.19.04.38.07.58.1.01.1.03.2.05.3-1.39.43-2.4,1.72-2.4,3.24,0,.43.35.78.78.78s.78-.35.78-.78c0-.86.59-1.58,1.39-1.78.86,1.52,2.49,2.55,4.35,2.55h.02c.43,0,.78-.35.78-.78s-.35-.78-.78-.78h-.02c-1.4,0-2.61-.84-3.15-2.05-.02-.06-.04-.11-.07-.16-.06-.15-.1-.3-.14-.45,1.45-.03,2.93-.39,4.36-1.05-.09,1.68.52,2.89,1.14,3.68-.86,1.24-1.34,2.85-1.34,4.52s.52,3.4,1.44,4.66c-.99,1.45-1.45,3.51-1.44,5.45-1.28-.23-2.98-.27-4.39.42-1.32-1.92-3.51-3.08-5.87-3.08-2.79,0-5.34,1.63-6.49,4.15-.3.64-.51,1.28-.64,1.9-.95.4-3.06.52-4.64-.42h0Zm27.88,1.44c-.31.05-.57.28-.64.59-.5,2.1-1.73,3.47-3.47,3.85-1.82.4-3.98-.38-5.12-1.84-.15-.19-.37-.3-.61-.3h0c-.24,0-.46.11-.61.3-.6.77-2.53,1.21-4.34.63-.42-.14-.97-.38-1.46-.8-.07-.07-.15-.14-.23-.21-.49-.51-.87-1.23-.92-2.25-.02-.43-.38-.76-.81-.74-.43.02-.76.38-.74.81.05,1.23.48,2.29,1.21,3.12.04.05.08.1.13.14,0,0,0,0,0,0,.1.11.21.21.33.31,1.22,1.3,1.2,3.1,1.18,5.95v.26s-.03.53-.3.54c-.21,0-.29,0-.35-.53-.21-2.09-1.34-3.09-2.53-4.15-.41-.37-.84-.74-1.24-1.19-1.22-1.33-1.96-4.01-.68-6.76.91-1.97,2.9-3.25,5.08-3.25,2.07,0,3.96,1.13,4.93,2.96.11.2.3.34.52.39.22.05.46,0,.64-.14,1.22-.93,3.14-.77,4.3-.49.12.8.33,1.54.62,2.15.18.39.65.55,1.03.37.39-.18.55-.65.37-1.04-.27-.56-.45-1.28-.53-2.06,0-.07,0-.14-.02-.21-.18-2.04.27-4.46,1.42-5.77.26-.3.26-.74,0-1.04-.92-1.02-1.45-2.52-1.45-4.12s.5-3.03,1.38-4.04c.27-.31.25-.77-.04-1.06-.74-.74-1.5-2.04-.97-4.06.06-.04.13-.08.19-.13,2.51-1.73,4.22-4.18,4.45-6.41.04-.43-.27-.81-.69-.85-.43-.04-.81.27-.85.69-.18,1.76-1.67,3.84-3.79,5.29-.12.08-.24.16-.36.24-.02.01-.04.02-.06.03-2.33,1.46-4.91,1.95-7.15,1.35-.27-.07-.56,0-.75.2-.64.65-2.17,1.25-3.76,1.09-.81-.08-1.92-.4-2.61-1.44-.13-.2-.35-.33-.59-.35-.24-.02-.48.08-.64.26-.72.81-1.71,1.25-2.79,1.25-1.23,0-2.39-.62-3.09-1.65-.12-.17-.3-.29-.51-.33-.21-.03-.42.01-.59.14-.86.63-1.96.97-3.11.97-.44,0-.85-.04-1.23-.13h0s0,0,0,0c-1.44-.32-2.62-1.21-3.16-2.37-.18-.39-.64-.56-1.03-.38-.39.18-.56.64-.38,1.03.7,1.51,2.15,2.67,3.92,3.15.36.58.54,1.24.54,1.94,0,1.03-.43,2.02-1.18,2.71-.31.29-.34.78-.05,1.1.64.7.99,1.6.99,2.53,0,.88-.32,1.73-.89,2.4-.6-.24-1.25-.36-1.9-.36-.43,0-.78.35-.78.78s.35.78.78.78c.6,0,1.19.15,1.71.42,0,0,0,0,0,0,0,0,0,0,0,0,1.23.64,1.99,1.9,1.99,3.29,0,2.05-1.67,3.71-3.71,3.71s-3.72-1.66-3.72-3.71c0-1.05.45-2.05,1.24-2.76.19-.17.28-.42.25-.67-.03-.25-.18-.47-.41-.59-1.23-.65-2-1.91-2-3.29,0-1.05.42-2.02,1.18-2.72.31-.29.34-.78.05-1.1-.64-.7-.99-1.59-.99-2.51,0-.79.25-1.55.71-2.19.16-.22.19-.51.09-.76-.1-.22-.15-.46-.15-.7,0-.64.33-1.2.87-1.52.19-.11.32-.29.37-.5.05-.21,0-.43-.11-.61-.4-.6-.61-1.31-.61-2.05,0-2.05,1.67-3.71,3.71-3.71.39,0,.77.06,1.12.17-.69.4-1.22.98-1.52,1.67-.17.39.01.85.41,1.02.1.04.2.06.31.06.3,0,.59-.18.71-.47.29-.69,1.08-1.2,2.04-1.34.3-.03.56-.05.81-.05,1.6,0,3.08.66,3.95,1.78.26.34.75.4,1.09.14.65-.5,1.44-.77,2.27-.77,1.52,0,2.87.9,3.44,2.3.11.27.36.46.65.48.29.03.57-.11.73-.36.99-1.56,2.69-2.5,4.53-2.5,1.1,0,2.16.33,3.07.96.22.15.5.18.74.08.24-.1.42-.32.46-.58.3-1.72,1.79-2.97,3.54-2.97.41,0,.81.07,1.2.21.22.08.47.05.68-.07.2-.13.33-.34.36-.58.19-1.91,1.79-3.35,3.71-3.35,2.05,0,3.71,1.66,3.71,3.71,0,1.11-.49,2.16-1.35,2.87-.16.14-.26.33-.28.54-.02.21.05.42.2.58.97,1.08,1.52,2.68,1.52,4.37s-.59,3.4-1.62,4.49c-.28.3-.29.76-.01,1.06.92,1.02,1.45,2.52,1.45,4.13s-.52,3.08-1.42,4.1c-.26.3-.26.74,0,1.04.92,1.02,1.45,2.52,1.45,4.12,0,2.66-1.51,4.97-3.44,5.26h0Zm-18.12-14.93c-.45.71-1.1,1.35-1.89,1.83-.99.6-2.14.91-3.31.91-.3,0-.61-.02-.91-.06-.42-.06-.72-.45-.66-.88.06-.42.45-.72.88-.66,2.36.33,4.44-1.12,4.9-2.68.34-1.16-.24-2.15-1.63-2.81-.39-.18-.56-.64-.37-1.03.18-.39.64-.56,1.03-.37,2.2,1.03,2.78,2.71,2.58,4.12,2.93-.29,7.37.09,10.94,3.85.29.31.28.8-.03,1.1-.15.14-.34.21-.53.21-.21,0-.41-.08-.56-.24-3.46-3.65-7.89-3.66-10.44-3.28h0Z"/>
          <g>
            <path class="mobile-cls-11" d="m189.69,99.77c-1.66-3.12-4.19-5.33-6.95-6.06-2.8-.74-6.06-.19-8.32,1.41h-.81c-1.09,0-1.97-.89-1.97-1.98v-2.08c0-.95-.77-1.73-1.73-1.73h-1.19c-.95,0-1.73.77-1.73,1.73v2.7c0,2.75,1.82,5.11,4.46,5.8-.8,3.6,1.11,5.94,2.65,7.83.9,1.1,1.67,2.06,1.75,3.03.09,1.1-.7,2.32-2.48,3.84-.96.82-1.59,1.95-1.78,3.18h-1.31c-2.56,0-4.65,2.09-4.65,4.65v2.2c0,.95.77,1.73,1.73,1.73h1c.95,0,1.73-.77,1.73-1.73v-1.34c0-.21.17-.39.39-.39h3.32c1.05.71,2.71,1.19,4.07,1.19,2.2,0,4.54-1,6.78-2.88,2.66-2.23,4.8-5.43,6.04-9.01,1.37-3.95,1.01-8.37-.99-12.11Zm-14.36,6.58c-1.58-1.97-3.21-4.01-2.1-7.15.08-.24.05-.5-.08-.71-.14-.21-.36-.35-.61-.37-2.24-.22-3.94-2.09-3.94-4.35v-2.7c0-.05.04-.1.1-.1h1.19c.05,0,.1.04.1.1v2.08c0,.97.4,1.91,1.09,2.59.68.67,1.58,1.03,2.52,1.02.28,0,.5,0,.67,0,.43.01.65.02.9-.17,1.86-1.41,4.73-1.93,7.15-1.3,2.29.61,4.5,2.57,5.93,5.25,1.78,3.35,2.11,7.29.89,10.81-1.83,5.3-5.54,8.9-8.4,10.13-1.91.82-3.76.83-5.51.04-.38-.17-.53-.29-.63-.37-.28-.23-.32-.23-2.01-.21-.52,0-1.21,0-2.13,0-1.11,0-2.02.91-2.02,2.02v1.34c0,.05-.04.1-.1.1h-1c-.05,0-.1-.04-.1-.1v-2.2c0-1.66,1.35-3.02,3.01-3.02h2.07c.45,0,.82-.37.82-.82,0-1.08.45-2.06,1.28-2.76,4.88-4.19,2.96-6.6.91-9.15Z"/>
            <path class="mobile-cls-11" d="m181.46,97.8c2.82.65,4.59,2.83,5.58,6.85.05.21.18.39.37.5.13.08.27.12.42.12.07,0,.13,0,.2-.02.44-.11.7-.55.6-.99-1.14-4.63-3.36-7.26-6.8-8.05h0c-.44-.1-.88.17-.98.61-.1.44.17.88.61.98Z"/>
            <path class="mobile-cls-11" d="m179.48,97.5c.45,0,.82-.37.82-.82s-.37-.82-.82-.82-.82.37-.82.82.37.82.82.82Z"/>
          </g>
        </g>
      </g>
      <g id="high_risk_answers" class="graph_details" data-value="high_risk">
        <g>
          <path class="mobile-cls-8" d="m288.24,230.9l-3.49-5.07h1.15l2.83,4.2,2.85-4.2h1.1l-3.49,5.06v3.33h-.96v-3.32Z"/>
          <path class="mobile-cls-8" d="m292.35,231.15v-.02c0-1.75,1.37-3.24,3.24-3.24s3.23,1.46,3.23,3.21v.02c0,1.75-1.38,3.24-3.25,3.24s-3.21-1.46-3.21-3.21Zm5.52,0v-.02c0-1.33-1-2.42-2.3-2.42s-2.27,1.09-2.27,2.4v.02c0,1.33.98,2.41,2.29,2.41s2.28-1.08,2.28-2.39Z"/>
          <path class="mobile-cls-8" d="m300.39,231.87v-3.85h.92v3.62c0,1.15.62,1.87,1.72,1.87s1.86-.78,1.86-1.94v-3.55h.91v6.2h-.91v-1.08c-.42.67-1.06,1.21-2.12,1.21-1.5,0-2.37-1.01-2.37-2.48Z"/>
          <path class="mobile-cls-8" d="m307.88,228.03h.92v1.08c.41-.67,1.06-1.21,2.12-1.21,1.5,0,2.38,1.01,2.38,2.48v3.85h-.92v-3.62c0-1.15-.62-1.87-1.71-1.87s-1.86.78-1.86,1.94v3.55h-.92v-6.2Z"/>
          <path class="mobile-cls-8" d="m315.2,235.3l.42-.72c.71.52,1.5.79,2.39.79,1.37,0,2.25-.76,2.25-2.21v-.73c-.54.72-1.29,1.31-2.43,1.31-1.49,0-2.91-1.12-2.91-2.9v-.02c0-1.81,1.44-2.93,2.91-2.93,1.16,0,1.92.58,2.42,1.25v-1.12h.92v5.12c0,.96-.29,1.69-.79,2.19-.55.55-1.38.83-2.36.83s-1.99-.29-2.82-.86Zm5.09-4.47v-.02c0-1.27-1.1-2.1-2.28-2.1s-2.15.82-2.15,2.09v.02c0,1.25,1,2.11,2.15,2.11s2.28-.85,2.28-2.1Z"/>
          <path class="mobile-cls-8" d="m322.85,231.14v-.02c0-1.79,1.26-3.23,2.97-3.23,1.83,0,2.89,1.46,2.89,3.27,0,.12,0,.19-.01.3h-4.92c.13,1.34,1.08,2.1,2.18,2.1.85,0,1.45-.35,1.95-.88l.58.52c-.62.7-1.38,1.16-2.55,1.16-1.7,0-3.09-1.31-3.09-3.23Zm4.93-.36c-.1-1.13-.74-2.11-1.98-2.11-1.08,0-1.9.9-2.02,2.11h3.99Z"/>
          <path class="mobile-cls-8" d="m330.34,228.03h.92v1.62c.46-1.03,1.35-1.78,2.53-1.73v1h-.07c-1.36,0-2.46.97-2.46,2.84v2.47h-.92v-6.2Z"/>
        </g>
        <g>
          <path class="mobile-cls-8" d="m278.34,283.89h6.07v.86h-5.12v2.87h4.58v.86h-4.58v2.94h5.18v.86h-6.13v-8.4Z"/>
          <path class="mobile-cls-8" d="m288.64,288.5l1.85-2.42h1.03l-2.35,3.03,2.45,3.17h-1.07l-1.92-2.55-1.93,2.55h-1.03l2.42-3.15-2.33-3.05h1.06l1.82,2.42Z"/>
          <path class="mobile-cls-8" d="m293.44,290.64v-3.74h-.86v-.82h.86v-1.87h.92v1.87h1.97v.82h-1.97v3.62c0,.75.42,1.03,1.04,1.03.31,0,.58-.06.9-.22v.79c-.32.17-.67.26-1.12.26-1,0-1.75-.49-1.75-1.75Z"/>
          <path class="mobile-cls-8" d="m297.4,289.2v-.02c0-1.79,1.26-3.23,2.97-3.23,1.83,0,2.89,1.46,2.89,3.27,0,.12,0,.19-.01.3h-4.92c.13,1.34,1.08,2.1,2.18,2.1.85,0,1.45-.35,1.95-.88l.58.52c-.62.7-1.38,1.16-2.55,1.16-1.7,0-3.09-1.31-3.09-3.23Zm4.93-.36c-.1-1.13-.74-2.11-1.98-2.11-1.08,0-1.9.9-2.02,2.11h3.99Z"/>
          <path class="mobile-cls-8" d="m304.89,286.08h.92v1.08c.41-.67,1.06-1.21,2.12-1.21,1.5,0,2.38,1.01,2.38,2.48v3.85h-.92v-3.62c0-1.15-.62-1.87-1.71-1.87s-1.86.78-1.86,1.94v3.55h-.92v-6.2Z"/>
          <path class="mobile-cls-8" d="m311.76,291.49l.47-.66c.67.5,1.42.79,2.15.79s1.28-.38,1.28-.98v-.02c0-.62-.73-.86-1.55-1.09-.97-.28-2.05-.61-2.05-1.75v-.02c0-1.07.89-1.78,2.11-1.78.76,0,1.6.26,2.23.68l-.42.7c-.58-.37-1.24-.6-1.83-.6-.73,0-1.2.38-1.2.9v.02c0,.59.77.82,1.6,1.07.96.29,1.99.66,1.99,1.78v.02c0,1.18-.97,1.86-2.21,1.86-.89,0-1.87-.35-2.57-.91Z"/>
          <path class="mobile-cls-8" d="m318.28,283.71h1.06v1.02h-1.06v-1.02Zm.06,2.38h.92v6.2h-.92v-6.2Z"/>
          <path class="mobile-cls-8" d="m320.8,286.08h1.02l2.09,5.14,2.1-5.14h1l-2.7,6.25h-.82l-2.69-6.25Z"/>
          <path class="mobile-cls-8" d="m327.71,289.2v-.02c0-1.79,1.26-3.23,2.97-3.23,1.83,0,2.89,1.46,2.89,3.27,0,.12,0,.19-.01.3h-4.92c.13,1.34,1.08,2.1,2.18,2.1.85,0,1.45-.35,1.95-.88l.58.52c-.62.7-1.38,1.16-2.55,1.16-1.7,0-3.09-1.31-3.09-3.23Zm4.93-.36c-.1-1.13-.74-2.11-1.98-2.11-1.08,0-1.9.9-2.02,2.11h3.99Z"/>
        </g>
        <g>
          <path class="mobile-cls-8" d="m317.63,347.47l-3.49-5.07h1.15l2.83,4.2,2.85-4.2h1.1l-3.49,5.06v3.33h-.96v-3.32Z"/>
          <path class="mobile-cls-8" d="m321.74,347.71v-.02c0-1.79,1.26-3.23,2.97-3.23,1.83,0,2.89,1.46,2.89,3.27,0,.12,0,.19-.01.3h-4.92c.13,1.34,1.08,2.1,2.18,2.1.85,0,1.45-.35,1.95-.88l.58.52c-.62.7-1.38,1.16-2.55,1.16-1.7,0-3.09-1.31-3.09-3.23Zm4.93-.36c-.1-1.13-.74-2.11-1.98-2.11-1.08,0-1.9.9-2.02,2.11h3.99Z"/>
          <path class="mobile-cls-8" d="m328.71,350l.47-.66c.67.5,1.42.79,2.15.79s1.28-.38,1.28-.98v-.02c0-.62-.73-.86-1.55-1.09-.97-.28-2.05-.61-2.05-1.75v-.02c0-1.07.89-1.78,2.11-1.78.76,0,1.6.26,2.23.68l-.42.7c-.58-.37-1.24-.6-1.83-.6-.73,0-1.2.38-1.2.9v.02c0,.59.77.82,1.6,1.07.96.29,1.99.66,1.99,1.78v.02c0,1.18-.97,1.86-2.21,1.86-.89,0-1.87-.35-2.57-.91Z"/>
        </g>
        <g>
          <path class="mobile-cls-8" d="m305.53,401.54h2.91c2.64,0,4.46,1.81,4.46,4.17v.02c0,2.36-1.82,4.2-4.46,4.2h-2.91v-8.4Zm.95.88v6.64h1.97c2.12,0,3.48-1.44,3.48-3.3v-.02c0-1.86-1.36-3.32-3.48-3.32h-1.97Z"/>
          <path class="mobile-cls-8" d="m314.37,406.86v-.02c0-1.79,1.26-3.23,2.97-3.23,1.83,0,2.89,1.46,2.89,3.27,0,.12,0,.19-.01.3h-4.92c.13,1.34,1.08,2.1,2.18,2.1.85,0,1.45-.35,1.95-.88l.58.52c-.62.7-1.38,1.16-2.55,1.16-1.7,0-3.09-1.31-3.09-3.23Zm4.93-.36c-.1-1.13-.74-2.11-1.98-2.11-1.08,0-1.9.9-2.02,2.11h3.99Z"/>
          <path class="mobile-cls-8" d="m321.48,406.86v-.02c0-1.79,1.26-3.23,2.97-3.23,1.83,0,2.89,1.46,2.89,3.27,0,.12,0,.19-.01.3h-4.92c.13,1.34,1.08,2.1,2.18,2.1.85,0,1.45-.35,1.95-.88l.58.52c-.62.7-1.38,1.16-2.55,1.16-1.7,0-3.09-1.31-3.09-3.23Zm4.93-.36c-.1-1.13-.74-2.11-1.98-2.11-1.08,0-1.9.9-2.02,2.11h3.99Z"/>
          <path class="mobile-cls-8" d="m328.96,403.74h.92v1.25c.5-.74,1.24-1.38,2.37-1.38,1.49,0,2.96,1.17,2.96,3.21v.02c0,2.03-1.46,3.23-2.96,3.23-1.15,0-1.9-.62-2.37-1.32v3.11h-.92v-8.12Zm5.31,3.12v-.02c0-1.46-1.01-2.4-2.18-2.4s-2.24.97-2.24,2.39v.02c0,1.44,1.09,2.4,2.24,2.4s2.18-.89,2.18-2.39Z"/>
        </g>
        <g>
          <path class="mobile-cls-8" d="m319.36,465.39l-3.49-5.07h1.15l2.83,4.2,2.85-4.2h1.1l-3.49,5.06v3.33h-.96v-3.32Z"/>
          <path class="mobile-cls-8" d="m323.47,465.63v-.02c0-1.79,1.26-3.23,2.97-3.23,1.83,0,2.89,1.46,2.89,3.27,0,.12,0,.19-.01.3h-4.92c.13,1.34,1.08,2.1,2.18,2.1.85,0,1.45-.35,1.95-.88l.58.52c-.62.7-1.38,1.16-2.55,1.16-1.7,0-3.09-1.31-3.09-3.23Zm4.93-.36c-.1-1.13-.74-2.11-1.98-2.11-1.08,0-1.9.9-2.02,2.11h3.99Z"/>
          <path class="mobile-cls-8" d="m330.44,467.92l.47-.66c.67.5,1.42.79,2.15.79s1.28-.38,1.28-.98v-.02c0-.62-.73-.86-1.55-1.09-.97-.28-2.05-.61-2.05-1.75v-.02c0-1.07.89-1.78,2.11-1.78.76,0,1.6.26,2.23.68l-.42.7c-.58-.37-1.24-.6-1.83-.6-.73,0-1.2.38-1.2.9v.02c0,.59.77.82,1.6,1.07.96.29,1.99.66,1.99,1.78v.02c0,1.18-.97,1.86-2.21,1.86-.89,0-1.87-.35-2.57-.91Z"/>
        </g>
      </g>
      <g id="low_risk_answers" class="graph_details" data-value="low_risk">
        <g>
          <path class="mobile-cls-8" d="m21.22,230.05v-.02c0-2.32,1.74-4.34,4.29-4.34s4.27,2,4.27,4.32v.02c0,2.31-1.74,4.34-4.29,4.34s-4.27-2-4.27-4.32Zm7.58,0v-.02c0-1.91-1.39-3.47-3.31-3.47s-3.29,1.54-3.29,3.44v.02c0,1.91,1.39,3.47,3.31,3.47s3.29-1.54,3.29-3.44Z"/>
          <path class="mobile-cls-8" d="m31.71,225.47h.92v8.75h-.92v-8.75Z"/>
          <path class="mobile-cls-8" d="m34.43,231.14v-.02c0-2.03,1.47-3.23,2.96-3.23,1.15,0,1.89.62,2.38,1.32v-3.74h.92v8.75h-.92v-1.25c-.5.74-1.24,1.38-2.38,1.38-1.49,0-2.96-1.17-2.96-3.21Zm5.37-.01v-.02c0-1.43-1.09-2.39-2.24-2.39s-2.18.89-2.18,2.39v.02c0,1.46,1.01,2.4,2.18,2.4s2.24-.97,2.24-2.4Z"/>
          <path class="mobile-cls-8" d="m42.37,231.14v-.02c0-1.79,1.26-3.23,2.97-3.23,1.83,0,2.89,1.46,2.89,3.27,0,.12,0,.19-.01.3h-4.92c.13,1.34,1.08,2.1,2.18,2.1.85,0,1.45-.35,1.96-.88l.58.52c-.62.7-1.38,1.16-2.55,1.16-1.7,0-3.09-1.31-3.09-3.23Zm4.93-.36c-.1-1.13-.74-2.11-1.98-2.11-1.08,0-1.89.9-2.01,2.11h3.99Z"/>
          <path class="mobile-cls-8" d="m49.86,228.03h.92v1.62c.46-1.03,1.36-1.78,2.53-1.73v1h-.07c-1.36,0-2.46.97-2.46,2.84v2.47h-.92v-6.2Z"/>
        </g>
        <g>
          <path class="mobile-cls-8" d="m21.59,283.89h.95v7.52h4.73v.88h-5.67v-8.4Z"/>
          <path class="mobile-cls-8" d="m28.84,283.71h1.05v1.02h-1.05v-1.02Zm.06,2.38h.92v6.2h-.92v-6.2Z"/>
          <path class="mobile-cls-8" d="m31.97,286.08h.92v1.04c.41-.61.96-1.17,2-1.17s1.66.54,1.99,1.23c.44-.68,1.1-1.23,2.18-1.23,1.43,0,2.3.96,2.3,2.49v3.84h-.92v-3.62c0-1.2-.6-1.87-1.61-1.87-.94,0-1.72.7-1.72,1.92v3.57h-.91v-3.65c0-1.16-.61-1.85-1.59-1.85s-1.73.82-1.73,1.96v3.54h-.92v-6.2Z"/>
          <path class="mobile-cls-8" d="m43.37,283.71h1.06v1.02h-1.06v-1.02Zm.06,2.38h.92v6.2h-.92v-6.2Z"/>
          <path class="mobile-cls-8" d="m46.82,290.64v-3.74h-.86v-.82h.86v-1.87h.92v1.87h1.97v.82h-1.97v3.62c0,.75.42,1.03,1.04,1.03.31,0,.58-.06.9-.22v.79c-.32.17-.67.26-1.12.26-1,0-1.75-.49-1.75-1.75Z"/>
          <path class="mobile-cls-8" d="m50.78,289.2v-.02c0-1.79,1.26-3.23,2.97-3.23,1.83,0,2.89,1.46,2.89,3.27,0,.12,0,.19-.01.3h-4.92c.13,1.34,1.08,2.1,2.18,2.1.85,0,1.45-.35,1.95-.88l.58.52c-.62.7-1.38,1.16-2.55,1.16-1.7,0-3.09-1.31-3.09-3.23Zm4.93-.36c-.1-1.13-.74-2.11-1.98-2.11-1.08,0-1.9.9-2.02,2.11h3.99Z"/>
          <path class="mobile-cls-8" d="m57.91,289.2v-.02c0-2.03,1.47-3.23,2.96-3.23,1.15,0,1.89.62,2.38,1.32v-3.74h.92v8.75h-.92v-1.25c-.5.74-1.24,1.38-2.38,1.38-1.49,0-2.96-1.17-2.96-3.21Zm5.37-.01v-.02c0-1.43-1.09-2.39-2.24-2.39s-2.18.89-2.18,2.39v.02c0,1.46,1.01,2.4,2.18,2.4s2.24-.97,2.24-2.4Z"/>
        </g>
        <g>
          <path class="mobile-cls-8" d="m21.59,342.39h.89l5.29,6.73v-6.73h.92v8.4h-.76l-5.42-6.88v6.88h-.92v-8.4Z"/>
          <path class="mobile-cls-8" d="m30.53,347.72v-.02c0-1.75,1.37-3.24,3.24-3.24s3.23,1.46,3.23,3.21v.02c0,1.75-1.38,3.24-3.25,3.24s-3.21-1.46-3.21-3.21Zm5.52,0v-.02c0-1.33-1-2.42-2.3-2.42s-2.27,1.09-2.27,2.4v.02c0,1.33.98,2.41,2.29,2.41s2.28-1.08,2.28-2.39Z"/>
        </g>
        <g>
          <path class="mobile-cls-8" d="m21.04,408.72l.59-.7c.88.79,1.72,1.19,2.88,1.19s1.87-.6,1.87-1.43v-.02c0-.78-.42-1.22-2.18-1.6-1.93-.42-2.82-1.04-2.82-2.42v-.02c0-1.32,1.16-2.29,2.76-2.29,1.22,0,2.1.35,2.95,1.03l-.55.73c-.78-.64-1.56-.91-2.42-.91-1.09,0-1.79.6-1.79,1.36v.02c0,.79.43,1.24,2.28,1.63,1.87.41,2.73,1.09,2.73,2.38v.02c0,1.44-1.2,2.38-2.87,2.38-1.33,0-2.42-.44-3.43-1.34Z"/>
          <path class="mobile-cls-8" d="m29.02,407.59v-3.85h.92v3.62c0,1.15.62,1.87,1.71,1.87s1.86-.78,1.86-1.94v-3.55h.91v6.2h-.91v-1.08c-.42.67-1.06,1.21-2.12,1.21-1.5,0-2.38-1.01-2.38-2.48Z"/>
          <path class="mobile-cls-8" d="m36.5,403.74h.92v1.25c.5-.74,1.24-1.38,2.37-1.38,1.49,0,2.96,1.17,2.96,3.21v.02c0,2.03-1.46,3.23-2.96,3.23-1.15,0-1.89-.62-2.37-1.32v3.11h-.92v-8.12Zm5.31,3.12v-.02c0-1.46-1.01-2.4-2.18-2.4s-2.24.97-2.24,2.39v.02c0,1.44,1.09,2.4,2.24,2.4s2.18-.89,2.18-2.39Z"/>
          <path class="mobile-cls-8" d="m44.09,406.86v-.02c0-1.79,1.26-3.23,2.97-3.23,1.83,0,2.89,1.46,2.89,3.27,0,.12,0,.19-.01.3h-4.92c.13,1.34,1.08,2.1,2.18,2.1.85,0,1.45-.35,1.96-.88l.58.52c-.62.7-1.38,1.16-2.55,1.16-1.7,0-3.09-1.31-3.09-3.23Zm4.93-.36c-.1-1.13-.74-2.11-1.98-2.11-1.08,0-1.89.9-2.01,2.11h3.99Z"/>
          <path class="mobile-cls-8" d="m51.57,403.74h.92v1.62c.46-1.03,1.36-1.78,2.53-1.73v1h-.07c-1.36,0-2.46.97-2.46,2.84v2.47h-.92v-6.2Z"/>
          <path class="mobile-cls-8" d="m56.78,404.56h-.85v-.8h.85v-.54c0-.71.19-1.25.54-1.59.31-.31.77-.48,1.33-.48.43,0,.72.05,1.02.16v.8c-.34-.1-.59-.16-.9-.16-.72,0-1.08.43-1.08,1.32v.5h1.97v.79h-1.96v5.38h-.92v-5.38Zm4.08-3.19h1.05v1.02h-1.05v-1.02Zm.07,2.38h.91v6.2h-.91v-6.2Z"/>
          <path class="mobile-cls-8" d="m63.62,406.87v-.02c0-1.75,1.37-3.24,3.18-3.24,1.18,0,1.91.49,2.48,1.1l-.61.65c-.49-.52-1.04-.94-1.88-.94-1.26,0-2.22,1.07-2.22,2.4v.02c0,1.34.98,2.41,2.28,2.41.79,0,1.4-.4,1.9-.92l.59.55c-.62.7-1.37,1.2-2.53,1.2-1.81,0-3.18-1.47-3.18-3.21Z"/>
          <path class="mobile-cls-8" d="m70.88,401.36h1.05v1.02h-1.05v-1.02Zm.06,2.38h.92v6.2h-.92v-6.2Z"/>
          <path class="mobile-cls-8" d="m73.55,408.14v-.02c0-1.31,1.08-2,2.65-2,.79,0,1.35.11,1.91.26v-.22c0-1.12-.68-1.69-1.85-1.69-.73,0-1.31.19-1.88.46l-.28-.75c.68-.31,1.36-.52,2.25-.52s1.55.23,2,.68c.42.42.64,1.02.64,1.81v3.79h-.89v-.94c-.43.56-1.15,1.07-2.24,1.07-1.15,0-2.32-.66-2.32-1.93Zm4.57-.48v-.6c-.46-.13-1.07-.26-1.82-.26-1.16,0-1.81.5-1.81,1.28v.02c0,.78.72,1.24,1.56,1.24,1.14,0,2.08-.7,2.08-1.68Z"/>
          <path class="mobile-cls-8" d="m81.05,401.19h.92v8.75h-.92v-8.75Z"/>
        </g>
        <g>
          <path class="mobile-cls-8" d="m21.59,460.31h.89l5.29,6.73v-6.73h.92v8.4h-.76l-5.42-6.88v6.88h-.92v-8.4Z"/>
          <path class="mobile-cls-8" d="m30.53,465.64v-.02c0-1.75,1.37-3.24,3.24-3.24s3.23,1.46,3.23,3.21v.02c0,1.75-1.38,3.24-3.25,3.24s-3.21-1.46-3.21-3.21Zm5.52,0v-.02c0-1.33-1-2.42-2.3-2.42s-2.27,1.09-2.27,2.4v.02c0,1.33.98,2.41,2.29,2.41s2.28-1.08,2.28-2.39Z"/>
        </g>
      </g>
      <g id="high_risk_line">
        <line class="mobile-cls-14" x1="305.66" y1="150.07" x2="305.66" y2="206.24"/>
      </g>
      <g id="high_risk_btn" class="graph--btn" data-value="high_risk">
        <g id="active_high_risk_btn" class="active-btn">
          <rect class="mobile-cls-7" x="259.66" y="105.87" width="92" height="44" rx="22" ry="22"/>
          <rect class="mobile-cls-10" x="261.66" y="107.87" width="88" height="40" rx="20" ry="20"/>
          <g>
            <path class="mobile-cls-6" d="m293.03,115.62h.95v3.73h4.84v-3.73h.95v8.4h-.95v-3.78h-4.84v3.78h-.95v-8.4Z"/>
            <path class="mobile-cls-6" d="m302.02,115.44h1.06v1.02h-1.06v-1.02Zm.06,2.38h.92v6.2h-.92v-6.2Z"/>
            <path class="mobile-cls-6" d="m305.08,125.09l.42-.72c.71.52,1.5.79,2.39.79,1.37,0,2.25-.75,2.25-2.21v-.73c-.54.72-1.29,1.31-2.43,1.31-1.49,0-2.91-1.12-2.91-2.9v-.02c0-1.81,1.44-2.93,2.91-2.93,1.16,0,1.92.58,2.42,1.25v-1.12h.92v5.12c0,.96-.29,1.69-.79,2.19-.55.55-1.38.83-2.36.83s-1.99-.29-2.82-.86Zm5.08-4.47v-.02c0-1.27-1.1-2.1-2.28-2.1s-2.15.82-2.15,2.09v.02c0,1.25,1,2.11,2.15,2.11s2.28-.85,2.28-2.1Z"/>
            <path class="mobile-cls-6" d="m313.12,115.26h.92v3.63c.41-.67,1.06-1.21,2.12-1.21,1.5,0,2.38,1.01,2.38,2.48v3.85h-.92v-3.62c0-1.15-.62-1.87-1.71-1.87s-1.86.78-1.86,1.94v3.55h-.92v-8.75Z"/>
            <path class="mobile-cls-6" d="m296.28,132.21h.92v1.62c.46-1.03,1.35-1.77,2.53-1.73v1h-.07c-1.36,0-2.46.97-2.46,2.84v2.47h-.92v-6.2Z"/>
            <path class="mobile-cls-6" d="m301.17,129.84h1.06v1.02h-1.06v-1.02Zm.06,2.37h.92v6.2h-.92v-6.2Z"/>
            <path class="mobile-cls-6" d="m303.78,137.62l.47-.66c.67.5,1.42.79,2.15.79s1.28-.38,1.28-.98v-.02c0-.62-.73-.86-1.55-1.09-.97-.28-2.05-.61-2.05-1.75v-.02c0-1.07.89-1.77,2.11-1.77.76,0,1.6.26,2.23.68l-.42.7c-.58-.37-1.24-.6-1.83-.6-.73,0-1.2.38-1.2.9v.02c0,.59.77.82,1.59,1.07.96.29,1.99.66,1.99,1.77v.02c0,1.18-.97,1.86-2.21,1.86-.89,0-1.87-.35-2.57-.91Z"/>
            <path class="mobile-cls-6" d="m310.28,129.66h.92v6.04l3.35-3.49h1.15l-2.6,2.66,2.69,3.54h-1.1l-2.22-2.89-1.26,1.27v1.62h-.92v-8.76Z"/>
          </g>
        </g>
        <g id="inactive_high_risk_btn" class="inactive-btn tooltip-mobile" title="Click here">
          <rect class="mobile-cls-7" x="259.66" y="105.87" width="92" height="44" rx="22" ry="22"/>
          <rect class="mobile-cls-9 tooltip-mobile" title="Click here" x="261.66" y="107.87" width="88" height="40" rx="20" ry="20"/>
          <g>
            <path class="mobile-cls-5" d="m288.13,112.81h2.46v4.43h4.55v-4.43h2.46v11.2h-2.46v-4.5h-4.55v4.5h-2.46v-11.2Z"/>
            <path class="mobile-cls-5" d="m300.08,112.33h2.56v2.16h-2.56v-2.16Zm.06,3.1h2.43v8.58h-2.43v-8.58Z"/>
            <path class="mobile-cls-5" d="m304.91,125.71l.83-1.82c.88.5,1.76.78,2.9.78,1.67,0,2.45-.8,2.45-2.34v-.42c-.72.86-1.5,1.39-2.8,1.39-2,0-3.81-1.46-3.81-4v-.03c0-2.56,1.84-4,3.81-4,1.33,0,2.11.56,2.77,1.28v-1.12h2.43v6.64c0,1.54-.37,2.66-1.09,3.38-.8.8-2.03,1.15-3.7,1.15-1.39,0-2.71-.32-3.79-.9Zm6.18-6.4v-.03c0-1.17-.91-1.98-2.1-1.98s-2.08.82-2.08,1.98v.03c0,1.18.9,1.98,2.08,1.98s2.1-.82,2.1-1.98Z"/>
            <path class="mobile-cls-5" d="m315.66,112.33h2.43v4.32c.56-.72,1.28-1.38,2.51-1.38,1.84,0,2.91,1.22,2.91,3.19v5.55h-2.43v-4.79c0-1.15-.54-1.74-1.47-1.74s-1.52.59-1.52,1.74v4.79h-2.43v-11.68Z"/>
            <path class="mobile-cls-5" d="m292.24,133.43h2.43v1.73c.5-1.18,1.3-1.95,2.74-1.89v2.55h-.13c-1.62,0-2.61.98-2.61,3.02v3.17h-2.43v-8.58Z"/>
            <path class="mobile-cls-5" d="m298.98,130.33h2.56v2.16h-2.56v-2.16Zm.06,3.1h2.43v8.58h-2.43v-8.58Z"/>
            <path class="mobile-cls-5" d="m303.09,140.88l1.04-1.6c.93.67,1.9,1.02,2.71,1.02.7,0,1.02-.26,1.02-.64v-.03c0-.53-.83-.7-1.78-.99-1.2-.35-2.56-.91-2.56-2.58v-.03c0-1.74,1.41-2.72,3.14-2.72,1.09,0,2.27.37,3.2.99l-.93,1.68c-.85-.5-1.7-.8-2.32-.8-.59,0-.9.26-.9.59v.03c0,.48.82.7,1.75,1.02,1.2.4,2.59.98,2.59,2.54v.03c0,1.9-1.42,2.77-3.28,2.77-1.2,0-2.54-.4-3.68-1.3Z"/>
            <path class="mobile-cls-5" d="m311.79,130.33h2.43v6.23l2.85-3.12h2.91l-3.27,3.38,3.38,5.2h-2.82l-2.19-3.52-.86.91v2.61h-2.43v-11.68Z"/>
          </g>
        </g>
      </g>
      <g id="low_risk_line">
        <line class="mobile-cls-18" x1="46" y1="150.07" x2="46" y2="206.24"/>
      </g>
      <g id="low_risk_btn" class="graph--btn" data-value="low_risk">
        <g id="active_low_risk_btn" class="active-btn">
          <rect class="mobile-cls-12" x="0" y="105.87" width="92" height="44" rx="22" ry="22"/>
          <rect class="mobile-cls-3" x="2" y="107.87" width="88" height="40" rx="20" ry="20"/>
          <g>
            <path class="mobile-cls-6" d="m34.64,115.62h.95v7.52h4.73v.88h-5.67v-8.4Z"/>
            <path class="mobile-cls-6" d="m41.41,120.94v-.02c0-1.75,1.37-3.24,3.24-3.24s3.23,1.46,3.23,3.21v.02c0,1.75-1.38,3.24-3.25,3.24s-3.21-1.46-3.21-3.21Zm5.52,0v-.02c0-1.33-1-2.42-2.3-2.42s-2.27,1.09-2.27,2.4v.02c0,1.33.98,2.41,2.29,2.41s2.28-1.08,2.28-2.39Z"/>
            <path class="mobile-cls-6" d="m48.72,117.81h.98l1.63,4.98,1.67-5h.77l1.68,5,1.63-4.98h.96l-2.18,6.25h-.8l-1.67-4.89-1.68,4.89h-.82l-2.17-6.25Z"/>
            <path class="mobile-cls-6" d="m36.62,132.21h.92v1.62c.46-1.03,1.35-1.77,2.53-1.73v1h-.07c-1.36,0-2.46.97-2.46,2.84v2.47h-.92v-6.2Z"/>
            <path class="mobile-cls-6" d="m41.51,129.84h1.06v1.02h-1.06v-1.02Zm.06,2.37h.92v6.2h-.92v-6.2Z"/>
            <path class="mobile-cls-6" d="m44.12,137.62l.47-.66c.67.5,1.42.79,2.15.79s1.28-.38,1.28-.98v-.02c0-.62-.73-.86-1.55-1.09-.97-.28-2.05-.61-2.05-1.75v-.02c0-1.07.89-1.77,2.11-1.77.76,0,1.6.26,2.23.68l-.42.7c-.58-.37-1.24-.6-1.83-.6-.73,0-1.2.38-1.2.9v.02c0,.59.77.82,1.59,1.07.96.29,1.99.66,1.99,1.77v.02c0,1.18-.97,1.86-2.21,1.86-.89,0-1.87-.35-2.57-.91Z"/>
            <path class="mobile-cls-6" d="m50.61,129.66h.92v6.04l3.35-3.49h1.15l-2.6,2.66,2.69,3.54h-1.1l-2.22-2.89-1.26,1.27v1.62h-.92v-8.76Z"/>
          </g>
        </g>
        <g id="inactive_low_risk_btn" class="inactive-btn tooltip-mobile" title="Click here">
          <rect class="mobile-cls-1" x="0" y="105.87" width="92" height="44" rx="22" ry="22"/>
          <rect class="mobile-cls-4 tooltip-mobile" title="Click here" x="2" y="107.87" width="88" height="40" rx="20" ry="20"/>
          <g>
            <path class="mobile-cls-5" d="m30.47,112.81h2.46v8.96h5.59v2.24h-8.05v-11.2Z"/>
            <path class="mobile-cls-5" d="m39.55,119.77v-.03c0-2.46,1.98-4.47,4.66-4.47s4.63,1.97,4.63,4.43v.03c0,2.47-1.98,4.47-4.66,4.47s-4.63-1.97-4.63-4.43Zm6.88,0v-.03c0-1.26-.91-2.37-2.26-2.37s-2.23,1.07-2.23,2.34v.03c0,1.26.91,2.37,2.26,2.37s2.23-1.07,2.23-2.34Z"/>
            <path class="mobile-cls-5" d="m49.48,115.43h2.46l1.38,5.2,1.62-5.23h2.1l1.63,5.25,1.41-5.22h2.42l-2.67,8.64h-2.19l-1.65-5.27-1.68,5.27h-2.18l-2.64-8.64Z"/>
            <path class="mobile-cls-5" d="m32.58,133.43h2.43v1.73c.5-1.18,1.3-1.95,2.74-1.89v2.55h-.13c-1.62,0-2.61.98-2.61,3.02v3.17h-2.43v-8.58Z"/>
            <path class="mobile-cls-5" d="m39.31,130.33h2.56v2.16h-2.56v-2.16Zm.06,3.1h2.43v8.58h-2.43v-8.58Z"/>
            <path class="mobile-cls-5" d="m43.42,140.88l1.04-1.6c.93.67,1.9,1.02,2.71,1.02.7,0,1.02-.26,1.02-.64v-.03c0-.53-.83-.7-1.78-.99-1.2-.35-2.56-.91-2.56-2.58v-.03c0-1.74,1.41-2.72,3.14-2.72,1.09,0,2.27.37,3.2.99l-.93,1.68c-.85-.5-1.7-.8-2.32-.8-.59,0-.9.26-.9.59v.03c0,.48.82.7,1.75,1.02,1.2.4,2.59.98,2.59,2.54v.03c0,1.9-1.42,2.77-3.28,2.77-1.2,0-2.54-.4-3.68-1.3Z"/>
            <path class="mobile-cls-5" d="m52.13,130.33h2.43v6.23l2.85-3.12h2.91l-3.27,3.38,3.38,5.2h-2.82l-2.19-3.52-.86.91v2.61h-2.43v-11.68Z"/>
          </g>
        </g>
      </g>
      <g id="features_icon">
        <g>
          <path class="mobile-cls-13" d="m236.87,13.59c0-2.65-2.15-4.8-4.8-4.8s-4.8,2.15-4.8,4.8,2.15,4.8,4.8,4.8c2.65,0,4.8-2.15,4.8-4.8Zm-8,0c0-1.77,1.43-3.2,3.2-3.2s3.2,1.43,3.2,3.2-1.43,3.2-3.2,3.2-3.2-1.43-3.2-3.2Z"/>
          <path class="mobile-cls-13" d="m236.87,37.6h2.4c.44,0,.8-.36.8-.8v-11.2c0-3.09-2.51-5.6-5.6-5.6h-4.8c-3.09,0-5.6,2.51-5.6,5.6v11.2c0,.44.36.8.8.8h2.4v10.4c0,.44.36.8.8.8h8c.44,0,.8-.36.8-.8v-10.4m-7.2-16h4.8c2.21,0,4,1.79,4,4v10.4h-1.6v-9.6h-1.6v20.81h-2.4v-11.2h-1.6v11.2h-2.4v-20.81h-1.6v9.6h-1.6v-10.4c0-2.21,1.79-4,4-4Z"/>
        </g>
        <g>
          <path class="mobile-cls-13" d="m218.12,13.59c0-2.65-2.15-4.8-4.8-4.8s-4.8,2.15-4.8,4.8,2.15,4.8,4.8,4.8c2.65,0,4.8-2.15,4.8-4.8Zm-8,0c0-1.77,1.43-3.2,3.2-3.2s3.2,1.43,3.2,3.2-1.43,3.2-3.2,3.2-3.2-1.43-3.2-3.2Z"/>
          <path class="mobile-cls-13" d="m218.12,37.6h2.4c.44,0,.8-.36.8-.8v-11.2c0-3.09-2.51-5.6-5.6-5.6h-4.8c-3.09,0-5.6,2.51-5.6,5.6v11.2c0,.44.36.8.8.8h2.4v10.4c0,.44.36.8.8.8h8c.44,0,.8-.36.8-.8v-10.4m-7.2-16h4.8c2.21,0,4,1.79,4,4v10.4h-1.6v-9.6h-1.6v20.81h-2.4v-11.2h-1.6v11.2h-2.4v-20.81h-1.6v9.6h-1.6v-10.4c0-2.21,1.79-4,4-4Z"/>
        </g>
        <g>
          <path class="mobile-cls-13" d="m199.38,13.59c0-2.65-2.15-4.8-4.8-4.8s-4.8,2.15-4.8,4.8,2.15,4.8,4.8,4.8c2.65,0,4.8-2.15,4.8-4.8Zm-8,0c0-1.77,1.43-3.2,3.2-3.2s3.2,1.43,3.2,3.2-1.43,3.2-3.2,3.2-3.2-1.43-3.2-3.2Z"/>
          <path class="mobile-cls-13" d="m199.38,37.6h2.4c.44,0,.8-.36.8-.8v-11.2c0-3.09-2.51-5.6-5.6-5.6h-4.8c-3.09,0-5.6,2.51-5.6,5.6v11.2c0,.44.36.8.8.8h2.4v10.4c0,.44.36.8.8.8h8c.44,0,.8-.36.8-.8v-10.4m-7.2-16h4.8c2.21,0,4,1.79,4,4v10.4h-1.6v-9.6h-1.6v20.81h-2.4v-11.2h-1.6v11.2h-2.4v-20.81h-1.6v9.6h-1.6v-10.4c0-2.21,1.79-4,4-4Z"/>
        </g>
        <g>
          <path class="mobile-cls-11" d="m180.63,13.59c0-2.65-2.15-4.8-4.8-4.8s-4.8,2.15-4.8,4.8,2.15,4.8,4.8,4.8c2.65,0,4.8-2.15,4.8-4.8Zm-8,0c0-1.77,1.43-3.2,3.2-3.2s3.2,1.43,3.2,3.2-1.43,3.2-3.2,3.2-3.2-1.43-3.2-3.2Z"/>
          <path class="mobile-cls-11" d="m180.63,37.6h2.4c.44,0,.8-.36.8-.8v-11.2c0-3.09-2.51-5.6-5.6-5.6h-4.8c-3.09,0-5.6,2.51-5.6,5.6v11.2c0,.44.36.8.8.8h2.4v10.4c0,.44.36.8.8.8h8c.44,0,.8-.36.8-.8v-10.4m-7.2-16h4.8c2.21,0,4,1.79,4,4v10.4h-1.6v-9.6h-1.6v20.81h-2.4v-11.2h-1.6v11.2h-2.4v-20.81h-1.6v9.6h-1.6v-10.4c0-2.21,1.79-4,4-4Z"/>
        </g>
        <g>
          <path class="mobile-cls-13" d="m161.89,13.59c0-2.65-2.15-4.8-4.8-4.8s-4.8,2.15-4.8,4.8,2.15,4.8,4.8,4.8c2.65,0,4.8-2.15,4.8-4.8Zm-8,0c0-1.77,1.43-3.2,3.2-3.2s3.2,1.43,3.2,3.2-1.43,3.2-3.2,3.2-3.2-1.43-3.2-3.2Z"/>
          <path class="mobile-cls-13" d="m161.89,37.6h2.4c.44,0,.8-.36.8-.8v-11.2c0-3.09-2.51-5.6-5.6-5.6h-4.8c-3.09,0-5.6,2.51-5.6,5.6v11.2c0,.44.36.8.8.8h2.4v10.4c0,.44.36.8.8.8h8c.44,0,.8-.36.8-.8v-10.4m-7.2-16h4.8c2.21,0,4,1.79,4,4v10.4h-1.6v-9.6h-1.6v20.81h-2.4v-11.2h-1.6v11.2h-2.4v-20.81h-1.6v9.6h-1.6v-10.4c0-2.21,1.79-4,4-4Z"/>
        </g>
        <g>
          <path class="mobile-cls-13" d="m143.14,13.59c0-2.65-2.15-4.8-4.8-4.8s-4.8,2.15-4.8,4.8,2.15,4.8,4.8,4.8c2.65,0,4.8-2.15,4.8-4.8Zm-8,0c0-1.77,1.43-3.2,3.2-3.2s3.2,1.43,3.2,3.2-1.43,3.2-3.2,3.2-3.2-1.43-3.2-3.2Z"/>
          <path class="mobile-cls-13" d="m143.14,37.6h2.4c.44,0,.8-.36.8-.8v-11.2c0-3.09-2.51-5.6-5.6-5.6h-4.8c-3.09,0-5.6,2.51-5.6,5.6v11.2c0,.44.36.8.8.8h2.4v10.4c0,.44.36.8.8.8h8c.44,0,.8-.36.8-.8v-10.4m-7.2-16h4.8c2.21,0,4,1.79,4,4v10.4h-1.6v-9.6h-1.6v20.81h-2.4v-11.2h-1.6v11.2h-2.4v-20.81h-1.6v9.6h-1.6v-10.4c0-2.21,1.79-4,4-4Z"/>
        </g>
        <g>
          <path class="mobile-cls-13" d="m124.4,13.59c0-2.65-2.15-4.8-4.8-4.8s-4.8,2.15-4.8,4.8,2.15,4.8,4.8,4.8c2.65,0,4.8-2.15,4.8-4.8Zm-8,0c0-1.77,1.43-3.2,3.2-3.2s3.2,1.43,3.2,3.2-1.43,3.2-3.2,3.2-3.2-1.43-3.2-3.2Z"/>
          <path class="mobile-cls-13" d="m124.4,37.6h2.4c.44,0,.8-.36.8-.8v-11.2c0-3.09-2.51-5.6-5.6-5.6h-4.8c-3.09,0-5.6,2.51-5.6,5.6v11.2c0,.44.36.8.8.8h2.4v10.4c0,.44.36.8.8.8h8c.44,0,.8-.36.8-.8v-10.4m-7.2-16h4.8c2.21,0,4,1.79,4,4v10.4h-1.6v-9.6h-1.6v20.81h-2.4v-11.2h-1.6v11.2h-2.4v-20.81h-1.6v9.6h-1.6v-10.4c0-2.21,1.79-4,4-4Z"/>
        </g>
        <g>
          <path class="mobile-cls-11" d="m176.09,0c-15.85,0-28.74,12.89-28.74,28.74,0,15.85,12.89,28.74,28.74,28.74,6.41,0,12.33-2.11,17.11-5.67l2.91,2.91-.27.27c-.45.45-.45,1.18,0,1.63l20.17,20.17c1.09,1.09,2.53,1.68,4.06,1.68s2.98-.6,4.06-1.68c1.09-1.09,1.68-2.53,1.68-4.06,0-1.54-.6-2.98-1.68-4.06l-20.17-20.17c-.22-.22-.51-.34-.81-.34s-.6.12-.81.34l-.27.27-2.91-2.91c3.56-4.78,5.67-10.71,5.67-17.11,0-15.85-12.89-28.74-28.74-28.74h0Zm25.45,59.06l4.88-4.88,16.11,16.11c.65.65,1.01,1.52,1.01,2.44,0,.92-.36,1.79-1.01,2.44-.65.65-1.52,1.01-2.44,1.01s-1.79-.36-2.44-1.01l-16.11-16.11Zm-3.25-3.25s.27-.27.27-.27c0,0,4.33-4.33,4.33-4.34l.27-.27,1.63,1.63-4.88,4.88-1.63-1.63Zm-3.28-5.45c.96-.84,1.87-1.75,2.71-2.71l2.74,2.74-2.71,2.71-2.74-2.74Zm-18.91,4.82c-14.58,0-26.44-11.86-26.44-26.44s11.86-26.44,26.44-26.44,26.44,11.86,26.44,26.44c0,14.58-11.86,26.44-26.44,26.44h0Z"/>
          <path class="mobile-cls-11" d="m176.09,4.6c-13.31,0-24.14,10.83-24.14,24.14,0,13.31,10.83,24.14,24.14,24.14s24.14-10.83,24.14-24.14c0-5.55-1.94-10.97-5.46-15.27-.4-.49-1.13-.56-1.62-.16-.49.4-.56,1.13-.16,1.62,3.18,3.89,4.94,8.8,4.94,13.82,0,12.04-9.8,21.84-21.84,21.84-12.04,0-21.84-9.8-21.84-21.84,0-12.04,9.8-21.84,21.84-21.84,5.02,0,9.93,1.75,13.81,4.94.49.4,1.22.33,1.62-.16.4-.49.33-1.22-.16-1.62-4.3-3.52-9.72-5.46-15.27-5.46h0Z"/>
        </g>
      </g>
    </g>
  </g>
</svg>