<?xml version="1.0" encoding="UTF-8"?>
<svg id="Layer_2" data-name="Layer 2" xmlns="http://www.w3.org/2000/svg" xmlns:xlink="http://www.w3.org/1999/xlink" viewBox="0 0 44 44">
  <defs>
    <style>
      .cls-1 {
        fill: #fff;
        stroke: #fff;
        stroke-miterlimit: 10;
        stroke-width: .25px;
      }

      .cls-2 {
        fill: url(#linear-gradient);
      }

      .cls-2, .cls-3 {
        stroke-width: 0px;
      }

      .cls-3 {
        fill: url(#linear-gradient-2);
      }
    </style>
    <linearGradient id="linear-gradient" x1="22" y1="-.72" x2="22" y2="44.16" gradientUnits="userSpaceOnUse">
      <stop offset="0" stop-color="#bdbdbd"/>
      <stop offset="1" stop-color="#fff"/>
    </linearGradient>
    <linearGradient id="linear-gradient-2" x1="22" y1="1.34" x2="22" y2="42.15" gradientUnits="userSpaceOnUse">
      <stop offset="0" stop-color="#872580"/>
      <stop offset=".19" stop-color="#9b2c6a"/>
      <stop offset=".52" stop-color="#b9374b"/>
      <stop offset=".81" stop-color="#cb3e37"/>
      <stop offset="1" stop-color="#d24131"/>
    </linearGradient>
  </defs>
  <g id="Layer_1-2" data-name="Layer 1">
    <g>
      <circle class="cls-2" cx="22" cy="22" r="22"/>
      <circle class="cls-3" cx="22" cy="22" r="20"/>
      <path class="cls-1" d="m10.52,34.07c-.11,0-.22-.04-.3-.13-.12-.12-.16-.29-.1-.45l1.81-5.1c-1.2-1.91-1.83-4.12-1.83-6.39,0-6.65,5.41-12.07,12.07-12.07s12.07,5.41,12.07,12.07-5.41,12.07-12.07,12.07c-2.28,0-4.48-.63-6.39-1.83l-5.1,1.81s-.1.02-.14.02Zm5.3-2.74c.08,0,.16.02.24.07,1.81,1.18,3.92,1.81,6.1,1.81,6.18,0,11.2-5.03,11.2-11.2s-5.03-11.2-11.2-11.2-11.2,5.03-11.2,11.2c0,2.18.63,4.29,1.81,6.1.07.11.09.25.05.38l-1.58,4.44,4.44-1.58s.1-.02.14-.02Zm6.34-.46c-.27,0-.55-.07-.79-.22l-.96-.58c-.52-.31-.84-.87-.84-1.48v-.56c0-.24.19-.43.43-.43h4.31c.24,0,.43.19.43.43v.56c0,.6-.32,1.17-.84,1.48l-.95.57c-.24.15-.52.22-.79.22Zm-1.72-2.4v.13c0,.3.16.58.42.74l.96.58c.21.13.48.13.7,0l.96-.57c.26-.15.42-.44.42-.74v-.13h-3.45Zm3.79-1.72h-4.13c-.52,0-.95-.43-.95-.95v-.11c0-.52-.19-1.01-.53-1.4h0c-.77-.86-1.19-1.98-1.19-3.14,0-2.61,2.13-4.74,4.74-4.74s4.74,2.13,4.74,4.74c0,1.16-.42,2.27-1.19,3.14-.34.39-.53.89-.53,1.4v.11c0,.52-.43.95-.95.95Zm-1.63-.86h1.63s.09-.04.09-.09v-.11c0-.73.27-1.43.75-1.97.63-.71.97-1.62.97-2.57,0-2.14-1.74-3.88-3.88-3.88s-3.88,1.74-3.88,3.88c0,.95.35,1.86.97,2.57h0c.48.54.75,1.25.75,1.97v.11s.04.09.09.09h1.63v-2.84l-1.17-1.17c-.17-.17-.17-.44,0-.61s.44-.17.61,0l.99.99.99-.99c.17-.17.44-.17.61,0s.17.44,0,.61l-1.17,1.17v2.84Zm6.29-.43c-.07,0-.15-.02-.21-.06l-1.49-.86c-.21-.12-.28-.38-.16-.59.12-.21.38-.28.59-.16l1.49.86c.21.12.28.38.16.59-.08.14-.22.22-.37.22Zm-13.43,0c-.15,0-.29-.08-.37-.22-.12-.21-.05-.47.16-.59l1.49-.86c.21-.12.47-.05.59.16.12.21.05.47-.16.59l-1.49.86c-.07.04-.14.06-.21.06Zm14.47-3.88h-1.72c-.24,0-.43-.19-.43-.43s.19-.43.43-.43h1.72c.24,0,.43.19.43.43s-.19.43-.43.43Zm-13.79,0h-1.72c-.24,0-.43-.19-.43-.43s.19-.43.43-.43h1.72c.24,0,.43.19.43.43s-.19.43-.43.43Zm11.26-3.02c-.15,0-.29-.08-.37-.22-.12-.21-.05-.47.16-.59l1.49-.86c.21-.12.47-.05.59.16.12.21.05.47-.16.59l-1.49.86c-.07.04-.14.06-.21.06Zm-10.45,0c-.07,0-.15-.02-.21-.06l-1.49-.86c-.21-.12-.28-.38-.16-.59.12-.21.38-.28.59-.16l1.49.86c.21.12.28.38.16.59-.08.14-.22.22-.37.22Zm8.24-2.21c-.07,0-.15-.02-.21-.06-.21-.12-.28-.38-.16-.59l.86-1.49c.12-.21.38-.28.59-.16.21.12.28.38.16.59l-.86,1.49c-.08.14-.22.22-.37.22Zm-6.03,0c-.15,0-.29-.08-.37-.22l-.86-1.49c-.12-.21-.05-.47.16-.59.21-.12.47-.05.59.16l.86,1.49c.12.21.05.47-.16.59-.07.04-.14.06-.21.06Zm3.02-.81c-.24,0-.43-.19-.43-.43v-1.72c0-.24.19-.43.43-.43s.43.19.43.43v1.72c0,.24-.19.43-.43.43Z"/>
    </g>
  </g>
</svg>