<?xml version="1.0" encoding="UTF-8"?>
<svg id="Layer_2" data-name="Layer 2" xmlns="http://www.w3.org/2000/svg" xmlns:xlink="http://www.w3.org/1999/xlink" viewBox="0 0 113.94 40.62">
  <defs>
    <style>
      .cls-1 {
        fill: #eb1c24;
      }

      .cls-1, .cls-2, .cls-3 {
        stroke-width: 0px;
      }

      .cls-2 {
        fill: none;
      }

      .cls-3 {
        fill: #fff;
      }

      .cls-4 {
        clip-path: url(#clippath);
      }
    </style>
    <clipPath id="clippath">
      <rect class="cls-2" width="113.94" height="40.62"/>
    </clipPath>
  </defs>
  <g id="Layer_1-2" data-name="Layer 1">
    <g class="cls-4">
      <path class="cls-3" d="M15.66,12.81C6.45,19.15,0,27.71,0,27.71l12.08,8.16,1.08-2.68c2.87,5.92,9.03,7.5,12.47,7.42h-.06,62.71-.07c3.48.09,9.7-1.47,12.6-7.38.1.24,1.04,2.55,1.04,2.55l12.08-8.08s-6.55-8.57-15.83-14.91C89.57,6.96,75.47,0,56.82,0S24.15,6.97,15.66,12.81"/>
      <polygon class="cls-1" points="38.54 19.28 39.58 17.05 26.19 17.05 25.14 19.28 30.33 19.28 24.96 30.21 28.42 30.21 33.79 19.28 38.54 19.28"/>
      <path class="cls-1" d="M90.24,28.24s-.67.31-.97.01c-.29-.3-.03-.86-.03-.86l2.83-5.95h-2.89l-.44.79c-1.68-1.48-4.85-.72-6.82,1.34-1.13,1.18-1.78,2.59-1.86,3.81-.32.21-.86.54-1.55.81,0,0-.67.31-.97,0s-.03-.86-.03-.86l5.03-10.34h-2.89l-2.64,5.18c-1.69-1.48-4.85-.72-6.82,1.34-.4.42-.73.86-1.01,1.31h0s-.06.1-.06.1c-.06.11-.12.21-.17.32-1.57,2.72-3.52,3.17-3.52,3.17-4.12,1.23-4.59-.79-4.59-.79,4.62-1.71,6.35-3.73,6.2-5.28-.16-1.55-2.28-1.63-2.28-1.63-3.49-.21-6.51,2.23-7.24,4.62-.22.73-.29,1.48-.16,2.16-1.4.74-2.2.86-2.2.86-1.16.37-1.3-.18-1.45-.52-.14-.34-.66-3.31-.66-3.31l4.9-3.21h-3l-3.68,2.28c-.83.34-.51-.53-.51-.53l3.01-6.09h-2.89l-4.88,9.88c-.56.33-1.69.99-2.5,1.31,0,0-.67.31-.97,0-.29-.3-.03-.86-.03-.86l2.83-5.95h-2.89l-.44.79c-1.68-1.48-4.85-.72-6.82,1.34-1.96,2.05-2.47,4.76-1.12,6.04,1.08,1.03,3.01.84,4.74-.33,0,0,.44-.38.68.07.25.45,1.24,1.49,3.53.59.73-.29,1.39-.62,1.96-.93l-.6,1.22h2.89l1.44-2.92,1.26-.8s.38-.3.54.34c0,0,.62,2.46.87,2.78.24.32.72,1.04,2.75.46,1.55-.45,3-1,3.77-1.32.68.93,1.98,1.57,4.12,1.57,3.17,0,5.4-1.51,6.35-2.3.07.63.31,1.18.73,1.58,1.08,1.03,3.01.84,4.74-.33,0,0,.44-.38.68.07.25.45,1.24,1.49,3.53.59,1.05-.42,1.76-.81,2.21-1.12.13.32.31.61.56.85,1.08,1.03,3.01.84,4.74-.33,0,0,.44-.37.68.07.25.46,1.24,1.49,3.53.59,2.29-.9,2.95-1.72,2.95-1.72l-.58-1.02c-.08.05-.79.61-1.89,1.04M40.16,26.53c-1,1.4-2.41,2.11-3.15,1.59-.75-.53-.54-2.1.46-3.5,1-1.4,2.41-2.11,3.15-1.58.74.53.54,2.1-.45,3.5M60.61,25.52s.65-2.18,2.75-3.05c0,0,.59-.21.91.06,0,0,.45.44-.09,1.24-.48.71-1.63,2.01-2.87,2.44,0,0-1.13.49-.7-.68M75.18,26.53c-1,1.4-2.41,2.11-3.15,1.59-.75-.53-.54-2.1.46-3.5,1-1.4,2.41-2.11,3.15-1.58.74.53.54,2.1-.46,3.5M86.9,26.59c-1,1.4-2.41,2.11-3.15,1.58-.75-.53-.54-2.1.46-3.5,1-1.4,2.41-2.11,3.15-1.58.74.53.54,2.1-.46,3.5"/>
      <path class="cls-1" d="M56.82,2.37C21.9,2.37,3.38,27.14,3.38,27.14l7.59,5.13s.92-2.3,3.02-5.59c0,.82.12,1.4.12,1.4,1.34,10.41,11.46,10.16,11.46,10.16h62.71s10.25.28,11.59-10.12c0,0,.1-.54.11-1.36,2.06,3.21,2.97,5.44,2.97,5.44l7.58-5.08S91.74,2.37,56.82,2.37M98.32,27.97s-1.37,7.96-10.17,7.96H25.54c-8.8,0-10.04-8.04-10.04-8.04-.34-2.13.08-3.59.73-4.6C22.57,14.95,35.12,3.75,56.79,3.75s34.51,11.36,40.85,19.71c.73.92,1,2.45.68,4.51"/>
    </g>
  </g>
</svg>