<?xml version="1.0" encoding="UTF-8"?>
<svg id="ammar_progress_chart_svg_desktop" data-name="ammar_progress_chart_svg_desktop" xmlns="http://www.w3.org/2000/svg" xmlns:xlink="http://www.w3.org/1999/xlink" viewBox="0 0 766.29 480.69">
  <defs>
    <style>
      .cls-1, .cls-2 {
        stroke: #82277f;
      }

      .cls-1, .cls-2, .cls-3, .cls-4, .cls-5 {
        stroke-miterlimit: 10;
      }

      .cls-1, .cls-2, .cls-3, .cls-4, .cls-5, .cls-6 {
        fill: none;
      }

      .cls-1, .cls-3, .cls-5 {
        stroke-width: 2px;
      }

      .cls-7 {
        fill: url(#linear-gradient);
      }

      .cls-7, .cls-8, .cls-9, .cls-10, .cls-11, .cls-12, .cls-13, .cls-14, .cls-15, .cls-16, .cls-17, .cls-6, .cls-18, .cls-19, .cls-20, .cls-21, .cls-22 {
        stroke-width: 0px;
      }

      .cls-2, .cls-4 {
        stroke-width: 4px;
      }

      .cls-8 {
        fill: #818182;
      }

      .cls-9 {
        fill: url(#linear-gradient-6);
      }

      .cls-3, .cls-4 {
        stroke: #ce4230;
      }

      .cls-10 {
        fill: url(#linear-gradient-5);
      }

      .cls-5 {
        stroke: #231f20;
      }

      .cls-11 {
        fill: #82277f;
      }

      .cls-12 {
        fill: #cfc0cb;
      }

      .cls-13 {
        fill: #fff;
      }

      .cls-14 {
        fill: url(#linear-gradient-2);
      }

      .cls-15 {
        fill: url(#linear-gradient-7);
      }

      .cls-16 {
        fill: url(#linear-gradient-3);
      }

      .cls-17 {
        fill: #231f20;
      }

      .cls-6 {
        fill-rule: evenodd;
        opacity: .6;
      }

      .cls-18 {
        fill: url(#linear-gradient-8);
      }

      .cls-19 {
        fill: #6a2062;
      }

      .cls-20 {
        fill: #985b8b;
      }

      .cls-21 {
        fill: url(#linear-gradient-4);
      }

      .cls-22 {
        fill: #ce4230;
      }
    </style>
    <linearGradient id="linear-gradient" x1="744.4" y1="329.85" x2="744.4" y2="372.52" gradientUnits="userSpaceOnUse">
      <stop offset="0" stop-color="#bebdbd"/>
      <stop offset="1" stop-color="#fff"/>
    </linearGradient>
    <linearGradient id="linear-gradient-2" x1="744.4" y1="331.73" x2="744.4" y2="370.68" gradientUnits="userSpaceOnUse">
      <stop offset="0" stop-color="#bebdbd"/>
      <stop offset=".2" stop-color="#c6c6c7"/>
      <stop offset=".68" stop-color="#d8d9dc"/>
      <stop offset="1" stop-color="#dfe0e4"/>
    </linearGradient>
    <linearGradient id="linear-gradient-3" x1="744.4" y1="329.85" x2="744.4" xlink:href="#linear-gradient"/>
    <linearGradient id="linear-gradient-4" x1="744.4" y1="331.73" x2="744.4" y2="370.68" gradientUnits="userSpaceOnUse">
      <stop offset="0" stop-color="#892780"/>
      <stop offset=".01" stop-color="#8a2780"/>
      <stop offset=".22" stop-color="#a22d75"/>
      <stop offset=".42" stop-color="#b43560"/>
      <stop offset=".61" stop-color="#c13b4e"/>
      <stop offset=".77" stop-color="#cc3c3d"/>
      <stop offset=".91" stop-color="#d23e33"/>
      <stop offset="1" stop-color="#d43e2e"/>
    </linearGradient>
    <linearGradient id="linear-gradient-5" x1="21.89" x2="21.89" xlink:href="#linear-gradient"/>
    <linearGradient id="linear-gradient-6" x1="21.89" x2="21.89" xlink:href="#linear-gradient-2"/>
    <linearGradient id="linear-gradient-7" x1="21.89" y1="329.85" x2="21.89" xlink:href="#linear-gradient"/>
    <linearGradient id="linear-gradient-8" x1="21.89" x2="21.89" xlink:href="#linear-gradient-4"/>
  </defs>
  <g id="rohan_progress_svg_desktop">
    <g>
      <g id="desktop_footnote">
        <path class="cls-17" d="m196.1,470.32h.89l3.83,8.46h-1.02l-.98-2.22h-4.57l-1,2.22h-.97l3.83-8.46Zm2.34,5.38l-1.91-4.28-1.92,4.28h3.83Z"/>
        <path class="cls-17" d="m201.65,475.69v-.02c0-2.03,1.47-3.23,2.96-3.23,1.15,0,1.9.62,2.38,1.32v-3.74h.92v8.75h-.92v-1.25c-.5.74-1.24,1.38-2.38,1.38-1.49,0-2.96-1.17-2.96-3.21Zm5.37-.01v-.02c0-1.43-1.09-2.39-2.24-2.39s-2.18.89-2.18,2.39v.02c0,1.46,1.01,2.4,2.18,2.4s2.24-.97,2.24-2.4Z"/>
        <path class="cls-17" d="m209.51,476.97v-.02c0-1.31,1.08-2,2.65-2,.79,0,1.36.11,1.91.26v-.22c0-1.12-.68-1.69-1.85-1.69-.73,0-1.31.19-1.88.46l-.28-.75c.68-.31,1.36-.52,2.25-.52s1.55.23,2,.68c.42.42.64,1.02.64,1.81v3.79h-.89v-.94c-.43.56-1.15,1.07-2.24,1.07-1.15,0-2.31-.66-2.31-1.93Zm4.57-.48v-.6c-.46-.13-1.07-.26-1.82-.26-1.16,0-1.81.5-1.81,1.28v.02c0,.78.72,1.24,1.56,1.24,1.14,0,2.07-.7,2.07-1.68Z"/>
        <path class="cls-17" d="m216.93,472.57h.92v1.25c.5-.74,1.24-1.38,2.38-1.38,1.49,0,2.96,1.17,2.96,3.21v.02c0,2.03-1.46,3.23-2.96,3.23-1.15,0-1.9-.62-2.38-1.32v3.11h-.92v-8.12Zm5.31,3.12v-.02c0-1.46-1.01-2.4-2.18-2.4s-2.24.97-2.24,2.39v.02c0,1.44,1.09,2.4,2.24,2.4s2.18-.89,2.18-2.39Z"/>
        <path class="cls-17" d="m225.22,477.13v-3.74h-.86v-.82h.86v-1.87h.92v1.87h1.97v.82h-1.97v3.62c0,.75.42,1.03,1.04,1.03.31,0,.58-.06.9-.22v.79c-.32.17-.67.26-1.12.26-1,0-1.75-.49-1.75-1.75Z"/>
        <path class="cls-17" d="m229.18,475.69v-.02c0-1.79,1.26-3.23,2.97-3.23,1.83,0,2.89,1.46,2.89,3.27,0,.12,0,.19-.01.3h-4.92c.13,1.34,1.08,2.1,2.18,2.1.85,0,1.45-.35,1.96-.88l.58.52c-.62.7-1.38,1.16-2.55,1.16-1.7,0-3.09-1.31-3.09-3.23Zm4.93-.36c-.1-1.13-.74-2.11-1.98-2.11-1.08,0-1.89.9-2.01,2.11h3.99Z"/>
        <path class="cls-17" d="m236.31,475.69v-.02c0-2.03,1.47-3.23,2.96-3.23,1.15,0,1.9.62,2.38,1.32v-3.74h.92v8.75h-.92v-1.25c-.5.74-1.24,1.38-2.38,1.38-1.49,0-2.96-1.17-2.96-3.21Zm5.37-.01v-.02c0-1.43-1.09-2.39-2.24-2.39s-2.18.89-2.18,2.39v.02c0,1.46,1.01,2.4,2.18,2.4s2.24-.97,2.24-2.4Z"/>
        <path class="cls-17" d="m248.58,473.39h-.85v-.8h.85v-.54c0-.71.19-1.25.54-1.59.31-.31.77-.48,1.33-.48.43,0,.72.05,1.02.16v.8c-.34-.1-.59-.16-.9-.16-.72,0-1.08.43-1.08,1.32v.5h1.97v.79h-1.96v5.38h-.92v-5.38Z"/>
        <path class="cls-17" d="m252.64,472.57h.92v1.62c.46-1.03,1.36-1.78,2.53-1.73v1h-.07c-1.36,0-2.46.97-2.46,2.84v2.47h-.92v-6.2Z"/>
        <path class="cls-17" d="m256.85,475.7v-.02c0-1.75,1.37-3.24,3.24-3.24s3.23,1.46,3.23,3.21v.02c0,1.75-1.38,3.24-3.25,3.24s-3.21-1.46-3.21-3.21Zm5.52,0v-.02c0-1.33-1-2.42-2.3-2.42s-2.27,1.09-2.27,2.4v.02c0,1.33.98,2.41,2.29,2.41s2.28-1.08,2.28-2.39Z"/>
        <path class="cls-17" d="m264.99,472.57h.92v1.04c.41-.61.96-1.17,2-1.17s1.66.54,1.99,1.23c.44-.68,1.1-1.23,2.18-1.23,1.43,0,2.3.96,2.3,2.49v3.84h-.92v-3.62c0-1.2-.6-1.87-1.61-1.87-.94,0-1.71.7-1.71,1.92v3.57h-.91v-3.65c0-1.16-.61-1.85-1.6-1.85s-1.73.82-1.73,1.96v3.54h-.92v-6.2Z"/>
        <path class="cls-17" d="m280.12,470.38h3.14c1.89,0,3.14,1.01,3.14,2.66v.02c0,1.81-1.51,2.75-3.3,2.75h-2.04v2.96h-.95v-8.4Zm3.02,4.57c1.39,0,2.3-.74,2.3-1.85v-.02c0-1.2-.9-1.82-2.25-1.82h-2.12v3.69h2.08Z"/>
        <path class="cls-17" d="m287.39,476.97v-.02c0-1.31,1.08-2,2.65-2,.79,0,1.36.11,1.91.26v-.22c0-1.12-.68-1.69-1.85-1.69-.73,0-1.31.19-1.88.46l-.28-.75c.68-.31,1.36-.52,2.25-.52s1.55.23,2,.68c.42.42.64,1.02.64,1.81v3.79h-.89v-.94c-.43.56-1.15,1.07-2.24,1.07-1.15,0-2.32-.66-2.32-1.93Zm4.57-.48v-.6c-.46-.13-1.07-.26-1.82-.26-1.16,0-1.81.5-1.81,1.28v.02c0,.78.72,1.24,1.56,1.24,1.14,0,2.07-.7,2.07-1.68Z"/>
        <path class="cls-17" d="m294.81,472.57h.92v1.62c.46-1.03,1.36-1.78,2.53-1.73v1h-.07c-1.36,0-2.46.97-2.46,2.84v2.47h-.92v-6.2Z"/>
        <path class="cls-17" d="m299.69,470.2h1.05v1.02h-1.05v-1.02Zm.06,2.38h.92v6.2h-.92v-6.2Z"/>
        <path class="cls-17" d="m302.44,475.69v-.02c0-1.79,1.26-3.23,2.97-3.23,1.83,0,2.89,1.46,2.89,3.27,0,.12,0,.19-.01.3h-4.92c.13,1.34,1.08,2.1,2.18,2.1.85,0,1.45-.35,1.96-.88l.58.52c-.62.7-1.38,1.16-2.55,1.16-1.7,0-3.09-1.31-3.09-3.23Zm4.93-.36c-.1-1.13-.74-2.11-1.98-2.11-1.08,0-1.89.9-2.01,2.11h3.99Z"/>
        <path class="cls-17" d="m309.93,472.57h.92v1.08c.41-.67,1.06-1.21,2.12-1.21,1.5,0,2.37,1.01,2.37,2.48v3.85h-.92v-3.62c0-1.15-.62-1.87-1.72-1.87s-1.86.78-1.86,1.94v3.55h-.92v-6.2Z"/>
        <path class="cls-17" d="m317.64,477.13v-3.74h-.86v-.82h.86v-1.87h.92v1.87h1.97v.82h-1.97v3.62c0,.75.42,1.03,1.04,1.03.31,0,.58-.06.9-.22v.79c-.32.17-.67.26-1.12.26-1,0-1.75-.49-1.75-1.75Z"/>
        <path class="cls-17" d="m321.6,475.69v-.02c0-1.79,1.26-3.23,2.97-3.23,1.83,0,2.89,1.46,2.89,3.27,0,.12,0,.19-.01.3h-4.92c.13,1.34,1.08,2.1,2.18,2.1.85,0,1.45-.35,1.96-.88l.58.52c-.62.7-1.38,1.16-2.55,1.16-1.7,0-3.09-1.31-3.09-3.23Zm4.93-.36c-.1-1.13-.74-2.11-1.98-2.11-1.08,0-1.89.9-2.01,2.11h3.99Z"/>
        <path class="cls-17" d="m332.85,470.38h3.57c.96,0,1.71.28,2.19.74.35.36.54.8.54,1.34v.02c0,1.09-.67,1.65-1.33,1.94,1,.3,1.8.88,1.8,2.03v.02c0,1.44-1.21,2.29-3.05,2.29h-3.73v-8.4Zm5.35,2.22c0-.83-.66-1.37-1.86-1.37h-2.55v2.89h2.48c1.14,0,1.93-.52,1.93-1.5v-.02Zm-1.76,2.36h-2.65v2.96h2.82c1.27,0,2.06-.56,2.06-1.5v-.02c0-.91-.77-1.44-2.23-1.44Z"/>
        <path class="cls-17" d="m340.88,479.82c.6-.22.85-.53.8-1.04h-.43v-1.26h1.1v1.08c0,.97-.42,1.44-1.33,1.64l-.14-.42Z"/>
        <path class="cls-17" d="m347.51,475.69v-.02c0-1.79,1.26-3.23,2.97-3.23,1.83,0,2.89,1.46,2.89,3.27,0,.12,0,.19-.01.3h-4.92c.13,1.34,1.08,2.1,2.18,2.1.85,0,1.45-.35,1.96-.88l.58.52c-.62.7-1.38,1.16-2.55,1.16-1.7,0-3.09-1.31-3.09-3.23Zm4.93-.36c-.1-1.13-.74-2.11-1.98-2.11-1.08,0-1.89.9-2.01,2.11h3.99Z"/>
        <path class="cls-17" d="m355.32,477.13v-3.74h-.86v-.82h.86v-1.87h.92v1.87h1.97v.82h-1.97v3.62c0,.75.42,1.03,1.04,1.03.31,0,.58-.06.9-.22v.79c-.32.17-.67.26-1.12.26-1,0-1.75-.49-1.75-1.75Z"/>
        <path class="cls-17" d="m362.98,476.97v-.02c0-1.31,1.08-2,2.65-2,.79,0,1.36.11,1.91.26v-.22c0-1.12-.68-1.69-1.85-1.69-.73,0-1.31.19-1.88.46l-.28-.75c.68-.31,1.36-.52,2.25-.52s1.55.23,2,.68c.42.42.64,1.02.64,1.81v3.79h-.89v-.94c-.43.56-1.15,1.07-2.24,1.07-1.15,0-2.32-.66-2.32-1.93Zm4.57-.48v-.6c-.46-.13-1.07-.26-1.82-.26-1.16,0-1.81.5-1.81,1.28v.02c0,.78.72,1.24,1.56,1.24,1.14,0,2.07-.7,2.07-1.68Z"/>
        <path class="cls-17" d="m370.48,470.02h.92v8.75h-.92v-8.75Z"/>
        <path class="cls-17" d="m373.43,477.51h1.1v1.26h-1.1v-1.26Z"/>
        <path class="cls-17" d="m381.75,470.38h.95l-2.25,8.4h-.95l2.25-8.4Z"/>
        <path class="cls-17" d="m384.4,472.57h.92l-.26,1.01c.55-.64,1.21-1.14,2.16-1.14,1.2,0,1.97.74,1.97,1.92,0,.29-.07.64-.14.96l-.92,3.45h-.92l.95-3.51c.05-.2.08-.49.08-.7,0-.82-.52-1.29-1.38-1.29-.96,0-1.92.83-2.24,2l-.94,3.5h-.92l1.66-6.2Z"/>
        <path class="cls-17" d="m391.91,473.39h-.85l.22-.82h.85l.19-.72c.16-.59.37-1,.68-1.31.37-.37.86-.55,1.45-.55.48,0,.91.1,1.24.26l-.22.79c-.36-.17-.66-.25-1.02-.25-.59,0-1.03.36-1.25,1.18l-.16.6h2.03l-.23.82h-2.01l-1.45,5.38h-.92l1.45-5.38Zm5.13-3.37h.92l-2.35,8.75h-.92l2.35-8.75Z"/>
        <path class="cls-17" d="m397.8,477.19c0-.6.22-1.1.59-1.48.49-.49,1.26-.77,2.17-.77.83,0,1.61.17,2.21.34l.04-.14c.05-.18.08-.41.08-.58,0-.8-.55-1.26-1.68-1.26-.66,0-1.2.13-1.75.32l-.16-.77c.61-.23,1.25-.37,2.05-.37,1.56,0,2.43.72,2.43,1.92,0,.26-.05.56-.13.85l-.94,3.51h-.9l.26-.97c-.58.66-1.33,1.1-2.32,1.1-1.04,0-1.97-.61-1.97-1.71Zm4.69-.85l.12-.43c-.54-.16-1.25-.28-2.01-.28-.64,0-1.14.19-1.46.52-.26.25-.4.58-.4.94,0,.66.52,1.1,1.32,1.1,1.04,0,2.13-.76,2.43-1.85Z"/>
        <path class="cls-17" d="m406.35,472.57h.92l-.26,1.01c.56-.64,1.14-1.14,2.06-1.14,1.03,0,1.6.67,1.76,1.4.55-.85,1.39-1.4,2.49-1.4s1.9.77,1.9,1.92c0,.29-.1.64-.18.96l-.91,3.45h-.92l.94-3.51c.06-.2.1-.49.1-.7,0-.8-.49-1.29-1.28-1.29-.91,0-1.85.85-2.15,2l-.94,3.5h-.91l.94-3.51c.06-.2.1-.49.1-.7,0-.8-.49-1.29-1.29-1.29-.91,0-1.83.85-2.15,2l-.94,3.5h-.92l1.66-6.2Z"/>
        <path class="cls-17" d="m417.77,472.57h.92l-.26,1.01c.56-.64,1.14-1.14,2.06-1.14,1.03,0,1.6.67,1.76,1.4.55-.85,1.39-1.4,2.49-1.4s1.9.77,1.9,1.92c0,.29-.1.64-.18.96l-.91,3.45h-.92l.94-3.51c.06-.2.1-.49.1-.7,0-.8-.49-1.29-1.28-1.29-.91,0-1.85.85-2.15,2l-.94,3.5h-.91l.94-3.51c.06-.2.1-.49.1-.7,0-.8-.49-1.29-1.29-1.29-.91,0-1.83.85-2.15,2l-.94,3.5h-.92l1.66-6.2Z"/>
        <path class="cls-17" d="m433.55,470.38h3.14c1.64,0,2.6.77,2.6,1.96s-.91,1.97-2.1,2.21c.83.25,1.49.79,1.49,1.74,0,1.45-1.32,2.49-3.53,2.49h-3.86l2.25-8.4Zm1.72,7.54c1.51,0,2.46-.64,2.46-1.68,0-.85-.8-1.28-1.93-1.28h-2.54l-.79,2.96h2.81Zm.6-3.8c1.5,0,2.46-.66,2.46-1.67,0-.79-.62-1.22-1.71-1.22h-2.35l-.78,2.89h2.39Z"/>
        <path class="cls-17" d="m440.13,476.13c0-.98.42-1.92,1.12-2.6.66-.66,1.56-1.09,2.53-1.09,1.7,0,2.83,1.16,2.83,2.77,0,.98-.43,1.92-1.12,2.62-.66.66-1.57,1.09-2.54,1.09-1.7,0-2.82-1.17-2.82-2.78Zm4.64,1.19c.55-.55.89-1.32.89-2.08,0-1.26-.79-1.99-1.94-1.99-.67,0-1.29.31-1.76.78-.54.54-.89,1.31-.89,2.08,0,1.26.79,1.98,1.94,1.98.67,0,1.3-.3,1.76-.77Z"/>
        <path class="cls-17" d="m448.05,472.57h.94l.32,4.94,3-4.96h.77l.35,4.96,2.99-4.94h.96l-3.86,6.25h-.82l-.36-4.89-2.99,4.89h-.8l-.49-6.25Z"/>
        <path class="cls-17" d="m458.4,475.99c-.01.08-.01.17-.01.25,0,1.1.7,1.88,1.83,1.88.79,0,1.38-.28,1.96-.73l.47.6c-.64.54-1.39.92-2.5.92-1.61,0-2.69-1.09-2.69-2.64,0-1.03.44-2.06,1.17-2.79.64-.64,1.48-1.04,2.43-1.04,1.57,0,2.4,1.08,2.4,2.37,0,.42-.08.82-.22,1.18h-4.86Zm.12-.7h3.99c.04-.11.06-.26.06-.48,0-.85-.48-1.59-1.55-1.59-.68,0-1.27.3-1.73.74-.36.36-.62.83-.78,1.33Z"/>
        <path class="cls-17" d="m466.6,470.02h.92l-2.35,8.75h-.92l2.35-8.75Z"/>
        <path class="cls-17" d="m473.34,470.38h2.03c1.4,0,2.54.4,3.27,1.12.6.6.91,1.39.91,2.41,0,1.28-.47,2.41-1.32,3.27-1.01,1.01-2.52,1.59-4.31,1.59h-2.84l2.25-8.4Zm1.97.88h-1.25l-1.79,6.64h1.78c1.4,0,2.61-.47,3.47-1.32.67-.67,1.06-1.58,1.06-2.62,0-.79-.25-1.42-.71-1.86-.55-.55-1.44-.85-2.55-.85Z"/>
        <path class="cls-17" d="m481.96,472.57h.92l-1.67,6.2h-.92l1.67-6.2Zm.58-2.38h1.06l-.28,1.02h-1.06l.28-1.02Z"/>
        <path class="cls-17" d="m483.1,477.83l.6-.6c.67.65,1.42.91,2.16.91s1.37-.41,1.37-1.03c0-.41-.28-.71-1.18-1.06-1.12-.43-1.75-.84-1.75-1.7,0-1.06.91-1.91,2.35-1.91.91,0,1.77.41,2.29.85l-.54.64c-.52-.42-1.16-.72-1.83-.72-.88,0-1.34.47-1.34.98,0,.41.25.67,1.24,1.05,1.12.46,1.69.9,1.69,1.7,0,1.15-1.06,1.96-2.38,1.96-.96,0-1.96-.36-2.67-1.08Z"/>
        <path class="cls-17" d="m490.03,477.51h1.1v1.26h-1.1v-1.26Z"/>
        <path class="cls-17" d="m496.23,478.04l3.05-2.69c1.28-1.15,1.75-1.8,1.75-2.64,0-.98-.78-1.61-1.69-1.61-.96,0-1.58.5-2.25,1.44l-.7-.5c.76-1.13,1.55-1.79,3.02-1.79s2.6,1.01,2.6,2.38v.02c0,1.22-.65,1.98-2.12,3.26l-2.24,1.99h4.45v.86h-5.86v-.73Z"/>
        <path class="cls-17" d="m503.58,474.6v-.02c0-2.35,1.4-4.34,3.56-4.34s3.53,1.97,3.53,4.32v.02c0,2.35-1.39,4.34-3.55,4.34s-3.54-1.97-3.54-4.32Zm6.11,0v-.02c0-1.83-1.01-3.48-2.57-3.48s-2.55,1.61-2.55,3.45v.02c0,1.83,1.01,3.48,2.58,3.48s2.54-1.62,2.54-3.45Z"/>
        <path class="cls-17" d="m513.5,471.3l-1.58.49-.23-.77,2.05-.71h.7v8.46h-.94v-7.47Z"/>
        <path class="cls-17" d="m517.8,471.3l-1.58.49-.23-.77,2.05-.71h.7v8.46h-.94v-7.47Z"/>
        <path class="cls-17" d="m520.56,479.82c.6-.22.85-.53.8-1.04h-.43v-1.26h1.1v1.08c0,.97-.42,1.44-1.33,1.64l-.14-.42Zm.37-7.24h1.1v1.26h-1.1v-1.26Z"/>
        <path class="cls-17" d="m525.16,471.3l-1.58.49-.23-.77,2.05-.71h.7v8.46h-.94v-7.47Z"/>
        <path class="cls-17" d="m532.74,471.24h-4.62v-.86h5.7v.71l-3.81,7.69h-1.05l3.79-7.53Z"/>
        <path class="cls-17" d="m535.43,472.57h1.1v1.26h-1.1v-1.26Zm0,4.94h1.1v1.26h-1.1v-1.26Z"/>
        <path class="cls-17" d="m539.65,471.3l-1.58.49-.23-.77,2.05-.71h.7v8.46h-.94v-7.47Z"/>
        <path class="cls-17" d="m546.98,476.78h-4.42l-.24-.68,4.75-5.78h.83v5.67h1.31v.79h-1.31v1.99h-.91v-1.99Zm0-.79v-4.33l-3.53,4.33h3.53Z"/>
        <path class="cls-17" d="m551.76,471.3l-1.58.49-.23-.77,2.05-.71h.7v8.46h-.94v-7.47Z"/>
        <path class="cls-17" d="m554.54,477.59l.62-.68c.73.71,1.54,1.15,2.39,1.15,1.2,0,2.03-.79,2.03-1.86v-.02c0-1.04-.86-1.76-2.09-1.76-.71,0-1.27.22-1.76.48l-.64-.42.24-4.09h4.83v.88h-4.01l-.18,2.69c.49-.22.96-.37,1.65-.37,1.63,0,2.9.97,2.9,2.57v.02c0,1.64-1.25,2.76-3,2.76-1.2,0-2.24-.58-3-1.33Z"/>
        <path class="cls-17" d="m562.03,474.71h4.77v.92h-4.77v-.92Z"/>
        <path class="cls-17" d="m568.16,478.04l3.05-2.69c1.28-1.15,1.75-1.8,1.75-2.64,0-.98-.78-1.61-1.69-1.61-.96,0-1.58.5-2.25,1.44l-.7-.5c.76-1.13,1.55-1.79,3.02-1.79s2.6,1.01,2.6,2.38v.02c0,1.22-.65,1.98-2.12,3.26l-2.24,1.99h4.45v.86h-5.87v-.73Z"/>
        <path class="cls-17" d="m575.35,478.04l3.05-2.69c1.28-1.15,1.75-1.8,1.75-2.64,0-.98-.78-1.61-1.69-1.61-.96,0-1.58.5-2.25,1.44l-.7-.5c.76-1.13,1.55-1.79,3.02-1.79s2.6,1.01,2.6,2.38v.02c0,1.22-.65,1.98-2.12,3.26l-2.24,1.99h4.45v.86h-5.86v-.73Z"/>
        <path class="cls-17" d="m582.87,477.51h1.1v1.26h-1.1v-1.26Z"/>
      </g>
      <g id="desktop_bar">
        <rect class="cls-12" x="238.3" y="418.3" width="192" height="36"/>
        <rect class="cls-19" x="430.3" y="418.3" width="270.5" height="36"/>
        <rect class="cls-20" x="63.8" y="418.3" width="174.5" height="36"/>
        <g>
          <path class="cls-13" d="m107.54,431.66h4.72c2.84,0,4.72,1.51,4.72,4v.04c0,2.72-2.27,4.12-4.95,4.12h-3.06v4.45h-1.42v-12.6Zm4.54,6.86c2.09,0,3.46-1.12,3.46-2.77v-.04c0-1.8-1.35-2.74-3.38-2.74h-3.19v5.54h3.11Z"/>
          <path class="cls-13" d="m119.33,434.95h1.39v2.43c.68-1.55,2.03-2.67,3.8-2.59v1.49h-.11c-2.03,0-3.69,1.46-3.69,4.27v3.71h-1.39v-9.31Z"/>
          <path class="cls-13" d="m125.65,439.63v-.04c0-2.68,1.89-4.84,4.47-4.84,2.75,0,4.34,2.2,4.34,4.92,0,.18,0,.29-.02.45h-7.38c.2,2.02,1.62,3.15,3.28,3.15,1.28,0,2.18-.52,2.94-1.31l.86.77c-.94,1.04-2.07,1.75-3.83,1.75-2.56,0-4.65-1.96-4.65-4.84Zm7.4-.54c-.14-1.69-1.12-3.17-2.97-3.17-1.62,0-2.84,1.35-3.03,3.17h6Z"/>
          <path class="cls-13" d="m136.3,439.65v-.04c0-2.63,2.05-4.86,4.77-4.86,1.76,0,2.86.74,3.73,1.66l-.92.97c-.74-.77-1.57-1.4-2.83-1.4-1.89,0-3.33,1.6-3.33,3.6v.04c0,2.02,1.48,3.62,3.42,3.62,1.19,0,2.11-.59,2.84-1.39l.88.83c-.94,1.04-2.05,1.8-3.8,1.8-2.72,0-4.77-2.21-4.77-4.83Z"/>
          <path class="cls-13" d="m147.29,431.12h1.39v13.14h-1.39v-13.14Z"/>
          <path class="cls-13" d="m151.93,431.38h1.58v1.53h-1.58v-1.53Zm.09,3.57h1.39v9.31h-1.39v-9.31Z"/>
          <path class="cls-13" d="m156.63,434.95h1.39v1.62c.61-1.01,1.58-1.82,3.19-1.82,2.25,0,3.57,1.51,3.57,3.73v5.78h-1.39v-5.44c0-1.73-.94-2.81-2.58-2.81s-2.79,1.17-2.79,2.92v5.33h-1.39v-9.31Z"/>
          <path class="cls-13" d="m167.75,431.38h1.58v1.53h-1.58v-1.53Zm.09,3.57h1.39v9.31h-1.39v-9.31Z"/>
          <path class="cls-13" d="m171.87,439.65v-.04c0-2.63,2.05-4.86,4.77-4.86,1.76,0,2.86.74,3.73,1.66l-.92.97c-.74-.77-1.57-1.4-2.83-1.4-1.89,0-3.33,1.6-3.33,3.6v.04c0,2.02,1.48,3.62,3.42,3.62,1.19,0,2.11-.59,2.84-1.39l.88.83c-.94,1.04-2.05,1.8-3.8,1.8-2.72,0-4.77-2.21-4.77-4.83Z"/>
          <path class="cls-13" d="m182.02,441.56v-.04c0-1.96,1.62-3.01,3.98-3.01,1.19,0,2.03.16,2.86.4v-.32c0-1.67-1.03-2.54-2.77-2.54-1.1,0-1.96.29-2.83.68l-.41-1.13c1.03-.47,2.04-.77,3.39-.77s2.32.34,3.01,1.03c.63.63.95,1.53.95,2.72v5.69h-1.33v-1.4c-.65.85-1.73,1.6-3.37,1.6-1.73,0-3.48-.99-3.48-2.9Zm6.86-.72v-.9c-.69-.2-1.6-.4-2.74-.4-1.75,0-2.72.76-2.72,1.93v.04c0,1.17,1.08,1.85,2.34,1.85,1.71,0,3.12-1.04,3.12-2.52Z"/>
          <path class="cls-13" d="m193.27,431.12h1.39v13.14h-1.39v-13.14Z"/>
        </g>
        <g>
          <path class="cls-13" d="m520.81,431.66h1.42v11.29h7.09v1.31h-8.52v-12.6Z"/>
          <path class="cls-13" d="m530.96,439.65v-.04c0-2.63,2.05-4.86,4.86-4.86s4.84,2.2,4.84,4.83v.04c0,2.63-2.07,4.86-4.88,4.86s-4.83-2.2-4.83-4.83Zm8.28,0v-.04c0-2-1.49-3.64-3.46-3.64s-3.4,1.64-3.4,3.6v.04c0,2,1.48,3.62,3.44,3.62s3.42-1.62,3.42-3.58Z"/>
          <path class="cls-13" d="m543.16,434.95h1.39v1.62c.61-1.01,1.58-1.82,3.19-1.82,2.25,0,3.56,1.51,3.56,3.73v5.78h-1.39v-5.44c0-1.73-.94-2.81-2.57-2.81s-2.79,1.17-2.79,2.92v5.33h-1.39v-9.31Z"/>
          <path class="cls-13" d="m554.14,445.88l.63-1.08c1.06.77,2.25,1.19,3.58,1.19,2.05,0,3.38-1.13,3.38-3.31v-1.1c-.81,1.08-1.94,1.96-3.65,1.96-2.23,0-4.38-1.67-4.38-4.36v-.04c0-2.72,2.16-4.39,4.38-4.39,1.75,0,2.88.86,3.64,1.87v-1.67h1.39v7.69c0,1.44-.43,2.54-1.19,3.29-.83.83-2.07,1.24-3.55,1.24-1.55,0-2.99-.43-4.23-1.3Zm7.63-6.72v-.04c0-1.91-1.66-3.15-3.42-3.15s-3.22,1.22-3.22,3.13v.04c0,1.87,1.49,3.17,3.22,3.17s3.42-1.28,3.42-3.15Z"/>
          <path class="cls-13" d="m572.09,441.79v-5.62h-1.3v-1.22h1.3v-2.81h1.39v2.81h2.95v1.22h-2.95v5.44c0,1.13.63,1.55,1.57,1.55.47,0,.86-.09,1.35-.32v1.19c-.49.25-1.01.4-1.67.4-1.49,0-2.63-.74-2.63-2.63Z"/>
          <path class="cls-13" d="m578.03,439.63v-.04c0-2.68,1.89-4.84,4.46-4.84,2.76,0,4.34,2.2,4.34,4.92,0,.18,0,.29-.02.45h-7.38c.2,2.02,1.62,3.15,3.28,3.15,1.28,0,2.18-.52,2.93-1.31l.86.77c-.94,1.04-2.07,1.75-3.83,1.75-2.56,0-4.65-1.96-4.65-4.84Zm7.4-.54c-.14-1.69-1.12-3.17-2.97-3.17-1.62,0-2.85,1.35-3.03,3.17h6Z"/>
          <path class="cls-13" d="m589.26,434.95h1.39v2.43c.68-1.55,2.03-2.67,3.8-2.59v1.49h-.11c-2.03,0-3.69,1.46-3.69,4.27v3.71h-1.39v-9.31Z"/>
          <path class="cls-13" d="m596.55,434.95h1.39v1.57c.61-.92,1.44-1.76,3.01-1.76s2.48.81,2.99,1.85c.67-1.03,1.66-1.85,3.28-1.85,2.14,0,3.46,1.44,3.46,3.75v5.76h-1.39v-5.44c0-1.8-.9-2.81-2.41-2.81-1.41,0-2.58,1.04-2.58,2.88v5.37h-1.37v-5.47c0-1.75-.92-2.77-2.39-2.77s-2.59,1.22-2.59,2.93v5.31h-1.39v-9.31Z"/>
        </g>
        <g>
          <path class="cls-17" d="m277.63,431.66h9.11v1.3h-7.69v4.3h6.88v1.3h-6.88v4.41h7.78v1.3h-9.2v-12.6Z"/>
          <path class="cls-17" d="m288.76,441.56v-.04c0-1.96,1.62-3.01,3.98-3.01,1.19,0,2.04.16,2.86.4v-.32c0-1.67-1.03-2.54-2.77-2.54-1.1,0-1.96.29-2.83.68l-.41-1.13c1.03-.47,2.04-.77,3.38-.77s2.32.34,3.01,1.03c.63.63.95,1.53.95,2.72v5.69h-1.33v-1.4c-.65.85-1.73,1.6-3.37,1.6-1.73,0-3.47-.99-3.47-2.9Zm6.86-.72v-.9c-.68-.2-1.6-.4-2.74-.4-1.75,0-2.72.76-2.72,1.93v.04c0,1.17,1.08,1.85,2.34,1.85,1.71,0,3.11-1.04,3.11-2.52Z"/>
          <path class="cls-17" d="m299.88,434.95h1.39v2.43c.68-1.55,2.03-2.67,3.8-2.59v1.49h-.11c-2.03,0-3.69,1.46-3.69,4.27v3.71h-1.39v-9.31Z"/>
          <path class="cls-17" d="m307.3,431.12h1.39v13.14h-1.39v-13.14Z"/>
          <path class="cls-17" d="m318.87,434.95h1.48l-3.91,9.61c-.79,1.93-1.69,2.63-3.1,2.63-.77,0-1.35-.16-1.98-.47l.47-1.1c.45.23.86.34,1.46.34.83,0,1.35-.43,1.91-1.75l-4.23-9.27h1.53l3.38,7.76,2.99-7.76Z"/>
          <path class="cls-17" d="m327.4,439.63v-.04c0-3.04,2.21-4.84,4.45-4.84,1.73,0,2.84.94,3.57,1.98v-5.62h1.39v13.14h-1.39v-1.87c-.76,1.12-1.86,2.07-3.57,2.07-2.23,0-4.45-1.76-4.45-4.83Zm8.07-.02v-.04c0-2.14-1.64-3.58-3.37-3.58s-3.28,1.33-3.28,3.58v.04c0,2.2,1.51,3.6,3.28,3.6s3.37-1.46,3.37-3.6Z"/>
          <path class="cls-17" d="m339.93,431.38h1.58v1.53h-1.58v-1.53Zm.09,3.57h1.39v9.31h-1.39v-9.31Z"/>
          <path class="cls-17" d="m343.86,443.07l.7-.99c1.01.76,2.12,1.19,3.22,1.19s1.93-.58,1.93-1.48v-.04c0-.94-1.1-1.3-2.32-1.64-1.46-.41-3.08-.92-3.08-2.63v-.04c0-1.6,1.33-2.67,3.17-2.67,1.13,0,2.39.4,3.35,1.03l-.63,1.04c-.87-.56-1.86-.9-2.76-.9-1.1,0-1.8.58-1.8,1.35v.04c0,.88,1.15,1.22,2.4,1.6,1.44.43,2.99.99,2.99,2.67v.04c0,1.76-1.46,2.79-3.31,2.79-1.33,0-2.81-.52-3.85-1.37Z"/>
          <path class="cls-17" d="m353.02,439.63v-.04c0-2.68,1.89-4.84,4.47-4.84,2.75,0,4.34,2.2,4.34,4.92,0,.18,0,.29-.02.45h-7.38c.2,2.02,1.62,3.15,3.28,3.15,1.28,0,2.18-.52,2.93-1.31l.86.77c-.94,1.04-2.07,1.75-3.83,1.75-2.56,0-4.65-1.96-4.65-4.84Zm7.4-.54c-.14-1.69-1.12-3.17-2.97-3.17-1.62,0-2.84,1.35-3.02,3.17h6Z"/>
          <path class="cls-17" d="m363.55,441.56v-.04c0-1.96,1.62-3.01,3.98-3.01,1.19,0,2.04.16,2.86.4v-.32c0-1.67-1.03-2.54-2.77-2.54-1.1,0-1.96.29-2.83.68l-.41-1.13c1.03-.47,2.03-.77,3.38-.77s2.32.34,3.01,1.03c.63.63.95,1.53.95,2.72v5.69h-1.33v-1.4c-.65.85-1.73,1.6-3.37,1.6-1.73,0-3.47-.99-3.47-2.9Zm6.86-.72v-.9c-.68-.2-1.6-.4-2.74-.4-1.75,0-2.72.76-2.72,1.93v.04c0,1.17,1.08,1.85,2.34,1.85,1.71,0,3.12-1.04,3.12-2.52Z"/>
          <path class="cls-17" d="m373.9,443.07l.7-.99c1.01.76,2.12,1.19,3.22,1.19s1.93-.58,1.93-1.48v-.04c0-.94-1.1-1.3-2.32-1.64-1.46-.41-3.08-.92-3.08-2.63v-.04c0-1.6,1.33-2.67,3.17-2.67,1.13,0,2.39.4,3.35,1.03l-.63,1.04c-.86-.56-1.86-.9-2.75-.9-1.1,0-1.8.58-1.8,1.35v.04c0,.88,1.15,1.22,2.4,1.6,1.44.43,2.99.99,2.99,2.67v.04c0,1.76-1.46,2.79-3.31,2.79-1.33,0-2.81-.52-3.85-1.37Z"/>
          <path class="cls-17" d="m383.06,439.63v-.04c0-2.68,1.89-4.84,4.46-4.84,2.75,0,4.34,2.2,4.34,4.92,0,.18,0,.29-.02.45h-7.38c.2,2.02,1.62,3.15,3.28,3.15,1.28,0,2.18-.52,2.93-1.31l.87.77c-.94,1.04-2.07,1.75-3.84,1.75-2.56,0-4.64-1.96-4.64-4.84Zm7.4-.54c-.14-1.69-1.12-3.17-2.97-3.17-1.62,0-2.85,1.35-3.03,3.17h6Z"/>
        </g>
      </g>
      <g id="desktop_inflammatory_activity_graph" class="graph_details" data-value="inflammatory_activity">
        <path class="cls-4" d="m64.41,386.71h6.74c54.25-1.39,50.96-1.81,67.42-5.6,17.32,2.45.76-6.61,55.44-5.72,10.66,14.21,7.87,0,13.48,0s9.57,14.21,20.23,0c27.59,1.32,23.46-80.92,38.79-84.87,13.63-1.32,8.83,85.81,28.63,84.87,8.22,14.33,10.11-4.15,22.47-4.15,8.54.82,16.11,9.12,24.72,9.82,7.04,2.01,8.99-4.72,13.48-5.66,4.49-.94,5.17,15.48,13.48,0,33.86.11,23.75-75.7,40.45-84.94,14.78,6.72,11.71,79.08,47.2,79.27,10.71,13.34,1.12,5.66,13.48,5.66,7.79,1.51,23.6-10.38,33.71-11.32,10.11-.94,19.03,22.27,26.97,5.66,15.2.36,8.78-86.08,20.23-90.6,12.57,7.59,13.41,97.5,26.97,96.26,6.74,17.24,8.99,0,13.48,0s6.89,7.92,13.48,0c18.04.99,12.42-39.24,26.07-40.36,8.09-1.07,12.81,40.16,27.87,40.36,7.64,6.79,12.13,1.89,18.88,1.89s17.83-1.82,21.58-1.89"/>
        <g>
          <path class="cls-17" d="m20.5,395.37h3.16c2.86,0,4.84,1.96,4.84,4.52v.03c0,2.56-1.98,4.55-4.84,4.55h-3.16v-9.1Zm1.03.95v7.2h2.13c2.3,0,3.77-1.56,3.77-3.58v-.03c0-2.02-1.47-3.6-3.77-3.6h-2.13Z"/>
          <path class="cls-17" d="m30.52,395.18h1.14v1.1h-1.14v-1.1Zm.06,2.57h1v6.72h-1v-6.72Z"/>
          <path class="cls-17" d="m33.35,403.61l.51-.72c.73.55,1.53.86,2.33.86s1.39-.42,1.39-1.07v-.03c0-.68-.79-.94-1.68-1.18-1.05-.3-2.22-.66-2.22-1.9v-.03c0-1.16.96-1.92,2.29-1.92.82,0,1.73.29,2.42.74l-.46.75c-.62-.4-1.34-.65-1.99-.65-.79,0-1.3.42-1.3.98v.03c0,.64.83.88,1.73,1.16,1.04.31,2.16.71,2.16,1.92v.03c0,1.27-1.05,2.02-2.39,2.02-.96,0-2.03-.38-2.78-.99Z"/>
          <path class="cls-17" d="m39.97,401.13v-.03c0-1.94,1.37-3.5,3.22-3.5,1.99,0,3.13,1.59,3.13,3.55,0,.13,0,.21-.01.32h-5.33c.14,1.46,1.17,2.28,2.37,2.28.92,0,1.57-.38,2.12-.95l.62.56c-.68.75-1.5,1.26-2.77,1.26-1.85,0-3.35-1.42-3.35-3.5Zm5.34-.39c-.1-1.22-.81-2.29-2.15-2.29-1.17,0-2.05.98-2.18,2.29h4.33Z"/>
          <path class="cls-17" d="m47.57,402.52v-.03c0-1.42,1.17-2.17,2.87-2.17.86,0,1.47.12,2.07.29v-.23c0-1.21-.74-1.83-2-1.83-.79,0-1.42.21-2.04.49l-.3-.82c.74-.34,1.47-.56,2.44-.56s1.68.25,2.17.74c.46.46.69,1.1.69,1.96v4.11h-.96v-1.01c-.47.61-1.25,1.16-2.43,1.16-1.25,0-2.51-.71-2.51-2.09Zm4.95-.52v-.65c-.49-.14-1.16-.29-1.98-.29-1.26,0-1.96.55-1.96,1.39v.03c0,.85.78,1.34,1.69,1.34,1.24,0,2.25-.75,2.25-1.82Z"/>
          <path class="cls-17" d="m55.05,403.61l.51-.72c.73.55,1.53.86,2.33.86s1.39-.42,1.39-1.07v-.03c0-.68-.79-.94-1.68-1.18-1.05-.3-2.22-.66-2.22-1.9v-.03c0-1.16.96-1.92,2.29-1.92.82,0,1.73.29,2.42.74l-.46.75c-.62-.4-1.34-.65-1.99-.65-.79,0-1.3.42-1.3.98v.03c0,.64.83.88,1.73,1.16,1.04.31,2.16.71,2.16,1.92v.03c0,1.27-1.05,2.02-2.39,2.02-.96,0-2.03-.38-2.78-.99Z"/>
          <path class="cls-17" d="m61.67,401.13v-.03c0-1.94,1.36-3.5,3.22-3.5,1.99,0,3.13,1.59,3.13,3.55,0,.13,0,.21-.01.32h-5.33c.14,1.46,1.17,2.28,2.37,2.28.92,0,1.57-.38,2.12-.95l.62.56c-.68.75-1.5,1.26-2.77,1.26-1.85,0-3.35-1.42-3.35-3.5Zm5.34-.39c-.1-1.22-.81-2.29-2.15-2.29-1.17,0-2.05.98-2.18,2.29h4.33Z"/>
          <path class="cls-17" d="m73.26,401.14v-.03c0-1.9,1.48-3.51,3.51-3.51s3.5,1.59,3.5,3.48v.03c0,1.9-1.5,3.51-3.52,3.51s-3.48-1.59-3.48-3.48Zm5.98,0v-.03c0-1.44-1.08-2.63-2.5-2.63s-2.46,1.18-2.46,2.6v.03c0,1.44,1.07,2.61,2.48,2.61s2.47-1.17,2.47-2.59Z"/>
          <path class="cls-17" d="m82.08,397.75h1v1.17c.44-.73,1.14-1.31,2.3-1.31,1.62,0,2.57,1.09,2.57,2.69v4.17h-1v-3.93c0-1.25-.68-2.03-1.86-2.03s-2.01.84-2.01,2.11v3.85h-1v-6.72Z"/>
          <path class="cls-17" d="m89.52,403.61l.51-.72c.73.55,1.53.86,2.33.86s1.39-.42,1.39-1.07v-.03c0-.68-.79-.94-1.68-1.18-1.05-.3-2.22-.66-2.22-1.9v-.03c0-1.16.96-1.92,2.29-1.92.82,0,1.73.29,2.42.74l-.46.75c-.62-.4-1.34-.65-1.99-.65-.79,0-1.3.42-1.3.98v.03c0,.64.83.88,1.73,1.16,1.04.31,2.16.71,2.16,1.92v.03c0,1.27-1.05,2.02-2.39,2.02-.96,0-2.03-.38-2.78-.99Z"/>
          <path class="cls-17" d="m96.14,401.13v-.03c0-1.94,1.37-3.5,3.22-3.5,1.99,0,3.13,1.59,3.13,3.55,0,.13,0,.21-.01.32h-5.33c.14,1.46,1.17,2.28,2.37,2.28.92,0,1.57-.38,2.12-.95l.62.56c-.68.75-1.5,1.26-2.77,1.26-1.85,0-3.35-1.42-3.35-3.5Zm5.34-.39c-.1-1.22-.81-2.29-2.14-2.29-1.17,0-2.05.98-2.18,2.29h4.33Z"/>
          <path class="cls-17" d="m104.6,402.69v-4.06h-.94v-.88h.94v-2.03h1v2.03h2.13v.88h-2.13v3.93c0,.82.46,1.12,1.13,1.12.34,0,.62-.06.97-.23v.86c-.35.18-.73.29-1.21.29-1.08,0-1.9-.53-1.9-1.9Z"/>
        </g>
        <g>
          <path class="cls-17" d="m218.73,395.37h3.16c2.86,0,4.84,1.96,4.84,4.52v.03c0,2.56-1.98,4.55-4.84,4.55h-3.16v-9.1Zm1.03.95v7.2h2.13c2.3,0,3.77-1.56,3.77-3.58v-.03c0-2.02-1.47-3.6-3.77-3.6h-2.13Z"/>
          <path class="cls-17" d="m228.75,395.18h1.14v1.1h-1.14v-1.1Zm.07,2.57h1v6.72h-1v-6.72Z"/>
          <path class="cls-17" d="m231.63,402.52v-.03c0-1.42,1.17-2.17,2.87-2.17.86,0,1.47.12,2.07.29v-.23c0-1.21-.74-1.83-2-1.83-.79,0-1.42.21-2.04.49l-.3-.82c.74-.34,1.47-.56,2.45-.56s1.68.25,2.17.74c.46.46.69,1.1.69,1.96v4.11h-.96v-1.01c-.47.61-1.25,1.16-2.43,1.16-1.25,0-2.51-.71-2.51-2.09Zm4.95-.52v-.65c-.49-.14-1.16-.29-1.98-.29-1.26,0-1.96.55-1.96,1.39v.03c0,.85.78,1.34,1.69,1.34,1.24,0,2.25-.75,2.25-1.82Z"/>
          <path class="cls-17" d="m239.59,405.64l.46-.78c.77.56,1.62.86,2.59.86,1.48,0,2.44-.82,2.44-2.39v-.79c-.58.78-1.4,1.42-2.64,1.42-1.61,0-3.16-1.21-3.16-3.15v-.03c0-1.96,1.56-3.17,3.16-3.17,1.26,0,2.08.62,2.63,1.35v-1.21h1v5.55c0,1.04-.31,1.83-.86,2.38-.6.6-1.5.9-2.56.9-1.12,0-2.16-.31-3.06-.94Zm5.51-4.85v-.03c0-1.38-1.2-2.28-2.47-2.28s-2.33.88-2.33,2.26v.03c0,1.35,1.08,2.29,2.33,2.29s2.47-.92,2.47-2.27Z"/>
          <path class="cls-17" d="m248.3,397.75h1v1.17c.44-.73,1.14-1.31,2.3-1.31,1.62,0,2.57,1.09,2.57,2.69v4.17h-1v-3.93c0-1.25-.68-2.03-1.86-2.03s-2.01.84-2.01,2.11v3.85h-1v-6.72Z"/>
          <path class="cls-17" d="m255.89,401.14v-.03c0-1.9,1.48-3.51,3.51-3.51s3.5,1.59,3.5,3.48v.03c0,1.9-1.5,3.51-3.52,3.51s-3.48-1.59-3.48-3.48Zm5.98,0v-.03c0-1.44-1.08-2.63-2.5-2.63s-2.46,1.18-2.46,2.6v.03c0,1.44,1.07,2.61,2.48,2.61s2.47-1.17,2.47-2.59Z"/>
          <path class="cls-17" d="m264.15,403.61l.51-.72c.73.55,1.53.86,2.33.86s1.39-.42,1.39-1.07v-.03c0-.68-.79-.94-1.68-1.18-1.05-.3-2.22-.66-2.22-1.9v-.03c0-1.16.96-1.92,2.29-1.92.82,0,1.73.29,2.42.74l-.46.75c-.62-.4-1.34-.65-1.99-.65-.79,0-1.3.42-1.3.98v.03c0,.64.83.88,1.73,1.16,1.04.31,2.16.71,2.16,1.92v.03c0,1.27-1.05,2.02-2.39,2.02-.96,0-2.03-.38-2.78-.99Z"/>
          <path class="cls-17" d="m271.21,395.18h1.14v1.1h-1.14v-1.1Zm.07,2.57h1v6.72h-1v-6.72Z"/>
          <path class="cls-17" d="m274.04,403.61l.51-.72c.73.55,1.53.86,2.33.86s1.39-.42,1.39-1.07v-.03c0-.68-.79-.94-1.68-1.18-1.05-.3-2.22-.66-2.22-1.9v-.03c0-1.16.96-1.92,2.29-1.92.82,0,1.73.29,2.42.74l-.46.75c-.62-.4-1.34-.65-1.99-.65-.79,0-1.3.42-1.3.98v.03c0,.64.83.88,1.73,1.16,1.04.31,2.16.71,2.16,1.92v.03c0,1.27-1.05,2.02-2.39,2.02-.96,0-2.03-.38-2.78-.99Z"/>
        </g>
        <g>
          <path class="cls-17" d="m293.37,395.37h6.58v.94h-5.55v3.11h4.97v.94h-4.97v3.19h5.62v.94h-6.64v-9.1Z"/>
          <path class="cls-17" d="m301.41,402.52v-.03c0-1.42,1.17-2.17,2.87-2.17.86,0,1.47.12,2.07.29v-.23c0-1.21-.74-1.83-2-1.83-.79,0-1.42.21-2.04.49l-.3-.82c.74-.34,1.47-.56,2.44-.56s1.68.25,2.17.74c.46.46.69,1.1.69,1.96v4.11h-.96v-1.01c-.47.61-1.25,1.16-2.43,1.16-1.25,0-2.51-.71-2.51-2.09Zm4.95-.52v-.65c-.49-.14-1.16-.29-1.98-.29-1.26,0-1.96.55-1.96,1.39v.03c0,.85.78,1.34,1.69,1.34,1.24,0,2.25-.75,2.25-1.82Z"/>
          <path class="cls-17" d="m309.44,397.75h1v1.75c.49-1.12,1.47-1.92,2.74-1.87v1.08h-.08c-1.47,0-2.67,1.05-2.67,3.08v2.68h-1v-6.72Z"/>
          <path class="cls-17" d="m314.8,394.98h1v9.49h-1v-9.49Z"/>
          <path class="cls-17" d="m323.16,397.75h1.07l-2.82,6.94c-.57,1.39-1.22,1.9-2.24,1.9-.56,0-.98-.12-1.43-.34l.34-.79c.33.17.62.25,1.05.25.6,0,.97-.31,1.38-1.26l-3.05-6.7h1.11l2.44,5.6,2.16-5.6Z"/>
          <path class="cls-17" d="m329.32,401.13v-.03c0-2.2,1.6-3.5,3.21-3.5,1.25,0,2.05.68,2.57,1.43v-4.06h1v9.49h-1v-1.35c-.55.81-1.34,1.49-2.57,1.49-1.61,0-3.21-1.27-3.21-3.48Zm5.82-.01v-.03c0-1.55-1.18-2.59-2.43-2.59s-2.37.96-2.37,2.59v.03c0,1.59,1.09,2.6,2.37,2.6s2.43-1.05,2.43-2.6Z"/>
          <path class="cls-17" d="m338.37,395.18h1.14v1.1h-1.14v-1.1Zm.06,2.57h1v6.72h-1v-6.72Z"/>
          <path class="cls-17" d="m341.2,403.61l.51-.72c.73.55,1.53.86,2.33.86s1.39-.42,1.39-1.07v-.03c0-.68-.79-.94-1.68-1.18-1.05-.3-2.22-.66-2.22-1.9v-.03c0-1.16.96-1.92,2.29-1.92.82,0,1.73.29,2.42.74l-.46.75c-.62-.4-1.34-.65-1.99-.65-.79,0-1.3.42-1.3.98v.03c0,.64.83.88,1.73,1.16,1.04.31,2.16.71,2.16,1.92v.03c0,1.27-1.05,2.02-2.39,2.02-.96,0-2.03-.38-2.78-.99Z"/>
          <path class="cls-17" d="m347.82,401.13v-.03c0-1.94,1.37-3.5,3.22-3.5,1.99,0,3.13,1.59,3.13,3.55,0,.13,0,.21-.01.32h-5.33c.14,1.46,1.17,2.28,2.37,2.28.92,0,1.57-.38,2.12-.95l.62.56c-.68.75-1.49,1.26-2.77,1.26-1.85,0-3.36-1.42-3.36-3.5Zm5.34-.39c-.1-1.22-.81-2.29-2.14-2.29-1.17,0-2.05.98-2.19,2.29h4.33Z"/>
          <path class="cls-17" d="m355.42,402.52v-.03c0-1.42,1.17-2.17,2.87-2.17.86,0,1.47.12,2.07.29v-.23c0-1.21-.74-1.83-2-1.83-.79,0-1.42.21-2.04.49l-.3-.82c.74-.34,1.47-.56,2.44-.56s1.68.25,2.17.74c.46.46.69,1.1.69,1.96v4.11h-.96v-1.01c-.47.61-1.25,1.16-2.43,1.16-1.25,0-2.51-.71-2.51-2.09Zm4.95-.52v-.65c-.49-.14-1.16-.29-1.98-.29-1.26,0-1.96.55-1.96,1.39v.03c0,.85.78,1.34,1.69,1.34,1.23,0,2.25-.75,2.25-1.82Z"/>
          <path class="cls-17" d="m362.9,403.61l.51-.72c.73.55,1.53.86,2.33.86s1.39-.42,1.39-1.07v-.03c0-.68-.79-.94-1.68-1.18-1.05-.3-2.22-.66-2.22-1.9v-.03c0-1.16.96-1.92,2.29-1.92.82,0,1.73.29,2.42.74l-.46.75c-.62-.4-1.34-.65-1.99-.65-.79,0-1.3.42-1.3.98v.03c0,.64.83.88,1.73,1.16,1.04.31,2.16.71,2.16,1.92v.03c0,1.27-1.05,2.02-2.39,2.02-.96,0-2.03-.38-2.78-.99Z"/>
          <path class="cls-17" d="m369.51,401.13v-.03c0-1.94,1.37-3.5,3.22-3.5,1.99,0,3.13,1.59,3.13,3.55,0,.13,0,.21-.01.32h-5.33c.14,1.46,1.17,2.28,2.37,2.28.92,0,1.57-.38,2.12-.95l.62.56c-.68.75-1.5,1.26-2.77,1.26-1.85,0-3.35-1.42-3.35-3.5Zm5.34-.39c-.1-1.22-.8-2.29-2.14-2.29-1.17,0-2.05.98-2.18,2.29h4.33Z"/>
        </g>
      </g>
      <g id="desktop_bowel_damage_graph" class="graph_details" data-value="bowel_damage">
        <g>
          <polyline class="cls-6" points="65.3 386.71 125.95 386.71 146.17 381.05 160.22 369.38 254 358.38 267.48 352.72 282.42 342.02 316.12 329.18 388.78 301.71 422.48 273.38 550.53 233.71 550.53 171.38 624.66 143.05 638.14 120.38 698.8 97.71 698.8 386.71"/>
          <polyline class="cls-2" points="65.3 386.71 125.95 386.71 146.17 381.05 160.22 369.38 254 358.38 267.48 352.72 282.42 342.02 316.12 329.18 388.78 301.71 422.48 273.38 550.53 233.71 550.53 171.38 624.66 143.05 638.14 120.38 698.8 97.71"/>
        </g>
        <g>
          <path class="cls-11" d="m400.3,202.99h9.06v1.31h-7.63v4.5h6.82v1.3h-6.82v5.49h-1.42v-12.6Z"/>
          <path class="cls-11" d="m411.91,202.72h1.58v1.53h-1.58v-1.53Zm.09,3.57h1.39v9.31h-1.39v-9.31Z"/>
          <path class="cls-11" d="m415.83,214.4l.7-.99c1.01.76,2.12,1.19,3.22,1.19s1.93-.58,1.93-1.48v-.04c0-.94-1.1-1.3-2.32-1.64-1.46-.41-3.08-.92-3.08-2.63v-.04c0-1.6,1.33-2.67,3.17-2.67,1.13,0,2.39.4,3.35,1.03l-.63,1.04c-.86-.56-1.85-.9-2.75-.9-1.1,0-1.8.58-1.8,1.35v.04c0,.88,1.15,1.22,2.4,1.6,1.44.43,2.99.99,2.99,2.67v.04c0,1.76-1.46,2.79-3.31,2.79-1.33,0-2.81-.52-3.85-1.37Z"/>
          <path class="cls-11" d="m425.88,213.13v-5.62h-1.3v-1.22h1.3v-2.81h1.39v2.81h2.95v1.22h-2.95v5.44c0,1.13.63,1.55,1.57,1.55.47,0,.86-.09,1.35-.32v1.19c-.49.25-1.01.4-1.67.4-1.5,0-2.63-.74-2.63-2.63Z"/>
          <path class="cls-11" d="m432.52,212.06v-5.78h1.39v5.44c0,1.73.94,2.81,2.58,2.81s2.79-1.17,2.79-2.92v-5.33h1.37v9.31h-1.37v-1.62c-.63,1.01-1.58,1.82-3.19,1.82-2.25,0-3.57-1.51-3.57-3.73Z"/>
          <path class="cls-11" d="m443.88,202.45h1.39v13.14h-1.39v-13.14Z"/>
          <path class="cls-11" d="m447.78,212.89v-.04c0-1.96,1.62-3.01,3.98-3.01,1.19,0,2.03.16,2.86.4v-.32c0-1.67-1.03-2.54-2.77-2.54-1.1,0-1.96.29-2.83.68l-.42-1.13c1.03-.47,2.04-.77,3.39-.77s2.32.34,3.01,1.03c.63.63.95,1.53.95,2.72v5.69h-1.33v-1.4c-.65.85-1.73,1.6-3.37,1.6-1.73,0-3.48-.99-3.48-2.9Zm6.86-.72v-.9c-.68-.2-1.6-.4-2.74-.4-1.75,0-2.72.76-2.72,1.93v.04c0,1.17,1.08,1.85,2.34,1.85,1.71,0,3.11-1.04,3.11-2.52Z"/>
          <path class="cls-11" d="m465.34,201.22h1.28l-8.35,16.67h-1.28l8.35-16.67Z"/>
          <path class="cls-11" d="m466.18,212.89v-.04c0-1.96,1.62-3.01,3.98-3.01,1.19,0,2.03.16,2.86.4v-.32c0-1.67-1.03-2.54-2.77-2.54-1.1,0-1.96.29-2.83.68l-.41-1.13c1.03-.47,2.04-.77,3.38-.77s2.32.34,3.01,1.03c.63.63.95,1.53.95,2.72v5.69h-1.33v-1.4c-.65.85-1.73,1.6-3.37,1.6-1.73,0-3.47-.99-3.47-2.9Zm6.86-.72v-.9c-.68-.2-1.6-.4-2.74-.4-1.75,0-2.72.76-2.72,1.93v.04c0,1.17,1.08,1.85,2.34,1.85,1.71,0,3.12-1.04,3.12-2.52Z"/>
          <path class="cls-11" d="m478.69,213.81v1.78h-1.39v-13.14h1.39v5.71c.76-1.12,1.85-2.07,3.57-2.07,2.23,0,4.45,1.76,4.45,4.83v.04c0,3.04-2.2,4.84-4.45,4.84-1.73,0-2.85-.94-3.57-1.98Zm6.59-2.84v-.04c0-2.2-1.51-3.6-3.28-3.6s-3.37,1.46-3.37,3.58v.04c0,2.16,1.64,3.6,3.37,3.6s3.28-1.33,3.28-3.58Z"/>
          <path class="cls-11" d="m488.48,214.4l.7-.99c1.01.76,2.12,1.19,3.22,1.19s1.93-.58,1.93-1.48v-.04c0-.94-1.1-1.3-2.32-1.64-1.46-.41-3.08-.92-3.08-2.63v-.04c0-1.6,1.33-2.67,3.17-2.67,1.13,0,2.39.4,3.35,1.03l-.63,1.04c-.86-.56-1.85-.9-2.75-.9-1.1,0-1.8.58-1.8,1.35v.04c0,.88,1.15,1.22,2.39,1.6,1.44.43,2.99.99,2.99,2.67v.04c0,1.76-1.46,2.79-3.31,2.79-1.33,0-2.81-.52-3.85-1.37Z"/>
          <path class="cls-11" d="m497.64,210.98v-.04c0-2.63,2.05-4.86,4.77-4.86,1.77,0,2.86.74,3.73,1.66l-.92.97c-.74-.77-1.57-1.4-2.83-1.4-1.89,0-3.33,1.6-3.33,3.6v.04c0,2.02,1.48,3.62,3.42,3.62,1.19,0,2.11-.59,2.85-1.39l.88.83c-.94,1.04-2.05,1.8-3.8,1.8-2.72,0-4.77-2.21-4.77-4.83Z"/>
          <path class="cls-11" d="m507.65,210.97v-.04c0-2.68,1.89-4.84,4.47-4.84,2.75,0,4.34,2.2,4.34,4.92,0,.18,0,.29-.02.45h-7.38c.2,2.02,1.62,3.15,3.28,3.15,1.28,0,2.18-.52,2.94-1.31l.86.77c-.94,1.04-2.07,1.75-3.83,1.75-2.56,0-4.65-1.96-4.65-4.84Zm7.4-.54c-.14-1.69-1.12-3.17-2.97-3.17-1.62,0-2.84,1.35-3.02,3.17h6Z"/>
          <path class="cls-11" d="m518.11,214.4l.7-.99c1.01.76,2.12,1.19,3.22,1.19s1.93-.58,1.93-1.48v-.04c0-.94-1.1-1.3-2.32-1.64-1.46-.41-3.08-.92-3.08-2.63v-.04c0-1.6,1.33-2.67,3.17-2.67,1.13,0,2.4.4,3.35,1.03l-.63,1.04c-.87-.56-1.86-.9-2.76-.9-1.1,0-1.8.58-1.8,1.35v.04c0,.88,1.15,1.22,2.4,1.6,1.44.43,2.99.99,2.99,2.67v.04c0,1.76-1.46,2.79-3.31,2.79-1.33,0-2.81-.52-3.85-1.37Z"/>
          <path class="cls-11" d="m526.89,214.4l.7-.99c1.01.76,2.12,1.19,3.22,1.19s1.93-.58,1.93-1.48v-.04c0-.94-1.1-1.3-2.32-1.64-1.46-.41-3.08-.92-3.08-2.63v-.04c0-1.6,1.33-2.67,3.17-2.67,1.13,0,2.39.4,3.35,1.03l-.63,1.04c-.86-.56-1.85-.9-2.75-.9-1.1,0-1.8.58-1.8,1.35v.04c0,.88,1.15,1.22,2.4,1.6,1.44.43,2.99.99,2.99,2.67v.04c0,1.76-1.46,2.79-3.31,2.79-1.33,0-2.81-.52-3.85-1.37Z"/>
        </g>
        <g>
          <path class="cls-11" d="m307.19,283.39l.88-1.04c1.31,1.19,2.57,1.78,4.32,1.78s2.81-.9,2.81-2.14v-.04c0-1.17-.63-1.84-3.28-2.39-2.9-.63-4.23-1.57-4.23-3.64v-.04c0-1.98,1.75-3.44,4.14-3.44,1.84,0,3.15.52,4.43,1.55l-.83,1.1c-1.17-.96-2.34-1.37-3.64-1.37-1.64,0-2.68.9-2.68,2.04v.04c0,1.19.65,1.85,3.42,2.45,2.81.61,4.11,1.64,4.11,3.57v.04c0,2.16-1.8,3.56-4.3,3.56-2,0-3.64-.67-5.15-2.02Z"/>
          <path class="cls-11" d="m319.7,282.76v-5.62h-1.3v-1.22h1.3v-2.81h1.39v2.81h2.95v1.22h-2.95v5.44c0,1.13.63,1.55,1.57,1.55.47,0,.87-.09,1.35-.32v1.19c-.49.25-1.01.4-1.67.4-1.5,0-2.63-.74-2.63-2.63Z"/>
          <path class="cls-11" d="m326.48,275.92h1.39v2.43c.68-1.55,2.03-2.67,3.8-2.59v1.49h-.11c-2.03,0-3.69,1.46-3.69,4.27v3.71h-1.39v-9.31Z"/>
          <path class="cls-11" d="m333.81,272.35h1.58v1.53h-1.58v-1.53Zm.09,3.57h1.39v9.31h-1.39v-9.31Z"/>
          <path class="cls-11" d="m337.93,280.62v-.04c0-2.63,2.05-4.86,4.77-4.86,1.76,0,2.86.74,3.73,1.66l-.92.97c-.74-.77-1.57-1.4-2.83-1.4-1.89,0-3.33,1.6-3.33,3.6v.04c0,2.02,1.48,3.62,3.42,3.62,1.19,0,2.11-.59,2.84-1.39l.88.83c-.94,1.04-2.05,1.8-3.8,1.8-2.72,0-4.77-2.21-4.77-4.83Z"/>
          <path class="cls-11" d="m349.27,282.76v-5.62h-1.3v-1.22h1.3v-2.81h1.39v2.81h2.95v1.22h-2.95v5.44c0,1.13.63,1.55,1.57,1.55.47,0,.86-.09,1.35-.32v1.19c-.49.25-1.01.4-1.67.4-1.49,0-2.63-.74-2.63-2.63Z"/>
          <path class="cls-11" d="m355.91,281.7v-5.78h1.39v5.44c0,1.73.94,2.81,2.57,2.81s2.79-1.17,2.79-2.92v-5.33h1.37v9.31h-1.37v-1.62c-.63,1.01-1.58,1.82-3.19,1.82-2.25,0-3.56-1.51-3.56-3.73Z"/>
          <path class="cls-11" d="m367.14,275.92h1.39v2.43c.68-1.55,2.03-2.67,3.8-2.59v1.49h-.11c-2.03,0-3.69,1.46-3.69,4.27v3.71h-1.39v-9.31Z"/>
          <path class="cls-11" d="m373.46,280.6v-.04c0-2.68,1.89-4.84,4.47-4.84,2.75,0,4.34,2.2,4.34,4.92,0,.18,0,.29-.02.45h-7.38c.2,2.02,1.62,3.15,3.28,3.15,1.28,0,2.18-.52,2.93-1.31l.86.77c-.94,1.04-2.07,1.75-3.83,1.75-2.56,0-4.65-1.96-4.65-4.84Zm7.4-.54c-.14-1.69-1.12-3.17-2.97-3.17-1.62,0-2.84,1.35-3.02,3.17h6Z"/>
        </g>
        <g>
          <path class="cls-11" d="m506.35,143.94l.88-1.04c1.31,1.19,2.57,1.78,4.32,1.78s2.81-.9,2.81-2.14v-.04c0-1.17-.63-1.84-3.28-2.39-2.9-.63-4.23-1.57-4.23-3.64v-.04c0-1.98,1.75-3.44,4.14-3.44,1.84,0,3.15.52,4.43,1.55l-.83,1.1c-1.17-.96-2.34-1.37-3.64-1.37-1.64,0-2.68.9-2.68,2.04v.04c0,1.19.65,1.85,3.42,2.45,2.81.61,4.11,1.64,4.11,3.57v.04c0,2.16-1.8,3.56-4.3,3.56-2,0-3.64-.67-5.15-2.02Z"/>
          <path class="cls-11" d="m518.32,142.25v-5.78h1.39v5.44c0,1.73.94,2.81,2.57,2.81s2.79-1.17,2.79-2.92v-5.33h1.37v9.31h-1.37v-1.62c-.63,1.01-1.58,1.82-3.19,1.82-2.25,0-3.56-1.51-3.56-3.73Z"/>
          <path class="cls-11" d="m529.55,136.47h1.39v2.43c.68-1.55,2.03-2.67,3.8-2.59v1.49h-.11c-2.03,0-3.69,1.46-3.69,4.27v3.71h-1.39v-9.31Z"/>
          <path class="cls-11" d="m536.36,147.4l.63-1.08c1.06.77,2.25,1.19,3.58,1.19,2.05,0,3.38-1.13,3.38-3.31v-1.1c-.81,1.08-1.94,1.96-3.66,1.96-2.23,0-4.38-1.67-4.38-4.36v-.04c0-2.72,2.16-4.39,4.38-4.39,1.75,0,2.88.86,3.64,1.87v-1.67h1.39v7.69c0,1.44-.43,2.54-1.19,3.29-.83.83-2.07,1.24-3.55,1.24-1.55,0-2.99-.43-4.23-1.3Zm7.63-6.72v-.04c0-1.91-1.66-3.15-3.42-3.15s-3.22,1.22-3.22,3.13v.04c0,1.87,1.5,3.17,3.22,3.17s3.42-1.28,3.42-3.15Z"/>
          <path class="cls-11" d="m547.84,141.15v-.04c0-2.68,1.89-4.84,4.46-4.84,2.75,0,4.34,2.2,4.34,4.92,0,.18,0,.29-.02.45h-7.38c.2,2.02,1.62,3.15,3.28,3.15,1.28,0,2.18-.52,2.93-1.31l.87.77c-.94,1.04-2.07,1.75-3.84,1.75-2.56,0-4.64-1.96-4.64-4.84Zm7.4-.54c-.14-1.69-1.12-3.17-2.97-3.17-1.62,0-2.85,1.35-3.03,3.17h6Z"/>
          <path class="cls-11" d="m559.07,136.47h1.39v2.43c.68-1.55,2.03-2.67,3.8-2.59v1.49h-.11c-2.03,0-3.69,1.46-3.69,4.27v3.71h-1.39v-9.31Z"/>
          <path class="cls-11" d="m573.33,136.47h1.48l-3.91,9.61c-.79,1.93-1.69,2.63-3.1,2.63-.77,0-1.35-.16-1.98-.47l.47-1.1c.45.23.87.34,1.46.34.83,0,1.35-.43,1.91-1.75l-4.23-9.27h1.53l3.39,7.76,2.99-7.76Z"/>
        </g>
        <g>
          <path class="cls-11" d="m580.65,99.36l.88-1.04c1.31,1.19,2.58,1.78,4.32,1.78s2.81-.9,2.81-2.14v-.04c0-1.17-.63-1.84-3.28-2.39-2.9-.63-4.23-1.57-4.23-3.64v-.04c0-1.98,1.75-3.44,4.14-3.44,1.84,0,3.15.52,4.43,1.55l-.83,1.1c-1.17-.96-2.34-1.37-3.64-1.37-1.64,0-2.68.9-2.68,2.04v.04c0,1.19.65,1.85,3.42,2.45,2.81.61,4.11,1.64,4.11,3.57v.04c0,2.16-1.8,3.56-4.3,3.56-2,0-3.64-.67-5.15-2.02Z"/>
          <path class="cls-11" d="m593.16,98.73v-5.62h-1.3v-1.22h1.3v-2.81h1.39v2.81h2.95v1.22h-2.95v5.44c0,1.13.63,1.55,1.57,1.55.47,0,.86-.09,1.35-.32v1.19c-.49.25-1.01.4-1.67.4-1.49,0-2.63-.74-2.63-2.63Z"/>
          <path class="cls-11" d="m599.94,91.89h1.39v2.43c.68-1.55,2.03-2.67,3.8-2.59v1.49h-.11c-2.03,0-3.69,1.46-3.69,4.27v3.71h-1.39v-9.31Z"/>
          <path class="cls-11" d="m607.27,88.32h1.58v1.53h-1.58v-1.53Zm.09,3.57h1.39v9.31h-1.39v-9.31Z"/>
          <path class="cls-11" d="m611.39,96.59v-.04c0-2.63,2.05-4.86,4.77-4.86,1.76,0,2.86.74,3.73,1.66l-.92.97c-.74-.77-1.57-1.4-2.83-1.4-1.89,0-3.33,1.6-3.33,3.6v.04c0,2.02,1.48,3.62,3.42,3.62,1.19,0,2.11-.59,2.84-1.39l.88.83c-.94,1.04-2.05,1.8-3.8,1.8-2.72,0-4.77-2.21-4.77-4.83Z"/>
          <path class="cls-11" d="m622.73,98.73v-5.62h-1.3v-1.22h1.3v-2.81h1.39v2.81h2.95v1.22h-2.95v5.44c0,1.13.63,1.55,1.57,1.55.47,0,.86-.09,1.35-.32v1.19c-.49.25-1.01.4-1.67.4-1.49,0-2.63-.74-2.63-2.63Z"/>
          <path class="cls-11" d="m629.37,97.67v-5.78h1.39v5.44c0,1.73.94,2.81,2.58,2.81s2.79-1.17,2.79-2.92v-5.33h1.37v9.31h-1.37v-1.62c-.63,1.01-1.58,1.82-3.19,1.82-2.25,0-3.57-1.51-3.57-3.73Z"/>
          <path class="cls-11" d="m640.61,91.89h1.39v2.43c.68-1.55,2.04-2.67,3.8-2.59v1.49h-.11c-2.04,0-3.69,1.46-3.69,4.27v3.71h-1.39v-9.31Z"/>
          <path class="cls-11" d="m646.92,96.57v-.04c0-2.68,1.89-4.84,4.47-4.84,2.75,0,4.34,2.2,4.34,4.92,0,.18,0,.29-.02.45h-7.38c.2,2.02,1.62,3.15,3.28,3.15,1.28,0,2.18-.52,2.94-1.31l.86.77c-.94,1.04-2.07,1.75-3.83,1.75-2.56,0-4.65-1.96-4.65-4.84Zm7.4-.54c-.14-1.69-1.12-3.17-2.97-3.17-1.62,0-2.84,1.35-3.02,3.17h6Z"/>
        </g>
      </g>
      <g id="desktop_button_2" class="graph--btn" data-value="inflammatory_activity">
        <g id="inflammatory_activity_title" class="btn-title orange">
          <path class="cls-22" d="m761.25,134.87v2.46h-11.2v-2.46h11.2Z"/>
          <path class="cls-22" d="m758.63,139.88v2.43h-1.22c.72.56,1.38,1.28,1.38,2.51,0,1.84-1.22,2.91-3.19,2.91h-5.55v-2.43h4.79c1.15,0,1.75-.54,1.75-1.47s-.59-1.52-1.75-1.52h-4.79v-2.43h8.58Z"/>
          <path class="cls-22" d="m756.54,150.27v-1.01h2v1.01h.54c.94,0,1.63.24,2.08.69s.67,1.1.67,1.97c0,.77-.1,1.28-.24,1.73h-2.02c.13-.35.21-.69.21-1.1,0-.56-.29-.88-.93-.88h-.34v1.97h-1.98v-1.94h-6.5v-2.43h6.5Zm5.19,5.81v2.43h-11.68v-2.43h11.68Z"/>
          <path class="cls-22" d="m752.51,160.28h.03c1.87,0,2.74,1.42,2.74,3.46,0,.86-.14,1.49-.35,2.1h.14c1.01,0,1.57-.62,1.57-1.84,0-.93-.18-1.58-.46-2.37l1.86-.61c.42.94.69,1.87.69,3.33,0,1.33-.35,2.29-.96,2.9-.64.64-1.58.93-2.74.93h-4.98v-2.35h.93c-.66-.59-1.09-1.41-1.09-2.59,0-1.62.93-2.95,2.62-2.95Zm.56,5.59h.43c.19-.42.32-.96.32-1.55,0-1.04-.42-1.68-1.18-1.68h-.03c-.66,0-1.04.54-1.04,1.33,0,1.14.62,1.9,1.51,1.9Z"/>
          <path class="cls-22" d="m758.63,170.27v2.43h-1.22c.72.56,1.38,1.3,1.38,2.53,0,1.12-.5,1.97-1.36,2.42.88.75,1.36,1.65,1.36,2.82,0,1.81-1.09,2.9-3.15,2.9h-5.59v-2.43h4.79c1.15,0,1.75-.51,1.75-1.42s-.59-1.47-1.75-1.47h-4.79v-2.43h4.79c1.15,0,1.75-.51,1.75-1.42s-.59-1.47-1.75-1.47h-4.79v-2.43h8.58Z"/>
          <path class="cls-22" d="m758.63,185.46v2.43h-1.22c.72.56,1.38,1.3,1.38,2.53,0,1.12-.5,1.97-1.36,2.42.88.75,1.36,1.65,1.36,2.82,0,1.81-1.09,2.9-3.15,2.9h-5.59v-2.43h4.79c1.15,0,1.75-.51,1.75-1.42s-.59-1.47-1.75-1.47h-4.79v-2.43h4.79c1.15,0,1.75-.51,1.75-1.42s-.59-1.47-1.75-1.47h-4.79v-2.43h8.58Z"/>
          <path class="cls-22" d="m752.51,200.15h.03c1.87,0,2.74,1.42,2.74,3.46,0,.86-.14,1.49-.35,2.1h.14c1.01,0,1.57-.62,1.57-1.84,0-.93-.18-1.58-.46-2.37l1.86-.61c.42.94.69,1.87.69,3.33,0,1.33-.35,2.29-.96,2.9-.64.64-1.58.93-2.74.93h-4.98v-2.35h.93c-.66-.59-1.09-1.41-1.09-2.59,0-1.62.93-2.95,2.62-2.95Zm.56,5.59h.43c.19-.42.32-.96.32-1.55,0-1.04-.42-1.68-1.18-1.68h-.03c-.66,0-1.04.54-1.04,1.33,0,1.14.62,1.9,1.51,1.9Z"/>
          <path class="cls-22" d="m752.48,210.46h4.07v-1.02h2.08v1.02h2.19v2.43h-2.19v2.02h-2.08v-2.02h-3.67c-.56,0-.83.24-.83.78,0,.45.11.85.3,1.2h-1.95c-.3-.51-.5-1.1-.5-1.92,0-1.49.59-2.5,2.58-2.5Z"/>
          <path class="cls-22" d="m754.29,216.04h.03c2.46,0,4.47,1.98,4.47,4.66s-1.97,4.63-4.43,4.63h-.03c-2.46,0-4.47-1.98-4.47-4.66s1.97-4.63,4.43-4.63Zm0,6.88h.03c1.26,0,2.37-.91,2.37-2.26s-1.07-2.23-2.34-2.23h-.03c-1.26,0-2.37.91-2.37,2.26s1.07,2.23,2.34,2.23Z"/>
          <path class="cls-22" d="m758.63,227.08v2.43h-1.73c1.19.5,1.95,1.3,1.89,2.74h-2.55v-.13c0-1.62-.98-2.61-3.02-2.61h-3.17v-2.43h8.58Z"/>
          <path class="cls-22" d="m758.63,239.4v2.53l-8.79-3.3c-1.74-.66-2.4-1.36-2.4-2.82,0-.88.22-1.54.59-2.16l1.76.82c-.19.32-.34.72-.34,1.04,0,.42.13.64.56.85l8.61-3.36v2.58l-5.84,1.95,5.84,1.87Z"/>
          <path class="cls-22" d="m752.51,247.66h.03c1.87,0,2.74,1.42,2.74,3.46,0,.86-.14,1.49-.35,2.1h.14c1.01,0,1.57-.62,1.57-1.84,0-.93-.18-1.58-.46-2.37l1.86-.61c.42.94.69,1.87.69,3.33,0,1.33-.35,2.29-.96,2.9-.64.64-1.58.93-2.74.93h-4.98v-2.35h.93c-.66-.59-1.09-1.41-1.09-2.59,0-1.62.93-2.95,2.62-2.95Zm.56,5.59h.43c.19-.42.32-.96.32-1.55,0-1.04-.42-1.68-1.18-1.68h-.03c-.66,0-1.04.54-1.04,1.33,0,1.14.62,1.9,1.51,1.9Z"/>
          <path class="cls-22" d="m754.29,257.22h.03c2.45,0,4.47,1.87,4.47,4.5,0,1.62-.54,2.62-1.44,3.43l-1.6-1.49c.58-.54.95-1.09.95-1.95,0-1.22-1.07-2.08-2.34-2.08h-.03c-1.31,0-2.37.85-2.37,2.18,0,.82.35,1.38.91,1.97l-1.44,1.42c-.91-.83-1.57-1.79-1.57-3.51,0-2.58,1.98-4.47,4.43-4.47Z"/>
          <path class="cls-22" d="m752.48,267.18h4.07v-1.02h2.08v1.02h2.19v2.43h-2.19v2.02h-2.08v-2.02h-3.67c-.56,0-.83.24-.83.78,0,.45.11.85.3,1.2h-1.95c-.3-.51-.5-1.1-.5-1.92,0-1.49.59-2.5,2.58-2.5Z"/>
          <path class="cls-22" d="m758.63,273.53v2.43h-8.58v-2.43h8.58Zm3.1-.06v2.56h-2.16v-2.56h2.16Z"/>
          <path class="cls-22" d="m758.63,277.48v2.58l-5.75,1.92,5.75,1.94v2.53l-8.64-3.38v-2.21l8.64-3.38Z"/>
          <path class="cls-22" d="m758.63,287.96v2.43h-8.58v-2.43h8.58Zm3.1-.06v2.56h-2.16v-2.56h2.16Z"/>
          <path class="cls-22" d="m752.48,293.08h4.07v-1.02h2.08v1.02h2.19v2.43h-2.19v2.02h-2.08v-2.02h-3.67c-.56,0-.83.24-.83.78,0,.45.11.85.3,1.2h-1.95c-.3-.51-.5-1.1-.5-1.92,0-1.49.59-2.5,2.58-2.5Z"/>
          <path class="cls-22" d="m758.63,304.95v2.53l-8.79-3.3c-1.74-.66-2.4-1.36-2.4-2.82,0-.88.22-1.54.59-2.16l1.76.82c-.19.32-.34.72-.34,1.04,0,.42.13.64.56.85l8.61-3.36v2.58l-5.84,1.95,5.84,1.87Z"/>
          <path class="cls-22" d="m735.44,142.19c3.07,0,5.25,1.49,6.85,4.43l-1.62,1.07c-1.5-2.16-2.98-3.09-5.23-3.09s-3.73.93-5.23,3.09l-1.62-1.07c1.6-2.95,3.78-4.43,6.85-4.43Z"/>
          <path class="cls-22" d="m736.42,148.73h.03c3.19,0,5.79,2.4,5.79,5.84,0,2.11-.7,3.38-1.73,4.42l-1.81-1.57c.79-.86,1.26-1.75,1.26-2.87,0-1.89-1.57-3.25-3.49-3.25h-.03c-1.92,0-3.52,1.33-3.52,3.25,0,1.28.51,2.06,1.31,2.95l-1.59,1.57c-1.23-1.15-2-2.43-2-4.59,0-3.3,2.54-5.75,5.76-5.75Z"/>
          <path class="cls-22" d="m742.05,161.03v4.37c0,3.52-2.42,5.95-5.57,5.95h-.03c-3.15,0-5.6-2.43-5.6-5.95v-4.37h11.21Zm-2.22,2.46h-6.75v1.9c0,2.02,1.36,3.38,3.34,3.38h.03c1.99,0,3.38-1.36,3.38-3.38v-1.9Z"/>
          <path class="cls-22" d="m742.13,176.59v2.27l-11.29,4.8v-2.58l2.51-1.02v-4.74l-2.51-1.02v-2.51l11.29,4.8Zm-6.59,2.59l3.63-1.49-3.63-1.49v2.98Z"/>
          <path class="cls-22" d="m742.05,185.5v2.46h-11.21v-2.46h11.21Z"/>
          <path class="cls-22" d="m729.26,189.83c.11,1.1.67,1.65,1.58,1.57v-.99h2.56v2.59h-2.16c-2.11,0-2.96-1.06-2.99-2.96l1.01-.21Z"/>
          <path class="cls-22" d="m736.42,199.64h.03c3.19,0,5.79,2.4,5.79,5.84,0,2.11-.7,3.38-1.73,4.42l-1.81-1.57c.79-.86,1.26-1.75,1.26-2.87,0-1.89-1.57-3.25-3.49-3.25h-.03c-1.92,0-3.52,1.33-3.52,3.25,0,1.28.51,2.06,1.31,2.95l-1.59,1.57c-1.23-1.15-2-2.43-2-4.59,0-3.3,2.54-5.75,5.76-5.75Z"/>
          <path class="cls-22" d="m742.05,211.94v4.37c0,3.52-2.42,5.95-5.57,5.95h-.03c-3.15,0-5.6-2.43-5.6-5.95v-4.37h11.21Zm-2.22,2.46h-6.75v1.9c0,2.02,1.36,3.38,3.34,3.38h.03c1.99,0,3.38-1.36,3.38-3.38v-1.9Z"/>
          <path class="cls-22" d="m742.05,224.46v8.45h-2.19v-6h-2.27v5.28h-2.19v-5.28h-2.35v6.08h-2.19v-8.53h11.21Z"/>
          <path class="cls-22" d="m742.05,235.29v2.46h-11.21v-2.46h11.21Z"/>
          <path class="cls-22" d="m732.48,239.78l1.75,1.46c-.83,1.01-1.36,2.06-1.36,3.35,0,1.01.4,1.62,1.06,1.62h.03c.62,0,.95-.38,1.42-2.26.58-2.26,1.2-3.71,3.42-3.71h.03c2.03,0,3.38,1.63,3.38,3.92,0,1.63-.51,3.03-1.42,4.16l-1.86-1.28c.69-.99,1.1-1.97,1.1-2.91s-.43-1.44-.98-1.44h-.03c-.74,0-.98.48-1.47,2.42-.59,2.27-1.41,3.55-3.36,3.55h-.03c-2.23,0-3.47-1.7-3.47-4.11,0-1.7.59-3.41,1.79-4.75Z"/>
          <path class="cls-22" d="m729.26,249.86c.11,1.1.67,1.65,1.58,1.57v-.99h2.56v2.59h-2.16c-2.11,0-2.96-1.06-2.99-2.96l1.01-.21Z"/>
          <path class="cls-22" d="m736.42,259.67h.03c3.19,0,5.79,2.4,5.79,5.84,0,2.11-.7,3.38-1.73,4.42l-1.81-1.57c.79-.86,1.26-1.75,1.26-2.87,0-1.89-1.57-3.25-3.49-3.25h-.03c-1.92,0-3.52,1.33-3.52,3.25,0,1.28.51,2.06,1.31,2.95l-1.59,1.57c-1.23-1.15-2-2.43-2-4.59,0-3.3,2.54-5.75,5.76-5.75Z"/>
          <path class="cls-22" d="m742.05,271.98v5.12c0,1.42-.4,2.53-1.14,3.27-.62.62-1.5.96-2.56.96h-.03c-1.81,0-2.95-.98-3.47-2.4l-4,2.74v-2.88l3.59-2.4v-1.94h-3.59v-2.46h11.21Zm-5.44,4.96c0,1.2.64,1.89,1.58,1.89h.03c1.06,0,1.6-.74,1.6-1.94v-2.45h-3.22v2.5Z"/>
          <path class="cls-22" d="m742.05,283.54v4.58c0,2.67-1.58,4.29-3.87,4.29h-.03c-2.59,0-3.94-2.02-3.94-4.53v-1.87h-3.36v-2.46h11.21Zm-5.65,4.42c0,1.23.74,1.95,1.7,1.95h.03c1.1,0,1.7-.77,1.7-2v-1.9h-3.43v1.95Z"/>
          <path class="cls-22" d="m730.21,293.56c1.5,2.16,2.98,3.09,5.23,3.09s3.73-.93,5.23-3.09l1.62,1.07c-1.6,2.95-3.78,4.43-6.85,4.43s-5.25-1.49-6.85-4.43l1.62-1.07Z"/>
        </g>
        <g id="active_graph_button_2" class="active-btn">
          <circle class="cls-7" cx="744.4" cy="351.47" r="21.89"/>
          <circle class="cls-14" cx="744.4" cy="351.47" r="19.98"/>
          <g>
            <path class="cls-8" d="m749.3,361.87h-11.53c-1.01,0-1.84-.82-1.84-1.84,0-1.35,1.01-2.51,2.34-2.7l4.94-.78-8.33-8.33c-.91-.91-.91-2.39,0-3.3.92-.92,2.4-.92,3.31,0l2.17,2.17c.11-.36.3-.7.59-.99.84-.84,2.16-.91,3.08-.21.11-.37.3-.72.59-1.01.84-.84,2.16-.91,3.08-.21.1-.37.3-.72.59-1.01.92-.92,2.4-.92,3.31,0l4.6,5.05c1.13,1.24,1.75,2.85,1.75,4.52,0,1.79-.7,3.48-1.97,4.75l-1.92,1.92c-1.27,1.27-2.96,1.97-4.76,1.97Zm-12.76-16.41c-.29,0-.57.11-.79.33-.44.44-.44,1.15,0,1.58l9.18,9.18c.16.16.22.4.15.62-.07.22-.26.38-.49.41l-6.14.96c-.75.11-1.3.75-1.3,1.49,0,.34.27.61.61.61h11.53c1.47,0,2.85-.57,3.89-1.61l1.92-1.92c1.04-1.04,1.61-2.42,1.61-3.89,0-1.37-.51-2.69-1.43-3.7l-4.58-5.03c-.41-.41-1.12-.41-1.55.02-.22.22-.33.5-.33.79s.12.58.33.79l.05.05c.24.24.24.63,0,.86-.23.23-.61.24-.85.01h0s0,0,0,0h0s0,0,0,0h0s0,0,0,0l-1.28-1.28c-.43-.43-1.14-.43-1.57,0s-.44,1.15,0,1.58l1.28,1.28c.12.12.18.28.18.43s-.06.31-.18.43c-.24.24-.63.24-.86,0l-2.5-2.5c-.43-.43-1.14-.43-1.57,0-.44.44-.44,1.15,0,1.58l2.5,2.5c.12.12.18.28.18.43s-.06.31-.18.43c-.24.24-.63.24-.86,0l-6.12-6.12c-.22-.22-.5-.33-.79-.33Z"/>
            <path class="cls-8" d="m734.53,351.64c-.08,0-.17-.02-.25-.05-1.97-.89-3.25-2.86-3.25-5.01,0-3.04,2.47-5.51,5.51-5.51,2.15,0,4.12,1.27,5.01,3.25.14.31,0,.67-.31.81-.31.14-.67,0-.81-.31-.69-1.53-2.22-2.53-3.9-2.53-2.36,0-4.28,1.92-4.28,4.28,0,1.67.99,3.2,2.53,3.9.31.14.44.5.31.81-.1.23-.33.36-.56.36Z"/>
          </g>
        </g>
        <g id="graph_button_2" class="inactive-btn tooltip" title="Click here">
          <circle class="cls-16" cx="744.4" cy="351.47" r="21.89"/>
          <circle class="cls-21" cx="744.4" cy="351.47" r="19.98"/>
          <g>
            <path class="cls-13" d="m749.3,361.87h-11.53c-1.01,0-1.84-.82-1.84-1.84,0-1.35,1.01-2.51,2.34-2.7l4.94-.78-8.33-8.33c-.91-.91-.91-2.39,0-3.3.92-.92,2.4-.92,3.31,0l2.17,2.17c.11-.36.3-.7.59-.99.84-.84,2.16-.91,3.08-.21.11-.37.3-.72.59-1.01.84-.84,2.16-.91,3.08-.21.1-.37.3-.72.59-1.01.92-.92,2.4-.92,3.31,0l4.6,5.05c1.13,1.24,1.75,2.85,1.75,4.52,0,1.79-.7,3.48-1.97,4.75l-1.92,1.92c-1.27,1.27-2.96,1.97-4.76,1.97Zm-12.76-16.41c-.29,0-.57.11-.79.33-.44.44-.44,1.15,0,1.58l9.18,9.18c.16.16.22.4.15.62-.07.22-.26.38-.49.41l-6.14.96c-.75.11-1.3.75-1.3,1.49,0,.34.27.61.61.61h11.53c1.47,0,2.85-.57,3.89-1.61l1.92-1.92c1.04-1.04,1.61-2.42,1.61-3.89,0-1.37-.51-2.69-1.43-3.7l-4.58-5.03c-.41-.41-1.12-.41-1.55.02-.22.22-.33.5-.33.79s.12.58.33.79l.05.05c.24.24.24.63,0,.86-.23.23-.61.24-.85.01h0s0,0,0,0h0s0,0,0,0h0s0,0,0,0l-1.28-1.28c-.43-.43-1.14-.43-1.57,0s-.44,1.15,0,1.58l1.28,1.28c.12.12.18.28.18.43s-.06.31-.18.43c-.24.24-.63.24-.86,0l-2.5-2.5c-.43-.43-1.14-.43-1.57,0-.44.44-.44,1.15,0,1.58l2.5,2.5c.12.12.18.28.18.43s-.06.31-.18.43c-.24.24-.63.24-.86,0l-6.12-6.12c-.22-.22-.5-.33-.79-.33Z"/>
            <path class="cls-13" d="m734.53,351.64c-.08,0-.17-.02-.25-.05-1.97-.89-3.25-2.86-3.25-5.01,0-3.04,2.47-5.51,5.51-5.51,2.15,0,4.12,1.27,5.01,3.25.14.31,0,.67-.31.81-.31.14-.67,0-.81-.31-.69-1.53-2.22-2.53-3.9-2.53-2.36,0-4.28,1.92-4.28,4.28,0,1.67.99,3.2,2.53,3.9.31.14.44.5.31.81-.1.23-.33.36-.56.36Z"/>
          </g>
        </g>
      </g>
      <g id="desktop_button_1" class="graph--btn" data-value="bowel_damage">
        <g id="bowel_damage_title" class="btn-title purple">
          <path class="cls-11" d="m16.63,279.36v-5.2c0-1.28.35-2.29.99-2.93.51-.51,1.14-.77,1.9-.77h.03c1.26,0,1.97.67,2.42,1.47.5-1.3,1.25-2.1,2.75-2.1h.03c2.05,0,3.07,1.66,3.07,4.19v5.33h-11.2Zm3.31-6.45c-.74,0-1.15.58-1.15,1.62v2.43h2.37v-2.27c0-1.09-.35-1.78-1.18-1.78h-.03Zm3.27,1.2v2.85h2.46v-2.93c0-1.09-.38-1.74-1.22-1.74h-.03c-.75,0-1.22.56-1.22,1.82Z"/>
          <path class="cls-11" d="m23.6,268.48h-.03c-2.46,0-4.46-1.98-4.46-4.66s1.97-4.63,4.43-4.63h.03c2.47,0,4.47,1.98,4.47,4.66s-1.97,4.63-4.43,4.63Zm0-6.88h-.03c-1.26,0-2.37.91-2.37,2.26s1.07,2.23,2.34,2.23h.03c1.27,0,2.37-.91,2.37-2.26s-1.07-2.23-2.34-2.23Z"/>
          <path class="cls-11" d="m19.26,258.54v-2.46l5.2-1.38-5.23-1.62v-2.1l5.25-1.63-5.22-1.41v-2.42l8.64,2.67v2.19l-5.27,1.65,5.27,1.68v2.18l-8.64,2.64Z"/>
          <path class="cls-11" d="m23.6,244.88h-.03c-2.45,0-4.46-1.74-4.46-4.24,0-2.87,2.22-4.18,4.66-4.18.19,0,.42.02.64.03v5.97c1.1-.24,1.68-1.01,1.68-2.1,0-.82-.26-1.41-.88-2.08l1.23-1.39c.99.8,1.6,1.95,1.6,3.51,0,2.58-1.81,4.48-4.43,4.48Zm-.72-6.05c-1.09.14-1.82.78-1.82,1.81s.72,1.66,1.82,1.86v-3.67Z"/>
          <path class="cls-11" d="m16.15,234.54v-2.43h11.68v2.43h-11.68Z"/>
          <path class="cls-11" d="m23.56,225.41h-.03c-2.87,0-4.43-1.87-4.43-3.91,0-1.3.59-2.1,1.28-2.67h-4.23v-2.43h11.68v2.43h-1.23c.8.59,1.39,1.41,1.39,2.67,0,2-1.57,3.91-4.43,3.91Zm0-6.61h-.03c-1.42,0-2.37.94-2.37,2.08s.93,2.1,2.37,2.1h.03c1.43,0,2.37-.96,2.37-2.1s-.94-2.08-2.37-2.08Z"/>
          <path class="cls-11" d="m25.37,214.73h-.03c-1.87,0-2.74-1.42-2.74-3.46,0-.86.14-1.49.35-2.1h-.14c-1.01,0-1.57.62-1.57,1.84,0,.93.18,1.58.46,2.37l-1.86.61c-.42-.94-.69-1.87-.69-3.33,0-1.33.35-2.29.96-2.9.64-.64,1.59-.93,2.74-.93h4.98v2.35h-.93c.66.59,1.09,1.41,1.09,2.59,0,1.62-.93,2.95-2.62,2.95Zm-.56-5.59h-.43c-.19.42-.32.96-.32,1.55,0,1.04.42,1.68,1.18,1.68h.03c.66,0,1.04-.54,1.04-1.33,0-1.14-.62-1.9-1.5-1.9Z"/>
          <path class="cls-11" d="m19.26,204.75v-2.43h1.22c-.72-.56-1.38-1.3-1.38-2.53,0-1.12.5-1.97,1.36-2.42-.88-.75-1.36-1.65-1.36-2.82,0-1.81,1.09-2.9,3.15-2.9h5.59v2.43h-4.79c-1.15,0-1.74.51-1.74,1.42s.59,1.47,1.74,1.47h4.79v2.43h-4.79c-1.15,0-1.74.51-1.74,1.42s.59,1.47,1.74,1.47h4.79v2.43h-8.58Z"/>
          <path class="cls-11" d="m25.37,190.06h-.03c-1.87,0-2.74-1.42-2.74-3.46,0-.86.14-1.49.35-2.1h-.14c-1.01,0-1.57.62-1.57,1.84,0,.93.18,1.58.46,2.37l-1.86.61c-.42-.94-.69-1.87-.69-3.33,0-1.33.35-2.29.96-2.9.64-.64,1.59-.93,2.74-.93h4.98v2.35h-.93c.66.59,1.09,1.41,1.09,2.59,0,1.62-.93,2.95-2.62,2.95Zm-.56-5.59h-.43c-.19.42-.32.96-.32,1.55,0,1.04.42,1.68,1.18,1.68h.03c.66,0,1.04-.54,1.04-1.33,0-1.14-.62-1.9-1.5-1.9Z"/>
          <path class="cls-11" d="m29.54,180.03l-1.82-.83c.5-.88.78-1.76.78-2.9,0-1.67-.8-2.45-2.34-2.45h-.42c.86.72,1.39,1.5,1.39,2.8,0,2-1.46,3.81-4,3.81h-.03c-2.56,0-4-1.84-4-3.81,0-1.33.56-2.11,1.28-2.77h-1.12v-2.43h6.64c1.54,0,2.66.37,3.38,1.09.8.8,1.15,2.03,1.15,3.7,0,1.39-.32,2.71-.9,3.79Zm-6.4-6.18h-.03c-1.17,0-1.99.91-1.99,2.1s.82,2.08,1.99,2.08h.03c1.18,0,1.98-.9,1.98-2.08s-.82-2.1-1.98-2.1Z"/>
          <path class="cls-11" d="m23.6,169.69h-.03c-2.45,0-4.46-1.74-4.46-4.24,0-2.87,2.22-4.18,4.66-4.18.19,0,.42.02.64.03v5.97c1.1-.24,1.68-1.01,1.68-2.1,0-.82-.26-1.41-.88-2.08l1.23-1.39c.99.8,1.6,1.95,1.6,3.51,0,2.58-1.81,4.48-4.43,4.48Zm-.72-6.05c-1.09.14-1.82.78-1.82,1.81s.72,1.66,1.82,1.86v-3.67Z"/>
        </g>
        <g id="active_graph_button_1" class="active-btn">
          <circle class="cls-10" cx="21.89" cy="351.47" r="21.89"/>
          <circle class="cls-9" cx="21.89" cy="351.47" r="19.98"/>
          <g>
            <path class="cls-8" d="m26.79,361.87h-11.53c-1.01,0-1.84-.82-1.84-1.84,0-1.35,1.01-2.51,2.34-2.7l4.94-.78-8.33-8.33c-.91-.91-.91-2.39,0-3.3.92-.92,2.4-.92,3.31,0l2.17,2.17c.11-.36.3-.7.59-.99.84-.84,2.16-.91,3.08-.21.11-.37.3-.72.59-1.01.84-.84,2.16-.91,3.08-.21.1-.37.3-.72.59-1.01.92-.92,2.4-.92,3.31,0l4.6,5.05c1.13,1.24,1.75,2.85,1.75,4.52,0,1.79-.7,3.48-1.97,4.75l-1.92,1.92c-1.27,1.27-2.96,1.97-4.76,1.97Zm-12.76-16.41c-.29,0-.57.11-.79.33-.44.44-.44,1.15,0,1.58l9.18,9.18c.16.16.22.4.15.62-.07.22-.26.38-.49.41l-6.14.96c-.75.11-1.3.75-1.3,1.49,0,.34.27.61.61.61h11.53c1.47,0,2.85-.57,3.89-1.61l1.92-1.92c1.04-1.04,1.61-2.42,1.61-3.89,0-1.37-.51-2.69-1.43-3.7l-4.58-5.03c-.41-.41-1.12-.41-1.55.02-.22.22-.33.5-.33.79s.12.58.33.79l.05.05c.24.24.24.63,0,.86-.23.23-.61.24-.85.01h0s0,0,0,0h0s0,0,0,0h0s0,0,0,0l-1.28-1.28c-.43-.43-1.14-.43-1.57,0s-.44,1.15,0,1.58l1.28,1.28c.12.12.18.28.18.43s-.06.31-.18.43c-.24.24-.63.24-.86,0l-2.5-2.5c-.43-.43-1.14-.43-1.57,0-.44.44-.44,1.15,0,1.58l2.5,2.5c.12.12.18.28.18.43s-.06.31-.18.43c-.24.24-.63.24-.86,0l-6.12-6.12c-.22-.22-.5-.33-.79-.33Z"/>
            <path class="cls-8" d="m12.02,351.64c-.08,0-.17-.02-.25-.05-1.97-.89-3.25-2.86-3.25-5.01,0-3.04,2.47-5.51,5.51-5.51,2.15,0,4.12,1.27,5.01,3.25.14.31,0,.67-.31.81-.31.14-.67,0-.81-.31-.69-1.53-2.22-2.53-3.9-2.53-2.36,0-4.28,1.92-4.28,4.28,0,1.67.99,3.2,2.53,3.9.31.14.44.5.31.81-.1.23-.33.36-.56.36Z"/>
          </g>
        </g>
        <g id="graph_button_1" class="inactive-btn tooltip" title="Click here">
          <circle class="cls-15" cx="21.89" cy="351.47" r="21.89"/>
          <circle class="cls-18" cx="21.89" cy="351.47" r="19.98"/>
          <g>
            <path class="cls-13" d="m26.79,361.87h-11.53c-1.01,0-1.84-.82-1.84-1.84,0-1.35,1.01-2.51,2.34-2.7l4.94-.78-8.33-8.33c-.91-.91-.91-2.39,0-3.3.92-.92,2.4-.92,3.31,0l2.17,2.17c.11-.36.3-.7.59-.99.84-.84,2.16-.91,3.08-.21.11-.37.3-.72.59-1.01.84-.84,2.16-.91,3.08-.21.1-.37.3-.72.59-1.01.92-.92,2.4-.92,3.31,0l4.6,5.05c1.13,1.24,1.75,2.85,1.75,4.52,0,1.79-.7,3.48-1.97,4.75l-1.92,1.92c-1.27,1.27-2.96,1.97-4.76,1.97Zm-12.76-16.41c-.29,0-.57.11-.79.33-.44.44-.44,1.15,0,1.58l9.18,9.18c.16.16.22.4.15.62-.07.22-.26.38-.49.41l-6.14.96c-.75.11-1.3.75-1.3,1.49,0,.34.27.61.61.61h11.53c1.47,0,2.85-.57,3.89-1.61l1.92-1.92c1.04-1.04,1.61-2.42,1.61-3.89,0-1.37-.51-2.69-1.43-3.7l-4.58-5.03c-.41-.41-1.12-.41-1.55.02-.22.22-.33.5-.33.79s.12.58.33.79l.05.05c.24.24.24.63,0,.86-.23.23-.61.24-.85.01h0s0,0,0,0h0s0,0,0,0h0s0,0,0,0l-1.28-1.28c-.43-.43-1.14-.43-1.57,0s-.44,1.15,0,1.58l1.28,1.28c.12.12.18.28.18.43s-.06.31-.18.43c-.24.24-.63.24-.86,0l-2.5-2.5c-.43-.43-1.14-.43-1.57,0-.44.44-.44,1.15,0,1.58l2.5,2.5c.12.12.18.28.18.43s-.06.31-.18.43c-.24.24-.63.24-.86,0l-6.12-6.12c-.22-.22-.5-.33-.79-.33Z"/>
            <path class="cls-13" d="m12.02,351.64c-.08,0-.17-.02-.25-.05-1.97-.89-3.25-2.86-3.25-5.01,0-3.04,2.47-5.51,5.51-5.51,2.15,0,4.12,1.27,5.01,3.25.14.31,0,.67-.31.81-.31.14-.67,0-.81-.31-.69-1.53-2.22-2.53-3.9-2.53-2.36,0-4.28,1.92-4.28,4.28,0,1.67.99,3.2,2.53,3.9.31.14.44.5.31.81-.1.23-.33.36-.56.36Z"/>
          </g>
        </g>
      </g>
      <g id="desktop_graph_base">
        <g>
          <line class="cls-5" x1="63.52" y1="386.8" x2="691.62" y2="386.8"/>
          <polygon class="cls-17" points="690.16 391.79 698.8 386.8 690.16 381.81 690.16 391.79"/>
        </g>
        <g>
          <line class="cls-3" x1="698.8" y1="44.42" x2="698.8" y2="387.47"/>
          <polygon class="cls-22" points="693.81 45.88 698.8 37.25 703.78 45.88 693.81 45.88"/>
        </g>
        <g>
          <line class="cls-1" x1="63.52" y1="44.42" x2="63.52" y2="387.83"/>
          <polygon class="cls-11" points="58.53 45.88 63.52 37.25 68.51 45.88 58.53 45.88"/>
        </g>
      </g>
      <g id="desktop_graph_title">
        <path class="cls-17" d="m119.39.61h4.72c2.85,0,4.72,1.51,4.72,4v.04c0,2.72-2.27,4.12-4.95,4.12h-3.06v4.45h-1.42V.61Zm4.54,6.86c2.09,0,3.46-1.12,3.46-2.77v-.04c0-1.8-1.35-2.74-3.38-2.74h-3.19v5.54h3.12Z"/>
        <path class="cls-17" d="m131.18,3.91h1.39v2.43c.68-1.55,2.04-2.67,3.8-2.59v1.49h-.11c-2.04,0-3.69,1.46-3.69,4.27v3.71h-1.39V3.91Z"/>
        <path class="cls-17" d="m137.5,8.61v-.04c0-2.63,2.05-4.86,4.86-4.86s4.84,2.2,4.84,4.83v.04c0,2.63-2.07,4.86-4.88,4.86s-4.83-2.2-4.83-4.83Zm8.28,0v-.04c0-2-1.5-3.64-3.46-3.64s-3.4,1.64-3.4,3.6v.04c0,2,1.48,3.62,3.44,3.62s3.42-1.62,3.42-3.58Z"/>
        <path class="cls-17" d="m149.59,14.84l.63-1.08c1.06.77,2.25,1.19,3.58,1.19,2.05,0,3.38-1.13,3.38-3.31v-1.1c-.81,1.08-1.94,1.96-3.66,1.96-2.23,0-4.38-1.67-4.38-4.36v-.04c0-2.72,2.16-4.39,4.38-4.39,1.75,0,2.88.86,3.64,1.87v-1.67h1.39v7.69c0,1.44-.43,2.54-1.19,3.29-.83.83-2.07,1.24-3.55,1.24-1.55,0-2.99-.43-4.23-1.3Zm7.63-6.72v-.04c0-1.91-1.66-3.15-3.42-3.15s-3.22,1.22-3.22,3.13v.04c0,1.87,1.5,3.17,3.22,3.17s3.42-1.28,3.42-3.15Z"/>
        <path class="cls-17" d="m161.65,3.91h1.39v2.43c.68-1.55,2.03-2.67,3.8-2.59v1.49h-.11c-2.03,0-3.69,1.46-3.69,4.27v3.71h-1.39V3.91Z"/>
        <path class="cls-17" d="m167.97,8.59v-.04c0-2.68,1.89-4.84,4.46-4.84,2.75,0,4.34,2.2,4.34,4.92,0,.18,0,.29-.02.45h-7.38c.2,2.02,1.62,3.15,3.28,3.15,1.28,0,2.18-.52,2.93-1.31l.87.77c-.94,1.04-2.07,1.75-3.84,1.75-2.56,0-4.64-1.96-4.64-4.84Zm7.4-.54c-.14-1.69-1.12-3.17-2.97-3.17-1.62,0-2.85,1.35-3.03,3.17h6Z"/>
        <path class="cls-17" d="m178.43,12.03l.7-.99c1.01.76,2.12,1.19,3.22,1.19s1.93-.58,1.93-1.48v-.04c0-.94-1.1-1.3-2.32-1.64-1.46-.41-3.08-.92-3.08-2.63v-.04c0-1.6,1.33-2.67,3.17-2.67,1.13,0,2.39.4,3.35,1.03l-.63,1.04c-.86-.56-1.85-.9-2.75-.9-1.1,0-1.8.58-1.8,1.35v.04c0,.88,1.15,1.22,2.39,1.6,1.44.43,2.99.99,2.99,2.67v.04c0,1.76-1.46,2.79-3.31,2.79-1.33,0-2.81-.52-3.85-1.37Z"/>
        <path class="cls-17" d="m187.21,12.03l.7-.99c1.01.76,2.12,1.19,3.22,1.19s1.93-.58,1.93-1.48v-.04c0-.94-1.1-1.3-2.32-1.64-1.46-.41-3.08-.92-3.08-2.63v-.04c0-1.6,1.33-2.67,3.17-2.67,1.13,0,2.4.4,3.35,1.03l-.63,1.04c-.86-.56-1.85-.9-2.75-.9-1.1,0-1.8.58-1.8,1.35v.04c0,.88,1.15,1.22,2.39,1.6,1.44.43,2.99.99,2.99,2.67v.04c0,1.76-1.46,2.79-3.31,2.79-1.33,0-2.81-.52-3.85-1.37Z"/>
        <path class="cls-17" d="m196.99.34h1.58v1.53h-1.58V.34Zm.09,3.57h1.39v9.31h-1.39V3.91Z"/>
        <path class="cls-17" d="m201.11,8.61v-.04c0-2.63,2.05-4.86,4.86-4.86s4.84,2.2,4.84,4.83v.04c0,2.63-2.07,4.86-4.88,4.86s-4.83-2.2-4.83-4.83Zm8.28,0v-.04c0-2-1.5-3.64-3.46-3.64s-3.4,1.64-3.4,3.6v.04c0,2,1.48,3.62,3.44,3.62s3.42-1.62,3.42-3.58Z"/>
        <path class="cls-17" d="m213.31,3.91h1.39v1.62c.61-1.01,1.58-1.82,3.19-1.82,2.25,0,3.57,1.51,3.57,3.73v5.78h-1.39v-5.44c0-1.73-.94-2.81-2.58-2.81s-2.79,1.17-2.79,2.92v5.33h-1.39V3.91Z"/>
        <path class="cls-17" d="m229.22,8.61v-.04c0-2.63,2.05-4.86,4.86-4.86s4.84,2.2,4.84,4.83v.04c0,2.63-2.07,4.86-4.88,4.86s-4.83-2.2-4.83-4.83Zm8.28,0v-.04c0-2-1.49-3.64-3.46-3.64s-3.4,1.64-3.4,3.6v.04c0,2,1.48,3.62,3.44,3.62s3.42-1.62,3.42-3.58Z"/>
        <path class="cls-17" d="m241.95,5.13h-1.28v-1.21h1.28v-.81c0-1.06.29-1.87.81-2.4.47-.47,1.15-.72,2-.72.65,0,1.08.07,1.53.23v1.21c-.5-.14-.88-.23-1.35-.23-1.08,0-1.62.65-1.62,1.98v.76h2.95v1.19h-2.94v8.08h-1.39V5.13Z"/>
        <path class="cls-17" d="m252.89,8.59v-.04c0-3.04,2.21-4.84,4.45-4.84,1.73,0,2.85.94,3.57,1.98V.07h1.39v13.14h-1.39v-1.87c-.76,1.12-1.85,2.07-3.57,2.07-2.23,0-4.45-1.76-4.45-4.83Zm8.07-.02v-.04c0-2.14-1.64-3.58-3.37-3.58s-3.28,1.33-3.28,3.58v.04c0,2.2,1.51,3.6,3.28,3.6s3.37-1.46,3.37-3.6Z"/>
        <path class="cls-17" d="m265.42.34h1.58v1.53h-1.58V.34Zm.09,3.57h1.39v9.31h-1.39V3.91Z"/>
        <path class="cls-17" d="m270.01,14.84l.63-1.08c1.06.77,2.25,1.19,3.58,1.19,2.05,0,3.38-1.13,3.38-3.31v-1.1c-.81,1.08-1.95,1.96-3.66,1.96-2.23,0-4.38-1.67-4.38-4.36v-.04c0-2.72,2.16-4.39,4.38-4.39,1.75,0,2.88.86,3.64,1.87v-1.67h1.39v7.69c0,1.44-.43,2.54-1.19,3.29-.83.83-2.07,1.24-3.55,1.24-1.55,0-2.99-.43-4.23-1.3Zm7.63-6.72v-.04c0-1.91-1.66-3.15-3.42-3.15s-3.22,1.22-3.22,3.13v.04c0,1.87,1.5,3.17,3.22,3.17s3.42-1.28,3.42-3.15Z"/>
        <path class="cls-17" d="m281.49,8.59v-.04c0-2.68,1.89-4.84,4.46-4.84,2.76,0,4.34,2.2,4.34,4.92,0,.18,0,.29-.02.45h-7.38c.2,2.02,1.62,3.15,3.28,3.15,1.28,0,2.18-.52,2.93-1.31l.86.77c-.94,1.04-2.07,1.75-3.83,1.75-2.56,0-4.65-1.96-4.65-4.84Zm7.4-.54c-.14-1.69-1.12-3.17-2.97-3.17-1.62,0-2.85,1.35-3.03,3.17h6Z"/>
        <path class="cls-17" d="m291.95,12.03l.7-.99c1.01.76,2.12,1.19,3.22,1.19s1.93-.58,1.93-1.48v-.04c0-.94-1.1-1.3-2.32-1.64-1.46-.41-3.08-.92-3.08-2.63v-.04c0-1.6,1.33-2.67,3.17-2.67,1.13,0,2.4.4,3.35,1.03l-.63,1.04c-.86-.56-1.85-.9-2.75-.9-1.1,0-1.8.58-1.8,1.35v.04c0,.88,1.15,1.22,2.39,1.6,1.44.43,2.99.99,2.99,2.67v.04c0,1.76-1.46,2.79-3.31,2.79-1.33,0-2.81-.52-3.85-1.37Z"/>
        <path class="cls-17" d="m302,10.75v-5.62h-1.3v-1.22h1.3V1.1h1.39v2.81h2.95v1.22h-2.95v5.44c0,1.13.63,1.55,1.57,1.55.47,0,.86-.09,1.35-.32v1.19c-.49.25-1.01.4-1.67.4-1.49,0-2.63-.74-2.63-2.63Z"/>
        <path class="cls-17" d="m308.82.34h1.58v1.53h-1.58V.34Zm.09,3.57h1.39v9.31h-1.39V3.91Z"/>
        <path class="cls-17" d="m312.6,3.91h1.53l3.13,7.72,3.15-7.72h1.49l-4.05,9.38h-1.22l-4.03-9.38Z"/>
        <path class="cls-17" d="m322.97,8.59v-.04c0-2.68,1.89-4.84,4.47-4.84,2.75,0,4.34,2.2,4.34,4.92,0,.18,0,.29-.02.45h-7.38c.2,2.02,1.62,3.15,3.28,3.15,1.28,0,2.18-.52,2.93-1.31l.86.77c-.94,1.04-2.07,1.75-3.83,1.75-2.56,0-4.65-1.96-4.65-4.84Zm7.4-.54c-.14-1.69-1.12-3.17-2.97-3.17-1.62,0-2.84,1.35-3.02,3.17h6Z"/>
        <path class="cls-17" d="m339.06,8.59v-.04c0-3.04,2.21-4.84,4.45-4.84,1.73,0,2.84.94,3.57,1.98V.07h1.39v13.14h-1.39v-1.87c-.76,1.12-1.86,2.07-3.57,2.07-2.23,0-4.45-1.76-4.45-4.83Zm8.07-.02v-.04c0-2.14-1.64-3.58-3.37-3.58s-3.28,1.33-3.28,3.58v.04c0,2.2,1.51,3.6,3.28,3.6s3.37-1.46,3.37-3.6Z"/>
        <path class="cls-17" d="m350.85,10.51v-.04c0-1.96,1.62-3.01,3.98-3.01,1.19,0,2.04.16,2.86.4v-.32c0-1.67-1.03-2.54-2.77-2.54-1.1,0-1.96.29-2.83.68l-.41-1.13c1.03-.47,2.03-.77,3.38-.77s2.32.34,3.01,1.03c.63.63.95,1.53.95,2.72v5.69h-1.33v-1.4c-.65.85-1.73,1.6-3.37,1.6-1.73,0-3.47-.99-3.47-2.9Zm6.86-.72v-.9c-.68-.2-1.6-.4-2.74-.4-1.75,0-2.72.76-2.72,1.93v.04c0,1.17,1.08,1.85,2.34,1.85,1.71,0,3.12-1.04,3.12-2.52Z"/>
        <path class="cls-17" d="m361.97,3.91h1.39v1.57c.61-.92,1.44-1.76,3.01-1.76s2.48.81,2.99,1.85c.67-1.03,1.66-1.85,3.28-1.85,2.14,0,3.46,1.44,3.46,3.75v5.76h-1.39v-5.44c0-1.8-.9-2.81-2.41-2.81-1.41,0-2.58,1.04-2.58,2.88v5.37h-1.37v-5.47c0-1.75-.92-2.77-2.39-2.77s-2.59,1.22-2.59,2.93v5.31h-1.39V3.91Z"/>
        <path class="cls-17" d="m378.33,10.51v-.04c0-1.96,1.62-3.01,3.98-3.01,1.19,0,2.03.16,2.86.4v-.32c0-1.67-1.03-2.54-2.77-2.54-1.1,0-1.96.29-2.83.68l-.42-1.13c1.03-.47,2.03-.77,3.39-.77s2.32.34,3.01,1.03c.63.63.96,1.53.96,2.72v5.69h-1.33v-1.4c-.65.85-1.73,1.6-3.37,1.6-1.73,0-3.48-.99-3.48-2.9Zm6.86-.72v-.9c-.68-.2-1.6-.4-2.74-.4-1.75,0-2.72.76-2.72,1.93v.04c0,1.17,1.08,1.85,2.34,1.85,1.71,0,3.12-1.04,3.12-2.52Z"/>
        <path class="cls-17" d="m389.35,14.84l.63-1.08c1.06.77,2.25,1.19,3.58,1.19,2.05,0,3.38-1.13,3.38-3.31v-1.1c-.81,1.08-1.94,1.96-3.65,1.96-2.23,0-4.38-1.67-4.38-4.36v-.04c0-2.72,2.16-4.39,4.38-4.39,1.75,0,2.88.86,3.64,1.87v-1.67h1.39v7.69c0,1.44-.43,2.54-1.19,3.29-.83.83-2.07,1.24-3.55,1.24-1.55,0-2.99-.43-4.23-1.3Zm7.63-6.72v-.04c0-1.91-1.66-3.15-3.42-3.15s-3.22,1.22-3.22,3.13v.04c0,1.87,1.49,3.17,3.22,3.17s3.42-1.28,3.42-3.15Z"/>
        <path class="cls-17" d="m400.83,8.59v-.04c0-2.68,1.89-4.84,4.47-4.84,2.75,0,4.34,2.2,4.34,4.92,0,.18,0,.29-.02.45h-7.38c.2,2.02,1.62,3.15,3.28,3.15,1.28,0,2.18-.52,2.94-1.31l.86.77c-.94,1.04-2.07,1.75-3.83,1.75-2.56,0-4.65-1.96-4.65-4.84Zm7.4-.54c-.14-1.69-1.12-3.17-2.97-3.17-1.62,0-2.84,1.35-3.03,3.17h6Z"/>
        <path class="cls-17" d="m416.76,10.51v-.04c0-1.96,1.62-3.01,3.98-3.01,1.19,0,2.03.16,2.86.4v-.32c0-1.67-1.03-2.54-2.77-2.54-1.1,0-1.96.29-2.83.68l-.41-1.13c1.03-.47,2.04-.77,3.39-.77s2.32.34,3.01,1.03c.63.63.95,1.53.95,2.72v5.69h-1.33v-1.4c-.65.85-1.73,1.6-3.37,1.6-1.73,0-3.48-.99-3.48-2.9Zm6.86-.72v-.9c-.69-.2-1.6-.4-2.74-.4-1.75,0-2.72.76-2.72,1.93v.04c0,1.17,1.08,1.85,2.34,1.85,1.71,0,3.12-1.04,3.12-2.52Z"/>
        <path class="cls-17" d="m427.89,3.91h1.39v1.62c.61-1.01,1.58-1.82,3.19-1.82,2.25,0,3.57,1.51,3.57,3.73v5.78h-1.39v-5.44c0-1.73-.94-2.81-2.58-2.81s-2.79,1.17-2.79,2.92v5.33h-1.39V3.91Z"/>
        <path class="cls-17" d="m438.43,8.59v-.04c0-3.04,2.21-4.84,4.45-4.84,1.73,0,2.85.94,3.57,1.98V.07h1.39v13.14h-1.39v-1.87c-.76,1.12-1.85,2.07-3.57,2.07-2.23,0-4.45-1.76-4.45-4.83Zm8.07-.02v-.04c0-2.14-1.64-3.58-3.37-3.58s-3.28,1.33-3.28,3.58v.04c0,2.2,1.51,3.6,3.28,3.6s3.37-1.46,3.37-3.6Z"/>
        <path class="cls-17" d="m456.36.34h1.58v1.53h-1.58V.34Zm.09,3.57h1.39v9.31h-1.39V3.91Z"/>
        <path class="cls-17" d="m461.06,3.91h1.39v1.62c.61-1.01,1.58-1.82,3.19-1.82,2.25,0,3.57,1.51,3.57,3.73v5.78h-1.39v-5.44c0-1.73-.94-2.81-2.58-2.81s-2.79,1.17-2.79,2.92v5.33h-1.39V3.91Z"/>
        <path class="cls-17" d="m472.67,5.13h-1.28v-1.21h1.28v-.81c0-1.06.29-1.87.81-2.4.47-.47,1.15-.72,2-.72.65,0,1.08.07,1.53.23v1.21c-.5-.14-.88-.23-1.35-.23-1.08,0-1.62.65-1.62,1.98v.76h2.95v1.19h-2.93v8.08h-1.39V5.13Zm6.23-5.06h1.37v13.14h-1.37V.07Z"/>
        <path class="cls-17" d="m482.8,10.51v-.04c0-1.96,1.62-3.01,3.98-3.01,1.19,0,2.03.16,2.86.4v-.32c0-1.67-1.03-2.54-2.77-2.54-1.1,0-1.96.29-2.83.68l-.41-1.13c1.03-.47,2.04-.77,3.39-.77s2.32.34,3.01,1.03c.63.63.95,1.53.95,2.72v5.69h-1.33v-1.4c-.65.85-1.73,1.6-3.37,1.6-1.73,0-3.48-.99-3.48-2.9Zm6.86-.72v-.9c-.69-.2-1.6-.4-2.74-.4-1.75,0-2.72.76-2.72,1.93v.04c0,1.17,1.08,1.85,2.34,1.85,1.71,0,3.12-1.04,3.12-2.52Z"/>
        <path class="cls-17" d="m493.93,3.91h1.39v1.57c.61-.92,1.44-1.76,3.01-1.76s2.48.81,2.99,1.85c.67-1.03,1.66-1.85,3.28-1.85,2.14,0,3.46,1.44,3.46,3.75v5.76h-1.39v-5.44c0-1.8-.9-2.81-2.41-2.81-1.4,0-2.57,1.04-2.57,2.88v5.37h-1.37v-5.47c0-1.75-.92-2.77-2.39-2.77s-2.59,1.22-2.59,2.93v5.31h-1.39V3.91Z"/>
        <path class="cls-17" d="m510.99,3.91h1.39v1.57c.61-.92,1.44-1.76,3.01-1.76s2.48.81,2.99,1.85c.67-1.03,1.66-1.85,3.28-1.85,2.14,0,3.46,1.44,3.46,3.75v5.76h-1.39v-5.44c0-1.8-.9-2.81-2.41-2.81-1.4,0-2.57,1.04-2.57,2.88v5.37h-1.37v-5.47c0-1.75-.92-2.77-2.39-2.77s-2.59,1.22-2.59,2.93v5.31h-1.39V3.91Z"/>
        <path class="cls-17" d="m527.35,10.51v-.04c0-1.96,1.62-3.01,3.98-3.01,1.19,0,2.04.16,2.86.4v-.32c0-1.67-1.03-2.54-2.77-2.54-1.1,0-1.96.29-2.83.68l-.41-1.13c1.03-.47,2.03-.77,3.38-.77s2.32.34,3.01,1.03c.63.63.95,1.53.95,2.72v5.69h-1.33v-1.4c-.65.85-1.73,1.6-3.37,1.6-1.73,0-3.47-.99-3.47-2.9Zm6.86-.72v-.9c-.68-.2-1.6-.4-2.74-.4-1.75,0-2.72.76-2.72,1.93v.04c0,1.17,1.08,1.85,2.34,1.85,1.71,0,3.12-1.04,3.12-2.52Z"/>
        <path class="cls-17" d="m538.87,10.75v-5.62h-1.3v-1.22h1.3V1.1h1.39v2.81h2.95v1.22h-2.95v5.44c0,1.13.63,1.55,1.57,1.55.47,0,.86-.09,1.35-.32v1.19c-.49.25-1.01.4-1.67.4-1.49,0-2.63-.74-2.63-2.63Z"/>
        <path class="cls-17" d="m544.81,8.61v-.04c0-2.63,2.05-4.86,4.86-4.86s4.84,2.2,4.84,4.83v.04c0,2.63-2.07,4.86-4.88,4.86s-4.83-2.2-4.83-4.83Zm8.28,0v-.04c0-2-1.49-3.64-3.46-3.64s-3.4,1.64-3.4,3.6v.04c0,2,1.48,3.62,3.44,3.62s3.42-1.62,3.42-3.58Z"/>
        <path class="cls-17" d="m557.02,3.91h1.39v2.43c.68-1.55,2.03-2.67,3.8-2.59v1.49h-.11c-2.03,0-3.69,1.46-3.69,4.27v3.71h-1.39V3.91Z"/>
        <path class="cls-17" d="m571.28,3.91h1.48l-3.91,9.61c-.79,1.93-1.69,2.63-3.1,2.63-.77,0-1.35-.16-1.98-.47l.47-1.1c.45.23.86.34,1.46.34.83,0,1.35-.43,1.91-1.75l-4.23-9.27h1.53l3.39,7.76,2.99-7.76Z"/>
        <path class="cls-17" d="m579.64,10.51v-.04c0-1.96,1.62-3.01,3.98-3.01,1.19,0,2.04.16,2.86.4v-.32c0-1.67-1.03-2.54-2.77-2.54-1.1,0-1.96.29-2.83.68l-.41-1.13c1.03-.47,2.04-.77,3.38-.77s2.32.34,3.01,1.03c.63.63.95,1.53.95,2.72v5.69h-1.33v-1.4c-.65.85-1.73,1.6-3.37,1.6-1.73,0-3.47-.99-3.47-2.9Zm6.86-.72v-.9c-.68-.2-1.6-.4-2.74-.4-1.75,0-2.72.76-2.72,1.93v.04c0,1.17,1.08,1.85,2.34,1.85,1.71,0,3.11-1.04,3.11-2.52Z"/>
        <path class="cls-17" d="m590.19,8.61v-.04c0-2.63,2.05-4.86,4.77-4.86,1.76,0,2.86.74,3.73,1.66l-.92.97c-.74-.77-1.57-1.4-2.83-1.4-1.89,0-3.33,1.6-3.33,3.6v.04c0,2.02,1.48,3.62,3.42,3.62,1.19,0,2.11-.59,2.84-1.39l.88.83c-.94,1.04-2.05,1.8-3.8,1.8-2.72,0-4.77-2.21-4.77-4.83Z"/>
        <path class="cls-17" d="m601.53,10.75v-5.62h-1.3v-1.22h1.3V1.1h1.39v2.81h2.95v1.22h-2.95v5.44c0,1.13.63,1.55,1.57,1.55.47,0,.86-.09,1.35-.32v1.19c-.49.25-1.01.4-1.67.4-1.5,0-2.63-.74-2.63-2.63Z"/>
        <path class="cls-17" d="m608.35.34h1.58v1.53h-1.58V.34Zm.09,3.57h1.39v9.31h-1.39V3.91Z"/>
        <path class="cls-17" d="m612.13,3.91h1.53l3.13,7.72,3.15-7.72h1.5l-4.05,9.38h-1.22l-4.03-9.38Z"/>
        <path class="cls-17" d="m623.65.34h1.58v1.53h-1.58V.34Zm.09,3.57h1.39v9.31h-1.39V3.91Z"/>
        <path class="cls-17" d="m628.84,10.75v-5.62h-1.3v-1.22h1.3V1.1h1.39v2.81h2.95v1.22h-2.95v5.44c0,1.13.63,1.55,1.57,1.55.47,0,.86-.09,1.35-.32v1.19c-.49.25-1.01.4-1.67.4-1.49,0-2.63-.74-2.63-2.63Z"/>
        <path class="cls-17" d="m642.59,3.91h1.48l-3.91,9.61c-.79,1.93-1.69,2.63-3.1,2.63-.77,0-1.35-.16-1.98-.47l.47-1.1c.45.23.86.34,1.46.34.83,0,1.35-.43,1.91-1.75l-4.23-9.27h1.53l3.38,7.76,2.99-7.76Z"/>
        <path class="cls-17" d="m243.64,21.94h1.58v1.53h-1.58v-1.53Zm.09,3.57h1.39v9.31h-1.39v-9.31Z"/>
        <path class="cls-17" d="m248.34,25.51h1.39v1.62c.61-1.01,1.58-1.82,3.19-1.82,2.25,0,3.56,1.51,3.56,3.73v5.78h-1.39v-5.44c0-1.73-.94-2.81-2.57-2.81s-2.79,1.17-2.79,2.92v5.33h-1.39v-9.31Z"/>
        <path class="cls-17" d="m264.12,32.12v-.04c0-1.96,1.62-3.01,3.98-3.01,1.19,0,2.03.16,2.86.4v-.32c0-1.67-1.03-2.54-2.77-2.54-1.1,0-1.96.29-2.83.68l-.42-1.13c1.03-.47,2.03-.77,3.39-.77s2.32.34,3.01,1.03c.63.63.96,1.53.96,2.72v5.69h-1.33v-1.4c-.65.85-1.73,1.6-3.37,1.6-1.73,0-3.48-.99-3.48-2.9Zm6.86-.72v-.9c-.68-.2-1.6-.4-2.74-.4-1.75,0-2.72.76-2.72,1.93v.04c0,1.17,1.08,1.85,2.34,1.85,1.71,0,3.12-1.04,3.12-2.52Z"/>
        <path class="cls-17" d="m281.13,32.35v-5.62h-1.3v-1.22h1.3v-2.81h1.39v2.81h2.95v1.22h-2.95v5.44c0,1.13.63,1.55,1.57,1.55.47,0,.86-.09,1.35-.32v1.19c-.49.25-1.01.4-1.67.4-1.5,0-2.63-.74-2.63-2.63Z"/>
        <path class="cls-17" d="m287.92,21.67h1.39v5.46c.61-1.01,1.58-1.82,3.19-1.82,2.25,0,3.56,1.51,3.56,3.73v5.78h-1.39v-5.44c0-1.73-.94-2.81-2.57-2.81s-2.79,1.17-2.79,2.92v5.33h-1.39v-13.14Z"/>
        <path class="cls-17" d="m298.43,30.19v-.04c0-2.68,1.89-4.84,4.46-4.84,2.76,0,4.34,2.2,4.34,4.92,0,.18,0,.29-.02.45h-7.38c.2,2.02,1.62,3.15,3.28,3.15,1.28,0,2.18-.52,2.93-1.31l.86.77c-.94,1.04-2.07,1.75-3.83,1.75-2.56,0-4.65-1.96-4.65-4.84Zm7.4-.54c-.14-1.69-1.12-3.17-2.97-3.17-1.62,0-2.85,1.35-3.03,3.17h6Z"/>
        <path class="cls-17" d="m309.09,30.21v-.04c0-2.63,2.05-4.86,4.86-4.86s4.84,2.2,4.84,4.83v.04c0,2.63-2.07,4.86-4.88,4.86s-4.83-2.2-4.83-4.83Zm8.28,0v-.04c0-2-1.5-3.64-3.46-3.64s-3.4,1.64-3.4,3.6v.04c0,2,1.48,3.62,3.44,3.62s3.42-1.62,3.42-3.58Z"/>
        <path class="cls-17" d="m321.29,25.51h1.39v2.43c.68-1.55,2.04-2.67,3.8-2.59v1.49h-.11c-2.04,0-3.69,1.46-3.69,4.27v3.71h-1.39v-9.31Z"/>
        <path class="cls-17" d="m327.61,30.19v-.04c0-2.68,1.89-4.84,4.46-4.84,2.76,0,4.34,2.2,4.34,4.92,0,.18,0,.29-.02.45h-7.38c.2,2.02,1.62,3.15,3.28,3.15,1.28,0,2.18-.52,2.93-1.31l.86.77c-.94,1.04-2.07,1.75-3.83,1.75-2.56,0-4.65-1.96-4.65-4.84Zm7.4-.54c-.14-1.69-1.12-3.17-2.97-3.17-1.62,0-2.85,1.35-3.03,3.17h6Z"/>
        <path class="cls-17" d="m339.33,32.35v-5.62h-1.3v-1.22h1.3v-2.81h1.39v2.81h2.95v1.22h-2.95v5.44c0,1.13.63,1.55,1.57,1.55.47,0,.86-.09,1.35-.32v1.19c-.49.25-1.01.4-1.67.4-1.5,0-2.63-.74-2.63-2.63Z"/>
        <path class="cls-17" d="m346.15,21.94h1.58v1.53h-1.58v-1.53Zm.09,3.57h1.39v9.31h-1.39v-9.31Z"/>
        <path class="cls-17" d="m350.27,30.21v-.04c0-2.63,2.05-4.86,4.77-4.86,1.76,0,2.86.74,3.73,1.66l-.92.97c-.74-.77-1.57-1.4-2.83-1.4-1.89,0-3.33,1.6-3.33,3.6v.04c0,2.02,1.48,3.62,3.42,3.62,1.19,0,2.11-.59,2.84-1.39l.88.83c-.94,1.04-2.05,1.8-3.8,1.8-2.72,0-4.77-2.21-4.77-4.83Z"/>
        <path class="cls-17" d="m360.42,32.12v-.04c0-1.96,1.62-3.01,3.98-3.01,1.19,0,2.03.16,2.86.4v-.32c0-1.67-1.03-2.54-2.77-2.54-1.1,0-1.96.29-2.83.68l-.42-1.13c1.03-.47,2.03-.77,3.39-.77s2.32.34,3.01,1.03c.63.63.96,1.53.96,2.72v5.69h-1.33v-1.4c-.65.85-1.73,1.6-3.37,1.6-1.73,0-3.48-.99-3.48-2.9Zm6.86-.72v-.9c-.68-.2-1.6-.4-2.74-.4-1.75,0-2.72.76-2.72,1.93v.04c0,1.17,1.08,1.85,2.34,1.85,1.71,0,3.12-1.04,3.12-2.52Z"/>
        <path class="cls-17" d="m371.67,21.67h1.39v13.14h-1.39v-13.14Z"/>
        <path class="cls-17" d="m381.68,25.51h1.39v1.87c.76-1.12,1.85-2.07,3.57-2.07,2.23,0,4.45,1.76,4.45,4.83v.04c0,3.04-2.2,4.84-4.45,4.84-1.73,0-2.85-.94-3.57-1.98v4.66h-1.39v-12.19Zm7.98,4.68v-.04c0-2.2-1.51-3.6-3.28-3.6s-3.37,1.46-3.37,3.58v.04c0,2.16,1.64,3.6,3.37,3.6s3.28-1.33,3.28-3.58Z"/>
        <path class="cls-17" d="m392.93,32.12v-.04c0-1.96,1.62-3.01,3.98-3.01,1.19,0,2.03.16,2.86.4v-.32c0-1.67-1.03-2.54-2.77-2.54-1.1,0-1.96.29-2.83.68l-.41-1.13c1.03-.47,2.04-.77,3.39-.77s2.32.34,3.01,1.03c.63.63.95,1.53.95,2.72v5.69h-1.33v-1.4c-.65.85-1.73,1.6-3.37,1.6-1.73,0-3.48-.99-3.48-2.9Zm6.86-.72v-.9c-.69-.2-1.6-.4-2.74-.4-1.75,0-2.72.76-2.72,1.93v.04c0,1.17,1.08,1.85,2.34,1.85,1.71,0,3.12-1.04,3.12-2.52Z"/>
        <path class="cls-17" d="m404.45,32.35v-5.62h-1.3v-1.22h1.3v-2.81h1.39v2.81h2.95v1.22h-2.95v5.44c0,1.13.63,1.55,1.57,1.55.47,0,.86-.09,1.35-.32v1.19c-.49.25-1.01.4-1.67.4-1.49,0-2.63-.74-2.63-2.63Z"/>
        <path class="cls-17" d="m411.27,21.94h1.58v1.53h-1.58v-1.53Zm.09,3.57h1.39v9.31h-1.39v-9.31Z"/>
        <path class="cls-17" d="m415.39,30.19v-.04c0-2.68,1.89-4.84,4.46-4.84,2.76,0,4.34,2.2,4.34,4.92,0,.18,0,.29-.02.45h-7.38c.2,2.02,1.62,3.15,3.28,3.15,1.28,0,2.18-.52,2.93-1.31l.86.77c-.94,1.04-2.07,1.75-3.83,1.75-2.56,0-4.65-1.96-4.65-4.84Zm7.4-.54c-.14-1.69-1.12-3.17-2.97-3.17-1.62,0-2.85,1.35-3.03,3.17h6Z"/>
        <path class="cls-17" d="m426.63,25.51h1.39v1.62c.61-1.01,1.58-1.82,3.19-1.82,2.25,0,3.57,1.51,3.57,3.73v5.78h-1.39v-5.44c0-1.73-.94-2.81-2.58-2.81s-2.79,1.17-2.79,2.92v5.33h-1.39v-9.31Z"/>
        <path class="cls-17" d="m438.2,32.35v-5.62h-1.3v-1.22h1.3v-2.81h1.39v2.81h2.95v1.22h-2.95v5.44c0,1.13.63,1.55,1.57,1.55.47,0,.87-.09,1.35-.32v1.19c-.49.25-1.01.4-1.67.4-1.5,0-2.63-.74-2.63-2.63Z"/>
        <path class="cls-17" d="m449.59,25.51h1.48l2.45,7.47,2.5-7.51h1.15l2.52,7.51,2.45-7.47h1.44l-3.28,9.38h-1.21l-2.5-7.35-2.52,7.35h-1.22l-3.26-9.38Z"/>
        <path class="cls-17" d="m465.92,21.94h1.58v1.53h-1.58v-1.53Zm.09,3.57h1.39v9.31h-1.39v-9.31Z"/>
        <path class="cls-17" d="m471.1,32.35v-5.62h-1.3v-1.22h1.3v-2.81h1.39v2.81h2.95v1.22h-2.95v5.44c0,1.13.63,1.55,1.57,1.55.47,0,.87-.09,1.35-.32v1.19c-.49.25-1.01.4-1.67.4-1.5,0-2.63-.74-2.63-2.63Z"/>
        <path class="cls-17" d="m477.89,21.67h1.39v5.46c.61-1.01,1.58-1.82,3.19-1.82,2.25,0,3.57,1.51,3.57,3.73v5.78h-1.39v-5.44c0-1.73-.94-2.81-2.58-2.81s-2.79,1.17-2.79,2.92v5.33h-1.39v-13.14Z"/>
        <path class="cls-17" d="m494.05,28.55v-.04c0-3.57,2.66-6.52,6.37-6.52,2.29,0,3.66.81,4.92,2l-.97,1.04c-1.06-1.01-2.25-1.73-3.96-1.73-2.79,0-4.88,2.27-4.88,5.17v.04c0,2.92,2.11,5.2,4.88,5.2,1.73,0,2.86-.67,4.07-1.82l.94.92c-1.31,1.33-2.76,2.21-5.04,2.21-3.64,0-6.32-2.86-6.32-6.48Z"/>
        <path class="cls-17" d="m507.97,22.21h4.38c3.96,0,6.7,2.72,6.7,6.27v.04c0,3.55-2.74,6.3-6.7,6.3h-4.38v-12.6Zm1.42,1.31v9.97h2.95c3.19,0,5.22-2.16,5.22-4.95v-.04c0-2.79-2.04-4.99-5.22-4.99h-2.95Z"/>
      </g>
    </g>
  </g>
</svg>