<?xml version="1.0" encoding="UTF-8"?>
<svg id="ammar_progress_chart_svg_mobile" data-name="ammar_progress_chart_svg_mobile" xmlns="http://www.w3.org/2000/svg" xmlns:xlink="http://www.w3.org/1999/xlink" viewBox="0 0 359.97 526">
  <defs>
    <style>
      .mobile-cls-1 {
        fill: url(#mobile-linear-gradient);
      }

      .mobile-cls-1, .mobile-cls-2, .mobile-cls-3, .mobile-cls-4, .mobile-cls-5, .mobile-cls-6, .mobile-cls-7, .mobile-cls-8, .mobile-cls-9, .mobile-cls-10, .mobile-cls-11, .mobile-cls-12, .mobile-cls-13, .mobile-cls-14, .mobile-cls-15, .mobile-cls-16, .mobile-cls-17, .mobile-cls-18, .mobile-cls-19, .mobile-cls-20 {
        stroke-width: 0px;
      }

      .mobile-cls-2 {
        fill: url(#mobile-linear-gradient-6);
      }

      .mobile-cls-3 {
        fill: url(#mobile-linear-gradient-5);
      }

      .mobile-cls-21, .mobile-cls-22, .mobile-cls-12, .mobile-cls-23, .mobile-cls-24, .mobile-cls-25 {
        fill: none;
      }

      .mobile-cls-21, .mobile-cls-22, .mobile-cls-23, .mobile-cls-24, .mobile-cls-25 {
        stroke-miterlimit: 10;
      }

      .mobile-cls-21, .mobile-cls-22, .mobile-cls-25 {
        stroke-width: 1.3px;
      }

      .mobile-cls-21, .mobile-cls-23 {
        stroke: #d24230;
      }

      .mobile-cls-4 {
        fill: #d24230;
      }

      .mobile-cls-5 {
        fill: #fff;
      }

      .mobile-cls-22, .mobile-cls-24 {
        stroke: #872780;
      }

      .mobile-cls-6 {
        fill: url(#mobile-linear-gradient-2);
      }

      .mobile-cls-7 {
        fill: #9d5b8f;
      }

      .mobile-cls-8 {
        fill: url(#mobile-linear-gradient-7);
      }

      .mobile-cls-9 {
        fill: url(#mobile-linear-gradient-3);
      }

      .mobile-cls-10 {
        fill: #231f20;
      }

      .mobile-cls-11 {
        fill: url(#mobile-linear-gradient-9);
      }

      .mobile-cls-12 {
        fill-rule: evenodd;
        opacity: .6;
      }

      .mobile-cls-23, .mobile-cls-24 {
        stroke-width: 2.59px;
      }

      .mobile-cls-13 {
        fill: #808083;
      }

      .mobile-cls-14 {
        fill: url(#mobile-linear-gradient-8);
      }

      .mobile-cls-15 {
        fill: #6a2062;
      }

      .mobile-cls-16 {
        fill: #cf4230;
      }

      .mobile-cls-17 {
        fill: #872780;
      }

      .mobile-cls-18 {
        fill: url(#mobile-linear-gradient-10);
      }

      .mobile-cls-25 {
        stroke: #231f20;
      }

      .mobile-cls-19 {
        fill: #d2c4cf;
      }

      .mobile-cls-20 {
        fill: url(#mobile-linear-gradient-4);
      }
    </style>
    <linearGradient id="mobile-linear-gradient" x1="343.47" y1="386.21" x2="343.47" y2="418.38" gradientUnits="userSpaceOnUse">
      <stop offset="0" stop-color="#bebdbd"/>
      <stop offset="1" stop-color="#fff"/>
    </linearGradient>
    <linearGradient id="mobile-linear-gradient-2" x1="343.47" y1="387.64" x2="343.47" y2="417" gradientUnits="userSpaceOnUse">
      <stop offset="0" stop-color="#bebdbd"/>
      <stop offset=".2" stop-color="#c6c6c7"/>
      <stop offset=".68" stop-color="#d8d9dc"/>
      <stop offset="1" stop-color="#dfe0e4"/>
    </linearGradient>
    <linearGradient id="mobile-linear-gradient-3" y1="387.64" y2="417" xlink:href="#mobile-linear-gradient-2"/>
    <linearGradient id="mobile-linear-gradient-4" x1="343.47" y1="387.64" x2="343.47" y2="417" gradientUnits="userSpaceOnUse">
      <stop offset="0" stop-color="#8a2780"/>
      <stop offset=".01" stop-color="#8c2780"/>
      <stop offset=".22" stop-color="#a32c74"/>
      <stop offset=".42" stop-color="#b53560"/>
      <stop offset=".61" stop-color="#c33a4e"/>
      <stop offset=".77" stop-color="#cd3c3d"/>
      <stop offset=".91" stop-color="#d33e33"/>
      <stop offset="1" stop-color="#d43f2e"/>
    </linearGradient>
    <linearGradient id="mobile-linear-gradient-5" x1="16.5" x2="16.5" xlink:href="#mobile-linear-gradient"/>
    <linearGradient id="mobile-linear-gradient-6" x1="16.5" x2="16.5" xlink:href="#mobile-linear-gradient-2"/>
    <linearGradient id="mobile-linear-gradient-7" x1="16.5" x2="16.5" xlink:href="#mobile-linear-gradient"/>
    <linearGradient id="mobile-linear-gradient-8" x1="16.5" y1="387.64" x2="16.5" y2="417" xlink:href="#mobile-linear-gradient-2"/>
    <linearGradient id="mobile-linear-gradient-9" x1="16.5" x2="16.5" xlink:href="#mobile-linear-gradient"/>
    <linearGradient id="mobile-linear-gradient-10" x1="16.5" x2="16.5" xlink:href="#mobile-linear-gradient-4"/>
  </defs>
  <g id="rohan_progress_svg_mobile">
    <g>
      <g id="mobile_footnote">
        <path class="mobile-cls-10" d="m33.03,518.22h.67l2.87,6.35h-.76l-.74-1.67h-3.43l-.75,1.67h-.73l2.87-6.35Zm1.76,4.04l-1.43-3.21-1.44,3.21h2.87Z"/>
        <path class="mobile-cls-10" d="m37.19,522.25v-.02c0-1.52,1.11-2.42,2.22-2.42.86,0,1.42.47,1.78.99v-2.81h.69v6.57h-.69v-.94c-.38.56-.93,1.04-1.78,1.04-1.12,0-2.22-.88-2.22-2.41Zm4.03,0v-.02c0-1.07-.82-1.79-1.68-1.79s-1.64.67-1.64,1.79v.02c0,1.1.76,1.8,1.64,1.8s1.68-.73,1.68-1.8Z"/>
        <path class="mobile-cls-10" d="m43.09,523.21v-.02c0-.98.81-1.5,1.99-1.5.59,0,1.02.08,1.43.2v-.16c0-.84-.51-1.27-1.39-1.27-.55,0-.98.14-1.41.34l-.21-.57c.51-.23,1.02-.39,1.69-.39s1.16.17,1.5.51c.32.31.48.76.48,1.36v2.84h-.67v-.7c-.32.42-.86.8-1.68.8-.86,0-1.74-.5-1.74-1.45Zm3.43-.36v-.45c-.34-.1-.8-.2-1.37-.2-.87,0-1.36.38-1.36.96v.02c0,.58.54.93,1.17.93.86,0,1.56-.52,1.56-1.26Z"/>
        <path class="mobile-cls-10" d="m48.65,519.91h.69v.94c.38-.56.93-1.04,1.78-1.04,1.12,0,2.22.88,2.22,2.41v.02c0,1.52-1.1,2.42-2.22,2.42-.86,0-1.42-.47-1.78-.99v2.33h-.69v-6.09Zm3.99,2.34v-.02c0-1.1-.76-1.8-1.64-1.8s-1.68.73-1.68,1.79v.02c0,1.08.82,1.8,1.68,1.8s1.64-.67,1.64-1.79Z"/>
        <path class="mobile-cls-10" d="m54.87,523.33v-2.81h-.65v-.61h.65v-1.4h.69v1.4h1.48v.61h-1.48v2.72c0,.57.31.77.78.77.23,0,.43-.04.67-.16v.59c-.24.13-.5.2-.84.2-.75,0-1.31-.37-1.31-1.31Z"/>
        <path class="mobile-cls-10" d="m57.84,522.25v-.02c0-1.34.95-2.42,2.23-2.42,1.38,0,2.17,1.1,2.17,2.46,0,.09,0,.14,0,.23h-3.69c.1,1.01.81,1.58,1.64,1.58.64,0,1.09-.26,1.47-.66l.43.39c-.47.52-1.04.87-1.92.87-1.28,0-2.32-.98-2.32-2.42Zm3.7-.27c-.07-.85-.56-1.58-1.49-1.58-.81,0-1.42.67-1.51,1.58h3Z"/>
        <path class="mobile-cls-10" d="m63.19,522.25v-.02c0-1.52,1.11-2.42,2.22-2.42.86,0,1.42.47,1.78.99v-2.81h.69v6.57h-.69v-.94c-.38.56-.93,1.04-1.78,1.04-1.12,0-2.22-.88-2.22-2.41Zm4.03,0v-.02c0-1.07-.82-1.79-1.68-1.79s-1.64.67-1.64,1.79v.02c0,1.1.76,1.8,1.64,1.8s1.68-.73,1.68-1.8Z"/>
        <path class="mobile-cls-10" d="m72.39,520.52h-.64v-.6h.64v-.41c0-.53.14-.94.41-1.2.23-.23.58-.36,1-.36.32,0,.54.04.77.12v.6c-.25-.07-.44-.12-.68-.12-.54,0-.81.32-.81.99v.38h1.48v.59h-1.47v4.04h-.69v-4.04Z"/>
        <path class="mobile-cls-10" d="m75.43,519.91h.69v1.21c.34-.77,1.02-1.33,1.9-1.3v.75h-.05c-1.02,0-1.84.73-1.84,2.13v1.85h-.69v-4.65Z"/>
        <path class="mobile-cls-10" d="m78.59,522.26v-.02c0-1.31,1.03-2.43,2.43-2.43s2.42,1.1,2.42,2.41v.02c0,1.31-1.04,2.43-2.44,2.43s-2.41-1.1-2.41-2.41Zm4.14,0v-.02c0-1-.75-1.82-1.73-1.82s-1.7.82-1.7,1.8v.02c0,1,.74,1.81,1.72,1.81s1.71-.81,1.71-1.79Z"/>
        <path class="mobile-cls-10" d="m84.7,519.91h.69v.78c.31-.46.72-.88,1.5-.88s1.24.4,1.5.93c.33-.51.83-.93,1.64-.93,1.07,0,1.73.72,1.73,1.87v2.88h-.69v-2.72c0-.9-.45-1.4-1.21-1.4-.7,0-1.29.52-1.29,1.44v2.68h-.68v-2.74c0-.87-.46-1.39-1.2-1.39s-1.3.61-1.3,1.47v2.66h-.69v-4.65Z"/>
        <path class="mobile-cls-10" d="m96.05,518.26h2.36c1.42,0,2.36.76,2.36,2v.02c0,1.36-1.13,2.06-2.48,2.06h-1.53v2.22h-.71v-6.3Zm2.27,3.43c1.04,0,1.73-.56,1.73-1.39v-.02c0-.9-.68-1.37-1.69-1.37h-1.59v2.77h1.56Z"/>
        <path class="mobile-cls-10" d="m101.5,523.21v-.02c0-.98.81-1.5,1.99-1.5.59,0,1.02.08,1.43.2v-.16c0-.84-.51-1.27-1.39-1.27-.55,0-.98.14-1.41.34l-.21-.57c.51-.23,1.02-.39,1.69-.39s1.16.17,1.5.51c.32.31.48.76.48,1.36v2.84h-.67v-.7c-.32.42-.86.8-1.68.8-.87,0-1.74-.5-1.74-1.45Zm3.43-.36v-.45c-.34-.1-.8-.2-1.37-.2-.87,0-1.36.38-1.36.96v.02c0,.58.54.93,1.17.93.86,0,1.56-.52,1.56-1.26Z"/>
        <path class="mobile-cls-10" d="m107.06,519.91h.69v1.21c.34-.77,1.02-1.33,1.9-1.3v.75h-.05c-1.02,0-1.85.73-1.85,2.13v1.85h-.69v-4.65Z"/>
        <path class="mobile-cls-10" d="m110.72,518.13h.79v.76h-.79v-.76Zm.04,1.78h.69v4.65h-.69v-4.65Z"/>
        <path class="mobile-cls-10" d="m112.78,522.25v-.02c0-1.34.95-2.42,2.23-2.42,1.38,0,2.17,1.1,2.17,2.46,0,.09,0,.14,0,.23h-3.69c.1,1.01.81,1.58,1.64,1.58.64,0,1.09-.26,1.47-.66l.43.39c-.47.52-1.04.87-1.92.87-1.28,0-2.32-.98-2.32-2.42Zm3.7-.27c-.07-.85-.56-1.58-1.49-1.58-.81,0-1.42.67-1.51,1.58h3Z"/>
        <path class="mobile-cls-10" d="m118.4,519.91h.69v.81c.31-.5.79-.91,1.59-.91,1.13,0,1.78.76,1.78,1.86v2.89h-.69v-2.72c0-.86-.47-1.4-1.29-1.4s-1.4.58-1.4,1.46v2.67h-.69v-4.65Z"/>
        <path class="mobile-cls-10" d="m124.19,523.33v-2.81h-.65v-.61h.65v-1.4h.69v1.4h1.48v.61h-1.48v2.72c0,.57.31.77.78.77.23,0,.43-.04.67-.16v.59c-.24.13-.5.2-.84.2-.75,0-1.31-.37-1.31-1.31Z"/>
        <path class="mobile-cls-10" d="m127.16,522.25v-.02c0-1.34.95-2.42,2.23-2.42,1.38,0,2.17,1.1,2.17,2.46,0,.09,0,.14,0,.23h-3.69c.1,1.01.81,1.58,1.64,1.58.64,0,1.09-.26,1.47-.66l.43.39c-.47.52-1.04.87-1.92.87-1.28,0-2.32-.98-2.32-2.42Zm3.7-.27c-.07-.85-.56-1.58-1.49-1.58-.81,0-1.42.67-1.51,1.58h3Z"/>
        <path class="mobile-cls-10" d="m135.59,518.26h2.68c.72,0,1.29.21,1.65.56.26.27.41.6.41,1.01v.02c0,.82-.5,1.24-1,1.46.75.22,1.35.66,1.35,1.52v.02c0,1.08-.91,1.72-2.29,1.72h-2.8v-6.3Zm4.01,1.67c0-.62-.5-1.03-1.4-1.03h-1.92v2.17h1.86c.86,0,1.45-.39,1.45-1.12v-.02Zm-1.32,1.77h-1.99v2.22h2.12c.95,0,1.55-.42,1.55-1.12v-.02c0-.68-.58-1.08-1.67-1.08Z"/>
        <path class="mobile-cls-10" d="m141.61,525.35c.45-.16.64-.4.6-.78h-.32v-.95h.83v.81c0,.73-.32,1.08-1,1.23l-.11-.32Z"/>
        <path class="mobile-cls-10" d="m146.59,522.25v-.02c0-1.34.95-2.42,2.23-2.42,1.38,0,2.17,1.1,2.17,2.46,0,.09,0,.14,0,.23h-3.69c.1,1.01.81,1.58,1.64,1.58.64,0,1.09-.26,1.47-.66l.43.39c-.47.52-1.04.87-1.92.87-1.28,0-2.32-.98-2.32-2.42Zm3.7-.27c-.07-.85-.56-1.58-1.49-1.58-.81,0-1.42.67-1.51,1.58h3Z"/>
        <path class="mobile-cls-10" d="m152.45,523.33v-2.81h-.65v-.61h.65v-1.4h.69v1.4h1.48v.61h-1.48v2.72c0,.57.31.77.78.77.23,0,.43-.04.67-.16v.59c-.24.13-.5.2-.84.2-.75,0-1.31-.37-1.31-1.31Z"/>
        <path class="mobile-cls-10" d="m158.19,523.21v-.02c0-.98.81-1.5,1.99-1.5.59,0,1.02.08,1.43.2v-.16c0-.84-.51-1.27-1.39-1.27-.55,0-.98.14-1.41.34l-.21-.57c.51-.23,1.02-.39,1.69-.39s1.16.17,1.5.51c.32.31.48.76.48,1.36v2.84h-.67v-.7c-.32.42-.86.8-1.68.8-.87,0-1.74-.5-1.74-1.45Zm3.43-.36v-.45c-.34-.1-.8-.2-1.37-.2-.87,0-1.36.38-1.36.96v.02c0,.58.54.93,1.17.93.86,0,1.56-.52,1.56-1.26Z"/>
        <path class="mobile-cls-10" d="m163.81,517.99h.69v6.57h-.69v-6.57Z"/>
        <path class="mobile-cls-10" d="m166.03,523.62h.83v.95h-.83v-.95Z"/>
        <path class="mobile-cls-10" d="m172.26,518.26h.71l-1.69,6.3h-.71l1.69-6.3Z"/>
        <path class="mobile-cls-10" d="m174.25,519.91h.69l-.2.76c.41-.48.91-.85,1.62-.85.9,0,1.48.56,1.48,1.44,0,.22-.05.48-.11.72l-.69,2.59h-.69l.71-2.64c.04-.15.06-.37.06-.52,0-.61-.39-.97-1.04-.97-.72,0-1.44.62-1.68,1.5l-.7,2.63h-.69l1.24-4.65Z"/>
        <path class="mobile-cls-10" d="m179.89,520.52h-.64l.16-.61h.64l.14-.54c.12-.44.28-.75.51-.98.28-.28.65-.41,1.09-.41.36,0,.68.07.93.2l-.16.59c-.27-.13-.5-.19-.76-.19-.44,0-.77.27-.94.88l-.12.45h1.52l-.17.61h-1.51l-1.09,4.04h-.69l1.09-4.04Zm3.85-2.53h.69l-1.76,6.57h-.69l1.76-6.57Z"/>
        <path class="mobile-cls-10" d="m184.31,523.37c0-.45.16-.83.44-1.11.37-.37.95-.58,1.63-.58.62,0,1.21.13,1.66.25l.03-.11c.04-.14.06-.31.06-.43,0-.6-.41-.95-1.26-.95-.5,0-.9.1-1.31.24l-.12-.58c.46-.17.94-.28,1.54-.28,1.17,0,1.83.54,1.83,1.44,0,.2-.04.42-.1.64l-.7,2.64h-.68l.2-.73c-.43.5-1,.83-1.74.83-.78,0-1.48-.46-1.48-1.29Zm3.52-.64l.09-.32c-.41-.12-.94-.21-1.51-.21-.48,0-.86.14-1.1.39-.2.19-.3.43-.3.7,0,.5.39.83.99.83.78,0,1.6-.57,1.83-1.39Z"/>
        <path class="mobile-cls-10" d="m190.71,519.91h.69l-.2.76c.42-.48.86-.85,1.55-.85.77,0,1.2.5,1.32,1.05.41-.64,1.04-1.05,1.87-1.05s1.42.58,1.42,1.44c0,.22-.07.48-.14.72l-.68,2.59h-.69l.7-2.64c.04-.15.07-.37.07-.52,0-.6-.37-.97-.96-.97-.68,0-1.39.64-1.61,1.5l-.7,2.63h-.68l.7-2.64c.04-.15.07-.37.07-.52,0-.6-.37-.97-.97-.97-.68,0-1.38.64-1.61,1.5l-.7,2.63h-.69l1.24-4.65Z"/>
        <path class="mobile-cls-10" d="m199.28,519.91h.69l-.2.76c.42-.48.86-.85,1.55-.85.77,0,1.2.5,1.32,1.05.41-.64,1.04-1.05,1.87-1.05s1.42.58,1.42,1.44c0,.22-.07.48-.13.72l-.68,2.59h-.69l.7-2.64c.04-.15.07-.37.07-.52,0-.6-.37-.97-.96-.97-.68,0-1.39.64-1.61,1.5l-.7,2.63h-.68l.7-2.64c.04-.15.07-.37.07-.52,0-.6-.37-.97-.97-.97-.68,0-1.38.64-1.61,1.5l-.7,2.63h-.69l1.24-4.65Z"/>
        <path class="mobile-cls-10" d="m211.12,518.26h2.36c1.23,0,1.95.58,1.95,1.47s-.68,1.48-1.58,1.66c.62.19,1.12.59,1.12,1.31,0,1.09-.99,1.87-2.65,1.87h-2.9l1.69-6.3Zm1.29,5.66c1.13,0,1.85-.48,1.85-1.26,0-.64-.6-.96-1.45-.96h-1.91l-.59,2.22h2.11Zm.45-2.85c1.12,0,1.85-.5,1.85-1.25,0-.59-.47-.92-1.29-.92h-1.76l-.59,2.17h1.79Z"/>
        <path class="mobile-cls-10" d="m216.05,522.58c0-.74.31-1.44.84-1.95.5-.5,1.17-.82,1.9-.82,1.28,0,2.12.87,2.12,2.08,0,.74-.32,1.44-.84,1.96-.5.5-1.18.82-1.91.82-1.28,0-2.12-.88-2.12-2.09Zm3.48.89c.41-.42.67-.99.67-1.56,0-.95-.59-1.5-1.46-1.5-.5,0-.97.23-1.32.59-.41.4-.67.98-.67,1.56,0,.95.59,1.49,1.46,1.49.5,0,.97-.23,1.32-.58Z"/>
        <path class="mobile-cls-10" d="m221.99,519.91h.7l.24,3.71,2.25-3.73h.58l.26,3.73,2.24-3.71h.72l-2.9,4.69h-.61l-.27-3.67-2.24,3.67h-.6l-.37-4.69Z"/>
        <path class="mobile-cls-10" d="m229.76,522.47c0,.06,0,.13,0,.19,0,.83.52,1.41,1.38,1.41.59,0,1.04-.21,1.47-.55l.35.45c-.48.41-1.04.69-1.87.69-1.21,0-2.02-.82-2.02-1.98,0-.77.33-1.55.88-2.1.48-.48,1.11-.78,1.83-.78,1.18,0,1.8.81,1.8,1.78,0,.31-.06.61-.16.88h-3.65Zm.09-.52h3c.03-.08.04-.2.04-.36,0-.64-.36-1.2-1.16-1.2-.51,0-.95.22-1.3.56-.27.27-.47.62-.58,1Z"/>
        <path class="mobile-cls-10" d="m235.9,517.99h.69l-1.76,6.57h-.69l1.76-6.57Z"/>
        <path class="mobile-cls-10" d="m240.96,518.26h1.52c1.05,0,1.91.3,2.46.84.45.45.68,1.04.68,1.81,0,.96-.35,1.81-.99,2.46-.76.76-1.89,1.2-3.23,1.2h-2.13l1.69-6.3Zm1.48.66h-.94l-1.34,4.99h1.33c1.05,0,1.96-.35,2.6-.99.5-.5.79-1.19.79-1.96,0-.59-.19-1.06-.53-1.4-.41-.41-1.08-.64-1.92-.64Z"/>
        <path class="mobile-cls-10" d="m247.42,519.91h.69l-1.25,4.65h-.69l1.25-4.65Zm.43-1.78h.79l-.21.76h-.79l.21-.76Z"/>
        <path class="mobile-cls-10" d="m248.28,523.85l.45-.45c.5.49,1.06.68,1.62.68s1.03-.31,1.03-.77c0-.31-.21-.53-.88-.79-.84-.32-1.31-.63-1.31-1.28,0-.79.68-1.43,1.76-1.43.68,0,1.33.31,1.72.64l-.41.48c-.39-.32-.87-.54-1.38-.54-.66,0-1.01.35-1.01.74,0,.31.19.5.93.79.84.34,1.27.67,1.27,1.28,0,.86-.79,1.47-1.78,1.47-.72,0-1.47-.27-2.01-.81Z"/>
        <path class="mobile-cls-10" d="m253.48,523.62h.83v.95h-.83v-.95Z"/>
        <path class="mobile-cls-10" d="m258.12,524.01l2.29-2.02c.96-.86,1.31-1.35,1.31-1.98,0-.74-.58-1.21-1.27-1.21-.72,0-1.19.38-1.69,1.08l-.52-.38c.57-.85,1.16-1.34,2.27-1.34s1.95.76,1.95,1.78v.02c0,.92-.49,1.49-1.59,2.45l-1.68,1.49h3.34v.65h-4.4v-.55Z"/>
        <path class="mobile-cls-10" d="m263.64,521.43v-.02c0-1.76,1.05-3.26,2.67-3.26s2.65,1.48,2.65,3.24v.02c0,1.76-1.04,3.26-2.67,3.26s-2.66-1.48-2.66-3.24Zm4.58,0v-.02c0-1.38-.76-2.61-1.93-2.61s-1.92,1.21-1.92,2.59v.02c0,1.38.76,2.61,1.94,2.61s1.91-1.22,1.91-2.59Z"/>
        <path class="mobile-cls-10" d="m271.08,518.95l-1.19.37-.17-.58,1.54-.53h.52v6.35h-.7v-5.61Z"/>
        <path class="mobile-cls-10" d="m274.3,518.95l-1.19.37-.17-.58,1.54-.53h.52v6.35h-.7v-5.61Z"/>
        <path class="mobile-cls-10" d="m276.37,525.35c.45-.16.64-.4.6-.78h-.32v-.95h.83v.81c0,.73-.32,1.08-1,1.23l-.11-.32Zm.28-5.44h.83v.95h-.83v-.95Z"/>
        <path class="mobile-cls-10" d="m279.82,518.95l-1.19.37-.17-.58,1.54-.53h.52v6.35h-.7v-5.61Z"/>
        <path class="mobile-cls-10" d="m285.51,518.91h-3.47v-.65h4.28v.53l-2.86,5.77h-.79l2.84-5.65Z"/>
        <path class="mobile-cls-10" d="m287.53,519.91h.83v.95h-.83v-.95Zm0,3.71h.83v.95h-.83v-.95Z"/>
        <path class="mobile-cls-10" d="m290.69,518.95l-1.19.37-.17-.58,1.54-.53h.52v6.35h-.7v-5.61Z"/>
        <path class="mobile-cls-10" d="m296.19,523.07h-3.32l-.18-.51,3.57-4.34h.62v4.26h.98v.59h-.98v1.49h-.68v-1.49Zm0-.59v-3.25l-2.65,3.25h2.65Z"/>
        <path class="mobile-cls-10" d="m299.77,518.95l-1.19.37-.17-.58,1.54-.53h.52v6.35h-.7v-5.61Z"/>
        <path class="mobile-cls-10" d="m301.86,523.67l.47-.51c.55.53,1.15.86,1.79.86.9,0,1.52-.59,1.52-1.4v-.02c0-.78-.65-1.32-1.57-1.32-.53,0-.95.16-1.32.36l-.48-.32.18-3.07h3.63v.66h-3.01l-.13,2.02c.37-.16.72-.28,1.24-.28,1.22,0,2.18.73,2.18,1.93v.02c0,1.23-.94,2.07-2.25,2.07-.9,0-1.68-.43-2.25-1Z"/>
        <path class="mobile-cls-10" d="m307.48,521.51h3.58v.69h-3.58v-.69Z"/>
        <path class="mobile-cls-10" d="m312.08,524.01l2.29-2.02c.96-.86,1.31-1.35,1.31-1.98,0-.74-.58-1.21-1.27-1.21-.72,0-1.19.38-1.69,1.08l-.52-.38c.57-.85,1.16-1.34,2.27-1.34s1.95.76,1.95,1.78v.02c0,.92-.49,1.49-1.59,2.45l-1.68,1.49h3.34v.65h-4.4v-.55Z"/>
        <path class="mobile-cls-10" d="m317.47,524.01l2.29-2.02c.96-.86,1.31-1.35,1.31-1.98,0-.74-.58-1.21-1.27-1.21-.72,0-1.19.38-1.69,1.08l-.52-.38c.57-.85,1.16-1.34,2.27-1.34s1.95.76,1.95,1.78v.02c0,.92-.49,1.49-1.59,2.45l-1.68,1.49h3.34v.65h-4.4v-.55Z"/>
        <path class="mobile-cls-10" d="m323.11,523.62h.83v.95h-.83v-.95Z"/>
      </g>
      <g id="mobile_bar">
        <rect class="mobile-cls-19" x="115.86" y="465.38" width="83.71" height="34.67"/>
        <rect class="mobile-cls-15" x="199.57" y="465.38" width="117.94" height="34.67"/>
        <rect class="mobile-cls-7" x="39.77" y="465.38" width="76.08" height="34.67"/>
        <g>
          <path class="mobile-cls-5" d="m48.81,478.46h3.14c1.9,0,3.14,1.01,3.14,2.66v.02c0,1.81-1.51,2.75-3.3,2.75h-2.04v2.96h-.95v-8.4Zm3.02,4.57c1.39,0,2.3-.74,2.3-1.85v-.02c0-1.2-.9-1.82-2.25-1.82h-2.12v3.69h2.07Z"/>
          <path class="mobile-cls-5" d="m56.67,480.65h.92v1.62c.46-1.03,1.35-1.77,2.53-1.73v1h-.07c-1.36,0-2.46.97-2.46,2.84v2.47h-.92v-6.2Z"/>
          <path class="mobile-cls-5" d="m60.88,483.77v-.02c0-1.79,1.26-3.23,2.97-3.23,1.83,0,2.89,1.46,2.89,3.27,0,.12,0,.19-.01.3h-4.92c.13,1.34,1.08,2.1,2.18,2.1.85,0,1.45-.35,1.95-.88l.58.52c-.62.7-1.38,1.16-2.55,1.16-1.7,0-3.09-1.31-3.09-3.23Zm4.93-.36c-.1-1.13-.74-2.11-1.98-2.11-1.08,0-1.9.9-2.02,2.11h3.99Z"/>
          <path class="mobile-cls-5" d="m67.99,483.78v-.02c0-1.75,1.37-3.24,3.18-3.24,1.18,0,1.91.49,2.48,1.1l-.61.65c-.49-.52-1.04-.94-1.88-.94-1.26,0-2.22,1.07-2.22,2.4v.02c0,1.34.98,2.41,2.28,2.41.79,0,1.4-.4,1.9-.92l.59.55c-.62.7-1.37,1.2-2.53,1.2-1.81,0-3.18-1.48-3.18-3.21Z"/>
          <path class="mobile-cls-5" d="m75.31,478.1h.92v8.76h-.92v-8.76Z"/>
          <path class="mobile-cls-5" d="m78.4,478.28h1.06v1.02h-1.06v-1.02Zm.06,2.37h.92v6.2h-.92v-6.2Z"/>
          <path class="mobile-cls-5" d="m81.53,480.65h.92v1.08c.41-.67,1.06-1.21,2.12-1.21,1.5,0,2.38,1.01,2.38,2.48v3.85h-.92v-3.62c0-1.15-.62-1.87-1.71-1.87s-1.86.78-1.86,1.94v3.55h-.92v-6.2Z"/>
          <path class="mobile-cls-5" d="m88.95,478.28h1.06v1.02h-1.06v-1.02Zm.06,2.37h.92v6.2h-.92v-6.2Z"/>
          <path class="mobile-cls-5" d="m91.7,483.78v-.02c0-1.75,1.37-3.24,3.18-3.24,1.18,0,1.91.49,2.48,1.1l-.61.65c-.49-.52-1.04-.94-1.88-.94-1.26,0-2.22,1.07-2.22,2.4v.02c0,1.34.98,2.41,2.28,2.41.79,0,1.4-.4,1.9-.92l.59.55c-.62.7-1.37,1.2-2.53,1.2-1.81,0-3.18-1.48-3.18-3.21Z"/>
          <path class="mobile-cls-5" d="m98.47,485.05v-.02c0-1.31,1.08-2,2.65-2,.79,0,1.35.11,1.91.26v-.22c0-1.12-.68-1.69-1.85-1.69-.73,0-1.31.19-1.88.46l-.28-.76c.68-.31,1.36-.52,2.25-.52s1.55.23,2,.68c.42.42.64,1.02.64,1.81v3.79h-.89v-.94c-.43.56-1.15,1.07-2.24,1.07-1.15,0-2.31-.66-2.31-1.93Zm4.57-.48v-.6c-.46-.13-1.07-.26-1.82-.26-1.16,0-1.81.5-1.81,1.28v.02c0,.78.72,1.24,1.56,1.24,1.14,0,2.08-.7,2.08-1.68Z"/>
          <path class="mobile-cls-5" d="m105.97,478.1h.92v8.76h-.92v-8.76Z"/>
        </g>
        <g>
          <path class="mobile-cls-5" d="m228.71,478.32h.95v7.52h4.73v.88h-5.67v-8.4Z"/>
          <path class="mobile-cls-5" d="m235.48,483.65v-.02c0-1.75,1.37-3.24,3.24-3.24s3.23,1.46,3.23,3.21v.02c0,1.75-1.38,3.24-3.25,3.24s-3.21-1.46-3.21-3.21Zm5.52,0v-.02c0-1.33-1-2.42-2.3-2.42s-2.27,1.09-2.27,2.4v.02c0,1.33.98,2.41,2.29,2.41s2.28-1.08,2.28-2.39Z"/>
          <path class="mobile-cls-5" d="m243.62,480.51h.92v1.08c.41-.67,1.05-1.21,2.12-1.21,1.5,0,2.38,1.01,2.38,2.48v3.85h-.92v-3.62c0-1.15-.62-1.87-1.71-1.87s-1.86.78-1.86,1.94v3.55h-.92v-6.2Z"/>
          <path class="mobile-cls-5" d="m250.94,487.79l.42-.72c.71.52,1.5.79,2.39.79,1.37,0,2.25-.76,2.25-2.21v-.73c-.54.72-1.29,1.31-2.43,1.31-1.49,0-2.91-1.12-2.91-2.9v-.02c0-1.81,1.44-2.93,2.91-2.93,1.16,0,1.92.58,2.42,1.25v-1.12h.92v5.12c0,.96-.29,1.69-.79,2.19-.55.55-1.38.83-2.36.83-1.03,0-1.99-.29-2.82-.86Zm5.08-4.47v-.02c0-1.27-1.1-2.1-2.28-2.1s-2.15.82-2.15,2.09v.02c0,1.25,1,2.11,2.15,2.11s2.28-.85,2.28-2.1Z"/>
          <path class="mobile-cls-5" d="m262.9,485.07v-3.74h-.86v-.82h.86v-1.87h.92v1.87h1.97v.82h-1.97v3.62c0,.76.42,1.03,1.04,1.03.31,0,.58-.06.9-.22v.79c-.32.17-.67.26-1.12.26-1,0-1.75-.49-1.75-1.75Z"/>
          <path class="mobile-cls-5" d="m266.86,483.63v-.02c0-1.79,1.26-3.23,2.97-3.23,1.83,0,2.89,1.46,2.89,3.27,0,.12,0,.19-.01.3h-4.92c.13,1.34,1.08,2.1,2.18,2.1.85,0,1.45-.35,1.96-.88l.58.52c-.62.7-1.38,1.16-2.55,1.16-1.7,0-3.09-1.31-3.09-3.23Zm4.93-.36c-.1-1.13-.74-2.11-1.98-2.11-1.08,0-1.89.9-2.01,2.11h3.99Z"/>
          <path class="mobile-cls-5" d="m274.35,480.51h.92v1.62c.46-1.03,1.36-1.77,2.53-1.73v1h-.07c-1.36,0-2.46.97-2.46,2.84v2.47h-.92v-6.2Z"/>
          <path class="mobile-cls-5" d="m279.21,480.51h.92v1.04c.41-.61.96-1.18,2-1.18s1.65.54,1.99,1.24c.44-.68,1.1-1.24,2.18-1.24,1.43,0,2.3.96,2.3,2.49v3.84h-.92v-3.62c0-1.2-.6-1.87-1.61-1.87-.94,0-1.71.7-1.71,1.92v3.57h-.91v-3.65c0-1.16-.61-1.85-1.59-1.85s-1.73.82-1.73,1.96v3.54h-.92v-6.2Z"/>
        </g>
        <g>
          <path class="mobile-cls-10" d="m143.85,471.92h6.07v.86h-5.12v2.87h4.58v.86h-4.58v2.94h5.18v.86h-6.13v-8.4Z"/>
          <path class="mobile-cls-10" d="m151.27,478.52v-.02c0-1.31,1.08-2,2.65-2,.79,0,1.35.11,1.91.26v-.22c0-1.12-.68-1.69-1.85-1.69-.73,0-1.31.19-1.88.46l-.28-.76c.68-.31,1.36-.52,2.25-.52s1.55.23,2,.68c.42.42.64,1.02.64,1.81v3.79h-.89v-.94c-.43.56-1.15,1.07-2.24,1.07-1.15,0-2.31-.66-2.31-1.93Zm4.57-.48v-.6c-.46-.13-1.07-.26-1.82-.26-1.16,0-1.81.5-1.81,1.28v.02c0,.78.72,1.24,1.56,1.24,1.14,0,2.08-.7,2.08-1.68Z"/>
          <path class="mobile-cls-10" d="m158.68,474.12h.92v1.62c.46-1.03,1.35-1.77,2.53-1.73v1h-.07c-1.36,0-2.46.97-2.46,2.84v2.47h-.92v-6.2Z"/>
          <path class="mobile-cls-10" d="m163.63,471.56h.92v8.76h-.92v-8.76Z"/>
          <path class="mobile-cls-10" d="m171.34,474.12h.98l-2.6,6.4c-.53,1.28-1.13,1.75-2.06,1.75-.52,0-.9-.11-1.32-.31l.31-.73c.3.16.58.23.97.23.55,0,.9-.29,1.27-1.16l-2.82-6.18h1.02l2.25,5.17,1.99-5.17Z"/>
          <path class="mobile-cls-10" d="m136.27,491.64v-.02c0-2.03,1.48-3.23,2.96-3.23,1.15,0,1.9.62,2.38,1.32v-3.74h.92v8.76h-.92v-1.25c-.5.74-1.24,1.38-2.38,1.38-1.49,0-2.96-1.18-2.96-3.21Zm5.37-.01v-.02c0-1.43-1.09-2.39-2.24-2.39s-2.18.89-2.18,2.39v.02c0,1.46,1.01,2.4,2.18,2.4s2.24-.97,2.24-2.4Z"/>
          <path class="mobile-cls-10" d="m144.62,486.14h1.06v1.02h-1.06v-1.02Zm.06,2.37h.92v6.2h-.92v-6.2Z"/>
          <path class="mobile-cls-10" d="m147.24,493.93l.47-.66c.67.5,1.42.79,2.15.79s1.28-.38,1.28-.98v-.02c0-.62-.73-.86-1.55-1.09-.97-.28-2.05-.61-2.05-1.75v-.02c0-1.07.89-1.77,2.11-1.77.76,0,1.6.26,2.23.68l-.42.7c-.58-.37-1.24-.6-1.83-.6-.73,0-1.2.38-1.2.9v.02c0,.59.77.82,1.6,1.07.96.29,1.99.66,1.99,1.77v.02c0,1.18-.97,1.86-2.21,1.86-.89,0-1.87-.35-2.57-.91Z"/>
          <path class="mobile-cls-10" d="m153.34,491.64v-.02c0-1.79,1.26-3.23,2.97-3.23,1.83,0,2.89,1.46,2.89,3.27,0,.12,0,.19-.01.3h-4.92c.13,1.34,1.08,2.1,2.18,2.1.85,0,1.45-.35,1.95-.88l.58.52c-.62.7-1.38,1.16-2.55,1.16-1.7,0-3.09-1.31-3.09-3.23Zm4.93-.36c-.1-1.13-.74-2.11-1.98-2.11-1.08,0-1.9.9-2.02,2.11h3.99Z"/>
          <path class="mobile-cls-10" d="m160.36,492.92v-.02c0-1.31,1.08-2,2.65-2,.79,0,1.35.11,1.91.26v-.22c0-1.12-.68-1.69-1.85-1.69-.73,0-1.31.19-1.88.46l-.28-.76c.68-.31,1.36-.52,2.25-.52s1.55.23,2,.68c.42.42.64,1.02.64,1.81v3.79h-.89v-.94c-.43.56-1.15,1.07-2.24,1.07-1.15,0-2.31-.66-2.31-1.93Zm4.57-.48v-.6c-.46-.13-1.07-.26-1.82-.26-1.16,0-1.81.5-1.81,1.28v.02c0,.78.72,1.24,1.56,1.24,1.14,0,2.08-.7,2.08-1.68Z"/>
          <path class="mobile-cls-10" d="m167.26,493.93l.47-.66c.67.5,1.42.79,2.15.79s1.28-.38,1.28-.98v-.02c0-.62-.73-.86-1.55-1.09-.97-.28-2.05-.61-2.05-1.75v-.02c0-1.07.89-1.77,2.11-1.77.76,0,1.6.26,2.23.68l-.42.7c-.58-.37-1.24-.6-1.83-.6-.73,0-1.2.38-1.2.9v.02c0,.59.77.82,1.6,1.07.96.29,1.99.66,1.99,1.77v.02c0,1.18-.97,1.86-2.21,1.86-.89,0-1.87-.35-2.57-.91Z"/>
          <path class="mobile-cls-10" d="m173.37,491.64v-.02c0-1.79,1.26-3.23,2.97-3.23,1.83,0,2.89,1.46,2.89,3.27,0,.12,0,.19-.01.3h-4.92c.13,1.34,1.08,2.1,2.18,2.1.85,0,1.45-.35,1.95-.88l.58.52c-.62.7-1.38,1.16-2.55,1.16-1.7,0-3.09-1.31-3.09-3.23Zm4.93-.36c-.1-1.13-.74-2.11-1.98-2.11-1.08,0-1.9.9-2.02,2.11h3.99Z"/>
        </g>
      </g>
      <g id="mobile_inflammatory_activity_graph" class="graph_details" data-value="inflammatory_activity">
        <path class="mobile-cls-23" d="m40.04,433.91h2.94c23.65-1.34,22.22-1.74,29.4-5.4,7.55,2.36.33-6.36,24.17-5.51,4.65,13.68,3.43,0,5.88,0s4.17,13.68,8.82,0c12.03,1.27,10.23-77.93,16.91-81.75,5.94-1.27,3.85,82.65,12.48,81.75,3.58,13.81,4.41-4,9.8-4,3.72.79,7.02,8.79,10.78,9.45,3.07,1.94,3.92-4.54,5.88-5.45,1.96-.91,2.25,14.91,5.88,0,14.76.1,10.35-72.91,17.64-81.81,6.45,6.48,5.11,76.17,20.58,76.35,4.67,12.85.49,5.45,5.88,5.45,3.4,1.45,10.29-10,14.7-10.91,4.41-.91,8.3,21.45,11.76,5.45,6.63.35,3.83-82.91,8.82-87.26,5.48,7.31,5.85,93.91,11.76,92.71,2.94,16.6,3.92,0,5.88,0s3,7.63,5.88,0c7.87.95,5.41-37.79,11.37-38.87,3.53-1.03,5.58,38.68,12.15,38.87,3.33,6.54,5.29,1.82,8.23,1.82s7.77-1.76,9.41-1.82"/>
        <g>
          <path class="mobile-cls-10" d="m27.67,441.23h2.19c1.98,0,3.35,1.36,3.35,3.13v.02c0,1.77-1.37,3.15-3.35,3.15h-2.19v-6.3Zm.71.66v4.99h1.48c1.59,0,2.61-1.08,2.61-2.48v-.02c0-1.4-1.02-2.49-2.61-2.49h-1.48Z"/>
          <path class="mobile-cls-10" d="m34.61,441.1h.79v.77h-.79v-.77Zm.05,1.78h.69v4.65h-.69v-4.65Z"/>
          <path class="mobile-cls-10" d="m36.57,446.94l.35-.5c.5.38,1.06.59,1.61.59s.96-.29.96-.74v-.02c0-.47-.55-.65-1.16-.82-.73-.21-1.54-.46-1.54-1.31v-.02c0-.8.67-1.33,1.58-1.33.57,0,1.2.2,1.67.51l-.31.52c-.43-.28-.93-.45-1.38-.45-.55,0-.9.29-.9.68v.02c0,.44.58.61,1.2.8.72.22,1.49.5,1.49,1.33v.02c0,.88-.73,1.4-1.66,1.4-.67,0-1.4-.26-1.93-.68Z"/>
          <path class="mobile-cls-10" d="m41.16,445.22v-.02c0-1.34.95-2.42,2.23-2.42,1.38,0,2.17,1.1,2.17,2.46,0,.09,0,.14,0,.23h-3.69c.1,1.01.81,1.58,1.64,1.58.64,0,1.09-.26,1.47-.66l.43.39c-.47.52-1.04.87-1.92.87-1.28,0-2.32-.98-2.32-2.42Zm3.7-.27c-.07-.85-.56-1.58-1.49-1.58-.81,0-1.42.68-1.51,1.58h3Z"/>
          <path class="mobile-cls-10" d="m46.42,446.18v-.02c0-.98.81-1.5,1.99-1.5.59,0,1.02.08,1.43.2v-.16c0-.84-.51-1.27-1.39-1.27-.55,0-.98.14-1.41.34l-.21-.57c.51-.23,1.02-.39,1.69-.39s1.16.17,1.5.51c.32.31.48.77.48,1.36v2.84h-.67v-.7c-.32.42-.86.8-1.68.8-.86,0-1.74-.5-1.74-1.45Zm3.43-.36v-.45c-.34-.1-.8-.2-1.37-.2-.87,0-1.36.38-1.36.96v.02c0,.59.54.93,1.17.93.86,0,1.56-.52,1.56-1.26Z"/>
          <path class="mobile-cls-10" d="m51.6,446.94l.35-.5c.5.38,1.06.59,1.61.59s.96-.29.96-.74v-.02c0-.47-.55-.65-1.16-.82-.73-.21-1.54-.46-1.54-1.31v-.02c0-.8.67-1.33,1.58-1.33.57,0,1.2.2,1.67.51l-.32.52c-.43-.28-.93-.45-1.38-.45-.55,0-.9.29-.9.68v.02c0,.44.58.61,1.2.8.72.22,1.49.5,1.49,1.33v.02c0,.88-.73,1.4-1.66,1.4-.67,0-1.4-.26-1.93-.68Z"/>
          <path class="mobile-cls-10" d="m56.18,445.22v-.02c0-1.34.95-2.42,2.23-2.42,1.38,0,2.17,1.1,2.17,2.46,0,.09,0,.14,0,.23h-3.69c.1,1.01.81,1.58,1.64,1.58.64,0,1.09-.26,1.47-.66l.43.39c-.47.52-1.04.87-1.92.87-1.28,0-2.32-.98-2.32-2.42Zm3.7-.27c-.07-.85-.56-1.58-1.49-1.58-.81,0-1.42.68-1.51,1.58h3Z"/>
          <path class="mobile-cls-10" d="m31.99,456.03v-.02c0-1.31,1.03-2.43,2.43-2.43s2.42,1.1,2.42,2.41v.02c0,1.31-1.04,2.43-2.44,2.43s-2.41-1.1-2.41-2.41Zm4.14,0v-.02c0-1-.75-1.82-1.73-1.82s-1.7.82-1.7,1.8v.02c0,1,.74,1.81,1.72,1.81s1.71-.81,1.71-1.79Z"/>
          <path class="mobile-cls-10" d="m38.09,453.68h.69v.81c.31-.5.79-.91,1.59-.91,1.12,0,1.78.76,1.78,1.86v2.89h-.69v-2.72c0-.86-.47-1.4-1.29-1.4s-1.4.58-1.4,1.46v2.67h-.69v-4.65Z"/>
          <path class="mobile-cls-10" d="m43.24,457.74l.35-.5c.5.38,1.06.59,1.61.59s.96-.29.96-.74v-.02c0-.47-.55-.65-1.16-.82-.73-.21-1.54-.46-1.54-1.31v-.02c0-.8.67-1.33,1.58-1.33.57,0,1.2.2,1.67.51l-.32.52c-.43-.28-.93-.45-1.38-.45-.55,0-.9.29-.9.68v.02c0,.44.58.61,1.2.8.72.22,1.49.5,1.49,1.33v.02c0,.88-.73,1.4-1.66,1.4-.67,0-1.4-.26-1.93-.68Z"/>
          <path class="mobile-cls-10" d="m47.82,456.02v-.02c0-1.34.95-2.42,2.23-2.42,1.38,0,2.17,1.1,2.17,2.46,0,.09,0,.14,0,.23h-3.69c.1,1.01.81,1.58,1.64,1.58.64,0,1.09-.26,1.47-.66l.43.39c-.47.52-1.04.87-1.92.87-1.28,0-2.32-.98-2.32-2.42Zm3.7-.27c-.07-.85-.56-1.58-1.49-1.58-.81,0-1.42.67-1.51,1.58h3Z"/>
          <path class="mobile-cls-10" d="m53.68,457.1v-2.81h-.65v-.61h.65v-1.4h.69v1.4h1.48v.61h-1.48v2.72c0,.57.31.77.78.77.23,0,.43-.04.67-.16v.59c-.24.13-.5.2-.84.2-.75,0-1.31-.37-1.31-1.31Z"/>
        </g>
        <g>
          <path class="mobile-cls-10" d="m95.11,441.23h2.19c1.98,0,3.35,1.36,3.35,3.13v.02c0,1.77-1.37,3.15-3.35,3.15h-2.19v-6.3Zm.71.66v4.99h1.48c1.59,0,2.61-1.08,2.61-2.48v-.02c0-1.4-1.02-2.49-2.61-2.49h-1.48Z"/>
          <path class="mobile-cls-10" d="m102.05,441.1h.79v.77h-.79v-.77Zm.05,1.78h.69v4.65h-.69v-4.65Z"/>
          <path class="mobile-cls-10" d="m104.04,446.18v-.02c0-.98.81-1.5,1.99-1.5.59,0,1.02.08,1.43.2v-.16c0-.84-.51-1.27-1.39-1.27-.55,0-.98.14-1.41.34l-.21-.57c.51-.23,1.02-.39,1.69-.39s1.16.17,1.5.51c.31.31.48.77.48,1.36v2.84h-.67v-.7c-.32.42-.86.8-1.68.8-.86,0-1.74-.5-1.74-1.45Zm3.43-.36v-.45c-.34-.1-.8-.2-1.37-.2-.87,0-1.36.38-1.36.96v.02c0,.59.54.93,1.17.93.85,0,1.56-.52,1.56-1.26Z"/>
          <path class="mobile-cls-10" d="m109.55,448.34l.31-.54c.53.39,1.13.59,1.79.59,1.03,0,1.69-.57,1.69-1.66v-.55c-.41.54-.97.98-1.83.98-1.12,0-2.19-.84-2.19-2.18v-.02c0-1.36,1.08-2.2,2.19-2.2.87,0,1.44.43,1.82.94v-.84h.69v3.84c0,.72-.22,1.27-.59,1.65-.41.41-1.04.62-1.77.62-.77,0-1.49-.22-2.12-.65Zm3.82-3.36v-.02c0-.95-.83-1.58-1.71-1.58s-1.61.61-1.61,1.57v.02c0,.94.75,1.58,1.61,1.58s1.71-.64,1.71-1.58Z"/>
          <path class="mobile-cls-10" d="m115.58,442.88h.69v.81c.31-.5.79-.91,1.59-.91,1.13,0,1.78.76,1.78,1.86v2.89h-.69v-2.72c0-.86-.47-1.4-1.29-1.4s-1.4.58-1.4,1.46v2.67h-.69v-4.65Z"/>
          <path class="mobile-cls-10" d="m120.84,445.23v-.02c0-1.31,1.03-2.43,2.43-2.43s2.42,1.1,2.42,2.41v.02c0,1.31-1.04,2.43-2.44,2.43s-2.41-1.1-2.41-2.41Zm4.14,0v-.02c0-1-.75-1.82-1.73-1.82s-1.7.82-1.7,1.8v.02c0,1,.74,1.81,1.72,1.81s1.71-.81,1.71-1.79Z"/>
          <path class="mobile-cls-10" d="m126.55,446.94l.35-.5c.5.38,1.06.59,1.61.59s.96-.29.96-.74v-.02c0-.47-.55-.65-1.16-.82-.73-.21-1.54-.46-1.54-1.31v-.02c0-.8.67-1.33,1.58-1.33.57,0,1.2.2,1.67.51l-.32.52c-.43-.28-.93-.45-1.38-.45-.55,0-.9.29-.9.68v.02c0,.44.58.61,1.2.8.72.22,1.49.5,1.49,1.33v.02c0,.88-.73,1.4-1.66,1.4-.67,0-1.4-.26-1.93-.68Z"/>
          <path class="mobile-cls-10" d="m131.44,441.1h.79v.77h-.79v-.77Zm.04,1.78h.69v4.65h-.69v-4.65Z"/>
          <path class="mobile-cls-10" d="m133.4,446.94l.35-.5c.5.38,1.06.59,1.61.59s.96-.29.96-.74v-.02c0-.47-.55-.65-1.16-.82-.73-.21-1.54-.46-1.54-1.31v-.02c0-.8.67-1.33,1.58-1.33.57,0,1.2.2,1.67.51l-.32.52c-.43-.28-.93-.45-1.38-.45-.55,0-.9.29-.9.68v.02c0,.44.58.61,1.2.8.72.22,1.49.5,1.49,1.33v.02c0,.88-.73,1.4-1.66,1.4-.67,0-1.4-.26-1.93-.68Z"/>
        </g>
        <g>
          <path class="mobile-cls-10" d="m147.32,441.23h4.56v.65h-3.84v2.15h3.44v.65h-3.44v2.21h3.89v.65h-4.6v-6.3Z"/>
          <path class="mobile-cls-10" d="m152.88,446.18v-.02c0-.98.81-1.5,1.99-1.5.59,0,1.02.08,1.43.2v-.16c0-.84-.51-1.27-1.39-1.27-.55,0-.98.14-1.41.34l-.21-.57c.51-.23,1.02-.39,1.69-.39s1.16.17,1.5.51c.31.31.48.77.48,1.36v2.84h-.67v-.7c-.32.42-.86.8-1.68.8-.86,0-1.74-.5-1.74-1.45Zm3.43-.36v-.45c-.34-.1-.8-.2-1.37-.2-.87,0-1.36.38-1.36.96v.02c0,.59.54.93,1.17.93.85,0,1.56-.52,1.56-1.26Z"/>
          <path class="mobile-cls-10" d="m158.44,442.88h.69v1.22c.34-.77,1.02-1.33,1.9-1.3v.75h-.05c-1.02,0-1.85.73-1.85,2.13v1.85h-.69v-4.65Z"/>
          <path class="mobile-cls-10" d="m162.15,440.96h.69v6.57h-.69v-6.57Z"/>
          <path class="mobile-cls-10" d="m167.94,442.88h.74l-1.95,4.81c-.4.96-.85,1.31-1.55,1.31-.39,0-.67-.08-.99-.23l.23-.55c.22.12.43.17.73.17.41,0,.67-.22.95-.87l-2.12-4.64h.77l1.69,3.88,1.49-3.88Z"/>
          <path class="mobile-cls-10" d="m141.63,456.02v-.02c0-1.52,1.11-2.42,2.22-2.42.86,0,1.42.47,1.78.99v-2.81h.69v6.57h-.69v-.94c-.38.56-.93,1.04-1.78,1.04-1.12,0-2.22-.88-2.22-2.41Zm4.03,0v-.02c0-1.07-.82-1.79-1.68-1.79s-1.64.67-1.64,1.79v.02c0,1.1.76,1.8,1.64,1.8s1.68-.73,1.68-1.8Z"/>
          <path class="mobile-cls-10" d="m147.89,451.9h.79v.76h-.79v-.76Zm.05,1.78h.69v4.65h-.69v-4.65Z"/>
          <path class="mobile-cls-10" d="m149.86,457.74l.35-.5c.5.38,1.06.59,1.61.59s.96-.29.96-.74v-.02c0-.47-.55-.65-1.16-.82-.73-.21-1.54-.46-1.54-1.31v-.02c0-.8.67-1.33,1.58-1.33.57,0,1.2.2,1.67.51l-.31.52c-.43-.28-.93-.45-1.38-.45-.55,0-.9.29-.9.68v.02c0,.44.58.61,1.2.8.72.22,1.49.5,1.49,1.33v.02c0,.88-.73,1.4-1.66,1.4-.67,0-1.4-.26-1.93-.68Z"/>
          <path class="mobile-cls-10" d="m154.44,456.02v-.02c0-1.34.95-2.42,2.23-2.42,1.38,0,2.17,1.1,2.17,2.46,0,.09,0,.14,0,.23h-3.69c.1,1.01.81,1.58,1.64,1.58.64,0,1.09-.26,1.47-.66l.43.39c-.47.52-1.04.87-1.92.87-1.28,0-2.32-.98-2.32-2.42Zm3.7-.27c-.07-.85-.56-1.58-1.49-1.58-.81,0-1.42.67-1.51,1.58h3Z"/>
          <path class="mobile-cls-10" d="m159.7,456.98v-.02c0-.98.81-1.5,1.99-1.5.59,0,1.02.08,1.43.2v-.16c0-.84-.51-1.27-1.39-1.27-.55,0-.98.14-1.41.34l-.21-.57c.51-.23,1.02-.39,1.69-.39s1.16.17,1.5.51c.32.32.48.76.48,1.36v2.84h-.67v-.7c-.32.42-.86.8-1.68.8-.86,0-1.74-.5-1.74-1.45Zm3.43-.36v-.45c-.34-.1-.8-.2-1.37-.2-.87,0-1.36.38-1.36.96v.02c0,.58.54.93,1.17.93.86,0,1.56-.52,1.56-1.26Z"/>
          <path class="mobile-cls-10" d="m164.88,457.74l.35-.5c.5.38,1.06.59,1.61.59s.96-.29.96-.74v-.02c0-.47-.55-.65-1.16-.82-.73-.21-1.54-.46-1.54-1.31v-.02c0-.8.67-1.33,1.58-1.33.57,0,1.2.2,1.67.51l-.32.52c-.43-.28-.93-.45-1.38-.45-.55,0-.9.29-.9.68v.02c0,.44.58.61,1.2.8.72.22,1.49.5,1.49,1.33v.02c0,.88-.73,1.4-1.66,1.4-.67,0-1.4-.26-1.93-.68Z"/>
          <path class="mobile-cls-10" d="m169.46,456.02v-.02c0-1.34.95-2.42,2.23-2.42,1.38,0,2.17,1.1,2.17,2.46,0,.09,0,.14,0,.23h-3.69c.1,1.01.81,1.58,1.64,1.58.64,0,1.09-.26,1.47-.66l.43.39c-.47.52-1.04.87-1.92.87-1.28,0-2.32-.98-2.32-2.42Zm3.7-.27c-.07-.85-.56-1.58-1.49-1.58-.81,0-1.42.67-1.51,1.58h3Z"/>
        </g>
      </g>
      <g id="mobile_bowel_damage_graph" class="graph_details" data-value="bowel_damage">
        <g>
          <polyline class="mobile-cls-12" points="40.43 433.91 66.87 433.91 75.69 428.46 81.81 417.22 122.7 406.63 128.58 401.17 135.09 390.86 149.79 378.5 181.47 352.05 196.16 324.76 251.99 286.55 251.99 226.52 284.31 199.23 290.19 177.39 316.63 155.56 316.63 433.91"/>
          <polyline class="mobile-cls-24" points="40.43 433.91 66.87 433.91 75.69 428.46 81.81 417.22 122.7 406.63 128.58 401.17 135.09 390.86 149.79 378.5 181.47 352.05 196.16 324.76 251.99 286.55 251.99 226.52 284.31 199.23 290.19 177.39 316.63 155.56"/>
        </g>
        <g>
          <path class="mobile-cls-17" d="m153.46,256.81h6.03v.88h-5.09v3h4.55v.86h-4.55v3.66h-.95v-8.4Z"/>
          <path class="mobile-cls-17" d="m161.2,256.63h1.06v1.02h-1.06v-1.02Zm.06,2.37h.92v6.2h-.92v-6.2Z"/>
          <path class="mobile-cls-17" d="m163.82,264.41l.47-.66c.67.5,1.42.79,2.15.79s1.28-.38,1.28-.98v-.02c0-.62-.73-.86-1.55-1.09-.97-.28-2.05-.61-2.05-1.75v-.02c0-1.07.89-1.77,2.11-1.77.76,0,1.6.26,2.23.68l-.42.7c-.58-.37-1.24-.6-1.83-.6-.73,0-1.2.38-1.2.9v.02c0,.59.77.82,1.6,1.07.96.29,1.99.66,1.99,1.77v.02c0,1.18-.97,1.86-2.21,1.86-.89,0-1.87-.35-2.57-.91Z"/>
          <path class="mobile-cls-17" d="m170.51,263.56v-3.74h-.86v-.82h.86v-1.87h.92v1.87h1.97v.82h-1.97v3.62c0,.76.42,1.03,1.04,1.03.31,0,.58-.06.9-.22v.79c-.32.17-.67.26-1.12.26-1,0-1.75-.49-1.75-1.75Z"/>
          <path class="mobile-cls-17" d="m174.94,262.85v-3.85h.92v3.62c0,1.15.62,1.87,1.72,1.87s1.86-.78,1.86-1.94v-3.55h.91v6.2h-.91v-1.08c-.42.67-1.06,1.21-2.12,1.21-1.5,0-2.37-1.01-2.37-2.48Z"/>
          <path class="mobile-cls-17" d="m182.51,256.45h.92v8.76h-.92v-8.76Z"/>
          <path class="mobile-cls-17" d="m185.12,263.4v-.02c0-1.31,1.08-2,2.65-2,.79,0,1.35.11,1.91.26v-.22c0-1.12-.68-1.69-1.85-1.69-.73,0-1.31.19-1.88.46l-.28-.76c.68-.31,1.36-.52,2.25-.52s1.55.23,2,.68c.42.42.64,1.02.64,1.81v3.79h-.89v-.94c-.43.56-1.15,1.07-2.24,1.07-1.15,0-2.31-.66-2.31-1.93Zm4.57-.48v-.6c-.46-.13-1.07-.26-1.82-.26-1.16,0-1.81.5-1.81,1.28v.02c0,.78.72,1.24,1.56,1.24,1.14,0,2.08-.7,2.08-1.68Z"/>
          <path class="mobile-cls-17" d="m196.81,255.63h.85l-5.56,11.11h-.85l5.56-11.11Z"/>
          <path class="mobile-cls-17" d="m197.38,263.4v-.02c0-1.31,1.08-2,2.65-2,.79,0,1.35.11,1.91.26v-.22c0-1.12-.68-1.69-1.85-1.69-.73,0-1.31.19-1.88.46l-.28-.76c.68-.31,1.36-.52,2.25-.52s1.55.23,2,.68c.42.42.64,1.02.64,1.81v3.79h-.89v-.94c-.43.56-1.15,1.07-2.24,1.07-1.15,0-2.31-.66-2.31-1.93Zm4.57-.48v-.6c-.46-.13-1.07-.26-1.82-.26-1.16,0-1.81.5-1.81,1.28v.02c0,.78.72,1.24,1.56,1.24,1.14,0,2.08-.7,2.08-1.68Z"/>
          <path class="mobile-cls-17" d="m205.72,264.01v1.19h-.92v-8.76h.92v3.8c.5-.74,1.24-1.38,2.37-1.38,1.49,0,2.96,1.18,2.96,3.21v.02c0,2.03-1.46,3.23-2.96,3.23-1.15,0-1.9-.62-2.37-1.32Zm4.39-1.9v-.02c0-1.46-1.01-2.4-2.18-2.4s-2.24.97-2.24,2.39v.02c0,1.44,1.09,2.4,2.24,2.4s2.18-.89,2.18-2.39Z"/>
          <path class="mobile-cls-17" d="m212.25,264.41l.47-.66c.67.5,1.42.79,2.15.79s1.28-.38,1.28-.98v-.02c0-.62-.73-.86-1.55-1.09-.97-.28-2.05-.61-2.05-1.75v-.02c0-1.07.89-1.77,2.11-1.77.76,0,1.6.26,2.23.68l-.42.7c-.58-.37-1.23-.6-1.83-.6-.73,0-1.2.38-1.2.9v.02c0,.59.77.82,1.6,1.07.96.29,1.99.66,1.99,1.77v.02c0,1.18-.97,1.86-2.21,1.86-.89,0-1.87-.35-2.57-.91Z"/>
          <path class="mobile-cls-17" d="m218.36,262.13v-.02c0-1.75,1.37-3.24,3.18-3.24,1.18,0,1.91.49,2.48,1.1l-.61.65c-.49-.52-1.04-.94-1.88-.94-1.26,0-2.22,1.07-2.22,2.4v.02c0,1.34.98,2.41,2.28,2.41.79,0,1.4-.4,1.89-.92l.59.55c-.62.7-1.37,1.2-2.53,1.2-1.81,0-3.18-1.48-3.18-3.21Z"/>
          <path class="mobile-cls-17" d="m225.03,262.12v-.02c0-1.79,1.26-3.23,2.97-3.23,1.84,0,2.89,1.46,2.89,3.27,0,.12,0,.19-.01.3h-4.92c.13,1.34,1.08,2.1,2.18,2.1.85,0,1.45-.35,1.96-.88l.58.52c-.62.7-1.38,1.16-2.55,1.16-1.7,0-3.1-1.31-3.1-3.23Zm4.93-.36c-.1-1.13-.74-2.11-1.98-2.11-1.08,0-1.89.9-2.02,2.11h3.99Z"/>
          <path class="mobile-cls-17" d="m232,264.41l.47-.66c.67.5,1.42.79,2.15.79s1.28-.38,1.28-.98v-.02c0-.62-.73-.86-1.55-1.09-.97-.28-2.05-.61-2.05-1.75v-.02c0-1.07.89-1.77,2.11-1.77.76,0,1.6.26,2.23.68l-.42.7c-.58-.37-1.24-.6-1.83-.6-.73,0-1.2.38-1.2.9v.02c0,.59.77.82,1.6,1.07.96.29,1.99.66,1.99,1.77v.02c0,1.18-.97,1.86-2.21,1.86-.89,0-1.87-.35-2.57-.91Z"/>
          <path class="mobile-cls-17" d="m237.86,264.41l.47-.66c.67.5,1.42.79,2.15.79s1.28-.38,1.28-.98v-.02c0-.62-.73-.86-1.55-1.09-.97-.28-2.05-.61-2.05-1.75v-.02c0-1.07.89-1.77,2.11-1.77.76,0,1.6.26,2.23.68l-.42.7c-.58-.37-1.24-.6-1.83-.6-.73,0-1.2.38-1.2.9v.02c0,.59.77.82,1.6,1.07.96.29,1.99.66,1.99,1.77v.02c0,1.18-.97,1.86-2.21,1.86-.89,0-1.87-.35-2.57-.91Z"/>
        </g>
        <g>
          <path class="mobile-cls-17" d="m136.12,331.05l.59-.7c.88.79,1.72,1.19,2.88,1.19s1.87-.6,1.87-1.43v-.02c0-.78-.42-1.22-2.18-1.6-1.93-.42-2.82-1.04-2.82-2.42v-.02c0-1.32,1.16-2.29,2.76-2.29,1.22,0,2.1.35,2.95,1.03l-.55.73c-.78-.64-1.56-.91-2.42-.91-1.09,0-1.79.6-1.79,1.35v.02c0,.79.43,1.24,2.28,1.63,1.87.41,2.73,1.09,2.73,2.37v.02c0,1.44-1.2,2.38-2.87,2.38-1.33,0-2.42-.44-3.43-1.34Z"/>
          <path class="mobile-cls-17" d="m144.46,330.63v-3.74h-.86v-.82h.86v-1.87h.92v1.87h1.97v.82h-1.97v3.62c0,.76.42,1.03,1.04,1.03.31,0,.58-.06.9-.22v.79c-.32.17-.67.26-1.12.26-1,0-1.75-.49-1.75-1.75Z"/>
          <path class="mobile-cls-17" d="m148.98,326.07h.92v1.62c.46-1.03,1.35-1.77,2.53-1.73v1h-.07c-1.36,0-2.46.97-2.46,2.84v2.47h-.92v-6.2Z"/>
          <path class="mobile-cls-17" d="m153.86,323.69h1.06v1.02h-1.06v-1.02Zm.06,2.37h.92v6.2h-.92v-6.2Z"/>
          <path class="mobile-cls-17" d="m156.61,329.2v-.02c0-1.75,1.37-3.24,3.18-3.24,1.18,0,1.91.49,2.48,1.1l-.61.65c-.49-.52-1.04-.94-1.88-.94-1.26,0-2.22,1.07-2.22,2.4v.02c0,1.34.98,2.41,2.28,2.41.79,0,1.4-.4,1.9-.92l.59.55c-.62.7-1.37,1.2-2.53,1.2-1.81,0-3.18-1.48-3.18-3.21Z"/>
          <path class="mobile-cls-17" d="m164.17,330.63v-3.74h-.86v-.82h.86v-1.87h.92v1.87h1.97v.82h-1.97v3.62c0,.76.42,1.03,1.04,1.03.31,0,.58-.06.9-.22v.79c-.32.17-.67.26-1.12.26-1,0-1.75-.49-1.75-1.75Z"/>
          <path class="mobile-cls-17" d="m168.6,329.92v-3.85h.92v3.62c0,1.15.62,1.87,1.72,1.87s1.86-.78,1.86-1.94v-3.55h.91v6.2h-.91v-1.08c-.42.67-1.06,1.21-2.12,1.21-1.5,0-2.37-1.01-2.37-2.48Z"/>
          <path class="mobile-cls-17" d="m176.09,326.07h.92v1.62c.46-1.03,1.35-1.77,2.53-1.73v1h-.07c-1.36,0-2.46.97-2.46,2.84v2.47h-.92v-6.2Z"/>
          <path class="mobile-cls-17" d="m180.3,329.19v-.02c0-1.79,1.26-3.23,2.97-3.23,1.83,0,2.89,1.46,2.89,3.27,0,.12,0,.19-.01.3h-4.92c.13,1.34,1.08,2.1,2.18,2.1.85,0,1.45-.35,1.95-.88l.58.52c-.62.7-1.38,1.16-2.55,1.16-1.7,0-3.09-1.31-3.09-3.23Zm4.93-.36c-.1-1.13-.74-2.11-1.98-2.11-1.08,0-1.9.9-2.02,2.11h3.99Z"/>
        </g>
        <g>
          <path class="mobile-cls-17" d="m222.95,196.74l.59-.7c.88.79,1.71,1.19,2.88,1.19s1.87-.6,1.87-1.43v-.02c0-.78-.42-1.22-2.18-1.6-1.93-.42-2.82-1.04-2.82-2.42v-.02c0-1.32,1.16-2.29,2.76-2.29,1.22,0,2.1.35,2.95,1.03l-.55.73c-.78-.64-1.56-.91-2.42-.91-1.09,0-1.79.6-1.79,1.35v.02c0,.79.43,1.24,2.28,1.63,1.87.41,2.73,1.09,2.73,2.37v.02c0,1.44-1.2,2.38-2.87,2.38-1.33,0-2.42-.44-3.43-1.34Z"/>
          <path class="mobile-cls-17" d="m230.93,195.61v-3.85h.92v3.62c0,1.15.62,1.87,1.72,1.87s1.86-.78,1.86-1.94v-3.55h.91v6.2h-.91v-1.08c-.42.67-1.06,1.21-2.12,1.21-1.5,0-2.37-1.01-2.37-2.48Z"/>
          <path class="mobile-cls-17" d="m238.42,191.76h.92v1.62c.46-1.03,1.35-1.77,2.53-1.73v1h-.07c-1.36,0-2.46.97-2.46,2.84v2.47h-.92v-6.2Z"/>
          <path class="mobile-cls-17" d="m242.96,199.04l.42-.72c.71.52,1.5.79,2.39.79,1.37,0,2.25-.76,2.25-2.21v-.73c-.54.72-1.29,1.31-2.43,1.31-1.49,0-2.91-1.12-2.91-2.9v-.02c0-1.81,1.44-2.93,2.91-2.93,1.16,0,1.92.58,2.42,1.25v-1.12h.92v5.12c0,.96-.29,1.69-.79,2.19-.55.55-1.38.83-2.36.83s-1.99-.29-2.82-.86Zm5.09-4.47v-.02c0-1.27-1.1-2.1-2.28-2.1s-2.15.82-2.15,2.09v.02c0,1.25,1,2.11,2.15,2.11s2.28-.85,2.28-2.1Z"/>
          <path class="mobile-cls-17" d="m250.61,194.88v-.02c0-1.79,1.26-3.23,2.97-3.23,1.83,0,2.89,1.46,2.89,3.27,0,.12,0,.19-.01.3h-4.92c.13,1.34,1.08,2.1,2.18,2.1.85,0,1.45-.35,1.95-.88l.58.52c-.62.7-1.38,1.16-2.55,1.16-1.7,0-3.09-1.31-3.09-3.23Zm4.93-.36c-.1-1.13-.74-2.11-1.98-2.11-1.08,0-1.9.9-2.01,2.11h3.99Z"/>
          <path class="mobile-cls-17" d="m258.1,191.76h.92v1.62c.46-1.03,1.35-1.77,2.53-1.73v1h-.07c-1.36,0-2.46.97-2.46,2.84v2.47h-.92v-6.2Z"/>
          <path class="mobile-cls-17" d="m267.6,191.76h.98l-2.6,6.4c-.53,1.28-1.13,1.75-2.06,1.75-.52,0-.9-.11-1.32-.31l.31-.73c.3.16.58.23.97.23.55,0,.9-.29,1.27-1.16l-2.82-6.18h1.02l2.25,5.17,1.99-5.17Z"/>
        </g>
        <g>
          <path class="mobile-cls-17" d="m255.35,153.8l.59-.7c.88.79,1.72,1.19,2.88,1.19s1.87-.6,1.87-1.43v-.02c0-.78-.42-1.22-2.18-1.6-1.93-.42-2.82-1.04-2.82-2.42v-.02c0-1.32,1.16-2.29,2.76-2.29,1.22,0,2.1.35,2.95,1.03l-.55.73c-.78-.64-1.56-.91-2.42-.91-1.09,0-1.79.6-1.79,1.35v.02c0,.79.43,1.24,2.28,1.63,1.87.41,2.73,1.09,2.73,2.37v.02c0,1.44-1.2,2.38-2.87,2.38-1.33,0-2.42-.44-3.43-1.34Z"/>
          <path class="mobile-cls-17" d="m263.69,153.38v-3.74h-.86v-.82h.86v-1.87h.92v1.87h1.97v.82h-1.97v3.62c0,.76.42,1.03,1.04,1.03.31,0,.58-.06.9-.22v.79c-.32.17-.67.26-1.12.26-1,0-1.75-.49-1.75-1.75Z"/>
          <path class="mobile-cls-17" d="m268.21,148.82h.92v1.62c.46-1.03,1.36-1.77,2.53-1.73v1h-.07c-1.36,0-2.46.97-2.46,2.84v2.47h-.92v-6.2Z"/>
          <path class="mobile-cls-17" d="m273.09,146.45h1.05v1.02h-1.05v-1.02Zm.06,2.37h.92v6.2h-.92v-6.2Z"/>
          <path class="mobile-cls-17" d="m275.84,151.95v-.02c0-1.75,1.37-3.24,3.18-3.24,1.18,0,1.91.49,2.48,1.1l-.61.65c-.49-.52-1.04-.94-1.88-.94-1.26,0-2.22,1.07-2.22,2.4v.02c0,1.34.98,2.41,2.28,2.41.79,0,1.4-.4,1.9-.92l.59.55c-.62.7-1.37,1.2-2.53,1.2-1.81,0-3.18-1.48-3.18-3.21Z"/>
          <path class="mobile-cls-17" d="m283.4,153.38v-3.74h-.86v-.82h.86v-1.87h.92v1.87h1.97v.82h-1.97v3.62c0,.76.42,1.03,1.04,1.03.31,0,.58-.06.9-.22v.79c-.32.17-.67.26-1.12.26-1,0-1.75-.49-1.75-1.75Z"/>
          <path class="mobile-cls-17" d="m287.83,152.67v-3.85h.92v3.62c0,1.15.62,1.87,1.72,1.87s1.86-.78,1.86-1.94v-3.55h.91v6.2h-.91v-1.08c-.42.67-1.05,1.21-2.12,1.21-1.5,0-2.37-1.01-2.37-2.48Z"/>
          <path class="mobile-cls-17" d="m295.32,148.82h.92v1.62c.46-1.03,1.36-1.77,2.53-1.73v1h-.07c-1.36,0-2.46.97-2.46,2.84v2.47h-.92v-6.2Z"/>
          <path class="mobile-cls-17" d="m299.53,151.94v-.02c0-1.79,1.26-3.23,2.97-3.23,1.83,0,2.89,1.46,2.89,3.27,0,.12,0,.19-.01.3h-4.92c.13,1.34,1.08,2.1,2.18,2.1.85,0,1.45-.35,1.95-.88l.58.52c-.62.7-1.38,1.16-2.55,1.16-1.7,0-3.09-1.31-3.09-3.23Zm4.93-.36c-.1-1.13-.74-2.11-1.98-2.11-1.08,0-1.9.9-2.02,2.11h3.99Z"/>
        </g>
      </g>
      <g id="desktop_button_2" class="graph--btn" data-value="inflammatory_activity">
        <g id="inflammatory_activity_title" class="btn-title orange">
          <g>
            <path class="mobile-cls-16" d="m351.86,218.56v1.85h-8.4v-1.85h8.4Z"/>
            <path class="mobile-cls-16" d="m349.89,222.32v1.82h-.91c.54.42,1.03.96,1.03,1.88,0,1.38-.91,2.18-2.39,2.18h-4.16v-1.82h3.59c.86,0,1.31-.41,1.31-1.1s-.44-1.14-1.31-1.14h-3.59v-1.82h6.43Z"/>
            <path class="mobile-cls-16" d="m348.33,230.11v-.76h1.5v.76h.41c.71,0,1.22.18,1.56.52.34.34.5.83.5,1.48,0,.58-.07.96-.18,1.3h-1.51c.1-.26.16-.52.16-.83,0-.42-.22-.66-.7-.66h-.25v1.48h-1.49v-1.45h-4.87v-1.82h4.87Zm3.89,4.35v1.82h-8.75v-1.82h8.75Z"/>
            <path class="mobile-cls-16" d="m345.31,237.62h.02c1.4,0,2.05,1.07,2.05,2.59,0,.65-.11,1.12-.26,1.57h.11c.76,0,1.18-.47,1.18-1.38,0-.7-.13-1.19-.35-1.77l1.39-.46c.31.71.52,1.4.52,2.49,0,1-.26,1.72-.72,2.17-.48.48-1.19.7-2.05.7h-3.73v-1.76h.7c-.49-.44-.82-1.06-.82-1.94,0-1.21.7-2.21,1.97-2.21Zm.42,4.19h.32c.14-.31.24-.72.24-1.16,0-.78-.31-1.26-.89-1.26h-.02c-.49,0-.78.41-.78,1,0,.85.47,1.43,1.13,1.43Z"/>
            <path class="mobile-cls-16" d="m349.89,245.11v1.82h-.91c.54.42,1.03.97,1.03,1.9,0,.84-.37,1.48-1.02,1.81.66.56,1.02,1.23,1.02,2.11,0,1.35-.82,2.17-2.36,2.17h-4.19v-1.82h3.59c.86,0,1.31-.38,1.31-1.07s-.44-1.1-1.31-1.1h-3.59v-1.82h3.59c.86,0,1.31-.38,1.31-1.07s-.44-1.1-1.31-1.1h-3.59v-1.82h6.43Z"/>
            <path class="mobile-cls-16" d="m349.89,256.51v1.82h-.91c.54.42,1.03.97,1.03,1.9,0,.84-.37,1.48-1.02,1.81.66.56,1.02,1.24,1.02,2.11,0,1.35-.82,2.17-2.36,2.17h-4.19v-1.82h3.59c.86,0,1.31-.38,1.31-1.07s-.44-1.1-1.31-1.1h-3.59v-1.82h3.59c.86,0,1.31-.38,1.31-1.07s-.44-1.1-1.31-1.1h-3.59v-1.82h6.43Z"/>
            <path class="mobile-cls-16" d="m345.31,267.52h.02c1.4,0,2.05,1.07,2.05,2.59,0,.65-.11,1.12-.26,1.57h.11c.76,0,1.18-.47,1.18-1.38,0-.7-.13-1.19-.35-1.78l1.39-.46c.31.71.52,1.4.52,2.49,0,1-.26,1.72-.72,2.17-.48.48-1.19.7-2.05.7h-3.73v-1.76h.7c-.49-.44-.82-1.06-.82-1.94,0-1.21.7-2.21,1.97-2.21Zm.42,4.19h.32c.14-.31.24-.72.24-1.16,0-.78-.31-1.26-.89-1.26h-.02c-.49,0-.78.41-.78,1,0,.85.47,1.43,1.13,1.43Z"/>
            <path class="mobile-cls-16" d="m345.29,275.25h3.05v-.77h1.56v.77h1.64v1.82h-1.64v1.51h-1.56v-1.51h-2.75c-.42,0-.62.18-.62.59,0,.34.08.64.23.9h-1.46c-.23-.38-.37-.83-.37-1.44,0-1.12.44-1.87,1.93-1.87Z"/>
            <path class="mobile-cls-16" d="m346.64,279.44h.02c1.85,0,3.35,1.49,3.35,3.49s-1.48,3.47-3.32,3.47h-.02c-1.85,0-3.35-1.49-3.35-3.49s1.47-3.47,3.32-3.47Zm0,5.16h.02c.95,0,1.78-.68,1.78-1.69s-.8-1.67-1.75-1.67h-.02c-.95,0-1.78.68-1.78,1.69s.8,1.67,1.75,1.67Z"/>
            <path class="mobile-cls-16" d="m349.89,287.72v1.82h-1.3c.89.37,1.46.97,1.42,2.05h-1.91v-.1c0-1.21-.73-1.96-2.27-1.96h-2.38v-1.82h6.43Z"/>
            <path class="mobile-cls-16" d="m349.89,296.95v1.9l-6.58-2.47c-1.31-.49-1.8-1.02-1.8-2.11,0-.66.17-1.15.44-1.62l1.32.61c-.14.24-.25.54-.25.78,0,.31.1.48.42.64l6.45-2.52v1.93l-4.38,1.46,4.38,1.4Z"/>
            <path class="mobile-cls-16" d="m345.31,303.15h.02c1.4,0,2.05,1.07,2.05,2.59,0,.65-.11,1.12-.26,1.57h.11c.76,0,1.18-.47,1.18-1.38,0-.7-.13-1.19-.35-1.77l1.39-.46c.31.71.52,1.4.52,2.5,0,1-.26,1.71-.72,2.17-.48.48-1.19.7-2.05.7h-3.73v-1.76h.7c-.49-.44-.82-1.05-.82-1.94,0-1.21.7-2.21,1.97-2.21Zm.42,4.19h.32c.14-.31.24-.72.24-1.16,0-.78-.31-1.26-.89-1.26h-.02c-.49,0-.78.41-.78,1,0,.85.47,1.43,1.13,1.43Z"/>
            <path class="mobile-cls-16" d="m346.64,310.32h.02c1.83,0,3.35,1.4,3.35,3.37,0,1.21-.41,1.97-1.08,2.57l-1.2-1.12c.43-.41.71-.82.71-1.46,0-.91-.8-1.56-1.75-1.56h-.02c-.98,0-1.78.64-1.78,1.63,0,.61.26,1.03.68,1.48l-1.08,1.07c-.68-.62-1.17-1.34-1.17-2.63,0-1.93,1.49-3.35,3.32-3.35Z"/>
            <path class="mobile-cls-16" d="m345.29,317.79h3.05v-.77h1.56v.77h1.64v1.82h-1.64v1.51h-1.56v-1.51h-2.75c-.42,0-.62.18-.62.59,0,.34.08.64.23.9h-1.46c-.23-.38-.37-.83-.37-1.44,0-1.12.44-1.87,1.93-1.87Z"/>
            <path class="mobile-cls-16" d="m349.89,322.55v1.82h-6.43v-1.82h6.43Zm2.33-.05v1.92h-1.62v-1.92h1.62Z"/>
            <path class="mobile-cls-16" d="m349.89,325.52v1.93l-4.31,1.44,4.31,1.45v1.89l-6.48-2.53v-1.66l6.48-2.53Z"/>
            <path class="mobile-cls-16" d="m349.89,333.38v1.82h-6.43v-1.82h6.43Zm2.33-.05v1.92h-1.62v-1.92h1.62Z"/>
            <path class="mobile-cls-16" d="m345.29,337.22h3.05v-.77h1.56v.77h1.64v1.82h-1.64v1.51h-1.56v-1.51h-2.75c-.42,0-.62.18-.62.59,0,.34.08.64.23.9h-1.46c-.23-.38-.37-.83-.37-1.44,0-1.12.44-1.87,1.93-1.87Z"/>
            <path class="mobile-cls-16" d="m349.89,346.12v1.9l-6.58-2.47c-1.31-.49-1.8-1.02-1.8-2.11,0-.66.17-1.15.44-1.62l1.32.61c-.14.24-.25.54-.25.78,0,.31.1.48.42.64l6.45-2.52v1.93l-4.38,1.46,4.38,1.4Z"/>
            <path class="mobile-cls-16" d="m332.51,224.05c2.3,0,3.93,1.12,5.13,3.32l-1.21.8c-1.13-1.62-2.23-2.31-3.92-2.31s-2.79.7-3.92,2.31l-1.21-.8c1.2-2.21,2.83-3.32,5.13-3.32Z"/>
            <path class="mobile-cls-16" d="m333.24,228.95h.02c2.39,0,4.34,1.8,4.34,4.38,0,1.58-.53,2.53-1.29,3.31l-1.36-1.18c.59-.65.95-1.31.95-2.15,0-1.42-1.17-2.44-2.61-2.44h-.02c-1.44,0-2.64,1-2.64,2.44,0,.96.38,1.55.98,2.21l-1.19,1.18c-.92-.86-1.5-1.82-1.5-3.44,0-2.47,1.91-4.31,4.32-4.31Z"/>
            <path class="mobile-cls-16" d="m337.46,238.18v3.27c0,2.64-1.81,4.46-4.17,4.46h-.02c-2.36,0-4.2-1.82-4.2-4.46v-3.27h8.4Zm-1.67,1.85h-5.06v1.43c0,1.51,1.02,2.53,2.51,2.53h.02c1.49,0,2.53-1.02,2.53-2.53v-1.43Z"/>
            <path class="mobile-cls-16" d="m337.52,249.84v1.7l-8.46,3.6v-1.93l1.88-.77v-3.55l-1.88-.77v-1.88l8.46,3.6Zm-4.94,1.94l2.72-1.12-2.72-1.12v2.23Z"/>
            <path class="mobile-cls-16" d="m337.46,256.53v1.85h-8.4v-1.85h8.4Z"/>
            <path class="mobile-cls-16" d="m327.88,259.78c.08.83.5,1.24,1.19,1.18v-.74h1.92v1.94h-1.62c-1.58,0-2.22-.79-2.24-2.22l.76-.16Z"/>
            <path class="mobile-cls-16" d="m333.24,267.14h.02c2.39,0,4.34,1.8,4.34,4.38,0,1.58-.53,2.53-1.29,3.31l-1.36-1.18c.59-.65.95-1.31.95-2.15,0-1.42-1.17-2.44-2.61-2.44h-.02c-1.44,0-2.64,1-2.64,2.44,0,.96.38,1.55.98,2.21l-1.19,1.18c-.92-.86-1.5-1.82-1.5-3.44,0-2.47,1.91-4.31,4.32-4.31Z"/>
            <path class="mobile-cls-16" d="m337.46,276.36v3.27c0,2.64-1.81,4.46-4.17,4.46h-.02c-2.36,0-4.2-1.82-4.2-4.46v-3.27h8.4Zm-1.67,1.85h-5.06v1.43c0,1.51,1.02,2.53,2.51,2.53h.02c1.49,0,2.53-1.02,2.53-2.53v-1.43Z"/>
            <path class="mobile-cls-16" d="m337.46,285.75v6.33h-1.64v-4.5h-1.7v3.96h-1.64v-3.96h-1.76v4.56h-1.64v-6.39h8.4Z"/>
            <path class="mobile-cls-16" d="m337.46,293.87v1.85h-8.4v-1.85h8.4Z"/>
            <path class="mobile-cls-16" d="m330.29,297.24l1.31,1.09c-.62.75-1.02,1.55-1.02,2.51,0,.76.3,1.21.79,1.21h.02c.47,0,.71-.29,1.07-1.69.43-1.69.9-2.78,2.57-2.78h.02c1.52,0,2.53,1.22,2.53,2.94,0,1.22-.38,2.27-1.07,3.12l-1.39-.96c.52-.74.83-1.48.83-2.18s-.32-1.08-.73-1.08h-.02c-.55,0-.73.36-1.1,1.81-.44,1.7-1.06,2.66-2.52,2.66h-.02c-1.67,0-2.6-1.27-2.6-3.08,0-1.27.44-2.55,1.34-3.56Z"/>
            <path class="mobile-cls-16" d="m327.88,304.81c.08.83.5,1.24,1.19,1.18v-.74h1.92v1.94h-1.62c-1.58,0-2.22-.79-2.24-2.22l.76-.16Z"/>
            <path class="mobile-cls-16" d="m333.24,312.16h.02c2.39,0,4.34,1.8,4.34,4.38,0,1.58-.53,2.53-1.29,3.31l-1.36-1.17c.59-.65.95-1.31.95-2.15,0-1.42-1.17-2.43-2.61-2.43h-.02c-1.44,0-2.64,1-2.64,2.43,0,.96.38,1.55.98,2.21l-1.19,1.18c-.92-.86-1.5-1.82-1.5-3.44,0-2.47,1.91-4.31,4.32-4.31Z"/>
            <path class="mobile-cls-16" d="m337.46,321.39v3.84c0,1.07-.3,1.89-.85,2.45-.47.47-1.13.72-1.92.72h-.02c-1.35,0-2.21-.73-2.6-1.8l-3,2.05v-2.16l2.69-1.8v-1.45h-2.69v-1.85h8.4Zm-4.08,3.72c0,.9.48,1.42,1.19,1.42h.02c.79,0,1.2-.55,1.2-1.45v-1.83h-2.41v1.87Z"/>
            <path class="mobile-cls-16" d="m337.46,330.06v3.43c0,2-1.19,3.21-2.9,3.21h-.02c-1.94,0-2.95-1.51-2.95-3.39v-1.4h-2.52v-1.85h8.4Zm-4.23,3.31c0,.92.55,1.46,1.27,1.46h.02c.83,0,1.27-.58,1.27-1.5v-1.43h-2.57v1.46Z"/>
            <path class="mobile-cls-16" d="m328.59,337.58c1.13,1.62,2.23,2.31,3.92,2.31s2.79-.7,3.92-2.31l1.21.8c-1.2,2.21-2.83,3.32-5.13,3.32s-3.93-1.12-5.13-3.32l1.21-.8Z"/>
          </g>
        </g>
        <g id="graph_button_2" class="active-btn">
          <circle class="mobile-cls-1" cx="343.47" cy="402.51" r="16.5"/>
          <circle class="mobile-cls-6" cx="343.47" cy="402.51" r="15.06"/>
          <g>
            <path class="mobile-cls-13" d="m347.16,410.35h-8.69c-.76,0-1.38-.62-1.38-1.38,0-1.02.76-1.89,1.76-2.04l3.72-.58-6.28-6.28c-.69-.69-.69-1.8,0-2.49.69-.69,1.81-.69,2.5,0l1.63,1.63c.08-.27.23-.53.44-.74.63-.64,1.63-.69,2.32-.16.08-.28.23-.54.45-.76.64-.64,1.63-.69,2.32-.16.08-.28.23-.54.45-.76.69-.69,1.81-.69,2.5,0l3.47,3.81c.85.94,1.32,2.15,1.32,3.41,0,1.35-.53,2.63-1.48,3.58l-1.45,1.45c-.96.96-2.23,1.49-3.59,1.49Zm-9.62-12.37c-.21,0-.43.08-.59.25-.33.33-.33.87,0,1.19l6.92,6.92c.12.12.17.3.11.47-.05.17-.2.29-.37.31l-4.62.73c-.56.08-.98.56-.98,1.12,0,.25.21.46.46.46h8.69c1.11,0,2.15-.43,2.93-1.22l1.45-1.45c.78-.78,1.21-1.82,1.21-2.93,0-1.03-.38-2.02-1.08-2.79l-3.45-3.79c-.31-.31-.84-.31-1.17.02-.16.16-.25.37-.25.6s.09.44.25.59l.04.04c.18.18.18.47,0,.65-.18.18-.46.18-.64,0h0s0,0,0,0h0s0,0,0,0h0s0,0,0,0l-.97-.97c-.33-.33-.86-.33-1.19,0s-.33.86,0,1.19l.96.96c.09.09.14.21.14.33s-.05.24-.13.33c-.18.18-.47.18-.65,0l-1.88-1.88c-.33-.33-.86-.33-1.19,0-.33.33-.33.86,0,1.19l1.88,1.88c.09.09.14.21.14.33s-.05.24-.13.33c-.18.18-.47.18-.65,0l-4.61-4.61c-.16-.16-.38-.25-.59-.25Z"/>
            <path class="mobile-cls-13" d="m336.03,402.64c-.06,0-.13-.01-.19-.04-1.49-.67-2.45-2.16-2.45-3.78,0-2.29,1.86-4.15,4.15-4.15,1.62,0,3.11.96,3.78,2.45.11.23,0,.51-.23.61-.23.11-.51,0-.61-.23-.52-1.16-1.68-1.9-2.94-1.9-1.78,0-3.23,1.45-3.23,3.23,0,1.26.75,2.41,1.9,2.94.23.11.33.38.23.61-.08.17-.25.27-.42.27Z"/>
          </g>
        </g>
        <g id="active_graph_button_2" class="inactive-btn">
          <g id="active_btn">
            <circle class="mobile-cls-1" cx="343.47" cy="402.51" r="16.5"/>
            <circle class="mobile-cls-9" cx="343.47" cy="402.51" r="15.06"/>
            <g>
              <path class="mobile-cls-13" d="m347.16,410.35h-8.69c-.76,0-1.38-.62-1.38-1.38,0-1.02.76-1.89,1.76-2.04l3.72-.58-6.28-6.28c-.69-.69-.69-1.8,0-2.49.69-.69,1.81-.69,2.5,0l1.63,1.63c.08-.27.23-.53.44-.74.63-.64,1.63-.69,2.32-.16.08-.28.23-.54.45-.76.64-.64,1.63-.69,2.32-.16.08-.28.23-.54.45-.76.69-.69,1.81-.69,2.5,0l3.47,3.81c.85.94,1.32,2.15,1.32,3.41,0,1.35-.53,2.63-1.48,3.58l-1.45,1.45c-.96.96-2.23,1.49-3.59,1.49Zm-9.62-12.37c-.21,0-.43.08-.59.25-.33.33-.33.87,0,1.19l6.92,6.92c.12.12.17.3.11.47-.05.17-.2.29-.37.31l-4.62.73c-.56.08-.98.56-.98,1.12,0,.25.21.46.46.46h8.69c1.11,0,2.15-.43,2.93-1.22l1.45-1.45c.78-.78,1.21-1.82,1.21-2.93,0-1.03-.38-2.02-1.08-2.79l-3.45-3.79c-.31-.31-.84-.31-1.17.02-.16.16-.25.37-.25.6s.09.44.25.59l.04.04c.18.18.18.47,0,.65-.18.18-.46.18-.64,0h0s0,0,0,0h0s0,0,0,0h0s0,0,0,0l-.97-.97c-.33-.33-.86-.33-1.19,0s-.33.86,0,1.19l.96.96c.09.09.14.21.14.33s-.05.24-.13.33c-.18.18-.47.18-.65,0l-1.88-1.88c-.33-.33-.86-.33-1.19,0-.33.33-.33.86,0,1.19l1.88,1.88c.09.09.14.21.14.33s-.05.24-.13.33c-.18.18-.47.18-.65,0l-4.61-4.61c-.16-.16-.38-.25-.59-.25Z"/>
              <path class="mobile-cls-13" d="m336.03,402.64c-.06,0-.13-.01-.19-.04-1.49-.67-2.45-2.16-2.45-3.78,0-2.29,1.86-4.15,4.15-4.15,1.62,0,3.11.96,3.78,2.45.11.23,0,.51-.23.61-.23.11-.51,0-.61-.23-.52-1.16-1.68-1.9-2.94-1.9-1.78,0-3.23,1.45-3.23,3.23,0,1.26.75,2.41,1.9,2.94.23.11.33.38.23.61-.08.17-.25.27-.42.27Z"/>
            </g>
          </g>
          <g id="inactive_btn" class="tooltip-mobile" title="Click here">
            <circle class="mobile-cls-1" cx="343.47" cy="402.51" r="16.5"/>
            <circle class="mobile-cls-20" cx="343.47" cy="402.51" r="15.06"/>
            <g>
              <path class="mobile-cls-5" d="m347.16,410.35h-8.69c-.76,0-1.38-.62-1.38-1.38,0-1.02.76-1.89,1.76-2.04l3.72-.58-6.28-6.28c-.69-.69-.69-1.8,0-2.49.69-.69,1.81-.69,2.5,0l1.63,1.63c.08-.27.23-.53.44-.74.63-.64,1.63-.69,2.32-.16.08-.28.23-.54.45-.76.64-.64,1.63-.69,2.32-.16.08-.28.23-.54.45-.76.69-.69,1.81-.69,2.5,0l3.47,3.81c.85.94,1.32,2.15,1.32,3.41,0,1.35-.53,2.63-1.48,3.58l-1.45,1.45c-.96.96-2.23,1.49-3.59,1.49Zm-9.62-12.37c-.21,0-.43.08-.59.25-.33.33-.33.87,0,1.19l6.92,6.92c.12.12.17.3.11.47-.05.17-.2.29-.37.31l-4.62.73c-.56.08-.98.56-.98,1.12,0,.25.21.46.46.46h8.69c1.11,0,2.15-.43,2.93-1.22l1.45-1.45c.78-.78,1.21-1.82,1.21-2.93,0-1.03-.38-2.02-1.08-2.79l-3.45-3.79c-.31-.31-.84-.31-1.17.02-.16.16-.25.37-.25.6s.09.44.25.59l.04.04c.18.18.18.47,0,.65-.18.18-.46.18-.64,0h0s0,0,0,0h0s0,0,0,0h0s0,0,0,0l-.97-.97c-.33-.33-.86-.33-1.19,0s-.33.86,0,1.19l.96.96c.09.09.14.21.14.33s-.05.24-.13.33c-.18.18-.47.18-.65,0l-1.88-1.88c-.33-.33-.86-.33-1.19,0-.33.33-.33.86,0,1.19l1.88,1.88c.09.09.14.21.14.33s-.05.24-.13.33c-.18.18-.47.18-.65,0l-4.61-4.61c-.16-.16-.38-.25-.59-.25Z"/>
              <path class="mobile-cls-5" d="m336.03,402.64c-.06,0-.13-.01-.19-.04-1.49-.67-2.45-2.16-2.45-3.78,0-2.29,1.86-4.15,4.15-4.15,1.62,0,3.11.96,3.78,2.45.11.23,0,.51-.23.61-.23.11-.51,0-.61-.23-.52-1.16-1.68-1.9-2.94-1.9-1.78,0-3.23,1.45-3.23,3.23,0,1.26.75,2.41,1.9,2.94.23.11.33.38.23.61-.08.17-.25.27-.42.27Z"/>
            </g>
          </g>
        </g>
      </g>
      <g id="desktop_button_1" class="graph--btn" data-value="bowel_damage">
        <g id="bowel_damage_title" class="btn-title purple">
          <g>
            <path class="mobile-cls-17" d="m12.87,326.92v-3.9c0-.96.26-1.72.74-2.19.38-.38.85-.58,1.43-.58h.02c.95,0,1.47.5,1.81,1.1.37-.97.94-1.57,2.06-1.57h.02c1.54,0,2.3,1.25,2.3,3.14v3.99h-8.4Zm2.48-4.83c-.55,0-.86.43-.86,1.21v1.82h1.78v-1.7c0-.82-.26-1.33-.89-1.33h-.02Zm2.45.9v2.13h1.85v-2.19c0-.82-.29-1.31-.91-1.31h-.02c-.56,0-.91.42-.91,1.37Z"/>
            <path class="mobile-cls-17" d="m18.08,318.76h-.02c-1.85,0-3.35-1.49-3.35-3.49s1.48-3.47,3.32-3.47h.02c1.85,0,3.35,1.49,3.35,3.49s-1.47,3.47-3.32,3.47Zm0-5.16h-.02c-.95,0-1.78.68-1.78,1.69s.8,1.67,1.75,1.67h.02c.95,0,1.78-.68,1.78-1.69s-.8-1.67-1.75-1.67Z"/>
            <path class="mobile-cls-17" d="m14.83,311.31v-1.85l3.9-1.03-3.92-1.21v-1.57l3.93-1.22-3.91-1.06v-1.81l6.48,2v1.64l-3.95,1.24,3.95,1.26v1.63l-6.48,1.98Z"/>
            <path class="mobile-cls-17" d="m18.08,301.06h-.02c-1.83,0-3.35-1.31-3.35-3.18,0-2.15,1.67-3.13,3.49-3.13.14,0,.31.01.48.02v4.47c.83-.18,1.26-.76,1.26-1.57,0-.61-.19-1.06-.66-1.56l.92-1.04c.74.6,1.2,1.46,1.2,2.63,0,1.93-1.35,3.36-3.32,3.36Zm-.54-4.53c-.82.11-1.37.59-1.37,1.35s.54,1.25,1.37,1.39v-2.75Z"/>
            <path class="mobile-cls-17" d="m12.51,293.31v-1.82h8.75v1.82h-8.75Z"/>
            <path class="mobile-cls-17" d="m18.06,286.46h-.02c-2.15,0-3.32-1.4-3.32-2.93,0-.97.44-1.57.96-2h-3.17v-1.82h8.75v1.82h-.92c.6.44,1.04,1.06,1.04,2,0,1.5-1.18,2.93-3.32,2.93Zm0-4.95h-.02c-1.07,0-1.77.71-1.77,1.56s.7,1.57,1.77,1.57h.02c1.07,0,1.78-.72,1.78-1.57s-.71-1.56-1.78-1.56Z"/>
            <path class="mobile-cls-17" d="m19.42,278.46h-.02c-1.4,0-2.05-1.07-2.05-2.59,0-.65.11-1.12.26-1.57h-.11c-.76,0-1.18.47-1.18,1.38,0,.7.13,1.19.35,1.77l-1.39.46c-.31-.71-.52-1.4-.52-2.5,0-1,.26-1.71.72-2.17.48-.48,1.19-.7,2.05-.7h3.73v1.76h-.7c.49.44.82,1.05.82,1.94,0,1.21-.7,2.21-1.97,2.21Zm-.42-4.19h-.32c-.14.31-.24.72-.24,1.16,0,.78.31,1.26.89,1.26h.02c.49,0,.78-.41.78-1,0-.85-.47-1.43-1.13-1.43Z"/>
            <path class="mobile-cls-17" d="m14.83,270.97v-1.82h.91c-.54-.42-1.03-.97-1.03-1.89,0-.84.37-1.48,1.02-1.81-.66-.56-1.02-1.24-1.02-2.11,0-1.36.82-2.17,2.36-2.17h4.19v1.82h-3.59c-.86,0-1.31.38-1.31,1.07s.44,1.1,1.31,1.1h3.59v1.82h-3.59c-.86,0-1.31.38-1.31,1.07s.44,1.1,1.31,1.1h3.59v1.82h-6.43Z"/>
            <path class="mobile-cls-17" d="m19.42,259.95h-.02c-1.4,0-2.05-1.07-2.05-2.59,0-.65.11-1.12.26-1.57h-.11c-.76,0-1.18.47-1.18,1.38,0,.7.13,1.19.35,1.77l-1.39.46c-.31-.71-.52-1.4-.52-2.5,0-1,.26-1.71.72-2.17.48-.48,1.19-.7,2.05-.7h3.73v1.76h-.7c.49.44.82,1.05.82,1.94,0,1.21-.7,2.21-1.97,2.21Zm-.42-4.19h-.32c-.14.31-.24.72-.24,1.16,0,.78.31,1.26.89,1.26h.02c.49,0,.78-.41.78-1,0-.85-.47-1.43-1.13-1.43Z"/>
            <path class="mobile-cls-17" d="m22.53,252.43l-1.37-.62c.37-.66.59-1.32.59-2.17,0-1.25-.6-1.83-1.75-1.83h-.31c.65.54,1.04,1.13,1.04,2.1,0,1.5-1.09,2.85-3,2.85h-.02c-1.92,0-3-1.38-3-2.85,0-1,.42-1.58.96-2.08h-.84v-1.82h4.98c1.15,0,1.99.28,2.53.82.6.6.86,1.52.86,2.77,0,1.04-.24,2.03-.67,2.84Zm-4.8-4.63h-.02c-.88,0-1.49.68-1.49,1.57s.61,1.56,1.49,1.56h.02c.89,0,1.49-.67,1.49-1.56s-.61-1.57-1.49-1.57Z"/>
            <path class="mobile-cls-17" d="m18.08,244.68h-.02c-1.83,0-3.35-1.31-3.35-3.18,0-2.15,1.67-3.13,3.49-3.13.14,0,.31.01.48.02v4.47c.83-.18,1.26-.76,1.26-1.57,0-.61-.19-1.06-.66-1.56l.92-1.04c.74.6,1.2,1.46,1.2,2.63,0,1.93-1.35,3.36-3.32,3.36Zm-.54-4.53c-.82.11-1.37.59-1.37,1.36s.54,1.25,1.37,1.39v-2.75Z"/>
          </g>
        </g>
        <g id="graph_button_1" class="active-btn">
          <circle class="mobile-cls-3" cx="16.5" cy="402.51" r="16.5"/>
          <circle class="mobile-cls-2" cx="16.5" cy="402.51" r="15.06"/>
          <g>
            <path class="mobile-cls-13" d="m20.19,410.35h-8.69c-.76,0-1.38-.62-1.38-1.38,0-1.02.76-1.89,1.76-2.04l3.72-.58-6.28-6.28c-.69-.69-.69-1.8,0-2.49.69-.69,1.81-.69,2.5,0l1.63,1.63c.08-.27.23-.53.44-.74.63-.64,1.63-.69,2.32-.16.08-.28.23-.54.45-.76.64-.64,1.63-.69,2.32-.16.08-.28.23-.54.45-.76.69-.69,1.81-.69,2.5,0l3.47,3.81c.85.94,1.32,2.15,1.32,3.41,0,1.35-.53,2.63-1.48,3.58l-1.45,1.45c-.96.96-2.23,1.49-3.59,1.49Zm-9.62-12.37c-.21,0-.43.08-.59.25-.33.33-.33.87,0,1.19l6.92,6.92c.12.12.17.3.11.47-.05.17-.2.29-.37.31l-4.62.73c-.56.08-.98.56-.98,1.12,0,.25.21.46.46.46h8.69c1.11,0,2.15-.43,2.93-1.22l1.45-1.45c.78-.78,1.21-1.82,1.21-2.93,0-1.03-.38-2.02-1.08-2.79l-3.45-3.79c-.31-.31-.84-.31-1.17.02-.16.16-.25.37-.25.6s.09.44.25.59l.04.04c.18.18.18.47,0,.65-.18.18-.46.18-.64,0h0s0,0,0,0h0s0,0,0,0h0s0,0,0,0l-.97-.97c-.33-.33-.86-.33-1.19,0s-.33.86,0,1.19l.96.96c.09.09.14.21.14.33s-.05.24-.13.33c-.18.18-.47.18-.65,0l-1.88-1.88c-.33-.33-.86-.33-1.19,0-.33.33-.33.86,0,1.19l1.88,1.88c.09.09.14.21.14.33s-.05.24-.13.33c-.18.18-.47.18-.65,0l-4.61-4.61c-.16-.16-.38-.25-.59-.25Z"/>
            <path class="mobile-cls-13" d="m9.06,402.64c-.06,0-.13-.01-.19-.04-1.49-.67-2.45-2.16-2.45-3.78,0-2.29,1.86-4.15,4.15-4.15,1.62,0,3.11.96,3.78,2.45.11.23,0,.51-.23.61-.23.11-.51,0-.61-.23-.52-1.16-1.68-1.9-2.94-1.9-1.78,0-3.23,1.45-3.23,3.23,0,1.26.75,2.41,1.9,2.94.23.11.33.38.23.61-.08.17-.25.27-.42.27Z"/>
          </g>
        </g>
        <g id="active_graph_button_1" class="inactive-btn">
          <g id="active_btn-2" data-name="active_btn">
            <circle class="mobile-cls-8" cx="16.5" cy="402.51" r="16.5"/>
            <circle class="mobile-cls-14" cx="16.5" cy="402.51" r="15.06"/>
            <g>
              <path class="mobile-cls-13" d="m20.19,410.35h-8.69c-.76,0-1.38-.62-1.38-1.38,0-1.02.76-1.89,1.76-2.04l3.72-.58-6.28-6.28c-.69-.69-.69-1.8,0-2.49.69-.69,1.81-.69,2.5,0l1.63,1.63c.08-.27.23-.53.44-.74.63-.64,1.63-.69,2.32-.16.08-.28.23-.54.45-.76.64-.64,1.63-.69,2.32-.16.08-.28.23-.54.45-.76.69-.69,1.81-.69,2.5,0l3.47,3.81c.85.94,1.32,2.15,1.32,3.41,0,1.35-.53,2.63-1.48,3.58l-1.45,1.45c-.96.96-2.23,1.49-3.59,1.49Zm-9.62-12.37c-.21,0-.43.08-.59.25-.33.33-.33.87,0,1.19l6.92,6.92c.12.12.17.3.11.47-.05.17-.2.29-.37.31l-4.62.73c-.56.08-.98.56-.98,1.12,0,.25.21.46.46.46h8.69c1.11,0,2.15-.43,2.93-1.22l1.45-1.45c.78-.78,1.21-1.82,1.21-2.93,0-1.03-.38-2.02-1.08-2.79l-3.45-3.79c-.31-.31-.84-.31-1.17.02-.16.16-.25.37-.25.6s.09.44.25.59l.04.04c.18.18.18.47,0,.65-.18.18-.46.18-.64,0h0s0,0,0,0h0s0,0,0,0h0s0,0,0,0l-.97-.97c-.33-.33-.86-.33-1.19,0s-.33.86,0,1.19l.96.96c.09.09.14.21.14.33s-.05.24-.13.33c-.18.18-.47.18-.65,0l-1.88-1.88c-.33-.33-.86-.33-1.19,0-.33.33-.33.86,0,1.19l1.88,1.88c.09.09.14.21.14.33s-.05.24-.13.33c-.18.18-.47.18-.65,0l-4.61-4.61c-.16-.16-.38-.25-.59-.25Z"/>
              <path class="mobile-cls-13" d="m9.06,402.64c-.06,0-.13-.01-.19-.04-1.49-.67-2.45-2.16-2.45-3.78,0-2.29,1.86-4.15,4.15-4.15,1.62,0,3.11.96,3.78,2.45.11.23,0,.51-.23.61-.23.11-.51,0-.61-.23-.52-1.16-1.68-1.9-2.94-1.9-1.78,0-3.23,1.45-3.23,3.23,0,1.26.75,2.41,1.9,2.94.23.11.33.38.23.61-.08.17-.25.27-.42.27Z"/>
            </g>
          </g>
          <g id="inactive_btn-2" data-name="inactive_btn" class="tooltip-mobile" title="Click here">
            <circle class="mobile-cls-11" cx="16.5" cy="402.51" r="16.5"/>
            <circle class="mobile-cls-18" cx="16.5" cy="402.51" r="15.06"/>
            <g>
              <path class="mobile-cls-5" d="m20.19,410.35h-8.69c-.76,0-1.38-.62-1.38-1.38,0-1.02.76-1.89,1.76-2.04l3.72-.58-6.28-6.28c-.69-.69-.69-1.8,0-2.49.69-.69,1.81-.69,2.5,0l1.63,1.63c.08-.27.23-.53.44-.74.63-.64,1.63-.69,2.32-.16.08-.28.23-.54.45-.76.64-.64,1.63-.69,2.32-.16.08-.28.23-.54.45-.76.69-.69,1.81-.69,2.5,0l3.47,3.81c.85.94,1.32,2.15,1.32,3.41,0,1.35-.53,2.63-1.48,3.58l-1.45,1.45c-.96.96-2.23,1.49-3.59,1.49Zm-9.62-12.37c-.21,0-.43.08-.59.25-.33.33-.33.87,0,1.19l6.92,6.92c.12.12.17.3.11.47-.05.17-.2.29-.37.31l-4.62.73c-.56.08-.98.56-.98,1.12,0,.25.21.46.46.46h8.69c1.11,0,2.15-.43,2.93-1.22l1.45-1.45c.78-.78,1.21-1.82,1.21-2.93,0-1.03-.38-2.02-1.08-2.79l-3.45-3.79c-.31-.31-.84-.31-1.17.02-.16.16-.25.37-.25.6s.09.44.25.59l.04.04c.18.18.18.47,0,.65-.18.18-.46.18-.64,0h0s0,0,0,0h0s0,0,0,0h0s0,0,0,0l-.97-.97c-.33-.33-.86-.33-1.19,0s-.33.86,0,1.19l.96.96c.09.09.14.21.14.33s-.05.24-.13.33c-.18.18-.47.18-.65,0l-1.88-1.88c-.33-.33-.86-.33-1.19,0-.33.33-.33.86,0,1.19l1.88,1.88c.09.09.14.21.14.33s-.05.24-.13.33c-.18.18-.47.18-.65,0l-4.61-4.61c-.16-.16-.38-.25-.59-.25Z"/>
              <path class="mobile-cls-5" d="m9.06,402.64c-.06,0-.13-.01-.19-.04-1.49-.67-2.45-2.16-2.45-3.78,0-2.29,1.86-4.15,4.15-4.15,1.62,0,3.11.96,3.78,2.45.11.23,0,.51-.23.61-.23.11-.51,0-.61-.23-.52-1.16-1.68-1.9-2.94-1.9-1.78,0-3.23,1.45-3.23,3.23,0,1.26.75,2.41,1.9,2.94.23.11.33.38.23.61-.08.17-.25.27-.42.27Z"/>
            </g>
          </g>
        </g>
      </g>
      <g id="mobile_graph_base">
        <g>
          <line class="mobile-cls-25" x1="39.65" y1="434" x2="311.98" y2="434"/>
          <polygon class="mobile-cls-10" points="311.04 437.23 316.63 434 311.04 430.77 311.04 437.23"/>
        </g>
        <g>
          <line class="mobile-cls-21" x1="316.63" y1="101.97" x2="316.63" y2="434.64"/>
          <polygon class="mobile-cls-4" points="313.4 102.92 316.63 97.32 319.87 102.92 313.4 102.92"/>
        </g>
        <g>
          <line class="mobile-cls-22" x1="39.65" y1="101.97" x2="39.65" y2="434.99"/>
          <polygon class="mobile-cls-17" points="36.42 102.92 39.65 97.32 42.88 102.92 36.42 102.92"/>
        </g>
      </g>
      <g id="mobile_graph_title">
        <path class="mobile-cls-10" d="m54.14.46h3.54c2.13,0,3.54,1.13,3.54,3v.03c0,2.04-1.7,3.09-3.71,3.09h-2.3v3.34h-1.07V.46Zm3.4,5.15c1.57,0,2.59-.84,2.59-2.08v-.03c0-1.35-1.01-2.05-2.54-2.05h-2.39v4.16h2.34Z"/>
        <path class="mobile-cls-10" d="m62.98,2.93h1.04v1.82c.51-1.16,1.53-2,2.85-1.95v1.12h-.08c-1.53,0-2.77,1.09-2.77,3.2v2.78h-1.04V2.93Z"/>
        <path class="mobile-cls-10" d="m67.72,6.46v-.03c0-1.97,1.54-3.65,3.65-3.65s3.63,1.65,3.63,3.62v.03c0,1.97-1.55,3.65-3.66,3.65s-3.62-1.65-3.62-3.62Zm6.21,0v-.03c0-1.5-1.12-2.73-2.59-2.73s-2.55,1.23-2.55,2.7v.03c0,1.5,1.11,2.71,2.58,2.71s2.57-1.22,2.57-2.69Z"/>
        <path class="mobile-cls-10" d="m76.79,11.13l.47-.81c.8.58,1.69.89,2.69.89,1.54,0,2.54-.85,2.54-2.48v-.82c-.61.81-1.46,1.47-2.74,1.47-1.67,0-3.28-1.26-3.28-3.27v-.03c0-2.04,1.62-3.29,3.28-3.29,1.31,0,2.16.65,2.73,1.4v-1.26h1.04v5.77c0,1.08-.32,1.9-.89,2.47-.62.62-1.55.93-2.66.93s-2.24-.32-3.17-.97Zm5.73-5.04v-.03c0-1.43-1.24-2.36-2.57-2.36s-2.42.92-2.42,2.35v.03c0,1.4,1.12,2.38,2.42,2.38s2.57-.96,2.57-2.36Z"/>
        <path class="mobile-cls-10" d="m85.83,2.93h1.04v1.82c.51-1.16,1.53-2,2.85-1.95v1.12h-.08c-1.53,0-2.77,1.09-2.77,3.2v2.78h-1.04V2.93Z"/>
        <path class="mobile-cls-10" d="m90.57,6.44v-.03c0-2.01,1.42-3.63,3.35-3.63,2.07,0,3.25,1.65,3.25,3.69,0,.13,0,.22-.01.34h-5.54c.15,1.51,1.22,2.36,2.46,2.36.96,0,1.63-.39,2.2-.99l.65.58c-.7.78-1.55,1.31-2.88,1.31-1.92,0-3.48-1.47-3.48-3.63Zm5.55-.41c-.11-1.27-.84-2.38-2.23-2.38-1.21,0-2.13,1.01-2.27,2.38h4.5Z"/>
        <path class="mobile-cls-10" d="m98.42,9.02l.53-.74c.76.57,1.59.89,2.42.89s1.45-.43,1.45-1.11v-.03c0-.7-.82-.97-1.74-1.23-1.09-.31-2.31-.69-2.31-1.97v-.03c0-1.2,1-2,2.38-2,.85,0,1.8.3,2.51.77l-.47.78c-.65-.42-1.39-.68-2.07-.68-.82,0-1.35.43-1.35,1.01v.03c0,.66.86.92,1.8,1.2,1.08.32,2.24.74,2.24,2v.03c0,1.32-1.09,2.09-2.48,2.09-1,0-2.11-.39-2.89-1.03Z"/>
        <path class="mobile-cls-10" d="m105.01,9.02l.53-.74c.76.57,1.59.89,2.42.89s1.45-.43,1.45-1.11v-.03c0-.7-.82-.97-1.74-1.23-1.09-.31-2.31-.69-2.31-1.97v-.03c0-1.2,1-2,2.38-2,.85,0,1.8.3,2.51.77l-.47.78c-.65-.42-1.39-.68-2.07-.68-.82,0-1.35.43-1.35,1.01v.03c0,.66.86.92,1.8,1.2,1.08.32,2.24.74,2.24,2v.03c0,1.32-1.09,2.09-2.48,2.09-1,0-2.11-.39-2.89-1.03Z"/>
        <path class="mobile-cls-10" d="m112.34.26h1.19v1.15h-1.19V.26Zm.07,2.67h1.04v6.98h-1.04V2.93Z"/>
        <path class="mobile-cls-10" d="m115.43,6.46v-.03c0-1.97,1.54-3.65,3.65-3.65s3.63,1.65,3.63,3.62v.03c0,1.97-1.55,3.65-3.66,3.65s-3.62-1.65-3.62-3.62Zm6.21,0v-.03c0-1.5-1.12-2.73-2.59-2.73s-2.55,1.23-2.55,2.7v.03c0,1.5,1.11,2.71,2.58,2.71s2.57-1.22,2.57-2.69Z"/>
        <path class="mobile-cls-10" d="m124.58,2.93h1.04v1.21c.46-.76,1.19-1.36,2.39-1.36,1.69,0,2.67,1.13,2.67,2.79v4.33h-1.04v-4.08c0-1.3-.7-2.11-1.93-2.11s-2.09.88-2.09,2.19v4h-1.04V2.93Z"/>
        <path class="mobile-cls-10" d="m136.51,6.46v-.03c0-1.97,1.54-3.65,3.65-3.65s3.63,1.65,3.63,3.62v.03c0,1.97-1.55,3.65-3.66,3.65s-3.62-1.65-3.62-3.62Zm6.21,0v-.03c0-1.5-1.12-2.73-2.59-2.73s-2.55,1.23-2.55,2.7v.03c0,1.5,1.11,2.71,2.58,2.71s2.57-1.22,2.57-2.69Z"/>
        <path class="mobile-cls-10" d="m146.06,3.85h-.96v-.9h.96v-.61c0-.8.22-1.4.61-1.8.35-.35.86-.54,1.5-.54.49,0,.81.05,1.15.18v.9c-.38-.11-.66-.17-1.01-.17-.81,0-1.22.49-1.22,1.49v.57h2.21v.89h-2.2v6.06h-1.04V3.85Z"/>
        <path class="mobile-cls-10" d="m154.26,6.44v-.03c0-2.28,1.66-3.63,3.34-3.63,1.3,0,2.13.7,2.67,1.49V.05h1.04v9.86h-1.04v-1.4c-.57.84-1.39,1.55-2.67,1.55-1.67,0-3.34-1.32-3.34-3.62Zm6.05-.01v-.03c0-1.61-1.23-2.69-2.52-2.69s-2.46,1-2.46,2.69v.03c0,1.65,1.13,2.7,2.46,2.7s2.52-1.09,2.52-2.7Z"/>
        <path class="mobile-cls-10" d="m163.66.26h1.19v1.15h-1.19V.26Zm.07,2.67h1.04v6.98h-1.04V2.93Z"/>
        <path class="mobile-cls-10" d="m167.1,11.13l.47-.81c.8.58,1.69.89,2.69.89,1.54,0,2.54-.85,2.54-2.48v-.82c-.61.81-1.46,1.47-2.74,1.47-1.67,0-3.28-1.26-3.28-3.27v-.03c0-2.04,1.62-3.29,3.28-3.29,1.31,0,2.16.65,2.73,1.4v-1.26h1.04v5.77c0,1.08-.32,1.9-.89,2.47-.62.62-1.55.93-2.66.93s-2.24-.32-3.17-.97Zm5.73-5.04v-.03c0-1.43-1.24-2.36-2.57-2.36s-2.42.92-2.42,2.35v.03c0,1.4,1.12,2.38,2.42,2.38s2.57-.96,2.57-2.36Z"/>
        <path class="mobile-cls-10" d="m175.72,6.44v-.03c0-2.01,1.42-3.63,3.35-3.63,2.07,0,3.25,1.65,3.25,3.69,0,.13,0,.22-.01.34h-5.54c.15,1.51,1.22,2.36,2.46,2.36.96,0,1.63-.39,2.2-.99l.65.58c-.7.78-1.55,1.31-2.88,1.31-1.92,0-3.48-1.47-3.48-3.63Zm5.55-.41c-.11-1.27-.84-2.38-2.23-2.38-1.21,0-2.13,1.01-2.27,2.38h4.5Z"/>
        <path class="mobile-cls-10" d="m183.56,9.02l.53-.74c.76.57,1.59.89,2.42.89s1.45-.43,1.45-1.11v-.03c0-.7-.82-.97-1.74-1.23-1.09-.31-2.31-.69-2.31-1.97v-.03c0-1.2,1-2,2.38-2,.85,0,1.8.3,2.51.77l-.47.78c-.65-.42-1.39-.68-2.07-.68-.82,0-1.35.43-1.35,1.01v.03c0,.66.86.92,1.8,1.2,1.08.32,2.24.74,2.24,2v.03c0,1.32-1.09,2.09-2.48,2.09-1,0-2.11-.39-2.89-1.03Z"/>
        <path class="mobile-cls-10" d="m191.09,8.06V3.85h-.97v-.92h.97V.82h1.04v2.11h2.21v.92h-2.21v4.08c0,.85.47,1.16,1.17,1.16.35,0,.65-.07,1.01-.24v.89c-.37.19-.76.3-1.26.3-1.12,0-1.97-.55-1.97-1.97Z"/>
        <path class="mobile-cls-10" d="m196.21.26h1.19v1.15h-1.19V.26Zm.07,2.67h1.04v6.98h-1.04V2.93Z"/>
        <path class="mobile-cls-10" d="m199.04,2.93h1.15l2.35,5.79,2.36-5.79h1.12l-3.04,7.04h-.92l-3.02-7.04Z"/>
        <path class="mobile-cls-10" d="m206.82,6.44v-.03c0-2.01,1.42-3.63,3.35-3.63,2.07,0,3.25,1.65,3.25,3.69,0,.13,0,.22-.01.34h-5.54c.15,1.51,1.22,2.36,2.46,2.36.96,0,1.63-.39,2.2-.99l.65.58c-.7.78-1.55,1.31-2.88,1.31-1.92,0-3.48-1.47-3.48-3.63Zm5.55-.41c-.11-1.27-.84-2.38-2.23-2.38-1.21,0-2.13,1.01-2.27,2.38h4.5Z"/>
        <path class="mobile-cls-10" d="m218.89,6.44v-.03c0-2.28,1.66-3.63,3.34-3.63,1.3,0,2.13.7,2.67,1.49V.05h1.04v9.86h-1.04v-1.4c-.57.84-1.39,1.55-2.67,1.55-1.67,0-3.34-1.32-3.34-3.62Zm6.05-.01v-.03c0-1.61-1.23-2.69-2.52-2.69s-2.46,1-2.46,2.69v.03c0,1.65,1.13,2.7,2.46,2.7s2.52-1.09,2.52-2.7Z"/>
        <path class="mobile-cls-10" d="m227.73,7.89v-.03c0-1.47,1.21-2.25,2.98-2.25.89,0,1.53.12,2.15.3v-.24c0-1.26-.77-1.9-2.08-1.9-.82,0-1.47.22-2.12.51l-.31-.85c.77-.35,1.53-.58,2.54-.58s1.74.26,2.25.77c.47.47.72,1.15.72,2.04v4.27h-1v-1.05c-.49.63-1.3,1.2-2.53,1.2-1.3,0-2.61-.74-2.61-2.17Zm5.14-.54v-.68c-.51-.15-1.2-.3-2.05-.3-1.31,0-2.04.57-2.04,1.45v.03c0,.88.81,1.39,1.75,1.39,1.28,0,2.34-.78,2.34-1.89Z"/>
        <path class="mobile-cls-10" d="m236.07,2.93h1.04v1.17c.46-.69,1.08-1.32,2.25-1.32s1.86.61,2.24,1.39c.5-.77,1.24-1.39,2.46-1.39,1.61,0,2.59,1.08,2.59,2.81v4.32h-1.04v-4.08c0-1.35-.68-2.11-1.81-2.11-1.05,0-1.93.78-1.93,2.16v4.02h-1.03v-4.11c0-1.31-.69-2.08-1.8-2.08s-1.94.92-1.94,2.2v3.98h-1.04V2.93Z"/>
        <path class="mobile-cls-10" d="m248.34,7.89v-.03c0-1.47,1.21-2.25,2.98-2.25.89,0,1.53.12,2.15.3v-.24c0-1.26-.77-1.9-2.08-1.9-.82,0-1.47.22-2.12.51l-.31-.85c.77-.35,1.53-.58,2.54-.58s1.74.26,2.25.77c.47.47.72,1.15.72,2.04v4.27h-1v-1.05c-.49.63-1.3,1.2-2.53,1.2-1.3,0-2.61-.74-2.61-2.17Zm5.14-.54v-.68c-.51-.15-1.2-.3-2.05-.3-1.31,0-2.04.57-2.04,1.45v.03c0,.88.81,1.39,1.75,1.39,1.28,0,2.34-.78,2.34-1.89Z"/>
        <path class="mobile-cls-10" d="m256.61,11.13l.47-.81c.8.58,1.69.89,2.69.89,1.54,0,2.54-.85,2.54-2.48v-.82c-.61.81-1.46,1.47-2.74,1.47-1.67,0-3.28-1.26-3.28-3.27v-.03c0-2.04,1.62-3.29,3.28-3.29,1.31,0,2.16.65,2.73,1.4v-1.26h1.04v5.77c0,1.08-.32,1.9-.89,2.47-.62.62-1.55.93-2.66.93s-2.24-.32-3.17-.97Zm5.73-5.04v-.03c0-1.43-1.24-2.36-2.57-2.36s-2.42.92-2.42,2.35v.03c0,1.4,1.12,2.38,2.42,2.38s2.57-.96,2.57-2.36Z"/>
        <path class="mobile-cls-10" d="m265.22,6.44v-.03c0-2.01,1.42-3.63,3.35-3.63,2.07,0,3.25,1.65,3.25,3.69,0,.13,0,.22-.01.34h-5.54c.15,1.51,1.22,2.36,2.46,2.36.96,0,1.63-.39,2.2-.99l.65.58c-.7.78-1.55,1.31-2.88,1.31-1.92,0-3.48-1.47-3.48-3.63Zm5.55-.41c-.11-1.27-.84-2.38-2.23-2.38-1.21,0-2.13,1.01-2.27,2.38h4.5Z"/>
        <path class="mobile-cls-10" d="m277.17,7.89v-.03c0-1.47,1.21-2.25,2.98-2.25.89,0,1.53.12,2.15.3v-.24c0-1.26-.77-1.9-2.08-1.9-.82,0-1.47.22-2.12.51l-.31-.85c.77-.35,1.53-.58,2.54-.58s1.74.26,2.25.77c.47.47.72,1.15.72,2.04v4.27h-1v-1.05c-.49.63-1.3,1.2-2.53,1.2-1.3,0-2.61-.74-2.61-2.17Zm5.14-.54v-.68c-.51-.15-1.2-.3-2.05-.3-1.31,0-2.04.57-2.04,1.45v.03c0,.88.81,1.39,1.75,1.39,1.28,0,2.34-.78,2.34-1.89Z"/>
        <path class="mobile-cls-10" d="m285.51,2.93h1.04v1.21c.46-.76,1.19-1.36,2.39-1.36,1.69,0,2.67,1.13,2.67,2.79v4.33h-1.04v-4.08c0-1.3-.7-2.11-1.93-2.11s-2.09.88-2.09,2.19v4h-1.04V2.93Z"/>
        <path class="mobile-cls-10" d="m293.42,6.44v-.03c0-2.28,1.66-3.63,3.34-3.63,1.3,0,2.13.7,2.67,1.49V.05h1.04v9.86h-1.04v-1.4c-.57.84-1.39,1.55-2.67,1.55-1.67,0-3.34-1.32-3.34-3.62Zm6.05-.01v-.03c0-1.61-1.23-2.69-2.52-2.69s-2.46,1-2.46,2.69v.03c0,1.65,1.13,2.7,2.46,2.7s2.52-1.09,2.52-2.7Z"/>
        <path class="mobile-cls-10" d="m29.63,16.46h1.19v1.15h-1.19v-1.15Zm.07,2.67h1.04v6.98h-1.04v-6.98Z"/>
        <path class="mobile-cls-10" d="m33.16,19.13h1.04v1.21c.46-.76,1.19-1.36,2.39-1.36,1.69,0,2.67,1.13,2.67,2.79v4.33h-1.04v-4.08c0-1.3-.7-2.11-1.93-2.11s-2.09.88-2.09,2.19v4h-1.04v-6.98Z"/>
        <path class="mobile-cls-10" d="m41.87,20.05h-.96v-.9h.96v-.61c0-.8.22-1.4.61-1.8.35-.35.87-.54,1.5-.54.49,0,.81.05,1.15.18v.9c-.38-.11-.66-.17-1.01-.17-.81,0-1.22.49-1.22,1.49v.57h2.21v.89h-2.2v6.06h-1.04v-6.06Zm4.67-3.79h1.03v9.86h-1.03v-9.86Z"/>
        <path class="mobile-cls-10" d="m49.47,24.09v-.03c0-1.47,1.21-2.25,2.98-2.25.89,0,1.53.12,2.15.3v-.24c0-1.26-.77-1.9-2.08-1.9-.82,0-1.47.22-2.12.51l-.31-.85c.77-.35,1.53-.58,2.54-.58s1.74.26,2.25.77c.47.47.72,1.15.72,2.04v4.27h-1v-1.05c-.49.63-1.3,1.2-2.53,1.2-1.3,0-2.61-.74-2.61-2.17Zm5.14-.54v-.68c-.51-.15-1.2-.3-2.05-.3-1.31,0-2.04.57-2.04,1.45v.03c0,.88.81,1.39,1.75,1.39,1.28,0,2.34-.78,2.34-1.89Z"/>
        <path class="mobile-cls-10" d="m57.81,19.13h1.04v1.17c.46-.69,1.08-1.32,2.25-1.32s1.86.61,2.24,1.39c.5-.77,1.24-1.39,2.46-1.39,1.61,0,2.59,1.08,2.59,2.81v4.32h-1.04v-4.08c0-1.35-.68-2.11-1.81-2.11-1.05,0-1.93.78-1.93,2.16v4.02h-1.03v-4.11c0-1.31-.69-2.08-1.8-2.08s-1.94.92-1.94,2.2v3.98h-1.04v-6.98Z"/>
        <path class="mobile-cls-10" d="m70.61,19.13h1.04v1.17c.46-.69,1.08-1.32,2.25-1.32s1.86.61,2.24,1.39c.5-.77,1.24-1.39,2.46-1.39,1.61,0,2.59,1.08,2.59,2.81v4.32h-1.04v-4.08c0-1.35-.68-2.11-1.81-2.11-1.05,0-1.93.78-1.93,2.16v4.02h-1.03v-4.11c0-1.31-.69-2.08-1.8-2.08s-1.94.92-1.94,2.2v3.98h-1.04v-6.98Z"/>
        <path class="mobile-cls-10" d="m82.88,24.09v-.03c0-1.47,1.21-2.25,2.98-2.25.89,0,1.53.12,2.15.3v-.24c0-1.26-.77-1.9-2.08-1.9-.82,0-1.47.22-2.12.51l-.31-.85c.77-.35,1.53-.58,2.54-.58s1.74.26,2.25.77c.47.47.72,1.15.72,2.04v4.27h-1v-1.05c-.49.63-1.3,1.2-2.53,1.2-1.3,0-2.61-.74-2.61-2.17Zm5.14-.54v-.68c-.51-.15-1.2-.3-2.05-.3-1.31,0-2.04.57-2.04,1.45v.03c0,.88.81,1.39,1.75,1.39,1.28,0,2.34-.78,2.34-1.89Z"/>
        <path class="mobile-cls-10" d="m91.52,24.26v-4.21h-.97v-.92h.97v-2.11h1.04v2.11h2.21v.92h-2.21v4.08c0,.85.47,1.16,1.17,1.16.35,0,.65-.07,1.01-.24v.89c-.37.19-.76.3-1.26.3-1.12,0-1.97-.55-1.97-1.97Z"/>
        <path class="mobile-cls-10" d="m95.97,22.66v-.03c0-1.97,1.54-3.65,3.65-3.65s3.63,1.65,3.63,3.62v.03c0,1.97-1.55,3.65-3.66,3.65s-3.62-1.65-3.62-3.62Zm6.21,0v-.03c0-1.5-1.12-2.73-2.59-2.73s-2.55,1.23-2.55,2.7v.03c0,1.5,1.11,2.71,2.58,2.71s2.57-1.22,2.57-2.69Z"/>
        <path class="mobile-cls-10" d="m105.13,19.13h1.04v1.82c.51-1.16,1.53-2,2.85-1.95v1.12h-.08c-1.53,0-2.77,1.09-2.77,3.2v2.78h-1.04v-6.98Z"/>
        <path class="mobile-cls-10" d="m115.82,19.13h1.11l-2.93,7.21c-.59,1.45-1.27,1.97-2.32,1.97-.58,0-1.01-.12-1.49-.35l.35-.82c.34.18.65.26,1.09.26.62,0,1.01-.32,1.43-1.31l-3.17-6.95h1.15l2.54,5.82,2.24-5.82Z"/>
        <path class="mobile-cls-10" d="m122.09,24.09v-.03c0-1.47,1.21-2.25,2.98-2.25.89,0,1.53.12,2.15.3v-.24c0-1.26-.77-1.9-2.08-1.9-.82,0-1.47.22-2.12.51l-.31-.85c.77-.35,1.53-.58,2.54-.58s1.74.26,2.25.77c.47.47.72,1.15.72,2.04v4.27h-1v-1.05c-.49.63-1.3,1.2-2.53,1.2-1.3,0-2.61-.74-2.61-2.17Zm5.14-.54v-.68c-.51-.15-1.2-.3-2.05-.3-1.31,0-2.04.57-2.04,1.45v.03c0,.88.81,1.39,1.75,1.39,1.28,0,2.34-.78,2.34-1.89Z"/>
        <path class="mobile-cls-10" d="m130.01,22.66v-.03c0-1.97,1.54-3.65,3.58-3.65,1.32,0,2.15.55,2.8,1.24l-.69.73c-.55-.58-1.17-1.05-2.12-1.05-1.42,0-2.5,1.2-2.5,2.7v.03c0,1.51,1.11,2.71,2.57,2.71.89,0,1.58-.45,2.13-1.04l.66.62c-.7.78-1.54,1.35-2.85,1.35-2.04,0-3.58-1.66-3.58-3.62Z"/>
        <path class="mobile-cls-10" d="m138.51,24.26v-4.21h-.97v-.92h.97v-2.11h1.04v2.11h2.21v.92h-2.21v4.08c0,.85.47,1.16,1.17,1.16.35,0,.65-.07,1.01-.24v.89c-.36.19-.76.3-1.26.3-1.12,0-1.97-.55-1.97-1.97Z"/>
        <path class="mobile-cls-10" d="m143.63,16.46h1.19v1.15h-1.19v-1.15Zm.07,2.67h1.04v6.98h-1.04v-6.98Z"/>
        <path class="mobile-cls-10" d="m146.46,19.13h1.15l2.35,5.79,2.36-5.79h1.12l-3.04,7.04h-.92l-3.02-7.04Z"/>
        <path class="mobile-cls-10" d="m155.1,16.46h1.19v1.15h-1.19v-1.15Zm.07,2.67h1.04v6.98h-1.04v-6.98Z"/>
        <path class="mobile-cls-10" d="m158.99,24.26v-4.21h-.97v-.92h.97v-2.11h1.04v2.11h2.21v.92h-2.21v4.08c0,.85.47,1.16,1.17,1.16.35,0,.65-.07,1.01-.24v.89c-.36.19-.76.3-1.26.3-1.12,0-1.97-.55-1.97-1.97Z"/>
        <path class="mobile-cls-10" d="m169.31,19.13h1.11l-2.93,7.21c-.59,1.45-1.27,1.97-2.32,1.97-.58,0-1.01-.12-1.49-.35l.35-.82c.34.18.65.26,1.09.26.62,0,1.01-.32,1.43-1.31l-3.17-6.95h1.15l2.54,5.82,2.24-5.82Z"/>
        <path class="mobile-cls-10" d="m176.13,16.46h1.19v1.15h-1.19v-1.15Zm.07,2.67h1.04v6.98h-1.04v-6.98Z"/>
        <path class="mobile-cls-10" d="m179.66,19.13h1.04v1.21c.46-.76,1.19-1.36,2.39-1.36,1.69,0,2.67,1.13,2.67,2.79v4.33h-1.04v-4.08c0-1.3-.7-2.11-1.93-2.11s-2.09.88-2.09,2.19v4h-1.04v-6.98Z"/>
        <path class="mobile-cls-10" d="m191.5,24.09v-.03c0-1.47,1.21-2.25,2.98-2.25.89,0,1.53.12,2.15.3v-.24c0-1.26-.77-1.9-2.08-1.9-.82,0-1.47.22-2.12.51l-.31-.85c.77-.35,1.53-.58,2.54-.58s1.74.26,2.25.77c.47.47.72,1.15.72,2.04v4.27h-1v-1.05c-.49.63-1.3,1.2-2.53,1.2-1.3,0-2.61-.74-2.61-2.17Zm5.14-.54v-.68c-.51-.15-1.2-.3-2.05-.3-1.31,0-2.04.57-2.04,1.45v.03c0,.88.81,1.39,1.75,1.39,1.28,0,2.34-.78,2.34-1.89Z"/>
        <path class="mobile-cls-10" d="m204.26,24.26v-4.21h-.97v-.92h.97v-2.11h1.04v2.11h2.21v.92h-2.21v4.08c0,.85.47,1.16,1.17,1.16.35,0,.65-.07,1.01-.24v.89c-.37.19-.76.3-1.26.3-1.12,0-1.97-.55-1.97-1.97Z"/>
        <path class="mobile-cls-10" d="m209.34,16.25h1.04v4.09c.46-.76,1.19-1.36,2.39-1.36,1.69,0,2.67,1.13,2.67,2.79v4.33h-1.04v-4.08c0-1.3-.7-2.11-1.93-2.11s-2.09.88-2.09,2.19v4h-1.04v-9.86Z"/>
        <path class="mobile-cls-10" d="m217.23,22.64v-.03c0-2.01,1.42-3.63,3.35-3.63,2.07,0,3.25,1.65,3.25,3.69,0,.13,0,.22-.01.34h-5.54c.15,1.51,1.22,2.36,2.46,2.36.96,0,1.63-.39,2.2-.99l.65.58c-.7.78-1.55,1.31-2.88,1.31-1.92,0-3.48-1.47-3.48-3.63Zm5.55-.41c-.11-1.27-.84-2.38-2.23-2.38-1.21,0-2.13,1.01-2.27,2.38h4.5Z"/>
        <path class="mobile-cls-10" d="m225.22,22.66v-.03c0-1.97,1.54-3.65,3.65-3.65s3.63,1.65,3.63,3.62v.03c0,1.97-1.55,3.65-3.66,3.65s-3.62-1.65-3.62-3.62Zm6.21,0v-.03c0-1.5-1.12-2.73-2.59-2.73s-2.55,1.23-2.55,2.7v.03c0,1.5,1.11,2.71,2.58,2.71s2.57-1.22,2.57-2.69Z"/>
        <path class="mobile-cls-10" d="m234.37,19.13h1.04v1.82c.51-1.16,1.53-2,2.85-1.95v1.12h-.08c-1.53,0-2.77,1.09-2.77,3.2v2.78h-1.04v-6.98Z"/>
        <path class="mobile-cls-10" d="m239.11,22.64v-.03c0-2.01,1.42-3.63,3.35-3.63,2.07,0,3.25,1.65,3.25,3.69,0,.13,0,.22-.01.34h-5.54c.15,1.51,1.22,2.36,2.46,2.36.96,0,1.63-.39,2.2-.99l.65.58c-.7.78-1.55,1.31-2.88,1.31-1.92,0-3.48-1.47-3.48-3.63Zm5.55-.41c-.11-1.27-.84-2.38-2.23-2.38-1.21,0-2.13,1.01-2.27,2.38h4.5Z"/>
        <path class="mobile-cls-10" d="m247.9,24.26v-4.21h-.97v-.92h.97v-2.11h1.04v2.11h2.21v.92h-2.21v4.08c0,.85.47,1.16,1.17,1.16.35,0,.65-.07,1.01-.24v.89c-.36.19-.76.3-1.26.3-1.12,0-1.97-.55-1.97-1.97Z"/>
        <path class="mobile-cls-10" d="m253.02,16.46h1.19v1.15h-1.19v-1.15Zm.07,2.67h1.04v6.98h-1.04v-6.98Z"/>
        <path class="mobile-cls-10" d="m256.11,22.66v-.03c0-1.97,1.54-3.65,3.58-3.65,1.32,0,2.15.55,2.8,1.24l-.69.73c-.55-.58-1.17-1.05-2.12-1.05-1.42,0-2.5,1.2-2.5,2.7v.03c0,1.51,1.11,2.71,2.57,2.71.89,0,1.58-.45,2.13-1.04l.66.62c-.7.78-1.54,1.35-2.85,1.35-2.04,0-3.58-1.66-3.58-3.62Z"/>
        <path class="mobile-cls-10" d="m263.72,24.09v-.03c0-1.47,1.21-2.25,2.98-2.25.89,0,1.53.12,2.15.3v-.24c0-1.26-.77-1.9-2.08-1.9-.82,0-1.47.22-2.12.51l-.31-.85c.77-.35,1.53-.58,2.54-.58s1.74.26,2.25.77c.47.47.72,1.15.72,2.04v4.27h-1v-1.05c-.49.63-1.3,1.2-2.53,1.2-1.3,0-2.61-.74-2.61-2.17Zm5.14-.54v-.68c-.51-.15-1.2-.3-2.05-.3-1.31,0-2.04.57-2.04,1.45v.03c0,.88.81,1.39,1.75,1.39,1.28,0,2.34-.78,2.34-1.89Z"/>
        <path class="mobile-cls-10" d="m272.16,16.25h1.04v9.86h-1.04v-9.86Z"/>
        <path class="mobile-cls-10" d="m279.66,19.13h1.04v1.4c.57-.84,1.39-1.55,2.67-1.55,1.67,0,3.33,1.32,3.33,3.62v.03c0,2.28-1.65,3.63-3.33,3.63-1.3,0-2.13-.7-2.67-1.49v3.5h-1.04v-9.14Zm5.98,3.51v-.03c0-1.65-1.13-2.7-2.46-2.7s-2.52,1.09-2.52,2.69v.03c0,1.62,1.23,2.7,2.52,2.7s2.46-1,2.46-2.69Z"/>
        <path class="mobile-cls-10" d="m288.1,24.09v-.03c0-1.47,1.21-2.25,2.98-2.25.89,0,1.53.12,2.15.3v-.24c0-1.26-.77-1.9-2.08-1.9-.82,0-1.47.22-2.12.51l-.31-.85c.77-.35,1.53-.58,2.54-.58s1.74.26,2.25.77c.47.47.72,1.15.72,2.04v4.27h-1v-1.05c-.49.63-1.3,1.2-2.53,1.2-1.3,0-2.61-.74-2.61-2.17Zm5.14-.54v-.68c-.51-.15-1.2-.3-2.05-.3-1.31,0-2.04.57-2.04,1.45v.03c0,.88.81,1.39,1.75,1.39,1.28,0,2.34-.78,2.34-1.89Z"/>
        <path class="mobile-cls-10" d="m296.74,24.26v-4.21h-.97v-.92h.97v-2.11h1.04v2.11h2.21v.92h-2.21v4.08c0,.85.47,1.16,1.17,1.16.35,0,.65-.07,1.01-.24v.89c-.36.19-.76.3-1.26.3-1.12,0-1.97-.55-1.97-1.97Z"/>
        <path class="mobile-cls-10" d="m301.86,16.46h1.19v1.15h-1.19v-1.15Zm.07,2.67h1.04v6.98h-1.04v-6.98Z"/>
        <path class="mobile-cls-10" d="m304.95,22.64v-.03c0-2.01,1.42-3.63,3.35-3.63,2.07,0,3.25,1.65,3.25,3.69,0,.13,0,.22-.01.34h-5.54c.15,1.51,1.22,2.36,2.46,2.36.96,0,1.63-.39,2.2-.99l.65.58c-.7.78-1.55,1.31-2.88,1.31-1.92,0-3.48-1.47-3.48-3.63Zm5.55-.41c-.11-1.27-.84-2.38-2.23-2.38-1.21,0-2.13,1.01-2.27,2.38h4.5Z"/>
        <path class="mobile-cls-10" d="m313.37,19.13h1.04v1.21c.46-.76,1.19-1.36,2.39-1.36,1.69,0,2.67,1.13,2.67,2.79v4.33h-1.04v-4.08c0-1.3-.7-2.11-1.93-2.11s-2.09.88-2.09,2.19v4h-1.04v-6.98Z"/>
        <path class="mobile-cls-10" d="m322.05,24.26v-4.21h-.97v-.92h.97v-2.11h1.04v2.11h2.21v.92h-2.21v4.08c0,.85.47,1.16,1.17,1.16.35,0,.65-.07,1.01-.24v.89c-.36.19-.76.3-1.26.3-1.12,0-1.97-.55-1.97-1.97Z"/>
        <path class="mobile-cls-10" d="m151,35.33h1.11l1.84,5.6,1.88-5.63h.86l1.89,5.63,1.84-5.6h1.08l-2.46,7.04h-.91l-1.88-5.51-1.89,5.51h-.92l-2.44-7.04Z"/>
        <path class="mobile-cls-10" d="m163.24,32.66h1.19v1.15h-1.19v-1.15Zm.07,2.67h1.04v6.98h-1.04v-6.98Z"/>
        <path class="mobile-cls-10" d="m167.13,40.46v-4.21h-.97v-.92h.97v-2.11h1.04v2.11h2.21v.92h-2.21v4.08c0,.85.47,1.16,1.17,1.16.35,0,.65-.07,1.01-.24v.89c-.36.19-.76.3-1.26.3-1.12,0-1.97-.55-1.97-1.97Z"/>
        <path class="mobile-cls-10" d="m172.22,32.45h1.04v4.09c.46-.76,1.19-1.36,2.39-1.36,1.69,0,2.67,1.13,2.67,2.79v4.33h-1.04v-4.08c0-1.3-.7-2.11-1.93-2.11s-2.09.88-2.09,2.19v4h-1.04v-9.86Z"/>
        <path class="mobile-cls-10" d="m184.34,37.61v-.03c0-2.67,2-4.89,4.78-4.89,1.72,0,2.74.61,3.69,1.5l-.73.78c-.8-.76-1.69-1.3-2.97-1.3-2.09,0-3.66,1.7-3.66,3.88v.03c0,2.19,1.58,3.9,3.66,3.9,1.3,0,2.15-.5,3.05-1.36l.7.69c-.99,1-2.07,1.66-3.78,1.66-2.73,0-4.74-2.15-4.74-4.86Z"/>
        <path class="mobile-cls-10" d="m194.78,32.86h3.28c2.97,0,5.02,2.04,5.02,4.7v.03c0,2.66-2.05,4.73-5.02,4.73h-3.28v-9.45Zm1.07.99v7.48h2.21c2.39,0,3.92-1.62,3.92-3.71v-.03c0-2.09-1.53-3.74-3.92-3.74h-2.21Z"/>
      </g>
    </g>
  </g>
</svg>