<!-- Generated by IcoMoon.io -->
<svg version="1.1" xmlns="http://www.w3.org/2000/svg" width="1024" height="1024" viewBox="0 0 1024 1024">
<title></title>
<g id="icomoon-ignore">
</g>
<path fill="#FF3333" d="M496 96c-238.592 0-432 193.408-432 432s193.408 432 432 432 432-193.408 432-432-193.408-432-432-432zM496 864c-185.568 0-336-150.432-336-336s150.432-336 336-336 336 150.432 336 336-150.432 336-336 336zM496 320c-26.496 0-48 21.472-48 48v161.984c0 26.496 21.504 48 48 48s48-21.504 48-48v-161.984c0-26.528-21.504-48-48-48zM496 640c-26.496 0-48 21.504-48 48s21.504 48 48 48 48-21.504 48-48-21.504-48-48-48z"></path>
</svg>
