<svg xmlns="http://www.w3.org/2000/svg" xmlns:xlink="http://www.w3.org/1999/xlink" width="38" height="32.865" viewBox="0 0 38 32.865">
  <defs>
    <clipPath id="clip-path">
      <rect id="Rectangle_12483" data-name="Rectangle 12483" width="38" height="32.865" transform="translate(0 0)" fill="#852166"/>
    </clipPath>
  </defs>
  <g id="jive_icon" clip-path="url(#clip-path)">
    <path id="Path_20023" data-name="Path 20023" d="M34.811,9.409H33.693V2.943a1.118,1.118,0,0,0-2.236,0V6.724A14.391,14.391,0,0,0,29.4,4.189a14.8,14.8,0,0,0-20.639,0A14.41,14.41,0,0,0,6.709,6.722V2.943a1.118,1.118,0,1,0-2.236,0V9.409H3.354A3.359,3.359,0,0,0,0,12.763V17.31a3.359,3.359,0,0,0,3.354,3.354H5.681A7.378,7.378,0,0,0,11.852,24H26.314a7.378,7.378,0,0,0,6.171-3.338h2.326a3.327,3.327,0,0,0,1.118-.192v3.493a4.7,4.7,0,0,1-4.7,4.584H28.085A3.359,3.359,0,0,0,24.9,26.239h-2.46a3.354,3.354,0,1,0,0,6.709H24.9a3.358,3.358,0,0,0,3.135-2.162h3.2a6.969,6.969,0,0,0,6.933-6.821v-11.2a3.359,3.359,0,0,0-3.354-3.354M3.354,18.428A1.12,1.12,0,0,1,2.236,17.31V12.763a1.12,1.12,0,0,1,1.118-1.118H4.473v4.978A7.358,7.358,0,0,0,4.7,18.428Zm28.1-1.805a5.149,5.149,0,0,1-5.143,5.143H11.852a5.148,5.148,0,0,1-4.519-2.687l-.057-.11v0a5.115,5.115,0,0,1-.566-2.344V14.461A12.17,12.17,0,0,1,19.083,2.236,12.314,12.314,0,0,1,31.457,14.461ZM24.9,30.712h-2.46a1.118,1.118,0,1,1,0-2.236H24.9a1.118,1.118,0,0,1,0,2.236M35.93,17.31a1.12,1.12,0,0,1-1.118,1.118H33.47a7.358,7.358,0,0,0,.224-1.805V11.645h1.118a1.12,1.12,0,0,1,1.118,1.118Z" transform="translate(0 -0.083)" fill="#852166"/>
    <path id="Path_20024" data-name="Path 20024" d="M97.667,254.59l-.057-.11a.957.957,0,0,1,.057.11" transform="translate(-90.334 -235.593)" fill="#852166"/>
    <path id="Path_20025" data-name="Path 20025" d="M183.954,170.055a1.118,1.118,0,0,1-1.118-1.118v-.82a1.118,1.118,0,0,1,2.236,0v.82a1.118,1.118,0,0,1-1.118,1.118" transform="translate(-169.207 -154.633)" fill="#852166"/>
    <path id="Path_20026" data-name="Path 20026" d="M300.281,170.055a1.118,1.118,0,0,1-1.118-1.118v-.82a1.118,1.118,0,1,1,2.236,0v.82a1.118,1.118,0,0,1-1.118,1.118" transform="translate(-276.863 -154.633)" fill="#852166"/>
    <path id="Path_20027" data-name="Path 20027" d="M134.722,124.106h-9.169a5.553,5.553,0,0,1,0-11.107h9.169a5.553,5.553,0,1,1,0,11.107m-9.169-8.871a3.317,3.317,0,0,0,0,6.634h9.169a3.317,3.317,0,1,0,0-6.634Z" transform="translate(-111.055 -104.659)" fill="#852166"/>
  </g>
</svg>
