<svg xmlns="http://www.w3.org/2000/svg" width="623.668" height="178" viewBox="0 0 623.668 178">
  <g id="ambit_logo" transform="translate(22400.998 -9697.144)">
    <g id="Ambit_logo_Nav" data-name="Ambit logo Nav" transform="translate(-22400.998 9697.144)">
      <g id="Group_11" data-name="Group 11" transform="translate(0 5.986)">
        <path id="Path_4" data-name="Path 4" d="M397.639,209.239a11.536,11.536,0,0,1-10.948-7.9l-47-140.94-46.634,140.94a11.519,11.519,0,0,1-21.892-7.176L320.4,45.316a11.533,11.533,0,0,1,10.948-7.9H348.4a11.529,11.529,0,0,1,10.948,7.9l49.238,148.843a11.534,11.534,0,0,1-10.944,15.08Z" transform="translate(-270.579 -37.416)" fill="#a6a7a9"/>
      </g>
      <g id="Group_12" data-name="Group 12" transform="translate(53.012 107.045)">
        <path id="Path_5" data-name="Path 5" d="M316.5,79.391A16.358,16.358,0,0,1,300.1,95.777a15.447,15.447,0,0,1-11.492-4.791,16.723,16.723,0,0,1,0-23.2A15.473,15.473,0,0,1,300.1,63,16.352,16.352,0,0,1,316.5,79.391Z" transform="translate(-283.934 -63.001)" fill="#e24868"/>
      </g>
      <path id="Path_6" data-name="Path 6" d="M428.658,47.255h-14.3a37.354,37.354,0,0,0-26.02,10.591,37.351,37.351,0,0,0-26.016-10.591h-14.29A37.592,37.592,0,0,0,310.493,84.8v84.555a11.526,11.526,0,1,0,23.051,0V84.8a14.5,14.5,0,0,1,14.489-14.477h14.29A14.5,14.5,0,0,1,376.812,84.8v84.555a11.525,11.525,0,1,0,23.051,0V84.846l.008-.044a14.5,14.5,0,0,1,14.489-14.477h14.3A14.5,14.5,0,0,1,443.142,84.8v84.555a11.527,11.527,0,1,0,23.055,0V84.8A37.6,37.6,0,0,0,428.658,47.255Z" transform="translate(-152.857 -2.893)" fill="#a6a7a9"/>
      <path id="Path_7" data-name="Path 7" d="M422.038,78.034H380.195V48.43a11.526,11.526,0,0,0-23.051,0V199.04a11.526,11.526,0,0,0,23.051,0V101.015h41.843a14.473,14.473,0,0,1,14.489,14.424v57.808a14.473,14.473,0,0,1-14.489,14.424H401.5a11.491,11.491,0,1,0,0,22.981h20.538a37.522,37.522,0,0,0,37.54-37.405V115.44A37.522,37.522,0,0,0,422.038,78.034Z" transform="translate(-15.087 -32.843)" fill="#a6a7a9"/>
      <g id="Group_13" data-name="Group 13" transform="translate(473.261 44.795)">
        <path id="Path_8" data-name="Path 8" d="M401.8,180.482a11.528,11.528,0,0,1-11.527-11.535V58.9a11.528,11.528,0,1,1,23.055,0V168.947A11.531,11.531,0,0,1,401.8,180.482Z" transform="translate(-390.276 -47.364)" fill="#a6a7a9"/>
      </g>
      <g id="Group_15" data-name="Group 15" transform="translate(468.585)">
        <g id="Group_14" data-name="Group 14">
          <path id="Path_9" data-name="Path 9" d="M421.663,52.3a16.352,16.352,0,0,1-16.394,16.386A15.453,15.453,0,0,1,393.777,63.9,15.984,15.984,0,0,1,389.1,52.3a16.015,16.015,0,0,1,4.676-11.6,15.483,15.483,0,0,1,11.492-4.791A16.352,16.352,0,0,1,421.663,52.3Z" transform="translate(-389.101 -35.908)" fill="#f2b43e"/>
        </g>
      </g>
      <path id="Path_10" data-name="Path 10" d="M455.159,180.846h-6.375a8.841,8.841,0,0,1-8.852-8.8V94.157h14.8a11.488,11.488,0,1,0,0-22.976h-14.8V50.723a11.526,11.526,0,0,0-23.051,0V71.181h-5.073a11.488,11.488,0,1,0,0,22.976h5.073v77.89a31.882,31.882,0,0,0,31.9,31.772h6.375a11.486,11.486,0,1,0,0-22.972Z" transform="translate(112.186 -26.028)" fill="#a6a7a9"/>
      <g id="Group_16" data-name="Group 16" transform="translate(591.107 145.013)">
        <path id="Path_11" data-name="Path 11" d="M452.653,89.005a16.352,16.352,0,0,1-16.394,16.382,15.45,15.45,0,0,1-11.492-4.787,16.729,16.729,0,0,1,0-23.2,15.479,15.479,0,0,1,11.492-4.787,16.352,16.352,0,0,1,16.394,16.394Z" transform="translate(-420.091 -72.611)" fill="#bfd630"/>
      </g>
    </g>
  </g>
</svg>
