<?xml version="1.0" encoding="utf-8"?>
<!-- Generator: Adobe Illustrator 26.2.1, SVG Export Plug-In . SVG Version: 6.00 Build 0)  -->
<svg version="1.1" id="bac80e3d-3c47-488e-987c-46a8c0ce0830"
	 xmlns="http://www.w3.org/2000/svg" xmlns:xlink="http://www.w3.org/1999/xlink" x="0px" y="0px" viewBox="0 0 1052 540"
	 style="enable-background:new 0 0 1052 540;" xml:space="preserve">
<style type="text/css">
	.st0{fill:#FFFFFF;}
	.st1{opacity:0.9;}
	.st2{opacity:0.5;}
</style>
<path id="ion_circle" class="st0" d="M595.3,0c0,19.2-6.8,35.6-20.3,49.1S545.2,69.3,526,69.3c-19.2,0-35.4-6.8-48.6-20.3
	S457.6,19.2,457.6,0c0-19.2,6.6-35.6,19.8-49.1s29.4-20.3,48.6-20.2c19.2,0,35.6,6.8,49.1,20.3S595.3-19.2,595.3,0z"/>
<g class="st1">
	<g id="ambitLogo">
		<g id="insideArrowTop" class="st2">
			<path class="st0" d="M770.9,230.8c-21.1,0-39.7-13.6-46.3-33.6L525.7-401.4L328.4,197.3c-8.4,25.6-36,39.5-61.6,31.1
				c-25.6-8.4-39.5-36-31.1-61.6l208.3-632.2c6.6-20,25.3-33.5,46.3-33.5h72.1c21.1,0,39.7,13.6,46.3,33.6l208.3,632.2
				c8.4,25.7-5.7,53.3-31.4,61.6C781,229.9,775.9,230.8,770.9,230.8L770.9,230.8z"/>
		</g>
		<g id="insideArrowTopRight" class="st2">
			<path class="st0" d="M535.6,336.1c-14.9-14.9-18.5-37.7-9-56.5l282.7-563.9L246.5-0.5c-24.1,12.1-53.4,2.5-65.5-21.6
				c-12.1-24-2.5-53.3,21.6-65.5c0,0,0,0,0,0l594.4-299.7c18.8-9.5,41.6-5.9,56.5,9l51,51c14.9,14.9,18.5,37.7,9,56.5L613.7,323.6
				C601.4,347.6,572,357.2,548,345C543.4,342.7,539.3,339.7,535.6,336.1L535.6,336.1z"/>
		</g>
		<g id="insideArrowTopLeft" class="st2">
			<path class="st0" d="M862.3-9.9c-14.9,14.9-37.7,18.5-56.5,9l-564-282.7l283.8,562.8c12.5,23.9,3.2,53.3-20.7,65.8
				c-23.9,12.5-53.3,3.2-65.8-20.7c-0.2-0.4-0.4-0.8-0.6-1.2L138.9-271.1c-9.5-18.8-5.9-41.6,9-56.5l51-51
				c14.9-14.9,37.7-18.5,56.5-9L849.8-87.9c24,12.1,33.7,41.4,21.6,65.5C869.1-17.8,866-13.5,862.3-9.9z"/>
		</g>
		<g id="insideArrowLeft" class="st2">
			<path class="st0" d="M756.8-244.9c0,21.1-13.6,39.7-33.6,46.3L124.6,0.3l598.7,197.3c25.6,8.4,39.5,36,31.1,61.6
				c-8.4,25.6-36,39.5-61.6,31.1L60.5,81.9C40.5,75.3,27,56.7,27,35.6v-72.2c0-21,13.5-39.7,33.5-46.3l632.2-208.3
				c25.6-8.4,53.1,5.4,61.6,31C755.9-255.2,756.8-250.1,756.8-244.9z"/>
		</g>
		<g id="insideArrowBottomLeft" class="st2">
			<path class="st0" d="M516.1-336.3c14.9,14.9,18.5,37.7,9,56.5l-282.7,564L805.2,0.3c23.7-12.8,53.3-3.9,66,19.8s3.9,53.3-19.8,66
				c-0.7,0.4-1.5,0.8-2.3,1.2L254.8,387.1c-18.8,9.5-41.6,5.9-56.5-9l-51-51c-14.9-14.9-18.5-37.7-9-56.5L438-323.8
				c12.1-24,41.4-33.7,65.4-21.6c0,0,0,0,0,0C508.1-343,512.4-340,516.1-336.3z"/>
		</g>
		<g id="insideArrowBottom" class="st2">
			<path class="st0" d="M281.1-230.8c21.1,0,39.7,13.6,46.3,33.6l198.9,598.7l197.3-598.7c8.4-25.6,36-39.5,61.6-31.1
				c25.6,8.4,39.4,36,31,61.5c0,0,0,0,0,0L607.9,465.5c-6.6,20-25.3,33.5-46.3,33.5h-72.1c-21.1,0-39.7-13.5-46.3-33.6L234.8-166.8
				c-8.4-25.6,5.4-53.1,31-61.5c0,0,0,0,0,0C270.7-230,275.9-230.8,281.1-230.8z"/>
		</g>
		<g id="insideArrowBottomRight" class="st2">
			<path class="st0" d="M190,9.7c14.9-14.9,37.7-18.5,56.5-9l564,282.7L526.6-279.5c-12.1-24.1-2.5-53.4,21.6-65.5
				c24-12.1,53.3-2.5,65.5,21.6c0,0,0,0,0,0L913.4,271c9.5,18.8,5.9,41.6-9,56.5l-51,51c-14.9,14.9-37.7,18.5-56.5,9L202.5,87.7
				c-24.1-12.2-33.7-41.6-21.4-65.7C183.4,17.5,186.4,13.3,190,9.7z"/>
		</g>
		<g id="insideArrowRight" class="st2">
			<path class="st0" d="M295.2,244c0-21.1,13.6-39.7,33.6-46.3L927.5-1.2L328.8-198.5c-25.6-8.4-39.5-36-31.1-61.6
				c8.4-25.6,36-39.4,61.6-31L991.5-82.8c20,6.6,33.5,25.2,33.6,46.3v72.1c0,21.1-13.5,39.7-33.6,46.3L359.3,290.3
				c-25.6,8.4-53.2-5.6-61.6-31.2C296,254.2,295.2,249.1,295.2,244z"/>
		</g>
	</g>
</g>
</svg>
