<svg xmlns="http://www.w3.org/2000/svg" width="488.426" height="488.399" viewBox="0 0 488.426 488.399">
  <g id="ambit_ion_full_gray" transform="translate(-14580.793 -3006.731)" opacity="0.45">
    <g id="Group_1346" data-name="Group 1346" transform="translate(14580.793 3006.731)" opacity="0.9">
      <g id="Group_1338" data-name="Group 1338" transform="translate(100.98)" opacity="0.5">
        <path id="Path_834" data-name="Path 834" d="M934.019-22.771a23.884,23.884,0,0,1-22.662-16.423l-97.32-292.964L717.488-39.194a23.885,23.885,0,0,1-30.139,15.2,23.848,23.848,0,0,1-15.186-30.121L774.109-363.5a23.876,23.876,0,0,1,22.662-16.423h35.3A23.876,23.876,0,0,1,854.736-363.5L956.682-54.111A23.848,23.848,0,0,1,941.5-23.991,23.721,23.721,0,0,1,934.019-22.771Z" transform="translate(-670.957 379.922)" fill="#a7a8aa"/>
      </g>
      <g id="Group_1339" data-name="Group 1339" transform="translate(72.798 52.106)" opacity="0.5">
        <path id="Path_835" data-name="Path 835" d="M789.488,83.128a23.884,23.884,0,0,1-4.411-27.638L923.417-220.482,647.99-81.6a23.885,23.885,0,0,1-32.062-10.561,23.849,23.849,0,0,1,10.561-32.037L917.344-270.877a23.876,23.876,0,0,1,27.638,4.412L969.945-241.5a23.876,23.876,0,0,1,4.412,27.638L827.674,76.992a23.91,23.91,0,0,1-38.186,6.136Z" transform="translate(-613.367 273.442)" fill="#a7a8aa"/>
      </g>
      <g id="Group_1340" data-name="Group 1340" transform="translate(52.235 51.938)" opacity="0.5">
        <path id="Path_836" data-name="Path 836" d="M927.918-86.352A23.884,23.884,0,0,1,900.28-81.94L624.308-220.281,763.194,55.146a23.858,23.858,0,1,1-42.6,21.5L573.913-214.208a23.876,23.876,0,0,1,4.412-27.638l24.962-24.962a23.876,23.876,0,0,1,27.638-4.412L921.782-124.538A23.849,23.849,0,0,1,932.343-92.5,23.746,23.746,0,0,1,927.918-86.352Z" transform="translate(-571.348 273.786)" fill="#a7a8aa"/>
      </g>
      <g id="Group_1341" data-name="Group 1341" transform="translate(0 100.507)" opacity="0.5">
        <path id="Path_837" data-name="Path 837" d="M821.754-150.667A23.884,23.884,0,0,1,805.331-128L512.367-30.684,805.331,65.865a23.858,23.858,0,1,1-14.917,45.325L481.027,9.244A23.876,23.876,0,0,1,464.6-13.418v-35.3a23.875,23.875,0,0,1,16.423-22.662L790.414-173.329a23.849,23.849,0,0,1,30.121,15.186A23.737,23.737,0,0,1,821.754-150.667Z" transform="translate(-464.604 174.535)" fill="#a7a8aa"/>
      </g>
      <g id="Group_1342" data-name="Group 1342" transform="translate(51.913 72.65)" opacity="0.5">
        <path id="Path_838" data-name="Path 838" d="M758.124-224.475a23.884,23.884,0,0,1,4.412,27.638L624.195,79.135,899.622-59.751a23.885,23.885,0,0,1,32.062,10.56,23.849,23.849,0,0,1-10.561,32.037L630.268,129.53a23.875,23.875,0,0,1-27.638-4.412l-24.963-24.963a23.875,23.875,0,0,1-4.412-27.638L719.938-218.339A23.849,23.849,0,0,1,751.975-228.9,23.754,23.754,0,0,1,758.124-224.475Z" transform="translate(-570.69 231.46)" fill="#a7a8aa"/>
      </g>
      <g id="Group_1343" data-name="Group 1343" transform="translate(100.507 131.249)" opacity="0.5">
        <path id="Path_839" data-name="Path 839" d="M693.858-111.714a23.884,23.884,0,0,1,22.663,16.423l97.32,292.964L910.39-95.291a23.885,23.885,0,0,1,30.139-15.2,23.848,23.848,0,0,1,15.186,30.121L853.769,229.014a23.876,23.876,0,0,1-22.663,16.423H795.8a23.876,23.876,0,0,1-22.663-16.423L671.2-80.374a23.848,23.848,0,0,1,15.186-30.121A23.719,23.719,0,0,1,693.858-111.714Z" transform="translate(-669.99 111.714)" fill="#a7a8aa"/>
      </g>
      <g id="Group_1344" data-name="Group 1344" transform="translate(72.78 72.819)" opacity="0.5">
        <path id="Path_840" data-name="Path 840" d="M620.316-55a23.885,23.885,0,0,1,27.638-4.412L923.926,78.934,785.04-196.494A23.885,23.885,0,0,1,795.6-228.556,23.849,23.849,0,0,1,827.638-218L974.321,72.861a23.875,23.875,0,0,1-4.412,27.638l-24.962,24.963a23.876,23.876,0,0,1-27.638,4.412L626.452-16.81a23.849,23.849,0,0,1-10.561-32.037A23.739,23.739,0,0,1,620.316-55Z" transform="translate(-613.331 231.117)" fill="#a7a8aa"/>
      </g>
      <g id="Group_1345" data-name="Group 1345" transform="translate(131.275 100.513)" opacity="0.5">
        <path id="Path_841" data-name="Path 841" d="M732.866,88.54a23.885,23.885,0,0,1,16.423-22.663l292.964-97.32L749.289-127.992a23.885,23.885,0,0,1-15.2-30.139,23.849,23.849,0,0,1,30.121-15.186L1073.594-71.371a23.876,23.876,0,0,1,16.423,22.662v35.3a23.876,23.876,0,0,1-16.423,22.662L764.206,111.2a23.908,23.908,0,0,1-31.34-22.662Z" transform="translate(-732.866 174.523)" fill="#a7a8aa"/>
      </g>
    </g>
    <g id="Group_1348" data-name="Group 1348" transform="translate(14791.527 3217)" opacity="0.59">
      <path id="Path_15" data-name="Path 15" d="M962.656,83.7a33.852,33.852,0,0,1-33.94,33.922,31.982,31.982,0,0,1-23.792-9.915A33.081,33.081,0,0,1,895.242,83.7a33.151,33.151,0,0,1,9.682-24.025,32.047,32.047,0,0,1,23.792-9.915,33.852,33.852,0,0,1,33.94,33.94Z" transform="translate(-895.242 -49.764)" fill="#a7a8aa"/>
    </g>
  </g>
</svg>
