<svg xmlns="http://www.w3.org/2000/svg" width="341" height="582" viewBox="0 0 341 582">
  <g id="Group_4399" data-name="Group 4399" transform="translate(15015.5 -12534.5)">
    <path id="Path_2357" data-name="Path 2357" d="M241,291a49.844,49.844,0,0,1-35.355-14.645l-241-241a50,50,0,0,1,0-70.711,50,50,0,0,1,70.711,0l241,241A50,50,0,0,1,241,291Z" transform="translate(-14965.5 12584.5)" fill="#707070"/>
    <path id="Line_81" data-name="Line 81" d="M0,291a49.844,49.844,0,0,1-35.355-14.645,50,50,0,0,1,0-70.711l241-241a50,50,0,0,1,70.711,0,50,50,0,0,1,0,70.711l-241,241A49.844,49.844,0,0,1,0,291Z" transform="translate(-14965.5 12825.5)" fill="#707070"/>
  </g>
</svg>
