<svg xmlns="http://www.w3.org/2000/svg" xmlns:xlink="http://www.w3.org/1999/xlink" width="682.573" height="1174.809" viewBox="0 0 682.573 1174.809">
  <defs>
    <clipPath id="clip-path">
      <rect id="Rectangle_1737" data-name="Rectangle 1737" width="1174.809" height="682.574" transform="translate(-58.314)" fill="none"/>
    </clipPath>
  </defs>
  <g id="arrow_search_services_img" transform="translate(0 1116.494) rotate(-90)" clip-path="url(#clip-path)">
    <path id="Path_2342" data-name="Path 2342" d="M1217.227,517.6c-3.087-2.353-6.006-4.6-8.871-6.806-67.251-51.67-105.775-81.273-301.448-94.532-103.692-7.026-151.953-41.4-209.184-82.137-69.8-49.7-153.541-109.331-377.782-137.2l-.332-.04-63.538-9.379H18.091V166.442H257.8l65.833,9.129c230.737,28.719,317.289,90.351,389.428,141.718,54.012,38.461,99.557,70.9,195.665,77.4,196.85,13.35,241.611,43.005,308.5,94.232Z" transform="translate(17.827 163.967)" fill="#c0d237" fill-rule="evenodd"/>
    <path id="Path_2343" data-name="Path 2343" d="M1217.227,361.594c-71.384-8.152-105.523-23.582-182.6-58.434-2.654-1.207,6.458,2.915-21.253-9.55-27.4-12.325-55.3-31.625-85.093-52.233-58.45-40.43-124.531-86.138-204.575-89.042-48.06-1.749-105.966,10.866-174.664,25.814-92.989,20.245-205.33,44.411-342.266,44.411H18.091V201.491H206.776c134.19,0,244.841-24.388,336.413-44.322,70.489-15.351,129.9-28.288,181.472-26.407,87.95,3.2,157.322,51.177,218.668,93.609,28.7,19.852,55.563,38.429,81.16,49.95,12.8,5.76,5.13,2.341,21.254,9.629,73.064,33.043,106.116,47.991,171.485,55.861Z" transform="translate(17.827 128.628)" fill="#a8a8aa"/>
    <path id="Path_2344" data-name="Path 2344" d="M1210.522,265.309c-59.1,7.137-91.812,22.8-119.7,36.148-32.941,15.772-59.756,28.619-110.854,23.582-49-4.824-84.5-30.638-123.163-58.755-41.844-30.428-87.659-63.743-157.866-72.367-89.288-10.967-168.205-9.178-278.978-6.655-58.863,1.338-126.534,2.585-206.378,2.585H24.895V168.776H213.58c82.971,0,148.663-1.789,205.8-3.085,112.029-2.553,191.853-4.364,282.91,6.826,77.027,9.458,125.649,44.812,170.046,77.1,35.717,25.977,68.507,49.821,110.32,53.931,43.563,4.292,67.3-7.076,96.47-21.049,30.347-14.535,66.053-31.625,131.4-39.023v21.813h-.01Z" transform="translate(24.531 161.331)" fill="#f3b63e"/>
    <path id="Path_2345" data-name="Path 2345" d="M1206.882,382.792c-98.953-29.574-152.374-16.818-257.041,8.182-33.4,7.983-71.917,17.18-119.151,26.771-101.528,20.616-165.952-28.77-242.768-87.668C503.17,265.1,402.507,187.928,217.274,187.928H28.589V166.275H217.274c194.3,0,298.732,80.066,386.661,147.478,71.718,54.977,131.855,101.086,221.294,82.921,46.2-9.379,84.8-18.607,118.287-26.6,106.909-25.522,162.724-38.842,263.367-10.082Z" transform="translate(28.171 163.802)" fill="#1193d2"/>
    <path id="Path_2346" data-name="Path 2346" d="M1217.22,452.165c-68.055-50.363-97.142-67.723-249.375-76.769-94.74-5.631-135.959-43.708-180.388-84.742-33.585-31.022-69.131-63.854-133.312-83.6-13.489-4.151-75.8-8.2-150.875-11.561-107.925-4.825-241.793-8.281-296.491-8.281H18.1V166.447H206.779c54.356,0,188.585,2.613,297.648,7.489,77.1,3.449,141.832,7.84,157.784,12.746,69.774,21.462,107.423,56.232,143,89.094,41,37.867,79.028,72.991,164.284,78.067,148.179,8.8,185.444,25.292,247.725,70.306v28.016Z" transform="translate(17.832 163.972)" fill="#f3b63e"/>
    <path id="Path_2347" data-name="Path 2347" d="M1210.522,205.8c-75.508-10.5-137.507,37.184-196.368,82.459-49.247,37.887-96.45,74.2-150.353,77.978-66.808,4.693-101.961-26.016-142.286-61.239-35.878-31.343-76.231-66.6-149.2-79.777-26.09-4.715-46.369-9.159-65.166-13.288C443.181,197.894,396.491,187.36,213.58,187.36H24.895V166.291H213.58c185.667,0,233.665,10.233,299.417,24.658,18.849,4.132,39.187,8.595,64.213,13.117,80.134,14.475,123.244,52.132,161.566,85.606,36.029,31.474,67.422,58.9,123.113,54.987,45.908-3.226,90.073-37.2,136.161-72.649,62.492-48.08,128.283-98.673,212.472-88.2V205.8Z" transform="translate(24.531 163.818)" fill="#383150"/>
    <path id="Path_2348" data-name="Path 2348" d="M1210.517,169.6c-101.78-9.47-223.627,59.27-329.361,118.918-76.423,43.117-144.718,81.657-195.232,84.9-90.484,5.821-159.565-36.108-231.7-79.9C384.1,250.968,310.95,206.275,213.585,206.275H24.9V185.206H213.585c104.858,0,181.283,46.1,254.538,90.561C536.6,317.333,602.179,357.132,684.2,351.855c44.407-2.855,110.2-39.98,183.826-81.526,108.277-61.078,232.891-131.374,342.486-122.468Z" transform="translate(24.536 144.901)" fill="#e44868"/>
    <path id="Path_2349" data-name="Path 2349" d="M1217.227,28.689c-66.887,51.227-111.648,80.882-308.5,94.222-96.1,6.512-141.653,38.941-195.665,77.4-72.139,51.368-158.691,113-389.428,141.718L257.8,351.742H18.091V330.089H256.072l63.538-9.379.332-.04c224.241-27.867,307.986-87.5,377.782-137.2,57.221-40.752,105.491-75.121,209.184-82.137,195.673-13.258,234.2-42.864,301.448-94.532,2.865-2.2,5.793-4.453,8.871-6.806V28.689Z" transform="translate(17.827 -0.042)" fill="#c0d237"/>
    <path id="Path_2350" data-name="Path 2350" d="M1217.231,60.983c-62.281,45.015-99.547,61.5-247.747,70.316C884.23,136.366,846.2,171.5,805.2,209.366c-35.566,32.85-73.215,67.632-143,89.094-15.943,4.9-80.678,9.3-157.786,12.746-109.061,4.876-243.29,7.781-297.646,7.781H18.086V297.916H206.771c54.7,0,188.563-3.457,296.491-8.283,75.075-3.357,137.386-7.407,150.875-11.561,64.181-19.743,99.728-52.573,133.312-83.594,44.429-41.034,85.647-79.111,180.388-84.742,152.231-9.045,181.321-26.408,249.376-76.769V60.993h.02Z" transform="translate(17.822 32.443)" fill="#f3b63e"/>
    <path id="Path_2351" data-name="Path 2351" d="M1210.522,258.974c-84.2,10.485-149.98-40.119-212.472-88.2-46.089-35.453-90.253-69.431-136.161-72.647C806.2,94.215,774.8,121.639,738.776,153.112c-38.322,33.475-81.432,71.132-161.566,85.608-25.036,4.523-45.364,8.976-64.213,13.117-65.752,14.426-113.75,24.658-299.417,24.658H24.895V255.426H213.58c182.9,0,229.591-10.536,293.574-24.569,18.807-4.122,39.086-8.575,65.166-13.288,72.965-13.179,113.318-48.433,149.2-79.777C761.85,102.56,796.993,71.86,863.8,76.553c53.9,3.78,101.1,40.1,150.353,77.976,58.861,45.277,120.86,92.965,196.368,82.461v21.984Z" transform="translate(24.531 74.923)" fill="#e44868"/>
    <path id="Path_2352" data-name="Path 2352" d="M1217.227,118.177c-65.369,7.87-98.421,22.818-171.485,55.851-16.123,7.288-8.448,3.87-21.254,9.631-25.6,11.519-52.464,30.1-81.16,49.95-61.356,42.439-130.717,90.42-218.668,93.607-51.568,1.87-110.983-11.066-181.472-26.408-91.582-19.933-202.223-44.32-336.413-44.32H18.091V235.417H206.776c136.926,0,249.276,24.166,342.266,44.411,68.688,14.958,126.594,27.563,174.664,25.814,80.045-2.9,146.126-48.612,204.575-89.042,29.793-20.608,57.7-39.908,85.093-52.233,27.7-12.464,18.589-8.343,21.253-9.55,77.077-34.851,111.215-50.282,182.6-58.434v21.794Z" transform="translate(17.827 94.932)" fill="#1193d2"/>
    <path id="Path_2353" data-name="Path 2353" d="M1210.527,180.721c-65.349-7.4-101.046-24.488-131.4-39.023-29.169-13.973-52.906-25.343-96.47-21.051-41.812,4.122-74.6,27.956-110.32,53.931-44.4,32.288-93.019,67.644-170.046,77.1-91.057,11.188-170.882,9.369-282.911,6.826-57.131-1.3-122.824-3.377-205.8-3.377H24.89V234.652H213.575c79.844,0,147.516.955,206.378,2.291,110.772,2.523,189.7,4.324,278.978-6.653,70.207-8.626,116.031-41.939,157.865-72.367,38.663-28.117,74.16-53.931,123.163-58.757,51.1-5.035,77.912,7.811,110.854,23.584,27.893,13.36,60.6,29.02,119.7,36.148v21.813h.01Z" transform="translate(24.526 96.581)" fill="#383150"/>
    <path id="Path_2354" data-name="Path 2354" d="M1206.882,110.515c-100.643,28.76-156.458,15.44-263.367-10.1-33.485-8-72.1-17.221-118.287-26.6-89.44-18.154-149.577,27.946-221.294,82.923-87.929,67.41-192.365,146.884-386.661,146.884H28.589V283.284H217.274c185.244,0,285.9-77.906,370.649-142.874,76.816-58.9,141.24-108.275,242.768-87.666,47.244,9.589,85.747,18.788,119.151,26.769,104.657,25,158.078,37.758,257.041,8.184v22.818Z" transform="translate(28.171 47.236)" fill="#1193d2"/>
    <path id="Path_2355" data-name="Path 2355" d="M1210.522,308.07c-109.6,8.906-234.209-61.39-342.5-122.488C794.4,144.046,728.607,106.912,684.2,104.057c-82.026-5.277-147.607,34.532-216.083,76.088C394.861,224.6,318.437,271,213.58,271H24.895V249.345H213.58c97.365,0,170.52-44.4,240.636-86.964,72.139-43.788,141.22-85.717,231.7-79.9,50.514,3.246,118.819,41.788,195.232,84.9,105.743,59.671,227.59,128.408,329.371,118.938Z" transform="translate(24.531 80.703)" fill="#c0d237" fill-rule="evenodd"/>
    <path id="Path_2356" data-name="Path 2356" d="M.106,194.977l38.977-22.768L78.058,149.44v91.083L39.083,217.755Z" transform="translate(0.105 147.214)" fill="#c0d237" fill-rule="evenodd"/>
  </g>
</svg>
