<svg xmlns="http://www.w3.org/2000/svg" xmlns:xlink="http://www.w3.org/1999/xlink" width="2267.305" height="1251.847" viewBox="0 0 2267.305 1251.847">
  <defs>
    <clipPath id="clip-path">
      <rect id="Rectangle_241" data-name="Rectangle 241" width="2267.305" height="1251.846" fill="none"/>
    </clipPath>
  </defs>
  <g id="arrow_bg" transform="translate(2267.305 1251.868) rotate(180)">
    <g id="Group_539" data-name="Group 539" transform="translate(0 0.021)" clip-path="url(#clip-path)">
      <path id="Path_313" data-name="Path 313" d="M2217.317,810.473c-5.662-4.315-11.014-8.444-16.269-12.482-123.339-94.762-193.993-149.056-552.859-173.372-190.173-12.886-278.683-75.919-383.645-150.64-128.007-91.15-281.6-200.514-692.856-251.618l-.608-.073-116.529-17.2H18.091V166.442H457.723l120.739,16.742c423.173,52.67,581.912,165.7,714.215,259.913,99.059,70.537,182.588,130.028,358.852,141.956,361.025,24.483,443.116,78.872,565.788,172.822Z" transform="translate(47.782 439.531)" fill="#c0d237" fill-rule="evenodd"/>
      <path id="Path_314" data-name="Path 314" d="M2217.317,554.262c-130.919-14.951-193.53-43.25-334.889-107.168-4.868-2.214,11.845,5.345-38.979-17.514-50.249-22.6-101.422-58-156.062-95.8-107.2-74.149-228.391-157.977-375.193-163.3-88.143-3.208-194.342,19.928-320.335,47.343-170.543,37.129-376.577,81.45-627.718,81.45H18.091v-38.64H364.14c246.105,0,449.041-44.729,616.984-81.286,129.277-28.154,238.244-51.88,332.821-48.432,161.3,5.862,288.529,93.859,401.039,171.679,52.63,36.408,101.9,70.479,148.849,91.609,23.468,10.563,9.409,4.293,38.979,17.66,134,60.6,194.619,88.015,314.505,102.449Z" transform="translate(47.782 344.81)" fill="#a8a8aa"/>
      <path id="Path_315" data-name="Path 315" d="M2199.346,350c-108.4,13.09-168.384,41.812-219.539,66.3-60.415,28.926-109.593,52.488-203.307,43.25-89.872-8.848-154.973-56.191-225.882-107.758-76.742-55.805-160.767-116.9-289.527-132.722-163.756-20.114-308.49-16.833-511.647-12.205-107.954,2.454-232.065,4.741-378.5,4.741H24.9V172.953H370.944c152.17,0,272.65-3.281,377.447-5.658,205.462-4.683,351.861-8,518.861,12.518,141.268,17.347,230.441,82.186,311.866,141.4,65.505,47.641,125.643,91.372,202.327,98.91,79.9,7.872,123.43-12.977,176.926-38.6,55.656-26.657,121.143-58,240.993-71.568v40.006h-.018Z" transform="translate(65.753 432.467)" fill="#f3b63e"/>
      <path id="Path_316" data-name="Path 316" d="M2189.589,563.37c-181.481-54.239-279.455-30.845-471.416,15.005-61.263,14.641-131.9,31.507-218.523,49.1-186.2,37.81-304.357-52.765-445.239-160.785-155.436-119.169-340.052-260.7-679.773-260.7H28.589V166.275H374.638c356.339,0,547.877,146.843,709.139,270.476,131.531,100.828,241.823,185.392,405.856,152.078,84.727-17.2,155.527-34.125,216.939-48.781,196.072-46.808,298.437-71.236,483.017-18.49Z" transform="translate(75.509 439.09)" fill="#1193d2"/>
      <path id="Path_317" data-name="Path 317" d="M2217.3,690.456c-124.813-92.367-178.161-124.205-457.357-140.794-173.755-10.327-249.35-80.161-330.833-155.418-61.594-56.894-126.787-117.108-244.5-153.317-24.738-7.614-139.018-15.042-276.706-21.2-197.936-8.848-443.451-15.187-543.767-15.187H18.1V166.447H364.142c99.689,0,345.867,4.792,545.89,13.735,141.4,6.325,260.12,14.379,289.377,23.377,127.966,39.361,197.015,103.13,262.261,163.4,75.191,69.449,144.938,133.865,301.3,143.176,271.761,16.131,340.106,46.385,454.331,128.942v51.381Z" transform="translate(47.798 439.544)" fill="#f3b63e"/>
      <path id="Path_318" data-name="Path 318" d="M2199.346,238.744c-138.482-19.266-252.19,68.2-360.141,151.23-90.32,69.485-176.89,136.079-275.749,143.012-122.527,8.608-187-47.714-260.954-112.313-65.8-57.484-139.808-122.141-273.625-146.311-47.849-8.648-85.04-16.8-119.515-24.371-117.327-25.74-202.957-45.06-538.418-45.06H24.9v-38.64H370.944c340.514,0,428.544,18.767,549.134,45.224,34.569,7.577,71.87,15.763,117.767,24.057,146.966,26.548,226.031,95.611,296.314,157,66.077,57.724,123.651,108.016,225.791,100.847,84.2-5.917,165.194-68.233,249.721-133.239C1924.282,272,2044.944,179.214,2199.346,198.425v40.319Z" transform="translate(65.753 439.132)" fill="#fff"/>
      <path id="Path_319" data-name="Path 319" d="M2199.333,188.38c-186.666-17.369-410.134,108.7-604.05,218.1-140.161,79.076-265.415,149.759-358.058,155.713-165.948,10.676-292.644-66.223-424.947-146.529C683.685,337.6,549.517,255.633,370.949,255.633H24.9V216.992H370.949c192.31,0,332.475,84.549,466.824,166.09,125.585,76.232,245.862,149.224,396.3,139.546,81.443-5.236,202.1-73.323,337.139-149.519,198.58-112.018,427.124-240.942,628.122-224.608Z" transform="translate(65.766 388.427)" fill="#e44868"/>
      <path id="Path_320" data-name="Path 320" d="M2217.317,52.615c-122.672,93.95-204.763,148.339-565.788,172.8-176.245,11.943-259.793,71.419-358.852,141.956-132.3,94.209-291.041,207.239-714.215,259.913L457.723,645.1H18.091V605.387h436.46l116.529-17.2.608-.073C982.948,537,1136.538,427.645,1264.545,336.495c104.943-74.739,193.472-137.772,383.645-150.64,358.866-24.316,429.52-78.614,552.859-173.372C2206.3,8.444,2211.673,4.315,2217.317,0V52.615Z" transform="translate(47.782 -0.077)" fill="#c0d237"/>
      <path id="Path_321" data-name="Path 321" d="M2217.33,84.348c-114.225,82.557-182.57,112.794-454.371,128.961-156.357,9.292-226.1,73.727-301.3,143.176-65.229,60.247-134.277,124.038-262.261,163.4-29.239,8.994-147.964,17.052-289.381,23.377C710,552.2,463.824,557.53,364.135,557.53H18.086V518.886H364.135c100.315,0,345.827-6.339,543.767-15.191,137.689-6.157,251.968-13.585,276.706-21.2,117.709-36.208,182.9-96.419,244.5-153.313,81.483-75.256,157.078-145.091,330.833-155.418,279.193-16.589,332.544-48.432,457.357-140.794v51.4h.036Z" transform="translate(47.769 86.996)" fill="#f3b63e"/>
      <path id="Path_322" data-name="Path 322" d="M2199.346,411.512c-154.42,19.229-275.064-73.578-389.675-161.76-84.527-65.021-165.525-127.337-249.721-133.235-102.139-7.173-159.714,43.123-225.791,100.843-70.282,61.394-149.348,130.457-296.314,157.005-45.916,8.295-83.2,16.462-117.767,24.057-120.59,26.457-208.619,45.224-549.134,45.224H24.9V405H370.944c335.442,0,421.073-19.324,538.418-45.06,34.493-7.559,71.685-15.726,119.515-24.371C1162.695,311.4,1236.7,246.747,1302.5,189.263c73.975-64.617,138.428-120.921,260.954-112.313,98.859,6.933,185.41,73.541,275.749,143.008,107.951,83.038,221.658,170.5,360.141,151.234v40.319Z" transform="translate(65.753 200.859)" fill="#e44868"/>
      <path id="Path_323" data-name="Path 323" d="M2217.317,136.352c-119.887,14.434-180.505,41.848-314.505,102.431-29.57,13.367-15.493,7.1-38.979,17.664-46.946,21.126-96.219,55.2-148.849,91.609-112.528,77.834-239.737,165.831-401.039,171.676-94.577,3.43-203.543-20.3-332.821-48.432-167.961-36.558-370.879-81.283-616.984-81.283H18.091V351.373H364.14c251.123,0,457.175,44.321,627.718,81.45,125.975,27.433,232.174,50.551,320.335,47.343,146.8-5.327,268-89.155,375.193-163.3,54.64-37.8,105.813-73.192,156.062-95.8,50.806-22.86,34.093-15.3,38.979-17.514,141.359-63.918,203.97-92.217,334.889-107.168v39.969Z" transform="translate(47.782 254.491)" fill="#1193d2"/>
      <path id="Path_324" data-name="Path 324" d="M2199.359,249.664c-119.85-13.571-185.319-44.911-240.993-71.568-53.5-25.627-97.031-46.48-176.926-38.608-76.684,7.559-136.822,51.272-202.327,98.91-81.424,59.217-170.6,124.06-311.865,141.406-167,20.518-313.4,17.183-518.861,12.518-104.779-2.378-225.26-6.194-377.447-6.194H24.89V348.574H370.939c146.435,0,270.545,1.751,378.5,4.2,203.157,4.628,347.91,7.931,511.648-12.2,128.76-15.821,212.8-76.917,289.527-132.722,70.909-51.567,136.01-98.91,225.882-107.762,93.714-9.234,142.892,14.325,203.307,43.254,51.155,24.5,111.144,53.223,219.539,66.3v40.006h.018Z" transform="translate(65.74 258.91)" fill="#fff"/>
      <path id="Path_325" data-name="Path 325" d="M2189.589,162.67c-184.58,52.747-286.945,28.318-483.017-18.526-61.412-14.678-132.23-31.584-216.939-48.785-164.033-33.3-274.325,51.254-405.856,152.082-161.262,123.63-352.8,269.387-709.139,269.387H28.589v-37.3H374.638c339.739,0,524.337-142.881,679.773-262.032C1195.293,109.483,1313.446,18.923,1499.65,56.718c86.646,17.587,157.26,34.457,218.523,49.094,191.942,45.85,289.917,69.248,471.416,15.009V162.67Z" transform="translate(75.509 126.645)" fill="#1193d2"/>
      <path id="Path_326" data-name="Path 326" d="M2199.346,496.663c-201,16.334-429.542-112.59-628.141-224.644-135.034-76.178-255.7-144.283-337.139-149.519-150.436-9.678-270.713,63.331-396.3,139.546C703.415,343.587,563.254,428.671,370.944,428.671H24.9V388.96H370.944c178.568,0,312.736-81.432,441.329-159.492,132.3-80.307,259-157.205,424.947-146.529,92.643,5.953,217.915,76.64,358.058,155.712,193.934,109.436,417.4,235.5,604.069,218.134Z" transform="translate(65.753 216.35)" fill="#c0d237" fill-rule="evenodd"/>
      <path id="Path_327" data-name="Path 327" d="M.106,232.955,71.591,191.2l71.48-41.757V316.488L71.591,274.73Z" transform="translate(0.281 394.626)" fill="#c0d237" fill-rule="evenodd"/>
    </g>
  </g>
</svg>
