<svg xmlns="http://www.w3.org/2000/svg" width="489.003" height="489.003" viewBox="0 0 489.003 489.003">
  <g id="bullet_icon" transform="translate(-917 -3992)">
    <path id="Path_2280" data-name="Path 2280" d="M244.5,35C128.982,35,35,128.982,35,244.5S128.982,454,244.5,454,454,360.021,454,244.5,360.021,35,244.5,35m0-35C379.536,0,489,109.467,489,244.5S379.536,489,244.5,489,0,379.536,0,244.5,109.467,0,244.5,0Z" transform="translate(917 3992)" fill="#0093d3"/>
    <path id="Path_312" data-name="Path 312" d="M0,286.073a17.5,17.5,0,0,1-17.5-17.5V0A17.5,17.5,0,0,1,0-17.5,17.5,17.5,0,0,1,17.5,0V268.573A17.5,17.5,0,0,1,0,286.073Z" transform="translate(1160.836 4097.81)" fill="#0093d3"/>
    <path id="Line_7" data-name="Line 7" d="M268.573,17.5H0A17.5,17.5,0,0,1-17.5,0,17.5,17.5,0,0,1,0-17.5H268.573A17.5,17.5,0,0,1,286.073,0,17.5,17.5,0,0,1,268.573,17.5Z" transform="translate(1033.617 4235.836)" fill="#0093d3"/>
  </g>
</svg>
