<svg id="client_img_04" xmlns="http://www.w3.org/2000/svg" xmlns:xlink="http://www.w3.org/1999/xlink" width="782" height="857.012" viewBox="0 0 782 857.012">
  <defs>
    <clipPath id="clip-path">
      <rect id="Rectangle_895" data-name="Rectangle 895" width="782" height="857.012" fill="none"/>
    </clipPath>
  </defs>
  <g id="Group_2412" data-name="Group 2412" clip-path="url(#clip-path)">
    <path id="Path_1271" data-name="Path 1271" d="M83.507,138.783a3.616,3.616,0,1,0,4.568,2.29,3.621,3.621,0,0,0-4.568-2.29" transform="translate(402.227 687.957)" fill="#4e5254"/>
    <path id="Path_1272" data-name="Path 1272" d="M93.7,134.646a3.612,3.612,0,1,0,3.125,6.512,3.5,3.5,0,0,0,.781-.5,3.614,3.614,0,0,0-3.906-6.011" transform="translate(454.916 666.57)" fill="#4e5254"/>
    <path id="Path_1273" data-name="Path 1273" d="M90.356,136.169a3.613,3.613,0,1,0,4.747,1.885,3.613,3.613,0,0,0-4.747-1.885" transform="translate(437.655 674.439)" fill="#4e5254"/>
    <path id="Path_1274" data-name="Path 1274" d="M86.958,137.552a3.616,3.616,0,1,0,4.664,2.087,3.615,3.615,0,0,0-4.664-2.087" transform="translate(420.084 681.578)" fill="#4e5254"/>
    <path id="Path_1275" data-name="Path 1275" d="M80.013,139.856a3.613,3.613,0,0,0,1.962,6.954,3.555,3.555,0,0,0,1.36-.722,3.614,3.614,0,0,0-3.322-6.232" transform="translate(384.097 693.527)" fill="#4e5254"/>
    <path id="Path_1276" data-name="Path 1276" d="M65.736,142.37a3.61,3.61,0,1,0,3.841,3.369,3.615,3.615,0,0,0-3.841-3.369" transform="translate(309.502 706.645)" fill="#4e5254"/>
    <path id="Path_1277" data-name="Path 1277" d="M69.308,142.016h0a3.588,3.588,0,0,0-3.125,4.055,3.611,3.611,0,1,0,3.125-4.055" transform="translate(328.372 704.827)" fill="#4e5254"/>
    <path id="Path_1278" data-name="Path 1278" d="M76.481,140.761A3.614,3.614,0,0,0,78.1,147.8a3.613,3.613,0,0,0,2.714-4.336,3.619,3.619,0,0,0-4.336-2.708" transform="translate(365.723 698.24)" fill="#4e5254"/>
    <path id="Path_1279" data-name="Path 1279" d="M72.915,141.49a3.617,3.617,0,1,0,4.193,2.928,3.611,3.611,0,0,0-4.193-2.928" transform="translate(347.141 702.044)" fill="#4e5254"/>
    <path id="Path_1280" data-name="Path 1280" d="M115.2,120.524a3.555,3.555,0,0,0-.429,5.039,3.518,3.518,0,0,0,5,.31l.018-.018a3.519,3.519,0,1,0-4.592-5.332" transform="translate(565.478 593.752)" fill="#4e5254"/>
    <path id="Path_1281" data-name="Path 1281" d="M112.345,122.86a3.613,3.613,0,1,0,4.515,5.642l.083-.066a3.614,3.614,0,0,0-4.6-5.576" transform="translate(550.929 605.913)" fill="#4e5254"/>
    <path id="Path_1282" data-name="Path 1282" d="M117.943,118.045a3.615,3.615,0,0,0,4.795,5.409.924.924,0,0,1,.113-.1,3.615,3.615,0,0,0-4.908-5.308" transform="translate(579.676 581.178)" fill="#4e5254"/>
    <path id="Path_1283" data-name="Path 1283" d="M120.5,115.39h0a3.866,3.866,0,0,0,.066,5.2,3.639,3.639,0,0,0,4.92.233c.072-.06.161-.107.233-.173a3.681,3.681,0,0,0-.036-5.165,3.82,3.82,0,0,0-5.182-.1" transform="translate(593.31 567.97)" fill="#4e5254"/>
    <path id="Path_1284" data-name="Path 1284" d="M109.425,125.112a3.613,3.613,0,1,0,4.306,5.8,2.339,2.339,0,0,0,.191-.149,3.614,3.614,0,0,0-4.5-5.654" transform="translate(535.899 617.485)" fill="#4e5254"/>
    <path id="Path_1285" data-name="Path 1285" d="M96.978,132.986a3.615,3.615,0,0,0,3.387,6.387,3.892,3.892,0,0,0,.65-.441,3.615,3.615,0,0,0-4.037-5.946" transform="translate(471.842 658.013)" fill="#4e5254"/>
    <path id="Path_1286" data-name="Path 1286" d="M100.195,131.2a3.614,3.614,0,0,0,3.632,6.25,3.853,3.853,0,0,0,.531-.376,3.615,3.615,0,0,0-4.163-5.874" transform="translate(488.419 648.799)" fill="#4e5254"/>
    <path id="Path_1287" data-name="Path 1287" d="M103.346,129.284a3.613,3.613,0,0,0,3.865,6.107,2.624,2.624,0,0,0,.411-.3,3.613,3.613,0,0,0-4.276-5.8" transform="translate(504.632 638.958)" fill="#4e5254"/>
    <path id="Path_1288" data-name="Path 1288" d="M106.419,127.256a3.614,3.614,0,0,0,4.091,5.958,2.841,2.841,0,0,0,.3-.233,3.612,3.612,0,0,0-4.389-5.725" transform="translate(520.464 628.509)" fill="#4e5254"/>
    <path id="Path_1289" data-name="Path 1289" d="M59.805,143.351a3.617,3.617,0,1,0,5.093.411,3.618,3.618,0,0,0-5.093-.411" transform="translate(290.552 707.292)" fill="#4e5254"/>
    <path id="Path_1290" data-name="Path 1290" d="M192.084,163,124.8,95.739a3.838,3.838,0,0,0-6.172,2.839V190.5a3.727,3.727,0,0,0,3.727,3.721,3.526,3.526,0,0,0,2.427-.906l18.643-16.245,15.207,35.52a2.477,2.477,0,0,0,1.354,1.336,2.593,2.593,0,0,0,.924.173,2.518,2.518,0,0,0,.978-.2l16-6.858a2.479,2.479,0,0,0,1.306-3.256l-14.719-34.4H189.43a3.729,3.729,0,0,0,3.727-3.727A4.142,4.142,0,0,0,192.084,163" transform="translate(588.842 471.227)" fill="#343641"/>
    <path id="Path_1291" data-name="Path 1291" d="M15.679,416.531A15.682,15.682,0,0,1,0,400.852,400.535,400.535,0,0,1,400.852,0a15.679,15.679,0,1,1,0,31.357A369.182,369.182,0,0,0,31.363,400.852a15.687,15.687,0,0,1-15.685,15.679" transform="translate(0 0)" fill="#383150"/>
    <path id="Path_1292" data-name="Path 1292" d="M123.381,624.4a15.653,15.653,0,0,1-11.087-4.592A358.92,358.92,0,0,1,366.051,7.012a15.676,15.676,0,1,1,0,31.351A327.411,327.411,0,0,0,134.474,597.63,15.679,15.679,0,0,1,123.381,624.4" transform="translate(34.801 34.806)" fill="#c0d730"/>
    <path id="Path_1293" data-name="Path 1293" d="M331.246,648.468A317.3,317.3,0,0,1,207.862,39,314.522,314.522,0,0,1,331.246,14.023a15.679,15.679,0,1,1,0,31.357A285.94,285.94,0,0,0,220.1,594.616a285.869,285.869,0,0,0,397.011-263.37,15.682,15.682,0,1,1,31.363,0A317.238,317.238,0,0,1,331.246,648.468" transform="translate(69.606 69.606)" fill="#e34868"/>
    <path id="Path_1294" data-name="Path 1294" d="M296.445,571.851a275.208,275.208,0,0,1-194.65-470.067,274.488,274.488,0,0,1,194.65-80.749,15.676,15.676,0,1,1,0,31.351,244.123,244.123,0,0,0-94.883,468.9,243.507,243.507,0,0,0,267.366-52.373A15.677,15.677,0,0,1,491.1,491.09a274.659,274.659,0,0,1-194.65,80.761" transform="translate(104.407 104.412)" fill="#0093d3"/>
    <path id="Path_1295" data-name="Path 1295" d="M261.644,495.233A233.64,233.64,0,0,1,170.787,46.444a231.338,231.338,0,0,1,90.857-18.4,15.676,15.676,0,1,1,0,31.351,202.291,202.291,0,0,0-78.62,388.567A202.543,202.543,0,0,0,447.975,340.253a202.261,202.261,0,0,0,0-157.24,15.676,15.676,0,1,1,28.87-12.226,233.6,233.6,0,0,1-215.2,324.445" transform="translate(139.208 139.213)" fill="#a7a8aa"/>
    <path id="Path_1296" data-name="Path 1296" d="M118.836,170.79a61.671,61.671,0,1,0-61.671-61.671,61.833,61.833,0,0,0,61.671,61.671" transform="translate(283.752 235.519)" fill="#f3b53e"/>
    <path id="Path_1297" data-name="Path 1297" d="M261.842,113.741a57.4,57.4,0,0,0-6.2-11.313,76.645,76.645,0,0,0-53.053-33.391,11.35,11.35,0,0,0-7.807,1.89,65.778,65.778,0,0,1-77.564,0,10.06,10.06,0,0,0-7.807-1.89,76.115,76.115,0,0,0-53.059,33.391,66.533,66.533,0,0,0-6.19,11.313,5.724,5.724,0,0,0,.268,5.117,107.066,107.066,0,0,0,7.27,10.771A102.416,102.416,0,0,0,70.1,143.637a160.844,160.844,0,0,0,12.387,10.77,122.817,122.817,0,0,0,146.5,0,118.739,118.739,0,0,0,12.387-10.77,124.183,124.183,0,0,0,12.387-14.009,94.759,94.759,0,0,0,7.276-10.771,4.606,4.606,0,0,0,.805-5.117" transform="translate(246.583 341.846)" fill="#f3b53e"/>
  </g>
</svg>
