<svg xmlns="http://www.w3.org/2000/svg" width="782" height="857.012"><defs><clipPath id="a"><path data-name="Rectangle 895" fill="none" d="M0 0h782v857.012H0z"/></clipPath></defs><g data-name="Group 2412" clip-path="url(#a)"><path data-name="Path 1271" d="M485.734 826.74a3.616 3.616 0 104.568 2.29 3.621 3.621 0 00-4.568-2.29" fill="#4e5254"/><path data-name="Path 1272" d="M548.616 801.216a3.612 3.612 0 103.125 6.512 3.5 3.5 0 00.781-.5 3.614 3.614 0 00-3.906-6.011" fill="#4e5254"/><path data-name="Path 1273" d="M528.011 810.608a3.613 3.613 0 104.747 1.885 3.613 3.613 0 00-4.747-1.885" fill="#4e5254"/><path data-name="Path 1274" d="M507.042 819.13a3.616 3.616 0 104.664 2.087 3.615 3.615 0 00-4.664-2.087" fill="#4e5254"/><path data-name="Path 1275" d="M464.11 833.383a3.613 3.613 0 001.962 6.954 3.555 3.555 0 001.36-.722 3.614 3.614 0 00-3.322-6.232" fill="#4e5254"/><path data-name="Path 1276" d="M375.238 849.015a3.61 3.61 0 103.841 3.369 3.615 3.615 0 00-3.841-3.369" fill="#4e5254"/><path data-name="Path 1277" d="M397.68 846.843a3.588 3.588 0 00-3.125 4.055 3.611 3.611 0 103.125-4.055" fill="#4e5254"/><path data-name="Path 1278" d="M442.204 839.001a3.614 3.614 0 001.619 7.039 3.613 3.613 0 002.714-4.336 3.619 3.619 0 00-4.336-2.708" fill="#4e5254"/><path data-name="Path 1279" d="M420.056 843.534a3.617 3.617 0 104.193 2.928 3.611 3.611 0 00-4.193-2.928" fill="#4e5254"/><path data-name="Path 1280" d="M680.678 714.276a3.555 3.555 0 00-.429 5.039 3.518 3.518 0 005 .31l.018-.018a3.519 3.519 0 10-4.592-5.332" fill="#4e5254"/><path data-name="Path 1281" d="M663.274 728.773a3.613 3.613 0 104.515 5.642l.083-.066a3.614 3.614 0 00-4.6-5.576" fill="#4e5254"/><path data-name="Path 1282" d="M697.619 699.223a3.615 3.615 0 004.795 5.409.924.924 0 01.113-.1 3.615 3.615 0 00-4.908-5.308" fill="#4e5254"/><path data-name="Path 1283" d="M713.81 683.36a3.866 3.866 0 00.066 5.2 3.639 3.639 0 004.92.233c.072-.06.161-.107.233-.173a3.681 3.681 0 00-.036-5.165 3.82 3.82 0 00-5.182-.1" fill="#4e5254"/><path data-name="Path 1284" d="M645.324 742.597a3.613 3.613 0 104.306 5.8 2.339 2.339 0 00.191-.149 3.614 3.614 0 00-4.5-5.654" fill="#4e5254"/><path data-name="Path 1285" d="M568.82 790.999a3.615 3.615 0 003.387 6.387 3.892 3.892 0 00.65-.441 3.615 3.615 0 00-4.037-5.946" fill="#4e5254"/><path data-name="Path 1286" d="M588.614 779.999a3.614 3.614 0 003.632 6.25 3.853 3.853 0 00.531-.376 3.615 3.615 0 00-4.163-5.874" fill="#4e5254"/><path data-name="Path 1287" d="M607.978 768.242a3.614 3.614 0 003.865 6.107 2.624 2.624 0 00.411-.3 3.613 3.613 0 00-4.276-5.8" fill="#4e5254"/><path data-name="Path 1288" d="M626.883 755.765a3.614 3.614 0 004.091 5.958 2.841 2.841 0 00.3-.233 3.612 3.612 0 00-4.389-5.725" fill="#4e5254"/><path data-name="Path 1289" d="M350.357 850.643a3.617 3.617 0 105.093.411 3.618 3.618 0 00-5.093-.411" fill="#4e5254"/><path data-name="Path 1290" d="M780.926 634.227l-67.284-67.261a3.838 3.838 0 00-6.172 2.839v91.922a3.727 3.727 0 003.727 3.721 3.526 3.526 0 002.427-.906l18.643-16.245 15.207 35.52a2.477 2.477 0 001.354 1.336 2.593 2.593 0 00.924.173 2.518 2.518 0 00.978-.2l16-6.858a2.479 2.479 0 001.306-3.256l-14.719-34.4h24.955a3.729 3.729 0 003.727-3.727 4.142 4.142 0 00-1.073-2.658" fill="#343641"/><path data-name="Path 1291" d="M15.679 416.531A15.682 15.682 0 010 400.852 400.535 400.535 0 01400.852 0a15.679 15.679 0 110 31.357A369.182 369.182 0 0031.363 400.852a15.687 15.687 0 01-15.685 15.679" fill="#383150"/><path data-name="Path 1292" d="M158.182 659.206a15.653 15.653 0 01-11.087-4.592A358.92 358.92 0 01400.852 41.818a15.676 15.676 0 110 31.351 327.411 327.411 0 00-231.577 559.267 15.679 15.679 0 01-11.093 26.77" fill="#c0d730"/><path data-name="Path 1293" d="M400.852 718.074a317.3 317.3 0 01-123.384-609.468 314.522 314.522 0 01123.384-24.977 15.679 15.679 0 110 31.357 285.94 285.94 0 00-111.146 549.236 285.869 285.869 0 00397.011-263.37 15.682 15.682 0 1131.363 0 317.238 317.238 0 01-317.228 317.222" fill="#e34868"/><path data-name="Path 1294" d="M400.852 676.263a275.208 275.208 0 01-194.65-470.067 274.488 274.488 0 01194.65-80.749 15.676 15.676 0 110 31.351 244.123 244.123 0 00-94.883 468.9 243.507 243.507 0 00267.366-52.373 15.68 15.68 0 0122.172 22.177 274.659 274.659 0 01-194.65 80.761" fill="#0093d3"/><path data-name="Path 1295" d="M400.852 634.446a233.64 233.64 0 01-90.857-448.789 231.338 231.338 0 0190.857-18.4 15.676 15.676 0 110 31.351 202.291 202.291 0 00-78.62 388.567 202.543 202.543 0 00264.951-107.709 202.261 202.261 0 000-157.24A15.676 15.676 0 11616.053 310a233.6 233.6 0 01-215.2 324.445" fill="#a7a8aa"/><path data-name="Path 1296" d="M402.588 406.309a61.671 61.671 0 10-61.671-61.671 61.833 61.833 0 0061.671 61.671" fill="#f3b53e"/><path data-name="Path 1297" d="M508.425 455.587a57.4 57.4 0 00-6.2-11.313 76.645 76.645 0 00-53.053-33.391 11.35 11.35 0 00-7.807 1.89 65.778 65.778 0 01-77.564 0 10.06 10.06 0 00-7.807-1.89 76.115 76.115 0 00-53.059 33.391 66.533 66.533 0 00-6.19 11.313 5.724 5.724 0 00.268 5.117 107.066 107.066 0 007.27 10.771 102.416 102.416 0 0012.4 14.008 160.844 160.844 0 0012.387 10.77 122.817 122.817 0 00146.5 0 118.739 118.739 0 0012.387-10.77 124.183 124.183 0 0012.387-14.009 94.759 94.759 0 007.276-10.771 4.606 4.606 0 00.805-5.117" fill="#f3b53e"/></g></svg>