<svg id="client_tree" xmlns="http://www.w3.org/2000/svg" xmlns:xlink="http://www.w3.org/1999/xlink" width="725.188" height="1115" viewBox="0 0 725.188 1115">
  <defs>
    <clipPath id="clip-path">
      <rect id="Rectangle_179" data-name="Rectangle 179" width="725.188" height="1115" fill="none"/>
    </clipPath>
  </defs>
  <g id="Group_386" data-name="Group 386" clip-path="url(#clip-path)">
    <path id="Path_186" data-name="Path 186" d="M16.243,743.365q93.052-45.741,186.112-91.345c39.148-19.263,62.384-56.594,62.384-100.21V270.233L252.876,283.28l13.19-29.1,13.188,29.1-11.861-13.048V552.786c0,42.986-22.543,79.9-60.853,99.442C136.271,688.095,29.99,742.6,28.385,743.436H16.243Z" transform="translate(23.744 371.564)" fill="#ffcf00"/>
    <path id="Path_187" data-name="Path 187" d="M371.924,159.248a64.542,64.542,0,0,1,2.651,129.031v324.63a39.955,39.955,0,0,1-5.234,20.1,39.554,39.554,0,0,1-14.8,14.584l-10.605,6.145-55.9,32.306v9.141a39.109,39.109,0,0,1-20.027,34.687l-83.182,48.01a34.482,34.482,0,0,0-12.841,12.7,35.213,35.213,0,0,0-4.537,17.516v90.927c0,37.338,16.61,69.438,47.035,91.069,44.241,31.4,106.35,75.434,124.981,88.7H314.98Q259.5,1034.5,204.093,990.3c-27.422-21.917-42.008-52.131-42.008-87.3l.069-94.9a39.089,39.089,0,0,1,20.029-34.682l54.362-31.4L265.3,725.4a34.524,34.524,0,0,0,12.838-12.7,34.977,34.977,0,0,0,4.535-17.516V149.477a62.6,62.6,0,1,1,5.3,0v530.5l63.923-36.917a34.518,34.518,0,0,0,12.841-12.7,35.015,35.015,0,0,0,4.537-17.518V288.207a64.541,64.541,0,0,1,2.651-129.028Z" transform="translate(236.936 36.215)" fill="#e34868"/>
    <path id="Path_188" data-name="Path 188" d="M201.322,66.6a49,49,0,0,1,1.324,97.975v519.75l35.521-20.516,13.956-8.025A35.484,35.484,0,0,0,270.2,624.447V527.8a66.92,66.92,0,1,1,2.651,0v96.65a37.913,37.913,0,0,1-19.4,33.564l-50.8,29.313v138.8c0,43.616,23.239,80.947,62.387,100.208q93.056,45.741,186.112,91.348H438.794q-88.976-45.431-178.018-90.929c-38.242-19.606-60.782-56.452-60.782-99.437V164.5a49,49,0,0,1,1.327-97.975Z" transform="translate(222.682 97.252)" fill="#343641"/>
    <path id="Path_189" data-name="Path 189" d="M225.932,537.775,90.693,459.689a38.2,38.2,0,0,1-14.306-14.165,38.951,38.951,0,0,1-5.093-19.473V203.1a66.014,66.014,0,1,1,2.651,0V426.051A36.071,36.071,0,0,0,78.689,444.2a36.637,36.637,0,0,0,13.331,13.19L139.4,484.741l86.53,49.967v-42.85a68.807,68.807,0,1,1,5.3,0v77.461a34.052,34.052,0,0,0,17.378,30.219l36.5,21.073a39.089,39.089,0,0,1,20.029,34.682V835.264c0,35.1-14.517,65.314-42.011,87.229-44.94,35.866-109.976,87.786-110.887,88.554H127.679q62.6-44.275,125.121-88.625c30.423-21.632,47.035-53.731,47.035-91.067V655.22A35.212,35.212,0,0,0,295.3,637.7a34.517,34.517,0,0,0-12.841-12.7l-36.5-21.076a39.089,39.089,0,0,1-20.029-34.682Z" transform="translate(9.655 103.882)" fill="#383150"/>
    <path id="Path_190" data-name="Path 190" d="M201.868,1077.014H152.949q37.47-45.531,75.019-91.136c17.095-20.795,25.4-43.965,25.4-70.9V386.02a31.275,31.275,0,0,0-16.12-27.914l-92.254-53.244a42.72,42.72,0,0,1-15.77-15.564,42.141,42.141,0,0,1-5.652-21.423V169.13H123.5a71.42,71.42,0,1,1,10.608-.766v99.58a31.279,31.279,0,0,0,16.117,27.914L180.443,313.3l62.038,35.8a41.74,41.74,0,0,1,21.354,36.986V928.166a106.809,106.809,0,0,1-12.142,50.664c-17.865,35.167-49.266,96.929-49.965,98.256Z" transform="translate(75.871 37.915)" fill="#f3b53e"/>
    <path id="Path_191" data-name="Path 191" d="M262.865,957.842H213.877c-4.749-9.352-33.217-65.388-49.9-98.255a107,107,0,0,1-12.073-50.526V381.78A41.719,41.719,0,0,1,173.263,344.8l62.877-36.289a31.3,31.3,0,0,0,16.117-27.912V230.768a61.761,61.761,0,1,1,10.608,0v49.827a41.974,41.974,0,0,1-21.425,36.984l-19.886,11.445-42.986,24.845A31.848,31.848,0,0,0,166.7,365.591a32.315,32.315,0,0,0-4.19,16.189V795.806c0,26.934,8.3,50.105,25.4,70.9,26.659,32.38,65.873,80.038,74.947,91.136" transform="translate(222.061 157.087)" fill="#0093d3"/>
    <path id="Path_192" data-name="Path 192" d="M57.013,494.136a56.678,56.678,0,0,1,1.745,113.329,35.191,35.191,0,0,0,4.256,12,36.613,36.613,0,0,0,13.331,13.188l31.331,18.075,19.19,11.1V484.855a84.228,84.228,0,1,1,15.77,0v188.9a28.645,28.645,0,0,0,14.8,25.613l63.711,36.774,127.7,73.694V450.589l-53.665-31.122a38.527,38.527,0,0,1-14.3-14.1,38.935,38.935,0,0,1-5.1-19.468V310.815a54.779,54.779,0,1,1,2.651,0V385.9a36.078,36.078,0,0,0,4.746,18.144c3.07,5.3,4.675,8.023,10.468,11.373l4.116,2.373,20.448,11.932,30.7,17.934V159.316a79.833,79.833,0,1,1,15.773,0V673.131l28.193-16.26a35.548,35.548,0,0,0,13.328-13.19,36.074,36.074,0,0,0,4.744-18.141V421.562l-8.931,9.768,10.187-39.219L422.4,431.33l-8.931-9.768V625.539a37.9,37.9,0,0,1-19.4,33.567l-11.024,6.346-18.493,10.679v69.92L618.279,599.858a28.658,28.658,0,0,0,14.8-25.613v-35.1a83.816,83.816,0,1,1,15.842.071v35.029a44.733,44.733,0,0,1-22.681,39.288l-61.688,35.662L364.618,764.338V979.9a108.569,108.569,0,0,0,2.932,25.541c6.908,29.446,23.724,100.766,25.75,109.42H319.818c8.653-36.5,17.513-72.993,25.96-109.558a106.305,106.305,0,0,0,2.861-25.2V828.19l-199.3-115.074a44.613,44.613,0,0,1-22.75-39.288v-8.934L74.738,634.958a38.54,38.54,0,0,1-14.306-14.1,37.787,37.787,0,0,1-4.6-13.326A56.668,56.668,0,0,1,56.663,494.2Z" fill="#c0d730"/>
    <path id="Path_193" data-name="Path 193" d="M190.109,158.456a38.031,38.031,0,1,1-38.03,38.032,38.033,38.033,0,0,1,38.03-38.032" transform="translate(222.31 231.631)" fill="#5ba921"/>
    <path id="Path_194" data-name="Path 194" d="M138.94,247.436a35.729,35.729,0,1,1-35.731,35.731,35.73,35.73,0,0,1,35.731-35.731" transform="translate(150.871 361.703)" fill="#ffcf00"/>
  </g>
</svg>
