<svg xmlns="http://www.w3.org/2000/svg" width="311" height="311" viewBox="0 0 311 311">
  <g id="cross" transform="translate(15000.5 -12670.5)">
    <path id="Path_2357" data-name="Path 2357" d="M241,276a34.89,34.89,0,0,1-24.749-10.251l-241-241a35,35,0,0,1,0-49.5,35,35,0,0,1,49.5,0l241,241A35,35,0,0,1,241,276Z" transform="translate(-14965.5 12705.5)" fill="#707070"/>
    <path id="Line_81" data-name="Line 81" d="M0,276a34.89,34.89,0,0,1-24.749-10.251,35,35,0,0,1,0-49.5l241-241a35,35,0,0,1,49.5,0,35,35,0,0,1,0,49.5l-241,241A34.89,34.89,0,0,1,0,276Z" transform="translate(-14965.5 12705.5)" fill="#707070"/>
  </g>
</svg>
