<svg xmlns="http://www.w3.org/2000/svg" xmlns:xlink="http://www.w3.org/1999/xlink" width="771.731" height="551.863" viewBox="0 0 771.731 551.863">
  <defs>
    <clipPath id="clip-path">
      <rect id="Rectangle_1579" data-name="Rectangle 1579" width="771.731" height="551.863" rx="62.298" fill="none"/>
    </clipPath>
    <clipPath id="clip-path-2">
      <rect id="Rectangle_1574" data-name="Rectangle 1574" width="706.584" height="488.596" fill="none"/>
    </clipPath>
    <clipPath id="clip-path-3">
      <rect id="Rectangle_1575" data-name="Rectangle 1575" width="88.59" height="113.101" fill="none"/>
    </clipPath>
    <clipPath id="clip-path-4">
      <rect id="Rectangle_1576" data-name="Rectangle 1576" width="88.589" height="113.101" fill="none"/>
    </clipPath>
    <clipPath id="clip-path-6">
      <rect id="Rectangle_1578" data-name="Rectangle 1578" width="88.589" height="113.1" fill="none"/>
    </clipPath>
  </defs>
  <g id="image_05" transform="translate(-74.282)">
    <g id="Group_4366" data-name="Group 4366" transform="translate(74.282)">
      <g id="Group_4182" data-name="Group 4182">
        <g id="Group_4181" data-name="Group 4181" clip-path="url(#clip-path)">
          <g id="Group_4168" data-name="Group 4168" transform="translate(38.543 36.156)" opacity="0.2">
            <g id="Group_4167" data-name="Group 4167">
              <g id="Group_4166" data-name="Group 4166" clip-path="url(#clip-path-2)">
                <path id="Path_2214" data-name="Path 2214" d="M757.79,29.474H160.2a54.5,54.5,0,0,0-50.6,34.263,67.256,67.256,0,0,1,19.562,14.727,55.637,55.637,0,0,1,54.923,19.013,38.618,38.618,0,1,1-1.486,72.413,55.666,55.666,0,0,1-61.023,15.06,66.954,66.954,0,0,1-15.875,28V463.572a54.5,54.5,0,0,0,54.5,54.5H757.79a54.5,54.5,0,0,0,54.5-54.5V83.972a54.5,54.5,0,0,0-54.5-54.5" transform="translate(-105.702 -29.474)" fill="#008ccc"/>
              </g>
            </g>
          </g>
          <path id="Path_2215" data-name="Path 2215" d="M433.911,96.547l0-.011a6.4,6.4,0,0,0-8.367-3.44l-36.318,15.212c-.189.08-.373.168-.551.263-.077.028-.155.056-.232.088L352,123.583a6.4,6.4,0,0,0-3.485,8.349l0,.011L503.532,506.761a6.391,6.391,0,0,0,5.807,3.944l43.143.677a8.879,8.879,0,0,0,5.51-2.307l30.029-30.987a6.392,6.392,0,0,0,1.318-6.9Z" transform="translate(-12.22 20.994)" fill="#ecae3e"/>
          <path id="Path_2216" data-name="Path 2216" d="M439.67,35.908l-.007-.018a9.748,9.748,0,0,0-12.75-5.241l-55.338,23.18c-.289.12-.569.254-.84.4-.118.043-.235.087-.353.135L314.861,77.1a9.745,9.745,0,0,0-5.31,12.721l.007.018,20.412,50.183a9.743,9.743,0,0,0,8.849,6.008l65.741,1.032a13.52,13.52,0,0,0,8.4-3.517l45.756-47.215a9.743,9.743,0,0,0,2.008-10.507Z" transform="translate(-21.111 6.777)" fill="#383150"/>
          <g id="Group_4171" data-name="Group 4171" transform="translate(351.761 39.969)" opacity="0.4">
            <g id="Group_4170" data-name="Group 4170" transform="translate(0)">
              <g id="Group_4169" data-name="Group 4169" clip-path="url(#clip-path-3)">
                <path id="Path_2217" data-name="Path 2217" d="M401.119,142.944l45.755-47.216a9.741,9.741,0,0,0,2.009-10.506L427.833,35.3l-.007-.018a9.717,9.717,0,0,0-1.7-2.7l-65.1,26.964,35.679,86.136c.255-.108.507-.224.75-.353a9.724,9.724,0,0,0,3.657-2.385" transform="translate(-361.034 -32.582)"/>
              </g>
            </g>
          </g>
          <path id="Path_2218" data-name="Path 2218" d="M483.913,11.838l-122.269-.716a3.711,3.711,0,0,0-1.679.389,3.748,3.748,0,0,0-1.463.911L272.553,99.387a3.967,3.967,0,0,0,2.753,6.645l122.269.718a5.279,5.279,0,0,0,3.143-1.3l85.948-86.965a3.62,3.62,0,0,0,.742-4.2,3.626,3.626,0,0,0-3.494-2.446" transform="translate(-29.583 2.521)" fill="#383150"/>
          <path id="Path_2219" data-name="Path 2219" d="M599.051,171.188l0-.012a6.4,6.4,0,0,0-8.367-3.438L554.361,182.95c-.189.078-.373.167-.551.261-.077.028-.155.056-.232.088l-36.437,14.924a6.4,6.4,0,0,0-3.485,8.348l0,.012L668.672,581.4a6.391,6.391,0,0,0,5.807,3.944l43.143.677a8.879,8.879,0,0,0,5.51-2.307l30.029-30.987a6.392,6.392,0,0,0,1.318-6.9Z" transform="translate(25.219 37.915)" fill="#b9d030"/>
          <path id="Path_2220" data-name="Path 2220" d="M604.81,110.548l-.007-.018a9.748,9.748,0,0,0-12.75-5.24l-55.338,23.18c-.29.12-.568.254-.84.4-.118.043-.236.087-.353.135L480,151.742a9.746,9.746,0,0,0-5.31,12.721l.007.018,20.412,50.183a9.743,9.743,0,0,0,8.849,6.008l65.741,1.032a13.52,13.52,0,0,0,8.4-3.517l45.756-47.215a9.742,9.742,0,0,0,2.008-10.507Z" transform="translate(16.328 23.699)" fill="#383150"/>
          <g id="Group_4174" data-name="Group 4174" transform="translate(554.341 131.53)" opacity="0.4">
            <g id="Group_4173" data-name="Group 4173">
              <g id="Group_4172" data-name="Group 4172" clip-path="url(#clip-path-4)">
                <path id="Path_2221" data-name="Path 2221" d="M566.26,217.584l45.755-47.216a9.741,9.741,0,0,0,2.009-10.506l-21.05-49.918-.007-.018a9.717,9.717,0,0,0-1.7-2.7l-65.1,26.964,35.679,86.136c.255-.108.507-.224.749-.353a9.723,9.723,0,0,0,3.657-2.385" transform="translate(-526.175 -107.222)"/>
              </g>
            </g>
          </g>
          <path id="Path_2222" data-name="Path 2222" d="M649.053,86.48l-122.269-.718a5.248,5.248,0,0,0-3.143,1.3l-85.949,86.964a3.967,3.967,0,0,0,2.753,6.645l122.268.718a5.259,5.259,0,0,0,3.143-1.3l85.949-86.964a3.967,3.967,0,0,0-2.753-6.644" transform="translate(7.855 19.443)" fill="#383150"/>
          <path id="Path_2223" data-name="Path 2223" d="M247.107,276.842l0-.012a6.4,6.4,0,0,0-8.367-3.438L202.417,288.6c-.189.079-.373.167-.551.261-.077.028-.155.056-.232.088L165.2,303.878a6.4,6.4,0,0,0-3.485,8.348l0,.012L316.728,687.056A6.391,6.391,0,0,0,322.535,691l43.143.677a8.879,8.879,0,0,0,5.51-2.307l30.029-30.987a6.392,6.392,0,0,0,1.317-6.9Z" transform="translate(-54.57 61.868)" fill="#008ccc"/>
          <path id="Path_2224" data-name="Path 2224" d="M252.866,216.2l-.007-.018a9.748,9.748,0,0,0-12.75-5.241l-55.338,23.18c-.29.12-.569.254-.84.4-.118.043-.236.087-.353.135l-55.52,22.74a9.745,9.745,0,0,0-5.31,12.721l.007.018,20.412,50.183a9.743,9.743,0,0,0,8.849,6.008l65.741,1.032a13.52,13.52,0,0,0,8.4-3.517l45.756-47.215a9.742,9.742,0,0,0,2.008-10.507Z" transform="translate(-63.461 47.652)" fill="#383150"/>
          <g id="Group_4177" data-name="Group 4177" transform="translate(122.608 261.137)" opacity="0.4">
            <g id="Group_4176" data-name="Group 4176">
              <g id="Group_4175" data-name="Group 4175" clip-path="url(#clip-path-4)">
                <path id="Path_2225" data-name="Path 2225" d="M214.316,323.238l45.755-47.216a9.741,9.741,0,0,0,2.009-10.506L241.03,215.6l-.007-.018a9.717,9.717,0,0,0-1.7-2.7l-65.1,26.963,35.679,86.137c.255-.108.507-.225.75-.353a9.725,9.725,0,0,0,3.657-2.385" transform="translate(-174.231 -212.876)"/>
              </g>
            </g>
          </g>
          <path id="Path_2226" data-name="Path 2226" d="M297.109,192.134l-122.268-.718a5.248,5.248,0,0,0-3.143,1.3L85.749,279.681a3.968,3.968,0,0,0,2.753,6.645l122.269.718a5.259,5.259,0,0,0,3.143-1.3l85.949-86.964a3.967,3.967,0,0,0-2.753-6.644" transform="translate(-71.933 43.396)" fill="#383150"/>
          <path id="Path_2227" data-name="Path 2227" d="M396.443,330.2l0-.012a6.4,6.4,0,0,0-8.367-3.438L351.753,341.96c-.189.078-.373.167-.551.261-.077.028-.155.056-.232.088l-36.437,14.924a6.4,6.4,0,0,0-3.485,8.348l0,.012L466.064,740.412a6.391,6.391,0,0,0,5.807,3.944l43.143.677a8.879,8.879,0,0,0,5.51-2.307l30.029-30.987a6.392,6.392,0,0,0,1.318-6.9Z" transform="translate(-20.714 73.964)" fill="#dc4868"/>
          <path id="Path_2228" data-name="Path 2228" d="M402.2,269.559l-.007-.018a9.748,9.748,0,0,0-12.75-5.24l-55.338,23.18c-.289.12-.569.254-.84.4-.118.043-.236.087-.353.135l-55.52,22.739a9.745,9.745,0,0,0-5.31,12.721l.007.018L292.5,373.676a9.743,9.743,0,0,0,8.849,6.008l65.741,1.032a13.52,13.52,0,0,0,8.4-3.517l45.755-47.215a9.741,9.741,0,0,0,2.009-10.507Z" transform="translate(-29.606 59.748)" fill="#383150"/>
          <g id="Group_4180" data-name="Group 4180" transform="translate(305.799 326.59)" opacity="0.4">
            <g id="Group_4179" data-name="Group 4179">
              <g id="Group_4178" data-name="Group 4178" clip-path="url(#clip-path-6)">
                <path id="Path_2229" data-name="Path 2229" d="M363.651,376.6l45.755-47.216a9.741,9.741,0,0,0,2.009-10.506l-21.05-49.918-.007-.018a9.716,9.716,0,0,0-1.7-2.7l-65.1,26.964,35.679,86.136c.255-.108.507-.224.75-.353a9.724,9.724,0,0,0,3.657-2.385" transform="translate(-323.566 -266.233)"/>
              </g>
            </g>
          </g>
          <path id="Path_2230" data-name="Path 2230" d="M446.445,245.49l-122.269-.718a5.248,5.248,0,0,0-3.143,1.3l-85.949,86.964a3.967,3.967,0,0,0,2.753,6.645l122.269.718a5.259,5.259,0,0,0,3.143-1.3L449.2,252.133a3.966,3.966,0,0,0-2.751-6.644" transform="translate(-38.078 55.492)" fill="#383150"/>
          <path id="Path_2231" data-name="Path 2231" d="M986.054,259.778A164.431,164.431,0,1,1,821.623,95.346,164.432,164.432,0,0,1,986.054,259.778" transform="translate(57.869 21.616)" fill="#fff"/>
          <path id="Path_2232" data-name="Path 2232" d="M342.017,562.014A171.009,171.009,0,1,1,171.008,391.006,171.009,171.009,0,0,1,342.017,562.014" transform="translate(-91.122 88.645)" fill="#fff"/>
          <path id="Path_2233" data-name="Path 2233" d="M557.365,558.083A165.094,165.094,0,1,1,392.272,392.989,165.094,165.094,0,0,1,557.365,558.083" transform="translate(-39.619 89.094)" fill="#fff"/>
          <path id="Path_2234" data-name="Path 2234" d="M777.266,550.618C777.266,659.075,689.345,747,580.889,747S384.511,659.075,384.511,550.618,472.432,354.24,580.889,354.24s196.378,87.921,196.378,196.378" transform="translate(-3.95 80.309)" fill="#fff"/>
          <path id="Path_2235" data-name="Path 2235" d="M496.34,437.092A174.767,174.767,0,1,0,671.107,262.325,174.767,174.767,0,0,0,496.34,437.092" transform="translate(21.402 59.471)" fill="#fff"/>
          <path id="Path_2236" data-name="Path 2236" d="M343.3,486.824a66.712,66.712,0,1,1-66.712-66.712A66.712,66.712,0,0,1,343.3,486.824" transform="translate(-43.543 95.243)" fill="#fff"/>
        </g>
      </g>
      <g id="Group_4184" data-name="Group 4184" transform="translate(25.938 55.685)">
        <g id="Group_4367" data-name="Group 4367">
          <path id="Path_2237" data-name="Path 2237" d="M294.223,129.619a3.066,3.066,0,0,1-3.067-3.067V97.907a3.07,3.07,0,0,1,.891-2.161L341.153,46.3a3.066,3.066,0,1,1,4.351,4.322L297.29,99.171v27.381a3.066,3.066,0,0,1-3.067,3.067" transform="translate(-51.053 -45.393)" fill="#383150"/>
          <path id="Path_2238" data-name="Path 2238" d="M301.433,113.81a6.682,6.682,0,1,1-6.682-6.682,6.682,6.682,0,0,1,6.682,6.682" transform="translate(-51.753 -31.398)" fill="#383150"/>
          <path id="Path_2239" data-name="Path 2239" d="M305.191,143.168h-18.6a3.533,3.533,0,0,1-3.258-4.9l9.3-22.165a3.533,3.533,0,0,1,6.516,0l9.3,22.165a3.534,3.534,0,0,1-3.258,4.9" transform="translate(-52.89 -29.854)" fill="#383150"/>
          <path id="Path_2240" data-name="Path 2240" d="M459.728,203.333a3.066,3.066,0,0,1-3.067-3.067V171.621a3.07,3.07,0,0,1,.891-2.161l49.106-49.446a3.066,3.066,0,1,1,4.351,4.322l-48.215,48.549v27.381a3.066,3.066,0,0,1-3.067,3.067" transform="translate(-13.531 -28.682)" fill="#383150"/>
          <path id="Path_2241" data-name="Path 2241" d="M466.939,187.523a6.682,6.682,0,1,1-6.683-6.682,6.683,6.683,0,0,1,6.683,6.682" transform="translate(-14.231 -14.686)" fill="#383150"/>
          <path id="Path_2242" data-name="Path 2242" d="M470.7,216.882h-18.6a3.533,3.533,0,0,1-3.258-4.9l9.3-22.165a3.533,3.533,0,0,1,6.516,0l9.3,22.165a3.534,3.534,0,0,1-3.258,4.9" transform="translate(-15.369 -13.143)" fill="#383150"/>
          <path id="Path_2243" data-name="Path 2243" d="M258.2,362.652a3.066,3.066,0,0,1-3.067-3.067V330.94a3.07,3.07,0,0,1,.891-2.161l49.106-49.446a3.066,3.066,0,1,1,4.351,4.322L261.264,332.2v27.381a3.066,3.066,0,0,1-3.067,3.067" transform="translate(-59.22 7.437)" fill="#383150"/>
          <path id="Path_2244" data-name="Path 2244" d="M265.407,346.842a6.682,6.682,0,1,1-6.682-6.682,6.683,6.683,0,0,1,6.682,6.682" transform="translate(-59.92 21.433)" fill="#383150"/>
          <path id="Path_2245" data-name="Path 2245" d="M269.164,376.2h-18.6a3.533,3.533,0,0,1-3.258-4.9l9.3-22.165a3.533,3.533,0,0,1,6.516,0l9.3,22.165a3.534,3.534,0,0,1-3.258,4.9" transform="translate(-61.058 22.976)" fill="#383150"/>
          <path id="Path_2246" data-name="Path 2246" d="M106.6,309.133a3.066,3.066,0,0,1-3.067-3.067V277.421a3.07,3.07,0,0,1,.891-2.161l49.106-49.446a3.066,3.066,0,1,1,4.351,4.322l-48.215,48.549v27.381a3.066,3.066,0,0,1-3.067,3.067" transform="translate(-93.589 -4.696)" fill="#383150"/>
          <path id="Path_2247" data-name="Path 2247" d="M113.809,293.323a6.682,6.682,0,1,1-6.682-6.682,6.682,6.682,0,0,1,6.682,6.682" transform="translate(-94.289 9.299)" fill="#383150"/>
          <path id="Path_2248" data-name="Path 2248" d="M117.567,322.682h-18.6a3.533,3.533,0,0,1-3.258-4.9l9.3-22.165a3.533,3.533,0,0,1,6.516,0l9.3,22.165a3.534,3.534,0,0,1-3.258,4.9" transform="translate(-95.426 10.843)" fill="#383150"/>
        </g>
      </g>
    </g>
  </g>
</svg>
