<svg xmlns="http://www.w3.org/2000/svg" xmlns:xlink="http://www.w3.org/1999/xlink" width="45" height="45" viewBox="0 0 45 45">
  <defs>
    <clipPath id="clip-path">
      <rect id="twitter" width="45" height="45" transform="translate(5048 6062)" fill="#fff" stroke="#707070" stroke-width="1"/>
    </clipPath>
    <clipPath id="clip-path-2">
      <rect id="Rectangle_1463" data-name="Rectangle 1463" width="37.25" height="37.25" fill="none"/>
    </clipPath>
  </defs>
  <g id="linkedin" transform="translate(-5048 -6062)" clip-path="url(#clip-path)">
    <g id="linkedin-2" data-name="linkedin" transform="translate(5052 6066)">
      <g id="Group_3973" data-name="Group 3973" clip-path="url(#clip-path-2)">
        <path id="Path_2043" data-name="Path 2043" d="M329.355,33.528a3.739,3.739,0,0,1-3.754,3.724H295.861A3.739,3.739,0,0,1,292.1,33.53V3.725A3.739,3.739,0,0,1,295.857,0H325.6a3.739,3.739,0,0,1,3.756,3.722V33.528Zm-27.77-26.9a2.48,2.48,0,1,0-.382,4.945,2.616,2.616,0,0,0,.317,0,2.482,2.482,0,1,0,.443-4.944,2.611,2.611,0,0,0-.377-.005m2.474,6.908h-5.008V29.475h5.008Zm3,15.934h5.008V20.286a3.531,3.531,0,0,1,.165-1.237,2.748,2.748,0,0,1,2.572-1.856c1.813,0,2.539,1.4,2.539,3.454v8.831h5.018v-9.42c0-4.692-2.472-6.876-5.769-6.876a5.809,5.809,0,0,0-4.978,2.578h-.1l-.232-2.216h-4.352c.066,1.434.131,3.093.131,5.083Z" transform="translate(-292.105 -0.001)" fill="#4d4d4d"/>
      </g>
    </g>
  </g>
</svg>
