<svg xmlns="http://www.w3.org/2000/svg" width="145.763" height="146.036" viewBox="0 0 145.763 146.036">
  <g id="search_icon" transform="translate(-1411.91 -885)">
    <path id="Ellipse_16" data-name="Ellipse 16" d="M65.864,15a50.864,50.864,0,1,0,50.864,50.864A50.921,50.921,0,0,0,65.864,15m0-15A65.864,65.864,0,1,1,0,65.864,65.864,65.864,0,0,1,65.864,0Z" transform="translate(1411.91 885)" fill="#fff"/>
    <path id="Path_2029" data-name="Path 2029" d="M20908.828,944.388a7.475,7.475,0,0,1-5.3-2.2l-27.492-27.489a7.5,7.5,0,0,1,10.605-10.607l27.492,27.489a7.5,7.5,0,0,1-5.3,12.8Z" transform="translate(-19358.654 86.647)" fill="#fff"/>
  </g>
</svg>
