<svg xmlns="http://www.w3.org/2000/svg" xmlns:xlink="http://www.w3.org/1999/xlink" width="45" height="45" viewBox="0 0 45 45">
  <defs>
    <clipPath id="clip-path">
      <rect id="twitter" width="45" height="45" transform="translate(5027 6097)" fill="#fff" stroke="#707070" stroke-width="1"/>
    </clipPath>
  </defs>
  <g id="twitter-2" data-name="twitter" transform="translate(-5027 -6097)" clip-path="url(#clip-path)">
    <g id="twitter-3" data-name="twitter" transform="translate(5031 6104)">
      <path id="Path_2048" data-name="Path 2048" d="M37.627,15.083a15.263,15.263,0,0,1-4.431,1.23A7.823,7.823,0,0,0,36.589,12a15.455,15.455,0,0,1-4.9,1.894,7.658,7.658,0,0,0-5.635-2.463,7.764,7.764,0,0,0-7.72,7.8,7.849,7.849,0,0,0,.2,1.777A21.826,21.826,0,0,1,2.621,12.856,7.878,7.878,0,0,0,5.01,23.273a7.659,7.659,0,0,1-3.494-.981v.1a7.792,7.792,0,0,0,6.19,7.654,7.807,7.807,0,0,1-2.032.271,7.262,7.262,0,0,1-1.455-.145,7.735,7.735,0,0,0,7.209,5.422,15.382,15.382,0,0,1-9.585,3.335A16.045,16.045,0,0,1,0,38.82a21.647,21.647,0,0,0,11.832,3.51c14.2,0,21.963-11.89,21.963-22.2l-.028-1.009a15.519,15.519,0,0,0,3.86-4.034" transform="translate(0 -11.428)" fill="#4d4d4d"/>
    </g>
  </g>
</svg>
