<svg width="100" height="118" viewBox="0 0 100 118" fill="none" xmlns="http://www.w3.org/2000/svg">
<path d="M8.48602 35.8215C17.7978 18.2581 31.3702 4.18462 42.4704 0.584008C47.1919 -0.947578 49.6943 3.02529 53.3299 3.28845C56.9654 3.55262 61.8516 -1.83257 63.4452 0.660764C68.5473 0.550115 69.077 0.774407 73.2168 4.80266C80.7608 12.1434 100.221 45.1939 99.9981 50.2878C99.9528 51.3265 99.7375 51.5049 99.4476 50.7453C99.1851 50.0605 98.5921 49.4993 98.1284 49.4993C97.6657 49.4993 97.7365 50.7334 98.2861 52.2406C98.8347 53.7488 99.355 59.9163 99.4419 65.9472C99.5741 75.194 99.2899 77.6153 97.6279 81.3983C96.5448 83.8655 94.9971 86.4603 94.1878 87.1641C92.8687 88.3145 92.8441 88.0603 93.9499 84.672C95.2417 80.7175 94.8885 78.7447 93.3937 81.5638C92.914 82.468 90.7685 85.5502 88.625 88.4121C83.8657 94.768 83.6561 97.7207 87.6939 101.529C90.5438 104.216 90.574 104.326 88.4729 104.326C87.2699 104.326 85.776 103.788 85.1528 103.13C84.3341 102.265 84.0196 102.249 84.0196 103.073C84.0196 103.7 84.9639 104.911 86.1188 105.764C88.5305 107.549 87.6646 107.845 84.7883 106.22C83.3076 105.383 83.014 105.407 83.5484 106.321C83.9346 106.98 85.7817 108.196 87.6533 109.021L91.0556 110.521L87.7742 112.366C85.9687 113.38 82.8562 114.229 80.8581 114.252L77.2244 114.294L77.8722 108.064C78.6777 100.318 82.9639 85.1614 84.6523 84.0898C88.1188 81.8898 90.507 69.4362 87.4625 69.4362C84.8818 69.4362 81.4058 64.7859 80.6853 60.3679L79.9686 55.9788L78.7986 59.4677L77.6286 62.9567L76.5842 60.1755C75.8883 58.3253 75.7419 52.9264 76.1451 44.0495C76.8524 28.4738 76.0592 28.1209 71.1394 25.9507C69.4273 25.1961 66.059 22.6342 63.4452 22.6342C60.8314 22.6342 58.5235 24.1295 58.5235 23.5812C58.5235 22.2993 58.2053 22.6372 57.8153 22.702C57.4253 22.7678 56.8946 22.7369 56.6349 22.6342C55.329 22.1169 56.2563 21.1166 53.3299 21C51.1929 20.9153 47 23.9461 44.1116 22.2993C44.2353 22.9652 43.7537 23.2732 43.0417 22.9851C42.3297 22.696 40.2315 23.1287 38.3797 23.9461C35.7621 25.1004 34.375 23.7736 32.1492 28.4269C29.017 34.9772 26.8734 46.5406 27.7148 52.3403L28.2436 55.9788L26.4107 51.9914L24.5778 48.004L24.4541 52.9882L24.3304 57.9724L23.1803 54.0439L22.0292 50.1153L20.9177 55.9548C20.3068 59.1667 19.8072 63.2627 19.8072 65.058C19.8072 69.6884 18.4805 69.9645 16.9894 65.6452L15.7175 61.9598L14.5003 64.9504C12.606 69.6017 12.8969 75.7422 15.1547 78.7717C16.2302 80.2161 17.659 81.3983 18.3294 81.3983C19.8629 81.3983 21.6099 90.0908 22.3417 101.375C22.9414 110.617 21.6751 115.163 17.9092 117.291C15.657 118.563 15.6476 118.494 17.4465 113.949C19.5561 108.619 19.1812 108.393 15.5324 112.799C12.7165 116.199 12.3935 116.382 13.3407 114.036C14.2132 111.878 14.1858 110.762 13.216 108.848C12.4001 107.24 12.1622 104.539 12.5182 100.908C13.0243 95.73 12.8789 95.2096 10.0573 92.1154C8.40858 90.3072 6.53417 87.9406 5.89204 86.8571C4.84387 85.0877 4.77871 85.1913 5.24425 87.8778C5.71546 90.6002 5.65407 90.6889 4.5634 88.8747C3.90334 87.7782 3.34621 84.347 3.32355 81.2488C3.28389 75.9396 3.1734 75.6764 1.39339 76.6593C-0.406442 77.6522 -0.419655 77.6113 1.10539 75.7941C3.82497 72.5523 6.5455 65.1467 6.55211 60.963C6.55684 58.7699 5.95624 55.1484 5.21875 52.9145C3.5445 47.8435 4.35187 43.6189 8.48602 35.8215Z" fill="#787E9B"/>
<path d="M16.665 64.9386C16.051 67.2576 15.259 65.2696 12 53.2326L18.356 55.2226C18.808 58.8506 21.53 58.8046 24.984 55.1096L28.004 51.8776L33.524 53.1136C36.56 53.7926 40.239 55.2886 41.7 56.4376C45.51 59.4346 56.822 59.4346 60.632 56.4376C62.093 55.2886 65.798 53.7866 68.865 53.1006C74.362 51.8706 74.476 51.8916 76.756 54.5426C79.417 57.6366 81.161 58.0076 81.177 55.4826C81.183 54.5196 81.454 52.1256 81.779 50.1616L87.615 52.2536C86.273 61.2276 84.29 68.3226 84.196 64.4826C84.18 63.7956 83.773 63.2326 83.293 63.2326C82.813 63.2326 82.203 65.4976 81.937 68.2656C81.445 73.3896 78.305 78.2326 75.476 78.2326C74.738 78.2326 75.57 76.9506 77.324 75.3826C80.093 72.9086 80.524 71.8586 80.59 67.4196C80.682 61.2576 79.352 59.6446 72.565 57.6906L67.666 56.2796L71.925 56.5336C74.51 56.6876 76.04 56.3836 75.818 55.7596C75.293 54.2866 65.172 54.9326 63.265 56.5616C62.386 57.3136 60.872 58.2106 59.901 58.5546C57.36 59.4566 56.095 63.4966 57.174 67.2616C58.289 71.1486 59.779 73.0146 63.666 75.3906C65.316 76.3996 66.17 77.2266 65.564 77.2286C62.703 77.2386 57.606 72.4146 56.062 68.2376C55.16 65.7946 53.689 63.3346 52.794 62.7696C50.372 61.2426 48.173 63.0856 46.27 68.2376C44.726 72.4146 39.629 77.2386 36.768 77.2286C36.162 77.2266 37.016 76.3996 38.666 75.3906C42.553 73.0146 44.043 71.1486 45.158 67.2616C46.237 63.4966 44.972 59.4566 42.431 58.5546C41.46 58.2106 39.989 57.3526 39.161 56.6476C37.06 54.8586 27.614 53.6986 26.735 55.1206C26.274 55.8666 27.467 56.2616 30.357 56.3216L34.666 56.4116L29.767 57.7566C23.002 59.6136 21.65 61.2416 21.742 67.4196C21.808 71.8586 22.239 72.9086 25.008 75.3826C26.762 76.9506 27.594 78.2326 26.856 78.2326C24.072 78.2326 20.975 73.4556 20.316 68.1436C19.589 62.2736 17.789 60.6936 16.665 64.9386Z" fill="#787E9B"/>
</svg>
