<?xml version="1.0" encoding="UTF-8"?>
<svg id="Layer_2" data-name="Layer 2" xmlns="http://www.w3.org/2000/svg" viewBox="0 0 470.35 346.38">
  <defs>
    <style>
      .cls-1 {
        fill: #000;
      }

      .cls-1, .cls-2 {
        stroke-width: 0px;
      }

      .cls-2 {
        fill: #dedfdf;
      }
    </style>
  </defs>
  <g id="Layer_1-2" data-name="Layer 1">
    <g>
      <g>
        <path class="cls-1" d="M1.34.59h4.37c3.52,0,5.96,2.42,5.96,5.57v.03c0,3.15-2.43,5.6-5.96,5.6H1.34V.59ZM3.81,2.82v6.75h1.9c2.02,0,3.38-1.36,3.38-3.35v-.03c0-1.98-1.36-3.38-3.38-3.38h-1.9Z"/>
        <path class="cls-1" d="M13.18,7.55v-.03c0-2.45,1.75-4.47,4.24-4.47,2.87,0,4.18,2.22,4.18,4.66,0,.19-.02.42-.03.64h-5.97c.24,1.1,1.01,1.68,2.1,1.68.82,0,1.41-.26,2.08-.88l1.39,1.23c-.8.99-1.95,1.6-3.5,1.6-2.58,0-4.48-1.81-4.48-4.43ZM19.23,6.83c-.14-1.09-.78-1.83-1.81-1.83s-1.67.72-1.86,1.83h3.67Z"/>
        <path class="cls-1" d="M23.41,3.22h2.43v1.22c.56-.72,1.3-1.38,2.53-1.38,1.12,0,1.97.5,2.42,1.36.75-.88,1.65-1.36,2.82-1.36,1.81,0,2.9,1.09,2.9,3.15v5.59h-2.43v-4.79c0-1.15-.51-1.74-1.42-1.74s-1.47.59-1.47,1.74v4.79h-2.43v-4.79c0-1.15-.51-1.74-1.42-1.74s-1.47.59-1.47,1.74v4.79h-2.43V3.22Z"/>
        <path class="cls-1" d="M38.19,7.55v-.03c0-2.46,1.99-4.47,4.66-4.47s4.63,1.97,4.63,4.43v.03c0,2.46-1.98,4.47-4.66,4.47s-4.63-1.97-4.63-4.43ZM45.07,7.55v-.03c0-1.26-.91-2.37-2.26-2.37s-2.22,1.07-2.22,2.34v.03c0,1.26.91,2.37,2.26,2.37s2.22-1.07,2.22-2.34Z"/>
        <path class="cls-1" d="M49.28,13.49l.83-1.82c.88.5,1.76.78,2.9.78,1.66,0,2.45-.8,2.45-2.34v-.42c-.72.86-1.5,1.39-2.8,1.39-2,0-3.81-1.46-3.81-4v-.03c0-2.56,1.84-4,3.81-4,1.33,0,2.11.56,2.77,1.28v-1.12h2.43v6.64c0,1.54-.37,2.66-1.09,3.38-.8.8-2.03,1.15-3.7,1.15-1.39,0-2.71-.32-3.79-.9ZM55.46,7.09v-.03c0-1.17-.91-1.98-2.1-1.98s-2.08.82-2.08,1.98v.03c0,1.18.9,1.99,2.08,1.99s2.1-.82,2.1-1.99Z"/>
        <path class="cls-1" d="M60.03,3.22h2.43v1.73c.5-1.18,1.3-1.95,2.74-1.89v2.54h-.13c-1.62,0-2.61.98-2.61,3.03v3.17h-2.43V3.22Z"/>
        <path class="cls-1" d="M65.81,9.33v-.03c0-1.87,1.42-2.74,3.46-2.74.87,0,1.49.14,2.1.35v-.14c0-1.01-.62-1.57-1.84-1.57-.93,0-1.58.18-2.37.46l-.61-1.86c.94-.42,1.87-.69,3.33-.69,1.33,0,2.29.35,2.9.96.64.64.93,1.58.93,2.74v4.98h-2.35v-.93c-.59.66-1.41,1.09-2.59,1.09-1.62,0-2.95-.93-2.95-2.62ZM71.39,8.77v-.43c-.42-.19-.96-.32-1.55-.32-1.04,0-1.68.42-1.68,1.18v.03c0,.66.54,1.04,1.33,1.04,1.14,0,1.9-.62,1.9-1.5Z"/>
        <path class="cls-1" d="M75.79,3.22h2.43v1.23c.59-.8,1.41-1.39,2.67-1.39,2,0,3.91,1.57,3.91,4.43v.03c0,2.87-1.87,4.43-3.91,4.43-1.3,0-2.1-.59-2.67-1.28v3.68h-2.43V3.22ZM82.37,7.52v-.03c0-1.42-.96-2.37-2.1-2.37s-2.08.94-2.08,2.37v.03c0,1.42.94,2.37,2.08,2.37s2.1-.93,2.1-2.37Z"/>
        <path class="cls-1" d="M86.59.11h2.43v4.32c.56-.72,1.28-1.38,2.51-1.38,1.84,0,2.91,1.22,2.91,3.18v5.55h-2.43v-4.79c0-1.15-.54-1.74-1.47-1.74s-1.52.59-1.52,1.74v4.79h-2.43V.11Z"/>
        <path class="cls-1" d="M96.61.11h2.56v2.16h-2.56V.11ZM96.67,3.22h2.43v8.58h-2.43V3.22Z"/>
        <path class="cls-1" d="M100.97,7.55v-.03c0-2.45,1.87-4.47,4.5-4.47,1.62,0,2.62.54,3.43,1.44l-1.49,1.6c-.54-.58-1.09-.94-1.95-.94-1.22,0-2.08,1.07-2.08,2.34v.03c0,1.31.85,2.37,2.18,2.37.82,0,1.38-.35,1.97-.91l1.42,1.44c-.83.91-1.79,1.57-3.51,1.57-2.58,0-4.47-1.99-4.47-4.43Z"/>
        <path class="cls-1" d="M109.85,10.66l1.04-1.6c.93.67,1.9,1.02,2.71,1.02.7,0,1.02-.26,1.02-.64v-.03c0-.53-.83-.7-1.78-.99-1.2-.35-2.56-.91-2.56-2.58v-.03c0-1.75,1.41-2.72,3.14-2.72,1.09,0,2.27.37,3.2.99l-.93,1.68c-.85-.5-1.7-.8-2.32-.8-.59,0-.9.26-.9.59v.03c0,.48.82.71,1.75,1.02,1.2.4,2.59.98,2.59,2.55v.03c0,1.91-1.42,2.77-3.28,2.77-1.2,0-2.54-.4-3.68-1.3Z"/>
        <path class="cls-1" d="M122.94,7.55v-.03c0-2.46,1.99-4.47,4.66-4.47s4.63,1.97,4.63,4.43v.03c0,2.46-1.98,4.47-4.66,4.47s-4.63-1.97-4.63-4.43ZM129.83,7.55v-.03c0-1.26-.91-2.37-2.26-2.37s-2.22,1.07-2.22,2.34v.03c0,1.26.91,2.37,2.26,2.37s2.22-1.07,2.22-2.34Z"/>
        <path class="cls-1" d="M134.4,5.3h-1.01v-2h1.01v-.54c0-.94.24-1.63.69-2.08.45-.45,1.1-.67,1.97-.67.77,0,1.28.1,1.73.24v2.02c-.35-.13-.69-.21-1.1-.21-.56,0-.88.29-.88.93v.34h1.97v1.98h-1.94v6.5h-2.43v-6.5Z"/>
        <path class="cls-1" d="M145.29,9.36v-4.07h-1.02v-2.08h1.02V1.02h2.43v2.19h2.02v2.08h-2.02v3.67c0,.56.24.83.78.83.45,0,.85-.11,1.2-.3v1.95c-.51.3-1.1.5-1.92.5-1.49,0-2.5-.59-2.5-2.58Z"/>
        <path class="cls-1" d="M151.54.11h2.43v4.32c.56-.72,1.28-1.38,2.51-1.38,1.84,0,2.91,1.22,2.91,3.18v5.55h-2.43v-4.79c0-1.15-.54-1.74-1.47-1.74s-1.52.59-1.52,1.74v4.79h-2.43V.11Z"/>
        <path class="cls-1" d="M161.08,7.55v-.03c0-2.45,1.75-4.47,4.24-4.47,2.87,0,4.18,2.22,4.18,4.66,0,.19-.02.42-.03.64h-5.97c.24,1.1,1.01,1.68,2.1,1.68.82,0,1.41-.26,2.08-.88l1.39,1.23c-.8.99-1.95,1.6-3.5,1.6-2.58,0-4.48-1.81-4.48-4.43ZM167.14,6.83c-.14-1.09-.78-1.83-1.81-1.83s-1.67.72-1.86,1.83h3.67Z"/>
        <path class="cls-1" d="M175.87,6.23v-.03c0-3.18,2.48-5.79,5.87-5.79,2.02,0,3.23.54,4.4,1.54l-1.55,1.87c-.86-.72-1.63-1.14-2.93-1.14-1.79,0-3.22,1.58-3.22,3.49v.03c0,2.05,1.41,3.55,3.39,3.55.9,0,1.7-.22,2.32-.67v-1.6h-2.48v-2.13h4.87v4.87c-1.15.98-2.74,1.78-4.79,1.78-3.49,0-5.89-2.45-5.89-5.76Z"/>
        <path class="cls-1" d="M188.91.59h8.45v2.19h-6v2.27h5.28v2.19h-5.28v2.35h6.08v2.19h-8.53V.59Z"/>
        <path class="cls-1" d="M199.63.59h2.66l2.95,4.74,2.94-4.74h2.66v11.2h-2.45v-7.32l-3.15,4.79h-.06l-3.12-4.74v7.27h-2.42V.59Z"/>
        <path class="cls-1" d="M213.63.59h2.46v11.2h-2.46V.59Z"/>
        <path class="cls-1" d="M218.89.59h2.27l5.25,6.9V.59h2.43v11.2h-2.1l-5.43-7.12v7.12h-2.43V.59Z"/>
        <path class="cls-1" d="M231.65.59h2.46v11.2h-2.46V.59Z"/>
        <path class="cls-1" d="M241.15,9.84l3.73-3.06c1.39-1.15,1.94-1.76,1.94-2.69s-.62-1.46-1.5-1.46-1.46.48-2.29,1.5l-1.73-1.39c1.1-1.5,2.18-2.32,4.18-2.32,2.32,0,3.86,1.36,3.86,3.46v.03c0,1.87-.96,2.8-2.95,4.34l-1.83,1.41h4.88v2.13h-8.29v-1.95Z"/>
        <path class="cls-1" d="M255.8,7.55v-.03c0-2.45,1.87-4.47,4.5-4.47,1.62,0,2.62.54,3.43,1.44l-1.49,1.6c-.54-.58-1.09-.94-1.95-.94-1.22,0-2.08,1.07-2.08,2.34v.03c0,1.31.85,2.37,2.18,2.37.82,0,1.38-.35,1.97-.91l1.42,1.44c-.83.91-1.79,1.57-3.51,1.57-2.58,0-4.47-1.99-4.47-4.43Z"/>
        <path class="cls-1" d="M264.7,7.55v-.03c0-2.46,1.99-4.47,4.66-4.47s4.63,1.97,4.63,4.43v.03c0,2.46-1.98,4.47-4.66,4.47s-4.63-1.97-4.63-4.43ZM271.58,7.55v-.03c0-1.26-.91-2.37-2.26-2.37s-2.22,1.07-2.22,2.34v.03c0,1.26.91,2.37,2.26,2.37s2.22-1.07,2.22-2.34Z"/>
        <path class="cls-1" d="M275.74.11h2.43v4.32c.56-.72,1.28-1.38,2.51-1.38,1.84,0,2.91,1.22,2.91,3.18v5.55h-2.43v-4.79c0-1.15-.54-1.74-1.47-1.74s-1.52.59-1.52,1.74v4.79h-2.43V.11Z"/>
        <path class="cls-1" d="M285.29,7.55v-.03c0-2.46,1.99-4.47,4.66-4.47s4.63,1.97,4.63,4.43v.03c0,2.46-1.98,4.47-4.66,4.47s-4.63-1.97-4.63-4.43ZM292.17,7.55v-.03c0-1.26-.91-2.37-2.26-2.37s-2.22,1.07-2.22,2.34v.03c0,1.26.91,2.37,2.26,2.37s2.22-1.07,2.22-2.34Z"/>
        <path class="cls-1" d="M296.33,3.22h2.43v1.73c.5-1.18,1.3-1.95,2.74-1.89v2.54h-.13c-1.62,0-2.61.98-2.61,3.03v3.17h-2.43V3.22Z"/>
        <path class="cls-1" d="M303.42,9.36v-4.07h-1.02v-2.08h1.02V1.02h2.43v2.19h2.02v2.08h-2.02v3.67c0,.56.24.83.78.83.45,0,.85-.11,1.2-.3v1.95c-.51.3-1.1.5-1.92.5-1.49,0-2.5-.59-2.5-2.58Z"/>
        <path class="cls-1" d="M314.4,8.77V3.22h2.43v4.79c0,1.15.54,1.75,1.47,1.75s1.52-.59,1.52-1.75V3.22h2.43v8.58h-2.43v-1.22c-.56.72-1.28,1.38-2.51,1.38-1.84,0-2.91-1.22-2.91-3.19Z"/>
        <path class="cls-1" d="M323.75,10.66l1.04-1.6c.93.67,1.9,1.02,2.71,1.02.7,0,1.02-.26,1.02-.64v-.03c0-.53-.83-.7-1.78-.99-1.2-.35-2.56-.91-2.56-2.58v-.03c0-1.75,1.41-2.72,3.14-2.72,1.09,0,2.27.37,3.2.99l-.93,1.68c-.85-.5-1.7-.8-2.32-.8-.59,0-.9.26-.9.59v.03c0,.48.82.71,1.75,1.02,1.2.4,2.59.98,2.59,2.55v.03c0,1.91-1.42,2.77-3.28,2.77-1.2,0-2.54-.4-3.68-1.3Z"/>
        <path class="cls-1" d="M332.04,7.55v-.03c0-2.45,1.75-4.47,4.24-4.47,2.87,0,4.18,2.22,4.18,4.66,0,.19-.02.42-.03.64h-5.97c.24,1.1,1.01,1.68,2.1,1.68.82,0,1.41-.26,2.08-.88l1.39,1.23c-.8.99-1.95,1.6-3.5,1.6-2.58,0-4.48-1.81-4.48-4.43ZM338.09,6.83c-.14-1.09-.78-1.83-1.81-1.83s-1.67.72-1.86,1.83h3.67Z"/>
        <path class="cls-1" d="M341.88,7.52v-.03c0-2.87,1.87-4.43,3.91-4.43,1.3,0,2.1.59,2.67,1.28V.11h2.43v11.68h-2.43v-1.23c-.59.8-1.41,1.39-2.67,1.39-2,0-3.91-1.57-3.91-4.43ZM348.49,7.52v-.03c0-1.42-.95-2.37-2.08-2.37s-2.1.93-2.1,2.37v.03c0,1.42.96,2.37,2.1,2.37s2.08-.95,2.08-2.37Z"/>
        <path class="cls-1" d="M358.28,5.3h-1.01v-2h1.01v-.54c0-.94.24-1.63.69-2.08.45-.45,1.1-.67,1.97-.67.77,0,1.28.1,1.73.24v2.02c-.35-.13-.69-.21-1.1-.21-.56,0-.88.29-.88.93v.34h1.97v1.98h-1.94v6.5h-2.43v-6.5Z"/>
        <path class="cls-1" d="M363.4,7.55v-.03c0-2.46,1.99-4.47,4.66-4.47s4.63,1.97,4.63,4.43v.03c0,2.46-1.98,4.47-4.66,4.47s-4.63-1.97-4.63-4.43ZM370.29,7.55v-.03c0-1.26-.91-2.37-2.26-2.37s-2.22,1.07-2.22,2.34v.03c0,1.26.91,2.37,2.26,2.37s2.22-1.07,2.22-2.34Z"/>
        <path class="cls-1" d="M374.44,3.22h2.43v1.73c.5-1.18,1.3-1.95,2.74-1.89v2.54h-.13c-1.62,0-2.61.98-2.61,3.03v3.17h-2.43V3.22Z"/>
        <path class="cls-1" d="M386.33,9.36v-4.07h-1.02v-2.08h1.02V1.02h2.43v2.19h2.02v2.08h-2.02v3.67c0,.56.24.83.78.83.45,0,.85-.11,1.2-.3v1.95c-.51.3-1.1.5-1.92.5-1.49,0-2.5-.59-2.5-2.58Z"/>
        <path class="cls-1" d="M392.57.11h2.43v4.32c.56-.72,1.28-1.38,2.51-1.38,1.84,0,2.91,1.22,2.91,3.18v5.55h-2.43v-4.79c0-1.15-.54-1.74-1.47-1.74s-1.52.59-1.52,1.74v4.79h-2.43V.11Z"/>
        <path class="cls-1" d="M402.12,7.55v-.03c0-2.45,1.75-4.47,4.24-4.47,2.87,0,4.18,2.22,4.18,4.66,0,.19-.02.42-.03.64h-5.97c.24,1.1,1.01,1.68,2.1,1.68.82,0,1.41-.26,2.08-.88l1.39,1.23c-.8.99-1.95,1.6-3.5,1.6-2.58,0-4.48-1.81-4.48-4.43ZM408.17,6.83c-.14-1.09-.78-1.83-1.81-1.83s-1.67.72-1.86,1.83h3.67Z"/>
        <path class="cls-1" d="M1.09,22.42h2.43v1.23c.59-.8,1.41-1.39,2.67-1.39,2,0,3.91,1.57,3.91,4.43v.03c0,2.87-1.87,4.43-3.91,4.43-1.3,0-2.1-.59-2.67-1.28v3.68H1.09v-11.14ZM7.67,26.72v-.03c0-1.42-.96-2.37-2.1-2.37s-2.08.94-2.08,2.37v.03c0,1.42.94,2.37,2.08,2.37s2.1-.93,2.1-2.37Z"/>
        <path class="cls-1" d="M11.89,22.42h2.43v1.73c.5-1.18,1.3-1.95,2.74-1.89v2.54h-.13c-1.62,0-2.61.98-2.61,3.03v3.17h-2.43v-8.58Z"/>
        <path class="cls-1" d="M18.62,19.31h2.56v2.16h-2.56v-2.16ZM18.69,22.42h2.43v8.58h-2.43v-8.58Z"/>
        <path class="cls-1" d="M23.41,22.42h2.43v1.22c.56-.72,1.3-1.38,2.53-1.38,1.12,0,1.97.5,2.42,1.36.75-.88,1.65-1.36,2.82-1.36,1.81,0,2.9,1.09,2.9,3.15v5.59h-2.43v-4.79c0-1.15-.51-1.74-1.42-1.74s-1.47.59-1.47,1.74v4.79h-2.43v-4.79c0-1.15-.51-1.74-1.42-1.74s-1.47.59-1.47,1.74v4.79h-2.43v-8.58Z"/>
        <path class="cls-1" d="M38.1,28.53v-.03c0-1.87,1.42-2.74,3.46-2.74.87,0,1.49.14,2.1.35v-.14c0-1.01-.62-1.57-1.84-1.57-.93,0-1.58.18-2.37.46l-.61-1.86c.94-.42,1.87-.69,3.33-.69,1.33,0,2.29.35,2.9.96.64.64.93,1.58.93,2.74v4.98h-2.35v-.93c-.59.66-1.41,1.09-2.59,1.09-1.62,0-2.95-.93-2.95-2.62ZM43.68,27.97v-.43c-.42-.19-.96-.32-1.55-.32-1.04,0-1.68.42-1.68,1.18v.03c0,.66.54,1.04,1.33,1.04,1.14,0,1.9-.62,1.9-1.5Z"/>
        <path class="cls-1" d="M48.08,22.42h2.43v1.73c.5-1.18,1.3-1.95,2.74-1.89v2.54h-.13c-1.62,0-2.61.98-2.61,3.03v3.17h-2.43v-8.58Z"/>
        <path class="cls-1" d="M60.4,22.42h2.53l-3.3,8.79c-.66,1.75-1.36,2.4-2.82,2.4-.88,0-1.54-.22-2.16-.59l.82-1.76c.32.19.72.34,1.04.34.42,0,.64-.13.85-.56l-3.36-8.61h2.58l1.95,5.84,1.87-5.84Z"/>
        <path class="cls-1" d="M68.66,28.53v-.03c0-1.87,1.42-2.74,3.46-2.74.87,0,1.49.14,2.1.35v-.14c0-1.01-.62-1.57-1.84-1.57-.93,0-1.58.18-2.37.46l-.61-1.86c.94-.42,1.87-.69,3.33-.69,1.33,0,2.29.35,2.9.96.64.64.93,1.58.93,2.74v4.98h-2.35v-.93c-.59.66-1.41,1.09-2.59,1.09-1.62,0-2.95-.93-2.95-2.62ZM74.24,27.97v-.43c-.42-.19-.96-.32-1.55-.32-1.04,0-1.68.42-1.68,1.18v.03c0,.66.54,1.04,1.33,1.04,1.14,0,1.9-.62,1.9-1.5Z"/>
        <path class="cls-1" d="M78.64,22.42h2.43v1.22c.56-.72,1.28-1.38,2.51-1.38,1.84,0,2.91,1.22,2.91,3.18v5.55h-2.43v-4.79c0-1.15-.54-1.74-1.47-1.74s-1.52.59-1.52,1.74v4.79h-2.43v-8.58Z"/>
        <path class="cls-1" d="M88.09,28.53v-.03c0-1.87,1.42-2.74,3.46-2.74.87,0,1.49.14,2.1.35v-.14c0-1.01-.62-1.57-1.84-1.57-.93,0-1.58.18-2.37.46l-.61-1.86c.94-.42,1.87-.69,3.33-.69,1.33,0,2.29.35,2.9.96.64.64.93,1.58.93,2.74v4.98h-2.35v-.93c-.59.66-1.41,1.09-2.59,1.09-1.62,0-2.95-.93-2.95-2.62ZM93.68,27.97v-.43c-.42-.19-.96-.32-1.55-.32-1.04,0-1.68.42-1.68,1.18v.03c0,.66.54,1.04,1.33,1.04,1.14,0,1.9-.62,1.9-1.5Z"/>
        <path class="cls-1" d="M98.19,19.31h2.43v11.68h-2.43v-11.68Z"/>
        <path class="cls-1" d="M108.54,22.42h2.53l-3.3,8.79c-.66,1.75-1.36,2.4-2.82,2.4-.88,0-1.54-.22-2.16-.59l.82-1.76c.32.19.72.34,1.04.34.42,0,.64-.13.85-.56l-3.36-8.61h2.58l1.95,5.84,1.87-5.84Z"/>
        <path class="cls-1" d="M111.52,29.86l1.04-1.6c.93.67,1.9,1.02,2.71,1.02.7,0,1.02-.26,1.02-.64v-.03c0-.53-.83-.7-1.78-.99-1.2-.35-2.56-.91-2.56-2.58v-.03c0-1.75,1.41-2.72,3.14-2.72,1.09,0,2.27.37,3.2.99l-.93,1.68c-.85-.5-1.7-.8-2.32-.8-.59,0-.9.26-.9.59v.03c0,.48.82.71,1.75,1.02,1.2.4,2.59.98,2.59,2.55v.03c0,1.91-1.42,2.77-3.28,2.77-1.2,0-2.54-.4-3.68-1.3Z"/>
        <path class="cls-1" d="M120.27,19.31h2.56v2.16h-2.56v-2.16ZM120.33,22.42h2.43v8.58h-2.43v-8.58Z"/>
        <path class="cls-1" d="M124.38,29.86l1.04-1.6c.93.67,1.9,1.02,2.71,1.02.7,0,1.02-.26,1.02-.64v-.03c0-.53-.83-.7-1.78-.99-1.2-.35-2.56-.91-2.56-2.58v-.03c0-1.75,1.41-2.72,3.14-2.72,1.09,0,2.27.37,3.2.99l-.93,1.68c-.85-.5-1.7-.8-2.32-.8-.59,0-.9.26-.9.59v.03c0,.48.82.71,1.75,1.02,1.2.4,2.59.98,2.59,2.55v.03c0,1.91-1.42,2.77-3.28,2.77-1.2,0-2.54-.4-3.68-1.3Z"/>
      </g>
      <rect class="cls-2" y="117.87" width="470.35" height="18.73"/>
      <rect class="cls-2" y="75.91" width="470.35" height="18.73"/>
      <rect class="cls-2" y="159.82" width="470.35" height="18.73"/>
      <rect class="cls-2" y="201.78" width="470.35" height="18.73"/>
      <rect class="cls-2" y="243.73" width="470.35" height="18.73"/>
      <rect class="cls-2" y="285.69" width="470.35" height="18.73"/>
      <rect class="cls-2" y="327.64" width="470.35" height="18.73"/>
      <g>
        <path class="cls-1" d="M26.35,79.98h7.05v1.02h-5.94v3.5h5.31v1.01h-5.31v4.27h-1.11v-9.81Z"/>
        <path class="cls-1" d="M34.7,86.18v-.03c0-2.09,1.47-3.77,3.47-3.77,2.14,0,3.38,1.71,3.38,3.82,0,.14,0,.22-.01.35h-5.74c.15,1.57,1.26,2.45,2.55,2.45.99,0,1.69-.41,2.28-1.02l.67.6c-.73.81-1.61,1.36-2.98,1.36-1.99,0-3.61-1.53-3.61-3.77ZM40.46,85.76c-.11-1.32-.87-2.46-2.31-2.46-1.26,0-2.21,1.05-2.35,2.46h4.66Z"/>
        <path class="cls-1" d="M43.43,82.54h1.08v1.22c.48-.71,1.12-1.37,2.34-1.37s1.93.63,2.33,1.44c.52-.8,1.29-1.44,2.55-1.44,1.67,0,2.69,1.12,2.69,2.91v4.48h-1.08v-4.23c0-1.4-.7-2.18-1.88-2.18-1.09,0-2,.81-2,2.24v4.17h-1.06v-4.26c0-1.36-.71-2.16-1.86-2.16s-2.02.95-2.02,2.28v4.13h-1.08v-7.24Z"/>
        <path class="cls-1" d="M56.16,87.68v-.03c0-1.53,1.26-2.34,3.1-2.34.92,0,1.58.13,2.23.31v-.25c0-1.3-.8-1.98-2.16-1.98-.85,0-1.53.22-2.2.53l-.32-.88c.8-.36,1.58-.6,2.63-.6s1.81.27,2.34.8c.49.49.74,1.19.74,2.12v4.43h-1.04v-1.09c-.5.66-1.34,1.25-2.62,1.25-1.34,0-2.7-.77-2.7-2.26ZM61.5,87.12v-.7c-.53-.15-1.25-.31-2.13-.31-1.36,0-2.12.59-2.12,1.5v.03c0,.91.84,1.44,1.82,1.44,1.33,0,2.42-.81,2.42-1.96Z"/>
        <path class="cls-1" d="M64.91,79.56h1.08v10.23h-1.08v-10.23Z"/>
        <path class="cls-1" d="M68.05,86.18v-.03c0-2.09,1.47-3.77,3.47-3.77,2.14,0,3.38,1.71,3.38,3.82,0,.14,0,.22-.01.35h-5.74c.15,1.57,1.26,2.45,2.55,2.45.99,0,1.69-.41,2.28-1.02l.67.6c-.73.81-1.61,1.36-2.98,1.36-1.99,0-3.61-1.53-3.61-3.77ZM73.8,85.76c-.11-1.32-.87-2.46-2.31-2.46-1.26,0-2.21,1.05-2.35,2.46h4.66Z"/>
        <path class="cls-1" d="M80.38,88.86l.55-.77c.78.59,1.65.92,2.51.92s1.5-.45,1.5-1.15v-.03c0-.73-.85-1.01-1.81-1.27-1.13-.32-2.4-.71-2.4-2.04v-.03c0-1.25,1.04-2.07,2.47-2.07.88,0,1.86.31,2.61.8l-.49.81c-.67-.43-1.44-.7-2.14-.7-.85,0-1.4.45-1.4,1.05v.03c0,.69.9.95,1.86,1.25,1.12.34,2.33.77,2.33,2.07v.03c0,1.37-1.13,2.17-2.58,2.17-1.04,0-2.19-.41-3-1.06Z"/>
        <path class="cls-1" d="M87.51,86.18v-.03c0-2.09,1.47-3.77,3.47-3.77,2.14,0,3.38,1.71,3.38,3.82,0,.14,0,.22-.01.35h-5.74c.15,1.57,1.26,2.45,2.55,2.45.99,0,1.69-.41,2.28-1.02l.67.6c-.73.81-1.61,1.36-2.98,1.36-1.99,0-3.61-1.53-3.61-3.77ZM93.26,85.76c-.11-1.32-.87-2.46-2.31-2.46-1.26,0-2.21,1.05-2.35,2.46h4.66Z"/>
        <path class="cls-1" d="M98.64,85.37l2.16-2.83h1.2l-2.75,3.54,2.86,3.7h-1.25l-2.24-2.98-2.26,2.98h-1.2l2.83-3.68-2.72-3.56h1.23l2.13,2.83Z"/>
        <path class="cls-1" d="M103.3,91c.7-.25.99-.62.94-1.22h-.5v-1.47h1.29v1.26c0,1.13-.49,1.68-1.55,1.92l-.17-.49Z"/>
        <path class="cls-1" d="M111.49,82.54h1.08v1.26c.48-.78,1.23-1.42,2.48-1.42,1.75,0,2.77,1.18,2.77,2.9v4.5h-1.08v-4.23c0-1.34-.73-2.18-2-2.18s-2.17.91-2.17,2.27v4.15h-1.08v-7.24Z"/>
        <path class="cls-1" d="M124.06,85.76c0-2.58,1.39-4.59,3.88-6l.46.71c-2.13,1.36-3.25,3.04-3.25,5.28s1.12,3.92,3.25,5.28l-.46.71c-2.49-1.4-3.88-3.42-3.88-6Z"/>
        <path class="cls-1" d="M129.91,82.4v-.03c0-1.33.9-2.51,2.24-2.51s2.2,1.16,2.2,2.48v.03c0,1.33-.9,2.51-2.23,2.51s-2.21-1.16-2.21-2.48ZM130.85,82.34v.03c0,.98.57,1.72,1.3,1.72s1.27-.76,1.27-1.69v-.03c0-.98-.59-1.72-1.3-1.72-.77,0-1.27.77-1.27,1.69ZM138.12,79.98h.99l-3.78,5.14-3.4,4.66h-1.01l3.78-5.11,3.42-4.69ZM135.7,87.42v-.03c0-1.33.9-2.51,2.23-2.51s2.2,1.16,2.2,2.48v.03c0,1.33-.88,2.51-2.23,2.51s-2.2-1.16-2.2-2.48ZM139.2,87.42v-.03c0-.98-.57-1.72-1.3-1.72s-1.27.77-1.27,1.7v.03c0,.98.57,1.72,1.3,1.72.77,0,1.27-.76,1.27-1.7Z"/>
        <path class="cls-1" d="M141.64,91.04c2.13-1.36,3.25-3.04,3.25-5.28s-1.12-3.92-3.25-5.28l.46-.71c2.49,1.4,3.88,3.42,3.88,6s-1.39,4.59-3.88,6l-.46-.71Z"/>
        <path class="cls-1" d="M26.35,100.98h1.12l3.57,5.35,3.57-5.35h1.12v9.81h-1.11v-7.94l-3.57,5.25h-.06l-3.57-5.24v7.93h-1.08v-9.81Z"/>
        <path class="cls-1" d="M37.88,107.18v-.03c0-2.09,1.47-3.77,3.47-3.77,2.14,0,3.38,1.71,3.38,3.82,0,.14,0,.22-.01.35h-5.74c.15,1.57,1.26,2.45,2.55,2.45.99,0,1.69-.41,2.28-1.02l.67.6c-.73.81-1.61,1.36-2.98,1.36-1.99,0-3.61-1.53-3.61-3.77ZM43.63,106.76c-.11-1.32-.87-2.46-2.31-2.46-1.26,0-2.21,1.05-2.35,2.46h4.66Z"/>
        <path class="cls-1" d="M46.07,108.68v-.03c0-1.53,1.26-2.34,3.1-2.34.92,0,1.58.13,2.23.31v-.25c0-1.3-.8-1.98-2.16-1.98-.85,0-1.53.22-2.2.53l-.32-.88c.8-.36,1.58-.6,2.63-.6s1.81.27,2.34.8c.49.49.74,1.19.74,2.12v4.43h-1.04v-1.09c-.5.66-1.34,1.25-2.62,1.25-1.34,0-2.7-.77-2.7-2.26ZM51.4,108.12v-.7c-.53-.15-1.25-.31-2.13-.31-1.36,0-2.12.59-2.12,1.5v.03c0,.91.84,1.44,1.82,1.44,1.33,0,2.42-.81,2.42-1.96Z"/>
        <path class="cls-1" d="M54.72,103.54h1.08v1.26c.48-.78,1.23-1.42,2.48-1.42,1.75,0,2.77,1.18,2.77,2.9v4.5h-1.08v-4.23c0-1.34-.73-2.18-2-2.18s-2.17.91-2.17,2.27v4.15h-1.08v-7.24Z"/>
        <path class="cls-1" d="M67,108.68v-.03c0-1.53,1.26-2.34,3.1-2.34.92,0,1.58.13,2.23.31v-.25c0-1.3-.8-1.98-2.16-1.98-.85,0-1.53.22-2.2.53l-.32-.88c.8-.36,1.58-.6,2.63-.6s1.81.27,2.34.8c.49.49.74,1.19.74,2.12v4.43h-1.04v-1.09c-.5.66-1.34,1.25-2.62,1.25-1.34,0-2.7-.77-2.7-2.26ZM72.33,108.12v-.7c-.53-.15-1.25-.31-2.13-.31-1.36,0-2.12.59-2.12,1.5v.03c0,.91.84,1.44,1.82,1.44,1.33,0,2.42-.81,2.42-1.96Z"/>
        <path class="cls-1" d="M75.56,112.04l.49-.84c.83.6,1.75.92,2.79.92,1.6,0,2.63-.88,2.63-2.58v-.85c-.63.84-1.51,1.53-2.84,1.53-1.74,0-3.4-1.3-3.4-3.39v-.03c0-2.12,1.68-3.42,3.4-3.42,1.36,0,2.24.67,2.83,1.46v-1.3h1.08v5.98c0,1.12-.34,1.98-.92,2.56-.64.64-1.61.97-2.76.97-1.21,0-2.33-.34-3.29-1.01ZM81.5,106.82v-.03c0-1.48-1.29-2.45-2.66-2.45s-2.51.95-2.51,2.44v.03c0,1.46,1.16,2.47,2.51,2.47s2.66-1,2.66-2.45Z"/>
        <path class="cls-1" d="M84.5,107.18v-.03c0-2.09,1.47-3.77,3.47-3.77,2.14,0,3.38,1.71,3.38,3.82,0,.14,0,.22-.01.35h-5.74c.15,1.57,1.26,2.45,2.55,2.45.99,0,1.69-.41,2.28-1.02l.67.6c-.73.81-1.61,1.36-2.98,1.36-1.99,0-3.61-1.53-3.61-3.77ZM90.25,106.76c-.11-1.32-.87-2.46-2.31-2.46-1.26,0-2.21,1.05-2.35,2.46h4.66Z"/>
        <path class="cls-1" d="M92.53,112c.7-.25.99-.62.94-1.22h-.5v-1.47h1.29v1.26c0,1.13-.49,1.68-1.55,1.92l-.17-.49Z"/>
        <path class="cls-1" d="M106.14,103.54h1.15l-3.04,7.48c-.62,1.5-1.32,2.04-2.41,2.04-.6,0-1.05-.13-1.54-.36l.36-.85c.35.18.67.27,1.13.27.64,0,1.05-.34,1.48-1.36l-3.29-7.21h1.19l2.63,6.04,2.33-6.04Z"/>
        <path class="cls-1" d="M112.94,106.76c0-2.58,1.39-4.59,3.88-6l.46.71c-2.13,1.36-3.25,3.04-3.25,5.28s1.12,3.92,3.25,5.28l-.46.71c-2.49-1.4-3.88-3.42-3.88-6Z"/>
        <path class="cls-1" d="M118.81,109.35l.69-.81c1.02.92,2,1.39,3.36,1.39s2.19-.7,2.19-1.67v-.03c0-.91-.49-1.43-2.55-1.86-2.25-.49-3.29-1.22-3.29-2.83v-.03c0-1.54,1.36-2.68,3.22-2.68,1.43,0,2.45.41,3.45,1.21l-.64.85c-.91-.74-1.82-1.06-2.83-1.06-1.27,0-2.09.7-2.09,1.58v.03c0,.92.5,1.44,2.66,1.91,2.19.48,3.19,1.27,3.19,2.77v.03c0,1.68-1.4,2.77-3.35,2.77-1.55,0-2.83-.52-4.01-1.57Z"/>
        <path class="cls-1" d="M128.41,100.98h3.4c3.08,0,5.21,2.12,5.21,4.88v.03c0,2.76-2.13,4.9-5.21,4.9h-3.4v-9.81ZM129.52,102v7.76h2.3c2.48,0,4.06-1.68,4.06-3.85v-.03c0-2.17-1.58-3.88-4.06-3.88h-2.3Z"/>
        <path class="cls-1" d="M138.34,112.04c2.13-1.36,3.25-3.04,3.25-5.28s-1.12-3.92-3.25-5.28l.46-.71c2.49,1.4,3.88,3.42,3.88,6s-1.39,4.59-3.88,6l-.46-.71Z"/>
        <path class="cls-1" d="M26.35,121.98h1.12l3.57,5.35,3.57-5.35h1.12v9.81h-1.11v-7.94l-3.57,5.25h-.06l-3.57-5.24v7.93h-1.08v-9.81Z"/>
        <path class="cls-1" d="M37.88,128.18v-.03c0-2.09,1.47-3.77,3.47-3.77,2.14,0,3.38,1.71,3.38,3.82,0,.14,0,.22-.01.35h-5.74c.15,1.57,1.26,2.45,2.55,2.45.99,0,1.69-.41,2.28-1.02l.67.6c-.73.81-1.61,1.36-2.98,1.36-1.99,0-3.61-1.53-3.61-3.77ZM43.63,127.76c-.11-1.32-.87-2.46-2.31-2.46-1.26,0-2.21,1.05-2.35,2.46h4.66Z"/>
        <path class="cls-1" d="M46.07,129.68v-.03c0-1.53,1.26-2.34,3.1-2.34.92,0,1.58.13,2.23.31v-.25c0-1.3-.8-1.98-2.16-1.98-.85,0-1.53.22-2.2.53l-.32-.88c.8-.36,1.58-.6,2.63-.6s1.81.27,2.34.8c.49.49.74,1.19.74,2.12v4.43h-1.04v-1.09c-.5.66-1.34,1.25-2.62,1.25-1.34,0-2.7-.77-2.7-2.26ZM51.4,129.12v-.7c-.53-.15-1.25-.31-2.13-.31-1.36,0-2.12.59-2.12,1.5v.03c0,.91.84,1.44,1.82,1.44,1.33,0,2.42-.81,2.42-1.96Z"/>
        <path class="cls-1" d="M54.72,124.54h1.08v1.26c.48-.78,1.23-1.42,2.48-1.42,1.75,0,2.77,1.18,2.77,2.9v4.5h-1.08v-4.23c0-1.34-.73-2.18-2-2.18s-2.17.91-2.17,2.27v4.15h-1.08v-7.24Z"/>
        <path class="cls-1" d="M67.12,128.18v-.03c0-2.37,1.72-3.77,3.46-3.77,1.34,0,2.21.73,2.77,1.54v-4.37h1.08v10.23h-1.08v-1.46c-.59.87-1.44,1.61-2.77,1.61-1.74,0-3.46-1.37-3.46-3.75ZM73.4,128.17v-.03c0-1.67-1.27-2.79-2.62-2.79s-2.55,1.04-2.55,2.79v.03c0,1.71,1.18,2.8,2.55,2.8s2.62-1.13,2.62-2.8Z"/>
        <path class="cls-1" d="M76.87,121.77h1.23v1.19h-1.23v-1.19ZM76.94,124.54h1.08v7.24h-1.08v-7.24Z"/>
        <path class="cls-1" d="M79.92,130.86l.55-.77c.78.59,1.65.92,2.51.92s1.5-.45,1.5-1.15v-.03c0-.73-.85-1.01-1.81-1.27-1.13-.32-2.4-.71-2.4-2.04v-.03c0-1.25,1.04-2.07,2.47-2.07.88,0,1.86.31,2.61.8l-.49.81c-.67-.43-1.44-.7-2.14-.7-.85,0-1.4.45-1.4,1.05v.03c0,.69.9.95,1.86,1.25,1.12.34,2.33.77,2.33,2.07v.03c0,1.37-1.13,2.17-2.58,2.17-1.04,0-2.19-.41-3-1.06Z"/>
        <path class="cls-1" d="M87.04,128.18v-.03c0-2.09,1.47-3.77,3.47-3.77,2.14,0,3.38,1.71,3.38,3.82,0,.14,0,.22-.01.35h-5.74c.15,1.57,1.26,2.45,2.55,2.45.99,0,1.69-.41,2.28-1.02l.67.6c-.73.81-1.61,1.36-2.98,1.36-1.99,0-3.61-1.53-3.61-3.77ZM92.8,127.76c-.11-1.32-.87-2.46-2.31-2.46-1.26,0-2.21,1.05-2.35,2.46h4.66Z"/>
        <path class="cls-1" d="M95.23,129.68v-.03c0-1.53,1.26-2.34,3.1-2.34.92,0,1.58.13,2.23.31v-.25c0-1.3-.8-1.98-2.16-1.98-.85,0-1.53.22-2.2.53l-.32-.88c.8-.36,1.58-.6,2.63-.6s1.81.27,2.34.8c.49.49.74,1.19.74,2.12v4.43h-1.04v-1.09c-.5.66-1.34,1.25-2.62,1.25-1.34,0-2.7-.77-2.7-2.26ZM100.57,129.12v-.7c-.53-.15-1.25-.31-2.13-.31-1.36,0-2.12.59-2.12,1.5v.03c0,.91.84,1.44,1.82,1.44,1.33,0,2.42-.81,2.42-1.96Z"/>
        <path class="cls-1" d="M103.28,130.86l.55-.77c.78.59,1.65.92,2.51.92s1.5-.45,1.5-1.15v-.03c0-.73-.85-1.01-1.81-1.27-1.13-.32-2.4-.71-2.4-2.04v-.03c0-1.25,1.04-2.07,2.47-2.07.88,0,1.86.31,2.61.8l-.49.81c-.67-.43-1.44-.7-2.14-.7-.85,0-1.4.45-1.4,1.05v.03c0,.69.9.95,1.86,1.25,1.12.34,2.33.77,2.33,2.07v.03c0,1.37-1.13,2.17-2.58,2.17-1.04,0-2.19-.41-3-1.06Z"/>
        <path class="cls-1" d="M110.41,128.18v-.03c0-2.09,1.47-3.77,3.47-3.77,2.14,0,3.38,1.71,3.38,3.82,0,.14,0,.22-.01.35h-5.74c.15,1.57,1.26,2.45,2.55,2.45.99,0,1.69-.41,2.28-1.02l.67.6c-.73.81-1.61,1.36-2.98,1.36-1.99,0-3.61-1.53-3.61-3.77ZM116.17,127.76c-.11-1.32-.87-2.46-2.31-2.46-1.26,0-2.21,1.05-2.35,2.46h4.66Z"/>
        <path class="cls-1" d="M122.92,128.18v-.03c0-2.37,1.72-3.77,3.46-3.77,1.34,0,2.21.73,2.77,1.54v-4.37h1.08v10.23h-1.08v-1.46c-.59.87-1.44,1.61-2.77,1.61-1.74,0-3.46-1.37-3.46-3.75ZM129.2,128.17v-.03c0-1.67-1.27-2.79-2.62-2.79s-2.55,1.04-2.55,2.79v.03c0,1.71,1.18,2.8,2.55,2.8s2.62-1.13,2.62-2.8Z"/>
        <path class="cls-1" d="M132.53,129.04v-4.5h1.08v4.23c0,1.34.73,2.19,2,2.19s2.17-.91,2.17-2.27v-4.15h1.06v7.24h-1.06v-1.26c-.49.78-1.23,1.42-2.48,1.42-1.75,0-2.77-1.18-2.77-2.9Z"/>
        <path class="cls-1" d="M141.26,124.54h1.08v1.89c.53-1.21,1.58-2.07,2.96-2.02v1.16h-.08c-1.58,0-2.87,1.13-2.87,3.32v2.89h-1.08v-7.24Z"/>
        <path class="cls-1" d="M146.04,129.68v-.03c0-1.53,1.26-2.34,3.1-2.34.92,0,1.58.13,2.23.31v-.25c0-1.3-.8-1.98-2.16-1.98-.85,0-1.53.22-2.2.53l-.32-.88c.8-.36,1.58-.6,2.63-.6s1.81.27,2.34.8c.49.49.74,1.19.74,2.12v4.43h-1.04v-1.09c-.5.66-1.34,1.25-2.62,1.25-1.34,0-2.7-.77-2.7-2.26ZM151.37,129.12v-.7c-.53-.15-1.25-.31-2.13-.31-1.36,0-2.12.59-2.12,1.5v.03c0,.91.84,1.44,1.82,1.44,1.33,0,2.42-.81,2.42-1.96Z"/>
        <path class="cls-1" d="M155,129.86v-4.37h-1.01v-.95h1.01v-2.18h1.08v2.18h2.3v.95h-2.3v4.23c0,.88.49,1.21,1.22,1.21.36,0,.67-.07,1.05-.25v.92c-.38.2-.78.31-1.3.31-1.16,0-2.04-.57-2.04-2.04Z"/>
        <path class="cls-1" d="M160.3,121.77h1.23v1.19h-1.23v-1.19ZM160.37,124.54h1.08v7.24h-1.08v-7.24Z"/>
        <path class="cls-1" d="M163.51,128.2v-.03c0-2.04,1.6-3.78,3.78-3.78s3.77,1.71,3.77,3.75v.03c0,2.05-1.61,3.78-3.8,3.78s-3.75-1.71-3.75-3.75ZM169.95,128.2v-.03c0-1.55-1.16-2.83-2.69-2.83s-2.65,1.27-2.65,2.8v.03c0,1.55,1.15,2.82,2.68,2.82s2.66-1.26,2.66-2.79Z"/>
        <path class="cls-1" d="M173,124.54h1.08v1.26c.48-.78,1.23-1.42,2.48-1.42,1.75,0,2.77,1.18,2.77,2.9v4.5h-1.08v-4.23c0-1.34-.73-2.18-2-2.18s-2.17.91-2.17,2.27v4.15h-1.08v-7.24Z"/>
        <path class="cls-1" d="M181.07,133c.7-.25.99-.62.94-1.22h-.5v-1.47h1.29v1.26c0,1.13-.49,1.68-1.55,1.92l-.17-.49Z"/>
        <path class="cls-1" d="M194.68,124.54h1.15l-3.04,7.48c-.62,1.5-1.32,2.04-2.41,2.04-.6,0-1.05-.13-1.54-.36l.36-.85c.35.18.67.27,1.13.27.64,0,1.05-.34,1.48-1.36l-3.29-7.21h1.19l2.63,6.04,2.33-6.04Z"/>
        <path class="cls-1" d="M201.48,127.76c0-2.58,1.39-4.59,3.88-6l.46.71c-2.13,1.36-3.25,3.04-3.25,5.28s1.12,3.92,3.25,5.28l-.46.71c-2.49-1.4-3.88-3.42-3.88-6Z"/>
        <path class="cls-1" d="M207.34,130.35l.69-.81c1.02.92,2,1.39,3.36,1.39s2.19-.7,2.19-1.67v-.03c0-.91-.49-1.43-2.55-1.86-2.25-.49-3.29-1.22-3.29-2.83v-.03c0-1.54,1.36-2.68,3.22-2.68,1.43,0,2.45.41,3.45,1.21l-.64.85c-.91-.74-1.82-1.06-2.83-1.06-1.27,0-2.09.7-2.09,1.58v.03c0,.92.5,1.44,2.66,1.91,2.19.48,3.19,1.27,3.19,2.77v.03c0,1.68-1.4,2.77-3.35,2.77-1.55,0-2.83-.52-4.01-1.57Z"/>
        <path class="cls-1" d="M216.95,121.98h3.4c3.08,0,5.21,2.12,5.21,4.88v.03c0,2.76-2.13,4.9-5.21,4.9h-3.4v-9.81ZM218.05,123v7.76h2.3c2.48,0,4.06-1.68,4.06-3.85v-.03c0-2.17-1.58-3.88-4.06-3.88h-2.3Z"/>
        <path class="cls-1" d="M226.87,133.04c2.13-1.36,3.25-3.04,3.25-5.28s-1.12-3.92-3.25-5.28l.46-.71c2.49,1.4,3.88,3.42,3.88,6s-1.39,4.59-3.88,6l-.46-.71Z"/>
        <path class="cls-1" d="M26.35,142.98h3.67c2.21,0,3.67,1.18,3.67,3.11v.03c0,2.12-1.76,3.21-3.85,3.21h-2.38v3.46h-1.11v-9.81ZM29.88,148.31c1.62,0,2.69-.87,2.69-2.16v-.03c0-1.4-1.05-2.13-2.63-2.13h-2.48v4.31h2.42Z"/>
        <path class="cls-1" d="M35.52,145.54h1.08v1.89c.53-1.21,1.58-2.07,2.96-2.02v1.16h-.08c-1.58,0-2.87,1.13-2.87,3.32v2.89h-1.08v-7.24Z"/>
        <path class="cls-1" d="M41.22,142.77h1.23v1.19h-1.23v-1.19ZM41.29,145.54h1.08v7.24h-1.08v-7.24Z"/>
        <path class="cls-1" d="M44.43,149.2v-.03c0-2.04,1.6-3.78,3.78-3.78s3.77,1.71,3.77,3.75v.03c0,2.05-1.61,3.78-3.8,3.78s-3.75-1.71-3.75-3.75ZM50.87,149.2v-.03c0-1.55-1.16-2.83-2.69-2.83s-2.65,1.27-2.65,2.8v.03c0,1.55,1.15,2.82,2.68,2.82s2.66-1.26,2.66-2.79Z"/>
        <path class="cls-1" d="M53.92,145.54h1.08v1.89c.53-1.21,1.58-2.07,2.96-2.02v1.16h-.08c-1.58,0-2.87,1.13-2.87,3.32v2.89h-1.08v-7.24Z"/>
        <path class="cls-1" d="M66.52,144h-3.31v-1.02h7.72v1.02h-3.31v8.78h-1.11v-8.78Z"/>
        <path class="cls-1" d="M72.95,142.98h1.04l6.18,7.86v-7.86h1.08v9.81h-.88l-6.33-8.04v8.04h-1.08v-9.81Z"/>
        <path class="cls-1" d="M84.01,142.98h7.05v1.02h-5.94v3.5h5.31v1.01h-5.31v4.27h-1.11v-9.81Z"/>
        <path class="cls-1" d="M99.73,145.66c-.04.13-.18.5-.42,1.11l-1.17,2.88c.41,1.59.78,2.63,1.12,3.12h-1.09c-.18-.26-.39-.83-.63-1.7-.54,1.25-1.32,1.88-2.35,1.88-.71,0-1.28-.31-1.72-.92-.44-.61-.66-1.42-.66-2.42,0-1.22.26-2.22.79-2.99s1.21-1.16,2.04-1.16c.53,0,.97.22,1.31.65.34.43.62,1.12.85,2.06.52-1.39.82-2.23.92-2.54h1.03ZM97.16,149.71c-.24-1.05-.4-1.73-.49-2.04s-.22-.59-.42-.86-.45-.4-.77-.4c-.41,0-.77.3-1.09.91-.32.6-.48,1.33-.48,2.18,0,.73.13,1.33.38,1.82s.59.72,1.02.72c.65,0,1.26-.77,1.85-2.32Z"/>
        <path class="cls-1" d="M101.11,148.01h3.89v1.13h-3.89v-1.13Z"/>
        <path class="cls-1" d="M106.57,150.68v-.03c0-1.53,1.26-2.34,3.1-2.34.92,0,1.58.13,2.23.31v-.25c0-1.3-.8-1.98-2.16-1.98-.85,0-1.53.22-2.2.53l-.32-.88c.8-.36,1.58-.6,2.63-.6s1.81.27,2.34.8c.49.49.74,1.19.74,2.12v4.43h-1.04v-1.09c-.5.66-1.34,1.25-2.62,1.25-1.34,0-2.7-.77-2.7-2.26ZM111.91,150.12v-.7c-.53-.15-1.25-.31-2.13-.31-1.36,0-2.12.59-2.12,1.5v.03c0,.91.84,1.44,1.82,1.44,1.33,0,2.42-.81,2.42-1.96Z"/>
        <path class="cls-1" d="M115.23,145.54h1.08v1.26c.48-.78,1.23-1.42,2.48-1.42,1.75,0,2.77,1.18,2.77,2.9v4.5h-1.08v-4.23c0-1.34-.73-2.18-2-2.18s-2.17.91-2.17,2.27v4.15h-1.08v-7.24Z"/>
        <path class="cls-1" d="M124.23,150.86v-4.37h-1.01v-.95h1.01v-2.18h1.08v2.18h2.3v.95h-2.3v4.23c0,.88.49,1.21,1.22,1.21.36,0,.67-.07,1.05-.25v.92c-.38.2-.78.31-1.3.31-1.16,0-2.04-.57-2.04-2.04Z"/>
        <path class="cls-1" d="M128.96,150.68v-.03c0-1.53,1.26-2.34,3.1-2.34.92,0,1.58.13,2.23.31v-.25c0-1.3-.8-1.98-2.16-1.98-.85,0-1.53.22-2.2.53l-.32-.88c.8-.36,1.58-.6,2.63-.6s1.81.27,2.34.8c.49.49.74,1.19.74,2.12v4.43h-1.04v-1.09c-.5.66-1.34,1.25-2.62,1.25-1.34,0-2.7-.77-2.7-2.26ZM134.3,150.12v-.7c-.53-.15-1.25-.31-2.13-.31-1.36,0-2.12.59-2.12,1.5v.03c0,.91.84,1.44,1.82,1.44,1.33,0,2.42-.81,2.42-1.96Z"/>
        <path class="cls-1" d="M137.53,154.04l.49-.84c.83.6,1.75.92,2.79.92,1.6,0,2.63-.88,2.63-2.58v-.85c-.63.84-1.51,1.53-2.84,1.53-1.74,0-3.4-1.3-3.4-3.39v-.03c0-2.12,1.68-3.42,3.4-3.42,1.36,0,2.24.67,2.83,1.46v-1.3h1.08v5.98c0,1.12-.34,1.98-.92,2.56-.64.64-1.61.97-2.76.97-1.21,0-2.33-.34-3.29-1.01ZM143.47,148.82v-.03c0-1.48-1.29-2.45-2.66-2.45s-2.51.95-2.51,2.44v.03c0,1.46,1.16,2.47,2.51,2.47s2.66-1,2.66-2.45Z"/>
        <path class="cls-1" d="M146.46,149.2v-.03c0-2.04,1.6-3.78,3.78-3.78s3.77,1.71,3.77,3.75v.03c0,2.05-1.61,3.78-3.8,3.78s-3.75-1.71-3.75-3.75ZM152.9,149.2v-.03c0-1.55-1.16-2.83-2.69-2.83s-2.65,1.27-2.65,2.8v.03c0,1.55,1.15,2.82,2.68,2.82s2.66-1.26,2.66-2.79Z"/>
        <path class="cls-1" d="M155.95,145.54h1.08v1.26c.48-.78,1.23-1.42,2.48-1.42,1.75,0,2.77,1.18,2.77,2.9v4.5h-1.08v-4.23c0-1.34-.73-2.18-2-2.18s-2.17.91-2.17,2.27v4.15h-1.08v-7.24Z"/>
        <path class="cls-1" d="M164.6,142.77h1.23v1.19h-1.23v-1.19ZM164.67,145.54h1.08v7.24h-1.08v-7.24Z"/>
        <path class="cls-1" d="M167.66,151.86l.55-.77c.78.59,1.65.92,2.51.92s1.5-.45,1.5-1.15v-.03c0-.73-.85-1.01-1.81-1.27-1.13-.32-2.4-.71-2.4-2.04v-.03c0-1.25,1.04-2.07,2.47-2.07.88,0,1.86.31,2.61.8l-.49.81c-.67-.43-1.44-.7-2.14-.7-.85,0-1.4.45-1.4,1.05v.03c0,.69.9.95,1.86,1.25,1.12.34,2.33.77,2.33,2.07v.03c0,1.37-1.13,2.17-2.58,2.17-1.04,0-2.19-.41-3-1.06Z"/>
        <path class="cls-1" d="M175.47,150.86v-4.37h-1.01v-.95h1.01v-2.18h1.08v2.18h2.3v.95h-2.3v4.23c0,.88.49,1.21,1.22,1.21.36,0,.67-.07,1.05-.25v.92c-.38.2-.78.31-1.3.31-1.16,0-2.04-.57-2.04-2.04Z"/>
        <path class="cls-1" d="M184.5,149.18v-.03c0-2.09,1.47-3.77,3.47-3.77,2.14,0,3.38,1.71,3.38,3.82,0,.14,0,.22-.01.35h-5.74c.15,1.57,1.26,2.45,2.55,2.45.99,0,1.69-.41,2.28-1.02l.67.6c-.73.81-1.61,1.36-2.98,1.36-1.99,0-3.61-1.53-3.61-3.77ZM190.25,148.76c-.11-1.32-.87-2.46-2.31-2.46-1.26,0-2.21,1.05-2.35,2.46h4.66Z"/>
        <path class="cls-1" d="M195.63,148.37l2.16-2.83h1.2l-2.75,3.54,2.86,3.7h-1.25l-2.24-2.98-2.26,2.98h-1.2l2.83-3.68-2.72-3.56h1.23l2.13,2.83Z"/>
        <path class="cls-1" d="M200.85,145.54h1.08v1.46c.59-.87,1.44-1.61,2.77-1.61,1.74,0,3.46,1.37,3.46,3.75v.03c0,2.37-1.71,3.77-3.46,3.77-1.34,0-2.21-.73-2.77-1.54v3.63h-1.08v-9.48ZM207.06,149.18v-.03c0-1.71-1.18-2.8-2.55-2.8s-2.62,1.13-2.62,2.79v.03c0,1.68,1.27,2.8,2.62,2.8s2.55-1.04,2.55-2.79Z"/>
        <path class="cls-1" d="M209.7,149.2v-.03c0-2.04,1.6-3.78,3.78-3.78s3.77,1.71,3.77,3.75v.03c0,2.05-1.61,3.78-3.8,3.78s-3.75-1.71-3.75-3.75ZM216.14,149.2v-.03c0-1.55-1.16-2.83-2.69-2.83s-2.65,1.27-2.65,2.8v.03c0,1.55,1.15,2.82,2.68,2.82s2.66-1.26,2.66-2.79Z"/>
        <path class="cls-1" d="M218.59,151.86l.55-.77c.78.59,1.65.92,2.51.92s1.5-.45,1.5-1.15v-.03c0-.73-.85-1.01-1.81-1.27-1.13-.32-2.4-.71-2.4-2.04v-.03c0-1.25,1.04-2.07,2.47-2.07.88,0,1.86.31,2.61.8l-.49.81c-.67-.43-1.44-.7-2.14-.7-.85,0-1.4.45-1.4,1.05v.03c0,.69.9.95,1.86,1.25,1.12.34,2.33.77,2.33,2.07v.03c0,1.37-1.13,2.17-2.58,2.17-1.04,0-2.19-.41-3-1.06Z"/>
        <path class="cls-1" d="M226.05,150.04v-4.5h1.08v4.23c0,1.34.73,2.19,2,2.19s2.17-.91,2.17-2.27v-4.15h1.06v7.24h-1.06v-1.26c-.49.78-1.23,1.42-2.48,1.42-1.75,0-2.77-1.18-2.77-2.9Z"/>
        <path class="cls-1" d="M234.78,145.54h1.08v1.89c.53-1.21,1.58-2.07,2.96-2.02v1.16h-.08c-1.58,0-2.87,1.13-2.87,3.32v2.89h-1.08v-7.24Z"/>
        <path class="cls-1" d="M239.7,149.18v-.03c0-2.09,1.47-3.77,3.47-3.77,2.14,0,3.38,1.71,3.38,3.82,0,.14,0,.22-.01.35h-5.74c.15,1.57,1.26,2.45,2.55,2.45.99,0,1.69-.41,2.28-1.02l.67.6c-.73.81-1.61,1.36-2.98,1.36-1.99,0-3.61-1.53-3.61-3.77ZM245.46,148.76c-.11-1.32-.87-2.46-2.31-2.46-1.26,0-2.21,1.05-2.35,2.46h4.66Z"/>
        <path class="cls-1" d="M247.73,154c.7-.25.99-.62.94-1.22h-.5v-1.47h1.29v1.26c0,1.13-.49,1.68-1.55,1.92l-.17-.49Z"/>
        <path class="cls-1" d="M255.92,145.54h1.08v1.26c.48-.78,1.23-1.42,2.48-1.42,1.75,0,2.77,1.18,2.77,2.9v4.5h-1.08v-4.23c0-1.34-.73-2.18-2-2.18s-2.17.91-2.17,2.27v4.15h-1.08v-7.24Z"/>
        <path class="cls-1" d="M268.5,148.76c0-2.58,1.39-4.59,3.88-6l.46.71c-2.13,1.36-3.25,3.04-3.25,5.28s1.12,3.92,3.25,5.28l-.46.71c-2.49-1.4-3.88-3.42-3.88-6Z"/>
        <path class="cls-1" d="M274.35,145.4v-.03c0-1.33.9-2.51,2.24-2.51s2.2,1.16,2.2,2.48v.03c0,1.33-.9,2.51-2.23,2.51s-2.21-1.16-2.21-2.48ZM275.29,145.34v.03c0,.98.57,1.72,1.3,1.72s1.27-.76,1.27-1.69v-.03c0-.98-.59-1.72-1.3-1.72-.77,0-1.27.77-1.27,1.69ZM282.56,142.98h.99l-3.78,5.14-3.4,4.66h-1.01l3.78-5.11,3.42-4.69ZM280.13,150.42v-.03c0-1.33.9-2.51,2.23-2.51s2.2,1.16,2.2,2.48v.03c0,1.33-.88,2.51-2.23,2.51s-2.2-1.16-2.2-2.48ZM283.64,150.42v-.03c0-.98-.57-1.72-1.3-1.72s-1.27.77-1.27,1.7v.03c0,.98.57,1.72,1.3,1.72.77,0,1.27-.76,1.27-1.7Z"/>
        <path class="cls-1" d="M286.08,154.04c2.13-1.36,3.25-3.04,3.25-5.28s-1.12-3.92-3.25-5.28l.46-.71c2.49,1.4,3.88,3.42,3.88,6s-1.39,4.59-3.88,6l-.46-.71Z"/>
        <path class="cls-1" d="M26.35,163.98h3.67c2.21,0,3.67,1.18,3.67,3.11v.03c0,2.12-1.76,3.21-3.85,3.21h-2.38v3.46h-1.11v-9.81ZM29.88,169.31c1.62,0,2.69-.87,2.69-2.16v-.03c0-1.4-1.05-2.13-2.63-2.13h-2.48v4.31h2.42Z"/>
        <path class="cls-1" d="M35.52,166.54h1.08v1.89c.53-1.21,1.58-2.07,2.96-2.02v1.16h-.08c-1.58,0-2.87,1.13-2.87,3.32v2.89h-1.08v-7.24Z"/>
        <path class="cls-1" d="M41.22,163.77h1.23v1.19h-1.23v-1.19ZM41.29,166.54h1.08v7.24h-1.08v-7.24Z"/>
        <path class="cls-1" d="M44.43,170.2v-.03c0-2.04,1.6-3.78,3.78-3.78s3.77,1.71,3.77,3.75v.03c0,2.05-1.61,3.78-3.8,3.78s-3.75-1.71-3.75-3.75ZM50.87,170.2v-.03c0-1.55-1.16-2.83-2.69-2.83s-2.65,1.27-2.65,2.8v.03c0,1.55,1.15,2.82,2.68,2.82s2.66-1.26,2.66-2.79Z"/>
        <path class="cls-1" d="M53.92,166.54h1.08v1.89c.53-1.21,1.58-2.07,2.96-2.02v1.16h-.08c-1.58,0-2.87,1.13-2.87,3.32v2.89h-1.08v-7.24Z"/>
        <path class="cls-1" d="M66.52,165h-3.31v-1.02h7.72v1.02h-3.31v8.78h-1.11v-8.78Z"/>
        <path class="cls-1" d="M72.95,163.98h1.04l6.18,7.86v-7.86h1.08v9.81h-.88l-6.33-8.04v8.04h-1.08v-9.81Z"/>
        <path class="cls-1" d="M84.01,163.98h7.05v1.02h-5.94v3.5h5.31v1.01h-5.31v4.27h-1.11v-9.81Z"/>
        <path class="cls-1" d="M99.73,166.66c-.04.13-.18.5-.42,1.11l-1.17,2.88c.41,1.59.78,2.63,1.12,3.12h-1.09c-.18-.26-.39-.83-.63-1.7-.54,1.25-1.32,1.88-2.35,1.88-.71,0-1.28-.31-1.72-.92-.44-.61-.66-1.42-.66-2.42,0-1.22.26-2.22.79-2.99s1.21-1.16,2.04-1.16c.53,0,.97.22,1.31.65.34.43.62,1.12.85,2.06.52-1.39.82-2.23.92-2.54h1.03ZM97.16,170.71c-.24-1.05-.4-1.73-.49-2.04s-.22-.59-.42-.86-.45-.4-.77-.4c-.41,0-.77.3-1.09.91-.32.6-.48,1.33-.48,2.18,0,.73.13,1.33.38,1.82s.59.72,1.02.72c.65,0,1.26-.77,1.85-2.32Z"/>
        <path class="cls-1" d="M101.11,169.01h3.89v1.13h-3.89v-1.13Z"/>
        <path class="cls-1" d="M106.57,171.68v-.03c0-1.53,1.26-2.34,3.1-2.34.92,0,1.58.13,2.23.31v-.25c0-1.3-.8-1.98-2.16-1.98-.85,0-1.53.22-2.2.53l-.32-.88c.8-.36,1.58-.6,2.63-.6s1.81.27,2.34.8c.49.49.74,1.19.74,2.12v4.43h-1.04v-1.09c-.5.66-1.34,1.25-2.62,1.25-1.34,0-2.7-.77-2.7-2.26ZM111.91,171.12v-.7c-.53-.15-1.25-.31-2.13-.31-1.36,0-2.12.59-2.12,1.5v.03c0,.91.84,1.44,1.82,1.44,1.33,0,2.42-.81,2.42-1.96Z"/>
        <path class="cls-1" d="M115.23,166.54h1.08v1.26c.48-.78,1.23-1.42,2.48-1.42,1.75,0,2.77,1.18,2.77,2.9v4.5h-1.08v-4.23c0-1.34-.73-2.18-2-2.18s-2.17.91-2.17,2.27v4.15h-1.08v-7.24Z"/>
        <path class="cls-1" d="M124.23,171.86v-4.37h-1.01v-.95h1.01v-2.18h1.08v2.18h2.3v.95h-2.3v4.23c0,.88.49,1.21,1.22,1.21.36,0,.67-.07,1.05-.25v.92c-.38.2-.78.31-1.3.31-1.16,0-2.04-.57-2.04-2.04Z"/>
        <path class="cls-1" d="M128.96,171.68v-.03c0-1.53,1.26-2.34,3.1-2.34.92,0,1.58.13,2.23.31v-.25c0-1.3-.8-1.98-2.16-1.98-.85,0-1.53.22-2.2.53l-.32-.88c.8-.36,1.58-.6,2.63-.6s1.81.27,2.34.8c.49.49.74,1.19.74,2.12v4.43h-1.04v-1.09c-.5.66-1.34,1.25-2.62,1.25-1.34,0-2.7-.77-2.7-2.26ZM134.3,171.12v-.7c-.53-.15-1.25-.31-2.13-.31-1.36,0-2.12.59-2.12,1.5v.03c0,.91.84,1.44,1.82,1.44,1.33,0,2.42-.81,2.42-1.96Z"/>
        <path class="cls-1" d="M137.53,175.04l.49-.84c.83.6,1.75.92,2.79.92,1.6,0,2.63-.88,2.63-2.58v-.85c-.63.84-1.51,1.53-2.84,1.53-1.74,0-3.4-1.3-3.4-3.39v-.03c0-2.12,1.68-3.42,3.4-3.42,1.36,0,2.24.67,2.83,1.46v-1.3h1.08v5.98c0,1.12-.34,1.98-.92,2.56-.64.64-1.61.97-2.76.97-1.21,0-2.33-.34-3.29-1.01ZM143.47,169.82v-.03c0-1.48-1.29-2.45-2.66-2.45s-2.51.95-2.51,2.44v.03c0,1.46,1.16,2.47,2.51,2.47s2.66-1,2.66-2.45Z"/>
        <path class="cls-1" d="M146.46,170.2v-.03c0-2.04,1.6-3.78,3.78-3.78s3.77,1.71,3.77,3.75v.03c0,2.05-1.61,3.78-3.8,3.78s-3.75-1.71-3.75-3.75ZM152.9,170.2v-.03c0-1.55-1.16-2.83-2.69-2.83s-2.65,1.27-2.65,2.8v.03c0,1.55,1.15,2.82,2.68,2.82s2.66-1.26,2.66-2.79Z"/>
        <path class="cls-1" d="M155.95,166.54h1.08v1.26c.48-.78,1.23-1.42,2.48-1.42,1.75,0,2.77,1.18,2.77,2.9v4.5h-1.08v-4.23c0-1.34-.73-2.18-2-2.18s-2.17.91-2.17,2.27v4.15h-1.08v-7.24Z"/>
        <path class="cls-1" d="M164.6,163.77h1.23v1.19h-1.23v-1.19ZM164.67,166.54h1.08v7.24h-1.08v-7.24Z"/>
        <path class="cls-1" d="M167.66,172.86l.55-.77c.78.59,1.65.92,2.51.92s1.5-.45,1.5-1.15v-.03c0-.73-.85-1.01-1.81-1.27-1.13-.32-2.4-.71-2.4-2.04v-.03c0-1.25,1.04-2.07,2.47-2.07.88,0,1.86.31,2.61.8l-.49.81c-.67-.43-1.44-.7-2.14-.7-.85,0-1.4.45-1.4,1.05v.03c0,.69.9.95,1.86,1.25,1.12.34,2.33.77,2.33,2.07v.03c0,1.37-1.13,2.17-2.58,2.17-1.04,0-2.19-.41-3-1.06Z"/>
        <path class="cls-1" d="M175.47,171.86v-4.37h-1.01v-.95h1.01v-2.18h1.08v2.18h2.3v.95h-2.3v4.23c0,.88.49,1.21,1.22,1.21.36,0,.67-.07,1.05-.25v.92c-.38.2-.78.31-1.3.31-1.16,0-2.04-.57-2.04-2.04Z"/>
        <path class="cls-1" d="M185.35,167.49h-.99v-.94h.99v-.63c0-.83.22-1.46.63-1.86.36-.36.9-.56,1.55-.56.5,0,.84.06,1.19.18v.94c-.39-.11-.69-.18-1.05-.18-.84,0-1.26.5-1.26,1.54v.59h2.3v.92h-2.28v6.29h-1.08v-6.29Z"/>
        <path class="cls-1" d="M189.33,171.68v-.03c0-1.53,1.26-2.34,3.1-2.34.92,0,1.58.13,2.23.31v-.25c0-1.3-.8-1.98-2.16-1.98-.85,0-1.53.22-2.2.53l-.32-.88c.8-.36,1.58-.6,2.63-.6s1.81.27,2.34.8c.49.49.74,1.19.74,2.12v4.43h-1.04v-1.09c-.5.66-1.34,1.25-2.62,1.25-1.34,0-2.7-.77-2.7-2.26ZM194.66,171.12v-.7c-.53-.15-1.25-.31-2.13-.31-1.36,0-2.12.59-2.12,1.5v.03c0,.91.84,1.44,1.82,1.44,1.33,0,2.42-.81,2.42-1.96Z"/>
        <path class="cls-1" d="M198.01,163.77h1.23v1.19h-1.23v-1.19ZM198.08,166.54h1.08v7.24h-1.08v-7.24Z"/>
        <path class="cls-1" d="M201.76,163.56h1.08v10.23h-1.08v-10.23Z"/>
        <path class="cls-1" d="M205.23,171.04v-4.5h1.08v4.23c0,1.34.73,2.19,2,2.19s2.17-.91,2.17-2.27v-4.15h1.06v7.24h-1.06v-1.26c-.49.78-1.23,1.42-2.48,1.42-1.75,0-2.77-1.18-2.77-2.9Z"/>
        <path class="cls-1" d="M213.97,166.54h1.08v1.89c.53-1.21,1.58-2.07,2.96-2.02v1.16h-.08c-1.58,0-2.87,1.13-2.87,3.32v2.89h-1.08v-7.24Z"/>
        <path class="cls-1" d="M218.88,170.18v-.03c0-2.09,1.47-3.77,3.47-3.77,2.14,0,3.38,1.71,3.38,3.82,0,.14,0,.22-.01.35h-5.74c.15,1.57,1.26,2.45,2.55,2.45.99,0,1.69-.41,2.28-1.02l.67.6c-.73.81-1.61,1.36-2.98,1.36-1.99,0-3.61-1.53-3.61-3.77ZM224.64,169.76c-.11-1.32-.87-2.46-2.31-2.46-1.26,0-2.21,1.05-2.35,2.46h4.66Z"/>
        <path class="cls-1" d="M226.92,175c.7-.25.99-.62.94-1.22h-.5v-1.47h1.29v1.26c0,1.13-.49,1.68-1.55,1.92l-.17-.49Z"/>
        <path class="cls-1" d="M235.11,166.54h1.08v1.26c.48-.78,1.23-1.42,2.48-1.42,1.75,0,2.77,1.18,2.77,2.9v4.5h-1.08v-4.23c0-1.34-.73-2.18-2-2.18s-2.17.91-2.17,2.27v4.15h-1.08v-7.24Z"/>
        <path class="cls-1" d="M247.68,169.76c0-2.58,1.39-4.59,3.88-6l.46.71c-2.13,1.36-3.25,3.04-3.25,5.28s1.12,3.92,3.25,5.28l-.46.71c-2.49-1.4-3.88-3.42-3.88-6Z"/>
        <path class="cls-1" d="M253.53,166.4v-.03c0-1.33.9-2.51,2.24-2.51s2.2,1.16,2.2,2.48v.03c0,1.33-.9,2.51-2.23,2.51s-2.21-1.16-2.21-2.48ZM254.47,166.34v.03c0,.98.57,1.72,1.3,1.72s1.27-.76,1.27-1.69v-.03c0-.98-.59-1.72-1.3-1.72-.77,0-1.27.77-1.27,1.69ZM261.74,163.98h.99l-3.78,5.14-3.4,4.66h-1.01l3.78-5.11,3.42-4.69ZM259.32,171.42v-.03c0-1.33.9-2.51,2.23-2.51s2.2,1.16,2.2,2.48v.03c0,1.33-.88,2.51-2.23,2.51s-2.2-1.16-2.2-2.48ZM262.82,171.42v-.03c0-.98-.57-1.72-1.3-1.72s-1.27.77-1.27,1.7v.03c0,.98.57,1.72,1.3,1.72.77,0,1.27-.76,1.27-1.7Z"/>
        <path class="cls-1" d="M265.26,175.04c2.13-1.36,3.25-3.04,3.25-5.28s-1.12-3.92-3.25-5.28l.46-.71c2.49,1.4,3.88,3.42,3.88,6s-1.39,4.59-3.88,6l-.46-.71Z"/>
        <path class="cls-1" d="M26.35,184.98h1.12l3.57,5.35,3.57-5.35h1.12v9.81h-1.11v-7.94l-3.57,5.25h-.06l-3.57-5.24v7.93h-1.08v-9.81Z"/>
        <path class="cls-1" d="M37.88,191.18v-.03c0-2.09,1.47-3.77,3.47-3.77,2.14,0,3.38,1.71,3.38,3.82,0,.14,0,.22-.01.35h-5.74c.15,1.57,1.26,2.45,2.55,2.45.99,0,1.69-.41,2.28-1.02l.67.6c-.73.81-1.61,1.36-2.98,1.36-1.99,0-3.61-1.53-3.61-3.77ZM43.63,190.76c-.11-1.32-.87-2.46-2.31-2.46-1.26,0-2.21,1.05-2.35,2.46h4.66Z"/>
        <path class="cls-1" d="M46.19,191.18v-.03c0-2.37,1.72-3.77,3.46-3.77,1.34,0,2.21.73,2.77,1.54v-4.37h1.08v10.23h-1.08v-1.46c-.59.87-1.44,1.61-2.77,1.61-1.74,0-3.46-1.37-3.46-3.75ZM52.47,191.17v-.03c0-1.67-1.27-2.79-2.62-2.79s-2.55,1.04-2.55,2.79v.03c0,1.71,1.18,2.8,2.55,2.8s2.62-1.13,2.62-2.8Z"/>
        <path class="cls-1" d="M55.94,184.77h1.23v1.19h-1.23v-1.19ZM56.01,187.54h1.08v7.24h-1.08v-7.24Z"/>
        <path class="cls-1" d="M59.04,192.68v-.03c0-1.53,1.26-2.34,3.1-2.34.92,0,1.58.13,2.23.31v-.25c0-1.3-.8-1.98-2.16-1.98-.85,0-1.53.22-2.2.53l-.32-.88c.8-.36,1.58-.6,2.63-.6s1.81.27,2.34.8c.49.49.74,1.19.74,2.12v4.43h-1.04v-1.09c-.5.66-1.34,1.25-2.62,1.25-1.34,0-2.7-.77-2.7-2.26ZM64.38,192.12v-.7c-.53-.15-1.25-.31-2.13-.31-1.36,0-2.12.59-2.12,1.5v.03c0,.91.84,1.44,1.82,1.44,1.33,0,2.42-.81,2.42-1.96Z"/>
        <path class="cls-1" d="M67.7,187.54h1.08v1.26c.48-.78,1.23-1.42,2.48-1.42,1.75,0,2.77,1.18,2.77,2.9v4.5h-1.08v-4.23c0-1.34-.73-2.18-2-2.18s-2.17.91-2.17,2.27v4.15h-1.08v-7.24Z"/>
        <path class="cls-1" d="M80.27,189.91v-.03c0-2.77,2.07-5.07,4.96-5.07,1.78,0,2.84.63,3.82,1.55l-.76.81c-.83-.78-1.75-1.34-3.08-1.34-2.17,0-3.8,1.77-3.8,4.02v.03c0,2.27,1.64,4.05,3.8,4.05,1.34,0,2.23-.52,3.17-1.42l.73.71c-1.02,1.04-2.14,1.72-3.92,1.72-2.83,0-4.92-2.23-4.92-5.04Z"/>
        <path class="cls-1" d="M91.09,184.98h4.22c1.2,0,2.17.36,2.79.98.48.48.76,1.16.76,1.93v.03c0,1.62-1.12,2.58-2.66,2.86l3.01,4.01h-1.36l-2.84-3.81h-2.8v3.81h-1.11v-9.81ZM95.21,189.98c1.47,0,2.52-.76,2.52-2.02v-.03c0-1.21-.92-1.93-2.51-1.93h-3.03v3.98h3.01Z"/>
        <path class="cls-1" d="M101.21,184.98h3.67c2.21,0,3.67,1.18,3.67,3.11v.03c0,2.12-1.76,3.21-3.85,3.21h-2.38v3.46h-1.11v-9.81ZM104.74,190.31c1.62,0,2.69-.87,2.69-2.16v-.03c0-1.4-1.05-2.13-2.63-2.13h-2.48v4.31h2.42Z"/>
        <path class="cls-1" d="M108.42,196c.7-.25.99-.62.94-1.22h-.5v-1.47h1.29v1.26c0,1.13-.49,1.68-1.55,1.92l-.17-.49Z"/>
        <path class="cls-1" d="M116.61,187.54h1.08v1.22c.48-.71,1.12-1.37,2.34-1.37s1.93.63,2.33,1.44c.52-.8,1.29-1.44,2.55-1.44,1.67,0,2.69,1.12,2.69,2.91v4.48h-1.08v-4.23c0-1.4-.7-2.18-1.88-2.18-1.09,0-2,.81-2,2.24v4.17h-1.06v-4.26c0-1.36-.71-2.16-1.86-2.16s-2.02.95-2.02,2.28v4.13h-1.08v-7.24Z"/>
        <path class="cls-1" d="M129.8,196.04l.49-.84c.83.6,1.75.92,2.79.92,1.6,0,2.63-.88,2.63-2.58v-.85c-.63.84-1.51,1.53-2.84,1.53-1.74,0-3.4-1.3-3.4-3.39v-.03c0-2.12,1.68-3.42,3.4-3.42,1.36,0,2.24.67,2.83,1.46v-1.3h1.08v5.98c0,1.12-.34,1.98-.92,2.56-.64.64-1.61.97-2.76.97-1.21,0-2.33-.34-3.29-1.01ZM135.74,190.82v-.03c0-1.48-1.29-2.45-2.66-2.45s-2.51.95-2.51,2.44v.03c0,1.46,1.16,2.47,2.51,2.47s2.66-1,2.66-2.45Z"/>
        <path class="cls-1" d="M144.18,183.61h.99l-6.5,12.97h-.99l6.5-12.97Z"/>
        <path class="cls-1" d="M146.47,184.98h1.11v8.78h5.52v1.02h-6.63v-9.81Z"/>
        <path class="cls-1" d="M158.85,190.76c0-2.58,1.39-4.59,3.88-6l.46.71c-2.13,1.36-3.25,3.04-3.25,5.28s1.12,3.92,3.25,5.28l-.46.71c-2.49-1.4-3.88-3.42-3.88-6Z"/>
        <path class="cls-1" d="M165.46,184.98h1.11v9.81h-1.11v-9.81Z"/>
        <path class="cls-1" d="M178.37,195.08l-1.3-1.16c-.83.64-1.88,1.04-3.08,1.04-2.98,0-4.99-2.34-4.99-5.04v-.03c0-2.7,2.03-5.07,5.01-5.07s4.99,2.34,4.99,5.04v.03c0,1.22-.43,2.38-1.16,3.28l1.29,1.09-.76.83ZM176.28,193.2l-1.83-1.57.74-.83,1.83,1.67c.53-.7.83-1.58.83-2.56v-.03c0-2.23-1.62-4.05-3.87-4.05s-3.84,1.79-3.84,4.02v.03c0,2.23,1.62,4.05,3.87,4.05.87,0,1.65-.27,2.27-.73Z"/>
        <path class="cls-1" d="M181.33,184.98h4.22c1.2,0,2.17.36,2.79.98.48.48.76,1.16.76,1.93v.03c0,1.62-1.12,2.58-2.66,2.86l3.01,4.01h-1.36l-2.84-3.81h-2.8v3.81h-1.11v-9.81ZM185.45,189.98c1.47,0,2.52-.76,2.52-2.02v-.03c0-1.21-.92-1.93-2.51-1.93h-3.03v3.98h3.01Z"/>
        <path class="cls-1" d="M190.85,196.04c2.13-1.36,3.25-3.04,3.25-5.28s-1.12-3.92-3.25-5.28l.46-.71c2.49,1.4,3.88,3.42,3.88,6s-1.39,4.59-3.88,6l-.46-.71Z"/>
        <path class="cls-1" d="M26.35,205.98h1.12l3.57,5.35,3.57-5.35h1.12v9.81h-1.11v-7.94l-3.57,5.25h-.06l-3.57-5.24v7.93h-1.08v-9.81Z"/>
        <path class="cls-1" d="M37.88,212.18v-.03c0-2.09,1.47-3.77,3.47-3.77,2.14,0,3.38,1.71,3.38,3.82,0,.14,0,.22-.01.35h-5.74c.15,1.57,1.26,2.45,2.55,2.45.99,0,1.69-.41,2.28-1.02l.67.6c-.73.81-1.61,1.36-2.98,1.36-1.99,0-3.61-1.53-3.61-3.77ZM43.63,211.76c-.11-1.32-.87-2.46-2.31-2.46-1.26,0-2.21,1.05-2.35,2.46h4.66Z"/>
        <path class="cls-1" d="M46.07,213.68v-.03c0-1.53,1.26-2.34,3.1-2.34.92,0,1.58.13,2.23.31v-.25c0-1.3-.8-1.98-2.16-1.98-.85,0-1.53.22-2.2.53l-.32-.88c.8-.36,1.58-.6,2.63-.6s1.81.27,2.34.8c.49.49.74,1.19.74,2.12v4.43h-1.04v-1.09c-.5.66-1.34,1.25-2.62,1.25-1.34,0-2.7-.77-2.7-2.26ZM51.4,213.12v-.7c-.53-.15-1.25-.31-2.13-.31-1.36,0-2.12.59-2.12,1.5v.03c0,.91.84,1.44,1.82,1.44,1.33,0,2.42-.81,2.42-1.96Z"/>
        <path class="cls-1" d="M54.72,208.54h1.08v1.26c.48-.78,1.23-1.42,2.48-1.42,1.75,0,2.77,1.18,2.77,2.9v4.5h-1.08v-4.23c0-1.34-.73-2.18-2-2.18s-2.17.91-2.17,2.27v4.15h-1.08v-7.24Z"/>
        <path class="cls-1" d="M67,213.68v-.03c0-1.53,1.26-2.34,3.1-2.34.92,0,1.58.13,2.23.31v-.25c0-1.3-.8-1.98-2.16-1.98-.85,0-1.53.22-2.2.53l-.32-.88c.8-.36,1.58-.6,2.63-.6s1.81.27,2.34.8c.49.49.74,1.19.74,2.12v4.43h-1.04v-1.09c-.5.66-1.34,1.25-2.62,1.25-1.34,0-2.7-.77-2.7-2.26ZM72.33,213.12v-.7c-.53-.15-1.25-.31-2.13-.31-1.36,0-2.12.59-2.12,1.5v.03c0,.91.84,1.44,1.82,1.44,1.33,0,2.42-.81,2.42-1.96Z"/>
        <path class="cls-1" d="M75.75,205.56h1.08v10.23h-1.08v-10.23Z"/>
        <path class="cls-1" d="M80.41,214.4v1.39h-1.08v-10.23h1.08v4.44c.59-.87,1.44-1.61,2.77-1.61,1.74,0,3.46,1.37,3.46,3.75v.03c0,2.37-1.71,3.77-3.46,3.77-1.34,0-2.21-.73-2.77-1.54ZM85.54,212.18v-.03c0-1.71-1.18-2.8-2.55-2.8s-2.62,1.13-2.62,2.79v.03c0,1.68,1.27,2.8,2.62,2.8s2.55-1.04,2.55-2.79Z"/>
        <path class="cls-1" d="M88.51,213.04v-4.5h1.08v4.23c0,1.34.73,2.19,2,2.19s2.17-.91,2.17-2.27v-4.15h1.06v7.24h-1.06v-1.26c-.49.78-1.23,1.42-2.48,1.42-1.75,0-2.77-1.18-2.77-2.9Z"/>
        <path class="cls-1" d="M97.25,208.54h1.08v1.22c.48-.71,1.12-1.37,2.34-1.37s1.93.63,2.33,1.44c.52-.8,1.29-1.44,2.55-1.44,1.67,0,2.69,1.12,2.69,2.91v4.48h-1.08v-4.23c0-1.4-.7-2.18-1.88-2.18-1.09,0-2,.81-2,2.24v4.17h-1.06v-4.26c0-1.36-.71-2.16-1.86-2.16s-2.02.95-2.02,2.28v4.13h-1.08v-7.24Z"/>
        <path class="cls-1" d="M110.55,205.77h1.23v1.19h-1.23v-1.19ZM110.62,208.54h1.08v7.24h-1.08v-7.24Z"/>
        <path class="cls-1" d="M114.2,208.54h1.08v1.26c.48-.78,1.23-1.42,2.48-1.42,1.75,0,2.77,1.18,2.77,2.9v4.5h-1.08v-4.23c0-1.34-.73-2.18-2-2.18s-2.17.91-2.17,2.27v4.15h-1.08v-7.24Z"/>
        <path class="cls-1" d="M122.27,217c.7-.25.99-.62.94-1.22h-.5v-1.47h1.29v1.26c0,1.13-.49,1.68-1.55,1.92l-.17-.49Z"/>
        <path class="cls-1" d="M130.37,217.04l.49-.84c.83.6,1.75.92,2.79.92,1.6,0,2.63-.88,2.63-2.58v-.85c-.63.84-1.51,1.53-2.84,1.53-1.74,0-3.4-1.3-3.4-3.39v-.03c0-2.12,1.68-3.42,3.4-3.42,1.36,0,2.24.67,2.83,1.46v-1.3h1.08v5.98c0,1.12-.34,1.98-.92,2.56-.64.64-1.61.97-2.76.97-1.21,0-2.33-.34-3.29-1.01ZM136.31,211.82v-.03c0-1.48-1.29-2.45-2.66-2.45s-2.51.95-2.51,2.44v.03c0,1.46,1.16,2.47,2.51,2.47s2.66-1,2.66-2.45Z"/>
        <path class="cls-1" d="M144.75,204.61h.99l-6.5,12.97h-.99l6.5-12.97Z"/>
        <path class="cls-1" d="M147.05,205.98h1.11v8.78h5.52v1.02h-6.63v-9.81Z"/>
        <path class="cls-1" d="M159.42,211.76c0-2.58,1.39-4.59,3.88-6l.46.71c-2.13,1.36-3.25,3.04-3.25,5.28s1.12,3.92,3.25,5.28l-.46.71c-2.49-1.4-3.88-3.42-3.88-6Z"/>
        <path class="cls-1" d="M165.29,214.35l.69-.81c1.02.92,2,1.39,3.36,1.39s2.19-.7,2.19-1.67v-.03c0-.91-.49-1.43-2.55-1.86-2.25-.49-3.29-1.22-3.29-2.83v-.03c0-1.54,1.36-2.68,3.22-2.68,1.43,0,2.45.41,3.45,1.21l-.64.85c-.91-.74-1.82-1.06-2.83-1.06-1.27,0-2.09.7-2.09,1.58v.03c0,.92.5,1.44,2.66,1.91,2.19.48,3.19,1.27,3.19,2.77v.03c0,1.68-1.4,2.77-3.35,2.77-1.55,0-2.83-.52-4.01-1.57Z"/>
        <path class="cls-1" d="M174.89,205.98h3.4c3.08,0,5.21,2.12,5.21,4.88v.03c0,2.76-2.13,4.9-5.21,4.9h-3.4v-9.81ZM176,207v7.76h2.3c2.48,0,4.06-1.68,4.06-3.85v-.03c0-2.17-1.58-3.88-4.06-3.88h-2.3Z"/>
        <path class="cls-1" d="M184.82,217.04c2.13-1.36,3.25-3.04,3.25-5.28s-1.12-3.92-3.25-5.28l.46-.71c2.49,1.4,3.88,3.42,3.88,6s-1.39,4.59-3.88,6l-.46-.71Z"/>
        <path class="cls-1" d="M26.35,226.98h3.4c3.08,0,5.21,2.12,5.21,4.88v.03c0,2.76-2.13,4.9-5.21,4.9h-3.4v-9.81ZM27.46,228v7.76h2.3c2.48,0,4.06-1.68,4.06-3.85v-.03c0-2.17-1.58-3.88-4.06-3.88h-2.3Z"/>
        <path class="cls-1" d="M37.15,226.77h1.23v1.19h-1.23v-1.19ZM37.22,229.54h1.08v7.24h-1.08v-7.24Z"/>
        <path class="cls-1" d="M40.2,235.86l.55-.77c.78.59,1.65.92,2.51.92s1.5-.45,1.5-1.15v-.03c0-.73-.85-1.01-1.81-1.27-1.13-.32-2.4-.71-2.4-2.04v-.03c0-1.25,1.04-2.07,2.47-2.07.88,0,1.86.31,2.61.8l-.49.81c-.67-.43-1.44-.7-2.14-.7-.85,0-1.4.45-1.4,1.05v.03c0,.69.9.95,1.86,1.25,1.12.34,2.33.77,2.33,2.07v.03c0,1.37-1.13,2.17-2.58,2.17-1.04,0-2.19-.41-3-1.06Z"/>
        <path class="cls-1" d="M47.33,233.18v-.03c0-2.09,1.47-3.77,3.47-3.77,2.14,0,3.38,1.71,3.38,3.82,0,.14,0,.22-.01.35h-5.74c.15,1.57,1.26,2.45,2.55,2.45.99,0,1.69-.41,2.28-1.02l.67.6c-.73.81-1.61,1.36-2.98,1.36-1.99,0-3.61-1.53-3.61-3.77ZM53.08,232.76c-.11-1.32-.87-2.46-2.31-2.46-1.26,0-2.21,1.05-2.35,2.46h4.66Z"/>
        <path class="cls-1" d="M55.52,234.68v-.03c0-1.53,1.26-2.34,3.1-2.34.92,0,1.58.13,2.23.31v-.25c0-1.3-.8-1.98-2.16-1.98-.85,0-1.53.22-2.2.53l-.32-.88c.8-.36,1.58-.6,2.63-.6s1.81.27,2.34.8c.49.49.74,1.19.74,2.12v4.43h-1.04v-1.09c-.5.66-1.34,1.25-2.62,1.25-1.34,0-2.7-.77-2.7-2.26ZM60.85,234.12v-.7c-.53-.15-1.25-.31-2.13-.31-1.36,0-2.12.59-2.12,1.5v.03c0,.91.84,1.44,1.82,1.44,1.33,0,2.42-.81,2.42-1.96Z"/>
        <path class="cls-1" d="M63.57,235.86l.55-.77c.78.59,1.65.92,2.51.92s1.5-.45,1.5-1.15v-.03c0-.73-.85-1.01-1.81-1.27-1.13-.32-2.4-.71-2.4-2.04v-.03c0-1.25,1.04-2.07,2.47-2.07.88,0,1.86.31,2.61.8l-.49.81c-.67-.43-1.44-.7-2.14-.7-.85,0-1.4.45-1.4,1.05v.03c0,.69.9.95,1.86,1.25,1.12.34,2.33.77,2.33,2.07v.03c0,1.37-1.13,2.17-2.58,2.17-1.04,0-2.19-.41-3-1.06Z"/>
        <path class="cls-1" d="M70.69,233.18v-.03c0-2.09,1.47-3.77,3.47-3.77,2.14,0,3.38,1.71,3.38,3.82,0,.14,0,.22-.01.35h-5.74c.15,1.57,1.26,2.45,2.55,2.45.99,0,1.69-.41,2.28-1.02l.67.6c-.73.81-1.61,1.36-2.98,1.36-1.99,0-3.61-1.53-3.61-3.77ZM76.45,232.76c-.11-1.32-.87-2.46-2.31-2.46-1.26,0-2.21,1.05-2.35,2.46h4.66Z"/>
        <path class="cls-1" d="M83.73,226.56h1.08v10.23h-1.08v-10.23Z"/>
        <path class="cls-1" d="M86.86,233.2v-.03c0-2.04,1.6-3.78,3.78-3.78s3.77,1.71,3.77,3.75v.03c0,2.05-1.61,3.78-3.8,3.78s-3.75-1.71-3.75-3.75ZM93.3,233.2v-.03c0-1.55-1.16-2.83-2.69-2.83s-2.65,1.27-2.65,2.8v.03c0,1.55,1.15,2.82,2.68,2.82s2.66-1.26,2.66-2.79Z"/>
        <path class="cls-1" d="M95.9,233.2v-.03c0-2.04,1.6-3.78,3.71-3.78,1.37,0,2.23.58,2.9,1.29l-.71.76c-.57-.6-1.22-1.09-2.2-1.09-1.47,0-2.59,1.25-2.59,2.8v.03c0,1.57,1.15,2.82,2.66,2.82.92,0,1.64-.46,2.21-1.08l.69.64c-.73.81-1.6,1.4-2.96,1.4-2.12,0-3.71-1.72-3.71-3.75Z"/>
        <path class="cls-1" d="M103.8,234.68v-.03c0-1.53,1.26-2.34,3.1-2.34.92,0,1.58.13,2.23.31v-.25c0-1.3-.8-1.98-2.16-1.98-.85,0-1.53.22-2.2.53l-.32-.88c.8-.36,1.58-.6,2.63-.6s1.81.27,2.34.8c.49.49.74,1.19.74,2.12v4.43h-1.04v-1.09c-.5.66-1.34,1.25-2.62,1.25-1.34,0-2.7-.77-2.7-2.26ZM109.14,234.12v-.7c-.53-.15-1.25-.31-2.13-.31-1.36,0-2.12.59-2.12,1.5v.03c0,.91.84,1.44,1.82,1.44,1.33,0,2.42-.81,2.42-1.96Z"/>
        <path class="cls-1" d="M112.76,234.86v-4.37h-1.01v-.95h1.01v-2.18h1.08v2.18h2.3v.95h-2.3v4.23c0,.88.49,1.21,1.22,1.21.36,0,.67-.07,1.05-.25v.92c-.38.2-.78.31-1.3.31-1.16,0-2.04-.57-2.04-2.04Z"/>
        <path class="cls-1" d="M118.07,226.77h1.23v1.19h-1.23v-1.19ZM118.14,229.54h1.08v7.24h-1.08v-7.24Z"/>
        <path class="cls-1" d="M121.27,233.2v-.03c0-2.04,1.6-3.78,3.78-3.78s3.77,1.71,3.77,3.75v.03c0,2.05-1.61,3.78-3.8,3.78s-3.75-1.71-3.75-3.75ZM127.72,233.2v-.03c0-1.55-1.16-2.83-2.69-2.83s-2.65,1.27-2.65,2.8v.03c0,1.55,1.15,2.82,2.68,2.82s2.66-1.26,2.66-2.79Z"/>
        <path class="cls-1" d="M130.76,229.54h1.08v1.26c.48-.78,1.23-1.42,2.48-1.42,1.75,0,2.77,1.18,2.77,2.9v4.5h-1.08v-4.23c0-1.34-.73-2.18-2-2.18s-2.17.91-2.17,2.27v4.15h-1.08v-7.24Z"/>
        <path class="cls-1" d="M138.83,238c.7-.25.99-.62.94-1.22h-.5v-1.47h1.29v1.26c0,1.13-.49,1.68-1.55,1.92l-.17-.49Z"/>
        <path class="cls-1" d="M147.02,229.54h1.08v1.26c.48-.78,1.23-1.42,2.48-1.42,1.75,0,2.77,1.18,2.77,2.9v4.5h-1.08v-4.23c0-1.34-.73-2.18-2-2.18s-2.17.91-2.17,2.27v4.15h-1.08v-7.24Z"/>
        <path class="cls-1" d="M159.59,232.76c0-2.58,1.39-4.59,3.88-6l.46.71c-2.13,1.36-3.25,3.04-3.25,5.28s1.12,3.92,3.25,5.28l-.46.71c-2.49-1.4-3.88-3.42-3.88-6Z"/>
        <path class="cls-1" d="M165.44,229.4v-.03c0-1.33.9-2.51,2.24-2.51s2.2,1.16,2.2,2.48v.03c0,1.33-.9,2.51-2.23,2.51s-2.21-1.16-2.21-2.48ZM166.38,229.34v.03c0,.98.57,1.72,1.3,1.72s1.27-.76,1.27-1.69v-.03c0-.98-.59-1.72-1.3-1.72-.77,0-1.27.77-1.27,1.69ZM173.65,226.98h.99l-3.78,5.14-3.4,4.66h-1.01l3.78-5.11,3.42-4.69ZM171.23,234.42v-.03c0-1.33.9-2.51,2.23-2.51s2.2,1.16,2.2,2.48v.03c0,1.33-.88,2.51-2.23,2.51s-2.2-1.16-2.2-2.48ZM174.73,234.42v-.03c0-.98-.57-1.72-1.3-1.72s-1.27.77-1.27,1.7v.03c0,.98.57,1.72,1.3,1.72.77,0,1.27-.76,1.27-1.7Z"/>
        <path class="cls-1" d="M177.17,238.04c2.13-1.36,3.25-3.04,3.25-5.28s-1.12-3.92-3.25-5.28l.46-.71c2.49,1.4,3.88,3.42,3.88,6s-1.39,4.59-3.88,6l-.46-.71Z"/>
        <path class="cls-1" d="M62.45,247.98h1.11v9.81h-1.11v-9.81Z"/>
        <path class="cls-1" d="M66.34,247.56h1.08v10.23h-1.08v-10.23Z"/>
        <path class="cls-1" d="M69.48,254.18v-.03c0-2.09,1.47-3.77,3.47-3.77,2.14,0,3.38,1.71,3.38,3.82,0,.14,0,.22-.01.35h-5.74c.15,1.57,1.26,2.45,2.55,2.45.99,0,1.69-.41,2.28-1.02l.67.6c-.73.81-1.61,1.36-2.98,1.36-1.99,0-3.61-1.53-3.61-3.77ZM75.24,253.76c-.11-1.32-.87-2.46-2.31-2.46-1.26,0-2.21,1.05-2.35,2.46h4.66Z"/>
        <path class="cls-1" d="M78.1,255.04v-4.5h1.08v4.23c0,1.34.73,2.19,2,2.19s2.17-.91,2.17-2.27v-4.15h1.06v7.24h-1.06v-1.26c-.49.78-1.23,1.42-2.48,1.42-1.75,0-2.77-1.18-2.77-2.9Z"/>
        <path class="cls-1" d="M86.84,250.54h1.08v1.22c.48-.71,1.12-1.37,2.34-1.37s1.93.63,2.33,1.44c.52-.8,1.29-1.44,2.55-1.44,1.67,0,2.69,1.12,2.69,2.91v4.48h-1.08v-4.23c0-1.4-.7-2.18-1.88-2.18-1.09,0-2,.81-2,2.24v4.17h-1.06v-4.26c0-1.36-.71-2.16-1.86-2.16s-2.02.95-2.02,2.28v4.13h-1.08v-7.24Z"/>
        <path class="cls-1" d="M103.86,254.2v-.03c0-2.04,1.6-3.78,3.78-3.78s3.77,1.71,3.77,3.75v.03c0,2.05-1.61,3.78-3.8,3.78s-3.75-1.71-3.75-3.75ZM110.31,254.2v-.03c0-1.55-1.16-2.83-2.69-2.83s-2.65,1.27-2.65,2.8v.03c0,1.55,1.15,2.82,2.68,2.82s2.66-1.26,2.66-2.79Z"/>
        <path class="cls-1" d="M113.36,250.54h1.08v1.26c.48-.78,1.23-1.42,2.48-1.42,1.75,0,2.77,1.18,2.77,2.9v4.5h-1.08v-4.23c0-1.34-.73-2.18-2-2.18s-2.17.91-2.17,2.27v4.15h-1.08v-7.24Z"/>
        <path class="cls-1" d="M122.08,247.56h1.08v10.23h-1.08v-10.23Z"/>
        <path class="cls-1" d="M131.08,250.54h1.15l-3.04,7.48c-.62,1.5-1.32,2.04-2.41,2.04-.6,0-1.05-.13-1.54-.36l.36-.85c.35.18.67.27,1.13.27.64,0,1.05-.34,1.48-1.36l-3.29-7.21h1.19l2.63,6.04,2.33-6.04Z"/>
        <path class="cls-1" d="M61.92,273.91v-.03c0-2.77,2.07-5.07,4.96-5.07,1.78,0,2.84.63,3.82,1.55l-.76.81c-.83-.78-1.75-1.34-3.08-1.34-2.17,0-3.8,1.77-3.8,4.02v.03c0,2.27,1.64,4.05,3.8,4.05,1.34,0,2.23-.52,3.17-1.42l.73.71c-1.02,1.04-2.14,1.72-3.92,1.72-2.83,0-4.92-2.23-4.92-5.04Z"/>
        <path class="cls-1" d="M71.97,275.2v-.03c0-2.04,1.6-3.78,3.78-3.78s3.77,1.71,3.77,3.75v.03c0,2.05-1.61,3.78-3.8,3.78s-3.75-1.71-3.75-3.75ZM78.41,275.2v-.03c0-1.55-1.16-2.83-2.69-2.83s-2.65,1.27-2.65,2.8v.03c0,1.55,1.15,2.82,2.68,2.82s2.66-1.26,2.66-2.79Z"/>
        <path class="cls-1" d="M81.56,268.56h1.08v10.23h-1.08v-10.23Z"/>
        <path class="cls-1" d="M84.7,275.2v-.03c0-2.04,1.6-3.78,3.78-3.78s3.77,1.71,3.77,3.75v.03c0,2.05-1.61,3.78-3.8,3.78s-3.75-1.71-3.75-3.75ZM91.14,275.2v-.03c0-1.55-1.16-2.83-2.69-2.83s-2.65,1.27-2.65,2.8v.03c0,1.55,1.15,2.82,2.68,2.82s2.66-1.26,2.66-2.79Z"/>
        <path class="cls-1" d="M94.19,271.54h1.08v1.26c.48-.78,1.23-1.42,2.48-1.42,1.75,0,2.77,1.18,2.77,2.9v4.5h-1.08v-4.23c0-1.34-.73-2.18-2-2.18s-2.17.91-2.17,2.27v4.15h-1.08v-7.24Z"/>
        <path class="cls-1" d="M106.56,275.2v-.03c0-2.04,1.6-3.78,3.78-3.78s3.77,1.71,3.77,3.75v.03c0,2.05-1.61,3.78-3.8,3.78s-3.75-1.71-3.75-3.75ZM113.01,275.2v-.03c0-1.55-1.16-2.83-2.69-2.83s-2.65,1.27-2.65,2.8v.03c0,1.55,1.15,2.82,2.68,2.82s2.66-1.26,2.66-2.79Z"/>
        <path class="cls-1" d="M116.06,271.54h1.08v1.26c.48-.78,1.23-1.42,2.48-1.42,1.75,0,2.77,1.18,2.77,2.9v4.5h-1.08v-4.23c0-1.34-.73-2.18-2-2.18s-2.17.91-2.17,2.27v4.15h-1.08v-7.24Z"/>
        <path class="cls-1" d="M124.78,268.56h1.08v10.23h-1.08v-10.23Z"/>
        <path class="cls-1" d="M133.78,271.54h1.15l-3.04,7.48c-.62,1.5-1.32,2.04-2.41,2.04-.6,0-1.05-.13-1.54-.36l.36-.85c.35.18.67.27,1.13.27.64,0,1.05-.34,1.48-1.36l-3.29-7.21h1.19l2.63,6.04,2.33-6.04Z"/>
        <path class="cls-1" d="M62.45,289.98h1.11v9.81h-1.11v-9.81Z"/>
        <path class="cls-1" d="M66.34,289.56h1.08v10.23h-1.08v-10.23Z"/>
        <path class="cls-1" d="M69.48,296.18v-.03c0-2.09,1.47-3.77,3.47-3.77,2.14,0,3.38,1.71,3.38,3.82,0,.14,0,.22-.01.35h-5.74c.15,1.57,1.26,2.45,2.55,2.45.99,0,1.69-.41,2.28-1.02l.67.6c-.73.81-1.61,1.36-2.98,1.36-1.99,0-3.61-1.53-3.61-3.77ZM75.24,295.76c-.11-1.32-.87-2.46-2.31-2.46-1.26,0-2.21,1.05-2.35,2.46h4.66Z"/>
        <path class="cls-1" d="M77.77,296.2v-.03c0-2.04,1.6-3.78,3.78-3.78s3.77,1.71,3.77,3.75v.03c0,2.05-1.61,3.78-3.8,3.78s-3.75-1.71-3.75-3.75ZM84.21,296.2v-.03c0-1.55-1.16-2.83-2.69-2.83s-2.65,1.27-2.65,2.8v.03c0,1.55,1.15,2.82,2.68,2.82s2.66-1.26,2.66-2.79Z"/>
        <path class="cls-1" d="M86.81,296.2v-.03c0-2.04,1.6-3.78,3.71-3.78,1.37,0,2.23.58,2.9,1.29l-.71.76c-.57-.6-1.22-1.09-2.2-1.09-1.47,0-2.59,1.25-2.59,2.8v.03c0,1.57,1.15,2.82,2.66,2.82.92,0,1.64-.46,2.21-1.08l.69.64c-.73.81-1.6,1.4-2.96,1.4-2.11,0-3.71-1.72-3.71-3.75Z"/>
        <path class="cls-1" d="M94.6,296.2v-.03c0-2.04,1.6-3.78,3.78-3.78s3.77,1.71,3.77,3.75v.03c0,2.05-1.61,3.78-3.8,3.78s-3.75-1.71-3.75-3.75ZM101.04,296.2v-.03c0-1.55-1.16-2.83-2.69-2.83s-2.65,1.27-2.65,2.8v.03c0,1.55,1.15,2.82,2.68,2.82s2.66-1.26,2.66-2.79Z"/>
        <path class="cls-1" d="M104.19,289.56h1.08v10.23h-1.08v-10.23Z"/>
        <path class="cls-1" d="M107.32,296.2v-.03c0-2.04,1.6-3.78,3.78-3.78s3.77,1.71,3.77,3.75v.03c0,2.05-1.61,3.78-3.8,3.78s-3.75-1.71-3.75-3.75ZM113.76,296.2v-.03c0-1.55-1.16-2.83-2.69-2.83s-2.65,1.27-2.65,2.8v.03c0,1.55,1.15,2.82,2.68,2.82s2.66-1.26,2.66-2.79Z"/>
        <path class="cls-1" d="M116.81,292.54h1.08v1.26c.48-.78,1.23-1.42,2.48-1.42,1.75,0,2.77,1.18,2.77,2.9v4.5h-1.08v-4.23c0-1.34-.73-2.18-2-2.18s-2.17.91-2.17,2.27v4.15h-1.08v-7.24Z"/>
        <path class="cls-1" d="M125.47,289.77h1.23v1.19h-1.23v-1.19ZM125.54,292.54h1.08v7.24h-1.08v-7.24Z"/>
        <path class="cls-1" d="M128.67,296.2v-.03c0-2.04,1.6-3.78,3.71-3.78,1.37,0,2.23.58,2.9,1.29l-.71.76c-.57-.6-1.22-1.09-2.2-1.09-1.47,0-2.59,1.25-2.59,2.8v.03c0,1.57,1.15,2.82,2.66,2.82.92,0,1.64-.46,2.21-1.08l.69.64c-.73.81-1.6,1.4-2.96,1.4-2.11,0-3.71-1.72-3.71-3.75Z"/>
        <path class="cls-1" d="M26.35,310.98h3.67c2.21,0,3.67,1.18,3.67,3.11v.03c0,2.12-1.76,3.21-3.85,3.21h-2.38v3.46h-1.11v-9.81ZM29.88,316.31c1.62,0,2.69-.87,2.69-2.16v-.03c0-1.4-1.05-2.13-2.63-2.13h-2.48v4.31h2.42Z"/>
        <path class="cls-1" d="M35.52,313.54h1.08v1.89c.53-1.21,1.58-2.07,2.96-2.02v1.16h-.08c-1.58,0-2.87,1.13-2.87,3.32v2.89h-1.08v-7.24Z"/>
        <path class="cls-1" d="M41.22,310.77h1.23v1.19h-1.23v-1.19ZM41.29,313.54h1.08v7.24h-1.08v-7.24Z"/>
        <path class="cls-1" d="M44.43,317.2v-.03c0-2.04,1.6-3.78,3.78-3.78s3.77,1.71,3.77,3.75v.03c0,2.05-1.61,3.78-3.8,3.78s-3.75-1.71-3.75-3.75ZM50.87,317.2v-.03c0-1.55-1.16-2.83-2.69-2.83s-2.65,1.27-2.65,2.8v.03c0,1.55,1.15,2.82,2.68,2.82s2.66-1.26,2.66-2.79Z"/>
        <path class="cls-1" d="M53.92,313.54h1.08v1.89c.53-1.21,1.58-2.07,2.96-2.02v1.16h-.08c-1.58,0-2.87,1.13-2.87,3.32v2.89h-1.08v-7.24Z"/>
        <path class="cls-1" d="M63.19,319.86l.55-.77c.78.59,1.65.92,2.51.92s1.5-.45,1.5-1.15v-.03c0-.73-.85-1.01-1.81-1.27-1.13-.32-2.4-.71-2.4-2.04v-.03c0-1.25,1.04-2.07,2.47-2.07.88,0,1.86.31,2.61.8l-.49.81c-.67-.43-1.44-.7-2.14-.7-.85,0-1.4.45-1.4,1.05v.03c0,.69.9.95,1.86,1.25,1.12.34,2.33.77,2.33,2.07v.03c0,1.37-1.13,2.17-2.58,2.17-1.04,0-2.19-.41-3-1.06Z"/>
        <path class="cls-1" d="M70.65,318.04v-4.5h1.08v4.23c0,1.34.73,2.19,2,2.19s2.17-.91,2.17-2.27v-4.15h1.06v7.24h-1.06v-1.26c-.49.78-1.23,1.42-2.48,1.42-1.75,0-2.77-1.18-2.77-2.9Z"/>
        <path class="cls-1" d="M79.39,313.54h1.08v1.89c.53-1.21,1.58-2.07,2.96-2.02v1.16h-.08c-1.58,0-2.87,1.13-2.87,3.32v2.89h-1.08v-7.24Z"/>
        <path class="cls-1" d="M84.68,322.04l.49-.84c.83.6,1.75.92,2.79.92,1.6,0,2.63-.88,2.63-2.58v-.85c-.63.84-1.51,1.53-2.84,1.53-1.74,0-3.4-1.3-3.4-3.39v-.03c0-2.12,1.68-3.42,3.4-3.42,1.36,0,2.24.67,2.83,1.46v-1.3h1.08v5.98c0,1.12-.34,1.98-.92,2.56-.64.64-1.61.97-2.76.97-1.21,0-2.33-.34-3.29-1.01ZM90.62,316.82v-.03c0-1.48-1.29-2.45-2.66-2.45s-2.51.95-2.51,2.44v.03c0,1.46,1.16,2.47,2.51,2.47s2.66-1,2.66-2.45Z"/>
        <path class="cls-1" d="M93.61,317.18v-.03c0-2.09,1.47-3.77,3.47-3.77,2.14,0,3.38,1.71,3.38,3.82,0,.14,0,.22-.01.35h-5.74c.15,1.57,1.26,2.45,2.55,2.45.99,0,1.69-.41,2.28-1.02l.67.6c-.73.81-1.61,1.36-2.98,1.36-1.99,0-3.61-1.53-3.61-3.77ZM99.37,316.76c-.11-1.32-.87-2.46-2.31-2.46-1.26,0-2.21,1.05-2.35,2.46h4.66Z"/>
        <path class="cls-1" d="M102.35,313.54h1.08v1.89c.53-1.21,1.58-2.07,2.96-2.02v1.16h-.08c-1.58,0-2.87,1.13-2.87,3.32v2.89h-1.08v-7.24Z"/>
        <path class="cls-1" d="M113.44,313.54h1.15l-3.04,7.48c-.62,1.5-1.32,2.04-2.41,2.04-.6,0-1.05-.13-1.54-.36l.36-.85c.35.18.67.27,1.13.27.64,0,1.05-.34,1.48-1.36l-3.29-7.21h1.19l2.63,6.04,2.33-6.04Z"/>
        <path class="cls-1" d="M120.9,314.49h-.99v-.94h.99v-.63c0-.83.22-1.46.63-1.86.36-.36.9-.56,1.55-.56.5,0,.84.06,1.19.18v.94c-.39-.11-.69-.18-1.05-.18-.84,0-1.26.5-1.26,1.54v.59h2.3v.92h-2.28v6.29h-1.08v-6.29Z"/>
        <path class="cls-1" d="M125.04,317.2v-.03c0-2.04,1.6-3.78,3.78-3.78s3.77,1.71,3.77,3.75v.03c0,2.05-1.61,3.78-3.8,3.78s-3.75-1.71-3.75-3.75ZM131.48,317.2v-.03c0-1.55-1.16-2.83-2.69-2.83s-2.65,1.27-2.65,2.8v.03c0,1.55,1.15,2.82,2.68,2.82s2.66-1.26,2.66-2.79Z"/>
        <path class="cls-1" d="M134.53,313.54h1.08v1.89c.53-1.21,1.58-2.07,2.96-2.02v1.16h-.08c-1.58,0-2.87,1.13-2.87,3.32v2.89h-1.08v-7.24Z"/>
        <path class="cls-1" d="M144.15,315.91v-.03c0-2.77,2.07-5.07,4.96-5.07,1.78,0,2.84.63,3.82,1.55l-.76.81c-.83-.78-1.75-1.34-3.08-1.34-2.17,0-3.8,1.77-3.8,4.02v.03c0,2.27,1.64,4.05,3.8,4.05,1.34,0,2.23-.52,3.17-1.42l.73.71c-1.02,1.04-2.14,1.72-3.92,1.72-2.83,0-4.92-2.23-4.92-5.04Z"/>
        <path class="cls-1" d="M154.97,310.98h3.4c3.08,0,5.21,2.12,5.21,4.88v.03c0,2.76-2.13,4.9-5.21,4.9h-3.4v-9.81ZM156.08,312v7.76h2.3c2.48,0,4.06-1.68,4.06-3.85v-.03c0-2.17-1.58-3.88-4.06-3.88h-2.3Z"/>
        <path class="cls-1" d="M164.62,322c.7-.25.99-.62.94-1.22h-.5v-1.47h1.29v1.26c0,1.13-.49,1.68-1.55,1.92l-.17-.49Z"/>
        <path class="cls-1" d="M172.81,313.54h1.08v1.26c.48-.78,1.23-1.42,2.48-1.42,1.75,0,2.77,1.18,2.77,2.9v4.5h-1.08v-4.23c0-1.34-.73-2.18-2-2.18s-2.17.91-2.17,2.27v4.15h-1.08v-7.24Z"/>
        <path class="cls-1" d="M185.38,316.76c0-2.58,1.39-4.59,3.88-6l.46.71c-2.13,1.36-3.25,3.04-3.25,5.28s1.12,3.92,3.25,5.28l-.46.71c-2.49-1.4-3.88-3.42-3.88-6Z"/>
        <path class="cls-1" d="M191.23,313.4v-.03c0-1.33.9-2.51,2.24-2.51s2.2,1.16,2.2,2.48v.03c0,1.33-.9,2.51-2.23,2.51s-2.21-1.16-2.21-2.48ZM192.17,313.34v.03c0,.98.57,1.72,1.3,1.72s1.27-.76,1.27-1.69v-.03c0-.98-.59-1.72-1.3-1.72-.77,0-1.27.77-1.27,1.69ZM199.44,310.98h.99l-3.78,5.14-3.4,4.66h-1.01l3.78-5.11,3.42-4.69ZM197.01,318.42v-.03c0-1.33.9-2.51,2.23-2.51s2.2,1.16,2.2,2.48v.03c0,1.33-.88,2.51-2.23,2.51s-2.2-1.16-2.2-2.48ZM200.52,318.42v-.03c0-.98-.57-1.72-1.3-1.72s-1.27.77-1.27,1.7v.03c0,.98.57,1.72,1.3,1.72.77,0,1.27-.76,1.27-1.7Z"/>
        <path class="cls-1" d="M202.96,322.04c2.13-1.36,3.25-3.04,3.25-5.28s-1.12-3.92-3.25-5.28l.46-.71c2.49,1.4,3.88,3.42,3.88,6s-1.39,4.59-3.88,6l-.46-.71Z"/>
        <path class="cls-1" d="M26.35,331.98h3.67c2.21,0,3.67,1.18,3.67,3.11v.03c0,2.12-1.76,3.21-3.85,3.21h-2.38v3.46h-1.11v-9.81ZM29.88,337.31c1.62,0,2.69-.87,2.69-2.16v-.03c0-1.4-1.05-2.13-2.63-2.13h-2.48v4.31h2.42Z"/>
        <path class="cls-1" d="M35.52,334.54h1.08v1.89c.53-1.21,1.58-2.07,2.96-2.02v1.16h-.08c-1.58,0-2.87,1.13-2.87,3.32v2.89h-1.08v-7.24Z"/>
        <path class="cls-1" d="M41.22,331.77h1.23v1.19h-1.23v-1.19ZM41.29,334.54h1.08v7.24h-1.08v-7.24Z"/>
        <path class="cls-1" d="M44.43,338.2v-.03c0-2.04,1.6-3.78,3.78-3.78s3.77,1.71,3.77,3.75v.03c0,2.05-1.61,3.78-3.8,3.78s-3.75-1.71-3.75-3.75ZM50.87,338.2v-.03c0-1.55-1.16-2.83-2.69-2.83s-2.65,1.27-2.65,2.8v.03c0,1.55,1.15,2.82,2.68,2.82s2.66-1.26,2.66-2.79Z"/>
        <path class="cls-1" d="M53.92,334.54h1.08v1.89c.53-1.21,1.58-2.07,2.96-2.02v1.16h-.08c-1.58,0-2.87,1.13-2.87,3.32v2.89h-1.08v-7.24Z"/>
        <path class="cls-1" d="M64.2,335.49h-.99v-.94h.99v-.63c0-.83.22-1.46.63-1.86.36-.36.9-.56,1.55-.56.5,0,.84.06,1.19.18v.94c-.39-.11-.69-.18-1.05-.18-.84,0-1.26.5-1.26,1.54v.59h2.3v.92h-2.28v6.29h-1.08v-6.29ZM68.96,331.77h1.23v1.19h-1.23v-1.19ZM69.04,334.54h1.06v7.24h-1.06v-7.24Z"/>
        <path class="cls-1" d="M72.02,340.86l.55-.77c.78.59,1.65.92,2.51.92s1.5-.45,1.5-1.15v-.03c0-.73-.85-1.01-1.81-1.27-1.13-.32-2.4-.71-2.4-2.04v-.03c0-1.25,1.04-2.07,2.47-2.07.88,0,1.86.31,2.61.8l-.49.81c-.67-.43-1.44-.7-2.14-.7-.85,0-1.4.45-1.4,1.05v.03c0,.69.9.95,1.86,1.25,1.12.34,2.33.77,2.33,2.07v.03c0,1.37-1.13,2.17-2.58,2.17-1.04,0-2.19-.41-3-1.06Z"/>
        <path class="cls-1" d="M79.83,339.86v-4.37h-1.01v-.95h1.01v-2.18h1.08v2.18h2.3v.95h-2.3v4.23c0,.88.49,1.21,1.22,1.21.36,0,.67-.07,1.05-.25v.92c-.38.2-.78.31-1.3.31-1.16,0-2.04-.57-2.04-2.04Z"/>
        <path class="cls-1" d="M85,339.04v-4.5h1.08v4.23c0,1.34.73,2.19,2,2.19s2.17-.91,2.17-2.27v-4.15h1.06v7.24h-1.06v-1.26c-.49.78-1.23,1.42-2.48,1.42-1.75,0-2.77-1.18-2.77-2.9Z"/>
        <path class="cls-1" d="M93.83,331.56h1.08v10.23h-1.08v-10.23Z"/>
        <path class="cls-1" d="M97.45,331.77h1.23v1.19h-1.23v-1.19ZM97.52,334.54h1.08v7.24h-1.08v-7.24Z"/>
        <path class="cls-1" d="M100.5,340.86l.55-.77c.78.59,1.65.92,2.51.92s1.5-.45,1.5-1.15v-.03c0-.73-.85-1.01-1.81-1.27-1.13-.32-2.4-.71-2.4-2.04v-.03c0-1.25,1.04-2.07,2.47-2.07.88,0,1.86.31,2.61.8l-.49.81c-.67-.43-1.44-.7-2.14-.7-.85,0-1.4.45-1.4,1.05v.03c0,.69.9.95,1.86,1.25,1.12.34,2.33.77,2.33,2.07v.03c0,1.37-1.13,2.17-2.58,2.17-1.04,0-2.19-.41-3-1.06Z"/>
        <path class="cls-1" d="M108.1,331.77h1.23v1.19h-1.23v-1.19ZM108.17,334.54h1.08v7.24h-1.08v-7.24Z"/>
        <path class="cls-1" d="M111.75,334.54h1.08v1.26c.48-.78,1.23-1.42,2.48-1.42,1.75,0,2.77,1.18,2.77,2.9v4.5h-1.08v-4.23c0-1.34-.73-2.18-2-2.18s-2.17.91-2.17,2.27v4.15h-1.08v-7.24Z"/>
        <path class="cls-1" d="M120.29,343.04l.49-.84c.83.6,1.75.92,2.79.92,1.6,0,2.63-.88,2.63-2.58v-.85c-.63.84-1.51,1.53-2.84,1.53-1.74,0-3.4-1.3-3.4-3.39v-.03c0-2.12,1.68-3.42,3.4-3.42,1.36,0,2.24.67,2.83,1.46v-1.3h1.08v5.98c0,1.12-.34,1.98-.92,2.56-.64.64-1.61.97-2.76.97-1.21,0-2.33-.34-3.29-1.01ZM126.23,337.82v-.03c0-1.48-1.29-2.45-2.66-2.45s-2.51.95-2.51,2.44v.03c0,1.46,1.16,2.47,2.51,2.47s2.66-1,2.66-2.45Z"/>
        <path class="cls-1" d="M133.45,338.18v-.03c0-2.37,1.72-3.77,3.46-3.77,1.34,0,2.21.73,2.77,1.54v-4.37h1.08v10.23h-1.08v-1.46c-.59.87-1.44,1.61-2.77,1.61-1.74,0-3.46-1.37-3.46-3.75ZM139.73,338.17v-.03c0-1.67-1.27-2.79-2.62-2.79s-2.55,1.04-2.55,2.79v.03c0,1.71,1.18,2.8,2.55,2.8s2.62-1.13,2.62-2.8Z"/>
        <path class="cls-1" d="M143.2,331.77h1.23v1.19h-1.23v-1.19ZM143.27,334.54h1.08v7.24h-1.08v-7.24Z"/>
        <path class="cls-1" d="M146.25,340.86l.55-.77c.78.59,1.65.92,2.51.92s1.5-.45,1.5-1.15v-.03c0-.73-.85-1.01-1.81-1.27-1.13-.32-2.4-.71-2.4-2.04v-.03c0-1.25,1.04-2.07,2.47-2.07.88,0,1.86.31,2.61.8l-.49.81c-.67-.43-1.44-.7-2.14-.7-.85,0-1.4.45-1.4,1.05v.03c0,.69.9.95,1.86,1.25,1.12.34,2.33.77,2.33,2.07v.03c0,1.37-1.13,2.17-2.58,2.17-1.04,0-2.19-.41-3-1.06Z"/>
        <path class="cls-1" d="M153.37,338.18v-.03c0-2.09,1.47-3.77,3.47-3.77,2.14,0,3.38,1.71,3.38,3.82,0,.14,0,.22-.01.35h-5.74c.15,1.57,1.26,2.45,2.55,2.45.99,0,1.69-.41,2.28-1.02l.67.6c-.73.81-1.61,1.36-2.98,1.36-1.99,0-3.61-1.53-3.61-3.77ZM159.13,337.76c-.11-1.32-.87-2.46-2.31-2.46-1.26,0-2.21,1.05-2.35,2.46h4.66Z"/>
        <path class="cls-1" d="M161.56,339.68v-.03c0-1.53,1.26-2.34,3.1-2.34.92,0,1.58.13,2.23.31v-.25c0-1.3-.8-1.98-2.16-1.98-.85,0-1.53.22-2.2.53l-.32-.88c.8-.36,1.58-.6,2.63-.6s1.81.27,2.34.8c.49.49.74,1.19.74,2.12v4.43h-1.04v-1.09c-.5.66-1.34,1.25-2.62,1.25-1.34,0-2.7-.77-2.7-2.26ZM166.9,339.12v-.7c-.53-.15-1.25-.31-2.13-.31-1.36,0-2.12.59-2.12,1.5v.03c0,.91.84,1.44,1.82,1.44,1.33,0,2.42-.81,2.42-1.96Z"/>
        <path class="cls-1" d="M169.61,340.86l.55-.77c.78.59,1.65.92,2.51.92s1.5-.45,1.5-1.15v-.03c0-.73-.85-1.01-1.81-1.27-1.13-.32-2.4-.71-2.4-2.04v-.03c0-1.25,1.04-2.07,2.47-2.07.88,0,1.86.31,2.61.8l-.49.81c-.67-.43-1.44-.7-2.14-.7-.85,0-1.4.45-1.4,1.05v.03c0,.69.9.95,1.86,1.25,1.12.34,2.33.77,2.33,2.07v.03c0,1.37-1.13,2.17-2.58,2.17-1.04,0-2.19-.41-3-1.06Z"/>
        <path class="cls-1" d="M176.74,338.18v-.03c0-2.09,1.47-3.77,3.47-3.77,2.14,0,3.38,1.71,3.38,3.82,0,.14,0,.22-.01.35h-5.74c.15,1.57,1.26,2.45,2.55,2.45.99,0,1.69-.41,2.28-1.02l.67.6c-.73.81-1.61,1.36-2.98,1.36-1.99,0-3.61-1.53-3.61-3.77ZM182.5,337.76c-.11-1.32-.87-2.46-2.31-2.46-1.26,0-2.21,1.05-2.35,2.46h4.66Z"/>
        <path class="cls-1" d="M184.78,343c.7-.25.99-.62.94-1.22h-.5v-1.47h1.29v1.26c0,1.13-.49,1.68-1.55,1.92l-.17-.49Z"/>
        <path class="cls-1" d="M192.97,334.54h1.08v1.26c.48-.78,1.23-1.42,2.48-1.42,1.75,0,2.77,1.18,2.77,2.9v4.5h-1.08v-4.23c0-1.34-.73-2.18-2-2.18s-2.17.91-2.17,2.27v4.15h-1.08v-7.24Z"/>
        <path class="cls-1" d="M205.54,337.76c0-2.58,1.39-4.59,3.88-6l.46.71c-2.13,1.36-3.25,3.04-3.25,5.28s1.12,3.92,3.25,5.28l-.46.71c-2.49-1.4-3.88-3.42-3.88-6Z"/>
        <path class="cls-1" d="M211.39,334.4v-.03c0-1.33.9-2.51,2.24-2.51s2.2,1.16,2.2,2.48v.03c0,1.33-.9,2.51-2.23,2.51s-2.21-1.16-2.21-2.48ZM212.33,334.34v.03c0,.98.57,1.72,1.3,1.72s1.27-.76,1.27-1.69v-.03c0-.98-.59-1.72-1.3-1.72-.77,0-1.27.77-1.27,1.69ZM219.6,331.98h.99l-3.78,5.14-3.4,4.66h-1.01l3.78-5.11,3.42-4.69ZM217.17,339.42v-.03c0-1.33.9-2.51,2.23-2.51s2.2,1.16,2.2,2.48v.03c0,1.33-.88,2.51-2.23,2.51s-2.2-1.16-2.2-2.48ZM220.68,339.42v-.03c0-.98-.57-1.72-1.3-1.72s-1.27.77-1.27,1.7v.03c0,.98.57,1.72,1.3,1.72.77,0,1.27-.76,1.27-1.7Z"/>
        <path class="cls-1" d="M223.12,343.04c2.13-1.36,3.25-3.04,3.25-5.28s-1.12-3.92-3.25-5.28l.46-.71c2.49,1.4,3.88,3.42,3.88,6s-1.39,4.59-3.88,6l-.46-.71Z"/>
      </g>
      <g>
        <path class="cls-1" d="M345.76,87.46h-5.17l-.28-.8,5.55-6.75h.97v6.62h1.53v.92h-1.53v2.33h-1.06v-2.33ZM345.76,86.53v-5.06l-4.12,5.06h4.12Z"/>
        <path class="cls-1" d="M349.81,88.2l.8-.71c.76.92,1.67,1.46,2.87,1.46s2.14-.76,2.14-1.9v-.03c0-1.22-1.13-1.89-2.75-1.89h-.63l-.22-.66,3.1-3.49h-4.79v-1h6.26v.81l-3.08,3.42c1.71.14,3.24.97,3.24,2.76v.03c0,1.75-1.46,2.96-3.28,2.96-1.64,0-2.86-.71-3.66-1.75Z"/>
        <path class="cls-1" d="M358.36,88.4l.73-.8c.85.83,1.79,1.34,2.79,1.34,1.4,0,2.37-.92,2.37-2.17v-.03c0-1.22-1.01-2.06-2.44-2.06-.83,0-1.48.25-2.06.56l-.74-.49.28-4.78h5.65v1.02h-4.68l-.21,3.14c.57-.25,1.12-.43,1.93-.43,1.9,0,3.39,1.13,3.39,3v.03c0,1.92-1.46,3.22-3.5,3.22-1.4,0-2.62-.67-3.5-1.55Z"/>
        <path class="cls-1" d="M371.34,85.76c0-2.58,1.39-4.59,3.88-6l.46.71c-2.13,1.36-3.25,3.04-3.25,5.28s1.12,3.92,3.25,5.28l-.46.71c-2.49-1.4-3.88-3.42-3.88-6Z"/>
        <path class="cls-1" d="M377.21,88.4l.73-.8c.85.83,1.79,1.34,2.79,1.34,1.4,0,2.37-.92,2.37-2.17v-.03c0-1.22-1.01-2.06-2.44-2.06-.83,0-1.48.25-2.06.56l-.74-.49.28-4.78h5.65v1.02h-4.68l-.21,3.14c.57-.25,1.12-.43,1.93-.43,1.9,0,3.39,1.13,3.39,3v.03c0,1.92-1.46,3.22-3.5,3.22-1.4,0-2.62-.67-3.5-1.55Z"/>
        <path class="cls-1" d="M385.66,88.2l.8-.71c.76.92,1.67,1.46,2.87,1.46s2.14-.76,2.14-1.9v-.03c0-1.22-1.13-1.89-2.75-1.89h-.63l-.22-.66,3.1-3.49h-4.79v-1h6.26v.81l-3.08,3.42c1.71.14,3.24.97,3.24,2.76v.03c0,1.75-1.46,2.96-3.28,2.96-1.64,0-2.86-.71-3.66-1.75Z"/>
        <path class="cls-1" d="M394.33,91.04c2.13-1.36,3.25-3.04,3.25-5.28s-1.12-3.92-3.25-5.28l.46-.71c2.49,1.4,3.88,3.42,3.88,6s-1.39,4.59-3.88,6l-.46-.71Z"/>
        <path class="cls-1" d="M338.51,109.2l.8-.71c.76.92,1.67,1.46,2.87,1.46s2.14-.76,2.14-1.9v-.03c0-1.22-1.13-1.89-2.75-1.89h-.63l-.22-.66,3.1-3.49h-4.79v-1h6.26v.81l-3.08,3.42c1.71.14,3.24.97,3.24,2.76v.03c0,1.75-1.46,2.96-3.28,2.96-1.64,0-2.86-.71-3.66-1.75Z"/>
        <path class="cls-1" d="M347.06,109.4l.73-.8c.85.83,1.79,1.34,2.79,1.34,1.4,0,2.37-.92,2.37-2.17v-.03c0-1.22-1.01-2.06-2.44-2.06-.83,0-1.48.25-2.06.56l-.74-.49.28-4.78h5.65v1.02h-4.68l-.21,3.14c.57-.25,1.12-.43,1.93-.43,1.9,0,3.39,1.13,3.39,3v.03c0,1.92-1.46,3.22-3.5,3.22-1.4,0-2.62-.67-3.5-1.55Z"/>
        <path class="cls-1" d="M355.95,109.31h1.29v1.47h-1.29v-1.47Z"/>
        <path class="cls-1" d="M359.05,109.4l.73-.8c.85.83,1.79,1.34,2.79,1.34,1.4,0,2.37-.92,2.37-2.17v-.03c0-1.22-1.01-2.06-2.44-2.06-.83,0-1.48.25-2.06.56l-.74-.49.28-4.78h5.65v1.02h-4.68l-.21,3.14c.57-.25,1.12-.43,1.93-.43,1.9,0,3.39,1.13,3.39,3v.03c0,1.92-1.46,3.22-3.5,3.22-1.4,0-2.62-.67-3.5-1.55Z"/>
        <path class="cls-1" d="M372.03,106.76c0-2.58,1.39-4.59,3.88-6l.46.71c-2.13,1.36-3.25,3.04-3.25,5.28s1.12,3.92,3.25,5.28l-.46.71c-2.49-1.4-3.88-3.42-3.88-6Z"/>
        <path class="cls-1" d="M379.66,102.06l-1.85.57-.27-.9,2.4-.83h.81v9.88h-1.09v-8.73Z"/>
        <path class="cls-1" d="M384.67,102.06l-1.85.57-.27-.9,2.4-.83h.81v9.88h-1.09v-8.73Z"/>
        <path class="cls-1" d="M388.24,109.31h1.29v1.47h-1.29v-1.47Z"/>
        <path class="cls-1" d="M397.66,105.85v-.2c-.62.95-1.51,1.55-2.77,1.55-2.02,0-3.42-1.27-3.42-3.04v-.03c0-1.86,1.44-3.33,3.53-3.33,1.12,0,1.95.38,2.58,1.01.74.74,1.22,1.83,1.22,3.8v.03c0,3.11-1.65,5.31-4.08,5.31-1.27,0-2.2-.52-3.03-1.2l.64-.85c.8.7,1.54,1.05,2.41,1.05,1.89,0,2.91-1.97,2.91-4.09ZM397.45,104.05v-.03c0-1.25-1.02-2.23-2.49-2.23s-2.35,1.08-2.35,2.3v.03c0,1.25.98,2.14,2.41,2.14,1.5,0,2.44-1.09,2.44-2.21Z"/>
        <path class="cls-1" d="M400.43,112.04c2.13-1.36,3.25-3.04,3.25-5.28s-1.12-3.92-3.25-5.28l.46-.71c2.49,1.4,3.88,3.42,3.88,6s-1.39,4.59-3.88,6l-.46-.71Z"/>
        <path class="cls-1" d="M357.08,126.85v-.2c-.62.95-1.51,1.55-2.77,1.55-2.02,0-3.42-1.27-3.42-3.04v-.03c0-1.86,1.44-3.33,3.53-3.33,1.12,0,1.95.38,2.58,1.01.74.74,1.22,1.83,1.22,3.8v.03c0,3.11-1.65,5.31-4.08,5.31-1.27,0-2.2-.52-3.03-1.2l.64-.85c.8.7,1.54,1.05,2.41,1.05,1.89,0,2.91-1.97,2.91-4.09ZM356.87,125.05v-.03c0-1.25-1.02-2.23-2.49-2.23s-2.35,1.08-2.35,2.3v.03c0,1.25.98,2.14,2.41,2.14,1.5,0,2.44-1.09,2.44-2.21Z"/>
        <path class="cls-1" d="M359.99,130.31h1.29v1.47h-1.29v-1.47Z"/>
        <path class="cls-1" d="M364.14,123.06l-1.85.57-.27-.9,2.4-.83h.81v9.88h-1.09v-8.73Z"/>
        <path class="cls-1" d="M371.8,127.76c0-2.58,1.39-4.59,3.88-6l.46.71c-2.13,1.36-3.25,3.04-3.25,5.28s1.12,3.92,3.25,5.28l-.46.71c-2.49-1.4-3.88-3.42-3.88-6Z"/>
        <path class="cls-1" d="M383.27,122.99h-5.39v-1.01h6.65v.83l-4.45,8.98h-1.23l4.43-8.8Z"/>
        <path class="cls-1" d="M384.93,130.31h1.29v1.47h-1.29v-1.47Z"/>
        <path class="cls-1" d="M388.03,130.4l.73-.8c.85.83,1.79,1.34,2.79,1.34,1.4,0,2.37-.92,2.37-2.17v-.03c0-1.22-1.01-2.06-2.44-2.06-.83,0-1.48.25-2.06.56l-.74-.49.28-4.78h5.65v1.02h-4.68l-.21,3.14c.57-.25,1.12-.43,1.93-.43,1.9,0,3.39,1.13,3.39,3v.03c0,1.92-1.46,3.22-3.5,3.22-1.4,0-2.62-.67-3.5-1.55Z"/>
        <path class="cls-1" d="M396.64,133.04c2.13-1.36,3.25-3.04,3.25-5.28s-1.12-3.92-3.25-5.28l.46-.71c2.49,1.4,3.88,3.42,3.88,6s-1.39,4.59-3.88,6l-.46-.71Z"/>
        <path class="cls-1" d="M342.49,151.4l.73-.8c.85.83,1.79,1.34,2.79,1.34,1.4,0,2.37-.92,2.37-2.17v-.03c0-1.22-1.01-2.06-2.44-2.06-.83,0-1.48.25-2.06.56l-.74-.49.28-4.78h5.65v1.02h-4.68l-.21,3.14c.57-.25,1.12-.43,1.93-.43,1.9,0,3.39,1.13,3.39,3v.03c0,1.92-1.46,3.22-3.5,3.22-1.4,0-2.62-.67-3.5-1.55Z"/>
        <path class="cls-1" d="M350.94,151.2l.8-.71c.76.92,1.67,1.46,2.87,1.46s2.14-.76,2.14-1.9v-.03c0-1.22-1.13-1.89-2.75-1.89h-.63l-.22-.66,3.1-3.49h-4.79v-1h6.26v.81l-3.08,3.42c1.71.14,3.24.97,3.24,2.76v.03c0,1.75-1.46,2.96-3.28,2.96-1.64,0-2.86-.71-3.66-1.75Z"/>
        <path class="cls-1" d="M359.5,151.4l.73-.8c.85.83,1.79,1.34,2.79,1.34,1.4,0,2.37-.92,2.37-2.17v-.03c0-1.22-1.01-2.06-2.44-2.06-.83,0-1.48.25-2.06.56l-.74-.49.28-4.78h5.65v1.02h-4.68l-.21,3.14c.57-.25,1.12-.43,1.93-.43,1.9,0,3.39,1.13,3.39,3v.03c0,1.92-1.46,3.22-3.5,3.22-1.4,0-2.62-.67-3.5-1.55Z"/>
        <path class="cls-1" d="M372.47,148.76c0-2.58,1.39-4.59,3.88-6l.46.71c-2.13,1.36-3.25,3.04-3.25,5.28s1.12,3.92,3.25,5.28l-.46.71c-2.49-1.4-3.88-3.42-3.88-6Z"/>
        <path class="cls-1" d="M379.68,151.96c-.78-.79-1.23-1.79-1.23-3.8v-.03c0-2.98,1.51-5.32,4.08-5.32,1.18,0,2.04.42,2.9,1.12l-.64.85c-.73-.62-1.42-.97-2.31-.97-1.89,0-2.89,1.99-2.89,4.2v.14c.64-.94,1.53-1.51,2.8-1.51,1.82,0,3.39,1.18,3.39,3.01v.03c0,1.89-1.53,3.26-3.52,3.26-1.08,0-1.96-.38-2.58-.99ZM384.64,149.73v-.03c0-1.2-.98-2.1-2.4-2.1s-2.45,1.05-2.45,2.14v.03c0,1.25,1.04,2.2,2.48,2.2s2.37-.99,2.37-2.24Z"/>
        <path class="cls-1" d="M388.74,151.96c-.78-.79-1.23-1.79-1.23-3.8v-.03c0-2.98,1.51-5.32,4.08-5.32,1.18,0,2.04.42,2.9,1.12l-.64.85c-.73-.62-1.42-.97-2.31-.97-1.89,0-2.89,1.99-2.89,4.2v.14c.64-.94,1.53-1.51,2.8-1.51,1.82,0,3.39,1.18,3.39,3.01v.03c0,1.89-1.53,3.26-3.52,3.26-1.08,0-1.96-.38-2.58-.99ZM393.7,149.73v-.03c0-1.2-.98-2.1-2.4-2.1s-2.45,1.05-2.45,2.14v.03c0,1.25,1.04,2.2,2.48,2.2s2.37-.99,2.37-2.24Z"/>
        <path class="cls-1" d="M396.5,154.04c2.13-1.36,3.25-3.04,3.25-5.28s-1.12-3.92-3.25-5.28l.46-.71c2.49,1.4,3.88,3.42,3.88,6s-1.39,4.59-3.88,6l-.46-.71Z"/>
        <path class="cls-1" d="M347.45,171.46h-5.17l-.28-.8,5.55-6.75h.97v6.62h1.53v.92h-1.53v2.33h-1.06v-2.33ZM347.45,170.53v-5.06l-4.12,5.06h4.12Z"/>
        <path class="cls-1" d="M357.72,168.85v-.2c-.62.95-1.51,1.55-2.77,1.55-2.02,0-3.42-1.27-3.42-3.04v-.03c0-1.86,1.44-3.33,3.53-3.33,1.12,0,1.95.38,2.58,1.01.74.74,1.22,1.83,1.22,3.8v.03c0,3.11-1.65,5.31-4.08,5.31-1.27,0-2.2-.52-3.03-1.2l.64-.85c.8.7,1.54,1.05,2.41,1.05,1.89,0,2.91-1.97,2.91-4.09ZM357.51,167.05v-.03c0-1.25-1.02-2.23-2.49-2.23s-2.35,1.08-2.35,2.3v.03c0,1.25.98,2.14,2.41,2.14,1.5,0,2.44-1.09,2.44-2.21Z"/>
        <path class="cls-1" d="M365.76,164.99h-5.39v-1.01h6.65v.83l-4.45,8.98h-1.23l4.43-8.8Z"/>
        <path class="cls-1" d="M372.91,169.76c0-2.58,1.39-4.59,3.88-6l.46.71c-2.13,1.36-3.25,3.04-3.25,5.28s1.12,3.92,3.25,5.28l-.46.71c-2.49-1.4-3.88-3.42-3.88-6Z"/>
        <path class="cls-1" d="M380.12,172.96c-.78-.79-1.23-1.79-1.23-3.8v-.03c0-2.98,1.51-5.32,4.08-5.32,1.18,0,2.04.42,2.9,1.12l-.64.85c-.73-.62-1.42-.97-2.31-.97-1.89,0-2.89,1.99-2.89,4.2v.14c.64-.94,1.53-1.51,2.8-1.51,1.82,0,3.39,1.18,3.39,3.01v.03c0,1.89-1.53,3.26-3.52,3.26-1.08,0-1.96-.38-2.58-.99ZM385.08,170.73v-.03c0-1.2-.98-2.1-2.4-2.1s-2.45,1.05-2.45,2.14v.03c0,1.25,1.04,2.2,2.48,2.2s2.37-.99,2.37-2.24Z"/>
        <path class="cls-1" d="M389.36,165.06l-1.85.57-.27-.9,2.4-.83h.81v9.88h-1.09v-8.73Z"/>
        <path class="cls-1" d="M392.65,175.04c2.13-1.36,3.25-3.04,3.25-5.28s-1.12-3.92-3.25-5.28l.46-.71c2.49,1.4,3.88,3.42,3.88,6s-1.39,4.59-3.88,6l-.46-.71Z"/>
        <path class="cls-1" d="M342.78,186.06l-1.85.57-.27-.9,2.4-.83h.81v9.88h-1.09v-8.73Z"/>
        <path class="cls-1" d="M346.15,189.91v-.03c0-2.75,1.64-5.07,4.16-5.07s4.12,2.3,4.12,5.04v.03c0,2.75-1.62,5.07-4.15,5.07s-4.13-2.3-4.13-5.04ZM353.28,189.91v-.03c0-2.14-1.18-4.06-3-4.06s-2.98,1.88-2.98,4.03v.03c0,2.14,1.18,4.06,3.01,4.06s2.97-1.89,2.97-4.03Z"/>
        <path class="cls-1" d="M356.08,193.31h1.29v1.47h-1.29v-1.47Z"/>
        <path class="cls-1" d="M360.52,193.96c-.78-.79-1.23-1.79-1.23-3.8v-.03c0-2.98,1.51-5.32,4.08-5.32,1.18,0,2.04.42,2.9,1.12l-.64.85c-.73-.62-1.42-.97-2.31-.97-1.89,0-2.89,1.99-2.89,4.2v.14c.64-.94,1.53-1.51,2.8-1.51,1.82,0,3.39,1.18,3.39,3.01v.03c0,1.89-1.53,3.26-3.52,3.26-1.08,0-1.96-.38-2.58-.99ZM365.48,191.73v-.03c0-1.2-.98-2.1-2.4-2.1s-2.45,1.05-2.45,2.14v.03c0,1.25,1.04,2.2,2.48,2.2s2.37-.99,2.37-2.24Z"/>
        <path class="cls-1" d="M372.64,190.76c0-2.58,1.39-4.59,3.88-6l.46.71c-2.13,1.36-3.25,3.04-3.25,5.28s1.12,3.92,3.25,5.28l-.46.71c-2.49-1.4-3.88-3.42-3.88-6Z"/>
        <path class="cls-1" d="M383.82,192.46h-5.17l-.28-.8,5.55-6.75h.97v6.62h1.53v.92h-1.53v2.33h-1.06v-2.33ZM383.82,191.53v-5.06l-4.12,5.06h4.12Z"/>
        <path class="cls-1" d="M388.22,193.31h1.29v1.47h-1.29v-1.47Z"/>
        <path class="cls-1" d="M391.32,193.4l.73-.8c.85.83,1.79,1.34,2.79,1.34,1.4,0,2.37-.92,2.37-2.17v-.03c0-1.22-1.01-2.06-2.44-2.06-.83,0-1.48.25-2.06.56l-.74-.49.28-4.78h5.65v1.02h-4.68l-.21,3.14c.57-.25,1.12-.43,1.93-.43,1.9,0,3.39,1.13,3.39,3v.03c0,1.92-1.46,3.22-3.5,3.22-1.4,0-2.62-.67-3.5-1.55Z"/>
        <path class="cls-1" d="M400.05,190.01h3.89v1.13h-3.89v-1.13Z"/>
        <path class="cls-1" d="M405.41,193.2l.8-.71c.76.92,1.67,1.46,2.87,1.46s2.14-.76,2.14-1.9v-.03c0-1.22-1.13-1.89-2.75-1.89h-.63l-.22-.66,3.1-3.49h-4.79v-1h6.26v.81l-3.08,3.42c1.71.14,3.24.97,3.24,2.76v.03c0,1.75-1.46,2.96-3.28,2.96-1.64,0-2.86-.71-3.66-1.75Z"/>
        <path class="cls-1" d="M415.8,186.06l-1.85.57-.27-.9,2.4-.83h.81v9.88h-1.09v-8.73Z"/>
        <path class="cls-1" d="M419.37,193.31h1.29v1.47h-1.29v-1.47Z"/>
        <path class="cls-1" d="M423.81,193.96c-.78-.79-1.23-1.79-1.23-3.8v-.03c0-2.98,1.51-5.32,4.08-5.32,1.18,0,2.04.42,2.9,1.12l-.64.85c-.73-.62-1.42-.97-2.31-.97-1.89,0-2.89,1.99-2.89,4.2v.14c.64-.94,1.53-1.51,2.8-1.51,1.82,0,3.39,1.18,3.39,3.01v.03c0,1.89-1.53,3.26-3.52,3.26-1.08,0-1.96-.38-2.58-.99ZM428.77,191.73v-.03c0-1.2-.98-2.1-2.4-2.1s-2.45,1.05-2.45,2.14v.03c0,1.25,1.04,2.2,2.48,2.2s2.37-.99,2.37-2.24Z"/>
        <path class="cls-1" d="M431.57,196.04c2.13-1.36,3.25-3.04,3.25-5.28s-1.12-3.92-3.25-5.28l.46-.71c2.49,1.4,3.88,3.42,3.88,6s-1.39,4.59-3.88,6l-.46-.71Z"/>
        <path class="cls-1" d="M339.04,214.2l.8-.71c.76.92,1.67,1.46,2.87,1.46s2.14-.76,2.14-1.9v-.03c0-1.22-1.13-1.89-2.75-1.89h-.63l-.22-.66,3.1-3.49h-4.79v-1h6.26v.81l-3.08,3.42c1.71.14,3.24.97,3.24,2.76v.03c0,1.75-1.46,2.96-3.28,2.96-1.64,0-2.86-.71-3.66-1.75Z"/>
        <path class="cls-1" d="M352.98,213.46h-5.17l-.28-.8,5.55-6.75h.97v6.62h1.53v.92h-1.53v2.33h-1.06v-2.33ZM352.98,212.53v-5.06l-4.12,5.06h4.12Z"/>
        <path class="cls-1" d="M357.38,214.31h1.29v1.47h-1.29v-1.47Z"/>
        <path class="cls-1" d="M366.81,210.85v-.2c-.62.95-1.51,1.55-2.77,1.55-2.02,0-3.42-1.27-3.42-3.04v-.03c0-1.86,1.44-3.33,3.53-3.33,1.12,0,1.95.38,2.58,1.01.74.74,1.22,1.83,1.22,3.8v.03c0,3.11-1.65,5.31-4.08,5.31-1.27,0-2.2-.52-3.03-1.2l.64-.85c.8.7,1.54,1.05,2.41,1.05,1.89,0,2.91-1.97,2.91-4.09ZM366.6,209.05v-.03c0-1.25-1.02-2.23-2.49-2.23s-2.35,1.08-2.35,2.3v.03c0,1.25.98,2.14,2.41,2.14,1.5,0,2.44-1.09,2.44-2.21Z"/>
        <path class="cls-1" d="M373.94,211.76c0-2.58,1.39-4.59,3.88-6l.46.71c-2.13,1.36-3.25,3.04-3.25,5.28s1.12,3.92,3.25,5.28l-.46.71c-2.49-1.4-3.88-3.42-3.88-6Z"/>
        <path class="cls-1" d="M379.81,214.4l.73-.8c.85.83,1.79,1.34,2.79,1.34,1.4,0,2.37-.92,2.37-2.17v-.03c0-1.22-1.01-2.06-2.44-2.06-.83,0-1.48.25-2.06.56l-.74-.49.28-4.78h5.65v1.02h-4.68l-.21,3.14c.57-.25,1.12-.43,1.93-.43,1.9,0,3.39,1.13,3.39,3v.03c0,1.92-1.46,3.22-3.5,3.22-1.4,0-2.62-.67-3.5-1.55Z"/>
        <path class="cls-1" d="M388.7,214.31h1.29v1.47h-1.29v-1.47Z"/>
        <path class="cls-1" d="M397.12,206.99h-5.39v-1.01h6.65v.83l-4.45,8.98h-1.23l4.43-8.8Z"/>
        <path class="cls-1" d="M399.9,217.04c2.13-1.36,3.25-3.04,3.25-5.28s-1.12-3.92-3.25-5.28l.46-.71c2.49,1.4,3.88,3.42,3.88,6s-1.39,4.59-3.88,6l-.46-.71Z"/>
        <path class="cls-1" d="M351.95,249.06l-1.85.57-.27-.9,2.4-.83h.81v9.88h-1.09v-8.73Z"/>
        <path class="cls-1" d="M360.51,255.46h-5.17l-.28-.8,5.55-6.75h.97v6.62h1.53v.92h-1.53v2.33h-1.06v-2.33ZM360.51,254.53v-5.06l-4.12,5.06h4.12Z"/>
        <path class="cls-1" d="M366.08,249.06l-1.85.57-.27-.9,2.4-.83h.81v9.88h-1.09v-8.73Z"/>
        <path class="cls-1" d="M373.73,253.76c0-2.58,1.39-4.59,3.88-6l.46.71c-2.13,1.36-3.25,3.04-3.25,5.28s1.12,3.92,3.25,5.28l-.46.71c-2.49-1.4-3.88-3.42-3.88-6Z"/>
        <path class="cls-1" d="M381.36,249.06l-1.85.57-.27-.9,2.4-.83h.81v9.88h-1.09v-8.73Z"/>
        <path class="cls-1" d="M390.21,248.99h-5.39v-1.01h6.65v.83l-4.45,8.98h-1.23l4.43-8.8Z"/>
        <path class="cls-1" d="M393,259.04c2.13-1.36,3.25-3.04,3.25-5.28s-1.12-3.92-3.25-5.28l.46-.71c2.49,1.4,3.88,3.42,3.88,6s-1.39,4.59-3.88,6l-.46-.71Z"/>
        <path class="cls-1" d="M342.17,277.93l3.56-3.14c1.5-1.34,2.04-2.1,2.04-3.08,0-1.15-.91-1.88-1.98-1.88-1.12,0-1.85.59-2.63,1.68l-.81-.59c.88-1.32,1.81-2.09,3.53-2.09s3.04,1.18,3.04,2.77v.03c0,1.43-.76,2.31-2.48,3.81l-2.62,2.33h5.2v1.01h-6.85v-.85Z"/>
        <path class="cls-1" d="M350.59,277.2l.8-.71c.76.92,1.67,1.46,2.87,1.46s2.14-.76,2.14-1.9v-.03c0-1.22-1.13-1.89-2.75-1.89h-.63l-.22-.66,3.1-3.49h-4.79v-1h6.26v.81l-3.08,3.42c1.71.14,3.24.97,3.24,2.76v.03c0,1.75-1.46,2.96-3.28,2.96-1.64,0-2.86-.71-3.66-1.75Z"/>
        <path class="cls-1" d="M359.34,273.91v-.03c0-2.75,1.64-5.07,4.16-5.07s4.12,2.3,4.12,5.04v.03c0,2.75-1.62,5.07-4.15,5.07s-4.13-2.3-4.13-5.04ZM366.47,273.91v-.03c0-2.14-1.18-4.06-3-4.06s-2.98,1.88-2.98,4.03v.03c0,2.14,1.18,4.06,3.01,4.06s2.97-1.89,2.97-4.03Z"/>
        <path class="cls-1" d="M373.63,274.76c0-2.58,1.39-4.59,3.88-6l.46.71c-2.13,1.36-3.25,3.04-3.25,5.28s1.12,3.92,3.25,5.28l-.46.71c-2.49-1.4-3.88-3.42-3.88-6Z"/>
        <path class="cls-1" d="M379.42,277.93l3.56-3.14c1.5-1.34,2.04-2.1,2.04-3.08,0-1.15-.91-1.88-1.98-1.88-1.12,0-1.85.59-2.63,1.68l-.81-.59c.88-1.32,1.81-2.09,3.53-2.09s3.04,1.18,3.04,2.77v.03c0,1.43-.76,2.31-2.48,3.81l-2.62,2.33h5.2v1.01h-6.85v-.85Z"/>
        <path class="cls-1" d="M387.87,276.15v-.03c0-1.16.84-1.99,2.02-2.41-.91-.42-1.68-1.12-1.68-2.26v-.03c0-1.51,1.56-2.59,3.35-2.59s3.35,1.08,3.35,2.59v.03c0,1.13-.77,1.83-1.68,2.26,1.16.43,2.02,1.23,2.02,2.39v.03c0,1.67-1.6,2.79-3.68,2.79s-3.68-1.13-3.68-2.77ZM394.11,276.12v-.03c0-1.09-1.13-1.86-2.56-1.86s-2.56.77-2.56,1.86v.03c0,.99.95,1.83,2.56,1.83s2.56-.84,2.56-1.83ZM393.79,271.53v-.03c0-.97-.97-1.69-2.24-1.69s-2.24.71-2.24,1.69v.03c0,1.06.99,1.79,2.24,1.79s2.24-.73,2.24-1.79Z"/>
        <path class="cls-1" d="M396.74,280.04c2.13-1.36,3.25-3.04,3.25-5.28s-1.12-3.92-3.25-5.28l.46-.71c2.49,1.4,3.88,3.42,3.88,6s-1.39,4.59-3.88,6l-.46-.71Z"/>
        <path class="cls-1" d="M346.98,297.46h-5.17l-.28-.8,5.55-6.75h.97v6.62h1.53v.92h-1.53v2.33h-1.06v-2.33ZM346.98,296.53v-5.06l-4.12,5.06h4.12Z"/>
        <path class="cls-1" d="M356.37,297.46h-5.17l-.28-.8,5.55-6.75h.97v6.62h1.53v.92h-1.53v2.33h-1.06v-2.33ZM356.37,296.53v-5.06l-4.12,5.06h4.12Z"/>
        <path class="cls-1" d="M360.41,298.2l.8-.71c.76.92,1.67,1.46,2.87,1.46s2.14-.76,2.14-1.9v-.03c0-1.22-1.13-1.89-2.75-1.89h-.63l-.22-.66,3.1-3.49h-4.79v-1h6.26v.81l-3.08,3.42c1.71.14,3.24.97,3.24,2.76v.03c0,1.75-1.46,2.96-3.28,2.96-1.64,0-2.86-.71-3.66-1.75Z"/>
        <path class="cls-1" d="M373.45,295.76c0-2.58,1.39-4.59,3.88-6l.46.71c-2.13,1.36-3.25,3.04-3.25,5.28s1.12,3.92,3.25,5.28l-.46.71c-2.49-1.4-3.88-3.42-3.88-6Z"/>
        <path class="cls-1" d="M379.31,298.4l.73-.8c.85.83,1.79,1.34,2.79,1.34,1.4,0,2.37-.92,2.37-2.17v-.03c0-1.22-1.01-2.06-2.44-2.06-.83,0-1.48.25-2.06.56l-.74-.49.28-4.78h5.65v1.02h-4.68l-.21,3.14c.57-.25,1.12-.43,1.93-.43,1.9,0,3.39,1.13,3.39,3v.03c0,1.92-1.46,3.22-3.5,3.22-1.4,0-2.62-.67-3.5-1.55Z"/>
        <path class="cls-1" d="M393.19,297.46h-5.17l-.28-.8,5.55-6.75h.97v6.62h1.53v.92h-1.53v2.33h-1.06v-2.33ZM393.19,296.53v-5.06l-4.12,5.06h4.12Z"/>
        <path class="cls-1" d="M397.32,301.04c2.13-1.36,3.25-3.04,3.25-5.28s-1.12-3.92-3.25-5.28l.46-.71c2.49,1.4,3.88,3.42,3.88,6s-1.39,4.59-3.88,6l-.46-.71Z"/>
        <path class="cls-1" d="M342.07,319.2l.8-.71c.76.92,1.67,1.46,2.87,1.46s2.14-.76,2.14-1.9v-.03c0-1.22-1.13-1.89-2.75-1.89h-.63l-.22-.66,3.1-3.49h-4.79v-1h6.26v.81l-3.08,3.42c1.71.14,3.24.97,3.24,2.76v.03c0,1.75-1.46,2.96-3.28,2.96-1.64,0-2.86-.71-3.66-1.75Z"/>
        <path class="cls-1" d="M350.63,319.4l.73-.8c.85.83,1.79,1.34,2.79,1.34,1.4,0,2.37-.92,2.37-2.17v-.03c0-1.22-1.01-2.06-2.44-2.06-.83,0-1.48.25-2.06.56l-.74-.49.28-4.78h5.65v1.02h-4.68l-.21,3.14c.57-.25,1.12-.43,1.93-.43,1.9,0,3.39,1.13,3.39,3v.03c0,1.92-1.46,3.22-3.5,3.22-1.4,0-2.62-.67-3.5-1.55Z"/>
        <path class="cls-1" d="M359.2,319.4l.73-.8c.85.83,1.79,1.34,2.79,1.34,1.4,0,2.37-.92,2.37-2.17v-.03c0-1.22-1.01-2.06-2.44-2.06-.83,0-1.48.25-2.06.56l-.74-.49.28-4.78h5.65v1.02h-4.68l-.21,3.14c.57-.25,1.12-.43,1.93-.43,1.9,0,3.39,1.13,3.39,3v.03c0,1.92-1.46,3.22-3.5,3.22-1.4,0-2.62-.67-3.5-1.55Z"/>
        <path class="cls-1" d="M372.17,316.76c0-2.58,1.39-4.59,3.88-6l.46.71c-2.13,1.36-3.25,3.04-3.25,5.28s1.12,3.92,3.25,5.28l-.46.71c-2.49-1.4-3.88-3.42-3.88-6Z"/>
        <path class="cls-1" d="M383.35,318.46h-5.17l-.28-.8,5.55-6.75h.97v6.62h1.53v.92h-1.53v2.33h-1.06v-2.33ZM383.35,317.53v-5.06l-4.12,5.06h4.12Z"/>
        <path class="cls-1" d="M392.74,318.46h-5.17l-.28-.8,5.55-6.75h.97v6.62h1.53v.92h-1.53v2.33h-1.06v-2.33ZM392.74,317.53v-5.06l-4.12,5.06h4.12Z"/>
        <path class="cls-1" d="M396.87,322.04c2.13-1.36,3.25-3.04,3.25-5.28s-1.12-3.92-3.25-5.28l.46-.71c2.49,1.4,3.88,3.42,3.88,6s-1.39,4.59-3.88,6l-.46-.71Z"/>
        <path class="cls-1" d="M342.7,340.93l3.56-3.14c1.5-1.34,2.04-2.1,2.04-3.08,0-1.15-.91-1.88-1.98-1.88-1.12,0-1.85.59-2.63,1.68l-.81-.59c.88-1.32,1.81-2.09,3.53-2.09s3.04,1.18,3.04,2.77v.03c0,1.43-.76,2.31-2.48,3.81l-2.62,2.33h5.2v1.01h-6.85v-.85Z"/>
        <path class="cls-1" d="M357.48,336.85v-.2c-.62.95-1.51,1.55-2.77,1.55-2.02,0-3.42-1.27-3.42-3.04v-.03c0-1.86,1.44-3.33,3.53-3.33,1.12,0,1.95.38,2.58,1.01.74.74,1.22,1.83,1.22,3.8v.03c0,3.11-1.65,5.31-4.08,5.31-1.27,0-2.2-.52-3.03-1.2l.64-.85c.8.7,1.54,1.05,2.41,1.05,1.89,0,2.91-1.97,2.91-4.09ZM357.27,335.05v-.03c0-1.25-1.02-2.23-2.49-2.23s-2.35,1.08-2.35,2.3v.03c0,1.25.98,2.14,2.41,2.14,1.5,0,2.44-1.09,2.44-2.21Z"/>
        <path class="cls-1" d="M365.52,332.99h-5.39v-1.01h6.65v.83l-4.45,8.98h-1.23l4.43-8.8Z"/>
        <path class="cls-1" d="M372.67,337.76c0-2.58,1.39-4.59,3.88-6l.46.71c-2.13,1.36-3.25,3.04-3.25,5.28s1.12,3.92,3.25,5.28l-.46.71c-2.49-1.4-3.88-3.42-3.88-6Z"/>
        <path class="cls-1" d="M378.49,340.2l.8-.71c.76.92,1.67,1.46,2.87,1.46s2.14-.76,2.14-1.9v-.03c0-1.22-1.13-1.89-2.75-1.89h-.63l-.22-.66,3.1-3.49h-4.79v-1h6.26v.81l-3.08,3.42c1.71.14,3.24.97,3.24,2.76v.03c0,1.75-1.46,2.96-3.28,2.96-1.64,0-2.86-.71-3.66-1.75Z"/>
        <path class="cls-1" d="M388.46,340.96c-.78-.79-1.23-1.79-1.23-3.8v-.03c0-2.98,1.51-5.32,4.08-5.32,1.18,0,2.04.42,2.9,1.12l-.64.85c-.73-.62-1.42-.97-2.31-.97-1.89,0-2.89,1.99-2.89,4.2v.14c.64-.94,1.53-1.51,2.8-1.51,1.82,0,3.39,1.18,3.39,3.01v.03c0,1.89-1.53,3.26-3.52,3.26-1.08,0-1.96-.38-2.58-.99ZM393.42,338.73v-.03c0-1.2-.98-2.1-2.4-2.1s-2.45,1.05-2.45,2.14v.03c0,1.25,1.04,2.2,2.48,2.2s2.37-.99,2.37-2.24Z"/>
        <path class="cls-1" d="M396.22,343.04c2.13-1.36,3.25-3.04,3.25-5.28s-1.12-3.92-3.25-5.28l.46-.71c2.49,1.4,3.88,3.42,3.88,6s-1.39,4.59-3.88,6l-.46-.71Z"/>
      </g>
      <g>
        <path class="cls-1" d="M308.87,53.01v-.03c0-2.79,2.17-5.07,5.14-5.07,1.77,0,2.83.48,3.85,1.34l-1.36,1.64c-.76-.63-1.43-.99-2.56-.99-1.57,0-2.82,1.39-2.82,3.05v.03c0,1.79,1.23,3.11,2.97,3.11.79,0,1.49-.2,2.03-.59v-1.4h-2.17v-1.86h4.26v4.26c-1.01.85-2.39,1.55-4.19,1.55-3.05,0-5.16-2.14-5.16-5.04Z"/>
        <path class="cls-1" d="M320.28,48.08h7.4v1.92h-5.25v1.99h4.62v1.92h-4.62v2.06h5.32v1.92h-7.47v-9.81Z"/>
        <path class="cls-1" d="M329.66,48.08h2.33l2.58,4.15,2.58-4.15h2.33v9.81h-2.14v-6.4l-2.76,4.19h-.06l-2.73-4.15v6.36h-2.12v-9.81Z"/>
        <path class="cls-1" d="M341.91,48.08h2.16v9.81h-2.16v-9.81Z"/>
        <path class="cls-1" d="M346.51,48.08h1.99l4.59,6.04v-6.04h2.13v9.81h-1.83l-4.75-6.23v6.23h-2.13v-9.81Z"/>
        <path class="cls-1" d="M357.67,48.08h2.16v9.81h-2.16v-9.81Z"/>
        <path class="cls-1" d="M365.99,56.18l3.26-2.68c1.22-1.01,1.7-1.54,1.7-2.35s-.55-1.28-1.32-1.28-1.27.42-2,1.32l-1.51-1.22c.97-1.32,1.91-2.03,3.66-2.03,2.03,0,3.38,1.19,3.38,3.03v.03c0,1.64-.84,2.45-2.58,3.8l-1.6,1.23h4.27v1.86h-7.26v-1.71Z"/>
        <path class="cls-1" d="M379.05,53.87c0-2.69,1.3-4.59,3.88-6l.94,1.42c-1.89,1.32-2.7,2.61-2.7,4.58s.81,3.26,2.7,4.58l-.94,1.41c-2.58-1.4-3.88-3.31-3.88-6Z"/>
        <path class="cls-1" d="M385.63,48.08h1.99l4.59,6.04v-6.04h2.13v9.81h-1.83l-4.75-6.23v6.23h-2.13v-9.81Z"/>
        <path class="cls-1" d="M396.53,50.17h6.92v1.93h-6.92v-1.93ZM396.53,53.81h6.92v1.93h-6.92v-1.93Z"/>
        <path class="cls-1" d="M405.1,55.2v-.03c0-1.19.55-1.89,1.58-2.37-.76-.46-1.25-1.09-1.25-2.14v-.03c0-1.5,1.37-2.69,3.45-2.69s3.45,1.18,3.45,2.69v.03c0,1.05-.49,1.68-1.25,2.14,1,.52,1.58,1.15,1.58,2.31v.03c0,1.82-1.61,2.88-3.78,2.88s-3.78-1.12-3.78-2.83ZM410.58,55.03v-.03c0-.76-.71-1.2-1.7-1.2s-1.69.45-1.69,1.2v.03c0,.67.63,1.22,1.69,1.22s1.7-.53,1.7-1.22ZM410.29,50.9v-.03c0-.6-.52-1.15-1.4-1.15s-1.4.53-1.4,1.13v.03c0,.69.55,1.21,1.4,1.21s1.4-.5,1.4-1.19Z"/>
        <path class="cls-1" d="M415.79,50.2l-1.71.42-.45-1.77,2.82-.84h1.47v9.88h-2.13v-7.69Z"/>
        <path class="cls-1" d="M424.78,55.77h-4.79l-.35-1.53,5.38-6.23h1.82v6.01h1.32v1.75h-1.32v2.12h-2.06v-2.12ZM424.78,54.02v-3.05l-2.61,3.05h2.61Z"/>
        <path class="cls-1" d="M429.43,58.45c1.89-1.32,2.7-2.61,2.7-4.58s-.81-3.26-2.7-4.58l.94-1.42c2.58,1.4,3.88,3.31,3.88,6s-1.3,4.59-3.88,6l-.94-1.41Z"/>
      </g>
    </g>
  </g>
</svg>