<?xml version="1.0" encoding="UTF-8"?>
<svg id="Layer_2" data-name="Layer 2" xmlns="http://www.w3.org/2000/svg" viewBox="0 0 545.48 121.91">
  <defs>
    <style>
      .cls-1 {
        fill: #862580;
        stroke-width: 0px;
      }

      .cls-2 {
        fill: none;
        stroke: #862580;
        stroke-miterlimit: 10;
      }
    </style>
  </defs>
  <g id="Layer_1-2" data-name="Layer 1">
    <rect class="cls-2" x=".5" y=".5" width="544.48" height="120.91" rx="16.63" ry="16.63"/>
    <g>
      <path class="cls-1" d="M16.36,13.14h3.82c3.08,0,5.21,2.12,5.21,4.88v.03c0,2.76-2.13,4.9-5.21,4.9h-3.82v-9.81ZM18.52,15.09v5.91h1.67c1.77,0,2.96-1.19,2.96-2.93v-.03c0-1.74-1.19-2.96-2.96-2.96h-1.67Z"/>
      <path class="cls-1" d="M26.63,20.79v-.03c0-1.64,1.25-2.39,3.03-2.39.76,0,1.3.13,1.83.31v-.13c0-.88-.55-1.37-1.61-1.37-.81,0-1.39.15-2.07.41l-.53-1.62c.83-.36,1.64-.6,2.91-.6,1.16,0,2,.31,2.54.84.56.56.81,1.39.81,2.4v4.36h-2.06v-.81c-.52.57-1.23.95-2.27.95-1.41,0-2.58-.81-2.58-2.3ZM31.52,20.3v-.38c-.36-.17-.84-.28-1.36-.28-.91,0-1.47.36-1.47,1.04v.03c0,.57.48.91,1.16.91.99,0,1.67-.55,1.67-1.32Z"/>
      <path class="cls-1" d="M35.65,20.82v-3.56h-.9v-1.82h.9v-1.92h2.13v1.92h1.77v1.82h-1.77v3.21c0,.49.21.73.69.73.39,0,.74-.1,1.05-.27v1.71c-.45.27-.97.43-1.68.43-1.3,0-2.19-.52-2.19-2.25Z"/>
      <path class="cls-1" d="M40.66,20.79v-.03c0-1.64,1.25-2.39,3.03-2.39.76,0,1.3.13,1.83.31v-.13c0-.88-.55-1.37-1.61-1.37-.81,0-1.39.15-2.07.41l-.53-1.62c.83-.36,1.64-.6,2.91-.6,1.16,0,2,.31,2.54.84.56.56.81,1.39.81,2.4v4.36h-2.06v-.81c-.52.57-1.23.95-2.27.95-1.41,0-2.58-.81-2.58-2.3ZM45.55,20.3v-.38c-.36-.17-.84-.28-1.36-.28-.91,0-1.47.36-1.47,1.04v.03c0,.57.48.91,1.16.91.99,0,1.67-.55,1.67-1.32Z"/>
      <path class="cls-1" d="M53.01,21.96l.91-1.4c.81.59,1.67.9,2.37.9.62,0,.9-.22.9-.56v-.03c0-.46-.73-.62-1.56-.87-1.05-.31-2.24-.8-2.24-2.25v-.03c0-1.53,1.23-2.38,2.75-2.38.95,0,1.99.32,2.8.87l-.81,1.47c-.74-.43-1.48-.7-2.03-.7-.52,0-.78.22-.78.52v.03c0,.42.71.62,1.53.9,1.05.35,2.27.85,2.27,2.23v.03c0,1.67-1.25,2.42-2.87,2.42-1.05,0-2.23-.35-3.22-1.13Z"/>
      <path class="cls-1" d="M60.26,19.24v-.03c0-2.16,1.74-3.91,4.08-3.91s4.05,1.72,4.05,3.88v.03c0,2.16-1.74,3.91-4.08,3.91s-4.05-1.72-4.05-3.88ZM66.29,19.24v-.03c0-1.11-.8-2.07-1.98-2.07s-1.95.94-1.95,2.05v.03c0,1.11.8,2.07,1.98,2.07s1.95-.94,1.95-2.04Z"/>
      <path class="cls-1" d="M69.87,20.3v-4.86h2.13v4.19c0,1.01.48,1.53,1.29,1.53s1.33-.52,1.33-1.53v-4.19h2.13v7.51h-2.13v-1.06c-.49.63-1.12,1.2-2.2,1.2-1.61,0-2.55-1.06-2.55-2.79Z"/>
      <path class="cls-1" d="M78.64,15.44h2.13v1.51c.43-1.04,1.13-1.71,2.4-1.65v2.23h-.11c-1.41,0-2.28.85-2.28,2.65v2.77h-2.13v-7.51Z"/>
      <path class="cls-1" d="M83.92,19.24v-.03c0-2.14,1.64-3.91,3.94-3.91,1.42,0,2.3.48,3,1.26l-1.3,1.4c-.48-.5-.95-.83-1.71-.83-1.06,0-1.82.94-1.82,2.05v.03c0,1.15.74,2.07,1.91,2.07.71,0,1.2-.31,1.72-.8l1.25,1.26c-.73.8-1.57,1.37-3.07,1.37-2.26,0-3.91-1.74-3.91-3.88Z"/>
      <path class="cls-1" d="M91.71,19.24v-.03c0-2.14,1.53-3.91,3.71-3.91,2.51,0,3.66,1.95,3.66,4.08,0,.17-.01.36-.03.56h-5.22c.21.97.88,1.47,1.83,1.47.71,0,1.23-.22,1.82-.77l1.22,1.08c-.7.87-1.71,1.4-3.07,1.4-2.25,0-3.92-1.58-3.92-3.88ZM97,18.61c-.13-.95-.69-1.6-1.58-1.6s-1.46.63-1.62,1.6h3.21Z"/>
      <path class="cls-1" d="M100.06,21.96l.91-1.4c.81.59,1.67.9,2.37.9.62,0,.9-.22.9-.56v-.03c0-.46-.73-.62-1.56-.87-1.05-.31-2.24-.8-2.24-2.25v-.03c0-1.53,1.23-2.38,2.75-2.38.95,0,1.99.32,2.8.87l-.81,1.47c-.74-.43-1.48-.7-2.03-.7-.52,0-.78.22-.78.52v.03c0,.42.71.62,1.53.9,1.05.35,2.27.85,2.27,2.23v.03c0,1.67-1.25,2.42-2.87,2.42-1.05,0-2.23-.35-3.22-1.13Z"/>
      <path class="cls-1" d="M16.7,34.83v-.03c0-1.01.85-1.82,1.83-1.82s1.83.81,1.83,1.82v.03c0,1.01-.83,1.82-1.83,1.82s-1.83-.81-1.83-1.82Z"/>
      <path class="cls-1" d="M34.67,29.94h1.11v9.81h-1.11v-9.81Z"/>
      <path class="cls-1" d="M38.46,32.51h1.08v1.26c.48-.78,1.23-1.41,2.48-1.41,1.75,0,2.77,1.18,2.77,2.9v4.5h-1.08v-4.23c0-1.34-.73-2.18-2-2.18s-2.17.91-2.17,2.27v4.15h-1.08v-7.24Z"/>
      <path class="cls-1" d="M46.66,36.15v-.03c0-2.37,1.72-3.77,3.46-3.77,1.34,0,2.21.73,2.77,1.54v-4.37h1.08v10.23h-1.08v-1.46c-.59.87-1.44,1.61-2.77,1.61-1.74,0-3.46-1.37-3.46-3.75ZM52.94,36.14v-.03c0-1.67-1.27-2.79-2.62-2.79s-2.55,1.04-2.55,2.79v.03c0,1.71,1.18,2.8,2.55,2.8s2.62-1.13,2.62-2.8Z"/>
      <path class="cls-1" d="M56.41,29.73h1.23v1.19h-1.23v-1.19ZM56.48,32.51h1.08v7.24h-1.08v-7.24Z"/>
      <path class="cls-1" d="M59.35,32.51h1.19l2.44,6.01,2.45-6.01h1.16l-3.15,7.3h-.95l-3.14-7.3Z"/>
      <path class="cls-1" d="M68.31,29.73h1.23v1.19h-1.23v-1.19ZM68.38,32.51h1.08v7.24h-1.08v-7.24Z"/>
      <path class="cls-1" d="M71.54,36.15v-.03c0-2.37,1.72-3.77,3.46-3.77,1.34,0,2.21.73,2.77,1.54v-4.37h1.08v10.23h-1.08v-1.46c-.59.87-1.44,1.61-2.77,1.61-1.74,0-3.46-1.37-3.46-3.75ZM77.82,36.14v-.03c0-1.67-1.27-2.79-2.62-2.79s-2.55,1.04-2.55,2.79v.03c0,1.71,1.18,2.8,2.55,2.8s2.62-1.13,2.62-2.8Z"/>
      <path class="cls-1" d="M81.15,37v-4.5h1.08v4.23c0,1.34.73,2.19,2,2.19s2.17-.91,2.17-2.27v-4.15h1.06v7.24h-1.06v-1.26c-.49.78-1.23,1.42-2.48,1.42-1.75,0-2.77-1.18-2.77-2.9Z"/>
      <path class="cls-1" d="M89.34,37.65v-.03c0-1.53,1.26-2.34,3.1-2.34.92,0,1.58.13,2.23.31v-.25c0-1.3-.8-1.98-2.16-1.98-.85,0-1.53.22-2.2.53l-.32-.88c.8-.36,1.58-.6,2.63-.6s1.81.27,2.34.8c.49.49.74,1.19.74,2.12v4.43h-1.04v-1.09c-.5.66-1.34,1.25-2.62,1.25-1.34,0-2.7-.77-2.7-2.26ZM94.67,37.09v-.7c-.53-.15-1.25-.31-2.13-.31-1.36,0-2.12.59-2.12,1.5v.03c0,.91.84,1.44,1.82,1.44,1.33,0,2.42-.81,2.42-1.96Z"/>
      <path class="cls-1" d="M98.09,29.52h1.08v10.23h-1.08v-10.23Z"/>
      <path class="cls-1" d="M105.87,32.51h1.08v1.46c.59-.87,1.44-1.61,2.77-1.61,1.74,0,3.46,1.37,3.46,3.75v.03c0,2.37-1.71,3.77-3.46,3.77-1.34,0-2.21-.73-2.77-1.54v3.63h-1.08v-9.48ZM112.07,36.15v-.03c0-1.71-1.18-2.8-2.55-2.8s-2.62,1.13-2.62,2.79v.03c0,1.68,1.27,2.8,2.62,2.8s2.55-1.04,2.55-2.79Z"/>
      <path class="cls-1" d="M114.62,37.65v-.03c0-1.53,1.26-2.34,3.1-2.34.92,0,1.58.13,2.23.31v-.25c0-1.3-.8-1.98-2.16-1.98-.85,0-1.53.22-2.2.53l-.32-.88c.8-.36,1.58-.6,2.63-.6s1.81.27,2.34.8c.49.49.74,1.19.74,2.12v4.43h-1.04v-1.09c-.5.66-1.34,1.25-2.62,1.25-1.34,0-2.7-.77-2.7-2.26ZM119.96,37.09v-.7c-.53-.15-1.25-.31-2.13-.31-1.36,0-2.12.59-2.12,1.5v.03c0,.91.84,1.44,1.82,1.44,1.33,0,2.42-.81,2.42-1.96Z"/>
      <path class="cls-1" d="M123.27,32.51h1.08v1.89c.53-1.21,1.58-2.07,2.96-2.02v1.16h-.08c-1.58,0-2.87,1.13-2.87,3.32v2.89h-1.08v-7.24Z"/>
      <path class="cls-1" d="M129.32,37.83v-4.37h-1.01v-.95h1.01v-2.18h1.08v2.18h2.3v.95h-2.3v4.23c0,.88.49,1.21,1.22,1.21.36,0,.67-.07,1.05-.25v.92c-.38.2-.78.31-1.3.31-1.16,0-2.04-.57-2.04-2.04Z"/>
      <path class="cls-1" d="M134.62,29.73h1.23v1.19h-1.23v-1.19ZM134.69,32.51h1.08v7.24h-1.08v-7.24Z"/>
      <path class="cls-1" d="M137.83,36.16v-.03c0-2.04,1.6-3.78,3.71-3.78,1.37,0,2.23.57,2.9,1.29l-.71.76c-.57-.6-1.22-1.09-2.2-1.09-1.47,0-2.59,1.25-2.59,2.8v.03c0,1.57,1.15,2.82,2.66,2.82.92,0,1.64-.46,2.21-1.08l.69.64c-.73.81-1.6,1.4-2.96,1.4-2.12,0-3.71-1.72-3.71-3.75Z"/>
      <path class="cls-1" d="M146.3,29.73h1.23v1.19h-1.23v-1.19ZM146.37,32.51h1.08v7.24h-1.08v-7.24Z"/>
      <path class="cls-1" d="M149.95,32.51h1.08v1.46c.59-.87,1.44-1.61,2.77-1.61,1.74,0,3.46,1.37,3.46,3.75v.03c0,2.37-1.71,3.77-3.46,3.77-1.34,0-2.21-.73-2.77-1.54v3.63h-1.08v-9.48ZM156.16,36.15v-.03c0-1.71-1.18-2.8-2.55-2.8s-2.62,1.13-2.62,2.79v.03c0,1.68,1.27,2.8,2.62,2.8s2.55-1.04,2.55-2.79Z"/>
      <path class="cls-1" d="M158.7,37.65v-.03c0-1.53,1.26-2.34,3.1-2.34.92,0,1.58.13,2.23.31v-.25c0-1.3-.8-1.98-2.16-1.98-.85,0-1.53.22-2.2.53l-.32-.88c.8-.36,1.58-.6,2.63-.6s1.81.27,2.34.8c.49.49.74,1.19.74,2.12v4.43h-1.04v-1.09c-.5.66-1.34,1.25-2.62,1.25-1.34,0-2.7-.77-2.7-2.26ZM164.04,37.09v-.7c-.53-.15-1.25-.31-2.13-.31-1.36,0-2.12.59-2.12,1.5v.03c0,.91.84,1.44,1.82,1.44,1.33,0,2.42-.81,2.42-1.96Z"/>
      <path class="cls-1" d="M167.36,32.51h1.08v1.26c.48-.78,1.23-1.41,2.48-1.41,1.75,0,2.77,1.18,2.77,2.9v4.5h-1.08v-4.23c0-1.34-.73-2.18-2-2.18s-2.17.91-2.17,2.27v4.15h-1.08v-7.24Z"/>
      <path class="cls-1" d="M176.36,37.83v-4.37h-1.01v-.95h1.01v-2.18h1.08v2.18h2.3v.95h-2.3v4.23c0,.88.49,1.21,1.22,1.21.36,0,.67-.07,1.05-.25v.92c-.38.2-.78.31-1.3.31-1.16,0-2.04-.57-2.04-2.04Z"/>
      <path class="cls-1" d="M185.41,36.15v-.03c0-2.37,1.72-3.77,3.46-3.77,1.34,0,2.21.73,2.77,1.54v-4.37h1.08v10.23h-1.08v-1.46c-.59.87-1.44,1.61-2.77,1.61-1.74,0-3.46-1.37-3.46-3.75ZM191.69,36.14v-.03c0-1.67-1.27-2.79-2.62-2.79s-2.55,1.04-2.55,2.79v.03c0,1.71,1.18,2.8,2.55,2.8s2.62-1.13,2.62-2.8Z"/>
      <path class="cls-1" d="M194.58,37.65v-.03c0-1.53,1.26-2.34,3.1-2.34.92,0,1.58.13,2.23.31v-.25c0-1.3-.8-1.98-2.16-1.98-.85,0-1.53.22-2.2.53l-.32-.88c.8-.36,1.58-.6,2.63-.6s1.81.27,2.34.8c.49.49.74,1.19.74,2.12v4.43h-1.04v-1.09c-.5.66-1.34,1.25-2.62,1.25-1.34,0-2.7-.77-2.7-2.26ZM199.92,37.09v-.7c-.53-.15-1.25-.31-2.13-.31-1.36,0-2.12.59-2.12,1.5v.03c0,.91.84,1.44,1.82,1.44,1.33,0,2.42-.81,2.42-1.96Z"/>
      <path class="cls-1" d="M203.55,37.83v-4.37h-1.01v-.95h1.01v-2.18h1.08v2.18h2.3v.95h-2.3v4.23c0,.88.49,1.21,1.22,1.21.36,0,.67-.07,1.05-.25v.92c-.38.2-.78.31-1.3.31-1.16,0-2.04-.57-2.04-2.04Z"/>
      <path class="cls-1" d="M208.28,37.65v-.03c0-1.53,1.26-2.34,3.1-2.34.92,0,1.58.13,2.23.31v-.25c0-1.3-.8-1.98-2.16-1.98-.85,0-1.53.22-2.2.53l-.32-.88c.8-.36,1.58-.6,2.63-.6s1.81.27,2.34.8c.49.49.74,1.19.74,2.12v4.43h-1.04v-1.09c-.5.66-1.34,1.25-2.62,1.25-1.34,0-2.7-.77-2.7-2.26ZM213.61,37.09v-.7c-.53-.15-1.25-.31-2.13-.31-1.36,0-2.12.59-2.12,1.5v.03c0,.91.84,1.44,1.82,1.44,1.33,0,2.42-.81,2.42-1.96Z"/>
      <path class="cls-1" d="M221.54,33.46h-.99v-.94h.99v-.63c0-.83.22-1.46.63-1.86.36-.36.9-.56,1.55-.56.5,0,.84.06,1.19.18v.94c-.39-.11-.69-.18-1.05-.18-.84,0-1.26.5-1.26,1.54v.59h2.3v.92h-2.28v6.29h-1.08v-6.29Z"/>
      <path class="cls-1" d="M226.27,32.51h1.08v1.89c.53-1.21,1.58-2.07,2.96-2.02v1.16h-.08c-1.58,0-2.87,1.13-2.87,3.32v2.89h-1.08v-7.24Z"/>
      <path class="cls-1" d="M231.18,36.16v-.03c0-2.04,1.6-3.78,3.78-3.78s3.77,1.71,3.77,3.75v.03c0,2.04-1.61,3.78-3.8,3.78s-3.75-1.71-3.75-3.75ZM237.62,36.16v-.03c0-1.55-1.16-2.83-2.69-2.83s-2.65,1.27-2.65,2.8v.03c0,1.55,1.15,2.82,2.68,2.82s2.66-1.26,2.66-2.79Z"/>
      <path class="cls-1" d="M240.67,32.51h1.08v1.22c.48-.71,1.12-1.37,2.34-1.37s1.93.63,2.33,1.44c.52-.8,1.29-1.44,2.55-1.44,1.67,0,2.69,1.12,2.69,2.91v4.48h-1.08v-4.23c0-1.4-.7-2.18-1.88-2.18-1.09,0-2,.81-2,2.24v4.17h-1.06v-4.26c0-1.36-.71-2.16-1.86-2.16s-2.02.95-2.02,2.28v4.13h-1.08v-7.24Z"/>
      <path class="cls-1" d="M258.52,37.83v-4.37h-1.01v-.95h1.01v-2.18h1.08v2.18h2.3v.95h-2.3v4.23c0,.88.49,1.21,1.22,1.21.36,0,.67-.07,1.05-.25v.92c-.38.2-.78.31-1.3.31-1.16,0-2.04-.57-2.04-2.04Z"/>
      <path class="cls-1" d="M263.8,29.52h1.08v4.24c.48-.78,1.23-1.41,2.48-1.41,1.75,0,2.77,1.18,2.77,2.9v4.5h-1.08v-4.23c0-1.34-.73-2.18-2-2.18s-2.17.91-2.17,2.27v4.15h-1.08v-10.23Z"/>
      <path class="cls-1" d="M271.98,36.15v-.03c0-2.09,1.47-3.77,3.47-3.77,2.14,0,3.38,1.71,3.38,3.82,0,.14,0,.22-.01.35h-5.74c.15,1.57,1.26,2.45,2.55,2.45.99,0,1.69-.41,2.28-1.02l.67.6c-.73.81-1.61,1.36-2.98,1.36-1.99,0-3.61-1.53-3.61-3.77ZM277.73,35.73c-.11-1.32-.87-2.46-2.31-2.46-1.26,0-2.21,1.05-2.35,2.46h4.66Z"/>
      <path class="cls-1" d="M284.66,34.87v-.03c0-2.69,1.98-5.07,4.92-5.07,1.65,0,2.68.48,3.66,1.3l-.71.84c-.76-.66-1.6-1.12-2.98-1.12-2.17,0-3.73,1.83-3.73,4.02v.03c0,2.34,1.5,4.08,3.88,4.08,1.12,0,2.16-.43,2.83-.98v-2.44h-2.98v-1h4.05v3.91c-.91.81-2.28,1.5-3.94,1.5-3.08,0-4.99-2.24-4.99-5.04Z"/>
      <path class="cls-1" d="M296.07,29.94h7.09v1.01h-5.98v3.35h5.35v1.01h-5.35v3.43h6.05v1.01h-7.16v-9.81Z"/>
      <path class="cls-1" d="M305.45,29.94h1.12l3.57,5.35,3.57-5.35h1.12v9.81h-1.11v-7.94l-3.57,5.25h-.06l-3.57-5.24v7.93h-1.08v-9.81Z"/>
      <path class="cls-1" d="M317.7,29.94h1.11v9.81h-1.11v-9.81Z"/>
      <path class="cls-1" d="M321.68,29.94h1.04l6.18,7.86v-7.86h1.08v9.81h-.88l-6.33-8.04v8.04h-1.08v-9.81Z"/>
      <path class="cls-1" d="M332.83,29.94h1.11v9.81h-1.11v-9.81Z"/>
      <path class="cls-1" d="M340.29,38.89l3.56-3.14c1.5-1.34,2.04-2.1,2.04-3.08,0-1.15-.91-1.88-1.98-1.88-1.12,0-1.85.59-2.63,1.68l-.81-.59c.88-1.32,1.81-2.09,3.53-2.09s3.04,1.18,3.04,2.77v.03c0,1.43-.76,2.31-2.48,3.81l-2.62,2.33h5.2v1.01h-6.85v-.85Z"/>
      <path class="cls-1" d="M353.59,29.94h3.67c2.21,0,3.67,1.18,3.67,3.11v.03c0,2.12-1.76,3.21-3.85,3.21h-2.38v3.46h-1.11v-9.81ZM357.12,35.28c1.62,0,2.69-.87,2.69-2.16v-.03c0-1.4-1.05-2.13-2.63-2.13h-2.48v4.31h2.42Z"/>
      <path class="cls-1" d="M362.76,29.52h1.08v4.24c.48-.78,1.23-1.41,2.48-1.41,1.75,0,2.77,1.18,2.77,2.9v4.5h-1.08v-4.23c0-1.34-.73-2.18-2-2.18s-2.17.91-2.17,2.27v4.15h-1.08v-10.23Z"/>
      <path class="cls-1" d="M370.84,37.65v-.03c0-1.53,1.26-2.34,3.1-2.34.92,0,1.58.13,2.23.31v-.25c0-1.3-.8-1.98-2.16-1.98-.85,0-1.53.22-2.2.53l-.32-.88c.8-.36,1.58-.6,2.63-.6s1.81.27,2.34.8c.49.49.74,1.19.74,2.12v4.43h-1.04v-1.09c-.5.66-1.34,1.25-2.62,1.25-1.34,0-2.7-.77-2.7-2.26ZM376.18,37.09v-.7c-.53-.15-1.25-.31-2.13-.31-1.36,0-2.12.59-2.12,1.5v.03c0,.91.84,1.44,1.82,1.44,1.33,0,2.42-.81,2.42-1.96Z"/>
      <path class="cls-1" d="M378.89,38.82l.55-.77c.78.59,1.65.92,2.51.92s1.5-.45,1.5-1.15v-.03c0-.73-.85-1.01-1.81-1.27-1.13-.32-2.4-.71-2.4-2.04v-.03c0-1.25,1.04-2.07,2.47-2.07.88,0,1.86.31,2.61.8l-.49.81c-.67-.43-1.44-.7-2.14-.7-.85,0-1.4.45-1.4,1.05v.03c0,.69.9.95,1.86,1.25,1.12.34,2.33.77,2.33,2.07v.03c0,1.37-1.13,2.17-2.58,2.17-1.04,0-2.19-.41-3-1.06Z"/>
      <path class="cls-1" d="M386.02,36.15v-.03c0-2.09,1.47-3.77,3.47-3.77,2.14,0,3.38,1.71,3.38,3.82,0,.14,0,.22-.01.35h-5.74c.15,1.57,1.26,2.45,2.55,2.45.99,0,1.69-.41,2.28-1.02l.67.6c-.73.81-1.61,1.36-2.98,1.36-1.99,0-3.61-1.53-3.61-3.77ZM391.78,35.73c-.11-1.32-.87-2.46-2.31-2.46-1.26,0-2.21,1.05-2.35,2.46h4.66Z"/>
      <path class="cls-1" d="M399.23,29.94h1.11v9.81h-1.11v-9.81Z"/>
      <path class="cls-1" d="M403.31,29.94h1.11v9.81h-1.11v-9.81Z"/>
      <path class="cls-1" d="M407.38,29.94h1.11v9.81h-1.11v-9.81Z"/>
      <path class="cls-1" d="M414.93,36.16v-.03c0-2.04,1.6-3.78,3.71-3.78,1.37,0,2.23.57,2.9,1.29l-.71.76c-.57-.6-1.22-1.09-2.2-1.09-1.47,0-2.59,1.25-2.59,2.8v.03c0,1.57,1.15,2.82,2.66,2.82.92,0,1.64-.46,2.21-1.08l.69.64c-.73.81-1.6,1.4-2.96,1.4-2.11,0-3.71-1.72-3.71-3.75Z"/>
      <path class="cls-1" d="M423.47,29.52h1.08v10.23h-1.08v-10.23Z"/>
      <path class="cls-1" d="M427.08,29.73h1.23v1.19h-1.23v-1.19ZM427.15,32.51h1.08v7.24h-1.08v-7.24Z"/>
      <path class="cls-1" d="M430.73,32.51h1.08v1.26c.48-.78,1.23-1.41,2.48-1.41,1.75,0,2.77,1.18,2.77,2.9v4.5h-1.08v-4.23c0-1.34-.73-2.18-2-2.18s-2.17.91-2.17,2.27v4.15h-1.08v-7.24Z"/>
      <path class="cls-1" d="M439.38,29.73h1.23v1.19h-1.23v-1.19ZM439.45,32.51h1.08v7.24h-1.08v-7.24Z"/>
      <path class="cls-1" d="M442.59,36.16v-.03c0-2.04,1.6-3.78,3.71-3.78,1.37,0,2.23.57,2.9,1.29l-.71.76c-.57-.6-1.22-1.09-2.2-1.09-1.47,0-2.59,1.25-2.59,2.8v.03c0,1.57,1.15,2.82,2.66,2.82.92,0,1.64-.46,2.21-1.08l.69.64c-.73.81-1.6,1.4-2.96,1.4-2.11,0-3.71-1.72-3.71-3.75Z"/>
      <path class="cls-1" d="M450.49,37.65v-.03c0-1.53,1.26-2.34,3.1-2.34.92,0,1.58.13,2.23.31v-.25c0-1.3-.8-1.98-2.16-1.98-.85,0-1.53.22-2.2.53l-.32-.88c.8-.36,1.58-.6,2.63-.6s1.81.27,2.34.8c.49.49.74,1.19.74,2.12v4.43h-1.04v-1.09c-.5.66-1.34,1.25-2.62,1.25-1.34,0-2.7-.77-2.7-2.26ZM455.82,37.09v-.7c-.53-.15-1.25-.31-2.13-.31-1.36,0-2.12.59-2.12,1.5v.03c0,.91.84,1.44,1.82,1.44,1.33,0,2.42-.81,2.42-1.96Z"/>
      <path class="cls-1" d="M459.24,29.52h1.08v10.23h-1.08v-10.23Z"/>
      <path class="cls-1" d="M467.4,37.83v-4.37h-1.01v-.95h1.01v-2.18h1.08v2.18h2.3v.95h-2.3v4.23c0,.88.49,1.21,1.22,1.21.36,0,.67-.07,1.05-.25v.92c-.38.2-.78.31-1.3.31-1.16,0-2.04-.57-2.04-2.04Z"/>
      <path class="cls-1" d="M472.68,32.51h1.08v1.89c.53-1.21,1.58-2.07,2.96-2.02v1.16h-.08c-1.58,0-2.87,1.13-2.87,3.32v2.89h-1.08v-7.24Z"/>
      <path class="cls-1" d="M478.37,29.73h1.23v1.19h-1.23v-1.19ZM478.44,32.51h1.08v7.24h-1.08v-7.24Z"/>
      <path class="cls-1" d="M481.48,37.65v-.03c0-1.53,1.26-2.34,3.1-2.34.92,0,1.58.13,2.23.31v-.25c0-1.3-.8-1.98-2.16-1.98-.85,0-1.53.22-2.2.53l-.32-.88c.8-.36,1.58-.6,2.63-.6s1.81.27,2.34.8c.49.49.74,1.19.74,2.12v4.43h-1.04v-1.09c-.5.66-1.34,1.25-2.62,1.25-1.34,0-2.7-.77-2.7-2.26ZM486.82,37.09v-.7c-.53-.15-1.25-.31-2.13-.31-1.36,0-2.12.59-2.12,1.5v.03c0,.91.84,1.44,1.82,1.44,1.33,0,2.42-.81,2.42-1.96Z"/>
      <path class="cls-1" d="M490.23,29.52h1.08v10.23h-1.08v-10.23Z"/>
      <path class="cls-1" d="M497.4,32.51h1.15l1.91,5.81,1.95-5.84h.9l1.96,5.84,1.9-5.81h1.12l-2.55,7.3h-.94l-1.95-5.71-1.96,5.71h-.95l-2.54-7.3Z"/>
      <path class="cls-1" d="M509.27,36.15v-.03c0-2.09,1.47-3.77,3.47-3.77,2.14,0,3.38,1.71,3.38,3.82,0,.14,0,.22-.01.35h-5.74c.15,1.57,1.26,2.45,2.55,2.45.99,0,1.69-.41,2.28-1.02l.67.6c-.73.81-1.61,1.36-2.98,1.36-1.99,0-3.61-1.53-3.61-3.77ZM515.03,35.73c-.11-1.32-.87-2.46-2.31-2.46-1.26,0-2.21,1.05-2.35,2.46h4.66Z"/>
      <path class="cls-1" d="M518.01,32.51h1.08v1.89c.53-1.21,1.58-2.07,2.96-2.02v1.16h-.08c-1.58,0-2.87,1.13-2.87,3.32v2.89h-1.08v-7.24Z"/>
      <path class="cls-1" d="M522.92,36.15v-.03c0-2.09,1.47-3.77,3.47-3.77,2.14,0,3.38,1.71,3.38,3.82,0,.14,0,.22-.01.35h-5.74c.15,1.57,1.26,2.45,2.55,2.45.99,0,1.69-.41,2.28-1.02l.67.6c-.73.81-1.61,1.36-2.98,1.36-1.99,0-3.61-1.53-3.61-3.77ZM528.68,35.73c-.11-1.32-.87-2.46-2.31-2.46-1.26,0-2.21,1.05-2.35,2.46h4.66Z"/>
      <path class="cls-1" d="M34.28,53.81v-4.5h1.08v4.23c0,1.34.73,2.19,2,2.19s2.17-.91,2.17-2.27v-4.15h1.06v7.24h-1.06v-1.26c-.49.78-1.23,1.42-2.48,1.42-1.75,0-2.77-1.18-2.77-2.9Z"/>
      <path class="cls-1" d="M42.41,55.63l.55-.77c.78.59,1.65.92,2.51.92s1.5-.45,1.5-1.15v-.03c0-.73-.85-1.01-1.81-1.27-1.13-.32-2.4-.71-2.4-2.04v-.03c0-1.25,1.04-2.07,2.47-2.07.88,0,1.86.31,2.61.8l-.49.81c-.67-.43-1.44-.7-2.14-.7-.85,0-1.4.45-1.4,1.05v.03c0,.69.9.95,1.86,1.25,1.12.34,2.33.77,2.33,2.07v.03c0,1.37-1.13,2.17-2.58,2.17-1.04,0-2.19-.41-3-1.06Z"/>
      <path class="cls-1" d="M49.53,52.95v-.03c0-2.09,1.47-3.77,3.47-3.77,2.14,0,3.38,1.71,3.38,3.82,0,.14,0,.22-.01.35h-5.74c.15,1.57,1.26,2.45,2.55,2.45.99,0,1.69-.41,2.28-1.02l.67.6c-.73.81-1.61,1.36-2.98,1.36-1.99,0-3.61-1.53-3.61-3.77ZM55.29,52.53c-.11-1.32-.87-2.46-2.31-2.46-1.26,0-2.21,1.05-2.35,2.46h4.66Z"/>
      <path class="cls-1" d="M57.85,52.95v-.03c0-2.37,1.72-3.77,3.46-3.77,1.34,0,2.21.73,2.77,1.54v-4.37h1.08v10.23h-1.08v-1.46c-.59.87-1.44,1.61-2.77,1.61-1.74,0-3.46-1.37-3.46-3.75ZM64.13,52.94v-.03c0-1.67-1.27-2.79-2.62-2.79s-2.55,1.04-2.55,2.79v.03c0,1.71,1.18,2.8,2.55,2.8s2.62-1.13,2.62-2.8Z"/>
      <path class="cls-1" d="M71.79,46.53h1.23v1.19h-1.23v-1.19ZM71.86,49.31h1.08v7.24h-1.08v-7.24Z"/>
      <path class="cls-1" d="M75.45,49.31h1.08v1.26c.48-.78,1.23-1.41,2.48-1.41,1.75,0,2.77,1.18,2.77,2.9v4.5h-1.08v-4.23c0-1.34-.73-2.18-2-2.18s-2.17.91-2.17,2.27v4.15h-1.08v-7.24Z"/>
      <path class="cls-1" d="M87.82,52.96v-.03c0-2.04,1.6-3.78,3.71-3.78,1.37,0,2.23.57,2.9,1.29l-.71.76c-.57-.6-1.22-1.09-2.2-1.09-1.47,0-2.59,1.25-2.59,2.8v.03c0,1.57,1.15,2.82,2.66,2.82.92,0,1.64-.46,2.21-1.08l.69.64c-.73.81-1.6,1.4-2.96,1.4-2.11,0-3.71-1.72-3.71-3.75Z"/>
      <path class="cls-1" d="M95.61,52.96v-.03c0-2.04,1.6-3.78,3.78-3.78s3.77,1.71,3.77,3.75v.03c0,2.04-1.61,3.78-3.8,3.78s-3.75-1.71-3.75-3.75ZM102.05,52.96v-.03c0-1.55-1.16-2.83-2.69-2.83s-2.65,1.27-2.65,2.8v.03c0,1.55,1.15,2.82,2.68,2.82s2.66-1.26,2.66-2.79Z"/>
      <path class="cls-1" d="M105.1,49.31h1.08v1.22c.48-.71,1.12-1.37,2.34-1.37s1.93.63,2.33,1.44c.52-.8,1.29-1.44,2.55-1.44,1.67,0,2.69,1.12,2.69,2.91v4.48h-1.08v-4.23c0-1.4-.7-2.18-1.88-2.18-1.09,0-2,.81-2,2.24v4.17h-1.06v-4.26c0-1.36-.71-2.16-1.86-2.16s-2.02.95-2.02,2.28v4.13h-1.08v-7.24Z"/>
      <path class="cls-1" d="M119.45,55.16v1.39h-1.08v-10.23h1.08v4.44c.59-.87,1.44-1.61,2.77-1.61,1.74,0,3.46,1.37,3.46,3.75v.03c0,2.37-1.71,3.77-3.46,3.77-1.34,0-2.21-.73-2.77-1.54ZM124.58,52.95v-.03c0-1.71-1.18-2.8-2.55-2.8s-2.62,1.13-2.62,2.79v.03c0,1.68,1.27,2.8,2.62,2.8s2.55-1.04,2.55-2.79Z"/>
      <path class="cls-1" d="M127.7,46.53h1.23v1.19h-1.23v-1.19ZM127.77,49.31h1.08v7.24h-1.08v-7.24Z"/>
      <path class="cls-1" d="M131.35,49.31h1.08v1.26c.48-.78,1.23-1.41,2.48-1.41,1.75,0,2.77,1.18,2.77,2.9v4.5h-1.08v-4.23c0-1.34-.73-2.18-2-2.18s-2.17.91-2.17,2.27v4.15h-1.08v-7.24Z"/>
      <path class="cls-1" d="M139.43,54.45v-.03c0-1.53,1.26-2.34,3.1-2.34.92,0,1.58.13,2.23.31v-.25c0-1.3-.8-1.98-2.16-1.98-.85,0-1.53.22-2.2.53l-.32-.88c.8-.36,1.58-.6,2.63-.6s1.81.27,2.34.8c.49.49.74,1.19.74,2.12v4.43h-1.04v-1.09c-.5.66-1.34,1.25-2.62,1.25-1.34,0-2.7-.77-2.7-2.26ZM144.76,53.89v-.7c-.53-.15-1.25-.31-2.13-.31-1.36,0-2.12.59-2.12,1.5v.03c0,.91.84,1.44,1.82,1.44,1.33,0,2.42-.81,2.42-1.96Z"/>
      <path class="cls-1" d="M148.39,54.63v-4.37h-1.01v-.95h1.01v-2.18h1.08v2.18h2.3v.95h-2.3v4.23c0,.88.49,1.21,1.22,1.21.36,0,.67-.07,1.05-.25v.92c-.38.2-.78.31-1.3.31-1.16,0-2.04-.57-2.04-2.04Z"/>
      <path class="cls-1" d="M153.69,46.53h1.23v1.19h-1.23v-1.19ZM153.76,49.31h1.08v7.24h-1.08v-7.24Z"/>
      <path class="cls-1" d="M156.9,52.96v-.03c0-2.04,1.6-3.78,3.78-3.78s3.77,1.71,3.77,3.75v.03c0,2.04-1.61,3.78-3.8,3.78s-3.75-1.71-3.75-3.75ZM163.34,52.96v-.03c0-1.55-1.16-2.83-2.69-2.83s-2.65,1.27-2.65,2.8v.03c0,1.55,1.15,2.82,2.68,2.82s2.66-1.26,2.66-2.79Z"/>
      <path class="cls-1" d="M166.39,49.31h1.08v1.26c.48-.78,1.23-1.41,2.48-1.41,1.75,0,2.77,1.18,2.77,2.9v4.5h-1.08v-4.23c0-1.34-.73-2.18-2-2.18s-2.17.91-2.17,2.27v4.15h-1.08v-7.24Z"/>
      <path class="cls-1" d="M178.6,49.31h1.15l1.91,5.81,1.95-5.84h.9l1.96,5.84,1.9-5.81h1.12l-2.55,7.3h-.94l-1.95-5.71-1.96,5.71h-.95l-2.54-7.3Z"/>
      <path class="cls-1" d="M191.3,46.53h1.23v1.19h-1.23v-1.19ZM191.37,49.31h1.08v7.24h-1.08v-7.24Z"/>
      <path class="cls-1" d="M195.33,54.63v-4.37h-1.01v-.95h1.01v-2.18h1.08v2.18h2.3v.95h-2.3v4.23c0,.88.49,1.21,1.22,1.21.36,0,.67-.07,1.05-.25v.92c-.38.2-.78.31-1.3.31-1.16,0-2.04-.57-2.04-2.04Z"/>
      <path class="cls-1" d="M200.61,46.32h1.08v4.24c.48-.78,1.23-1.41,2.48-1.41,1.75,0,2.77,1.18,2.77,2.9v4.5h-1.08v-4.23c0-1.34-.73-2.18-2-2.18s-2.17.91-2.17,2.27v4.15h-1.08v-10.23Z"/>
      <path class="cls-1" d="M212.98,52.96v-.03c0-2.04,1.6-3.78,3.78-3.78s3.77,1.71,3.77,3.75v.03c0,2.04-1.61,3.78-3.8,3.78s-3.75-1.71-3.75-3.75ZM219.42,52.96v-.03c0-1.55-1.16-2.83-2.69-2.83s-2.65,1.27-2.65,2.8v.03c0,1.55,1.15,2.82,2.68,2.82s2.66-1.26,2.66-2.79Z"/>
      <path class="cls-1" d="M223.55,55.16v1.39h-1.08v-10.23h1.08v4.44c.59-.87,1.44-1.61,2.77-1.61,1.74,0,3.46,1.37,3.46,3.75v.03c0,2.37-1.71,3.77-3.46,3.77-1.34,0-2.21-.73-2.77-1.54ZM228.68,52.95v-.03c0-1.71-1.18-2.8-2.55-2.8s-2.62,1.13-2.62,2.79v.03c0,1.68,1.27,2.8,2.62,2.8s2.55-1.04,2.55-2.79Z"/>
      <path class="cls-1" d="M231.17,55.63l.55-.77c.78.59,1.65.92,2.51.92s1.5-.45,1.5-1.15v-.03c0-.73-.85-1.01-1.81-1.27-1.13-.32-2.4-.71-2.4-2.04v-.03c0-1.25,1.04-2.07,2.47-2.07.88,0,1.86.31,2.61.8l-.49.81c-.67-.43-1.44-.7-2.14-.7-.85,0-1.4.45-1.4,1.05v.03c0,.69.9.95,1.86,1.25,1.12.34,2.33.77,2.33,2.07v.03c0,1.37-1.13,2.17-2.58,2.17-1.04,0-2.19-.41-3-1.06Z"/>
      <path class="cls-1" d="M238.29,52.95v-.03c0-2.09,1.47-3.77,3.47-3.77,2.14,0,3.38,1.71,3.38,3.82,0,.14,0,.22-.01.35h-5.74c.15,1.57,1.26,2.45,2.55,2.45.99,0,1.69-.41,2.28-1.02l.67.6c-.73.81-1.61,1.36-2.98,1.36-1.99,0-3.61-1.53-3.61-3.77ZM244.05,52.53c-.11-1.32-.87-2.46-2.31-2.46-1.26,0-2.21,1.05-2.35,2.46h4.66Z"/>
      <path class="cls-1" d="M247.03,49.31h1.08v1.89c.53-1.21,1.58-2.07,2.96-2.02v1.16h-.08c-1.58,0-2.87,1.13-2.87,3.32v2.89h-1.08v-7.24Z"/>
      <path class="cls-1" d="M251.98,49.31h1.19l2.44,6.01,2.45-6.01h1.16l-3.15,7.3h-.95l-3.14-7.3Z"/>
      <path class="cls-1" d="M260.02,54.45v-.03c0-1.53,1.26-2.34,3.1-2.34.92,0,1.58.13,2.23.31v-.25c0-1.3-.8-1.98-2.16-1.98-.85,0-1.53.22-2.2.53l-.32-.88c.8-.36,1.58-.6,2.63-.6s1.81.27,2.34.8c.49.49.74,1.19.74,2.12v4.43h-1.04v-1.09c-.5.66-1.34,1.25-2.62,1.25-1.34,0-2.7-.77-2.7-2.26ZM265.36,53.89v-.7c-.53-.15-1.25-.31-2.13-.31-1.36,0-2.12.59-2.12,1.5v.03c0,.91.84,1.44,1.82,1.44,1.33,0,2.42-.81,2.42-1.96Z"/>
      <path class="cls-1" d="M268.98,54.63v-4.37h-1.01v-.95h1.01v-2.18h1.08v2.18h2.3v.95h-2.3v4.23c0,.88.49,1.21,1.22,1.21.36,0,.67-.07,1.05-.25v.92c-.38.2-.78.31-1.3.31-1.16,0-2.04-.57-2.04-2.04Z"/>
      <path class="cls-1" d="M274.29,46.53h1.23v1.19h-1.23v-1.19ZM274.36,49.31h1.08v7.24h-1.08v-7.24Z"/>
      <path class="cls-1" d="M277.49,52.96v-.03c0-2.04,1.6-3.78,3.78-3.78s3.77,1.71,3.77,3.75v.03c0,2.04-1.61,3.78-3.8,3.78s-3.75-1.71-3.75-3.75ZM283.94,52.96v-.03c0-1.55-1.16-2.83-2.69-2.83s-2.65,1.27-2.65,2.8v.03c0,1.55,1.15,2.82,2.68,2.82s2.66-1.26,2.66-2.79Z"/>
      <path class="cls-1" d="M286.98,49.31h1.08v1.26c.48-.78,1.23-1.41,2.48-1.41,1.75,0,2.77,1.18,2.77,2.9v4.5h-1.08v-4.23c0-1.34-.73-2.18-2-2.18s-2.17.91-2.17,2.27v4.15h-1.08v-7.24Z"/>
      <path class="cls-1" d="M295.06,54.45v-.03c0-1.53,1.26-2.34,3.1-2.34.92,0,1.58.13,2.23.31v-.25c0-1.3-.8-1.98-2.16-1.98-.85,0-1.53.22-2.2.53l-.32-.88c.8-.36,1.58-.6,2.63-.6s1.81.27,2.34.8c.49.49.74,1.19.74,2.12v4.43h-1.04v-1.09c-.5.66-1.34,1.25-2.62,1.25-1.34,0-2.7-.77-2.7-2.26ZM300.4,53.89v-.7c-.53-.15-1.25-.31-2.13-.31-1.36,0-2.12.59-2.12,1.5v.03c0,.91.84,1.44,1.82,1.44,1.33,0,2.42-.81,2.42-1.96Z"/>
      <path class="cls-1" d="M303.81,46.32h1.08v10.23h-1.08v-10.23Z"/>
      <path class="cls-1" d="M311.15,52.96v-.03c0-2.04,1.6-3.78,3.71-3.78,1.37,0,2.23.57,2.9,1.29l-.71.76c-.57-.6-1.22-1.09-2.2-1.09-1.47,0-2.59,1.25-2.59,2.8v.03c0,1.57,1.15,2.82,2.66,2.82.92,0,1.64-.46,2.21-1.08l.69.64c-.73.81-1.6,1.4-2.96,1.4-2.12,0-3.71-1.72-3.71-3.75Z"/>
      <path class="cls-1" d="M318.93,52.96v-.03c0-2.04,1.6-3.78,3.78-3.78s3.77,1.71,3.77,3.75v.03c0,2.04-1.61,3.78-3.8,3.78s-3.75-1.71-3.75-3.75ZM325.37,52.96v-.03c0-1.55-1.16-2.83-2.69-2.83s-2.65,1.27-2.65,2.8v.03c0,1.55,1.15,2.82,2.68,2.82s2.66-1.26,2.66-2.79Z"/>
      <path class="cls-1" d="M328.42,46.32h1.08v4.24c.48-.78,1.23-1.41,2.48-1.41,1.75,0,2.77,1.18,2.77,2.9v4.5h-1.08v-4.23c0-1.34-.73-2.18-2-2.18s-2.17.91-2.17,2.27v4.15h-1.08v-10.23Z"/>
      <path class="cls-1" d="M336.6,52.96v-.03c0-2.04,1.6-3.78,3.78-3.78s3.77,1.71,3.77,3.75v.03c0,2.04-1.61,3.78-3.8,3.78s-3.75-1.71-3.75-3.75ZM343.04,52.96v-.03c0-1.55-1.16-2.83-2.69-2.83s-2.65,1.27-2.65,2.8v.03c0,1.55,1.15,2.82,2.68,2.82s2.66-1.26,2.66-2.79Z"/>
      <path class="cls-1" d="M346.09,49.31h1.08v1.89c.53-1.21,1.58-2.07,2.96-2.02v1.16h-.08c-1.58,0-2.87,1.13-2.87,3.32v2.89h-1.08v-7.24Z"/>
      <path class="cls-1" d="M352.14,54.63v-4.37h-1.01v-.95h1.01v-2.18h1.08v2.18h2.3v.95h-2.3v4.23c0,.88.49,1.21,1.22,1.21.36,0,.67-.07,1.05-.25v.92c-.38.2-.78.31-1.3.31-1.16,0-2.04-.57-2.04-2.04Z"/>
      <path class="cls-1" d="M361.2,52.95v-.03c0-2.37,1.72-3.77,3.46-3.77,1.34,0,2.21.73,2.77,1.54v-4.37h1.08v10.23h-1.08v-1.46c-.59.87-1.44,1.61-2.77,1.61-1.74,0-3.46-1.37-3.46-3.75ZM367.47,52.94v-.03c0-1.67-1.27-2.79-2.62-2.79s-2.55,1.04-2.55,2.79v.03c0,1.71,1.18,2.8,2.55,2.8s2.62-1.13,2.62-2.8Z"/>
      <path class="cls-1" d="M370.37,54.45v-.03c0-1.53,1.26-2.34,3.1-2.34.92,0,1.58.13,2.23.31v-.25c0-1.3-.8-1.98-2.16-1.98-.85,0-1.53.22-2.2.53l-.32-.88c.8-.36,1.58-.6,2.63-.6s1.81.27,2.34.8c.49.49.74,1.19.74,2.12v4.43h-1.04v-1.09c-.5.66-1.34,1.25-2.62,1.25-1.34,0-2.7-.77-2.7-2.26ZM375.7,53.89v-.7c-.53-.15-1.25-.31-2.13-.31-1.36,0-2.12.59-2.12,1.5v.03c0,.91.84,1.44,1.82,1.44,1.33,0,2.42-.81,2.42-1.96Z"/>
      <path class="cls-1" d="M379.33,54.63v-4.37h-1.01v-.95h1.01v-2.18h1.08v2.18h2.3v.95h-2.3v4.23c0,.88.49,1.21,1.22,1.21.36,0,.67-.07,1.05-.25v.92c-.38.2-.78.31-1.3.31-1.16,0-2.04-.57-2.04-2.04Z"/>
      <path class="cls-1" d="M384.06,54.45v-.03c0-1.53,1.26-2.34,3.1-2.34.92,0,1.58.13,2.23.31v-.25c0-1.3-.8-1.98-2.16-1.98-.85,0-1.53.22-2.2.53l-.32-.88c.8-.36,1.58-.6,2.63-.6s1.81.27,2.34.8c.49.49.74,1.19.74,2.12v4.43h-1.04v-1.09c-.5.66-1.34,1.25-2.62,1.25-1.34,0-2.7-.77-2.7-2.26ZM389.4,53.89v-.7c-.53-.15-1.25-.31-2.13-.31-1.36,0-2.12.59-2.12,1.5v.03c0,.91.84,1.44,1.82,1.44,1.33,0,2.42-.81,2.42-1.96Z"/>
      <path class="cls-1" d="M397.32,50.26h-.99v-.94h.99v-.63c0-.83.22-1.46.63-1.86.36-.36.9-.56,1.55-.56.5,0,.84.06,1.19.18v.94c-.39-.11-.69-.18-1.05-.18-.84,0-1.26.5-1.26,1.54v.59h2.3v.92h-2.28v6.29h-1.08v-6.29Z"/>
      <path class="cls-1" d="M402.05,49.31h1.08v1.89c.53-1.21,1.58-2.07,2.96-2.02v1.16h-.08c-1.58,0-2.87,1.13-2.87,3.32v2.89h-1.08v-7.24Z"/>
      <path class="cls-1" d="M406.96,52.96v-.03c0-2.04,1.6-3.78,3.78-3.78s3.77,1.71,3.77,3.75v.03c0,2.04-1.61,3.78-3.8,3.78s-3.75-1.71-3.75-3.75ZM413.41,52.96v-.03c0-1.55-1.16-2.83-2.69-2.83s-2.65,1.27-2.65,2.8v.03c0,1.55,1.15,2.82,2.68,2.82s2.66-1.26,2.66-2.79Z"/>
      <path class="cls-1" d="M416.45,49.31h1.08v1.22c.48-.71,1.12-1.37,2.34-1.37s1.93.63,2.33,1.44c.52-.8,1.29-1.44,2.55-1.44,1.67,0,2.69,1.12,2.69,2.91v4.48h-1.08v-4.23c0-1.4-.7-2.18-1.88-2.18-1.09,0-2,.81-2,2.24v4.17h-1.06v-4.26c0-1.36-.71-2.16-1.86-2.16s-2.02.95-2.02,2.28v4.13h-1.08v-7.24Z"/>
      <path class="cls-1" d="M434.3,54.63v-4.37h-1.01v-.95h1.01v-2.18h1.08v2.18h2.3v.95h-2.3v4.23c0,.88.49,1.21,1.22,1.21.36,0,.67-.07,1.05-.25v.92c-.38.2-.78.31-1.3.31-1.16,0-2.04-.57-2.04-2.04Z"/>
      <path class="cls-1" d="M439.58,46.32h1.08v4.24c.48-.78,1.23-1.41,2.48-1.41,1.75,0,2.77,1.18,2.77,2.9v4.5h-1.08v-4.23c0-1.34-.73-2.18-2-2.18s-2.17.91-2.17,2.27v4.15h-1.08v-10.23Z"/>
      <path class="cls-1" d="M447.76,52.95v-.03c0-2.09,1.47-3.77,3.47-3.77,2.14,0,3.38,1.71,3.38,3.82,0,.14,0,.22-.01.35h-5.74c.15,1.57,1.26,2.45,2.55,2.45.99,0,1.69-.41,2.28-1.02l.67.6c-.73.81-1.61,1.36-2.98,1.36-1.99,0-3.61-1.53-3.61-3.77ZM453.52,52.53c-.11-1.32-.87-2.46-2.31-2.46-1.26,0-2.21,1.05-2.35,2.46h4.66Z"/>
      <path class="cls-1" d="M460.04,46.74h1.23l3.49,8.45,3.5-8.45h1.19l-4.22,9.88h-.98l-4.22-9.88Z"/>
      <path class="cls-1" d="M471.47,46.74h1.11v9.81h-1.11v-9.81Z"/>
      <path class="cls-1" d="M475.02,51.68v-.03c0-2.77,2.07-5.07,4.96-5.07,1.78,0,2.84.63,3.82,1.55l-.76.81c-.83-.78-1.75-1.34-3.08-1.34-2.17,0-3.8,1.77-3.8,4.02v.03c0,2.27,1.64,4.05,3.8,4.05,1.34,0,2.23-.52,3.17-1.42l.73.71c-1.02,1.04-2.14,1.72-3.92,1.72-2.83,0-4.92-2.23-4.92-5.04Z"/>
      <path class="cls-1" d="M488.39,47.77h-3.31v-1.02h7.72v1.02h-3.31v8.78h-1.11v-8.78Z"/>
      <path class="cls-1" d="M493.75,51.68v-.03c0-2.7,2.03-5.07,5.01-5.07s4.99,2.34,4.99,5.04v.03c0,2.7-2.03,5.07-5.02,5.07s-4.99-2.34-4.99-5.04ZM502.6,51.68v-.03c0-2.23-1.62-4.05-3.87-4.05s-3.84,1.79-3.84,4.02v.03c0,2.23,1.62,4.05,3.87,4.05s3.84-1.79,3.84-4.02Z"/>
      <path class="cls-1" d="M506.08,46.74h4.22c1.2,0,2.17.36,2.79.98.48.48.76,1.16.76,1.93v.03c0,1.62-1.12,2.58-2.66,2.86l3.01,4.01h-1.36l-2.84-3.81h-2.8v3.81h-1.11v-9.81ZM510.2,51.75c1.47,0,2.52-.76,2.52-2.02v-.03c0-1.21-.92-1.93-2.51-1.93h-3.03v3.98h3.01Z"/>
      <path class="cls-1" d="M518.92,52.67l-4.08-5.93h1.34l3.31,4.9,3.33-4.9h1.29l-4.08,5.91v3.89h-1.12v-3.88Z"/>
      <path class="cls-1" d="M33.94,69.76v-.03c0-2.04,1.6-3.78,3.71-3.78,1.37,0,2.23.58,2.9,1.29l-.71.76c-.57-.6-1.22-1.09-2.2-1.09-1.47,0-2.59,1.25-2.59,2.8v.03c0,1.57,1.15,2.82,2.66,2.82.92,0,1.64-.46,2.21-1.08l.69.64c-.73.81-1.6,1.4-2.96,1.4-2.11,0-3.71-1.72-3.71-3.75Z"/>
      <path class="cls-1" d="M41.72,69.76v-.03c0-2.04,1.6-3.78,3.78-3.78s3.77,1.71,3.77,3.75v.03c0,2.05-1.61,3.78-3.8,3.78s-3.75-1.71-3.75-3.75ZM48.17,69.76v-.03c0-1.55-1.16-2.83-2.69-2.83s-2.65,1.27-2.65,2.8v.03c0,1.55,1.15,2.82,2.68,2.82s2.66-1.26,2.66-2.79Z"/>
      <path class="cls-1" d="M51.22,66.11h1.08v1.26c.48-.78,1.23-1.42,2.48-1.42,1.75,0,2.77,1.18,2.77,2.9v4.5h-1.08v-4.23c0-1.34-.73-2.18-2-2.18s-2.17.91-2.17,2.27v4.15h-1.08v-7.24Z"/>
      <path class="cls-1" d="M59.24,72.43l.55-.77c.78.59,1.65.92,2.51.92s1.5-.45,1.5-1.15v-.03c0-.73-.85-1.01-1.81-1.27-1.13-.32-2.4-.71-2.4-2.04v-.03c0-1.25,1.04-2.07,2.47-2.07.88,0,1.86.31,2.61.8l-.49.81c-.67-.43-1.44-.7-2.14-.7-.85,0-1.4.45-1.4,1.05v.03c0,.69.9.95,1.86,1.25,1.12.34,2.33.77,2.33,2.07v.03c0,1.37-1.13,2.17-2.58,2.17-1.04,0-2.19-.41-3-1.06Z"/>
      <path class="cls-1" d="M66.36,69.76v-.03c0-2.04,1.6-3.78,3.78-3.78s3.77,1.71,3.77,3.75v.03c0,2.05-1.61,3.78-3.8,3.78s-3.75-1.71-3.75-3.75ZM72.81,69.76v-.03c0-1.55-1.16-2.83-2.69-2.83s-2.65,1.27-2.65,2.8v.03c0,1.55,1.15,2.82,2.68,2.82s2.66-1.26,2.66-2.79Z"/>
      <path class="cls-1" d="M75.85,66.11h1.08v1.89c.53-1.21,1.58-2.07,2.96-2.02v1.16h-.08c-1.58,0-2.87,1.13-2.87,3.32v2.89h-1.08v-7.24Z"/>
      <path class="cls-1" d="M81.9,71.43v-4.37h-1.01v-.95h1.01v-2.18h1.08v2.18h2.3v.95h-2.3v4.23c0,.88.49,1.21,1.22,1.21.36,0,.67-.07,1.05-.25v.92c-.38.2-.78.31-1.3.31-1.16,0-2.04-.57-2.04-2.04Z"/>
      <path class="cls-1" d="M87.21,63.33h1.23v1.19h-1.23v-1.19ZM87.28,66.11h1.08v7.24h-1.08v-7.24Z"/>
      <path class="cls-1" d="M90.75,70.6v-4.5h1.08v4.23c0,1.34.73,2.19,2,2.19s2.17-.91,2.17-2.27v-4.15h1.06v7.24h-1.06v-1.26c-.49.78-1.23,1.42-2.48,1.42-1.75,0-2.77-1.18-2.77-2.9Z"/>
      <path class="cls-1" d="M99.49,66.11h1.08v1.22c.48-.71,1.12-1.37,2.34-1.37s1.93.63,2.33,1.44c.52-.8,1.29-1.44,2.55-1.44,1.67,0,2.69,1.12,2.69,2.91v4.48h-1.08v-4.23c0-1.4-.7-2.18-1.88-2.18-1.09,0-2,.81-2,2.24v4.17h-1.06v-4.26c0-1.36-.71-2.16-1.86-2.16s-2.02.95-2.02,2.28v4.13h-1.08v-7.24Z"/>
      <path class="cls-1" d="M116.41,71.25v-.03c0-1.53,1.26-2.34,3.1-2.34.92,0,1.58.13,2.23.31v-.25c0-1.3-.8-1.98-2.16-1.98-.85,0-1.53.22-2.2.53l-.32-.88c.8-.36,1.58-.6,2.63-.6s1.81.27,2.34.8c.49.49.74,1.19.74,2.12v4.43h-1.04v-1.09c-.5.66-1.34,1.25-2.62,1.25-1.34,0-2.7-.77-2.7-2.26ZM121.75,70.69v-.7c-.53-.15-1.25-.31-2.13-.31-1.36,0-2.12.59-2.12,1.5v.03c0,.91.84,1.44,1.82,1.44,1.33,0,2.42-.81,2.42-1.96Z"/>
      <path class="cls-1" d="M125.06,66.11h1.08v1.26c.48-.78,1.23-1.42,2.48-1.42,1.75,0,2.77,1.18,2.77,2.9v4.5h-1.08v-4.23c0-1.34-.73-2.18-2-2.18s-2.17.91-2.17,2.27v4.15h-1.08v-7.24Z"/>
      <path class="cls-1" d="M133.27,69.75v-.03c0-2.37,1.72-3.77,3.46-3.77,1.34,0,2.21.73,2.77,1.54v-4.37h1.08v10.23h-1.08v-1.46c-.59.87-1.44,1.61-2.77,1.61-1.74,0-3.46-1.37-3.46-3.75ZM139.54,69.74v-.03c0-1.67-1.27-2.79-2.62-2.79s-2.55,1.04-2.55,2.79v.03c0,1.71,1.18,2.8,2.55,2.8s2.62-1.13,2.62-2.8Z"/>
      <path class="cls-1" d="M146.93,68.48v-.03c0-2.69,1.98-5.07,4.92-5.07,1.65,0,2.68.48,3.66,1.3l-.71.84c-.76-.66-1.6-1.12-2.98-1.12-2.17,0-3.73,1.83-3.73,4.02v.03c0,2.34,1.5,4.08,3.88,4.08,1.12,0,2.16-.43,2.83-.98v-2.44h-2.98v-1h4.05v3.91c-.91.81-2.28,1.5-3.94,1.5-3.08,0-4.99-2.24-4.99-5.04Z"/>
      <path class="cls-1" d="M158.34,63.54h7.09v1.01h-5.98v3.35h5.35v1.01h-5.35v3.43h6.05v1.01h-7.16v-9.81Z"/>
      <path class="cls-1" d="M170.21,64.57h-3.31v-1.02h7.72v1.02h-3.31v8.78h-1.11v-8.78Z"/>
      <path class="cls-1" d="M179.06,63.48h1.04l4.47,9.88h-1.19l-1.15-2.59h-5.34l-1.16,2.59h-1.13l4.47-9.88ZM181.79,69.76l-2.23-5-2.24,5h4.47Z"/>
      <path class="cls-1" d="M186.59,63.54h1.11v9.81h-1.11v-9.81Z"/>
      <path class="cls-1" d="M190.57,63.54h3.4c3.08,0,5.21,2.12,5.21,4.88v.03c0,2.76-2.13,4.9-5.21,4.9h-3.4v-9.81ZM191.68,64.57v7.76h2.3c2.48,0,4.06-1.68,4.06-3.85v-.03c0-2.17-1.58-3.88-4.06-3.88h-2.3Z"/>
      <path class="cls-1" d="M205.09,69.76v-.03c0-2.04,1.6-3.78,3.71-3.78,1.37,0,2.23.58,2.9,1.29l-.71.76c-.57-.6-1.22-1.09-2.2-1.09-1.47,0-2.59,1.25-2.59,2.8v.03c0,1.57,1.15,2.82,2.66,2.82.92,0,1.64-.46,2.21-1.08l.69.64c-.73.81-1.6,1.4-2.96,1.4-2.11,0-3.71-1.72-3.71-3.75Z"/>
      <path class="cls-1" d="M212.87,69.76v-.03c0-2.04,1.6-3.78,3.78-3.78s3.77,1.71,3.77,3.75v.03c0,2.05-1.61,3.78-3.8,3.78s-3.75-1.71-3.75-3.75ZM219.31,69.76v-.03c0-1.55-1.16-2.83-2.69-2.83s-2.65,1.27-2.65,2.8v.03c0,1.55,1.15,2.82,2.68,2.82s2.66-1.26,2.66-2.79Z"/>
      <path class="cls-1" d="M222.46,63.12h1.08v10.23h-1.08v-10.23Z"/>
      <path class="cls-1" d="M226.14,63.12h1.08v10.23h-1.08v-10.23Z"/>
      <path class="cls-1" d="M229.18,71.25v-.03c0-1.53,1.26-2.34,3.1-2.34.92,0,1.58.13,2.23.31v-.25c0-1.3-.8-1.98-2.16-1.98-.85,0-1.53.22-2.2.53l-.32-.88c.8-.36,1.58-.6,2.63-.6s1.81.27,2.34.8c.49.49.74,1.19.74,2.12v4.43h-1.04v-1.09c-.5.66-1.34,1.25-2.62,1.25-1.34,0-2.7-.77-2.7-2.26ZM234.52,70.69v-.7c-.53-.15-1.25-.31-2.13-.31-1.36,0-2.12.59-2.12,1.5v.03c0,.91.84,1.44,1.82,1.44,1.33,0,2.42-.81,2.42-1.96Z"/>
      <path class="cls-1" d="M238.91,71.96v1.39h-1.08v-10.23h1.08v4.44c.59-.87,1.44-1.61,2.77-1.61,1.74,0,3.46,1.37,3.46,3.75v.03c0,2.37-1.71,3.77-3.46,3.77-1.34,0-2.21-.73-2.77-1.54ZM244.04,69.75v-.03c0-1.71-1.18-2.8-2.55-2.8s-2.62,1.13-2.62,2.79v.03c0,1.68,1.27,2.8,2.62,2.8s2.55-1.04,2.55-2.79Z"/>
      <path class="cls-1" d="M246.68,69.76v-.03c0-2.04,1.6-3.78,3.78-3.78s3.77,1.71,3.77,3.75v.03c0,2.05-1.61,3.78-3.8,3.78s-3.75-1.71-3.75-3.75ZM253.12,69.76v-.03c0-1.55-1.16-2.83-2.69-2.83s-2.65,1.27-2.65,2.8v.03c0,1.55,1.15,2.82,2.68,2.82s2.66-1.26,2.66-2.79Z"/>
      <path class="cls-1" d="M256.17,66.11h1.08v1.89c.53-1.21,1.58-2.07,2.96-2.02v1.16h-.08c-1.58,0-2.87,1.13-2.87,3.32v2.89h-1.08v-7.24Z"/>
      <path class="cls-1" d="M260.95,71.25v-.03c0-1.53,1.26-2.34,3.1-2.34.92,0,1.58.13,2.23.31v-.25c0-1.3-.8-1.98-2.16-1.98-.85,0-1.53.22-2.2.53l-.32-.88c.8-.36,1.58-.6,2.63-.6s1.81.27,2.34.8c.49.49.74,1.19.74,2.12v4.43h-1.04v-1.09c-.5.66-1.34,1.25-2.62,1.25-1.34,0-2.7-.77-2.7-2.26ZM266.28,70.69v-.7c-.53-.15-1.25-.31-2.13-.31-1.36,0-2.12.59-2.12,1.5v.03c0,.91.84,1.44,1.82,1.44,1.33,0,2.42-.81,2.42-1.96Z"/>
      <path class="cls-1" d="M269.91,71.43v-4.37h-1.01v-.95h1.01v-2.18h1.08v2.18h2.3v.95h-2.3v4.23c0,.88.49,1.21,1.22,1.21.36,0,.67-.07,1.05-.25v.92c-.38.2-.78.31-1.3.31-1.16,0-2.04-.57-2.04-2.04Z"/>
      <path class="cls-1" d="M275.21,63.33h1.23v1.19h-1.23v-1.19ZM275.28,66.11h1.08v7.24h-1.08v-7.24Z"/>
      <path class="cls-1" d="M278.42,69.76v-.03c0-2.04,1.6-3.78,3.78-3.78s3.77,1.71,3.77,3.75v.03c0,2.05-1.61,3.78-3.8,3.78s-3.75-1.71-3.75-3.75ZM284.86,69.76v-.03c0-1.55-1.16-2.83-2.69-2.83s-2.65,1.27-2.65,2.8v.03c0,1.55,1.15,2.82,2.68,2.82s2.66-1.26,2.66-2.79Z"/>
      <path class="cls-1" d="M287.91,66.11h1.08v1.26c.48-.78,1.23-1.42,2.48-1.42,1.75,0,2.77,1.18,2.77,2.9v4.5h-1.08v-4.23c0-1.34-.73-2.18-2-2.18s-2.17.91-2.17,2.27v4.15h-1.08v-7.24Z"/>
      <path class="cls-1" d="M16.7,85.23v-.03c0-1.01.85-1.82,1.83-1.82s1.83.81,1.83,1.82v.03c0,1.01-.83,1.82-1.83,1.82s-1.83-.81-1.83-1.82Z"/>
      <path class="cls-1" d="M38.2,80.27h1.04l4.47,9.88h-1.19l-1.15-2.59h-5.34l-1.16,2.59h-1.13l4.47-9.88ZM40.93,86.56l-2.23-5-2.24,5h4.47Z"/>
      <path class="cls-1" d="M50.03,88.23v-4.37h-1.01v-.95h1.01v-2.18h1.08v2.18h2.3v.95h-2.3v4.23c0,.88.49,1.21,1.22,1.21.36,0,.67-.07,1.05-.25v.92c-.38.2-.78.31-1.3.31-1.16,0-2.04-.57-2.04-2.04Z"/>
      <path class="cls-1" d="M55.3,82.91h1.08v1.89c.53-1.21,1.58-2.07,2.96-2.02v1.16h-.08c-1.58,0-2.87,1.13-2.87,3.32v2.89h-1.08v-7.24Z"/>
      <path class="cls-1" d="M60.22,86.55v-.03c0-2.09,1.47-3.77,3.47-3.77,2.14,0,3.38,1.71,3.38,3.82,0,.14,0,.22-.01.35h-5.74c.15,1.57,1.26,2.45,2.55,2.45.99,0,1.69-.41,2.28-1.02l.67.6c-.73.81-1.61,1.36-2.98,1.36-1.99,0-3.61-1.53-3.61-3.77ZM65.97,86.13c-.11-1.32-.87-2.46-2.31-2.46-1.26,0-2.21,1.05-2.35,2.46h4.66Z"/>
      <path class="cls-1" d="M68.41,88.05v-.03c0-1.53,1.26-2.34,3.1-2.34.92,0,1.58.13,2.23.31v-.25c0-1.3-.8-1.98-2.16-1.98-.85,0-1.53.22-2.2.53l-.32-.88c.8-.36,1.58-.6,2.63-.6s1.81.27,2.34.8c.49.49.74,1.19.74,2.12v4.43h-1.04v-1.09c-.5.66-1.34,1.25-2.62,1.25-1.34,0-2.7-.77-2.7-2.26ZM73.74,87.49v-.7c-.53-.15-1.25-.31-2.13-.31-1.36,0-2.12.59-2.12,1.5v.03c0,.91.84,1.44,1.82,1.44,1.33,0,2.42-.81,2.42-1.96Z"/>
      <path class="cls-1" d="M77.37,88.23v-4.37h-1.01v-.95h1.01v-2.18h1.08v2.18h2.3v.95h-2.3v4.23c0,.88.49,1.21,1.22,1.21.36,0,.67-.07,1.05-.25v.92c-.38.2-.78.31-1.3.31-1.16,0-2.04-.57-2.04-2.04Z"/>
      <path class="cls-1" d="M82.35,85.37h3.89v1.13h-3.89v-1.13Z"/>
      <path class="cls-1" d="M87.75,89.23l.55-.77c.78.59,1.65.92,2.51.92s1.5-.45,1.5-1.15v-.03c0-.73-.85-1.01-1.81-1.27-1.13-.32-2.4-.71-2.4-2.04v-.03c0-1.25,1.04-2.07,2.47-2.07.88,0,1.86.31,2.61.8l-.49.81c-.67-.43-1.44-.7-2.14-.7-.85,0-1.4.45-1.4,1.05v.03c0,.69.9.95,1.86,1.25,1.12.34,2.33.77,2.33,2.07v.03c0,1.37-1.13,2.17-2.58,2.17-1.04,0-2.19-.41-3-1.06Z"/>
      <path class="cls-1" d="M95.57,88.23v-4.37h-1.01v-.95h1.01v-2.18h1.08v2.18h2.3v.95h-2.3v4.23c0,.88.49,1.21,1.22,1.21.36,0,.67-.07,1.05-.25v.92c-.38.2-.78.31-1.3.31-1.16,0-2.04-.57-2.04-2.04Z"/>
      <path class="cls-1" d="M100.84,82.91h1.08v1.89c.53-1.21,1.58-2.07,2.96-2.02v1.16h-.08c-1.58,0-2.87,1.13-2.87,3.32v2.89h-1.08v-7.24Z"/>
      <path class="cls-1" d="M105.62,88.05v-.03c0-1.53,1.26-2.34,3.1-2.34.92,0,1.58.13,2.23.31v-.25c0-1.3-.8-1.98-2.16-1.98-.85,0-1.53.22-2.2.53l-.32-.88c.8-.36,1.58-.6,2.63-.6s1.81.27,2.34.8c.49.49.74,1.19.74,2.12v4.43h-1.04v-1.09c-.5.66-1.34,1.25-2.62,1.25-1.34,0-2.7-.77-2.7-2.26ZM110.95,87.49v-.7c-.53-.15-1.25-.31-2.13-.31-1.36,0-2.12.59-2.12,1.5v.03c0,.91.84,1.44,1.82,1.44,1.33,0,2.42-.81,2.42-1.96Z"/>
      <path class="cls-1" d="M114.3,80.13h1.23v1.19h-1.23v-1.19ZM114.37,82.91h1.08v7.24h-1.08v-7.24Z"/>
      <path class="cls-1" d="M117.87,91.41l.49-.84c.83.6,1.75.92,2.79.92,1.6,0,2.63-.88,2.63-2.58v-.85c-.63.84-1.51,1.53-2.84,1.53-1.74,0-3.4-1.3-3.4-3.39v-.03c0-2.12,1.68-3.42,3.4-3.42,1.36,0,2.24.67,2.83,1.46v-1.3h1.08v5.98c0,1.12-.34,1.98-.92,2.56-.64.64-1.61.97-2.76.97-1.21,0-2.33-.34-3.29-1.01ZM123.81,86.19v-.03c0-1.48-1.29-2.45-2.66-2.45s-2.51.95-2.51,2.44v.03c0,1.46,1.16,2.47,2.51,2.47s2.66-1,2.66-2.45Z"/>
      <path class="cls-1" d="M127.25,79.92h1.08v4.24c.48-.78,1.23-1.41,2.48-1.41,1.75,0,2.77,1.18,2.77,2.9v4.5h-1.08v-4.23c0-1.34-.73-2.18-2-2.18s-2.17.91-2.17,2.27v4.15h-1.08v-10.23Z"/>
      <path class="cls-1" d="M136.25,88.23v-4.37h-1.01v-.95h1.01v-2.18h1.08v2.18h2.3v.95h-2.3v4.23c0,.88.49,1.21,1.22,1.21.36,0,.67-.07,1.05-.25v.92c-.38.2-.78.31-1.3.31-1.16,0-2.04-.57-2.04-2.04Z"/>
      <path class="cls-1" d="M141.23,85.37h3.89v1.13h-3.89v-1.13Z"/>
      <path class="cls-1" d="M147.62,88.23v-4.37h-1.01v-.95h1.01v-2.18h1.08v2.18h2.3v.95h-2.3v4.23c0,.88.49,1.21,1.22,1.21.36,0,.67-.07,1.05-.25v.92c-.38.2-.78.31-1.3.31-1.16,0-2.04-.57-2.04-2.04Z"/>
      <path class="cls-1" d="M152.89,79.92h1.08v4.24c.48-.78,1.23-1.41,2.48-1.41,1.75,0,2.77,1.18,2.77,2.9v4.5h-1.08v-4.23c0-1.34-.73-2.18-2-2.18s-2.17.91-2.17,2.27v4.15h-1.08v-10.23Z"/>
      <path class="cls-1" d="M161.52,82.91h1.08v1.89c.53-1.21,1.58-2.07,2.96-2.02v1.16h-.08c-1.58,0-2.87,1.13-2.87,3.32v2.89h-1.08v-7.24Z"/>
      <path class="cls-1" d="M166.43,86.56v-.03c0-2.04,1.6-3.78,3.78-3.78s3.77,1.71,3.77,3.75v.03c0,2.04-1.61,3.78-3.8,3.78s-3.75-1.71-3.75-3.75ZM172.88,86.56v-.03c0-1.55-1.16-2.83-2.69-2.83s-2.65,1.27-2.65,2.8v.03c0,1.55,1.15,2.82,2.68,2.82s2.66-1.26,2.66-2.79Z"/>
      <path class="cls-1" d="M175.81,87.4v-4.5h1.08v4.23c0,1.34.73,2.19,2,2.19s2.17-.91,2.17-2.27v-4.15h1.06v7.24h-1.06v-1.26c-.49.78-1.23,1.42-2.48,1.42-1.75,0-2.77-1.18-2.77-2.9Z"/>
      <path class="cls-1" d="M184.47,91.41l.49-.84c.83.6,1.75.92,2.79.92,1.6,0,2.63-.88,2.63-2.58v-.85c-.63.84-1.51,1.53-2.84,1.53-1.74,0-3.4-1.3-3.4-3.39v-.03c0-2.12,1.68-3.42,3.4-3.42,1.36,0,2.24.67,2.83,1.46v-1.3h1.08v5.98c0,1.12-.34,1.98-.92,2.56-.64.64-1.61.97-2.76.97-1.21,0-2.33-.34-3.29-1.01ZM190.4,86.19v-.03c0-1.48-1.29-2.45-2.66-2.45s-2.51.95-2.51,2.44v.03c0,1.46,1.16,2.47,2.51,2.47s2.66-1,2.66-2.45Z"/>
      <path class="cls-1" d="M193.85,79.92h1.08v4.24c.48-.78,1.23-1.41,2.48-1.41,1.75,0,2.77,1.18,2.77,2.9v4.5h-1.08v-4.23c0-1.34-.73-2.18-2-2.18s-2.17.91-2.17,2.27v4.15h-1.08v-10.23Z"/>
      <path class="cls-1" d="M206.22,86.56v-.03c0-2.04,1.6-3.78,3.71-3.78,1.37,0,2.23.57,2.9,1.29l-.71.76c-.57-.6-1.22-1.09-2.2-1.09-1.47,0-2.59,1.25-2.59,2.8v.03c0,1.57,1.15,2.82,2.66,2.82.92,0,1.64-.46,2.21-1.08l.69.64c-.73.81-1.6,1.4-2.96,1.4-2.12,0-3.71-1.72-3.71-3.75Z"/>
      <path class="cls-1" d="M214,86.56v-.03c0-2.04,1.6-3.78,3.78-3.78s3.77,1.71,3.77,3.75v.03c0,2.04-1.61,3.78-3.8,3.78s-3.75-1.71-3.75-3.75ZM220.45,86.56v-.03c0-1.55-1.16-2.83-2.69-2.83s-2.65,1.27-2.65,2.8v.03c0,1.55,1.15,2.82,2.68,2.82s2.66-1.26,2.66-2.79Z"/>
      <path class="cls-1" d="M223.5,79.92h1.08v4.24c.48-.78,1.23-1.41,2.48-1.41,1.75,0,2.77,1.18,2.77,2.9v4.5h-1.08v-4.23c0-1.34-.73-2.18-2-2.18s-2.17.91-2.17,2.27v4.15h-1.08v-10.23Z"/>
      <path class="cls-1" d="M231.67,86.56v-.03c0-2.04,1.6-3.78,3.78-3.78s3.77,1.71,3.77,3.75v.03c0,2.04-1.61,3.78-3.8,3.78s-3.75-1.71-3.75-3.75ZM238.12,86.56v-.03c0-1.55-1.16-2.83-2.69-2.83s-2.65,1.27-2.65,2.8v.03c0,1.55,1.15,2.82,2.68,2.82s2.66-1.26,2.66-2.79Z"/>
      <path class="cls-1" d="M241.16,82.91h1.08v1.89c.53-1.21,1.58-2.07,2.96-2.02v1.16h-.08c-1.58,0-2.87,1.13-2.87,3.32v2.89h-1.08v-7.24Z"/>
      <path class="cls-1" d="M247.21,88.23v-4.37h-1.01v-.95h1.01v-2.18h1.08v2.18h2.3v.95h-2.3v4.23c0,.88.49,1.21,1.22,1.21.36,0,.67-.07,1.05-.25v.92c-.38.2-.78.31-1.3.31-1.16,0-2.04-.57-2.04-2.04Z"/>
      <path class="cls-1" d="M256.07,82.91h1.15l1.91,5.81,1.95-5.84h.9l1.96,5.84,1.9-5.81h1.12l-2.55,7.3h-.94l-1.95-5.71-1.96,5.71h-.95l-2.54-7.3Z"/>
      <path class="cls-1" d="M267.92,88.05v-.03c0-1.53,1.26-2.34,3.1-2.34.92,0,1.58.13,2.23.31v-.25c0-1.3-.8-1.98-2.16-1.98-.85,0-1.53.22-2.2.53l-.32-.88c.8-.36,1.58-.6,2.63-.6s1.81.27,2.34.8c.49.49.74,1.19.74,2.12v4.43h-1.04v-1.09c-.5.66-1.34,1.25-2.62,1.25-1.34,0-2.7-.77-2.7-2.26ZM273.25,87.49v-.7c-.53-.15-1.25-.31-2.13-.31-1.36,0-2.12.59-2.12,1.5v.03c0,.91.84,1.44,1.82,1.44,1.33,0,2.42-.81,2.42-1.96Z"/>
      <path class="cls-1" d="M275.97,89.23l.55-.77c.78.59,1.65.92,2.51.92s1.5-.45,1.5-1.15v-.03c0-.73-.85-1.01-1.81-1.27-1.13-.32-2.4-.71-2.4-2.04v-.03c0-1.25,1.04-2.07,2.47-2.07.88,0,1.86.31,2.61.8l-.49.81c-.67-.43-1.44-.7-2.14-.7-.85,0-1.4.45-1.4,1.05v.03c0,.69.9.95,1.86,1.25,1.12.34,2.33.77,2.33,2.07v.03c0,1.37-1.13,2.17-2.58,2.17-1.04,0-2.19-.41-3-1.06Z"/>
      <path class="cls-1" d="M287.29,86.56v-.03c0-2.04,1.6-3.78,3.71-3.78,1.37,0,2.23.57,2.9,1.29l-.71.76c-.57-.6-1.22-1.09-2.2-1.09-1.47,0-2.59,1.25-2.59,2.8v.03c0,1.57,1.15,2.82,2.66,2.82.92,0,1.64-.46,2.21-1.08l.69.64c-.73.81-1.6,1.4-2.96,1.4-2.11,0-3.71-1.72-3.71-3.75Z"/>
      <path class="cls-1" d="M295.74,82.91h1.08v1.89c.53-1.21,1.58-2.07,2.96-2.02v1.16h-.08c-1.58,0-2.87,1.13-2.87,3.32v2.89h-1.08v-7.24Z"/>
      <path class="cls-1" d="M300.65,86.55v-.03c0-2.09,1.47-3.77,3.47-3.77,2.14,0,3.38,1.71,3.38,3.82,0,.14,0,.22-.01.35h-5.74c.15,1.57,1.26,2.45,2.55,2.45.99,0,1.69-.41,2.28-1.02l.67.6c-.73.81-1.61,1.36-2.98,1.36-1.99,0-3.61-1.53-3.61-3.77ZM306.41,86.13c-.11-1.32-.87-2.46-2.31-2.46-1.26,0-2.21,1.05-2.35,2.46h4.66Z"/>
      <path class="cls-1" d="M308.84,88.05v-.03c0-1.53,1.26-2.34,3.1-2.34.92,0,1.58.13,2.23.31v-.25c0-1.3-.8-1.98-2.16-1.98-.85,0-1.53.22-2.2.53l-.32-.88c.8-.36,1.58-.6,2.63-.6s1.81.27,2.34.8c.49.49.74,1.19.74,2.12v4.43h-1.04v-1.09c-.5.66-1.34,1.25-2.62,1.25-1.34,0-2.7-.77-2.7-2.26ZM314.18,87.49v-.7c-.53-.15-1.25-.31-2.13-.31-1.36,0-2.12.59-2.12,1.5v.03c0,.91.84,1.44,1.82,1.44,1.33,0,2.42-.81,2.42-1.96Z"/>
      <path class="cls-1" d="M317.8,88.23v-4.37h-1.01v-.95h1.01v-2.18h1.08v2.18h2.3v.95h-2.3v4.23c0,.88.49,1.21,1.22,1.21.36,0,.67-.07,1.05-.25v.92c-.38.2-.78.31-1.3.31-1.16,0-2.04-.57-2.04-2.04Z"/>
      <path class="cls-1" d="M322.42,86.55v-.03c0-2.09,1.47-3.77,3.47-3.77,2.14,0,3.38,1.71,3.38,3.82,0,.14,0,.22-.01.35h-5.74c.15,1.57,1.26,2.45,2.55,2.45.99,0,1.69-.41,2.28-1.02l.67.6c-.73.81-1.61,1.36-2.98,1.36-1.99,0-3.61-1.53-3.61-3.77ZM328.18,86.13c-.11-1.32-.87-2.46-2.31-2.46-1.26,0-2.21,1.05-2.35,2.46h4.66Z"/>
      <path class="cls-1" d="M330.74,86.55v-.03c0-2.37,1.72-3.77,3.46-3.77,1.34,0,2.21.73,2.77,1.54v-4.37h1.08v10.23h-1.08v-1.46c-.59.87-1.44,1.61-2.77,1.61-1.74,0-3.46-1.37-3.46-3.75ZM337.01,86.54v-.03c0-1.67-1.27-2.79-2.62-2.79s-2.55,1.04-2.55,2.79v.03c0,1.71,1.18,2.8,2.55,2.8s2.62-1.13,2.62-2.8Z"/>
      <path class="cls-1" d="M345.06,83.86h-.99v-.94h.99v-.63c0-.83.22-1.46.63-1.86.36-.36.9-.56,1.55-.56.5,0,.84.06,1.19.18v.94c-.39-.11-.69-.18-1.05-.18-.84,0-1.26.5-1.26,1.54v.59h2.3v.92h-2.28v6.29h-1.08v-6.29Z"/>
      <path class="cls-1" d="M349.79,82.91h1.08v1.89c.53-1.21,1.58-2.07,2.96-2.02v1.16h-.08c-1.58,0-2.87,1.13-2.87,3.32v2.89h-1.08v-7.24Z"/>
      <path class="cls-1" d="M354.7,86.56v-.03c0-2.04,1.6-3.78,3.78-3.78s3.77,1.71,3.77,3.75v.03c0,2.04-1.61,3.78-3.8,3.78s-3.75-1.71-3.75-3.75ZM361.15,86.56v-.03c0-1.55-1.16-2.83-2.69-2.83s-2.65,1.27-2.65,2.8v.03c0,1.55,1.15,2.82,2.68,2.82s2.66-1.26,2.66-2.79Z"/>
      <path class="cls-1" d="M364.2,82.91h1.08v1.22c.48-.71,1.12-1.37,2.34-1.37s1.93.63,2.33,1.44c.52-.8,1.29-1.44,2.55-1.44,1.67,0,2.69,1.12,2.69,2.91v4.48h-1.08v-4.23c0-1.4-.7-2.18-1.88-2.18-1.09,0-2,.81-2,2.24v4.17h-1.06v-4.26c0-1.36-.71-2.16-1.86-2.16s-2.02.95-2.02,2.28v4.13h-1.08v-7.24Z"/>
      <path class="cls-1" d="M382.05,88.23v-4.37h-1.01v-.95h1.01v-2.18h1.08v2.18h2.3v.95h-2.3v4.23c0,.88.49,1.21,1.22,1.21.36,0,.67-.07,1.05-.25v.92c-.38.2-.78.31-1.3.31-1.16,0-2.04-.57-2.04-2.04Z"/>
      <path class="cls-1" d="M387.32,79.92h1.08v4.24c.48-.78,1.23-1.41,2.48-1.41,1.75,0,2.77,1.18,2.77,2.9v4.5h-1.08v-4.23c0-1.34-.73-2.18-2-2.18s-2.17.91-2.17,2.27v4.15h-1.08v-10.23Z"/>
      <path class="cls-1" d="M395.5,86.55v-.03c0-2.09,1.47-3.77,3.47-3.77,2.14,0,3.38,1.71,3.38,3.82,0,.14,0,.22-.01.35h-5.74c.15,1.57,1.26,2.45,2.55,2.45.99,0,1.69-.41,2.28-1.02l.67.6c-.73.81-1.61,1.36-2.98,1.36-1.99,0-3.61-1.53-3.61-3.77ZM401.26,86.13c-.11-1.32-.87-2.46-2.31-2.46-1.26,0-2.21,1.05-2.35,2.46h4.66Z"/>
      <path class="cls-1" d="M408.18,85.27v-.03c0-2.69,1.98-5.07,4.92-5.07,1.65,0,2.68.48,3.66,1.3l-.71.84c-.76-.66-1.6-1.12-2.98-1.12-2.17,0-3.73,1.83-3.73,4.02v.03c0,2.34,1.5,4.08,3.88,4.08,1.12,0,2.16-.43,2.83-.98v-2.44h-2.98v-1h4.05v3.91c-.91.81-2.28,1.5-3.94,1.5-3.08,0-4.99-2.24-4.99-5.04Z"/>
      <path class="cls-1" d="M419.59,80.34h7.09v1.01h-5.98v3.35h5.35v1.01h-5.35v3.43h6.05v1.01h-7.16v-9.81Z"/>
      <path class="cls-1" d="M428.97,80.34h1.12l3.57,5.35,3.57-5.35h1.12v9.81h-1.11v-7.94l-3.57,5.25h-.06l-3.57-5.24v7.93h-1.08v-9.81Z"/>
      <path class="cls-1" d="M441.22,80.34h1.11v9.81h-1.11v-9.81Z"/>
      <path class="cls-1" d="M445.2,80.34h1.04l6.18,7.86v-7.86h1.08v9.81h-.88l-6.33-8.04v8.04h-1.08v-9.81Z"/>
      <path class="cls-1" d="M456.36,80.34h1.11v9.81h-1.11v-9.81Z"/>
      <path class="cls-1" d="M463.82,89.3l3.56-3.14c1.5-1.34,2.04-2.1,2.04-3.08,0-1.15-.91-1.88-1.98-1.88-1.12,0-1.85.59-2.63,1.68l-.81-.59c.88-1.32,1.81-2.09,3.53-2.09s3.04,1.18,3.04,2.77v.03c0,1.43-.76,2.31-2.48,3.81l-2.62,2.33h5.2v1.01h-6.85v-.85Z"/>
      <path class="cls-1" d="M476.49,86.56v-.03c0-2.04,1.6-3.78,3.71-3.78,1.37,0,2.23.57,2.9,1.29l-.71.76c-.57-.6-1.22-1.09-2.2-1.09-1.47,0-2.59,1.25-2.59,2.8v.03c0,1.57,1.15,2.82,2.66,2.82.92,0,1.64-.46,2.21-1.08l.69.64c-.73.81-1.6,1.4-2.96,1.4-2.12,0-3.71-1.72-3.71-3.75Z"/>
      <path class="cls-1" d="M485.03,79.92h1.08v10.23h-1.08v-10.23Z"/>
      <path class="cls-1" d="M488.64,80.13h1.23v1.19h-1.23v-1.19ZM488.71,82.91h1.08v7.24h-1.08v-7.24Z"/>
      <path class="cls-1" d="M492.29,82.91h1.08v1.26c.48-.78,1.23-1.41,2.48-1.41,1.75,0,2.77,1.18,2.77,2.9v4.5h-1.08v-4.23c0-1.34-.73-2.18-2-2.18s-2.17.91-2.17,2.27v4.15h-1.08v-7.24Z"/>
      <path class="cls-1" d="M500.95,80.13h1.23v1.19h-1.23v-1.19ZM501.02,82.91h1.08v7.24h-1.08v-7.24Z"/>
      <path class="cls-1" d="M504.15,86.56v-.03c0-2.04,1.6-3.78,3.71-3.78,1.37,0,2.23.57,2.9,1.29l-.71.76c-.57-.6-1.22-1.09-2.2-1.09-1.47,0-2.59,1.25-2.59,2.8v.03c0,1.57,1.15,2.82,2.66,2.82.92,0,1.64-.46,2.21-1.08l.69.64c-.73.81-1.6,1.4-2.96,1.4-2.12,0-3.71-1.72-3.71-3.75Z"/>
      <path class="cls-1" d="M512.05,88.05v-.03c0-1.53,1.26-2.34,3.1-2.34.92,0,1.58.13,2.23.31v-.25c0-1.3-.8-1.98-2.16-1.98-.85,0-1.53.22-2.2.53l-.32-.88c.8-.36,1.58-.6,2.63-.6s1.81.27,2.34.8c.49.49.74,1.19.74,2.12v4.43h-1.04v-1.09c-.5.66-1.34,1.25-2.62,1.25-1.34,0-2.7-.77-2.7-2.26ZM517.38,87.49v-.7c-.53-.15-1.25-.31-2.13-.31-1.36,0-2.12.59-2.12,1.5v.03c0,.91.84,1.44,1.82,1.44,1.33,0,2.42-.81,2.42-1.96Z"/>
      <path class="cls-1" d="M520.8,79.92h1.08v10.23h-1.08v-10.23Z"/>
      <path class="cls-1" d="M34.77,105.03v-4.37h-1.01v-.95h1.01v-2.18h1.08v2.18h2.3v.95h-2.3v4.23c0,.88.49,1.21,1.22,1.21.36,0,.67-.07,1.05-.25v.92c-.38.2-.78.31-1.3.31-1.16,0-2.04-.57-2.04-2.04Z"/>
      <path class="cls-1" d="M40.04,99.71h1.08v1.89c.53-1.21,1.58-2.07,2.96-2.02v1.16h-.08c-1.58,0-2.87,1.13-2.87,3.32v2.89h-1.08v-7.24Z"/>
      <path class="cls-1" d="M45.74,96.93h1.23v1.19h-1.23v-1.19ZM45.81,99.71h1.08v7.24h-1.08v-7.24Z"/>
      <path class="cls-1" d="M48.85,104.85v-.03c0-1.53,1.26-2.34,3.1-2.34.92,0,1.58.13,2.23.31v-.25c0-1.3-.8-1.98-2.16-1.98-.85,0-1.53.22-2.2.53l-.32-.88c.8-.36,1.58-.6,2.63-.6s1.81.27,2.34.8c.49.49.74,1.19.74,2.12v4.43h-1.04v-1.09c-.5.66-1.34,1.25-2.62,1.25-1.34,0-2.7-.77-2.7-2.26ZM54.18,104.29v-.7c-.53-.15-1.25-.31-2.13-.31-1.36,0-2.12.59-2.12,1.5v.03c0,.91.84,1.44,1.82,1.44,1.33,0,2.42-.81,2.42-1.96Z"/>
      <path class="cls-1" d="M57.6,96.72h1.08v10.23h-1.08v-10.23Z"/>
      <path class="cls-1" d="M64.96,103.35v-.03c0-2.37,1.72-3.77,3.46-3.77,1.34,0,2.21.73,2.77,1.54v-4.37h1.08v10.23h-1.08v-1.46c-.59.87-1.44,1.61-2.77,1.61-1.74,0-3.46-1.37-3.46-3.75ZM71.24,103.34v-.03c0-1.67-1.27-2.79-2.62-2.79s-2.55,1.04-2.55,2.79v.03c0,1.71,1.18,2.8,2.55,2.8s2.62-1.13,2.62-2.8Z"/>
      <path class="cls-1" d="M74.13,104.85v-.03c0-1.53,1.26-2.34,3.1-2.34.92,0,1.58.13,2.23.31v-.25c0-1.3-.8-1.98-2.16-1.98-.85,0-1.53.22-2.2.53l-.32-.88c.8-.36,1.58-.6,2.63-.6s1.81.27,2.34.8c.49.49.74,1.19.74,2.12v4.43h-1.04v-1.09c-.5.66-1.34,1.25-2.62,1.25-1.34,0-2.7-.77-2.7-2.26ZM79.47,104.29v-.7c-.53-.15-1.25-.31-2.13-.31-1.36,0-2.12.59-2.12,1.5v.03c0,.91.84,1.44,1.82,1.44,1.33,0,2.42-.81,2.42-1.96Z"/>
      <path class="cls-1" d="M83.09,105.03v-4.37h-1.01v-.95h1.01v-2.18h1.08v2.18h2.3v.95h-2.3v4.23c0,.88.49,1.21,1.22,1.21.36,0,.67-.07,1.05-.25v.92c-.38.2-.78.31-1.3.31-1.16,0-2.04-.57-2.04-2.04Z"/>
      <path class="cls-1" d="M87.82,104.85v-.03c0-1.53,1.26-2.34,3.1-2.34.92,0,1.58.13,2.23.31v-.25c0-1.3-.8-1.98-2.16-1.98-.85,0-1.53.22-2.2.53l-.32-.88c.8-.36,1.58-.6,2.63-.6s1.81.27,2.34.8c.49.49.74,1.19.74,2.12v4.43h-1.04v-1.09c-.5.66-1.34,1.25-2.62,1.25-1.34,0-2.7-.77-2.7-2.26ZM93.16,104.29v-.7c-.53-.15-1.25-.31-2.13-.31-1.36,0-2.12.59-2.12,1.5v.03c0,.91.84,1.44,1.82,1.44,1.33,0,2.42-.81,2.42-1.96Z"/>
      <path class="cls-1" d="M101.05,105.03v-4.37h-1.01v-.95h1.01v-2.18h1.08v2.18h2.3v.95h-2.3v4.23c0,.88.49,1.21,1.22,1.21.36,0,.67-.07,1.05-.25v.92c-.38.2-.78.31-1.3.31-1.16,0-2.04-.57-2.04-2.04Z"/>
      <path class="cls-1" d="M105.67,103.36v-.03c0-2.04,1.6-3.78,3.78-3.78s3.77,1.71,3.77,3.75v.03c0,2.05-1.61,3.78-3.8,3.78s-3.75-1.71-3.75-3.75ZM112.12,103.36v-.03c0-1.55-1.16-2.83-2.69-2.83s-2.65,1.27-2.65,2.8v.03c0,1.55,1.15,2.82,2.68,2.82s2.66-1.26,2.66-2.79Z"/>
      <path class="cls-1" d="M119.36,99.71h1.08v1.22c.48-.71,1.12-1.37,2.34-1.37s1.93.63,2.33,1.44c.52-.8,1.29-1.44,2.55-1.44,1.67,0,2.69,1.12,2.69,2.91v4.48h-1.08v-4.23c0-1.4-.7-2.18-1.88-2.18-1.09,0-2,.81-2,2.24v4.17h-1.06v-4.26c0-1.36-.71-2.16-1.86-2.16s-2.02.95-2.02,2.28v4.13h-1.08v-7.24Z"/>
      <path class="cls-1" d="M132.66,96.93h1.23v1.19h-1.23v-1.19ZM132.73,99.71h1.08v7.24h-1.08v-7.24Z"/>
      <path class="cls-1" d="M136.32,99.71h1.08v1.22c.48-.71,1.12-1.37,2.34-1.37s1.93.63,2.33,1.44c.52-.8,1.29-1.44,2.55-1.44,1.67,0,2.69,1.12,2.69,2.91v4.48h-1.08v-4.23c0-1.4-.7-2.18-1.88-2.18-1.09,0-2,.81-2,2.24v4.17h-1.06v-4.26c0-1.36-.71-2.16-1.86-2.16s-2.02.95-2.02,2.28v4.13h-1.08v-7.24Z"/>
      <path class="cls-1" d="M149.62,96.93h1.23v1.19h-1.23v-1.19ZM149.69,99.71h1.08v7.24h-1.08v-7.24Z"/>
      <path class="cls-1" d="M152.82,103.36v-.03c0-2.04,1.6-3.78,3.71-3.78,1.37,0,2.23.58,2.9,1.29l-.71.76c-.57-.6-1.22-1.09-2.2-1.09-1.47,0-2.59,1.25-2.59,2.8v.03c0,1.57,1.15,2.82,2.66,2.82.92,0,1.64-.46,2.21-1.08l.69.64c-.73.81-1.6,1.4-2.96,1.4-2.11,0-3.71-1.72-3.71-3.75Z"/>
      <path class="cls-1" d="M164.92,104.85v-.03c0-1.53,1.26-2.34,3.1-2.34.92,0,1.58.13,2.23.31v-.25c0-1.3-.8-1.98-2.16-1.98-.85,0-1.53.22-2.2.53l-.32-.88c.8-.36,1.58-.6,2.63-.6s1.81.27,2.34.8c.49.49.74,1.19.74,2.12v4.43h-1.04v-1.09c-.5.66-1.34,1.25-2.62,1.25-1.34,0-2.7-.77-2.7-2.26ZM170.26,104.29v-.7c-.53-.15-1.25-.31-2.13-.31-1.36,0-2.12.59-2.12,1.5v.03c0,.91.84,1.44,1.82,1.44,1.33,0,2.42-.81,2.42-1.96Z"/>
      <path class="cls-1" d="M173.57,99.71h1.08v1.26c.48-.78,1.23-1.42,2.48-1.42,1.75,0,2.77,1.18,2.77,2.9v4.5h-1.08v-4.23c0-1.34-.73-2.18-2-2.18s-2.17.91-2.17,2.27v4.15h-1.08v-7.24Z"/>
      <path class="cls-1" d="M185.95,103.36v-.03c0-2.04,1.6-3.78,3.78-3.78s3.77,1.71,3.77,3.75v.03c0,2.05-1.61,3.78-3.8,3.78s-3.75-1.71-3.75-3.75ZM192.39,103.36v-.03c0-1.55-1.16-2.83-2.69-2.83s-2.65,1.27-2.65,2.8v.03c0,1.55,1.15,2.82,2.68,2.82s2.66-1.26,2.66-2.79Z"/>
      <path class="cls-1" d="M196.52,105.56v1.39h-1.08v-10.23h1.08v4.44c.59-.87,1.44-1.61,2.77-1.61,1.74,0,3.46,1.37,3.46,3.75v.03c0,2.37-1.71,3.77-3.46,3.77-1.34,0-2.21-.73-2.77-1.54ZM201.64,103.35v-.03c0-1.71-1.18-2.8-2.55-2.8s-2.62,1.13-2.62,2.79v.03c0,1.68,1.27,2.8,2.62,2.8s2.55-1.04,2.55-2.79Z"/>
      <path class="cls-1" d="M204.13,106.02l.55-.77c.78.59,1.65.92,2.51.92s1.5-.45,1.5-1.15v-.03c0-.73-.85-1.01-1.81-1.27-1.13-.32-2.4-.71-2.4-2.04v-.03c0-1.25,1.04-2.07,2.47-2.07.88,0,1.86.31,2.61.8l-.49.81c-.67-.43-1.44-.7-2.14-.7-.85,0-1.4.45-1.4,1.05v.03c0,.69.9.95,1.86,1.25,1.12.34,2.33.77,2.33,2.07v.03c0,1.37-1.13,2.17-2.58,2.17-1.04,0-2.19-.41-3-1.06Z"/>
      <path class="cls-1" d="M211.26,103.35v-.03c0-2.09,1.47-3.77,3.47-3.77,2.14,0,3.38,1.71,3.38,3.82,0,.14,0,.22-.01.35h-5.74c.15,1.57,1.26,2.45,2.55,2.45.99,0,1.69-.41,2.28-1.02l.67.6c-.73.81-1.61,1.36-2.98,1.36-1.99,0-3.61-1.53-3.61-3.77ZM217.02,102.93c-.11-1.32-.87-2.46-2.31-2.46-1.26,0-2.21,1.05-2.35,2.46h4.66Z"/>
      <path class="cls-1" d="M220,99.71h1.08v1.89c.53-1.21,1.58-2.07,2.96-2.02v1.16h-.08c-1.58,0-2.87,1.13-2.87,3.32v2.89h-1.08v-7.24Z"/>
      <path class="cls-1" d="M224.95,99.71h1.19l2.44,6.01,2.45-6.01h1.16l-3.15,7.3h-.95l-3.14-7.3Z"/>
      <path class="cls-1" d="M232.99,104.85v-.03c0-1.53,1.26-2.34,3.1-2.34.92,0,1.58.13,2.23.31v-.25c0-1.3-.8-1.98-2.16-1.98-.85,0-1.53.22-2.2.53l-.32-.88c.8-.36,1.58-.6,2.63-.6s1.81.27,2.34.8c.49.49.74,1.19.74,2.12v4.43h-1.04v-1.09c-.5.66-1.34,1.25-2.62,1.25-1.34,0-2.7-.77-2.7-2.26ZM238.32,104.29v-.7c-.53-.15-1.25-.31-2.13-.31-1.36,0-2.12.59-2.12,1.5v.03c0,.91.84,1.44,1.82,1.44,1.33,0,2.42-.81,2.42-1.96Z"/>
      <path class="cls-1" d="M241.95,105.03v-4.37h-1.01v-.95h1.01v-2.18h1.08v2.18h2.3v.95h-2.3v4.23c0,.88.49,1.21,1.22,1.21.36,0,.67-.07,1.05-.25v.92c-.38.2-.78.31-1.3.31-1.16,0-2.04-.57-2.04-2.04Z"/>
      <path class="cls-1" d="M247.25,96.93h1.23v1.19h-1.23v-1.19ZM247.32,99.71h1.08v7.24h-1.08v-7.24Z"/>
      <path class="cls-1" d="M250.46,103.36v-.03c0-2.04,1.6-3.78,3.78-3.78s3.77,1.71,3.77,3.75v.03c0,2.05-1.61,3.78-3.8,3.78s-3.75-1.71-3.75-3.75ZM256.9,103.36v-.03c0-1.55-1.16-2.83-2.69-2.83s-2.65,1.27-2.65,2.8v.03c0,1.55,1.15,2.82,2.68,2.82s2.66-1.26,2.66-2.79Z"/>
      <path class="cls-1" d="M259.95,99.71h1.08v1.26c.48-.78,1.23-1.42,2.48-1.42,1.75,0,2.77,1.18,2.77,2.9v4.5h-1.08v-4.23c0-1.34-.73-2.18-2-2.18s-2.17.91-2.17,2.27v4.15h-1.08v-7.24Z"/>
      <path class="cls-1" d="M268.03,104.85v-.03c0-1.53,1.26-2.34,3.1-2.34.92,0,1.58.13,2.23.31v-.25c0-1.3-.8-1.98-2.16-1.98-.85,0-1.53.22-2.2.53l-.32-.88c.8-.36,1.58-.6,2.63-.6s1.81.27,2.34.8c.49.49.74,1.19.74,2.12v4.43h-1.04v-1.09c-.5.66-1.34,1.25-2.62,1.25-1.34,0-2.7-.77-2.7-2.26ZM273.36,104.29v-.7c-.53-.15-1.25-.31-2.13-.31-1.36,0-2.12.59-2.12,1.5v.03c0,.91.84,1.44,1.82,1.44,1.33,0,2.42-.81,2.42-1.96Z"/>
      <path class="cls-1" d="M276.78,96.72h1.08v10.23h-1.08v-10.23Z"/>
      <path class="cls-1" d="M284.11,103.36v-.03c0-2.04,1.6-3.78,3.71-3.78,1.37,0,2.23.58,2.9,1.29l-.71.76c-.57-.6-1.22-1.09-2.2-1.09-1.47,0-2.59,1.25-2.59,2.8v.03c0,1.57,1.15,2.82,2.66,2.82.92,0,1.64-.46,2.21-1.08l.69.64c-.73.81-1.6,1.4-2.96,1.4-2.12,0-3.71-1.72-3.71-3.75Z"/>
      <path class="cls-1" d="M291.9,103.36v-.03c0-2.04,1.6-3.78,3.78-3.78s3.77,1.71,3.77,3.75v.03c0,2.05-1.61,3.78-3.8,3.78s-3.75-1.71-3.75-3.75ZM298.34,103.36v-.03c0-1.55-1.16-2.83-2.69-2.83s-2.65,1.27-2.65,2.8v.03c0,1.55,1.15,2.82,2.68,2.82s2.66-1.26,2.66-2.79Z"/>
      <path class="cls-1" d="M301.39,96.72h1.08v4.24c.48-.78,1.23-1.42,2.48-1.42,1.75,0,2.77,1.18,2.77,2.9v4.5h-1.08v-4.23c0-1.34-.73-2.18-2-2.18s-2.17.91-2.17,2.27v4.15h-1.08v-10.23Z"/>
      <path class="cls-1" d="M309.57,103.36v-.03c0-2.04,1.6-3.78,3.78-3.78s3.77,1.71,3.77,3.75v.03c0,2.05-1.61,3.78-3.8,3.78s-3.75-1.71-3.75-3.75ZM316.01,103.36v-.03c0-1.55-1.16-2.83-2.69-2.83s-2.65,1.27-2.65,2.8v.03c0,1.55,1.15,2.82,2.68,2.82s2.66-1.26,2.66-2.79Z"/>
      <path class="cls-1" d="M319.06,99.71h1.08v1.89c.53-1.21,1.58-2.07,2.96-2.02v1.16h-.08c-1.58,0-2.87,1.13-2.87,3.32v2.89h-1.08v-7.24Z"/>
      <path class="cls-1" d="M325.11,105.03v-4.37h-1.01v-.95h1.01v-2.18h1.08v2.18h2.3v.95h-2.3v4.23c0,.88.49,1.21,1.22,1.21.36,0,.67-.07,1.05-.25v.92c-.38.2-.78.31-1.3.31-1.16,0-2.04-.57-2.04-2.04Z"/>
      <path class="cls-1" d="M334.16,103.35v-.03c0-2.37,1.72-3.77,3.46-3.77,1.34,0,2.21.73,2.77,1.54v-4.37h1.08v10.23h-1.08v-1.46c-.59.87-1.44,1.61-2.77,1.61-1.74,0-3.46-1.37-3.46-3.75ZM340.44,103.34v-.03c0-1.67-1.27-2.79-2.62-2.79s-2.55,1.04-2.55,2.79v.03c0,1.71,1.18,2.8,2.55,2.8s2.62-1.13,2.62-2.8Z"/>
      <path class="cls-1" d="M343.43,103.35v-.03c0-2.09,1.47-3.77,3.47-3.77,2.14,0,3.38,1.71,3.38,3.82,0,.14,0,.22-.01.35h-5.74c.15,1.57,1.26,2.45,2.55,2.45.99,0,1.69-.41,2.28-1.02l.67.6c-.73.81-1.61,1.36-2.98,1.36-1.99,0-3.61-1.53-3.61-3.77ZM349.19,102.93c-.11-1.32-.87-2.46-2.31-2.46-1.26,0-2.21,1.05-2.35,2.46h4.66Z"/>
      <path class="cls-1" d="M351.56,106.02l.55-.77c.78.59,1.65.92,2.51.92s1.5-.45,1.5-1.15v-.03c0-.73-.85-1.01-1.81-1.27-1.13-.32-2.4-.71-2.4-2.04v-.03c0-1.25,1.04-2.07,2.47-2.07.88,0,1.86.31,2.61.8l-.49.81c-.67-.43-1.44-.7-2.14-.7-.85,0-1.4.45-1.4,1.05v.03c0,.69.9.95,1.86,1.25,1.12.34,2.33.77,2.33,2.07v.03c0,1.37-1.13,2.17-2.58,2.17-1.04,0-2.19-.41-3-1.06Z"/>
      <path class="cls-1" d="M359.17,96.93h1.23v1.19h-1.23v-1.19ZM359.24,99.71h1.08v7.24h-1.08v-7.24Z"/>
      <path class="cls-1" d="M362.74,108.21l.49-.84c.83.6,1.75.92,2.79.92,1.6,0,2.63-.88,2.63-2.58v-.85c-.63.84-1.51,1.53-2.84,1.53-1.74,0-3.4-1.3-3.4-3.39v-.03c0-2.12,1.68-3.42,3.4-3.42,1.36,0,2.24.67,2.83,1.46v-1.3h1.08v5.98c0,1.12-.34,1.98-.92,2.56-.64.64-1.61.97-2.76.97-1.21,0-2.33-.34-3.29-1.01ZM368.68,102.99v-.03c0-1.48-1.29-2.45-2.66-2.45s-2.51.95-2.51,2.44v.03c0,1.46,1.16,2.47,2.51,2.47s2.66-1,2.66-2.45Z"/>
      <path class="cls-1" d="M372.12,99.71h1.08v1.26c.48-.78,1.23-1.42,2.48-1.42,1.75,0,2.77,1.18,2.77,2.9v4.5h-1.08v-4.23c0-1.34-.73-2.18-2-2.18s-2.17.91-2.17,2.27v4.15h-1.08v-7.24Z"/>
    </g>
  </g>
</svg>