<?xml version="1.0" encoding="UTF-8"?>
<svg id="Layer_2" data-name="Layer 2" xmlns="http://www.w3.org/2000/svg" viewBox="0 0 690.38 340.54">
  <defs>
    <style>
      .cls-1 {
        fill: #828282;
      }

      .cls-1, .cls-2, .cls-3, .cls-4, .cls-5, .cls-6, .cls-7 {
        stroke-width: 0px;
      }

      .cls-8 {
        stroke-width: 1.29px;
      }

      .cls-8, .cls-9, .cls-10, .cls-11, .cls-12, .cls-13, .cls-14, .cls-15 {
        fill: none;
      }

      .cls-8, .cls-9, .cls-10, .cls-12, .cls-14, .cls-15 {
        stroke-linecap: round;
        stroke-linejoin: round;
      }

      .cls-8, .cls-11, .cls-15 {
        stroke: #404040;
      }

      .cls-2 {
        fill: #d3c4cf;
      }

      .cls-9, .cls-11, .cls-13 {
        stroke-width: 1.03px;
      }

      .cls-9, .cls-13 {
        stroke: #9a288b;
      }

      .cls-3 {
        fill: #862580;
      }

      .cls-10, .cls-12, .cls-14 {
        stroke: #9e9e9e;
      }

      .cls-10, .cls-12, .cls-14, .cls-15 {
        stroke-width: .52px;
      }

      .cls-11, .cls-13 {
        stroke-miterlimit: 10;
      }

      .cls-4 {
        fill: #ebebeb;
      }

      .cls-12 {
        stroke-dasharray: 0 0 3.1 3.1;
      }

      .cls-5 {
        fill: #404040;
      }

      .cls-6 {
        fill: #231f20;
      }

      .cls-14 {
        stroke-dasharray: 0 0 3.06 3.06;
      }

      .cls-7 {
        fill: #d8d8d8;
      }
    </style>
  </defs>
  <g id="Layer_1-2" data-name="Layer 1">
    <g>
      <line class="cls-9" x1="235.29" y1="183.92" x2="238.41" y2="183.92"/>
      <line class="cls-9" x1="235.29" y1="186.41" x2="238.41" y2="186.41"/>
      <line class="cls-9" x1="235.29" y1="181.42" x2="238.41" y2="181.42"/>
      <rect class="cls-9" x="237.47" y="191.41" width="4.99" height="3.12"/>
      <g>
        <path class="cls-9" d="M232.48,186.28v-12.32c0-.71.57-1.28,1.28-1.28h12.42c.71,0,1.28.57,1.28,1.28v12.32c0,2.83-2.3,5.13-5.13,5.13h-4.73c-2.83,0-5.13-2.3-5.13-5.13Z"/>
        <path class="cls-9" d="M241.53,172.68h-3.12v-1.56c0-.86.7-1.56,1.56-1.56s1.56.7,1.56,1.56v1.56Z"/>
        <path class="cls-9" d="M232.48,177.67s1.74-2.81,7.14,0c5.4,2.81,7.84,0,7.84,0"/>
      </g>
      <line class="cls-9" x1="239.97" y1="194.53" x2="239.97" y2="199.52"/>
      <line class="cls-9" x1="192.55" y1="183.93" x2="195.63" y2="183.93"/>
      <line class="cls-9" x1="192.55" y1="186.39" x2="195.63" y2="186.39"/>
      <line class="cls-9" x1="192.55" y1="181.46" x2="195.63" y2="181.46"/>
      <rect class="cls-9" x="194.71" y="191.31" width="4.92" height="3.08"/>
      <g>
        <path class="cls-9" d="M189.78,186.18v-12.05c0-.71.57-1.28,1.28-1.28h12.2c.71,0,1.28.57,1.28,1.28v12.05c0,2.83-2.3,5.13-5.13,5.13h-4.51c-2.83,0-5.13-2.3-5.13-5.13Z"/>
        <path class="cls-9" d="M198.71,172.85h-3.08v-1.54c0-.85.69-1.54,1.54-1.54s1.54.69,1.54,1.54v1.54Z"/>
        <path class="cls-9" d="M189.78,177.77s1.72-2.77,7.04,0c5.32,2.77,7.73,0,7.73,0"/>
      </g>
      <line class="cls-9" x1="197.17" y1="194.39" x2="197.17" y2="199.31"/>
      <rect class="cls-4" x="304.75" y="39.95" width="301.48" height="252.26"/>
      <rect class="cls-7" x="563.16" y="39.95" width="43.07" height="252.26"/>
      <rect class="cls-7" x="304.85" y="39.95" width="43.26" height="252.26"/>
      <line class="cls-10" x1="138.63" y1="39.95" x2="138.63" y2="41.88"/>
      <line class="cls-12" x1="138.63" y1="45.72" x2="138.63" y2="312.98"/>
      <line class="cls-10" x1="138.63" y1="314.9" x2="138.63" y2="316.82"/>
      <line class="cls-15" x1="175.54" y1="39.95" x2="175.54" y2="316.82"/>
      <line class="cls-10" x1="218.61" y1="73.72" x2="218.61" y2="75.64"/>
      <line class="cls-14" x1="218.61" y1="79.44" x2="218.61" y2="313"/>
      <line class="cls-10" x1="218.61" y1="314.9" x2="218.61" y2="316.82"/>
      <line class="cls-10" x1="261.68" y1="73.72" x2="261.68" y2="75.64"/>
      <line class="cls-14" x1="261.68" y1="79.44" x2="261.68" y2="313"/>
      <line class="cls-10" x1="261.68" y1="314.9" x2="261.68" y2="316.82"/>
      <line class="cls-10" x1="304.75" y1="73.72" x2="304.75" y2="75.64"/>
      <line class="cls-14" x1="304.75" y1="79.44" x2="304.75" y2="313"/>
      <line class="cls-10" x1="304.75" y1="314.9" x2="304.75" y2="316.82"/>
      <line class="cls-15" x1="304.75" y1="73.72" x2="304.75" y2="317.58"/>
      <line class="cls-10" x1="347.82" y1="73.72" x2="347.82" y2="75.64"/>
      <line class="cls-14" x1="347.82" y1="79.44" x2="347.82" y2="313"/>
      <line class="cls-10" x1="347.82" y1="314.9" x2="347.82" y2="316.82"/>
      <line class="cls-10" x1="433.96" y1="73.72" x2="433.96" y2="75.64"/>
      <line class="cls-14" x1="433.96" y1="79.44" x2="433.96" y2="313"/>
      <line class="cls-10" x1="433.96" y1="314.9" x2="433.96" y2="316.82"/>
      <line class="cls-10" x1="477.03" y1="73.72" x2="477.03" y2="75.64"/>
      <line class="cls-14" x1="477.03" y1="79.44" x2="477.03" y2="313"/>
      <line class="cls-10" x1="477.03" y1="314.9" x2="477.03" y2="316.82"/>
      <line class="cls-10" x1="520.09" y1="73.72" x2="520.09" y2="75.64"/>
      <line class="cls-14" x1="520.09" y1="79.44" x2="520.09" y2="313"/>
      <line class="cls-10" x1="520.09" y1="314.9" x2="520.09" y2="316.82"/>
      <line class="cls-10" x1="563.16" y1="73.72" x2="563.16" y2="75.64"/>
      <line class="cls-14" x1="563.16" y1="79.44" x2="563.16" y2="313"/>
      <line class="cls-10" x1="563.16" y1="314.9" x2="563.16" y2="316.82"/>
      <line class="cls-15" x1="606.23" y1="39.95" x2="606.23" y2="316.82"/>
      <line class="cls-13" x1="114.02" y1="181.46" x2="176.18" y2="181.46"/>
      <polygon class="cls-3" points="175.06 185.3 181.7 181.46 175.06 177.63 175.06 185.3"/>
      <line class="cls-11" x1="138.63" y1="73.28" x2="609.83" y2="73.28"/>
      <polygon class="cls-5" points="608.71 77.12 615.35 73.28 608.71 69.45 608.71 77.12"/>
      <line class="cls-11" x1="138.63" y1="39.95" x2="609.83" y2="39.95"/>
      <polygon class="cls-5" points="608.71 43.79 615.35 39.95 608.71 36.12 608.71 43.79"/>
      <line class="cls-11" x1="138.63" y1="292.21" x2="609.83" y2="292.21"/>
      <polygon class="cls-5" points="608.71 296.05 615.35 292.21 608.71 288.38 608.71 296.05"/>
      <line class="cls-11" x1="138.63" y1="316.82" x2="609.83" y2="316.82"/>
      <polygon class="cls-5" points="608.71 320.66 615.35 316.82 608.71 312.99 608.71 320.66"/>
      <line class="cls-13" x1="209.16" y1="181.46" x2="221.27" y2="181.46"/>
      <polygon class="cls-3" points="220.15 185.3 226.79 181.46 220.15 177.63 220.15 185.3"/>
      <line class="cls-13" x1="425.05" y1="181.46" x2="296.37" y2="181.46"/>
      <polygon class="cls-3" points="423.93 177.63 430.57 181.47 423.93 185.3 423.93 177.63"/>
      <g>
        <path class="cls-6" d="M177.94,50.7v-.02c0-2.3,1.81-4.18,4.3-4.18s4.28,1.86,4.28,4.15v.02c0,2.3-1.81,4.18-4.3,4.18s-4.28-1.86-4.28-4.15ZM184.67,50.7v-.02c0-1.38-1.02-2.54-2.45-2.54s-2.42,1.13-2.42,2.51v.02c0,1.38,1.01,2.54,2.45,2.54s2.42-1.13,2.42-2.52Z"/>
        <path class="cls-6" d="M187.96,48.53h1.75v.89c.43-.58,1.01-1,1.93-1,1.44,0,2.82,1.13,2.82,3.2v.02c0,2.06-1.35,3.2-2.82,3.2-.93,0-1.51-.43-1.93-.92v2.65h-1.75v-8.03ZM192.7,51.63v-.02c0-1.03-.69-1.71-1.51-1.71s-1.5.68-1.5,1.71v.02c0,1.03.68,1.71,1.5,1.71s1.51-.67,1.51-1.71Z"/>
        <path class="cls-6" d="M195.42,51.66v-.02c0-1.76,1.26-3.22,3.06-3.22,2.07,0,3.01,1.6,3.01,3.36,0,.14-.01.3-.02.46h-4.3c.17.8.73,1.21,1.51,1.21.59,0,1.02-.18,1.5-.63l1,.89c-.58.72-1.41,1.15-2.53,1.15-1.86,0-3.23-1.3-3.23-3.2ZM199.78,51.14c-.1-.78-.57-1.31-1.3-1.31s-1.2.52-1.34,1.31h2.64Z"/>
        <path class="cls-6" d="M202.76,48.53h1.75v.88c.4-.52.92-.99,1.81-.99,1.33,0,2.1.88,2.1,2.3v4h-1.75v-3.45c0-.83-.39-1.26-1.06-1.26s-1.1.43-1.1,1.26v3.45h-1.75v-6.18Z"/>
        <path class="cls-6" d="M209.92,50.3h3.55v1.68h-3.55v-1.68Z"/>
        <path class="cls-6" d="M215.02,46.29h1.75v8.42h-1.75v-8.42Z"/>
        <path class="cls-6" d="M218.01,52.94v-.02c0-1.35,1.03-1.97,2.49-1.97.62,0,1.07.1,1.51.25v-.1c0-.73-.45-1.13-1.33-1.13-.67,0-1.14.13-1.71.33l-.44-1.34c.68-.3,1.35-.5,2.4-.5.96,0,1.65.25,2.09.69.46.46.67,1.14.67,1.97v3.59h-1.7v-.67c-.43.47-1.01.78-1.87.78-1.17,0-2.12-.67-2.12-1.89ZM222.03,52.53v-.31c-.3-.14-.69-.23-1.12-.23-.75,0-1.21.3-1.21.85v.02c0,.47.39.75.96.75.82,0,1.37-.45,1.37-1.08Z"/>
        <path class="cls-6" d="M226.97,53.91v.81h-1.75v-8.42h1.75v3.13c.43-.58,1.01-1,1.93-1,1.44,0,2.82,1.13,2.82,3.2v.02c0,2.06-1.35,3.2-2.82,3.2-.93,0-1.51-.43-1.93-.92ZM229.96,51.63v-.02c0-1.03-.69-1.71-1.51-1.71s-1.5.68-1.5,1.71v.02c0,1.03.68,1.71,1.5,1.71s1.51-.67,1.51-1.71Z"/>
        <path class="cls-6" d="M232.68,51.66v-.02c0-1.76,1.26-3.22,3.06-3.22,2.07,0,3.01,1.6,3.01,3.36,0,.14-.01.3-.02.46h-4.3c.17.8.73,1.21,1.51,1.21.59,0,1.02-.18,1.5-.63l1,.89c-.58.72-1.41,1.15-2.53,1.15-1.86,0-3.23-1.3-3.23-3.2ZM237.04,51.14c-.1-.78-.57-1.31-1.3-1.31s-1.2.52-1.34,1.31h2.64Z"/>
        <path class="cls-6" d="M240.07,46.29h1.75v8.42h-1.75v-8.42Z"/>
        <path class="cls-6" d="M246.87,46.29h1.85v1.56h-1.85v-1.56ZM246.92,48.53h1.75v6.18h-1.75v-6.18Z"/>
        <path class="cls-6" d="M250.28,48.53h1.75v.88c.4-.52.92-.99,1.81-.99,1.33,0,2.1.88,2.1,2.3v4h-1.75v-3.45c0-.83-.39-1.26-1.06-1.26s-1.1.43-1.1,1.26v3.45h-1.75v-6.18Z"/>
        <path class="cls-6" d="M257.2,51.63v-.02c0-2.06,1.35-3.2,2.81-3.2.93,0,1.51.43,1.93.92v-3.05h1.75v8.42h-1.75v-.89c-.43.58-1.02,1-1.93,1-1.44,0-2.81-1.13-2.81-3.2ZM261.96,51.63v-.02c0-1.03-.68-1.71-1.5-1.71s-1.51.67-1.51,1.71v.02c0,1.03.69,1.71,1.51,1.71s1.5-.68,1.5-1.71Z"/>
        <path class="cls-6" d="M265.22,52.53v-4h1.75v3.45c0,.83.39,1.26,1.06,1.26s1.1-.43,1.1-1.26v-3.45h1.75v6.18h-1.75v-.88c-.4.52-.92.99-1.81.99-1.33,0-2.1-.88-2.1-2.3Z"/>
        <path class="cls-6" d="M272.13,51.66v-.02c0-1.76,1.35-3.22,3.24-3.22,1.17,0,1.89.39,2.47,1.04l-1.07,1.15c-.39-.42-.78-.68-1.41-.68-.88,0-1.5.77-1.5,1.68v.02c0,.95.61,1.71,1.57,1.71.59,0,.99-.25,1.42-.66l1.03,1.04c-.6.66-1.29,1.13-2.53,1.13-1.86,0-3.22-1.43-3.22-3.2Z"/>
        <path class="cls-6" d="M279.35,52.96v-2.93h-.74v-1.5h.74v-1.58h1.75v1.58h1.45v1.5h-1.45v2.64c0,.4.17.6.57.6.32,0,.61-.08.87-.22v1.41c-.37.22-.8.36-1.38.36-1.07,0-1.8-.43-1.8-1.86Z"/>
        <path class="cls-6" d="M283.88,46.29h1.85v1.56h-1.85v-1.56ZM283.92,48.53h1.75v6.18h-1.75v-6.18Z"/>
        <path class="cls-6" d="M286.92,51.66v-.02c0-1.78,1.43-3.22,3.36-3.22s3.33,1.42,3.33,3.2v.02c0,1.78-1.43,3.22-3.36,3.22s-3.33-1.42-3.33-3.2ZM291.88,51.66v-.02c0-.91-.66-1.71-1.63-1.71s-1.6.77-1.6,1.68v.02c0,.91.66,1.71,1.63,1.71s1.6-.77,1.6-1.68Z"/>
        <path class="cls-6" d="M294.86,48.53h1.75v.88c.4-.52.92-.99,1.81-.99,1.33,0,2.1.88,2.1,2.3v4h-1.75v-3.45c0-.83-.39-1.26-1.06-1.26s-1.1.43-1.1,1.26v3.45h-1.75v-6.18Z"/>
      </g>
      <g>
        <path class="cls-6" d="M217.9,64.5v-2.93h-.74v-1.5h.74v-1.58h1.75v1.58h1.45v1.5h-1.45v2.64c0,.4.17.6.57.6.32,0,.61-.08.87-.22v1.41c-.37.22-.8.36-1.38.36-1.07,0-1.8-.43-1.8-1.86Z"/>
        <path class="cls-6" d="M222.45,57.83h1.75v3.11c.4-.52.92-.99,1.81-.99,1.33,0,2.1.88,2.1,2.3v4h-1.75v-3.45c0-.83-.39-1.26-1.06-1.26s-1.1.43-1.1,1.26v3.45h-1.75v-8.42Z"/>
        <path class="cls-6" d="M229.34,63.19v-.02c0-1.76,1.26-3.22,3.06-3.22,2.07,0,3.01,1.6,3.01,3.36,0,.14-.01.3-.02.46h-4.3c.17.8.73,1.21,1.51,1.21.59,0,1.02-.18,1.5-.63l1,.89c-.58.72-1.41,1.15-2.53,1.15-1.86,0-3.23-1.3-3.23-3.2ZM233.7,62.67c-.1-.78-.57-1.31-1.3-1.31s-1.2.52-1.34,1.31h2.64Z"/>
        <path class="cls-6" d="M236.67,60.07h1.75v1.25c.36-.85.93-1.41,1.97-1.36v1.83h-.09c-1.17,0-1.88.7-1.88,2.18v2.28h-1.75v-6.18Z"/>
        <path class="cls-6" d="M240.9,64.47v-.02c0-1.35,1.03-1.97,2.49-1.97.62,0,1.07.1,1.51.25v-.1c0-.73-.45-1.13-1.33-1.13-.67,0-1.14.13-1.71.33l-.44-1.34c.68-.3,1.35-.5,2.4-.5.96,0,1.65.25,2.09.69.46.46.67,1.14.67,1.97v3.59h-1.7v-.67c-.43.47-1.01.78-1.87.78-1.17,0-2.12-.67-2.12-1.89ZM244.92,64.07v-.31c-.3-.14-.69-.23-1.12-.23-.75,0-1.21.3-1.21.85v.02c0,.47.39.75.96.75.82,0,1.37-.45,1.37-1.08Z"/>
        <path class="cls-6" d="M248.11,60.07h1.75v.89c.43-.58,1.01-1,1.93-1,1.44,0,2.82,1.13,2.82,3.2v.02c0,2.06-1.35,3.2-2.82,3.2-.93,0-1.51-.43-1.93-.92v2.65h-1.75v-8.03ZM252.85,63.17v-.02c0-1.03-.69-1.71-1.51-1.71s-1.5.68-1.5,1.71v.02c0,1.03.68,1.71,1.5,1.71s1.51-.67,1.51-1.71Z"/>
        <path class="cls-6" d="M259.64,60.07h1.82l-2.38,6.33c-.47,1.26-.98,1.73-2.03,1.73-.63,0-1.11-.16-1.56-.43l.59-1.27c.23.14.52.24.75.24.3,0,.46-.09.61-.4l-2.42-6.21h1.86l1.41,4.21,1.35-4.21Z"/>
      </g>
      <polygon class="cls-1" points="571.57 24.57 583.87 36.88 596.18 24.57 571.57 24.57"/>
      <g>
        <path class="cls-6" d="M531.93.35h3.3c1.93,0,3.09,1.14,3.09,2.79v.02c0,1.87-1.45,2.84-3.26,2.84h-1.35v2.42h-1.78V.35ZM535.12,4.42c.89,0,1.41-.53,1.41-1.22v-.02c0-.8-.55-1.22-1.44-1.22h-1.37v2.47h1.41Z"/>
        <path class="cls-6" d="M539.43,2.24h1.75v1.25c.36-.85.93-1.41,1.97-1.36v1.83h-.09c-1.17,0-1.88.7-1.88,2.18v2.28h-1.75V2.24Z"/>
        <path class="cls-6" d="M544.15,0h1.85v1.56h-1.85V0ZM544.2,2.24h1.75v6.18h-1.75V2.24Z"/>
        <path class="cls-6" d="M547.61,2.24h1.75v.88c.4-.52.93-.99,1.82-.99.81,0,1.42.36,1.74.98.54-.63,1.19-.98,2.03-.98,1.3,0,2.09.78,2.09,2.27v4.03h-1.75v-3.45c0-.83-.37-1.26-1.03-1.26s-1.06.43-1.06,1.26v3.45h-1.75v-3.45c0-.83-.37-1.26-1.03-1.26s-1.06.43-1.06,1.26v3.45h-1.75V2.24Z"/>
        <path class="cls-6" d="M558.25,6.64v-.02c0-1.35,1.03-1.97,2.49-1.97.62,0,1.07.1,1.51.25v-.1c0-.73-.45-1.13-1.33-1.13-.67,0-1.14.13-1.71.33l-.44-1.34c.68-.3,1.35-.5,2.4-.5.96,0,1.65.25,2.09.69.46.46.67,1.14.67,1.97v3.59h-1.7v-.67c-.43.47-1.01.78-1.87.78-1.17,0-2.12-.67-2.12-1.89ZM562.27,6.24v-.31c-.3-.14-.69-.23-1.12-.23-.75,0-1.21.3-1.21.85v.02c0,.47.39.75.96.75.82,0,1.37-.45,1.37-1.08Z"/>
        <path class="cls-6" d="M565.52,2.24h1.75v1.25c.36-.85.93-1.41,1.97-1.36v1.83h-.09c-1.17,0-1.88.7-1.88,2.18v2.28h-1.75V2.24Z"/>
        <path class="cls-6" d="M574.57,2.24h1.82l-2.38,6.33c-.47,1.26-.98,1.73-2.03,1.73-.63,0-1.11-.16-1.56-.43l.59-1.27c.23.14.52.24.75.24.3,0,.46-.09.61-.4l-2.42-6.21h1.86l1.41,4.21,1.35-4.21Z"/>
        <path class="cls-6" d="M580.59,5.36v-.02c0-1.76,1.26-3.22,3.06-3.22,2.07,0,3.01,1.6,3.01,3.36,0,.14-.01.3-.02.46h-4.3c.17.8.73,1.21,1.51,1.21.59,0,1.02-.18,1.5-.63l1,.89c-.58.72-1.41,1.15-2.53,1.15-1.86,0-3.23-1.3-3.23-3.2ZM584.95,4.84c-.1-.78-.57-1.31-1.3-1.31s-1.2.52-1.34,1.31h2.64Z"/>
        <path class="cls-6" d="M587.98,2.24h1.75v.88c.4-.52.92-.99,1.81-.99,1.33,0,2.1.88,2.1,2.3v4h-1.75v-3.45c0-.83-.39-1.26-1.06-1.26s-1.1.43-1.1,1.26v3.45h-1.75V2.24Z"/>
        <path class="cls-6" d="M594.93,5.34v-.02c0-2.06,1.35-3.2,2.81-3.2.93,0,1.51.43,1.93.92V0h1.75v8.42h-1.75v-.89c-.43.58-1.02,1-1.93,1-1.44,0-2.81-1.13-2.81-3.2ZM599.7,5.34v-.02c0-1.03-.68-1.71-1.5-1.71s-1.51.67-1.51,1.71v.02c0,1.03.69,1.71,1.51,1.71s1.5-.68,1.5-1.71Z"/>
        <path class="cls-6" d="M603.05,2.24h1.75v.89c.43-.58,1.01-1,1.93-1,1.44,0,2.82,1.13,2.82,3.2v.02c0,2.06-1.35,3.2-2.82,3.2-.93,0-1.51-.43-1.93-.92v2.65h-1.75V2.24ZM607.79,5.34v-.02c0-1.03-.69-1.71-1.51-1.71s-1.5.68-1.5,1.71v.02c0,1.03.68,1.71,1.5,1.71s1.51-.67,1.51-1.71Z"/>
        <path class="cls-6" d="M610.56,5.36v-.02c0-1.78,1.43-3.22,3.36-3.22s3.33,1.42,3.33,3.2v.02c0,1.78-1.43,3.22-3.36,3.22s-3.33-1.42-3.33-3.2ZM615.52,5.36v-.02c0-.91-.66-1.71-1.63-1.71s-1.6.77-1.6,1.68v.02c0,.91.66,1.71,1.63,1.71s1.6-.77,1.6-1.68Z"/>
        <path class="cls-6" d="M618.53,0h1.85v1.56h-1.85V0ZM618.58,2.24h1.75v6.18h-1.75V2.24Z"/>
        <path class="cls-6" d="M622,2.24h1.75v.88c.4-.52.92-.99,1.81-.99,1.33,0,2.1.88,2.1,2.3v4h-1.75v-3.45c0-.83-.39-1.26-1.06-1.26s-1.1.43-1.1,1.26v3.45h-1.75V2.24Z"/>
        <path class="cls-6" d="M629.47,6.67v-2.93h-.74v-1.5h.74V.66h1.75v1.58h1.45v1.5h-1.45v2.64c0,.4.17.6.57.6.32,0,.61-.08.87-.22v1.41c-.37.22-.8.36-1.38.36-1.07,0-1.8-.43-1.8-1.86Z"/>
        <path class="cls-6" d="M634.1,2.24h1.87v1.85h-1.87v-1.85ZM634.1,6.58h1.87v1.85h-1.87v-1.85Z"/>
      </g>
      <g>
        <path class="cls-6" d="M477.59,11.88h6.09v1.58h-4.33v1.64h3.81v1.58h-3.81v1.7h4.38v1.58h-6.15v-8.08Z"/>
        <path class="cls-6" d="M485.23,13.77h1.75v.88c.4-.52.92-.99,1.81-.99,1.33,0,2.1.88,2.1,2.3v4h-1.75v-3.45c0-.83-.39-1.26-1.06-1.26s-1.1.43-1.1,1.26v3.45h-1.75v-6.18Z"/>
        <path class="cls-6" d="M492.19,16.88v-.02c0-2.06,1.35-3.2,2.81-3.2.93,0,1.51.43,1.93.92v-3.05h1.75v8.42h-1.75v-.89c-.43.58-1.02,1-1.93,1-1.44,0-2.81-1.13-2.81-3.2ZM496.95,16.88v-.02c0-1.03-.68-1.71-1.5-1.71s-1.51.67-1.51,1.71v.02c0,1.03.69,1.71,1.51,1.71s1.5-.68,1.5-1.71Z"/>
        <path class="cls-6" d="M499.97,16.9v-.02c0-1.78,1.43-3.22,3.36-3.22s3.33,1.42,3.33,3.2v.02c0,1.78-1.43,3.22-3.36,3.22s-3.33-1.42-3.33-3.2ZM504.93,16.9v-.02c0-.91-.66-1.71-1.63-1.71s-1.6.77-1.6,1.68v.02c0,.91.66,1.71,1.63,1.71s1.6-.77,1.6-1.68Z"/>
        <path class="cls-6" d="M507.39,19.14l.75-1.15c.67.48,1.37.74,1.95.74.51,0,.74-.18.74-.46v-.02c0-.38-.6-.51-1.28-.72-.87-.25-1.85-.66-1.85-1.86v-.02c0-1.26,1.02-1.96,2.26-1.96.79,0,1.64.27,2.31.72l-.67,1.21c-.61-.36-1.22-.58-1.67-.58-.43,0-.65.18-.65.43v.02c0,.35.59.51,1.26.74.87.29,1.87.7,1.87,1.83v.02c0,1.37-1.03,2-2.37,2-.87,0-1.83-.29-2.65-.93Z"/>
        <path class="cls-6" d="M513.32,16.9v-.02c0-1.76,1.35-3.22,3.24-3.22,1.17,0,1.89.39,2.47,1.04l-1.07,1.15c-.39-.42-.79-.68-1.41-.68-.88,0-1.5.77-1.5,1.68v.02c0,.95.61,1.71,1.57,1.71.59,0,.99-.25,1.42-.66l1.03,1.04c-.6.66-1.29,1.13-2.53,1.13-1.86,0-3.22-1.43-3.22-3.2Z"/>
        <path class="cls-6" d="M519.71,16.9v-.02c0-1.78,1.43-3.22,3.36-3.22s3.33,1.42,3.33,3.2v.02c0,1.78-1.43,3.22-3.36,3.22s-3.33-1.42-3.33-3.2ZM524.67,16.9v-.02c0-.91-.66-1.71-1.63-1.71s-1.6.77-1.6,1.68v.02c0,.91.66,1.71,1.63,1.71s1.6-.77,1.6-1.68Z"/>
        <path class="cls-6" d="M527.69,13.77h1.75v.89c.43-.58,1.01-1,1.93-1,1.44,0,2.82,1.13,2.82,3.2v.02c0,2.06-1.35,3.2-2.82,3.2-.93,0-1.51-.43-1.93-.92v2.65h-1.75v-8.03ZM532.44,16.88v-.02c0-1.03-.69-1.71-1.51-1.71s-1.5.68-1.5,1.71v.02c0,1.03.68,1.71,1.5,1.71s1.51-.67,1.51-1.71Z"/>
        <path class="cls-6" d="M535.52,11.54h1.85v1.56h-1.85v-1.56ZM535.56,13.77h1.75v6.18h-1.75v-6.18Z"/>
        <path class="cls-6" d="M538.64,16.9v-.02c0-1.76,1.35-3.22,3.24-3.22,1.17,0,1.89.39,2.47,1.04l-1.07,1.15c-.39-.42-.78-.68-1.41-.68-.88,0-1.5.77-1.5,1.68v.02c0,.95.61,1.71,1.57,1.71.59,0,.99-.25,1.42-.66l1.03,1.04c-.6.66-1.29,1.13-2.53,1.13-1.86,0-3.22-1.43-3.22-3.2Z"/>
        <path class="cls-6" d="M548.62,18.18v-.02c0-1.35,1.03-1.97,2.49-1.97.62,0,1.07.1,1.51.25v-.1c0-.73-.45-1.13-1.33-1.13-.67,0-1.14.13-1.71.33l-.44-1.34c.68-.3,1.35-.5,2.4-.5.96,0,1.65.25,2.09.69.46.46.67,1.14.67,1.97v3.59h-1.7v-.67c-.43.47-1.01.78-1.87.78-1.17,0-2.12-.67-2.12-1.89ZM552.65,17.78v-.31c-.3-.14-.69-.23-1.12-.23-.75,0-1.21.3-1.21.85v.02c0,.47.39.75.96.75.82,0,1.37-.45,1.37-1.08Z"/>
        <path class="cls-6" d="M555.89,13.77h1.75v.88c.4-.52.92-.99,1.81-.99,1.33,0,2.1.88,2.1,2.3v4h-1.75v-3.45c0-.83-.39-1.26-1.06-1.26s-1.1.43-1.1,1.26v3.45h-1.75v-6.18Z"/>
        <path class="cls-6" d="M562.85,16.88v-.02c0-2.06,1.35-3.2,2.81-3.2.93,0,1.51.43,1.93.92v-3.05h1.75v8.42h-1.75v-.89c-.43.58-1.02,1-1.93,1-1.44,0-2.81-1.13-2.81-3.2ZM567.61,16.88v-.02c0-1.03-.68-1.71-1.5-1.71s-1.51.67-1.51,1.71v.02c0,1.03.69,1.71,1.51,1.71s1.5-.68,1.5-1.71Z"/>
        <path class="cls-6" d="M574.37,11.54h1.75v3.11c.4-.52.92-.99,1.81-.99,1.33,0,2.1.88,2.1,2.3v4h-1.75v-3.45c0-.83-.39-1.26-1.06-1.26s-1.1.43-1.1,1.26v3.45h-1.75v-8.42Z"/>
        <path class="cls-6" d="M581.6,11.54h1.85v1.56h-1.85v-1.56ZM581.65,13.77h1.75v6.18h-1.75v-6.18Z"/>
        <path class="cls-6" d="M584.57,19.14l.75-1.15c.67.48,1.37.74,1.95.74.51,0,.74-.18.74-.46v-.02c0-.38-.6-.51-1.28-.72-.87-.25-1.85-.66-1.85-1.86v-.02c0-1.26,1.02-1.96,2.26-1.96.79,0,1.64.27,2.31.72l-.67,1.21c-.61-.36-1.22-.58-1.67-.58-.43,0-.65.18-.65.43v.02c0,.35.59.51,1.26.74.87.29,1.87.7,1.87,1.83v.02c0,1.37-1.03,2-2.37,2-.87,0-1.83-.29-2.65-.93Z"/>
        <path class="cls-6" d="M591.13,18.2v-2.93h-.74v-1.5h.74v-1.58h1.75v1.58h1.45v1.5h-1.45v2.64c0,.4.17.6.57.6.32,0,.61-.08.87-.22v1.41c-.37.22-.8.36-1.38.36-1.07,0-1.8-.43-1.8-1.86Z"/>
        <path class="cls-6" d="M595.26,16.9v-.02c0-1.78,1.43-3.22,3.36-3.22s3.33,1.42,3.33,3.2v.02c0,1.78-1.43,3.22-3.36,3.22s-3.33-1.42-3.33-3.2ZM600.22,16.9v-.02c0-.91-.66-1.71-1.63-1.71s-1.6.77-1.6,1.68v.02c0,.91.66,1.71,1.63,1.71s1.6-.77,1.6-1.68Z"/>
        <path class="cls-6" d="M603.3,11.54h1.75v8.42h-1.75v-8.42Z"/>
        <path class="cls-6" d="M606.39,16.9v-.02c0-1.78,1.43-3.22,3.36-3.22s3.33,1.42,3.33,3.2v.02c0,1.78-1.43,3.22-3.36,3.22s-3.33-1.42-3.33-3.2ZM611.35,16.9v-.02c0-.91-.66-1.71-1.63-1.71s-1.6.77-1.6,1.68v.02c0,.91.66,1.71,1.63,1.71s1.6-.77,1.6-1.68Z"/>
        <path class="cls-6" d="M614.36,21.18l.6-1.31c.63.36,1.27.57,2.09.57,1.2,0,1.76-.58,1.76-1.68v-.3c-.52.62-1.08,1-2.02,1-1.44,0-2.75-1.05-2.75-2.88v-.02c0-1.85,1.33-2.88,2.75-2.88.96,0,1.52.4,2,.92v-.81h1.75v4.79c0,1.11-.26,1.92-.78,2.43-.58.58-1.46.83-2.67.83-1,0-1.95-.23-2.73-.65ZM618.82,16.57v-.02c0-.84-.66-1.43-1.51-1.43s-1.5.59-1.5,1.43v.02c0,.85.65,1.43,1.5,1.43s1.51-.59,1.51-1.43Z"/>
        <path class="cls-6" d="M622.18,11.54h1.85v1.56h-1.85v-1.56ZM622.22,13.77h1.75v6.18h-1.75v-6.18Z"/>
        <path class="cls-6" d="M625.3,16.9v-.02c0-1.76,1.35-3.22,3.24-3.22,1.17,0,1.89.39,2.47,1.04l-1.07,1.15c-.39-.42-.78-.68-1.41-.68-.88,0-1.5.77-1.5,1.68v.02c0,.95.61,1.71,1.57,1.71.59,0,.99-.25,1.42-.66l1.03,1.04c-.6.66-1.29,1.13-2.53,1.13-1.86,0-3.22-1.43-3.22-3.2Z"/>
        <path class="cls-6" d="M635.65,13.77h1.75v1.25c.36-.85.93-1.41,1.97-1.36v1.83h-.09c-1.17,0-1.88.7-1.88,2.18v2.28h-1.75v-6.18Z"/>
        <path class="cls-6" d="M640.14,16.9v-.02c0-1.76,1.26-3.22,3.06-3.22,2.07,0,3.01,1.6,3.01,3.36,0,.14-.01.3-.02.46h-4.3c.17.8.73,1.21,1.51,1.21.59,0,1.02-.18,1.5-.63l1,.89c-.58.72-1.41,1.15-2.53,1.15-1.86,0-3.23-1.3-3.23-3.2ZM644.5,16.38c-.1-.78-.57-1.31-1.3-1.31s-1.2.52-1.34,1.31h2.64Z"/>
        <path class="cls-6" d="M647.52,13.77h1.75v.88c.4-.52.93-.99,1.82-.99.81,0,1.42.36,1.74.98.54-.63,1.19-.98,2.03-.98,1.3,0,2.09.78,2.09,2.27v4.03h-1.75v-3.45c0-.83-.37-1.26-1.03-1.26s-1.06.43-1.06,1.26v3.45h-1.75v-3.45c0-.83-.37-1.26-1.03-1.26s-1.06.43-1.06,1.26v3.45h-1.75v-6.18Z"/>
        <path class="cls-6" d="M658.55,11.54h1.85v1.56h-1.85v-1.56ZM658.59,13.77h1.75v6.18h-1.75v-6.18Z"/>
        <path class="cls-6" d="M661.51,19.14l.75-1.15c.67.48,1.37.74,1.95.74.51,0,.74-.18.74-.46v-.02c0-.38-.6-.51-1.28-.72-.87-.25-1.85-.66-1.85-1.86v-.02c0-1.26,1.02-1.96,2.26-1.96.79,0,1.64.27,2.31.72l-.67,1.21c-.61-.36-1.22-.58-1.67-.58-.43,0-.65.18-.65.43v.02c0,.35.59.51,1.26.74.87.29,1.87.7,1.87,1.83v.02c0,1.37-1.03,2-2.37,2-.87,0-1.83-.29-2.65-.93Z"/>
        <path class="cls-6" d="M667.3,19.14l.75-1.15c.67.48,1.37.74,1.95.74.51,0,.74-.18.74-.46v-.02c0-.38-.6-.51-1.28-.72-.87-.25-1.85-.66-1.85-1.86v-.02c0-1.26,1.02-1.96,2.26-1.96.79,0,1.64.27,2.31.72l-.67,1.21c-.61-.36-1.22-.58-1.67-.58-.43,0-.65.18-.65.43v.02c0,.35.59.51,1.26.74.87.29,1.87.7,1.87,1.83v.02c0,1.37-1.03,2-2.37,2-.87,0-1.83-.29-2.65-.93Z"/>
        <path class="cls-6" d="M673.63,11.54h1.85v1.56h-1.85v-1.56ZM673.67,13.77h1.75v6.18h-1.75v-6.18Z"/>
        <path class="cls-6" d="M676.73,16.9v-.02c0-1.78,1.43-3.22,3.36-3.22s3.33,1.42,3.33,3.2v.02c0,1.78-1.43,3.22-3.36,3.22s-3.33-1.42-3.33-3.2ZM681.69,16.9v-.02c0-.91-.66-1.71-1.63-1.71s-1.6.77-1.6,1.68v.02c0,.91.66,1.71,1.63,1.71s1.6-.77,1.6-1.68Z"/>
        <path class="cls-6" d="M684.71,13.77h1.75v.88c.4-.52.92-.99,1.81-.99,1.33,0,2.1.88,2.1,2.3v4h-1.75v-3.45c0-.83-.39-1.26-1.06-1.26s-1.1.43-1.1,1.26v3.45h-1.75v-6.18Z"/>
      </g>
      <g>
        <path class="cls-6" d="M419.31,46.64h1.92l2.12,3.42,2.12-3.42h1.92v8.08h-1.76v-5.27l-2.27,3.45h-.05l-2.25-3.41v5.24h-1.74v-8.08Z"/>
        <path class="cls-6" d="M428.85,52.94v-.02c0-1.35,1.03-1.97,2.49-1.97.62,0,1.07.1,1.51.25v-.1c0-.73-.45-1.13-1.33-1.13-.67,0-1.14.13-1.71.33l-.44-1.34c.68-.3,1.35-.5,2.4-.5.96,0,1.65.25,2.09.69.46.46.67,1.14.67,1.97v3.59h-1.7v-.67c-.43.47-1.01.78-1.87.78-1.17,0-2.12-.67-2.12-1.89ZM432.88,52.53v-.31c-.3-.14-.69-.23-1.12-.23-.75,0-1.21.3-1.21.85v.02c0,.47.39.75.96.75.82,0,1.37-.45,1.37-1.08Z"/>
        <path class="cls-6" d="M436.1,46.29h1.85v1.56h-1.85v-1.56ZM436.15,48.53h1.75v6.18h-1.75v-6.18Z"/>
        <path class="cls-6" d="M439.56,48.53h1.75v.88c.4-.52.92-.99,1.81-.99,1.33,0,2.1.88,2.1,2.3v4h-1.75v-3.45c0-.83-.39-1.26-1.06-1.26s-1.1.43-1.1,1.26v3.45h-1.75v-6.18Z"/>
        <path class="cls-6" d="M447.04,52.96v-2.93h-.74v-1.5h.74v-1.58h1.75v1.58h1.45v1.5h-1.45v2.64c0,.4.17.6.57.6.32,0,.61-.08.87-.22v1.41c-.37.22-.8.36-1.38.36-1.07,0-1.8-.43-1.8-1.86Z"/>
        <path class="cls-6" d="M451.19,51.66v-.02c0-1.76,1.26-3.22,3.06-3.22,2.07,0,3.01,1.6,3.01,3.36,0,.14-.01.3-.02.46h-4.3c.17.8.73,1.21,1.51,1.21.59,0,1.02-.18,1.5-.63l1,.89c-.58.72-1.41,1.15-2.53,1.15-1.86,0-3.23-1.3-3.23-3.2ZM455.55,51.14c-.1-.78-.57-1.31-1.3-1.31s-1.2.52-1.34,1.31h2.64Z"/>
        <path class="cls-6" d="M458.57,48.53h1.75v.88c.4-.52.92-.99,1.81-.99,1.33,0,2.1.88,2.1,2.3v4h-1.75v-3.45c0-.83-.39-1.26-1.06-1.26s-1.1.43-1.1,1.26v3.45h-1.75v-6.18Z"/>
        <path class="cls-6" d="M465.42,52.94v-.02c0-1.35,1.03-1.97,2.49-1.97.62,0,1.07.1,1.51.25v-.1c0-.73-.45-1.13-1.33-1.13-.67,0-1.14.13-1.71.33l-.44-1.34c.68-.3,1.35-.5,2.4-.5.96,0,1.65.25,2.09.69.46.46.67,1.14.67,1.97v3.59h-1.7v-.67c-.43.47-1.01.78-1.87.78-1.17,0-2.12-.67-2.12-1.89ZM469.45,52.53v-.31c-.3-.14-.69-.23-1.12-.23-.75,0-1.21.3-1.21.85v.02c0,.47.39.75.96.75.82,0,1.37-.45,1.37-1.08Z"/>
        <path class="cls-6" d="M472.69,48.53h1.75v.88c.4-.52.92-.99,1.81-.99,1.33,0,2.1.88,2.1,2.3v4h-1.75v-3.45c0-.83-.39-1.26-1.06-1.26s-1.1.43-1.1,1.26v3.45h-1.75v-6.18Z"/>
        <path class="cls-6" d="M479.6,51.66v-.02c0-1.76,1.35-3.22,3.24-3.22,1.17,0,1.89.39,2.47,1.04l-1.07,1.15c-.39-.42-.78-.68-1.41-.68-.88,0-1.5.77-1.5,1.68v.02c0,.95.61,1.71,1.57,1.71.59,0,.99-.25,1.42-.66l1.03,1.04c-.6.66-1.29,1.13-2.53,1.13-1.86,0-3.22-1.43-3.22-3.2Z"/>
        <path class="cls-6" d="M486.03,51.66v-.02c0-1.76,1.26-3.22,3.06-3.22,2.07,0,3.01,1.6,3.01,3.36,0,.14-.01.3-.02.46h-4.3c.17.8.73,1.21,1.51,1.21.59,0,1.02-.18,1.5-.63l1,.89c-.58.72-1.41,1.15-2.53,1.15-1.86,0-3.23-1.3-3.23-3.2ZM490.39,51.14c-.1-.78-.57-1.31-1.3-1.31s-1.2.52-1.34,1.31h2.64Z"/>
      </g>
      <g>
        <path class="cls-6" d="M433.97,64.5v-2.93h-.74v-1.5h.74v-1.58h1.75v1.58h1.45v1.5h-1.45v2.64c0,.4.17.6.57.6.32,0,.61-.08.87-.22v1.41c-.37.22-.8.36-1.38.36-1.07,0-1.8-.43-1.8-1.86Z"/>
        <path class="cls-6" d="M438.57,57.83h1.75v3.11c.4-.52.92-.99,1.81-.99,1.33,0,2.1.88,2.1,2.3v4h-1.75v-3.45c0-.83-.39-1.26-1.06-1.26s-1.1.43-1.1,1.26v3.45h-1.75v-8.42Z"/>
        <path class="cls-6" d="M445.5,63.2v-.02c0-1.76,1.26-3.22,3.06-3.22,2.07,0,3.01,1.6,3.01,3.36,0,.14-.01.3-.02.46h-4.3c.17.8.73,1.21,1.51,1.21.59,0,1.02-.18,1.5-.63l1,.89c-.58.72-1.41,1.15-2.53,1.15-1.86,0-3.23-1.3-3.23-3.2ZM449.86,62.68c-.1-.78-.57-1.31-1.3-1.31s-1.2.52-1.34,1.31h2.64Z"/>
        <path class="cls-6" d="M452.88,60.07h1.75v1.25c.36-.85.93-1.41,1.97-1.36v1.83h-.09c-1.17,0-1.88.7-1.88,2.18v2.28h-1.75v-6.18Z"/>
        <path class="cls-6" d="M457.16,64.48v-.02c0-1.35,1.03-1.97,2.49-1.97.62,0,1.07.1,1.51.25v-.1c0-.73-.45-1.13-1.33-1.13-.67,0-1.14.13-1.71.33l-.44-1.34c.68-.3,1.35-.5,2.4-.5.96,0,1.65.25,2.09.69.46.46.67,1.14.67,1.97v3.59h-1.7v-.67c-.43.47-1.01.78-1.87.78-1.17,0-2.12-.67-2.12-1.89ZM461.19,64.07v-.31c-.3-.14-.69-.23-1.12-.23-.75,0-1.21.3-1.21.85v.02c0,.47.39.75.96.75.82,0,1.37-.45,1.37-1.08Z"/>
        <path class="cls-6" d="M464.43,60.07h1.75v.89c.43-.58,1.01-1,1.93-1,1.44,0,2.82,1.13,2.82,3.2v.02c0,2.06-1.35,3.2-2.82,3.2-.93,0-1.51-.43-1.93-.92v2.65h-1.75v-8.03ZM469.17,63.17v-.02c0-1.03-.69-1.71-1.51-1.71s-1.5.68-1.5,1.71v.02c0,1.03.68,1.71,1.5,1.71s1.51-.67,1.51-1.71Z"/>
        <path class="cls-6" d="M476.02,60.07h1.82l-2.38,6.33c-.47,1.26-.98,1.73-2.03,1.73-.63,0-1.11-.16-1.56-.43l.59-1.27c.23.14.52.24.75.24.3,0,.46-.09.61-.4l-2.42-6.21h1.86l1.41,4.21,1.35-4.21Z"/>
      </g>
      <g>
        <path class="cls-6" d="M144.58,303.07h1.27l1.12,3.65,1.21-3.66h1.01l1.21,3.66,1.12-3.65h1.24l-1.84,5.42h-1.03l-1.21-3.52-1.21,3.52h-1.03l-1.84-5.42Z"/>
        <path class="cls-6" d="M152.78,306.42v-.02c0-1.18.84-2.15,2.04-2.15,1.38,0,2.01,1.07,2.01,2.24,0,.09,0,.2-.02.31h-2.87c.12.53.48.81,1.01.81.39,0,.68-.12,1-.42l.67.59c-.38.48-.94.77-1.68.77-1.24,0-2.15-.87-2.15-2.13ZM155.69,306.07c-.07-.52-.38-.88-.87-.88s-.8.35-.89.88h1.76Z"/>
        <path class="cls-6" d="M157.32,306.42v-.02c0-1.18.84-2.15,2.04-2.15,1.38,0,2.01,1.07,2.01,2.24,0,.09,0,.2-.02.31h-2.87c.12.53.48.81,1.01.81.39,0,.68-.12,1-.42l.67.59c-.38.48-.94.77-1.68.77-1.24,0-2.15-.87-2.15-2.13ZM160.23,306.07c-.07-.52-.38-.88-.87-.88s-.8.35-.89.88h1.76Z"/>
        <path class="cls-6" d="M162.07,302.84h1.17v2.99l1.37-1.5h1.4l-1.57,1.62,1.62,2.5h-1.35l-1.05-1.69-.42.44v1.25h-1.17v-5.61Z"/>
        <path class="cls-6" d="M166.19,307.91l.5-.77c.45.32.92.49,1.3.49.34,0,.49-.12.49-.31v-.02c0-.25-.4-.34-.85-.48-.58-.17-1.23-.44-1.23-1.24v-.02c0-.84.68-1.31,1.51-1.31.52,0,1.09.18,1.54.48l-.45.81c-.41-.24-.82-.38-1.12-.38-.28,0-.43.12-.43.28v.02c0,.23.39.34.84.49.58.19,1.25.47,1.25,1.22v.02c0,.92-.68,1.33-1.58,1.33-.58,0-1.22-.19-1.77-.62Z"/>
      </g>
      <g>
        <path class="cls-8" d="M201.81,327.07h-8.25c-.99,0-1.8.81-1.8,1.8s.81,1.8,1.8,1.8h8.25"/>
        <path class="cls-8" d="M194,334.27h8.25c.99,0,1.8-.81,1.8-1.8s-.81-1.8-1.8-1.8h-8.25"/>
        <path class="cls-8" d="M197.34,321.44v.84c0,.65.53,1.18,1.18,1.18h3.73c.99,0,1.8.81,1.8,1.8s-.81,1.8-1.8,1.8h-8.25"/>
        <path class="cls-8" d="M198.47,339.9v-.84c0-.65-.53-1.18-1.18-1.18h-3.73c-.99,0-1.8-.81-1.8-1.8s.81-1.8,1.8-1.8h8.25"/>
        <path class="cls-8" d="M329.9,327.07h-8.25c-.99,0-1.8.81-1.8,1.8s.81,1.8,1.8,1.8h8.25"/>
        <path class="cls-8" d="M322.09,334.27h8.25c.99,0,1.8-.81,1.8-1.8s-.81-1.8-1.8-1.8h-8.25"/>
        <path class="cls-8" d="M325.43,321.44v.84c0,.65.53,1.18,1.18,1.18h3.73c.99,0,1.8.81,1.8,1.8s-.81,1.8-1.8,1.8h-8.25"/>
        <path class="cls-8" d="M326.56,339.9v-.84c0-.65-.53-1.18-1.18-1.18h-3.73c-.99,0-1.8-.81-1.8-1.8s.81-1.8,1.8-1.8h8.25"/>
        <path class="cls-8" d="M417.17,327.07h-8.25c-.99,0-1.8.81-1.8,1.8s.81,1.8,1.8,1.8h8.25"/>
        <path class="cls-8" d="M409.37,334.27h8.25c.99,0,1.8-.81,1.8-1.8s-.81-1.8-1.8-1.8h-8.25"/>
        <path class="cls-8" d="M412.71,321.44v.84c0,.65.53,1.18,1.18,1.18h3.73c.99,0,1.8.81,1.8,1.8s-.81,1.8-1.8,1.8h-8.25"/>
        <path class="cls-8" d="M413.83,339.9v-.84c0-.65-.53-1.18-1.18-1.18h-3.73c-.99,0-1.8-.81-1.8-1.8s.81-1.8,1.8-1.8h8.25"/>
        <path class="cls-8" d="M591.67,327.07h-8.25c-.99,0-1.8.81-1.8,1.8s.81,1.8,1.8,1.8h8.25"/>
        <path class="cls-8" d="M583.87,334.27h8.25c.99,0,1.8-.81,1.8-1.8s-.81-1.8-1.8-1.8h-8.25"/>
        <path class="cls-8" d="M587.21,321.44v.84c0,.65.53,1.18,1.18,1.18h3.73c.99,0,1.8.81,1.8,1.8s-.81,1.8-1.8,1.8h-8.25"/>
        <path class="cls-8" d="M588.34,339.9v-.84c0-.65-.53-1.18-1.18-1.18h-3.73c-.99,0-1.8-.81-1.8-1.8s.81-1.8,1.8-1.8h8.25"/>
      </g>
      <g>
        <path class="cls-6" d="M136.86,327.98h4.06v1.05h-2.88v1.09h2.54v1.05h-2.54v1.13h2.92v1.05h-4.1v-5.38Z"/>
        <path class="cls-6" d="M141.78,329.24h1.17v.58c.27-.35.62-.66,1.21-.66.88,0,1.4.58,1.4,1.53v2.67h-1.17v-2.3c0-.55-.26-.84-.71-.84s-.73.28-.73.84v2.3h-1.17v-4.12Z"/>
        <path class="cls-6" d="M146.26,331.31v-.02c0-1.38.9-2.13,1.88-2.13.62,0,1.01.28,1.28.62v-2.03h1.17v5.61h-1.17v-.59c-.28.38-.68.67-1.28.67-.96,0-1.88-.75-1.88-2.13ZM149.43,331.31v-.02c0-.68-.45-1.14-1-1.14s-1.01.45-1.01,1.14v.02c0,.68.46,1.14,1.01,1.14s1-.45,1-1.14Z"/>
        <path class="cls-6" d="M151.28,331.32v-.02c0-1.18.95-2.15,2.24-2.15s2.22.95,2.22,2.13v.02c0,1.18-.95,2.15-2.24,2.15s-2.22-.95-2.22-2.13ZM154.59,331.32v-.02c0-.61-.44-1.14-1.08-1.14s-1.07.52-1.07,1.12v.02c0,.61.44,1.14,1.08,1.14s1.07-.52,1.07-1.12Z"/>
        <path class="cls-6" d="M156.05,332.81l.5-.77c.45.32.92.49,1.3.49.34,0,.49-.12.49-.31v-.02c0-.25-.4-.34-.85-.48-.58-.17-1.23-.44-1.23-1.24v-.02c0-.84.68-1.31,1.51-1.31.52,0,1.09.18,1.54.48l-.45.81c-.41-.24-.82-.38-1.12-.38-.28,0-.43.12-.43.28v.02c0,.23.39.34.84.49.58.19,1.25.47,1.25,1.22v.02c0,.92-.68,1.33-1.58,1.33-.58,0-1.22-.19-1.77-.62Z"/>
        <path class="cls-6" d="M159.83,331.32v-.02c0-1.18.9-2.15,2.16-2.15.78,0,1.26.26,1.65.69l-.72.77c-.26-.28-.52-.45-.94-.45-.58,0-1,.52-1,1.12v.02c0,.63.41,1.14,1.05,1.14.39,0,.66-.17.95-.44l.68.69c-.4.44-.86.75-1.68.75-1.24,0-2.15-.95-2.15-2.13Z"/>
        <path class="cls-6" d="M163.91,331.32v-.02c0-1.18.95-2.15,2.24-2.15s2.22.95,2.22,2.13v.02c0,1.18-.95,2.15-2.24,2.15s-2.22-.95-2.22-2.13ZM167.22,331.32v-.02c0-.61-.44-1.14-1.08-1.14s-1.07.52-1.07,1.12v.02c0,.61.44,1.14,1.08,1.14s1.07-.52,1.07-1.12Z"/>
        <path class="cls-6" d="M169.07,329.24h1.17v.59c.29-.38.68-.67,1.29-.67.96,0,1.88.75,1.88,2.13v.02c0,1.38-.9,2.13-1.88,2.13-.62,0-1.01-.28-1.29-.62v1.77h-1.17v-5.35ZM172.23,331.31v-.02c0-.68-.46-1.14-1.01-1.14s-1,.45-1,1.14v.02c0,.68.45,1.14,1,1.14s1.01-.45,1.01-1.14Z"/>
        <path class="cls-6" d="M176.62,329.24h1.22l-1.58,4.22c-.31.84-.65,1.15-1.35,1.15-.42,0-.74-.11-1.04-.28l.39-.85c.15.09.35.16.5.16.2,0,.31-.06.41-.27l-1.62-4.14h1.24l.94,2.81.9-2.81Z"/>
      </g>
      <path class="cls-6" d="M194.32,305.5v-.02c0-2.34,1.45-4.18,3.6-4.18s3.58,1.81,3.58,4.15v.02c0,2.34-1.44,4.18-3.6,4.18s-3.58-1.81-3.58-4.15ZM199.67,305.5v-.02c0-1.46-.72-2.57-1.78-2.57s-1.75,1.07-1.75,2.55v.02c0,1.48.7,2.57,1.78,2.57s1.75-1.08,1.75-2.55Z"/>
      <g>
        <path class="cls-3" d="M182.49,162.17l.82-.78c.37.42.75.65,1.3.65.45,0,.76-.25.76-.65v-.02c0-.44-.39-.68-1.05-.68h-.49l-.18-.75,1.28-1.29h-2.12v-1.02h3.64v.89l-1.36,1.3c.73.12,1.45.51,1.45,1.51v.02c0,1.02-.74,1.76-1.94,1.76-.97,0-1.64-.38-2.1-.93Z"/>
        <path class="cls-3" d="M187.2,160.33v-.02c0-1.56.97-2.78,2.4-2.78s2.38,1.21,2.38,2.77v.02c0,1.56-.96,2.78-2.4,2.78s-2.38-1.21-2.38-2.77ZM190.77,160.33v-.02c0-.98-.48-1.72-1.18-1.72s-1.17.72-1.17,1.7v.02c0,.98.47,1.71,1.18,1.71s1.17-.72,1.17-1.7Z"/>
        <path class="cls-3" d="M192.68,160.33v-.02c0-1.56.97-2.78,2.4-2.78s2.38,1.21,2.38,2.77v.02c0,1.56-.96,2.78-2.4,2.78s-2.38-1.21-2.38-2.77ZM196.25,160.33v-.02c0-.98-.48-1.72-1.18-1.72s-1.17.72-1.17,1.7v.02c0,.98.47,1.71,1.18,1.71s1.17-.72,1.17-1.7Z"/>
        <path class="cls-3" d="M200.34,158.88h1.17v.58c.27-.35.62-.66,1.22-.66.54,0,.95.24,1.16.65.36-.42.79-.65,1.35-.65.87,0,1.39.52,1.39,1.52v2.68h-1.17v-2.3c0-.55-.25-.84-.68-.84s-.71.28-.71.84v2.3h-1.17v-2.3c0-.55-.25-.84-.68-.84s-.71.28-.71.84v2.3h-1.17v-4.12Z"/>
        <path class="cls-3" d="M207.51,163.82l.4-.88c.42.24.85.38,1.39.38.8,0,1.18-.38,1.18-1.12v-.2c-.35.42-.72.67-1.35.67-.96,0-1.83-.7-1.83-1.92v-.02c0-1.23.88-1.92,1.83-1.92.64,0,1.01.27,1.33.62v-.54h1.17v3.19c0,.74-.18,1.28-.52,1.62-.38.38-.98.55-1.78.55-.67,0-1.3-.15-1.82-.43ZM210.48,160.75v-.02c0-.56-.44-.95-1.01-.95s-1,.39-1,.95v.02c0,.57.43.95,1,.95s1.01-.39,1.01-.95Z"/>
        <path class="cls-3" d="M225.32,162.17l.82-.78c.37.42.75.65,1.3.65.45,0,.76-.25.76-.65v-.02c0-.44-.39-.68-1.05-.68h-.49l-.18-.75,1.28-1.29h-2.12v-1.02h3.64v.89l-1.36,1.3c.73.12,1.45.51,1.45,1.51v.02c0,1.02-.74,1.76-1.94,1.76-.97,0-1.64-.38-2.1-.93Z"/>
        <path class="cls-3" d="M230.02,160.33v-.02c0-1.56.97-2.78,2.4-2.78s2.38,1.21,2.38,2.77v.02c0,1.56-.96,2.78-2.4,2.78s-2.38-1.21-2.38-2.77ZM233.59,160.33v-.02c0-.98-.48-1.72-1.18-1.72s-1.17.72-1.17,1.7v.02c0,.98.47,1.71,1.18,1.71s1.17-.72,1.17-1.7Z"/>
        <path class="cls-3" d="M235.5,160.33v-.02c0-1.56.97-2.78,2.4-2.78s2.38,1.21,2.38,2.77v.02c0,1.56-.96,2.78-2.4,2.78s-2.38-1.21-2.38-2.77ZM239.07,160.33v-.02c0-.98-.48-1.72-1.18-1.72s-1.17.72-1.17,1.7v.02c0,.98.47,1.71,1.18,1.71s1.17-.72,1.17-1.7Z"/>
        <path class="cls-3" d="M243.16,158.88h1.17v.58c.27-.35.62-.66,1.22-.66.54,0,.95.24,1.16.65.36-.42.79-.65,1.35-.65.87,0,1.39.52,1.39,1.52v2.68h-1.17v-2.3c0-.55-.25-.84-.68-.84s-.71.28-.71.84v2.3h-1.17v-2.3c0-.55-.25-.84-.68-.84s-.71.28-.71.84v2.3h-1.17v-4.12Z"/>
        <path class="cls-3" d="M250.33,163.82l.4-.88c.42.24.85.38,1.39.38.8,0,1.18-.38,1.18-1.12v-.2c-.35.42-.72.67-1.35.67-.96,0-1.83-.7-1.83-1.92v-.02c0-1.23.88-1.92,1.83-1.92.64,0,1.01.27,1.33.62v-.54h1.17v3.19c0,.74-.18,1.28-.52,1.62-.38.38-.98.55-1.78.55-.67,0-1.3-.15-1.82-.43ZM253.3,160.75v-.02c0-.56-.44-.95-1.01-.95s-1,.39-1,.95v.02c0,.57.43.95,1,.95s1.01-.39,1.01-.95Z"/>
      </g>
      <line class="cls-9" x1="278.41" y1="183.92" x2="281.53" y2="183.92"/>
      <line class="cls-9" x1="278.41" y1="186.41" x2="281.53" y2="186.41"/>
      <line class="cls-9" x1="278.41" y1="181.42" x2="281.53" y2="181.42"/>
      <rect class="cls-9" x="280.6" y="191.41" width="4.99" height="3.12"/>
      <g>
        <path class="cls-9" d="M275.6,186.28v-12.32c0-.71.57-1.28,1.28-1.28h12.42c.71,0,1.28.57,1.28,1.28v12.32c0,2.83-2.3,5.13-5.13,5.13h-4.73c-2.83,0-5.13-2.3-5.13-5.13Z"/>
        <path class="cls-9" d="M284.65,172.68h-3.12v-1.56c0-.86.7-1.56,1.56-1.56s1.56.7,1.56,1.56v1.56Z"/>
        <path class="cls-9" d="M275.6,177.67s1.74-2.81,7.14,0c5.4,2.81,7.84,0,7.84,0"/>
      </g>
      <line class="cls-9" x1="283.09" y1="194.53" x2="283.09" y2="199.52"/>
      <line class="cls-13" x1="252.06" y1="181.46" x2="264.18" y2="181.46"/>
      <polygon class="cls-3" points="263.06 185.3 269.7 181.46 263.06 177.63 263.06 185.3"/>
      <g>
        <path class="cls-3" d="M268.42,162.17l.82-.78c.37.42.75.65,1.3.65.45,0,.76-.25.76-.65v-.02c0-.44-.39-.68-1.05-.68h-.49l-.18-.75,1.28-1.29h-2.12v-1.02h3.64v.89l-1.36,1.3c.73.12,1.45.51,1.45,1.51v.02c0,1.02-.74,1.76-1.94,1.76-.97,0-1.64-.38-2.1-.93Z"/>
        <path class="cls-3" d="M273.13,160.33v-.02c0-1.56.97-2.78,2.4-2.78s2.38,1.21,2.38,2.77v.02c0,1.56-.96,2.78-2.4,2.78s-2.38-1.21-2.38-2.77ZM276.7,160.33v-.02c0-.98-.48-1.72-1.18-1.72s-1.17.72-1.17,1.7v.02c0,.98.47,1.71,1.18,1.71s1.17-.72,1.17-1.7Z"/>
        <path class="cls-3" d="M278.6,160.33v-.02c0-1.56.97-2.78,2.4-2.78s2.38,1.21,2.38,2.77v.02c0,1.56-.96,2.78-2.4,2.78s-2.38-1.21-2.38-2.77ZM282.17,160.33v-.02c0-.98-.48-1.72-1.18-1.72s-1.17.72-1.17,1.7v.02c0,.98.47,1.71,1.18,1.71s1.17-.72,1.17-1.7Z"/>
        <path class="cls-3" d="M286.26,158.88h1.17v.58c.27-.35.62-.66,1.22-.66.54,0,.95.24,1.16.65.36-.42.79-.65,1.35-.65.87,0,1.39.52,1.39,1.52v2.68h-1.17v-2.3c0-.55-.25-.84-.68-.84s-.71.28-.71.84v2.3h-1.17v-2.3c0-.55-.25-.84-.68-.84s-.71.28-.71.84v2.3h-1.17v-4.12Z"/>
        <path class="cls-3" d="M293.44,163.82l.4-.88c.42.24.85.38,1.39.38.8,0,1.18-.38,1.18-1.12v-.2c-.35.42-.72.67-1.35.67-.96,0-1.83-.7-1.83-1.92v-.02c0-1.23.88-1.92,1.83-1.92.64,0,1.01.27,1.33.62v-.54h1.17v3.19c0,.74-.18,1.28-.52,1.62-.38.38-.98.55-1.78.55-.67,0-1.3-.15-1.82-.43ZM296.41,160.75v-.02c0-.56-.44-.95-1.01-.95s-1,.39-1,.95v.02c0,.57.43.95,1,.95s1.01-.39,1.01-.95Z"/>
      </g>
      <g>
        <path class="cls-3" d="M334.3,156.73h1.09l2.31,5.42h-1.24l-.49-1.21h-2.28l-.49,1.21h-1.21l2.31-5.42ZM335.55,159.9l-.71-1.75-.72,1.75h1.43Z"/>
        <path class="cls-3" d="M337.87,160.12v-.02c0-1.18.9-2.15,2.16-2.15.78,0,1.26.26,1.65.69l-.71.77c-.26-.28-.52-.45-.94-.45-.58,0-1,.52-1,1.12v.02c0,.63.41,1.14,1.05,1.14.39,0,.66-.17.95-.44l.68.69c-.4.44-.86.75-1.68.75-1.24,0-2.15-.95-2.15-2.13Z"/>
        <path class="cls-3" d="M342.54,160.98v-1.95h-.49v-1h.49v-1.05h1.17v1.05h.97v1h-.97v1.76c0,.27.12.4.38.4.22,0,.41-.05.58-.15v.94c-.25.15-.53.24-.92.24-.72,0-1.2-.28-1.2-1.24Z"/>
        <path class="cls-3" d="M345.43,156.54h1.23v1.04h-1.23v-1.04ZM345.46,158.03h1.17v4.12h-1.17v-4.12Z"/>
        <path class="cls-3" d="M347.12,158.03h1.24l.92,2.76.93-2.76h1.22l-1.62,4.15h-1.06l-1.62-4.15Z"/>
        <path class="cls-3" d="M351.53,160.12v-.02c0-1.18.84-2.15,2.04-2.15,1.38,0,2.01,1.07,2.01,2.24,0,.09,0,.2-.02.31h-2.87c.12.53.48.81,1.01.81.39,0,.68-.12,1-.42l.67.59c-.38.48-.94.77-1.68.77-1.24,0-2.15-.87-2.15-2.13ZM354.44,159.77c-.07-.52-.38-.88-.87-.88s-.8.35-.89.88h1.76Z"/>
        <path class="cls-3" d="M358.02,158.03h1.24l.92,2.76.93-2.76h1.21l-1.62,4.15h-1.06l-1.62-4.15Z"/>
        <path class="cls-3" d="M362.69,160.12v-.02c0-1.18.84-2.15,2.04-2.15,1.38,0,2.01,1.07,2.01,2.24,0,.09,0,.2-.02.31h-2.87c.12.53.48.81,1.01.81.39,0,.68-.12,1-.42l.67.59c-.38.48-.94.77-1.68.77-1.24,0-2.15-.87-2.15-2.13ZM365.59,159.77c-.07-.52-.38-.88-.87-.88s-.8.35-.89.88h1.76Z"/>
        <path class="cls-3" d="M367.3,160.1v-.02c0-1.38.9-2.13,1.88-2.13.62,0,1.01.28,1.28.62v-2.03h1.17v5.61h-1.17v-.59c-.28.38-.68.67-1.28.67-.96,0-1.88-.75-1.88-2.13ZM370.48,160.1v-.02c0-.68-.45-1.14-1-1.14s-1.01.45-1.01,1.14v.02c0,.68.46,1.14,1.01,1.14s1-.45,1-1.14Z"/>
        <path class="cls-3" d="M372.36,160.12v-.02c0-1.18.95-2.15,2.24-2.15s2.22.95,2.22,2.13v.02c0,1.18-.95,2.15-2.24,2.15s-2.22-.95-2.22-2.13ZM375.67,160.12v-.02c0-.61-.44-1.14-1.08-1.14s-1.07.52-1.07,1.12v.02c0,.61.44,1.14,1.08,1.14s1.07-.52,1.07-1.12Z"/>
        <path class="cls-3" d="M377.61,156.54h1.17v5.61h-1.17v-5.61Z"/>
        <path class="cls-3" d="M379.78,156.54h1.23v1.04h-1.23v-1.04ZM379.81,158.03h1.17v4.12h-1.17v-4.12Z"/>
        <path class="cls-3" d="M381.83,161.33l2.13-2.35h-2.06v-.95h3.51v.82l-2.14,2.35h2.14v.95h-3.58v-.82Z"/>
        <path class="cls-3" d="M386.15,160.7v-2.67h1.17v2.3c0,.55.26.84.71.84s.73-.28.73-.84v-2.3h1.17v4.12h-1.17v-.58c-.27.35-.62.66-1.21.66-.88,0-1.4-.58-1.4-1.53Z"/>
        <path class="cls-3" d="M390.86,158.03h1.17v.58c.27-.35.62-.66,1.21-.66.54,0,.95.24,1.16.65.36-.42.79-.65,1.35-.65.87,0,1.39.52,1.39,1.52v2.68h-1.17v-2.3c0-.55-.25-.84-.68-.84s-.71.28-.71.84v2.3h-1.17v-2.3c0-.55-.25-.84-.68-.84s-.71.28-.71.84v2.3h-1.17v-4.12Z"/>
        <path class="cls-3" d="M397.8,160.97v-.02c0-.9.68-1.31,1.66-1.31.42,0,.72.07,1.01.17v-.07c0-.48-.3-.75-.88-.75-.45,0-.76.08-1.14.22l-.29-.89c.45-.2.9-.33,1.6-.33.64,0,1.1.17,1.39.46.31.31.45.76.45,1.32v2.39h-1.13v-.45c-.28.32-.68.52-1.25.52-.78,0-1.41-.45-1.41-1.26ZM400.49,160.7v-.21c-.2-.09-.46-.15-.75-.15-.5,0-.81.2-.81.57v.02c0,.32.26.5.64.5.55,0,.92-.3.92-.72Z"/>
        <path class="cls-3" d="M403.65,161.62v.54h-1.17v-5.61h1.17v2.08c.29-.38.68-.67,1.29-.67.96,0,1.88.75,1.88,2.13v.02c0,1.38-.9,2.13-1.88,2.13-.62,0-1.01-.28-1.29-.62ZM405.65,160.1v-.02c0-.68-.46-1.14-1.01-1.14s-1,.45-1,1.14v.02c0,.68.45,1.14,1,1.14s1.01-.45,1.01-1.14Z"/>
      </g>
      <g>
        <path class="cls-3" d="M485.4,156.73h1.09l2.31,5.42h-1.24l-.49-1.21h-2.28l-.49,1.21h-1.21l2.31-5.42ZM486.65,159.9l-.71-1.75-.72,1.75h1.43Z"/>
        <path class="cls-3" d="M488.97,160.12v-.02c0-1.18.9-2.15,2.16-2.15.78,0,1.26.26,1.65.69l-.71.77c-.26-.28-.52-.45-.94-.45-.58,0-1,.52-1,1.12v.02c0,.63.41,1.14,1.05,1.14.39,0,.66-.17.95-.44l.68.69c-.4.44-.86.75-1.68.75-1.24,0-2.15-.95-2.15-2.13Z"/>
        <path class="cls-3" d="M493.65,160.98v-1.95h-.49v-1h.49v-1.05h1.17v1.05h.97v1h-.97v1.76c0,.27.12.4.38.4.22,0,.41-.05.58-.15v.94c-.25.15-.53.24-.92.24-.72,0-1.2-.28-1.2-1.24Z"/>
        <path class="cls-3" d="M496.53,156.54h1.23v1.04h-1.23v-1.04ZM496.56,158.03h1.17v4.12h-1.17v-4.12Z"/>
        <path class="cls-3" d="M498.23,158.03h1.24l.92,2.76.93-2.76h1.22l-1.62,4.15h-1.06l-1.62-4.15Z"/>
        <path class="cls-3" d="M502.64,160.12v-.02c0-1.18.84-2.15,2.04-2.15,1.38,0,2.01,1.07,2.01,2.24,0,.09,0,.2-.02.31h-2.87c.12.53.48.81,1.01.81.39,0,.68-.12,1-.42l.67.59c-.38.48-.94.77-1.68.77-1.24,0-2.15-.87-2.15-2.13ZM505.55,159.77c-.07-.52-.38-.88-.87-.88s-.8.35-.89.88h1.76Z"/>
        <path class="cls-3" d="M509.12,158.03h1.24l.92,2.76.93-2.76h1.21l-1.62,4.15h-1.06l-1.62-4.15Z"/>
        <path class="cls-3" d="M513.79,160.12v-.02c0-1.18.84-2.15,2.04-2.15,1.38,0,2.01,1.07,2.01,2.24,0,.09,0,.2-.02.31h-2.87c.12.53.48.81,1.01.81.39,0,.68-.12,1-.42l.67.59c-.38.48-.94.77-1.68.77-1.24,0-2.15-.87-2.15-2.13ZM516.7,159.77c-.07-.52-.38-.88-.87-.88s-.8.35-.89.88h1.76Z"/>
        <path class="cls-3" d="M518.4,160.1v-.02c0-1.38.9-2.13,1.88-2.13.62,0,1.01.28,1.28.62v-2.03h1.17v5.61h-1.17v-.59c-.28.38-.68.67-1.28.67-.96,0-1.88-.75-1.88-2.13ZM521.58,160.1v-.02c0-.68-.45-1.14-1-1.14s-1.01.45-1.01,1.14v.02c0,.68.46,1.14,1.01,1.14s1-.45,1-1.14Z"/>
        <path class="cls-3" d="M523.47,160.12v-.02c0-1.18.95-2.15,2.24-2.15s2.22.95,2.22,2.13v.02c0,1.18-.95,2.15-2.24,2.15s-2.22-.95-2.22-2.13ZM526.77,160.12v-.02c0-.61-.44-1.14-1.08-1.14s-1.07.52-1.07,1.12v.02c0,.61.44,1.14,1.08,1.14s1.07-.52,1.07-1.12Z"/>
        <path class="cls-3" d="M528.71,156.54h1.17v5.61h-1.17v-5.61Z"/>
        <path class="cls-3" d="M530.89,156.54h1.23v1.04h-1.23v-1.04ZM530.92,158.03h1.17v4.12h-1.17v-4.12Z"/>
        <path class="cls-3" d="M532.93,161.33l2.13-2.35h-2.06v-.95h3.51v.82l-2.14,2.35h2.14v.95h-3.58v-.82Z"/>
        <path class="cls-3" d="M537.25,160.7v-2.67h1.17v2.3c0,.55.26.84.71.84s.73-.28.73-.84v-2.3h1.17v4.12h-1.17v-.58c-.27.35-.62.66-1.21.66-.88,0-1.4-.58-1.4-1.53Z"/>
        <path class="cls-3" d="M541.96,158.03h1.17v.58c.27-.35.62-.66,1.21-.66.54,0,.95.24,1.16.65.36-.42.79-.65,1.35-.65.87,0,1.39.52,1.39,1.52v2.68h-1.17v-2.3c0-.55-.25-.84-.68-.84s-.71.28-.71.84v2.3h-1.17v-2.3c0-.55-.25-.84-.68-.84s-.71.28-.71.84v2.3h-1.17v-4.12Z"/>
        <path class="cls-3" d="M548.91,160.97v-.02c0-.9.68-1.31,1.66-1.31.42,0,.72.07,1.01.17v-.07c0-.48-.3-.75-.88-.75-.45,0-.76.08-1.14.22l-.29-.89c.45-.2.9-.33,1.6-.33.64,0,1.1.17,1.39.46.31.31.45.76.45,1.32v2.39h-1.13v-.45c-.28.32-.68.52-1.25.52-.78,0-1.41-.45-1.41-1.26ZM551.59,160.7v-.21c-.2-.09-.46-.15-.75-.15-.5,0-.81.2-.81.57v.02c0,.32.26.5.64.5.55,0,.92-.3.92-.72Z"/>
        <path class="cls-3" d="M554.76,161.62v.54h-1.17v-5.61h1.17v2.08c.29-.38.68-.67,1.29-.67.96,0,1.88.75,1.88,2.13v.02c0,1.38-.9,2.13-1.88,2.13-.62,0-1.01-.28-1.29-.62ZM556.75,160.1v-.02c0-.68-.46-1.14-1.01-1.14s-1,.45-1,1.14v.02c0,.68.45,1.14,1,1.14s1.01-.45,1.01-1.14Z"/>
      </g>
      <g>
        <path class="cls-3" d="M339.32,164.46h1.18v5.38h-1.18v-5.38Z"/>
        <path class="cls-3" d="M341.15,164.46h1.31l1.41,3.79,1.41-3.79h1.28l-2.18,5.42h-1.05l-2.18-5.42Z"/>
        <path class="cls-3" d="M348.97,169l.82-.78c.37.42.75.65,1.3.65.45,0,.76-.25.76-.65v-.02c0-.44-.39-.68-1.05-.68h-.49l-.18-.75,1.28-1.29h-2.12v-1.02h3.64v.89l-1.36,1.3c.73.12,1.45.51,1.45,1.51v.02c0,1.02-.74,1.76-1.94,1.76-.97,0-1.64-.38-2.1-.93Z"/>
        <path class="cls-3" d="M353.67,167.16v-.02c0-1.56.97-2.78,2.4-2.78s2.38,1.21,2.38,2.77v.02c0,1.56-.96,2.78-2.4,2.78s-2.38-1.21-2.38-2.77ZM357.24,167.16v-.02c0-.98-.48-1.72-1.18-1.72s-1.17.72-1.17,1.7v.02c0,.98.47,1.71,1.18,1.71s1.17-.72,1.17-1.7Z"/>
        <path class="cls-3" d="M359.14,167.16v-.02c0-1.56.97-2.78,2.4-2.78s2.38,1.21,2.38,2.77v.02c0,1.56-.96,2.78-2.4,2.78s-2.38-1.21-2.38-2.77ZM362.71,167.16v-.02c0-.98-.48-1.72-1.18-1.72s-1.17.72-1.17,1.7v.02c0,.98.47,1.71,1.18,1.71s1.17-.72,1.17-1.7Z"/>
        <path class="cls-3" d="M366.8,165.72h1.17v.58c.27-.35.62-.66,1.22-.66.54,0,.95.24,1.16.65.36-.42.79-.65,1.35-.65.87,0,1.39.52,1.39,1.52v2.68h-1.17v-2.3c0-.55-.25-.84-.68-.84s-.71.28-.71.84v2.3h-1.17v-2.3c0-.55-.25-.84-.68-.84s-.71.28-.71.84v2.3h-1.17v-4.12Z"/>
        <path class="cls-3" d="M373.98,170.66l.4-.88c.42.24.85.38,1.39.38.8,0,1.18-.38,1.18-1.12v-.2c-.35.42-.72.67-1.35.67-.96,0-1.83-.7-1.83-1.92v-.02c0-1.23.88-1.92,1.83-1.92.64,0,1.01.27,1.33.62v-.54h1.17v3.19c0,.74-.18,1.28-.52,1.62-.38.38-.98.55-1.78.55-.67,0-1.3-.15-1.82-.43ZM376.95,167.58v-.02c0-.56-.44-.95-1.01-.95s-1,.39-1,.95v.02c0,.57.43.95,1,.95s1.01-.39,1.01-.95Z"/>
        <path class="cls-3" d="M386.01,170l-.59-.53c-.45.29-1,.46-1.6.46-1.66,0-2.85-1.24-2.85-2.77v-.02c0-1.53,1.21-2.78,2.87-2.78s2.85,1.24,2.85,2.77v.02c0,.57-.18,1.1-.48,1.55l.55.47-.75.84ZM384.55,168.69l-.88-.75.75-.85.88.8c.09-.22.15-.47.15-.74v-.02c0-.92-.68-1.69-1.63-1.69s-1.62.75-1.62,1.68v.02c0,.92.68,1.69,1.63,1.69.26,0,.5-.05.71-.15Z"/>
        <path class="cls-3" d="M387.35,168.36v-.02c0-.65.3-1.04.87-1.3-.42-.25-.68-.6-.68-1.18v-.02c0-.82.75-1.48,1.89-1.48s1.89.65,1.89,1.48v.02c0,.58-.27.92-.68,1.18.55.28.87.63.87,1.27v.02c0,1-.88,1.58-2.08,1.58s-2.08-.62-2.08-1.55ZM390.35,168.27v-.02c0-.42-.39-.66-.93-.66s-.93.25-.93.66v.02c0,.37.35.67.93.67s.93-.29.93-.67ZM390.19,166v-.02c0-.33-.28-.63-.77-.63s-.77.29-.77.62v.02c0,.38.3.66.77.66s.77-.28.77-.65Z"/>
        <path class="cls-3" d="M391.74,164.46h1.27l1.11,3.65,1.21-3.66h1.01l1.21,3.66,1.12-3.65h1.24l-1.84,5.42h-1.03l-1.21-3.52-1.21,3.52h-1.03l-1.84-5.42Z"/>
      </g>
      <g>
        <path class="cls-3" d="M357.4,175.32c0-1.48.71-2.52,2.13-3.29l.52.78c-1.04.72-1.48,1.43-1.48,2.51s.45,1.79,1.48,2.51l-.52.78c-1.42-.77-2.13-1.81-2.13-3.29Z"/>
        <path class="cls-3" d="M360.48,173.41h1.17v.58c.27-.35.62-.66,1.21-.66.88,0,1.4.58,1.4,1.53v2.67h-1.17v-2.3c0-.55-.26-.84-.71-.84s-.73.28-.73.84v2.3h-1.17v-4.12Z"/>
        <path class="cls-3" d="M365.18,173.29h3.8v1.06h-3.8v-1.06ZM365.18,175.29h3.8v1.06h-3.8v-1.06Z"/>
        <path class="cls-3" d="M372.19,173.17h-2.53v-1.02h3.88v.89l-2.41,4.49h-1.34l2.41-4.36Z"/>
        <path class="cls-3" d="M374.59,177.05c-.39-.39-.64-.97-.64-2.04v-.02c0-1.66.75-2.94,2.36-2.94.73,0,1.21.22,1.68.59l-.62.92c-.35-.27-.64-.43-1.1-.43-.81,0-1.04.78-1.08,1.25.29-.19.62-.35,1.12-.35,1.07,0,1.89.59,1.89,1.71v.02c0,1.1-.88,1.86-2.05,1.86-.7,0-1.18-.2-1.55-.58ZM377.02,175.82v-.02c0-.45-.35-.78-.94-.78s-.92.32-.92.78v.02c0,.45.35.8.94.8s.92-.33.92-.79Z"/>
        <path class="cls-3" d="M378.68,177.84c1.04-.72,1.48-1.43,1.48-2.51s-.45-1.79-1.48-2.51l.51-.78c1.42.77,2.13,1.81,2.13,3.29s-.72,2.52-2.13,3.29l-.51-.78Z"/>
      </g>
      <line class="cls-13" x1="597.22" y1="181.46" x2="440.13" y2="181.46"/>
      <polygon class="cls-3" points="596.1 177.63 602.74 181.47 596.1 185.3 596.1 177.63"/>
      <g>
        <path class="cls-3" d="M490.07,164.46h1.18v5.38h-1.18v-5.38Z"/>
        <path class="cls-3" d="M491.9,164.46h1.31l1.41,3.79,1.41-3.79h1.28l-2.18,5.42h-1.05l-2.18-5.42Z"/>
        <path class="cls-3" d="M499.71,169l.82-.78c.37.42.75.65,1.3.65.45,0,.76-.25.76-.65v-.02c0-.44-.39-.68-1.05-.68h-.49l-.18-.75,1.28-1.29h-2.12v-1.02h3.64v.89l-1.36,1.3c.73.12,1.45.51,1.45,1.51v.02c0,1.02-.74,1.76-1.94,1.76-.97,0-1.64-.38-2.1-.93Z"/>
        <path class="cls-3" d="M504.41,167.16v-.02c0-1.56.97-2.78,2.4-2.78s2.38,1.21,2.38,2.77v.02c0,1.56-.96,2.78-2.4,2.78s-2.38-1.21-2.38-2.77ZM507.98,167.16v-.02c0-.98-.48-1.72-1.18-1.72s-1.17.72-1.17,1.7v.02c0,.98.47,1.71,1.18,1.71s1.17-.72,1.17-1.7Z"/>
        <path class="cls-3" d="M509.88,167.16v-.02c0-1.56.97-2.78,2.4-2.78s2.38,1.21,2.38,2.77v.02c0,1.56-.96,2.78-2.4,2.78s-2.38-1.21-2.38-2.77ZM513.45,167.16v-.02c0-.98-.48-1.72-1.18-1.72s-1.17.72-1.17,1.7v.02c0,.98.47,1.71,1.18,1.71s1.17-.72,1.17-1.7Z"/>
        <path class="cls-3" d="M517.54,165.72h1.17v.58c.27-.35.62-.66,1.22-.66.54,0,.95.24,1.16.65.36-.42.79-.65,1.35-.65.87,0,1.39.52,1.39,1.52v2.68h-1.17v-2.3c0-.55-.25-.84-.68-.84s-.71.28-.71.84v2.3h-1.17v-2.3c0-.55-.25-.84-.68-.84s-.71.28-.71.84v2.3h-1.17v-4.12Z"/>
        <path class="cls-3" d="M524.72,170.66l.4-.88c.42.24.85.38,1.39.38.8,0,1.18-.38,1.18-1.12v-.2c-.35.42-.72.67-1.35.67-.96,0-1.83-.7-1.83-1.92v-.02c0-1.23.88-1.92,1.83-1.92.64,0,1.01.27,1.33.62v-.54h1.17v3.19c0,.74-.18,1.28-.52,1.62-.38.38-.98.55-1.78.55-.67,0-1.3-.15-1.82-.43ZM527.69,167.58v-.02c0-.56-.44-.95-1.01-.95s-1,.39-1,.95v.02c0,.57.43.95,1,.95s1.01-.39,1.01-.95Z"/>
        <path class="cls-3" d="M536.75,170l-.59-.53c-.45.29-1,.46-1.6.46-1.66,0-2.85-1.24-2.85-2.77v-.02c0-1.53,1.21-2.78,2.87-2.78s2.85,1.24,2.85,2.77v.02c0,.57-.18,1.1-.48,1.55l.55.47-.75.84ZM535.29,168.69l-.88-.75.75-.85.88.8c.09-.22.15-.47.15-.74v-.02c0-.92-.68-1.69-1.63-1.69s-1.62.75-1.62,1.68v.02c0,.92.68,1.69,1.63,1.69.26,0,.5-.05.71-.15Z"/>
        <path class="cls-3" d="M538.09,168.36v-.02c0-.65.3-1.04.87-1.3-.42-.25-.68-.6-.68-1.18v-.02c0-.82.75-1.48,1.89-1.48s1.89.65,1.89,1.48v.02c0,.58-.27.92-.68,1.18.55.28.87.63.87,1.27v.02c0,1-.88,1.58-2.08,1.58s-2.08-.62-2.08-1.55ZM541.09,168.27v-.02c0-.42-.39-.66-.93-.66s-.93.25-.93.66v.02c0,.37.35.67.93.67s.93-.29.93-.67ZM540.93,166v-.02c0-.33-.28-.63-.77-.63s-.77.29-.77.62v.02c0,.38.3.66.77.66s.77-.28.77-.65Z"/>
        <path class="cls-3" d="M542.48,164.46h1.27l1.11,3.65,1.21-3.66h1.01l1.21,3.66,1.12-3.65h1.24l-1.84,5.42h-1.03l-1.21-3.52-1.21,3.52h-1.03l-1.84-5.42Z"/>
      </g>
      <g>
        <path class="cls-3" d="M506.46,175.32c0-1.48.71-2.52,2.13-3.29l.52.78c-1.04.72-1.48,1.43-1.48,2.51s.45,1.79,1.48,2.51l-.52.78c-1.42-.77-2.13-1.81-2.13-3.29Z"/>
        <path class="cls-3" d="M509.54,173.41h1.17v.58c.27-.35.62-.66,1.21-.66.88,0,1.4.58,1.4,1.53v2.67h-1.17v-2.3c0-.55-.26-.84-.71-.84s-.73.28-.73.84v2.3h-1.17v-4.12Z"/>
        <path class="cls-3" d="M514.24,173.29h3.8v1.06h-3.8v-1.06ZM514.24,175.29h3.8v1.06h-3.8v-1.06Z"/>
        <path class="cls-3" d="M519.65,177.05c-.39-.39-.64-.97-.64-2.04v-.02c0-1.66.75-2.94,2.36-2.94.73,0,1.21.22,1.68.59l-.62.92c-.35-.27-.64-.43-1.1-.43-.81,0-1.05.78-1.08,1.25.28-.19.62-.35,1.12-.35,1.07,0,1.89.59,1.89,1.71v.02c0,1.1-.88,1.86-2.05,1.86-.7,0-1.18-.2-1.55-.58ZM522.08,175.82v-.02c0-.45-.35-.78-.94-.78s-.92.32-.92.78v.02c0,.45.35.8.94.8s.92-.33.92-.79Z"/>
        <path class="cls-3" d="M523.75,176.69l.82-.78c.37.42.75.65,1.3.65.45,0,.76-.25.76-.65v-.02c0-.44-.39-.68-1.05-.68h-.49l-.18-.75,1.28-1.29h-2.12v-1.02h3.64v.89l-1.36,1.3c.73.12,1.45.51,1.45,1.51v.02c0,1.02-.74,1.76-1.94,1.76-.97,0-1.64-.38-2.1-.93Z"/>
        <path class="cls-3" d="M528.34,177.84c1.04-.72,1.48-1.43,1.48-2.51s-.45-1.79-1.48-2.51l.51-.78c1.42.77,2.13,1.81,2.13,3.29s-.72,2.52-2.13,3.29l-.51-.78Z"/>
        <path class="cls-3" d="M532.39,173.62l-.92.08v-.64l.92.08-.1-.99h.71l-.1.99.92-.08v.64l-.92-.08.08,2.08h-.65l.08-2.08Z"/>
      </g>
      <g>
        <path class="cls-6" d="M236.45,308.11l2.69-2.2c1-.83,1.4-1.27,1.4-1.94s-.45-1.05-1.08-1.05-1.05.35-1.65,1.08l-1.25-1c.8-1.08,1.57-1.67,3.01-1.67,1.67,0,2.78.98,2.78,2.49v.02c0,1.35-.69,2.02-2.12,3.13l-1.32,1.02h3.52v1.53h-5.98v-1.41Z"/>
        <path class="cls-6" d="M282.02,308.79c-.59-.59-.96-1.45-.96-3.06v-.02c0-2.49,1.13-4.41,3.54-4.41,1.1,0,1.81.32,2.53.89l-.93,1.37c-.53-.4-.96-.65-1.65-.65-1.21,0-1.57,1.17-1.63,1.87.43-.29.93-.52,1.67-.52,1.6,0,2.84.89,2.84,2.57v.02c0,1.65-1.33,2.79-3.08,2.79-1.05,0-1.76-.3-2.33-.87ZM285.66,306.94v-.02c0-.68-.53-1.18-1.41-1.18s-1.38.48-1.38,1.17v.02c0,.68.53,1.2,1.41,1.2s1.38-.5,1.38-1.19Z"/>
      </g>
      <g>
        <path class="cls-6" d="M321.72,303.18l-1.41.35-.37-1.45,2.32-.69h1.21v8.13h-1.75v-6.33Z"/>
        <path class="cls-6" d="M328.99,307.77h-3.95l-.29-1.26,4.43-5.13h1.5v4.95h1.08v1.44h-1.08v1.74h-1.7v-1.74ZM328.99,306.33v-2.52l-2.15,2.52h2.15Z"/>
      </g>
      <g>
        <path class="cls-6" d="M363.3,308.11l2.69-2.2c1-.83,1.4-1.27,1.4-1.94s-.45-1.05-1.08-1.05-1.05.35-1.65,1.08l-1.25-1c.8-1.08,1.57-1.67,3.01-1.67,1.67,0,2.78.98,2.78,2.49v.02c0,1.35-.69,2.02-2.12,3.13l-1.32,1.02h3.52v1.53h-5.98v-1.41Z"/>
        <path class="cls-6" d="M370.5,308.11l2.69-2.2c1-.83,1.4-1.27,1.4-1.94s-.45-1.05-1.08-1.05-1.05.35-1.65,1.08l-1.25-1c.8-1.08,1.57-1.67,3.01-1.67,1.67,0,2.78.98,2.78,2.49v.02c0,1.35-.69,2.02-2.12,3.13l-1.31,1.02h3.52v1.53h-5.98v-1.41Z"/>
      </g>
      <g>
        <path class="cls-6" d="M406.4,308.11l2.69-2.2c1-.83,1.4-1.27,1.4-1.94s-.45-1.05-1.08-1.05-1.05.35-1.65,1.08l-1.25-1c.8-1.08,1.57-1.67,3.01-1.67,1.67,0,2.78.98,2.78,2.49v.02c0,1.35-.69,2.02-2.12,3.13l-1.32,1.02h3.52v1.53h-5.98v-1.41Z"/>
        <path class="cls-6" d="M414.65,308.79c-.59-.59-.96-1.45-.96-3.06v-.02c0-2.49,1.13-4.41,3.54-4.41,1.1,0,1.81.32,2.53.89l-.93,1.37c-.53-.4-.96-.65-1.65-.65-1.21,0-1.57,1.17-1.63,1.87.43-.29.93-.52,1.67-.52,1.6,0,2.84.89,2.84,2.57v.02c0,1.65-1.33,2.79-3.08,2.79-1.05,0-1.76-.3-2.33-.87ZM418.3,306.94v-.02c0-.68-.53-1.18-1.41-1.18s-1.38.48-1.38,1.17v.02c0,.68.53,1.2,1.41,1.2s1.38-.5,1.38-1.19Z"/>
      </g>
      <g>
        <path class="cls-6" d="M450.09,308.26l1.22-1.17c.55.62,1.13.97,1.95.97.67,0,1.14-.38,1.14-.98v-.02c0-.66-.59-1.03-1.58-1.03h-.74l-.28-1.13,1.93-1.94h-3.17v-1.52h5.46v1.34l-2.04,1.95c1.1.18,2.17.76,2.17,2.26v.02c0,1.52-1.11,2.64-2.91,2.64-1.45,0-2.46-.58-3.15-1.4Z"/>
        <path class="cls-6" d="M457.42,305.5v-.02c0-2.34,1.45-4.18,3.6-4.18s3.58,1.81,3.58,4.15v.02c0,2.34-1.44,4.18-3.6,4.18s-3.58-1.81-3.58-4.15ZM462.77,305.5v-.02c0-1.46-.72-2.57-1.78-2.57s-1.75,1.07-1.75,2.55v.02c0,1.48.7,2.57,1.78,2.57s1.75-1.08,1.75-2.55Z"/>
      </g>
      <g>
        <path class="cls-6" d="M490.43,308.26l1.22-1.17c.55.62,1.13.97,1.95.97.67,0,1.14-.38,1.14-.98v-.02c0-.66-.59-1.03-1.58-1.03h-.74l-.28-1.13,1.93-1.94h-3.17v-1.52h5.46v1.34l-2.04,1.95c1.1.18,2.17.76,2.17,2.26v.02c0,1.52-1.11,2.64-2.91,2.64-1.45,0-2.46-.58-3.15-1.4Z"/>
        <path class="cls-6" d="M497.76,307.3v-.02c0-.98.45-1.56,1.3-1.95-.62-.38-1.03-.9-1.03-1.76v-.02c0-1.23,1.13-2.21,2.84-2.21s2.84.97,2.84,2.21v.02c0,.86-.4,1.38-1.03,1.76.82.43,1.3.95,1.3,1.9v.02c0,1.5-1.33,2.38-3.11,2.38s-3.11-.92-3.11-2.33ZM502.27,307.16v-.02c0-.62-.59-.99-1.4-.99s-1.4.37-1.4.99v.02c0,.55.52,1,1.4,1s1.4-.44,1.4-1ZM502.02,303.76v-.02c0-.5-.43-.95-1.15-.95s-1.15.44-1.15.93v.02c0,.56.45.99,1.15.99s1.15-.42,1.15-.98Z"/>
      </g>
      <g>
        <path class="cls-6" d="M536.81,307.77h-3.94l-.29-1.26,4.43-5.13h1.5v4.95h1.08v1.44h-1.08v1.74h-1.7v-1.74ZM536.81,306.33v-2.52l-2.15,2.52h2.15Z"/>
        <path class="cls-6" d="M541.73,308.79c-.59-.59-.96-1.45-.96-3.06v-.02c0-2.49,1.13-4.41,3.54-4.41,1.1,0,1.81.32,2.53.89l-.93,1.37c-.53-.4-.96-.65-1.65-.65-1.21,0-1.57,1.17-1.63,1.87.43-.29.93-.52,1.67-.52,1.6,0,2.84.89,2.84,2.57v.02c0,1.65-1.33,2.79-3.08,2.79-1.05,0-1.76-.3-2.33-.87ZM545.38,306.94v-.02c0-.68-.53-1.18-1.41-1.18s-1.38.48-1.38,1.17v.02c0,.68.53,1.2,1.41,1.2s1.38-.5,1.38-1.19Z"/>
      </g>
      <g>
        <path class="cls-6" d="M577.21,308.44l1.07-1.28c.61.55,1.21.88,1.93.88.83,0,1.35-.4,1.35-1.12v-.02c0-.69-.59-1.1-1.43-1.1-.51,0-.97.14-1.35.3l-1.03-.68.23-3.98h4.96v1.56h-3.44l-.09,1.4c.32-.08.61-.14,1.06-.14,1.57,0,2.83.76,2.83,2.58v.02c0,1.71-1.21,2.79-3.07,2.79-1.29,0-2.24-.46-3.02-1.21Z"/>
        <path class="cls-6" d="M584.42,308.11l2.69-2.2c1-.83,1.4-1.27,1.4-1.94s-.45-1.05-1.08-1.05-1.05.35-1.65,1.08l-1.25-1c.8-1.08,1.57-1.67,3.01-1.67,1.67,0,2.78.98,2.78,2.49v.02c0,1.35-.69,2.02-2.12,3.13l-1.32,1.02h3.52v1.53h-5.98v-1.41Z"/>
      </g>
      <path class="cls-2" d="M102.29,180.73c0,28.25-22.9,51.14-51.14,51.14S0,208.97,0,180.73s22.9-51.14,51.14-51.14,51.14,22.9,51.14,51.14"/>
      <g>
        <path class="cls-6" d="M20.94,161.73h1.92l2.12,3.42,2.12-3.42h1.92v8.08h-1.76v-5.27l-2.27,3.45h-.05l-2.25-3.41v5.24h-1.74v-8.08Z"/>
        <path class="cls-6" d="M30.52,166.74v-.02c0-1.78,1.43-3.22,3.36-3.22s3.33,1.42,3.33,3.2v.02c0,1.78-1.43,3.22-3.36,3.22s-3.33-1.42-3.33-3.2ZM35.48,166.74v-.02c0-.91-.66-1.71-1.63-1.71s-1.6.77-1.6,1.68v.02c0,.91.66,1.71,1.63,1.71s1.6-.77,1.6-1.68Z"/>
        <path class="cls-6" d="M38.22,166.72v-.02c0-2.06,1.35-3.2,2.81-3.2.93,0,1.51.43,1.93.92v-3.05h1.75v8.42h-1.75v-.89c-.43.58-1.02,1-1.93,1-1.44,0-2.81-1.13-2.81-3.2ZM42.99,166.72v-.02c0-1.03-.68-1.71-1.5-1.71s-1.51.67-1.51,1.71v.02c0,1.03.69,1.71,1.51,1.71s1.5-.68,1.5-1.71Z"/>
        <path class="cls-6" d="M46.03,166.74v-.02c0-1.76,1.26-3.22,3.06-3.22,2.07,0,3.01,1.6,3.01,3.36,0,.14-.01.3-.02.46h-4.3c.17.8.73,1.21,1.51,1.21.59,0,1.02-.18,1.5-.63l1,.89c-.58.72-1.41,1.15-2.53,1.15-1.86,0-3.23-1.3-3.23-3.2ZM50.39,166.22c-.1-.78-.57-1.31-1.3-1.31s-1.2.52-1.34,1.31h2.64Z"/>
        <path class="cls-6" d="M53.42,163.62h1.75v1.25c.36-.85.93-1.41,1.97-1.36v1.83h-.09c-1.17,0-1.88.7-1.88,2.18v2.28h-1.75v-6.18Z"/>
        <path class="cls-6" d="M57.69,168.02v-.02c0-1.35,1.03-1.97,2.49-1.97.62,0,1.07.1,1.51.25v-.1c0-.73-.45-1.13-1.33-1.13-.67,0-1.14.13-1.71.33l-.44-1.34c.68-.3,1.35-.5,2.4-.5.96,0,1.65.25,2.09.69.46.46.67,1.14.67,1.97v3.59h-1.7v-.67c-.43.47-1.01.78-1.87.78-1.17,0-2.12-.67-2.12-1.89ZM61.71,167.62v-.31c-.3-.14-.69-.23-1.12-.23-.75,0-1.21.3-1.21.85v.02c0,.47.39.75.96.75.82,0,1.37-.45,1.37-1.08Z"/>
        <path class="cls-6" d="M65.16,168.05v-2.93h-.74v-1.5h.74v-1.58h1.75v1.58h1.45v1.5h-1.45v2.64c0,.4.17.6.57.6.32,0,.61-.08.87-.22v1.41c-.37.22-.8.36-1.38.36-1.07,0-1.8-.43-1.8-1.86Z"/>
        <path class="cls-6" d="M69.31,166.74v-.02c0-1.76,1.26-3.22,3.06-3.22,2.07,0,3.01,1.6,3.01,3.36,0,.14-.01.3-.02.46h-4.3c.17.8.73,1.21,1.51,1.21.59,0,1.02-.18,1.5-.63l1,.89c-.58.72-1.41,1.15-2.53,1.15-1.86,0-3.23-1.3-3.23-3.2ZM73.67,166.22c-.1-.78-.57-1.31-1.3-1.31s-1.2.52-1.34,1.31h2.64Z"/>
        <path class="cls-6" d="M76.78,165.41h4.94v1.64h-4.94v-1.64Z"/>
      </g>
      <g>
        <path class="cls-6" d="M21.94,180.52l.75-1.15c.67.48,1.37.74,1.95.74.51,0,.74-.18.74-.46v-.02c0-.38-.6-.51-1.28-.72-.87-.25-1.85-.66-1.85-1.86v-.02c0-1.26,1.02-1.96,2.26-1.96.79,0,1.64.27,2.31.72l-.67,1.21c-.61-.36-1.22-.58-1.67-.58-.43,0-.65.18-.65.43v.02c0,.35.59.51,1.26.74.87.29,1.87.7,1.87,1.83v.02c0,1.37-1.03,2-2.37,2-.87,0-1.83-.29-2.65-.93Z"/>
        <path class="cls-6" d="M27.9,178.28v-.02c0-1.76,1.26-3.22,3.06-3.22,2.07,0,3.01,1.6,3.01,3.36,0,.14-.01.3-.02.46h-4.3c.17.8.73,1.21,1.51,1.21.59,0,1.02-.18,1.5-.63l1,.89c-.58.72-1.41,1.15-2.53,1.15-1.86,0-3.23-1.3-3.23-3.2ZM32.26,177.76c-.1-.78-.57-1.31-1.3-1.31s-1.2.52-1.34,1.31h2.64Z"/>
        <path class="cls-6" d="M34.42,175.15h1.86l1.38,4.14,1.4-4.14h1.82l-2.43,6.23h-1.59l-2.43-6.23Z"/>
        <path class="cls-6" d="M41.31,178.28v-.02c0-1.76,1.26-3.22,3.06-3.22,2.07,0,3.01,1.6,3.01,3.36,0,.14-.01.3-.02.46h-4.3c.17.8.73,1.21,1.51,1.21.59,0,1.02-.18,1.5-.63l1,.89c-.58.72-1.41,1.15-2.53,1.15-1.86,0-3.23-1.3-3.23-3.2ZM45.67,177.76c-.1-.78-.57-1.31-1.3-1.31s-1.2.52-1.34,1.31h2.64Z"/>
        <path class="cls-6" d="M48.69,175.15h1.75v1.25c.36-.85.93-1.41,1.97-1.36v1.83h-.09c-1.17,0-1.88.7-1.88,2.18v2.28h-1.75v-6.18Z"/>
        <path class="cls-6" d="M53.16,178.28v-.02c0-1.76,1.26-3.22,3.06-3.22,2.07,0,3.01,1.6,3.01,3.36,0,.14-.01.3-.02.46h-4.3c.17.8.73,1.21,1.51,1.21.59,0,1.02-.18,1.5-.63l1,.89c-.58.72-1.41,1.15-2.53,1.15-1.86,0-3.23-1.3-3.23-3.2ZM57.52,177.76c-.1-.78-.57-1.31-1.3-1.31s-1.2.52-1.34,1.31h2.64Z"/>
        <path class="cls-6" d="M63.82,177.32v-.02c0-2.3,1.73-4.18,4.21-4.18,1.52,0,2.43.51,3.18,1.25l-1.13,1.3c-.62-.57-1.26-.91-2.06-.91-1.36,0-2.34,1.13-2.34,2.51v.02c0,1.38.96,2.54,2.34,2.54.92,0,1.49-.37,2.12-.95l1.13,1.14c-.83.89-1.75,1.44-3.31,1.44-2.38,0-4.14-1.83-4.14-4.15Z"/>
        <path class="cls-6" d="M72.64,173.26h3.15c2.54,0,4.29,1.74,4.29,4.01v.02c0,2.27-1.75,4.04-4.29,4.04h-3.15v-8.08ZM74.41,174.87v4.87h1.37c1.45,0,2.43-.98,2.43-2.41v-.02c0-1.43-.98-2.43-2.43-2.43h-1.37Z"/>
      </g>
      <g>
        <path class="cls-6" d="M36.05,190.57h.85l5.09,6.47v-6.47h.89v8.08h-.73l-5.21-6.62v6.62h-.89v-8.08Z"/>
        <path class="cls-6" d="M45.03,192.8h5.36v.85h-5.36v-.85ZM45.03,195.5h5.36v.85h-5.36v-.85Z"/>
        <path class="cls-6" d="M52.88,191.46l-1.52.47-.22-.74,1.97-.68h.67v8.13h-.9v-7.19Z"/>
        <path class="cls-6" d="M56.99,191.46l-1.52.47-.22-.74,1.97-.68h.67v8.13h-.9v-7.19Z"/>
        <path class="cls-6" d="M59.86,194.63v-.02c0-2.26,1.35-4.18,3.43-4.18s3.39,1.89,3.39,4.15v.02c0,2.26-1.34,4.18-3.42,4.18s-3.4-1.89-3.4-4.15ZM65.73,194.63v-.02c0-1.76-.97-3.35-2.47-3.35s-2.46,1.55-2.46,3.32v.02c0,1.77.97,3.35,2.48,3.35s2.45-1.56,2.45-3.32Z"/>
      </g>
    </g>
  </g>
</svg>