<?xml version="1.0" encoding="UTF-8"?>
<svg id="Layer_2" data-name="Layer 2" xmlns="http://www.w3.org/2000/svg" viewBox="0 0 348.4 202.35">
  <defs>
    <style>
      .cls-1 {
        fill: none;
        stroke: #6b0762;
        stroke-miterlimit: 10;
      }

      .cls-2 {
        fill: #862580;
      }

      .cls-2, .cls-3, .cls-4, .cls-5 {
        stroke-width: 0px;
      }

      .cls-3 {
        fill: #fff;
      }

      .cls-4 {
        fill: #231f20;
      }

      .cls-5 {
        fill: #6b0762;
      }
    </style>
  </defs>
  <g id="Layer_1-2" data-name="Layer 1">
    <g>
      <path class="cls-4" d="M46.98.42h1.23l3.49,8.45L55.2.42h1.19l-4.22,9.88h-.98L46.98.42Z"/>
      <path class="cls-4" d="M56.71,6.63v-.03c0-2.09,1.47-3.77,3.47-3.77,2.14,0,3.38,1.71,3.38,3.82,0,.14,0,.22-.01.35h-5.74c.15,1.57,1.26,2.45,2.55,2.45.99,0,1.69-.41,2.28-1.02l.67.6c-.73.81-1.61,1.36-2.98,1.36-1.99,0-3.61-1.53-3.61-3.77ZM62.47,6.21c-.11-1.32-.87-2.46-2.31-2.46-1.26,0-2.21,1.05-2.35,2.46h4.66Z"/>
      <path class="cls-4" d="M65.02,6.63v-.03c0-2.37,1.72-3.77,3.46-3.77,1.34,0,2.21.73,2.77,1.54V0h1.08v10.23h-1.08v-1.46c-.59.87-1.44,1.61-2.77,1.61-1.74,0-3.46-1.37-3.46-3.75ZM71.3,6.61v-.03c0-1.67-1.27-2.79-2.62-2.79s-2.55,1.04-2.55,2.79v.03c0,1.71,1.18,2.8,2.55,2.8s2.62-1.13,2.62-2.8Z"/>
      <path class="cls-4" d="M74.29,6.64v-.03c0-2.04,1.6-3.78,3.78-3.78s3.77,1.71,3.77,3.75v.03c0,2.05-1.61,3.78-3.8,3.78s-3.75-1.71-3.75-3.75ZM80.74,6.64v-.03c0-1.55-1.16-2.83-2.69-2.83s-2.65,1.27-2.65,2.8v.03c0,1.55,1.15,2.82,2.68,2.82s2.66-1.26,2.66-2.79Z"/>
      <path class="cls-4" d="M83.88,0h1.08v10.23h-1.08V0Z"/>
      <path class="cls-4" d="M87.49.21h1.23v1.19h-1.23V.21ZM87.56,2.98h1.08v7.24h-1.08V2.98Z"/>
      <path class="cls-4" d="M90.73,9.54l4.8-5.64h-4.64v-.91h6.11v.69l-4.82,5.65h4.82v.91h-6.28v-.69Z"/>
      <path class="cls-4" d="M98.82,7.48V2.98h1.08v4.23c0,1.34.73,2.19,2,2.19s2.17-.91,2.17-2.27V2.98h1.06v7.24h-1.06v-1.26c-.49.78-1.23,1.42-2.48,1.42-1.75,0-2.77-1.18-2.77-2.9Z"/>
      <path class="cls-4" d="M107.56,2.98h1.08v1.22c.48-.71,1.12-1.37,2.34-1.37s1.93.63,2.33,1.44c.52-.8,1.29-1.44,2.55-1.44,1.67,0,2.69,1.12,2.69,2.91v4.48h-1.08v-4.23c0-1.4-.7-2.18-1.88-2.18-1.09,0-2,.81-2,2.24v4.17h-1.06v-4.26c0-1.36-.71-2.16-1.86-2.16s-2.02.95-2.02,2.28v4.13h-1.08V2.98Z"/>
      <path class="cls-4" d="M120.28,8.12v-.03c0-1.53,1.26-2.34,3.1-2.34.92,0,1.58.13,2.23.31v-.25c0-1.3-.8-1.98-2.16-1.98-.85,0-1.53.22-2.2.53l-.32-.88c.8-.36,1.58-.6,2.63-.6s1.81.27,2.34.8c.49.49.74,1.19.74,2.12v4.43h-1.04v-1.09c-.5.66-1.34,1.25-2.62,1.25-1.34,0-2.7-.77-2.7-2.26ZM125.62,7.56v-.7c-.53-.15-1.25-.31-2.13-.31-1.36,0-2.12.59-2.12,1.5v.03c0,.91.84,1.44,1.82,1.44,1.33,0,2.42-.81,2.42-1.96Z"/>
      <path class="cls-4" d="M130.01,8.84v1.39h-1.08V0h1.08v4.44c.59-.87,1.44-1.61,2.77-1.61,1.74,0,3.46,1.37,3.46,3.75v.03c0,2.37-1.71,3.77-3.46,3.77-1.34,0-2.21-.73-2.77-1.54ZM135.14,6.63v-.03c0-1.71-1.18-2.8-2.55-2.8s-2.62,1.13-2.62,2.79v.03c0,1.68,1.27,2.8,2.62,2.8s2.55-1.04,2.55-2.79Z"/>
      <path class="cls-4" d="M141.88,8.12v-.03c0-1.53,1.26-2.34,3.1-2.34.92,0,1.58.13,2.23.31v-.25c0-1.3-.8-1.98-2.16-1.98-.85,0-1.53.22-2.2.53l-.32-.88c.8-.36,1.58-.6,2.63-.6s1.81.27,2.34.8c.49.49.74,1.19.74,2.12v4.43h-1.04v-1.09c-.5.66-1.34,1.25-2.62,1.25-1.34,0-2.7-.77-2.7-2.26ZM147.22,7.56v-.7c-.53-.15-1.25-.31-2.13-.31-1.36,0-2.12.59-2.12,1.5v.03c0,.91.84,1.44,1.82,1.44,1.33,0,2.42-.81,2.42-1.96Z"/>
      <path class="cls-4" d="M150.54,2.98h1.08v1.26c.48-.78,1.23-1.42,2.48-1.42,1.75,0,2.77,1.18,2.77,2.9v4.5h-1.08v-4.23c0-1.34-.73-2.18-2-2.18s-2.17.91-2.17,2.27v4.15h-1.08V2.98Z"/>
      <path class="cls-4" d="M159.54,8.31V3.94h-1.01v-.95h1.01V.8h1.08v2.18h2.3v.95h-2.3v4.23c0,.88.49,1.21,1.22,1.21.36,0,.67-.07,1.05-.25v.92c-.38.2-.78.31-1.3.31-1.16,0-2.04-.57-2.04-2.04Z"/>
      <path class="cls-4" d="M164.84.21h1.23v1.19h-1.23V.21ZM164.91,2.98h1.08v7.24h-1.08V2.98Z"/>
      <path class="cls-4" d="M168.2,5.45h3.89v1.13h-3.89v-1.13Z"/>
      <path class="cls-4" d="M175.74,1.44h-3.31V.42h7.72v1.02h-3.31v8.78h-1.11V1.44Z"/>
      <path class="cls-4" d="M182.16.42h1.04l6.18,7.86V.42h1.08v9.81h-.88l-6.33-8.04v8.04h-1.08V.42Z"/>
      <path class="cls-4" d="M193.22.42h7.05v1.02h-5.94v3.5h5.31v1.01h-5.31v4.27h-1.11V.42Z"/>
      <path class="cls-4" d="M205.97,6.63v-.03c0-2.09,1.47-3.77,3.47-3.77,2.14,0,3.38,1.71,3.38,3.82,0,.14,0,.22-.01.35h-5.74c.15,1.57,1.26,2.45,2.55,2.45.99,0,1.69-.41,2.28-1.02l.67.6c-.73.81-1.61,1.36-2.98,1.36-1.99,0-3.61-1.53-3.61-3.77ZM211.73,6.21c-.11-1.32-.87-2.46-2.31-2.46-1.26,0-2.21,1.05-2.35,2.46h4.66Z"/>
      <path class="cls-4" d="M217.11,5.81l2.16-2.83h1.2l-2.75,3.54,2.86,3.7h-1.25l-2.24-2.98-2.26,2.98h-1.2l2.83-3.68-2.72-3.56h1.23l2.13,2.83Z"/>
      <path class="cls-4" d="M222.33,2.98h1.08v1.46c.59-.87,1.44-1.61,2.77-1.61,1.74,0,3.46,1.37,3.46,3.75v.03c0,2.37-1.71,3.77-3.46,3.77-1.34,0-2.21-.73-2.77-1.54v3.63h-1.08V2.98ZM228.53,6.63v-.03c0-1.71-1.18-2.8-2.55-2.8s-2.62,1.13-2.62,2.79v.03c0,1.68,1.27,2.8,2.62,2.8s2.55-1.04,2.55-2.79Z"/>
      <path class="cls-4" d="M231.17,6.64v-.03c0-2.04,1.6-3.78,3.78-3.78s3.77,1.71,3.77,3.75v.03c0,2.05-1.61,3.78-3.8,3.78s-3.75-1.71-3.75-3.75ZM237.62,6.64v-.03c0-1.55-1.16-2.83-2.69-2.83s-2.65,1.27-2.65,2.8v.03c0,1.55,1.15,2.82,2.68,2.82s2.66-1.26,2.66-2.79Z"/>
      <path class="cls-4" d="M240.06,9.3l.55-.77c.78.59,1.65.92,2.51.92s1.5-.45,1.5-1.15v-.03c0-.73-.85-1.01-1.81-1.27-1.13-.32-2.4-.71-2.4-2.04v-.03c0-1.25,1.04-2.07,2.47-2.07.88,0,1.86.31,2.61.8l-.49.81c-.67-.43-1.44-.7-2.14-.7-.85,0-1.4.45-1.4,1.05v.03c0,.69.9.95,1.86,1.25,1.12.34,2.33.77,2.33,2.07v.03c0,1.37-1.13,2.17-2.58,2.17-1.04,0-2.19-.41-3-1.06Z"/>
      <path class="cls-4" d="M247.53,7.48V2.98h1.08v4.23c0,1.34.73,2.19,2,2.19s2.17-.91,2.17-2.27V2.98h1.06v7.24h-1.06v-1.26c-.49.78-1.23,1.42-2.48,1.42-1.75,0-2.77-1.18-2.77-2.9Z"/>
      <path class="cls-4" d="M256.26,2.98h1.08v1.89c.53-1.21,1.58-2.07,2.96-2.02v1.16h-.08c-1.58,0-2.87,1.13-2.87,3.32v2.89h-1.08V2.98Z"/>
      <path class="cls-4" d="M261.18,6.63v-.03c0-2.09,1.47-3.77,3.47-3.77,2.14,0,3.38,1.71,3.38,3.82,0,.14,0,.22-.01.35h-5.74c.15,1.57,1.26,2.45,2.55,2.45.99,0,1.69-.41,2.28-1.02l.67.6c-.73.81-1.61,1.36-2.98,1.36-1.99,0-3.61-1.53-3.61-3.77ZM266.93,6.21c-.11-1.32-.87-2.46-2.31-2.46-1.26,0-2.21,1.05-2.35,2.46h4.66Z"/>
      <path class="cls-4" d="M273.57,8.12v-.03c0-1.53,1.26-2.34,3.1-2.34.92,0,1.58.13,2.23.31v-.25c0-1.3-.8-1.98-2.16-1.98-.85,0-1.53.22-2.2.53l-.32-.88c.8-.36,1.58-.6,2.63-.6s1.81.27,2.34.8c.49.49.74,1.19.74,2.12v4.43h-1.04v-1.09c-.5.66-1.34,1.25-2.62,1.25-1.34,0-2.7-.77-2.7-2.26ZM278.9,7.56v-.7c-.53-.15-1.25-.31-2.13-.31-1.36,0-2.12.59-2.12,1.5v.03c0,.91.84,1.44,1.82,1.44,1.33,0,2.42-.81,2.42-1.96Z"/>
      <path class="cls-4" d="M282.53,8.31V3.94h-1.01v-.95h1.01V.8h1.08v2.18h2.3v.95h-2.3v4.23c0,.88.49,1.21,1.22,1.21.36,0,.67-.07,1.05-.25v.92c-.38.2-.78.31-1.3.31-1.16,0-2.04-.57-2.04-2.04Z"/>
      <path class="cls-4" d="M137.46,25.64v1.39h-1.08v-10.23h1.08v4.44c.59-.87,1.44-1.61,2.77-1.61,1.74,0,3.46,1.37,3.46,3.75v.03c0,2.37-1.71,3.77-3.46,3.77-1.34,0-2.21-.73-2.77-1.54ZM142.59,23.43v-.03c0-1.71-1.18-2.8-2.55-2.8s-2.62,1.13-2.62,2.79v.03c0,1.68,1.27,2.8,2.62,2.8s2.55-1.04,2.55-2.79Z"/>
      <path class="cls-4" d="M145.13,24.92v-.03c0-1.53,1.26-2.34,3.1-2.34.92,0,1.58.13,2.23.31v-.25c0-1.3-.8-1.98-2.16-1.98-.85,0-1.53.22-2.2.53l-.32-.88c.8-.36,1.58-.6,2.63-.6s1.81.27,2.34.8c.49.49.74,1.19.74,2.12v4.43h-1.04v-1.09c-.5.66-1.34,1.25-2.62,1.25-1.34,0-2.7-.77-2.7-2.26ZM150.47,24.36v-.7c-.53-.15-1.25-.31-2.13-.31-1.36,0-2.12.59-2.12,1.5v.03c0,.91.84,1.44,1.82,1.44,1.33,0,2.42-.81,2.42-1.96Z"/>
      <path class="cls-4" d="M153.18,26.1l.55-.77c.78.59,1.65.92,2.51.92s1.5-.45,1.5-1.15v-.03c0-.73-.85-1.01-1.81-1.27-1.13-.32-2.4-.71-2.4-2.04v-.03c0-1.25,1.04-2.07,2.47-2.07.88,0,1.86.31,2.61.8l-.49.81c-.67-.43-1.44-.7-2.14-.7-.85,0-1.4.45-1.4,1.05v.03c0,.69.9.95,1.86,1.25,1.12.34,2.33.77,2.33,2.07v.03c0,1.37-1.13,2.17-2.58,2.17-1.04,0-2.19-.41-3-1.06Z"/>
      <path class="cls-4" d="M160.31,23.43v-.03c0-2.09,1.47-3.77,3.47-3.77,2.14,0,3.38,1.71,3.38,3.82,0,.14,0,.22-.01.35h-5.74c.15,1.57,1.26,2.45,2.55,2.45.99,0,1.69-.41,2.28-1.02l.67.6c-.73.81-1.61,1.36-2.98,1.36-1.99,0-3.61-1.53-3.61-3.77ZM166.06,23c-.11-1.32-.87-2.46-2.31-2.46-1.26,0-2.21,1.05-2.35,2.46h4.66Z"/>
      <path class="cls-4" d="M169.14,16.8h1.08v10.23h-1.08v-10.23Z"/>
      <path class="cls-4" d="M172.75,17.01h1.23v1.19h-1.23v-1.19ZM172.82,19.78h1.08v7.24h-1.08v-7.24Z"/>
      <path class="cls-4" d="M176.41,19.78h1.08v1.26c.48-.78,1.23-1.41,2.48-1.41,1.75,0,2.77,1.18,2.77,2.9v4.5h-1.08v-4.23c0-1.34-.73-2.18-2-2.18s-2.17.91-2.17,2.27v4.15h-1.08v-7.24Z"/>
      <path class="cls-4" d="M184.58,23.43v-.03c0-2.09,1.47-3.77,3.47-3.77,2.14,0,3.38,1.71,3.38,3.82,0,.14,0,.22-.01.35h-5.74c.15,1.57,1.26,2.45,2.55,2.45.99,0,1.69-.41,2.28-1.02l.67.6c-.73.81-1.61,1.36-2.98,1.36-1.99,0-3.61-1.53-3.61-3.77ZM190.34,23c-.11-1.32-.87-2.46-2.31-2.46-1.26,0-2.21,1.05-2.35,2.46h4.66Z"/>
      <path class="cls-4" d="M194.62,19.71l-1.44,1.02-.38-.66,1.62-.74-1.62-.76.38-.64,1.44,1.01-.14-1.75h.73l-.14,1.75,1.44-1.01.38.64-1.62.76,1.62.74-.38.66-1.44-1.02.14,1.75h-.73l.14-1.75Z"/>
    </g>
    <g>
      <path class="cls-4" d="M243.62,102.44h.89l3.83,8.46h-1.02l-.98-2.22h-4.57l-1,2.22h-.97l3.83-8.46ZM245.96,107.82l-1.91-4.28-1.92,4.28h3.83Z"/>
      <path class="cls-4" d="M249.81,104.69h.92v1.08c.41-.67,1.06-1.21,2.12-1.21,1.5,0,2.37,1.01,2.37,2.48v3.85h-.92v-3.62c0-1.15-.62-1.87-1.72-1.87s-1.86.78-1.86,1.94v3.55h-.92v-6.2Z"/>
      <path class="cls-4" d="M257.51,109.25v-3.74h-.86v-.82h.86v-1.87h.92v1.87h1.97v.82h-1.97v3.62c0,.75.42,1.03,1.04,1.03.31,0,.58-.06.9-.22v.79c-.32.17-.67.26-1.12.26-1,0-1.75-.49-1.75-1.75Z"/>
      <path class="cls-4" d="M262.03,102.32h1.05v1.02h-1.05v-1.02ZM262.09,104.69h.92v6.2h-.92v-6.2Z"/>
      <path class="cls-4" d="M264.88,106.8h3.33v.97h-3.33v-.97Z"/>
      <path class="cls-4" d="M272.35,103.37h-2.83v-.88h6.61v.88h-2.83v7.52h-.95v-7.52Z"/>
      <path class="cls-4" d="M277.83,102.5h.89l5.29,6.73v-6.73h.92v8.4h-.75l-5.42-6.88v6.88h-.92v-8.4Z"/>
      <path class="cls-4" d="M287.29,102.5h6.03v.88h-5.08v3h4.55v.86h-4.55v3.66h-.95v-8.4Z"/>
      <path class="cls-4" d="M294.73,106.8h3.33v.97h-3.33v-.97Z"/>
      <path class="cls-4" d="M299.47,107.81v-.02c0-1.79,1.26-3.23,2.97-3.23,1.83,0,2.89,1.46,2.89,3.27,0,.12,0,.19-.01.3h-4.92c.13,1.34,1.08,2.1,2.18,2.1.85,0,1.45-.35,1.96-.88l.58.52c-.62.7-1.38,1.16-2.55,1.16-1.7,0-3.09-1.31-3.09-3.23ZM304.4,107.45c-.1-1.13-.74-2.11-1.98-2.11-1.08,0-1.89.9-2.01,2.11h3.99Z"/>
      <path class="cls-4" d="M309.34,107.11l1.85-2.42h1.03l-2.35,3.03,2.45,3.17h-1.07l-1.92-2.55-1.93,2.55h-1.03l2.42-3.15-2.33-3.05h1.06l1.82,2.42Z"/>
      <path class="cls-4" d="M313.8,104.69h.92v1.25c.5-.74,1.24-1.38,2.38-1.38,1.49,0,2.96,1.17,2.96,3.21v.02c0,2.03-1.46,3.23-2.96,3.23-1.15,0-1.9-.62-2.38-1.32v3.11h-.92v-8.12ZM319.11,107.81v-.02c0-1.46-1.01-2.4-2.18-2.4s-2.24.97-2.24,2.39v.02c0,1.44,1.09,2.4,2.24,2.4s2.18-.89,2.18-2.39Z"/>
      <path class="cls-4" d="M321.36,107.82v-.02c0-1.75,1.37-3.24,3.24-3.24s3.23,1.46,3.23,3.21v.02c0,1.75-1.38,3.24-3.25,3.24s-3.21-1.46-3.21-3.21ZM326.87,107.82v-.02c0-1.33-1-2.42-2.3-2.42s-2.27,1.09-2.27,2.4v.02c0,1.33.98,2.41,2.29,2.41s2.28-1.08,2.28-2.39Z"/>
      <path class="cls-4" d="M328.95,110.1l.47-.66c.67.5,1.42.79,2.15.79s1.28-.38,1.28-.98v-.02c0-.62-.73-.86-1.55-1.09-.97-.28-2.05-.61-2.05-1.75v-.02c0-1.07.89-1.78,2.11-1.78.75,0,1.59.26,2.23.68l-.42.7c-.58-.37-1.24-.6-1.83-.6-.73,0-1.2.38-1.2.9v.02c0,.59.77.82,1.59,1.07.96.29,1.99.66,1.99,1.78v.02c0,1.18-.97,1.86-2.21,1.86-.89,0-1.87-.35-2.57-.91Z"/>
      <path class="cls-4" d="M335.04,107.81v-.02c0-1.79,1.26-3.23,2.97-3.23,1.83,0,2.89,1.46,2.89,3.27,0,.12,0,.19-.01.3h-4.92c.13,1.34,1.08,2.1,2.18,2.1.85,0,1.45-.35,1.96-.88l.58.52c-.62.7-1.38,1.16-2.55,1.16-1.7,0-3.09-1.31-3.09-3.23ZM339.97,107.45c-.1-1.13-.74-2.11-1.98-2.11-1.08,0-1.89.9-2.01,2.11h3.99Z"/>
      <path class="cls-4" d="M342.14,107.81v-.02c0-2.03,1.47-3.23,2.96-3.23,1.15,0,1.9.62,2.38,1.32v-3.74h.92v8.75h-.92v-1.25c-.5.74-1.24,1.38-2.38,1.38-1.49,0-2.96-1.17-2.96-3.21ZM347.51,107.8v-.02c0-1.43-1.09-2.39-2.24-2.39s-2.18.89-2.18,2.39v.02c0,1.46,1.01,2.4,2.18,2.4s2.24-.97,2.24-2.4Z"/>
      <path class="cls-4" d="M240.36,119.09h.92v1.25c.5-.74,1.24-1.38,2.38-1.38,1.49,0,2.96,1.17,2.96,3.21v.02c0,2.03-1.46,3.23-2.96,3.23-1.15,0-1.9-.62-2.38-1.32v3.11h-.92v-8.12ZM245.67,122.21v-.02c0-1.46-1.01-2.4-2.18-2.4s-2.24.97-2.24,2.39v.02c0,1.44,1.09,2.4,2.24,2.4s2.18-.89,2.18-2.39Z"/>
      <path class="cls-4" d="M247.83,123.49v-.02c0-1.31,1.08-2,2.65-2,.79,0,1.36.11,1.91.26v-.22c0-1.12-.68-1.69-1.85-1.69-.73,0-1.31.19-1.88.46l-.28-.75c.68-.31,1.36-.52,2.25-.52s1.55.23,2,.68c.42.42.64,1.02.64,1.81v3.79h-.89v-.94c-.43.56-1.15,1.07-2.24,1.07-1.15,0-2.32-.66-2.32-1.93ZM252.4,123.01v-.6c-.46-.13-1.07-.26-1.82-.26-1.16,0-1.81.5-1.81,1.28v.02c0,.78.72,1.24,1.56,1.24,1.14,0,2.07-.7,2.07-1.68Z"/>
      <path class="cls-4" d="M255.55,123.65v-3.74h-.86v-.82h.86v-1.87h.92v1.87h1.97v.82h-1.97v3.62c0,.75.42,1.03,1.04,1.03.31,0,.58-.06.9-.22v.79c-.32.17-.67.26-1.12.26-1,0-1.75-.49-1.75-1.75Z"/>
      <path class="cls-4" d="M260.07,116.72h1.06v1.02h-1.06v-1.02ZM260.13,119.09h.92v6.2h-.92v-6.2Z"/>
      <path class="cls-4" d="M262.8,122.21v-.02c0-1.79,1.26-3.23,2.97-3.23,1.83,0,2.89,1.46,2.89,3.27,0,.12,0,.19-.01.3h-4.92c.13,1.34,1.08,2.1,2.18,2.1.85,0,1.45-.35,1.96-.88l.58.52c-.62.7-1.38,1.16-2.55,1.16-1.7,0-3.09-1.31-3.09-3.23ZM267.73,121.85c-.1-1.13-.74-2.11-1.98-2.11-1.08,0-1.89.9-2.01,2.11h3.99Z"/>
      <path class="cls-4" d="M270.26,119.09h.92v1.08c.41-.67,1.06-1.21,2.12-1.21,1.5,0,2.37,1.01,2.37,2.48v3.85h-.92v-3.62c0-1.15-.62-1.87-1.72-1.87s-1.86.78-1.86,1.94v3.55h-.92v-6.2Z"/>
      <path class="cls-4" d="M277.95,123.65v-3.74h-.86v-.82h.86v-1.87h.92v1.87h1.97v.82h-1.97v3.62c0,.75.42,1.03,1.04,1.03.31,0,.58-.06.9-.22v.79c-.32.17-.67.26-1.12.26-1,0-1.75-.49-1.75-1.75Z"/>
      <path class="cls-4" d="M281.94,124.5l.47-.66c.67.5,1.42.79,2.15.79s1.28-.38,1.28-.98v-.02c0-.62-.73-.86-1.55-1.09-.97-.28-2.05-.61-2.05-1.75v-.02c0-1.07.89-1.78,2.11-1.78.75,0,1.59.26,2.23.68l-.42.7c-.58-.37-1.24-.6-1.83-.6-.73,0-1.2.38-1.2.9v.02c0,.59.77.82,1.59,1.07.96.29,1.99.66,1.99,1.78v.02c0,1.18-.97,1.86-2.21,1.86-.89,0-1.87-.35-2.57-.91Z"/>
    </g>
    <g>
      <path class="cls-4" d="M40.59,190.57h1.12l3.57,5.35,3.57-5.35h1.12v9.81h-1.11v-7.94l-3.57,5.25h-.06l-3.57-5.24v7.93h-1.08v-9.81Z"/>
      <path class="cls-4" d="M52.08,196.78v-.03c0-2.09,1.47-3.77,3.47-3.77,2.14,0,3.38,1.71,3.38,3.82,0,.14,0,.22-.01.35h-5.74c.15,1.57,1.26,2.45,2.55,2.45.99,0,1.7-.41,2.28-1.02l.67.6c-.73.81-1.61,1.36-2.98,1.36-1.99,0-3.61-1.53-3.61-3.77ZM57.84,196.36c-.11-1.32-.87-2.46-2.31-2.46-1.26,0-2.21,1.05-2.35,2.46h4.67Z"/>
      <path class="cls-4" d="M60.24,198.28v-.03c0-1.53,1.26-2.34,3.1-2.34.92,0,1.58.13,2.23.31v-.25c0-1.3-.8-1.98-2.16-1.98-.85,0-1.53.22-2.2.53l-.32-.88c.8-.36,1.58-.6,2.63-.6s1.81.27,2.34.8c.49.49.74,1.19.74,2.12v4.43h-1.04v-1.09c-.5.66-1.34,1.25-2.62,1.25-1.35,0-2.7-.77-2.7-2.26ZM65.58,197.72v-.7c-.53-.15-1.25-.31-2.13-.31-1.36,0-2.12.59-2.12,1.5v.03c0,.91.84,1.44,1.82,1.44,1.33,0,2.42-.81,2.42-1.96Z"/>
      <path class="cls-4" d="M68.87,193.14h1.08v1.26c.48-.78,1.23-1.42,2.48-1.42,1.75,0,2.77,1.18,2.77,2.9v4.5h-1.08v-4.23c0-1.34-.73-2.18-2-2.18s-2.17.91-2.17,2.27v4.15h-1.08v-7.24Z"/>
      <path class="cls-4" d="M81.38,195.5v-.03c0-2.77,2.07-5.07,4.96-5.07,1.78,0,2.84.63,3.82,1.55l-.76.81c-.83-.78-1.75-1.34-3.08-1.34-2.17,0-3.8,1.77-3.8,4.02v.03c0,2.27,1.64,4.05,3.8,4.05,1.34,0,2.23-.52,3.17-1.42l.73.71c-1.02,1.04-2.14,1.72-3.92,1.72-2.83,0-4.92-2.23-4.92-5.04Z"/>
      <path class="cls-4" d="M92.18,190.57h3.4c3.08,0,5.21,2.12,5.21,4.88v.03c0,2.76-2.13,4.9-5.21,4.9h-3.4v-9.81ZM93.28,191.59v7.76h2.3c2.48,0,4.06-1.68,4.06-3.85v-.03c0-2.17-1.58-3.88-4.06-3.88h-2.3Z"/>
      <path class="cls-4" d="M106.72,190.5h1.04l4.47,9.88h-1.19l-1.15-2.59h-5.34l-1.16,2.59h-1.13l4.47-9.88ZM109.46,196.79l-2.23-5-2.24,5h4.47Z"/>
      <path class="cls-4" d="M114.23,190.57h1.11v9.81h-1.11v-9.81Z"/>
      <path class="cls-4" d="M121.56,199.45l.55-.77c.78.59,1.65.92,2.51.92s1.5-.45,1.5-1.15v-.03c0-.73-.85-1.01-1.81-1.27-1.13-.32-2.4-.71-2.4-2.04v-.03c0-1.25,1.04-2.07,2.47-2.07.88,0,1.86.31,2.61.8l-.49.81c-.67-.43-1.44-.7-2.14-.7-.85,0-1.4.45-1.4,1.05v.03c0,.69.9.95,1.86,1.25,1.12.34,2.33.77,2.33,2.07v.03c0,1.37-1.13,2.17-2.58,2.17-1.04,0-2.18-.41-3-1.06Z"/>
      <path class="cls-4" d="M128.66,196.79v-.03c0-2.04,1.6-3.78,3.71-3.78,1.37,0,2.23.58,2.9,1.29l-.71.76c-.57-.6-1.22-1.09-2.2-1.09-1.47,0-2.59,1.25-2.59,2.8v.03c0,1.57,1.15,2.82,2.66,2.82.92,0,1.64-.46,2.21-1.08l.69.64c-.73.81-1.6,1.4-2.96,1.4-2.12,0-3.71-1.72-3.71-3.75Z"/>
      <path class="cls-4" d="M136.63,196.79v-.03c0-2.04,1.6-3.78,3.78-3.78s3.77,1.71,3.77,3.75v.03c0,2.05-1.61,3.78-3.8,3.78s-3.75-1.71-3.75-3.75ZM143.07,196.79v-.03c0-1.55-1.16-2.83-2.69-2.83s-2.65,1.27-2.65,2.8v.03c0,1.55,1.15,2.82,2.67,2.82s2.66-1.26,2.66-2.79Z"/>
      <path class="cls-4" d="M146.09,193.14h1.08v1.89c.53-1.21,1.58-2.07,2.96-2.02v1.16h-.08c-1.58,0-2.87,1.13-2.87,3.32v2.89h-1.08v-7.24Z"/>
      <path class="cls-4" d="M151.28,196.78v-.03c0-2.09,1.47-3.77,3.47-3.77,2.14,0,3.38,1.71,3.38,3.82,0,.14,0,.22-.01.35h-5.74c.15,1.57,1.26,2.45,2.55,2.45.99,0,1.7-.41,2.28-1.02l.67.6c-.73.81-1.61,1.36-2.98,1.36-1.99,0-3.61-1.53-3.61-3.77ZM157.04,196.36c-.11-1.32-.87-2.46-2.31-2.46-1.26,0-2.21,1.05-2.35,2.46h4.67Z"/>
      <path class="cls-4" d="M159.92,193.14h1.29v1.47h-1.29v-1.47ZM159.92,198.91h1.29v1.47h-1.29v-1.47Z"/>
      <path class="cls-4" d="M167.16,199.52l3.56-3.14c1.5-1.34,2.04-2.1,2.04-3.08,0-1.15-.91-1.88-1.97-1.88-1.12,0-1.85.59-2.63,1.68l-.81-.59c.88-1.32,1.81-2.09,3.53-2.09s3.04,1.18,3.04,2.77v.03c0,1.43-.76,2.31-2.48,3.81l-2.62,2.33h5.2v1.01h-6.85v-.85Z"/>
      <path class="cls-4" d="M176.93,199.55c-.78-.79-1.23-1.79-1.23-3.8v-.03c0-2.98,1.51-5.32,4.08-5.32,1.18,0,2.04.42,2.9,1.12l-.64.85c-.73-.62-1.41-.97-2.31-.97-1.89,0-2.89,1.99-2.89,4.2v.14c.64-.94,1.53-1.51,2.8-1.51,1.82,0,3.39,1.18,3.39,3.01v.03c0,1.89-1.53,3.26-3.52,3.26-1.08,0-1.96-.38-2.58-.99ZM181.89,197.32v-.03c0-1.2-.98-2.1-2.4-2.1s-2.45,1.05-2.45,2.14v.03c0,1.25,1.04,2.2,2.48,2.2s2.37-.99,2.37-2.24Z"/>
      <path class="cls-4" d="M186.38,191.65l-1.85.57-.27-.9,2.39-.83h.81v9.88h-1.09v-8.73Z"/>
      <path class="cls-4" d="M193.98,196.36c0-2.58,1.39-4.59,3.88-6l.46.71c-2.13,1.36-3.25,3.04-3.25,5.28s1.12,3.92,3.25,5.28l-.46.71c-2.49-1.4-3.88-3.42-3.88-6Z"/>
      <path class="cls-4" d="M200.56,190.57h1.11v9.81h-1.11v-9.81Z"/>
      <path class="cls-4" d="M213.45,200.67l-1.3-1.16c-.83.64-1.88,1.04-3.08,1.04-2.98,0-4.99-2.34-4.99-5.04v-.03c0-2.7,2.03-5.07,5.01-5.07s4.99,2.34,4.99,5.04v.03c0,1.22-.43,2.38-1.16,3.28l1.29,1.09-.76.83ZM211.36,198.79l-1.83-1.57.74-.83,1.83,1.67c.53-.7.83-1.58.83-2.56v-.03c0-2.23-1.62-4.05-3.87-4.05s-3.84,1.79-3.84,4.02v.03c0,2.23,1.62,4.05,3.87,4.05.87,0,1.65-.27,2.27-.73Z"/>
      <path class="cls-4" d="M216.38,190.57h4.22c1.2,0,2.17.36,2.79.98.48.48.76,1.16.76,1.93v.03c0,1.62-1.12,2.58-2.66,2.86l3.01,4.01h-1.36l-2.84-3.81h-2.8v3.81h-1.11v-9.81ZM220.5,195.57c1.47,0,2.52-.76,2.52-2.02v-.03c0-1.21-.92-1.93-2.51-1.93h-3.03v3.98h3.01Z"/>
      <path class="cls-4" d="M226.22,193.14h1.29v1.47h-1.29v-1.47ZM226.22,198.91h1.29v1.47h-1.29v-1.47Z"/>
      <path class="cls-4" d="M233.46,199.52l3.56-3.14c1.5-1.34,2.04-2.1,2.04-3.08,0-1.15-.91-1.88-1.97-1.88-1.12,0-1.85.59-2.63,1.68l-.81-.59c.88-1.32,1.81-2.09,3.53-2.09s3.04,1.18,3.04,2.77v.03c0,1.43-.76,2.31-2.48,3.81l-2.62,2.33h5.2v1.01h-6.85v-.85Z"/>
      <path class="cls-4" d="M241.85,198.79l.8-.71c.76.92,1.67,1.46,2.87,1.46s2.14-.76,2.14-1.9v-.03c0-1.22-1.13-1.89-2.75-1.89h-.63l-.22-.66,3.09-3.49h-4.79v-1h6.26v.81l-3.08,3.42c1.71.14,3.24.97,3.24,2.76v.03c0,1.75-1.46,2.96-3.28,2.96-1.64,0-2.86-.71-3.66-1.75Z"/>
      <path class="cls-4" d="M250.43,197.74v-.03c0-1.16.84-1.99,2.02-2.41-.91-.42-1.68-1.12-1.68-2.26v-.03c0-1.51,1.55-2.59,3.35-2.59s3.35,1.08,3.35,2.59v.03c0,1.13-.77,1.83-1.68,2.26,1.16.43,2.02,1.23,2.02,2.39v.03c0,1.67-1.6,2.79-3.68,2.79s-3.68-1.13-3.68-2.77ZM256.68,197.72v-.03c0-1.09-1.13-1.86-2.56-1.86s-2.56.77-2.56,1.86v.03c0,.99.95,1.83,2.56,1.83s2.56-.84,2.56-1.83ZM256.35,193.12v-.03c0-.97-.97-1.69-2.24-1.69s-2.24.71-2.24,1.69v.03c0,1.06,1,1.79,2.24,1.79s2.24-.73,2.24-1.79Z"/>
      <path class="cls-4" d="M259.4,195.63h5.58v1.08h-5.58v-1.08Z"/>
      <path class="cls-4" d="M266.56,198.79l.8-.71c.76.92,1.67,1.46,2.87,1.46s2.14-.76,2.14-1.9v-.03c0-1.22-1.13-1.89-2.75-1.89h-.63l-.22-.66,3.1-3.49h-4.79v-1h6.26v.81l-3.08,3.42c1.71.14,3.24.97,3.24,2.76v.03c0,1.75-1.46,2.96-3.28,2.96-1.64,0-2.86-.71-3.66-1.75Z"/>
      <path class="cls-4" d="M276.92,191.65l-1.85.57-.27-.9,2.39-.83h.81v9.88h-1.09v-8.73Z"/>
      <path class="cls-4" d="M280.07,199.52l3.56-3.14c1.5-1.34,2.04-2.1,2.04-3.08,0-1.15-.91-1.88-1.97-1.88-1.12,0-1.85.59-2.63,1.68l-.81-.59c.88-1.32,1.81-2.09,3.53-2.09s3.04,1.18,3.04,2.77v.03c0,1.43-.76,2.31-2.48,3.81l-2.62,2.33h5.2v1.01h-6.85v-.85Z"/>
      <path class="cls-4" d="M288.54,201.64c2.13-1.36,3.25-3.04,3.25-5.28s-1.12-3.92-3.25-5.28l.46-.71c2.49,1.4,3.88,3.42,3.88,6s-1.39,4.59-3.88,6l-.46-.71Z"/>
    </g>
    <g>
      <path class="cls-4" d="M3.83,50.4h.89l3.83,8.46h-1.02l-.98-2.22H1.97l-1,2.22h-.97l3.83-8.46ZM6.17,55.79l-1.91-4.28-1.92,4.28h3.83Z"/>
      <path class="cls-4" d="M10.02,52.66h.92v1.08c.41-.67,1.06-1.21,2.12-1.21,1.5,0,2.37,1.01,2.37,2.48v3.85h-.92v-3.62c0-1.15-.62-1.87-1.72-1.87s-1.86.78-1.86,1.94v3.55h-.92v-6.2Z"/>
      <path class="cls-4" d="M17.71,57.22v-3.74h-.86v-.82h.86v-1.87h.92v1.87h1.97v.82h-1.97v3.62c0,.75.42,1.03,1.04,1.03.31,0,.58-.06.9-.22v.79c-.32.17-.67.26-1.12.26-1,0-1.75-.49-1.75-1.75Z"/>
      <path class="cls-4" d="M22.24,50.28h1.05v1.02h-1.05v-1.02ZM22.29,52.66h.92v6.2h-.92v-6.2Z"/>
      <path class="cls-4" d="M25.09,54.77h3.33v.97h-3.33v-.97Z"/>
      <path class="cls-4" d="M32.55,51.34h-2.83v-.88h6.61v.88h-2.83v7.52h-.95v-7.52Z"/>
      <path class="cls-4" d="M38.04,50.46h.89l5.29,6.73v-6.73h.92v8.4h-.75l-5.42-6.88v6.88h-.92v-8.4Z"/>
      <path class="cls-4" d="M47.5,50.46h6.03v.88h-5.08v3h4.55v.86h-4.55v3.66h-.95v-8.4Z"/>
      <path class="cls-4" d="M54.93,54.77h3.33v.97h-3.33v-.97Z"/>
      <path class="cls-4" d="M60.06,52.66h.92v1.08c.41-.67,1.06-1.21,2.12-1.21,1.5,0,2.37,1.01,2.37,2.48v3.85h-.92v-3.62c0-1.15-.62-1.87-1.72-1.87s-1.86.78-1.86,1.94v3.55h-.92v-6.2Z"/>
      <path class="cls-4" d="M66.96,57.06v-.02c0-1.31,1.08-2,2.65-2,.79,0,1.36.11,1.91.26v-.22c0-1.12-.68-1.69-1.85-1.69-.73,0-1.31.19-1.88.46l-.28-.75c.68-.31,1.36-.52,2.25-.52s1.55.23,2,.68c.42.42.64,1.02.64,1.81v3.79h-.89v-.94c-.43.56-1.15,1.07-2.24,1.07-1.15,0-2.32-.66-2.32-1.93ZM71.53,56.58v-.6c-.46-.13-1.07-.26-1.82-.26-1.16,0-1.81.5-1.81,1.28v.02c0,.78.72,1.24,1.56,1.24,1.14,0,2.07-.7,2.07-1.68Z"/>
      <path class="cls-4" d="M73.32,50.58h1.07v1.14h-1.07v-1.14ZM74.43,52.66h.92v6.2h-.92v-6.2ZM75.42,50.58h1.07v1.14h-1.07v-1.14Z"/>
      <path class="cls-4" d="M76.87,52.66h1.02l2.09,5.14,2.1-5.14h1l-2.7,6.25h-.82l-2.69-6.25Z"/>
      <path class="cls-4" d="M84.12,55.78v-.02c0-1.79,1.26-3.23,2.97-3.23,1.83,0,2.89,1.46,2.89,3.27,0,.12,0,.19-.01.3h-4.92c.13,1.34,1.08,2.1,2.18,2.1.85,0,1.45-.35,1.96-.88l.58.52c-.62.7-1.38,1.16-2.55,1.16-1.7,0-3.09-1.31-3.09-3.23ZM89.05,55.42c-.1-1.13-.74-2.11-1.98-2.11-1.08,0-1.89.9-2.01,2.11h3.99Z"/>
      <path class="cls-4" d="M43.54,67.06h.92v1.25c.5-.74,1.24-1.38,2.38-1.38,1.49,0,2.96,1.17,2.96,3.21v.02c0,2.03-1.46,3.23-2.96,3.23-1.15,0-1.9-.62-2.38-1.32v3.11h-.92v-8.12ZM48.85,70.18v-.02c0-1.46-1.01-2.4-2.18-2.4s-2.24.97-2.24,2.39v.02c0,1.44,1.09,2.4,2.24,2.4s2.18-.89,2.18-2.39Z"/>
      <path class="cls-4" d="M51.01,71.46v-.02c0-1.31,1.08-2,2.65-2,.79,0,1.36.11,1.91.26v-.22c0-1.12-.68-1.69-1.85-1.69-.73,0-1.31.19-1.88.46l-.28-.75c.68-.31,1.36-.52,2.25-.52s1.55.23,2,.68c.42.42.64,1.02.64,1.81v3.79h-.89v-.94c-.43.56-1.15,1.07-2.24,1.07-1.15,0-2.31-.66-2.31-1.93ZM55.58,70.98v-.6c-.46-.13-1.07-.26-1.82-.26-1.16,0-1.81.5-1.81,1.28v.02c0,.78.72,1.24,1.56,1.24,1.14,0,2.07-.7,2.07-1.68Z"/>
      <path class="cls-4" d="M58.73,71.62v-3.74h-.86v-.82h.86v-1.87h.92v1.87h1.97v.82h-1.97v3.62c0,.75.42,1.03,1.04,1.03.31,0,.58-.06.9-.22v.79c-.32.17-.67.26-1.12.26-1,0-1.75-.49-1.75-1.75Z"/>
      <path class="cls-4" d="M63.25,64.68h1.05v1.02h-1.05v-1.02ZM63.31,67.06h.92v6.2h-.92v-6.2Z"/>
      <path class="cls-4" d="M65.97,70.18v-.02c0-1.79,1.26-3.23,2.97-3.23,1.83,0,2.89,1.46,2.89,3.27,0,.12,0,.19-.01.3h-4.92c.13,1.34,1.08,2.1,2.18,2.1.85,0,1.45-.35,1.96-.88l.58.52c-.62.7-1.38,1.16-2.55,1.16-1.7,0-3.09-1.31-3.09-3.23ZM70.9,69.82c-.1-1.13-.74-2.11-1.98-2.11-1.08,0-1.89.9-2.01,2.11h3.99Z"/>
      <path class="cls-4" d="M73.44,67.06h.92v1.08c.41-.67,1.06-1.21,2.12-1.21,1.5,0,2.37,1.01,2.37,2.48v3.85h-.92v-3.62c0-1.15-.62-1.87-1.72-1.87s-1.86.78-1.86,1.94v3.55h-.92v-6.2Z"/>
      <path class="cls-4" d="M81.13,71.62v-3.74h-.86v-.82h.86v-1.87h.92v1.87h1.97v.82h-1.97v3.62c0,.75.42,1.03,1.04,1.03.31,0,.58-.06.9-.22v.79c-.32.17-.67.26-1.12.26-1,0-1.75-.49-1.75-1.75Z"/>
      <path class="cls-4" d="M85.12,72.47l.47-.66c.67.5,1.42.79,2.15.79s1.28-.38,1.28-.98v-.02c0-.62-.73-.86-1.55-1.09-.97-.28-2.05-.61-2.05-1.75v-.02c0-1.07.89-1.78,2.11-1.78.75,0,1.59.26,2.23.68l-.42.7c-.58-.37-1.24-.6-1.83-.6-.73,0-1.2.38-1.2.9v.02c0,.59.77.82,1.59,1.07.96.29,1.99.66,1.99,1.78v.02c0,1.18-.97,1.86-2.21,1.86-.89,0-1.87-.35-2.57-.91Z"/>
    </g>
    <g>
      <g>
        <path class="cls-2" d="M166.49,111.76l-43.26-46.4c-25.62,23.89-27.03,64.04-3.13,89.66,23.89,25.62,64.04,27.03,89.66,3.13,25.62-23.89,27.03-64.04,3.13-89.66-12.42-13.32-28.18-20.17-46.4-20.17v63.44Z"/>
        <path class="cls-5" d="M166.49,111.76v-63.44c-16.82,0-30.97,5.57-43.26,17.04l43.26,46.4Z"/>
      </g>
      <g>
        <path class="cls-3" d="M138.11,66.16l-1.71.42-.45-1.76,2.82-.84h1.47v9.88h-2.13v-7.69Z"/>
        <path class="cls-3" d="M142.21,72.14l3.26-2.68c1.22-1.01,1.7-1.54,1.7-2.35s-.55-1.27-1.32-1.27-1.27.42-2,1.32l-1.51-1.22c.97-1.32,1.91-2.03,3.66-2.03,2.03,0,3.38,1.19,3.38,3.03v.03c0,1.64-.84,2.45-2.58,3.8l-1.6,1.23h4.27v1.86h-7.26v-1.71Z"/>
        <path class="cls-3" d="M150.88,66.47v-.03c0-1.39.97-2.51,2.4-2.51s2.37,1.11,2.37,2.48v.03c0,1.37-.97,2.51-2.39,2.51s-2.37-1.11-2.37-2.48ZM159.02,64.05h1.67l-3.92,5.28-3.24,4.52h-1.67l3.92-5.28,3.24-4.52ZM152.35,66.41v.03c0,.66.36,1.23.92,1.23.59,0,.9-.57.9-1.2v-.03c0-.66-.36-1.23-.92-1.23-.59,0-.9.56-.9,1.2ZM156.9,71.48v-.03c0-1.39.97-2.51,2.4-2.51s2.37,1.11,2.37,2.48v.03c0,1.37-.97,2.51-2.4,2.51s-2.37-1.11-2.37-2.48ZM160.19,71.48v-.03c0-.66-.36-1.23-.92-1.23s-.9.56-.9,1.2v.03c0,.66.36,1.23.92,1.23s.9-.57.9-1.2Z"/>
      </g>
      <g>
        <path class="cls-3" d="M173.01,136.74v-.03c0-1.19.55-1.89,1.58-2.37-.76-.46-1.25-1.09-1.25-2.14v-.03c0-1.5,1.37-2.69,3.45-2.69s3.45,1.18,3.45,2.69v.03c0,1.05-.49,1.68-1.25,2.14,1,.52,1.58,1.15,1.58,2.31v.03c0,1.82-1.61,2.89-3.78,2.89s-3.78-1.12-3.78-2.83ZM178.49,136.57v-.03c0-.76-.71-1.2-1.7-1.2s-1.69.45-1.69,1.2v.03c0,.67.63,1.22,1.69,1.22s1.7-.53,1.7-1.22ZM178.2,132.44v-.03c0-.6-.52-1.15-1.4-1.15s-1.4.53-1.4,1.13v.03c0,.69.55,1.2,1.4,1.2s1.4-.5,1.4-1.19Z"/>
        <path class="cls-3" d="M181.83,136.74v-.03c0-1.19.55-1.89,1.58-2.37-.76-.46-1.25-1.09-1.25-2.14v-.03c0-1.5,1.37-2.69,3.45-2.69s3.45,1.18,3.45,2.69v.03c0,1.05-.49,1.68-1.25,2.14,1,.52,1.58,1.15,1.58,2.31v.03c0,1.82-1.61,2.89-3.78,2.89s-3.78-1.12-3.78-2.83ZM187.31,136.57v-.03c0-.76-.71-1.2-1.7-1.2s-1.69.45-1.69,1.2v.03c0,.67.63,1.22,1.69,1.22s1.7-.53,1.7-1.22ZM187.02,132.44v-.03c0-.6-.52-1.15-1.4-1.15s-1.4.53-1.4,1.13v.03c0,.69.55,1.2,1.4,1.2s1.4-.5,1.4-1.19Z"/>
        <path class="cls-3" d="M190.65,132.05v-.03c0-1.39.97-2.51,2.4-2.51s2.37,1.11,2.37,2.48v.03c0,1.37-.97,2.51-2.39,2.51s-2.37-1.11-2.37-2.48ZM198.79,129.62h1.67l-3.92,5.28-3.24,4.52h-1.67l3.92-5.28,3.24-4.52ZM192.12,131.99v.03c0,.66.36,1.23.92,1.23.59,0,.9-.57.9-1.2v-.03c0-.66-.36-1.23-.92-1.23-.59,0-.9.56-.9,1.2ZM196.67,137.06v-.03c0-1.39.97-2.51,2.4-2.51s2.37,1.11,2.37,2.48v.03c0,1.37-.97,2.51-2.4,2.51s-2.37-1.11-2.37-2.48ZM199.97,137.06v-.03c0-.66-.36-1.23-.92-1.23s-.9.56-.9,1.2v.03c0,.66.36,1.23.92,1.23s.9-.57.9-1.2Z"/>
      </g>
    </g>
    <line class="cls-1" x1="144.23" y1="54.44" x2="95.81" y2="54.44"/>
  </g>
</svg>