<?xml version="1.0" encoding="UTF-8"?>
<svg id="Layer_2" data-name="Layer 2" xmlns="http://www.w3.org/2000/svg" viewBox="0 0 431.21 283.84">
  <defs>
    <style>
      .cls-1 {
        stroke: #ec5504;
      }

      .cls-1, .cls-2, .cls-3, .cls-4 {
        fill: none;
      }

      .cls-1, .cls-3, .cls-4 {
        stroke-miterlimit: 10;
        stroke-width: 2px;
      }

      .cls-5 {
        fill: #eb8484;
      }

      .cls-5, .cls-6, .cls-7, .cls-8 {
        stroke-width: 0px;
      }

      .cls-7 {
        fill: #670d10;
      }

      .cls-2 {
        stroke: #000;
        stroke-miterlimit: 8;
        stroke-width: .75px;
      }

      .cls-8 {
        fill: #ec5504;
      }

      .cls-3 {
        stroke: #670d10;
      }

      .cls-4 {
        stroke: #eb8484;
      }
    </style>
  </defs>
  <g id="Layer_1-2" data-name="Layer 1">
    <g>
      <path class="cls-6" d="M57.78,264.76v-.02c0-2.18,1.3-4.03,3.3-4.03s3.27,1.82,3.27,4v.02c0,2.18-1.29,4.03-3.29,4.03s-3.28-1.82-3.28-4ZM63.44,264.76v-.02c0-1.7-.93-3.23-2.38-3.23s-2.37,1.49-2.37,3.2v.02c0,1.7.93,3.23,2.39,3.23s2.36-1.5,2.36-3.2Z"/>
      <path class="cls-6" d="M80.69,267.95l2.83-2.49c1.19-1.07,1.62-1.67,1.62-2.45,0-.91-.72-1.49-1.57-1.49-.89,0-1.47.47-2.09,1.33l-.65-.47c.7-1.05,1.44-1.66,2.8-1.66s2.41.93,2.41,2.2v.02c0,1.13-.6,1.83-1.97,3.03l-2.08,1.85h4.13v.8h-5.44v-.68Z"/>
      <g>
        <path class="cls-6" d="M25.14,216.22h4.43v.86h-4.43v-.86Z"/>
        <path class="cls-6" d="M31.94,219.34c-.62-.62-.98-1.42-.98-3.01v-.02c0-2.37,1.2-4.23,3.24-4.23.93,0,1.62.33,2.3.89l-.51.68c-.58-.49-1.12-.77-1.84-.77-1.5,0-2.29,1.58-2.29,3.34v.11c.51-.75,1.21-1.2,2.22-1.2,1.45,0,2.69.93,2.69,2.39v.02c0,1.5-1.21,2.59-2.79,2.59-.86,0-1.56-.3-2.05-.79ZM35.88,217.57v-.02c0-.96-.78-1.67-1.9-1.67s-1.95.83-1.95,1.7v.02c0,.99.82,1.75,1.97,1.75s1.88-.79,1.88-1.78Z"/>
      </g>
      <g>
        <path class="cls-6" d="M24.87,162.96h4.43v.86h-4.43v-.86Z"/>
        <path class="cls-6" d="M34.82,164.88h-4.1l-.22-.63,4.41-5.36h.77v5.26h1.21v.73h-1.21v1.85h-.85v-1.85ZM34.82,164.15v-4.02l-3.27,4.02h3.27Z"/>
      </g>
      <g>
        <path class="cls-6" d="M25.67,107.57h4.43v.86h-4.43v-.86Z"/>
        <path class="cls-6" d="M31.35,110.66l2.83-2.49c1.19-1.07,1.62-1.67,1.62-2.45,0-.91-.72-1.49-1.57-1.49-.89,0-1.47.47-2.09,1.33l-.65-.47c.7-1.05,1.44-1.66,2.8-1.66s2.41.93,2.41,2.2v.02c0,1.13-.6,1.83-1.97,3.03l-2.08,1.85h4.13v.8h-5.44v-.68Z"/>
      </g>
      <path class="cls-6" d="M30.22,54.2v-.02c0-2.18,1.3-4.03,3.3-4.03s3.27,1.82,3.27,4v.02c0,2.18-1.29,4.03-3.29,4.03s-3.28-1.82-3.28-4ZM35.88,54.2v-.02c0-1.7-.93-3.23-2.38-3.23s-2.37,1.49-2.37,3.2v.02c0,1.7.93,3.23,2.39,3.23s2.36-1.5,2.36-3.2Z"/>
      <path class="cls-6" d="M105.54,266.78h-4.1l-.22-.63,4.41-5.36h.77v5.26h1.21v.73h-1.21v1.85h-.85v-1.85ZM105.54,266.05v-4.02l-3.27,4.02h3.27Z"/>
      <path class="cls-6" d="M124.95,267.97c-.62-.62-.98-1.42-.98-3.01v-.02c0-2.37,1.2-4.23,3.24-4.23.93,0,1.62.33,2.3.89l-.51.68c-.58-.49-1.12-.77-1.84-.77-1.5,0-2.29,1.58-2.29,3.34v.11c.51-.75,1.21-1.2,2.22-1.2,1.45,0,2.69.93,2.69,2.39v.02c0,1.5-1.21,2.59-2.79,2.59-.86,0-1.56-.3-2.05-.79ZM128.89,266.2v-.02c0-.96-.78-1.67-1.9-1.67s-1.95.83-1.95,1.7v.02c0,.99.82,1.75,1.97,1.75s1.88-.79,1.88-1.78Z"/>
      <g>
        <path class="cls-6" d="M145.05,261.7l-1.47.46-.21-.71,1.9-.66h.65v7.84h-.87v-6.93Z"/>
        <path class="cls-6" d="M147.73,264.76v-.02c0-2.18,1.3-4.03,3.3-4.03s3.27,1.82,3.27,4v.02c0,2.18-1.29,4.03-3.29,4.03s-3.28-1.82-3.28-4ZM153.39,264.76v-.02c0-1.7-.93-3.23-2.38-3.23s-2.37,1.49-2.37,3.2v.02c0,1.7.93,3.23,2.39,3.23s2.36-1.5,2.36-3.2Z"/>
      </g>
      <g>
        <path class="cls-6" d="M167.72,261.7l-1.47.46-.21-.71,1.9-.66h.65v7.84h-.87v-6.93Z"/>
        <path class="cls-6" d="M174.52,266.78h-4.1l-.22-.63,4.41-5.36h.77v5.26h1.21v.73h-1.21v1.85h-.85v-1.85ZM174.52,266.05v-4.02l-3.27,4.02h3.27Z"/>
      </g>
      <g>
        <path class="cls-6" d="M188.92,261.7l-1.47.46-.21-.71,1.9-.66h.65v7.84h-.87v-6.93Z"/>
        <path class="cls-6" d="M191.49,266.54v-.02c0-.92.67-1.58,1.6-1.91-.72-.33-1.33-.89-1.33-1.79v-.02c0-1.2,1.23-2.06,2.66-2.06s2.66.86,2.66,2.06v.02c0,.9-.61,1.46-1.33,1.79.92.34,1.6.98,1.6,1.9v.02c0,1.32-1.27,2.21-2.93,2.21s-2.93-.9-2.93-2.2ZM196.45,266.52v-.02c0-.87-.9-1.48-2.04-1.48s-2.04.61-2.04,1.48v.02c0,.79.76,1.46,2.04,1.46s2.04-.67,2.04-1.46ZM196.2,262.87v-.02c0-.77-.77-1.35-1.78-1.35s-1.78.57-1.78,1.35v.02c0,.84.79,1.42,1.78,1.42s1.78-.58,1.78-1.42Z"/>
      </g>
      <g>
        <path class="cls-6" d="M208.72,267.95l2.83-2.49c1.19-1.07,1.62-1.67,1.62-2.45,0-.91-.72-1.49-1.57-1.49-.89,0-1.47.47-2.09,1.33l-.65-.47c.7-1.05,1.44-1.66,2.8-1.66s2.41.93,2.41,2.2v.02c0,1.13-.6,1.83-1.97,3.03l-2.08,1.85h4.13v.8h-5.44v-.68Z"/>
        <path class="cls-6" d="M215.39,267.95l2.83-2.49c1.19-1.07,1.62-1.67,1.62-2.45,0-.91-.72-1.49-1.57-1.49-.89,0-1.47.47-2.09,1.33l-.65-.47c.7-1.05,1.44-1.66,2.8-1.66s2.41.93,2.41,2.2v.02c0,1.13-.6,1.83-1.97,3.03l-2.08,1.85h4.13v.8h-5.44v-.68Z"/>
      </g>
      <g>
        <path class="cls-6" d="M230.6,267.95l2.83-2.49c1.19-1.07,1.62-1.67,1.62-2.45,0-.91-.72-1.49-1.57-1.49-.89,0-1.47.47-2.09,1.33l-.65-.47c.7-1.05,1.44-1.66,2.8-1.66s2.41.93,2.41,2.2v.02c0,1.13-.6,1.83-1.97,3.03l-2.08,1.85h4.13v.8h-5.44v-.68Z"/>
        <path class="cls-6" d="M238.38,267.97c-.62-.62-.98-1.42-.98-3.01v-.02c0-2.37,1.2-4.23,3.24-4.23.93,0,1.62.33,2.3.89l-.51.68c-.58-.49-1.12-.77-1.84-.77-1.5,0-2.29,1.58-2.29,3.34v.11c.51-.75,1.21-1.2,2.22-1.2,1.45,0,2.69.93,2.69,2.39v.02c0,1.5-1.21,2.59-2.79,2.59-.86,0-1.56-.3-2.05-.79ZM242.32,266.2v-.02c0-.96-.78-1.67-1.9-1.67s-1.95.83-1.95,1.7v.02c0,.99.82,1.75,1.97,1.75s1.88-.79,1.88-1.78Z"/>
      </g>
      <g>
        <path class="cls-6" d="M252.59,267.37l.63-.57c.6.73,1.32,1.16,2.28,1.16s1.7-.6,1.7-1.51v-.02c0-.97-.9-1.5-2.18-1.5h-.5l-.18-.52,2.46-2.77h-3.8v-.79h4.97v.64l-2.45,2.71c1.36.11,2.57.77,2.57,2.19v.02c0,1.39-1.16,2.35-2.6,2.35-1.3,0-2.27-.57-2.9-1.39Z"/>
        <path class="cls-6" d="M259.54,264.76v-.02c0-2.18,1.3-4.03,3.3-4.03s3.27,1.82,3.27,4v.02c0,2.18-1.29,4.03-3.29,4.03s-3.28-1.82-3.28-4ZM265.2,264.76v-.02c0-1.7-.93-3.23-2.38-3.23s-2.37,1.49-2.37,3.2v.02c0,1.7.93,3.23,2.39,3.23s2.36-1.5,2.36-3.2Z"/>
      </g>
      <g>
        <path class="cls-6" d="M273.81,267.37l.63-.57c.6.73,1.32,1.16,2.28,1.16s1.7-.6,1.7-1.51v-.02c0-.97-.9-1.5-2.18-1.5h-.5l-.18-.52,2.46-2.77h-3.8v-.79h4.97v.64l-2.45,2.71c1.36.11,2.57.77,2.57,2.19v.02c0,1.39-1.16,2.35-2.6,2.35-1.3,0-2.27-.57-2.9-1.39Z"/>
        <path class="cls-6" d="M284.87,266.78h-4.1l-.22-.63,4.41-5.36h.77v5.26h1.21v.73h-1.21v1.85h-.85v-1.85ZM284.87,266.05v-4.02l-3.27,4.02h3.27Z"/>
      </g>
      <g>
        <path class="cls-6" d="M296.46,267.37l.63-.57c.6.73,1.32,1.16,2.28,1.16s1.7-.6,1.7-1.51v-.02c0-.97-.9-1.5-2.18-1.5h-.5l-.18-.52,2.46-2.77h-3.8v-.79h4.97v.64l-2.45,2.71c1.36.11,2.57.77,2.57,2.19v.02c0,1.39-1.16,2.35-2.6,2.35-1.3,0-2.27-.57-2.9-1.39Z"/>
        <path class="cls-6" d="M303.3,266.54v-.02c0-.92.67-1.58,1.6-1.91-.72-.33-1.33-.89-1.33-1.79v-.02c0-1.2,1.23-2.06,2.66-2.06s2.66.86,2.66,2.06v.02c0,.9-.61,1.46-1.33,1.79.92.34,1.6.98,1.6,1.9v.02c0,1.32-1.27,2.21-2.93,2.21s-2.93-.9-2.93-2.2ZM308.26,266.52v-.02c0-.87-.9-1.48-2.04-1.48s-2.04.61-2.04,1.48v.02c0,.79.76,1.46,2.04,1.46s2.04-.67,2.04-1.46ZM308,262.87v-.02c0-.77-.77-1.35-1.78-1.35s-1.78.57-1.78,1.35v.02c0,.84.79,1.42,1.78,1.42s1.78-.58,1.78-1.42Z"/>
      </g>
      <g>
        <path class="cls-6" d="M322.7,266.78h-4.1l-.22-.63,4.41-5.36h.77v5.26h1.21v.73h-1.21v1.85h-.85v-1.85ZM322.7,266.05v-4.02l-3.27,4.02h3.27Z"/>
        <path class="cls-6" d="M325.89,267.95l2.83-2.49c1.19-1.07,1.62-1.67,1.62-2.45,0-.91-.72-1.49-1.57-1.49-.89,0-1.47.47-2.09,1.33l-.65-.47c.7-1.05,1.44-1.66,2.8-1.66s2.41.93,2.41,2.2v.02c0,1.13-.6,1.83-1.97,3.03l-2.08,1.85h4.13v.8h-5.44v-.68Z"/>
      </g>
      <g>
        <path class="cls-6" d="M344.86,266.78h-4.1l-.22-.63,4.41-5.36h.77v5.26h1.21v.73h-1.21v1.85h-.85v-1.85ZM344.86,266.05v-4.02l-3.27,4.02h3.27Z"/>
        <path class="cls-6" d="M349.17,267.97c-.62-.62-.98-1.42-.98-3.01v-.02c0-2.37,1.2-4.23,3.24-4.23.93,0,1.62.33,2.3.89l-.51.68c-.58-.49-1.12-.77-1.84-.77-1.5,0-2.29,1.58-2.29,3.34v.11c.51-.75,1.21-1.2,2.22-1.2,1.45,0,2.69.93,2.69,2.39v.02c0,1.5-1.21,2.59-2.79,2.59-.86,0-1.56-.3-2.05-.79ZM353.11,266.2v-.02c0-.96-.78-1.67-1.9-1.67s-1.95.83-1.95,1.7v.02c0,.99.82,1.75,1.97,1.75s1.88-.79,1.88-1.78Z"/>
      </g>
      <g>
        <path class="cls-6" d="M365.92,266.78h-4.1l-.22-.63,4.41-5.36h.77v5.26h1.21v.73h-1.21v1.85h-.85v-1.85ZM365.92,266.05v-4.02l-3.27,4.02h3.27Z"/>
        <path class="cls-6" d="M369.16,266.54v-.02c0-.92.67-1.58,1.6-1.91-.72-.33-1.33-.89-1.33-1.79v-.02c0-1.2,1.23-2.06,2.66-2.06s2.66.86,2.66,2.06v.02c0,.9-.61,1.46-1.33,1.79.92.34,1.6.98,1.6,1.9v.02c0,1.32-1.27,2.21-2.93,2.21s-2.93-.9-2.93-2.2ZM374.12,266.52v-.02c0-.87-.9-1.48-2.04-1.48s-2.04.61-2.04,1.48v.02c0,.79.76,1.46,2.04,1.46s2.04-.67,2.04-1.46ZM373.86,262.87v-.02c0-.77-.77-1.35-1.78-1.35s-1.78.57-1.78,1.35v.02c0,.84.79,1.42,1.78,1.42s1.78-.58,1.78-1.42Z"/>
      </g>
      <g>
        <path class="cls-6" d="M384.69,267.53l.58-.63c.68.66,1.42,1.07,2.21,1.07,1.11,0,1.88-.73,1.88-1.72v-.02c0-.97-.8-1.63-1.94-1.63-.66,0-1.18.2-1.64.44l-.59-.39.22-3.79h4.48v.81h-3.72l-.17,2.49c.46-.2.89-.35,1.54-.35,1.51,0,2.69.9,2.69,2.38v.02c0,1.52-1.16,2.56-2.78,2.56-1.11,0-2.08-.53-2.78-1.24Z"/>
        <path class="cls-6" d="M391.33,267.95l2.83-2.49c1.19-1.07,1.62-1.67,1.62-2.45,0-.91-.72-1.49-1.57-1.49-.89,0-1.47.47-2.09,1.33l-.65-.47c.7-1.05,1.44-1.66,2.8-1.66s2.41.93,2.41,2.2v.02c0,1.13-.6,1.83-1.97,3.03l-2.08,1.85h4.13v.8h-5.44v-.68Z"/>
      </g>
      <circle class="cls-8" cx="195.7" cy="95.61" r="2.81"/>
      <g>
        <path class="cls-6" d="M196.98,275.92h.96l2.22,6.48,2.14-6.51h.72l2.14,6.51,2.22-6.48h.92l-2.78,7.84h-.75l-2.14-6.32-2.15,6.32h-.73l-2.78-7.84Z"/>
        <path class="cls-6" d="M208.66,280.85v-.02c0-1.66,1.17-2.99,2.76-2.99,1.7,0,2.68,1.36,2.68,3.04,0,.11,0,.18-.01.28h-4.56c.12,1.25,1,1.95,2.02,1.95.79,0,1.35-.32,1.81-.81l.53.48c-.58.64-1.28,1.08-2.37,1.08-1.58,0-2.87-1.21-2.87-2.99ZM213.23,280.51c-.09-1.05-.69-1.96-1.84-1.96-1,0-1.76.83-1.87,1.96h3.7Z"/>
        <path class="cls-6" d="M215.24,280.85v-.02c0-1.66,1.17-2.99,2.76-2.99,1.7,0,2.68,1.36,2.68,3.04,0,.11,0,.18-.01.28h-4.56c.12,1.25,1,1.95,2.02,1.95.79,0,1.35-.32,1.81-.81l.53.48c-.58.64-1.28,1.08-2.37,1.08-1.58,0-2.87-1.21-2.87-2.99ZM219.82,280.51c-.09-1.05-.69-1.96-1.84-1.96-1,0-1.76.83-1.87,1.96h3.7Z"/>
        <path class="cls-6" d="M222.18,275.59h.86v5.61l3.1-3.24h1.07l-2.41,2.47,2.49,3.28h-1.02l-2.06-2.68-1.17,1.18v1.5h-.86v-8.12Z"/>
      </g>
      <g>
        <path class="cls-6" d="M214.28,75.2h.88v6.97h4.38v.81h-5.26v-7.79Z"/>
        <path class="cls-6" d="M220.56,80.14v-.02c0-1.62,1.27-3,3-3s2.99,1.36,2.99,2.98v.02c0,1.62-1.28,3-3.01,3s-2.98-1.36-2.98-2.98ZM225.67,80.14v-.02c0-1.23-.92-2.25-2.14-2.25s-2.1,1.01-2.1,2.22v.02c0,1.24.91,2.24,2.12,2.24s2.11-1,2.11-2.21Z"/>
        <path class="cls-6" d="M227.33,77.24h.91l1.51,4.62,1.55-4.64h.71l1.56,4.64,1.51-4.62h.89l-2.02,5.8h-.75l-1.55-4.54-1.56,4.54h-.76l-2.01-5.8Z"/>
        <path class="cls-6" d="M240.53,79.79c0-2.05,1.1-3.65,3.08-4.76l.37.57c-1.69,1.08-2.58,2.41-2.58,4.19s.89,3.11,2.58,4.19l-.37.57c-1.98-1.11-3.08-2.71-3.08-4.76Z"/>
        <path class="cls-6" d="M245.33,79.74v-.66l5.16-2.14v.73l-4.25,1.72v.02l4.25,1.71v.75l-5.16-2.15ZM245.35,82.99v-.65h5.14v.65h-5.14Z"/>
        <path class="cls-6" d="M256.55,76.06l-1.47.46-.21-.71,1.9-.66h.65v7.84h-.87v-6.93Z"/>
        <path class="cls-6" d="M259.09,81.73l.63-.57c.6.73,1.32,1.16,2.28,1.16s1.7-.6,1.7-1.51v-.02c0-.97-.9-1.5-2.18-1.5h-.5l-.18-.52,2.46-2.77h-3.8v-.79h4.97v.64l-2.45,2.71c1.36.11,2.57.77,2.57,2.19v.02c0,1.39-1.16,2.35-2.6,2.35-1.3,0-2.27-.57-2.9-1.39Z"/>
        <path class="cls-6" d="M269.65,77.24h.86v1.16c.47-.69,1.15-1.28,2.2-1.28,1.38,0,2.75,1.09,2.75,2.98v.02c0,1.88-1.36,2.99-2.75,2.99-1.07,0-1.76-.58-2.2-1.22v2.88h-.86v-7.53ZM274.57,80.13v-.02c0-1.36-.93-2.22-2.02-2.22s-2.08.9-2.08,2.21v.02c0,1.33,1.01,2.22,2.08,2.22s2.02-.82,2.02-2.21Z"/>
        <path class="cls-6" d="M276.67,80.14v-.02c0-1.62,1.27-3,3-3s2.99,1.36,2.99,2.98v.02c0,1.62-1.28,3-3.01,3s-2.98-1.36-2.98-2.98ZM281.79,80.14v-.02c0-1.23-.92-2.25-2.14-2.25s-2.1,1.01-2.1,2.22v.02c0,1.24.91,2.24,2.12,2.24s2.11-1,2.11-2.21Z"/>
        <path class="cls-6" d="M284.23,75.03h.98v.95h-.98v-.95ZM284.29,77.24h.86v5.75h-.86v-5.75Z"/>
        <path class="cls-6" d="M287.14,77.24h.86v1c.38-.62.98-1.12,1.97-1.12,1.39,0,2.2.93,2.2,2.3v3.57h-.86v-3.36c0-1.07-.58-1.74-1.59-1.74s-1.72.72-1.72,1.8v3.29h-.86v-5.75Z"/>
        <path class="cls-6" d="M294.29,81.46v-3.47h-.8v-.76h.8v-1.74h.86v1.74h1.82v.76h-1.82v3.36c0,.7.39.96.97.96.29,0,.53-.06.83-.2v.73c-.3.16-.62.25-1.03.25-.92,0-1.62-.46-1.62-1.62Z"/>
        <path class="cls-6" d="M298,82.25l.43-.61c.62.47,1.31.73,1.99.73s1.19-.36,1.19-.91v-.02c0-.58-.68-.8-1.44-1.01-.9-.26-1.9-.57-1.9-1.62v-.02c0-.99.82-1.65,1.96-1.65.7,0,1.48.24,2.07.63l-.39.64c-.53-.34-1.15-.56-1.7-.56-.68,0-1.11.36-1.11.83v.02c0,.54.71.76,1.48.99.89.27,1.85.61,1.85,1.65v.02c0,1.09-.9,1.72-2.05,1.72-.82,0-1.74-.32-2.38-.85Z"/>
        <path class="cls-6" d="M303.46,83.99c1.69-1.08,2.58-2.41,2.58-4.19s-.89-3.11-2.58-4.19l.37-.57c1.98,1.11,3.08,2.71,3.08,4.76s-1.1,3.65-3.08,4.76l-.37-.57Z"/>
      </g>
      <g>
        <path class="cls-6" d="M214.36,90.63h.88v7.79h-.88v-7.79Z"/>
        <path class="cls-6" d="M217.38,92.67h.86v1c.38-.62.98-1.12,1.97-1.12,1.39,0,2.2.93,2.2,2.3v3.57h-.86v-3.36c0-1.07-.58-1.74-1.59-1.74s-1.72.72-1.72,1.8v3.29h-.86v-5.75Z"/>
        <path class="cls-6" d="M224.53,96.9v-3.47h-.8v-.76h.8v-1.74h.86v1.74h1.82v.76h-1.82v3.36c0,.7.39.96.97.96.29,0,.53-.06.83-.2v.73c-.3.16-.62.25-1.03.25-.92,0-1.62-.46-1.62-1.62Z"/>
        <path class="cls-6" d="M228.19,95.56v-.02c0-1.66,1.17-2.99,2.76-2.99,1.7,0,2.68,1.36,2.68,3.04,0,.11,0,.18-.01.28h-4.56c.12,1.25,1,1.95,2.02,1.95.79,0,1.35-.32,1.81-.81l.53.48c-.58.64-1.28,1.08-2.37,1.08-1.58,0-2.87-1.21-2.87-2.99ZM232.77,95.23c-.09-1.05-.69-1.96-1.84-1.96-1,0-1.76.83-1.87,1.96h3.7Z"/>
        <path class="cls-6" d="M235.13,92.67h.86v1.5c.42-.96,1.26-1.65,2.35-1.6v.92h-.07c-1.26,0-2.28.9-2.28,2.64v2.29h-.86v-5.75Z"/>
        <path class="cls-6" d="M239.64,92.67h.86v.97c.38-.57.89-1.09,1.86-1.09s1.53.5,1.85,1.15c.41-.63,1.02-1.15,2.02-1.15,1.32,0,2.14.89,2.14,2.31v3.56h-.86v-3.36c0-1.11-.56-1.74-1.49-1.74-.87,0-1.59.65-1.59,1.78v3.31h-.85v-3.38c0-1.08-.57-1.71-1.48-1.71s-1.6.76-1.6,1.81v3.28h-.86v-5.75Z"/>
        <path class="cls-6" d="M249.82,95.56v-.02c0-1.66,1.17-2.99,2.76-2.99,1.7,0,2.68,1.36,2.68,3.04,0,.11,0,.18-.01.28h-4.56c.12,1.25,1,1.95,2.02,1.95.79,0,1.35-.32,1.81-.81l.53.48c-.58.64-1.28,1.08-2.37,1.08-1.58,0-2.87-1.21-2.87-2.99ZM254.39,95.23c-.09-1.05-.69-1.96-1.84-1.96-1,0-1.76.83-1.87,1.96h3.7Z"/>
        <path class="cls-6" d="M256.43,95.56v-.02c0-1.88,1.37-2.99,2.75-2.99,1.07,0,1.76.58,2.2,1.22v-3.47h.86v8.12h-.86v-1.16c-.47.69-1.15,1.28-2.2,1.28-1.38,0-2.75-1.09-2.75-2.98ZM261.41,95.55v-.02c0-1.32-1.01-2.21-2.08-2.21s-2.02.82-2.02,2.21v.02c0,1.36.93,2.22,2.02,2.22s2.08-.9,2.08-2.22Z"/>
        <path class="cls-6" d="M264.16,90.47h.98v.95h-.98v-.95ZM264.22,92.67h.86v5.75h-.86v-5.75Z"/>
        <path class="cls-6" d="M266.63,96.75v-.02c0-1.21,1-1.86,2.46-1.86.73,0,1.26.1,1.77.25v-.2c0-1.03-.63-1.57-1.71-1.57-.68,0-1.21.18-1.75.42l-.26-.7c.63-.29,1.26-.48,2.09-.48s1.44.21,1.86.63c.39.39.59.95.59,1.68v3.51h-.82v-.87c-.4.52-1.07.99-2.08.99-1.07,0-2.15-.61-2.15-1.79ZM270.87,96.31v-.56c-.42-.12-.99-.24-1.69-.24-1.08,0-1.68.47-1.68,1.19v.02c0,.72.67,1.15,1.45,1.15,1.06,0,1.92-.64,1.92-1.56Z"/>
        <path class="cls-6" d="M273.75,96.9v-3.47h-.8v-.76h.8v-1.74h.86v1.74h1.82v.76h-1.82v3.36c0,.7.39.96.97.96.29,0,.53-.06.83-.2v.73c-.3.16-.62.25-1.03.25-.92,0-1.62-.46-1.62-1.62Z"/>
        <path class="cls-6" d="M277.42,95.56v-.02c0-1.66,1.17-2.99,2.76-2.99,1.7,0,2.68,1.36,2.68,3.04,0,.11,0,.18-.01.28h-4.56c.12,1.25,1,1.95,2.02,1.95.79,0,1.35-.32,1.81-.81l.53.48c-.58.64-1.28,1.08-2.37,1.08-1.58,0-2.87-1.21-2.87-2.99ZM281.99,95.23c-.09-1.05-.69-1.96-1.84-1.96-1,0-1.76.83-1.87,1.96h3.7Z"/>
        <path class="cls-6" d="M287.49,95.23c0-2.05,1.1-3.65,3.08-4.76l.37.57c-1.69,1.08-2.58,2.41-2.58,4.19s.89,3.11,2.58,4.19l-.37.57c-1.98-1.11-3.08-2.71-3.08-4.76Z"/>
        <path class="cls-6" d="M292.59,96.61l4.28-2.09-4.28-2.1v-.87l5.22,2.59v.73l-5.22,2.59v-.86Z"/>
        <path class="cls-6" d="M303.84,91.49l-1.47.46-.21-.71,1.9-.66h.65v7.84h-.87v-6.93Z"/>
        <path class="cls-6" d="M306.38,97.16l.63-.57c.6.73,1.32,1.16,2.28,1.16s1.7-.6,1.7-1.51v-.02c0-.97-.9-1.5-2.18-1.5h-.5l-.18-.52,2.46-2.77h-3.8v-.79h4.97v.64l-2.45,2.71c1.36.11,2.57.77,2.57,2.19v.02c0,1.39-1.16,2.35-2.6,2.35-1.3,0-2.27-.57-2.9-1.39Z"/>
        <path class="cls-6" d="M317.24,96.9v-3.47h-.8v-.76h.8v-1.74h.86v1.74h1.82v.76h-1.82v3.36c0,.7.39.96.97.96.29,0,.53-.06.83-.2v.73c-.3.16-.62.25-1.03.25-.92,0-1.62-.46-1.62-1.62Z"/>
        <path class="cls-6" d="M320.91,95.57v-.02c0-1.62,1.27-3,3-3s2.99,1.36,2.99,2.98v.02c0,1.62-1.28,3-3.01,3s-2.98-1.36-2.98-2.98ZM326.02,95.57v-.02c0-1.23-.92-2.25-2.14-2.25s-2.1,1.01-2.1,2.22v.02c0,1.24.91,2.24,2.12,2.24s2.11-1,2.11-2.21Z"/>
        <path class="cls-6" d="M331.56,95.17v-.66l5.16-2.14v.73l-4.25,1.72v.02l4.25,1.71v.75l-5.16-2.15ZM331.58,98.42v-.65h5.14v.65h-5.14Z"/>
        <path class="cls-6" d="M342.78,91.49l-1.47.46-.21-.71,1.9-.66h.65v7.84h-.87v-6.93Z"/>
        <path class="cls-6" d="M350.38,94.5v-.16c-.49.76-1.2,1.23-2.2,1.23-1.6,0-2.71-1.01-2.71-2.41v-.02c0-1.48,1.15-2.65,2.8-2.65.89,0,1.55.3,2.05.8.59.59.97,1.46.97,3.01v.02c0,2.47-1.31,4.22-3.24,4.22-1.01,0-1.75-.41-2.4-.96l.51-.68c.63.56,1.22.83,1.91.83,1.5,0,2.31-1.57,2.31-3.25ZM350.22,93.07v-.02c0-.99-.81-1.77-1.98-1.77s-1.87.86-1.87,1.82v.02c0,.99.78,1.7,1.91,1.7,1.19,0,1.94-.87,1.94-1.76Z"/>
        <path class="cls-6" d="M356.25,92.67h.86v1.16c.47-.69,1.15-1.28,2.2-1.28,1.38,0,2.75,1.09,2.75,2.98v.02c0,1.88-1.36,2.99-2.75,2.99-1.07,0-1.76-.58-2.2-1.22v2.88h-.86v-7.53ZM361.18,95.56v-.02c0-1.36-.93-2.22-2.02-2.22s-2.08.9-2.08,2.21v.02c0,1.33,1.01,2.22,2.08,2.22s2.02-.82,2.02-2.21Z"/>
        <path class="cls-6" d="M363.28,95.57v-.02c0-1.62,1.27-3,3-3s2.99,1.36,2.99,2.98v.02c0,1.62-1.28,3-3.01,3s-2.98-1.36-2.98-2.98ZM368.4,95.57v-.02c0-1.23-.92-2.25-2.14-2.25s-2.1,1.01-2.1,2.22v.02c0,1.24.91,2.24,2.12,2.24s2.11-1,2.11-2.21Z"/>
        <path class="cls-6" d="M370.84,90.47h.98v.95h-.98v-.95ZM370.9,92.67h.86v5.75h-.86v-5.75Z"/>
        <path class="cls-6" d="M373.74,92.67h.86v1c.38-.62.98-1.12,1.97-1.12,1.39,0,2.2.93,2.2,2.3v3.57h-.86v-3.36c0-1.07-.58-1.74-1.59-1.74s-1.72.72-1.72,1.8v3.29h-.86v-5.75Z"/>
        <path class="cls-6" d="M380.89,96.9v-3.47h-.8v-.76h.8v-1.74h.86v1.74h1.82v.76h-1.82v3.36c0,.7.39.96.97.96.29,0,.53-.06.83-.2v.73c-.3.16-.62.25-1.03.25-.92,0-1.62-.46-1.62-1.62Z"/>
        <path class="cls-6" d="M384.61,97.69l.43-.61c.62.47,1.31.73,1.99.73s1.19-.36,1.19-.91v-.02c0-.58-.68-.8-1.44-1.01-.9-.26-1.9-.57-1.9-1.62v-.02c0-.99.82-1.65,1.96-1.65.7,0,1.48.24,2.07.63l-.39.64c-.53-.34-1.15-.56-1.7-.56-.68,0-1.11.36-1.11.83v.02c0,.54.71.76,1.48.99.89.27,1.85.61,1.85,1.65v.02c0,1.09-.9,1.72-2.05,1.72-.82,0-1.74-.32-2.38-.85Z"/>
        <path class="cls-6" d="M390.07,99.42c1.69-1.08,2.58-2.41,2.58-4.19s-.89-3.11-2.58-4.19l.37-.57c1.98,1.11,3.08,2.71,3.08,4.76s-1.1,3.65-3.08,4.76l-.37-.57Z"/>
      </g>
      <g>
        <path class="cls-6" d="M188.12,45.69h3.18c1.86,0,2.98,1.1,2.98,2.69v.02c0,1.8-1.4,2.74-3.15,2.74h-1.3v2.34h-1.71v-7.79ZM191.19,49.62c.86,0,1.36-.51,1.36-1.18v-.02c0-.77-.53-1.18-1.39-1.18h-1.32v2.38h1.36Z"/>
        <path class="cls-6" d="M195.37,47.52h1.69v1.2c.34-.82.9-1.36,1.9-1.31v1.77h-.09c-1.12,0-1.81.68-1.81,2.1v2.2h-1.69v-5.96Z"/>
        <path class="cls-6" d="M199.56,50.53v-.02c0-1.71,1.38-3.1,3.24-3.1s3.21,1.37,3.21,3.08v.02c0,1.71-1.38,3.1-3.24,3.1s-3.21-1.37-3.21-3.08ZM204.34,50.53v-.02c0-.88-.63-1.65-1.57-1.65s-1.55.75-1.55,1.62v.02c0,.88.63,1.65,1.57,1.65s1.55-.75,1.55-1.62Z"/>
        <path class="cls-6" d="M208.92,52.7v.78h-1.69v-8.12h1.69v3.01c.41-.56.98-.97,1.86-.97,1.39,0,2.71,1.09,2.71,3.08v.02c0,1.99-1.3,3.08-2.71,3.08-.9,0-1.46-.41-1.86-.89ZM211.8,50.51v-.02c0-.99-.67-1.65-1.46-1.65s-1.45.66-1.45,1.65v.02c0,.99.66,1.65,1.45,1.65s1.46-.65,1.46-1.65Z"/>
        <path class="cls-6" d="M214.38,51.77v-.02c0-1.3.99-1.9,2.4-1.9.6,0,1.03.1,1.46.25v-.1c0-.7-.43-1.09-1.28-1.09-.65,0-1.1.12-1.65.32l-.42-1.29c.66-.29,1.3-.48,2.31-.48.92,0,1.59.25,2.01.67.44.44.65,1.1.65,1.9v3.46h-1.64v-.65c-.41.46-.98.76-1.8.76-1.12,0-2.05-.65-2.05-1.82ZM218.26,51.38v-.3c-.29-.13-.67-.22-1.08-.22-.72,0-1.17.29-1.17.82v.02c0,.46.38.72.92.72.79,0,1.32-.43,1.32-1.05Z"/>
        <path class="cls-6" d="M223.01,52.7v.78h-1.69v-8.12h1.69v3.01c.41-.56.98-.97,1.86-.97,1.39,0,2.71,1.09,2.71,3.08v.02c0,1.99-1.3,3.08-2.71,3.08-.9,0-1.46-.41-1.86-.89ZM225.89,50.51v-.02c0-.99-.67-1.65-1.46-1.65s-1.45.66-1.45,1.65v.02c0,.99.66,1.65,1.45,1.65s1.46-.65,1.46-1.65Z"/>
        <path class="cls-6" d="M228.86,45.36h1.78v1.5h-1.78v-1.5ZM228.9,47.52h1.69v5.96h-1.69v-5.96Z"/>
        <path class="cls-6" d="M232.26,45.36h1.69v8.12h-1.69v-8.12Z"/>
        <path class="cls-6" d="M235.57,45.36h1.78v1.5h-1.78v-1.5ZM235.62,47.52h1.69v5.96h-1.69v-5.96Z"/>
        <path class="cls-6" d="M239.17,51.79v-2.83h-.71v-1.45h.71v-1.52h1.69v1.52h1.4v1.45h-1.4v2.55c0,.39.17.58.54.58.31,0,.59-.08.83-.21v1.36c-.36.21-.77.35-1.33.35-1.03,0-1.74-.41-1.74-1.79Z"/>
        <path class="cls-6" d="M247.43,47.52h1.76l-2.29,6.11c-.46,1.21-.95,1.67-1.96,1.67-.61,0-1.07-.16-1.5-.41l.57-1.22c.22.13.5.23.72.23.29,0,.44-.09.59-.39l-2.34-5.98h1.79l1.36,4.06,1.3-4.06Z"/>
        <path class="cls-6" d="M253.23,50.53v-.02c0-1.71,1.38-3.1,3.24-3.1s3.21,1.37,3.21,3.08v.02c0,1.71-1.38,3.1-3.24,3.1s-3.21-1.37-3.21-3.08ZM258.01,50.53v-.02c0-.88-.63-1.65-1.57-1.65s-1.55.75-1.55,1.62v.02c0,.88.63,1.65,1.57,1.65s1.55-.75,1.55-1.62Z"/>
        <path class="cls-6" d="M261.19,48.96h-.7v-1.39h.7v-.38c0-.66.17-1.13.48-1.45.31-.31.77-.47,1.37-.47.53,0,.89.07,1.2.17v1.4c-.24-.09-.48-.14-.77-.14-.39,0-.61.2-.61.65v.23h1.37v1.38h-1.35v4.52h-1.69v-4.52Z"/>
        <path class="cls-6" d="M268.48,47.52h1.69v1.2c.34-.82.9-1.36,1.9-1.31v1.77h-.09c-1.12,0-1.81.68-1.81,2.1v2.2h-1.69v-5.96Z"/>
        <path class="cls-6" d="M272.68,50.53v-.02c0-1.7,1.21-3.1,2.95-3.1,1.99,0,2.9,1.55,2.9,3.24,0,.13-.01.29-.02.45h-4.15c.17.77.7,1.17,1.46,1.17.57,0,.98-.18,1.45-.61l.97.86c-.56.69-1.36,1.11-2.44,1.11-1.79,0-3.11-1.26-3.11-3.08ZM276.88,50.03c-.1-.76-.54-1.27-1.26-1.27s-1.16.5-1.29,1.27h2.55Z"/>
        <path class="cls-6" d="M279.31,52.69l.72-1.11c.65.47,1.32.71,1.88.71.49,0,.71-.18.71-.44v-.02c0-.37-.58-.49-1.23-.69-.83-.25-1.78-.63-1.78-1.79v-.02c0-1.21.98-1.89,2.18-1.89.76,0,1.58.25,2.22.69l-.65,1.17c-.59-.34-1.18-.56-1.61-.56-.41,0-.62.18-.62.41v.02c0,.33.57.49,1.21.71.83.28,1.8.68,1.8,1.77v.02c0,1.32-.99,1.92-2.28,1.92-.83,0-1.77-.28-2.56-.9Z"/>
        <path class="cls-6" d="M285.36,47.52h1.69v.86c.41-.56.98-.97,1.86-.97,1.39,0,2.71,1.09,2.71,3.08v.02c0,1.99-1.3,3.08-2.71,3.08-.9,0-1.46-.41-1.86-.89v2.56h-1.69v-7.74ZM289.93,50.51v-.02c0-.99-.67-1.65-1.46-1.65s-1.45.66-1.45,1.65v.02c0,.99.66,1.65,1.45,1.65s1.46-.65,1.46-1.65Z"/>
        <path class="cls-6" d="M292.58,50.53v-.02c0-1.71,1.38-3.1,3.24-3.1s3.21,1.37,3.21,3.08v.02c0,1.71-1.38,3.1-3.24,3.1s-3.21-1.37-3.21-3.08ZM297.36,50.53v-.02c0-.88-.63-1.65-1.57-1.65s-1.55.75-1.55,1.62v.02c0,.88.63,1.65,1.57,1.65s1.55-.75,1.55-1.62Z"/>
        <path class="cls-6" d="M300.25,47.52h1.69v.84c.39-.5.89-.96,1.75-.96,1.28,0,2.02.84,2.02,2.21v3.86h-1.69v-3.33c0-.8-.38-1.21-1.02-1.21s-1.06.41-1.06,1.21v3.33h-1.69v-5.96Z"/>
        <path class="cls-6" d="M306.71,52.69l.72-1.11c.65.47,1.32.71,1.88.71.49,0,.71-.18.71-.44v-.02c0-.37-.58-.49-1.23-.69-.83-.25-1.78-.63-1.78-1.79v-.02c0-1.21.98-1.89,2.18-1.89.76,0,1.58.25,2.22.69l-.65,1.17c-.59-.34-1.18-.56-1.61-.56-.41,0-.62.18-.62.41v.02c0,.33.57.49,1.21.71.83.28,1.8.68,1.8,1.77v.02c0,1.32-.99,1.92-2.28,1.92-.83,0-1.77-.28-2.56-.9Z"/>
        <path class="cls-6" d="M312.47,50.53v-.02c0-1.7,1.21-3.1,2.95-3.1,1.99,0,2.9,1.55,2.9,3.24,0,.13-.01.29-.02.45h-4.15c.17.77.7,1.17,1.46,1.17.57,0,.98-.18,1.45-.61l.97.86c-.56.69-1.36,1.11-2.44,1.11-1.79,0-3.11-1.26-3.11-3.08ZM316.68,50.03c-.1-.76-.54-1.27-1.26-1.27s-1.16.5-1.29,1.27h2.55Z"/>
        <path class="cls-6" d="M323.19,51.79v-2.83h-.71v-1.45h.71v-1.52h1.69v1.52h1.4v1.45h-1.4v2.55c0,.39.17.58.54.58.31,0,.59-.08.83-.21v1.36c-.36.21-.77.35-1.33.35-1.03,0-1.74-.41-1.74-1.79Z"/>
        <path class="cls-6" d="M327.07,50.53v-.02c0-1.71,1.38-3.1,3.24-3.1s3.21,1.37,3.21,3.08v.02c0,1.71-1.38,3.1-3.24,3.1s-3.21-1.37-3.21-3.08ZM331.85,50.53v-.02c0-.88-.63-1.65-1.57-1.65s-1.55.75-1.55,1.62v.02c0,.88.63,1.65,1.57,1.65s1.55-.75,1.55-1.62Z"/>
        <path class="cls-6" d="M337.59,45.69h1.89l2.04,5.48,2.04-5.48h1.85l-3.15,7.84h-1.51l-3.15-7.84Z"/>
        <path class="cls-6" d="M346.6,45.69h3.04c2.45,0,4.14,1.68,4.14,3.87v.02c0,2.19-1.69,3.89-4.14,3.89h-3.04v-7.79ZM348.31,47.24v4.69h1.32c1.4,0,2.35-.95,2.35-2.33v-.02c0-1.38-.95-2.35-2.35-2.35h-1.32Z"/>
        <path class="cls-6" d="M354.61,52.18l4.28-4.98h-4.15v-1.5h6.35v1.3l-4.28,4.98h4.28v1.5h-6.49v-1.3Z"/>
        <path class="cls-6" d="M189.63,68.6v.78h-1.69v-8.12h1.69v3.01c.41-.56.98-.97,1.86-.97,1.39,0,2.71,1.09,2.71,3.08v.02c0,1.99-1.3,3.08-2.71,3.08-.9,0-1.46-.41-1.86-.89ZM192.51,66.4v-.02c0-.99-.67-1.65-1.46-1.65s-1.45.66-1.45,1.65v.02c0,.99.66,1.65,1.45,1.65s1.46-.65,1.46-1.65Z"/>
        <path class="cls-6" d="M195.09,67.66v-.02c0-1.3.99-1.9,2.4-1.9.6,0,1.03.1,1.46.25v-.1c0-.7-.43-1.09-1.28-1.09-.65,0-1.1.12-1.65.32l-.42-1.29c.66-.29,1.3-.48,2.31-.48.92,0,1.59.25,2.01.67.44.44.65,1.1.65,1.9v3.46h-1.64v-.65c-.41.46-.98.76-1.8.76-1.12,0-2.05-.65-2.05-1.82ZM198.97,67.27v-.3c-.29-.13-.67-.22-1.08-.22-.72,0-1.17.29-1.17.82v.02c0,.46.38.72.92.72.79,0,1.32-.43,1.32-1.05Z"/>
        <path class="cls-6" d="M201.56,68.58l.72-1.11c.65.47,1.32.71,1.88.71.49,0,.71-.18.71-.44v-.02c0-.37-.58-.49-1.23-.69-.83-.25-1.78-.63-1.78-1.79v-.02c0-1.21.98-1.89,2.18-1.89.76,0,1.58.25,2.22.69l-.65,1.17c-.59-.34-1.18-.56-1.61-.56-.41,0-.62.18-.62.41v.02c0,.33.57.49,1.21.71.83.28,1.8.68,1.8,1.77v.02c0,1.32-.99,1.92-2.28,1.92-.83,0-1.77-.28-2.56-.9Z"/>
        <path class="cls-6" d="M207.32,66.43v-.02c0-1.7,1.21-3.1,2.95-3.1,1.99,0,2.9,1.55,2.9,3.24,0,.13-.01.29-.02.45h-4.15c.17.77.7,1.17,1.46,1.17.57,0,.98-.18,1.45-.61l.97.86c-.56.69-1.36,1.11-2.44,1.11-1.79,0-3.11-1.26-3.11-3.08ZM211.52,65.93c-.1-.76-.54-1.27-1.26-1.27s-1.16.5-1.29,1.27h2.55Z"/>
        <path class="cls-6" d="M214.16,66.4v-.02c0-1.99,1.3-3.08,2.71-3.08.9,0,1.46.41,1.86.89v-2.94h1.69v8.12h-1.69v-.86c-.41.56-.98.97-1.86.97-1.39,0-2.71-1.09-2.71-3.08ZM218.75,66.4v-.02c0-.99-.66-1.65-1.45-1.65s-1.46.65-1.46,1.65v.02c0,.99.67,1.65,1.46,1.65s1.45-.66,1.45-1.65Z"/>
        <path class="cls-6" d="M224.98,66.43v-.02c0-1.71,1.38-3.1,3.24-3.1s3.21,1.37,3.21,3.08v.02c0,1.71-1.38,3.1-3.24,3.1s-3.21-1.37-3.21-3.08ZM229.76,66.43v-.02c0-.88-.63-1.65-1.57-1.65s-1.55.75-1.55,1.62v.02c0,.88.63,1.65,1.57,1.65s1.55-.75,1.55-1.62Z"/>
        <path class="cls-6" d="M232.65,63.41h1.69v.84c.39-.5.89-.96,1.75-.96,1.28,0,2.02.84,2.02,2.21v3.86h-1.69v-3.33c0-.8-.38-1.21-1.02-1.21s-1.06.41-1.06,1.21v3.33h-1.69v-5.96Z"/>
        <path class="cls-6" d="M242.42,61.59h1.89l2.04,5.48,2.04-5.48h1.85l-3.15,7.84h-1.51l-3.15-7.84Z"/>
        <path class="cls-6" d="M250.6,65.11h3.43v1.62h-3.43v-1.62Z"/>
        <path class="cls-6" d="M255.17,65.5v-.02c0-2.21,1.67-4.03,4.06-4.03,1.47,0,2.35.49,3.07,1.2l-1.09,1.26c-.6-.54-1.21-.88-1.99-.88-1.31,0-2.26,1.09-2.26,2.42v.02c0,1.33.92,2.45,2.26,2.45.89,0,1.43-.36,2.05-.91l1.09,1.1c-.8.86-1.69,1.39-3.19,1.39-2.29,0-3.99-1.77-3.99-4Z"/>
        <path class="cls-6" d="M263.73,61.59h3.04c2.45,0,4.14,1.68,4.14,3.87v.02c0,2.19-1.69,3.89-4.14,3.89h-3.04v-7.79ZM265.44,63.13v4.69h1.32c1.4,0,2.35-.95,2.35-2.33v-.02c0-1.38-.95-2.35-2.35-2.35h-1.32Z"/>
        <path class="cls-6" d="M271.78,68.24l1.01-1.21c.7.58,1.44.95,2.32.95.7,0,1.12-.28,1.12-.73v-.02c0-.43-.27-.66-1.57-.99-1.57-.4-2.58-.83-2.58-2.38v-.02c0-1.41,1.13-2.35,2.73-2.35,1.13,0,2.1.36,2.89.99l-.89,1.29c-.69-.48-1.37-.77-2.02-.77s-1,.3-1,.68v.02c0,.51.33.68,1.68,1.02,1.58.41,2.47.98,2.47,2.34v.02c0,1.55-1.18,2.41-2.86,2.41-1.18,0-2.37-.41-3.3-1.25Z"/>
        <path class="cls-6" d="M281.07,63.17h-2.37v-1.58h6.45v1.58h-2.37v6.21h-1.71v-6.21Z"/>
      </g>
      <g>
        <path class="cls-6" d="M.38,236.49v-.88h6.97v-4.38h.81v5.26H.38Z"/>
        <path class="cls-6" d="M7.03,230.16l-.65-.54c.73-.81,1.1-1.59,1.1-2.67s-.56-1.74-1.32-1.74h-.02c-.72,0-1.13.39-1.48,2.03-.39,1.79-.97,2.61-2.25,2.61h-.02c-1.22,0-2.12-1.08-2.12-2.56,0-1.13.32-1.95.96-2.74l.68.51c-.59.72-.85,1.45-.85,2.25,0,1.01.56,1.66,1.26,1.66h.02c.73,0,1.15-.4,1.51-2.11.38-1.74,1.01-2.54,2.2-2.54h.02c1.33,0,2.2,1.11,2.2,2.66,0,1.23-.41,2.25-1.25,3.18Z"/>
        <path class="cls-6" d="M2.41,219.34v-.86h.97c-.57-.38-1.09-.89-1.09-1.86s.5-1.54,1.15-1.85c-.63-.41-1.15-1.02-1.15-2.02,0-1.32.89-2.14,2.31-2.14h3.56v.86h-3.36c-1.11,0-1.74.56-1.74,1.49,0,.87.65,1.59,1.78,1.59h3.31v.85h-3.38c-1.08,0-1.71.57-1.71,1.48s.76,1.6,1.81,1.6h3.28v.86H2.41Z"/>
        <path class="cls-6" d="M5.31,209.16h-.02c-1.66,0-2.99-1.17-2.99-2.76,0-1.7,1.36-2.68,3.04-2.68.11,0,.18,0,.28.01v4.56c1.25-.12,1.95-1,1.95-2.02,0-.79-.32-1.35-.81-1.81l.48-.53c.65.58,1.08,1.28,1.08,2.37,0,1.58-1.21,2.87-2.99,2.87ZM4.97,204.58c-1.05.09-1.96.69-1.96,1.84,0,1,.83,1.76,1.96,1.87v-3.7Z"/>
        <path class="cls-6" d="M6.5,202.65h-.02c-1.21,0-1.86-1-1.86-2.46,0-.73.1-1.26.24-1.77h-.2c-1.03,0-1.57.63-1.57,1.71,0,.68.18,1.21.42,1.75l-.7.26c-.29-.63-.48-1.26-.48-2.09s.21-1.43.63-1.86c.39-.39.95-.59,1.68-.59h3.52v.82h-.87c.52.4.99,1.07.99,2.08,0,1.07-.61,2.15-1.79,2.15ZM6.05,198.41h-.56c-.12.42-.24.99-.24,1.69,0,1.08.47,1.68,1.19,1.68h.02c.72,0,1.15-.67,1.15-1.45,0-1.06-.65-1.92-1.56-1.92Z"/>
        <path class="cls-6" d="M2.41,195.78v-.86h1c-.62-.38-1.12-.98-1.12-1.97,0-1.39.93-2.2,2.3-2.2h3.57v.86h-3.36c-1.07,0-1.74.58-1.74,1.59s.72,1.72,1.8,1.72h3.29v.86H2.41Z"/>
        <path class="cls-6" d="M5.32,185.95h-.02c-1.62,0-3-1.27-3-2.95,0-1.09.46-1.77,1.02-2.3l.6.57c-.48.46-.87.97-.87,1.75,0,1.17.99,2.06,2.22,2.06h.02c1.25,0,2.24-.91,2.24-2.11,0-.73-.37-1.3-.86-1.76l.51-.54c.65.58,1.11,1.27,1.11,2.35,0,1.68-1.37,2.95-2.98,2.95Z"/>
        <path class="cls-6" d="M.04,179.24v-.86h3.37c-.62-.38-1.12-.98-1.12-1.97,0-1.39.93-2.2,2.3-2.2h3.57v.86h-3.36c-1.07,0-1.74.58-1.74,1.59s.72,1.72,1.8,1.72h3.29v.86H.04Z"/>
        <path class="cls-6" d="M6.5,172.83h-.02c-1.21,0-1.86-1-1.86-2.46,0-.73.1-1.26.24-1.77h-.2c-1.03,0-1.57.63-1.57,1.71,0,.68.18,1.21.42,1.75l-.7.26c-.29-.63-.48-1.26-.48-2.09s.21-1.43.63-1.86c.39-.39.95-.59,1.68-.59h3.52v.82h-.87c.52.4.99,1.07.99,2.08,0,1.07-.61,2.15-1.79,2.15ZM6.05,168.59h-.56c-.12.42-.24.99-.24,1.69,0,1.08.47,1.68,1.19,1.68h.02c.72,0,1.15-.67,1.15-1.45,0-1.06-.65-1.92-1.56-1.92Z"/>
        <path class="cls-6" d="M2.41,165.96v-.86h1c-.62-.38-1.12-.98-1.12-1.97,0-1.39.93-2.2,2.3-2.2h3.57v.86h-3.36c-1.07,0-1.74.58-1.74,1.59s.72,1.72,1.8,1.72h3.29v.86H2.41Z"/>
        <path class="cls-6" d="M9.17,159.17l-.67-.39c.48-.66.73-1.39.73-2.21,0-1.27-.7-2.09-2.05-2.09h-.68c.67.5,1.21,1.2,1.21,2.26,0,1.38-1.03,2.7-2.69,2.7h-.02c-1.68,0-2.71-1.33-2.71-2.7,0-1.08.53-1.78,1.16-2.25h-1.03v-.86h4.75c.89,0,1.57.27,2.04.73.51.51.77,1.28.77,2.19,0,.96-.27,1.85-.8,2.61ZM5.02,154.46h-.02c-1.18,0-1.95,1.02-1.95,2.11s.76,1.99,1.94,1.99h.02c1.16,0,1.96-.92,1.96-1.99s-.79-2.11-1.95-2.11Z"/>
        <path class="cls-6" d="M5.31,152.08h-.02c-1.66,0-2.99-1.17-2.99-2.76,0-1.7,1.36-2.68,3.04-2.68.11,0,.18,0,.28.01v4.56c1.25-.12,1.95-1,1.95-2.02,0-.79-.32-1.35-.81-1.81l.48-.53c.65.58,1.08,1.28,1.08,2.37,0,1.58-1.21,2.87-2.99,2.87ZM4.97,147.51c-1.05.09-1.96.69-1.96,1.84,0,1,.83,1.76,1.96,1.87v-3.7Z"/>
        <path class="cls-6" d="M3.17,141.48v.79h-.75v-.79h-.5c-.66,0-1.16-.18-1.48-.5-.29-.29-.45-.71-.45-1.24,0-.4.04-.67.14-.95h.75c-.09.31-.14.54-.14.83,0,.67.4,1,1.22,1h.47v-1.82h.73v1.81h4.99v.86H3.17Z"/>
        <path class="cls-6" d="M2.41,137.73v-.86h1.5c-.96-.42-1.65-1.26-1.6-2.35h.92v.07c0,1.26.9,2.28,2.64,2.28h2.29v.86H2.41Z"/>
        <path class="cls-6" d="M5.32,133.82h-.02c-1.62,0-3-1.27-3-3s1.36-2.99,2.98-2.99h.02c1.62,0,3,1.28,3,3.01s-1.36,2.98-2.98,2.98ZM5.32,128.71h-.02c-1.23,0-2.25.92-2.25,2.14s1.01,2.1,2.22,2.1h.02c1.23,0,2.24-.91,2.24-2.12s-1-2.11-2.21-2.11Z"/>
        <path class="cls-6" d="M2.41,126.28v-.86h.97c-.57-.38-1.09-.89-1.09-1.86s.5-1.54,1.15-1.85c-.63-.41-1.15-1.02-1.15-2.02,0-1.32.89-2.14,2.31-2.14h3.56v.86h-3.36c-1.11,0-1.74.56-1.74,1.49,0,.87.65,1.59,1.78,1.59h3.31v.85h-3.38c-1.08,0-1.71.57-1.71,1.48s.76,1.6,1.81,1.6h3.28v.86H2.41Z"/>
        <path class="cls-6" d="M7.06,111.55h1.1v.86H.04v-.86h3.53c-.69-.47-1.28-1.15-1.28-2.2,0-1.38,1.09-2.75,2.98-2.75h.02c1.88,0,2.99,1.36,2.99,2.75,0,1.07-.58,1.76-1.22,2.2ZM5.31,107.48h-.02c-1.36,0-2.22.93-2.22,2.02s.9,2.08,2.21,2.08h.02c1.33,0,2.22-1.01,2.22-2.08s-.82-2.02-2.21-2.02Z"/>
        <path class="cls-6" d="M6.5,105.46h-.02c-1.21,0-1.86-1-1.86-2.46,0-.73.1-1.26.24-1.77h-.2c-1.03,0-1.57.63-1.57,1.71,0,.68.18,1.21.42,1.75l-.7.26c-.29-.63-.48-1.26-.48-2.09s.21-1.43.63-1.86c.39-.39.95-.59,1.68-.59h3.52v.82h-.87c.52.4.99,1.07.99,2.08,0,1.07-.61,2.15-1.79,2.15ZM6.05,101.22h-.56c-.12.42-.24.99-.24,1.69,0,1.08.47,1.68,1.19,1.68h.02c.72,0,1.15-.67,1.15-1.45,0-1.06-.65-1.92-1.56-1.92Z"/>
        <path class="cls-6" d="M7.43,99.06l-.61-.43c.47-.62.73-1.31.73-1.99s-.36-1.19-.91-1.19h-.02c-.58,0-.8.68-1.01,1.44-.26.9-.57,1.9-1.62,1.9h-.02c-.99,0-1.65-.82-1.65-1.96,0-.7.24-1.48.63-2.07l.65.39c-.34.53-.56,1.15-.56,1.7,0,.68.36,1.11.83,1.11h.02c.55,0,.76-.71.99-1.48.27-.89.61-1.85,1.65-1.85h.02c1.09,0,1.72.9,1.72,2.05,0,.82-.32,1.74-.85,2.38Z"/>
        <path class="cls-6" d="M5.31,93.41h-.02c-1.66,0-2.99-1.17-2.99-2.76,0-1.7,1.36-2.68,3.04-2.68.11,0,.18,0,.28.01v4.56c1.25-.12,1.95-1,1.95-2.02,0-.79-.32-1.35-.81-1.81l.48-.53c.65.58,1.08,1.28,1.08,2.37,0,1.58-1.21,2.87-2.99,2.87ZM4.97,88.83c-1.05.09-1.96.69-1.96,1.84,0,1,.83,1.76,1.96,1.87v-3.7Z"/>
        <path class="cls-6" d="M.04,86.39v-.86h8.12v.86H.04Z"/>
        <path class="cls-6" d="M.21,83.52v-.98h.95v.98H.21ZM2.41,83.46v-.86h5.75v.86H2.41Z"/>
        <path class="cls-6" d="M2.41,80.62v-.86h1c-.62-.38-1.12-.98-1.12-1.97,0-1.39.93-2.2,2.3-2.2h3.57v.86h-3.36c-1.07,0-1.74.58-1.74,1.59s.72,1.72,1.8,1.72h3.29v.86H2.41Z"/>
        <path class="cls-6" d="M5.31,74.12h-.02c-1.66,0-2.99-1.17-2.99-2.76,0-1.7,1.36-2.68,3.04-2.68.11,0,.18,0,.28.01v4.56c1.25-.12,1.95-1,1.95-2.02,0-.79-.32-1.35-.81-1.81l.48-.53c.65.58,1.08,1.28,1.08,2.37,0,1.58-1.21,2.87-2.99,2.87ZM4.97,69.55c-1.05.09-1.96.69-1.96,1.84,0,1,.83,1.76,1.96,1.87v-3.7Z"/>
        <path class="cls-6" d="M12.72,184.84v-.98h.95v.98h-.95ZM14.92,184.78v-.86h5.75v.86h-5.75Z"/>
        <path class="cls-6" d="M14.92,181.94v-.86h1c-.62-.38-1.12-.98-1.12-1.97,0-1.39.93-2.2,2.3-2.2h3.57v.86h-3.36c-1.07,0-1.74.58-1.74,1.59s.72,1.72,1.8,1.72h3.29v.86h-5.75Z"/>
        <path class="cls-6" d="M12.89,171.61v-.88h3.46v-4.49h-3.46v-.88h7.79v.88h-3.5v4.49h3.5v.88h-7.79Z"/>
        <path class="cls-6" d="M12.89,163.16v-3.31c0-.89.26-1.59.69-2.04.33-.32.75-.5,1.25-.5h.02c1.01,0,1.54.62,1.8,1.23.28-.92.81-1.67,1.88-1.67h.02c1.33,0,2.12,1.12,2.12,2.83v3.46h-7.79ZM14.95,158.19c-.77,0-1.27.61-1.27,1.72v2.37h2.68v-2.3c0-1.06-.48-1.79-1.39-1.79h-.02ZM17.14,159.83v2.46h2.75v-2.61c0-1.18-.52-1.91-1.39-1.91h-.02c-.85,0-1.33.71-1.33,2.07Z"/>
        <path class="cls-6" d="M12.89,155.05v-.88h7.79v.88h-7.79Z"/>
        <path class="cls-6" d="M19.94,149.18l-.61-.43c.47-.62.73-1.31.73-1.99s-.36-1.19-.91-1.19h-.02c-.58,0-.8.68-1.01,1.44-.26.9-.57,1.9-1.62,1.9h-.02c-.99,0-1.65-.82-1.65-1.96,0-.7.24-1.48.63-2.07l.65.39c-.34.53-.56,1.15-.56,1.7,0,.68.36,1.11.83,1.11h.02c.55,0,.76-.71.99-1.48.27-.89.61-1.85,1.65-1.85h.02c1.09,0,1.72.9,1.72,2.05,0,.82-.32,1.74-.85,2.38Z"/>
        <path class="cls-6" d="M17.83,143.52h-.02c-1.62,0-3-1.27-3-2.95,0-1.09.46-1.77,1.02-2.3l.6.57c-.48.46-.87.97-.87,1.75,0,1.17.99,2.06,2.22,2.06h.02c1.25,0,2.24-.91,2.24-2.11,0-.73-.37-1.3-.86-1.76l.51-.54c.65.58,1.11,1.27,1.11,2.35,0,1.68-1.37,2.95-2.98,2.95Z"/>
        <path class="cls-6" d="M17.83,137.34h-.02c-1.62,0-3-1.27-3-3s1.36-2.99,2.98-2.99h.02c1.62,0,3,1.28,3,3.01s-1.36,2.98-2.98,2.98ZM17.83,132.22h-.02c-1.23,0-2.25.92-2.25,2.14s1.01,2.1,2.22,2.1h.02c1.23,0,2.24-.91,2.24-2.12s-1-2.11-2.21-2.11Z"/>
        <path class="cls-6" d="M14.92,129.8v-.86h1.5c-.96-.42-1.65-1.26-1.6-2.35h.92v.07c0,1.26.9,2.28,2.64,2.28h2.29v.86h-5.75Z"/>
        <path class="cls-6" d="M17.82,125.9h-.02c-1.66,0-2.99-1.17-2.99-2.76,0-1.7,1.36-2.68,3.04-2.68.11,0,.18,0,.28.01v4.56c1.25-.12,1.95-1,1.95-2.02,0-.79-.32-1.35-.81-1.81l.48-.53c.65.58,1.08,1.28,1.08,2.37,0,1.58-1.21,2.87-2.99,2.87ZM17.48,121.32c-1.05.09-1.96.69-1.96,1.84,0,1,.83,1.76,1.96,1.87v-3.7Z"/>
      </g>
      <line class="cls-1" x1="188.21" y1="95.61" x2="203.18" y2="95.61"/>
      <circle class="cls-7" cx="195.7" cy="110.22" r="2.81"/>
      <g>
        <path class="cls-6" d="M214.28,105.24h.88v3.46h4.49v-3.46h.88v7.79h-.88v-3.5h-4.49v3.5h-.88v-7.79Z"/>
        <path class="cls-6" d="M222.61,105.07h.98v.95h-.98v-.95ZM222.67,107.27h.86v5.75h-.86v-5.75Z"/>
        <path class="cls-6" d="M225.45,114.03l.39-.67c.66.48,1.39.73,2.21.73,1.27,0,2.09-.7,2.09-2.05v-.68c-.5.67-1.2,1.21-2.26,1.21-1.38,0-2.7-1.03-2.7-2.69v-.02c0-1.68,1.33-2.71,2.7-2.71,1.08,0,1.78.53,2.25,1.16v-1.03h.86v4.75c0,.89-.27,1.57-.73,2.04-.51.51-1.28.77-2.19.77s-1.85-.27-2.61-.8ZM230.16,109.88v-.02c0-1.18-1.02-1.95-2.11-1.95s-1.99.76-1.99,1.94v.02c0,1.16.92,1.96,1.99,1.96s2.11-.79,2.11-1.95Z"/>
        <path class="cls-6" d="M232.9,104.9h.86v3.37c.38-.62.98-1.12,1.97-1.12,1.39,0,2.2.93,2.2,2.3v3.57h-.86v-3.36c0-1.07-.58-1.74-1.59-1.74s-1.72.72-1.72,1.8v3.29h-.86v-8.12Z"/>
        <path class="cls-6" d="M242.88,109.83c0-2.05,1.1-3.65,3.08-4.76l.37.57c-1.69,1.08-2.58,2.41-2.58,4.19s.89,3.11,2.58,4.19l-.37.57c-1.98-1.11-3.08-2.71-3.08-4.76Z"/>
        <path class="cls-6" d="M247.98,111.21l4.28-2.09-4.28-2.1v-.87l5.22,2.59v.73l-5.22,2.59v-.86Z"/>
        <path class="cls-6" d="M259.23,106.09l-1.47.46-.21-.71,1.9-.66h.65v7.84h-.87v-6.93Z"/>
        <path class="cls-6" d="M266.83,109.11v-.16c-.49.76-1.2,1.23-2.2,1.23-1.6,0-2.71-1.01-2.71-2.41v-.02c0-1.48,1.15-2.65,2.8-2.65.89,0,1.55.3,2.05.8.59.59.97,1.46.97,3.01v.02c0,2.47-1.31,4.22-3.24,4.22-1.01,0-1.75-.41-2.4-.96l.51-.68c.63.56,1.22.83,1.91.83,1.5,0,2.31-1.57,2.31-3.25ZM266.67,107.67v-.02c0-.99-.81-1.77-1.98-1.77s-1.87.86-1.87,1.82v.02c0,.99.78,1.7,1.91,1.7,1.19,0,1.94-.87,1.94-1.76Z"/>
        <path class="cls-6" d="M272.7,107.27h.86v1.16c.47-.69,1.15-1.28,2.2-1.28,1.38,0,2.75,1.09,2.75,2.98v.02c0,1.88-1.36,2.99-2.75,2.99-1.07,0-1.76-.58-2.2-1.22v2.88h-.86v-7.53ZM277.63,110.17v-.02c0-1.36-.93-2.22-2.02-2.22s-2.08.9-2.08,2.21v.02c0,1.33,1.01,2.22,2.08,2.22s2.02-.82,2.02-2.21Z"/>
        <path class="cls-6" d="M279.73,110.18v-.02c0-1.62,1.27-3,3-3s2.99,1.36,2.99,2.98v.02c0,1.62-1.28,3-3.01,3s-2.98-1.36-2.98-2.98ZM284.85,110.18v-.02c0-1.23-.92-2.25-2.14-2.25s-2.1,1.01-2.1,2.22v.02c0,1.24.91,2.24,2.12,2.24s2.11-1,2.11-2.21Z"/>
        <path class="cls-6" d="M287.29,105.07h.98v.95h-.98v-.95ZM287.35,107.27h.86v5.75h-.86v-5.75Z"/>
        <path class="cls-6" d="M290.19,107.27h.86v1c.38-.62.98-1.12,1.97-1.12,1.39,0,2.2.93,2.2,2.3v3.57h-.86v-3.36c0-1.07-.58-1.74-1.59-1.74s-1.72.72-1.72,1.8v3.29h-.86v-5.75Z"/>
        <path class="cls-6" d="M297.34,111.5v-3.47h-.8v-.76h.8v-1.74h.86v1.74h1.82v.76h-1.82v3.36c0,.7.39.96.97.96.29,0,.53-.06.83-.2v.73c-.3.16-.62.25-1.03.25-.92,0-1.62-.46-1.62-1.62Z"/>
        <path class="cls-6" d="M301.06,112.29l.43-.61c.62.47,1.31.73,1.99.73s1.19-.36,1.19-.91v-.02c0-.58-.68-.8-1.44-1.01-.9-.26-1.9-.57-1.9-1.62v-.02c0-.99.82-1.65,1.96-1.65.7,0,1.48.24,2.07.63l-.39.64c-.53-.34-1.15-.56-1.7-.56-.68,0-1.11.36-1.11.83v.02c0,.54.71.76,1.48.99.89.27,1.85.61,1.85,1.65v.02c0,1.09-.9,1.72-2.05,1.72-.82,0-1.74-.32-2.38-.85Z"/>
        <path class="cls-6" d="M306.52,114.03c1.69-1.08,2.58-2.41,2.58-4.19s-.89-3.11-2.58-4.19l.37-.57c1.98,1.11,3.08,2.71,3.08,4.76s-1.1,3.65-3.08,4.76l-.37-.57Z"/>
      </g>
      <g>
        <path class="cls-6" d="M59.64,207.66l-1.15.81-.3-.52,1.29-.59-1.29-.6.3-.51,1.15.8-.11-1.39h.58l-.11,1.39,1.15-.8.3.51-1.29.6,1.29.59-.3.52-1.15-.81.11,1.39h-.58l.11-1.39Z"/>
        <path class="cls-6" d="M64.42,207.66l-1.15.81-.3-.52,1.29-.59-1.29-.6.3-.51,1.15.8-.11-1.39h.58l-.11,1.39,1.15-.8.3.51-1.29.6,1.29.59-.3.52-1.15-.81.11,1.39h-.58l.11-1.39Z"/>
        <path class="cls-6" d="M68.09,205.68h2.91c1.76,0,2.91.93,2.91,2.47v.02c0,1.68-1.4,2.55-3.06,2.55h-1.89v2.75h-.88v-7.79ZM70.89,209.91c1.29,0,2.14-.69,2.14-1.71v-.02c0-1.11-.83-1.69-2.09-1.69h-1.97v3.43h1.92Z"/>
        <path class="cls-6" d="M78.47,209.91v-.73l5.23-2.59v.86l-4.29,2.09,4.29,2.1v.87l-5.23-2.59Z"/>
        <path class="cls-6" d="M88.73,209.59v-.02c0-2.18,1.3-4.03,3.3-4.03s3.27,1.82,3.27,4v.02c0,2.18-1.29,4.03-3.29,4.03s-3.28-1.82-3.28-4ZM94.39,209.59v-.02c0-1.7-.93-3.23-2.38-3.23s-2.37,1.49-2.37,3.2v.02c0,1.7.93,3.23,2.39,3.23s2.36-1.5,2.36-3.2Z"/>
        <path class="cls-6" d="M96.61,212.29h1.02v1.17h-1.02v-1.17Z"/>
        <path class="cls-6" d="M98.95,209.59v-.02c0-2.18,1.3-4.03,3.3-4.03s3.27,1.82,3.27,4v.02c0,2.18-1.29,4.03-3.29,4.03s-3.28-1.82-3.28-4ZM104.61,209.59v-.02c0-1.7-.93-3.23-2.38-3.23s-2.37,1.49-2.37,3.2v.02c0,1.7.93,3.23,2.39,3.23s2.36-1.5,2.36-3.2Z"/>
        <path class="cls-6" d="M108.14,206.53l-1.47.46-.21-.71,1.9-.66h.65v7.84h-.87v-6.93Z"/>
        <path class="cls-6" d="M53.28,223.55l-1.15.81-.3-.52,1.29-.59-1.29-.6.3-.51,1.15.8-.11-1.39h.58l-.11,1.39,1.15-.8.3.51-1.29.6,1.29.59-.3.52-1.15-.81.11,1.39h-.58l.11-1.39Z"/>
        <path class="cls-6" d="M58.06,223.55l-1.15.81-.3-.52,1.29-.59-1.29-.6.3-.51,1.15.8-.11-1.39h.58l-.11,1.39,1.15-.8.3.51-1.29.6,1.29.59-.3.52-1.15-.81.11,1.39h-.58l.11-1.39Z"/>
        <path class="cls-6" d="M62.84,223.55l-1.15.81-.3-.52,1.29-.59-1.29-.6.3-.51,1.15.8-.11-1.39h.58l-.11,1.39,1.15-.8.3.51-1.29.6,1.29.59-.3.52-1.15-.81.11,1.39h-.58l.11-1.39Z"/>
        <path class="cls-6" d="M66.51,221.57h2.91c1.76,0,2.91.93,2.91,2.47v.02c0,1.68-1.4,2.55-3.06,2.55h-1.89v2.75h-.88v-7.79ZM69.31,225.81c1.29,0,2.14-.69,2.14-1.71v-.02c0-1.11-.83-1.69-2.09-1.69h-1.97v3.43h1.92Z"/>
        <path class="cls-6" d="M76.88,225.81v-.73l5.23-2.59v.86l-4.29,2.09,4.29,2.1v.87l-5.23-2.59Z"/>
        <path class="cls-6" d="M87.14,225.49v-.02c0-2.18,1.3-4.03,3.3-4.03s3.27,1.82,3.27,4v.02c0,2.18-1.29,4.03-3.29,4.03s-3.28-1.82-3.28-4ZM92.81,225.49v-.02c0-1.7-.93-3.23-2.38-3.23s-2.37,1.49-2.37,3.2v.02c0,1.7.93,3.23,2.39,3.23s2.36-1.5,2.36-3.2Z"/>
        <path class="cls-6" d="M95.03,228.19h1.02v1.17h-1.02v-1.17Z"/>
        <path class="cls-6" d="M97.36,225.49v-.02c0-2.18,1.3-4.03,3.3-4.03s3.27,1.82,3.27,4v.02c0,2.18-1.29,4.03-3.29,4.03s-3.28-1.82-3.28-4ZM103.02,225.49v-.02c0-1.7-.93-3.23-2.38-3.23s-2.37,1.49-2.37,3.2v.02c0,1.7.93,3.23,2.39,3.23s2.36-1.5,2.36-3.2Z"/>
        <path class="cls-6" d="M105.31,225.49v-.02c0-2.18,1.3-4.03,3.3-4.03s3.27,1.82,3.27,4v.02c0,2.18-1.29,4.03-3.29,4.03s-3.28-1.82-3.28-4ZM110.98,225.49v-.02c0-1.7-.93-3.23-2.38-3.23s-2.37,1.49-2.37,3.2v.02c0,1.7.93,3.23,2.39,3.23s2.36-1.5,2.36-3.2Z"/>
        <path class="cls-6" d="M114.51,222.43l-1.47.46-.21-.71,1.9-.66h.65v7.84h-.87v-6.93Z"/>
      </g>
      <g>
        <path class="cls-6" d="M51.93,240.4c0-2.05,1.1-3.65,3.08-4.76l.37.57c-1.69,1.08-2.58,2.41-2.58,4.19s.89,3.11,2.58,4.19l-.37.57c-1.98-1.11-3.08-2.71-3.08-4.76Z"/>
        <path class="cls-6" d="M56.53,241.92v-.02c0-1.21,1-1.86,2.46-1.86.73,0,1.26.1,1.77.25v-.2c0-1.03-.63-1.57-1.71-1.57-.68,0-1.21.18-1.75.42l-.26-.7c.63-.29,1.26-.48,2.09-.48s1.44.21,1.86.63c.39.39.59.95.59,1.68v3.51h-.82v-.87c-.4.52-1.07.99-2.08.99-1.07,0-2.15-.61-2.15-1.79ZM60.76,241.48v-.56c-.42-.12-.99-.24-1.69-.24-1.08,0-1.68.47-1.68,1.19v.02c0,.72.67,1.15,1.45,1.15,1.06,0,1.92-.64,1.92-1.56Z"/>
        <path class="cls-6" d="M63.4,237.84h.86v.97c.38-.57.89-1.09,1.86-1.09s1.53.5,1.85,1.15c.41-.63,1.02-1.15,2.02-1.15,1.32,0,2.14.89,2.14,2.31v3.56h-.86v-3.36c0-1.11-.56-1.74-1.49-1.74-.87,0-1.59.65-1.59,1.78v3.31h-.85v-3.38c0-1.08-.57-1.71-1.48-1.71s-1.6.76-1.6,1.81v3.28h-.86v-5.75Z"/>
        <path class="cls-6" d="M73.58,240.75v-.02c0-1.62,1.27-3,3-3s2.99,1.36,2.99,2.98v.02c0,1.62-1.28,3-3.01,3s-2.98-1.36-2.98-2.98ZM78.7,240.75v-.02c0-1.23-.92-2.25-2.14-2.25s-2.1,1.01-2.1,2.22v.02c0,1.24.91,2.24,2.12,2.24s2.11-1,2.11-2.21Z"/>
        <path class="cls-6" d="M81.12,237.84h.86v1c.38-.62.98-1.12,1.97-1.12,1.39,0,2.2.93,2.2,2.3v3.57h-.86v-3.36c0-1.07-.58-1.74-1.59-1.74s-1.72.72-1.72,1.8v3.29h-.86v-5.75Z"/>
        <path class="cls-6" d="M87.9,244.59l.39-.67c.66.48,1.39.73,2.21.73,1.27,0,2.09-.7,2.09-2.05v-.68c-.5.67-1.2,1.21-2.26,1.21-1.38,0-2.7-1.03-2.7-2.69v-.02c0-1.68,1.33-2.71,2.7-2.71,1.08,0,1.78.53,2.25,1.16v-1.03h.86v4.75c0,.89-.27,1.57-.73,2.04-.51.51-1.28.77-2.19.77s-1.85-.27-2.61-.8ZM92.62,240.45v-.02c0-1.18-1.02-1.95-2.11-1.95s-1.99.76-1.99,1.94v.02c0,1.16.92,1.96,1.99,1.96s2.11-.79,2.11-1.95Z"/>
        <path class="cls-6" d="M98.99,242.07v-3.47h-.8v-.76h.8v-1.74h.86v1.74h1.82v.76h-1.82v3.36c0,.7.39.96.97.96.29,0,.53-.06.83-.2v.73c-.3.16-.62.25-1.03.25-.92,0-1.62-.46-1.62-1.62Z"/>
        <path class="cls-6" d="M103.18,235.47h.86v3.37c.38-.62.98-1.12,1.97-1.12,1.39,0,2.2.93,2.2,2.3v3.57h-.86v-3.36c0-1.07-.58-1.74-1.59-1.74s-1.72.72-1.72,1.8v3.29h-.86v-8.12Z"/>
        <path class="cls-6" d="M110.03,237.84h.86v1.5c.42-.96,1.26-1.65,2.35-1.6v.92h-.07c-1.26,0-2.28.9-2.28,2.64v2.29h-.86v-5.75Z"/>
        <path class="cls-6" d="M113.93,240.74v-.02c0-1.66,1.17-2.99,2.76-2.99,1.7,0,2.68,1.36,2.68,3.04,0,.11,0,.18-.01.28h-4.56c.12,1.25,1,1.95,2.02,1.95.79,0,1.35-.32,1.81-.81l.53.48c-.58.64-1.28,1.08-2.37,1.08-1.58,0-2.87-1.21-2.87-2.99ZM118.51,240.4c-.09-1.05-.69-1.96-1.84-1.96-1,0-1.76.83-1.87,1.96h3.7Z"/>
        <path class="cls-6" d="M120.52,240.74v-.02c0-1.66,1.17-2.99,2.76-2.99,1.7,0,2.68,1.36,2.68,3.04,0,.11,0,.18-.01.28h-4.56c.12,1.25,1,1.95,2.02,1.95.79,0,1.35-.32,1.81-.81l.53.48c-.58.64-1.28,1.08-2.37,1.08-1.58,0-2.87-1.21-2.87-2.99ZM125.09,240.4c-.09-1.05-.69-1.96-1.84-1.96-1,0-1.76.83-1.87,1.96h3.7Z"/>
        <path class="cls-6" d="M130.59,239.72v-.02c0-2.2,1.65-4.03,3.94-4.03,1.41,0,2.26.5,3.04,1.23l-.6.65c-.66-.62-1.39-1.07-2.45-1.07-1.72,0-3.01,1.4-3.01,3.19v.02c0,1.8,1.3,3.21,3.01,3.21,1.07,0,1.77-.41,2.51-1.12l.58.57c-.81.82-1.7,1.37-3.11,1.37-2.25,0-3.9-1.77-3.9-4Z"/>
        <path class="cls-6" d="M139.19,235.81h2.7c2.45,0,4.14,1.68,4.14,3.87v.02c0,2.19-1.69,3.89-4.14,3.89h-2.7v-7.79ZM140.06,236.62v6.16h1.82c1.97,0,3.23-1.33,3.23-3.06v-.02c0-1.72-1.26-3.08-3.23-3.08h-1.82Z"/>
        <path class="cls-6" d="M147.26,242.46l.54-.65c.81.73,1.59,1.1,2.67,1.1s1.74-.56,1.74-1.32v-.02c0-.72-.39-1.13-2.02-1.48-1.79-.39-2.61-.97-2.61-2.25v-.02c0-1.22,1.08-2.12,2.56-2.12,1.13,0,1.95.32,2.74.96l-.51.68c-.72-.59-1.45-.85-2.25-.85-1.01,0-1.66.56-1.66,1.26v.02c0,.73.4,1.15,2.11,1.51,1.74.38,2.54,1.01,2.54,2.2v.02c0,1.33-1.11,2.2-2.66,2.2-1.23,0-2.25-.41-3.18-1.25Z"/>
        <path class="cls-6" d="M156.79,236.62h-2.63v-.81h6.13v.81h-2.63v6.97h-.88v-6.97Z"/>
        <path class="cls-6" d="M160.56,239.8h3.09v.9h-3.09v-.9Z"/>
        <path class="cls-6" d="M164.99,240.74v-.02c0-1.88,1.37-2.99,2.75-2.99,1.07,0,1.76.58,2.2,1.22v-3.47h.86v8.12h-.86v-1.16c-.47.69-1.15,1.28-2.2,1.28-1.38,0-2.75-1.09-2.75-2.98ZM169.98,240.72v-.02c0-1.32-1.01-2.21-2.08-2.21s-2.02.82-2.02,2.21v.02c0,1.36.93,2.22,2.02,2.22s2.08-.9,2.08-2.22Z"/>
        <path class="cls-6" d="M172.35,240.74v-.02c0-1.66,1.17-2.99,2.76-2.99,1.7,0,2.68,1.36,2.68,3.04,0,.11,0,.18-.01.28h-4.56c.12,1.25,1,1.95,2.02,1.95.79,0,1.35-.32,1.81-.81l.53.48c-.58.64-1.28,1.08-2.37,1.08-1.58,0-2.87-1.21-2.87-2.99ZM176.93,240.4c-.09-1.05-.69-1.96-1.84-1.96-1,0-1.76.83-1.87,1.96h3.7Z"/>
        <path class="cls-6" d="M179.61,238.6h-.79v-.75h.79v-.5c0-.66.18-1.16.5-1.48.29-.29.71-.45,1.23-.45.4,0,.67.04.95.14v.75c-.31-.09-.54-.15-.83-.15-.67,0-1,.4-1,1.22v.47h1.82v.73h-1.81v4.99h-.86v-4.99ZM183.4,235.64h.98v.95h-.98v-.95ZM183.46,237.84h.85v5.75h-.85v-5.75Z"/>
        <path class="cls-6" d="M186.31,237.84h.86v1c.38-.62.98-1.12,1.97-1.12,1.39,0,2.2.93,2.2,2.3v3.57h-.86v-3.36c0-1.07-.58-1.74-1.59-1.74s-1.72.72-1.72,1.8v3.29h-.86v-5.75Z"/>
        <path class="cls-6" d="M192.8,240.74v-.02c0-1.66,1.17-2.99,2.76-2.99,1.7,0,2.68,1.36,2.68,3.04,0,.11,0,.18-.01.28h-4.56c.12,1.25,1,1.95,2.02,1.95.79,0,1.35-.32,1.81-.81l.53.48c-.58.64-1.28,1.08-2.37,1.08-1.58,0-2.87-1.21-2.87-2.99ZM197.37,240.4c-.09-1.05-.69-1.96-1.84-1.96-1,0-1.76.83-1.87,1.96h3.7Z"/>
        <path class="cls-6" d="M199.41,240.74v-.02c0-1.88,1.37-2.99,2.75-2.99,1.07,0,1.76.58,2.2,1.22v-3.47h.86v8.12h-.86v-1.16c-.47.69-1.15,1.28-2.2,1.28-1.38,0-2.75-1.09-2.75-2.98ZM204.39,240.72v-.02c0-1.32-1.01-2.21-2.08-2.21s-2.02.82-2.02,2.21v.02c0,1.36.93,2.22,2.02,2.22s2.08-.9,2.08-2.22Z"/>
        <path class="cls-6" d="M210.39,244.59l.39-.67c.66.48,1.39.73,2.21.73,1.27,0,2.09-.7,2.09-2.05v-.68c-.5.67-1.2,1.21-2.26,1.21-1.38,0-2.7-1.03-2.7-2.69v-.02c0-1.68,1.33-2.71,2.7-2.71,1.08,0,1.78.53,2.25,1.16v-1.03h.86v4.75c0,.89-.27,1.57-.73,2.04-.51.51-1.28.77-2.19.77s-1.85-.27-2.61-.8ZM215.11,240.45v-.02c0-1.18-1.02-1.95-2.11-1.95s-1.99.76-1.99,1.94v.02c0,1.16.92,1.96,1.99,1.96s2.11-.79,2.11-1.95Z"/>
        <path class="cls-6" d="M217.84,237.84h.86v1.5c.42-.96,1.26-1.65,2.35-1.6v.92h-.07c-1.26,0-2.28.9-2.28,2.64v2.29h-.86v-5.75Z"/>
        <path class="cls-6" d="M221.74,240.75v-.02c0-1.62,1.27-3,3-3s2.99,1.36,2.99,2.98v.02c0,1.62-1.28,3-3.01,3s-2.98-1.36-2.98-2.98ZM226.86,240.75v-.02c0-1.23-.92-2.25-2.14-2.25s-2.1,1.01-2.1,2.22v.02c0,1.24.91,2.24,2.12,2.24s2.11-1,2.11-2.21Z"/>
        <path class="cls-6" d="M229.2,241.41v-3.57h.86v3.36c0,1.07.58,1.74,1.59,1.74s1.72-.72,1.72-1.8v-3.29h.85v5.75h-.85v-1c-.39.62-.98,1.12-1.97,1.12-1.39,0-2.2-.93-2.2-2.3Z"/>
        <path class="cls-6" d="M236.13,237.84h.86v1.16c.47-.69,1.15-1.28,2.2-1.28,1.38,0,2.75,1.09,2.75,2.98v.02c0,1.88-1.36,2.99-2.75,2.99-1.07,0-1.76-.58-2.2-1.22v2.88h-.86v-7.53ZM241.06,240.74v-.02c0-1.36-.93-2.22-2.02-2.22s-2.08.9-2.08,2.21v.02c0,1.33,1.01,2.22,2.08,2.22s2.02-.82,2.02-2.21Z"/>
        <path class="cls-6" d="M243.04,242.86l.43-.61c.62.47,1.31.73,1.99.73s1.19-.36,1.19-.91v-.02c0-.58-.68-.8-1.44-1.01-.9-.26-1.9-.57-1.9-1.62v-.02c0-.99.82-1.65,1.96-1.65.7,0,1.48.24,2.07.63l-.39.64c-.53-.34-1.15-.56-1.7-.56-.68,0-1.11.36-1.11.83v.02c0,.54.71.76,1.48.99.89.27,1.85.61,1.85,1.65v.02c0,1.09-.9,1.72-2.05,1.72-.82,0-1.74-.32-2.38-.85Z"/>
        <path class="cls-6" d="M248.5,244.59c1.69-1.08,2.58-2.41,2.58-4.19s-.89-3.11-2.58-4.19l.37-.57c1.98,1.11,3.08,2.71,3.08,4.76s-1.1,3.65-3.08,4.76l-.37-.57Z"/>
      </g>
      <g>
        <path class="cls-6" d="M379.41,171.6l-1.15.81-.3-.52,1.29-.59-1.29-.6.3-.51,1.15.8-.11-1.39h.58l-.11,1.39,1.15-.8.3.51-1.29.6,1.29.59-.3.52-1.15-.81.11,1.39h-.58l.11-1.39Z"/>
        <path class="cls-6" d="M384.19,171.6l-1.15.81-.3-.52,1.29-.59-1.29-.6.3-.51,1.15.8-.11-1.39h.58l-.11,1.39,1.15-.8.3.51-1.29.6,1.29.59-.3.52-1.15-.81.11,1.39h-.58l.11-1.39Z"/>
        <path class="cls-6" d="M388.98,171.6l-1.15.81-.3-.52,1.29-.59-1.29-.6.3-.51,1.15.8-.11-1.39h.58l-.11,1.39,1.15-.8.3.51-1.29.6,1.29.59-.3.52-1.15-.81.11,1.39h-.58l.11-1.39Z"/>
      </g>
      <g>
        <path class="cls-6" d="M358.15,194.3l-1.15.81-.3-.52,1.29-.59-1.29-.6.3-.51,1.15.8-.11-1.39h.58l-.11,1.39,1.15-.8.3.51-1.29.6,1.29.59-.3.52-1.15-.81.11,1.39h-.58l.11-1.39Z"/>
        <path class="cls-6" d="M362.93,194.3l-1.15.81-.3-.52,1.29-.59-1.29-.6.3-.51,1.15.8-.11-1.39h.58l-.11,1.39,1.15-.8.3.51-1.29.6,1.29.59-.3.52-1.15-.81.11,1.39h-.58l.11-1.39Z"/>
        <path class="cls-6" d="M367.71,194.3l-1.15.81-.3-.52,1.29-.59-1.29-.6.3-.51,1.15.8-.11-1.39h.58l-.11,1.39,1.15-.8.3.51-1.29.6,1.29.59-.3.52-1.15-.81.11,1.39h-.58l.11-1.39Z"/>
      </g>
      <g>
        <path class="cls-6" d="M335.72,165.51l-1.15.81-.3-.52,1.29-.59-1.29-.6.3-.51,1.15.8-.11-1.39h.58l-.11,1.39,1.15-.8.3.51-1.29.6,1.29.59-.3.52-1.15-.81.11,1.39h-.58l.11-1.39Z"/>
        <path class="cls-6" d="M340.5,165.51l-1.15.81-.3-.52,1.29-.59-1.29-.6.3-.51,1.15.8-.11-1.39h.58l-.11,1.39,1.15-.8.3.51-1.29.6,1.29.59-.3.52-1.15-.81.11,1.39h-.58l.11-1.39Z"/>
        <path class="cls-6" d="M345.29,165.51l-1.15.81-.3-.52,1.29-.59-1.29-.6.3-.51,1.15.8-.11-1.39h.58l-.11,1.39,1.15-.8.3.51-1.29.6,1.29.59-.3.52-1.15-.81.11,1.39h-.58l.11-1.39Z"/>
      </g>
      <g>
        <path class="cls-6" d="M313.58,189.36l-1.15.81-.3-.52,1.29-.59-1.29-.6.3-.51,1.15.8-.11-1.39h.58l-.11,1.39,1.15-.8.3.51-1.29.6,1.29.59-.3.52-1.15-.81.11,1.39h-.58l.11-1.39Z"/>
        <path class="cls-6" d="M318.37,189.36l-1.15.81-.3-.52,1.29-.59-1.29-.6.3-.51,1.15.8-.11-1.39h.58l-.11,1.39,1.15-.8.3.51-1.29.6,1.29.59-.3.52-1.15-.81.11,1.39h-.58l.11-1.39Z"/>
        <path class="cls-6" d="M323.15,189.36l-1.15.81-.3-.52,1.29-.59-1.29-.6.3-.51,1.15.8-.11-1.39h.58l-.11,1.39,1.15-.8.3.51-1.29.6,1.29.59-.3.52-1.15-.81.11,1.39h-.58l.11-1.39Z"/>
      </g>
      <g>
        <path class="cls-6" d="M292.03,169.25l-1.15.81-.3-.52,1.29-.59-1.29-.6.3-.51,1.15.8-.11-1.39h.58l-.11,1.39,1.15-.8.3.51-1.29.6,1.29.59-.3.52-1.15-.81.11,1.39h-.58l.11-1.39Z"/>
        <path class="cls-6" d="M296.81,169.25l-1.15.81-.3-.52,1.29-.59-1.29-.6.3-.51,1.15.8-.11-1.39h.58l-.11,1.39,1.15-.8.3.51-1.29.6,1.29.59-.3.52-1.15-.81.11,1.39h-.58l.11-1.39Z"/>
        <path class="cls-6" d="M301.59,169.25l-1.15.81-.3-.52,1.29-.59-1.29-.6.3-.51,1.15.8-.11-1.39h.58l-.11,1.39,1.15-.8.3.51-1.29.6,1.29.59-.3.52-1.15-.81.11,1.39h-.58l.11-1.39Z"/>
      </g>
      <g>
        <path class="cls-6" d="M269.9,172.99l-1.15.81-.3-.52,1.29-.59-1.29-.6.3-.51,1.15.8-.11-1.39h.58l-.11,1.39,1.15-.8.3.51-1.29.6,1.29.59-.3.52-1.15-.81.11,1.39h-.58l.11-1.39Z"/>
        <path class="cls-6" d="M274.68,172.99l-1.15.81-.3-.52,1.29-.59-1.29-.6.3-.51,1.15.8-.11-1.39h.58l-.11,1.39,1.15-.8.3.51-1.29.6,1.29.59-.3.52-1.15-.81.11,1.39h-.58l.11-1.39Z"/>
        <path class="cls-6" d="M279.46,172.99l-1.15.81-.3-.52,1.29-.59-1.29-.6.3-.51,1.15.8-.11-1.39h.58l-.11,1.39,1.15-.8.3.51-1.29.6,1.29.59-.3.52-1.15-.81.11,1.39h-.58l.11-1.39Z"/>
      </g>
      <g>
        <path class="cls-6" d="M254.17,159.1l-1.15.81-.3-.52,1.29-.59-1.29-.6.3-.51,1.15.8-.11-1.39h.58l-.11,1.39,1.15-.8.3.51-1.29.6,1.29.59-.3.52-1.15-.81.11,1.39h-.58l.11-1.39Z"/>
        <path class="cls-6" d="M258.95,159.1l-1.15.81-.3-.52,1.29-.59-1.29-.6.3-.51,1.15.8-.11-1.39h.58l-.11,1.39,1.15-.8.3.51-1.29.6,1.29.59-.3.52-1.15-.81.11,1.39h-.58l.11-1.39Z"/>
        <path class="cls-6" d="M263.73,159.1l-1.15.81-.3-.52,1.29-.59-1.29-.6.3-.51,1.15.8-.11-1.39h.58l-.11,1.39,1.15-.8.3.51-1.29.6,1.29.59-.3.52-1.15-.81.11,1.39h-.58l.11-1.39Z"/>
      </g>
      <g>
        <path class="cls-6" d="M225.62,141.96l-1.15.81-.3-.52,1.29-.59-1.29-.6.3-.51,1.15.8-.11-1.39h.58l-.11,1.39,1.15-.8.3.51-1.29.6,1.29.59-.3.52-1.15-.81.11,1.39h-.58l.11-1.39Z"/>
        <path class="cls-6" d="M230.4,141.96l-1.15.81-.3-.52,1.29-.59-1.29-.6.3-.51,1.15.8-.11-1.39h.58l-.11,1.39,1.15-.8.3.51-1.29.6,1.29.59-.3.52-1.15-.81.11,1.39h-.58l.11-1.39Z"/>
        <path class="cls-6" d="M235.18,141.96l-1.15.81-.3-.52,1.29-.59-1.29-.6.3-.51,1.15.8-.11-1.39h.58l-.11,1.39,1.15-.8.3.51-1.29.6,1.29.59-.3.52-1.15-.81.11,1.39h-.58l.11-1.39Z"/>
      </g>
      <g>
        <path class="cls-6" d="M161.83,107.22l-1.15.81-.3-.52,1.29-.59-1.29-.6.3-.51,1.15.8-.11-1.39h.58l-.11,1.39,1.15-.8.3.51-1.29.6,1.29.59-.3.52-1.15-.81.11,1.39h-.58l.11-1.39Z"/>
        <path class="cls-6" d="M166.61,107.22l-1.15.81-.3-.52,1.29-.59-1.29-.6.3-.51,1.15.8-.11-1.39h.58l-.11,1.39,1.15-.8.3.51-1.29.6,1.29.59-.3.52-1.15-.81.11,1.39h-.58l.11-1.39Z"/>
        <path class="cls-6" d="M171.4,107.22l-1.15.81-.3-.52,1.29-.59-1.29-.6.3-.51,1.15.8-.11-1.39h.58l-.11,1.39,1.15-.8.3.51-1.29.6,1.29.59-.3.52-1.15-.81.11,1.39h-.58l.11-1.39Z"/>
      </g>
      <g>
        <path class="cls-6" d="M140.57,102.32l-1.15.81-.3-.52,1.29-.59-1.29-.6.3-.51,1.15.8-.11-1.39h.58l-.11,1.39,1.15-.8.3.51-1.29.6,1.29.59-.3.52-1.15-.81.11,1.39h-.58l.11-1.39Z"/>
        <path class="cls-6" d="M145.35,102.32l-1.15.81-.3-.52,1.29-.59-1.29-.6.3-.51,1.15.8-.11-1.39h.58l-.11,1.39,1.15-.8.3.51-1.29.6,1.29.59-.3.52-1.15-.81.11,1.39h-.58l.11-1.39Z"/>
        <path class="cls-6" d="M150.13,102.32l-1.15.81-.3-.52,1.29-.59-1.29-.6.3-.51,1.15.8-.11-1.39h.58l-.11,1.39,1.15-.8.3.51-1.29.6,1.29.59-.3.52-1.15-.81.11,1.39h-.58l.11-1.39Z"/>
      </g>
      <g>
        <path class="cls-6" d="M116.11,91.48l-1.15.81-.3-.52,1.29-.59-1.29-.6.3-.51,1.15.8-.11-1.39h.58l-.11,1.39,1.15-.8.3.51-1.29.6,1.29.59-.3.52-1.15-.81.11,1.39h-.58l.11-1.39Z"/>
        <path class="cls-6" d="M120.89,91.48l-1.15.81-.3-.52,1.29-.59-1.29-.6.3-.51,1.15.8-.11-1.39h.58l-.11,1.39,1.15-.8.3.51-1.29.6,1.29.59-.3.52-1.15-.81.11,1.39h-.58l.11-1.39Z"/>
        <path class="cls-6" d="M125.67,91.48l-1.15.81-.3-.52,1.29-.59-1.29-.6.3-.51,1.15.8-.11-1.39h.58l-.11,1.39,1.15-.8.3.51-1.29.6,1.29.59-.3.52-1.15-.81.11,1.39h-.58l.11-1.39Z"/>
      </g>
      <g>
        <path class="cls-6" d="M84.94,78.9l-1.15.81-.3-.52,1.29-.59-1.29-.6.3-.51,1.15.8-.11-1.39h.58l-.11,1.39,1.15-.8.3.51-1.29.6,1.29.59-.3.52-1.15-.81.11,1.39h-.58l.11-1.39Z"/>
        <path class="cls-6" d="M89.72,78.9l-1.15.81-.3-.52,1.29-.59-1.29-.6.3-.51,1.15.8-.11-1.39h.58l-.11,1.39,1.15-.8.3.51-1.29.6,1.29.59-.3.52-1.15-.81.11,1.39h-.58l.11-1.39Z"/>
        <path class="cls-6" d="M94.5,78.9l-1.15.81-.3-.52,1.29-.59-1.29-.6.3-.51,1.15.8-.11-1.39h.58l-.11,1.39,1.15-.8.3.51-1.29.6,1.29.59-.3.52-1.15-.81.11,1.39h-.58l.11-1.39Z"/>
      </g>
      <g>
        <path class="cls-6" d="M98.34,92.62l-1.15.81-.3-.52,1.29-.59-1.29-.6.3-.51,1.15.8-.11-1.39h.58l-.11,1.39,1.15-.8.3.51-1.29.6,1.29.59-.3.52-1.15-.81.11,1.39h-.58l.11-1.39Z"/>
        <path class="cls-6" d="M103.12,92.62l-1.15.81-.3-.52,1.29-.59-1.29-.6.3-.51,1.15.8-.11-1.39h.58l-.11,1.39,1.15-.8.3.51-1.29.6,1.29.59-.3.52-1.15-.81.11,1.39h-.58l.11-1.39Z"/>
        <path class="cls-6" d="M107.9,92.62l-1.15.81-.3-.52,1.29-.59-1.29-.6.3-.51,1.15.8-.11-1.39h.58l-.11,1.39,1.15-.8.3.51-1.29.6,1.29.59-.3.52-1.15-.81.11,1.39h-.58l.11-1.39Z"/>
      </g>
      <g>
        <path class="cls-6" d="M195.94,133.12l-1.15.81-.3-.52,1.29-.59-1.29-.6.3-.51,1.15.8-.11-1.39h.58l-.11,1.39,1.15-.8.3.51-1.29.6,1.29.59-.3.52-1.15-.81.11,1.39h-.58l.11-1.39Z"/>
        <path class="cls-6" d="M200.72,133.12l-1.15.81-.3-.52,1.29-.59-1.29-.6.3-.51,1.15.8-.11-1.39h.58l-.11,1.39,1.15-.8.3.51-1.29.6,1.29.59-.3.52-1.15-.81.11,1.39h-.58l.11-1.39Z"/>
      </g>
      <g>
        <path class="cls-6" d="M204.94,163.66l-1.15.81-.3-.52,1.29-.59-1.29-.6.3-.51,1.15.8-.11-1.39h.58l-.11,1.39,1.15-.8.3.51-1.29.6,1.29.59-.3.52-1.15-.81.11,1.39h-.58l.11-1.39Z"/>
        <path class="cls-6" d="M209.72,163.66l-1.15.81-.3-.52,1.29-.59-1.29-.6.3-.51,1.15.8-.11-1.39h.58l-.11,1.39,1.15-.8.3.51-1.29.6,1.29.59-.3.52-1.15-.81.11,1.39h-.58l.11-1.39Z"/>
        <path class="cls-6" d="M214.5,163.66l-1.15.81-.3-.52,1.29-.59-1.29-.6.3-.51,1.15.8-.11-1.39h.58l-.11,1.39,1.15-.8.3.51-1.29.6,1.29.59-.3.52-1.15-.81.11,1.39h-.58l.11-1.39Z"/>
      </g>
      <line class="cls-3" x1="188.21" y1="110.22" x2="203.18" y2="110.22"/>
      <circle class="cls-5" cx="195.7" cy="80.18" r="2.81"/>
      <line class="cls-4" x1="188.21" y1="80.18" x2="203.18" y2="80.18"/>
      <polyline class="cls-3" points="63.68 52.32 86.66 136.77 108.06 156.56 129.85 168.3 152.04 179.49 173.03 183.52 195.49 186.83 217.67 211.19 239.2 224.45 261.65 237.07 283.84 238.15 305.9 237.07 327.29 245.85 349.21 247.28 371.27 249.16 393.98 248.63"/>
      <polyline class="cls-1" points="390.49 225.54 367.9 216.77 345.7 203.89 324.03 209.44 301.7 203.89 280.3 200.85 258.24 181.79 235.51 183.4 213.84 176.24 191.78 160.94 170.64 148.42 148.18 140.99 125.85 123.36 103.92 120.77 81.99 94.28 60.19 52.32"/>
      <polyline class="cls-4" points="55.53 52.32 78.25 80.52 100.05 101.2 121.71 98.69 144.17 110.42 165.97 116.06 188.17 136.03 209.83 155.63 231.63 150.71 254.09 167.18 276.55 183.47 300.33 178.73 320.28 181.86 342.08 174.52 364.27 185.71 386.99 180.61"/>
      <circle class="cls-7" cx="391.36" cy="248.24" r="3.2"/>
      <circle class="cls-7" cx="369.23" cy="248.24" r="3.2"/>
      <circle class="cls-7" cx="347.09" cy="246.85" r="3.2"/>
      <circle class="cls-7" cx="326.41" cy="245" r="3.2"/>
      <circle class="cls-7" cx="304.27" cy="237.12" r="3.2"/>
      <circle class="cls-7" cx="282.14" cy="238.05" r="3.2"/>
      <circle class="cls-7" cx="260" cy="236.2" r="3.2"/>
      <circle class="cls-7" cx="238.15" cy="223.23" r="3.2"/>
      <circle class="cls-7" cx="216.31" cy="210.26" r="3.2"/>
      <circle class="cls-7" cx="194.46" cy="186.64" r="3.2"/>
      <circle class="cls-7" cx="173.2" cy="183.39" r="3.2"/>
      <circle class="cls-7" cx="151.36" cy="179.23" r="3.2"/>
      <circle class="cls-7" cx="129.8" cy="168.11" r="3.2"/>
      <circle class="cls-7" cx="107.96" cy="156.07" r="3.2"/>
      <circle class="cls-7" cx="86.69" cy="137.08" r="3.2"/>
      <circle class="cls-7" cx="64.85" cy="54.17" r="3.2"/>
      <circle class="cls-5" cx="56.11" cy="54.17" r="3.2"/>
      <circle class="cls-5" cx="78.83" cy="81.5" r="3.2"/>
      <circle class="cls-5" cx="100.09" cy="100.49" r="3.2"/>
      <circle class="cls-5" cx="121.06" cy="98.64" r="3.2"/>
      <circle class="cls-5" cx="144.95" cy="110.22" r="3.2"/>
      <circle class="cls-5" cx="165.05" cy="116.24" r="3.2"/>
      <circle class="cls-5" cx="187.18" cy="135.69" r="3.2"/>
      <circle class="cls-5" cx="209.9" cy="155.14" r="3.2"/>
      <circle class="cls-5" cx="230.58" cy="150.97" r="3.2"/>
      <circle class="cls-5" cx="253.01" cy="166.26" r="3.2"/>
      <circle class="cls-5" cx="274.85" cy="182.47" r="3.2"/>
      <circle class="cls-5" cx="297.86" cy="179.23" r="3.2"/>
      <circle class="cls-5" cx="318.55" cy="181.54" r="3.2"/>
      <circle class="cls-5" cx="340.97" cy="175.06" r="3.2"/>
      <circle class="cls-5" cx="363.11" cy="185.25" r="3.2"/>
      <circle class="cls-5" cx="384.37" cy="180.62" r="3.2"/>
      <circle class="cls-8" cx="388.45" cy="225.08" r="3.2"/>
      <circle class="cls-8" cx="366.02" cy="215.35" r="3.2"/>
      <circle class="cls-8" cx="343.89" cy="204.24" r="3.2"/>
      <circle class="cls-8" cx="322.91" cy="209.33" r="3.2"/>
      <circle class="cls-8" cx="300.2" cy="203.31" r="3.2"/>
      <circle class="cls-8" cx="278.06" cy="199.61" r="3.2"/>
      <circle class="cls-8" cx="256.8" cy="182.01" r="3.2"/>
      <circle class="cls-8" cx="235.53" cy="182.93" r="3.2"/>
      <circle class="cls-8" cx="214.27" cy="176.45" r="3.2"/>
      <circle class="cls-8" cx="191.84" cy="161.16" r="3.2"/>
      <circle class="cls-8" cx="170" cy="148.19" r="3.2"/>
      <circle class="cls-8" cx="148.73" cy="141.25" r="3.2"/>
      <circle class="cls-8" cx="126.01" cy="124.11" r="3.2"/>
      <circle class="cls-8" cx="104.46" cy="120.41" r="3.2"/>
      <circle class="cls-8" cx="82.62" cy="95.86" r="3.2"/>
      <circle class="cls-8" cx="60.48" cy="54.17" r="3.2"/>
      <polyline class="cls-2" points="40.67 53.48 46.5 53.48 46.5 251.71 391.36 251.71"/>
      <line class="cls-2" x1="40.67" y1="108.13" x2="46.5" y2="108.13"/>
      <line class="cls-2" x1="40.67" y1="162.32" x2="46.5" y2="162.32"/>
      <line class="cls-2" x1="40.67" y1="216.05" x2="46.5" y2="216.05"/>
      <line class="cls-2" x1="302.82" y1="252.17" x2="302.82" y2="256.34"/>
      <line class="cls-2" x1="236.99" y1="252.17" x2="236.99" y2="256.34"/>
      <line class="cls-2" x1="83.2" y1="252.17" x2="83.2" y2="256.34"/>
      <line class="cls-2" x1="61.06" y1="252.17" x2="61.06" y2="256.34"/>
      <line class="cls-2" x1="104.75" y1="252.17" x2="104.75" y2="256.34"/>
      <line class="cls-2" x1="126.89" y1="252.17" x2="126.89" y2="256.34"/>
      <line class="cls-2" x1="149.03" y1="252.17" x2="149.03" y2="256.34"/>
      <line class="cls-2" x1="171.16" y1="252.17" x2="171.16" y2="256.34"/>
      <line class="cls-2" x1="192.72" y1="252.17" x2="192.72" y2="256.34"/>
      <line class="cls-2" x1="214.85" y1="252.17" x2="214.85" y2="256.34"/>
      <line class="cls-2" x1="259.13" y1="252.17" x2="259.13" y2="256.34"/>
      <line class="cls-2" x1="281.26" y1="252.17" x2="281.26" y2="256.34"/>
      <line class="cls-2" x1="324.95" y1="252.17" x2="324.95" y2="256.34"/>
      <line class="cls-2" x1="347.09" y1="252.17" x2="347.09" y2="256.34"/>
      <line class="cls-2" x1="369.23" y1="252.17" x2="369.23" y2="256.34"/>
      <line class="cls-2" x1="390.78" y1="252.17" x2="390.78" y2="256.34"/>
    </g>
    <g>
      <path class="cls-6" d="M1.13,9.02l1.3-1.55c.74.67,1.47,1.06,2.34,1.06,1.01,0,1.64-.49,1.64-1.36v-.03c0-.84-.71-1.33-1.74-1.33-.62,0-1.18.17-1.64.36l-1.25-.83.28-4.83h6.02v1.89H3.91l-.11,1.69c.39-.1.74-.17,1.29-.17,1.91,0,3.43.92,3.43,3.14v.03c0,2.07-1.47,3.39-3.73,3.39-1.57,0-2.72-.56-3.67-1.47Z"/>
      <path class="cls-6" d="M9.89,8.61l3.26-2.68c1.22-1.01,1.7-1.54,1.7-2.35s-.55-1.28-1.32-1.28-1.27.42-2,1.32l-1.51-1.22c.97-1.32,1.91-2.03,3.66-2.03,2.03,0,3.38,1.19,3.38,3.03v.03c0,1.64-.84,2.45-2.58,3.8l-1.6,1.23h4.27v1.86h-7.26v-1.71Z"/>
      <path class="cls-6" d="M18.63,4.96h4.31v2.05h-4.31v-2.05Z"/>
      <path class="cls-6" d="M23.83,2.82h2.16l1.21,4.55,1.41-4.58h1.83l1.43,4.59,1.23-4.57h2.12l-2.34,7.56h-1.92l-1.44-4.61-1.47,4.61h-1.91l-2.31-7.56Z"/>
      <path class="cls-6" d="M35.79,6.61v-.03c0-2.14,1.53-3.91,3.71-3.91,2.51,0,3.66,1.95,3.66,4.08,0,.17-.01.36-.03.56h-5.23c.21.97.88,1.47,1.83,1.47.71,0,1.23-.22,1.82-.77l1.22,1.08c-.7.87-1.71,1.4-3.07,1.4-2.26,0-3.92-1.58-3.92-3.88ZM41.08,5.98c-.13-.95-.69-1.6-1.58-1.6s-1.46.63-1.62,1.6h3.21Z"/>
      <path class="cls-6" d="M44.37,6.61v-.03c0-2.14,1.53-3.91,3.71-3.91,2.51,0,3.66,1.95,3.66,4.08,0,.17-.01.36-.03.56h-5.23c.21.97.88,1.47,1.83,1.47.71,0,1.23-.22,1.82-.77l1.22,1.08c-.7.87-1.71,1.4-3.07,1.4-2.26,0-3.92-1.58-3.92-3.88ZM49.67,5.98c-.13-.95-.69-1.6-1.58-1.6s-1.46.63-1.62,1.6h3.21Z"/>
      <path class="cls-6" d="M53.32.1h2.13v5.45l2.49-2.73h2.55l-2.86,2.96,2.96,4.55h-2.47l-1.92-3.08-.76.8v2.28h-2.13V.1Z"/>
      <path class="cls-6" d="M65.81,2.82h2.13v1.51c.43-1.04,1.13-1.71,2.39-1.65v2.23h-.11c-1.42,0-2.28.85-2.28,2.65v2.77h-2.13V2.82Z"/>
      <path class="cls-6" d="M71.08,6.61v-.03c0-2.14,1.53-3.91,3.71-3.91,2.51,0,3.66,1.95,3.66,4.08,0,.17-.01.36-.03.56h-5.23c.21.97.88,1.47,1.83,1.47.71,0,1.23-.22,1.82-.77l1.22,1.08c-.7.87-1.71,1.4-3.07,1.4-2.26,0-3.92-1.58-3.92-3.88ZM76.38,5.98c-.13-.95-.69-1.6-1.58-1.6s-1.46.63-1.62,1.6h3.21Z"/>
      <path class="cls-6" d="M79.69,6.58v-.03c0-2.51,1.64-3.88,3.42-3.88,1.13,0,1.83.52,2.34,1.12V.1h2.13v10.23h-2.13v-1.08c-.52.7-1.23,1.22-2.34,1.22-1.75,0-3.42-1.37-3.42-3.88ZM85.48,6.58v-.03c0-1.25-.83-2.07-1.82-2.07s-1.83.81-1.83,2.07v.03c0,1.25.84,2.07,1.83,2.07s1.82-.83,1.82-2.07Z"/>
      <path class="cls-6" d="M89.42,7.68V2.82h2.13v4.19c0,1.01.48,1.53,1.29,1.53s1.33-.52,1.33-1.53V2.82h2.13v7.51h-2.13v-1.06c-.49.63-1.12,1.2-2.2,1.2-1.61,0-2.55-1.06-2.55-2.79Z"/>
      <path class="cls-6" d="M97.84,6.61v-.03c0-2.14,1.64-3.91,3.94-3.91,1.42,0,2.3.48,3,1.26l-1.3,1.4c-.48-.5-.95-.83-1.71-.83-1.06,0-1.82.94-1.82,2.05v.03c0,1.15.74,2.07,1.91,2.07.71,0,1.2-.31,1.72-.8l1.25,1.26c-.73.8-1.57,1.37-3.07,1.37-2.25,0-3.91-1.74-3.91-3.88Z"/>
      <path class="cls-6" d="M106.55,8.19v-3.56h-.9v-1.82h.9V.9h2.13v1.92h1.77v1.82h-1.77v3.21c0,.49.21.73.69.73.39,0,.74-.1,1.05-.27v1.71c-.45.27-.97.43-1.68.43-1.3,0-2.19-.52-2.19-2.25Z"/>
      <path class="cls-6" d="M112.05.1h2.24v1.89h-2.24V.1ZM112.1,2.82h2.13v7.51h-2.13V2.82Z"/>
      <path class="cls-6" d="M115.87,6.61v-.03c0-2.16,1.74-3.91,4.08-3.91s4.05,1.72,4.05,3.88v.03c0,2.16-1.74,3.91-4.08,3.91s-4.05-1.72-4.05-3.88ZM121.89,6.61v-.03c0-1.11-.8-2.07-1.97-2.07s-1.95.94-1.95,2.05v.03c0,1.11.8,2.07,1.97,2.07s1.95-.94,1.95-2.04Z"/>
      <path class="cls-6" d="M125.53,2.82h2.13v1.06c.49-.63,1.12-1.21,2.2-1.21,1.61,0,2.55,1.06,2.55,2.79v4.86h-2.13v-4.19c0-1.01-.48-1.53-1.29-1.53s-1.33.52-1.33,1.53v4.19h-2.13V2.82Z"/>
      <path class="cls-6" d="M138.49.1h2.24v1.89h-2.24V.1ZM138.55,2.82h2.13v7.51h-2.13V2.82Z"/>
      <path class="cls-6" d="M142.68,2.82h2.13v1.06c.49-.63,1.12-1.21,2.2-1.21,1.61,0,2.55,1.06,2.55,2.79v4.86h-2.13v-4.19c0-1.01-.48-1.53-1.29-1.53s-1.33.52-1.33,1.53v4.19h-2.13V2.82Z"/>
      <path class="cls-6" d="M155.82.52h2.16v3.88h3.98V.52h2.16v9.81h-2.16v-3.94h-3.98v3.94h-2.16V.52Z"/>
      <path class="cls-6" d="M166.46.52h4.55c1.12,0,2,.31,2.56.87.45.45.67.99.67,1.67v.03c0,1.11-.59,1.72-1.29,2.12,1.13.43,1.83,1.09,1.83,2.41v.03c0,1.79-1.46,2.69-3.67,2.69h-4.66V.52ZM172.11,3.42c0-.64-.5-1.01-1.41-1.01h-2.13v2.07h1.99c.95,0,1.55-.31,1.55-1.04v-.03ZM171.06,6.28h-2.49v2.16h2.56c.95,0,1.53-.34,1.53-1.07v-.03c0-.66-.49-1.06-1.6-1.06Z"/>
      <path class="cls-6" d="M176.67.52h2.16v9.81h-2.16V.52Z"/>
      <path class="cls-6" d="M184.66,9.33l.91-1.4c.81.59,1.67.9,2.37.9.62,0,.9-.22.9-.56v-.03c0-.46-.73-.62-1.55-.87-1.05-.31-2.24-.8-2.24-2.25v-.03c0-1.53,1.23-2.38,2.75-2.38.95,0,1.99.32,2.8.87l-.81,1.47c-.74-.43-1.48-.7-2.03-.7s-.79.22-.79.52v.03c0,.42.71.62,1.53.9,1.05.35,2.27.85,2.27,2.23v.03c0,1.67-1.25,2.42-2.87,2.42-1.05,0-2.23-.35-3.22-1.13Z"/>
      <path class="cls-6" d="M191.92,6.61v-.03c0-2.14,1.64-3.91,3.94-3.91,1.42,0,2.3.48,3,1.26l-1.3,1.4c-.48-.5-.95-.83-1.71-.83-1.06,0-1.82.94-1.82,2.05v.03c0,1.15.74,2.07,1.91,2.07.71,0,1.2-.31,1.72-.8l1.25,1.26c-.73.8-1.57,1.37-3.07,1.37-2.25,0-3.91-1.74-3.91-3.88Z"/>
      <path class="cls-6" d="M199.7,6.61v-.03c0-2.16,1.74-3.91,4.08-3.91s4.05,1.72,4.05,3.88v.03c0,2.16-1.74,3.91-4.08,3.91s-4.05-1.72-4.05-3.88ZM205.72,6.61v-.03c0-1.11-.8-2.07-1.97-2.07s-1.95.94-1.95,2.05v.03c0,1.11.8,2.07,1.97,2.07s1.95-.94,1.95-2.04Z"/>
      <path class="cls-6" d="M209.36,2.82h2.13v1.51c.43-1.04,1.13-1.71,2.39-1.65v2.23h-.11c-1.42,0-2.28.85-2.28,2.65v2.77h-2.13V2.82Z"/>
      <path class="cls-6" d="M214.64,6.61v-.03c0-2.14,1.53-3.91,3.71-3.91,2.51,0,3.66,1.95,3.66,4.08,0,.17-.01.36-.03.56h-5.23c.21.97.88,1.47,1.83,1.47.71,0,1.23-.22,1.82-.77l1.22,1.08c-.7.87-1.71,1.4-3.07,1.4-2.26,0-3.92-1.58-3.92-3.88ZM219.93,5.98c-.13-.95-.69-1.6-1.58-1.6s-1.46.63-1.62,1.6h3.21Z"/>
      <path class="cls-6" d="M223,9.33l.91-1.4c.81.59,1.67.9,2.37.9.62,0,.9-.22.9-.56v-.03c0-.46-.73-.62-1.55-.87-1.05-.31-2.24-.8-2.24-2.25v-.03c0-1.53,1.23-2.38,2.75-2.38.95,0,1.99.32,2.8.87l-.81,1.47c-.74-.43-1.48-.7-2.03-.7s-.79.22-.79.52v.03c0,.42.71.62,1.53.9,1.05.35,2.27.85,2.27,2.23v.03c0,1.67-1.25,2.42-2.87,2.42-1.05,0-2.23-.35-3.22-1.13Z"/>
      <path class="cls-6" d="M235.18,4.64h-.88v-1.75h.88v-.48c0-.83.21-1.43.6-1.82s.97-.59,1.72-.59c.67,0,1.12.08,1.51.21v1.76c-.31-.11-.6-.18-.97-.18-.49,0-.77.25-.77.81v.29h1.72v1.74h-1.69v5.69h-2.13v-5.69Z"/>
      <path class="cls-6" d="M240.16,2.82h2.13v1.51c.43-1.04,1.13-1.71,2.39-1.65v2.23h-.11c-1.42,0-2.28.85-2.28,2.65v2.77h-2.13V2.82Z"/>
      <path class="cls-6" d="M245.44,6.61v-.03c0-2.16,1.74-3.91,4.08-3.91s4.05,1.72,4.05,3.88v.03c0,2.16-1.74,3.91-4.08,3.91s-4.05-1.72-4.05-3.88ZM251.46,6.61v-.03c0-1.11-.8-2.07-1.97-2.07s-1.95.94-1.95,2.05v.03c0,1.11.8,2.07,1.97,2.07s1.95-.94,1.95-2.04Z"/>
      <path class="cls-6" d="M255.1,2.82h2.13v1.06c.49-.63,1.13-1.21,2.21-1.21.98,0,1.72.43,2.12,1.19.66-.77,1.44-1.19,2.46-1.19,1.58,0,2.54.95,2.54,2.76v4.89h-2.13v-4.19c0-1.01-.45-1.53-1.25-1.53s-1.29.52-1.29,1.53v4.19h-2.13v-4.19c0-1.01-.45-1.53-1.25-1.53s-1.29.52-1.29,1.53v4.19h-2.13V2.82Z"/>
      <path class="cls-6" d="M272.39,5.45v-.03c0-2.79,2.17-5.07,5.14-5.07,1.77,0,2.83.48,3.85,1.34l-1.36,1.64c-.76-.63-1.43-.99-2.56-.99-1.57,0-2.82,1.39-2.82,3.05v.03c0,1.79,1.23,3.11,2.97,3.11.79,0,1.49-.2,2.03-.59v-1.4h-2.17v-1.86h4.26v4.26c-1.01.85-2.39,1.55-4.19,1.55-3.05,0-5.16-2.14-5.16-5.04Z"/>
      <path class="cls-6" d="M283.8.52h7.4v1.92h-5.25v1.99h4.62v1.92h-4.62v2.06h5.32v1.92h-7.47V.52Z"/>
      <path class="cls-6" d="M293.18.52h2.33l2.58,4.15,2.58-4.15h2.33v9.81h-2.14V3.92l-2.76,4.19h-.06l-2.73-4.15v6.36h-2.12V.52Z"/>
      <path class="cls-6" d="M305.43.52h2.16v9.81h-2.16V.52Z"/>
      <path class="cls-6" d="M310.03.52h1.99l4.59,6.04V.52h2.13v9.81h-1.83l-4.75-6.23v6.23h-2.13V.52Z"/>
      <path class="cls-6" d="M321.19.52h2.16v9.81h-2.16V.52Z"/>
      <path class="cls-6" d="M329.51,8.61l3.26-2.68c1.22-1.01,1.7-1.54,1.7-2.35s-.55-1.28-1.32-1.28-1.27.42-2,1.32l-1.51-1.22c.97-1.32,1.91-2.03,3.66-2.03,2.03,0,3.38,1.19,3.38,3.03v.03c0,1.64-.84,2.45-2.58,3.8l-1.6,1.23h4.27v1.86h-7.26v-1.71Z"/>
      <path class="cls-6" d="M337.91,11.71c.97-.1,1.44-.59,1.37-1.39h-.87v-2.24h2.27v1.89c0,1.85-.92,2.59-2.59,2.62l-.18-.88Z"/>
      <path class="cls-6" d="M346.11,9.33l.91-1.4c.81.59,1.67.9,2.37.9.62,0,.9-.22.9-.56v-.03c0-.46-.73-.62-1.55-.87-1.05-.31-2.24-.8-2.24-2.25v-.03c0-1.53,1.23-2.38,2.75-2.38.95,0,1.99.32,2.8.87l-.81,1.47c-.74-.43-1.48-.7-2.03-.7s-.79.22-.79.52v.03c0,.42.71.62,1.53.9,1.05.35,2.27.85,2.27,2.23v.03c0,1.67-1.25,2.42-2.87,2.42-1.05,0-2.23-.35-3.22-1.13Z"/>
      <path class="cls-6" d="M353.94,8.19v-3.56h-.9v-1.82h.9V.9h2.13v1.92h1.77v1.82h-1.77v3.21c0,.49.21.73.69.73.39,0,.74-.1,1.05-.27v1.71c-.45.27-.97.43-1.68.43-1.3,0-2.19-.52-2.19-2.25Z"/>
      <path class="cls-6" d="M359.4,2.82h2.13v1.51c.43-1.04,1.13-1.71,2.39-1.65v2.23h-.11c-1.42,0-2.28.85-2.28,2.65v2.77h-2.13V2.82Z"/>
      <path class="cls-6" d="M364.45,8.17v-.03c0-1.64,1.25-2.39,3.03-2.39.76,0,1.3.13,1.83.31v-.13c0-.88-.55-1.37-1.61-1.37-.81,0-1.39.15-2.07.41l-.53-1.62c.83-.36,1.64-.6,2.91-.6,1.16,0,2,.31,2.54.84.56.56.81,1.39.81,2.4v4.36h-2.06v-.81c-.52.57-1.23.95-2.27.95-1.42,0-2.58-.81-2.58-2.3ZM369.34,7.68v-.38c-.36-.17-.84-.28-1.36-.28-.91,0-1.47.36-1.47,1.04v.03c0,.57.48.91,1.16.91,1,0,1.67-.55,1.67-1.32Z"/>
      <path class="cls-6" d="M373.47,8.19v-3.56h-.9v-1.82h.9V.9h2.13v1.92h1.77v1.82h-1.77v3.21c0,.49.21.73.69.73.39,0,.74-.1,1.05-.27v1.71c-.45.27-.97.43-1.68.43-1.3,0-2.19-.52-2.19-2.25Z"/>
      <path class="cls-6" d="M378.97.1h2.24v1.89h-2.24V.1ZM379.03,2.82h2.13v7.51h-2.13V2.82Z"/>
      <path class="cls-6" d="M383.52,4.64h-.88v-1.75h.88v-.48c0-.83.21-1.43.6-1.82s.97-.59,1.72-.59c.67,0,1.12.08,1.51.21v1.76c-.31-.11-.6-.18-.97-.18-.49,0-.77.25-.77.81v.29h1.72v1.74h-1.69v5.69h-2.13v-5.69ZM388.55.1h2.24v1.89h-2.24V.1ZM388.6,2.82h2.13v7.51h-2.13V2.82Z"/>
      <path class="cls-6" d="M392.37,6.61v-.03c0-2.14,1.53-3.91,3.71-3.91,2.51,0,3.66,1.95,3.66,4.08,0,.17-.01.36-.03.56h-5.23c.21.97.88,1.47,1.83,1.47.71,0,1.23-.22,1.82-.77l1.22,1.08c-.7.87-1.71,1.4-3.07,1.4-2.26,0-3.92-1.58-3.92-3.88ZM397.66,5.98c-.13-.95-.69-1.6-1.58-1.6s-1.46.63-1.62,1.6h3.21Z"/>
      <path class="cls-6" d="M400.98,6.58v-.03c0-2.51,1.64-3.88,3.42-3.88,1.13,0,1.83.52,2.34,1.12V.1h2.13v10.23h-2.13v-1.08c-.52.7-1.23,1.22-2.34,1.22-1.75,0-3.42-1.37-3.42-3.88ZM406.76,6.58v-.03c0-1.25-.83-2.07-1.82-2.07s-1.83.81-1.83,2.07v.03c0,1.25.84,2.07,1.83,2.07s1.82-.83,1.82-2.07Z"/>
      <path class="cls-6" d="M417.09,9.34v.98h-2.13V.1h2.13v3.8c.52-.7,1.23-1.22,2.34-1.22,1.75,0,3.42,1.37,3.42,3.88v.03c0,2.51-1.64,3.88-3.42,3.88-1.13,0-1.83-.52-2.34-1.12ZM420.72,6.58v-.03c0-1.25-.84-2.07-1.83-2.07s-1.82.83-1.82,2.07v.03c0,1.25.83,2.07,1.82,2.07s1.83-.81,1.83-2.07Z"/>
      <path class="cls-6" d="M428.99,2.82h2.21l-2.89,7.69c-.57,1.53-1.19,2.1-2.47,2.1-.77,0-1.34-.2-1.89-.52l.71-1.54c.28.17.63.29.91.29.36,0,.56-.11.74-.49l-2.94-7.54h2.25l1.71,5.11,1.64-5.11Z"/>
      <path class="cls-6" d="M70.61,23.45v-.03c0-2.79,2.1-5.07,5.11-5.07,1.85,0,2.96.62,3.87,1.51l-1.37,1.58c-.76-.69-1.53-1.11-2.51-1.11-1.65,0-2.84,1.37-2.84,3.05v.03c0,1.68,1.16,3.08,2.84,3.08,1.12,0,1.81-.45,2.58-1.15l1.37,1.39c-1.01,1.08-2.13,1.75-4.02,1.75-2.89,0-5.03-2.23-5.03-5.04Z"/>
      <path class="cls-6" d="M81.38,18.52h3.82c3.08,0,5.21,2.12,5.21,4.88v.03c0,2.76-2.13,4.9-5.21,4.9h-3.82v-9.81ZM83.54,20.46v5.91h1.67c1.76,0,2.96-1.19,2.96-2.93v-.03c0-1.74-1.19-2.96-2.96-2.96h-1.67Z"/>
      <path class="cls-6" d="M91.52,26.89l1.28-1.53c.88.73,1.81,1.19,2.93,1.19.88,0,1.41-.35,1.41-.92v-.03c0-.55-.34-.83-1.97-1.25-1.98-.5-3.25-1.05-3.25-3v-.03c0-1.78,1.43-2.96,3.43-2.96,1.43,0,2.65.45,3.64,1.25l-1.12,1.62c-.87-.6-1.72-.97-2.55-.97s-1.26.38-1.26.85v.03c0,.64.42.85,2.11,1.29,1.99.52,3.11,1.23,3.11,2.94v.03c0,1.95-1.49,3.04-3.6,3.04-1.48,0-2.98-.52-4.16-1.57Z"/>
      <path class="cls-6" d="M103.22,20.51h-2.98v-1.99h8.12v1.99h-2.98v7.82h-2.16v-7.82Z"/>
      <path class="cls-6" d="M108.27,22.96h4.31v2.05h-4.31v-2.05Z"/>
      <path class="cls-6" d="M113.9,24.58v-.03c0-2.51,1.64-3.88,3.42-3.88,1.13,0,1.83.52,2.34,1.12v-3.7h2.13v10.23h-2.13v-1.08c-.52.7-1.23,1.22-2.34,1.22-1.75,0-3.42-1.37-3.42-3.88ZM119.69,24.58v-.03c0-1.25-.83-2.07-1.82-2.07s-1.83.81-1.83,2.07v.03c0,1.25.84,2.07,1.83,2.07s1.82-.83,1.82-2.07Z"/>
      <path class="cls-6" d="M123.32,24.61v-.03c0-2.14,1.53-3.91,3.71-3.91,2.51,0,3.66,1.95,3.66,4.08,0,.17-.01.36-.03.56h-5.23c.21.97.88,1.47,1.83,1.47.71,0,1.23-.22,1.82-.77l1.22,1.08c-.7.87-1.71,1.4-3.07,1.4-2.26,0-3.92-1.58-3.92-3.88ZM128.62,23.98c-.13-.95-.69-1.6-1.58-1.6s-1.46.63-1.62,1.6h3.21Z"/>
      <path class="cls-6" d="M132.63,22.64h-.88v-1.75h.88v-.48c0-.83.21-1.43.6-1.82s.97-.59,1.72-.59c.67,0,1.12.08,1.51.21v1.76c-.31-.11-.6-.18-.97-.18-.49,0-.77.25-.77.81v.29h1.72v1.74h-1.69v5.69h-2.13v-5.69ZM137.66,18.1h2.24v1.89h-2.24v-1.89ZM137.72,20.82h2.13v7.51h-2.13v-7.51Z"/>
      <path class="cls-6" d="M141.85,20.82h2.13v1.06c.49-.63,1.12-1.21,2.2-1.21,1.61,0,2.55,1.06,2.55,2.79v4.86h-2.13v-4.19c0-1.01-.48-1.53-1.29-1.53s-1.33.52-1.33,1.53v4.19h-2.13v-7.51Z"/>
      <path class="cls-6" d="M150.2,24.61v-.03c0-2.14,1.53-3.91,3.71-3.91,2.51,0,3.66,1.95,3.66,4.08,0,.17-.01.36-.03.56h-5.23c.21.97.88,1.47,1.83,1.47.71,0,1.23-.22,1.82-.77l1.22,1.08c-.7.87-1.71,1.4-3.07,1.4-2.26,0-3.92-1.58-3.92-3.88ZM155.5,23.98c-.13-.95-.69-1.6-1.58-1.6s-1.46.63-1.62,1.6h3.21Z"/>
      <path class="cls-6" d="M158.81,24.58v-.03c0-2.51,1.64-3.88,3.42-3.88,1.13,0,1.83.52,2.34,1.12v-3.7h2.13v10.23h-2.13v-1.08c-.52.7-1.23,1.22-2.34,1.22-1.75,0-3.42-1.37-3.42-3.88ZM164.6,24.58v-.03c0-1.25-.83-2.07-1.82-2.07s-1.83.81-1.83,2.07v.03c0,1.25.84,2.07,1.83,2.07s1.82-.83,1.82-2.07Z"/>
      <path class="cls-6" d="M172.8,20.82h2.13v1.51c.43-1.04,1.13-1.71,2.39-1.65v2.23h-.11c-1.42,0-2.28.85-2.28,2.65v2.77h-2.13v-7.51Z"/>
      <path class="cls-6" d="M178.08,24.61v-.03c0-2.14,1.53-3.91,3.71-3.91,2.51,0,3.66,1.95,3.66,4.08,0,.17-.01.36-.03.56h-5.23c.21.97.88,1.47,1.83,1.47.71,0,1.23-.22,1.82-.77l1.22,1.08c-.7.87-1.71,1.4-3.07,1.4-2.26,0-3.92-1.58-3.92-3.88ZM183.37,23.98c-.13-.95-.69-1.6-1.58-1.6s-1.46.63-1.62,1.6h3.21Z"/>
      <path class="cls-6" d="M186.44,27.33l.91-1.4c.81.59,1.67.9,2.37.9.62,0,.9-.22.9-.56v-.03c0-.46-.73-.62-1.55-.87-1.05-.31-2.24-.8-2.24-2.25v-.03c0-1.53,1.23-2.38,2.75-2.38.95,0,1.99.32,2.8.87l-.81,1.47c-.74-.43-1.48-.7-2.03-.7s-.79.22-.79.52v.03c0,.42.71.62,1.53.9,1.05.35,2.27.85,2.27,2.23v.03c0,1.67-1.25,2.42-2.87,2.42-1.05,0-2.23-.35-3.22-1.13Z"/>
      <path class="cls-6" d="M194.05,20.82h2.13v1.08c.52-.7,1.23-1.22,2.34-1.22,1.75,0,3.42,1.37,3.42,3.88v.03c0,2.51-1.64,3.88-3.42,3.88-1.13,0-1.83-.52-2.34-1.12v3.22h-2.13v-9.75ZM199.81,24.58v-.03c0-1.25-.84-2.07-1.83-2.07s-1.82.83-1.82,2.07v.03c0,1.25.83,2.07,1.82,2.07s1.83-.81,1.83-2.07Z"/>
      <path class="cls-6" d="M203.14,24.61v-.03c0-2.16,1.74-3.91,4.08-3.91s4.05,1.72,4.05,3.88v.03c0,2.16-1.74,3.91-4.08,3.91s-4.05-1.72-4.05-3.88ZM209.16,24.61v-.03c0-1.11-.8-2.07-1.97-2.07s-1.95.94-1.95,2.05v.03c0,1.11.8,2.07,1.97,2.07s1.95-.94,1.95-2.04Z"/>
      <path class="cls-6" d="M212.8,20.82h2.13v1.06c.49-.63,1.12-1.21,2.2-1.21,1.61,0,2.55,1.06,2.55,2.79v4.86h-2.13v-4.19c0-1.01-.48-1.53-1.29-1.53s-1.33.52-1.33,1.53v4.19h-2.13v-7.51Z"/>
      <path class="cls-6" d="M220.93,27.33l.91-1.4c.81.59,1.67.9,2.37.9.62,0,.9-.22.9-.56v-.03c0-.46-.73-.62-1.55-.87-1.05-.31-2.24-.8-2.24-2.25v-.03c0-1.53,1.23-2.38,2.75-2.38.95,0,1.99.32,2.8.87l-.81,1.47c-.74-.43-1.48-.7-2.03-.7s-.79.22-.79.52v.03c0,.42.71.62,1.53.9,1.05.35,2.27.85,2.27,2.23v.03c0,1.67-1.25,2.42-2.87,2.42-1.05,0-2.23-.35-3.22-1.13Z"/>
      <path class="cls-6" d="M228.18,24.61v-.03c0-2.14,1.53-3.91,3.71-3.91,2.51,0,3.66,1.95,3.66,4.08,0,.17-.01.36-.03.56h-5.23c.21.97.88,1.47,1.83,1.47.71,0,1.23-.22,1.82-.77l1.22,1.08c-.7.87-1.71,1.4-3.07,1.4-2.26,0-3.92-1.58-3.92-3.88ZM233.48,23.98c-.13-.95-.69-1.6-1.58-1.6s-1.46.63-1.62,1.6h3.21Z"/>
      <path class="cls-6" d="M241.37,29.81l.73-1.6c.77.43,1.54.69,2.54.69,1.46,0,2.14-.7,2.14-2.04v-.36c-.63.76-1.32,1.22-2.45,1.22-1.75,0-3.33-1.27-3.33-3.5v-.03c0-2.24,1.61-3.5,3.33-3.5,1.16,0,1.85.49,2.42,1.12v-.98h2.13v5.81c0,1.34-.32,2.33-.95,2.96-.7.7-1.78,1.01-3.24,1.01-1.22,0-2.37-.28-3.32-.79ZM246.78,24.21v-.03c0-1.02-.8-1.74-1.83-1.74s-1.82.71-1.82,1.74v.03c0,1.04.79,1.74,1.82,1.74s1.83-.71,1.83-1.74Z"/>
      <path class="cls-6" d="M250.78,20.82h2.13v1.51c.43-1.04,1.13-1.71,2.39-1.65v2.23h-.11c-1.42,0-2.28.85-2.28,2.65v2.77h-2.13v-7.51Z"/>
      <path class="cls-6" d="M256.06,24.61v-.03c0-2.16,1.74-3.91,4.08-3.91s4.05,1.72,4.05,3.88v.03c0,2.16-1.74,3.91-4.08,3.91s-4.05-1.72-4.05-3.88ZM262.08,24.61v-.03c0-1.11-.8-2.07-1.97-2.07s-1.95.94-1.95,2.05v.03c0,1.11.8,2.07,1.97,2.07s1.95-.94,1.95-2.04Z"/>
      <path class="cls-6" d="M265.66,25.68v-4.86h2.13v4.19c0,1.01.48,1.53,1.29,1.53s1.33-.52,1.33-1.53v-4.19h2.13v7.51h-2.13v-1.06c-.49.63-1.12,1.2-2.2,1.2-1.61,0-2.55-1.06-2.55-2.79Z"/>
      <path class="cls-6" d="M274.44,20.82h2.13v1.08c.52-.7,1.23-1.22,2.34-1.22,1.75,0,3.42,1.37,3.42,3.88v.03c0,2.51-1.64,3.88-3.42,3.88-1.13,0-1.83-.52-2.34-1.12v3.22h-2.13v-9.75ZM280.2,24.58v-.03c0-1.25-.84-2.07-1.83-2.07s-1.82.83-1.82,2.07v.03c0,1.25.83,2.07,1.82,2.07s1.83-.81,1.83-2.07Z"/>
      <path class="cls-6" d="M283.3,27.33l.91-1.4c.81.59,1.67.9,2.37.9.62,0,.9-.22.9-.56v-.03c0-.46-.73-.62-1.55-.87-1.05-.31-2.24-.8-2.24-2.25v-.03c0-1.53,1.23-2.38,2.75-2.38.95,0,1.99.32,2.8.87l-.81,1.47c-.74-.43-1.48-.7-2.03-.7s-.79.22-.79.52v.03c0,.42.71.62,1.53.9,1.05.35,2.27.85,2.27,2.23v.03c0,1.67-1.25,2.42-2.87,2.42-1.05,0-2.23-.35-3.22-1.13Z"/>
      <path class="cls-6" d="M294.99,24.3c0-2.69,1.3-4.59,3.88-6l.94,1.42c-1.89,1.32-2.7,2.61-2.7,4.58s.81,3.26,2.7,4.58l-.94,1.41c-2.58-1.4-3.88-3.31-3.88-6Z"/>
      <path class="cls-6" d="M301.35,20.82h2.13v1.06c.49-.63,1.12-1.21,2.2-1.21,1.61,0,2.55,1.06,2.55,2.79v4.86h-2.13v-4.19c0-1.01-.48-1.53-1.29-1.53s-1.33.52-1.33,1.53v4.19h-2.13v-7.51Z"/>
      <path class="cls-6" d="M314.34,20.61h6.92v1.93h-6.92v-1.93ZM314.34,24.25h6.92v1.93h-6.92v-1.93Z"/>
      <path class="cls-6" d="M327.11,25.63v-.03c0-1.19.55-1.89,1.58-2.37-.76-.46-1.25-1.09-1.25-2.14v-.03c0-1.5,1.37-2.69,3.45-2.69s3.45,1.18,3.45,2.69v.03c0,1.05-.49,1.68-1.25,2.14,1,.52,1.58,1.15,1.58,2.31v.03c0,1.82-1.61,2.88-3.78,2.88s-3.78-1.12-3.78-2.83ZM332.58,25.47v-.03c0-.76-.71-1.2-1.7-1.2s-1.69.45-1.69,1.2v.03c0,.67.63,1.22,1.69,1.22s1.7-.53,1.7-1.22ZM332.29,21.33v-.03c0-.6-.52-1.15-1.4-1.15s-1.4.53-1.4,1.13v.03c0,.69.55,1.21,1.4,1.21s1.4-.5,1.4-1.19Z"/>
      <path class="cls-6" d="M337.79,20.63l-1.71.42-.45-1.77,2.82-.84h1.47v9.88h-2.13v-7.69Z"/>
      <path class="cls-6" d="M346.78,26.21h-4.79l-.35-1.53,5.38-6.23h1.82v6.01h1.32v1.75h-1.32v2.12h-2.06v-2.12ZM346.78,24.46v-3.05l-2.61,3.05h2.61Z"/>
      <path class="cls-6" d="M351.44,28.88c1.89-1.32,2.7-2.61,2.7-4.58s-.81-3.26-2.7-4.58l.94-1.42c2.58,1.4,3.88,3.31,3.88,6s-1.3,4.59-3.88,6l-.94-1.41Z"/>
      <path class="cls-6" d="M357.48,22.67l1.9-1.56c.71-.59.99-.9.99-1.37s-.32-.74-.77-.74-.74.25-1.17.77l-.88-.71c.56-.77,1.11-1.18,2.13-1.18,1.18,0,1.97.69,1.97,1.76v.02c0,.96-.49,1.43-1.5,2.21l-.93.72h2.49v1.09h-4.23v-1Z"/>
    </g>
  </g>
</svg>