<?xml version="1.0" encoding="UTF-8"?>
<svg id="Layer_2" data-name="Layer 2" xmlns="http://www.w3.org/2000/svg" viewBox="0 0 231.75 340.29">
  <defs>
    <style>
      .cls-1, .cls-2, .cls-3, .cls-4, .cls-5, .cls-6 {
        stroke-width: 0px;
      }

      .cls-1, .cls-2, .cls-5 {
        fill-rule: evenodd;
      }

      .cls-1, .cls-4 {
        fill: #862780;
      }

      .cls-2 {
        fill: #fff;
      }

      .cls-3 {
        fill: #231f20;
      }

      .cls-5, .cls-6 {
        fill: #d1c3ce;
      }
    </style>
  </defs>
  <g id="Layer_1-2" data-name="Layer 1">
    <g>
      <path class="cls-3" d="M127.96,62.1h2.73c2.2,0,3.72,1.51,3.72,3.48v.02c0,1.97-1.52,3.5-3.72,3.5h-2.73v-7ZM129.5,63.49v4.22h1.19c1.26,0,2.11-.85,2.11-2.09v-.02c0-1.24-.85-2.11-2.11-2.11h-1.19Z"/>
      <path class="cls-3" d="M135.36,66.45v-.02c0-1.53,1.09-2.79,2.65-2.79,1.79,0,2.61,1.39,2.61,2.91,0,.12,0,.26-.02.4h-3.73c.15.69.63,1.05,1.31,1.05.51,0,.88-.16,1.3-.55l.87.77c-.5.62-1.22,1-2.19,1-1.61,0-2.8-1.13-2.8-2.77ZM139.14,66c-.09-.68-.49-1.14-1.13-1.14s-1.04.45-1.16,1.14h2.29Z"/>
      <path class="cls-3" d="M141.02,63.74h1.61l1.2,3.59,1.21-3.59h1.58l-2.11,5.4h-1.38l-2.11-5.4Z"/>
      <path class="cls-3" d="M146.94,66.45v-.02c0-1.53,1.09-2.79,2.65-2.79,1.79,0,2.61,1.39,2.61,2.91,0,.12,0,.26-.02.4h-3.73c.15.69.63,1.05,1.31,1.05.51,0,.88-.16,1.3-.55l.87.77c-.5.62-1.22,1-2.19,1-1.61,0-2.8-1.13-2.8-2.77ZM150.72,66c-.09-.68-.49-1.14-1.13-1.14s-1.04.45-1.16,1.14h2.29Z"/>
      <path class="cls-3" d="M153.4,61.8h1.52v7.3h-1.52v-7.3Z"/>
      <path class="cls-3" d="M156.09,66.45v-.02c0-1.54,1.24-2.79,2.91-2.79s2.89,1.23,2.89,2.77v.02c0,1.54-1.24,2.79-2.91,2.79s-2.89-1.23-2.89-2.77ZM160.39,66.45v-.02c0-.79-.57-1.48-1.41-1.48s-1.39.67-1.39,1.46v.02c0,.79.57,1.48,1.41,1.48s1.39-.67,1.39-1.46Z"/>
      <path class="cls-3" d="M162.99,63.74h1.52v.77c.37-.5.88-.87,1.67-.87,1.25,0,2.44.98,2.44,2.77v.02c0,1.79-1.17,2.77-2.44,2.77-.81,0-1.31-.37-1.67-.8v2.3h-1.52v-6.96ZM167.1,66.43v-.02c0-.89-.6-1.48-1.31-1.48s-1.3.59-1.3,1.48v.02c0,.89.59,1.48,1.3,1.48s1.31-.58,1.31-1.48Z"/>
      <path class="cls-3" d="M169.74,63.74h1.52v.76c.35-.45.81-.86,1.58-.86.7,0,1.23.31,1.51.85.47-.55,1.03-.85,1.76-.85,1.13,0,1.81.68,1.81,1.97v3.49h-1.52v-2.99c0-.72-.32-1.09-.89-1.09s-.92.37-.92,1.09v2.99h-1.52v-2.99c0-.72-.32-1.09-.89-1.09s-.92.37-.92,1.09v2.99h-1.52v-5.36Z"/>
      <path class="cls-3" d="M178.98,66.45v-.02c0-1.53,1.09-2.79,2.65-2.79,1.79,0,2.61,1.39,2.61,2.91,0,.12,0,.26-.02.4h-3.73c.15.69.63,1.05,1.31,1.05.51,0,.88-.16,1.3-.55l.87.77c-.5.62-1.22,1-2.19,1-1.61,0-2.8-1.13-2.8-2.77ZM182.76,66c-.09-.68-.49-1.14-1.13-1.14s-1.04.45-1.16,1.14h2.29Z"/>
      <path class="cls-3" d="M185.37,63.74h1.52v.76c.35-.45.8-.86,1.57-.86,1.15,0,1.82.76,1.82,1.99v3.47h-1.52v-2.99c0-.72-.34-1.09-.92-1.09s-.95.37-.95,1.09v2.99h-1.52v-5.36Z"/>
      <path class="cls-3" d="M191.85,67.58v-2.54h-.64v-1.3h.64v-1.37h1.52v1.37h1.26v1.3h-1.26v2.29c0,.35.15.52.49.52.28,0,.53-.07.75-.19v1.22c-.32.19-.69.31-1.2.31-.93,0-1.56-.37-1.56-1.61Z"/>
      <path class="cls-3" d="M127.8,77.62v-.02c0-1.92,1.41-3.62,3.51-3.62,1.18,0,1.91.34,2.61.93l-.51.6c-.54-.47-1.14-.8-2.13-.8-1.55,0-2.66,1.31-2.66,2.87v.02c0,1.67,1.07,2.91,2.77,2.91.8,0,1.54-.31,2.02-.7v-1.74h-2.13v-.71h2.89v2.79c-.65.58-1.63,1.07-2.81,1.07-2.2,0-3.56-1.6-3.56-3.6Z"/>
      <path class="cls-3" d="M135.95,74.1h5.06v.72h-4.27v2.39h3.82v.72h-3.82v2.45h4.32v.72h-5.11v-7Z"/>
      <path class="cls-3" d="M142.65,74.1h.8l2.55,3.82,2.55-3.82h.8v7h-.79v-5.67l-2.55,3.75h-.04l-2.55-3.74v5.66h-.77v-7Z"/>
      <path class="cls-3" d="M151.4,74.1h.79v7h-.79v-7Z"/>
      <path class="cls-3" d="M154.24,74.1h.74l4.41,5.61v-5.61h.77v7h-.63l-4.52-5.74v5.74h-.77v-7Z"/>
      <path class="cls-3" d="M162.21,74.1h.79v7h-.79v-7Z"/>
      <path class="cls-3" d="M167.54,80.49l2.54-2.24c1.07-.96,1.46-1.5,1.46-2.2,0-.82-.65-1.34-1.41-1.34-.8,0-1.32.42-1.88,1.2l-.58-.42c.63-.94,1.29-1.49,2.52-1.49s2.17.84,2.17,1.98v.02c0,1.02-.54,1.65-1.77,2.72l-1.87,1.66h3.71v.72h-4.89v-.61Z"/>
      <path class="cls-3" d="M176.61,78.53v-.02c0-1.69,1.23-2.69,2.47-2.69.96,0,1.58.52,1.98,1.1v-3.12h.77v7.3h-.77v-1.04c-.42.62-1.03,1.15-1.98,1.15-1.24,0-2.47-.98-2.47-2.68ZM181.09,78.52v-.02c0-1.19-.91-1.99-1.87-1.99s-1.82.74-1.82,1.99v.02c0,1.22.84,2,1.82,2s1.87-.81,1.87-2Z"/>
      <path class="cls-3" d="M183.16,79.6v-.02c0-1.09.9-1.67,2.21-1.67.66,0,1.13.09,1.59.22v-.18c0-.93-.57-1.41-1.54-1.41-.61,0-1.09.16-1.57.38l-.23-.63c.57-.26,1.13-.43,1.88-.43s1.29.19,1.67.57c.35.35.53.85.53,1.51v3.16h-.74v-.78c-.36.47-.96.89-1.87.89-.96,0-1.93-.55-1.93-1.61ZM186.97,79.2v-.5c-.38-.11-.89-.22-1.52-.22-.97,0-1.51.42-1.51,1.07v.02c0,.65.6,1.03,1.3,1.03.95,0,1.73-.58,1.73-1.4Z"/>
      <path class="cls-3" d="M189.56,79.73v-3.12h-.72v-.68h.72v-1.56h.77v1.56h1.64v.68h-1.64v3.02c0,.63.35.86.87.86.26,0,.48-.05.75-.18v.66c-.27.14-.56.22-.93.22-.83,0-1.46-.41-1.46-1.46Z"/>
      <path class="cls-3" d="M192.94,79.6v-.02c0-1.09.9-1.67,2.21-1.67.66,0,1.13.09,1.59.22v-.18c0-.93-.57-1.41-1.54-1.41-.61,0-1.09.16-1.57.38l-.23-.63c.57-.26,1.13-.43,1.88-.43s1.29.19,1.67.57c.35.35.53.85.53,1.51v3.16h-.74v-.78c-.36.47-.96.89-1.87.89-.96,0-1.93-.55-1.93-1.61ZM196.75,79.2v-.5c-.38-.11-.89-.22-1.52-.22-.97,0-1.51.42-1.51,1.07v.02c0,.65.6,1.03,1.3,1.03.95,0,1.73-.58,1.73-1.4Z"/>
      <path class="cls-3" d="M201.68,75.93h.82l1.36,4.15,1.39-4.17h.64l1.4,4.17,1.36-4.15h.8l-1.82,5.21h-.67l-1.39-4.08-1.4,4.08h-.68l-1.81-5.21Z"/>
      <path class="cls-3" d="M210.14,79.6v-.02c0-1.09.9-1.67,2.21-1.67.66,0,1.13.09,1.59.22v-.18c0-.93-.57-1.41-1.54-1.41-.61,0-1.09.16-1.57.38l-.23-.63c.57-.26,1.13-.43,1.88-.43s1.29.19,1.67.57c.35.35.53.85.53,1.51v3.16h-.74v-.78c-.36.47-.96.89-1.87.89-.96,0-1.93-.55-1.93-1.61ZM213.95,79.2v-.5c-.38-.11-.89-.22-1.52-.22-.97,0-1.51.42-1.51,1.07v.02c0,.65.6,1.03,1.3,1.03.95,0,1.73-.58,1.73-1.4Z"/>
      <path class="cls-3" d="M215.89,80.44l.39-.55c.56.42,1.18.66,1.79.66s1.07-.32,1.07-.82v-.02c0-.52-.61-.72-1.29-.91-.81-.23-1.71-.51-1.71-1.46v-.02c0-.89.74-1.48,1.76-1.48.63,0,1.33.22,1.86.57l-.35.58c-.48-.31-1.03-.5-1.53-.5-.61,0-1,.32-1,.75v.02c0,.49.64.68,1.33.89.8.24,1.66.55,1.66,1.48v.02c0,.98-.81,1.55-1.84,1.55-.74,0-1.56-.29-2.14-.76Z"/>
      <path class="cls-3" d="M127.9,91.14v-3.21h.77v3.02c0,.96.52,1.56,1.43,1.56s1.55-.65,1.55-1.62v-2.96h.76v5.17h-.76v-.9c-.35.56-.88,1.01-1.77,1.01-1.25,0-1.98-.84-1.98-2.07Z"/>
      <path class="cls-3" d="M133.71,92.44l.39-.55c.56.42,1.18.66,1.79.66s1.07-.32,1.07-.82v-.02c0-.52-.61-.72-1.29-.91-.81-.23-1.71-.51-1.71-1.46v-.02c0-.89.74-1.48,1.76-1.48.63,0,1.33.22,1.86.57l-.35.58c-.48-.31-1.03-.5-1.53-.5-.61,0-1,.32-1,.75v.02c0,.49.64.68,1.33.89.8.24,1.66.55,1.66,1.48v.02c0,.98-.81,1.55-1.84,1.55-.74,0-1.56-.29-2.14-.76Z"/>
      <path class="cls-3" d="M138.8,90.53v-.02c0-1.49,1.05-2.69,2.48-2.69,1.53,0,2.41,1.22,2.41,2.73,0,.1,0,.16-.01.25h-4.1c.11,1.12.9,1.75,1.82,1.75.71,0,1.21-.29,1.63-.73l.48.43c-.52.58-1.15.97-2.13.97-1.42,0-2.58-1.09-2.58-2.69ZM142.91,90.23c-.08-.94-.62-1.76-1.65-1.76-.9,0-1.58.75-1.68,1.76h3.33Z"/>
      <path class="cls-3" d="M144.74,90.53v-.02c0-1.69,1.23-2.69,2.47-2.69.96,0,1.58.52,1.98,1.1v-3.12h.77v7.3h-.77v-1.04c-.42.62-1.03,1.15-1.98,1.15-1.24,0-2.47-.98-2.47-2.68ZM149.22,90.52v-.02c0-1.19-.91-1.99-1.87-1.99s-1.82.74-1.82,1.99v.02c0,1.22.84,2,1.82,2s1.87-.81,1.87-2Z"/>
      <path class="cls-3" d="M154.95,91.73v-3.12h-.72v-.68h.72v-1.56h.77v1.56h1.64v.68h-1.64v3.02c0,.63.35.86.87.86.26,0,.48-.05.75-.18v.66c-.27.14-.56.22-.93.22-.83,0-1.46-.41-1.46-1.46Z"/>
      <path class="cls-3" d="M158.25,90.54v-.02c0-1.46,1.14-2.7,2.7-2.7s2.69,1.22,2.69,2.68v.02c0,1.46-1.15,2.7-2.71,2.7s-2.68-1.22-2.68-2.68ZM162.85,90.54v-.02c0-1.11-.83-2.02-1.92-2.02s-1.89.91-1.89,2v.02c0,1.11.82,2.01,1.91,2.01s1.9-.9,1.9-1.99Z"/>
      <path class="cls-3" d="M168.05,85.95h.88v.85h-.88v-.85ZM168.1,87.93h.77v5.17h-.77v-5.17Z"/>
      <path class="cls-3" d="M170.36,90.53v-.02c0-1.69,1.23-2.69,2.47-2.69.96,0,1.58.52,1.98,1.1v-3.12h.77v7.3h-.77v-1.04c-.42.62-1.03,1.15-1.98,1.15-1.24,0-2.47-.98-2.47-2.68ZM174.84,90.52v-.02c0-1.19-.91-1.99-1.87-1.99s-1.82.74-1.82,1.99v.02c0,1.22.84,2,1.82,2s1.87-.81,1.87-2Z"/>
      <path class="cls-3" d="M176.98,90.53v-.02c0-1.49,1.05-2.69,2.48-2.69,1.53,0,2.41,1.22,2.41,2.73,0,.1,0,.16-.01.25h-4.1c.11,1.12.9,1.75,1.82,1.75.71,0,1.21-.29,1.63-.73l.48.43c-.52.58-1.15.97-2.13.97-1.42,0-2.58-1.09-2.58-2.69ZM181.09,90.23c-.08-.94-.62-1.76-1.65-1.76-.9,0-1.58.75-1.68,1.76h3.33Z"/>
      <path class="cls-3" d="M183.22,87.93h.77v.9c.34-.56.88-1.01,1.77-1.01,1.25,0,1.98.84,1.98,2.07v3.21h-.77v-3.02c0-.96-.52-1.56-1.43-1.56s-1.55.65-1.55,1.62v2.96h-.77v-5.17Z"/>
      <path class="cls-3" d="M189.65,91.73v-3.12h-.72v-.68h.72v-1.56h.77v1.56h1.64v.68h-1.64v3.02c0,.63.35.86.87.86.26,0,.48-.05.75-.18v.66c-.27.14-.56.22-.93.22-.83,0-1.46-.41-1.46-1.46Z"/>
      <path class="cls-3" d="M193.44,85.95h.88v.85h-.88v-.85ZM193.49,87.93h.77v5.17h-.77v-5.17Z"/>
      <path class="cls-3" d="M196.34,88.61h-.71v-.67h.71v-.45c0-.59.16-1.04.45-1.33.26-.26.64-.4,1.11-.4.36,0,.6.04.85.13v.67c-.28-.08-.49-.13-.75-.13-.6,0-.9.36-.9,1.1v.42h1.64v.66h-1.63v4.49h-.77v-4.49Z"/>
      <path class="cls-3" d="M203.59,87.93h.82l-2.17,5.34c-.44,1.07-.94,1.46-1.72,1.46-.43,0-.75-.09-1.1-.26l.26-.61c.25.13.48.19.81.19.46,0,.75-.24,1.06-.97l-2.35-5.15h.85l1.88,4.31,1.66-4.31Z"/>
      <path class="cls-3" d="M127.66,102.54v-.02c0-1.46,1.14-2.7,2.65-2.7.98,0,1.59.41,2.07.92l-.51.54c-.41-.43-.87-.78-1.57-.78-1.05,0-1.85.89-1.85,2v.02c0,1.12.82,2.01,1.9,2.01.66,0,1.17-.33,1.58-.77l.49.46c-.52.58-1.14,1-2.11,1-1.51,0-2.65-1.23-2.65-2.68Z"/>
      <path class="cls-3" d="M133.22,102.54v-.02c0-1.46,1.14-2.7,2.7-2.7s2.69,1.22,2.69,2.68v.02c0,1.46-1.15,2.7-2.71,2.7s-2.68-1.22-2.68-2.68ZM137.82,102.54v-.02c0-1.11-.83-2.02-1.92-2.02s-1.89.91-1.89,2v.02c0,1.11.82,2.01,1.91,2.01s1.9-.9,1.9-1.99Z"/>
      <path class="cls-3" d="M140,99.93h.77v.87c.34-.51.8-.98,1.67-.98s1.38.45,1.66,1.03c.37-.57.92-1.03,1.82-1.03,1.19,0,1.92.8,1.92,2.08v3.2h-.77v-3.02c0-1-.5-1.56-1.34-1.56-.78,0-1.43.58-1.43,1.6v2.98h-.76v-3.04c0-.97-.51-1.54-1.33-1.54s-1.44.68-1.44,1.63v2.95h-.77v-5.17Z"/>
      <path class="cls-3" d="M149.48,99.93h.77v.87c.34-.51.8-.98,1.67-.98s1.38.45,1.66,1.03c.37-.57.92-1.03,1.82-1.03,1.19,0,1.92.8,1.92,2.08v3.2h-.77v-3.02c0-1-.5-1.56-1.34-1.56-.78,0-1.43.58-1.43,1.6v2.98h-.76v-3.04c0-.97-.51-1.54-1.33-1.54s-1.44.68-1.44,1.63v2.95h-.77v-5.17Z"/>
      <path class="cls-3" d="M158.64,102.54v-.02c0-1.46,1.14-2.7,2.7-2.7s2.69,1.22,2.69,2.68v.02c0,1.46-1.15,2.7-2.71,2.7s-2.68-1.22-2.68-2.68ZM163.24,102.54v-.02c0-1.11-.83-2.02-1.92-2.02s-1.89.91-1.89,2v.02c0,1.11.82,2.01,1.91,2.01s1.9-.9,1.9-1.99Z"/>
      <path class="cls-3" d="M165.42,99.93h.77v.9c.34-.56.88-1.01,1.77-1.01,1.25,0,1.98.84,1.98,2.07v3.21h-.77v-3.02c0-.96-.52-1.56-1.43-1.56s-1.55.65-1.55,1.62v2.96h-.77v-5.17Z"/>
      <path class="cls-3" d="M174.58,99.93h.77v1.04c.42-.62,1.03-1.15,1.98-1.15,1.24,0,2.47.98,2.47,2.68v.02c0,1.69-1.22,2.69-2.47,2.69-.96,0-1.58-.52-1.98-1.1v2.59h-.77v-6.77ZM179.01,102.53v-.02c0-1.22-.84-2-1.82-2s-1.87.81-1.87,1.99v.02c0,1.2.91,2,1.87,2s1.82-.74,1.82-1.99Z"/>
      <path class="cls-3" d="M181.22,99.93h.77v1.35c.38-.86,1.13-1.48,2.11-1.44v.83h-.06c-1.13,0-2.05.81-2.05,2.37v2.06h-.77v-5.17Z"/>
      <path class="cls-3" d="M184.73,102.53v-.02c0-1.49,1.05-2.69,2.48-2.69,1.53,0,2.41,1.22,2.41,2.73,0,.1,0,.16-.01.25h-4.1c.11,1.12.9,1.75,1.82,1.75.71,0,1.21-.29,1.63-.73l.48.43c-.52.58-1.15.97-2.13.97-1.42,0-2.58-1.09-2.58-2.69ZM188.84,102.23c-.08-.94-.62-1.76-1.65-1.76-.9,0-1.58.75-1.68,1.76h3.33Z"/>
      <path class="cls-3" d="M190.67,102.53v-.02c0-1.69,1.23-2.69,2.47-2.69.96,0,1.58.52,1.98,1.1v-3.12h.77v7.3h-.77v-1.04c-.42.62-1.03,1.15-1.98,1.15-1.24,0-2.47-.98-2.47-2.68ZM195.15,102.52v-.02c0-1.19-.91-1.99-1.87-1.99s-1.82.74-1.82,1.99v.02c0,1.22.84,2,1.82,2s1.87-.81,1.87-2Z"/>
      <path class="cls-3" d="M197.63,97.95h.88v.85h-.88v-.85ZM197.68,99.93h.77v5.17h-.77v-5.17Z"/>
      <path class="cls-3" d="M199.92,102.54v-.02c0-1.46,1.14-2.7,2.65-2.7.98,0,1.59.41,2.07.92l-.51.54c-.41-.43-.87-.78-1.57-.78-1.05,0-1.85.89-1.85,2v.02c0,1.12.82,2.01,1.9,2.01.66,0,1.17-.33,1.58-.77l.49.46c-.52.58-1.14,1-2.11,1-1.51,0-2.65-1.23-2.65-2.68Z"/>
      <path class="cls-3" d="M206.22,103.73v-3.12h-.72v-.68h.72v-1.56h.77v1.56h1.64v.68h-1.64v3.02c0,.63.35.86.87.86.26,0,.48-.05.75-.18v.66c-.27.14-.56.22-.93.22-.83,0-1.46-.41-1.46-1.46Z"/>
      <path class="cls-3" d="M209.52,102.54v-.02c0-1.46,1.14-2.7,2.7-2.7s2.69,1.22,2.69,2.68v.02c0,1.46-1.15,2.7-2.71,2.7s-2.68-1.22-2.68-2.68ZM214.12,102.54v-.02c0-1.11-.83-2.02-1.92-2.02s-1.89.91-1.89,2v.02c0,1.11.82,2.01,1.91,2.01s1.9-.9,1.9-1.99Z"/>
      <path class="cls-3" d="M216.3,99.93h.77v1.35c.38-.86,1.13-1.48,2.11-1.44v.83h-.06c-1.13,0-2.05.81-2.05,2.37v2.06h-.77v-5.17Z"/>
      <path class="cls-3" d="M219.92,104.44l.39-.55c.56.42,1.18.66,1.79.66s1.07-.32,1.07-.82v-.02c0-.52-.61-.72-1.29-.91-.81-.23-1.71-.51-1.71-1.46v-.02c0-.89.74-1.48,1.76-1.48.63,0,1.33.22,1.86.57l-.35.58c-.48-.31-1.03-.5-1.53-.5-.61,0-1,.32-1,.75v.02c0,.49.64.68,1.33.89.8.24,1.66.55,1.66,1.48v.02c0,.98-.81,1.55-1.84,1.55-.74,0-1.56-.29-2.14-.76Z"/>
      <path class="cls-3" d="M127.66,114.54v-.02c0-1.46,1.14-2.7,2.7-2.7s2.69,1.22,2.69,2.68v.02c0,1.46-1.15,2.7-2.71,2.7s-2.68-1.22-2.68-2.68ZM132.26,114.54v-.02c0-1.11-.83-2.02-1.92-2.02s-1.89.91-1.89,2v.02c0,1.11.82,2.01,1.91,2.01s1.9-.9,1.9-1.99Z"/>
      <path class="cls-3" d="M134.73,112.61h-.71v-.67h.71v-.45c0-.59.16-1.04.45-1.33.26-.26.64-.4,1.11-.4.36,0,.6.04.85.13v.67c-.28-.08-.49-.13-.75-.13-.6,0-.9.36-.9,1.1v.42h1.64v.66h-1.63v4.49h-.77v-4.49Z"/>
      <path class="cls-3" d="M141.11,111.93h.77v1.04c.42-.62,1.03-1.15,1.98-1.15,1.24,0,2.47.98,2.47,2.68v.02c0,1.69-1.22,2.69-2.47,2.69-.96,0-1.58-.52-1.98-1.1v2.59h-.77v-6.77ZM145.54,114.53v-.02c0-1.22-.84-2-1.82-2s-1.87.81-1.87,1.99v.02c0,1.2.91,2,1.87,2s1.82-.74,1.82-1.99Z"/>
      <path class="cls-3" d="M147.36,115.6v-.02c0-1.09.9-1.67,2.21-1.67.66,0,1.13.09,1.59.22v-.18c0-.93-.57-1.41-1.54-1.41-.61,0-1.09.16-1.57.38l-.23-.63c.57-.26,1.13-.43,1.88-.43s1.29.19,1.67.57c.35.35.53.85.53,1.51v3.16h-.74v-.78c-.36.47-.96.89-1.87.89-.96,0-1.93-.55-1.93-1.61ZM151.17,115.2v-.5c-.38-.11-.89-.22-1.52-.22-.97,0-1.51.42-1.51,1.07v.02c0,.65.6,1.03,1.3,1.03.95,0,1.73-.58,1.73-1.4Z"/>
      <path class="cls-3" d="M153.76,115.73v-3.12h-.72v-.68h.72v-1.56h.77v1.56h1.64v.68h-1.64v3.02c0,.63.35.86.87.86.26,0,.48-.05.75-.18v.66c-.27.14-.56.22-.93.22-.83,0-1.46-.41-1.46-1.46Z"/>
      <path class="cls-3" d="M157.55,109.95h.88v.85h-.88v-.85ZM157.6,111.93h.77v5.17h-.77v-5.17Z"/>
      <path class="cls-3" d="M159.84,114.53v-.02c0-1.49,1.05-2.69,2.48-2.69,1.53,0,2.41,1.22,2.41,2.73,0,.1,0,.16-.01.25h-4.1c.11,1.12.9,1.75,1.82,1.75.71,0,1.21-.29,1.63-.73l.48.43c-.52.58-1.15.97-2.13.97-1.42,0-2.58-1.09-2.58-2.69ZM163.95,114.23c-.08-.94-.62-1.76-1.65-1.76-.9,0-1.58.75-1.68,1.76h3.33Z"/>
      <path class="cls-3" d="M166.08,111.93h.77v.9c.34-.56.88-1.01,1.77-1.01,1.25,0,1.98.84,1.98,2.07v3.21h-.77v-3.02c0-.96-.52-1.56-1.43-1.56s-1.55.65-1.55,1.62v2.96h-.77v-5.17Z"/>
      <path class="cls-3" d="M172.51,115.73v-3.12h-.72v-.68h.72v-1.56h.77v1.56h1.64v.68h-1.64v3.02c0,.63.35.86.87.86.26,0,.48-.05.75-.18v.66c-.27.14-.56.22-.93.22-.83,0-1.46-.41-1.46-1.46Z"/>
      <path class="cls-3" d="M175.85,116.44l.39-.55c.56.42,1.18.66,1.79.66s1.07-.32,1.07-.82v-.02c0-.52-.61-.72-1.29-.91-.81-.23-1.71-.51-1.71-1.46v-.02c0-.89.74-1.48,1.76-1.48.63,0,1.33.22,1.86.57l-.35.58c-.48-.31-1.03-.5-1.53-.5-.61,0-1,.32-1,.75v.02c0,.49.64.68,1.33.89.8.24,1.66.55,1.66,1.48v.02c0,.98-.81,1.55-1.84,1.55-.74,0-1.56-.29-2.14-.76Z"/>
      <path class="cls-3" d="M183.87,115.6v-.02c0-1.09.9-1.67,2.21-1.67.66,0,1.13.09,1.59.22v-.18c0-.93-.57-1.41-1.54-1.41-.61,0-1.09.16-1.57.38l-.23-.63c.57-.26,1.13-.43,1.88-.43s1.29.19,1.67.57c.35.35.53.85.53,1.51v3.16h-.74v-.78c-.36.47-.96.89-1.87.89-.96,0-1.93-.55-1.93-1.61ZM187.68,115.2v-.5c-.38-.11-.89-.22-1.52-.22-.97,0-1.51.42-1.51,1.07v.02c0,.65.6,1.03,1.3,1.03.95,0,1.73-.58,1.73-1.4Z"/>
      <path class="cls-3" d="M189.73,114.54v-.02c0-1.46,1.14-2.7,2.65-2.7.98,0,1.59.41,2.07.92l-.51.54c-.41-.43-.87-.78-1.57-.78-1.05,0-1.85.89-1.85,2v.02c0,1.12.82,2.01,1.9,2.01.66,0,1.17-.33,1.58-.77l.49.46c-.52.58-1.14,1-2.11,1-1.51,0-2.65-1.23-2.65-2.68Z"/>
      <path class="cls-3" d="M195.76,109.8h.77v3.03c.34-.56.88-1.01,1.77-1.01,1.25,0,1.98.84,1.98,2.07v3.21h-.77v-3.02c0-.96-.52-1.56-1.43-1.56s-1.55.65-1.55,1.62v2.96h-.77v-7.3Z"/>
      <path class="cls-3" d="M201.94,109.95h.88v.85h-.88v-.85ZM201.99,111.93h.77v5.17h-.77v-5.17Z"/>
      <path class="cls-3" d="M204.23,114.53v-.02c0-1.49,1.05-2.69,2.48-2.69,1.53,0,2.41,1.22,2.41,2.73,0,.1,0,.16-.01.25h-4.1c.11,1.12.9,1.75,1.82,1.75.71,0,1.21-.29,1.63-.73l.48.43c-.52.58-1.15.97-2.13.97-1.42,0-2.58-1.09-2.58-2.69ZM208.34,114.23c-.08-.94-.62-1.76-1.65-1.76-.9,0-1.58.75-1.68,1.76h3.33Z"/>
      <path class="cls-3" d="M209.71,111.93h.85l1.74,4.29,1.75-4.29h.83l-2.25,5.21h-.68l-2.24-5.21Z"/>
      <path class="cls-3" d="M216.11,109.95h.88v.85h-.88v-.85ZM216.16,111.93h.77v5.17h-.77v-5.17Z"/>
      <path class="cls-3" d="M218.72,111.93h.77v.9c.34-.56.88-1.01,1.77-1.01,1.25,0,1.98.84,1.98,2.07v3.21h-.77v-3.02c0-.96-.52-1.56-1.43-1.56s-1.55.65-1.55,1.62v2.96h-.77v-5.17Z"/>
      <path class="cls-3" d="M224.82,118l.35-.6c.59.43,1.25.66,1.99.66,1.14,0,1.88-.63,1.88-1.84v-.61c-.45.6-1.08,1.09-2.03,1.09-1.24,0-2.43-.93-2.43-2.42v-.02c0-1.51,1.2-2.44,2.43-2.44.97,0,1.6.48,2.02,1.04v-.93h.77v4.27c0,.8-.24,1.41-.66,1.83-.46.46-1.15.69-1.97.69-.86,0-1.66-.24-2.35-.72ZM229.06,114.27v-.02c0-1.06-.92-1.75-1.9-1.75s-1.79.68-1.79,1.74v.02c0,1.04.83,1.76,1.79,1.76s1.9-.71,1.9-1.75Z"/>
      <path class="cls-3" d="M127.55,128.44l.39-.55c.56.42,1.18.66,1.79.66s1.07-.32,1.07-.82v-.02c0-.52-.61-.72-1.29-.91-.81-.23-1.71-.51-1.71-1.46v-.02c0-.89.74-1.48,1.76-1.48.63,0,1.33.22,1.86.57l-.35.58c-.48-.31-1.03-.5-1.53-.5-.61,0-1,.32-1,.75v.02c0,.49.64.68,1.33.89.8.24,1.66.55,1.66,1.48v.02c0,.98-.81,1.55-1.84,1.55-.74,0-1.56-.29-2.14-.76Z"/>
      <path class="cls-3" d="M133.13,127.73v-3.12h-.72v-.68h.72v-1.56h.77v1.56h1.64v.68h-1.64v3.02c0,.63.35.86.87.86.26,0,.48-.05.75-.18v.66c-.27.14-.56.22-.93.22-.83,0-1.46-.41-1.46-1.46Z"/>
      <path class="cls-3" d="M136.43,126.53v-.02c0-1.49,1.05-2.69,2.48-2.69,1.53,0,2.41,1.22,2.41,2.73,0,.1,0,.16-.01.25h-4.1c.11,1.12.9,1.75,1.82,1.75.71,0,1.21-.29,1.63-.73l.48.43c-.52.58-1.15.97-2.13.97-1.42,0-2.58-1.09-2.58-2.69ZM140.54,126.23c-.08-.94-.62-1.76-1.65-1.76-.9,0-1.58.75-1.68,1.76h3.33Z"/>
      <path class="cls-3" d="M142.67,123.93h.77v1.35c.38-.86,1.13-1.48,2.11-1.44v.83h-.06c-1.13,0-2.05.81-2.05,2.37v2.06h-.77v-5.17Z"/>
      <path class="cls-3" d="M146.18,126.54v-.02c0-1.46,1.14-2.7,2.7-2.7s2.69,1.22,2.69,2.68v.02c0,1.46-1.15,2.7-2.71,2.7s-2.68-1.22-2.68-2.68ZM150.78,126.54v-.02c0-1.11-.83-2.02-1.92-2.02s-1.89.91-1.89,2v.02c0,1.11.82,2.01,1.91,2.01s1.9-.9,1.9-1.99Z"/>
      <path class="cls-3" d="M152.98,121.95h.88v.85h-.88v-.85ZM153.03,123.93h.77v5.17h-.77v-5.17Z"/>
      <path class="cls-3" d="M155.29,126.53v-.02c0-1.69,1.23-2.69,2.47-2.69.96,0,1.58.52,1.98,1.1v-3.12h.77v7.3h-.77v-1.04c-.42.62-1.03,1.15-1.98,1.15-1.24,0-2.47-.98-2.47-2.68ZM159.77,126.52v-.02c0-1.19-.91-1.99-1.87-1.99s-1.82.74-1.82,1.99v.02c0,1.22.84,2,1.82,2s1.87-.81,1.87-2Z"/>
      <path class="cls-3" d="M162.02,125.69h2.78v.81h-2.78v-.81Z"/>
      <path class="cls-3" d="M166.6,124.61h-.71v-.67h.71v-.45c0-.59.16-1.04.45-1.33.26-.26.64-.4,1.11-.4.36,0,.6.04.85.13v.67c-.28-.08-.49-.13-.75-.13-.6,0-.9.36-.9,1.1v.42h1.64v.66h-1.63v4.49h-.77v-4.49Z"/>
      <path class="cls-3" d="M169.98,123.93h.77v1.35c.38-.86,1.13-1.48,2.11-1.44v.83h-.06c-1.13,0-2.05.81-2.05,2.37v2.06h-.77v-5.17Z"/>
      <path class="cls-3" d="M173.49,126.53v-.02c0-1.49,1.05-2.69,2.48-2.69,1.53,0,2.41,1.22,2.41,2.73,0,.1,0,.16-.01.25h-4.1c.11,1.12.9,1.75,1.82,1.75.71,0,1.21-.29,1.63-.73l.48.43c-.52.58-1.15.97-2.13.97-1.42,0-2.58-1.09-2.58-2.69ZM177.6,126.23c-.08-.94-.62-1.76-1.65-1.76-.9,0-1.58.75-1.68,1.76h3.33Z"/>
      <path class="cls-3" d="M179.41,126.53v-.02c0-1.49,1.05-2.69,2.48-2.69,1.53,0,2.41,1.22,2.41,2.73,0,.1,0,.16-.01.25h-4.1c.11,1.12.9,1.75,1.82,1.75.71,0,1.21-.29,1.63-.73l.48.43c-.52.58-1.15.97-2.13.97-1.42,0-2.58-1.09-2.58-2.69ZM183.52,126.23c-.08-.94-.62-1.76-1.65-1.76-.9,0-1.58.75-1.68,1.76h3.33Z"/>
      <path class="cls-3" d="M185.15,129.96c.5-.18.71-.44.67-.87h-.36v-1.05h.92v.9c0,.81-.35,1.2-1.11,1.37l-.12-.35Z"/>
      <path class="cls-3" d="M190.68,126.54v-.02c0-1.46,1.14-2.7,2.65-2.7.98,0,1.59.41,2.07.92l-.51.54c-.41-.43-.87-.78-1.57-.78-1.05,0-1.85.89-1.85,2v.02c0,1.12.82,2.01,1.9,2.01.66,0,1.17-.33,1.58-.77l.49.46c-.52.58-1.14,1-2.11,1-1.51,0-2.65-1.23-2.65-2.68Z"/>
      <path class="cls-3" d="M196.78,121.8h.77v7.3h-.77v-7.3Z"/>
      <path class="cls-3" d="M199.36,121.95h.88v.85h-.88v-.85ZM199.41,123.93h.77v5.17h-.77v-5.17Z"/>
      <path class="cls-3" d="M201.97,123.93h.77v.9c.34-.56.88-1.01,1.77-1.01,1.25,0,1.98.84,1.98,2.07v3.21h-.77v-3.02c0-.96-.52-1.56-1.43-1.56s-1.55.65-1.55,1.62v2.96h-.77v-5.17Z"/>
      <path class="cls-3" d="M208.15,121.95h.88v.85h-.88v-.85ZM208.2,123.93h.77v5.17h-.77v-5.17Z"/>
      <path class="cls-3" d="M210.44,126.54v-.02c0-1.46,1.14-2.7,2.65-2.7.98,0,1.59.41,2.07.92l-.51.54c-.41-.43-.87-.78-1.57-.78-1.05,0-1.85.89-1.85,2v.02c0,1.12.82,2.01,1.9,2.01.66,0,1.17-.33,1.58-.77l.49.46c-.52.58-1.14,1-2.11,1-1.51,0-2.65-1.23-2.65-2.68Z"/>
      <path class="cls-3" d="M216.08,127.6v-.02c0-1.09.9-1.67,2.21-1.67.66,0,1.13.09,1.59.22v-.18c0-.93-.57-1.41-1.54-1.41-.61,0-1.09.16-1.57.38l-.23-.63c.57-.26,1.13-.43,1.88-.43s1.29.19,1.67.57c.35.35.53.85.53,1.51v3.16h-.74v-.78c-.36.47-.96.89-1.87.89-.96,0-1.93-.55-1.93-1.61ZM219.89,127.2v-.5c-.38-.11-.89-.22-1.52-.22-.97,0-1.51.42-1.51,1.07v.02c0,.65.6,1.03,1.3,1.03.95,0,1.73-.58,1.73-1.4Z"/>
      <path class="cls-3" d="M222.33,121.8h.77v7.3h-.77v-7.3Z"/>
      <path class="cls-3" d="M127.59,139.6v-.02c0-1.09.9-1.67,2.21-1.67.66,0,1.13.09,1.59.22v-.18c0-.93-.57-1.41-1.54-1.41-.61,0-1.09.16-1.57.38l-.23-.63c.57-.26,1.13-.43,1.88-.43s1.29.19,1.67.57c.35.35.53.85.53,1.51v3.16h-.74v-.78c-.36.47-.96.89-1.87.89-.96,0-1.93-.55-1.93-1.61ZM131.4,139.2v-.5c-.38-.11-.89-.22-1.52-.22-.97,0-1.51.42-1.51,1.07v.02c0,.65.6,1.03,1.3,1.03.95,0,1.73-.58,1.73-1.4Z"/>
      <path class="cls-3" d="M133.77,135.93h.77v.9c.34-.56.88-1.01,1.77-1.01,1.25,0,1.98.84,1.98,2.07v3.21h-.77v-3.02c0-.96-.52-1.56-1.43-1.56s-1.55.65-1.55,1.62v2.96h-.77v-5.17Z"/>
      <path class="cls-3" d="M139.63,138.53v-.02c0-1.69,1.23-2.69,2.47-2.69.96,0,1.58.52,1.98,1.1v-3.12h.77v7.3h-.77v-1.04c-.42.62-1.03,1.15-1.98,1.15-1.24,0-2.47-.98-2.47-2.68ZM144.11,138.52v-.02c0-1.19-.91-1.99-1.87-1.99s-1.82.74-1.82,1.99v.02c0,1.22.84,2,1.82,2s1.87-.81,1.87-2Z"/>
      <path class="cls-3" d="M149.27,138.53v-.02c0-1.69,1.23-2.69,2.47-2.69.96,0,1.58.52,1.98,1.1v-3.12h.77v7.3h-.77v-1.04c-.42.62-1.03,1.15-1.98,1.15-1.24,0-2.47-.98-2.47-2.68ZM153.75,138.52v-.02c0-1.19-.91-1.99-1.87-1.99s-1.82.74-1.82,1.99v.02c0,1.22.84,2,1.82,2s1.87-.81,1.87-2Z"/>
      <path class="cls-3" d="M156.13,139.14v-3.21h.77v3.02c0,.96.52,1.56,1.43,1.56s1.55-.65,1.55-1.62v-2.96h.76v5.17h-.76v-.9c-.35.56-.88,1.01-1.77,1.01-1.25,0-1.98-.84-1.98-2.07Z"/>
      <path class="cls-3" d="M162.37,135.93h.77v1.35c.38-.86,1.13-1.48,2.11-1.44v.83h-.06c-1.13,0-2.05.81-2.05,2.37v2.06h-.77v-5.17Z"/>
      <path class="cls-3" d="M165.78,139.6v-.02c0-1.09.9-1.67,2.21-1.67.66,0,1.13.09,1.59.22v-.18c0-.93-.57-1.41-1.54-1.41-.61,0-1.09.16-1.57.38l-.23-.63c.57-.26,1.13-.43,1.88-.43s1.29.19,1.67.57c.35.35.53.85.53,1.51v3.16h-.74v-.78c-.36.47-.96.89-1.87.89-.96,0-1.93-.55-1.93-1.61ZM169.59,139.2v-.5c-.38-.11-.89-.22-1.52-.22-.97,0-1.51.42-1.51,1.07v.02c0,.65.6,1.03,1.3,1.03.95,0,1.73-.58,1.73-1.4Z"/>
      <path class="cls-3" d="M172.73,140.11v.99h-.77v-7.3h.77v3.17c.42-.62,1.03-1.15,1.98-1.15,1.24,0,2.47.98,2.47,2.68v.02c0,1.69-1.22,2.69-2.47,2.69-.96,0-1.58-.52-1.98-1.1ZM176.39,138.53v-.02c0-1.22-.84-2-1.82-2s-1.87.81-1.87,1.99v.02c0,1.2.91,2,1.87,2s1.82-.74,1.82-1.99Z"/>
      <path class="cls-3" d="M178.67,133.8h.77v7.3h-.77v-7.3Z"/>
      <path class="cls-3" d="M180.91,138.53v-.02c0-1.49,1.05-2.69,2.48-2.69,1.53,0,2.41,1.22,2.41,2.73,0,.1,0,.16-.01.25h-4.1c.11,1.12.9,1.75,1.82,1.75.71,0,1.21-.29,1.63-.73l.48.43c-.52.58-1.15.97-2.13.97-1.42,0-2.58-1.09-2.58-2.69ZM185.02,138.23c-.08-.94-.62-1.76-1.65-1.76-.9,0-1.58.75-1.68,1.76h3.33Z"/>
      <path class="cls-3" d="M127.98,147.93h.77v1.35c.38-.86,1.13-1.48,2.11-1.44v.83h-.06c-1.13,0-2.05.81-2.05,2.37v2.06h-.77v-5.17Z"/>
      <path class="cls-3" d="M131.49,150.53v-.02c0-1.49,1.05-2.69,2.48-2.69,1.53,0,2.41,1.22,2.41,2.73,0,.1,0,.16-.01.25h-4.1c.11,1.12.9,1.75,1.82,1.75.71,0,1.21-.29,1.63-.73l.48.43c-.52.58-1.15.97-2.13.97-1.42,0-2.58-1.09-2.58-2.69ZM135.6,150.23c-.08-.94-.62-1.76-1.65-1.76-.9,0-1.58.75-1.68,1.76h3.33Z"/>
      <path class="cls-3" d="M137.73,147.93h.77v.87c.34-.51.8-.98,1.67-.98s1.38.45,1.66,1.03c.37-.57.92-1.03,1.82-1.03,1.19,0,1.92.8,1.92,2.08v3.2h-.77v-3.02c0-1-.5-1.56-1.34-1.56-.78,0-1.43.58-1.43,1.6v2.98h-.76v-3.04c0-.97-.51-1.54-1.33-1.54s-1.44.68-1.44,1.63v2.95h-.77v-5.17Z"/>
      <path class="cls-3" d="M147.23,145.95h.88v.85h-.88v-.85ZM147.28,147.93h.77v5.17h-.77v-5.17Z"/>
      <path class="cls-3" d="M149.41,152.44l.39-.55c.56.42,1.18.66,1.79.66s1.07-.32,1.07-.82v-.02c0-.52-.61-.72-1.29-.91-.81-.23-1.71-.51-1.71-1.46v-.02c0-.89.74-1.48,1.76-1.48.63,0,1.33.22,1.86.57l-.35.58c-.48-.31-1.03-.5-1.53-.5-.61,0-1,.32-1,.75v.02c0,.49.64.68,1.33.89.8.24,1.66.55,1.66,1.48v.02c0,.98-.81,1.55-1.84,1.55-.74,0-1.56-.29-2.14-.76Z"/>
      <path class="cls-3" d="M154.29,152.44l.39-.55c.56.42,1.18.66,1.79.66s1.07-.32,1.07-.82v-.02c0-.52-.61-.72-1.29-.91-.81-.23-1.71-.51-1.71-1.46v-.02c0-.89.74-1.48,1.76-1.48.63,0,1.33.22,1.86.57l-.35.58c-.48-.31-1.03-.5-1.53-.5-.61,0-1,.32-1,.75v.02c0,.49.64.68,1.33.89.8.24,1.66.55,1.66,1.48v.02c0,.98-.81,1.55-1.84,1.55-.74,0-1.56-.29-2.14-.76Z"/>
      <path class="cls-3" d="M159.72,145.95h.88v.85h-.88v-.85ZM159.77,147.93h.77v5.17h-.77v-5.17Z"/>
      <path class="cls-3" d="M162.01,150.54v-.02c0-1.46,1.14-2.7,2.7-2.7s2.69,1.22,2.69,2.68v.02c0,1.46-1.15,2.7-2.71,2.7s-2.68-1.22-2.68-2.68ZM166.61,150.54v-.02c0-1.11-.83-2.02-1.92-2.02s-1.89.91-1.89,2v.02c0,1.11.82,2.01,1.91,2.01s1.9-.9,1.9-1.99Z"/>
      <path class="cls-3" d="M168.79,147.93h.77v.9c.34-.56.88-1.01,1.77-1.01,1.25,0,1.98.84,1.98,2.07v3.21h-.77v-3.02c0-.96-.52-1.56-1.43-1.56s-1.55.65-1.55,1.62v2.96h-.77v-5.17Z"/>
      <path class="cls-3" d="M175.14,146.13l-.77.24-.11-.37,1-.34h.34v4.11h-.45v-3.63Z"/>
    </g>
    <g>
      <path class="cls-3" d="M127.36,194.25h1.7l1.83,4.93,1.83-4.93h1.66l-2.83,7.05h-1.36l-2.83-7.05Z"/>
      <path class="cls-3" d="M134.28,199.71v-.02c0-1.17.89-1.71,2.16-1.71.54,0,.93.09,1.31.22v-.09c0-.63-.39-.98-1.15-.98-.58,0-.99.11-1.48.29l-.38-1.16c.59-.26,1.17-.43,2.08-.43.83,0,1.43.22,1.81.6.4.4.58.99.58,1.71v3.11h-1.47v-.58c-.37.41-.88.68-1.62.68-1.01,0-1.84-.58-1.84-1.64ZM137.77,199.36v-.27c-.26-.12-.6-.2-.97-.2-.65,0-1.05.26-1.05.74v.02c0,.41.34.65.83.65.71,0,1.19-.39,1.19-.94Z"/>
      <path class="cls-3" d="M140.59,193.95h1.52v7.3h-1.52v-7.3Z"/>
      <path class="cls-3" d="M143.57,193.95h1.6v1.35h-1.6v-1.35ZM143.61,195.89h1.52v5.36h-1.52v-5.36Z"/>
      <path class="cls-3" d="M146.32,198.58v-.02c0-1.79,1.17-2.77,2.44-2.77.81,0,1.31.37,1.67.8v-2.64h1.52v7.3h-1.52v-.77c-.37.5-.88.87-1.67.87-1.25,0-2.44-.98-2.44-2.77ZM150.45,198.58v-.02c0-.89-.59-1.48-1.3-1.48s-1.31.58-1.31,1.48v.02c0,.89.6,1.48,1.31,1.48s1.3-.59,1.3-1.48Z"/>
      <path class="cls-3" d="M152.99,199.71v-.02c0-1.17.89-1.71,2.16-1.71.54,0,.93.09,1.31.22v-.09c0-.63-.39-.98-1.15-.98-.58,0-.99.11-1.48.29l-.38-1.16c.59-.26,1.17-.43,2.08-.43.83,0,1.43.22,1.81.6.4.4.58.99.58,1.71v3.11h-1.47v-.58c-.37.41-.88.68-1.62.68-1.01,0-1.84-.58-1.84-1.64ZM156.48,199.36v-.27c-.26-.12-.6-.2-.97-.2-.65,0-1.05.26-1.05.74v.02c0,.41.34.65.83.65.71,0,1.19-.39,1.19-.94Z"/>
      <path class="cls-3" d="M159.43,199.73v-2.54h-.64v-1.3h.64v-1.37h1.52v1.37h1.26v1.3h-1.26v2.29c0,.35.15.52.49.52.28,0,.53-.07.75-.19v1.22c-.32.19-.69.31-1.2.31-.93,0-1.56-.37-1.56-1.61Z"/>
      <path class="cls-3" d="M163.36,193.95h1.6v1.35h-1.6v-1.35ZM163.4,195.89h1.52v5.36h-1.52v-5.36Z"/>
      <path class="cls-3" d="M166.09,198.6v-.02c0-1.54,1.24-2.79,2.91-2.79s2.89,1.23,2.89,2.77v.02c0,1.54-1.24,2.79-2.91,2.79s-2.89-1.23-2.89-2.77ZM170.39,198.6v-.02c0-.79-.57-1.48-1.41-1.48s-1.39.67-1.39,1.46v.02c0,.79.57,1.48,1.41,1.48s1.39-.67,1.39-1.46Z"/>
      <path class="cls-3" d="M172.99,195.89h1.52v.76c.35-.45.8-.86,1.57-.86,1.15,0,1.82.76,1.82,1.99v3.47h-1.52v-2.99c0-.72-.34-1.09-.92-1.09s-.95.37-.95,1.09v2.99h-1.52v-5.36Z"/>
      <path class="cls-3" d="M127.51,206.25h.88l2.49,6.03,2.5-6.03h.85l-3.01,7.05h-.7l-3.01-7.05Z"/>
      <path class="cls-3" d="M135.68,206.25h.79v7h-.79v-7Z"/>
      <path class="cls-3" d="M138.21,209.77v-.02c0-1.98,1.48-3.62,3.54-3.62,1.27,0,2.03.45,2.73,1.11l-.54.58c-.59-.56-1.25-.96-2.2-.96-1.55,0-2.71,1.26-2.71,2.87v.02c0,1.62,1.17,2.89,2.71,2.89.96,0,1.59-.37,2.26-1.01l.52.51c-.73.74-1.53,1.23-2.8,1.23-2.02,0-3.51-1.59-3.51-3.6Z"/>
      <path class="cls-3" d="M147.76,206.98h-2.36v-.73h5.51v.73h-2.36v6.27h-.79v-6.27Z"/>
      <path class="cls-3" d="M151.59,209.77v-.02c0-1.93,1.45-3.62,3.58-3.62s3.56,1.67,3.56,3.6v.02c0,1.93-1.45,3.62-3.58,3.62s-3.56-1.67-3.56-3.6ZM157.91,209.77v-.02c0-1.59-1.16-2.89-2.76-2.89s-2.74,1.28-2.74,2.87v.02c0,1.59,1.16,2.89,2.76,2.89s2.74-1.28,2.74-2.87Z"/>
      <path class="cls-3" d="M160.4,206.25h3.01c.86,0,1.55.26,1.99.7.34.34.54.83.54,1.38v.02c0,1.16-.8,1.84-1.9,2.04l2.15,2.86h-.97l-2.03-2.72h-2v2.72h-.79v-7ZM163.34,209.82c1.05,0,1.8-.54,1.8-1.44v-.02c0-.86-.66-1.38-1.79-1.38h-2.16v2.84h2.15Z"/>
      <path class="cls-3" d="M169.57,210.48l-2.91-4.23h.96l2.36,3.5,2.38-3.5h.92l-2.91,4.22v2.78h-.8v-2.77Z"/>
      <path class="cls-3" d="M177.09,210.69v-.02c0-1.46,1.14-2.7,2.65-2.7.98,0,1.59.41,2.07.92l-.51.54c-.41-.43-.87-.78-1.57-.78-1.05,0-1.85.89-1.85,2v.02c0,1.12.82,2.01,1.9,2.01.66,0,1.17-.33,1.58-.77l.49.46c-.52.58-1.14,1-2.11,1-1.51,0-2.65-1.23-2.65-2.68Z"/>
      <path class="cls-3" d="M182.65,210.69v-.02c0-1.46,1.14-2.7,2.7-2.7s2.69,1.22,2.69,2.68v.02c0,1.46-1.15,2.7-2.71,2.7s-2.68-1.22-2.68-2.68ZM187.25,210.69v-.02c0-1.11-.83-2.02-1.92-2.02s-1.89.91-1.89,2v.02c0,1.11.82,2.01,1.91,2.01s1.9-.9,1.9-1.99Z"/>
      <path class="cls-3" d="M189.43,208.08h.77v.9c.34-.56.88-1.01,1.77-1.01,1.25,0,1.98.84,1.98,2.07v3.21h-.77v-3.02c0-.96-.52-1.56-1.43-1.56s-1.55.65-1.55,1.62v2.96h-.77v-5.17Z"/>
      <path class="cls-3" d="M195.16,212.59l.39-.55c.56.42,1.18.66,1.79.66s1.07-.32,1.07-.82v-.02c0-.52-.61-.72-1.29-.91-.81-.23-1.71-.51-1.71-1.46v-.02c0-.89.74-1.48,1.76-1.48.63,0,1.33.22,1.86.57l-.35.58c-.48-.31-1.03-.5-1.53-.5-.61,0-1,.32-1,.75v.02c0,.49.64.68,1.33.89.8.24,1.66.55,1.66,1.48v.02c0,.98-.81,1.55-1.84,1.55-.74,0-1.56-.29-2.14-.76Z"/>
      <path class="cls-3" d="M200.25,210.69v-.02c0-1.46,1.14-2.7,2.7-2.7s2.69,1.22,2.69,2.68v.02c0,1.46-1.15,2.7-2.71,2.7s-2.68-1.22-2.68-2.68ZM204.85,210.69v-.02c0-1.11-.83-2.02-1.92-2.02s-1.89.91-1.89,2v.02c0,1.11.82,2.01,1.91,2.01s1.9-.9,1.9-1.99Z"/>
      <path class="cls-3" d="M207.03,208.08h.77v1.35c.38-.86,1.13-1.48,2.11-1.44v.83h-.06c-1.13,0-2.05.81-2.05,2.37v2.06h-.77v-5.17Z"/>
      <path class="cls-3" d="M211.35,211.88v-3.12h-.72v-.68h.72v-1.56h.77v1.56h1.64v.68h-1.64v3.02c0,.63.35.86.87.86.26,0,.48-.05.75-.18v.66c-.27.14-.56.22-.93.22-.83,0-1.46-.41-1.46-1.46Z"/>
      <path class="cls-3" d="M215.14,206.1h.88v.85h-.88v-.85ZM215.19,208.08h.77v5.17h-.77v-5.17Z"/>
      <path class="cls-3" d="M217.67,211.29v-3.21h.77v3.02c0,.96.52,1.56,1.43,1.56s1.55-.65,1.55-1.62v-2.96h.76v5.17h-.76v-.9c-.35.56-.88,1.01-1.77,1.01-1.25,0-1.98-.84-1.98-2.07Z"/>
      <path class="cls-3" d="M223.91,208.08h.77v.87c.34-.51.8-.98,1.67-.98s1.38.45,1.66,1.03c.37-.57.92-1.03,1.82-1.03,1.19,0,1.92.8,1.92,2.08v3.2h-.77v-3.02c0-1-.5-1.56-1.34-1.56-.78,0-1.43.58-1.43,1.6v2.98h-.76v-3.04c0-.97-.51-1.54-1.33-1.54s-1.44.68-1.44,1.63v2.95h-.77v-5.17Z"/>
      <path class="cls-3" d="M127.68,222.68v-.02c0-1.69,1.23-2.69,2.47-2.69.96,0,1.58.52,1.98,1.1v-3.12h.77v7.3h-.77v-1.04c-.42.62-1.03,1.15-1.98,1.15-1.24,0-2.47-.98-2.47-2.68ZM132.16,222.67v-.02c0-1.19-.91-1.99-1.87-1.99s-1.82.74-1.82,1.99v.02c0,1.22.84,2,1.82,2s1.87-.81,1.87-2Z"/>
      <path class="cls-3" d="M134.23,223.75v-.02c0-1.09.9-1.67,2.21-1.67.66,0,1.13.09,1.59.22v-.18c0-.93-.57-1.41-1.54-1.41-.61,0-1.09.16-1.57.38l-.23-.63c.57-.26,1.13-.43,1.88-.43s1.29.19,1.67.57c.35.35.53.85.53,1.51v3.16h-.74v-.78c-.36.47-.96.89-1.87.89-.96,0-1.93-.55-1.93-1.61ZM138.04,223.35v-.5c-.38-.11-.89-.22-1.52-.22-.97,0-1.51.42-1.51,1.07v.02c0,.65.6,1.03,1.3,1.03.95,0,1.73-.58,1.73-1.4Z"/>
      <path class="cls-3" d="M140.63,223.88v-3.12h-.72v-.68h.72v-1.56h.77v1.56h1.64v.68h-1.64v3.02c0,.63.35.86.87.86.26,0,.48-.05.75-.18v.66c-.27.14-.56.22-.93.22-.83,0-1.46-.41-1.46-1.46Z"/>
      <path class="cls-3" d="M144.01,223.75v-.02c0-1.09.9-1.67,2.21-1.67.66,0,1.13.09,1.59.22v-.18c0-.93-.57-1.41-1.54-1.41-.61,0-1.09.16-1.57.38l-.23-.63c.57-.26,1.13-.43,1.88-.43s1.29.19,1.67.57c.35.35.53.85.53,1.51v3.16h-.74v-.78c-.36.47-.96.89-1.87.89-.96,0-1.93-.55-1.93-1.61ZM147.82,223.35v-.5c-.38-.11-.89-.22-1.52-.22-.97,0-1.51.42-1.51,1.07v.02c0,.65.6,1.03,1.3,1.03.95,0,1.73-.58,1.73-1.4Z"/>
      <path class="cls-3" d="M152.75,220.08h.82l1.36,4.15,1.39-4.17h.64l1.4,4.17,1.36-4.15h.8l-1.82,5.21h-.67l-1.39-4.08-1.4,4.08h-.68l-1.81-5.21Z"/>
      <path class="cls-3" d="M161.21,223.75v-.02c0-1.09.9-1.67,2.21-1.67.66,0,1.13.09,1.59.22v-.18c0-.93-.57-1.41-1.54-1.41-.61,0-1.09.16-1.57.38l-.23-.63c.57-.26,1.13-.43,1.88-.43s1.29.19,1.67.57c.35.35.53.85.53,1.51v3.16h-.74v-.78c-.36.47-.96.89-1.87.89-.96,0-1.93-.55-1.93-1.61ZM165.02,223.35v-.5c-.38-.11-.89-.22-1.52-.22-.97,0-1.51.42-1.51,1.07v.02c0,.65.6,1.03,1.3,1.03.95,0,1.73-.58,1.73-1.4Z"/>
      <path class="cls-3" d="M166.96,224.59l.39-.55c.56.42,1.18.66,1.79.66s1.07-.32,1.07-.82v-.02c0-.52-.61-.72-1.29-.91-.81-.23-1.71-.51-1.71-1.46v-.02c0-.89.74-1.48,1.76-1.48.63,0,1.33.22,1.86.57l-.35.58c-.48-.31-1.03-.5-1.53-.5-.61,0-1,.32-1,.75v.02c0,.49.64.68,1.33.89.8.24,1.66.55,1.66,1.48v.02c0,.98-.81,1.55-1.84,1.55-.74,0-1.56-.29-2.14-.76Z"/>
      <path class="cls-3" d="M175.29,223.29v-3.21h.77v3.02c0,.96.52,1.56,1.43,1.56s1.55-.65,1.55-1.62v-2.96h.76v5.17h-.76v-.9c-.35.56-.88,1.01-1.77,1.01-1.25,0-1.98-.84-1.98-2.07Z"/>
      <path class="cls-3" d="M181.1,224.59l.39-.55c.56.42,1.18.66,1.79.66s1.07-.32,1.07-.82v-.02c0-.52-.61-.72-1.29-.91-.81-.23-1.71-.51-1.71-1.46v-.02c0-.89.74-1.48,1.76-1.48.63,0,1.33.22,1.86.57l-.35.58c-.48-.31-1.03-.5-1.53-.5-.61,0-1,.32-1,.75v.02c0,.49.64.68,1.33.89.8.24,1.66.55,1.66,1.48v.02c0,.98-.81,1.55-1.84,1.55-.74,0-1.56-.29-2.14-.76Z"/>
      <path class="cls-3" d="M186.19,222.68v-.02c0-1.49,1.05-2.69,2.48-2.69,1.53,0,2.41,1.22,2.41,2.73,0,.1,0,.16-.01.25h-4.1c.11,1.12.9,1.75,1.82,1.75.71,0,1.21-.29,1.63-.73l.48.43c-.52.58-1.15.97-2.13.97-1.42,0-2.58-1.09-2.58-2.69ZM190.3,222.38c-.08-.94-.62-1.76-1.65-1.76-.9,0-1.58.75-1.68,1.76h3.33Z"/>
      <path class="cls-3" d="M192.13,222.68v-.02c0-1.69,1.23-2.69,2.47-2.69.96,0,1.58.52,1.98,1.1v-3.12h.77v7.3h-.77v-1.04c-.42.62-1.03,1.15-1.98,1.15-1.24,0-2.47-.98-2.47-2.68ZM196.61,222.67v-.02c0-1.19-.91-1.99-1.87-1.99s-1.82.74-1.82,1.99v.02c0,1.22.84,2,1.82,2s1.87-.81,1.87-2Z"/>
      <path class="cls-3" d="M202.34,223.88v-3.12h-.72v-.68h.72v-1.56h.77v1.56h1.64v.68h-1.64v3.02c0,.63.35.86.87.86.26,0,.48-.05.75-.18v.66c-.27.14-.56.22-.93.22-.83,0-1.46-.41-1.46-1.46Z"/>
      <path class="cls-3" d="M205.64,222.69v-.02c0-1.46,1.14-2.7,2.7-2.7s2.69,1.22,2.69,2.68v.02c0,1.46-1.15,2.7-2.71,2.7s-2.68-1.22-2.68-2.68ZM210.24,222.69v-.02c0-1.11-.83-2.02-1.92-2.02s-1.89.91-1.89,2v.02c0,1.11.82,2.01,1.91,2.01s1.9-.9,1.9-1.99Z"/>
      <path class="cls-3" d="M127.47,232.08h.85l1.74,4.29,1.75-4.29h.83l-2.25,5.21h-.68l-2.24-5.21Z"/>
      <path class="cls-3" d="M133.21,235.75v-.02c0-1.09.9-1.67,2.21-1.67.66,0,1.13.09,1.59.22v-.18c0-.93-.57-1.41-1.54-1.41-.61,0-1.09.16-1.57.38l-.23-.63c.57-.26,1.13-.43,1.88-.43s1.29.19,1.67.57c.35.35.53.85.53,1.51v3.16h-.74v-.78c-.36.47-.96.89-1.87.89-.96,0-1.93-.55-1.93-1.61ZM137.02,235.35v-.5c-.38-.11-.89-.22-1.52-.22-.97,0-1.51.42-1.51,1.07v.02c0,.65.6,1.03,1.3,1.03.95,0,1.73-.58,1.73-1.4Z"/>
      <path class="cls-3" d="M139.46,229.95h.77v7.3h-.77v-7.3Z"/>
      <path class="cls-3" d="M142.04,230.1h.88v.85h-.88v-.85ZM142.09,232.08h.77v5.17h-.77v-5.17Z"/>
      <path class="cls-3" d="M144.35,234.68v-.02c0-1.69,1.23-2.69,2.47-2.69.96,0,1.58.52,1.98,1.1v-3.12h.77v7.3h-.77v-1.04c-.42.62-1.03,1.15-1.98,1.15-1.24,0-2.47-.98-2.47-2.68ZM148.83,234.67v-.02c0-1.19-.91-1.99-1.87-1.99s-1.82.74-1.82,1.99v.02c0,1.22.84,2,1.82,2s1.87-.81,1.87-2Z"/>
      <path class="cls-3" d="M150.9,235.75v-.02c0-1.09.9-1.67,2.21-1.67.66,0,1.13.09,1.59.22v-.18c0-.93-.57-1.41-1.54-1.41-.61,0-1.09.16-1.57.38l-.23-.63c.57-.26,1.13-.43,1.88-.43s1.29.19,1.67.57c.35.35.53.85.53,1.51v3.16h-.74v-.78c-.36.47-.96.89-1.87.89-.96,0-1.93-.55-1.93-1.61ZM154.71,235.35v-.5c-.38-.11-.89-.22-1.52-.22-.97,0-1.51.42-1.51,1.07v.02c0,.65.6,1.03,1.3,1.03.95,0,1.73-.58,1.73-1.4Z"/>
      <path class="cls-3" d="M157.3,235.88v-3.12h-.72v-.68h.72v-1.56h.77v1.56h1.64v.68h-1.64v3.02c0,.63.35.86.87.86.26,0,.48-.05.75-.18v.66c-.27.14-.56.22-.93.22-.83,0-1.46-.41-1.46-1.46Z"/>
      <path class="cls-3" d="M160.6,234.68v-.02c0-1.49,1.05-2.69,2.48-2.69,1.53,0,2.41,1.22,2.41,2.73,0,.1,0,.16-.01.25h-4.1c.11,1.12.9,1.75,1.82,1.75.71,0,1.21-.29,1.63-.73l.48.43c-.52.58-1.15.97-2.13.97-1.42,0-2.58-1.09-2.58-2.69ZM164.71,234.38c-.08-.94-.62-1.76-1.65-1.76-.9,0-1.58.75-1.68,1.76h3.33Z"/>
      <path class="cls-3" d="M170.11,235.88v-3.12h-.72v-.68h.72v-1.56h.77v1.56h1.64v.68h-1.64v3.02c0,.63.35.86.87.86.26,0,.48-.05.75-.18v.66c-.27.14-.56.22-.93.22-.83,0-1.46-.41-1.46-1.46Z"/>
      <path class="cls-3" d="M173.88,229.95h.77v3.03c.34-.56.88-1.01,1.77-1.01,1.25,0,1.98.84,1.98,2.07v3.21h-.77v-3.02c0-.96-.52-1.56-1.43-1.56s-1.55.65-1.55,1.62v2.96h-.77v-7.3Z"/>
      <path class="cls-3" d="M179.72,234.68v-.02c0-1.49,1.05-2.69,2.48-2.69,1.53,0,2.41,1.22,2.41,2.73,0,.1,0,.16-.01.25h-4.1c.11,1.12.9,1.75,1.82,1.75.71,0,1.21-.29,1.63-.73l.48.43c-.52.58-1.15.97-2.13.97-1.42,0-2.58-1.09-2.58-2.69ZM183.83,234.38c-.08-.94-.62-1.76-1.65-1.76-.9,0-1.58.75-1.68,1.76h3.33Z"/>
      <path class="cls-3" d="M127.98,244.08h.77v1.04c.42-.62,1.03-1.15,1.98-1.15,1.24,0,2.47.98,2.47,2.68v.02c0,1.69-1.22,2.69-2.47,2.69-.96,0-1.58-.52-1.98-1.1v2.59h-.77v-6.77ZM132.41,246.68v-.02c0-1.22-.84-2-1.82-2s-1.87.81-1.87,1.99v.02c0,1.2.91,2,1.87,2s1.82-.74,1.82-1.99Z"/>
      <path class="cls-3" d="M134.62,244.08h.77v1.35c.38-.86,1.13-1.48,2.11-1.44v.83h-.06c-1.13,0-2.05.81-2.05,2.37v2.06h-.77v-5.17Z"/>
      <path class="cls-3" d="M138.13,246.68v-.02c0-1.49,1.05-2.69,2.48-2.69,1.53,0,2.41,1.22,2.41,2.73,0,.1,0,.16-.01.25h-4.1c.11,1.12.9,1.75,1.82,1.75.71,0,1.21-.29,1.63-.73l.48.43c-.52.58-1.15.97-2.13.97-1.42,0-2.58-1.09-2.58-2.69ZM142.24,246.38c-.08-.94-.62-1.76-1.65-1.76-.9,0-1.58.75-1.68,1.76h3.33Z"/>
      <path class="cls-3" d="M144.07,246.68v-.02c0-1.69,1.23-2.69,2.47-2.69.96,0,1.58.52,1.98,1.1v-3.12h.77v7.3h-.77v-1.04c-.42.62-1.03,1.15-1.98,1.15-1.24,0-2.47-.98-2.47-2.68ZM148.55,246.67v-.02c0-1.19-.91-1.99-1.87-1.99s-1.82.74-1.82,1.99v.02c0,1.22.84,2,1.82,2s1.87-.81,1.87-2Z"/>
      <path class="cls-3" d="M151.03,242.1h.88v.85h-.88v-.85ZM151.08,244.08h.77v5.17h-.77v-5.17Z"/>
      <path class="cls-3" d="M153.32,246.69v-.02c0-1.46,1.14-2.7,2.65-2.7.98,0,1.59.41,2.07.92l-.51.54c-.41-.43-.87-.78-1.57-.78-1.05,0-1.85.89-1.85,2v.02c0,1.12.82,2.01,1.9,2.01.66,0,1.17-.33,1.58-.77l.49.46c-.52.58-1.14,1-2.11,1-1.51,0-2.65-1.23-2.65-2.68Z"/>
      <path class="cls-3" d="M159.62,247.88v-3.12h-.72v-.68h.72v-1.56h.77v1.56h1.64v.68h-1.64v3.02c0,.63.35.86.87.86.26,0,.48-.05.75-.18v.66c-.27.14-.56.22-.93.22-.83,0-1.46-.41-1.46-1.46Z"/>
      <path class="cls-3" d="M163.41,242.1h.88v.85h-.88v-.85ZM163.46,244.08h.77v5.17h-.77v-5.17Z"/>
      <path class="cls-3" d="M165.51,244.08h.85l1.74,4.29,1.75-4.29h.83l-2.25,5.21h-.68l-2.24-5.21Z"/>
      <path class="cls-3" d="M171.27,246.68v-.02c0-1.49,1.05-2.69,2.48-2.69,1.53,0,2.41,1.22,2.41,2.73,0,.1,0,.16-.01.25h-4.1c.11,1.12.9,1.75,1.82,1.75.71,0,1.21-.29,1.63-.73l.48.43c-.52.58-1.15.97-2.13.97-1.42,0-2.58-1.09-2.58-2.69ZM175.38,246.38c-.08-.94-.62-1.76-1.65-1.76-.9,0-1.58.75-1.68,1.76h3.33Z"/>
      <path class="cls-3" d="M180.12,247.75v-.02c0-1.09.9-1.67,2.21-1.67.66,0,1.13.09,1.59.22v-.18c0-.93-.57-1.41-1.54-1.41-.61,0-1.09.16-1.57.38l-.23-.63c.57-.26,1.13-.43,1.88-.43s1.29.19,1.67.57c.35.35.53.85.53,1.51v3.16h-.74v-.78c-.36.47-.96.89-1.87.89-.96,0-1.93-.55-1.93-1.61ZM183.93,247.35v-.5c-.38-.11-.89-.22-1.52-.22-.97,0-1.51.42-1.51,1.07v.02c0,.65.6,1.03,1.3,1.03.95,0,1.73-.58,1.73-1.4Z"/>
      <path class="cls-3" d="M187.07,248.26v.99h-.77v-7.3h.77v3.17c.42-.62,1.03-1.15,1.98-1.15,1.24,0,2.47.98,2.47,2.68v.02c0,1.69-1.22,2.69-2.47,2.69-.96,0-1.58-.52-1.98-1.1ZM190.73,246.68v-.02c0-1.22-.84-2-1.82-2s-1.87.81-1.87,1.99v.02c0,1.2.91,2,1.87,2s1.82-.74,1.82-1.99Z"/>
      <path class="cls-3" d="M192.96,242.1h.88v.85h-.88v-.85ZM193.01,244.08h.77v5.17h-.77v-5.17Z"/>
      <path class="cls-3" d="M195.64,241.95h.77v7.3h-.77v-7.3Z"/>
      <path class="cls-3" d="M198.22,242.1h.88v.85h-.88v-.85ZM198.27,244.08h.77v5.17h-.77v-5.17Z"/>
      <path class="cls-3" d="M201.1,247.88v-3.12h-.72v-.68h.72v-1.56h.77v1.56h1.64v.68h-1.64v3.02c0,.63.35.86.87.86.26,0,.48-.05.75-.18v.66c-.27.14-.56.22-.93.22-.83,0-1.46-.41-1.46-1.46Z"/>
      <path class="cls-3" d="M208.74,244.08h.82l-2.17,5.34c-.44,1.07-.94,1.46-1.72,1.46-.43,0-.75-.09-1.1-.26l.26-.61c.25.13.48.19.81.19.46,0,.75-.24,1.06-.97l-2.35-5.15h.85l1.88,4.31,1.66-4.31Z"/>
      <path class="cls-3" d="M213.46,246.69v-.02c0-1.46,1.14-2.7,2.7-2.7s2.69,1.22,2.69,2.68v.02c0,1.46-1.15,2.7-2.71,2.7s-2.68-1.22-2.68-2.68ZM218.06,246.69v-.02c0-1.11-.83-2.02-1.92-2.02s-1.89.91-1.89,2v.02c0,1.11.82,2.01,1.91,2.01s1.9-.9,1.9-1.99Z"/>
      <path class="cls-3" d="M220.53,244.76h-.71v-.67h.71v-.45c0-.59.16-1.04.45-1.33.26-.26.64-.4,1.11-.4.36,0,.6.04.85.13v.67c-.28-.08-.49-.13-.75-.13-.6,0-.9.36-.9,1.1v.42h1.64v.66h-1.63v4.49h-.77v-4.49Z"/>
      <path class="cls-3" d="M128.25,259.88v-3.12h-.72v-.68h.72v-1.56h.77v1.56h1.64v.68h-1.64v3.02c0,.63.35.86.87.86.26,0,.48-.05.75-.18v.66c-.27.14-.56.22-.93.22-.83,0-1.46-.41-1.46-1.46Z"/>
      <path class="cls-3" d="M132.02,253.95h.77v3.03c.34-.56.88-1.01,1.77-1.01,1.25,0,1.98.84,1.98,2.07v3.21h-.77v-3.02c0-.96-.52-1.56-1.43-1.56s-1.55.65-1.55,1.62v2.96h-.77v-7.3Z"/>
      <path class="cls-3" d="M137.86,258.68v-.02c0-1.49,1.05-2.69,2.48-2.69,1.53,0,2.41,1.22,2.41,2.73,0,.1,0,.16-.01.25h-4.1c.11,1.12.9,1.75,1.82,1.75.71,0,1.21-.29,1.63-.73l.48.43c-.52.58-1.15.97-2.13.97-1.42,0-2.58-1.09-2.58-2.69ZM141.97,258.38c-.08-.94-.62-1.76-1.65-1.76-.9,0-1.58.75-1.68,1.76h3.33Z"/>
      <path class="cls-3" d="M146.63,254.25h.88l2.49,6.03,2.5-6.03h.85l-3.01,7.05h-.7l-3.01-7.05Z"/>
      <path class="cls-3" d="M154.73,254.25h2.43c2.2,0,3.72,1.51,3.72,3.48v.02c0,1.97-1.52,3.5-3.72,3.5h-2.43v-7ZM155.52,254.98v5.54h1.64c1.77,0,2.9-1.2,2.9-2.75v-.02c0-1.55-1.13-2.77-2.9-2.77h-1.64Z"/>
      <path class="cls-3" d="M161.79,260.72l4.53-5.76h-4.38v-.71h5.46v.53l-4.54,5.76h4.54v.71h-5.61v-.53Z"/>
      <path class="cls-3" d="M168.4,257.84h2.78v.81h-2.78v-.81Z"/>
      <path class="cls-3" d="M172.51,257.77v-.02c0-1.98,1.48-3.62,3.54-3.62,1.27,0,2.03.45,2.73,1.11l-.54.58c-.59-.56-1.25-.96-2.2-.96-1.55,0-2.71,1.26-2.71,2.87v.02c0,1.62,1.17,2.89,2.71,2.89.96,0,1.59-.37,2.26-1.01l.52.51c-.73.74-1.53,1.23-2.8,1.23-2.02,0-3.51-1.59-3.51-3.6Z"/>
      <path class="cls-3" d="M180.24,254.25h2.43c2.2,0,3.72,1.51,3.72,3.48v.02c0,1.97-1.52,3.5-3.72,3.5h-2.43v-7ZM181.03,254.98v5.54h1.64c1.77,0,2.9-1.2,2.9-2.75v-.02c0-1.55-1.13-2.77-2.9-2.77h-1.64Z"/>
      <path class="cls-3" d="M187.5,260.23l.49-.58c.73.66,1.43.99,2.4.99s1.56-.5,1.56-1.19v-.02c0-.65-.35-1.02-1.82-1.33-1.61-.35-2.35-.87-2.35-2.02v-.02c0-1.1.97-1.91,2.3-1.91,1.02,0,1.75.29,2.46.86l-.46.61c-.65-.53-1.3-.76-2.02-.76-.91,0-1.49.5-1.49,1.13v.02c0,.66.36,1.03,1.9,1.36,1.56.34,2.28.91,2.28,1.98v.02c0,1.2-1,1.98-2.39,1.98-1.11,0-2.02-.37-2.86-1.12Z"/>
      <path class="cls-3" d="M196.07,254.98h-2.36v-.73h5.51v.73h-2.36v6.27h-.79v-6.27Z"/>
      <path class="cls-3" d="M127.55,272.59l.39-.55c.56.42,1.18.66,1.79.66s1.07-.32,1.07-.82v-.02c0-.52-.61-.72-1.29-.91-.81-.23-1.71-.51-1.71-1.46v-.02c0-.89.74-1.48,1.76-1.48.63,0,1.33.22,1.86.57l-.35.58c-.48-.31-1.03-.5-1.53-.5-.61,0-1,.32-1,.75v.02c0,.49.64.68,1.33.89.8.24,1.66.55,1.66,1.48v.02c0,.98-.81,1.55-1.84,1.55-.74,0-1.56-.29-2.14-.76Z"/>
      <path class="cls-3" d="M132.64,270.69v-.02c0-1.46,1.14-2.7,2.65-2.7.98,0,1.59.41,2.07.92l-.51.54c-.41-.43-.87-.78-1.57-.78-1.05,0-1.85.89-1.85,2v.02c0,1.12.82,2.01,1.9,2.01.66,0,1.17-.33,1.58-.77l.49.46c-.52.58-1.14,1-2.11,1-1.51,0-2.65-1.23-2.65-2.68Z"/>
      <path class="cls-3" d="M138.2,270.69v-.02c0-1.46,1.14-2.7,2.7-2.7s2.69,1.22,2.69,2.68v.02c0,1.46-1.15,2.7-2.71,2.7s-2.68-1.22-2.68-2.68ZM142.8,270.69v-.02c0-1.11-.83-2.02-1.92-2.02s-1.89.91-1.89,2v.02c0,1.11.82,2.01,1.91,2.01s1.9-.9,1.9-1.99Z"/>
      <path class="cls-3" d="M144.98,268.08h.77v1.35c.38-.86,1.13-1.48,2.11-1.44v.83h-.06c-1.13,0-2.05.81-2.05,2.37v2.06h-.77v-5.17Z"/>
      <path class="cls-3" d="M149.05,266.1h.88v.85h-.88v-.85ZM149.1,268.08h.77v5.17h-.77v-5.17Z"/>
      <path class="cls-3" d="M151.66,268.08h.77v.9c.34-.56.88-1.01,1.77-1.01,1.25,0,1.98.84,1.98,2.07v3.21h-.77v-3.02c0-.96-.52-1.56-1.43-1.56s-1.55.65-1.55,1.62v2.96h-.77v-5.17Z"/>
      <path class="cls-3" d="M157.76,274.14l.35-.6c.59.43,1.25.66,1.99.66,1.14,0,1.88-.63,1.88-1.84v-.61c-.45.6-1.08,1.09-2.03,1.09-1.24,0-2.43-.93-2.43-2.42v-.02c0-1.51,1.2-2.44,2.43-2.44.97,0,1.6.48,2.02,1.04v-.93h.77v4.27c0,.8-.24,1.41-.66,1.83-.46.46-1.15.69-1.97.69-.86,0-1.66-.24-2.35-.72ZM162,270.42v-.02c0-1.06-.92-1.75-1.9-1.75s-1.79.68-1.79,1.74v.02c0,1.04.83,1.76,1.79,1.76s1.9-.71,1.9-1.75Z"/>
      <path class="cls-3" d="M167.03,272.59l.39-.55c.56.42,1.18.66,1.79.66s1.07-.32,1.07-.82v-.02c0-.52-.61-.72-1.29-.91-.81-.23-1.71-.51-1.71-1.46v-.02c0-.89.74-1.48,1.76-1.48.63,0,1.33.22,1.86.57l-.35.58c-.48-.31-1.03-.5-1.53-.5-.61,0-1,.32-1,.75v.02c0,.49.64.68,1.33.89.8.24,1.66.55,1.66,1.48v.02c0,.98-.81,1.55-1.84,1.55-.74,0-1.56-.29-2.14-.76Z"/>
      <path class="cls-3" d="M176.16,268.08h.82l-2.17,5.34c-.44,1.07-.94,1.46-1.72,1.46-.43,0-.75-.09-1.1-.26l.26-.61c.25.13.48.19.81.19.46,0,.75-.24,1.06-.97l-2.35-5.15h.85l1.88,4.31,1.66-4.31Z"/>
      <path class="cls-3" d="M177.57,272.59l.39-.55c.56.42,1.18.66,1.79.66s1.07-.32,1.07-.82v-.02c0-.52-.61-.72-1.29-.91-.81-.23-1.71-.51-1.71-1.46v-.02c0-.89.74-1.48,1.76-1.48.63,0,1.33.22,1.86.57l-.35.58c-.48-.31-1.03-.5-1.53-.5-.61,0-1,.32-1,.75v.02c0,.49.64.68,1.33.89.8.24,1.66.55,1.66,1.48v.02c0,.98-.81,1.55-1.84,1.55-.74,0-1.56-.29-2.14-.76Z"/>
      <path class="cls-3" d="M183.15,271.88v-3.12h-.72v-.68h.72v-1.56h.77v1.56h1.64v.68h-1.64v3.02c0,.63.35.86.87.86.26,0,.48-.05.75-.18v.66c-.27.14-.56.22-.93.22-.83,0-1.46-.41-1.46-1.46Z"/>
      <path class="cls-3" d="M186.45,270.68v-.02c0-1.49,1.05-2.69,2.48-2.69,1.53,0,2.41,1.22,2.41,2.73,0,.1,0,.16-.01.25h-4.1c.11,1.12.9,1.75,1.82,1.75.71,0,1.21-.29,1.63-.73l.48.43c-.52.58-1.15.97-2.13.97-1.42,0-2.58-1.09-2.58-2.69ZM190.56,270.38c-.08-.94-.62-1.76-1.65-1.76-.9,0-1.58.75-1.68,1.76h3.33Z"/>
      <path class="cls-3" d="M192.69,268.08h.77v.87c.34-.51.8-.98,1.67-.98s1.38.45,1.66,1.03c.37-.57.92-1.03,1.82-1.03,1.19,0,1.92.8,1.92,2.08v3.2h-.77v-3.02c0-1-.5-1.56-1.34-1.56-.78,0-1.43.58-1.43,1.6v2.98h-.76v-3.04c0-.97-.51-1.54-1.33-1.54s-1.44.68-1.44,1.63v2.95h-.77v-5.17Z"/>
      <path class="cls-3" d="M202.35,266.28l-.77.24-.11-.37,1-.34h.34v4.11h-.45v-3.63Z"/>
    </g>
    <polygon class="cls-1" points="89.96 59.16 83.55 66.74 77.13 59.16 89.96 59.16"/>
    <polygon class="cls-1" points="89.96 130.63 83.55 138.2 77.13 130.63 89.96 130.63"/>
    <polygon class="cls-1" points="89.96 273.56 83.55 281.13 77.13 273.56 89.96 273.56"/>
    <polygon class="cls-1" points="89.96 202.09 83.55 209.67 77.13 202.09 89.96 202.09"/>
    <g>
      <ellipse class="cls-6" cx="83.55" cy="27.22" rx="26.64" ry="27.22"/>
      <path class="cls-1" d="M90.87,23.45h-2.34v-2.61h2.34v2.61ZM91.17,20.34h-2.94c-.18,0-.3.1-.3.26v3.13c0,.16.12.26.3.26h.46v2.85c0,.16.12.26.3.26s.3-.1.3-.26v-2.87h.85v2.87c0,.16.12.26.3.26s.3-.1.3-.26v-2.87h.42c.18,0,.3-.1.3-.26v-3.13c0-.13-.12-.26-.3-.23t0,0Z"/>
      <path class="cls-1" d="M89.7,18.4c.25,0,.44.15.44.35s-.19.35-.44.35-.44-.15-.44-.35.19-.35.44-.35ZM89.7,19.6c.6,0,1.07-.37,1.07-.85s-.47-.85-1.07-.85-1.07.37-1.07.85.47.85,1.07.85Z"/>
      <path class="cls-1" d="M94.7,23.45h-2.18v-2.61h2.18v2.61ZM94.98,20.34h-2.75c-.17,0-.28.1-.28.26v3.13c0,.16.11.26.28.26h.42v2.85c0,.16.11.26.28.26s.28-.1.28-.26v-2.87h.79v2.87c0,.16.11.26.28.26s.28-.1.28-.26v-2.87h.4c.17,0,.28-.1.28-.26v-3.13c0-.13-.11-.26-.28-.23t0,0Z"/>
      <path class="cls-1" d="M93.61,18.4c.22,0,.39.15.39.35s-.17.35-.39.35-.39-.15-.39-.35.17-.35.39-.35ZM93.61,19.6c.53,0,.95-.37.95-.85s-.42-.85-.95-.85-.95.37-.95.85.42.85.95.85Z"/>
      <path class="cls-1" d="M98.73,23.45h-2.18v-2.61h2.18v2.61ZM99.01,20.34h-2.75c-.17,0-.28.1-.28.26v3.13c0,.16.11.26.28.26h.42v2.85c0,.16.11.26.28.26s.28-.1.28-.26v-2.87h.79v2.87c0,.16.11.26.28.26s.28-.1.28-.26v-2.87h.4c.17,0,.28-.1.28-.26v-3.13c0-.13-.11-.26-.28-.23t0,0Z"/>
      <path class="cls-1" d="M97.63,18.4c.22,0,.39.15.39.35s-.17.35-.39.35-.39-.15-.39-.35.17-.35.39-.35ZM97.63,19.6c.53,0,.95-.37.95-.85s-.42-.85-.95-.85-.95.37-.95.85.42.85.95.85Z"/>
      <path class="cls-1" d="M106.78,23.45h-2.18v-2.61h2.18v2.61ZM107.06,20.34h-2.75c-.17,0-.28.1-.28.26v3.13c0,.16.11.26.28.26h.42v2.85c0,.16.11.26.28.26s.28-.1.28-.26v-2.87h.79v2.87c0,.16.11.26.28.26s.28-.1.28-.26v-2.87h.4c.17,0,.28-.1.28-.26v-3.13c0-.13-.11-.26-.28-.23t0,0Z"/>
      <path class="cls-1" d="M105.68,18.4c.22,0,.39.15.39.35s-.17.35-.39.35-.39-.15-.39-.35.17-.35.39-.35ZM105.68,19.6c.53,0,.95-.37.95-.85s-.42-.85-.95-.85-.95.37-.95.85.42.85.95.85Z"/>
      <path class="cls-1" d="M67,23.45h-2.18v-2.61h2.18v2.61ZM67.28,20.34h-2.75c-.17,0-.28.1-.28.26v3.13c0,.16.11.26.28.26h.42v2.85c0,.16.11.26.28.26s.28-.1.28-.26v-2.87h.79v2.87c0,.16.11.26.28.26s.28-.1.28-.26v-2.87h.4c.17,0,.28-.1.28-.26v-3.13c0-.13-.11-.26-.28-.23t0,0Z"/>
      <path class="cls-1" d="M65.91,18.4c.22,0,.39.15.39.35s-.17.35-.39.35-.39-.15-.39-.35.17-.35.39-.35ZM65.91,19.6c.53,0,.95-.37.95-.85s-.42-.85-.95-.85-.95.37-.95.85.42.85.95.85Z"/>
      <path class="cls-1" d="M78.84,23.45h-2.18v-2.61h2.18v2.61ZM79.12,20.34h-2.75c-.17,0-.28.1-.28.26v3.13c0,.16.11.26.28.26h.42v2.85c0,.16.11.26.28.26s.28-.1.28-.26v-2.87h.79v2.87c0,.16.11.26.28.26s.28-.1.28-.26v-2.87h.4c.17,0,.28-.1.28-.26v-3.13c0-.13-.11-.26-.28-.23t0,0Z"/>
      <path class="cls-1" d="M77.75,18.4c.22,0,.39.15.39.35s-.17.35-.39.35-.39-.15-.39-.35.17-.35.39-.35ZM77.75,19.6c.53,0,.95-.37.95-.85s-.42-.85-.95-.85-.95.37-.95.85.42.85.95.85Z"/>
      <path class="cls-1" d="M67,33.85h-2.18v-2.61h2.18v2.61ZM67.28,30.75h-2.75c-.17,0-.28.1-.28.26v3.13c0,.16.11.26.28.26h.42v2.85c0,.16.11.26.28.26s.28-.1.28-.26v-2.87h.79v2.87c0,.16.11.26.28.26s.28-.1.28-.26v-2.87h.4c.17,0,.28-.1.28-.26v-3.13c0-.13-.11-.26-.28-.23t0,0Z"/>
      <path class="cls-1" d="M65.91,28.81c.22,0,.39.15.39.35s-.17.35-.39.35-.39-.15-.39-.35.17-.35.39-.35ZM65.91,30c.53,0,.95-.37.95-.85s-.42-.85-.95-.85-.95.37-.95.85.42.85.95.85Z"/>
      <path class="cls-1" d="M75.01,33.85h-2.34v-2.61h2.34v2.61ZM75.31,30.75h-2.94c-.18,0-.3.1-.3.26v3.13c0,.16.12.26.3.26h.46v2.85c0,.16.12.26.3.26s.3-.1.3-.26v-2.87h.85v2.87c0,.16.12.26.3.26s.3-.1.3-.26v-2.87h.42c.18,0,.3-.1.3-.26v-3.13c0-.13-.12-.26-.3-.23t0,0Z"/>
      <path class="cls-1" d="M73.84,28.81c.25,0,.44.15.44.35s-.19.35-.44.35-.44-.15-.44-.35.19-.35.44-.35ZM73.84,30c.6,0,1.07-.37,1.07-.85s-.47-.85-1.07-.85-1.07.37-1.07.85.47.85,1.07.85Z"/>
      <path class="cls-1" d="M78.84,33.85h-2.18v-2.61h2.18v2.61ZM79.12,30.75h-2.75c-.17,0-.28.1-.28.26v3.13c0,.16.11.26.28.26h.42v2.85c0,.16.11.26.28.26s.28-.1.28-.26v-2.87h.79v2.87c0,.16.11.26.28.26s.28-.1.28-.26v-2.87h.4c.17,0,.28-.1.28-.26v-3.13c0-.13-.11-.26-.28-.23t0,0Z"/>
      <path class="cls-1" d="M77.75,28.81c.22,0,.39.15.39.35s-.17.35-.39.35-.39-.15-.39-.35.17-.35.39-.35ZM77.75,30c.53,0,.95-.37.95-.85s-.42-.85-.95-.85-.95.37-.95.85.42.85.95.85Z"/>
      <path class="cls-1" d="M98.73,33.85h-2.18v-2.61h2.18v2.61ZM99.01,30.75h-2.75c-.17,0-.28.1-.28.26v3.13c0,.16.11.26.28.26h.42v2.85c0,.16.11.26.28.26s.28-.1.28-.26v-2.87h.79v2.87c0,.16.11.26.28.26s.28-.1.28-.26v-2.87h.4c.17,0,.28-.1.28-.26v-3.13c0-.13-.11-.26-.28-.23t0,0Z"/>
      <path class="cls-1" d="M97.63,28.81c.22,0,.39.15.39.35s-.17.35-.39.35-.39-.15-.39-.35.17-.35.39-.35ZM97.63,30c.53,0,.95-.37.95-.85s-.42-.85-.95-.85-.95.37-.95.85.42.85.95.85Z"/>
      <path class="cls-1" d="M102.75,33.85h-2.18v-2.61h2.18v2.61ZM103.03,30.75h-2.75c-.17,0-.28.1-.28.26v3.13c0,.16.11.26.28.26h.42v2.85c0,.16.11.26.28.26s.28-.1.28-.26v-2.87h.79v2.87c0,.16.11.26.28.26s.28-.1.28-.26v-2.87h.4c.17,0,.28-.1.28-.26v-3.13c0-.13-.11-.26-.28-.23t0,0Z"/>
      <path class="cls-1" d="M101.66,28.81c.22,0,.39.15.39.35s-.17.35-.39.35-.39-.15-.39-.35.17-.35.39-.35ZM101.66,30c.53,0,.95-.37.95-.85s-.42-.85-.95-.85-.95.37-.95.85.42.85.95.85Z"/>
      <path class="cls-2" d="M62.97,23.49h-2.18v-2.61h2.18v2.61ZM63.26,20.38h-2.75c-.17,0-.28.1-.28.26v3.13c0,.16.11.26.28.26h.42v2.85c0,.16.11.26.28.26s.28-.1.28-.26v-2.87h.79v2.87c0,.16.11.26.28.26s.28-.1.28-.26v-2.87h.4c.17,0,.28-.1.28-.26v-3.13c0-.13-.11-.26-.28-.23t0,0Z"/>
      <path class="cls-2" d="M61.88,18.44c.22,0,.39.15.39.35s-.17.35-.39.35-.39-.15-.39-.35.17-.35.39-.35ZM61.88,19.64c.53,0,.95-.37.95-.85s-.42-.85-.95-.85-.95.37-.95.85.42.85.95.85Z"/>
      <path class="cls-2" d="M70.98,23.45h-2.34v-2.61h2.34v2.61ZM71.29,20.34h-2.94c-.18,0-.3.1-.3.26v3.13c0,.16.12.26.3.26h.46v2.85c0,.16.12.26.3.26s.3-.1.3-.26v-2.87h.85v2.87c0,.16.12.26.3.26s.3-.1.3-.26v-2.87h.42c.18,0,.3-.1.3-.26v-3.13c0-.13-.12-.26-.3-.23t0,0Z"/>
      <path class="cls-2" d="M69.93,18.4c.22,0,.39.15.39.35s-.17.35-.39.35-.39-.15-.39-.35.17-.35.39-.35ZM69.93,19.6c.53,0,.95-.37.95-.85s-.42-.85-.95-.85-.95.37-.95.85.42.85.95.85Z"/>
      <path class="cls-2" d="M75.01,23.45h-2.34v-2.61h2.34v2.61ZM75.31,20.34h-2.94c-.18,0-.3.1-.3.26v3.13c0,.16.12.26.3.26h.46v2.85c0,.16.12.26.3.26s.3-.1.3-.26v-2.87h.85v2.87c0,.16.12.26.3.26s.3-.1.3-.26v-2.87h.42c.18,0,.3-.1.3-.26v-3.13c0-.13-.12-.26-.3-.23t0,0Z"/>
      <path class="cls-2" d="M73.84,18.4c.25,0,.44.15.44.35s-.19.35-.44.35-.44-.15-.44-.35.19-.35.44-.35ZM73.84,19.6c.6,0,1.07-.37,1.07-.85s-.47-.85-1.07-.85-1.07.37-1.07.85.47.85,1.07.85Z"/>
      <path class="cls-2" d="M82.86,23.45h-2.18v-2.61h2.18v2.61ZM83.14,20.34h-2.75c-.17,0-.28.1-.28.26v3.13c0,.16.11.26.28.26h.42v2.85c0,.16.11.26.28.26s.28-.1.28-.26v-2.87h.79v2.87c0,.16.11.26.28.26s.28-.1.28-.26v-2.87h.4c.17,0,.28-.1.28-.26v-3.13c0-.13-.11-.26-.28-.23t0,0Z"/>
      <path class="cls-2" d="M81.77,18.4c.22,0,.39.15.39.35s-.17.35-.39.35-.39-.15-.39-.35.17-.35.39-.35ZM81.77,19.6c.53,0,.95-.37.95-.85s-.42-.85-.95-.85-.95.37-.95.85.42.85.95.85Z"/>
      <path class="cls-2" d="M86.89,23.45h-2.18v-2.61h2.18v2.61ZM87.17,20.34h-2.75c-.17,0-.28.1-.28.26v3.13c0,.16.11.26.28.26h.42v2.85c0,.16.11.26.28.26s.28-.1.28-.26v-2.87h.79v2.87c0,.16.11.26.28.26s.28-.1.28-.26v-2.87h.4c.17,0,.28-.1.28-.26v-3.13c0-.13-.11-.26-.28-.23t0,0Z"/>
      <path class="cls-2" d="M85.8,18.4c.22,0,.39.15.39.35s-.17.35-.39.35-.39-.15-.39-.35.17-.35.39-.35ZM85.8,19.6c.53,0,.95-.37.95-.85s-.42-.85-.95-.85-.95.37-.95.85.42.85.95.85Z"/>
      <path class="cls-2" d="M102.75,23.45h-2.18v-2.61h2.18v2.61ZM103.03,20.34h-2.75c-.17,0-.28.1-.28.26v3.13c0,.16.11.26.28.26h.42v2.85c0,.16.11.26.28.26s.28-.1.28-.26v-2.87h.79v2.87c0,.16.11.26.28.26s.28-.1.28-.26v-2.87h.4c.17,0,.28-.1.28-.26v-3.13c0-.13-.11-.26-.28-.23t0,0Z"/>
      <path class="cls-2" d="M101.66,18.4c.22,0,.39.15.39.35s-.17.35-.39.35-.39-.15-.39-.35.17-.35.39-.35ZM101.66,19.6c.53,0,.95-.37.95-.85s-.42-.85-.95-.85-.95.37-.95.85.42.85.95.85Z"/>
      <path class="cls-2" d="M62.97,33.89h-2.18v-2.61h2.18v2.61ZM63.26,30.79h-2.75c-.17,0-.28.1-.28.26v3.13c0,.16.11.26.28.26h.42v2.85c0,.16.11.26.28.26s.28-.1.28-.26v-2.87h.79v2.87c0,.16.11.26.28.26s.28-.1.28-.26v-2.87h.4c.17,0,.28-.1.28-.26v-3.13c0-.13-.11-.26-.28-.23t0,0Z"/>
      <path class="cls-2" d="M61.88,28.85c.22,0,.39.15.39.35s-.17.35-.39.35-.39-.15-.39-.35.17-.35.39-.35ZM61.88,30.04c.53,0,.95-.37.95-.85s-.42-.85-.95-.85-.95.37-.95.85.42.85.95.85Z"/>
      <path class="cls-2" d="M70.98,33.85h-2.34v-2.61h2.34v2.61ZM71.29,30.75h-2.94c-.18,0-.3.1-.3.26v3.13c0,.16.12.26.3.26h.46v2.85c0,.16.12.26.3.26s.3-.1.3-.26v-2.87h.85v2.87c0,.16.12.26.3.26s.3-.1.3-.26v-2.87h.42c.18,0,.3-.1.3-.26v-3.13c0-.13-.12-.26-.3-.23t0,0Z"/>
      <path class="cls-2" d="M69.93,28.81c.22,0,.39.15.39.35s-.17.35-.39.35-.39-.15-.39-.35.17-.35.39-.35ZM69.93,30c.53,0,.95-.37.95-.85s-.42-.85-.95-.85-.95.37-.95.85.42.85.95.85Z"/>
      <path class="cls-2" d="M82.86,33.85h-2.18v-2.61h2.18v2.61ZM83.14,30.75h-2.75c-.17,0-.28.1-.28.26v3.13c0,.16.11.26.28.26h.42v2.85c0,.16.11.26.28.26s.28-.1.28-.26v-2.87h.79v2.87c0,.16.11.26.28.26s.28-.1.28-.26v-2.87h.4c.17,0,.28-.1.28-.26v-3.13c0-.13-.11-.26-.28-.23t0,0Z"/>
      <path class="cls-2" d="M81.77,28.81c.22,0,.39.15.39.35s-.17.35-.39.35-.39-.15-.39-.35.17-.35.39-.35ZM81.77,30c.53,0,.95-.37.95-.85s-.42-.85-.95-.85-.95.37-.95.85.42.85.95.85Z"/>
      <path class="cls-2" d="M86.89,33.85h-2.18v-2.61h2.18v2.61ZM87.17,30.75h-2.75c-.17,0-.28.1-.28.26v3.13c0,.16.11.26.28.26h.42v2.85c0,.16.11.26.28.26s.28-.1.28-.26v-2.87h.79v2.87c0,.16.11.26.28.26s.28-.1.28-.26v-2.87h.4c.17,0,.28-.1.28-.26v-3.13c0-.13-.11-.26-.28-.23t0,0Z"/>
      <path class="cls-2" d="M85.8,28.81c.22,0,.39.15.39.35s-.17.35-.39.35-.39-.15-.39-.35.17-.35.39-.35ZM85.8,30c.53,0,.95-.37.95-.85s-.42-.85-.95-.85-.95.37-.95.85.42.85.95.85Z"/>
      <path class="cls-2" d="M90.87,33.85h-2.34v-2.61h2.34v2.61ZM91.17,30.75h-2.94c-.18,0-.3.1-.3.26v3.13c0,.16.12.26.3.26h.46v2.85c0,.16.12.26.3.26s.3-.1.3-.26v-2.87h.85v2.87c0,.16.12.26.3.26s.3-.1.3-.26v-2.87h.42c.18,0,.3-.1.3-.26v-3.13c0-.13-.12-.26-.3-.23t0,0Z"/>
      <path class="cls-2" d="M89.7,28.81c.25,0,.44.15.44.35s-.19.35-.44.35-.44-.15-.44-.35.19-.35.44-.35ZM89.7,30c.6,0,1.07-.37,1.07-.85s-.47-.85-1.07-.85-1.07.37-1.07.85.47.85,1.07.85Z"/>
      <path class="cls-2" d="M94.7,33.85h-2.18v-2.61h2.18v2.61ZM94.98,30.75h-2.75c-.17,0-.28.1-.28.26v3.13c0,.16.11.26.28.26h.42v2.85c0,.16.11.26.28.26s.28-.1.28-.26v-2.87h.79v2.87c0,.16.11.26.28.26s.28-.1.28-.26v-2.87h.4c.17,0,.28-.1.28-.26v-3.13c0-.13-.11-.26-.28-.23t0,0Z"/>
      <path class="cls-2" d="M93.61,28.81c.22,0,.39.15.39.35s-.17.35-.39.35-.39-.15-.39-.35.17-.35.39-.35ZM93.61,30c.53,0,.95-.37.95-.85s-.42-.85-.95-.85-.95.37-.95.85.42.85.95.85Z"/>
      <path class="cls-2" d="M106.78,33.85h-2.18v-2.61h2.18v2.61ZM107.06,30.75h-2.75c-.17,0-.28.1-.28.26v3.13c0,.16.11.26.28.26h.42v2.85c0,.16.11.26.28.26s.28-.1.28-.26v-2.87h.79v2.87c0,.16.11.26.28.26s.28-.1.28-.26v-2.87h.4c.17,0,.28-.1.28-.26v-3.13c0-.13-.11-.26-.28-.23t0,0Z"/>
      <path class="cls-2" d="M105.68,28.81c.22,0,.39.15.39.35s-.17.35-.39.35-.39-.15-.39-.35.17-.35.39-.35ZM105.68,30c.53,0,.95-.37.95-.85s-.42-.85-.95-.85-.95.37-.95.85.42.85.95.85Z"/>
    </g>
    <g>
      <path class="cls-4" d="M16.17,17.58v-.02c0-1.59,1.21-2.89,2.87-2.89.99,0,1.58.27,2.15.77l-.76.93c-.42-.36-.8-.57-1.43-.57-.88,0-1.57.79-1.57,1.74v.02c0,1.02.69,1.78,1.66,1.78.44,0,.83-.11,1.13-.34v-.8h-1.21v-1.06h2.38v2.43c-.56.49-1.34.89-2.34.89-1.71,0-2.88-1.22-2.88-2.88Z"/>
      <path class="cls-4" d="M22.53,14.77h4.13v1.09h-2.94v1.14h2.58v1.1h-2.58v1.17h2.97v1.1h-4.17v-5.6Z"/>
      <path class="cls-4" d="M27.76,14.77h1.3l1.44,2.37,1.44-2.37h1.3v5.6h-1.2v-3.65l-1.54,2.39h-.03l-1.53-2.37v3.63h-1.18v-5.6Z"/>
      <path class="cls-4" d="M34.6,14.77h1.21v5.6h-1.21v-5.6Z"/>
      <path class="cls-4" d="M37.16,14.77h1.11l2.57,3.45v-3.45h1.19v5.6h-1.03l-2.65-3.56v3.56h-1.19v-5.6Z"/>
      <path class="cls-4" d="M43.38,14.77h1.21v5.6h-1.21v-5.6Z"/>
      <path class="cls-4" d="M48,19.39l1.82-1.53c.68-.58.95-.88.95-1.34s-.3-.73-.74-.73-.71.24-1.12.75l-.85-.7c.54-.75,1.06-1.16,2.04-1.16,1.13,0,1.89.68,1.89,1.73v.02c0,.94-.47,1.4-1.44,2.17l-.89.7h2.39v1.06h-4.05v-.98Z"/>
      <path class="cls-4" d="M26.63,27.84v-.02c0-1.22.92-2.23,2.2-2.23.79,0,1.28.27,1.67.72l-.73.8c-.27-.29-.53-.47-.96-.47-.59,0-1.02.54-1.02,1.17v.02c0,.66.42,1.18,1.06,1.18.4,0,.67-.18.96-.46l.7.72c-.41.46-.88.78-1.71.78-1.26,0-2.18-.99-2.18-2.21Z"/>
      <path class="cls-4" d="M31.09,27.84v-.02c0-1.23.97-2.23,2.28-2.23s2.26.98,2.26,2.21v.02c0,1.23-.97,2.23-2.28,2.23s-2.26-.98-2.26-2.21ZM34.45,27.84v-.02c0-.63-.45-1.18-1.1-1.18s-1.09.54-1.09,1.17v.02c0,.63.45,1.18,1.1,1.18s1.09-.54,1.09-1.17Z"/>
      <path class="cls-4" d="M36.47,24.13h1.19v2.16c.27-.36.63-.69,1.23-.69.9,0,1.42.61,1.42,1.59v2.77h-1.19v-2.39c0-.58-.27-.87-.72-.87s-.74.3-.74.87v2.39h-1.19v-5.84Z"/>
      <path class="cls-4" d="M41.13,27.84v-.02c0-1.23.97-2.23,2.28-2.23s2.26.98,2.26,2.21v.02c0,1.23-.97,2.23-2.28,2.23s-2.26-.98-2.26-2.21ZM44.5,27.84v-.02c0-.63-.45-1.18-1.1-1.18s-1.09.54-1.09,1.17v.02c0,.63.45,1.18,1.1,1.18s1.09-.54,1.09-1.17Z"/>
      <path class="cls-4" d="M46.52,25.68h1.19v.86c.24-.59.63-.98,1.34-.94v1.27h-.06c-.79,0-1.28.49-1.28,1.51v1.58h-1.19v-4.29Z"/>
      <path class="cls-4" d="M49.97,28.75v-2.03h-.5v-1.04h.5v-1.09h1.19v1.09h.99v1.04h-.99v1.83c0,.28.12.42.38.42.22,0,.41-.06.59-.15v.98c-.25.15-.54.25-.94.25-.73,0-1.22-.3-1.22-1.29Z"/>
      <path class="cls-4" d="M23.62,37.27c0-1.47.78-2.62,2.17-3.42l.26.41c-1.19.78-1.82,1.73-1.82,3.01s.63,2.24,1.82,3.01l-.26.41c-1.39-.8-2.17-1.95-2.17-3.42Z"/>
      <path class="cls-4" d="M27.14,35.43h.6v.72c.27-.45.69-.81,1.38-.81.98,0,1.55.67,1.55,1.66v2.57h-.6v-2.42c0-.77-.41-1.25-1.12-1.25s-1.21.52-1.21,1.29v2.37h-.6v-4.13Z"/>
      <path class="cls-4" d="M31.9,35.52h3.64v.59h-3.64v-.59ZM31.9,37.39h3.64v.59h-3.64v-.59Z"/>
      <path class="cls-4" d="M36.56,38.06v-.02c0-.66.47-1.13,1.13-1.38-.51-.24-.94-.64-.94-1.29v-.02c0-.86.87-1.48,1.87-1.48s1.87.62,1.87,1.48v.02c0,.65-.43,1.05-.94,1.29.65.25,1.13.7,1.13,1.37v.02c0,.95-.89,1.59-2.06,1.59s-2.06-.65-2.06-1.58ZM40.05,38.04v-.02c0-.62-.63-1.06-1.43-1.06s-1.43.44-1.43,1.06v.02c0,.57.53,1.05,1.43,1.05s1.43-.48,1.43-1.05ZM39.87,35.42v-.02c0-.55-.54-.97-1.25-.97s-1.25.41-1.25.97v.02c0,.61.56,1.02,1.25,1.02s1.25-.42,1.25-1.02Z"/>
      <path class="cls-4" d="M42.47,34.58l-1.03.33-.15-.51,1.34-.47h.45v5.64h-.61v-4.98Z"/>
      <path class="cls-4" d="M47.24,38.24h-2.89l-.16-.46,3.1-3.85h.54v3.78h.85v.53h-.85v1.33h-.59v-1.33ZM47.24,37.71v-2.89l-2.3,2.89h2.3Z"/>
      <path class="cls-4" d="M49.53,40.28c1.19-.78,1.82-1.74,1.82-3.01s-.63-2.24-1.82-3.01l.26-.41c1.39.8,2.17,1.95,2.17,3.42s-.78,2.62-2.17,3.42l-.26-.41Z"/>
    </g>
    <g>
      <path class="cls-4" d="M22.39,94.53l.71-.87c.49.42,1.01.68,1.64.68.49,0,.79-.2.79-.53v-.02c0-.31-.19-.47-1.1-.71-1.1-.29-1.82-.6-1.82-1.71v-.02c0-1.01.8-1.69,1.92-1.69.8,0,1.48.26,2.04.71l-.63.93c-.49-.34-.96-.55-1.42-.55s-.71.22-.71.49v.02c0,.37.24.49,1.18.74,1.11.3,1.74.7,1.74,1.68v.02c0,1.11-.83,1.74-2.01,1.74-.83,0-1.67-.3-2.32-.9Z"/>
      <path class="cls-4" d="M27.43,93.22v-.02c0-1.22.92-2.23,2.2-2.23.79,0,1.28.27,1.67.72l-.73.8c-.27-.29-.53-.47-.96-.47-.59,0-1.02.54-1.02,1.17v.02c0,.66.42,1.18,1.06,1.18.4,0,.67-.18.96-.46l.7.72c-.41.46-.88.78-1.71.78-1.26,0-2.18-.99-2.18-2.21Z"/>
      <path class="cls-4" d="M31.89,93.22v-.02c0-1.23.97-2.23,2.28-2.23s2.26.98,2.26,2.21v.02c0,1.23-.97,2.23-2.28,2.23s-2.26-.98-2.26-2.21ZM35.25,93.22v-.02c0-.63-.45-1.18-1.1-1.18s-1.09.54-1.09,1.17v.02c0,.63.45,1.18,1.1,1.18s1.09-.54,1.09-1.17Z"/>
      <path class="cls-4" d="M37.27,91.06h1.19v.86c.24-.59.63-.98,1.34-.94v1.27h-.06c-.79,0-1.28.49-1.28,1.51v1.58h-1.19v-4.29Z"/>
      <path class="cls-4" d="M40.55,89.51h1.25v1.08h-1.25v-1.08ZM40.58,91.06h1.19v4.29h-1.19v-4.29Z"/>
      <path class="cls-4" d="M42.88,91.06h1.19v.61c.27-.36.63-.69,1.23-.69.9,0,1.42.61,1.42,1.59v2.77h-1.19v-2.39c0-.58-.27-.87-.72-.87s-.74.3-.74.87v2.39h-1.19v-4.29Z"/>
      <path class="cls-4" d="M47.76,96.19l.41-.91c.43.25.86.39,1.42.39.81,0,1.2-.4,1.2-1.17v-.21c-.35.43-.74.7-1.37.7-.98,0-1.86-.73-1.86-2v-.02c0-1.28.9-2,1.86-2,.65,0,1.03.28,1.35.64v-.56h1.19v3.32c0,.77-.18,1.33-.53,1.69-.39.4-.99.58-1.81.58-.68,0-1.32-.16-1.86-.45ZM50.78,92.99v-.02c0-.58-.45-.99-1.03-.99s-1.02.41-1.02.99v.02c0,.59.44.99,1.02.99s1.03-.41,1.03-.99Z"/>
      <path class="cls-4" d="M24.73,104.38l.51-.8c.45.34.93.51,1.32.51.34,0,.5-.13.5-.32v-.02c0-.26-.41-.35-.87-.5-.59-.18-1.25-.46-1.25-1.29v-.02c0-.87.69-1.36,1.53-1.36.53,0,1.11.18,1.57.5l-.45.84c-.42-.25-.83-.4-1.13-.4s-.44.13-.44.3v.02c0,.24.4.35.85.51.59.2,1.27.49,1.27,1.27v.02c0,.95-.7,1.38-1.6,1.38-.59,0-1.24-.2-1.8-.65Z"/>
      <path class="cls-4" d="M31.73,100.66h1.24l-1.61,4.39c-.32.87-.67,1.2-1.38,1.2-.43,0-.75-.11-1.06-.3l.4-.88c.16.1.35.17.51.17.2,0,.31-.06.42-.28l-1.64-4.3h1.26l.96,2.92.92-2.92Z"/>
      <path class="cls-4" d="M33.33,104.38l.51-.8c.45.34.93.51,1.32.51.34,0,.5-.13.5-.32v-.02c0-.26-.41-.35-.87-.5-.59-.18-1.25-.46-1.25-1.29v-.02c0-.87.69-1.36,1.53-1.36.53,0,1.11.18,1.57.5l-.45.84c-.42-.25-.83-.4-1.13-.4s-.44.13-.44.3v.02c0,.24.4.35.85.51.59.2,1.27.49,1.27,1.27v.02c0,.95-.7,1.38-1.6,1.38-.59,0-1.24-.2-1.8-.65Z"/>
      <path class="cls-4" d="M37.77,103.73v-2.03h-.5v-1.04h.5v-1.09h1.19v1.09h.99v1.04h-.99v1.83c0,.28.12.42.38.42.22,0,.41-.06.59-.15v.98c-.25.15-.54.25-.94.25-.73,0-1.22-.3-1.22-1.29Z"/>
      <path class="cls-4" d="M40.6,102.82v-.02c0-1.22.85-2.23,2.07-2.23,1.4,0,2.04,1.11,2.04,2.33,0,.1,0,.21-.02.32h-2.92c.12.55.49.84,1.03.84.4,0,.69-.13,1.02-.44l.68.62c-.39.5-.95.8-1.71.8-1.26,0-2.19-.9-2.19-2.21ZM43.56,102.46c-.07-.54-.38-.91-.88-.91s-.81.36-.91.91h1.79Z"/>
      <path class="cls-4" d="M45.59,100.66h1.19v.61c.27-.36.63-.69,1.24-.69.55,0,.96.25,1.18.68.37-.44.81-.68,1.38-.68.88,0,1.42.54,1.42,1.58v2.79h-1.19v-2.39c0-.58-.25-.87-.7-.87s-.72.3-.72.87v2.39h-1.19v-2.39c0-.58-.25-.87-.7-.87s-.72.3-.72.87v2.39h-1.19v-4.29Z"/>
      <path class="cls-4" d="M.2,112.41v-.02c0-1.43.92-2.21,1.91-2.21.63,0,1.03.3,1.31.64v-2.11h1.19v5.84h-1.19v-.62c-.29.4-.69.7-1.31.7-.98,0-1.91-.78-1.91-2.21ZM3.44,112.41v-.02c0-.71-.46-1.18-1.02-1.18s-1.03.46-1.03,1.18v.02c0,.71.47,1.18,1.03,1.18s1.02-.47,1.02-1.18Z"/>
      <path class="cls-4" d="M5.46,112.42v-.02c0-1.22.85-2.23,2.07-2.23,1.4,0,2.04,1.11,2.04,2.33,0,.1,0,.21-.02.32h-2.92c.12.55.49.84,1.03.84.4,0,.69-.13,1.02-.44l.68.62c-.39.5-.95.8-1.71.8-1.26,0-2.19-.9-2.19-2.21ZM8.42,112.07c-.07-.54-.38-.91-.88-.91s-.81.36-.91.91h1.79Z"/>
      <path class="cls-4" d="M10.07,110.26h1.26l.94,2.87.95-2.87h1.24l-1.65,4.32h-1.08l-1.65-4.32Z"/>
      <path class="cls-4" d="M14.92,112.42v-.02c0-1.22.85-2.23,2.07-2.23,1.4,0,2.04,1.11,2.04,2.33,0,.1,0,.21-.02.32h-2.92c.12.55.49.84,1.03.84.4,0,.69-.13,1.02-.44l.68.62c-.39.5-.95.8-1.71.8-1.26,0-2.19-.9-2.19-2.21ZM17.88,112.07c-.07-.54-.38-.91-.88-.91s-.81.36-.91.91h1.79Z"/>
      <path class="cls-4" d="M19.96,108.71h1.19v5.84h-1.19v-5.84Z"/>
      <path class="cls-4" d="M22.05,112.42v-.02c0-1.23.97-2.23,2.28-2.23s2.26.98,2.26,2.21v.02c0,1.23-.97,2.23-2.28,2.23s-2.26-.98-2.26-2.21ZM25.42,112.42v-.02c0-.63-.45-1.18-1.1-1.18s-1.09.54-1.09,1.17v.02c0,.63.45,1.18,1.1,1.18s1.09-.54,1.09-1.17Z"/>
      <path class="cls-4" d="M27.44,110.26h1.19v.62c.29-.4.69-.7,1.31-.7.98,0,1.91.78,1.91,2.21v.02c0,1.43-.92,2.21-1.91,2.21-.63,0-1.03-.3-1.31-.64v1.84h-1.19v-5.56ZM30.66,112.41v-.02c0-.71-.47-1.18-1.03-1.18s-1.02.47-1.02,1.18v.02c0,.71.46,1.18,1.02,1.18s1.03-.46,1.03-1.18Z"/>
      <path class="cls-4" d="M32.71,110.26h1.19v.61c.27-.36.63-.69,1.24-.69.55,0,.96.25,1.18.68.37-.44.81-.68,1.38-.68.88,0,1.42.54,1.42,1.58v2.79h-1.19v-2.39c0-.58-.25-.87-.7-.87s-.72.29-.72.87v2.39h-1.19v-2.39c0-.58-.25-.87-.7-.87s-.72.29-.72.87v2.39h-1.19v-4.29Z"/>
      <path class="cls-4" d="M39.93,112.42v-.02c0-1.22.85-2.23,2.07-2.23,1.4,0,2.04,1.11,2.04,2.33,0,.1,0,.21-.02.32h-2.92c.12.55.49.84,1.03.84.4,0,.69-.13,1.02-.44l.68.62c-.39.5-.95.8-1.71.8-1.26,0-2.19-.9-2.19-2.21ZM42.89,112.07c-.07-.54-.38-.91-.88-.91s-.81.36-.91.91h1.79Z"/>
      <path class="cls-4" d="M44.91,110.26h1.19v.61c.27-.36.63-.69,1.23-.69.9,0,1.42.61,1.42,1.59v2.77h-1.19v-2.39c0-.58-.27-.87-.72-.87s-.74.29-.74.87v2.39h-1.19v-4.29Z"/>
      <path class="cls-4" d="M49.97,113.33v-2.03h-.5v-1.04h.5v-1.1h1.19v1.1h.99v1.04h-.99v1.83c0,.28.12.42.38.42.22,0,.41-.06.59-.15v.98c-.25.15-.54.25-.94.25-.73,0-1.22-.3-1.22-1.29Z"/>
    </g>
    <g>
      <path class="cls-4" d="M10.08,162.27h1.33l1.43,3.94,1.43-3.94h1.3l-2.21,5.64h-1.06l-2.22-5.64Z"/>
      <path class="cls-4" d="M16.4,162.27h2.14c1.72,0,2.91,1.21,2.91,2.78v.02c0,1.58-1.19,2.8-2.91,2.8h-2.14v-5.6ZM17.61,163.38v3.37h.93c.99,0,1.65-.68,1.65-1.67v-.02c0-.99-.67-1.69-1.65-1.69h-.93Z"/>
      <path class="cls-4" d="M22.34,166.93l3.01-3.58h-2.92v-1.08h4.47v.94l-3.01,3.58h3.01v1.08h-4.56v-.94Z"/>
      <path class="cls-4" d="M27.77,164.8h2.41v1.17h-2.41v-1.17Z"/>
      <path class="cls-4" d="M30.97,165.08v-.02c0-1.59,1.17-2.89,2.86-2.89,1.03,0,1.65.35,2.16.86l-.77.9c-.42-.39-.85-.63-1.4-.63-.92,0-1.59.78-1.59,1.74v.02c0,.96.65,1.76,1.59,1.76.63,0,1.01-.26,1.44-.66l.77.79c-.56.62-1.19,1-2.25,1-1.61,0-2.81-1.27-2.81-2.88Z"/>
      <path class="cls-4" d="M36.97,162.27h2.14c1.72,0,2.91,1.21,2.91,2.78v.02c0,1.58-1.19,2.8-2.91,2.8h-2.14v-5.6ZM38.18,163.38v3.37h.93c.99,0,1.65-.68,1.65-1.67v-.02c0-.99-.67-1.69-1.65-1.69h-.93Z"/>
      <path class="cls-4" d="M42.71,167.05l.71-.87c.49.42,1.01.68,1.64.68.49,0,.79-.2.79-.53v-.02c0-.31-.19-.47-1.1-.71-1.1-.29-1.82-.6-1.82-1.71v-.02c0-1.01.8-1.69,1.92-1.69.8,0,1.48.26,2.04.71l-.63.93c-.49-.34-.96-.55-1.42-.55s-.71.22-.71.49v.02c0,.37.24.49,1.18.74,1.11.3,1.74.7,1.74,1.68v.02c0,1.11-.83,1.74-2.01,1.74-.83,0-1.67-.3-2.32-.9Z"/>
      <path class="cls-4" d="M49.35,163.4h-1.67v-1.13h4.54v1.13h-1.67v4.46h-1.21v-4.46Z"/>
      <path class="cls-4" d="M0,171.63h1.25v1.08H0v-1.08ZM.03,173.18h1.19v4.29H.03v-4.29Z"/>
      <path class="cls-4" d="M2.33,173.18h1.19v.61c.27-.36.63-.69,1.23-.69.9,0,1.42.61,1.42,1.59v2.77h-1.19v-2.39c0-.58-.27-.87-.72-.87s-.74.3-.74.87v2.39h-1.19v-4.29Z"/>
      <path class="cls-4" d="M9.4,174.68v-.02c0-1.59,1.17-2.89,2.86-2.89,1.03,0,1.65.35,2.16.86l-.77.9c-.42-.39-.85-.63-1.4-.63-.92,0-1.59.78-1.59,1.74v.02c0,.96.65,1.76,1.59,1.76.63,0,1.01-.26,1.44-.66l.77.79c-.56.62-1.19,1-2.25,1-1.61,0-2.81-1.27-2.81-2.88Z"/>
      <path class="cls-4" d="M15.41,171.87h2.14c1.72,0,2.91,1.21,2.91,2.78v.02c0,1.58-1.19,2.8-2.91,2.8h-2.14v-5.6ZM16.61,172.98v3.37h.93c.99,0,1.65-.68,1.65-1.67v-.02c0-.99-.67-1.69-1.65-1.69h-.93Z"/>
      <path class="cls-4" d="M23.39,176.9l.51-.8c.45.34.93.51,1.32.51.34,0,.5-.13.5-.32v-.02c0-.26-.41-.35-.87-.5-.59-.18-1.25-.46-1.25-1.29v-.02c0-.87.69-1.36,1.53-1.36.53,0,1.11.18,1.57.5l-.45.84c-.42-.25-.83-.4-1.13-.4s-.44.13-.44.3v.02c0,.24.4.35.85.51.59.2,1.27.49,1.27,1.27v.02c0,.95-.7,1.38-1.6,1.38-.59,0-1.24-.2-1.8-.65Z"/>
      <path class="cls-4" d="M27.43,175.34v-.02c0-1.22.92-2.23,2.2-2.23.79,0,1.28.27,1.67.72l-.73.8c-.27-.29-.53-.47-.96-.47-.59,0-1.02.54-1.02,1.17v.02c0,.66.42,1.18,1.06,1.18.4,0,.67-.18.96-.46l.7.72c-.41.46-.88.78-1.71.78-1.26,0-2.18-.99-2.18-2.21Z"/>
      <path class="cls-4" d="M31.89,175.34v-.02c0-1.23.97-2.23,2.28-2.23s2.26.98,2.26,2.21v.02c0,1.23-.97,2.23-2.28,2.23s-2.26-.98-2.26-2.21ZM35.25,175.34v-.02c0-.63-.45-1.18-1.1-1.18s-1.09.54-1.09,1.17v.02c0,.63.45,1.18,1.1,1.18s1.09-.54,1.09-1.17Z"/>
      <path class="cls-4" d="M37.27,173.18h1.19v.86c.24-.59.63-.98,1.34-.94v1.27h-.06c-.79,0-1.28.49-1.28,1.51v1.58h-1.19v-4.29Z"/>
      <path class="cls-4" d="M40.55,171.63h1.25v1.08h-1.25v-1.08ZM40.58,173.18h1.19v4.29h-1.19v-4.29Z"/>
      <path class="cls-4" d="M42.88,173.18h1.19v.61c.27-.36.63-.69,1.23-.69.9,0,1.42.61,1.42,1.59v2.77h-1.19v-2.39c0-.58-.27-.87-.72-.87s-.74.3-.74.87v2.39h-1.19v-4.29Z"/>
      <path class="cls-4" d="M47.76,178.31l.41-.91c.43.25.86.39,1.42.39.81,0,1.2-.4,1.2-1.17v-.21c-.35.43-.74.7-1.37.7-.98,0-1.86-.73-1.86-2v-.02c0-1.28.9-2,1.86-2,.65,0,1.03.28,1.35.64v-.56h1.19v3.32c0,.77-.18,1.33-.53,1.69-.39.4-.99.58-1.81.58-.68,0-1.32-.16-1.86-.45ZM50.78,175.11v-.02c0-.58-.45-.99-1.03-.99s-1.02.41-1.02.99v.02c0,.59.44.99,1.02.99s1.03-.41,1.03-.99Z"/>
      <path class="cls-4" d="M24.73,186.5l.51-.8c.45.34.93.51,1.32.51.34,0,.5-.13.5-.32v-.02c0-.26-.41-.35-.87-.5-.59-.18-1.25-.46-1.25-1.29v-.02c0-.87.69-1.36,1.53-1.36.53,0,1.11.18,1.57.5l-.45.84c-.42-.25-.83-.4-1.13-.4s-.44.13-.44.3v.02c0,.24.4.35.85.51.59.2,1.27.49,1.27,1.27v.02c0,.95-.7,1.38-1.6,1.38-.59,0-1.24-.2-1.8-.65Z"/>
      <path class="cls-4" d="M31.73,182.78h1.24l-1.61,4.39c-.32.87-.67,1.2-1.38,1.2-.43,0-.75-.11-1.06-.3l.4-.88c.16.1.35.17.51.17.2,0,.31-.06.42-.28l-1.64-4.3h1.26l.96,2.92.92-2.92Z"/>
      <path class="cls-4" d="M33.33,186.5l.51-.8c.45.34.93.51,1.32.51.34,0,.5-.13.5-.32v-.02c0-.26-.41-.35-.87-.5-.59-.18-1.25-.46-1.25-1.29v-.02c0-.87.69-1.36,1.53-1.36.53,0,1.11.18,1.57.5l-.45.84c-.42-.25-.83-.4-1.13-.4s-.44.13-.44.3v.02c0,.24.4.35.85.51.59.2,1.27.49,1.27,1.27v.02c0,.95-.7,1.38-1.6,1.38-.59,0-1.24-.2-1.8-.65Z"/>
      <path class="cls-4" d="M37.77,185.85v-2.03h-.5v-1.04h.5v-1.1h1.19v1.1h.99v1.04h-.99v1.83c0,.28.12.42.38.42.22,0,.41-.06.59-.15v.98c-.25.15-.54.25-.94.25-.73,0-1.22-.3-1.22-1.29Z"/>
      <path class="cls-4" d="M40.6,184.94v-.02c0-1.22.85-2.23,2.07-2.23,1.4,0,2.04,1.11,2.04,2.33,0,.1,0,.21-.02.32h-2.92c.12.55.49.84,1.03.84.4,0,.69-.13,1.02-.44l.68.62c-.39.5-.95.8-1.71.8-1.26,0-2.19-.9-2.19-2.21ZM43.56,184.58c-.07-.54-.38-.91-.88-.91s-.81.36-.91.91h1.79Z"/>
      <path class="cls-4" d="M45.59,182.78h1.19v.61c.27-.36.63-.69,1.24-.69.55,0,.96.25,1.18.68.37-.44.81-.68,1.38-.68.88,0,1.42.54,1.42,1.58v2.79h-1.19v-2.39c0-.58-.25-.87-.7-.87s-.72.29-.72.87v2.39h-1.19v-2.39c0-.58-.25-.87-.7-.87s-.72.29-.72.87v2.39h-1.19v-4.29Z"/>
    </g>
    <g>
      <path class="cls-4" d="M15.5,230.54h1.33l1.43,3.94,1.43-3.94h1.3l-2.21,5.64h-1.06l-2.22-5.64Z"/>
      <path class="cls-4" d="M21.88,230.54h1.21v5.6h-1.21v-5.6Z"/>
      <path class="cls-4" d="M24.2,233.35v-.02c0-1.59,1.17-2.89,2.86-2.89,1.03,0,1.65.35,2.16.86l-.77.9c-.42-.39-.85-.63-1.4-.63-.92,0-1.59.78-1.59,1.74v.02c0,.96.65,1.76,1.59,1.76.63,0,1.01-.26,1.44-.66l.77.79c-.56.62-1.19,1-2.25,1-1.61,0-2.81-1.27-2.81-2.88Z"/>
      <path class="cls-4" d="M31.48,231.67h-1.67v-1.13h4.54v1.13h-1.67v4.46h-1.21v-4.46Z"/>
      <path class="cls-4" d="M35.02,233.35v-.02c0-1.59,1.23-2.89,2.92-2.89s2.9,1.29,2.9,2.88v.02c0,1.59-1.23,2.89-2.92,2.89s-2.9-1.29-2.9-2.88ZM39.58,233.35v-.02c0-.96-.69-1.76-1.66-1.76s-1.64.78-1.64,1.74v.02c0,.96.69,1.76,1.66,1.76s1.64-.78,1.64-1.74Z"/>
      <path class="cls-4" d="M41.9,230.54h2.5c.7,0,1.24.2,1.6.57.3.31.47.75.47,1.28v.02c0,.9-.48,1.47-1.17,1.74l1.34,2h-1.41l-1.17-1.79h-.95v1.79h-1.21v-5.6ZM44.33,233.25c.59,0,.92-.32.92-.79v-.02c0-.53-.36-.8-.95-.8h-1.2v1.61h1.22Z"/>
      <path class="cls-4" d="M49.09,233.93l-2.11-3.39h1.41l1.31,2.25,1.33-2.25h1.37l-2.11,3.37v2.23h-1.21v-2.21Z"/>
      <path class="cls-4" d="M26.63,243.61v-.02c0-1.22.92-2.23,2.2-2.23.79,0,1.28.27,1.67.72l-.73.8c-.27-.29-.53-.47-.96-.47-.59,0-1.02.54-1.02,1.17v.02c0,.66.42,1.18,1.06,1.18.4,0,.67-.18.96-.46l.7.72c-.41.46-.88.78-1.71.78-1.26,0-2.18-.99-2.18-2.21Z"/>
      <path class="cls-4" d="M31.09,243.61v-.02c0-1.23.97-2.23,2.28-2.23s2.26.98,2.26,2.21v.02c0,1.23-.97,2.23-2.28,2.23s-2.26-.98-2.26-2.21ZM34.45,243.61v-.02c0-.63-.45-1.18-1.1-1.18s-1.09.54-1.09,1.17v.02c0,.63.45,1.18,1.1,1.18s1.09-.54,1.09-1.17Z"/>
      <path class="cls-4" d="M36.47,239.9h1.19v2.16c.27-.36.63-.69,1.23-.69.9,0,1.42.61,1.42,1.59v2.77h-1.19v-2.39c0-.58-.27-.87-.72-.87s-.74.3-.74.87v2.39h-1.19v-5.84Z"/>
      <path class="cls-4" d="M41.13,243.61v-.02c0-1.23.97-2.23,2.28-2.23s2.26.98,2.26,2.21v.02c0,1.23-.97,2.23-2.28,2.23s-2.26-.98-2.26-2.21ZM44.5,243.61v-.02c0-.63-.45-1.18-1.1-1.18s-1.09.54-1.09,1.17v.02c0,.63.45,1.18,1.1,1.18s1.09-.54,1.09-1.17Z"/>
      <path class="cls-4" d="M46.52,241.45h1.19v.86c.24-.59.63-.98,1.34-.94v1.27h-.06c-.79,0-1.28.49-1.28,1.51v1.58h-1.19v-4.29Z"/>
      <path class="cls-4" d="M49.97,244.52v-2.03h-.5v-1.04h.5v-1.09h1.19v1.09h.99v1.04h-.99v1.83c0,.28.12.42.38.42.22,0,.41-.06.59-.15v.98c-.25.15-.54.25-.94.25-.73,0-1.22-.3-1.22-1.29Z"/>
      <path class="cls-4" d="M21.94,253.04c0-1.47.78-2.62,2.17-3.42l.26.41c-1.19.78-1.82,1.73-1.82,3.01s.63,2.24,1.82,3.01l-.26.41c-1.39-.8-2.17-1.95-2.17-3.42Z"/>
      <path class="cls-4" d="M25.47,251.2h.6v.72c.27-.45.69-.81,1.38-.81.98,0,1.55.67,1.55,1.66v2.57h-.6v-2.42c0-.77-.41-1.25-1.12-1.25s-1.21.52-1.21,1.29v2.37h-.6v-4.13Z"/>
      <path class="cls-4" d="M30.23,251.29h3.64v.59h-3.64v-.59ZM30.23,253.16h3.64v.59h-3.64v-.59Z"/>
      <path class="cls-4" d="M34.87,254.43l.45-.41c.42.53.93.83,1.6.83s1.2-.43,1.2-1.09v-.02c0-.7-.63-1.08-1.53-1.08h-.35l-.13-.38,1.73-1.99h-2.68v-.57h3.5v.46l-1.72,1.95c.96.08,1.81.55,1.81,1.58v.02c0,1-.81,1.69-1.83,1.69-.92,0-1.6-.41-2.04-1Z"/>
      <path class="cls-4" d="M39.65,254.43l.45-.41c.42.53.93.83,1.6.83s1.2-.43,1.2-1.09v-.02c0-.7-.63-1.08-1.53-1.08h-.35l-.13-.38,1.73-1.99h-2.68v-.57h3.5v.46l-1.72,1.95c.96.08,1.81.55,1.81,1.58v.02c0,1-.81,1.69-1.83,1.69-.92,0-1.6-.41-2.04-1Z"/>
      <path class="cls-4" d="M45.21,254.86c-.44-.45-.69-1.02-.69-2.17v-.02c0-1.7.85-3.04,2.28-3.04.66,0,1.14.24,1.62.64l-.36.49c-.41-.35-.79-.55-1.29-.55-1.06,0-1.61,1.14-1.61,2.4v.08c.36-.54.85-.86,1.57-.86,1.02,0,1.89.67,1.89,1.72v.02c0,1.08-.85,1.86-1.96,1.86-.6,0-1.1-.22-1.44-.57ZM47.98,253.59v-.02c0-.69-.55-1.2-1.34-1.2s-1.37.6-1.37,1.22v.02c0,.71.58,1.25,1.39,1.25s1.32-.57,1.32-1.28Z"/>
      <path class="cls-4" d="M49.53,256.05c1.19-.78,1.82-1.74,1.82-3.01s-.63-2.24-1.82-3.01l.26-.41c1.39.8,2.17,1.95,2.17,3.42s-.78,2.62-2.17,3.42l-.26-.41Z"/>
    </g>
    <g>
      <path class="cls-4" d="M22.39,307.54l.71-.87c.49.42,1.01.68,1.64.68.49,0,.79-.2.79-.53v-.02c0-.31-.19-.47-1.1-.71-1.1-.29-1.82-.6-1.82-1.71v-.02c0-1.01.8-1.69,1.92-1.69.8,0,1.48.26,2.04.71l-.63.93c-.49-.34-.96-.55-1.42-.55s-.71.22-.71.49v.02c0,.37.24.49,1.18.74,1.11.3,1.74.7,1.74,1.68v.02c0,1.11-.83,1.74-2.01,1.74-.83,0-1.67-.3-2.32-.9Z"/>
      <path class="cls-4" d="M27.43,306.24v-.02c0-1.22.92-2.23,2.2-2.23.79,0,1.28.27,1.67.72l-.73.8c-.27-.29-.53-.47-.96-.47-.59,0-1.02.54-1.02,1.17v.02c0,.66.42,1.18,1.06,1.18.4,0,.67-.18.96-.46l.7.72c-.41.46-.88.78-1.71.78-1.26,0-2.18-.99-2.18-2.21Z"/>
      <path class="cls-4" d="M31.89,306.24v-.02c0-1.23.97-2.23,2.28-2.23s2.26.98,2.26,2.21v.02c0,1.23-.97,2.23-2.28,2.23s-2.26-.98-2.26-2.21ZM35.25,306.24v-.02c0-.63-.45-1.18-1.1-1.18s-1.09.54-1.09,1.17v.02c0,.63.45,1.18,1.1,1.18s1.09-.54,1.09-1.17Z"/>
      <path class="cls-4" d="M37.27,304.07h1.19v.86c.24-.59.63-.98,1.34-.94v1.27h-.06c-.79,0-1.28.49-1.28,1.51v1.58h-1.19v-4.29Z"/>
      <path class="cls-4" d="M40.55,302.52h1.25v1.08h-1.25v-1.08ZM40.58,304.07h1.19v4.29h-1.19v-4.29Z"/>
      <path class="cls-4" d="M42.88,304.07h1.19v.61c.27-.36.63-.69,1.23-.69.9,0,1.42.61,1.42,1.59v2.77h-1.19v-2.39c0-.58-.27-.87-.72-.87s-.74.3-.74.87v2.39h-1.19v-4.29Z"/>
      <path class="cls-4" d="M47.76,309.21l.41-.91c.43.25.86.39,1.42.39.81,0,1.2-.4,1.2-1.17v-.21c-.35.43-.74.7-1.37.7-.98,0-1.86-.73-1.86-2v-.02c0-1.28.9-2,1.86-2,.65,0,1.03.28,1.35.64v-.56h1.19v3.32c0,.77-.18,1.33-.53,1.69-.39.4-.99.58-1.81.58-.68,0-1.32-.16-1.86-.45ZM50.78,306.01v-.02c0-.58-.45-.99-1.03-.99s-1.02.41-1.02.99v.02c0,.59.44.99,1.02.99s1.03-.41,1.03-.99Z"/>
      <path class="cls-4" d="M24.73,317.39l.51-.8c.45.34.93.51,1.32.51.34,0,.5-.13.5-.32v-.02c0-.26-.41-.35-.87-.5-.59-.18-1.25-.46-1.25-1.29v-.02c0-.87.69-1.36,1.53-1.36.53,0,1.11.18,1.57.5l-.45.84c-.42-.25-.83-.4-1.13-.4s-.44.13-.44.3v.02c0,.24.4.35.85.51.59.2,1.27.49,1.27,1.27v.02c0,.95-.7,1.38-1.6,1.38-.59,0-1.24-.2-1.8-.65Z"/>
      <path class="cls-4" d="M31.73,313.67h1.24l-1.61,4.39c-.32.87-.67,1.2-1.38,1.2-.43,0-.75-.11-1.06-.3l.4-.88c.16.1.35.17.51.17.2,0,.31-.06.42-.28l-1.64-4.3h1.26l.96,2.92.92-2.92Z"/>
      <path class="cls-4" d="M33.33,317.39l.51-.8c.45.34.93.51,1.32.51.34,0,.5-.13.5-.32v-.02c0-.26-.41-.35-.87-.5-.59-.18-1.25-.46-1.25-1.29v-.02c0-.87.69-1.36,1.53-1.36.53,0,1.11.18,1.57.5l-.45.84c-.42-.25-.83-.4-1.13-.4s-.44.13-.44.3v.02c0,.24.4.35.85.51.59.2,1.27.49,1.27,1.27v.02c0,.95-.7,1.38-1.6,1.38-.59,0-1.24-.2-1.8-.65Z"/>
      <path class="cls-4" d="M37.77,316.74v-2.03h-.5v-1.04h.5v-1.09h1.19v1.09h.99v1.04h-.99v1.83c0,.28.12.42.38.42.22,0,.41-.06.59-.15v.98c-.25.15-.54.25-.94.25-.73,0-1.22-.3-1.22-1.29Z"/>
      <path class="cls-4" d="M40.6,315.84v-.02c0-1.22.85-2.23,2.07-2.23,1.4,0,2.04,1.11,2.04,2.33,0,.1,0,.21-.02.32h-2.92c.12.55.49.84,1.03.84.4,0,.69-.13,1.02-.44l.68.62c-.39.5-.95.8-1.71.8-1.26,0-2.19-.9-2.19-2.21ZM43.56,315.48c-.07-.54-.38-.91-.88-.91s-.81.36-.91.91h1.79Z"/>
      <path class="cls-4" d="M45.59,313.67h1.19v.61c.27-.36.63-.69,1.24-.69.55,0,.96.25,1.18.68.37-.44.81-.68,1.38-.68.88,0,1.42.54,1.42,1.58v2.79h-1.19v-2.39c0-.58-.25-.87-.7-.87s-.72.3-.72.87v2.39h-1.19v-2.39c0-.58-.25-.87-.7-.87s-.72.3-.72.87v2.39h-1.19v-4.29Z"/>
      <path class="cls-4" d="M13.12,323.27h1.26l.94,2.87.95-2.87h1.24l-1.65,4.32h-1.08l-1.65-4.32Z"/>
      <path class="cls-4" d="M17.93,326.33v-.02c0-.94.7-1.37,1.69-1.37.42,0,.73.07,1.03.18v-.07c0-.5-.31-.78-.9-.78-.45,0-.77.09-1.16.23l-.3-.93c.46-.21.92-.34,1.63-.34.65,0,1.12.18,1.42.48.31.32.45.79.45,1.37v2.49h-1.15v-.46c-.29.33-.69.54-1.27.54-.79,0-1.44-.46-1.44-1.31ZM20.66,326.05v-.22c-.2-.1-.47-.16-.76-.16-.51,0-.82.21-.82.59v.02c0,.33.27.52.65.52.56,0,.93-.31.93-.75Z"/>
      <path class="cls-4" d="M22.85,321.72h1.19v5.84h-1.19v-5.84Z"/>
      <path class="cls-4" d="M25.17,321.72h1.25v1.08h-1.25v-1.08ZM25.2,323.27h1.19v4.29h-1.19v-4.29Z"/>
      <path class="cls-4" d="M27.31,325.42v-.02c0-1.43.92-2.21,1.91-2.21.63,0,1.03.3,1.31.64v-2.11h1.19v5.84h-1.19v-.62c-.29.4-.69.7-1.31.7-.98,0-1.91-.78-1.91-2.21ZM30.54,325.42v-.02c0-.71-.46-1.18-1.02-1.18s-1.03.46-1.03,1.18v.02c0,.71.47,1.18,1.03,1.18s1.02-.47,1.02-1.18Z"/>
      <path class="cls-4" d="M32.51,326.33v-.02c0-.94.7-1.37,1.69-1.37.42,0,.73.07,1.03.18v-.07c0-.5-.31-.78-.9-.78-.45,0-.77.09-1.16.23l-.3-.93c.46-.21.92-.34,1.63-.34.65,0,1.12.18,1.42.48.31.32.45.79.45,1.37v2.49h-1.15v-.46c-.29.33-.69.54-1.27.54-.79,0-1.44-.46-1.44-1.31ZM35.25,326.05v-.22c-.2-.1-.47-.16-.76-.16-.51,0-.82.21-.82.59v.02c0,.33.27.52.65.52.56,0,.93-.31.93-.75Z"/>
      <path class="cls-4" d="M37.58,326.34v-2.03h-.5v-1.04h.5v-1.1h1.19v1.1h.99v1.04h-.99v1.83c0,.28.12.42.38.42.22,0,.41-.06.59-.15v.98c-.25.15-.54.25-.94.25-.73,0-1.22-.3-1.22-1.29Z"/>
      <path class="cls-4" d="M40.64,321.72h1.25v1.08h-1.25v-1.08ZM40.67,323.27h1.19v4.29h-1.19v-4.29Z"/>
      <path class="cls-4" d="M42.76,325.44v-.02c0-1.23.97-2.23,2.28-2.23s2.26.98,2.26,2.21v.02c0,1.23-.97,2.23-2.28,2.23s-2.26-.98-2.26-2.21ZM46.13,325.44v-.02c0-.63-.45-1.18-1.1-1.18s-1.09.54-1.09,1.17v.02c0,.63.45,1.18,1.1,1.18s1.09-.54,1.09-1.17Z"/>
      <path class="cls-4" d="M48.15,323.27h1.19v.61c.27-.36.63-.69,1.23-.69.9,0,1.42.61,1.42,1.59v2.77h-1.19v-2.39c0-.58-.27-.87-.72-.87s-.74.29-.74.87v2.39h-1.19v-4.29Z"/>
    </g>
    <g>
      <ellipse class="cls-6" cx="83.55" cy="98.68" rx="26.64" ry="27.22"/>
      <path class="cls-1" d="M83.55,106.51c-.96,0-1.7-.75-1.7-1.73s.74-1.73,1.7-1.73,1.7.75,1.7,1.73c.07.98-.74,1.73-1.7,1.73ZM84.28,101.63v-14.41c0-.45-.3-.75-.74-.75s-.74.3-.74.75v14.41c-1.7.38-2.8,2.18-2.36,3.9.3,1.2,1.18,2.1,2.36,2.4v2.7c0,.45.3.75.74.75s.74-.3.74-.75v-2.7c1.7-.38,2.8-2.18,2.36-3.9-.22-1.2-1.18-2.18-2.36-2.4Z"/>
      <path class="cls-1" d="M76.21,94.8c-.96,0-1.7-.83-1.7-1.73,0-.98.81-1.73,1.7-1.73.96,0,1.7.83,1.7,1.73,0,.98-.74,1.73-1.7,1.73ZM76.94,89.92v-2.7c0-.45-.3-.75-.74-.75s-.74.3-.74.75v2.7c-1.7.38-2.8,2.18-2.36,3.9.3,1.2,1.18,2.1,2.36,2.4v14.41c0,.45.3.75.74.75s.74-.3.74-.75v-14.41c1.7-.38,2.8-2.18,2.36-3.9-.3-1.2-1.18-2.18-2.36-2.4Z"/>
      <path class="cls-1" d="M90.89,98.95c-.96,0-1.7-.74-1.7-1.71s.74-1.71,1.7-1.71,1.7.74,1.7,1.71c0,.89-.74,1.71-1.7,1.71ZM91.62,94.05v-6.84c0-.45-.3-.74-.74-.74s-.74.3-.74.74v6.84c-1.7.37-2.8,2.16-2.36,3.87.3,1.19,1.18,2.08,2.36,2.38v10.11c0,.45.3.74.74.74s.74-.3.74-.74v-10.11c1.7-.37,2.8-2.16,2.36-3.87-.3-1.12-1.18-2.08-2.36-2.38Z"/>
    </g>
    <g>
      <path class="cls-5" d="M57.03,312.95c0-14.97,11.87-27.1,26.52-27.1s26.52,12.13,26.52,27.1v.24c0,14.97-11.87,27.1-26.52,27.1s-26.52-12.13-26.52-27.1v-.24Z"/>
      <path class="cls-1" d="M87.82,313.94h-3.58v-4.67h3.58v4.67ZM88.29,308.39h-4.51c-.28,0-.47.18-.47.46v5.59c0,.28.19.46.47.46h.7v5.08c0,.28.19.46.47.46s.47-.18.47-.46v-5.13h1.3v5.13c0,.28.19.46.47.46s.47-.18.47-.46v-5.13h.65c.28,0,.47-.18.47-.46v-5.59c0-.23-.19-.46-.47-.42t0,0Z"/>
      <path class="cls-1" d="M86.03,304.93c.36,0,.63.28.63.65s-.27.65-.63.65-.63-.28-.63-.65.27-.65.63-.65ZM86.03,307.15c.86,0,1.54-.69,1.54-1.57s-.68-1.57-1.54-1.57-1.54.69-1.54,1.57.68,1.57,1.54,1.57Z"/>
      <path class="cls-2" d="M81.47,313.94h-3.43v-4.67h3.43v4.67ZM81.92,308.39h-4.32c-.27,0-.45.18-.45.46v5.59c0,.28.18.46.45.46h.67v5.08c0,.28.18.46.45.46s.45-.18.45-.46v-5.13h1.25v5.13c0,.28.18.46.45.46s.45-.18.45-.46v-5.13h.62c.27,0,.45-.18.45-.46v-5.59c0-.23-.18-.46-.45-.42t0,0Z"/>
      <path class="cls-2" d="M79.88,304.93c.36,0,.63.28.63.65s-.27.65-.63.65-.63-.28-.63-.65.27-.65.63-.65ZM79.88,307.15c.86,0,1.54-.69,1.54-1.57s-.68-1.57-1.54-1.57-1.54.69-1.54,1.57.68,1.57,1.54,1.57Z"/>
      <path class="cls-1" d="M83.01,301.1c6.11,0,11.06,5.08,11.06,11.31,0,2.77-.99,5.32-2.63,7.29l5.13,5.24-1.29,1.32-5.12-5.24c-1.93,1.68-4.42,2.7-7.15,2.7-6.11,0-11.06-5.07-11.06-11.31s4.96-11.31,11.06-11.31ZM83.01,302.96c-5.1,0-9.24,4.24-9.24,9.45s4.15,9.45,9.24,9.45,9.24-4.24,9.24-9.45-4.15-9.45-9.24-9.45Z"/>
    </g>
    <g>
      <ellipse class="cls-6" cx="83.55" cy="170.15" rx="26.64" ry="27.22"/>
      <path class="cls-1" d="M83.72,173.52c-1.58,0-2.78-1.28-2.78-2.79,0-1.58,1.28-2.79,2.78-2.86,1.57,0,2.78,1.28,2.78,2.79,0,1.58-1.2,2.86-2.78,2.86ZM74.57,173.22c-.9,0-1.65-.75-1.65-1.66s.75-1.66,1.65-1.66,1.65.75,1.65,1.66-.75,1.66-1.65,1.66ZM92.12,159.95c.9,0,1.65.75,1.65,1.66s-.75,1.66-1.65,1.66-1.65-.75-1.65-1.66.68-1.66,1.65-1.66c-.08,0,0,0,0,0ZM93.77,175.78c0,.9-.75,1.66-1.65,1.66s-1.65-.75-1.65-1.66.75-1.66,1.65-1.66,1.65.75,1.65,1.66ZM81.1,181.43c-.9,0-1.65-.75-1.65-1.66s.75-1.66,1.65-1.66,1.65.75,1.65,1.66-.68,1.66-1.65,1.66ZM75.32,160.4c0-.9.75-1.66,1.65-1.66s1.65.75,1.65,1.66-.75,1.66-1.65,1.66-1.65-.68-1.65-1.66ZM92.12,164.77c1.73,0,3.15-1.43,3.15-3.17s-1.43-3.17-3.15-3.17-3.15,1.43-3.15,3.17c0,.68.23,1.28.6,1.88l-3.68,3.54c-1.2-.75-2.7-.83-3.9-.23l-2.63-4.22c1.2-1.28,1.13-3.32-.15-4.52-1.28-1.21-3.3-1.13-4.5.15-1.2,1.28-1.13,3.32.15,4.52.9.83,2.18,1.06,3.3.68l2.7,4.22c-.75.68-1.2,1.66-1.28,2.64l-1.88.15c-.6-1.66-2.48-2.41-4.13-1.81-1.65.6-2.4,2.49-1.8,4.15.6,1.66,2.48,2.41,4.13,1.81,1.13-.45,1.88-1.43,2.03-2.64l1.8-.15c.3,1.28,1.2,2.41,2.48,2.94l-.6,1.96h-.23c-1.73,0-3.23,1.43-3.23,3.17s1.43,3.24,3.15,3.24,3.23-1.43,3.23-3.17c0-1.13-.6-2.19-1.5-2.79l.67-2.11h.23c1.42,0,2.77-.75,3.6-1.96l2.03,1.28c-.75,1.58-.08,3.47,1.43,4.22,1.5.75,3.45.08,4.2-1.43.75-1.58.08-3.47-1.43-4.22-.45-.23-.9-.3-1.35-.3-.68,0-1.28.23-1.88.6l-2.4-1.51c.08-.3.15-.68.15-.98,0-.98-.37-1.96-.98-2.71l3.68-3.62c.15.23.6.38,1.13.38Z"/>
    </g>
    <g>
      <path class="cls-5" d="M57.03,241.49c0-14.97,11.87-27.1,26.52-27.1s26.52,12.13,26.52,27.1v.24c0,14.97-11.87,27.1-26.52,27.1s-26.52-12.13-26.52-27.1v-.24Z"/>
      <path class="cls-1" d="M73.7,236.65h-3.27v-3.64h3.27v3.64ZM74.12,232.32h-4.12c-.25,0-.42.14-.42.36v4.36c0,.22.17.36.42.36h.64v3.97c0,.22.17.36.43.36s.42-.14.42-.36v-4h1.19v4c0,.22.17.36.43.36s.42-.14.42-.36v-4h.59c.25,0,.42-.14.42-.36v-4.36c0-.18-.17-.36-.42-.32t0,0Z"/>
      <path class="cls-1" d="M72.18,229.38c.33,0,.58.21.58.5s-.25.5-.58.5-.59-.21-.59-.5.25-.5.59-.5ZM72.18,231.09c.79,0,1.42-.53,1.42-1.21s-.63-1.21-1.42-1.21-1.42.53-1.42,1.21.63,1.21,1.42,1.21Z"/>
      <path class="cls-1" d="M90.79,236.65h-3.12v-3.64h3.12v3.64ZM91.19,232.32h-3.93c-.24,0-.4.14-.4.36v4.36c0,.22.16.36.4.36h.61v3.97c0,.22.16.36.4.36s.4-.14.4-.36v-4h1.13v4c0,.22.16.36.4.36s.4-.14.4-.36v-4h.57c.24,0,.4-.14.4-.36v-4.36c0-.18-.16-.36-.4-.32t0,0Z"/>
      <path class="cls-1" d="M89.23,229.38c.33,0,.58.21.58.5s-.25.5-.58.5-.59-.21-.59-.5.25-.5.59-.5ZM89.23,231.09c.79,0,1.42-.53,1.42-1.21s-.63-1.21-1.42-1.21-1.42.53-1.42,1.21.63,1.21,1.42,1.21Z"/>
      <path class="cls-1" d="M73.7,251.28h-3.27v-3.73h3.27v3.73ZM74.12,246.84h-4.12c-.25,0-.42.15-.42.37v4.47c0,.22.17.37.42.37h.64v4.07c0,.22.17.37.43.37s.42-.15.42-.37v-4.1h1.19v4.1c0,.22.17.37.43.37s.42-.15.42-.37v-4.1h.59c.25,0,.42-.15.42-.37v-4.47c0-.18-.17-.37-.42-.33t0,0Z"/>
      <path class="cls-1" d="M72.18,244.14c.33,0,.58.21.58.5s-.25.5-.58.5-.59-.21-.59-.5.25-.5.59-.5ZM72.18,245.85c.79,0,1.42-.53,1.42-1.21s-.63-1.21-1.42-1.21-1.42.53-1.42,1.21.63,1.21,1.42,1.21Z"/>
      <path class="cls-1" d="M85.1,251.28h-3.12v-3.73h3.12v3.73ZM85.51,246.84h-3.93c-.24,0-.4.15-.4.37v4.47c0,.22.16.37.4.37h.61v4.07c0,.22.16.37.4.37s.4-.15.4-.37v-4.1h1.13v4.1c0,.22.16.37.4.37s.4-.15.4-.37v-4.1h.57c.24,0,.4-.15.4-.37v-4.47c0-.18-.16-.37-.4-.33t0,0Z"/>
      <path class="cls-1" d="M83.55,244.14c.33,0,.58.21.58.5s-.25.5-.58.5-.59-.21-.59-.5.25-.5.59-.5ZM83.55,245.85c.79,0,1.42-.53,1.42-1.21s-.63-1.21-1.42-1.21-1.42.53-1.42,1.21.63,1.21,1.42,1.21Z"/>
      <path class="cls-1" d="M90.79,251.28h-3.12v-3.73h3.12v3.73ZM91.19,246.84h-3.93c-.24,0-.4.15-.4.37v4.47c0,.22.16.37.4.37h.61v4.07c0,.22.16.37.4.37s.4-.15.4-.37v-4.1h1.13v4.1c0,.22.16.37.4.37s.4-.15.4-.37v-4.1h.57c.24,0,.4-.15.4-.37v-4.47c0-.18-.16-.37-.4-.33t0,0Z"/>
      <path class="cls-1" d="M89.23,244.14c.33,0,.58.21.58.5s-.25.5-.58.5-.59-.21-.59-.5.25-.5.59-.5ZM89.23,245.85c.79,0,1.42-.53,1.42-1.21s-.63-1.21-1.42-1.21-1.42.53-1.42,1.21.63,1.21,1.42,1.21Z"/>
      <path class="cls-2" d="M68.02,236.65h-3.27v-3.64h3.27v3.64ZM68.44,232.32h-4.12c-.25,0-.42.14-.42.36v4.36c0,.22.17.36.42.36h.64v3.97c0,.22.17.36.43.36s.42-.14.42-.36v-4h1.19v4c0,.22.17.36.43.36s.42-.14.42-.36v-4h.59c.25,0,.42-.14.42-.36v-4.36c0-.18-.17-.36-.42-.32t0,0Z"/>
      <path class="cls-2" d="M66.5,229.38c.33,0,.58.21.58.5s-.25.5-.58.5-.59-.21-.59-.5.25-.5.59-.5ZM66.5,231.09c.79,0,1.42-.53,1.42-1.21s-.63-1.21-1.42-1.21-1.42.53-1.42,1.21.63,1.21,1.42,1.21Z"/>
      <path class="cls-2" d="M79.38,236.65h-3.27v-3.64h3.27v3.64ZM79.81,232.32h-4.12c-.25,0-.42.14-.42.36v4.36c0,.22.17.36.42.36h.64v3.97c0,.22.17.36.43.36s.42-.14.42-.36v-4h1.19v4c0,.22.17.36.43.36s.42-.14.42-.36v-4h.59c.25,0,.42-.14.42-.36v-4.36c0-.18-.17-.36-.42-.32t0,0Z"/>
      <path class="cls-2" d="M77.86,229.38c.33,0,.58.21.58.5s-.25.5-.58.5-.59-.21-.59-.5.25-.5.59-.5ZM77.86,231.09c.79,0,1.42-.53,1.42-1.21s-.63-1.21-1.42-1.21-1.42.53-1.42,1.21.63,1.21,1.42,1.21Z"/>
      <path class="cls-2" d="M85.1,236.65h-3.12v-3.64h3.12v3.64ZM85.51,232.32h-3.93c-.24,0-.4.14-.4.36v4.36c0,.22.16.36.4.36h.61v3.97c0,.22.16.36.4.36s.4-.14.4-.36v-4h1.13v4c0,.22.16.36.4.36s.4-.14.4-.36v-4h.57c.24,0,.4-.14.4-.36v-4.36c0-.18-.16-.36-.4-.32t0,0Z"/>
      <path class="cls-2" d="M83.55,229.38c.33,0,.58.21.58.5s-.25.5-.58.5-.59-.21-.59-.5.25-.5.59-.5ZM83.55,231.09c.79,0,1.42-.53,1.42-1.21s-.63-1.21-1.42-1.21-1.42.53-1.42,1.21.63,1.21,1.42,1.21Z"/>
      <path class="cls-2" d="M96.47,236.65h-3.12v-3.64h3.12v3.64ZM96.87,232.32h-3.93c-.24,0-.4.14-.4.36v4.36c0,.22.16.36.4.36h.61v3.97c0,.22.16.36.4.36s.4-.14.4-.36v-4h1.13v4c0,.22.16.36.4.36s.4-.14.4-.36v-4h.57c.24,0,.4-.14.4-.36v-4.36c0-.18-.16-.36-.4-.32t0,0Z"/>
      <path class="cls-2" d="M94.91,229.38c.33,0,.58.21.58.5s-.25.5-.58.5-.59-.21-.59-.5.25-.5.59-.5ZM94.91,231.09c.79,0,1.42-.53,1.42-1.21s-.63-1.21-1.42-1.21-1.42.53-1.42,1.21.63,1.21,1.42,1.21Z"/>
      <path class="cls-2" d="M102.15,236.65h-3.12v-3.64h3.12v3.64ZM102.56,232.32h-3.93c-.24,0-.4.14-.4.36v4.36c0,.22.16.36.4.36h.61v3.97c0,.22.16.36.4.36s.4-.14.4-.36v-4h1.13v4c0,.22.16.36.4.36s.4-.14.4-.36v-4h.57c.24,0,.4-.14.4-.36v-4.36c0-.18-.16-.36-.4-.32t0,0Z"/>
      <path class="cls-2" d="M100.59,229.38c.33,0,.58.21.58.5s-.25.5-.58.5-.59-.21-.59-.5.25-.5.59-.5ZM100.59,231.09c.79,0,1.42-.53,1.42-1.21s-.63-1.21-1.42-1.21-1.42.53-1.42,1.21.63,1.21,1.42,1.21Z"/>
      <path class="cls-2" d="M68.02,251.28h-3.27v-3.73h3.27v3.73ZM68.44,246.84h-4.12c-.25,0-.42.15-.42.37v4.47c0,.22.17.37.42.37h.64v4.07c0,.22.17.37.43.37s.42-.15.42-.37v-4.1h1.19v4.1c0,.22.17.37.43.37s.42-.15.42-.37v-4.1h.59c.25,0,.42-.15.42-.37v-4.47c0-.18-.17-.37-.42-.33t0,0Z"/>
      <path class="cls-2" d="M66.5,244.14c.33,0,.58.21.58.5s-.25.5-.58.5-.59-.21-.59-.5.25-.5.59-.5ZM66.5,245.85c.79,0,1.42-.53,1.42-1.21s-.63-1.21-1.42-1.21-1.42.53-1.42,1.21.63,1.21,1.42,1.21Z"/>
      <path class="cls-2" d="M79.38,251.28h-3.27v-3.73h3.27v3.73ZM79.81,246.84h-4.12c-.25,0-.42.15-.42.37v4.47c0,.22.17.37.42.37h.64v4.07c0,.22.17.37.43.37s.42-.15.42-.37v-4.1h1.19v4.1c0,.22.17.37.43.37s.42-.15.42-.37v-4.1h.59c.25,0,.42-.15.42-.37v-4.47c0-.18-.17-.37-.42-.33t0,0Z"/>
      <path class="cls-2" d="M77.86,244.14c.33,0,.58.21.58.5s-.25.5-.58.5-.59-.21-.59-.5.25-.5.59-.5ZM77.86,245.85c.79,0,1.42-.53,1.42-1.21s-.63-1.21-1.42-1.21-1.42.53-1.42,1.21.63,1.21,1.42,1.21Z"/>
      <path class="cls-2" d="M96.47,251.28h-3.12v-3.73h3.12v3.73ZM96.87,246.84h-3.93c-.24,0-.4.15-.4.37v4.47c0,.22.16.37.4.37h.61v4.07c0,.22.16.37.4.37s.4-.15.4-.37v-4.1h1.13v4.1c0,.22.16.37.4.37s.4-.15.4-.37v-4.1h.57c.24,0,.4-.15.4-.37v-4.47c0-.18-.16-.37-.4-.33t0,0Z"/>
      <path class="cls-2" d="M94.91,244.14c.33,0,.58.21.58.5s-.25.5-.58.5-.59-.21-.59-.5.25-.5.59-.5ZM94.91,245.85c.79,0,1.42-.53,1.42-1.21s-.63-1.21-1.42-1.21-1.42.53-1.42,1.21.63,1.21,1.42,1.21Z"/>
      <path class="cls-2" d="M102.15,251.28h-3.12v-3.73h3.12v3.73ZM102.56,246.84h-3.93c-.24,0-.4.15-.4.37v4.47c0,.22.16.37.4.37h.61v4.07c0,.22.16.37.4.37s.4-.15.4-.37v-4.1h1.13v4.1c0,.22.16.37.4.37s.4-.15.4-.37v-4.1h.57c.24,0,.4-.15.4-.37v-4.47c0-.18-.16-.37-.4-.33t0,0Z"/>
      <path class="cls-2" d="M100.59,244.14c.33,0,.58.21.58.5s-.25.5-.58.5-.59-.21-.59-.5.25-.5.59-.5ZM100.59,245.85c.79,0,1.42-.53,1.42-1.21s-.63-1.21-1.42-1.21-1.42.53-1.42,1.21.63,1.21,1.42,1.21Z"/>
    </g>
  </g>
</svg>