<?xml version="1.0" encoding="UTF-8"?>
<svg id="Layer_2" data-name="Layer 2" xmlns="http://www.w3.org/2000/svg" viewBox="0 0 243.77 192.53">
  <defs>
    <style>
      .cls-1 {
        fill: #862580;
      }

      .cls-1, .cls-2, .cls-3 {
        stroke-width: 0px;
      }

      .cls-2 {
        fill: #fff;
      }

      .cls-3 {
        fill: #231f20;
      }
    </style>
  </defs>
  <g id="Layer_1-2" data-name="Layer 1">
    <g>
      <path class="cls-3" d="M75.03,15.84h1.04l4.47,9.88h-1.19l-1.15-2.59h-5.34l-1.16,2.59h-1.13l4.47-9.88ZM77.76,22.12l-2.23-5-2.24,5h4.47Z"/>
      <path class="cls-3" d="M81.48,22.12v-.03c0-2.04,1.6-3.78,3.71-3.78,1.37,0,2.23.57,2.9,1.29l-.71.76c-.57-.6-1.22-1.09-2.2-1.09-1.47,0-2.59,1.25-2.59,2.8v.03c0,1.57,1.15,2.82,2.66,2.82.92,0,1.64-.46,2.21-1.08l.69.64c-.73.81-1.6,1.4-2.96,1.4-2.12,0-3.71-1.72-3.71-3.75Z"/>
      <path class="cls-3" d="M89.92,15.48h1.08v4.24c.48-.78,1.23-1.41,2.48-1.41,1.75,0,2.77,1.18,2.77,2.9v4.5h-1.08v-4.23c0-1.34-.73-2.18-2-2.18s-2.17.91-2.17,2.27v4.15h-1.08v-10.23Z"/>
      <path class="cls-3" d="M98.57,15.69h1.23v1.19h-1.23v-1.19ZM98.64,18.47h1.08v7.24h-1.08v-7.24Z"/>
      <path class="cls-3" d="M101.78,22.11v-.03c0-2.09,1.47-3.77,3.47-3.77,2.14,0,3.38,1.71,3.38,3.82,0,.14,0,.22-.01.35h-5.74c.15,1.57,1.26,2.45,2.55,2.45.99,0,1.69-.41,2.28-1.02l.67.6c-.73.81-1.61,1.36-2.98,1.36-1.99,0-3.61-1.53-3.61-3.77ZM107.53,21.69c-.11-1.32-.87-2.46-2.31-2.46-1.26,0-2.21,1.05-2.35,2.46h4.66Z"/>
      <path class="cls-3" d="M109.45,18.47h1.19l2.44,6.01,2.45-6.01h1.16l-3.15,7.3h-.95l-3.14-7.3Z"/>
      <path class="cls-3" d="M117.51,22.11v-.03c0-2.09,1.47-3.77,3.47-3.77,2.14,0,3.38,1.71,3.38,3.82,0,.14,0,.22-.01.35h-5.74c.15,1.57,1.26,2.45,2.55,2.45.99,0,1.69-.41,2.28-1.02l.67.6c-.73.81-1.61,1.36-2.98,1.36-1.99,0-3.61-1.53-3.61-3.77ZM123.27,21.69c-.11-1.32-.87-2.46-2.31-2.46-1.26,0-2.21,1.05-2.35,2.46h4.66Z"/>
      <path class="cls-3" d="M131.53,24.32v1.39h-1.08v-10.23h1.08v4.44c.59-.87,1.44-1.61,2.77-1.61,1.74,0,3.46,1.37,3.46,3.75v.03c0,2.37-1.71,3.77-3.46,3.77-1.34,0-2.21-.73-2.77-1.54ZM136.66,22.11v-.03c0-1.71-1.18-2.8-2.55-2.8s-2.62,1.13-2.62,2.79v.03c0,1.68,1.27,2.8,2.62,2.8s2.55-1.04,2.55-2.79Z"/>
      <path class="cls-3" d="M139.3,22.11v-.03c0-2.09,1.47-3.77,3.47-3.77,2.14,0,3.38,1.71,3.38,3.82,0,.14,0,.22-.01.35h-5.74c.15,1.57,1.26,2.45,2.55,2.45.99,0,1.69-.41,2.28-1.02l.67.6c-.73.81-1.61,1.36-2.98,1.36-1.99,0-3.61-1.53-3.61-3.77ZM145.05,21.69c-.11-1.32-.87-2.46-2.31-2.46-1.26,0-2.21,1.05-2.35,2.46h4.66Z"/>
      <path class="cls-3" d="M148.41,23.79v-4.37h-1.01v-.95h1.01v-2.18h1.08v2.18h2.3v.95h-2.3v4.23c0,.88.49,1.21,1.22,1.21.36,0,.67-.07,1.05-.25v.92c-.38.2-.78.31-1.3.31-1.16,0-2.04-.57-2.04-2.04Z"/>
      <path class="cls-3" d="M154.07,23.79v-4.37h-1.01v-.95h1.01v-2.18h1.08v2.18h2.3v.95h-2.3v4.23c0,.88.49,1.21,1.22,1.21.36,0,.67-.07,1.05-.25v.92c-.38.2-.78.31-1.3.31-1.16,0-2.04-.57-2.04-2.04Z"/>
      <path class="cls-3" d="M158.69,22.11v-.03c0-2.09,1.47-3.77,3.47-3.77,2.14,0,3.38,1.71,3.38,3.82,0,.14,0,.22-.01.35h-5.74c.15,1.57,1.26,2.45,2.55,2.45.99,0,1.69-.41,2.28-1.02l.67.6c-.73.81-1.61,1.36-2.98,1.36-1.99,0-3.61-1.53-3.61-3.77ZM164.44,21.69c-.11-1.32-.87-2.46-2.31-2.46-1.26,0-2.21,1.05-2.35,2.46h4.66Z"/>
      <path class="cls-3" d="M167.42,18.47h1.08v1.89c.53-1.21,1.58-2.07,2.96-2.02v1.16h-.08c-1.58,0-2.87,1.13-2.87,3.32v2.89h-1.08v-7.24Z"/>
      <path class="cls-3" d="M176.84,22.12v-.03c0-2.04,1.6-3.78,3.78-3.78s3.77,1.71,3.77,3.75v.03c0,2.04-1.61,3.78-3.8,3.78s-3.75-1.71-3.75-3.75ZM183.29,22.12v-.03c0-1.55-1.16-2.83-2.69-2.83s-2.65,1.27-2.65,2.8v.03c0,1.55,1.15,2.82,2.68,2.82s2.66-1.26,2.66-2.79Z"/>
      <path class="cls-3" d="M186.23,22.97v-4.5h1.08v4.23c0,1.34.73,2.19,2,2.19s2.17-.91,2.17-2.27v-4.15h1.06v7.24h-1.06v-1.26c-.49.78-1.23,1.42-2.48,1.42-1.75,0-2.77-1.18-2.77-2.9Z"/>
      <path class="cls-3" d="M195.34,23.79v-4.37h-1.01v-.95h1.01v-2.18h1.08v2.18h2.3v.95h-2.3v4.23c0,.88.49,1.21,1.22,1.21.36,0,.67-.07,1.05-.25v.92c-.38.2-.78.31-1.3.31-1.16,0-2.04-.57-2.04-2.04Z"/>
      <path class="cls-3" d="M199.96,22.12v-.03c0-2.04,1.6-3.78,3.71-3.78,1.37,0,2.23.57,2.9,1.29l-.71.76c-.57-.6-1.22-1.09-2.2-1.09-1.47,0-2.59,1.25-2.59,2.8v.03c0,1.57,1.15,2.82,2.66,2.82.92,0,1.64-.46,2.21-1.08l.69.64c-.73.81-1.6,1.4-2.96,1.4-2.11,0-3.71-1.72-3.71-3.75Z"/>
      <path class="cls-3" d="M207.74,22.12v-.03c0-2.04,1.6-3.78,3.78-3.78s3.77,1.71,3.77,3.75v.03c0,2.04-1.61,3.78-3.8,3.78s-3.75-1.71-3.75-3.75ZM214.19,22.12v-.03c0-1.55-1.16-2.83-2.69-2.83s-2.65,1.27-2.65,2.8v.03c0,1.55,1.15,2.82,2.68,2.82s2.66-1.26,2.66-2.79Z"/>
      <path class="cls-3" d="M217.23,18.47h1.08v1.22c.48-.71,1.12-1.37,2.34-1.37s1.93.63,2.33,1.44c.52-.8,1.29-1.44,2.55-1.44,1.67,0,2.69,1.12,2.69,2.91v4.48h-1.08v-4.23c0-1.4-.7-2.18-1.88-2.18-1.09,0-2,.81-2,2.24v4.17h-1.06v-4.26c0-1.36-.71-2.16-1.86-2.16s-2.02.95-2.02,2.28v4.13h-1.08v-7.24Z"/>
      <path class="cls-3" d="M230.06,22.11v-.03c0-2.09,1.47-3.77,3.47-3.77,2.14,0,3.38,1.71,3.38,3.82,0,.14,0,.22-.01.35h-5.74c.15,1.57,1.26,2.45,2.55,2.45.99,0,1.69-.41,2.28-1.02l.67.6c-.73.81-1.61,1.36-2.98,1.36-1.99,0-3.61-1.53-3.61-3.77ZM235.82,21.69c-.11-1.32-.87-2.46-2.31-2.46-1.26,0-2.21,1.05-2.35,2.46h4.66Z"/>
      <path class="cls-3" d="M238.19,24.79l.55-.77c.78.59,1.65.92,2.51.92s1.5-.45,1.5-1.15v-.03c0-.73-.85-1.01-1.81-1.27-1.13-.32-2.4-.71-2.4-2.04v-.03c0-1.25,1.04-2.07,2.47-2.07.88,0,1.86.31,2.61.8l-.49.81c-.67-.43-1.44-.7-2.14-.7-.85,0-1.4.45-1.4,1.05v.03c0,.69.9.95,1.86,1.25,1.12.34,2.33.77,2.33,2.07v.03c0,1.37-1.13,2.17-2.58,2.17-1.04,0-2.19-.41-3-1.06Z"/>
      <path class="cls-3" d="M70.67,40.41v-.03c0-1.53,1.26-2.34,3.1-2.34.92,0,1.58.13,2.23.31v-.25c0-1.3-.8-1.98-2.16-1.98-.85,0-1.53.22-2.2.53l-.32-.88c.8-.36,1.58-.6,2.63-.6s1.81.27,2.34.8c.49.49.74,1.19.74,2.12v4.43h-1.04v-1.09c-.5.66-1.34,1.25-2.62,1.25-1.34,0-2.7-.77-2.7-2.26ZM76.01,39.85v-.7c-.53-.15-1.25-.31-2.13-.31-1.36,0-2.12.59-2.12,1.5v.03c0,.91.84,1.44,1.82,1.44,1.33,0,2.42-.81,2.42-1.96Z"/>
      <path class="cls-3" d="M79.73,36.22h-.99v-.94h.99v-.63c0-.83.22-1.46.63-1.86.36-.36.9-.56,1.55-.56.5,0,.84.06,1.19.18v.94c-.39-.11-.69-.18-1.05-.18-.84,0-1.26.5-1.26,1.54v.59h2.3v.92h-2.28v6.29h-1.08v-6.29Z"/>
      <path class="cls-3" d="M84.84,40.59v-4.37h-1.01v-.95h1.01v-2.18h1.08v2.18h2.3v.95h-2.3v4.23c0,.88.49,1.21,1.22,1.21.36,0,.67-.07,1.05-.25v.92c-.38.2-.78.31-1.3.31-1.16,0-2.04-.57-2.04-2.04Z"/>
      <path class="cls-3" d="M89.46,38.91v-.03c0-2.09,1.47-3.77,3.47-3.77,2.14,0,3.38,1.71,3.38,3.82,0,.14,0,.22-.01.35h-5.74c.15,1.57,1.26,2.45,2.55,2.45.99,0,1.69-.41,2.28-1.02l.67.6c-.73.81-1.61,1.36-2.98,1.36-1.99,0-3.61-1.53-3.61-3.77ZM95.21,38.49c-.11-1.32-.87-2.46-2.31-2.46-1.26,0-2.21,1.05-2.35,2.46h4.66Z"/>
      <path class="cls-3" d="M98.19,35.27h1.08v1.89c.53-1.21,1.58-2.07,2.96-2.02v1.16h-.08c-1.58,0-2.87,1.13-2.87,3.32v2.89h-1.08v-7.24Z"/>
      <path class="cls-3" d="M107.53,41.66l3.56-3.14c1.5-1.34,2.04-2.1,2.04-3.08,0-1.15-.91-1.88-1.98-1.88-1.12,0-1.85.59-2.63,1.68l-.81-.59c.88-1.32,1.81-2.09,3.53-2.09s3.04,1.18,3.04,2.77v.03c0,1.43-.76,2.31-2.48,3.81l-2.62,2.33h5.2v1.01h-6.85v-.85Z"/>
      <path class="cls-3" d="M117.33,41.68c-.78-.79-1.23-1.79-1.23-3.8v-.03c0-2.98,1.51-5.32,4.08-5.32,1.18,0,2.04.42,2.9,1.12l-.64.85c-.73-.62-1.42-.97-2.31-.97-1.89,0-2.89,1.99-2.89,4.2v.14c.64-.94,1.53-1.51,2.8-1.51,1.82,0,3.39,1.18,3.39,3.01v.03c0,1.89-1.53,3.26-3.52,3.26-1.08,0-1.96-.38-2.58-.99ZM122.29,39.46v-.03c0-1.2-.98-2.1-2.4-2.1s-2.45,1.05-2.45,2.14v.03c0,1.25,1.04,2.2,2.48,2.2s2.37-.99,2.37-2.24Z"/>
      <path class="cls-3" d="M129.09,35.27h1.15l1.91,5.81,1.95-5.84h.9l1.96,5.84,1.9-5.81h1.12l-2.55,7.3h-.94l-1.95-5.71-1.96,5.71h-.95l-2.54-7.3Z"/>
      <path class="cls-3" d="M140.96,38.91v-.03c0-2.09,1.47-3.77,3.47-3.77,2.14,0,3.38,1.71,3.38,3.82,0,.14,0,.22-.01.35h-5.74c.15,1.57,1.26,2.45,2.55,2.45.99,0,1.69-.41,2.28-1.02l.67.6c-.73.81-1.61,1.36-2.98,1.36-1.99,0-3.61-1.53-3.61-3.77ZM146.72,38.49c-.11-1.32-.87-2.46-2.31-2.46-1.26,0-2.21,1.05-2.35,2.46h4.66Z"/>
      <path class="cls-3" d="M149.25,38.91v-.03c0-2.09,1.47-3.77,3.47-3.77,2.14,0,3.38,1.71,3.38,3.82,0,.14,0,.22-.01.35h-5.74c.15,1.57,1.26,2.45,2.55,2.45.99,0,1.69-.41,2.28-1.02l.67.6c-.73.81-1.61,1.36-2.98,1.36-1.99,0-3.61-1.53-3.61-3.77ZM155.01,38.49c-.11-1.32-.87-2.46-2.31-2.46-1.26,0-2.21,1.05-2.35,2.46h4.66Z"/>
      <path class="cls-3" d="M157.99,32.28h1.08v7.06l3.91-4.08h1.34l-3.04,3.11,3.14,4.13h-1.29l-2.59-3.38-1.47,1.49v1.89h-1.08v-10.23Z"/>
      <path class="cls-3" d="M165.25,41.59l.55-.77c.78.59,1.65.92,2.51.92s1.5-.45,1.5-1.15v-.03c0-.73-.85-1.01-1.81-1.27-1.13-.32-2.4-.71-2.4-2.04v-.03c0-1.25,1.04-2.07,2.47-2.07.88,0,1.86.31,2.61.8l-.49.81c-.67-.43-1.44-.7-2.14-.7-.85,0-1.4.45-1.4,1.05v.03c0,.69.9.95,1.86,1.25,1.12.34,2.33.77,2.33,2.07v.03c0,1.37-1.13,2.17-2.58,2.17-1.04,0-2.19-.41-3-1.06Z"/>
      <path class="cls-3" d="M173.08,32.76l-1.08.33-.16-.52,1.4-.48h.47v5.75h-.64v-5.09Z"/>
    </g>
    <g>
      <path class="cls-3" d="M71.4,80.62h1.11v4.36h5.66v-4.36h1.11v9.81h-1.11v-4.41h-5.66v4.41h-1.11v-9.81Z"/>
      <path class="cls-3" d="M81.31,88.32v-.03c0-1.53,1.26-2.34,3.1-2.34.92,0,1.58.13,2.23.31v-.25c0-1.3-.8-1.98-2.16-1.98-.85,0-1.53.22-2.2.53l-.32-.88c.8-.36,1.58-.6,2.63-.6s1.81.27,2.34.8c.49.49.74,1.19.74,2.12v4.43h-1.04v-1.09c-.5.66-1.34,1.25-2.62,1.25-1.34,0-2.7-.77-2.7-2.26ZM86.65,87.76v-.7c-.53-.15-1.25-.31-2.13-.31-1.36,0-2.12.59-2.12,1.5v.03c0,.91.84,1.44,1.82,1.44,1.33,0,2.42-.81,2.42-1.96Z"/>
      <path class="cls-3" d="M88.97,83.18h1.19l2.44,6.01,2.45-6.01h1.16l-3.15,7.3h-.95l-3.14-7.3Z"/>
      <path class="cls-3" d="M97.03,86.83v-.03c0-2.09,1.47-3.77,3.47-3.77,2.14,0,3.38,1.71,3.38,3.82,0,.14,0,.22-.01.35h-5.74c.15,1.57,1.26,2.45,2.55,2.45.99,0,1.69-.41,2.28-1.02l.67.6c-.73.81-1.61,1.36-2.98,1.36-1.99,0-3.61-1.53-3.61-3.77ZM102.79,86.4c-.11-1.32-.87-2.46-2.31-2.46-1.26,0-2.21,1.05-2.35,2.46h4.66Z"/>
      <path class="cls-3" d="M109.42,88.32v-.03c0-1.53,1.26-2.34,3.1-2.34.92,0,1.58.13,2.23.31v-.25c0-1.3-.8-1.98-2.16-1.98-.85,0-1.53.22-2.2.53l-.32-.88c.8-.36,1.58-.6,2.63-.6s1.81.27,2.34.8c.49.49.74,1.19.74,2.12v4.43h-1.04v-1.09c-.5.66-1.34,1.25-2.62,1.25-1.34,0-2.7-.77-2.7-2.26ZM114.76,87.76v-.7c-.53-.15-1.25-.31-2.13-.31-1.36,0-2.12.59-2.12,1.5v.03c0,.91.84,1.44,1.82,1.44,1.33,0,2.42-.81,2.42-1.96Z"/>
      <path class="cls-3" d="M122.68,84.14h-.99v-.94h.99v-.63c0-.83.22-1.46.63-1.86.36-.36.9-.56,1.55-.56.5,0,.84.06,1.19.18v.94c-.39-.11-.69-.18-1.05-.18-.84,0-1.26.5-1.26,1.54v.59h2.3v.92h-2.28v6.29h-1.08v-6.29Z"/>
      <path class="cls-3" d="M126.65,88.32v-.03c0-1.53,1.26-2.34,3.1-2.34.92,0,1.58.13,2.23.31v-.25c0-1.3-.8-1.98-2.16-1.98-.85,0-1.53.22-2.2.53l-.32-.88c.8-.36,1.58-.6,2.63-.6s1.81.27,2.34.8c.49.49.74,1.19.74,2.12v4.43h-1.04v-1.09c-.5.66-1.34,1.25-2.62,1.25-1.34,0-2.7-.77-2.7-2.26ZM131.99,87.76v-.7c-.53-.15-1.25-.31-2.13-.31-1.36,0-2.12.59-2.12,1.5v.03c0,.91.84,1.44,1.82,1.44,1.33,0,2.42-.81,2.42-1.96Z"/>
      <path class="cls-3" d="M134.71,89.5l.55-.77c.78.59,1.65.92,2.51.92s1.5-.45,1.5-1.15v-.03c0-.73-.85-1.01-1.81-1.27-1.13-.32-2.4-.71-2.4-2.04v-.03c0-1.25,1.04-2.07,2.47-2.07.88,0,1.86.31,2.61.8l-.49.81c-.67-.43-1.44-.7-2.14-.7-.85,0-1.4.45-1.4,1.05v.03c0,.69.9.95,1.86,1.25,1.12.34,2.33.77,2.33,2.07v.03c0,1.37-1.13,2.17-2.58,2.17-1.04,0-2.19-.41-3-1.06Z"/>
      <path class="cls-3" d="M142.52,88.51v-4.37h-1.01v-.95h1.01v-2.18h1.08v2.18h2.3v.95h-2.3v4.23c0,.88.49,1.21,1.22,1.21.36,0,.67-.07,1.05-.25v.92c-.38.2-.78.31-1.3.31-1.16,0-2.04-.57-2.04-2.04Z"/>
      <path class="cls-3" d="M147.14,86.83v-.03c0-2.09,1.47-3.77,3.47-3.77,2.14,0,3.38,1.71,3.38,3.82,0,.14,0,.22-.01.35h-5.74c.15,1.57,1.26,2.45,2.55,2.45.99,0,1.69-.41,2.28-1.02l.67.6c-.73.81-1.61,1.36-2.98,1.36-1.99,0-3.61-1.53-3.61-3.77ZM152.89,86.4c-.11-1.32-.87-2.46-2.31-2.46-1.26,0-2.21,1.05-2.35,2.46h4.66Z"/>
      <path class="cls-3" d="M155.87,83.18h1.08v1.89c.53-1.21,1.58-2.07,2.96-2.02v1.16h-.08c-1.58,0-2.87,1.13-2.87,3.32v2.89h-1.08v-7.24Z"/>
      <path class="cls-3" d="M165.29,86.84v-.03c0-2.04,1.6-3.78,3.78-3.78s3.77,1.71,3.77,3.75v.03c0,2.04-1.61,3.78-3.8,3.78s-3.75-1.71-3.75-3.75ZM171.74,86.84v-.03c0-1.55-1.16-2.83-2.69-2.83s-2.65,1.27-2.65,2.8v.03c0,1.55,1.15,2.82,2.68,2.82s2.66-1.26,2.66-2.79Z"/>
      <path class="cls-3" d="M174.79,83.18h1.08v1.26c.48-.78,1.23-1.41,2.48-1.41,1.75,0,2.77,1.18,2.77,2.9v4.5h-1.08v-4.23c0-1.34-.73-2.18-2-2.18s-2.17.91-2.17,2.27v4.15h-1.08v-7.24Z"/>
      <path class="cls-3" d="M182.81,89.5l.55-.77c.78.59,1.65.92,2.51.92s1.5-.45,1.5-1.15v-.03c0-.73-.85-1.01-1.81-1.27-1.13-.32-2.4-.71-2.4-2.04v-.03c0-1.25,1.04-2.07,2.47-2.07.88,0,1.86.31,2.61.8l-.49.81c-.67-.43-1.44-.7-2.14-.7-.85,0-1.4.45-1.4,1.05v.03c0,.69.9.95,1.86,1.25,1.12.34,2.33.77,2.33,2.07v.03c0,1.37-1.13,2.17-2.58,2.17-1.04,0-2.19-.41-3-1.06Z"/>
      <path class="cls-3" d="M189.93,86.83v-.03c0-2.09,1.47-3.77,3.47-3.77,2.14,0,3.38,1.71,3.38,3.82,0,.14,0,.22-.01.35h-5.74c.15,1.57,1.26,2.45,2.55,2.45.99,0,1.69-.41,2.28-1.02l.67.6c-.73.81-1.61,1.36-2.98,1.36-1.99,0-3.61-1.53-3.61-3.77ZM195.69,86.4c-.11-1.32-.87-2.46-2.31-2.46-1.26,0-2.21,1.05-2.35,2.46h4.66Z"/>
      <path class="cls-3" d="M199.05,88.51v-4.37h-1.01v-.95h1.01v-2.18h1.08v2.18h2.3v.95h-2.3v4.23c0,.88.49,1.21,1.22,1.21.36,0,.67-.07,1.05-.25v.92c-.38.2-.78.31-1.3.31-1.16,0-2.04-.57-2.04-2.04Z"/>
      <path class="cls-3" d="M208.08,86.84v-.03c0-2.04,1.6-3.78,3.78-3.78s3.77,1.71,3.77,3.75v.03c0,2.04-1.61,3.78-3.8,3.78s-3.75-1.71-3.75-3.75ZM214.52,86.84v-.03c0-1.55-1.16-2.83-2.69-2.83s-2.65,1.27-2.65,2.8v.03c0,1.55,1.15,2.82,2.68,2.82s2.66-1.26,2.66-2.79Z"/>
      <path class="cls-3" d="M217.98,84.14h-.99v-.94h.99v-.63c0-.83.22-1.46.63-1.86.36-.36.9-.56,1.55-.56.5,0,.84.06,1.19.18v.94c-.39-.11-.69-.18-1.05-.18-.84,0-1.26.5-1.26,1.54v.59h2.3v.92h-2.28v6.29h-1.08v-6.29Z"/>
      <path class="cls-3" d="M70.67,105.12v-.03c0-1.53,1.26-2.34,3.1-2.34.92,0,1.58.13,2.23.31v-.25c0-1.3-.8-1.98-2.16-1.98-.85,0-1.53.22-2.2.53l-.32-.88c.8-.36,1.58-.6,2.63-.6s1.81.27,2.34.8c.49.49.74,1.19.74,2.12v4.43h-1.04v-1.09c-.5.66-1.34,1.25-2.62,1.25-1.34,0-2.7-.77-2.7-2.26ZM76.01,104.56v-.7c-.53-.15-1.25-.31-2.13-.31-1.36,0-2.12.59-2.12,1.5v.03c0,.91.84,1.44,1.82,1.44,1.33,0,2.42-.81,2.42-1.96Z"/>
      <path class="cls-3" d="M78.87,103.64v-.03c0-2.04,1.6-3.78,3.71-3.78,1.37,0,2.23.58,2.9,1.29l-.71.76c-.57-.6-1.22-1.09-2.2-1.09-1.47,0-2.59,1.25-2.59,2.8v.03c0,1.57,1.15,2.82,2.66,2.82.92,0,1.64-.46,2.21-1.08l.69.64c-.73.81-1.6,1.4-2.96,1.4-2.11,0-3.71-1.72-3.71-3.75Z"/>
      <path class="cls-3" d="M87.69,105.31v-4.37h-1.01v-.95h1.01v-2.18h1.08v2.18h2.3v.95h-2.3v4.23c0,.88.49,1.21,1.22,1.21.36,0,.67-.07,1.05-.25v.92c-.38.2-.78.31-1.3.31-1.16,0-2.04-.57-2.04-2.04Z"/>
      <path class="cls-3" d="M93,97.21h1.23v1.19h-1.23v-1.19ZM93.07,99.98h1.08v7.24h-1.08v-7.24Z"/>
      <path class="cls-3" d="M96.21,103.64v-.03c0-2.04,1.6-3.78,3.78-3.78s3.77,1.71,3.77,3.75v.03c0,2.05-1.61,3.78-3.8,3.78s-3.75-1.71-3.75-3.75ZM102.65,103.64v-.03c0-1.55-1.16-2.83-2.69-2.83s-2.65,1.27-2.65,2.8v.03c0,1.55,1.15,2.82,2.68,2.82s2.66-1.26,2.66-2.79Z"/>
      <path class="cls-3" d="M105.7,99.98h1.08v1.26c.48-.78,1.23-1.42,2.48-1.42,1.75,0,2.77,1.18,2.77,2.9v4.5h-1.08v-4.23c0-1.34-.73-2.18-2-2.18s-2.17.91-2.17,2.27v4.15h-1.08v-7.24Z"/>
      <path class="cls-3" d="M116.64,101.21h-3.01l-.16-.46,3.23-3.93h.56v3.86h.89v.54h-.89v1.36h-.62v-1.36ZM116.64,100.67v-2.95l-2.4,2.95h2.4Z"/>
    </g>
    <g>
      <path class="cls-3" d="M71.4,146.23h1.11v4.36h5.66v-4.36h1.11v9.81h-1.11v-4.41h-5.66v4.41h-1.11v-9.81Z"/>
      <path class="cls-3" d="M81.31,153.94v-.03c0-1.53,1.26-2.34,3.1-2.34.92,0,1.58.13,2.23.31v-.25c0-1.3-.8-1.98-2.16-1.98-.85,0-1.53.22-2.2.53l-.32-.88c.8-.36,1.58-.6,2.63-.6s1.81.27,2.34.8c.49.49.74,1.19.74,2.12v4.43h-1.04v-1.09c-.5.66-1.34,1.25-2.62,1.25-1.34,0-2.7-.77-2.7-2.26ZM86.65,153.38v-.7c-.53-.15-1.25-.31-2.13-.31-1.36,0-2.12.59-2.12,1.5v.03c0,.91.84,1.44,1.82,1.44,1.33,0,2.42-.81,2.42-1.96Z"/>
      <path class="cls-3" d="M88.97,148.8h1.19l2.44,6.01,2.45-6.01h1.16l-3.15,7.3h-.95l-3.14-7.3Z"/>
      <path class="cls-3" d="M97.03,152.44v-.03c0-2.09,1.47-3.77,3.47-3.77,2.14,0,3.38,1.71,3.38,3.82,0,.14,0,.22-.01.35h-5.74c.15,1.57,1.26,2.45,2.55,2.45.99,0,1.69-.41,2.28-1.02l.67.6c-.73.81-1.61,1.36-2.98,1.36-1.99,0-3.61-1.53-3.61-3.77ZM102.79,152.02c-.11-1.32-.87-2.46-2.31-2.46-1.26,0-2.21,1.05-2.35,2.46h4.66Z"/>
      <path class="cls-3" d="M110.37,149.75h-.99v-.94h.99v-.63c0-.83.22-1.46.63-1.86.36-.36.9-.56,1.55-.56.5,0,.84.06,1.19.18v.94c-.39-.11-.69-.18-1.05-.18-.84,0-1.26.5-1.26,1.54v.59h2.3v.92h-2.28v6.29h-1.08v-6.29Z"/>
      <path class="cls-3" d="M114.52,152.44v-.03c0-2.09,1.47-3.77,3.47-3.77,2.14,0,3.38,1.71,3.38,3.82,0,.14,0,.22-.01.35h-5.74c.15,1.57,1.26,2.45,2.55,2.45.99,0,1.69-.41,2.28-1.02l.67.6c-.73.81-1.61,1.36-2.98,1.36-1.99,0-3.61-1.53-3.61-3.77ZM120.27,152.02c-.11-1.32-.87-2.46-2.31-2.46-1.26,0-2.21,1.05-2.35,2.46h4.66Z"/>
      <path class="cls-3" d="M122.29,148.8h1.15l1.91,5.81,1.95-5.84h.9l1.96,5.84,1.9-5.81h1.12l-2.55,7.3h-.94l-1.95-5.71-1.96,5.71h-.95l-2.54-7.3Z"/>
      <path class="cls-3" d="M134.16,152.44v-.03c0-2.09,1.47-3.77,3.47-3.77,2.14,0,3.38,1.71,3.38,3.82,0,.14,0,.22-.01.35h-5.74c.15,1.57,1.26,2.45,2.55,2.45.99,0,1.69-.41,2.28-1.02l.67.6c-.73.81-1.61,1.36-2.98,1.36-1.99,0-3.61-1.53-3.61-3.77ZM139.92,152.02c-.11-1.32-.87-2.46-2.31-2.46-1.26,0-2.21,1.05-2.35,2.46h4.66Z"/>
      <path class="cls-3" d="M142.9,148.8h1.08v1.89c.53-1.21,1.58-2.07,2.96-2.02v1.16h-.08c-1.58,0-2.87,1.13-2.87,3.32v2.89h-1.08v-7.24Z"/>
      <path class="cls-3" d="M152.51,151.17v-.03c0-2.77,2.07-5.07,4.96-5.07,1.78,0,2.84.63,3.82,1.55l-.76.81c-.83-.78-1.75-1.34-3.08-1.34-2.17,0-3.8,1.77-3.8,4.02v.03c0,2.27,1.64,4.05,3.8,4.05,1.34,0,2.23-.52,3.17-1.42l.73.71c-1.02,1.04-2.14,1.72-3.92,1.72-2.83,0-4.92-2.23-4.92-5.04Z"/>
      <path class="cls-3" d="M163.34,146.23h3.4c3.08,0,5.21,2.12,5.21,4.88v.03c0,2.76-2.13,4.9-5.21,4.9h-3.4v-9.81ZM164.44,147.26v7.76h2.3c2.48,0,4.06-1.68,4.06-3.85v-.03c0-2.17-1.58-3.88-4.06-3.88h-2.3Z"/>
      <path class="cls-3" d="M173.81,151.26h3.89v1.13h-3.89v-1.13Z"/>
      <path class="cls-3" d="M179.81,148.8h1.08v1.89c.53-1.21,1.58-2.07,2.96-2.02v1.16h-.08c-1.58,0-2.87,1.13-2.87,3.32v2.89h-1.08v-7.24Z"/>
      <path class="cls-3" d="M184.73,152.44v-.03c0-2.09,1.47-3.77,3.47-3.77,2.14,0,3.38,1.71,3.38,3.82,0,.14,0,.22-.01.35h-5.74c.15,1.57,1.26,2.45,2.55,2.45.99,0,1.69-.41,2.28-1.02l.67.6c-.73.81-1.61,1.36-2.98,1.36-1.99,0-3.61-1.53-3.61-3.77ZM190.48,152.02c-.11-1.32-.87-2.46-2.31-2.46-1.26,0-2.21,1.05-2.35,2.46h4.66Z"/>
      <path class="cls-3" d="M193.56,145.82h1.08v10.23h-1.08v-10.23Z"/>
      <path class="cls-3" d="M196.6,153.94v-.03c0-1.53,1.26-2.34,3.1-2.34.92,0,1.58.13,2.23.31v-.25c0-1.3-.8-1.98-2.16-1.98-.85,0-1.53.22-2.2.53l-.32-.88c.8-.36,1.58-.6,2.63-.6s1.81.27,2.34.8c.49.49.74,1.19.74,2.12v4.43h-1.04v-1.09c-.5.66-1.34,1.25-2.62,1.25-1.34,0-2.7-.77-2.7-2.26ZM201.93,153.38v-.7c-.53-.15-1.25-.31-2.13-.31-1.36,0-2.12.59-2.12,1.5v.03c0,.91.84,1.44,1.82,1.44,1.33,0,2.42-.81,2.42-1.96Z"/>
      <path class="cls-3" d="M205.56,154.12v-4.37h-1.01v-.95h1.01v-2.18h1.08v2.18h2.3v.95h-2.3v4.23c0,.88.49,1.21,1.22,1.21.36,0,.67-.07,1.05-.25v.92c-.38.2-.78.31-1.3.31-1.16,0-2.04-.57-2.04-2.04Z"/>
      <path class="cls-3" d="M210.18,152.44v-.03c0-2.09,1.47-3.77,3.47-3.77,2.14,0,3.38,1.71,3.38,3.82,0,.14,0,.22-.01.35h-5.74c.15,1.57,1.26,2.45,2.55,2.45.99,0,1.69-.41,2.28-1.02l.67.6c-.73.81-1.61,1.36-2.98,1.36-1.99,0-3.61-1.53-3.61-3.77ZM215.94,152.02c-.11-1.32-.87-2.46-2.31-2.46-1.26,0-2.21,1.05-2.35,2.46h4.66Z"/>
      <path class="cls-3" d="M218.49,152.44v-.03c0-2.37,1.72-3.77,3.46-3.77,1.34,0,2.21.73,2.77,1.54v-4.37h1.08v10.23h-1.08v-1.46c-.59.87-1.44,1.61-2.77,1.61-1.74,0-3.46-1.37-3.46-3.75ZM224.77,152.43v-.03c0-1.67-1.27-2.79-2.62-2.79s-2.55,1.04-2.55,2.79v.03c0,1.71,1.18,2.8,2.55,2.8s2.62-1.13,2.62-2.8Z"/>
      <path class="cls-3" d="M70.61,171.92l.55-.77c.78.59,1.65.92,2.51.92s1.5-.45,1.5-1.15v-.03c0-.73-.85-1.01-1.81-1.27-1.13-.32-2.4-.71-2.4-2.04v-.03c0-1.25,1.04-2.07,2.47-2.07.88,0,1.86.31,2.61.8l-.49.81c-.67-.43-1.44-.7-2.14-.7-.85,0-1.4.45-1.4,1.05v.03c0,.69.9.95,1.86,1.25,1.12.34,2.33.77,2.33,2.07v.03c0,1.37-1.13,2.17-2.58,2.17-1.04,0-2.19-.41-3-1.06Z"/>
      <path class="cls-3" d="M78.08,170.1v-4.5h1.08v4.23c0,1.34.73,2.19,2,2.19s2.17-.91,2.17-2.27v-4.15h1.06v7.24h-1.06v-1.26c-.49.78-1.23,1.42-2.48,1.42-1.75,0-2.77-1.18-2.77-2.9Z"/>
      <path class="cls-3" d="M86.81,165.6h1.08v1.89c.53-1.21,1.58-2.07,2.96-2.02v1.16h-.08c-1.58,0-2.87,1.13-2.87,3.32v2.89h-1.08v-7.24Z"/>
      <path class="cls-3" d="M92.1,174.1l.49-.84c.83.6,1.75.92,2.79.92,1.6,0,2.63-.88,2.63-2.58v-.85c-.63.84-1.51,1.53-2.84,1.53-1.74,0-3.4-1.3-3.4-3.39v-.03c0-2.12,1.68-3.42,3.4-3.42,1.36,0,2.24.67,2.83,1.46v-1.3h1.08v5.98c0,1.12-.34,1.98-.92,2.56-.64.64-1.61.97-2.76.97-1.21,0-2.33-.34-3.29-1.01ZM98.04,168.88v-.03c0-1.48-1.29-2.45-2.66-2.45s-2.51.95-2.51,2.44v.03c0,1.46,1.16,2.47,2.51,2.47s2.66-1,2.66-2.45Z"/>
      <path class="cls-3" d="M101.04,169.24v-.03c0-2.09,1.47-3.77,3.47-3.77,2.14,0,3.38,1.71,3.38,3.82,0,.14,0,.22-.01.35h-5.74c.15,1.57,1.26,2.45,2.55,2.45.99,0,1.69-.41,2.28-1.02l.67.6c-.73.81-1.61,1.36-2.98,1.36-1.99,0-3.61-1.53-3.61-3.77ZM106.79,168.82c-.11-1.32-.87-2.46-2.31-2.46-1.26,0-2.21,1.05-2.35,2.46h4.66Z"/>
      <path class="cls-3" d="M109.77,165.6h1.08v1.89c.53-1.21,1.58-2.07,2.96-2.02v1.16h-.08c-1.58,0-2.87,1.13-2.87,3.32v2.89h-1.08v-7.24Z"/>
      <path class="cls-3" d="M115.47,162.82h1.23v1.19h-1.23v-1.19ZM115.54,165.6h1.08v7.24h-1.08v-7.24Z"/>
      <path class="cls-3" d="M118.67,169.24v-.03c0-2.09,1.47-3.77,3.47-3.77,2.14,0,3.38,1.71,3.38,3.82,0,.14,0,.22-.01.35h-5.74c.15,1.57,1.26,2.45,2.55,2.45.99,0,1.69-.41,2.28-1.02l.67.6c-.73.81-1.61,1.36-2.98,1.36-1.99,0-3.61-1.53-3.61-3.77ZM124.43,168.82c-.11-1.32-.87-2.46-2.31-2.46-1.26,0-2.21,1.05-2.35,2.46h4.66Z"/>
      <path class="cls-3" d="M126.81,171.92l.55-.77c.78.59,1.65.92,2.51.92s1.5-.45,1.5-1.15v-.03c0-.73-.85-1.01-1.81-1.27-1.13-.32-2.4-.71-2.4-2.04v-.03c0-1.25,1.04-2.07,2.47-2.07.88,0,1.86.31,2.61.8l-.49.81c-.67-.43-1.44-.7-2.14-.7-.85,0-1.4.45-1.4,1.05v.03c0,.69.9.95,1.86,1.25,1.12.34,2.33.77,2.33,2.07v.03c0,1.37-1.13,2.17-2.58,2.17-1.04,0-2.19-.41-3-1.06Z"/>
      <path class="cls-3" d="M133.61,167.37l.42-.46c.5.48,1.04.78,1.62.78.82,0,1.38-.54,1.38-1.26v-.02c0-.71-.59-1.2-1.42-1.2-.48,0-.87.15-1.2.33l-.43-.29.16-2.78h3.29v.6h-2.73l-.12,1.83c.33-.15.65-.25,1.13-.25,1.11,0,1.98.66,1.98,1.75v.02c0,1.12-.85,1.88-2.04,1.88-.82,0-1.53-.39-2.04-.91Z"/>
    </g>
    <circle class="cls-1" cx="30.65" cy="30.65" r="30.65"/>
    <circle class="cls-1" cx="30.65" cy="96.26" r="30.65"/>
    <circle class="cls-1" cx="30.65" cy="161.88" r="30.65"/>
    <g>
      <path class="cls-2" d="M47.22,176.85h-2.7v-13.27h1.31c.17,0,.32-.08.42-.21.1-.13.13-.3.09-.46l-2.34-8.87c-.06-.23-.27-.4-.51-.4h-4.72v-9.12c0-.45-.37-.82-.82-.82h-2.67c-.29,0-.53.24-.53.53s.24.53.53.53h2.43v13.84h-14.12v-13.84h9.31c.29,0,.53-.24.53-.53s-.24-.53-.53-.53h-9.56c-.45,0-.82.37-.82.82v9.12h-4.72c-.24,0-.45.16-.51.4l-2.34,8.87c-.04.16,0,.33.09.46.1.13.26.21.42.21h1.31v.54c0,.29.24.53.53.53s.53-.24.53-.53v-.54h25.61v13.27h-3.16v-10.25c0-.29-.24-.53-.53-.53h-18.3c-.29,0-.53.24-.53.53v10.25h-3.09v-10.45c0-.29-.24-.53-.53-.53s-.53.24-.53.53v10.45h-2.7c-.88,0-1.6.72-1.6,1.6s.72,1.6,1.6,1.6h25.68c.29,0,.53-.24.53-.53s-.24-.53-.53-.53H14.08c-.29,0-.53-.24-.53-.53s.24-.53.53-.53h33.13c.29,0,.53.24.53.53s-.24.53-.53.53h-5.21c-.29,0-.53.24-.53.53s.24.53.53.53h5.21c.88,0,1.6-.72,1.6-1.6s-.72-1.6-1.6-1.6h0ZM16.16,162.52l2.06-7.8h4.31v4.15c0,.45.37.82.82.82h14.62c.45,0,.82-.37.82-.82v-4.15h4.31l2.06,7.8h-28.98ZM35.69,167.13v9.72h-10.15v-9.72h10.15ZM21.99,176.85v-9.72h2.48v9.72h-2.48ZM36.75,176.85v-9.72h2.48v9.72h-2.48Z"/>
      <path class="cls-2" d="M32.55,148.18c0-.41-.33-.74-.74-.74h-2.33c-.41,0-.74.33-.74.74v1.44h-1.44c-.41,0-.74.33-.74.74v2.33c0,.41.33.74.74.74h1.44v1.44c0,.41.33.74.74.74h2.33c.41,0,.74-.33.74-.74v-1.44h1.44c.41,0,.74-.33.74-.74v-2.33c0-.41-.33-.74-.74-.74h-1.44v-1.44ZM33.66,150.69v1.67h-1.44c-.4,0-.73.33-.73.73v1.44h-1.67v-1.44c0-.4-.33-.73-.73-.73h-1.44v-1.67h1.44c.4,0,.73-.33.73-.73v-1.44h1.67v1.44c0,.4.33.73.73.73h1.44Z"/>
    </g>
    <g>
      <path class="cls-2" d="M45.85,81.03c-4.07-4.07-9.48-6.31-15.24-6.31s-11.17,2.24-15.24,6.31c-4.07,4.07-6.31,9.48-6.31,15.24s2.24,11.17,6.31,15.24c4.07,4.07,9.48,6.31,15.24,6.31s11.17-2.24,15.24-6.31c4.07-4.07,6.31-9.48,6.31-15.24s-2.24-11.17-6.31-15.24ZM44.96,110.61c-3.83,3.83-8.93,5.94-14.35,5.94s-10.51-2.11-14.35-5.94-5.94-8.93-5.94-14.35,2.11-10.51,5.94-14.35c3.83-3.83,8.93-5.94,14.35-5.94s10.51,2.11,14.35,5.94c3.83,3.83,5.94,8.93,5.94,14.35s-2.11,10.51-5.94,14.35Z"/>
      <path class="cls-2" d="M31.25,84.79v-2.7c0-.35-.28-.63-.63-.63s-.63.28-.63.63v2.7c0,.35.28.63.63.63s.63-.28.63-.63Z"/>
      <path class="cls-2" d="M29.98,107.74v2.7c0,.35.28.63.63.63s.63-.28.63-.63v-2.7c0-.35-.28-.63-.63-.63s-.63.28-.63.63Z"/>
      <path class="cls-2" d="M45.42,96.26c0-.35-.28-.63-.63-.63h-2.7c-.35,0-.63.28-.63.63s.28.63.63.63h2.7c.35,0,.63-.28.63-.63Z"/>
      <path class="cls-2" d="M16.44,95.63c-.35,0-.63.28-.63.63s.28.63.63.63h2.7c.35,0,.63-.28.63-.63s-.28-.63-.63-.63h-2.7Z"/>
      <path class="cls-2" d="M20.06,90.17c.17-.3.07-.69-.23-.86l-1.17-.67c-.3-.17-.69-.07-.86.23-.17.3-.07.69.23.86l1.17.67c.1.06.21.08.32.08.22,0,.43-.11.55-.32Z"/>
      <path class="cls-2" d="M42.03,102.13c-.3-.17-.69-.07-.86.23-.17.3-.07.69.23.86l1.17.67c.1.06.21.08.32.08.22,0,.43-.11.55-.32.17-.3.07-.69-.23-.86l-1.17-.67Z"/>
      <path class="cls-2" d="M37.02,85.79c.22,0,.43-.11.55-.32l.67-1.17c.17-.3.07-.69-.23-.86-.3-.17-.69-.07-.86.23l-.67,1.17c-.17.3-.07.69.23.86.1.06.21.08.32.08Z"/>
      <path class="cls-2" d="M23.66,107.05l-.67,1.17c-.17.3-.07.69.23.86.1.06.21.08.32.08.22,0,.43-.11.55-.32l.67-1.17c.17-.3.07-.69-.23-.86-.3-.17-.69-.07-.86.23Z"/>
      <path class="cls-2" d="M42.57,88.63l-1.17.67c-.3.17-.41.56-.23.86.12.2.33.32.55.32.11,0,.22-.03.32-.08l1.17-.67c.3-.17.41-.56.23-.86s-.56-.41-.86-.23Z"/>
      <path class="cls-2" d="M20.06,102.36c-.17-.3-.56-.41-.86-.23l-1.17.67c-.3.17-.41.56-.23.86.12.2.33.32.55.32.11,0,.22-.03.32-.08l1.17-.67c.3-.17.41-.56.23-.86Z"/>
      <path class="cls-2" d="M23.66,85.48c.12.2.33.32.55.32.11,0,.22-.03.32-.08.3-.17.41-.56.23-.86l-.67-1.17c-.17-.3-.56-.41-.86-.23-.3.17-.41.56-.23.86l.67,1.17Z"/>
      <path class="cls-2" d="M36.71,106.82c-.3.17-.41.56-.23.86l.67,1.17c.12.2.33.32.55.32.11,0,.22-.03.32-.08.3-.17.41-.56.23-.86l-.67-1.17c-.17-.3-.56-.41-.86-.23Z"/>
      <path class="cls-2" d="M40.01,94.82c-.05-.34-.37-.58-.72-.53l-6.92,1.06c-.33-.64-.99-1.07-1.76-1.07-.32,0-.62.07-.88.21l-6.77-6.77c-.25-.25-.65-.25-.89,0-.25.25-.25.65,0,.89l6.77,6.77c-.13.27-.21.56-.21.88,0,1.09.89,1.98,1.98,1.98.98,0,1.79-.71,1.95-1.64l6.92-1.06c.34-.05.58-.38.53-.72ZM30.61,96.98c-.4,0-.72-.32-.72-.72s.32-.72.72-.72.72.32.72.72-.32.72-.72.72Z"/>
      <path class="cls-2" d="M14.39,95.65c.15-4.1,1.84-7.97,4.74-10.87s6.77-4.59,10.87-4.74c4.08-.15,8.04,1.22,11.13,3.86.27.23.66.19.89-.07s.19-.66-.07-.89c-3.34-2.85-7.6-4.33-12-4.16-4.42.16-8.59,1.98-11.72,5.11-3.13,3.13-4.95,7.29-5.11,11.72-.16,4.4,1.32,8.66,4.16,12,.12.15.3.22.48.22.14,0,.29-.05.41-.15.27-.23.3-.62.07-.89-2.64-3.1-4.01-7.05-3.86-11.13Z"/>
      <path class="cls-2" d="M43.94,84.92c-.23-.27-.62-.3-.89-.07-.27.23-.3.62-.07.89,2.64,3.1,4.01,7.05,3.86,11.13-.15,4.1-1.84,7.97-4.74,10.87s-6.77,4.59-10.87,4.74c-4.08.15-8.04-1.22-11.13-3.86-.27-.23-.66-.19-.89.07-.23.27-.19.66.07.89,3.17,2.71,7.18,4.18,11.34,4.18.22,0,.44,0,.66-.01,4.42-.16,8.59-1.98,11.72-5.11s4.95-7.29,5.11-11.72c.16-4.4-1.32-8.66-4.16-12Z"/>
    </g>
    <path class="cls-2" d="M45.75,16.08h-.68v-2.09c0-1.09-.88-1.97-1.97-1.97s-1.97.88-1.97,1.97v2.09h-2.43v-2.09c0-1.09-.88-1.97-1.97-1.97s-1.97.88-1.97,1.97v2.09h-2.43v-2.09c0-1.09-.88-1.97-1.97-1.97s-1.97.88-1.97,1.97v2.09h-2.43v-2.09c0-1.09-.88-1.97-1.97-1.97s-1.97.88-1.97,1.97v2.09h-2.43v-2.09c0-1.09-.88-1.97-1.97-1.97s-1.97.88-1.97,1.97v2.09h-.68c-1.24,0-2.25,1.01-2.25,2.25v28.57c0,1.24,1.01,2.25,2.25,2.25h20.98c.3,0,.55-.25.55-.55s-.25-.55-.55-.55H14.99c-.64,0-1.16-.52-1.16-1.16v-23.43h6.99c.3,0,.55-.25.55-.55s-.25-.55-.55-.55h-6.99v-4.05c0-.64.52-1.16,1.16-1.16h.68v.81c0,1.09.88,1.97,1.97,1.97s1.97-.88,1.97-1.97v-.81h2.43v.81c0,1.09.88,1.97,1.97,1.97s1.97-.88,1.97-1.97v-.81h2.43v.81c0,1.09.88,1.97,1.97,1.97s1.97-.88,1.97-1.97v-.81h2.43v.81c0,1.09.88,1.97,1.97,1.97s1.97-.88,1.97-1.97v-.81h2.43v.81c0,1.09.88,1.97,1.97,1.97s1.97-.88,1.97-1.97v-.81h.68c.64,0,1.16.52,1.16,1.16v4.05h-23.9c-.3,0-.55.24-.55.55s.25.55.55.55h23.9v23.43c0,.64-.52,1.16-1.16,1.16h-7.59c-.3,0-.55.25-.55.55s.25.55.55.55h7.59c1.24,0,2.25-1.01,2.25-2.25v-28.57c0-1.24-1.01-2.25-2.25-2.25h0ZM18.51,17.98c0,.48-.39.87-.87.87s-.87-.39-.87-.87v-4c0-.48.39-.87.87-.87s.87.39.87.87v4ZM24.88,17.98c0,.48-.39.87-.87.87s-.87-.39-.87-.87v-4c0-.48.39-.87.87-.87s.87.39.87.87v4ZM31.25,17.98c0,.48-.39.87-.87.87s-.87-.39-.87-.87v-4c0-.48.39-.87.87-.87s.87.39.87.87v4ZM37.61,17.98c0,.48-.39.87-.87.87s-.87-.39-.87-.87v-4c0-.48.39-.87.87-.87s.87.39.87.87v4ZM43.98,17.98c0,.48-.39.87-.87.87s-.87-.39-.87-.87v-4c0-.48.39-.87.87-.87s.87.39.87.87v4Z"/>
    <g>
      <path class="cls-2" d="M16.06,38.9l3.26-2.68c1.22-1.01,1.69-1.54,1.69-2.35s-.55-1.28-1.32-1.28-1.27.42-2,1.32l-1.51-1.22c.97-1.32,1.9-2.03,3.66-2.03,2.03,0,3.38,1.19,3.38,3.03v.03c0,1.64-.84,2.45-2.58,3.8l-1.6,1.23h4.27v1.86h-7.26v-1.71Z"/>
      <path class="cls-2" d="M25.99,39.72c-.71-.71-1.16-1.76-1.16-3.71v-.03c0-3.03,1.37-5.35,4.3-5.35,1.33,0,2.2.39,3.07,1.08l-1.13,1.67c-.64-.49-1.16-.79-2-.79-1.47,0-1.91,1.42-1.98,2.27.52-.35,1.13-.63,2.03-.63,1.95,0,3.45,1.08,3.45,3.12v.03c0,2-1.61,3.39-3.74,3.39-1.27,0-2.14-.36-2.83-1.05ZM30.42,37.48v-.03c0-.83-.64-1.43-1.71-1.43s-1.68.59-1.68,1.41v.03c0,.83.64,1.46,1.71,1.46s1.68-.6,1.68-1.44Z"/>
      <path class="cls-2" d="M33.65,33.1h2.16l1.2,4.55,1.42-4.58h1.83l1.43,4.59,1.23-4.57h2.11l-2.34,7.56h-1.92l-1.44-4.61-1.47,4.61h-1.9l-2.31-7.56Z"/>
    </g>
  </g>
</svg>