<?xml version="1.0" encoding="UTF-8"?>
<svg id="Layer_2" data-name="Layer 2" xmlns="http://www.w3.org/2000/svg" viewBox="0 0 777.17 145.49">
  <defs>
    <style>
      .cls-1, .cls-2, .cls-3, .cls-4, .cls-5 {
        stroke-width: 0px;
      }

      .cls-1, .cls-4 {
        fill: #862580;
      }

      .cls-2 {
        fill: #fff;
      }

      .cls-2, .cls-4, .cls-5 {
        fill-rule: evenodd;
      }

      .cls-3, .cls-5 {
        fill: #d2c3ce;
      }
    </style>
  </defs>
  <g id="Layer_1-2" data-name="Layer 1">
    <g>
      <path class="cls-4" d="M730.53,53.47h-6.8v-8.66h6.8v8.66ZM731.41,43.18h-8.56c-.53,0-.88.34-.88.86v10.38c0,.51.35.86.88.86h1.32v9.44c0,.51.35.86.88.86s.88-.34.88-.86v-9.52h2.47v9.52c0,.51.35.86.88.86s.88-.34.88-.86v-9.52h1.24c.53,0,.88-.34.88-.86v-10.38c0-.43-.35-.86-.88-.77q0-.09,0,0Z"/>
      <path class="cls-4" d="M727.13,36.75c.69,0,1.2.52,1.2,1.2s-.52,1.2-1.2,1.2-1.2-.52-1.2-1.2.52-1.2,1.2-1.2ZM727.13,40.87c1.63,0,2.92-1.29,2.92-2.92s-1.29-2.92-2.92-2.92-2.92,1.29-2.92,2.92,1.29,2.92,2.92,2.92Z"/>
      <circle class="cls-3" cx="225.05" cy="50.52" r="50.52"/>
      <path class="cls-5" d="M672.11,51.64c0-27.78,22.52-50.3,50.3-50.3s50.3,22.52,50.3,50.3v.45c0,27.78-22.52,50.3-50.3,50.3s-50.3-22.52-50.3-50.3v-.45Z"/>
      <circle class="cls-3" cx="390.77" cy="50.52" r="50.52"/>
      <circle class="cls-3" cx="59.34" cy="50.52" r="50.52"/>
      <path class="cls-4" d="M225.05,65.04c-1.82,0-3.22-1.39-3.22-3.2s1.4-3.2,3.22-3.2,3.22,1.39,3.22,3.2c.14,1.81-1.4,3.2-3.22,3.2ZM226.45,55.99v-26.75c0-.84-.56-1.39-1.4-1.39s-1.4.56-1.4,1.39v26.75c-3.22.7-5.32,4.04-4.48,7.24.56,2.23,2.24,3.9,4.48,4.46v5.02c0,.84.56,1.39,1.4,1.39s1.4-.56,1.4-1.39v-5.02c3.22-.7,5.32-4.04,4.48-7.24-.42-2.23-2.24-4.04-4.48-4.46Z"/>
      <path class="cls-4" d="M211.13,43.31c-1.82,0-3.22-1.53-3.22-3.2,0-1.81,1.54-3.2,3.22-3.2,1.82,0,3.22,1.53,3.22,3.2,0,1.81-1.4,3.2-3.22,3.2ZM212.53,34.25v-5.02c0-.84-.56-1.39-1.4-1.39s-1.4.56-1.4,1.39v5.02c-3.22.7-5.32,4.04-4.48,7.24.56,2.23,2.24,3.9,4.48,4.46v26.75c0,.84.56,1.39,1.4,1.39s1.4-.56,1.4-1.39v-26.75c3.22-.7,5.32-4.04,4.48-7.24-.56-2.23-2.24-4.04-4.48-4.46Z"/>
      <path class="cls-4" d="M238.98,51.02c-1.82,0-3.22-1.38-3.22-3.17s1.4-3.17,3.22-3.17,3.22,1.38,3.22,3.17c0,1.66-1.4,3.17-3.22,3.17ZM240.38,41.92v-12.69c0-.83-.56-1.38-1.4-1.38s-1.4.55-1.4,1.38v12.69c-3.22.69-5.32,4-4.48,7.17.56,2.21,2.24,3.86,4.48,4.42v18.76c0,.83.56,1.38,1.4,1.38s1.4-.55,1.4-1.38v-18.76c3.22-.69,5.32-4,4.48-7.17-.56-2.07-2.24-3.86-4.48-4.41Z"/>
      <path class="cls-4" d="M391.09,56.78c-2.99,0-5.26-2.38-5.26-5.18,0-2.94,2.42-5.18,5.26-5.32,2.99,0,5.26,2.38,5.26,5.18,0,2.94-2.28,5.32-5.26,5.32ZM373.74,56.22c-1.71,0-3.13-1.4-3.13-3.08s1.42-3.08,3.13-3.08,3.13,1.4,3.13,3.08-1.42,3.08-3.13,3.08ZM407.03,31.59c1.71,0,3.13,1.4,3.13,3.08s-1.42,3.08-3.13,3.08-3.13-1.4-3.13-3.08,1.28-3.08,3.13-3.08c-.14,0,0,0,0,0ZM410.16,60.97c0,1.68-1.42,3.08-3.13,3.08s-3.13-1.4-3.13-3.08,1.42-3.08,3.13-3.08,3.13,1.4,3.13,3.08ZM386.12,71.47c-1.71,0-3.13-1.4-3.13-3.08s1.42-3.08,3.13-3.08,3.13,1.4,3.13,3.08-1.28,3.08-3.13,3.08ZM375.16,32.43c0-1.68,1.42-3.08,3.13-3.08s3.13,1.4,3.13,3.08-1.42,3.08-3.13,3.08-3.13-1.26-3.13-3.08ZM407.03,40.54c3.27,0,5.97-2.66,5.97-5.88s-2.7-5.88-5.97-5.88-5.97,2.66-5.97,5.88c0,1.26.43,2.38,1.14,3.5l-6.97,6.58c-2.28-1.4-5.12-1.54-7.4-.42l-4.98-7.84c2.28-2.38,2.13-6.16-.28-8.4-2.42-2.24-6.26-2.1-8.54.28-2.28,2.38-2.13,6.16.28,8.4,1.71,1.54,4.13,1.96,6.26,1.26l5.12,7.84c-1.42,1.26-2.28,3.08-2.42,4.9l-3.56.28c-1.14-3.08-4.69-4.48-7.82-3.36-3.13,1.12-4.55,4.62-3.41,7.7,1.14,3.08,4.69,4.48,7.82,3.36,2.13-.84,3.56-2.66,3.84-4.9l3.41-.28c.57,2.38,2.28,4.48,4.69,5.46l-1.14,3.64h-.43c-3.27,0-6.12,2.66-6.12,5.88s2.7,6.02,5.97,6.02,6.12-2.66,6.12-5.88c0-2.1-1.14-4.06-2.85-5.18l1.28-3.92h.43c2.7,0,5.26-1.4,6.83-3.64l3.84,2.38c-1.42,2.94-.14,6.44,2.7,7.84,2.85,1.4,6.54.14,7.97-2.66,1.42-2.94.14-6.44-2.7-7.84-.85-.42-1.71-.56-2.56-.56-1.28,0-2.42.42-3.56,1.12l-4.55-2.8c.14-.56.28-1.26.28-1.82,0-1.82-.71-3.64-1.85-5.04l6.97-6.72c.28.42,1.14.7,2.13.7Z"/>
      <path class="cls-4" d="M73.24,43.52h-4.43v-4.85h4.43v4.85ZM73.81,37.76h-5.58c-.35,0-.58.19-.58.48v5.81c0,.29.23.48.58.48h.86v5.28c0,.29.23.48.58.48s.58-.19.58-.48v-5.33h1.61v5.33c0,.29.23.48.58.48s.58-.19.58-.48v-5.33h.81c.35,0,.58-.19.58-.48v-5.81c0-.24-.23-.48-.58-.43t0,0Z"/>
      <path class="cls-4" d="M71.02,34.16c.48,0,.83.28.83.65s-.36.65-.83.65-.83-.28-.83-.65.36-.65.83-.65ZM71.02,36.38c1.13,0,2.02-.69,2.02-1.57s-.89-1.57-2.02-1.57-2.02.69-2.02,1.57.89,1.57,2.02,1.57Z"/>
      <path class="cls-4" d="M80.5,43.52h-4.14v-4.85h4.14v4.85ZM81.04,37.76h-5.21c-.32,0-.54.19-.54.48v5.81c0,.29.21.48.54.48h.81v5.28c0,.29.21.48.54.48s.54-.19.54-.48v-5.33h1.5v5.33c0,.29.22.48.54.48s.54-.19.54-.48v-5.33h.75c.32,0,.54-.19.54-.48v-5.81c0-.24-.21-.48-.54-.43t0,0Z"/>
      <path class="cls-4" d="M78.43,34.16c.42,0,.74.28.74.65s-.32.65-.74.65-.74-.28-.74-.65.32-.65.74-.65ZM78.43,36.38c1,0,1.8-.69,1.8-1.57s-.79-1.57-1.8-1.57-1.8.69-1.8,1.57.79,1.57,1.8,1.57Z"/>
      <path class="cls-4" d="M88.13,43.52h-4.14v-4.85h4.14v4.85ZM88.67,37.76h-5.21c-.32,0-.54.19-.54.48v5.81c0,.29.21.48.54.48h.81v5.28c0,.29.21.48.54.48s.54-.19.54-.48v-5.33h1.5v5.33c0,.29.22.48.54.48s.54-.19.54-.48v-5.33h.75c.32,0,.54-.19.54-.48v-5.81c0-.24-.21-.48-.54-.43t0,0Z"/>
      <path class="cls-4" d="M86.06,34.16c.42,0,.74.28.74.65s-.32.65-.74.65-.74-.28-.74-.65.32-.65.74-.65ZM86.06,36.38c1,0,1.8-.69,1.8-1.57s-.79-1.57-1.8-1.57-1.8.69-1.8,1.57.79,1.57,1.8,1.57Z"/>
      <path class="cls-4" d="M103.4,43.52h-4.14v-4.85h4.14v4.85ZM103.94,37.76h-5.21c-.32,0-.54.19-.54.48v5.81c0,.29.21.48.54.48h.81v5.28c0,.29.22.48.54.48s.54-.19.54-.48v-5.33h1.5v5.33c0,.29.22.48.54.48s.54-.19.54-.48v-5.33h.75c.32,0,.54-.19.54-.48v-5.81c0-.24-.21-.48-.54-.43t0,0Z"/>
      <path class="cls-4" d="M101.33,34.16c.42,0,.74.28.74.65s-.32.65-.74.65-.74-.28-.74-.65.32-.65.74-.65ZM101.33,36.38c1,0,1.8-.69,1.8-1.57s-.79-1.57-1.8-1.57-1.8.69-1.8,1.57.79,1.57,1.8,1.57Z"/>
      <path class="cls-4" d="M27.96,43.52h-4.14v-4.85h4.14v4.85ZM28.49,37.76h-5.21c-.32,0-.54.19-.54.48v5.81c0,.29.21.48.54.48h.81v5.28c0,.29.21.48.54.48s.54-.19.54-.48v-5.33h1.5v5.33c0,.29.22.48.54.48s.54-.19.54-.48v-5.33h.75c.32,0,.54-.19.54-.48v-5.81c0-.24-.21-.48-.54-.43t0,0Z"/>
      <path class="cls-4" d="M25.89,34.16c.42,0,.74.28.74.65s-.32.65-.74.65-.74-.28-.74-.65.32-.65.74-.65ZM25.89,36.38c1,0,1.8-.69,1.8-1.57s-.79-1.57-1.8-1.57-1.8.69-1.8,1.57.79,1.57,1.8,1.57Z"/>
      <path class="cls-4" d="M50.41,43.52h-4.14v-4.85h4.14v4.85ZM50.95,37.76h-5.21c-.32,0-.54.19-.54.48v5.81c0,.29.21.48.54.48h.81v5.28c0,.29.21.48.54.48s.54-.19.54-.48v-5.33h1.5v5.33c0,.29.22.48.54.48s.54-.19.54-.48v-5.33h.75c.32,0,.54-.19.54-.48v-5.81c0-.24-.21-.48-.54-.43t0,0Z"/>
      <path class="cls-4" d="M48.34,34.16c.42,0,.74.28.74.65s-.32.65-.74.65-.74-.28-.74-.65.32-.65.74-.65ZM48.34,36.38c1,0,1.8-.69,1.8-1.57s-.79-1.57-1.8-1.57-1.8.69-1.8,1.57.79,1.57,1.8,1.57Z"/>
      <path class="cls-4" d="M27.96,62.83h-4.14v-4.85h4.14v4.85ZM28.49,57.07h-5.21c-.32,0-.54.19-.54.48v5.81c0,.29.21.48.54.48h.81v5.28c0,.29.21.48.54.48s.54-.19.54-.48v-5.33h1.5v5.33c0,.29.22.48.54.48s.54-.19.54-.48v-5.33h.75c.32,0,.54-.19.54-.48v-5.81c0-.24-.21-.48-.54-.43t0,0Z"/>
      <path class="cls-4" d="M25.89,53.47c.42,0,.74.28.74.65s-.32.65-.74.65-.74-.28-.74-.65.32-.65.74-.65ZM25.89,55.69c1,0,1.8-.69,1.8-1.57s-.79-1.57-1.8-1.57-1.8.69-1.8,1.57.79,1.57,1.8,1.57Z"/>
      <path class="cls-4" d="M43.15,62.83h-4.43v-4.85h4.43v4.85ZM43.72,57.07h-5.58c-.35,0-.58.19-.58.48v5.81c0,.29.23.48.58.48h.86v5.28c0,.29.23.48.58.48s.58-.19.58-.48v-5.33h1.61v5.33c0,.29.23.48.58.48s.58-.19.58-.48v-5.33h.81c.35,0,.58-.19.58-.48v-5.81c0-.24-.23-.48-.58-.43t0,0Z"/>
      <path class="cls-4" d="M40.93,53.47c.48,0,.83.28.83.65s-.36.65-.83.65-.83-.28-.83-.65.36-.65.83-.65ZM40.93,55.69c1.13,0,2.02-.69,2.02-1.57s-.89-1.57-2.02-1.57-2.02.69-2.02,1.57.89,1.57,2.02,1.57Z"/>
      <path class="cls-4" d="M50.41,62.83h-4.14v-4.85h4.14v4.85ZM50.95,57.07h-5.21c-.32,0-.54.19-.54.48v5.81c0,.29.21.48.54.48h.81v5.28c0,.29.21.48.54.48s.54-.19.54-.48v-5.33h1.5v5.33c0,.29.22.48.54.48s.54-.19.54-.48v-5.33h.75c.32,0,.54-.19.54-.48v-5.81c0-.24-.21-.48-.54-.43t0,0Z"/>
      <path class="cls-4" d="M48.34,53.47c.42,0,.74.28.74.65s-.32.65-.74.65-.74-.28-.74-.65.32-.65.74-.65ZM48.34,55.69c1,0,1.8-.69,1.8-1.57s-.79-1.57-1.8-1.57-1.8.69-1.8,1.57.79,1.57,1.8,1.57Z"/>
      <path class="cls-4" d="M88.13,62.83h-4.14v-4.85h4.14v4.85ZM88.67,57.07h-5.21c-.32,0-.54.19-.54.48v5.81c0,.29.21.48.54.48h.81v5.28c0,.29.21.48.54.48s.54-.19.54-.48v-5.33h1.5v5.33c0,.29.22.48.54.48s.54-.19.54-.48v-5.33h.75c.32,0,.54-.19.54-.48v-5.81c0-.24-.21-.48-.54-.43t0,0Z"/>
      <path class="cls-4" d="M86.06,53.47c.42,0,.74.28.74.65s-.32.65-.74.65-.74-.28-.74-.65.32-.65.74-.65ZM86.06,55.69c1,0,1.8-.69,1.8-1.57s-.79-1.57-1.8-1.57-1.8.69-1.8,1.57.79,1.57,1.8,1.57Z"/>
      <path class="cls-4" d="M95.77,62.83h-4.14v-4.85h4.14v4.85ZM96.31,57.07h-5.21c-.32,0-.54.19-.54.48v5.81c0,.29.21.48.54.48h.81v5.28c0,.29.21.48.54.48s.54-.19.54-.48v-5.33h1.5v5.33c0,.29.22.48.54.48s.54-.19.54-.48v-5.33h.75c.32,0,.54-.19.54-.48v-5.81c0-.24-.21-.48-.54-.43t0,0Z"/>
      <path class="cls-4" d="M93.7,53.47c.42,0,.74.28.74.65s-.32.65-.74.65-.74-.28-.74-.65.32-.65.74-.65ZM93.7,55.69c1,0,1.8-.69,1.8-1.57s-.79-1.57-1.8-1.57-1.8.69-1.8,1.57.79,1.57,1.8,1.57Z"/>
      <path class="cls-2" d="M20.32,57.65h-4.14v-4.85h4.14v4.85ZM20.86,51.88h-5.21c-.32,0-.54.19-.54.48v5.81c0,.29.21.48.54.48h.81v5.28c0,.29.21.48.54.48s.54-.19.54-.48v-5.33h1.5v5.33c0,.29.22.48.54.48s.54-.19.54-.48v-5.33h.75c.32,0,.54-.19.54-.48v-5.81c0-.24-.21-.48-.54-.43t0,0Z"/>
      <path class="cls-2" d="M18.25,48.28c.42,0,.74.28.74.65s-.32.65-.74.65-.74-.28-.74-.65.32-.65.74-.65ZM18.25,50.5c1,0,1.8-.69,1.8-1.57s-.79-1.57-1.8-1.57-1.8.69-1.8,1.57.79,1.57,1.8,1.57Z"/>
      <path class="cls-2" d="M35.51,43.52h-4.43v-4.85h4.43v4.85ZM36.09,37.76h-5.58c-.35,0-.58.19-.58.48v5.81c0,.29.23.48.58.48h.86v5.28c0,.29.23.48.58.48s.58-.19.58-.48v-5.33h1.61v5.33c0,.29.23.48.58.48s.58-.19.58-.48v-5.33h.81c.35,0,.58-.19.58-.48v-5.81c0-.24-.23-.48-.58-.43t0,0Z"/>
      <path class="cls-2" d="M33.52,34.16c.42,0,.74.28.74.65s-.32.65-.74.65-.74-.28-.74-.65.32-.65.74-.65ZM33.52,36.38c1,0,1.8-.69,1.8-1.57s-.79-1.57-1.8-1.57-1.8.69-1.8,1.57.79,1.57,1.8,1.57Z"/>
      <path class="cls-2" d="M43.15,43.52h-4.43v-4.85h4.43v4.85ZM43.72,37.76h-5.58c-.35,0-.58.19-.58.48v5.81c0,.29.23.48.58.48h.86v5.28c0,.29.23.48.58.48s.58-.19.58-.48v-5.33h1.61v5.33c0,.29.23.48.58.48s.58-.19.58-.48v-5.33h.81c.35,0,.58-.19.58-.48v-5.81c0-.24-.23-.48-.58-.43t0,0Z"/>
      <path class="cls-2" d="M40.93,34.16c.48,0,.83.28.83.65s-.36.65-.83.65-.83-.28-.83-.65.36-.65.83-.65ZM40.93,36.38c1.13,0,2.02-.69,2.02-1.57s-.89-1.57-2.02-1.57-2.02.69-2.02,1.57.89,1.57,2.02,1.57Z"/>
      <path class="cls-2" d="M58.04,43.52h-4.14v-4.85h4.14v4.85ZM58.58,37.76h-5.21c-.32,0-.54.19-.54.48v5.81c0,.29.21.48.54.48h.81v5.28c0,.29.21.48.54.48s.54-.19.54-.48v-5.33h1.5v5.33c0,.29.22.48.54.48s.54-.19.54-.48v-5.33h.75c.32,0,.54-.19.54-.48v-5.81c0-.24-.21-.48-.54-.43t0,0Z"/>
      <path class="cls-2" d="M55.98,34.16c.42,0,.74.28.74.65s-.32.65-.74.65-.74-.28-.74-.65.32-.65.74-.65ZM55.98,36.38c1,0,1.8-.69,1.8-1.57s-.79-1.57-1.8-1.57-1.8.69-1.8,1.57.79,1.57,1.8,1.57Z"/>
      <path class="cls-2" d="M65.68,43.52h-4.14v-4.85h4.14v4.85ZM66.22,37.76h-5.21c-.32,0-.54.19-.54.48v5.81c0,.29.21.48.54.48h.81v5.28c0,.29.21.48.54.48s.54-.19.54-.48v-5.33h1.5v5.33c0,.29.22.48.54.48s.54-.19.54-.48v-5.33h.75c.32,0,.54-.19.54-.48v-5.81c0-.24-.21-.48-.54-.43t0,0Z"/>
      <path class="cls-2" d="M63.61,34.16c.42,0,.74.28.74.65s-.32.65-.74.65-.74-.28-.74-.65.32-.65.74-.65ZM63.61,36.38c1,0,1.8-.69,1.8-1.57s-.79-1.57-1.8-1.57-1.8.69-1.8,1.57.79,1.57,1.8,1.57Z"/>
      <path class="cls-2" d="M95.77,43.52h-4.14v-4.85h4.14v4.85ZM96.31,37.76h-5.21c-.32,0-.54.19-.54.48v5.81c0,.29.21.48.54.48h.81v5.28c0,.29.21.48.54.48s.54-.19.54-.48v-5.33h1.5v5.33c0,.29.22.48.54.48s.54-.19.54-.48v-5.33h.75c.32,0,.54-.19.54-.48v-5.81c0-.24-.21-.48-.54-.43t0,0Z"/>
      <path class="cls-2" d="M93.7,34.16c.42,0,.74.28.74.65s-.32.65-.74.65-.74-.28-.74-.65.32-.65.74-.65ZM93.7,36.38c1,0,1.8-.69,1.8-1.57s-.79-1.57-1.8-1.57-1.8.69-1.8,1.57.79,1.57,1.8,1.57Z"/>
      <path class="cls-2" d="M20.32,76.96h-4.14v-4.85h4.14v4.85ZM20.86,71.19h-5.21c-.32,0-.54.19-.54.48v5.81c0,.29.21.48.54.48h.81v5.28c0,.29.21.48.54.48s.54-.19.54-.48v-5.33h1.5v5.33c0,.29.22.48.54.48s.54-.19.54-.48v-5.33h.75c.32,0,.54-.19.54-.48v-5.81c0-.24-.21-.48-.54-.43t0,0Z"/>
      <path class="cls-2" d="M18.25,67.59c.42,0,.74.28.74.65s-.32.65-.74.65-.74-.28-.74-.65.32-.65.74-.65ZM18.25,69.81c1,0,1.8-.69,1.8-1.57s-.79-1.57-1.8-1.57-1.8.69-1.8,1.57.79,1.57,1.8,1.57Z"/>
      <path class="cls-2" d="M35.51,62.83h-4.43v-4.85h4.43v4.85ZM36.09,57.07h-5.58c-.35,0-.58.19-.58.48v5.81c0,.29.23.48.58.48h.86v5.28c0,.29.23.48.58.48s.58-.19.58-.48v-5.33h1.61v5.33c0,.29.23.48.58.48s.58-.19.58-.48v-5.33h.81c.35,0,.58-.19.58-.48v-5.81c0-.24-.23-.48-.58-.43t0,0Z"/>
      <path class="cls-2" d="M33.52,53.47c.42,0,.74.28.74.65s-.32.65-.74.65-.74-.28-.74-.65.32-.65.74-.65ZM33.52,55.69c1,0,1.8-.69,1.8-1.57s-.79-1.57-1.8-1.57-1.8.69-1.8,1.57.79,1.57,1.8,1.57Z"/>
      <path class="cls-2" d="M58.04,62.83h-4.14v-4.85h4.14v4.85ZM58.58,57.07h-5.21c-.32,0-.54.19-.54.48v5.81c0,.29.21.48.54.48h.81v5.28c0,.29.21.48.54.48s.54-.19.54-.48v-5.33h1.5v5.33c0,.29.22.48.54.48s.54-.19.54-.48v-5.33h.75c.32,0,.54-.19.54-.48v-5.81c0-.24-.21-.48-.54-.43t0,0Z"/>
      <path class="cls-2" d="M55.98,53.47c.42,0,.74.28.74.65s-.32.65-.74.65-.74-.28-.74-.65.32-.65.74-.65ZM55.98,55.69c1,0,1.8-.69,1.8-1.57s-.79-1.57-1.8-1.57-1.8.69-1.8,1.57.79,1.57,1.8,1.57Z"/>
      <path class="cls-2" d="M65.68,62.83h-4.14v-4.85h4.14v4.85ZM66.22,57.07h-5.21c-.32,0-.54.19-.54.48v5.81c0,.29.21.48.54.48h.81v5.28c0,.29.21.48.54.48s.54-.19.54-.48v-5.33h1.5v5.33c0,.29.22.48.54.48s.54-.19.54-.48v-5.33h.75c.32,0,.54-.19.54-.48v-5.81c0-.24-.21-.48-.54-.43t0,0Z"/>
      <path class="cls-2" d="M63.61,53.47c.42,0,.74.28.74.65s-.32.65-.74.65-.74-.28-.74-.65.32-.65.74-.65ZM63.61,55.69c1,0,1.8-.69,1.8-1.57s-.79-1.57-1.8-1.57-1.8.69-1.8,1.57.79,1.57,1.8,1.57Z"/>
      <path class="cls-2" d="M73.24,62.83h-4.43v-4.85h4.43v4.85ZM73.81,57.07h-5.58c-.35,0-.58.19-.58.48v5.81c0,.29.23.48.58.48h.86v5.28c0,.29.23.48.58.48s.58-.19.58-.48v-5.33h1.61v5.33c0,.29.23.48.58.48s.58-.19.58-.48v-5.33h.81c.35,0,.58-.19.58-.48v-5.81c0-.24-.23-.48-.58-.43t0,0Z"/>
      <path class="cls-2" d="M71.02,53.47c.48,0,.83.28.83.65s-.36.65-.83.65-.83-.28-.83-.65.36-.65.83-.65ZM71.02,55.69c1.13,0,2.02-.69,2.02-1.57s-.89-1.57-2.02-1.57-2.02.69-2.02,1.57.89,1.57,2.02,1.57Z"/>
      <path class="cls-2" d="M80.5,62.83h-4.14v-4.85h4.14v4.85ZM81.04,57.07h-5.21c-.32,0-.54.19-.54.48v5.81c0,.29.21.48.54.48h.81v5.28c0,.29.21.48.54.48s.54-.19.54-.48v-5.33h1.5v5.33c0,.29.22.48.54.48s.54-.19.54-.48v-5.33h.75c.32,0,.54-.19.54-.48v-5.81c0-.24-.21-.48-.54-.43t0,0Z"/>
      <path class="cls-2" d="M78.43,53.47c.42,0,.74.28.74.65s-.32.65-.74.65-.74-.28-.74-.65.32-.65.74-.65ZM78.43,55.69c1,0,1.8-.69,1.8-1.57s-.79-1.57-1.8-1.57-1.8.69-1.8,1.57.79,1.57,1.8,1.57Z"/>
      <path class="cls-2" d="M103.4,62.83h-4.14v-4.85h4.14v4.85ZM103.94,57.07h-5.21c-.32,0-.54.19-.54.48v5.81c0,.29.21.48.54.48h.81v5.28c0,.29.22.48.54.48s.54-.19.54-.48v-5.33h1.5v5.33c0,.29.22.48.54.48s.54-.19.54-.48v-5.33h.75c.32,0,.54-.19.54-.48v-5.81c0-.24-.21-.48-.54-.43t0,0Z"/>
      <path class="cls-2" d="M101.33,53.47c.42,0,.74.28.74.65s-.32.65-.74.65-.74-.28-.74-.65.32-.65.74-.65ZM101.33,55.69c1,0,1.8-.69,1.8-1.57s-.79-1.57-1.8-1.57-1.8.69-1.8,1.57.79,1.57,1.8,1.57Z"/>
      <path class="cls-5" d="M505.06,50.3c0-27.78,22.52-50.3,50.3-50.3s50.3,22.52,50.3,50.3v.45c0,27.78-22.52,50.3-50.3,50.3s-50.3-22.52-50.3-50.3v-.45Z"/>
      <path class="cls-2" d="M718.48,53.47h-6.5v-8.66h6.5v8.66ZM719.32,43.18h-8.19c-.51,0-.84.34-.84.86v10.38c0,.51.34.86.84.86h1.27v9.44c0,.51.34.86.84.86s.84-.34.84-.86v-9.52h2.36v9.52c0,.51.34.86.84.86s.84-.34.84-.86v-9.52h1.18c.51,0,.84-.34.84-.86v-10.38c0-.43-.34-.86-.84-.77q0-.09,0,0Z"/>
      <path class="cls-2" d="M715.45,36.75c.69,0,1.2.52,1.2,1.2s-.52,1.2-1.2,1.2-1.2-.52-1.2-1.2.52-1.2,1.2-1.2ZM715.45,40.87c1.63,0,2.92-1.29,2.92-2.92s-1.29-2.92-2.92-2.92-2.92,1.29-2.92,2.92,1.29,2.92,2.92,2.92Z"/>
      <path class="cls-4" d="M721.39,29.64c11.58,0,20.98,9.43,20.98,20.99,0,5.14-1.88,9.87-4.99,13.53l9.72,9.73-2.44,2.44-9.71-9.73c-3.66,3.12-8.39,5.01-13.56,5.01-11.58,0-20.98-9.41-20.98-20.99s9.41-20.99,20.98-20.99ZM721.39,33.09c-9.66,0-17.53,7.87-17.53,17.54s7.87,17.54,17.53,17.54,17.53-7.87,17.53-17.54-7.87-17.54-17.53-17.54Z"/>
      <path class="cls-4" d="M536.68,41.31h-6.21v-6.76h6.21v6.76ZM537.48,33.28h-7.82c-.48,0-.81.27-.81.67v8.1c0,.4.32.67.81.67h1.21v7.36c0,.4.32.67.81.67s.81-.27.81-.67v-7.43h2.26v7.43c0,.4.32.67.81.67s.81-.27.81-.67v-7.43h1.13c.48,0,.81-.27.81-.67v-8.1c0-.33-.32-.67-.81-.6q0-.07,0,0Z"/>
      <path class="cls-4" d="M533.8,27.82c.63,0,1.11.4,1.11.92s-.48.92-1.11.92-1.11-.4-1.11-.92.48-.92,1.11-.92ZM533.8,30.99c1.51,0,2.69-.99,2.69-2.25s-1.19-2.25-2.69-2.25-2.69.99-2.69,2.25,1.19,2.25,2.69,2.25Z"/>
      <path class="cls-4" d="M569.09,41.31h-5.91v-6.76h5.91v6.76ZM569.85,33.28h-7.45c-.46,0-.77.27-.77.67v8.1c0,.4.31.67.77.67h1.15v7.36c0,.4.31.67.77.67s.77-.27.77-.67v-7.43h2.15v7.43c0,.4.31.67.77.67s.77-.27.77-.67v-7.43h1.07c.46,0,.77-.27.77-.67v-8.1c0-.33-.31-.67-.77-.6q0-.07,0,0Z"/>
      <path class="cls-4" d="M566.13,27.82c.63,0,1.11.4,1.11.92s-.48.92-1.11.92-1.11-.4-1.11-.92.48-.92,1.11-.92ZM566.13,30.99c1.51,0,2.69-.99,2.69-2.25s-1.19-2.25-2.69-2.25-2.69.99-2.69,2.25,1.19,2.25,2.69,2.25Z"/>
      <path class="cls-4" d="M536.68,68.46h-6.21v-6.93h6.21v6.93ZM537.48,60.23h-7.82c-.48,0-.81.27-.81.69v8.3c0,.41.32.69.81.69h1.21v7.55c0,.41.32.69.81.69s.81-.27.81-.69v-7.62h2.26v7.62c0,.41.32.69.81.69s.81-.27.81-.69v-7.62h1.13c.48,0,.81-.27.81-.69v-8.3c0-.34-.32-.69-.81-.62q0-.07,0,0Z"/>
      <path class="cls-4" d="M533.8,55.21c.63,0,1.11.4,1.11.92s-.48.92-1.11.92-1.11-.4-1.11-.92.48-.92,1.11-.92ZM533.8,58.38c1.51,0,2.69-.99,2.69-2.25s-1.19-2.25-2.69-2.25-2.69.99-2.69,2.25,1.19,2.25,2.69,2.25Z"/>
      <path class="cls-4" d="M558.31,68.46h-5.91v-6.93h5.91v6.93ZM559.08,60.23h-7.45c-.46,0-.77.27-.77.69v8.3c0,.41.31.69.77.69h1.15v7.55c0,.41.31.69.77.69s.77-.27.77-.69v-7.62h2.15v7.62c0,.41.31.69.77.69s.77-.27.77-.69v-7.62h1.07c.46,0,.77-.27.77-.69v-8.3c0-.34-.31-.69-.77-.62q0-.07,0,0Z"/>
      <path class="cls-4" d="M555.35,55.21c.63,0,1.11.4,1.11.92s-.48.92-1.11.92-1.11-.4-1.11-.92.48-.92,1.11-.92ZM555.35,58.38c1.51,0,2.69-.99,2.69-2.25s-1.19-2.25-2.69-2.25-2.69.99-2.69,2.25,1.19,2.25,2.69,2.25Z"/>
      <path class="cls-4" d="M569.09,68.46h-5.91v-6.93h5.91v6.93ZM569.85,60.23h-7.45c-.46,0-.77.27-.77.69v8.3c0,.41.31.69.77.69h1.15v7.55c0,.41.31.69.77.69s.77-.27.77-.69v-7.62h2.15v7.62c0,.41.31.69.77.69s.77-.27.77-.69v-7.62h1.07c.46,0,.77-.27.77-.69v-8.3c0-.34-.31-.69-.77-.62q0-.07,0,0Z"/>
      <path class="cls-4" d="M566.13,55.21c.63,0,1.11.4,1.11.92s-.48.92-1.11.92-1.11-.4-1.11-.92.48-.92,1.11-.92ZM566.13,58.38c1.51,0,2.69-.99,2.69-2.25s-1.19-2.25-2.69-2.25-2.69.99-2.69,2.25,1.19,2.25,2.69,2.25Z"/>
      <path class="cls-2" d="M525.9,41.31h-6.21v-6.76h6.21v6.76ZM526.7,33.28h-7.82c-.48,0-.81.27-.81.67v8.1c0,.4.32.67.81.67h1.21v7.36c0,.4.32.67.81.67s.81-.27.81-.67v-7.43h2.26v7.43c0,.4.32.67.81.67s.81-.27.81-.67v-7.43h1.13c.48,0,.81-.27.81-.67v-8.1c0-.33-.32-.67-.81-.6q0-.07,0,0Z"/>
      <path class="cls-2" d="M523.02,27.82c.63,0,1.11.4,1.11.92s-.48.92-1.11.92-1.11-.4-1.11-.92.48-.92,1.11-.92ZM523.02,30.99c1.51,0,2.69-.99,2.69-2.25s-1.19-2.25-2.69-2.25-2.69.99-2.69,2.25,1.19,2.25,2.69,2.25Z"/>
      <path class="cls-2" d="M547.45,41.31h-6.21v-6.76h6.21v6.76ZM548.26,33.28h-7.82c-.48,0-.81.27-.81.67v8.1c0,.4.32.67.81.67h1.21v7.36c0,.4.32.67.81.67s.81-.27.81-.67v-7.43h2.26v7.43c0,.4.32.67.81.67s.81-.27.81-.67v-7.43h1.13c.48,0,.81-.27.81-.67v-8.1c0-.33-.32-.67-.81-.6q0-.07,0,0Z"/>
      <path class="cls-2" d="M544.58,27.82c.63,0,1.11.4,1.11.92s-.48.92-1.11.92-1.11-.4-1.11-.92.48-.92,1.11-.92ZM544.58,30.99c1.51,0,2.69-.99,2.69-2.25s-1.19-2.25-2.69-2.25-2.69.99-2.69,2.25,1.19,2.25,2.69,2.25Z"/>
      <path class="cls-2" d="M558.31,41.31h-5.91v-6.76h5.91v6.76ZM559.08,33.28h-7.45c-.46,0-.77.27-.77.67v8.1c0,.4.31.67.77.67h1.15v7.36c0,.4.31.67.77.67s.77-.27.77-.67v-7.43h2.15v7.43c0,.4.31.67.77.67s.77-.27.77-.67v-7.43h1.07c.46,0,.77-.27.77-.67v-8.1c0-.33-.31-.67-.77-.6q0-.07,0,0Z"/>
      <path class="cls-2" d="M555.35,27.82c.63,0,1.11.4,1.11.92s-.48.92-1.11.92-1.11-.4-1.11-.92.48-.92,1.11-.92ZM555.35,30.99c1.51,0,2.69-.99,2.69-2.25s-1.19-2.25-2.69-2.25-2.69.99-2.69,2.25,1.19,2.25,2.69,2.25Z"/>
      <path class="cls-2" d="M579.86,41.31h-5.91v-6.76h5.91v6.76ZM580.63,33.28h-7.45c-.46,0-.77.27-.77.67v8.1c0,.4.31.67.77.67h1.15v7.36c0,.4.31.67.77.67s.77-.27.77-.67v-7.43h2.15v7.43c0,.4.31.67.77.67s.77-.27.77-.67v-7.43h1.07c.46,0,.77-.27.77-.67v-8.1c0-.33-.31-.67-.77-.6q0-.07,0,0Z"/>
      <path class="cls-2" d="M576.91,27.82c.63,0,1.11.4,1.11.92s-.48.92-1.11.92-1.11-.4-1.11-.92.48-.92,1.11-.92ZM576.91,30.99c1.51,0,2.69-.99,2.69-2.25s-1.19-2.25-2.69-2.25-2.69.99-2.69,2.25,1.19,2.25,2.69,2.25Z"/>
      <path class="cls-2" d="M590.64,41.31h-5.91v-6.76h5.91v6.76ZM591.41,33.28h-7.45c-.46,0-.77.27-.77.67v8.1c0,.4.31.67.77.67h1.15v7.36c0,.4.31.67.77.67s.77-.27.77-.67v-7.43h2.15v7.43c0,.4.31.67.77.67s.77-.27.77-.67v-7.43h1.07c.46,0,.77-.27.77-.67v-8.1c0-.33-.31-.67-.77-.6q0-.07,0,0Z"/>
      <path class="cls-2" d="M587.69,27.82c.63,0,1.11.4,1.11.92s-.48.92-1.11.92-1.11-.4-1.11-.92.48-.92,1.11-.92ZM587.69,30.99c1.51,0,2.69-.99,2.69-2.25s-1.19-2.25-2.69-2.25-2.69.99-2.69,2.25,1.19,2.25,2.69,2.25Z"/>
      <path class="cls-2" d="M525.9,68.46h-6.21v-6.93h6.21v6.93ZM526.7,60.23h-7.82c-.48,0-.81.27-.81.69v8.3c0,.41.32.69.81.69h1.21v7.55c0,.41.32.69.81.69s.81-.27.81-.69v-7.62h2.26v7.62c0,.41.32.69.81.69s.81-.27.81-.69v-7.62h1.13c.48,0,.81-.27.81-.69v-8.3c0-.34-.32-.69-.81-.62q0-.07,0,0Z"/>
      <path class="cls-2" d="M523.02,55.21c.63,0,1.11.4,1.11.92s-.48.92-1.11.92-1.11-.4-1.11-.92.48-.92,1.11-.92ZM523.02,58.38c1.51,0,2.69-.99,2.69-2.25s-1.19-2.25-2.69-2.25-2.69.99-2.69,2.25,1.19,2.25,2.69,2.25Z"/>
      <path class="cls-2" d="M547.45,68.46h-6.21v-6.93h6.21v6.93ZM548.26,60.23h-7.82c-.48,0-.81.27-.81.69v8.3c0,.41.32.69.81.69h1.21v7.55c0,.41.32.69.81.69s.81-.27.81-.69v-7.62h2.26v7.62c0,.41.32.69.81.69s.81-.27.81-.69v-7.62h1.13c.48,0,.81-.27.81-.69v-8.3c0-.34-.32-.69-.81-.62q0-.07,0,0Z"/>
      <path class="cls-2" d="M544.58,55.21c.63,0,1.11.4,1.11.92s-.48.92-1.11.92-1.11-.4-1.11-.92.48-.92,1.11-.92ZM544.58,58.38c1.51,0,2.69-.99,2.69-2.25s-1.19-2.25-2.69-2.25-2.69.99-2.69,2.25,1.19,2.25,2.69,2.25Z"/>
      <path class="cls-2" d="M579.86,68.46h-5.91v-6.93h5.91v6.93ZM580.63,60.23h-7.45c-.46,0-.77.27-.77.69v8.3c0,.41.31.69.77.69h1.15v7.55c0,.41.31.69.77.69s.77-.27.77-.69v-7.62h2.15v7.62c0,.41.31.69.77.69s.77-.27.77-.69v-7.62h1.07c.46,0,.77-.27.77-.69v-8.3c0-.34-.31-.69-.77-.62q0-.07,0,0Z"/>
      <path class="cls-2" d="M576.91,55.21c.63,0,1.11.4,1.11.92s-.48.92-1.11.92-1.11-.4-1.11-.92.48-.92,1.11-.92ZM576.91,58.38c1.51,0,2.69-.99,2.69-2.25s-1.19-2.25-2.69-2.25-2.69.99-2.69,2.25,1.19,2.25,2.69,2.25Z"/>
      <path class="cls-2" d="M590.64,68.46h-5.91v-6.93h5.91v6.93ZM591.41,60.23h-7.45c-.46,0-.77.27-.77.69v8.3c0,.41.31.69.77.69h1.15v7.55c0,.41.31.69.77.69s.77-.27.77-.69v-7.62h2.15v7.62c0,.41.31.69.77.69s.77-.27.77-.69v-7.62h1.07c.46,0,.77-.27.77-.69v-8.3c0-.34-.31-.69-.77-.62q0-.07,0,0Z"/>
      <path class="cls-2" d="M587.69,55.21c.63,0,1.11.4,1.11.92s-.48.92-1.11.92-1.11-.4-1.11-.92.48-.92,1.11-.92ZM587.69,58.38c1.51,0,2.69-.99,2.69-2.25s-1.19-2.25-2.69-2.25-2.69.99-2.69,2.25,1.19,2.25,2.69,2.25Z"/>
      <polygon class="cls-4" points="135.01 38.62 149.38 50.52 135.01 62.42 135.01 38.62"/>
      <polygon class="cls-4" points="300.72 38.62 315.1 50.52 300.72 62.42 300.72 38.62"/>
      <polygon class="cls-4" points="632.15 38.62 646.52 50.52 632.15 62.42 632.15 38.62"/>
      <polygon class="cls-4" points="466.44 38.62 480.81 50.52 466.44 62.42 466.44 38.62"/>
      <g>
        <path class="cls-1" d="M0,120.9v-.03c0-2.86,2.23-5.2,5.28-5.2,1.81,0,2.9.49,3.95,1.38l-1.39,1.68c-.78-.65-1.47-1.02-2.63-1.02-1.61,0-2.89,1.42-2.89,3.13v.03c0,1.84,1.26,3.19,3.05,3.19.81,0,1.52-.2,2.08-.6v-1.44h-2.23v-1.91h4.37v4.37c-1.04.88-2.46,1.6-4.3,1.6-3.13,0-5.29-2.2-5.29-5.17Z"/>
        <path class="cls-1" d="M11.68,115.84h7.59v1.97h-5.39v2.04h4.74v1.97h-4.74v2.11h5.46v1.97h-7.66v-10.06Z"/>
        <path class="cls-1" d="M21.28,115.84h2.39l2.65,4.25,2.64-4.25h2.39v10.06h-2.2v-6.57l-2.83,4.3h-.06l-2.8-4.25v6.53h-2.17v-10.06Z"/>
        <path class="cls-1" d="M33.83,115.84h2.21v10.06h-2.21v-10.06Z"/>
        <path class="cls-1" d="M38.53,115.84h2.04l4.71,6.2v-6.2h2.19v10.06h-1.88l-4.87-6.4v6.4h-2.18v-10.06Z"/>
        <path class="cls-1" d="M49.95,115.84h2.21v10.06h-2.21v-10.06Z"/>
        <path class="cls-1" d="M58.43,124.15l3.35-2.75c1.25-1.04,1.74-1.58,1.74-2.42s-.56-1.31-1.35-1.31-1.31.43-2.06,1.35l-1.55-1.25c.99-1.35,1.96-2.08,3.75-2.08,2.08,0,3.46,1.22,3.46,3.1v.03c0,1.68-.86,2.52-2.65,3.9l-1.64,1.26h4.38v1.91h-7.45v-1.75Z"/>
        <path class="cls-1" d="M71.54,122.09v-.03c0-2.2,1.68-4.01,4.04-4.01,1.45,0,2.36.49,3.08,1.29l-1.34,1.44c-.49-.52-.98-.85-1.75-.85-1.09,0-1.87.96-1.87,2.1v.03c0,1.18.76,2.13,1.96,2.13.73,0,1.24-.32,1.77-.82l1.28,1.29c-.75.82-1.61,1.41-3.15,1.41-2.31,0-4.01-1.78-4.01-3.98Z"/>
        <path class="cls-1" d="M79.71,122.09v-.03c0-2.21,1.78-4.01,4.18-4.01s4.15,1.77,4.15,3.98v.03c0,2.21-1.78,4.01-4.18,4.01s-4.15-1.77-4.15-3.98ZM85.89,122.09v-.03c0-1.14-.82-2.13-2.03-2.13s-2,.96-2,2.1v.03c0,1.14.82,2.13,2.03,2.13s2-.96,2-2.1Z"/>
        <path class="cls-1" d="M89.6,115.41h2.18v3.88c.5-.65,1.15-1.24,2.26-1.24,1.65,0,2.62,1.09,2.62,2.86v4.99h-2.19v-4.3c0-1.04-.49-1.57-1.32-1.57s-1.37.53-1.37,1.57v4.3h-2.18v-10.49Z"/>
        <path class="cls-1" d="M98.15,122.09v-.03c0-2.21,1.78-4.01,4.18-4.01s4.15,1.77,4.15,3.98v.03c0,2.21-1.78,4.01-4.18,4.01s-4.15-1.77-4.15-3.98ZM104.33,122.09v-.03c0-1.14-.82-2.13-2.03-2.13s-2,.96-2,2.1v.03c0,1.14.82,2.13,2.03,2.13s2-.96,2-2.1Z"/>
        <path class="cls-1" d="M108.04,118.2h2.18v1.55c.45-1.06,1.16-1.75,2.46-1.7v2.29h-.11c-1.45,0-2.34.88-2.34,2.72v2.85h-2.18v-7.7Z"/>
        <path class="cls-1" d="M114.37,123.72v-3.65h-.92v-1.87h.92v-1.97h2.18v1.97h1.81v1.87h-1.81v3.29c0,.5.22.75.7.75.4,0,.76-.1,1.08-.27v1.75c-.46.27-.99.45-1.72.45-1.34,0-2.24-.53-2.24-2.31Z"/>
        <path class="cls-1" d="M33.11,139.02c0-2.65,1.42-4.71,3.98-6.15l.47.73c-2.18,1.39-3.33,3.12-3.33,5.42s1.15,4.02,3.33,5.42l-.47.73c-2.56-1.44-3.98-3.51-3.98-6.15Z"/>
        <path class="cls-1" d="M39.58,135.71h1.11v1.29c.49-.8,1.27-1.45,2.54-1.45,1.8,0,2.85,1.21,2.85,2.98v4.61h-1.11v-4.34c0-1.38-.75-2.24-2.06-2.24s-2.23.93-2.23,2.33v4.25h-1.11v-7.43Z"/>
        <path class="cls-1" d="M48.31,135.87h6.68v1.06h-6.68v-1.06ZM48.31,139.23h6.68v1.06h-6.68v-1.06Z"/>
        <path class="cls-1" d="M56.86,140.44v-.03c0-1.19.86-2.04,2.07-2.47-.93-.43-1.73-1.15-1.73-2.31v-.03c0-1.55,1.6-2.66,3.44-2.66s3.44,1.11,3.44,2.66v.03c0,1.16-.79,1.88-1.72,2.31,1.19.45,2.07,1.26,2.07,2.46v.03c0,1.71-1.64,2.86-3.78,2.86s-3.78-1.16-3.78-2.85ZM63.27,140.41v-.03c0-1.12-1.16-1.91-2.63-1.91s-2.63.79-2.63,1.91v.03c0,1.02.98,1.88,2.63,1.88s2.63-.86,2.63-1.88ZM62.94,135.7v-.03c0-.99-.99-1.74-2.3-1.74s-2.3.73-2.3,1.74v.03c0,1.09,1.02,1.84,2.3,1.84s2.3-.75,2.3-1.84Z"/>
        <path class="cls-1" d="M67.71,134.19l-1.9.59-.27-.92,2.46-.85h.83v10.13h-1.12v-8.96Z"/>
        <path class="cls-1" d="M76.47,140.76h-5.3l-.29-.82,5.69-6.93h.99v6.8h1.57v.95h-1.57v2.39h-1.09v-2.39ZM76.47,139.81v-5.19l-4.23,5.19h4.23Z"/>
        <path class="cls-1" d="M80.68,144.44c2.19-1.39,3.33-3.12,3.33-5.42s-1.15-4.03-3.33-5.42l.47-.73c2.56,1.44,3.98,3.51,3.98,6.15s-1.42,4.71-3.98,6.15l-.47-.73Z"/>
      </g>
      <g>
        <path class="cls-1" d="M169.89,124.43l1.31-1.57c.91.75,1.85,1.22,3,1.22.91,0,1.45-.36,1.45-.95v-.03c0-.56-.34-.85-2.03-1.28-2.03-.52-3.33-1.08-3.33-3.08v-.03c0-1.83,1.47-3.03,3.52-3.03,1.47,0,2.72.46,3.74,1.28l-1.15,1.67c-.89-.62-1.77-.99-2.62-.99s-1.29.39-1.29.88v.03c0,.66.43.88,2.17,1.32,2.04.53,3.19,1.26,3.19,3.02v.03c0,2-1.52,3.12-3.69,3.12-1.52,0-3.06-.53-4.27-1.61Z"/>
        <path class="cls-1" d="M179.15,122.09v-.03c0-2.2,1.68-4.01,4.04-4.01,1.45,0,2.36.49,3.08,1.29l-1.34,1.44c-.49-.52-.98-.85-1.75-.85-1.09,0-1.87.96-1.87,2.1v.03c0,1.18.76,2.13,1.96,2.13.73,0,1.24-.32,1.77-.82l1.28,1.29c-.75.82-1.61,1.41-3.15,1.41-2.31,0-4.01-1.78-4.01-3.98Z"/>
        <path class="cls-1" d="M187.33,122.09v-.03c0-2.21,1.78-4.01,4.18-4.01s4.15,1.77,4.15,3.98v.03c0,2.21-1.78,4.01-4.18,4.01s-4.15-1.77-4.15-3.98ZM193.51,122.09v-.03c0-1.14-.82-2.13-2.03-2.13s-2,.96-2,2.1v.03c0,1.14.82,2.13,2.03,2.13s2-.96,2-2.1Z"/>
        <path class="cls-1" d="M197.21,118.2h2.18v1.55c.45-1.06,1.16-1.75,2.46-1.7v2.29h-.11c-1.45,0-2.34.88-2.34,2.72v2.85h-2.18v-7.7Z"/>
        <path class="cls-1" d="M203.23,115.41h2.3v1.94h-2.3v-1.94ZM203.29,118.2h2.18v7.7h-2.18v-7.7Z"/>
        <path class="cls-1" d="M207.5,118.2h2.18v1.09c.5-.65,1.15-1.24,2.26-1.24,1.65,0,2.62,1.09,2.62,2.86v4.99h-2.19v-4.3c0-1.04-.49-1.57-1.32-1.57s-1.37.53-1.37,1.57v4.3h-2.18v-7.7Z"/>
        <path class="cls-1" d="M216.47,127.42l.75-1.64c.79.45,1.58.7,2.6.7,1.5,0,2.2-.72,2.2-2.1v-.37c-.65.78-1.35,1.25-2.52,1.25-1.8,0-3.42-1.31-3.42-3.59v-.03c0-2.3,1.65-3.59,3.42-3.59,1.19,0,1.9.5,2.49,1.15v-1.01h2.19v5.96c0,1.38-.33,2.39-.98,3.03-.72.72-1.83,1.03-3.32,1.03-1.25,0-2.43-.29-3.41-.8ZM222.02,121.67v-.03c0-1.05-.82-1.78-1.88-1.78s-1.87.73-1.87,1.78v.03c0,1.06.8,1.78,1.87,1.78s1.88-.73,1.88-1.78Z"/>
        <path class="cls-1" d="M229.78,124.88l.93-1.44c.83.6,1.71.92,2.43.92.63,0,.92-.23.92-.58v-.03c0-.47-.75-.63-1.6-.89-1.08-.32-2.3-.82-2.3-2.31v-.03c0-1.57,1.27-2.44,2.82-2.44.98,0,2.04.33,2.87.89l-.83,1.51c-.76-.45-1.52-.72-2.08-.72s-.81.23-.81.53v.03c0,.43.73.63,1.57.92,1.08.36,2.33.88,2.33,2.29v.03c0,1.71-1.28,2.49-2.95,2.49-1.08,0-2.29-.36-3.31-1.16Z"/>
        <path class="cls-1" d="M242.62,118.2h2.27l-2.96,7.89c-.59,1.57-1.22,2.16-2.53,2.16-.79,0-1.38-.2-1.94-.53l.73-1.58c.29.17.65.3.93.3.37,0,.58-.12.76-.5l-3.02-7.73h2.31l1.75,5.25,1.68-5.25Z"/>
        <path class="cls-1" d="M245.55,124.88l.93-1.44c.83.6,1.71.92,2.43.92.63,0,.92-.23.92-.58v-.03c0-.47-.75-.63-1.6-.89-1.08-.32-2.3-.82-2.3-2.31v-.03c0-1.57,1.27-2.44,2.82-2.44.98,0,2.04.33,2.87.89l-.83,1.51c-.76-.45-1.52-.72-2.08-.72s-.81.23-.81.53v.03c0,.43.73.63,1.57.92,1.08.36,2.33.88,2.33,2.29v.03c0,1.71-1.28,2.49-2.95,2.49-1.08,0-2.29-.36-3.31-1.16Z"/>
        <path class="cls-1" d="M253.7,123.72v-3.65h-.92v-1.87h.92v-1.97h2.18v1.97h1.81v1.87h-1.81v3.29c0,.5.22.75.7.75.4,0,.76-.1,1.08-.27v1.75c-.46.27-.99.45-1.72.45-1.34,0-2.24-.53-2.24-2.31Z"/>
        <path class="cls-1" d="M258.9,122.09v-.03c0-2.2,1.57-4.01,3.81-4.01,2.57,0,3.75,2,3.75,4.18,0,.17-.01.37-.03.57h-5.36c.22.99.91,1.51,1.88,1.51.73,0,1.26-.23,1.87-.79l1.25,1.11c-.72.89-1.75,1.44-3.15,1.44-2.31,0-4.02-1.62-4.02-3.98ZM264.34,121.44c-.13-.98-.7-1.64-1.62-1.64s-1.49.65-1.67,1.64h3.29Z"/>
        <path class="cls-1" d="M268.06,118.2h2.18v1.09c.5-.65,1.16-1.24,2.27-1.24,1.01,0,1.77.45,2.17,1.22.68-.79,1.48-1.22,2.53-1.22,1.62,0,2.6.98,2.6,2.83v5.02h-2.19v-4.3c0-1.04-.46-1.57-1.28-1.57s-1.32.53-1.32,1.57v4.3h-2.19v-4.3c0-1.04-.46-1.57-1.28-1.57s-1.32.53-1.32,1.57v4.3h-2.18v-7.7Z"/>
        <path class="cls-1" d="M177.38,139.31v-.03c0-2.57,1.68-3.98,3.51-3.98,1.16,0,1.88.53,2.4,1.15v-3.79h2.19v10.49h-2.19v-1.11c-.53.72-1.26,1.25-2.4,1.25-1.8,0-3.51-1.41-3.51-3.98ZM183.32,139.31v-.03c0-1.28-.85-2.13-1.87-2.13s-1.88.83-1.88,2.13v.03c0,1.28.86,2.13,1.88,2.13s1.87-.85,1.87-2.13Z"/>
        <path class="cls-1" d="M187.02,139.34v-.03c0-2.2,1.57-4.01,3.81-4.01,2.57,0,3.75,2,3.75,4.18,0,.17-.01.37-.03.57h-5.36c.22.99.91,1.51,1.88,1.51.73,0,1.26-.23,1.87-.79l1.25,1.11c-.72.89-1.75,1.44-3.15,1.44-2.31,0-4.02-1.62-4.02-3.98ZM192.46,138.69c-.13-.98-.7-1.64-1.62-1.64s-1.49.65-1.67,1.64h3.29Z"/>
        <path class="cls-1" d="M195.49,135.44h2.31l1.73,5.16,1.74-5.16h2.27l-3.03,7.76h-1.98l-3.03-7.76Z"/>
        <path class="cls-1" d="M204.4,139.34v-.03c0-2.2,1.57-4.01,3.81-4.01,2.57,0,3.75,2,3.75,4.18,0,.17-.01.37-.03.57h-5.36c.22.99.91,1.51,1.88,1.51.73,0,1.26-.23,1.87-.79l1.25,1.11c-.72.89-1.75,1.44-3.15,1.44-2.31,0-4.02-1.62-4.02-3.98ZM209.83,138.69c-.13-.98-.7-1.64-1.62-1.64s-1.49.65-1.67,1.64h3.29Z"/>
        <path class="cls-1" d="M213.65,132.65h2.18v10.49h-2.18v-10.49Z"/>
        <path class="cls-1" d="M217.49,139.34v-.03c0-2.21,1.78-4.01,4.18-4.01s4.15,1.77,4.15,3.98v.03c0,2.21-1.78,4.01-4.18,4.01s-4.15-1.77-4.15-3.98ZM223.67,139.34v-.03c0-1.14-.82-2.13-2.03-2.13s-2,.96-2,2.1v.03c0,1.14.82,2.13,2.03,2.13s2-.96,2-2.1Z"/>
        <path class="cls-1" d="M227.38,135.44h2.18v1.11c.53-.72,1.27-1.25,2.4-1.25,1.8,0,3.51,1.41,3.51,3.98v.03c0,2.57-1.68,3.98-3.51,3.98-1.16,0-1.88-.53-2.4-1.15v3.31h-2.18v-10ZM233.28,139.31v-.03c0-1.28-.86-2.13-1.88-2.13s-1.87.85-1.87,2.13v.03c0,1.28.85,2.13,1.87,2.13s1.88-.83,1.88-2.13Z"/>
        <path class="cls-1" d="M237.05,135.44h2.18v1.09c.5-.65,1.16-1.24,2.27-1.24,1.01,0,1.77.45,2.17,1.22.68-.79,1.48-1.22,2.53-1.22,1.62,0,2.6.98,2.6,2.83v5.02h-2.19v-4.3c0-1.04-.46-1.57-1.28-1.57s-1.32.53-1.32,1.57v4.3h-2.19v-4.3c0-1.04-.46-1.57-1.28-1.57s-1.32.53-1.32,1.57v4.3h-2.18v-7.7Z"/>
        <path class="cls-1" d="M250.3,139.34v-.03c0-2.2,1.57-4.01,3.81-4.01,2.57,0,3.75,2,3.75,4.18,0,.17-.01.37-.03.57h-5.36c.22.99.91,1.51,1.88,1.51.73,0,1.26-.23,1.87-.79l1.25,1.11c-.72.89-1.75,1.44-3.15,1.44-2.31,0-4.02-1.62-4.02-3.98ZM255.73,138.69c-.13-.98-.7-1.64-1.62-1.64s-1.49.65-1.67,1.64h3.29Z"/>
        <path class="cls-1" d="M259.45,135.44h2.18v1.09c.5-.65,1.15-1.24,2.26-1.24,1.65,0,2.62,1.09,2.62,2.86v4.99h-2.19v-4.3c0-1.04-.49-1.57-1.32-1.57s-1.37.53-1.37,1.57v4.3h-2.18v-7.7Z"/>
        <path class="cls-1" d="M268.73,140.96v-3.65h-.92v-1.87h.92v-1.97h2.18v1.97h1.81v1.87h-1.81v3.29c0,.5.22.75.7.75.4,0,.76-.1,1.08-.27v1.75c-.46.27-.99.45-1.72.45-1.34,0-2.24-.53-2.24-2.31Z"/>
      </g>
      <g>
        <path class="cls-1" d="M667.25,124.43l1.31-1.57c.91.75,1.85,1.22,3,1.22.91,0,1.45-.36,1.45-.95v-.03c0-.56-.34-.85-2.03-1.28-2.03-.52-3.33-1.08-3.33-3.08v-.03c0-1.83,1.47-3.03,3.52-3.03,1.47,0,2.72.46,3.74,1.28l-1.15,1.67c-.89-.62-1.77-.99-2.62-.99s-1.29.39-1.29.88v.03c0,.66.43.88,2.17,1.32,2.04.53,3.19,1.26,3.19,3.02v.03c0,2-1.52,3.12-3.69,3.12-1.52,0-3.06-.53-4.27-1.61Z"/>
        <path class="cls-1" d="M676.5,122.09v-.03c0-2.2,1.68-4.01,4.04-4.01,1.45,0,2.36.49,3.08,1.29l-1.34,1.44c-.49-.52-.98-.85-1.75-.85-1.09,0-1.87.96-1.87,2.1v.03c0,1.18.76,2.13,1.95,2.13.73,0,1.24-.32,1.77-.82l1.28,1.29c-.75.82-1.61,1.41-3.15,1.41-2.31,0-4.01-1.78-4.01-3.98Z"/>
        <path class="cls-1" d="M684.68,122.09v-.03c0-2.21,1.78-4.01,4.18-4.01s4.15,1.77,4.15,3.98v.03c0,2.21-1.78,4.01-4.18,4.01s-4.15-1.77-4.15-3.98ZM690.86,122.09v-.03c0-1.14-.82-2.13-2.03-2.13s-2,.96-2,2.1v.03c0,1.14.82,2.13,2.03,2.13s2-.96,2-2.1Z"/>
        <path class="cls-1" d="M694.57,118.2h2.18v1.55c.45-1.06,1.16-1.75,2.46-1.7v2.29h-.11c-1.45,0-2.34.88-2.34,2.72v2.85h-2.18v-7.7Z"/>
        <path class="cls-1" d="M700.59,115.41h2.3v1.94h-2.3v-1.94ZM700.65,118.2h2.18v7.7h-2.18v-7.7Z"/>
        <path class="cls-1" d="M704.86,118.2h2.18v1.09c.5-.65,1.15-1.24,2.26-1.24,1.65,0,2.62,1.09,2.62,2.86v4.99h-2.19v-4.3c0-1.04-.49-1.57-1.32-1.57s-1.37.53-1.37,1.57v4.3h-2.18v-7.7Z"/>
        <path class="cls-1" d="M713.82,127.42l.75-1.64c.79.45,1.58.7,2.6.7,1.49,0,2.2-.72,2.2-2.1v-.37c-.65.78-1.35,1.25-2.52,1.25-1.8,0-3.42-1.31-3.42-3.59v-.03c0-2.3,1.65-3.59,3.42-3.59,1.19,0,1.9.5,2.49,1.15v-1.01h2.19v5.96c0,1.38-.33,2.39-.98,3.03-.72.72-1.83,1.03-3.32,1.03-1.25,0-2.43-.29-3.41-.8ZM719.37,121.67v-.03c0-1.05-.82-1.78-1.88-1.78s-1.87.73-1.87,1.78v.03c0,1.06.8,1.78,1.87,1.78s1.88-.73,1.88-1.78Z"/>
        <path class="cls-1" d="M727.13,124.88l.93-1.44c.83.6,1.71.92,2.43.92.63,0,.92-.23.92-.58v-.03c0-.47-.75-.63-1.6-.89-1.08-.32-2.3-.82-2.3-2.31v-.03c0-1.57,1.27-2.44,2.82-2.44.98,0,2.04.33,2.87.89l-.83,1.51c-.76-.45-1.52-.72-2.08-.72s-.81.23-.81.53v.03c0,.43.73.63,1.57.92,1.08.36,2.33.88,2.33,2.29v.03c0,1.71-1.28,2.49-2.95,2.49-1.08,0-2.29-.36-3.31-1.16Z"/>
        <path class="cls-1" d="M739.98,118.2h2.27l-2.96,7.89c-.59,1.57-1.22,2.16-2.53,2.16-.79,0-1.38-.2-1.94-.53l.73-1.58c.29.17.65.3.93.3.37,0,.58-.12.76-.5l-3.02-7.73h2.31l1.75,5.25,1.68-5.25Z"/>
        <path class="cls-1" d="M742.91,124.88l.93-1.44c.83.6,1.71.92,2.43.92.63,0,.92-.23.92-.58v-.03c0-.47-.75-.63-1.6-.89-1.08-.32-2.3-.82-2.3-2.31v-.03c0-1.57,1.27-2.44,2.82-2.44.98,0,2.04.33,2.87.89l-.83,1.51c-.76-.45-1.52-.72-2.08-.72s-.81.23-.81.53v.03c0,.43.73.63,1.57.92,1.08.36,2.33.88,2.33,2.29v.03c0,1.71-1.28,2.49-2.95,2.49-1.08,0-2.29-.36-3.31-1.16Z"/>
        <path class="cls-1" d="M751.06,123.72v-3.65h-.92v-1.87h.92v-1.97h2.18v1.97h1.81v1.87h-1.81v3.29c0,.5.22.75.7.75.4,0,.76-.1,1.08-.27v1.75c-.46.27-.99.45-1.72.45-1.34,0-2.24-.53-2.24-2.31Z"/>
        <path class="cls-1" d="M756.26,122.09v-.03c0-2.2,1.57-4.01,3.81-4.01,2.57,0,3.75,2,3.75,4.18,0,.17-.01.37-.03.57h-5.36c.22.99.91,1.51,1.88,1.51.73,0,1.26-.23,1.87-.79l1.25,1.11c-.72.89-1.75,1.44-3.15,1.44-2.31,0-4.02-1.62-4.02-3.98ZM761.69,121.44c-.13-.98-.7-1.64-1.62-1.64s-1.49.65-1.67,1.64h3.29Z"/>
        <path class="cls-1" d="M765.41,118.2h2.18v1.09c.5-.65,1.16-1.24,2.27-1.24,1.01,0,1.77.45,2.17,1.22.68-.79,1.48-1.22,2.53-1.22,1.62,0,2.6.98,2.6,2.83v5.02h-2.19v-4.3c0-1.04-.46-1.57-1.28-1.57s-1.32.53-1.32,1.57v4.3h-2.19v-4.3c0-1.04-.46-1.57-1.28-1.57s-1.32.53-1.32,1.57v4.3h-2.18v-7.7Z"/>
        <path class="cls-1" d="M686.42,135.44h2.31l1.73,5.16,1.74-5.16h2.27l-3.03,7.76h-1.98l-3.03-7.76Z"/>
        <path class="cls-1" d="M695.24,140.93v-.03c0-1.68,1.28-2.46,3.1-2.46.78,0,1.34.13,1.88.32v-.13c0-.91-.56-1.41-1.65-1.41-.83,0-1.42.16-2.13.42l-.55-1.67c.85-.37,1.68-.62,2.99-.62,1.19,0,2.06.32,2.6.86.58.57.83,1.42.83,2.46v4.47h-2.11v-.83c-.53.59-1.26.98-2.33.98-1.45,0-2.64-.83-2.64-2.36ZM700.26,140.43v-.39c-.37-.17-.86-.29-1.39-.29-.93,0-1.51.37-1.51,1.06v.03c0,.59.49.93,1.19.93,1.02,0,1.71-.56,1.71-1.35Z"/>
        <path class="cls-1" d="M704.28,132.65h2.18v10.49h-2.18v-10.49Z"/>
        <path class="cls-1" d="M708.54,132.65h2.3v1.94h-2.3v-1.94ZM708.59,135.44h2.18v7.7h-2.18v-7.7Z"/>
        <path class="cls-1" d="M712.46,139.31v-.03c0-2.57,1.68-3.98,3.51-3.98,1.16,0,1.88.53,2.4,1.15v-3.79h2.19v10.49h-2.19v-1.11c-.53.72-1.26,1.25-2.4,1.25-1.8,0-3.51-1.41-3.51-3.98ZM718.4,139.31v-.03c0-1.28-.85-2.13-1.87-2.13s-1.88.83-1.88,2.13v.03c0,1.28.86,2.13,1.88,2.13s1.87-.85,1.87-2.13Z"/>
        <path class="cls-1" d="M722.02,140.93v-.03c0-1.68,1.28-2.46,3.1-2.46.78,0,1.34.13,1.88.32v-.13c0-.91-.56-1.41-1.65-1.41-.83,0-1.42.16-2.13.42l-.55-1.67c.85-.37,1.68-.62,2.99-.62,1.19,0,2.06.32,2.6.86.58.57.83,1.42.83,2.46v4.47h-2.11v-.83c-.53.59-1.26.98-2.33.98-1.45,0-2.64-.83-2.64-2.36ZM727.03,140.43v-.39c-.37-.17-.86-.29-1.39-.29-.93,0-1.51.37-1.51,1.06v.03c0,.59.49.93,1.19.93,1.02,0,1.71-.56,1.71-1.35Z"/>
        <path class="cls-1" d="M731.31,140.96v-3.65h-.92v-1.87h.92v-1.97h2.18v1.97h1.81v1.87h-1.81v3.29c0,.5.22.75.7.75.4,0,.76-.1,1.08-.27v1.75c-.46.27-.99.45-1.72.45-1.34,0-2.24-.53-2.24-2.31Z"/>
        <path class="cls-1" d="M736.93,132.65h2.3v1.94h-2.3v-1.94ZM736.99,135.44h2.18v7.7h-2.18v-7.7Z"/>
        <path class="cls-1" d="M740.83,139.34v-.03c0-2.21,1.78-4.01,4.18-4.01s4.15,1.77,4.15,3.98v.03c0,2.21-1.78,4.01-4.18,4.01s-4.15-1.77-4.15-3.98ZM747.01,139.34v-.03c0-1.14-.82-2.13-2.03-2.13s-2,.96-2,2.1v.03c0,1.14.82,2.13,2.03,2.13s2-.96,2-2.1Z"/>
        <path class="cls-1" d="M750.71,135.44h2.18v1.09c.5-.65,1.15-1.24,2.26-1.24,1.65,0,2.62,1.09,2.62,2.86v4.99h-2.19v-4.3c0-1.04-.49-1.57-1.32-1.57s-1.37.53-1.37,1.57v4.3h-2.18v-7.7Z"/>
      </g>
      <g>
        <path class="cls-1" d="M330.1,115.84h2.44l2.63,7.09,2.63-7.09h2.39l-4.07,10.13h-1.96l-4.07-10.13Z"/>
        <path class="cls-1" d="M341.72,115.84h3.92c3.16,0,5.35,2.17,5.35,5v.03c0,2.83-2.19,5.03-5.35,5.03h-3.92v-10.06ZM343.93,117.84v6.07h1.71c1.81,0,3.03-1.22,3.03-3v-.03c0-1.78-1.22-3.03-3.03-3.03h-1.71Z"/>
        <path class="cls-1" d="M352.62,124.22l5.53-6.44h-5.36v-1.94h8.21v1.68l-5.53,6.44h5.53v1.94h-8.38v-1.68Z"/>
        <path class="cls-1" d="M362.58,120.4h4.43v2.1h-4.43v-2.1Z"/>
        <path class="cls-1" d="M368.46,120.9v-.03c0-2.86,2.16-5.2,5.25-5.2,1.9,0,3.03.63,3.97,1.55l-1.41,1.62c-.78-.7-1.57-1.14-2.57-1.14-1.7,0-2.92,1.41-2.92,3.13v.03c0,1.73,1.19,3.16,2.92,3.16,1.15,0,1.85-.46,2.65-1.18l1.41,1.42c-1.04,1.11-2.19,1.8-4.13,1.8-2.96,0-5.16-2.29-5.16-5.17Z"/>
        <path class="cls-1" d="M379.48,115.84h3.92c3.16,0,5.35,2.17,5.35,5v.03c0,2.83-2.19,5.03-5.35,5.03h-3.92v-10.06ZM381.69,117.84v6.07h1.71c1.81,0,3.03-1.22,3.03-3v-.03c0-1.78-1.22-3.03-3.03-3.03h-1.71Z"/>
        <path class="cls-1" d="M390,124.43l1.31-1.57c.91.75,1.85,1.22,3,1.22.91,0,1.45-.36,1.45-.95v-.03c0-.56-.34-.85-2.03-1.28-2.03-.52-3.33-1.08-3.33-3.08v-.03c0-1.83,1.47-3.03,3.52-3.03,1.47,0,2.72.46,3.74,1.28l-1.15,1.67c-.89-.62-1.77-.99-2.62-.99s-1.29.39-1.29.88v.03c0,.66.43.88,2.17,1.32,2.04.53,3.19,1.26,3.19,3.02v.03c0,2-1.52,3.12-3.69,3.12-1.52,0-3.06-.53-4.27-1.61Z"/>
        <path class="cls-1" d="M402.2,117.88h-3.06v-2.04h8.34v2.04h-3.06v8.02h-2.21v-8.02Z"/>
        <path class="cls-1" d="M413.24,115.41h2.3v1.94h-2.3v-1.94ZM413.29,118.2h2.18v7.7h-2.18v-7.7Z"/>
        <path class="cls-1" d="M417.51,118.2h2.18v1.09c.5-.65,1.15-1.24,2.26-1.24,1.65,0,2.62,1.09,2.62,2.86v4.99h-2.19v-4.3c0-1.04-.49-1.57-1.32-1.57s-1.37.53-1.37,1.57v4.3h-2.18v-7.7Z"/>
        <path class="cls-1" d="M430.5,120.9v-.03c0-2.86,2.16-5.2,5.25-5.2,1.9,0,3.03.63,3.97,1.55l-1.41,1.62c-.78-.7-1.57-1.14-2.57-1.14-1.7,0-2.92,1.41-2.92,3.13v.03c0,1.73,1.19,3.16,2.92,3.16,1.15,0,1.85-.46,2.65-1.18l1.41,1.42c-1.04,1.11-2.19,1.8-4.13,1.8-2.96,0-5.16-2.29-5.16-5.17Z"/>
        <path class="cls-1" d="M441.52,115.84h3.92c3.16,0,5.35,2.17,5.35,5v.03c0,2.83-2.19,5.03-5.35,5.03h-3.92v-10.06ZM443.73,117.84v6.07h1.71c1.81,0,3.03-1.22,3.03-3v-.03c0-1.78-1.22-3.03-3.03-3.03h-1.71Z"/>
        <path class="cls-1" d="M336.34,142.12l.93-1.44c.83.6,1.71.92,2.43.92.63,0,.92-.23.92-.58v-.03c0-.47-.75-.63-1.6-.89-1.08-.32-2.3-.82-2.3-2.31v-.03c0-1.57,1.27-2.44,2.82-2.44.98,0,2.04.33,2.87.89l-.83,1.51c-.76-.45-1.52-.72-2.08-.72s-.81.23-.81.53v.03c0,.43.73.63,1.57.92,1.08.36,2.33.88,2.33,2.29v.03c0,1.71-1.28,2.49-2.95,2.49-1.08,0-2.29-.36-3.31-1.16Z"/>
        <path class="cls-1" d="M343.76,139.34v-.03c0-2.2,1.68-4.01,4.04-4.01,1.45,0,2.36.49,3.08,1.29l-1.34,1.44c-.49-.52-.98-.85-1.75-.85-1.09,0-1.87.96-1.87,2.1v.03c0,1.18.76,2.13,1.95,2.13.73,0,1.24-.32,1.77-.82l1.28,1.29c-.75.82-1.61,1.41-3.15,1.41-2.31,0-4.01-1.78-4.01-3.98Z"/>
        <path class="cls-1" d="M351.93,139.34v-.03c0-2.21,1.78-4.01,4.18-4.01s4.15,1.77,4.15,3.98v.03c0,2.21-1.78,4.01-4.18,4.01s-4.15-1.77-4.15-3.98ZM358.11,139.34v-.03c0-1.14-.82-2.13-2.03-2.13s-2,.96-2,2.1v.03c0,1.14.82,2.13,2.03,2.13s2-.96,2-2.1Z"/>
        <path class="cls-1" d="M361.82,135.44h2.18v1.55c.45-1.06,1.16-1.75,2.46-1.7v2.29h-.11c-1.45,0-2.34.88-2.34,2.72v2.85h-2.18v-7.7Z"/>
        <path class="cls-1" d="M367.84,132.65h2.3v1.94h-2.3v-1.94ZM367.9,135.44h2.18v7.7h-2.18v-7.7Z"/>
        <path class="cls-1" d="M372.11,135.44h2.18v1.09c.5-.65,1.15-1.24,2.26-1.24,1.65,0,2.62,1.09,2.62,2.86v4.99h-2.19v-4.3c0-1.04-.49-1.57-1.32-1.57s-1.37.53-1.37,1.57v4.3h-2.18v-7.7Z"/>
        <path class="cls-1" d="M381.08,144.67l.75-1.64c.79.45,1.58.7,2.6.7,1.5,0,2.2-.72,2.2-2.1v-.37c-.65.78-1.35,1.25-2.52,1.25-1.8,0-3.42-1.31-3.42-3.59v-.03c0-2.3,1.65-3.59,3.42-3.59,1.19,0,1.9.5,2.49,1.15v-1.01h2.19v5.96c0,1.38-.33,2.39-.98,3.03-.72.72-1.83,1.03-3.32,1.03-1.25,0-2.43-.29-3.41-.8ZM386.62,138.92v-.03c0-1.05-.82-1.78-1.88-1.78s-1.87.73-1.87,1.78v.03c0,1.06.8,1.78,1.87,1.78s1.88-.73,1.88-1.78Z"/>
        <path class="cls-1" d="M394.38,142.12l.93-1.44c.83.6,1.71.92,2.43.92.63,0,.92-.23.92-.58v-.03c0-.47-.75-.63-1.6-.89-1.08-.32-2.3-.82-2.3-2.31v-.03c0-1.57,1.27-2.44,2.82-2.44.98,0,2.04.33,2.87.89l-.83,1.51c-.76-.45-1.52-.72-2.08-.72s-.81.23-.81.53v.03c0,.43.73.63,1.57.92,1.08.36,2.33.88,2.33,2.29v.03c0,1.71-1.28,2.49-2.95,2.49-1.08,0-2.29-.36-3.31-1.16Z"/>
        <path class="cls-1" d="M407.23,135.44h2.27l-2.96,7.89c-.59,1.57-1.22,2.16-2.53,2.16-.79,0-1.38-.2-1.94-.53l.73-1.58c.29.17.65.3.93.3.37,0,.58-.12.76-.5l-3.02-7.73h2.31l1.75,5.25,1.68-5.25Z"/>
        <path class="cls-1" d="M410.16,142.12l.93-1.44c.83.6,1.71.92,2.43.92.63,0,.92-.23.92-.58v-.03c0-.47-.75-.63-1.6-.89-1.08-.32-2.3-.82-2.3-2.31v-.03c0-1.57,1.27-2.44,2.82-2.44.98,0,2.04.33,2.87.89l-.83,1.51c-.76-.45-1.52-.72-2.08-.72s-.81.23-.81.53v.03c0,.43.73.63,1.57.92,1.08.36,2.33.88,2.33,2.29v.03c0,1.71-1.28,2.49-2.95,2.49-1.08,0-2.29-.36-3.31-1.16Z"/>
        <path class="cls-1" d="M418.31,140.96v-3.65h-.92v-1.87h.92v-1.97h2.18v1.97h1.81v1.87h-1.81v3.29c0,.5.22.75.7.75.4,0,.76-.1,1.08-.27v1.75c-.46.27-.99.45-1.72.45-1.34,0-2.24-.53-2.24-2.31Z"/>
        <path class="cls-1" d="M423.51,139.34v-.03c0-2.2,1.57-4.01,3.81-4.01,2.57,0,3.75,2,3.75,4.18,0,.17-.01.37-.03.57h-5.36c.22.99.91,1.51,1.88,1.51.73,0,1.26-.23,1.87-.79l1.25,1.11c-.72.89-1.75,1.44-3.15,1.44-2.31,0-4.02-1.62-4.02-3.98ZM428.94,138.69c-.13-.98-.7-1.64-1.62-1.64s-1.49.65-1.67,1.64h3.29Z"/>
        <path class="cls-1" d="M432.67,135.44h2.18v1.09c.5-.65,1.16-1.24,2.27-1.24,1.01,0,1.77.45,2.17,1.22.68-.79,1.48-1.22,2.53-1.22,1.62,0,2.6.98,2.6,2.83v5.02h-2.19v-4.3c0-1.04-.46-1.57-1.28-1.57s-1.32.53-1.32,1.57v4.3h-2.19v-4.3c0-1.04-.46-1.57-1.28-1.57s-1.32.53-1.32,1.57v4.3h-2.18v-7.7Z"/>
      </g>
      <g>
        <path class="cls-1" d="M496.65,115.84h2.44l2.63,7.09,2.63-7.09h2.39l-4.07,10.13h-1.96l-4.07-10.13Z"/>
        <path class="cls-1" d="M508.36,115.84h2.21v10.06h-2.21v-10.06Z"/>
        <path class="cls-1" d="M512.62,120.9v-.03c0-2.86,2.16-5.2,5.25-5.2,1.9,0,3.03.63,3.97,1.55l-1.41,1.62c-.78-.7-1.57-1.14-2.57-1.14-1.7,0-2.92,1.41-2.92,3.13v.03c0,1.73,1.19,3.16,2.92,3.16,1.15,0,1.85-.46,2.65-1.18l1.41,1.42c-1.04,1.11-2.19,1.8-4.13,1.8-2.96,0-5.16-2.29-5.16-5.17Z"/>
        <path class="cls-1" d="M525.98,117.88h-3.06v-2.04h8.34v2.04h-3.06v8.02h-2.21v-8.02Z"/>
        <path class="cls-1" d="M532.48,120.9v-.03c0-2.86,2.26-5.2,5.36-5.2s5.33,2.31,5.33,5.17v.03c0,2.86-2.26,5.2-5.36,5.2s-5.33-2.31-5.33-5.17ZM540.85,120.9v-.03c0-1.72-1.26-3.16-3.05-3.16s-3.02,1.41-3.02,3.13v.03c0,1.73,1.26,3.16,3.05,3.16s3.02-1.41,3.02-3.13Z"/>
        <path class="cls-1" d="M545.11,115.84h4.6c1.28,0,2.27.36,2.93,1.02.56.56.86,1.35.86,2.3v.03c0,1.62-.88,2.65-2.16,3.12l2.46,3.59h-2.59l-2.16-3.22h-1.74v3.22h-2.21v-10.06ZM549.56,120.73c1.08,0,1.7-.57,1.7-1.42v-.03c0-.95-.66-1.44-1.74-1.44h-2.2v2.89h2.24Z"/>
        <path class="cls-1" d="M558.3,121.93l-3.87-6.09h2.59l2.4,4.04,2.44-4.04h2.52l-3.87,6.05v4.01h-2.21v-3.97Z"/>
        <path class="cls-1" d="M569.41,122.09v-.03c0-2.2,1.68-4.01,4.04-4.01,1.45,0,2.36.49,3.08,1.29l-1.34,1.44c-.49-.52-.98-.85-1.75-.85-1.09,0-1.87.96-1.87,2.1v.03c0,1.18.76,2.13,1.96,2.13.73,0,1.24-.32,1.77-.82l1.28,1.29c-.75.82-1.61,1.41-3.15,1.41-2.31,0-4.01-1.78-4.01-3.98Z"/>
        <path class="cls-1" d="M577.58,122.09v-.03c0-2.21,1.78-4.01,4.18-4.01s4.15,1.77,4.15,3.98v.03c0,2.21-1.78,4.01-4.18,4.01s-4.15-1.77-4.15-3.98ZM583.76,122.09v-.03c0-1.14-.82-2.13-2.03-2.13s-2,.96-2,2.1v.03c0,1.14.82,2.13,2.03,2.13s2-.96,2-2.1Z"/>
        <path class="cls-1" d="M587.47,115.41h2.18v3.88c.5-.65,1.15-1.24,2.26-1.24,1.65,0,2.62,1.09,2.62,2.86v4.99h-2.19v-4.3c0-1.04-.49-1.57-1.32-1.57s-1.37.53-1.37,1.57v4.3h-2.18v-10.49Z"/>
        <path class="cls-1" d="M596.02,122.09v-.03c0-2.21,1.78-4.01,4.18-4.01s4.15,1.77,4.15,3.98v.03c0,2.21-1.78,4.01-4.18,4.01s-4.15-1.77-4.15-3.98ZM602.2,122.09v-.03c0-1.14-.82-2.13-2.03-2.13s-2,.96-2,2.1v.03c0,1.14.82,2.13,2.03,2.13s2-.96,2-2.1Z"/>
        <path class="cls-1" d="M605.91,118.2h2.18v1.55c.45-1.06,1.16-1.75,2.46-1.7v2.29h-.11c-1.45,0-2.34.88-2.34,2.72v2.85h-2.18v-7.7Z"/>
        <path class="cls-1" d="M612.25,123.72v-3.65h-.92v-1.87h.92v-1.97h2.18v1.97h1.81v1.87h-1.81v3.29c0,.5.22.75.7.75.4,0,.76-.1,1.08-.27v1.75c-.46.27-.99.45-1.72.45-1.34,0-2.24-.53-2.24-2.31Z"/>
        <path class="cls-1" d="M529.04,139.02c0-2.65,1.42-4.71,3.98-6.15l.47.73c-2.18,1.39-3.33,3.12-3.33,5.42s1.15,4.02,3.33,5.42l-.47.73c-2.56-1.44-3.98-3.51-3.98-6.15Z"/>
        <path class="cls-1" d="M535.51,135.71h1.11v1.29c.49-.8,1.27-1.45,2.54-1.45,1.8,0,2.85,1.21,2.85,2.98v4.61h-1.11v-4.34c0-1.38-.75-2.24-2.06-2.24s-2.23.93-2.23,2.33v4.25h-1.11v-7.43Z"/>
        <path class="cls-1" d="M544.24,135.87h6.68v1.06h-6.68v-1.06ZM544.24,139.23h6.68v1.06h-6.68v-1.06Z"/>
        <path class="cls-1" d="M552.77,141.52l.82-.73c.78.95,1.71,1.5,2.95,1.5s2.2-.78,2.2-1.96v-.03c0-1.25-1.16-1.94-2.82-1.94h-.65l-.23-.68,3.18-3.58h-4.92v-1.02h6.43v.83l-3.16,3.51c1.75.14,3.32.99,3.32,2.83v.03c0,1.8-1.49,3.03-3.36,3.03-1.68,0-2.93-.73-3.75-1.8Z"/>
        <path class="cls-1" d="M561.55,141.52l.82-.73c.78.95,1.71,1.5,2.95,1.5s2.2-.78,2.2-1.96v-.03c0-1.25-1.16-1.94-2.82-1.94h-.65l-.23-.68,3.18-3.58h-4.92v-1.02h6.43v.83l-3.16,3.51c1.75.14,3.32.99,3.32,2.83v.03c0,1.8-1.49,3.03-3.36,3.03-1.68,0-2.93-.73-3.75-1.8Z"/>
        <path class="cls-1" d="M571.75,142.3c-.8-.81-1.26-1.84-1.26-3.9v-.03c0-3.06,1.55-5.46,4.18-5.46,1.21,0,2.1.43,2.98,1.15l-.66.88c-.75-.63-1.45-.99-2.37-.99-1.94,0-2.96,2.04-2.96,4.31v.14c.66-.96,1.57-1.55,2.88-1.55,1.87,0,3.48,1.21,3.48,3.09v.03c0,1.94-1.57,3.35-3.61,3.35-1.11,0-2.01-.39-2.65-1.02ZM576.84,140.01v-.03c0-1.24-1.01-2.16-2.46-2.16s-2.52,1.08-2.52,2.2v.03c0,1.28,1.06,2.26,2.54,2.26s2.43-1.02,2.43-2.3Z"/>
        <path class="cls-1" d="M579.68,144.44c2.19-1.39,3.33-3.12,3.33-5.42s-1.15-4.03-3.33-5.42l.47-.73c2.56,1.44,3.98,3.51,3.98,6.15s-1.42,4.71-3.98,6.15l-.47-.73Z"/>
      </g>
    </g>
  </g>
</svg>