<?xml version="1.0" encoding="UTF-8"?>
<svg id="Layer_2" data-name="Layer 2" xmlns="http://www.w3.org/2000/svg" viewBox="0 0 218.05 248.94">
  <defs>
    <style>
      .cls-1 {
        fill: none;
      }

      .cls-1, .cls-2 {
        stroke: #fff;
        stroke-miterlimit: 10;
      }

      .cls-3 {
        fill: #862580;
      }

      .cls-3, .cls-4 {
        stroke-width: 0px;
      }

      .cls-4 {
        fill: #231f20;
      }

      .cls-2 {
        fill: #fff;
      }
    </style>
  </defs>
  <g id="Layer_1-2" data-name="Layer 1">
    <g>
      <path class="cls-4" d="M73.25,4.67h2.16v3.88h3.98v-3.88h2.16v9.81h-2.16v-3.94h-3.98v3.94h-2.16V4.67Z"/>
      <path class="cls-4" d="M83.7,4.25h2.24v1.89h-2.24v-1.89ZM83.76,6.97h2.13v7.51h-2.13v-7.51Z"/>
      <path class="cls-4" d="M87.93,15.96l.73-1.6c.77.43,1.54.69,2.54.69,1.46,0,2.14-.7,2.14-2.04v-.36c-.63.76-1.32,1.22-2.45,1.22-1.75,0-3.33-1.27-3.33-3.5v-.03c0-2.24,1.61-3.5,3.33-3.5,1.16,0,1.85.49,2.42,1.12v-.98h2.13v5.81c0,1.34-.32,2.33-.95,2.96-.7.7-1.78,1.01-3.24,1.01-1.22,0-2.37-.28-3.32-.79ZM93.34,10.35v-.03c0-1.02-.8-1.74-1.83-1.74s-1.82.71-1.82,1.74v.03c0,1.04.78,1.74,1.82,1.74s1.83-.71,1.83-1.74Z"/>
      <path class="cls-4" d="M97.34,4.25h2.13v3.78c.49-.63,1.12-1.21,2.2-1.21,1.61,0,2.55,1.06,2.55,2.79v4.86h-2.13v-4.19c0-1.01-.48-1.53-1.29-1.53s-1.33.52-1.33,1.53v4.19h-2.13V4.25Z"/>
      <path class="cls-4" d="M110.26,6.97h2.13v1.08c.52-.7,1.23-1.22,2.34-1.22,1.75,0,3.42,1.37,3.42,3.88v.03c0,2.51-1.64,3.88-3.42,3.88-1.13,0-1.83-.52-2.34-1.12v3.22h-2.13V6.97ZM116.02,10.73v-.03c0-1.25-.84-2.07-1.83-2.07s-1.82.83-1.82,2.07v.03c0,1.25.83,2.07,1.82,2.07s1.83-.81,1.83-2.07Z"/>
      <path class="cls-4" d="M119.71,6.97h2.13v1.51c.43-1.04,1.13-1.71,2.4-1.65v2.23h-.11c-1.41,0-2.28.85-2.28,2.65v2.77h-2.13v-7.51Z"/>
      <path class="cls-4" d="M124.99,10.76v-.03c0-2.16,1.74-3.91,4.08-3.91s4.05,1.72,4.05,3.88v.03c0,2.16-1.74,3.91-4.08,3.91s-4.05-1.72-4.05-3.88ZM131.01,10.76v-.03c0-1.11-.8-2.07-1.98-2.07s-1.95.94-1.95,2.05v.03c0,1.11.8,2.07,1.98,2.07s1.95-.94,1.95-2.04Z"/>
      <path class="cls-4" d="M136.78,13.49v.98h-2.13V4.25h2.13v3.8c.52-.7,1.23-1.22,2.34-1.22,1.75,0,3.42,1.37,3.42,3.88v.03c0,2.51-1.64,3.88-3.42,3.88-1.13,0-1.83-.52-2.34-1.12ZM140.41,10.73v-.03c0-1.25-.84-2.07-1.83-2.07s-1.82.83-1.82,2.07v.03c0,1.25.83,2.07,1.82,2.07s1.83-.81,1.83-2.07Z"/>
      <path class="cls-4" d="M143.65,12.32v-.03c0-1.64,1.25-2.39,3.03-2.39.76,0,1.3.13,1.83.31v-.13c0-.88-.55-1.37-1.61-1.37-.81,0-1.39.15-2.07.41l-.53-1.62c.83-.36,1.64-.6,2.91-.6,1.16,0,2,.31,2.54.84.56.56.81,1.39.81,2.4v4.36h-2.06v-.81c-.52.57-1.23.95-2.27.95-1.41,0-2.58-.81-2.58-2.3ZM148.54,11.83v-.38c-.36-.17-.84-.28-1.36-.28-.91,0-1.47.36-1.47,1.04v.03c0,.57.48.91,1.16.91,1,0,1.67-.55,1.67-1.32Z"/>
      <path class="cls-4" d="M154.52,13.49v.98h-2.13V4.25h2.13v3.8c.52-.7,1.23-1.22,2.34-1.22,1.75,0,3.42,1.37,3.42,3.88v.03c0,2.51-1.64,3.88-3.42,3.88-1.13,0-1.83-.52-2.34-1.12ZM158.14,10.73v-.03c0-1.25-.84-2.07-1.83-2.07s-1.82.83-1.82,2.07v.03c0,1.25.83,2.07,1.82,2.07s1.83-.81,1.83-2.07Z"/>
      <path class="cls-4" d="M161.88,4.25h2.24v1.89h-2.24v-1.89ZM161.94,6.97h2.13v7.51h-2.13v-7.51Z"/>
      <path class="cls-4" d="M166.16,4.25h2.13v10.23h-2.13V4.25Z"/>
      <path class="cls-4" d="M170.34,4.25h2.24v1.89h-2.24v-1.89ZM170.39,6.97h2.13v7.51h-2.13v-7.51Z"/>
      <path class="cls-4" d="M174.87,12.34v-3.56h-.9v-1.82h.9v-1.92h2.13v1.92h1.76v1.82h-1.76v3.21c0,.49.21.73.69.73.39,0,.74-.1,1.05-.27v1.71c-.45.27-.97.43-1.68.43-1.3,0-2.18-.52-2.18-2.25Z"/>
      <path class="cls-4" d="M185.26,6.97h2.21l-2.89,7.69c-.57,1.53-1.19,2.1-2.46,2.1-.77,0-1.34-.2-1.89-.52l.71-1.54c.28.17.63.29.91.29.36,0,.56-.11.74-.49l-2.94-7.54h2.25l1.71,5.11,1.64-5.11Z"/>
      <path class="cls-4" d="M192.57,10.76v-.03c0-2.16,1.74-3.91,4.08-3.91s4.05,1.72,4.05,3.88v.03c0,2.16-1.74,3.91-4.08,3.91s-4.05-1.72-4.05-3.88ZM198.59,10.76v-.03c0-1.11-.8-2.07-1.98-2.07s-1.95.94-1.95,2.05v.03c0,1.11.8,2.07,1.98,2.07s1.95-.94,1.95-2.04Z"/>
      <path class="cls-4" d="M202.59,8.79h-.88v-1.75h.88v-.48c0-.83.21-1.43.6-1.82.39-.39.97-.59,1.72-.59.67,0,1.12.08,1.51.21v1.76c-.31-.11-.6-.18-.97-.18-.49,0-.77.25-.77.81v.29h1.72v1.74h-1.69v5.69h-2.13v-5.69Z"/>
      <path class="cls-4" d="M73.02,23.76h2.13v1.51c.43-1.04,1.13-1.71,2.4-1.65v2.23h-.11c-1.42,0-2.28.85-2.28,2.65v2.77h-2.13v-7.51Z"/>
      <path class="cls-4" d="M78.3,27.56v-.03c0-2.14,1.53-3.91,3.71-3.91,2.51,0,3.66,1.95,3.66,4.08,0,.17-.01.36-.03.56h-5.22c.21.97.88,1.47,1.83,1.47.71,0,1.23-.22,1.82-.77l1.22,1.08c-.7.87-1.71,1.4-3.07,1.4-2.25,0-3.92-1.58-3.92-3.88ZM83.6,26.93c-.13-.95-.69-1.6-1.58-1.6s-1.46.63-1.62,1.6h3.21Z"/>
      <path class="cls-4" d="M86.66,30.28l.91-1.4c.81.59,1.67.9,2.37.9.62,0,.9-.22.9-.56v-.03c0-.46-.73-.62-1.55-.87-1.05-.31-2.24-.8-2.24-2.25v-.03c0-1.53,1.23-2.38,2.75-2.38.95,0,1.99.32,2.8.87l-.81,1.47c-.74-.43-1.48-.7-2.03-.7-.52,0-.78.22-.78.52v.03c0,.42.71.62,1.53.9,1.05.35,2.27.85,2.27,2.23v.03c0,1.67-1.25,2.42-2.87,2.42-1.05,0-2.23-.35-3.22-1.13Z"/>
      <path class="cls-4" d="M94.28,23.76h2.13v1.08c.52-.7,1.23-1.22,2.34-1.22,1.75,0,3.42,1.37,3.42,3.88v.03c0,2.51-1.64,3.88-3.42,3.88-1.13,0-1.83-.52-2.34-1.12v3.22h-2.13v-9.75ZM100.03,27.53v-.03c0-1.25-.84-2.07-1.83-2.07s-1.82.83-1.82,2.07v.03c0,1.25.83,2.07,1.82,2.07s1.83-.81,1.83-2.07Z"/>
      <path class="cls-4" d="M103.36,27.56v-.03c0-2.16,1.74-3.91,4.08-3.91s4.05,1.72,4.05,3.88v.03c0,2.16-1.74,3.91-4.08,3.91s-4.05-1.72-4.05-3.88ZM109.38,27.56v-.03c0-1.11-.8-2.07-1.97-2.07s-1.95.94-1.95,2.05v.03c0,1.11.8,2.07,1.97,2.07s1.95-.94,1.95-2.04Z"/>
      <path class="cls-4" d="M113.02,23.76h2.13v1.06c.49-.63,1.12-1.21,2.2-1.21,1.61,0,2.55,1.06,2.55,2.79v4.86h-2.13v-4.19c0-1.01-.48-1.53-1.29-1.53s-1.33.52-1.33,1.53v4.19h-2.13v-7.51Z"/>
      <path class="cls-4" d="M121.15,30.28l.91-1.4c.81.59,1.67.9,2.37.9.62,0,.9-.22.9-.56v-.03c0-.46-.73-.62-1.55-.87-1.05-.31-2.24-.8-2.24-2.25v-.03c0-1.53,1.23-2.38,2.75-2.38.95,0,1.99.32,2.8.87l-.81,1.47c-.74-.43-1.48-.7-2.03-.7-.52,0-.78.22-.78.52v.03c0,.42.71.62,1.53.9,1.05.35,2.27.85,2.27,2.23v.03c0,1.67-1.25,2.42-2.87,2.42-1.05,0-2.23-.35-3.22-1.13Z"/>
      <path class="cls-4" d="M128.41,27.56v-.03c0-2.14,1.53-3.91,3.71-3.91,2.51,0,3.66,1.95,3.66,4.08,0,.17-.01.36-.03.56h-5.22c.21.97.88,1.47,1.83,1.47.71,0,1.23-.22,1.82-.77l1.22,1.08c-.7.87-1.71,1.4-3.07,1.4-2.25,0-3.92-1.58-3.92-3.88ZM133.7,26.93c-.13-.95-.69-1.6-1.58-1.6s-1.46.63-1.62,1.6h3.21Z"/>
      <path class="cls-4" d="M137.85,22.13l-1,.24-.26-1.03,1.64-.49h.86v5.75h-1.24v-4.48Z"/>
      <path class="cls-4" d="M73.02,44.05c0-2.58,1.39-4.59,3.88-6l.46.71c-2.13,1.36-3.25,3.04-3.25,5.28s1.12,3.92,3.25,5.28l-.46.71c-2.49-1.4-3.88-3.42-3.88-6Z"/>
      <path class="cls-4" d="M79.43,45.79l5.39-2.63-5.39-2.65v-1.09l6.57,3.26v.92l-6.57,3.26v-1.08Z"/>
      <path class="cls-4" d="M93.6,39.35l-1.85.57-.27-.9,2.4-.83h.81v9.88h-1.09v-8.73Z"/>
      <path class="cls-4" d="M103.18,43.14v-.2c-.62.95-1.51,1.55-2.77,1.55-2.02,0-3.42-1.27-3.42-3.04v-.03c0-1.86,1.44-3.33,3.53-3.33,1.12,0,1.95.38,2.58,1.01.74.74,1.22,1.83,1.22,3.8v.03c0,3.11-1.65,5.31-4.08,5.31-1.28,0-2.2-.52-3.03-1.2l.64-.85c.8.7,1.54,1.05,2.41,1.05,1.89,0,2.91-1.97,2.91-4.09ZM102.97,41.34v-.03c0-1.25-1.02-2.23-2.49-2.23s-2.35,1.08-2.35,2.3v.03c0,1.25.98,2.14,2.41,2.14,1.5,0,2.44-1.09,2.44-2.21Z"/>
      <path class="cls-4" d="M110.57,40.83h1.08v1.46c.59-.87,1.44-1.61,2.77-1.61,1.74,0,3.46,1.37,3.46,3.75v.03c0,2.37-1.71,3.77-3.46,3.77-1.34,0-2.21-.73-2.77-1.54v3.63h-1.08v-9.48ZM116.78,44.47v-.03c0-1.71-1.18-2.8-2.55-2.8s-2.62,1.13-2.62,2.79v.03c0,1.68,1.27,2.8,2.62,2.8s2.55-1.04,2.55-2.79Z"/>
      <path class="cls-4" d="M119.42,44.49v-.03c0-2.04,1.6-3.78,3.78-3.78s3.77,1.71,3.77,3.75v.03c0,2.05-1.61,3.78-3.8,3.78s-3.75-1.71-3.75-3.75ZM125.86,44.49v-.03c0-1.55-1.16-2.83-2.69-2.83s-2.65,1.27-2.65,2.8v.03c0,1.55,1.15,2.82,2.68,2.82s2.66-1.26,2.66-2.79Z"/>
      <path class="cls-4" d="M128.94,38.06h1.23v1.19h-1.23v-1.19ZM129.01,40.83h1.08v7.24h-1.08v-7.24Z"/>
      <path class="cls-4" d="M132.59,40.83h1.08v1.26c.48-.78,1.23-1.42,2.48-1.42,1.75,0,2.77,1.18,2.77,2.9v4.5h-1.08v-4.23c0-1.34-.73-2.18-2-2.18s-2.17.91-2.17,2.27v4.15h-1.08v-7.24Z"/>
      <path class="cls-4" d="M141.59,46.15v-4.37h-1.01v-.95h1.01v-2.18h1.08v2.18h2.3v.95h-2.3v4.23c0,.88.49,1.21,1.22,1.21.36,0,.67-.07,1.05-.25v.92c-.38.2-.78.31-1.3.31-1.16,0-2.04-.57-2.04-2.04Z"/>
      <path class="cls-4" d="M146.27,47.15l.55-.77c.79.59,1.65.92,2.51.92s1.5-.45,1.5-1.15v-.03c0-.73-.85-1.01-1.81-1.27-1.13-.32-2.39-.71-2.39-2.04v-.03c0-1.25,1.04-2.07,2.46-2.07.88,0,1.86.31,2.61.8l-.49.81c-.67-.43-1.44-.7-2.14-.7-.85,0-1.4.45-1.4,1.05v.03c0,.69.9.95,1.86,1.25,1.12.34,2.33.77,2.33,2.07v.03c0,1.37-1.13,2.17-2.58,2.17-1.04,0-2.19-.41-3-1.06Z"/>
      <path class="cls-4" d="M153.14,49.33c2.13-1.36,3.25-3.04,3.25-5.28s-1.12-3.92-3.25-5.28l.46-.71c2.49,1.4,3.88,3.42,3.88,6s-1.39,4.59-3.88,6l-.46-.71Z"/>
    </g>
    <g>
      <path class="cls-4" d="M73.34,87.94h2.16v9.8h-2.16v-9.8Z"/>
      <path class="cls-4" d="M77.73,90.24h2.13v1.06c.49-.63,1.12-1.21,2.2-1.21,1.61,0,2.55,1.06,2.55,2.79v4.86h-2.13v-4.19c0-1.01-.48-1.53-1.29-1.53s-1.33.52-1.33,1.53v4.19h-2.13v-7.51Z"/>
      <path class="cls-4" d="M86.8,95.62v-3.56h-.9v-1.82h.9v-1.92h2.13v1.92h1.76v1.82h-1.76v3.21c0,.49.21.73.69.73.39,0,.74-.1,1.05-.27v1.71c-.45.27-.97.44-1.68.44-1.3,0-2.18-.52-2.18-2.26Z"/>
      <path class="cls-4" d="M91.68,94.03v-.03c0-2.14,1.53-3.91,3.71-3.91,2.51,0,3.66,1.95,3.66,4.08,0,.17-.01.37-.03.56h-5.22c.21.97.88,1.47,1.83,1.47.71,0,1.23-.22,1.82-.77l1.22,1.08c-.7.87-1.71,1.4-3.07,1.4-2.25,0-3.92-1.58-3.92-3.88ZM96.98,93.4c-.13-.95-.69-1.6-1.58-1.6s-1.46.63-1.62,1.6h3.21Z"/>
      <path class="cls-4" d="M100.63,90.24h2.13v1.51c.43-1.04,1.13-1.71,2.4-1.65v2.23h-.11c-1.42,0-2.28.85-2.28,2.65v2.77h-2.13v-7.51Z"/>
      <path class="cls-4" d="M106.48,90.24h2.13v1.06c.49-.63,1.13-1.21,2.21-1.21.98,0,1.72.44,2.12,1.19.66-.77,1.44-1.19,2.46-1.19,1.58,0,2.54.95,2.54,2.76v4.89h-2.13v-4.19c0-1.01-.45-1.53-1.25-1.53s-1.29.52-1.29,1.53v4.19h-2.13v-4.19c0-1.01-.45-1.53-1.25-1.53s-1.29.52-1.29,1.53v4.19h-2.13v-7.51Z"/>
      <path class="cls-4" d="M119.42,94.03v-.03c0-2.14,1.53-3.91,3.71-3.91,2.51,0,3.66,1.95,3.66,4.08,0,.17-.01.37-.03.56h-5.22c.21.97.88,1.47,1.83,1.47.71,0,1.23-.22,1.82-.77l1.22,1.08c-.7.87-1.71,1.4-3.07,1.4-2.25,0-3.92-1.58-3.92-3.88ZM124.71,93.4c-.13-.95-.69-1.6-1.58-1.6s-1.46.63-1.62,1.6h3.21Z"/>
      <path class="cls-4" d="M128.03,94.01v-.03c0-2.51,1.64-3.88,3.42-3.88,1.13,0,1.83.52,2.34,1.12v-3.7h2.13v10.22h-2.13v-1.08c-.52.7-1.23,1.22-2.34,1.22-1.75,0-3.42-1.37-3.42-3.88ZM133.81,94.01v-.03c0-1.25-.83-2.07-1.82-2.07s-1.83.81-1.83,2.07v.03c0,1.25.84,2.07,1.83,2.07s1.82-.83,1.82-2.07Z"/>
      <path class="cls-4" d="M137.86,87.52h2.24v1.89h-2.24v-1.89ZM137.91,90.24h2.13v7.51h-2.13v-7.51Z"/>
      <path class="cls-4" d="M141.59,95.59v-.03c0-1.64,1.25-2.39,3.03-2.39.76,0,1.3.13,1.83.31v-.13c0-.88-.55-1.37-1.61-1.37-.81,0-1.39.15-2.07.41l-.53-1.62c.83-.36,1.64-.6,2.91-.6,1.16,0,2,.31,2.54.84.56.56.81,1.39.81,2.4v4.36h-2.06v-.81c-.52.57-1.23.95-2.27.95-1.41,0-2.58-.81-2.58-2.3ZM146.48,95.1v-.38c-.36-.17-.84-.28-1.36-.28-.91,0-1.47.36-1.47,1.04v.03c0,.57.48.91,1.16.91,1,0,1.67-.55,1.67-1.32Z"/>
      <path class="cls-4" d="M150.61,95.62v-3.56h-.9v-1.82h.9v-1.92h2.13v1.92h1.77v1.82h-1.77v3.21c0,.49.21.73.69.73.39,0,.74-.1,1.05-.27v1.71c-.45.27-.97.44-1.68.44-1.3,0-2.19-.52-2.19-2.26Z"/>
      <path class="cls-4" d="M155.5,94.03v-.03c0-2.14,1.53-3.91,3.71-3.91,2.51,0,3.66,1.95,3.66,4.08,0,.17-.01.37-.03.56h-5.22c.21.97.88,1.47,1.83,1.47.71,0,1.23-.22,1.82-.77l1.22,1.08c-.7.87-1.71,1.4-3.07,1.4-2.25,0-3.92-1.58-3.92-3.88ZM160.79,93.4c-.13-.95-.69-1.6-1.58-1.6s-1.46.63-1.62,1.6h3.21Z"/>
      <path class="cls-4" d="M73.02,107.04h2.13v1.08c.52-.7,1.23-1.22,2.34-1.22,1.75,0,3.42,1.37,3.42,3.88v.03c0,2.51-1.64,3.88-3.42,3.88-1.13,0-1.83-.52-2.34-1.12v3.22h-2.13v-9.75ZM78.78,110.81v-.03c0-1.25-.84-2.07-1.83-2.07s-1.82.83-1.82,2.07v.03c0,1.25.83,2.07,1.82,2.07s1.83-.81,1.83-2.07Z"/>
      <path class="cls-4" d="M82.47,107.04h2.13v1.51c.43-1.04,1.13-1.71,2.4-1.65v2.23h-.11c-1.42,0-2.28.86-2.28,2.65v2.77h-2.13v-7.51Z"/>
      <path class="cls-4" d="M87.75,110.83v-.03c0-2.16,1.74-3.91,4.08-3.91s4.05,1.72,4.05,3.88v.03c0,2.16-1.74,3.91-4.08,3.91s-4.05-1.72-4.05-3.88ZM93.77,110.83v-.03c0-1.11-.8-2.07-1.97-2.07s-1.95.94-1.95,2.05v.03c0,1.11.8,2.07,1.97,2.07s1.95-.94,1.95-2.04Z"/>
      <path class="cls-4" d="M99.54,113.57v.98h-2.13v-10.23h2.13v3.8c.52-.7,1.23-1.22,2.34-1.22,1.75,0,3.42,1.37,3.42,3.88v.03c0,2.51-1.64,3.88-3.42,3.88-1.13,0-1.83-.52-2.34-1.12ZM103.17,110.81v-.03c0-1.25-.84-2.07-1.83-2.07s-1.82.83-1.82,2.07v.03c0,1.25.83,2.07,1.82,2.07s1.83-.81,1.83-2.07Z"/>
      <path class="cls-4" d="M106.41,112.39v-.03c0-1.64,1.25-2.39,3.03-2.39.76,0,1.3.12,1.83.31v-.12c0-.88-.55-1.37-1.61-1.37-.81,0-1.39.15-2.07.41l-.53-1.62c.83-.36,1.64-.6,2.91-.6,1.16,0,2,.31,2.54.84.56.56.81,1.39.81,2.39v4.36h-2.06v-.81c-.52.57-1.23.95-2.27.95-1.42,0-2.58-.81-2.58-2.3ZM111.3,111.9v-.38c-.36-.17-.84-.28-1.36-.28-.91,0-1.47.37-1.47,1.04v.03c0,.57.48.91,1.16.91.99,0,1.67-.54,1.67-1.32Z"/>
      <path class="cls-4" d="M117.28,113.57v.98h-2.13v-10.23h2.13v3.8c.52-.7,1.23-1.22,2.34-1.22,1.75,0,3.42,1.37,3.42,3.88v.03c0,2.51-1.64,3.88-3.42,3.88-1.13,0-1.83-.52-2.34-1.12ZM120.9,110.81v-.03c0-1.25-.84-2.07-1.83-2.07s-1.82.83-1.82,2.07v.03c0,1.25.83,2.07,1.82,2.07s1.83-.81,1.83-2.07Z"/>
      <path class="cls-4" d="M124.64,104.32h2.24v1.89h-2.24v-1.89ZM124.7,107.04h2.13v7.51h-2.13v-7.51Z"/>
      <path class="cls-4" d="M128.92,104.32h2.13v10.23h-2.13v-10.23Z"/>
      <path class="cls-4" d="M133.1,104.32h2.24v1.89h-2.24v-1.89ZM133.15,107.04h2.13v7.51h-2.13v-7.51Z"/>
      <path class="cls-4" d="M137.63,112.42v-3.56h-.9v-1.82h.9v-1.92h2.13v1.92h1.77v1.82h-1.77v3.21c0,.49.21.73.69.73.39,0,.74-.1,1.05-.27v1.71c-.45.27-.97.43-1.68.43-1.3,0-2.19-.52-2.19-2.25Z"/>
      <path class="cls-4" d="M148.02,107.04h2.21l-2.88,7.69c-.57,1.53-1.19,2.1-2.47,2.1-.77,0-1.34-.2-1.89-.52l.71-1.54c.28.17.63.29.91.29.36,0,.56-.11.74-.49l-2.94-7.54h2.25l1.71,5.11,1.64-5.11Z"/>
      <path class="cls-4" d="M155.33,110.83v-.03c0-2.16,1.74-3.91,4.08-3.91s4.05,1.72,4.05,3.88v.03c0,2.16-1.74,3.91-4.08,3.91s-4.05-1.72-4.05-3.88ZM161.35,110.83v-.03c0-1.11-.8-2.07-1.97-2.07s-1.95.94-1.95,2.05v.03c0,1.11.8,2.07,1.97,2.07s1.95-.94,1.95-2.04Z"/>
      <path class="cls-4" d="M165.35,108.86h-.88v-1.75h.88v-.47c0-.83.21-1.43.6-1.82.39-.39.97-.59,1.72-.59.67,0,1.12.08,1.51.21v1.76c-.31-.11-.6-.18-.97-.18-.49,0-.77.25-.77.81v.29h1.72v1.74h-1.7v5.69h-2.13v-5.69Z"/>
      <path class="cls-4" d="M73.02,123.84h2.13v1.51c.43-1.04,1.13-1.71,2.4-1.65v2.23h-.11c-1.41,0-2.28.86-2.28,2.65v2.77h-2.13v-7.51Z"/>
      <path class="cls-4" d="M78.3,127.63v-.03c0-2.14,1.53-3.91,3.71-3.91,2.51,0,3.66,1.95,3.66,4.08,0,.17-.01.36-.03.56h-5.22c.21.97.88,1.47,1.83,1.47.71,0,1.23-.22,1.82-.77l1.22,1.08c-.7.87-1.71,1.4-3.07,1.4-2.25,0-3.92-1.58-3.92-3.88ZM83.6,127c-.13-.95-.69-1.6-1.58-1.6s-1.46.63-1.62,1.6h3.21Z"/>
      <path class="cls-4" d="M86.66,130.35l.91-1.4c.81.59,1.67.9,2.37.9.62,0,.9-.22.9-.56v-.03c0-.46-.73-.62-1.56-.87-1.05-.31-2.24-.8-2.24-2.25v-.03c0-1.53,1.23-2.38,2.75-2.38.95,0,1.99.32,2.8.87l-.81,1.47c-.74-.43-1.49-.7-2.03-.7s-.78.22-.78.52v.03c0,.42.71.62,1.53.9,1.05.35,2.27.86,2.27,2.23v.03c0,1.67-1.25,2.42-2.87,2.42-1.05,0-2.23-.35-3.22-1.13Z"/>
      <path class="cls-4" d="M94.27,123.84h2.13v1.08c.52-.7,1.23-1.22,2.34-1.22,1.75,0,3.42,1.37,3.42,3.88v.03c0,2.51-1.64,3.88-3.42,3.88-1.13,0-1.83-.52-2.34-1.12v3.22h-2.13v-9.75ZM100.03,127.61v-.03c0-1.25-.84-2.07-1.83-2.07s-1.82.83-1.82,2.07v.03c0,1.25.83,2.07,1.82,2.07s1.83-.81,1.83-2.07Z"/>
      <path class="cls-4" d="M103.36,127.63v-.03c0-2.16,1.74-3.91,4.08-3.91s4.05,1.72,4.05,3.88v.03c0,2.16-1.74,3.91-4.08,3.91s-4.05-1.72-4.05-3.88ZM109.38,127.63v-.03c0-1.11-.8-2.07-1.98-2.07s-1.95.94-1.95,2.05v.03c0,1.11.8,2.07,1.98,2.07s1.95-.94,1.95-2.04Z"/>
      <path class="cls-4" d="M113.02,123.84h2.13v1.06c.49-.63,1.12-1.21,2.2-1.21,1.61,0,2.55,1.06,2.55,2.79v4.86h-2.13v-4.19c0-1.01-.48-1.53-1.29-1.53s-1.33.52-1.33,1.53v4.19h-2.13v-7.51Z"/>
      <path class="cls-4" d="M121.15,130.35l.91-1.4c.81.59,1.67.9,2.37.9.62,0,.9-.22.9-.56v-.03c0-.46-.73-.62-1.56-.87-1.05-.31-2.24-.8-2.24-2.25v-.03c0-1.53,1.23-2.38,2.75-2.38.95,0,1.99.32,2.8.87l-.81,1.47c-.74-.43-1.49-.7-2.03-.7s-.78.22-.78.52v.03c0,.42.71.62,1.53.9,1.05.35,2.27.86,2.27,2.23v.03c0,1.67-1.25,2.42-2.87,2.42-1.05,0-2.23-.35-3.22-1.13Z"/>
      <path class="cls-4" d="M128.4,127.63v-.03c0-2.14,1.53-3.91,3.71-3.91,2.51,0,3.66,1.95,3.66,4.08,0,.17-.01.36-.03.56h-5.22c.21.97.88,1.47,1.83,1.47.71,0,1.23-.22,1.82-.77l1.22,1.08c-.7.87-1.71,1.4-3.07,1.4-2.25,0-3.92-1.58-3.92-3.88ZM133.7,127c-.13-.95-.69-1.6-1.58-1.6s-1.46.63-1.62,1.6h3.21Z"/>
      <path class="cls-4" d="M137.85,122.2l-1,.24-.26-1.03,1.64-.49h.86v5.76h-1.24v-4.48Z"/>
      <path class="cls-4" d="M73.02,144.13c0-2.58,1.39-4.59,3.88-6l.46.71c-2.13,1.36-3.25,3.04-3.25,5.28s1.12,3.92,3.25,5.28l-.46.71c-2.49-1.4-3.88-3.42-3.88-5.99Z"/>
      <path class="cls-4" d="M79.43,145.86l5.39-2.63-5.39-2.65v-1.09l6.57,3.26v.92l-6.57,3.26v-1.08Z"/>
      <path class="cls-4" d="M93.6,139.42l-1.85.57-.27-.9,2.4-.83h.81v9.88h-1.09v-8.73Z"/>
      <path class="cls-4" d="M96.81,146.56l.8-.71c.76.92,1.67,1.46,2.87,1.46s2.14-.76,2.14-1.9v-.03c0-1.22-1.13-1.89-2.75-1.89h-.63l-.22-.66,3.1-3.49h-4.79v-.99h6.26v.81l-3.08,3.42c1.71.14,3.24.97,3.24,2.76v.03c0,1.75-1.46,2.96-3.28,2.96-1.64,0-2.86-.71-3.66-1.75Z"/>
      <path class="cls-4" d="M109.55,146.04v-.03c0-1.53,1.26-2.34,3.1-2.34.92,0,1.58.13,2.23.31v-.25c0-1.3-.8-1.97-2.16-1.97-.85,0-1.53.22-2.2.53l-.32-.88c.8-.37,1.58-.6,2.63-.6s1.81.27,2.34.8c.49.49.74,1.19.74,2.12v4.43h-1.04v-1.09c-.5.66-1.34,1.25-2.62,1.25-1.34,0-2.7-.77-2.7-2.26ZM114.88,145.49v-.7c-.53-.15-1.25-.31-2.13-.31-1.36,0-2.12.59-2.12,1.5v.03c0,.91.84,1.44,1.82,1.44,1.33,0,2.42-.81,2.42-1.96Z"/>
      <path class="cls-4" d="M118.2,140.9h1.08v1.26c.48-.79,1.23-1.41,2.48-1.41,1.75,0,2.77,1.18,2.77,2.9v4.5h-1.08v-4.23c0-1.34-.73-2.18-2-2.18s-2.17.91-2.17,2.27v4.15h-1.08v-7.24Z"/>
      <path class="cls-4" d="M126.4,144.55v-.03c0-2.37,1.72-3.77,3.46-3.77,1.34,0,2.21.73,2.77,1.54v-4.37h1.08v10.22h-1.08v-1.46c-.59.87-1.44,1.61-2.77,1.61-1.74,0-3.46-1.37-3.46-3.75ZM132.68,144.53v-.03c0-1.67-1.27-2.79-2.62-2.79s-2.55,1.04-2.55,2.79v.03c0,1.71,1.18,2.8,2.55,2.8s2.62-1.13,2.62-2.8Z"/>
      <path class="cls-4" d="M140.04,144.06v-.83l6.5-2.69v.92l-5.35,2.17v.03l5.35,2.16v.94l-6.5-2.7ZM140.07,148.15v-.81h6.47v.81h-6.47Z"/>
      <path class="cls-4" d="M154.16,139.42l-1.85.57-.27-.9,2.4-.83h.81v9.88h-1.09v-8.73Z"/>
      <path class="cls-4" d="M163.74,143.22v-.2c-.62.95-1.51,1.55-2.77,1.55-2.02,0-3.42-1.27-3.42-3.04v-.03c0-1.86,1.44-3.33,3.53-3.33,1.12,0,1.95.38,2.58,1.01.74.74,1.22,1.84,1.22,3.8v.03c0,3.11-1.65,5.31-4.08,5.31-1.27,0-2.2-.52-3.03-1.2l.64-.86c.8.7,1.54,1.05,2.41,1.05,1.89,0,2.91-1.97,2.91-4.09ZM163.53,141.41v-.03c0-1.25-1.02-2.23-2.49-2.23s-2.35,1.08-2.35,2.3v.03c0,1.25.98,2.14,2.41,2.14,1.5,0,2.44-1.09,2.44-2.21Z"/>
      <path class="cls-4" d="M171.13,140.9h1.08v1.46c.59-.87,1.44-1.61,2.77-1.61,1.74,0,3.46,1.37,3.46,3.75v.03c0,2.37-1.71,3.77-3.46,3.77-1.34,0-2.21-.73-2.77-1.54v3.63h-1.08v-9.48ZM177.34,144.55v-.03c0-1.71-1.18-2.8-2.55-2.8s-2.62,1.13-2.62,2.79v.03c0,1.68,1.28,2.8,2.62,2.8s2.55-1.04,2.55-2.79Z"/>
      <path class="cls-4" d="M179.98,144.56v-.03c0-2.04,1.6-3.78,3.78-3.78s3.77,1.71,3.77,3.75v.03c0,2.04-1.61,3.78-3.8,3.78s-3.75-1.71-3.75-3.75ZM186.42,144.56v-.03c0-1.55-1.16-2.83-2.69-2.83s-2.65,1.28-2.65,2.8v.03c0,1.55,1.15,2.81,2.68,2.81s2.66-1.26,2.66-2.79Z"/>
      <path class="cls-4" d="M189.5,138.13h1.23v1.19h-1.23v-1.19ZM189.57,140.9h1.08v7.24h-1.08v-7.24Z"/>
      <path class="cls-4" d="M193.15,140.9h1.08v1.26c.48-.79,1.23-1.41,2.48-1.41,1.75,0,2.77,1.18,2.77,2.9v4.5h-1.08v-4.23c0-1.34-.73-2.18-2-2.18s-2.17.91-2.17,2.27v4.15h-1.08v-7.24Z"/>
      <path class="cls-4" d="M202.15,146.23v-4.37h-1.01v-.95h1.01v-2.18h1.08v2.18h2.3v.95h-2.3v4.23c0,.88.49,1.21,1.22,1.21.36,0,.67-.07,1.05-.25v.92c-.38.2-.78.31-1.3.31-1.16,0-2.04-.57-2.04-2.04Z"/>
      <path class="cls-4" d="M206.83,147.22l.55-.77c.78.59,1.65.93,2.51.93s1.5-.45,1.5-1.15v-.03c0-.73-.85-1.01-1.81-1.27-1.13-.32-2.4-.71-2.4-2.04v-.03c0-1.25,1.04-2.07,2.47-2.07.88,0,1.86.31,2.61.8l-.49.81c-.67-.44-1.44-.7-2.14-.7-.85,0-1.4.45-1.4,1.05v.03c0,.69.9.95,1.86,1.25,1.12.34,2.33.77,2.33,2.07v.03c0,1.37-1.13,2.17-2.58,2.17-1.04,0-2.19-.41-3-1.06Z"/>
      <path class="cls-4" d="M213.7,149.41c2.13-1.36,3.25-3.04,3.25-5.28s-1.12-3.92-3.25-5.28l.46-.71c2.49,1.4,3.88,3.42,3.88,6s-1.39,4.59-3.88,5.99l-.46-.71Z"/>
    </g>
    <g>
      <path class="cls-4" d="M73.25,192.31h2.16v7.84h4.89v1.96h-7.05v-9.81Z"/>
      <path class="cls-4" d="M81.18,198.4v-.03c0-2.16,1.74-3.91,4.08-3.91s4.05,1.72,4.05,3.88v.03c0,2.16-1.74,3.91-4.08,3.91s-4.05-1.72-4.05-3.88ZM87.21,198.4v-.03c0-1.11-.8-2.07-1.97-2.07s-1.95.94-1.95,2.05v.03c0,1.11.8,2.07,1.97,2.07s1.95-.94,1.95-2.04Z"/>
      <path class="cls-4" d="M89.88,194.61h2.16l1.21,4.55,1.41-4.58h1.83l1.43,4.59,1.23-4.57h2.11l-2.34,7.56h-1.92l-1.44-4.61-1.47,4.61h-1.9l-2.31-7.56Z"/>
      <path class="cls-4" d="M106.75,194.61h2.13v1.08c.52-.7,1.23-1.22,2.34-1.22,1.75,0,3.42,1.37,3.42,3.88v.03c0,2.51-1.64,3.88-3.42,3.88-1.13,0-1.83-.52-2.34-1.12v3.22h-2.13v-9.75ZM112.51,198.37v-.03c0-1.25-.84-2.07-1.83-2.07s-1.82.83-1.82,2.07v.03c0,1.25.83,2.07,1.82,2.07s1.83-.81,1.83-2.07Z"/>
      <path class="cls-4" d="M116.2,194.61h2.13v1.51c.43-1.04,1.13-1.71,2.4-1.65v2.23h-.11c-1.41,0-2.28.85-2.28,2.65v2.77h-2.13v-7.51Z"/>
      <path class="cls-4" d="M121.48,198.4v-.03c0-2.16,1.74-3.91,4.08-3.91s4.05,1.72,4.05,3.88v.03c0,2.16-1.74,3.91-4.08,3.91s-4.05-1.72-4.05-3.88ZM127.5,198.4v-.03c0-1.11-.8-2.07-1.98-2.07s-1.95.94-1.95,2.05v.03c0,1.11.8,2.07,1.98,2.07s1.95-.94,1.95-2.04Z"/>
      <path class="cls-4" d="M133.27,201.13v.98h-2.13v-10.23h2.13v3.8c.52-.7,1.23-1.22,2.34-1.22,1.75,0,3.42,1.37,3.42,3.88v.03c0,2.51-1.64,3.88-3.42,3.88-1.13,0-1.83-.52-2.34-1.12ZM136.89,198.37v-.03c0-1.25-.84-2.07-1.83-2.07s-1.82.83-1.82,2.07v.03c0,1.25.83,2.07,1.82,2.07s1.83-.81,1.83-2.07Z"/>
      <path class="cls-4" d="M140.14,199.96v-.03c0-1.64,1.25-2.39,3.03-2.39.76,0,1.3.13,1.83.31v-.13c0-.88-.55-1.37-1.61-1.37-.81,0-1.39.15-2.07.41l-.53-1.62c.83-.36,1.64-.6,2.91-.6,1.16,0,2,.31,2.54.84.56.56.81,1.39.81,2.4v4.36h-2.06v-.81c-.52.57-1.23.95-2.27.95-1.41,0-2.58-.81-2.58-2.3ZM145.03,199.47v-.38c-.36-.17-.84-.28-1.36-.28-.91,0-1.47.36-1.47,1.04v.03c0,.57.48.91,1.16.91,1,0,1.67-.55,1.67-1.32Z"/>
      <path class="cls-4" d="M151,201.13v.98h-2.13v-10.23h2.13v3.8c.52-.7,1.23-1.22,2.34-1.22,1.75,0,3.42,1.37,3.42,3.88v.03c0,2.51-1.64,3.88-3.42,3.88-1.13,0-1.83-.52-2.34-1.12ZM154.63,198.37v-.03c0-1.25-.84-2.07-1.83-2.07s-1.82.83-1.82,2.07v.03c0,1.25.83,2.07,1.82,2.07s1.83-.81,1.83-2.07Z"/>
      <path class="cls-4" d="M158.37,191.89h2.24v1.89h-2.24v-1.89ZM158.42,194.61h2.13v7.51h-2.13v-7.51Z"/>
      <path class="cls-4" d="M162.65,191.89h2.13v10.23h-2.13v-10.23Z"/>
      <path class="cls-4" d="M166.82,191.89h2.24v1.89h-2.24v-1.89ZM166.88,194.61h2.13v7.51h-2.13v-7.51Z"/>
      <path class="cls-4" d="M171.36,199.99v-3.56h-.9v-1.82h.9v-1.92h2.13v1.92h1.76v1.82h-1.76v3.21c0,.49.21.73.69.73.39,0,.74-.1,1.05-.27v1.71c-.45.27-.97.43-1.68.43-1.3,0-2.18-.52-2.18-2.25Z"/>
      <path class="cls-4" d="M181.75,194.61h2.21l-2.89,7.69c-.57,1.53-1.19,2.1-2.46,2.1-.77,0-1.34-.2-1.89-.52l.71-1.54c.28.17.63.29.91.29.36,0,.56-.11.74-.49l-2.94-7.54h2.25l1.71,5.11,1.64-5.11Z"/>
      <path class="cls-4" d="M189.05,198.4v-.03c0-2.16,1.74-3.91,4.08-3.91s4.05,1.72,4.05,3.88v.03c0,2.16-1.74,3.91-4.08,3.91s-4.05-1.72-4.05-3.88ZM195.08,198.4v-.03c0-1.11-.8-2.07-1.98-2.07s-1.95.94-1.95,2.05v.03c0,1.11.8,2.07,1.98,2.07s1.95-.94,1.95-2.04Z"/>
      <path class="cls-4" d="M199.08,196.43h-.88v-1.75h.88v-.48c0-.83.21-1.43.6-1.82.39-.39.97-.59,1.72-.59.67,0,1.12.08,1.51.21v1.76c-.31-.11-.6-.18-.97-.18-.49,0-.77.25-.77.81v.29h1.72v1.74h-1.69v5.69h-2.13v-5.69Z"/>
      <path class="cls-4" d="M73.02,211.41h2.13v1.51c.43-1.04,1.13-1.71,2.4-1.65v2.23h-.11c-1.42,0-2.28.85-2.28,2.65v2.77h-2.13v-7.51Z"/>
      <path class="cls-4" d="M78.3,215.2v-.03c0-2.14,1.53-3.91,3.71-3.91,2.51,0,3.66,1.95,3.66,4.08,0,.17-.01.36-.03.56h-5.22c.21.97.88,1.47,1.83,1.47.71,0,1.23-.22,1.82-.77l1.22,1.08c-.7.87-1.71,1.4-3.07,1.4-2.25,0-3.92-1.58-3.92-3.88ZM83.6,214.57c-.13-.95-.69-1.6-1.58-1.6s-1.46.63-1.62,1.6h3.21Z"/>
      <path class="cls-4" d="M86.66,217.92l.91-1.4c.81.59,1.67.9,2.37.9.62,0,.9-.22.9-.56v-.03c0-.46-.73-.62-1.55-.87-1.05-.31-2.24-.8-2.24-2.25v-.03c0-1.53,1.23-2.38,2.75-2.38.95,0,1.99.32,2.8.87l-.81,1.47c-.74-.43-1.48-.7-2.03-.7-.52,0-.78.22-.78.52v.03c0,.42.71.62,1.53.9,1.05.35,2.27.85,2.27,2.23v.03c0,1.67-1.25,2.42-2.87,2.42-1.05,0-2.23-.35-3.22-1.13Z"/>
      <path class="cls-4" d="M94.28,211.41h2.13v1.08c.52-.7,1.23-1.22,2.34-1.22,1.75,0,3.42,1.37,3.42,3.88v.03c0,2.51-1.64,3.88-3.42,3.88-1.13,0-1.83-.52-2.34-1.12v3.22h-2.13v-9.75ZM100.03,215.17v-.03c0-1.25-.84-2.07-1.83-2.07s-1.82.83-1.82,2.07v.03c0,1.25.83,2.07,1.82,2.07s1.83-.81,1.83-2.07Z"/>
      <path class="cls-4" d="M103.36,215.2v-.03c0-2.16,1.74-3.91,4.08-3.91s4.05,1.72,4.05,3.88v.03c0,2.16-1.74,3.91-4.08,3.91s-4.05-1.72-4.05-3.88ZM109.38,215.2v-.03c0-1.11-.8-2.07-1.97-2.07s-1.95.94-1.95,2.05v.03c0,1.11.8,2.07,1.97,2.07s1.95-.94,1.95-2.04Z"/>
      <path class="cls-4" d="M113.02,211.41h2.13v1.06c.49-.63,1.12-1.21,2.2-1.21,1.61,0,2.55,1.06,2.55,2.79v4.86h-2.13v-4.19c0-1.01-.48-1.53-1.29-1.53s-1.33.52-1.33,1.53v4.19h-2.13v-7.51Z"/>
      <path class="cls-4" d="M121.15,217.92l.91-1.4c.81.59,1.67.9,2.37.9.62,0,.9-.22.9-.56v-.03c0-.46-.73-.62-1.55-.87-1.05-.31-2.24-.8-2.24-2.25v-.03c0-1.53,1.23-2.38,2.75-2.38.95,0,1.99.32,2.8.87l-.81,1.47c-.74-.43-1.48-.7-2.03-.7-.52,0-.78.22-.78.52v.03c0,.42.71.62,1.53.9,1.05.35,2.27.85,2.27,2.23v.03c0,1.67-1.25,2.42-2.87,2.42-1.05,0-2.23-.35-3.22-1.13Z"/>
      <path class="cls-4" d="M128.41,215.2v-.03c0-2.14,1.53-3.91,3.71-3.91,2.51,0,3.66,1.95,3.66,4.08,0,.17-.01.36-.03.56h-5.22c.21.97.88,1.47,1.83,1.47.71,0,1.23-.22,1.82-.77l1.22,1.08c-.7.87-1.71,1.4-3.07,1.4-2.25,0-3.92-1.58-3.92-3.88ZM133.7,214.57c-.13-.95-.69-1.6-1.58-1.6s-1.46.63-1.62,1.6h3.21Z"/>
      <path class="cls-4" d="M137.85,209.77l-1,.24-.26-1.03,1.64-.49h.86v5.75h-1.24v-4.48Z"/>
      <path class="cls-4" d="M73.02,231.69c0-2.58,1.39-4.59,3.88-6l.46.71c-2.13,1.36-3.25,3.04-3.25,5.28s1.12,3.92,3.25,5.28l-.46.71c-2.49-1.4-3.88-3.42-3.88-6Z"/>
      <path class="cls-4" d="M79.07,231.63v-.83l6.5-2.69v.92l-5.35,2.17v.03l5.35,2.16v.94l-6.5-2.7ZM79.1,235.72v-.81h6.47v.81h-6.47Z"/>
      <path class="cls-4" d="M93.2,226.99l-1.85.57-.27-.9,2.4-.83h.81v9.88h-1.09v-8.73Z"/>
      <path class="cls-4" d="M96.4,234.13l.8-.71c.76.92,1.67,1.46,2.87,1.46s2.14-.76,2.14-1.9v-.03c0-1.22-1.13-1.89-2.75-1.89h-.63l-.22-.66,3.1-3.49h-4.79v-1h6.26v.81l-3.08,3.42c1.71.14,3.24.97,3.24,2.76v.03c0,1.75-1.46,2.96-3.28,2.96-1.64,0-2.86-.71-3.66-1.75Z"/>
      <path class="cls-4" d="M109.69,228.47h1.08v1.46c.59-.87,1.44-1.61,2.77-1.61,1.74,0,3.46,1.37,3.46,3.75v.03c0,2.37-1.71,3.77-3.46,3.77-1.34,0-2.21-.73-2.77-1.54v3.63h-1.08v-9.48ZM115.89,232.12v-.03c0-1.71-1.18-2.8-2.55-2.8s-2.62,1.13-2.62,2.79v.03c0,1.68,1.27,2.8,2.62,2.8s2.55-1.04,2.55-2.79Z"/>
      <path class="cls-4" d="M118.53,232.13v-.03c0-2.04,1.6-3.78,3.78-3.78s3.77,1.71,3.77,3.75v.03c0,2.05-1.61,3.78-3.8,3.78s-3.75-1.71-3.75-3.75ZM124.98,232.13v-.03c0-1.55-1.16-2.83-2.69-2.83s-2.65,1.27-2.65,2.8v.03c0,1.55,1.15,2.82,2.68,2.82s2.66-1.26,2.66-2.79Z"/>
      <path class="cls-4" d="M128.06,225.7h1.23v1.19h-1.23v-1.19ZM128.13,228.47h1.08v7.24h-1.08v-7.24Z"/>
      <path class="cls-4" d="M131.71,228.47h1.08v1.26c.48-.78,1.23-1.42,2.48-1.42,1.75,0,2.77,1.18,2.77,2.9v4.5h-1.08v-4.23c0-1.34-.73-2.18-2-2.18s-2.17.91-2.17,2.27v4.15h-1.08v-7.24Z"/>
      <path class="cls-4" d="M140.71,233.8v-4.37h-1.01v-.95h1.01v-2.18h1.08v2.18h2.3v.95h-2.3v4.23c0,.88.49,1.21,1.22,1.21.36,0,.67-.07,1.05-.25v.92c-.38.2-.78.31-1.3.31-1.16,0-2.04-.57-2.04-2.04Z"/>
      <path class="cls-4" d="M145.39,234.79l.55-.77c.79.59,1.65.92,2.51.92s1.5-.45,1.5-1.15v-.03c0-.73-.85-1.01-1.81-1.27-1.13-.32-2.39-.71-2.39-2.04v-.03c0-1.25,1.04-2.07,2.46-2.07.88,0,1.86.31,2.61.8l-.49.81c-.67-.43-1.44-.7-2.14-.7-.85,0-1.4.45-1.4,1.05v.03c0,.69.9.95,1.86,1.25,1.12.34,2.33.77,2.33,2.07v.03c0,1.37-1.13,2.17-2.58,2.17-1.04,0-2.19-.41-3-1.06Z"/>
      <path class="cls-4" d="M152.26,236.98c2.13-1.36,3.25-3.04,3.25-5.28s-1.12-3.92-3.25-5.28l.46-.71c2.49,1.4,3.88,3.42,3.88,6s-1.39,4.59-3.88,6l-.46-.71Z"/>
    </g>
    <g>
      <circle class="cls-3" cx="30.65" cy="218.29" r="30.65"/>
      <g>
        <rect class="cls-2" x="13.15" y="223.32" width="8.61" height="11.03"/>
        <rect class="cls-1" x="26.34" y="213.67" width="8.61" height="20.68"/>
        <rect class="cls-1" x="39.54" y="204.03" width="8.61" height="30.32"/>
      </g>
    </g>
    <g>
      <circle class="cls-3" cx="30.65" cy="124.47" r="30.65"/>
      <g>
        <rect class="cls-2" x="13.15" y="129.5" width="8.61" height="11.03"/>
        <rect class="cls-2" x="26.34" y="119.85" width="8.61" height="20.68"/>
        <rect class="cls-1" x="39.54" y="110.21" width="8.61" height="30.32"/>
      </g>
    </g>
    <g>
      <circle class="cls-3" cx="30.65" cy="30.65" r="30.65"/>
      <g>
        <rect class="cls-2" x="13.15" y="35.67" width="8.61" height="11.03"/>
        <rect class="cls-2" x="26.34" y="26.03" width="8.61" height="20.68"/>
        <rect class="cls-2" x="39.54" y="16.39" width="8.61" height="30.32"/>
      </g>
    </g>
  </g>
</svg>