<?xml version="1.0" encoding="UTF-8"?>
<svg id="Layer_2" data-name="Layer 2" xmlns="http://www.w3.org/2000/svg" viewBox="0 0 346.26 202.35">
  <defs>
    <style>
      .cls-1 {
        fill: #fff;
      }

      .cls-1, .cls-2, .cls-3, .cls-4 {
        stroke-width: 0px;
      }

      .cls-2 {
        fill: #231f20;
      }

      .cls-3 {
        fill: #862580;
      }

      .cls-3, .cls-4 {
        fill-rule: evenodd;
      }

      .cls-4 {
        fill: #6b0762;
      }
    </style>
  </defs>
  <g id="Layer_1-2" data-name="Layer 1">
    <g>
      <g>
        <path class="cls-2" d="M44.84.42h1.23l3.49,8.45L53.06.42h1.19l-4.22,9.88h-.98L44.84.42Z"/>
        <path class="cls-2" d="M54.57,6.63v-.03c0-2.09,1.47-3.77,3.47-3.77,2.14,0,3.38,1.71,3.38,3.82,0,.14,0,.22-.01.35h-5.74c.15,1.57,1.26,2.45,2.55,2.45,1,0,1.7-.41,2.28-1.02l.67.6c-.73.81-1.61,1.36-2.98,1.36-1.99,0-3.61-1.53-3.61-3.77ZM60.33,6.21c-.11-1.32-.87-2.46-2.31-2.46-1.26,0-2.21,1.05-2.35,2.46h4.66Z"/>
        <path class="cls-2" d="M62.89,6.63v-.03c0-2.37,1.72-3.77,3.46-3.77,1.34,0,2.21.73,2.77,1.54V0h1.08v10.23h-1.08v-1.46c-.59.87-1.44,1.61-2.77,1.61-1.74,0-3.46-1.37-3.46-3.75ZM69.16,6.61v-.03c0-1.67-1.28-2.79-2.62-2.79s-2.55,1.04-2.55,2.79v.03c0,1.71,1.18,2.8,2.55,2.8s2.62-1.13,2.62-2.8Z"/>
        <path class="cls-2" d="M72.15,6.64v-.03c0-2.04,1.6-3.78,3.78-3.78s3.77,1.71,3.77,3.75v.03c0,2.05-1.61,3.78-3.8,3.78s-3.75-1.71-3.75-3.75ZM78.6,6.64v-.03c0-1.55-1.16-2.83-2.69-2.83s-2.65,1.27-2.65,2.8v.03c0,1.55,1.15,2.82,2.68,2.82s2.66-1.26,2.66-2.79Z"/>
        <path class="cls-2" d="M81.74,0h1.08v10.23h-1.08V0Z"/>
        <path class="cls-2" d="M85.35.21h1.23v1.19h-1.23V.21ZM85.42,2.98h1.08v7.24h-1.08V2.98Z"/>
        <path class="cls-2" d="M88.59,9.54l4.8-5.64h-4.64v-.91h6.11v.69l-4.82,5.65h4.82v.91h-6.28v-.69Z"/>
        <path class="cls-2" d="M96.68,7.48V2.98h1.08v4.23c0,1.34.73,2.19,2,2.19s2.17-.91,2.17-2.27V2.98h1.06v7.24h-1.06v-1.26c-.49.78-1.23,1.42-2.48,1.42-1.75,0-2.77-1.18-2.77-2.9Z"/>
        <path class="cls-2" d="M105.42,2.98h1.08v1.22c.48-.71,1.12-1.37,2.34-1.37s1.93.63,2.33,1.44c.52-.8,1.29-1.44,2.55-1.44,1.67,0,2.69,1.12,2.69,2.91v4.48h-1.08v-4.23c0-1.4-.7-2.18-1.88-2.18-1.09,0-2,.81-2,2.24v4.17h-1.06v-4.26c0-1.36-.71-2.16-1.86-2.16s-2.02.95-2.02,2.28v4.13h-1.08V2.98Z"/>
        <path class="cls-2" d="M118.14,8.12v-.03c0-1.53,1.26-2.34,3.1-2.34.92,0,1.58.13,2.23.31v-.25c0-1.3-.8-1.98-2.16-1.98-.85,0-1.53.22-2.2.53l-.32-.88c.8-.36,1.58-.6,2.63-.6s1.81.27,2.34.8c.49.49.74,1.19.74,2.12v4.43h-1.04v-1.09c-.5.66-1.34,1.25-2.62,1.25-1.34,0-2.7-.77-2.7-2.26ZM123.48,7.56v-.7c-.53-.15-1.25-.31-2.13-.31-1.36,0-2.12.59-2.12,1.5v.03c0,.91.84,1.44,1.82,1.44,1.33,0,2.42-.81,2.42-1.96Z"/>
        <path class="cls-2" d="M127.87,8.84v1.39h-1.08V0h1.08v4.44c.59-.87,1.44-1.61,2.77-1.61,1.74,0,3.46,1.37,3.46,3.75v.03c0,2.37-1.71,3.77-3.46,3.77-1.34,0-2.21-.73-2.77-1.54ZM133,6.63v-.03c0-1.71-1.18-2.8-2.55-2.8s-2.62,1.13-2.62,2.79v.03c0,1.68,1.28,2.8,2.62,2.8s2.55-1.04,2.55-2.79Z"/>
        <path class="cls-2" d="M139.74,8.12v-.03c0-1.53,1.26-2.34,3.1-2.34.92,0,1.58.13,2.23.31v-.25c0-1.3-.8-1.98-2.16-1.98-.85,0-1.53.22-2.2.53l-.32-.88c.8-.36,1.58-.6,2.63-.6s1.81.27,2.34.8c.49.49.74,1.19.74,2.12v4.43h-1.04v-1.09c-.5.66-1.34,1.25-2.62,1.25-1.34,0-2.7-.77-2.7-2.26ZM145.08,7.56v-.7c-.53-.15-1.25-.31-2.13-.31-1.36,0-2.12.59-2.12,1.5v.03c0,.91.84,1.44,1.82,1.44,1.33,0,2.42-.81,2.42-1.96Z"/>
        <path class="cls-2" d="M148.4,2.98h1.08v1.26c.48-.78,1.23-1.42,2.48-1.42,1.75,0,2.77,1.18,2.77,2.9v4.5h-1.08v-4.23c0-1.34-.73-2.18-2-2.18s-2.17.91-2.17,2.27v4.15h-1.08V2.98Z"/>
        <path class="cls-2" d="M157.4,8.31V3.94h-1.01v-.95h1.01V.8h1.08v2.18h2.3v.95h-2.3v4.23c0,.88.49,1.21,1.22,1.21.36,0,.67-.07,1.05-.25v.92c-.38.2-.78.31-1.3.31-1.16,0-2.04-.57-2.04-2.04Z"/>
        <path class="cls-2" d="M162.7.21h1.23v1.19h-1.23V.21ZM162.77,2.98h1.08v7.24h-1.08V2.98Z"/>
        <path class="cls-2" d="M166.06,5.45h3.89v1.13h-3.89v-1.13Z"/>
        <path class="cls-2" d="M173.6,1.44h-3.31V.42h7.72v1.02h-3.31v8.78h-1.11V1.44Z"/>
        <path class="cls-2" d="M180.02.42h1.04l6.18,7.86V.42h1.08v9.81h-.88l-6.33-8.04v8.04h-1.08V.42Z"/>
        <path class="cls-2" d="M191.08.42h7.05v1.02h-5.94v3.5h5.31v1.01h-5.31v4.27h-1.11V.42Z"/>
        <path class="cls-2" d="M203.83,6.63v-.03c0-2.09,1.47-3.77,3.47-3.77,2.14,0,3.38,1.71,3.38,3.82,0,.14,0,.22-.01.35h-5.74c.15,1.57,1.26,2.45,2.55,2.45.99,0,1.69-.41,2.28-1.02l.67.6c-.73.81-1.61,1.36-2.98,1.36-1.99,0-3.61-1.53-3.61-3.77ZM209.59,6.21c-.11-1.32-.87-2.46-2.31-2.46-1.26,0-2.21,1.05-2.35,2.46h4.67Z"/>
        <path class="cls-2" d="M214.97,5.81l2.16-2.83h1.21l-2.75,3.54,2.86,3.7h-1.25l-2.24-2.98-2.25,2.98h-1.21l2.83-3.68-2.72-3.56h1.23l2.13,2.83Z"/>
        <path class="cls-2" d="M220.19,2.98h1.08v1.46c.59-.87,1.44-1.61,2.77-1.61,1.74,0,3.46,1.37,3.46,3.75v.03c0,2.37-1.71,3.77-3.46,3.77-1.34,0-2.21-.73-2.77-1.54v3.63h-1.08V2.98ZM226.39,6.63v-.03c0-1.71-1.18-2.8-2.55-2.8s-2.62,1.13-2.62,2.79v.03c0,1.68,1.28,2.8,2.62,2.8s2.55-1.04,2.55-2.79Z"/>
        <path class="cls-2" d="M229.03,6.64v-.03c0-2.04,1.6-3.78,3.78-3.78s3.77,1.71,3.77,3.75v.03c0,2.05-1.61,3.78-3.8,3.78s-3.75-1.71-3.75-3.75ZM235.48,6.64v-.03c0-1.55-1.16-2.83-2.69-2.83s-2.65,1.27-2.65,2.8v.03c0,1.55,1.15,2.82,2.68,2.82s2.66-1.26,2.66-2.79Z"/>
        <path class="cls-2" d="M237.92,9.3l.55-.77c.79.59,1.65.92,2.51.92s1.5-.45,1.5-1.15v-.03c0-.73-.85-1.01-1.81-1.27-1.13-.32-2.39-.71-2.39-2.04v-.03c0-1.25,1.04-2.07,2.46-2.07.88,0,1.86.31,2.61.8l-.49.81c-.67-.43-1.44-.7-2.14-.7-.85,0-1.4.45-1.4,1.05v.03c0,.69.9.95,1.86,1.25,1.12.34,2.33.77,2.33,2.07v.03c0,1.37-1.13,2.17-2.58,2.17-1.04,0-2.19-.41-3-1.06Z"/>
        <path class="cls-2" d="M245.39,7.48V2.98h1.08v4.23c0,1.34.73,2.19,2,2.19s2.17-.91,2.17-2.27V2.98h1.06v7.24h-1.06v-1.26c-.49.78-1.23,1.42-2.48,1.42-1.75,0-2.77-1.18-2.77-2.9Z"/>
        <path class="cls-2" d="M254.12,2.98h1.08v1.89c.53-1.21,1.58-2.07,2.96-2.02v1.16h-.08c-1.58,0-2.87,1.13-2.87,3.32v2.89h-1.08V2.98Z"/>
        <path class="cls-2" d="M259.04,6.63v-.03c0-2.09,1.47-3.77,3.47-3.77,2.14,0,3.38,1.71,3.38,3.82,0,.14,0,.22-.01.35h-5.74c.15,1.57,1.26,2.45,2.55,2.45,1,0,1.7-.41,2.28-1.02l.67.6c-.73.81-1.61,1.36-2.98,1.36-1.99,0-3.61-1.53-3.61-3.77ZM264.79,6.21c-.11-1.32-.87-2.46-2.31-2.46-1.26,0-2.21,1.05-2.35,2.46h4.66Z"/>
        <path class="cls-2" d="M271.43,8.12v-.03c0-1.53,1.26-2.34,3.1-2.34.92,0,1.58.13,2.23.31v-.25c0-1.3-.8-1.98-2.16-1.98-.85,0-1.53.22-2.2.53l-.32-.88c.8-.36,1.58-.6,2.63-.6s1.81.27,2.34.8c.49.49.74,1.19.74,2.12v4.43h-1.04v-1.09c-.5.66-1.34,1.25-2.62,1.25-1.34,0-2.7-.77-2.7-2.26ZM276.76,7.56v-.7c-.53-.15-1.25-.31-2.13-.31-1.36,0-2.12.59-2.12,1.5v.03c0,.91.84,1.44,1.82,1.44,1.33,0,2.42-.81,2.42-1.96Z"/>
        <path class="cls-2" d="M280.39,8.31V3.94h-1.01v-.95h1.01V.8h1.08v2.18h2.3v.95h-2.3v4.23c0,.88.49,1.21,1.22,1.21.36,0,.67-.07,1.05-.25v.92c-.38.2-.78.31-1.3.31-1.16,0-2.04-.57-2.04-2.04Z"/>
        <path class="cls-2" d="M135.32,25.64v1.39h-1.08v-10.23h1.08v4.44c.59-.87,1.44-1.61,2.77-1.61,1.74,0,3.46,1.37,3.46,3.75v.03c0,2.37-1.71,3.77-3.46,3.77-1.34,0-2.21-.73-2.77-1.54ZM140.45,23.43v-.03c0-1.71-1.18-2.8-2.55-2.8s-2.62,1.13-2.62,2.79v.03c0,1.68,1.28,2.8,2.62,2.8s2.55-1.04,2.55-2.79Z"/>
        <path class="cls-2" d="M142.99,24.92v-.03c0-1.53,1.26-2.34,3.1-2.34.92,0,1.58.13,2.23.31v-.25c0-1.3-.8-1.98-2.16-1.98-.85,0-1.53.22-2.2.53l-.32-.88c.8-.36,1.58-.6,2.63-.6s1.81.27,2.34.8c.49.49.74,1.19.74,2.12v4.43h-1.04v-1.09c-.5.66-1.34,1.25-2.62,1.25-1.34,0-2.7-.77-2.7-2.26ZM148.33,24.36v-.7c-.53-.15-1.25-.31-2.13-.31-1.36,0-2.12.59-2.12,1.5v.03c0,.91.84,1.44,1.82,1.44,1.33,0,2.42-.81,2.42-1.96Z"/>
        <path class="cls-2" d="M151.04,26.1l.55-.77c.78.59,1.65.92,2.51.92s1.5-.45,1.5-1.15v-.03c0-.73-.85-1.01-1.81-1.27-1.13-.32-2.4-.71-2.4-2.04v-.03c0-1.25,1.04-2.07,2.47-2.07.88,0,1.86.31,2.61.8l-.49.81c-.67-.43-1.44-.7-2.14-.7-.85,0-1.4.45-1.4,1.05v.03c0,.69.9.95,1.86,1.25,1.12.34,2.33.77,2.33,2.07v.03c0,1.37-1.13,2.17-2.58,2.17-1.04,0-2.19-.41-3-1.06Z"/>
        <path class="cls-2" d="M158.17,23.43v-.03c0-2.09,1.47-3.77,3.47-3.77,2.14,0,3.38,1.71,3.38,3.82,0,.14,0,.22-.01.35h-5.74c.15,1.57,1.26,2.45,2.55,2.45.99,0,1.69-.41,2.28-1.02l.67.6c-.73.81-1.61,1.36-2.98,1.36-1.99,0-3.61-1.53-3.61-3.77ZM163.92,23c-.11-1.32-.87-2.46-2.31-2.46-1.26,0-2.21,1.05-2.35,2.46h4.67Z"/>
        <path class="cls-2" d="M167,16.8h1.08v10.23h-1.08v-10.23Z"/>
        <path class="cls-2" d="M170.61,17.01h1.23v1.19h-1.23v-1.19ZM170.68,19.78h1.08v7.24h-1.08v-7.24Z"/>
        <path class="cls-2" d="M174.27,19.78h1.08v1.26c.48-.78,1.23-1.41,2.48-1.41,1.75,0,2.77,1.18,2.77,2.9v4.5h-1.08v-4.23c0-1.34-.73-2.18-2-2.18s-2.17.91-2.17,2.27v4.15h-1.08v-7.24Z"/>
        <path class="cls-2" d="M182.44,23.43v-.03c0-2.09,1.47-3.77,3.47-3.77,2.14,0,3.38,1.71,3.38,3.82,0,.14,0,.22-.01.35h-5.74c.15,1.57,1.26,2.45,2.55,2.45.99,0,1.69-.41,2.28-1.02l.67.6c-.73.81-1.61,1.36-2.98,1.36-1.99,0-3.61-1.53-3.61-3.77ZM188.2,23c-.11-1.32-.87-2.46-2.31-2.46-1.26,0-2.21,1.05-2.35,2.46h4.67Z"/>
        <path class="cls-2" d="M192.48,19.71l-1.44,1.02-.38-.66,1.62-.74-1.62-.76.38-.64,1.44,1.01-.14-1.75h.73l-.14,1.75,1.44-1.01.38.64-1.62.76,1.62.74-.38.66-1.44-1.02.14,1.75h-.73l.14-1.75Z"/>
      </g>
      <g>
        <g>
          <polygon class="cls-4" points="131.94 166.4 134.59 167.89 137.26 169.23 139.97 170.44 142.7 171.51 145.47 172.44 148.27 173.24 151.11 173.9 153.98 174.43 156.9 174.82 159.85 175.08 162.84 175.2 165.87 175.19 168.86 175.04 171.81 174.76 174.72 174.35 177.58 173.8 180.4 173.13 183.16 172.34 185.88 171.43 188.53 170.4 191.12 169.26 193.65 168 196.12 166.65 198.51 165.18 200.84 163.62 203.09 161.95 205.26 160.2 207.35 158.35 209.36 156.41 211.28 154.39 213.11 152.28 214.85 150.1 216.49 147.84 218.03 145.51 219.48 143.1 220.81 140.64 222.04 138.1 223.16 135.51 224.17 132.86 225.06 130.16 225.83 127.4 226.48 124.6 227 121.76 227.4 118.87 227.66 115.94 227.79 112.98 227.78 109.99 227.63 107 227.35 104.05 226.94 101.14 226.39 98.27 225.72 95.46 224.93 92.69 224.02 89.98 222.99 87.33 221.85 84.74 220.59 82.2 219.24 79.74 217.77 77.34 216.21 75.02 214.54 72.77 212.79 70.6 210.94 68.51 209 66.5 206.98 64.58 204.87 62.75 202.69 61.01 200.43 59.37 198.1 57.82 195.69 56.38 193.23 55.04 190.69 53.81 188.1 52.69 185.45 51.69 182.75 50.8 179.99 50.03 177.19 49.38 174.35 48.86 171.46 48.46 168.53 48.2 165.57 48.07 162.58 48.08 164.22 111.63 131.94 166.4"/>
          <path class="cls-3" d="M149.62,173.57l14.88-61.57-.58-64.08-6.45.63-2.8.53-4.76.97-2.86.7-2.8.82-2.73.93-2.67,1.05-2.6,1.16-2.52,1.27-2.45,1.38-2.38,1.49-2.3,1.6-2.22,1.71-2.14,1.81-2.05,1.91-1.97,2.02-1.88,2.11-1.79,2.21-1.7,2.31-1.6,2.4-1.51,2.5-1.41,2.59-1.31,2.68-1.21,2.77-1.1,2.86c-.32.95-.64,1.89-.95,2.84l-.81,2.85-.68,2.86-.54,2.86-.4,2.87-.27,2.86-.14,2.86v2.85s.11,2.83.11,2.83l.24,2.81.37,2.79.49,2.76.61,2.73.73,2.7.84,2.66.96,2.62,1.07,2.58,1.18,2.53,1.29,2.47,1.4,2.41,1.5,2.35,1.61,2.29,1.71,2.22,1.81,2.15,1.91,2.07,2.01,1.99,2.1,1.9,2.19,1.81,2.28,1.72,2.37,1.63,2.46,1.53,4.34,1.82,5.22,2.11,3.91,1.4,3.99,1.48Z"/>
        </g>
        <g>
          <path class="cls-1" d="M116.61,117.25h-4.79l-.35-1.53,5.38-6.23h1.82v6.01h1.32v1.75h-1.32v2.12h-2.06v-2.12ZM116.61,115.5v-3.05l-2.61,3.05h2.61Z"/>
          <path class="cls-1" d="M121.29,118.07l1.3-1.55c.74.67,1.47,1.06,2.34,1.06,1.01,0,1.64-.49,1.64-1.36v-.03c0-.84-.71-1.33-1.74-1.33-.62,0-1.18.17-1.64.36l-1.25-.83.28-4.83h6.02v1.89h-4.17l-.11,1.69c.39-.1.74-.17,1.29-.17,1.91,0,3.43.92,3.43,3.14v.03c0,2.07-1.47,3.39-3.73,3.39-1.57,0-2.72-.56-3.67-1.47Z"/>
          <path class="cls-1" d="M130.37,117.13h2.27v2.24h-2.27v-2.24Z"/>
          <path class="cls-1" d="M134.11,118.07l1.3-1.55c.74.67,1.47,1.06,2.34,1.06,1.01,0,1.64-.49,1.64-1.36v-.03c0-.84-.71-1.33-1.74-1.33-.62,0-1.18.17-1.64.36l-1.25-.83.28-4.83h6.02v1.89h-4.17l-.11,1.69c.39-.1.74-.17,1.29-.17,1.91,0,3.43.92,3.43,3.14v.03c0,2.07-1.47,3.39-3.73,3.39-1.57,0-2.72-.56-3.67-1.47Z"/>
          <path class="cls-1" d="M142.96,111.99v-.03c0-1.39.97-2.51,2.4-2.51s2.37,1.11,2.37,2.48v.03c0,1.37-.97,2.51-2.4,2.51s-2.37-1.11-2.37-2.48ZM151.1,109.56h1.67l-3.92,5.28-3.24,4.52h-1.67l3.92-5.28,3.24-4.52ZM144.43,111.93v.03c0,.66.36,1.23.92,1.23.59,0,.9-.57.9-1.2v-.03c0-.66-.36-1.23-.92-1.23-.59,0-.9.56-.9,1.2ZM148.98,117v-.03c0-1.39.97-2.51,2.4-2.51s2.37,1.11,2.37,2.48v.03c0,1.37-.97,2.51-2.4,2.51s-2.37-1.11-2.37-2.48ZM152.27,117v-.03c0-.66-.36-1.23-.92-1.23-.59,0-.9.56-.9,1.2v.03c0,.66.36,1.23.92,1.23.59,0,.9-.57.9-1.2Z"/>
        </g>
        <g>
          <path class="cls-1" d="M173.22,118.07l1.3-1.55c.74.67,1.47,1.06,2.34,1.06,1.01,0,1.64-.49,1.64-1.36v-.03c0-.84-.71-1.33-1.74-1.33-.62,0-1.18.17-1.64.36l-1.25-.83.28-4.83h6.02v1.89h-4.17l-.11,1.69c.39-.1.74-.17,1.29-.17,1.91,0,3.43.92,3.43,3.14v.03c0,2.07-1.47,3.39-3.73,3.39-1.57,0-2.72-.56-3.67-1.47Z"/>
          <path class="cls-1" d="M187.02,117.25h-4.79l-.35-1.53,5.38-6.23h1.82v6.01h1.32v1.75h-1.32v2.12h-2.06v-2.12ZM187.02,115.5v-3.05l-2.61,3.05h2.61Z"/>
          <path class="cls-1" d="M191.96,117.13h2.27v2.24h-2.27v-2.24Z"/>
          <path class="cls-1" d="M195.69,118.07l1.3-1.55c.74.67,1.47,1.06,2.34,1.06,1.01,0,1.64-.49,1.64-1.36v-.03c0-.84-.71-1.33-1.74-1.33-.62,0-1.18.17-1.64.36l-1.25-.83.28-4.83h6.02v1.89h-4.17l-.11,1.69c.39-.1.74-.17,1.29-.17,1.91,0,3.43.92,3.43,3.14v.03c0,2.07-1.47,3.39-3.73,3.39-1.57,0-2.72-.56-3.67-1.47Z"/>
          <path class="cls-1" d="M204.54,111.99v-.03c0-1.39.97-2.51,2.4-2.51s2.37,1.11,2.37,2.48v.03c0,1.37-.97,2.51-2.4,2.51s-2.37-1.11-2.37-2.48ZM212.68,109.56h1.67l-3.92,5.28-3.24,4.52h-1.67l3.92-5.28,3.24-4.52ZM206.01,111.93v.03c0,.66.36,1.23.92,1.23s.9-.57.9-1.2v-.03c0-.66-.36-1.23-.92-1.23-.59,0-.9.56-.9,1.2ZM210.57,117v-.03c0-1.39.97-2.51,2.4-2.51s2.37,1.11,2.37,2.48v.03c0,1.37-.97,2.51-2.4,2.51s-2.37-1.11-2.37-2.48ZM213.86,117v-.03c0-.66-.36-1.23-.92-1.23-.59,0-.9.56-.9,1.2v.03c0,.66.36,1.23.92,1.23.59,0,.9-.57.9-1.2Z"/>
        </g>
        <g>
          <path class="cls-2" d="M241.48,102.44h.89l3.83,8.46h-1.02l-.98-2.22h-4.57l-1,2.22h-.97l3.83-8.46ZM243.82,107.82l-1.91-4.28-1.92,4.28h3.83Z"/>
          <path class="cls-2" d="M247.67,104.69h.92v1.08c.41-.67,1.06-1.21,2.12-1.21,1.5,0,2.37,1.01,2.37,2.48v3.85h-.92v-3.62c0-1.15-.62-1.87-1.72-1.87s-1.86.78-1.86,1.94v3.55h-.92v-6.2Z"/>
          <path class="cls-2" d="M255.37,109.25v-3.74h-.86v-.82h.86v-1.87h.92v1.87h1.97v.82h-1.97v3.62c0,.75.42,1.03,1.04,1.03.31,0,.58-.06.9-.22v.79c-.32.17-.67.26-1.12.26-1,0-1.75-.49-1.75-1.75Z"/>
          <path class="cls-2" d="M259.89,102.32h1.05v1.02h-1.05v-1.02ZM259.95,104.69h.92v6.2h-.92v-6.2Z"/>
          <path class="cls-2" d="M262.75,106.8h3.33v.97h-3.33v-.97Z"/>
          <path class="cls-2" d="M270.21,103.37h-2.83v-.88h6.61v.88h-2.83v7.52h-.95v-7.52Z"/>
          <path class="cls-2" d="M275.69,102.5h.89l5.29,6.73v-6.73h.92v8.4h-.75l-5.42-6.88v6.88h-.92v-8.4Z"/>
          <path class="cls-2" d="M285.15,102.5h6.03v.88h-5.08v3h4.55v.86h-4.55v3.66h-.95v-8.4Z"/>
          <path class="cls-2" d="M292.59,106.8h3.33v.97h-3.33v-.97Z"/>
          <path class="cls-2" d="M297.33,107.81v-.02c0-1.79,1.26-3.23,2.97-3.23,1.83,0,2.89,1.46,2.89,3.27,0,.12,0,.19-.01.3h-4.92c.13,1.34,1.08,2.1,2.18,2.1.85,0,1.45-.35,1.96-.88l.58.52c-.62.7-1.38,1.16-2.55,1.16-1.7,0-3.09-1.31-3.09-3.23ZM302.26,107.45c-.1-1.13-.74-2.11-1.98-2.11-1.08,0-1.89.9-2.01,2.11h3.99Z"/>
          <path class="cls-2" d="M307.2,107.11l1.85-2.42h1.03l-2.35,3.03,2.45,3.17h-1.07l-1.92-2.55-1.93,2.55h-1.03l2.42-3.15-2.33-3.05h1.06l1.82,2.42Z"/>
          <path class="cls-2" d="M311.66,104.69h.92v1.25c.5-.74,1.24-1.38,2.38-1.38,1.49,0,2.96,1.17,2.96,3.21v.02c0,2.03-1.46,3.23-2.96,3.23-1.15,0-1.9-.62-2.38-1.32v3.11h-.92v-8.12ZM316.97,107.81v-.02c0-1.46-1.01-2.4-2.18-2.4s-2.24.97-2.24,2.39v.02c0,1.44,1.09,2.4,2.24,2.4s2.18-.89,2.18-2.39Z"/>
          <path class="cls-2" d="M319.22,107.82v-.02c0-1.75,1.37-3.24,3.24-3.24s3.23,1.46,3.23,3.21v.02c0,1.75-1.38,3.24-3.25,3.24s-3.21-1.46-3.21-3.21ZM324.73,107.82v-.02c0-1.33-1-2.42-2.3-2.42s-2.27,1.09-2.27,2.4v.02c0,1.33.98,2.41,2.29,2.41s2.28-1.08,2.28-2.39Z"/>
          <path class="cls-2" d="M326.81,110.1l.47-.66c.67.5,1.42.79,2.15.79s1.28-.38,1.28-.98v-.02c0-.62-.73-.86-1.55-1.09-.97-.28-2.05-.61-2.05-1.75v-.02c0-1.07.89-1.78,2.11-1.78.75,0,1.59.26,2.23.68l-.42.7c-.58-.37-1.24-.6-1.83-.6-.73,0-1.2.38-1.2.9v.02c0,.59.77.82,1.59,1.07.96.29,1.99.66,1.99,1.78v.02c0,1.18-.97,1.86-2.21,1.86-.89,0-1.87-.35-2.57-.91Z"/>
          <path class="cls-2" d="M332.9,107.81v-.02c0-1.79,1.26-3.23,2.97-3.23,1.83,0,2.89,1.46,2.89,3.27,0,.12,0,.19-.01.3h-4.92c.13,1.34,1.08,2.1,2.18,2.1.85,0,1.45-.35,1.96-.88l.58.52c-.62.7-1.38,1.16-2.55,1.16-1.7,0-3.09-1.31-3.09-3.23ZM337.83,107.45c-.1-1.13-.74-2.11-1.98-2.11-1.08,0-1.89.9-2.01,2.11h3.99Z"/>
          <path class="cls-2" d="M340,107.81v-.02c0-2.03,1.47-3.23,2.96-3.23,1.15,0,1.9.62,2.38,1.32v-3.74h.92v8.75h-.92v-1.25c-.5.74-1.24,1.38-2.38,1.38-1.49,0-2.96-1.17-2.96-3.21ZM345.37,107.8v-.02c0-1.43-1.09-2.39-2.24-2.39s-2.18.89-2.18,2.39v.02c0,1.46,1.01,2.4,2.18,2.4s2.24-.97,2.24-2.4Z"/>
          <path class="cls-2" d="M238.22,119.09h.92v1.25c.5-.74,1.24-1.38,2.38-1.38,1.49,0,2.96,1.17,2.96,3.21v.02c0,2.03-1.46,3.23-2.96,3.23-1.15,0-1.9-.62-2.38-1.32v3.11h-.92v-8.12ZM243.53,122.21v-.02c0-1.46-1.01-2.4-2.18-2.4s-2.24.97-2.24,2.39v.02c0,1.44,1.09,2.4,2.24,2.4s2.18-.89,2.18-2.39Z"/>
          <path class="cls-2" d="M245.69,123.49v-.02c0-1.31,1.08-2,2.65-2,.79,0,1.36.11,1.91.26v-.22c0-1.12-.68-1.69-1.85-1.69-.73,0-1.31.19-1.88.46l-.28-.75c.68-.31,1.36-.52,2.25-.52s1.55.23,2,.68c.42.42.64,1.02.64,1.81v3.79h-.89v-.94c-.43.56-1.15,1.07-2.24,1.07-1.15,0-2.32-.66-2.32-1.93ZM250.26,123.01v-.6c-.46-.13-1.07-.26-1.82-.26-1.16,0-1.81.5-1.81,1.28v.02c0,.78.72,1.24,1.56,1.24,1.14,0,2.07-.7,2.07-1.68Z"/>
          <path class="cls-2" d="M253.41,123.65v-3.74h-.86v-.82h.86v-1.87h.92v1.87h1.97v.82h-1.97v3.62c0,.75.42,1.03,1.04,1.03.31,0,.58-.06.9-.22v.79c-.32.17-.67.26-1.12.26-1,0-1.75-.49-1.75-1.75Z"/>
          <path class="cls-2" d="M257.93,116.72h1.06v1.02h-1.06v-1.02ZM257.99,119.09h.92v6.2h-.92v-6.2Z"/>
          <path class="cls-2" d="M260.66,122.21v-.02c0-1.79,1.26-3.23,2.97-3.23,1.83,0,2.89,1.46,2.89,3.27,0,.12,0,.19-.01.3h-4.92c.13,1.34,1.08,2.1,2.18,2.1.85,0,1.45-.35,1.96-.88l.58.52c-.62.7-1.38,1.16-2.55,1.16-1.7,0-3.09-1.31-3.09-3.23ZM265.59,121.85c-.1-1.13-.74-2.11-1.98-2.11-1.08,0-1.89.9-2.01,2.11h3.99Z"/>
          <path class="cls-2" d="M268.12,119.09h.92v1.08c.41-.67,1.06-1.21,2.12-1.21,1.5,0,2.37,1.01,2.37,2.48v3.85h-.92v-3.62c0-1.15-.62-1.87-1.72-1.87s-1.86.78-1.86,1.94v3.55h-.92v-6.2Z"/>
          <path class="cls-2" d="M275.81,123.65v-3.74h-.86v-.82h.86v-1.87h.92v1.87h1.97v.82h-1.97v3.62c0,.75.42,1.03,1.04,1.03.31,0,.58-.06.9-.22v.79c-.32.17-.67.26-1.12.26-1,0-1.75-.49-1.75-1.75Z"/>
          <path class="cls-2" d="M279.8,124.5l.47-.66c.67.5,1.42.79,2.15.79s1.28-.38,1.28-.98v-.02c0-.62-.73-.86-1.55-1.09-.97-.28-2.05-.61-2.05-1.75v-.02c0-1.07.89-1.78,2.11-1.78.75,0,1.59.26,2.23.68l-.42.7c-.58-.37-1.24-.6-1.83-.6-.73,0-1.2.38-1.2.9v.02c0,.59.77.82,1.59,1.07.96.29,1.99.66,1.99,1.78v.02c0,1.18-.97,1.86-2.21,1.86-.89,0-1.87-.35-2.57-.91Z"/>
        </g>
        <g>
          <path class="cls-2" d="M29,190.57h1.12l3.57,5.35,3.57-5.35h1.12v9.81h-1.11v-7.94l-3.57,5.25h-.06l-3.57-5.24v7.93h-1.08v-9.81Z"/>
          <path class="cls-2" d="M40.5,196.78v-.03c0-2.09,1.47-3.77,3.47-3.77,2.14,0,3.38,1.71,3.38,3.82,0,.14,0,.22-.01.35h-5.74c.15,1.57,1.26,2.45,2.55,2.45.99,0,1.7-.41,2.28-1.02l.67.6c-.73.81-1.61,1.36-2.98,1.36-1.99,0-3.61-1.53-3.61-3.77ZM46.26,196.36c-.11-1.32-.87-2.46-2.31-2.46-1.26,0-2.21,1.05-2.35,2.46h4.67Z"/>
          <path class="cls-2" d="M48.66,198.28v-.03c0-1.53,1.26-2.34,3.1-2.34.92,0,1.58.13,2.23.31v-.25c0-1.3-.8-1.98-2.16-1.98-.85,0-1.53.22-2.2.53l-.32-.88c.8-.36,1.58-.6,2.63-.6s1.81.27,2.34.8c.49.49.74,1.19.74,2.12v4.43h-1.04v-1.09c-.5.66-1.34,1.25-2.62,1.25-1.34,0-2.7-.77-2.7-2.26ZM54,197.72v-.7c-.53-.15-1.25-.31-2.13-.31-1.36,0-2.12.59-2.12,1.5v.03c0,.91.84,1.44,1.82,1.44,1.33,0,2.42-.81,2.42-1.96Z"/>
          <path class="cls-2" d="M57.29,193.14h1.08v1.26c.48-.78,1.23-1.42,2.48-1.42,1.75,0,2.77,1.18,2.77,2.9v4.5h-1.08v-4.23c0-1.34-.73-2.18-2-2.18s-2.17.91-2.17,2.27v4.15h-1.08v-7.24Z"/>
          <path class="cls-2" d="M69.8,195.5v-.03c0-2.77,2.07-5.07,4.96-5.07,1.78,0,2.84.63,3.82,1.55l-.76.81c-.83-.78-1.75-1.34-3.08-1.34-2.17,0-3.8,1.77-3.8,4.02v.03c0,2.27,1.64,4.05,3.8,4.05,1.34,0,2.23-.52,3.17-1.42l.73.71c-1.02,1.04-2.14,1.72-3.92,1.72-2.83,0-4.92-2.23-4.92-5.04Z"/>
          <path class="cls-2" d="M80.59,190.57h3.4c3.08,0,5.21,2.12,5.21,4.88v.03c0,2.76-2.13,4.9-5.21,4.9h-3.4v-9.81ZM81.7,191.59v7.76h2.3c2.48,0,4.06-1.68,4.06-3.85v-.03c0-2.17-1.58-3.88-4.06-3.88h-2.3Z"/>
          <path class="cls-2" d="M95.14,190.5h1.04l4.47,9.88h-1.19l-1.15-2.59h-5.34l-1.16,2.59h-1.13l4.47-9.88ZM97.87,196.79l-2.23-5-2.24,5h4.47Z"/>
          <path class="cls-2" d="M102.64,190.57h1.11v9.81h-1.11v-9.81Z"/>
          <path class="cls-2" d="M109.98,199.45l.55-.77c.78.59,1.65.92,2.51.92s1.5-.45,1.5-1.15v-.03c0-.73-.85-1.01-1.81-1.27-1.13-.32-2.4-.71-2.4-2.04v-.03c0-1.25,1.04-2.07,2.47-2.07.88,0,1.86.31,2.61.8l-.49.81c-.67-.43-1.44-.7-2.14-.7-.85,0-1.4.45-1.4,1.05v.03c0,.69.9.95,1.86,1.25,1.12.34,2.33.77,2.33,2.07v.03c0,1.37-1.13,2.17-2.58,2.17-1.04,0-2.18-.41-3-1.06Z"/>
          <path class="cls-2" d="M117.08,196.79v-.03c0-2.04,1.6-3.78,3.71-3.78,1.37,0,2.23.58,2.9,1.29l-.71.76c-.57-.6-1.22-1.09-2.2-1.09-1.47,0-2.59,1.25-2.59,2.8v.03c0,1.57,1.15,2.82,2.66,2.82.92,0,1.64-.46,2.21-1.08l.69.64c-.73.81-1.6,1.4-2.96,1.4-2.12,0-3.71-1.72-3.71-3.75Z"/>
          <path class="cls-2" d="M125.04,196.79v-.03c0-2.04,1.6-3.78,3.78-3.78s3.77,1.71,3.77,3.75v.03c0,2.05-1.61,3.78-3.8,3.78s-3.75-1.71-3.75-3.75ZM131.49,196.79v-.03c0-1.55-1.16-2.83-2.69-2.83s-2.65,1.27-2.65,2.8v.03c0,1.55,1.15,2.82,2.67,2.82s2.66-1.26,2.66-2.79Z"/>
          <path class="cls-2" d="M134.51,193.14h1.08v1.89c.53-1.21,1.58-2.07,2.96-2.02v1.16h-.08c-1.58,0-2.87,1.13-2.87,3.32v2.89h-1.08v-7.24Z"/>
          <path class="cls-2" d="M139.7,196.78v-.03c0-2.09,1.47-3.77,3.47-3.77,2.14,0,3.38,1.71,3.38,3.82,0,.14,0,.22-.01.35h-5.74c.15,1.57,1.26,2.45,2.55,2.45.99,0,1.7-.41,2.28-1.02l.67.6c-.73.81-1.61,1.36-2.98,1.36-1.99,0-3.61-1.53-3.61-3.77ZM145.46,196.36c-.11-1.32-.87-2.46-2.31-2.46-1.26,0-2.21,1.05-2.35,2.46h4.67Z"/>
          <path class="cls-2" d="M152.33,196.36c0-2.58,1.39-4.59,3.88-6l.46.71c-2.13,1.36-3.25,3.04-3.25,5.28s1.12,3.92,3.25,5.28l-.46.71c-2.49-1.4-3.88-3.42-3.88-6Z"/>
          <path class="cls-2" d="M162.31,195.28v2.75h-1.02v-2.75h-2.79v-.98h2.79v-2.75h1.02v2.75h2.8v.98h-2.8ZM158.5,200.38v-.97h6.61v.97h-6.61Z"/>
          <path class="cls-2" d="M171.06,198.95l.69-.81c1.02.92,2,1.39,3.36,1.39s2.18-.7,2.18-1.67v-.03c0-.91-.49-1.43-2.55-1.86-2.26-.49-3.29-1.22-3.29-2.83v-.03c0-1.54,1.36-2.68,3.22-2.68,1.43,0,2.45.41,3.45,1.21l-.64.85c-.91-.74-1.82-1.06-2.83-1.06-1.27,0-2.09.7-2.09,1.58v.03c0,.92.5,1.44,2.66,1.91,2.19.48,3.19,1.27,3.19,2.77v.03c0,1.68-1.4,2.77-3.35,2.77-1.56,0-2.83-.52-4.01-1.57Z"/>
          <path class="cls-2" d="M180.64,190.57h3.4c3.08,0,5.21,2.12,5.21,4.88v.03c0,2.76-2.13,4.9-5.21,4.9h-3.4v-9.81ZM181.74,191.59v7.76h2.3c2.48,0,4.06-1.68,4.06-3.85v-.03c0-2.17-1.58-3.88-4.06-3.88h-2.3Z"/>
          <path class="cls-2" d="M190.95,201.64c2.13-1.36,3.25-3.04,3.25-5.28s-1.12-3.92-3.25-5.28l.46-.71c2.49,1.4,3.88,3.42,3.88,6s-1.39,4.59-3.88,6l-.46-.71Z"/>
          <path class="cls-2" d="M197.35,193.14h1.29v1.47h-1.29v-1.47ZM197.35,198.91h1.29v1.47h-1.29v-1.47Z"/>
          <path class="cls-2" d="M204.62,198.79l.8-.71c.76.92,1.67,1.46,2.87,1.46s2.14-.76,2.14-1.9v-.03c0-1.22-1.13-1.89-2.75-1.89h-.63l-.22-.66,3.09-3.49h-4.79v-1h6.26v.81l-3.08,3.42c1.71.14,3.24.97,3.24,2.76v.03c0,1.75-1.46,2.96-3.28,2.96-1.64,0-2.86-.71-3.66-1.75Z"/>
          <path class="cls-2" d="M213.14,199.52l3.56-3.14c1.5-1.34,2.04-2.1,2.04-3.08,0-1.15-.91-1.88-1.97-1.88-1.12,0-1.85.59-2.63,1.68l-.81-.59c.88-1.32,1.81-2.09,3.53-2.09s3.04,1.18,3.04,2.77v.03c0,1.43-.76,2.31-2.48,3.81l-2.62,2.33h5.2v1.01h-6.85v-.85Z"/>
          <path class="cls-2" d="M226.88,198.05h-5.17l-.28-.8,5.55-6.75h.97v6.62h1.53v.92h-1.53v2.33h-1.07v-2.33ZM226.88,197.13v-5.06l-4.12,5.06h4.12Z"/>
          <path class="cls-2" d="M231.26,198.91h1.29v1.47h-1.29v-1.47Z"/>
          <path class="cls-2" d="M234.26,199.52l3.56-3.14c1.5-1.34,2.04-2.1,2.04-3.08,0-1.15-.91-1.88-1.97-1.88-1.12,0-1.85.59-2.63,1.68l-.81-.59c.88-1.32,1.81-2.09,3.53-2.09s3.04,1.18,3.04,2.77v.03c0,1.43-.76,2.31-2.48,3.81l-2.62,2.33h5.2v1.01h-6.85v-.85Z"/>
          <path class="cls-2" d="M247.07,196.36c0-2.58,1.39-4.59,3.88-6l.46.71c-2.13,1.36-3.25,3.04-3.25,5.28s1.12,3.92,3.25,5.28l-.46.71c-2.49-1.4-3.88-3.42-3.88-6Z"/>
          <path class="cls-2" d="M257.05,195.28v2.75h-1.02v-2.75h-2.79v-.98h2.79v-2.75h1.02v2.75h2.8v.98h-2.8ZM253.24,200.38v-.97h6.61v.97h-6.61Z"/>
          <path class="cls-2" d="M267.14,199.55c-.78-.79-1.23-1.79-1.23-3.8v-.03c0-2.98,1.51-5.32,4.08-5.32,1.18,0,2.04.42,2.9,1.12l-.64.85c-.73-.62-1.41-.97-2.31-.97-1.89,0-2.89,1.99-2.89,4.2v.14c.64-.94,1.53-1.51,2.8-1.51,1.82,0,3.39,1.18,3.39,3.01v.03c0,1.89-1.53,3.26-3.52,3.26-1.08,0-1.96-.38-2.58-.99ZM272.1,197.32v-.03c0-1.2-.98-2.1-2.4-2.1s-2.45,1.05-2.45,2.14v.03c0,1.25,1.04,2.2,2.48,2.2s2.37-.99,2.37-2.24Z"/>
          <path class="cls-2" d="M276.17,199.55c-.78-.79-1.23-1.79-1.23-3.8v-.03c0-2.98,1.51-5.32,4.08-5.32,1.18,0,2.04.42,2.9,1.12l-.64.85c-.73-.62-1.41-.97-2.31-.97-1.89,0-2.89,1.99-2.89,4.2v.14c.64-.94,1.53-1.51,2.8-1.51,1.82,0,3.39,1.18,3.39,3.01v.03c0,1.89-1.53,3.26-3.52,3.26-1.08,0-1.96-.38-2.58-.99ZM281.13,197.32v-.03c0-1.2-.98-2.1-2.4-2.1s-2.45,1.05-2.45,2.14v.03c0,1.25,1.04,2.2,2.48,2.2s2.37-.99,2.37-2.24Z"/>
          <path class="cls-2" d="M284.18,198.91h1.29v1.47h-1.29v-1.47Z"/>
          <path class="cls-2" d="M287.2,198.79l.8-.71c.76.92,1.67,1.46,2.87,1.46s2.14-.76,2.14-1.9v-.03c0-1.22-1.13-1.89-2.75-1.89h-.63l-.22-.66,3.1-3.49h-4.79v-1h6.26v.81l-3.08,3.42c1.71.14,3.24.97,3.24,2.76v.03c0,1.75-1.46,2.96-3.28,2.96-1.64,0-2.86-.71-3.66-1.75Z"/>
          <path class="cls-2" d="M295.84,201.64c2.13-1.36,3.25-3.04,3.25-5.28s-1.12-3.92-3.25-5.28l.46-.71c2.49,1.4,3.88,3.42,3.88,6s-1.39,4.59-3.88,6l-.46-.71Z"/>
        </g>
        <g>
          <path class="cls-2" d="M3.83,102.29h.89l3.83,8.46h-1.02l-.98-2.22H1.97l-1,2.22h-.97l3.83-8.46ZM6.17,107.68l-1.91-4.28-1.92,4.28h3.83Z"/>
          <path class="cls-2" d="M10.02,104.55h.92v1.08c.41-.67,1.06-1.21,2.12-1.21,1.5,0,2.37,1.01,2.37,2.48v3.85h-.92v-3.62c0-1.15-.62-1.87-1.72-1.87s-1.86.78-1.86,1.94v3.55h-.92v-6.2Z"/>
          <path class="cls-2" d="M17.71,109.1v-3.74h-.86v-.82h.86v-1.87h.92v1.87h1.97v.82h-1.97v3.62c0,.75.42,1.03,1.04,1.03.31,0,.58-.06.9-.22v.79c-.32.17-.67.26-1.12.26-1,0-1.75-.49-1.75-1.75Z"/>
          <path class="cls-2" d="M22.24,102.17h1.05v1.02h-1.05v-1.02ZM22.29,104.55h.92v6.2h-.92v-6.2Z"/>
          <path class="cls-2" d="M25.09,106.66h3.33v.97h-3.33v-.97Z"/>
          <path class="cls-2" d="M32.55,103.23h-2.83v-.88h6.61v.88h-2.83v7.52h-.95v-7.52Z"/>
          <path class="cls-2" d="M38.04,102.35h.89l5.29,6.73v-6.73h.92v8.4h-.75l-5.42-6.88v6.88h-.92v-8.4Z"/>
          <path class="cls-2" d="M47.5,102.35h6.03v.88h-5.08v3h4.55v.86h-4.55v3.66h-.95v-8.4Z"/>
          <path class="cls-2" d="M54.93,106.66h3.33v.97h-3.33v-.97Z"/>
          <path class="cls-2" d="M60.06,104.55h.92v1.08c.41-.67,1.06-1.21,2.12-1.21,1.5,0,2.37,1.01,2.37,2.48v3.85h-.92v-3.62c0-1.15-.62-1.87-1.72-1.87s-1.86.78-1.86,1.94v3.55h-.92v-6.2Z"/>
          <path class="cls-2" d="M66.96,108.95v-.02c0-1.31,1.08-2,2.65-2,.79,0,1.36.11,1.91.26v-.22c0-1.12-.68-1.69-1.85-1.69-.73,0-1.31.19-1.88.46l-.28-.75c.68-.31,1.36-.52,2.25-.52s1.55.23,2,.68c.42.42.64,1.02.64,1.81v3.79h-.89v-.94c-.43.56-1.15,1.07-2.24,1.07-1.15,0-2.32-.66-2.32-1.93ZM71.53,108.47v-.6c-.46-.13-1.07-.26-1.82-.26-1.16,0-1.81.5-1.81,1.28v.02c0,.78.72,1.24,1.56,1.24,1.14,0,2.07-.7,2.07-1.68Z"/>
          <path class="cls-2" d="M73.32,102.47h1.07v1.14h-1.07v-1.14ZM74.43,104.55h.92v6.2h-.92v-6.2ZM75.42,102.47h1.07v1.14h-1.07v-1.14Z"/>
          <path class="cls-2" d="M76.87,104.55h1.02l2.09,5.14,2.1-5.14h1l-2.7,6.25h-.82l-2.69-6.25Z"/>
          <path class="cls-2" d="M84.12,107.67v-.02c0-1.79,1.26-3.23,2.97-3.23,1.83,0,2.89,1.46,2.89,3.27,0,.12,0,.19-.01.3h-4.92c.13,1.34,1.08,2.1,2.18,2.1.85,0,1.45-.35,1.96-.88l.58.52c-.62.7-1.38,1.16-2.55,1.16-1.7,0-3.09-1.31-3.09-3.23ZM89.05,107.3c-.1-1.13-.74-2.11-1.98-2.11-1.08,0-1.89.9-2.01,2.11h3.99Z"/>
          <path class="cls-2" d="M43.54,118.95h.92v1.25c.5-.74,1.24-1.38,2.38-1.38,1.49,0,2.96,1.17,2.96,3.21v.02c0,2.03-1.46,3.23-2.96,3.23-1.15,0-1.9-.62-2.38-1.32v3.11h-.92v-8.12ZM48.85,122.07v-.02c0-1.46-1.01-2.4-2.18-2.4s-2.24.97-2.24,2.39v.02c0,1.44,1.09,2.4,2.24,2.4s2.18-.89,2.18-2.39Z"/>
          <path class="cls-2" d="M51.01,123.35v-.02c0-1.31,1.08-2,2.65-2,.79,0,1.36.11,1.91.26v-.22c0-1.12-.68-1.69-1.85-1.69-.73,0-1.31.19-1.88.46l-.28-.75c.68-.31,1.36-.52,2.25-.52s1.55.23,2,.68c.42.42.64,1.02.64,1.81v3.79h-.89v-.94c-.43.56-1.15,1.07-2.24,1.07-1.15,0-2.31-.66-2.31-1.93ZM55.58,122.87v-.6c-.46-.13-1.07-.26-1.82-.26-1.16,0-1.81.5-1.81,1.28v.02c0,.78.72,1.24,1.56,1.24,1.14,0,2.07-.7,2.07-1.68Z"/>
          <path class="cls-2" d="M58.73,123.5v-3.74h-.86v-.82h.86v-1.87h.92v1.87h1.97v.82h-1.97v3.62c0,.75.42,1.03,1.04,1.03.31,0,.58-.06.9-.22v.79c-.32.17-.67.26-1.12.26-1,0-1.75-.49-1.75-1.75Z"/>
          <path class="cls-2" d="M63.25,116.57h1.05v1.02h-1.05v-1.02ZM63.31,118.95h.92v6.2h-.92v-6.2Z"/>
          <path class="cls-2" d="M65.97,122.07v-.02c0-1.79,1.26-3.23,2.97-3.23,1.83,0,2.89,1.46,2.89,3.27,0,.12,0,.19-.01.3h-4.92c.13,1.34,1.08,2.1,2.18,2.1.85,0,1.45-.35,1.96-.88l.58.52c-.62.7-1.38,1.16-2.55,1.16-1.7,0-3.09-1.31-3.09-3.23ZM70.9,121.71c-.1-1.13-.74-2.11-1.98-2.11-1.08,0-1.89.9-2.01,2.11h3.99Z"/>
          <path class="cls-2" d="M73.44,118.95h.92v1.08c.41-.67,1.06-1.21,2.12-1.21,1.5,0,2.37,1.01,2.37,2.48v3.85h-.92v-3.62c0-1.15-.62-1.87-1.72-1.87s-1.86.78-1.86,1.94v3.55h-.92v-6.2Z"/>
          <path class="cls-2" d="M81.13,123.5v-3.74h-.86v-.82h.86v-1.87h.92v1.87h1.97v.82h-1.97v3.62c0,.75.42,1.03,1.04,1.03.31,0,.58-.06.9-.22v.79c-.32.17-.67.26-1.12.26-1,0-1.75-.49-1.75-1.75Z"/>
          <path class="cls-2" d="M85.12,124.36l.47-.66c.67.5,1.42.79,2.15.79s1.28-.38,1.28-.98v-.02c0-.62-.73-.86-1.55-1.09-.97-.28-2.05-.61-2.05-1.75v-.02c0-1.07.89-1.78,2.11-1.78.75,0,1.59.26,2.23.68l-.42.7c-.58-.37-1.24-.6-1.83-.6-.73,0-1.2.38-1.2.9v.02c0,.59.77.82,1.59,1.07.96.29,1.99.66,1.99,1.78v.02c0,1.18-.97,1.86-2.21,1.86-.89,0-1.87-.35-2.57-.91Z"/>
        </g>
      </g>
    </g>
  </g>
</svg>