<?xml version="1.0" encoding="UTF-8"?>
<svg id="Layer_2" data-name="Layer 2" xmlns="http://www.w3.org/2000/svg" viewBox="0 0 224 17.03">
  <defs>
    <style>
      .cls-1 {
        fill: #fff;
        stroke-width: 0px;
      }
    </style>
  </defs>
  <g id="Layer_1-2" data-name="Layer 1">
    <g>
      <path class="cls-1" d="m8.23,10.69v-2.77h7.17v6.56c-.7.67-1.71,1.27-3.03,1.78-1.32.51-2.66.77-4.01.77-1.72,0-3.22-.36-4.5-1.08s-2.24-1.76-2.89-3.1-.97-2.81-.97-4.39c0-1.71.36-3.24,1.08-4.57.72-1.33,1.77-2.35,3.16-3.07,1.06-.55,2.37-.82,3.94-.82,2.04,0,3.64.43,4.79,1.29,1.15.86,1.89,2.04,2.22,3.55l-3.3.62c-.23-.81-.67-1.45-1.31-1.91-.64-.47-1.44-.7-2.4-.7-1.45,0-2.61.46-3.46,1.38-.86.92-1.29,2.29-1.29,4.1,0,1.95.43,3.42,1.3,4.4.87.98,2.01,1.47,3.41,1.47.7,0,1.39-.14,2.09-.41.7-.27,1.3-.6,1.8-.99v-2.09h-3.81Z"/>
      <path class="cls-1" d="m17.75,16.74V.28h3.16v16.46h-3.16Z"/>
      <path class="cls-1" d="m22.72,10.61c0-1.05.26-2.06.77-3.04.52-.98,1.25-1.73,2.2-2.25.95-.52,2-.77,3.17-.77,1.8,0,3.28.59,4.44,1.76s1.73,2.65,1.73,4.44-.58,3.3-1.75,4.49c-1.16,1.19-2.63,1.78-4.4,1.78-1.09,0-2.14-.25-3.13-.74-.99-.49-1.75-1.22-2.26-2.17-.52-.96-.77-2.12-.77-3.49Zm3.23.17c0,1.18.28,2.09.84,2.72s1.25.94,2.08.94,1.51-.31,2.07-.94c.56-.63.84-1.54.84-2.74s-.28-2.07-.84-2.7c-.56-.63-1.25-.94-2.07-.94s-1.52.31-2.08.94-.84,1.54-.84,2.72Z"/>
      <path class="cls-1" d="m36.68,16.74V.28h3.16v5.93c.97-1.11,2.13-1.66,3.46-1.66,1.45,0,2.65.53,3.6,1.58s1.43,2.56,1.43,4.53-.48,3.6-1.45,4.71c-.97,1.1-2.15,1.65-3.53,1.65-.68,0-1.35-.17-2.02-.51-.66-.34-1.23-.84-1.71-1.51v1.75h-2.93Zm3.13-6.22c0,1.24.19,2.15.58,2.74.55.84,1.27,1.26,2.18,1.26.7,0,1.29-.3,1.78-.89.49-.6.74-1.53.74-2.81,0-1.36-.25-2.35-.74-2.95s-1.13-.9-1.9-.9-1.39.29-1.89.88-.75,1.48-.75,2.68Z"/>
      <path class="cls-1" d="m52.53,8.46l-2.86-.52c.32-1.15.88-2.01,1.66-2.56s1.95-.83,3.5-.83c1.41,0,2.46.17,3.14.5s1.17.76,1.45,1.27c.28.51.42,1.46.42,2.82l-.03,3.68c0,1.05.05,1.82.15,2.32.1.5.29,1.03.57,1.6h-3.12c-.08-.21-.18-.52-.3-.93-.05-.19-.09-.31-.11-.37-.54.52-1.12.92-1.73,1.18-.61.26-1.27.39-1.97.39-1.23,0-2.2-.33-2.9-1-.71-.67-1.06-1.51-1.06-2.53,0-.67.16-1.27.48-1.8.32-.53.77-.93,1.35-1.21.58-.28,1.42-.53,2.51-.74,1.48-.28,2.5-.54,3.07-.78v-.31c0-.61-.15-1.04-.45-1.3-.3-.26-.86-.39-1.7-.39-.56,0-1,.11-1.31.33s-.57.61-.76,1.16Zm4.22,2.56c-.4.13-1.04.3-1.92.48-.88.19-1.45.37-1.72.55-.41.29-.62.66-.62,1.11s.16.82.49,1.14c.33.32.75.48,1.26.48.57,0,1.11-.19,1.63-.56.38-.28.63-.63.75-1.04.08-.27.12-.78.12-1.54v-.63Z"/>
      <path class="cls-1" d="m62.27,16.74V.28h3.16v16.46h-3.16Z"/>
      <path class="cls-1" d="m73.65,16.74V.28h4.97l2.99,11.23,2.95-11.23h4.99v16.46h-3.09V3.78l-3.27,12.96h-3.2l-3.26-12.96v12.96h-3.09Z"/>
      <path class="cls-1" d="m99.05,12.95l3.14.53c-.4,1.15-1.04,2.03-1.92,2.63-.87.6-1.96.9-3.27.9-2.07,0-3.61-.68-4.6-2.03-.79-1.08-1.18-2.46-1.18-4.11,0-1.98.52-3.53,1.55-4.64s2.34-1.68,3.92-1.68c1.78,0,3.17.59,4.2,1.76,1.03,1.17,1.52,2.97,1.47,5.38h-7.91c.02.94.28,1.66.76,2.18s1.09.78,1.82.78c.49,0,.91-.13,1.25-.4.34-.27.59-.7.76-1.3Zm.18-3.19c-.02-.91-.26-1.61-.71-2.08s-1-.71-1.64-.71c-.69,0-1.26.25-1.71.75s-.67,1.18-.66,2.04h4.72Z"/>
      <path class="cls-1" d="m115.18,16.74h-2.93v-1.75c-.49.68-1.06,1.19-1.72,1.52-.66.33-1.33.5-2.01.5-1.37,0-2.54-.55-3.52-1.66-.98-1.1-1.47-2.64-1.47-4.62s.48-3.56,1.43-4.61,2.15-1.58,3.6-1.58c1.33,0,2.49.55,3.46,1.66V.28h3.16v16.46Zm-8.42-6.22c0,1.27.18,2.19.53,2.76.51.82,1.22,1.24,2.13,1.24.73,0,1.34-.31,1.85-.93.51-.62.76-1.54.76-2.77,0-1.37-.25-2.36-.74-2.96s-1.13-.9-1.9-.9-1.38.3-1.88.89c-.51.59-.76,1.48-.76,2.67Z"/>
      <path class="cls-1" d="m117.6,3.2V.28h3.16v2.92h-3.16Zm0,13.54V4.82h3.16v11.93h-3.16Z"/>
      <path class="cls-1" d="m133.7,8.34l-3.11.56c-.11-.62-.34-1.09-.71-1.4-.37-.31-.85-.47-1.44-.47-.79,0-1.41.27-1.88.81-.47.54-.7,1.45-.7,2.72,0,1.42.24,2.42.71,3,.48.58,1.11.88,1.92.88.6,0,1.09-.17,1.47-.51s.65-.93.81-1.76l3.1.53c-.32,1.42-.94,2.5-1.85,3.22-.91.73-2.14,1.09-3.67,1.09-1.74,0-3.13-.55-4.17-1.65-1.04-1.1-1.56-2.62-1.56-4.57s.52-3.5,1.56-4.6c1.04-1.1,2.45-1.65,4.22-1.65,1.45,0,2.61.31,3.46.94.86.62,1.47,1.58,1.85,2.86Z"/>
      <path class="cls-1" d="m137.76,8.46l-2.86-.52c.32-1.15.88-2.01,1.66-2.56.79-.55,1.96-.83,3.5-.83,1.41,0,2.46.17,3.14.5.69.33,1.17.76,1.46,1.27s.42,1.46.42,2.82l-.03,3.68c0,1.05.05,1.82.15,2.32s.29,1.03.57,1.6h-3.12c-.08-.21-.18-.52-.3-.93-.05-.19-.09-.31-.11-.37-.54.52-1.12.92-1.73,1.18-.61.26-1.27.39-1.97.39-1.23,0-2.2-.33-2.9-1-.71-.67-1.06-1.51-1.06-2.53,0-.67.16-1.27.48-1.8.32-.53.77-.93,1.35-1.21.58-.28,1.42-.53,2.51-.74,1.47-.28,2.5-.54,3.07-.78v-.31c0-.61-.15-1.04-.45-1.3-.3-.26-.86-.39-1.7-.39-.56,0-1,.11-1.31.33s-.57.61-.76,1.16Zm4.22,2.56c-.4.13-1.04.3-1.92.48-.88.19-1.45.37-1.72.55-.41.29-.62.66-.62,1.11s.17.82.49,1.14c.33.32.75.48,1.26.48.57,0,1.11-.19,1.63-.56.38-.28.63-.63.75-1.04.08-.27.12-.78.12-1.54v-.63Z"/>
      <path class="cls-1" d="m147.5,16.74V.28h3.16v16.46h-3.16Z"/>
      <path class="cls-1" d="m172.92,16.74h-3.62l-1.44-3.74h-6.58l-1.36,3.74h-3.53L162.81.28h3.51l6.59,16.46Zm-6.12-6.51l-2.27-6.11-2.22,6.11h4.49Z"/>
      <path class="cls-1" d="m172.59,4.82h1.75v-.9c0-1,.11-1.75.32-2.25.21-.49.61-.9,1.18-1.21.57-.31,1.3-.47,2.17-.47s1.78.13,2.64.4l-.43,2.2c-.5-.12-.98-.18-1.45-.18s-.79.11-.98.32c-.2.21-.3.62-.3,1.23v.84h2.36v2.48h-2.36v9.45h-3.16V7.3h-1.75v-2.48Z"/>
      <path class="cls-1" d="m179.56,4.82h1.75v-.9c0-1,.11-1.75.32-2.25.21-.49.61-.9,1.18-1.21.57-.31,1.3-.47,2.17-.47s1.78.13,2.64.4l-.43,2.2c-.5-.12-.98-.18-1.45-.18s-.78.11-.98.32c-.2.21-.3.62-.3,1.23v.84h2.36v2.48h-2.36v9.45h-3.16V7.3h-1.75v-2.48Z"/>
      <path class="cls-1" d="m190.27,8.46l-2.86-.52c.32-1.15.88-2.01,1.66-2.56s1.95-.83,3.5-.83c1.41,0,2.46.17,3.14.5s1.17.76,1.45,1.27c.28.51.42,1.46.42,2.82l-.03,3.68c0,1.05.05,1.82.15,2.32.1.5.29,1.03.57,1.6h-3.12c-.08-.21-.18-.52-.3-.93-.05-.19-.09-.31-.11-.37-.54.52-1.12.92-1.73,1.18-.61.26-1.27.39-1.97.39-1.23,0-2.2-.33-2.9-1-.71-.67-1.06-1.51-1.06-2.53,0-.67.16-1.27.48-1.8.32-.53.77-.93,1.35-1.21.58-.28,1.42-.53,2.51-.74,1.47-.28,2.5-.54,3.07-.78v-.31c0-.61-.15-1.04-.45-1.3-.3-.26-.87-.39-1.7-.39-.56,0-1,.11-1.31.33s-.57.61-.76,1.16Zm4.22,2.56c-.4.13-1.04.3-1.92.48-.88.19-1.45.37-1.72.55-.41.29-.62.66-.62,1.11s.17.82.49,1.14c.33.32.75.48,1.26.48.57,0,1.11-.19,1.63-.56.38-.28.63-.63.75-1.04.08-.27.12-.78.12-1.54v-.63Z"/>
      <path class="cls-1" d="m200.01,3.2V.28h3.16v2.92h-3.16Zm0,13.54V4.82h3.16v11.93h-3.16Z"/>
      <path class="cls-1" d="m208.73,16.74h-3.16V4.82h2.93v1.7c.5-.8.95-1.33,1.35-1.58.4-.25.85-.38,1.36-.38.72,0,1.41.2,2.08.59l-.98,2.75c-.53-.34-1.03-.52-1.48-.52s-.82.12-1.12.37-.55.68-.72,1.32c-.18.64-.26,1.97-.26,4v3.68Z"/>
      <path class="cls-1" d="m212.86,13.34l3.17-.48c.13.61.41,1.08.82,1.4s.99.48,1.73.48c.82,0,1.43-.15,1.84-.45.28-.21.42-.49.42-.84,0-.24-.07-.44-.22-.59-.16-.15-.51-.29-1.05-.42-2.55-.56-4.16-1.07-4.84-1.54-.94-.64-1.42-1.54-1.42-2.68,0-1.03.41-1.9,1.22-2.61.82-.7,2.08-1.06,3.79-1.06s2.85.27,3.64.8c.79.53,1.34,1.32,1.64,2.36l-2.98.55c-.13-.46-.37-.82-.72-1.07-.36-.25-.86-.37-1.52-.37-.83,0-1.43.12-1.79.35-.24.17-.36.38-.36.64,0,.22.1.42.31.57.28.21,1.27.51,2.95.89,1.68.38,2.85.85,3.52,1.4.66.56.99,1.34.99,2.35,0,1.09-.46,2.03-1.37,2.82-.91.79-2.26,1.18-4.05,1.18-1.62,0-2.91-.33-3.86-.99-.95-.66-1.57-1.55-1.86-2.68Z"/>
    </g>
  </g>
</svg>