<svg xmlns="http://www.w3.org/2000/svg" width="256" height="42.205" viewBox="0 0 256 42.205">
  <g id="jazz_white" transform="translate(12172 19064)">
    <path id="Path_19618" data-name="Path 19618" d="M0,21.1a21.061,21.061,0,0,0,13.085,19.4V20.687c.257-3.464,3.913-6.222,8.4-6.222a3.882,3.882,0,0,1,.609.032h.128c.192.032.385.032.577.064h0c.225.032.417.064.609.1h.032A9.333,9.333,0,0,1,26.844,16V.674A20.882,20.882,0,0,0,21.52,0,21.315,21.315,0,0,0,0,21.1" transform="translate(-12172 -19064)" fill="#fff"/>
    <path id="Path_19619" data-name="Path 19619" d="M64.027,5.2V24.572c0,3.624-3.752,6.575-8.4,6.575a10.3,10.3,0,0,1-4.3-.93V27.041a5.967,5.967,0,0,0,4.234,1.732c2.983.032,5.42-1.8,5.452-4.073.032-2.309-2.341-4.2-5.292-4.266-2.951-.032-5.388,1.8-5.42,4.073v5.1h0V45.066a21.566,21.566,0,0,0,26.909-20.43A21.159,21.159,0,0,0,64.027,5.2" transform="translate(-12206.168 -19067.533)" fill="#fff"/>
    <path id="Path_19620" data-name="Path 19620" d="M791.651,81.338a1.246,1.246,0,0,1-1.251-1.219,1.251,1.251,0,1,1,1.251,1.219m0-2.309a1.081,1.081,0,0,0-1.09,1.09,1.1,1.1,0,0,0,1.09,1.09,1.081,1.081,0,0,0,1.09-1.09,1.062,1.062,0,0,0-1.09-1.09m-.449.385h.609c.225,0,.417.032.449.353,0,.16-.064.224-.192.353.16.1.16.1.16.353.032.192,0,.192.064.321h-.224l-.032-.16c-.032-.16.064-.417-.225-.417h-.449v.577h-.192V79.413Zm.16.128v.449h.449c.128,0,.225-.032.257-.192.032-.224-.128-.257-.257-.257Z" transform="translate(-12708.901 -19117.371)" fill="#fff"/>
    <path id="Path_19621" data-name="Path 19621" d="M161.2,45.8V44.514h4.458v1.315c0,1.123.545,1.668,1.475,1.668,1.026,0,1.443-.674,1.443-1.6V34.7h4.811V46.054a5.244,5.244,0,0,1-1.123,3.592,6.344,6.344,0,0,1-4.907,1.86C162.964,51.506,161.2,48.876,161.2,45.8Z" transform="translate(-12281.5 -19087.57)" fill="#fff"/>
    <path id="Path_19622" data-name="Path 19622" d="M208.8,59.308h-.032a4.116,4.116,0,0,1-3.56,1.6c-2.277,0-3.913-1.219-3.913-3.528,0-2.6,2.021-3.368,4.266-3.624,2.5-.289,3.175-.577,3.175-1.315,0-.641-.289-1.123-1.251-1.123a1.417,1.417,0,0,0-1.539,1.411h-4.137c.1-2.341,1.892-4.234,5.581-4.234a7.206,7.206,0,0,1,3.849.77A3.9,3.9,0,0,1,213.07,52.8v5.9c0,.994.064,1.539.449,1.764v.192h-4.3A4.465,4.465,0,0,1,208.8,59.308Zm.032-2.983V55.3a8.166,8.166,0,0,1-1.7.545c-1.283.289-1.668.641-1.668,1.347,0,.77.641,1.123,1.347,1.123A1.856,1.856,0,0,0,208.837,56.326Z" transform="translate(-12308.739 -19096.945)" fill="#fff"/>
    <path id="Path_19623" data-name="Path 19623" d="M242.2,58.1l4.137-4.2c.577-.577,1.187-1.123,1.187-1.123v-.064s-.962.032-1.7.032h-3.207V49.5h10.359v3.015l-3.913,4.009c-.706.706-1.507,1.443-1.507,1.443V58s.866-.032,1.924-.032h3.881v3.3H242.2Z" transform="translate(-12336.521 -19097.625)" fill="#fff"/>
    <path id="Path_19624" data-name="Path 19624" d="M280,58.1l4.137-4.2c.577-.577,1.187-1.123,1.187-1.123v-.064s-.962.032-1.7.032h-3.207V49.5h10.359v3.015l-3.913,4.009c-.706.706-1.507,1.443-1.507,1.443V58s.866-.032,1.924-.032h3.881v3.3H280Z" transform="translate(-12362.198 -19097.625)" fill="#fff"/>
    <path id="Path_19625" data-name="Path 19625" d="M334.4,34.7h6.222a5.077,5.077,0,0,1,3.849,1.315,4.284,4.284,0,0,1,1.187,3.207c0,3.079-1.764,4.618-5.164,4.618h-4.875v7.377h-1.187V34.7Zm1.187,8.082h4.779c2.919,0,4.041-1.347,4.041-3.528s-1.315-3.464-3.881-3.464h-4.939Z" transform="translate(-12399.15 -19087.57)" fill="#fff"/>
    <path id="Path_19626" data-name="Path 19626" d="M375.023,41.275h.032a4.6,4.6,0,0,1,4.169-2.245,3.432,3.432,0,0,1,3.656,3.656v8.531h-1.123v-8.4a2.459,2.459,0,0,0-2.726-2.79,3.8,3.8,0,0,0-4.009,3.5v7.7H373.9V34.7h1.122Z" transform="translate(-12425.982 -19087.57)" fill="#fff"/>
    <path id="Path_19627" data-name="Path 19627" d="M413.511,58.876v-.417h-.064a4.865,4.865,0,0,1-4.33,2.149c-2.181,0-3.817-1.123-3.817-3.336,0-2.854,2.213-3.432,4.715-3.656,2.822-.289,3.464-.417,3.464-1.539V51.66c0-1.8-1.058-2.6-3.015-2.6-2.245,0-3.432.93-3.592,2.694h-1.155c.225-2.309,1.764-3.656,4.747-3.656,2.662,0,4.137,1.187,4.137,3.624v7.024c0,.641.353.834.77.834a1.222,1.222,0,0,0,.545-.128h.064v.834a1.915,1.915,0,0,1-.93.192A1.419,1.419,0,0,1,413.511,58.876Zm0-2.822V53.841a10.718,10.718,0,0,1-3.335.706c-2.117.224-3.688.513-3.688,2.758,0,1.7,1.251,2.341,2.758,2.341C411.939,59.678,413.511,57.882,413.511,56.054Z" transform="translate(-12447.312 -19096.674)" fill="#fff"/>
    <path id="Path_19628" data-name="Path 19628" d="M443.855,51.137h.032a4.265,4.265,0,0,1,1.7-1.892,3.949,3.949,0,0,1,2.181-.545v1.123a3.585,3.585,0,0,0-1.7.289,3.938,3.938,0,0,0-2.245,3.688v6.9H442.7V48.8h1.122v2.341Z" transform="translate(-12472.717 -19097.08)" fill="#fff"/>
    <path id="Path_19629" data-name="Path 19629" d="M463.3,48.457h1.122v1.86h.032a4.093,4.093,0,0,1,3.688-2.117,3.229,3.229,0,0,1,3.239,2.181h.064a4.315,4.315,0,0,1,3.945-2.181,3.416,3.416,0,0,1,3.592,3.656v8.531h-1.122v-8.4a2.472,2.472,0,0,0-2.726-2.79,3.263,3.263,0,0,0-3.432,3.5v7.7h-1.123v-8.4a2.459,2.459,0,0,0-2.63-2.79,3.531,3.531,0,0,0-3.528,3.5v7.7H463.3Z" transform="translate(-12486.71 -19096.742)" fill="#fff"/>
    <path id="Path_19630" data-name="Path 19630" d="M524.011,58.876v-.417h-.064a4.865,4.865,0,0,1-4.33,2.149c-2.181,0-3.817-1.123-3.817-3.336,0-2.854,2.213-3.432,4.714-3.656,2.823-.289,3.464-.417,3.464-1.539V51.66c0-1.8-1.058-2.6-3.015-2.6-2.245,0-3.432.93-3.592,2.694h-1.155c.224-2.309,1.764-3.656,4.747-3.656,2.662,0,4.137,1.187,4.137,3.624v7.024c0,.641.353.834.77.834a1.221,1.221,0,0,0,.545-.128h.064v.834a1.916,1.916,0,0,1-.93.192A1.406,1.406,0,0,1,524.011,58.876Zm-.032-2.822V53.841a10.719,10.719,0,0,1-3.336.706c-2.117.224-3.688.513-3.688,2.758,0,1.7,1.251,2.341,2.758,2.341C522.439,59.678,523.979,57.882,523.979,56.054Z" transform="translate(-12522.372 -19096.674)" fill="#fff"/>
    <path id="Path_19631" data-name="Path 19631" d="M551.4,54.422c0-3.592,1.8-6.222,5.228-6.222,2.5,0,4.234,1.283,4.587,3.688h-1.123a3.161,3.161,0,0,0-3.5-2.726c-2.887,0-4.073,2.405-4.073,5.26s1.187,5.26,4.041,5.26a3.581,3.581,0,0,0,3.688-3.336h1.058a4.531,4.531,0,0,1-4.747,4.33C553.164,60.676,551.4,58.046,551.4,54.422Z" transform="translate(-12546.555 -19096.742)" fill="#fff"/>
    <path id="Path_19632" data-name="Path 19632" d="M585.055,54.618c.032,2.854,1.315,5.164,4.234,5.164a3.519,3.519,0,0,0,3.624-2.854H594a4.567,4.567,0,0,1-4.714,3.849c-3.5,0-5.388-2.6-5.388-6.254s2.053-6.222,5.324-6.222a4.507,4.507,0,0,1,3.143,1.155c1.315,1.219,1.764,2.919,1.732,5.2h-9.044Zm4.169-5.388c-2.6,0-3.913,1.924-4.137,4.458h7.857C592.88,51.347,591.854,49.23,589.224,49.23Z" transform="translate(-12568.631 -19096.809)" fill="#fff"/>
    <path id="Path_19633" data-name="Path 19633" d="M627.029,60.931V59.1H627a4.257,4.257,0,0,1-3.848,2.117,3.543,3.543,0,0,1-3.849-3.688V49h1.123v8.4a2.59,2.59,0,0,0,2.918,2.854A3.583,3.583,0,0,0,627,56.569V49h1.123V60.931Z" transform="translate(-12592.678 -19097.285)" fill="#fff"/>
    <path id="Path_19634" data-name="Path 19634" d="M651.5,41.324h1.86V37.7h1.123v3.624h2.181v.962h-2.181v8.948c0,.866.353,1.155,1.122,1.155a2.474,2.474,0,0,0,.9-.192h.064v.962a3.411,3.411,0,0,1-1.187.192,1.811,1.811,0,0,1-2.021-2.021V42.254H651.5Z" transform="translate(-12614.55 -19089.609)" fill="#fff"/>
    <path id="Path_19635" data-name="Path 19635" d="M673.5,34.7h1.123v1.86H673.5Zm0,4.586h1.123V51.217H673.5Z" transform="translate(-12629.494 -19087.57)" fill="#fff"/>
    <path id="Path_19636" data-name="Path 19636" d="M681.2,54.422c0-3.592,1.8-6.222,5.228-6.222,2.5,0,4.233,1.283,4.586,3.688h-1.122a3.161,3.161,0,0,0-3.5-2.726c-2.887,0-4.073,2.405-4.073,5.26s1.187,5.26,4.041,5.26a3.581,3.581,0,0,0,3.688-3.336h1.058a4.531,4.531,0,0,1-4.747,4.33C682.964,60.676,681.2,58.046,681.2,54.422Z" transform="translate(-12634.725 -19096.742)" fill="#fff"/>
    <path id="Path_19637" data-name="Path 19637" d="M723.211,58.876v-.417h-.064a4.865,4.865,0,0,1-4.33,2.149c-2.181,0-3.816-1.123-3.816-3.336,0-2.854,2.213-3.432,4.715-3.656,2.822-.289,3.464-.417,3.464-1.539V51.66c0-1.8-1.058-2.6-3.015-2.6-2.245,0-3.432.93-3.592,2.694h-1.154c.225-2.309,1.764-3.656,4.747-3.656,2.662,0,4.137,1.187,4.137,3.624v7.024c0,.641.353.834.77.834a1.221,1.221,0,0,0,.545-.128h.064v.834a1.915,1.915,0,0,1-.93.192A1.406,1.406,0,0,1,723.211,58.876Zm-.032-2.822V53.841a10.715,10.715,0,0,1-3.335.706c-2.117.224-3.688.513-3.688,2.758,0,1.7,1.251,2.341,2.758,2.341C721.639,59.678,723.178,57.882,723.178,56.054Z" transform="translate(-12657.685 -19096.674)" fill="#fff"/>
    <path id="Path_19638" data-name="Path 19638" d="M752.6,34.7h1.122V51.217H752.6Z" transform="translate(-12683.226 -19087.57)" fill="#fff"/>
    <path id="Path_19639" data-name="Path 19639" d="M761.2,56.8h1.155c.16,1.956,1.572,2.919,3.56,2.919,2.021,0,3.207-.994,3.207-2.566,0-1.283-.609-1.8-3.271-2.437-2.438-.577-4.266-1.219-4.266-3.335,0-1.988,1.8-3.175,4.073-3.175,2.758,0,3.977,1.443,4.233,3.4h-1.123c-.16-1.539-1.347-2.405-3.143-2.405-1.924,0-2.919.93-2.919,2.181,0,1.379,1.123,1.764,3.56,2.341,2.405.545,3.977,1.187,3.977,3.464,0,1.924-1.54,3.5-4.33,3.5C762.8,60.676,761.328,58.848,761.2,56.8Z" transform="translate(-12689.066 -19096.742)" fill="#fff"/>
  </g>
</svg>
