<?xml version="1.0" encoding="UTF-8"?>
<svg id="Layer_2" data-name="Layer 2" xmlns="http://www.w3.org/2000/svg" viewBox="0 0 204.3 16.84">
  <defs>
    <style>
      .cls-1 {
        fill: #fff;
        stroke-width: 0px;
      }
    </style>
  </defs>
  <g id="Layer_1-2" data-name="Layer 1">
    <g>
      <path class="cls-1" d="m202.76,15.04v.45h.45c.13,0,.22-.03.26-.19.03-.22-.13-.26-.26-.26h-.45Zm-.16-.13h.61c.22,0,.42.03.45.35,0,.16-.06.22-.19.35q.16.1.16.35c.03.19,0,.19.06.32h-.22l-.03-.16c-.03-.16.06-.42-.22-.42h-.45v.58h-.19v-1.38h.03Zm.45-.38c-.61,0-1.09.48-1.09,1.09,0,.58.48,1.09,1.09,1.09s1.09-.48,1.09-1.09c.03-.61-.48-1.09-1.09-1.09m0,2.31c-.67,0-1.25-.55-1.25-1.22s.55-1.22,1.25-1.22,1.25.55,1.25,1.22-.55,1.22-1.25,1.22"/>
      <path class="cls-1" d="m0,11.1v-1.28h4.46v1.31c0,1.12.55,1.67,1.48,1.67,1.03,0,1.44-.67,1.44-1.6V0h4.81v11.35c0,1.54-.35,2.69-1.12,3.59-.99,1.15-2.73,1.86-4.91,1.86-4.39,0-6.16-2.63-6.16-5.71Z"/>
      <path class="cls-1" d="m20.4,12.25v-1.03c-.42.19-.96.38-1.7.55-1.28.29-1.67.64-1.67,1.35,0,.77.64,1.12,1.35,1.12,1.06,0,2.02-.58,2.02-1.99Zm-.03,2.98h-.03c-.77,1.09-2.02,1.6-3.56,1.6-2.28,0-3.91-1.22-3.91-3.53,0-2.6,2.02-3.37,4.27-3.62,2.5-.29,3.18-.58,3.18-1.31,0-.64-.29-1.12-1.25-1.12s-1.44.55-1.54,1.41h-4.14c.1-2.34,1.89-4.23,5.58-4.23,1.8,0,2.95.22,3.85.77,1.22.77,1.83,1.96,1.83,3.53v5.9c0,.99.06,1.54.45,1.76v.19h-4.3c-.16-.35-.32-.71-.42-1.35Z"/>
      <path class="cls-1" d="m25.98,13.34l4.14-4.2c.58-.58,1.19-1.12,1.19-1.12v-.06s-.96.03-1.7.03h-3.21v-3.24h10.36v3.01l-3.91,4.01c-.71.71-1.51,1.44-1.51,1.44v.03s.87-.03,1.92-.03h3.88v3.3h-11.16v-3.18Z"/>
      <path class="cls-1" d="m38.1,13.34l4.14-4.2c.58-.58,1.19-1.12,1.19-1.12v-.06s-.96.03-1.7.03h-3.21v-3.24h10.36v3.01l-3.91,4.01c-.71.71-1.51,1.44-1.51,1.44v.03s.87-.03,1.92-.03h3.88v3.3h-11.16v-3.18Z"/>
      <path class="cls-1" d="m56.74,8.08h4.78c2.92,0,4.04-1.35,4.04-3.53s-1.31-3.46-3.88-3.46h-4.94v6.99Zm-1.19-8.08h6.22c1.83,0,2.95.45,3.85,1.31.77.77,1.19,1.8,1.19,3.21,0,3.08-1.76,4.62-5.16,4.62h-4.88v7.38h-1.19V0h-.03Z"/>
      <path class="cls-1" d="m69.34,6.57h.03c.77-1.28,2.12-2.25,4.17-2.25s3.66,1.28,3.66,3.66v8.53h-1.12v-8.4c0-1.96-1.06-2.79-2.73-2.79-2.12,0-4.01,1.51-4.01,3.5v7.7h-1.12V0h1.12v6.57Z"/>
      <path class="cls-1" d="m86.5,12.25v-2.21c-.83.42-2.12.58-3.34.71-2.12.22-3.69.51-3.69,2.76,0,1.7,1.25,2.34,2.76,2.34,2.69.03,4.27-1.76,4.27-3.59Zm0,2.82v-.42h-.06c-.67.96-1.86,2.15-4.33,2.15-2.18,0-3.82-1.12-3.82-3.34,0-2.85,2.21-3.43,4.71-3.66,2.82-.29,3.46-.42,3.46-1.54v-.42c0-1.8-1.06-2.6-3.01-2.6-2.24,0-3.43.93-3.59,2.69h-1.15c.22-2.31,1.76-3.66,4.75-3.66,2.66,0,4.14,1.19,4.14,3.62v7.02c0,.64.35.83.77.83.16,0,.35-.03.55-.13h.06v.83c-.19.1-.45.19-.93.19-.87.03-1.54-.48-1.54-1.6Z"/>
      <path class="cls-1" d="m91.44,6.93h.03c.42-.83.96-1.48,1.7-1.89.74-.42,1.32-.55,2.18-.55v1.12c-.67-.03-1.19.06-1.7.29-1.28.58-2.25,1.92-2.25,3.69v6.9h-1.12V4.59h1.12v2.34h.03Z"/>
      <path class="cls-1" d="m96.89,4.59h1.12v1.86h.03c.77-1.22,1.86-2.12,3.69-2.12,1.48,0,2.76.74,3.24,2.18h.06c.77-1.35,2.12-2.18,3.94-2.18,1.99,0,3.59,1.28,3.59,3.66v8.53h-1.12v-8.4c0-1.96-1.09-2.79-2.73-2.79-1.86,0-3.43,1.19-3.43,3.5v7.7h-1.12v-8.4c0-1.96-1.12-2.79-2.63-2.79-1.86,0-3.53,1.51-3.53,3.5v7.7h-1.12V4.59Z"/>
      <path class="cls-1" d="m121.91,12.25v-2.21c-.83.42-2.12.58-3.34.71-2.12.22-3.69.51-3.69,2.76,0,1.7,1.25,2.34,2.76,2.34,2.73.03,4.27-1.76,4.27-3.59Zm.03,2.82v-.42h-.06c-.67.96-1.86,2.15-4.33,2.15-2.18,0-3.82-1.12-3.82-3.34,0-2.85,2.21-3.43,4.71-3.66,2.82-.29,3.46-.42,3.46-1.54v-.42c0-1.8-1.06-2.6-3.01-2.6-2.25,0-3.43.93-3.59,2.69h-1.15c.22-2.31,1.76-3.66,4.75-3.66,2.66,0,4.14,1.19,4.14,3.62v7.02c0,.64.35.83.77.83.16,0,.35-.03.55-.13h.06v.83c-.19.1-.45.19-.93.19-.9.03-1.54-.48-1.54-1.6Z"/>
      <path class="cls-1" d="m125.15,10.55c0-3.59,1.8-6.22,5.23-6.22,2.5,0,4.23,1.28,4.59,3.69h-1.12c-.38-1.89-1.6-2.73-3.5-2.73-2.89,0-4.07,2.41-4.07,5.26s1.19,5.26,4.04,5.26c2.08,0,3.43-1.38,3.69-3.34h1.06c-.29,2.6-2.02,4.33-4.75,4.33-3.4,0-5.16-2.63-5.16-6.25Z"/>
      <path class="cls-1" d="m140.89,5.29c-2.6,0-3.91,1.92-4.14,4.46h7.86c-.06-2.34-1.09-4.46-3.72-4.46Zm-4.17,5.39c.03,2.85,1.32,5.16,4.23,5.16,2.15,0,3.14-1.25,3.62-2.85h1.09c-.48,2.21-2.05,3.85-4.71,3.85-3.5,0-5.39-2.6-5.39-6.25s2.05-6.22,5.32-6.22c1.28,0,2.34.42,3.14,1.15,1.31,1.22,1.76,2.92,1.73,5.2h-9.04v-.03Z"/>
      <path class="cls-1" d="m154.65,16.52v-1.83h-.03c-.77,1.15-1.83,2.12-3.85,2.12-2.18,0-3.85-1.31-3.85-3.69V4.59h1.12v8.4c0,1.96,1.12,2.85,2.92,2.85,2.12,0,3.66-1.6,3.66-3.69v-7.57h1.12v11.93h-1.09Z"/>
      <path class="cls-1" d="m157.25,4.59h1.86V.96h1.12v3.62h2.18v.96h-2.18v8.95c0,.87.35,1.15,1.12,1.15.29,0,.71-.1.9-.19h.06v.96c-.38.13-.71.19-1.19.19-1.22,0-2.02-.61-2.02-2.02V5.52h-1.86v-.93Z"/>
      <path class="cls-1" d="m164.31,4.59h1.12v11.93h-1.12V4.59Zm0-4.59h1.12v1.86h-1.12V0Z"/>
      <path class="cls-1" d="m166.78,10.55c0-3.59,1.8-6.22,5.23-6.22,2.5,0,4.23,1.28,4.59,3.69h-1.12c-.38-1.89-1.6-2.73-3.5-2.73-2.89,0-4.07,2.41-4.07,5.26s1.19,5.26,4.04,5.26c2.08,0,3.43-1.38,3.69-3.34h1.06c-.29,2.6-2.02,4.33-4.75,4.33-3.4,0-5.16-2.63-5.16-6.25Z"/>
      <path class="cls-1" d="m185.79,12.25v-2.21c-.83.42-2.12.58-3.34.71-2.12.22-3.69.51-3.69,2.76,0,1.7,1.25,2.34,2.76,2.34,2.73.03,4.27-1.76,4.27-3.59Zm.03,2.82v-.42h-.06c-.67.96-1.86,2.15-4.33,2.15-2.18,0-3.82-1.12-3.82-3.34,0-2.85,2.21-3.43,4.71-3.66,2.82-.29,3.46-.42,3.46-1.54v-.42c0-1.8-1.06-2.6-3.01-2.6-2.25,0-3.43.93-3.59,2.69h-1.15c.22-2.31,1.76-3.66,4.75-3.66,2.66,0,4.14,1.19,4.14,3.62v7.02c0,.64.35.83.77.83.16,0,.35-.03.55-.13h.06v.83c-.19.1-.45.19-.93.19-.9.03-1.54-.48-1.54-1.6Z"/>
      <rect class="cls-1" x="189.67" width="1.12" height="16.52"/>
      <path class="cls-1" d="m192.43,12.93h1.15c.16,1.96,1.57,2.92,3.56,2.92s3.21-.99,3.21-2.57c0-1.28-.61-1.8-3.27-2.44-2.44-.58-4.27-1.22-4.27-3.34,0-1.99,1.8-3.18,4.07-3.18,2.76,0,3.98,1.44,4.23,3.4h-1.12c-.16-1.54-1.35-2.41-3.14-2.41-1.92,0-2.92.93-2.92,2.18,0,1.38,1.12,1.76,3.56,2.34,2.41.55,3.98,1.19,3.98,3.46,0,1.92-1.54,3.5-4.33,3.5-3.11,0-4.59-1.83-4.71-3.88Z"/>
    </g>
  </g>
</svg>