<?xml version="1.0" encoding="UTF-8"?>
<svg id="Layer_2" data-name="Layer 2" xmlns="http://www.w3.org/2000/svg" viewBox="0 0 43.04 42.21">
  <defs>
    <style>
      .cls-1 {
        fill: #fff;
        stroke-width: 0px;
      }
    </style>
  </defs>
  <g id="Layer_1-2" data-name="Layer 1">
    <g>
      <path class="cls-1" d="m0,21.1c0,8.72,5.39,16.2,13.09,19.4v-19.82c.26-3.46,3.91-6.22,8.4-6.22.19,0,.42,0,.61.03h.13c.19.03.38.03.58.06.22.03.42.06.61.1h.03c1.25.22,2.41.71,3.4,1.35V.67c-1.7-.45-3.5-.67-5.32-.67C9.62,0,0,9.46,0,21.1"/>
      <path class="cls-1" d="m29.86,1.67v19.37c0,3.62-3.75,6.57-8.4,6.57-1.57,0-3.05-.35-4.3-.93v-3.18c.96,1.03,2.5,1.7,4.23,1.73,2.98.03,5.42-1.8,5.45-4.07.03-2.31-2.34-4.2-5.29-4.27-2.95-.03-5.39,1.8-5.42,4.07v20.56c1.73.45,3.53.67,5.39.67,11.87,0,21.52-9.46,21.52-21.1-.03-8.76-5.45-16.23-13.18-19.44"/>
    </g>
  </g>
</svg>