<?xml version="1.0" encoding="UTF-8"?>
<svg id="Layer_2" data-name="Layer 2" xmlns="http://www.w3.org/2000/svg" xmlns:xlink="http://www.w3.org/1999/xlink" viewBox="0 0 20 20">
  <defs>
    <style>
      .cls-1 {
        isolation: isolate;
      }

      .cls-2, .cls-3 {
        stroke-width: 0px;
      }

      .cls-2, .cls-4 {
        fill: none;
      }

      .cls-5 {
        clip-path: url(#clippath-1);
      }

      .cls-3 {
        fill: #fff;
      }

      .cls-4 {
        stroke: #fff;
        stroke-miterlimit: 10;
        stroke-width: .5px;
      }

      .cls-6 {
        clip-path: url(#clippath);
      }
    </style>
    <clipPath id="clippath">
      <rect class="cls-2" width="20" height="20"/>
    </clipPath>
    <clipPath id="clippath-1">
      <rect class="cls-2" y="-.15" width="20" height="20.25"/>
    </clipPath>
  </defs>
  <g id="Layer_1-2" data-name="Layer 1">
    <g>
      <path class="cls-3" d="m9.62,11.26l-.58-.83L4.41,3.8h1.99l3.73,5.35.58.83,4.85,6.95h-1.99l-3.96-5.67Zm1.78-2.07l5.47-6.37h-1.3l-4.75,5.53-3.8-5.53H2.65l5.74,8.37-5.74,6.68h1.3l5.02-5.84,4.01,5.84h4.38l-5.95-8.67Z"/>
      <g class="cls-6">
        <g class="cls-1">
          <g class="cls-5">
            <path class="cls-4" d="m.2,17.8V2.2c0-.27.05-.52.15-.77.1-.25.25-.46.43-.65.19-.19.4-.33.65-.43.25-.1.5-.15.77-.15h15.61c.27,0,.52.05.77.15.24.1.46.25.65.43.19.19.33.4.43.65.1.25.15.5.15.77v15.61c0,.27-.05.52-.15.77-.1.25-.25.46-.43.65-.19.19-.4.33-.65.43-.25.1-.5.15-.77.15H2.2c-.27,0-.52-.05-.77-.15-.24-.1-.46-.25-.65-.43-.19-.19-.33-.4-.43-.65-.1-.25-.15-.5-.15-.77Z"/>
          </g>
        </g>
      </g>
    </g>
  </g>
</svg>